<?xml version="1.0" encoding="UTF-8"?>
<svg height="750.457" width="550.5931551851852" xmlns="http://www.w3.org/2000/svg">
 <g style="fill:none;">
  <text x="64.687,69.783,72.331,77.025,82.326,86.001,90.48,94.253,97.908,102.808,106.415,110.795,116.205,121.40899999999999,125.123,130.023,133.629,138.833,142.508,146.888,150.749,155.13,160.539,163.695,167.36,170.516,175.817,180.198,183.853,187.528,190.076,193.849,198.749,202.444,207.54,210.392,214.351,219.447,221.995,226.542,230.315,233.911,237.684,242.986,251.149,259.42,263.801,267.476,271.85699999999997,275.522,279.902,285.312" y="104.49199999999996" svg_rhmargin="290.516" style="fill:#131413;font-family:EMLAJL+JhftpfAdvTT86d47313;font-size:9.8px;font-style:NORMAL;font-weight:normal;">Figures 2 and 3 present the risk of bias summary and</text>
  <text x="56.7,60.375,62.923,66.696,71.596,75.692,80.788,83.64,87.707,92.401,96.076,100.456,105.66,110.96199999999999,115.087,118.762,123.143,126.916,132.12,136.628,141.008,144.164,146.712,151.2,155.679,158.227,162.607,164.743,168.83,173.828,176.376,181.168,185.323,189.096,192.252,197.554,202.846,205.394,209.774,213.547,217.585,221.26,225.64,230.844,235.94,239.693,242.849,247.229,252.43300000000002,256.529,259.685,264.987,269.36800000000005,273.483,277.158,281.539,286.948" y="116.457" svg_rhmargin="290.515" style="fill:#131413;font-family:EMLAJL+JhftpfAdvTT86d47313;font-size:9.8px;font-style:NORMAL;font-weight:normal;">risk of graph respectively. Six studies reported the ran-</text>
  <text x="56.7,61.903,66.999,75.16199999999999,78.299,82.072,86.452,91.656,96.958,101.338,106.748,111.236,115.617,118.664,123.359,127.739,133.237,137.617,141.292,145.673,148.829,151.376,156.472,161.882,165.038,169.418,174.828,180.032,183.118,188.214,193.624,198.005,201.15,207.981,210.529,213.684,218.986,222.122,227.424,229.972,234.666,239.968,243.094,246.769,249.317,253.09,257.99,261.067,266.163,269.015,272.464,277.56,280.108,284.596,288.369" y="128.47199999999998" svg_rhmargin="290.505" style="fill:#131413;font-family:EMLAJL+JhftpfAdvTT86d47313;font-size:9.8px;font-style:NORMAL;font-weight:normal;">dom sequence generation and one with high risk of bias.</text>
  <text x="56.7,61.796,64.344,68.832,73.213,77.907,81.68,84.835,90.137,95.341,97.889,102.269,106.042,110.736,117.567,121.947,125.701,130.082,134.717,141.547,144.095,147.251,152.553,157.227,159.775,164.871,171.702,176.386,180.061,182.609,186.382,191.282,195.946,201.042,203.894,208.873,213.968,216.516,221.064,225.033,227.16899999999998,231.775,236.155,241.643,246.847,251.453,254.609,261.439,266.535,271.239,278.07,282.45,286.125" y="140.48699999999997" svg_rhmargin="290.506" style="fill:#131413;font-family:EMLAJL+JhftpfAdvTT86d47313;font-size:9.8px;font-style:NORMAL;font-weight:normal;">Five studies were with low risk of bias, and two were</text>
  <text x="56.7,63.53,66.078,69.234,74.536,77.564,82.865,88.275,92.656,95.203,99.584,103.965,107.64,110.619,114.294,116.91,120.683,125.58300000000001,128.533,133.629,136.481,139.754,144.85,147.398,151.886,155.659" y="152.452" svg_rhmargin="157.795" style="fill:#131413;font-family:EMLAJL+JhftpfAdvTT86d47313;font-size:9.8px;font-style:NORMAL;font-weight:normal;">with unclear risk of bias.</text>
  <text x="56.693,64.255,68.947,72.103,76.703,79.574,84.174,89.344,93.944,96.244,100.844,104.763,107.063,110.89,113.66,116.917,121.609,125.436,130.607,132.907,136.062" y="176.49199999999996" svg_rhmargin="139.889" style="fill:#131413;font-family:EMLAJJ+HmfjbvAdvTT99c4c969;font-size:9.2px;font-style:NORMAL;font-weight:normal;">Meta-analysis results</text>
  <text x="56.693,61.771,66.077,68.947,71.91,76.216,81.101,84.257,87.081,90.236,95.122,98.084" y="188.452" svg_rhmargin="102.39" style="fill:#131413;font-family:EMLHEI+VrhngdAdvTT83913201.I;font-size:9.2px;font-style:NORMAL;font-weight:normal;">Re-tear rate</text>
  <text x="56.693,61.792,66.381,70.97,75.452,80.862,86.225,90.138,93.395,98.797,104.102,106.751,111.232,115.005,120.359,123.646,128.635" y="200.47299999999996" svg_rhmargin="133.535" style="fill:#131413;font-family:EMLAJL+JhftpfAdvTT86d47313;font-size:9.8px;font-style:NORMAL;font-weight:normal;">Seven studies [15</text>
  <text x="133.624" y="200.47299999999996" svg_rhmargin="139.543" style="fill:#131413;font-family:EMLAKM+HlwydcAdvTT86d47313+20;font-size:9.8px;font-style:NORMAL;font-weight:normal;">–</text>
  <text x="139.629,144.619,149.665,151.801,157.152,162.141,167.187,169.323,174.674,179.663,184.652,187.808,193.207,198.48,203.017,206.761,209.711,214.924,218.726,226.889,232.221,236.601,241.237,245.715,248.381,250.929,255.466,260.68,263.345,267.726,273.096,278.427,282.906,286.14" y="200.47299999999996" svg_rhmargin="290.521" style="fill:#0000ff;font-family:EMLAJL+JhftpfAdvTT86d47313;font-size:9.8px;font-style:NORMAL;font-weight:normal;">19, 21, 22] perform available data</text>
  <text x="56.693,59.648,64.846,68.521,74.142,79.468,84.667,88.543,91.801,96.892,102.287,106.761,110.538,115.022,118.28,120.931,125.523,129.904,135.553,139.331,143.863,147.425,150.772,155.255,159.739,163.41400000000002,169.093,172.871,177.354,180.613,185.096,187.232,192.863,199.384,204.789,209.272,213.05,217.431,223.081,230.014,234.605,238.378,244.018,249.521,254.617,260.296,265.739,270.223,273.481,277.965,281.743,286.942" y="212.48699999999997" svg_rhmargin="290.509" style="fill:#131413;font-family:EMLAJL+JhftpfAdvTT86d47313;font-size:9.8px;font-style:NORMAL;font-weight:normal;">for postoperative re-tear rate. There was no hetero-</text>
  <text x="56.693,61.49,65.973,71.486,75.969,78.62,81.879,86.26,92.928,97.402,101.885,105.624,110.823,114.699,118.472,125.13,128.418,133.823,138.204,144.872,147.523,153.036,157.519,160.17,165.575,170.881,175.365,180.56900000000002,187.267,191.143,194.401,199.806,205.112,207.763,212.247,216.02,222.679" y="224.45299999999997" svg_rhmargin="225.835" style="fill:#131413;font-family:EMLAJL+JhftpfAdvTT86d47313;font-size:9.8px;font-style:NORMAL;font-weight:normal;">geneity across the included studies (</text>
  <text x="225.976" y="224.45299999999997" svg_rhmargin="229.132" style="fill:#131413;font-family:EMLBJJ+ChnpmvAdvTT8861b38f.I;font-size:9.8px;font-style:NORMAL;font-weight:normal;">I</text>
  <text svg_rhmargin="232.884" x="229.209,232.88400000000001" y="224.45399999999995" style="fill:#131413;font-family:EMLAJL+JhftpfAdvTT86d47313;font-size:6.53px;font-style:NORMAL;font-weight:normal;">2 </text>
  <text svg_rhmargin="268.645" x="239.584,245.297,247.351,252.344,254.554,259.596,266.509,268.64500000000004" y="224.45399999999995" style="fill:#131413;font-family:EMLAJL+JhftpfAdvTT86d47313;font-size:9.8px;font-style:NORMAL;font-weight:normal;">= 0.0%, </text>
  <text svg_rhmargin="280.813" x="275.305,280.813" y="224.45399999999995" style="fill:#131413;font-family:EMLBJJ+ChnpmvAdvTT8861b38f.I;font-size:9.8px;font-style:NORMAL;font-weight:normal;">P </text>
  <text x="282.9" y="224.45399999999995" svg_rhmargin="288.613" style="fill:#131413;font-family:EMLAJL+JhftpfAdvTT86d47313;font-size:9.8px;font-style:NORMAL;font-weight:normal;">=</text>
  <text x="56.698,61.698,63.935,68.935,73.935,78.934,82.19,84.326,89.16,95.796,101.07,109.344,114.647,119.128,122.903,127.383,132.587,137.469,144.39,147.038,150.293,155.595,160.438,163.723,169.125,173.506,178.417,182.898,188.094,193.603,196.859,200.633,205.829,208.377,213.201,218.015,221.79,226.985,232.426,237.701,239.837,244.67,250.278,256.395,261.491,266.148,270.942,274.717,279.913,285.314" y="236.46799999999996" svg_rhmargin="290.518" style="fill:#131413;font-family:EMLAJL+JhftpfAdvTT86d47313;font-size:9.8px;font-style:NORMAL;font-weight:normal;">0.614). Compared with the control group, PRF group</text>
  <text x="56.698,63.643,68.235,72.008,78.442,83.936,89.146,92.302,98.668,103.26,107.117,111.004,116.096,120.639,123.301,127.795,131.064,135.558,140.762,147.118,154.062,156.606,159.954,165.256,171.632,176.013,182.408,186.206,190.7,196.018,201.433,205.927,209.197,211.741,217.019,222.429,228.814,234.024,236.876,243.261,246.53,251.946,256.327,262.722,266.461,270.956,274.636,277.906,282.4,286.894" y="248.48299999999995" svg_rhmargin="290.569" style="fill:#131413;font-family:EMLAJL+JhftpfAdvTT86d47313;font-size:9.8px;font-style:NORMAL;font-weight:normal;">was not associated with a reduction of the re-tear</text>
  <text svg_rhmargin="242.147" x="56.698,60.466,64.938,68.186,72.56700000000001,81.282,84.53,90.639,96.65599999999999,98.748,104.461,106.513,111.505,113.734,118.726,123.767,125.90299999999999,134.59,139.582,144.574,151.405,160.111,166.838,170.101,172.114,177.827,179.879,184.871,187.1,192.092,196.99200000000002,205.698,208.926,214.022,222.758,227.75,229.978,235.019,240.011,242.147" y="260.44899999999996" style="fill:#131413;font-family:EMLAJL+JhftpfAdvTT86d47313;font-size:9.8px;font-style:NORMAL;font-weight:normal;">rate (RR = 1.30, 95% CI = 0.97 to 1.75; </text>
  <text svg_rhmargin="256.382" x="250.874,256.382" y="260.44899999999996" style="fill:#131413;font-family:EMLBJJ+ChnpmvAdvTT8861b38f.I;font-size:9.8px;font-style:NORMAL;font-weight:normal;">P </text>
  <text x="258.41,264.12300000000005,266.171,271.159,273.394,278.392,283.39,288.388" y="260.44899999999996" svg_rhmargin="290.524" style="fill:#131413;font-family:EMLAJL+JhftpfAdvTT86d47313;font-size:9.8px;font-style:NORMAL;font-weight:normal;">= 0.082,</text>
  <text x="56.698,61.914,64.464,69.346,71.482,76.083,81.071,84.352,86.488,91.043,96.764,101.241,106.462,109.136,113.517,118.095,122.995,127.62,132.928,136.707,141.191,145.068,149.553,155.066,158.414,162.18699999999998,166.808,170.068,175.473,179.854,184.426,188.225,192.709,196.586,201.992,204.536,208.001,211.774,216.337,221.537,224.389,229.02,232.897,238.302,243.502,248.3,252.079,257.279,262.685,267.889,272.49,277.024,282.518,287.002" y="272.46299999999997" svg_rhmargin="290.569" style="fill:#131413;font-family:EMLAJL+JhftpfAdvTT86d47313;font-size:9.8px;font-style:NORMAL;font-weight:normal;">Fig. 4). Table 2 presents the results of subgroup ana-</text>
  <text x="56.698,59.364,63.862,67.753,72.251,76.141,78.277,83.393,89.92,95.359,99.74,104.885,107.893,110.441,115.998,121.319,123.985,129.512,134.323,138.096,143.281,148.494,151.346,156.491,160.293,164.791,168.476,171.749,176.247,180.746,184.42100000000002,189.536,193.329,197.827,201.1,205.481,210.625,217.574,222.072,225.815,230.196,235.449,239.947,245.043,250.57,254.46,257.126,261.017,264.29,268.788,274.315,277.471,282.596,285.261" y="284.47799999999995" svg_rhmargin="290.671" style="fill:#131413;font-family:EMLAJL+JhftpfAdvTT86d47313;font-size:9.8px;font-style:NORMAL;font-weight:normal;">lyses. The findings of re-tear rate were consistent in</text>
  <text svg_rhmargin="149.246" x="56.698,61.179,63.827,66.375,70.405,74.258,79.66,84.856,89.65,93.425,98.62,104.022,109.226,113.265,117.746,123.255,127.795,130.345,134.884,138.757,143.237,147.11,149.246" y="104.49199999999996" style="fill:#131413;font-family:EMLAJL+JhftpfAdvTT86d47313;font-size:9.8px;font-style:NORMAL;font-weight:normal;">all subgroup analyses. </text>
  <text x="304.724,310.18,314.679,319.178" y="104.49199999999996" svg_rhmargin="323.677" style="fill:#131413;font-family:EMLHEI+VrhngdAdvTT83913201.I;font-size:9.2px;font-style:NORMAL;font-weight:normal;">ASES</text>
  <text x="304.724,309.82,314.916,320.218,323.89300000000003,328.989,332.762,335.917,341.219,346.423,349.059,353.44,357.213,362.269,365.444,370.344" y="116.45399999999995" svg_rhmargin="375.244" style="fill:#131413;font-family:EMLAJL+JhftpfAdvTT86d47313;font-size:9.8px;font-style:NORMAL;font-weight:normal;">Four studies [16</text>
  <text x="375.254" y="116.45399999999995" svg_rhmargin="381.173" style="fill:#131413;font-family:EMLAKM+HlwydcAdvTT86d47313+20;font-size:9.8px;font-style:NORMAL;font-weight:normal;">–</text>
  <text x="381.154,386.054,391.022,393.158,398.166,403.066,408.035,411.19100000000003,416.198,419.873,424.254,429.457,434.553,438.307,441.462,445.843,451.047,456.103,461.307,466.481,470.254,473.41,478.506,483.71,488.09,491.765,496.146,499.301,501.849,506.338,510.71900000000005,515.863,522.948,527.946,533.552" y="116.45399999999995" svg_rhmargin="538.55" style="fill:#0000ff;font-family:EMLAJL+JhftpfAdvTT86d47313;font-size:9.8px;font-style:NORMAL;font-weight:normal;">18, 21] reported postoperative ASES</text>
  <text x="304.744,308.517,312.897,317.993,321.668,326.049,329.92,332.05600000000004,334.967,341.493,346.795,351.176,354.851,359.23199999999997,362.181,369.012,373.52,377.293,380.213,382.761,385.309,388.464,391.62,394.168,398.549,401.587,406.888,411.269,414.424,418.805,422.48,427.576,432.368,436.749,442.158,446.539,449.087,452.242,456.62300000000005,459.641,464.022,468.402,472.077,477.173,480.946,484.71900000000005,487.708,490.864,496.165,500.54600000000005,503.525,506.073,511.483,515.942,518.49,523.791,528.995,533.376" y="128.46799999999996" svg_rhmargin="538.58" style="fill:#131413;font-family:EMLAJL+JhftpfAdvTT86d47313;font-size:9.8px;font-style:NORMAL;font-weight:normal;">scores. There was little heterogeneity across the included</text>
  <text x="304.744,308.517,311.672,316.974,322.178,324.814,329.195,332.968,337.005" y="140.48299999999995" svg_rhmargin="340.161" style="fill:#131413;font-family:EMLAJL+JhftpfAdvTT86d47313;font-size:9.8px;font-style:NORMAL;font-weight:normal;">studies (</text>
  <text x="340.18" y="140.48299999999995" svg_rhmargin="343.336" style="fill:#131413;font-family:EMLBJJ+ChnpmvAdvTT8861b38f.I;font-size:9.8px;font-style:NORMAL;font-weight:normal;">I</text>
  <text svg_rhmargin="346.951" x="343.276,346.951" y="140.49199999999996" style="fill:#131413;font-family:EMLAJL+JhftpfAdvTT86d47313;font-size:6.53px;font-style:NORMAL;font-weight:normal;">2 </text>
  <text svg_rhmargin="384.501" x="350.986,356.699,358.698,363.598,368.498,370.635,375.534,382.365,384.50100000000003" y="140.49199999999996" style="fill:#131413;font-family:EMLAJL+JhftpfAdvTT86d47313;font-size:9.8px;font-style:NORMAL;font-weight:normal;">= 15.0%, </text>
  <text svg_rhmargin="394.086" x="388.578,394.08599999999996" y="140.49199999999996" style="fill:#131413;font-family:EMLBJJ+ChnpmvAdvTT8861b38f.I;font-size:9.8px;font-style:NORMAL;font-weight:normal;">P </text>
  <text x="396.006,401.719,403.719,408.619,410.755,415.655,420.555,425.455,428.611,430.747,434.844,441.253,446.554,450.935,454.61,458.991,463.077,469.908,474.416,478.189,482.236,487.645,492.741,496.749,500.522,503.07,507.765,513.243,515.791,518.642,521.19,525.571,529.951,535.361" y="140.49199999999996" svg_rhmargin="538.517" style="fill:#131413;font-family:EMLAJL+JhftpfAdvTT86d47313;font-size:9.8px;font-style:NORMAL;font-weight:normal;">= 0.317). There was no significant</text>
  <text x="304.73,309.934,312.482,315.334,318.185,322.566,326.329,330.71,336.119,340.5,344.881,347.869,350.417,355.827,358.806,365.833,370.83,376.495,381.493,384.433,388.206,392.586,397.682,401.436,405.817,408.746,413.842,418.223,421.378,428.307,432.687,437.068,442.478,445.486,448.642,453.943,458.32399999999996,461.303,466.811,472.828,477.924,480.687,485.382,489.056,494.152,499.454,504.658,507.676,512.057,517.466,522.67,525.649,528.805,534.107" y="152.457" svg_rhmargin="538.488" style="fill:#131413;font-family:EMLAJL+JhftpfAdvTT86d47313;font-size:9.8px;font-style:NORMAL;font-weight:normal;">difference in ASES score between the PRF group and the</text>
  <text svg_rhmargin="528.942" x="304.73,309.111,314.207,319.616,322.772,326.447,331.543,334.091,339.824,344.518,348.193,353.289,358.59,363.794,369.478,372.634,379.464,383.933,386.481,391.175,396.477,399.632,404.013,409.217,414.94,423.103,427.484,431.864,437.274,442.948,448.152,450.7,453.551,456.403,460.784,464.547,468.927,474.337,478.718,483.09900000000005,488.753,491.908,501.806,510.979,518.123,521.279,523.229,528.942" y="164.47199999999998" style="fill:#131413;font-family:EMLAJL+JhftpfAdvTT86d47313;font-size:9.8px;font-style:NORMAL;font-weight:normal;">control group (weighted mean difference (WMD) = </text>
  <text x="530.931" y="164.47199999999998" svg_rhmargin="536.644" style="fill:#131413;font-family:EMLBKK+FjfvrxAdvTT86d47313+22;font-size:9.8px;font-style:NORMAL;font-weight:normal;">−</text>
  <text svg_rhmargin="363.853" x="304.73,309.63,311.767,316.666,321.566,323.702,326.672,331.572,336.541,343.372,346.292,352.926,356.18899999999996,358.14,363.853" y="176.48699999999997" style="fill:#131413;font-family:EMLAJL+JhftpfAdvTT86d47313;font-size:9.8px;font-style:NORMAL;font-weight:normal;">1.25, 95% CI = </text>
  <text svg_rhmargin="371.555" x="365.842,371.555" y="176.48699999999997" style="fill:#131413;font-family:EMLBKK+FjfvrxAdvTT86d47313+22;font-size:9.8px;font-style:NORMAL;font-weight:normal;">− </text>
  <text svg_rhmargin="423.475" x="373.496,378.396,380.532,385.432,390.332,393.282,396.438,401.534,404.503,409.403,411.539,416.439,421.339,423.475" y="176.48699999999997" style="fill:#131413;font-family:EMLAJL+JhftpfAdvTT86d47313;font-size:9.8px;font-style:NORMAL;font-weight:normal;">2.58 to 0.08; </text>
  <text svg_rhmargin="432.012" x="426.504,432.012" y="176.48699999999997" style="fill:#131413;font-family:EMLBJJ+ChnpmvAdvTT8861b38f.I;font-size:9.8px;font-style:NORMAL;font-weight:normal;">P </text>
  <text x="433.932,439.64500000000004,441.645,446.545,448.681,453.581,458.481,463.381,465.517,468.516,473.612,476.16,480.854,482.99,485.979,490.86,494.015" y="176.48699999999997" svg_rhmargin="496.151" style="fill:#131413;font-family:EMLAJL+JhftpfAdvTT86d47313;font-size:9.8px;font-style:NORMAL;font-weight:normal;">= 0.066, Fig. 5).</text>
  <text x="304.724,310.566,315.737,319.95" y="200.47299999999996" svg_rhmargin="325.406" style="fill:#131413;font-family:EMLHEI+VrhngdAdvTT83913201.I;font-size:9.2px;font-style:NORMAL;font-weight:normal;">UCLA</text>
  <text x="304.724,311.074,317.727,322.823,326.115,329.74,332.718,337.842,342.868,345.239,349.442,353.21500000000003,356.527,359.545,364.251,369.012,371.148,374.451,379.156,383.862,387.01800000000003,390.377,393.835,398.086,403.072,407.99,411.486,414.464,418.666,423.87,427.229,432.215,437.133,440.757,443.734,448.652,453.697,457.889,461.386,465.588,468.565,470.935,475.245,479.626,482.955,489.921,496.377,501.991,508.929,512.367,515.991,520.183,525.101,528.597,532.849,536.424" y="212.49199999999996" svg_rhmargin="538.56" style="fill:#131413;font-family:EMLAJL+JhftpfAdvTT86d47313;font-size:9.8px;font-style:NORMAL;font-weight:normal;">Two studies [16, 18] reported postoperative UCLA scores.</text>
  <text x="304.715,310.947,316.102,320.306,323.805,328.18600000000004,330.665,337.299,341.68,345.45300000000003,347.844,353.077,358.173,360.613,364.21,366.581,371.099,376.332,378.704,381.379,383.751,387.955,392.159,397.392,400.548,403.008,408.055,410.426,413.101,415.777,419.981,423.48,427.684,432.917,437.121,441.50199999999995,443.981,446.362,451.77200000000005,454.241,461.219,467.677,473.341,480.279,482.867,486.434,490.638,495.558,499.056,503.437,505.916,510.836,515.089,518.068,524.722,528.927,533.131" y="224.457" svg_rhmargin="538.541" style="fill:#131413;font-family:EMLAJL+JhftpfAdvTT86d47313;font-size:9.8px;font-style:NORMAL;font-weight:normal;">There was no significant difference in UCLA score between</text>
  <text svg_rhmargin="511.71" x="304.715,307.7,312.831,317.212,320.314,325.641,331.488,336.584,339.481,344.004,347.46,352.385,357.516,362.72,365.852,370.043,375.282,380.486,383.617,386.602,391.734,396.115,399.276,403.466,408.392,413.631,416.616,420.12,425.045,427.593,430.657,435.181,438.636,443.561,448.693,453.677,455.81300000000005,458.896,465.184,470.286,474.66700000000003,477.769,486.673,493.817,496.93,503.56,507.937,511.71000000000004" y="236.47199999999998" style="fill:#131413;font-family:EMLAJL+JhftpfAdvTT86d47313;font-size:9.8px;font-style:NORMAL;font-weight:normal;">the PRF group and the control group. The MD was </text>
  <text svg_rhmargin="520.469" x="514.756,520.4689999999999" y="236.47199999999998" style="fill:#131413;font-family:EMLBKK+FjfvrxAdvTT86d47313+22;font-size:9.8px;font-style:NORMAL;font-weight:normal;">− </text>
  <text x="522.243,527.005,528.934,533.637" y="236.47199999999998" svg_rhmargin="538.537" style="fill:#131413;font-family:EMLAJL+JhftpfAdvTT86d47313;font-size:9.8px;font-style:NORMAL;font-weight:normal;">0.96</text>
  <text svg_rhmargin="340.98" x="304.715,307.702,317.394,326.311,333.455,335.267,340.98" y="248.48699999999997" style="fill:#131413;font-family:EMLAJL+JhftpfAdvTT86d47313;font-size:9.8px;font-style:NORMAL;font-weight:normal;">(WMD = </text>
  <text svg_rhmargin="348.412" x="342.699,348.41200000000003" y="248.48699999999997" style="fill:#131413;font-family:EMLBKK+FjfvrxAdvTT86d47313+22;font-size:9.8px;font-style:NORMAL;font-weight:normal;">− </text>
  <text svg_rhmargin="406.878" x="350.186,354.948,356.877,361.59,366.352,368.488,370.947,375.66,380.373,387.204,389.672,396.119,399.382,401.165,406.87800000000004" y="248.48699999999997" style="fill:#131413;font-family:EMLAJL+JhftpfAdvTT86d47313;font-size:9.8px;font-style:NORMAL;font-weight:normal;">0.97, 95% CI = </text>
  <text svg_rhmargin="414.346" x="408.633,414.346" y="248.48699999999997" style="fill:#131413;font-family:EMLBKK+FjfvrxAdvTT86d47313+22;font-size:9.8px;font-style:NORMAL;font-weight:normal;">− </text>
  <text svg_rhmargin="463.629" x="416.12,420.831,422.778,427.489,432.38899999999995,434.855,437.822,442.918,445.414,450.124,452.072,456.783,461.493,463.629" y="248.48699999999997" style="fill:#131413;font-family:EMLAJL+JhftpfAdvTT86d47313;font-size:9.8px;font-style:NORMAL;font-weight:normal;">2.56 to 0.62; </text>
  <text svg_rhmargin="471.627" x="466.119,471.627" y="248.48699999999997" style="fill:#131413;font-family:EMLBJJ+ChnpmvAdvTT8861b38f.I;font-size:9.8px;font-style:NORMAL;font-weight:normal;">P </text>
  <text x="473.43,479.14300000000003,480.856,485.617,487.545,492.247,497.008,501.71,503.846,506.304,511.232,513.611,518.088,520.2239999999999,522.753,527.456,530.404" y="248.48699999999997" svg_rhmargin="532.54" style="fill:#131413;font-family:EMLAJL+JhftpfAdvTT86d47313;font-size:9.8px;font-style:NORMAL;font-weight:normal;">= 0.230, Fig. 6).</text>
  <text x="304.724,309.895,314.872,319.849,323.483,326.446,331.423,336.4,339.36199999999997,342.141,345.775,349.704,354.681,357.837" y="272.47299999999996" svg_rhmargin="362.143" style="fill:#131413;font-family:EMLHEI+VrhngdAdvTT83913201.I;font-size:9.2px;font-style:NORMAL;font-weight:normal;">Constant score</text>
  <text x="304.724,309.82,314.916,320.218,323.89300000000003,327.117,330.89,334.046,339.347,344.551,347.099,351.48,355.25300000000004,358.467,361.642,366.542,371.452,373.588,376.724,381.624" y="284.49199999999996" svg_rhmargin="386.524" style="fill:#131413;font-family:EMLAJL+JhftpfAdvTT86d47313;font-size:9.8px;font-style:NORMAL;font-weight:normal;">Four studies [15, 19</text>
  <text x="386.534" y="284.49199999999996" svg_rhmargin="392.453" style="fill:#131413;font-family:EMLAKM+HlwydcAdvTT86d47313+20;font-size:9.8px;font-style:NORMAL;font-weight:normal;">–</text>
  <text x="392.482,397.382,402.292,405.448,408.584,413.787,418.168,421.843,424.695,429.898,433.573,441.736,444.863,449.243,453.732,458.112,460.66,463.208,467.589,472.685,475.233,479.61400000000003,482.788,487.992,492.373,495.528,499.909,503.084,505.936,511.032,514.707,517.941,523.144,528.24,532.013,535.002" y="284.49199999999996" svg_rhmargin="538.569" style="fill:#0000ff;font-family:EMLAJL+JhftpfAdvTT86d47313;font-size:9.8px;font-style:NORMAL;font-weight:normal;">21] perform available data for post-</text>
  <text x="304.724,309.82,315.024,319.405,323.079,327.46,330.616,333.164,337.779,342.15999999999997,347.697,352.077,357.173,362.661,366.434,369.59,373.97,379.38,382.536,388.17,391.943,396.324,401.42,405.095,409.475,411.61100000000005,417.139,423.666,428.967,433.348,437.023,441.404,446.842,453.673,458.181,461.954,467.422,472.832,477.928,483.465,488.766,493.147,496.303,500.683,504.358,509.454,514.148,518.529,524.056,528.436,530.984,534.14" y="296.457" svg_rhmargin="538.521" style="fill:#131413;font-family:EMLAJL+JhftpfAdvTT86d47313;font-size:9.8px;font-style:NORMAL;font-weight:normal;">operative constant score. There was no heterogeneity</text>
  <text x="304.724,309.105,313.485,317.16,322.256,326.029,329.802,333.918,337.074,342.376,346.75699999999995,350.813,353.361,358.771,363.151,365.699,371.001,376.205,380.585,385.789,389.876,393.649,396.804,402.106,407.398,409.946,414.326,418.09900000000005,422.137" y="308.472" svg_rhmargin="425.293" style="fill:#131413;font-family:EMLAJL+JhftpfAdvTT86d47313;font-size:9.8px;font-style:NORMAL;font-weight:normal;">across the included studies (</text>
  <text x="425.312" y="308.472" svg_rhmargin="428.468" style="fill:#131413;font-family:EMLBJJ+ChnpmvAdvTT8861b38f.I;font-size:9.8px;font-style:NORMAL;font-weight:normal;">I</text>
  <text svg_rhmargin="432.16" x="428.485,432.16" y="308.473" style="fill:#131413;font-family:EMLAJL+JhftpfAdvTT86d47313;font-size:6.53px;font-style:NORMAL;font-weight:normal;">2 </text>
  <text svg_rhmargin="464.754" x="436.138,441.851,443.851,448.751,450.887,455.787,462.618,464.754" y="308.473" style="fill:#131413;font-family:EMLAJL+JhftpfAdvTT86d47313;font-size:9.8px;font-style:NORMAL;font-weight:normal;">= 0.0%, </text>
  <text svg_rhmargin="474.3" x="468.792,474.29999999999995" y="308.473" style="fill:#131413;font-family:EMLBJJ+ChnpmvAdvTT8861b38f.I;font-size:9.8px;font-style:NORMAL;font-weight:normal;">P </text>
  <text x="476.279,481.992,483.933,488.833,490.969,495.869,500.769,505.669,508.824,510.96000000000004,515.057,521.692,526.788,534.951" y="308.473" svg_rhmargin="538.518" style="fill:#131413;font-family:EMLAJL+JhftpfAdvTT86d47313;font-size:9.8px;font-style:NORMAL;font-weight:normal;">= 0.967). Com-</text>
  <text x="304.722,309.926,314.306,317.981,322.362,327.56600000000003,330.692,337.522,340.07,343.226,348.528,351.614,354.77,360.072,364.453,367.657,372.037,377.133,382.543,385.698,389.373,394.469,397.017,400.143,404.838,408.513,413.609,418.91,424.114,426.25,429.337,434.845,440.862,445.958,448.898,453.592,457.267,462.363,467.665,472.869,475.936,482.766,487.274,491.047,494.134,499.544,504.64,507.796,510.863,515.341,519.114,522.887,527.983,532.462,535.01" y="320.487" svg_rhmargin="538.577" style="fill:#131413;font-family:EMLAJL+JhftpfAdvTT86d47313;font-size:9.8px;font-style:NORMAL;font-weight:normal;">pared with the control group, PRF group was not associ-</text>
  <text x="304.722,309.102,312.258,316.639,321.843,326.772,333.602,336.15,339.306,344.608,349.507,353.88800000000003,358.749,362.424,366.804,372.008,377.31,381.69,384.944,387.492,392.588,397.99800000000005,402.858,407.954,410.806,415.725,418.881,424.183,428.56399999999996,433.522,437.903,442.998,448.486,452.259,455.415,459.796,465.205,468.361,473.378,477.151,481.532,486.628,490.303,494.68399999999997,499.622,502.778,512.676,521.76,528.904,530.913" y="332.453" svg_rhmargin="536.626" style="fill:#131413;font-family:EMLAJL+JhftpfAdvTT86d47313;font-size:9.8px;font-style:NORMAL;font-weight:normal;">ated with a reduction of the constant score (WMD =</text>
  <text svg_rhmargin="363.844" x="304.722,309.622,311.758,316.658,321.558,323.694,326.664,331.564,336.532,343.363,346.283,352.918,356.181,358.131,363.844" y="344.468" style="fill:#131413;font-family:EMLAJL+JhftpfAdvTT86d47313;font-size:9.8px;font-style:NORMAL;font-weight:normal;">0.73, 95% CI = </text>
  <text svg_rhmargin="371.547" x="365.834,371.547" y="344.468" style="fill:#131413;font-family:EMLBKK+FjfvrxAdvTT86d47313+22;font-size:9.8px;font-style:NORMAL;font-weight:normal;">− </text>
  <text svg_rhmargin="423.467" x="373.488,378.388,380.524,385.424,390.32399999999996,393.274,396.429,401.525,404.495,409.395,411.531,416.431,421.331,423.46700000000004" y="344.468" style="fill:#131413;font-family:EMLAJL+JhftpfAdvTT86d47313;font-size:9.8px;font-style:NORMAL;font-weight:normal;">1.30 to 2.77; </text>
  <text svg_rhmargin="432.003" x="426.495,432.003" y="344.468" style="fill:#131413;font-family:EMLBJJ+ChnpmvAdvTT8861b38f.I;font-size:9.8px;font-style:NORMAL;font-weight:normal;">P </text>
  <text x="433.924,439.637,441.636,446.536,448.673,453.573,458.473,463.372,465.50800000000004,468.508,473.604,476.152,480.846,482.982,485.971,490.851,494.007" y="344.468" svg_rhmargin="496.143" style="fill:#131413;font-family:EMLAJL+JhftpfAdvTT86d47313;font-size:9.8px;font-style:NORMAL;font-weight:normal;">= 0.481, Fig. 7).</text>
  <text x="304.724,309.223,311.422,316.399,320.705,323.492,327.798,330.577,333.355,337.661,341.589" y="368.454" svg_rhmargin="344.551" style="fill:#131413;font-family:EMLHEI+VrhngdAdvTT83913201.I;font-size:9.2px;font-style:NORMAL;font-weight:normal;">Side effect</text>
  <text x="304.724,311.662,315.102,318.258,323.354,326.509,330.89,333.438,336.927,342.023,344.875,348.324,352.097,356.605,361.093,365.474,370.884,374.294,378.067,381.222,386.524,391.816,394.364,398.745,402.51800000000003,405.928,409.093,413.993" y="380.473" svg_rhmargin="418.893" style="fill:#131413;font-family:EMLAJL+JhftpfAdvTT86d47313;font-size:9.8px;font-style:NORMAL;font-weight:normal;">A total of seven studies [15</text>
  <text x="418.903" y="380.473" svg_rhmargin="424.822" style="fill:#131413;font-family:EMLAKM+HlwydcAdvTT86d47313+20;font-size:9.8px;font-style:NORMAL;font-weight:normal;">–</text>
  <text x="424.851,429.751,434.661,436.797,440.218,445.118,450.027,453.183,456.603,460.278,464.659,469.862,474.958,478.712,481.867,486.248,491.452,494.921,500.124,505.22,508.993,512.149,517.245,522.449,526.829,530.504,535.002" y="380.473" svg_rhmargin="538.569" style="fill:#0000ff;font-family:EMLAJL+JhftpfAdvTT86d47313;font-size:9.8px;font-style:NORMAL;font-weight:normal;">20, 22] reported postopera-</text>
  <text x="304.724,307.88,310.428,314.916,319.297,323.658,328.038,333.134,341.298,346.501,349.049,351.597,356.086,360.466,363.622,366.17,371.266,376.675,378.81100000000004,383.075,389.601,394.903,399.284,403.429,408.633,413.729,418.903,421.451,425.831,431.035,435.23,438.905,443.285,447.136,452.438,454.986,458.142,462.444,466.217,471.519,476.615,483.533,487.914,493.118,497.371,500.526,505.828,510.209,513.365,517.608,520.763,526.065,530.445,534.12" y="392.487" svg_rhmargin="538.501" style="fill:#131413;font-family:EMLAJL+JhftpfAdvTT86d47313;font-size:9.8px;font-style:NORMAL;font-weight:normal;">tive complication. The pooled result showed that there</text>
  <text x="304.724,311.555,316.063,319.836,324.06,329.469,334.565,338.799,342.572,345.119,349.814,355.223,357.771,360.623,363.171,367.551,371.932,377.342,380.498,384.78,389.983,392.531,395.383,398.235,402.616,406.379,410.759,416.169,420.549,424.92999999999995,429.173,431.721,437.13100000000003,441.364,444.52,449.822,454.203,458.426,462.199,464.747,469.951,474.332,478.555,482.935,485.787,488.639,493.186,497.567,500.723,504.868,509.964,514.344,517.5,524.33,528.711,533.091" y="404.453" svg_rhmargin="538.501" style="fill:#131413;font-family:EMLAJL+JhftpfAdvTT86d47313;font-size:9.8px;font-style:NORMAL;font-weight:normal;">was no significant difference in the side effect between</text>
  <text x="304.724,307.88,313.182,317.563,320.541,326.049,332.066,337.162,339.984,344.678,348.353,353.449,358.751,363.955,366.973,371.354,376.763,381.967,384.946,388.102,393.404,397.78499999999997,400.881,405.261,410.357,415.845,419.001,422.676,427.772,430.32,433.309,438.003,441.678,446.774,452.076,457.28000000000003,460.298,463.453,469.47,475.487,477.477,483.19,485.131,490.031,492.167,497.067,501.967,504.103,507.132,512.031,516.931,523.7620000000001,526.751,533.385" y="416.468" svg_rhmargin="536.648" style="fill:#131413;font-family:EMLAJL+JhftpfAdvTT86d47313;font-size:9.8px;font-style:NORMAL;font-weight:normal;">the PRF group and the control group (RR = 1.26; 95% CI</text>
  <text svg_rhmargin="353.351" x="304.724,310.437,312.378,317.278,319.414,324.314,329.214,331.35,334.379,339.279,341.415,346.315,351.215,353.351" y="428.482" style="fill:#131413;font-family:EMLAJL+JhftpfAdvTT86d47313;font-size:9.8px;font-style:NORMAL;font-weight:normal;">= 0.28, 5.67; </text>
  <text svg_rhmargin="361.819" x="356.311,361.81899999999996" y="428.482" style="fill:#131413;font-family:EMLBJJ+ChnpmvAdvTT8861b38f.I;font-size:9.8px;font-style:NORMAL;font-weight:normal;">P </text>
  <text x="363.798,369.511,371.452,376.352,378.488,383.388,388.288,393.188,395.324,398.323,403.419,405.967,410.661,412.797,415.787,420.667,423.823" y="428.482" svg_rhmargin="425.959" style="fill:#131413;font-family:EMLAJL+JhftpfAdvTT86d47313;font-size:9.8px;font-style:NORMAL;font-weight:normal;">= 0.767; Fig. 8).</text>
  <text x="304.724,311.8,314.581,318.98,323.584,329.475,333.873,338.271,341.052,347.078" y="452.473" svg_rhmargin="353.083" style="fill:#131413;font-family:EMLAGH+SflnxhAdvTTaf7f9f4f.B;font-size:10.3px;font-style:NORMAL;font-weight:normal;">Discussion</text>
  <text x="304.724,312.287,316.887,319.187,324.357,327.173,330.043,332.343,337.513,342.776,345.076,350.246,355.509" y="464.491" svg_rhmargin="359.336" style="fill:#131413;font-family:EMLAJJ+HmfjbvAdvTT99c4c969;font-size:9.2px;font-style:NORMAL;font-weight:normal;">Main findings</text>
  <text x="304.724,312.378,317.533,321.208,327.852,336.015,340.269,343.424,347.638,351.097,355.478,360.731,365.111,367.532,371.912,375.529,378.077,381.85,388.396,392.776,397.745,405.908,410.955,414.63,418.834,424.136,428.419,433.828,437.435,439.875,444.363,448.606,451.047,455.428,462.101,466.481,471.734,476.938,483.582,487.355,491.579,495.352,498.38,502.761,510.797,515.05,518.205,520.606,524.987,529.22,531.768,534.15" y="476.454" svg_rhmargin="538.531" style="fill:#131413;font-family:EMLAJL+JhftpfAdvTT86d47313;font-size:9.8px;font-style:NORMAL;font-weight:normal;">Our meta-analysis comprehensively and systematically</text>
  <text x="304.724,308.399,312.78,317.141,319.581,323.961,330.694,335.075,340.279,344.639,347.795,352.969,357.35,361.926,366.307,371.452,375.127,378.655,383.035,388.288,391.444,395.942,400.136,404.625,408.868,411.308,413.856,418.109,423.097,425.645,430.02599999999995,434.436,436.984,439.365,442.521,446.735,450.41,454.673,457.828,462.954,466.629,471.01,475.429,479.809,485.062,490.266,494.754,497.606,502.526,507.827,513.129,518.333,522.762,525.918,531.092,535.473" y="488.468" svg_rhmargin="538.629" style="fill:#131413;font-family:EMLAJL+JhftpfAdvTT86d47313;font-size:9.8px;font-style:NORMAL;font-weight:normal;">reviewed the current available literature and found that</text>
  <text x="304.724,307.88,312.603,315.759,319.855,325.363,331.253,336.349,340.151,344.532,349.5,357.546,362.75,367.013,370.687,374.892,380.096,384.192,391.022,393.433,396.589,401.891,405.908,411.112,413.503,417.884,422.117,426.498,431.466,436.562,440.649,445.853,448.244,453.44800000000004,457.544,462.953,467.922,471.07800000000003,475.292,479.064,481.416,486.111,491.393,493.833,496.685,499.105,503.486,507.719,513.129,516.108,518.656,523.0369999999999,527.045,530.72,534.983" y="500.483" svg_rhmargin="538.55" style="fill:#131413;font-family:EMLAJL+JhftpfAdvTT86d47313;font-size:9.8px;font-style:NORMAL;font-weight:normal;">(1) PRF compared with placebo did not significantly re-</text>
  <text x="304.724,309.928,315.102,319.483,323.716,328.92,332.958,336.633,340.837,344.404,347.413,351.793,356.027,359.702,363.788,367.463,371.667,374.823,379.20399999999995,383.172,386.024,390.993,394.668,398.754,402.429,407.31,410.465,414.738,417.894,422.842,426.517,430.555,434.936,440.081,442.932,445.784,449.773,452.928,457.201,461.582,465.257,469.216,474.419,478.624,481.779,484.18,488.561,493.813,496.969,500.742,502.87800000000004,506.906,510.062,515.236,519.617,523.684,528.064,532.552,534.963" y="512.4490000000001" svg_rhmargin="538.53" style="fill:#131413;font-family:EMLAJL+JhftpfAdvTT86d47313;font-size:9.8px;font-style:NORMAL;font-weight:normal;">duced re-tear rate for rotator cuff tear patients; the evi-</text>
  <text x="304.724,309.928,314.132,319.542,323.766,328.14700000000005,331.135,336.231,339.08299999999997,342.023,345.178,350.304,354.68499999999995,357.673,361.348,365.611,369.071,372.226,376.44,380.821,384.49600000000004,387.436,391.111,395.315,398.47,402.851,405.742,412.572,416.953,420.726,423.656,428.037,433.005,438.415,442.021,444.569,448.205,451.36,455.574,460.984,464.14,467.03,469.578,474.988,477.918,485.964,491.06,494.695,497.851,500.928,504.701,509.885,514.873,519.568,523.096,528.192,533.356" y="524.463" svg_rhmargin="538.56" style="fill:#131413;font-family:EMLAJL+JhftpfAdvTT86d47313;font-size:9.8px;font-style:NORMAL;font-weight:normal;">dence of the re-tear rate was consistent in most subgroup</text>
  <text x="304.724,309.105,314.358,318.738,321.1,325.48,329.146,333.526,337.29900000000004,339.857,344.237,349.49,354.694,357.369,364.2,368.58,372.353,374.999,379.38,384.348,389.758,392.453,394.893,398.568,406.575,410.955,416.159,418.766,423.862,428.24300000000005,430.839,437.366,442.236,449.175,451.31100000000004,453.918,457.074,461.797,464.95300000000003,467.638,473.145,479.035,484.13100000000003,486.797,492.098,496.479,500.252,502.898,508.307,513.403,515.991,521.086,525.34,530.749,534.973" y="536.4780000000001" svg_rhmargin="538.54" style="fill:#131413;font-family:EMLAJL+JhftpfAdvTT86d47313;font-size:9.8px;font-style:NORMAL;font-weight:normal;">analyses and was confirmed by TSA; (2) PRF has no bene-</text>
  <text x="304.724,307.576,309.938,313.094,317.141,322.237,327.64700000000005,331.596,334.751,339.926,344.307,348.314,352.087,357.213,362.309,367.473,370.021,375.068,379.449,383.124,387.083,389.934,395.079,400.489,404.713,407.868,410.269,415.257,420.66700000000003,424.724,429.105,432.261,436.229,439.385,444.51,448.89099999999996,452.958,455.682,458.23,463.502,467.883,470.431,474.39,477.242,482.161,484.709,487.091,492.187,498.88,502.447,507.612,512.816,516.853,523.684,528.819,533.199" y="548.444" svg_rhmargin="538.609" style="fill:#131413;font-family:EMLAJL+JhftpfAdvTT86d47313;font-size:9.8px;font-style:NORMAL;font-weight:normal;">fit on the shoulder function at the final follow-up when</text>
  <text x="304.724,309.105,314.073,322.119,327.323,331.586,335.261,339.465,344.669,348.363,355.194,357.605,360.76,366.062,369.619,374.823,377.214,381.595,385.828,390.209,395.177,400.166,402.302,406.006,409.162,413.944,417.1,420.745,426.253,432.143,437.239,440.933,447.764,452.144,455.91700000000003,459.524,464.933,469.902,473.058,476.762,481.142,484.915,488.551,493.647,497.851,500.399,504.652,507.808,512.022,517.226,520.92,527.75,530.161,533.317" y="560.458" svg_rhmargin="538.619" style="fill:#131413;font-family:EMLAJL+JhftpfAdvTT86d47313;font-size:9.8px;font-style:NORMAL;font-weight:normal;">compared with placebo; (3) PRF was not associated with</text>
  <text x="304.724,309.105,314.51500000000004,317.023,319.463,324.873,329.097,332.772,336.976,341.356,345.129,349.51,352.058,357.154,360.006,362.485,365.641,370.815,375.196,377.841,382.222,387.19,395.236,400.44,402.831,405.379,409.632,414.013,417.002,419.55,424.489,429.898,433.67100000000005,436.17,439.326,444.5,448.881,454.291,456.75,459.906,465.08,469.461,472.107,476.487,481.456,486.865,489.844,493.519,498.459,501.007,503.564,508.258,511.786,516.882,522.047,527.251" y="572.473" svg_rhmargin="529.387" style="fill:#131413;font-family:EMLAJL+JhftpfAdvTT86d47313;font-size:9.8px;font-style:NORMAL;font-weight:normal;">an increase of the complications than the control group.</text>
  <text x="304.724,310.088,315.258,323.014,328.378,332.978,336.235,338.535,342.362,347.643,352.813,355.582,362.381,364.681,367.837,373.007,375.767,380.938,384.094,389.264,393.956,397.213,400.028,407.784,412.476,415.632,420.232,423.102,427.702,432.964,437.564,439.865,444.465,448.292,452.984" y="596.473" svg_rhmargin="456.811" style="fill:#131413;font-family:EMLAJJ+HmfjbvAdvTT99c4c969;font-size:9.2px;font-style:NORMAL;font-weight:normal;">Comparison with other meta-analyses</text>
  <text x="304.724,312.378,317.788,320.336,324.717,329.048,334.144,339.553,343.93399999999997,348.324,351.999,356.38,358.928,363.465,367.953,372.334,377.743,380.899,385.23,393.394,397.774,400.93,405.31,408.985,413.366,418.776,423.156,425.704,430.085,433.858,436.406,440.17900000000003,444.53,449.626,455.036,459.386,462.542,467.844,472.225,476.566,479.721,484.817,490.021,492.667,497.048,501.34,506.641,511.149,514.922,519.254,524.35,528.73,533.111" y="608.491" svg_rhmargin="538.521" style="fill:#131413;font-family:EMLAJL+JhftpfAdvTT86d47313;font-size:9.8px;font-style:NORMAL;font-weight:normal;">Only one relevant meta-analysis on the topic has been</text>
  <text x="304.724,309.928,315.23,320.326,322.874,325.422,329.195,334.604,338.985,344.189,347.53,350.705,355.605,360.574,363.73,365.86600000000004,369.247,374.245,378.714,383.202,387.582,391.257,395.716,398.264,401.616,406.82,409.368,412.219,415.071,419.452,423.215,427.595,433.005,437.386,441.766,445.53900000000004,448.949,454.045,458.426,461.581,468.412,472.793,477.291,482.701,486.022,491.118,496.42,500.095,503.86800000000005,507.278,511.659,517.068,522.2719999999999,525.702,528.858,534.16" y="620.457" svg_rhmargin="538.541" style="fill:#131413;font-family:EMLAJL+JhftpfAdvTT86d47313;font-size:9.8px;font-style:NORMAL;font-weight:normal;">published [23]. Several differences between ours and the</text>
  <text x="304.734,309.938,313.613,318.111,322.599,325.147,330.243,335.633,339.406,343.346,348.442,353.851,358.232,362.00500000000005,365.964,369.737,375.039,380.134,385.436,388.072,393.276,397.196,402.292,406.673,410.632,416.041,421.137,424.293,428.673,433.877,436.01300000000003,440.002,445.098,447.646,451.321,455.094,458.426,460.562,464.492,467.648,472.949,477.33000000000004,481.269,486.473,490.148,494.646,499.135,501.683,506.779,512.168,515.941,519.881,524.977,530.386,534.767" y="632.472" svg_rhmargin="538.54" style="fill:#131413;font-family:EMLAJL+JhftpfAdvTT86d47313;font-size:9.8px;font-style:NORMAL;font-weight:normal;">previous ones should be noted. First, the previous ones</text>
  <text x="304.734,312.897,315.445,320.238,324.618,329.822,333.134,338.642,344.659,350.167,353.43,357.81,363.22,368.42400000000004,371.687,377.195,383.212,388.308,391.591,394.139,399.54900000000004,402.811,405.967,411.269,415.65,418.972,422.745,427.125,435.288,439.669,442.952,445.5,450.909,454.065,458.446,462.454,466.942,471.323,476.732,479.976,482.524,487.62,493.03000000000003,496.303,500.997,504.672,509.768,515.069,520.2729999999999,523.576,527.956,533.366" y="644.486" svg_rhmargin="538.57" style="fill:#131413;font-family:EMLAJL+JhftpfAdvTT86d47313;font-size:9.8px;font-style:NORMAL;font-weight:normal;">mixed PRP and PRF in the same intervention group and</text>
  <text x="304.734,307.89,313.191,318.493,322.266,327.068,331.449,335.829,341.131,344.904,349.28499999999997,354.106,356.654,361.035,364.71,369.404,373.78499999999997,378.596,383.898,388.278,391.522,395.903,399.578,404.673,409.368,413.748,419.246,423.626,426.174,429.33,433.711,438.522,442.903,447.283,450.958,456.054,459.827,463.6,468.402,471.558,476.86,481.241,486.032,489.805,492.961,498.263,503.554,506.102,510.483,514.256,516.3919999999999,521.184,526.182,530.71,535.09" y="656.452" svg_rhmargin="538.657" style="fill:#131413;font-family:EMLAJL+JhftpfAdvTT86d47313;font-size:9.8px;font-style:NORMAL;font-weight:normal;">thus cause large heterogeneity across the studies. Sec-</text>
  <text x="304.734,309.83,315.24,320.443,322.579,328.773,331.929,338.759,343.855,350.029,353.802,356.958,362.26,367.463,370.011,374.392,378.165,384.329,391.159,395.54,399.293,403.674,409.779,415.189,420.285,423.44100000000003,429.624,432.172,437.582,441.962,444.51,449.812,455.016,459.504,464.708,470.842,473.39,478.8,484.905,488.061,493.363,497.744,503.897,509.101,512.776,517.333,521.821,524.369,529.465,534.767" y="668.467" svg_rhmargin="538.54" style="fill:#131413;font-family:EMLAJL+JhftpfAdvTT86d47313;font-size:9.8px;font-style:NORMAL;font-weight:normal;">ond, two studies were not included in the previous</text>
  <text x="304.734,312.897,317.278,320.434,324.814,328.381,332.762,338.299,342.679,345.227,349.608,353.381,355.929,359.702,365.229,369.609,375.019,380.223,385.691,388.847,394.148,398.529,404.007,409.211,414.513,419.609,422.157,424.704,429.183,433.564,436.719,439.267,444.363,449.773,455.319,460.415,462.963,467.452,471.225,476.693,483.523,488.031,491.80400000000003,497.273,499.821,505.23,509.748,514.236,516.784,519.94,524.32,529.416,531.964,536.453" y="680.481" svg_rhmargin="538.589" style="fill:#131413;font-family:EMLAJL+JhftpfAdvTT86d47313;font-size:9.8px;font-style:NORMAL;font-weight:normal;">meta-analysis and the publication bias was inevitable.</text>
  <text x="304.734,311.672,317.082,322.286,324.834,329.21500000000003,332.291,336.672,339.82800000000003,342.836,347.217,349.765,351.901,354.91,358.085,362.985,367.894,371.05,374.078,378.459,383.555,389.043,394.246,399.548,403.929,407.084,411.465,416.669,419.716,424.097,427.145,430.82,435.308,439.796,442.344,446.725,453.55600000000004,456.564,460.944,466.04,471.136,476.438,479.594,482.7,485.856,491.158,495.539,498.576,504.084,510.101,515.609,518.646,521.802,527.104,531.484,535.032" y="692.447" svg_rhmargin="538.599" style="fill:#131413;font-family:EMLAJL+JhftpfAdvTT86d47313;font-size:9.8px;font-style:NORMAL;font-weight:normal;">Andia et al. [24] conducted a review about the PRP ther-</text>
  <text x="304.744,309.124,314.328,318.70899999999995,321.639,324.491,329.587,333.262,336.211,339.367,343.747,349.157,354.361,356.909,362.406,367.502,372.706,377.087,380.242,385.544,389.925,392.06100000000004,395.06,400.264,402.811,407.192,412.602,415.757,420.236,423.911,426.811,429.663,434.181,437.954,442.334,444.882,449.978,455.27,459.651,462.806,468.108,472.489,474.625,477.546,481.926,487.414,492.618,495.519,503.682,508.984,512.757,517.137,519.685,524.0659999999999,527.035,529.583,534.993" y="704.462" svg_rhmargin="538.56" style="fill:#131413;font-family:EMLAJL+JhftpfAdvTT86d47313;font-size:9.8px;font-style:NORMAL;font-weight:normal;">apy for tendinopathy, plantar fasciopathy, and muscle in-</text>
  <text x="304.744,307.194,312.496,316.171,318.719,323.099,326.872,329.00800000000004,333.369,339.387,343.767,347.54,352.93,355.478,358.771,362.54400000000004,366.816,370.589,375.891,380.987,387.906,392.286,397.49,401.792,404.948,410.25,414.718,417.874,422.206,427.713,433.73,439.238,443.579,446.735,452.036,456.417,460.092,464.473,469.676,472.322,476.703,480.476,484.797,491.628,496.009,499.684,504.06500000000005,508.435,513.737,517.51,521.89,524.438,528.819,532.592,536.365" y="716.476" svg_rhmargin="538.501" style="fill:#131413;font-family:EMLAJL+JhftpfAdvTT86d47313;font-size:9.8px;font-style:NORMAL;font-weight:normal;">juries. Results showed that PRP therapies were useless.</text>
  <text x="304.744,313.828,318.209,322.59,327.999,334.83,340.229,342.777,345.325,349.706,351.84200000000004,356.164,363.102,368.512,373.716,376.264,380.645,384.966,389.346,392.502,396.814,401.194,403.742,405.87800000000004,410.191,413.366,418.266,423.176,426.332,430.604,434.279,438.767,443.256,447.636,452.017,454.565,458.945,464.149,468.53,471.685,476.987,481.367,484.523,488.825,494.333,500.35,505.858,510.199,515.501,520.008,523.7810000000001,528.054,533.464" y="728.442" svg_rhmargin="538.56" style="fill:#131413;font-family:EMLAJL+JhftpfAdvTT86d47313;font-size:9.8px;font-style:NORMAL;font-weight:normal;">Meanwhile, Andia et al. [25] revealed that PRP has no</text>
  <text x="304.744,309.124,311.976,314.828,319.375,323.756,327.029,330.802,333.771,338.867,344.27700000000004,347.207,355.37,360.76,364.533,368.914,371.462,375.84299999999996,378.792,381.34,386.749,389.199,394.501,398.176,402.557,405.555,409.936,415.424,420.628,423.528,426.684,431.065,436.572,441.776,444.324,449.733,454.829,460.033,464.414,467.569,472.871,477.252" y="740.457" svg_rhmargin="479.388" style="fill:#131413;font-family:EMLAJL+JhftpfAdvTT86d47313;font-size:9.8px;font-style:NORMAL;font-weight:normal;">effects on muscle injury and tendinopathy.</text>
  <path d=" M 60.71799850463867 481.6059875488281 L 286.5260009765625 481.6059875488281 L 286.5260009765625 481.3789978027344 L 60.71799850463867 481.3789978027344" style="fill:none;stroke:#131413;stroke-width:0.0;"/>
  <path d=" M 286.5260009765625 481.6059875488281 L 287.26300048828125 481.5489807128906 C 288.8210144042969 481.3769836425781 290.3030090332031 479.8379821777344 290.4949951171875 478.3179931640625 L 290.5509948730469 477.6369934082031 L 290.3240051269531 477.6369934082031 L 290.26800537109375 478.260986328125 C 290.04901123046875 479.72698974609375 288.6719970703125 481.1039733886719 287.20599365234375 481.322998046875 L 286.5260009765625 481.3789978027344" style="fill:none;stroke:#131413;stroke-width:0.0;"/>
  <path d=" M 290.5509948730469 477.63800048828125 L 290.5509948730469 63.553009033203125 L 290.3240051269531 63.553009033203125 L 290.3240051269531 477.63800048828125" style="fill:none;stroke:#131413;stroke-width:0.0;"/>
  <path d=" M 290.5509948730469 63.552978515625 L 290.4939880371094 62.81597900390625 C 290.2989807128906 61.255977630615234 288.75 59.81197738647461 287.26300048828125 59.58397674560547 L 286.5260009765625 59.527976989746094 L 286.5260009765625 59.810977935791016 L 287.20599365234375 59.867977142333984 C 288.75299072265625 60.0629768371582 289.97698974609375 61.37397766113281 290.26800537109375 62.87297821044922 L 290.3240051269531 63.552978515625" style="fill:none;stroke:#131413;stroke-width:0.0;"/>
  <path d=" M 286.5260009765625 59.52798843383789 L 60.71800231933594 59.52798843383789 L 60.71800231933594 59.81098937988281 L 286.5260009765625 59.81098937988281" style="fill:none;stroke:#131413;stroke-width:0.0;"/>
  <path d=" M 60.71800231933594 59.52798843383789 L 59.98100280761719 59.58498764038086 C 58.49400329589844 59.811988830566406 56.945003509521484 61.25598907470703 56.749000549316406 62.81598663330078 L 56.69300079345703 63.5529899597168 L 56.92000198364258 63.5529899597168 L 56.97600173950195 62.872989654541016 C 57.2660026550293 61.37398910522461 58.49100112915039 60.06298828125 60.038002014160156 59.86798858642578 L 60.71800231933594 59.811988830566406" style="fill:none;stroke:#131413;stroke-width:0.0;"/>
  <path d=" M 56.6929931640625 63.552978515625 L 56.6929931640625 477.6379699707031 L 56.91999435424805 477.6379699707031 L 56.91999435424805 63.552978515625" style="fill:none;stroke:#131413;stroke-width:0.0;"/>
  <path d=" M 56.6929931640625 477.63800048828125 L 56.74999237060547 478.3179931640625 C 56.94099426269531 479.8380126953125 58.42299270629883 481.37701416015625 59.980995178222656 481.54998779296875 L 60.717994689941406 481.60699462890625 L 60.717994689941406 481.3800048828125 L 60.037994384765625 481.322998046875 C 58.57199478149414 481.1050109863281 57.19499206542969 479.72698974609375 56.97599411010742 478.2619934082031 L 56.91999435424805 477.63800048828125" style="fill:none;stroke:#131413;stroke-width:0.0;"/>
  <rect style="stroke:blue;stroke-width:0.3;" x="66.161" y="324.63" height="397.531" width="214.988" title="4"/>
  <text x="66.161" y="324.63" class="image" id="image.4.1" width="214" height="397">image.4.1.66_281.325_722</text>
  <text svg_rhmargin="82.478" x="62.702,66.862,69.022,73.686,75.686,78.062,82.478" y="734.236" style="fill:#131413;font-family:EMLAGH+SflnxhAdvTTaf7f9f4f.B;font-size:8.0px;font-style:NORMAL;font-weight:normal;">Fig. 2 </text>
  <text x="84.87,88.87,90.534,93.446,96.774,99.158,103.406,105.486,107.83,112.158,113.822,117.398,120.31,122.686,125.598,129.757,136.253,142.749,146.325,148.653" y="734.236" svg_rhmargin="152.149" style="fill:#131413;font-family:EMLAJI+QmcgngAdvTTb5929f4c;font-size:8.0px;font-style:NORMAL;font-weight:normal;">Risk of bias summary</text>
  <text svg_rhmargin="105.806" x="56.694,63.11,66.942,71.27,73.646,77.478,81.894,86.39,88.726,93.142,97.558,101.39,105.806" y="48.14099999999996" style="fill:#131413;font-family:EMLAJH+KdjcqpAdvTTe45e47d2;font-size:8.0px;font-style:NORMAL;font-weight:normal;">Mao and Zhan </text>
  <text svg_rhmargin="255.116" x="108.174,111.006,115.166,119.326,121.822,126.07,130.229,131.973,134.309,138.469,140.71699999999998,143.149,148.477,150.973,153.469,157.717,161.877,165.941,170.101,173.677,177.837,179.581,182.909,185.333,188.997,193.157,195.653,199.813,203.389,205.884,209.38,211.748,215.908,220.156,224.316,226.66,230.82,234.396,237.308,240.884,245.044,247.54,250.868,255.11599999999999" y="48.14099999999996" style="fill:#131413;font-family:EMLBHI+YblhkbAdvTT7329fd89.I;font-size:8.0px;font-style:NORMAL;font-weight:normal;">Journal of Orthopaedic Surgery and Research </text>
  <text svg_rhmargin="305.723" y="48.14099999999996" x="259.196,261.468,265.572,269.676,273.78,277.884,280.156,281.852,285.955,290.059,291.715,295.819,299.923,304.027,305.723" style="fill:#131413;font-family:MyriadPro-Regular;font-size:8.0px;font-style:NORMAL;font-weight:normal;">(2018) 13:202 </text>
  <text x="500.145,504.393,508.225,512.641,516.641,519.025,523.105,525.488,529.816,532.144,534.504" y="48.14099999999996" svg_rhmargin="538.584" style="fill:#131413;font-family:EMLAJH+KdjcqpAdvTTe45e47d2;font-size:8.0px;font-style:NORMAL;font-weight:normal;">Page 4 of 9</text>
 </g>
</svg>
