<?xml version="1.0" encoding="UTF-8"?>
<svg height="870.031005859375" width="672.0029907226562" xmlns="http://www.w3.org/2000/svg">
 <g style="fill:none;">
  <path d=" M 0.05999799817800522 826.072021484375 L 22.619997024536133 826.072021484375 L 22.619997024536133 826.35546875 L 0.05999799817800522 826.35546875 Z " style="fill:none;stroke:#000000;stroke-width:1.0;"/>
  <path d=" M 33.67599868774414 837.4110107421875 L 33.959449768066406 837.4110107421875 L 33.959449768066406 860.031005859375 L 33.67599868774414 860.031005859375 Z " style="fill:none;stroke:#000000;stroke-width:1.0;"/>
  <path d=" M 627.9869995117188 837.4110107421875 L 628.2703857421875 837.4110107421875 L 628.2703857421875 860.031005859375 L 627.9869995117188 860.031005859375 Z " style="fill:none;stroke:#000000;stroke-width:1.0;"/>
  <path d=" M 639.3259887695312 826.072021484375 L 662.0029907226562 826.072021484375 L 662.0029907226562 826.35546875 L 639.3259887695312 826.35546875 Z " style="fill:none;stroke:#000000;stroke-width:1.0;"/>
  <path d=" M 639.3259887695312 33.731998443603516 L 662.0029907226562 33.731998443603516 L 662.0029907226562 34.015480041503906 L 639.3259887695312 34.015480041503906 Z " style="fill:none;stroke:#000000;stroke-width:1.0;"/>
  <path d=" M 627.9869995117188 0.0 L 628.2703857421875 0.0 L 628.2703857421875 22.677000045776367 L 627.9869995117188 22.677000045776367 Z " style="fill:none;stroke:#000000;stroke-width:1.0;"/>
  <path d=" M 33.67599868774414 0.0 L 33.959449768066406 0.0 L 33.959449768066406 22.677000045776367 L 33.67599868774414 22.677000045776367 Z " style="fill:none;stroke:#000000;stroke-width:1.0;"/>
  <path d=" M 0.05999799817800522 33.731998443603516 L 22.619997024536133 33.731998443603516 L 22.619997024536133 34.015480041503906 L 0.05999799817800522 34.015480041503906 Z " style="fill:none;stroke:#000000;stroke-width:1.0;"/>
  <text x="71.887,78.791,83.274,86.726,88.667,93.616,98.566,100.987,105.936,110.885,119.852,122.27300000000001,124.269,129.684,134.167,138.086,143.035,145.922,148.809,151.697,155.149,159.067,162.985,164.916,168.368,173.318,176.77,181.253,183.674,188.157,192.64,195.06099999999998,197.06,200.512,204.995,207.882,211.8,213.727,220.631,225.114,228.566,230.564,235.514,244.48000000000002,246.382,250.865,255.814,260.763,262.709,267.659,272.608,275.029,279.978,284.928,293.894,295.874,298.761,303.71,307.162,309.139,314.089" y="291.805" svg_rhmargin="316.976" style="fill:#171615;font-family:LFHPIM+AdvOTbc475f09;font-size:8.97px;font-style:NORMAL;font-weight:normal;">was 54.69%. Event-free survival rate was 0% and 56.25% for of</text>
  <text x="71.887,78.324,83.74,90.644,95.593,98.481,103.43,108.379,111.831,114.252,117.139,119.56,124.044,127.962,134.587,139.07,144.02,148.96900000000002,155.563,162.001,167.416,174.32,179.27,182.157,187.106,191.025,195.508,199.991,202.878,205.299,209.782,213.70000000000002,220.36,223.813,227.731,230.618,233.039,237.988,242.938,247.887,250.308,254.791,258.243,261.13,266.08,273.45,277.933,284.535,289.484,293.968,296.855,299.276,303.194,308.143,311.03,314.482" y="302.746" svg_rhmargin="316.903" style="fill:#171615;font-family:LFHPIM+AdvOTbc475f09;font-size:8.97px;font-style:NORMAL;font-weight:normal;">VEGF-positive and VEGF-negative retinoblastoma patients,</text>
  <text x="71.887,75.339,79.257,82.709,87.658,91.577,95.495,98.382,100.803,105.286,109.204,111.625,116.108" y="313.688" svg_rhmargin="118.529" style="fill:#171615;font-family:LFHPIM+AdvOTbc475f09;font-size:8.97px;font-style:NORMAL;font-weight:normal;">respectively.</text>
  <text x="71.887,76.836,79.257,84.206,86.62700000000001,91.105,97.077,102.205,107.621,109.764,111.907,116.856,121.806,124.693,126.836,132.063,137.19199999999998,140.256,145.672,147.815,152.764" y="340.391" svg_rhmargin="157.247" style="fill:#171615;font-family:LFIABF+AdvOT01861455.I;font-size:8.97px;font-style:NORMAL;font-weight:normal;">3.3. Publication bias</text>
  <text x="71.887,76.37,80.288,85.237,88.689,91.11,93.997,96.418,100.902,103.322,106.21,110.693,113.782,118.265,123.214,127.697,130.118,134.601,138.053,140.474,143.926,147.059,150.511,154.429,158.913,162.831,167.314,169.735,173.653,178.602,181.698,184.585,189.534,194.017,196.904,200.009,202.896,207.845,211.763,214.805,219.754,224.237,228.156,231.608,236.091,238.512,240.933,244.057,251.428,257.866,261.318,264.41,271.314,275.797,279.249,282.325,285.777,288.664,293.147,298.096,300.517,304.435,307.552,312.502" y="356.321" svg_rhmargin="316.985" style="fill:#171615;font-family:LFHPIM+AdvOTbc475f09;font-size:8.97px;font-style:NORMAL;font-weight:normal;">Sensitivity analysis revealed that the overall ORs was stable by</text>
  <text svg_rhmargin="198.448" x="71.887,76.836,84.206,86.627,89.514,92.401,94.822,99.772,104.25500000000001,106.468,110.95100000000001,113.158,116.61,119.03,123.98,128.463,130.884,134.802,137.025,140.477,143.364,148.314,153.263,157.746,159.928,163.847,168.33,172.248,177.197,179.43,182.317,184.738,192.109,196.027,198.44799999999998" y="367.263" style="fill:#171615;font-family:LFHPIM+AdvOTbc475f09;font-size:8.97px;font-style:NORMAL;font-weight:normal;">omitting a single study each time. </text>
  <text svg_rhmargin="206.052" x="200.636,206.051" y="367.263" style="fill:#171615;font-family:LFIABG+AdvOT638a931c.I;font-size:8.97px;font-style:NORMAL;font-weight:normal;">P </text>
  <text x="207.213" y="367.263" svg_rhmargin="214.117" style="fill:#171615;font-family:LFIABH+AdvP4C4E51;font-size:8.97px;font-style:NORMAL;font-weight:normal;">&lt;</text>
  <text x="215.207,217.628,222.577,227.526,229.777,236.681,241.164,244.61599999999999,246.784,249.671,254.621,259.57,264.519,269.468,271.672,274.093,279.04200000000003,281.253,284.14,289.09,293.008,295.199,300.615,305.098,309.581,313.5" y="367.263" svg_rhmargin="316.952" style="fill:#171615;font-family:LFHPIM+AdvOTbc475f09;font-size:8.97px;font-style:NORMAL;font-weight:normal;">.05 was found in the Egger</text>
  <text x="71.887,74.774,78.692,82.144,85.031,87.45200000000001,92.125,95.012,99.962,103.88,107.332,111.25,114.138,119.087,122.539,126.457,128.878,133.51,136.962,141.912,146.861,151.344,154.796,159.746,164.695,169.644,174.271,178.754,183.704,188.187,190.608,195.091,198.543,200.964,204.416,209.079,214.028,218.512,221.964,225.882,230.83100000000002,235.497,240.447,245.39600000000002,250.01,253.462,257.945,265.316,270.265,272.686,276.604,281.247,284.134,288.617,293.567,297.485,302.11,309.014,313.497" y="378.204" svg_rhmargin="316.949" style="fill:#171615;font-family:LFHPIM+AdvOTbc475f09;font-size:8.97px;font-style:NORMAL;font-weight:normal;">test; therefore, subgroup analysis based on sample type was</text>
  <text x="71.887,75.805,80.754,85.704,90.653,95.602,99.521,102.408,106.326,111.27499999999999,114.008,118.491,123.44,128.389,131.071,136.021,140.97,145.92,148.34,150.761,154.68,159.163,162.05,164.471,169.42,174.369,177.104,182.054,184.475,188.958,192.41,195.076,201.98,206.463,209.915,212.649,216.101,220.02,224.969,229.919,233.837,237.755,242.704,245.36,250.31,254.793,258.245,261.132,263.553,268.036,270.758,273.645,278.595,281.016,285.499,287.92,290.653,295.602,298.489,300.90999999999997,303.579,308.528,313.477" y="389.202" svg_rhmargin="316.929" style="fill:#171615;font-family:LFHPIM+AdvOTbc475f09;font-size:8.97px;font-style:NORMAL;font-weight:normal;">conducted and publication bias was reduced partly (Fig. 3). For</text>
  <text x="71.887,76.836,81.785,85.237,89.156,92.608,97.091,99.512,104.461,108.944,110.777,113.664,118.614,122.53200000000001,124.326,126.747" y="400.144" svg_rhmargin="131.696" style="fill:#171615;font-family:LFHPIM+AdvOTbc475f09;font-size:8.97px;font-style:NORMAL;font-weight:normal;">observing the in</text>
  <text x="131.698" y="400.144" svg_rhmargin="136.647" style="fill:#171615;font-family:LFHPIN+AdvOTbc475f09+fb;font-size:8.97px;font-style:NORMAL;font-weight:normal;">ﬂ</text>
  <text x="136.687,141.636,145.555,150.504,154.422,158.34,160.157,165.107,167.994,169.795,174.744,179.694,184.643,187.064,189.485,193.403,197.886,200.774,203.194,208.144,213.09300000000002,214.921,219.87,222.291,226.774,230.226,232.042,234.463,239.412,241.226,244.113,249.063,252.981,254.775,259.724,264.207,268.126,271.578,276.061,278.482,280.903,282.78,290.151,296.588,299.009,300.808,303.695,307.147,309.568" y="400.144" svg_rhmargin="316.938" style="fill:#171615;font-family:LFHPIM+AdvOTbc475f09;font-size:8.97px;font-style:NORMAL;font-weight:normal;">uence of publication bias in the overall OR, trim</text>
  <text svg_rhmargin="86.268" x="71.887,76.37,81.319,86.268" y="411.085" style="fill:#171615;font-family:LFHPIM+AdvOTbc475f09;font-size:8.97px;font-style:NORMAL;font-weight:normal;">and </text>
  <text x="89.915" y="411.085" svg_rhmargin="94.864" style="fill:#171615;font-family:LFHPIN+AdvOTbc475f09+fb;font-size:8.97px;font-style:NORMAL;font-weight:normal;">ﬁ</text>
  <text x="94.847,97.268,99.68900000000001,103.295,107.778,112.727,117.21,119.631,124.114,127.566,129.987,133.439,137.082,143.986,148.47,151.922,155.564,159.482,164.431,169.381,174.33,179.28,183.198,186.085,190.003,194.952,198.592,203.075,208.025,212.97400000000002,216.62,219.507,224.456,228.374,231.983,235.436,237.856,242.34,247.289" y="411.085" svg_rhmargin="249.71" style="fill:#171615;font-family:LFHPIM+AdvOTbc475f09;font-size:8.97px;font-style:NORMAL;font-weight:normal;">ll analysis was conducted and the signi</text>
  <text x="249.733" y="411.085" svg_rhmargin="254.682" style="fill:#171615;font-family:LFHPIN+AdvOTbc475f09+fb;font-size:8.97px;font-style:NORMAL;font-weight:normal;">ﬁ</text>
  <text x="254.722,258.64,263.123,268.073,270.96,274.564,279.048,282.5,285.952,290.901,294.819,297.24,301.723,304.611,307.031,311.981" y="411.085" svg_rhmargin="316.93" style="fill:#171615;font-family:LFHPIM+AdvOTbc475f09;font-size:8.97px;font-style:NORMAL;font-weight:normal;">cant association</text>
  <text x="71.887,78.791,83.274,86.726,88.781,92.233,95.12,97.541,99.962,102.38300000000001,104.484,107.372,112.321,117.27,122.22,127.169,129.59,131.64,139.109,143.027,147.976,151.895,155.813,158.23399999999998,160.326,165.275,170.224,175.174,177.595,180.016,183.934,188.417,191.304,193.725,198.675,203.62400000000002,205.736,210.685,213.106,217.589,221.041,223.084,228.033,232.516,237.465,239.524,244.007,246.101,248.522,250.943,253.83,256.717,259.138,263.056,265.149,267.57,274.94,279.89,284.373,288.291,291.178,293.267,298.217,303.166,305.173,308.06,313.009" y="422.083" svg_rhmargin="316.927" style="fill:#171615;font-family:LFHPIM+AdvOTbc475f09;font-size:8.97px;font-style:NORMAL;font-weight:normal;">was still found. Hence, publication bias had a little impact on the</text>
  <text x="71.887,76.836,81.319,85.237,88.689,93.173,95.593,98.01400000000001,101.026,108.396,114.834,117.807,120.694,125.643,129.095,132.093,134.98,139.929,143.847,146.889,151.372,156.321,160.804,163.225,167.709,171.161,173.581,177.033,179.996,184.945,187.832,190.825,194.277,198.195,201.082,203.503,208.452,213.402,218.351,220.772,225.255,228.707,231.594,236.544,243.914,248.397,251.427,254.879,257.3,260.752,265.701" y="433.025" svg_rhmargin="268.122" style="fill:#171615;font-family:LFHPIM+AdvOTbc475f09;font-size:8.97px;font-style:NORMAL;font-weight:normal;">overall OR for the analysis of retinoblastoma risk.</text>
  <text x="80.844,89.81,94.76,98.212,102.13,107.079,111.562,115.481,118.933,121.35400000000001,125.686,129.138,131.559,136.042,140.992" y="443.967" svg_rhmargin="143.413" style="fill:#171615;font-family:LFHPIM+AdvOTbc475f09;font-size:8.97px;font-style:NORMAL;font-weight:normal;">Moreover, signi</text>
  <text x="143.433" y="443.967" svg_rhmargin="148.382" style="fill:#171615;font-family:LFHPIN+AdvOTbc475f09+fb;font-size:8.97px;font-style:NORMAL;font-weight:normal;">ﬁ</text>
  <text x="148.366,152.284,156.767,161.716,164.603,168.945,173.894,178.844,183.793,186.214,188.635,192.553,197.036,199.924,202.344,207.294,212.24300000000002,216.565,221.514,223.935,228.419,231.871,236.181,243.085,247.568,251.02,255.343,260.292,264.21,267.097,271.016,274.934,277.821,281.739,286.688,291.001,295.951,300.90000000000003,305.175,308.062,313.011" y="443.967" svg_rhmargin="316.929" style="fill:#171615;font-family:LFHPIM+AdvOTbc475f09;font-size:8.97px;font-style:NORMAL;font-weight:normal;">cant publication bias was detected on the</text>
  <text x="71.887,76.836,81.319,84.771,87.192,90.64399999999999,95.357,100.306,103.193,107.885,113.301,117.219,121.702,126.185,130.902,133.789,137.707,141.159,144.046,148.817" y="454.908" svg_rhmargin="151.704" style="fill:#171615;font-family:LFHPIM+AdvOTbc475f09;font-size:8.97px;font-style:NORMAL;font-weight:normal;">basis of Begg test (</text>
  <text svg_rhmargin="157.127" x="151.711,157.126" y="454.908" style="fill:#171615;font-family:LFIABG+AdvOT638a931c.I;font-size:8.97px;font-style:NORMAL;font-weight:normal;">P </text>
  <text x="158.23" y="454.908" svg_rhmargin="165.134" style="fill:#171615;font-family:LFIABH+AdvP4C4E51;font-size:8.97px;font-style:NORMAL;font-weight:normal;">&lt;</text>
  <text x="166.281,168.702,173.651,178.601,181.488,186.18,189.067,194.017,197.469,202.167,205.054,210.003,213.921,218.664,222.582,225.003,227.424,232.374,234.794,238.713,243.196,245.617,250.355,254.273,259.222,263.705,267.157,271.641,275.559,278.446,282.364,285.816,288.237,291.689,294.576,296.997,300.915,304.367,309.143,314.092" y="454.908" svg_rhmargin="316.979" style="fill:#171615;font-family:LFHPIM+AdvOTbc475f09;font-size:8.97px;font-style:NORMAL;font-weight:normal;">.05) for the clinical characteristics of</text>
  <text svg_rhmargin="316.931" x="71.887,75.34,79.258,82.145,84.566,89.515,94.465,99.414,101.835,106.318,109.77,112.657,117.607,124.977,129.46,131.299,134.186,139.136,141.557,146.04,149.492,151.91299999999998,153.688,158.637,164.053,166.474,168.257,173.207,178.622,181.043,182.77,187.72,193.135,196.022,198.44299999999998,200.231,203.118,208.068,210.955,214.873,218.325,222.243,225.695,228.583,231.003,235.953,240.436,242.857,247.34,249.761,251.593,257.008,261.492,265.975,269.893,273.34499999999997,275.119,278.007,281.925,285.377,288.264,290.086,295.035,297.456,302.40500000000003,304.145,309.095,314.044,316.931" y="291.802" style="fill:#171615;font-family:LFHPIM+AdvOTbc475f09;font-size:8.97px;font-style:NORMAL;font-weight:normal;">retinoblastoma (Figs. 4B, 5B, 6B). Interestingly, Egger test did not </text>
  <text x="331.939,336.888,341.838,345.29,349.208,352.66,357.143,361.061,363.913,367.365,369.786,374.269,379.218" y="291.802" svg_rhmargin="381.639" style="fill:#171615;font-family:LFHPIM+AdvOTbc475f09;font-size:8.97px;font-style:NORMAL;font-weight:normal;">observe signi</text>
  <text x="381.659" y="291.802" svg_rhmargin="386.608" style="fill:#171615;font-family:LFHPIN+AdvOTbc475f09+fb;font-size:8.97px;font-style:NORMAL;font-weight:normal;">ﬁ</text>
  <text x="386.591,390.509,394.993,399.942,402.829,405.697,410.646,415.595,420.545,422.966,425.387,429.305,433.788,436.675,439.096,444.045,448.994,451.9,456.849,459.27,463.753,467.205,470.041" y="291.802" svg_rhmargin="472.928" style="fill:#171615;font-family:LFHPIM+AdvOTbc475f09;font-size:8.97px;font-style:NORMAL;font-weight:normal;">cant publication bias (</text>
  <text svg_rhmargin="478.351" x="472.935,478.35" y="291.802" style="fill:#171615;font-family:LFIABG+AdvOT638a931c.I;font-size:8.97px;font-style:NORMAL;font-weight:normal;">P </text>
  <text x="479.512" y="291.802" svg_rhmargin="486.416" style="fill:#171615;font-family:LFIABH+AdvP4C4E51;font-size:8.97px;font-style:NORMAL;font-weight:normal;">&gt;</text>
  <text x="487.505,489.926,494.875,499.825,502.712,505.133,508.027,515.496,520.445,527.35,531.268,535.751,539.669,543.121,545.542,548.391,552.874,556.792,560.71,565.66,569.112,574.061" y="291.802" svg_rhmargin="576.948" style="fill:#171615;font-family:LFHPIM+AdvOTbc475f09;font-size:8.97px;font-style:NORMAL;font-weight:normal;">.05). However, accord-</text>
  <text x="331.939,334.36,339.309,343.79200000000003,346.566,349.453,354.402,357.167,360.055,365.004,368.922,371.737,375.189,379.107,382.559,387.508,389.929,392.817,396.269,399.062,404.011,406.898,409.663,413.115,417.034,421.983,425.435,427.856,430.743,433.164,437.647,440.068,442.955,447.438,450.311,454.794,459.744,464.227,466.648,471.131,474.583,477.004,480.456,482.877,485.629,488.517,493.466,497.384,500.199,505.148,509.631,513.55,517.002,521.485,523.906,526.327,529.111,536.482,542.92,545.722,552.626,557.11,560.562,563.354,566.806,569.693,572.114,574.535" y="302.744" svg_rhmargin="576.956" style="fill:#171615;font-family:LFHPIM+AdvOTbc475f09;font-size:8.97px;font-style:NORMAL;font-weight:normal;">ing to the results of sensitivity analysis, the overall OR was still</text>
  <text x="331.939,335.391,340.34,345.29,350.239,353.691,356.578,358.99899999999997,363.459,370.363,372.784,377.267,381.185,386.134,390.614,393.502,398.451,402.934,405.821,410.286,417.191,421.109,425.592,430.541,435.004,439.953,443.872,446.759,450.677,454.129,459.078,463.562,467.48,472.429,476.348,478.768,481.656,486.139,490.617,497.521,502.005,505.457,509.892,512.779,517.729,522.678,527.628,532.577,537.048,541.531,545.449,548.901,553.85,557.302,560.754,565.223,568.11,573.06" y="313.685" svg_rhmargin="576.978" style="fill:#171615;font-family:LFHPIM+AdvOTbc475f09;font-size:8.97px;font-style:NORMAL;font-weight:normal;">robust. Given that weak heterogeneity was found across the</text>
  <text svg_rhmargin="432.378" x="331.939,334.36,339.309,343.228,345.648,350.598,355.547,359.465,364.414,367.371,370.823,373.71,378.66,383.609,386.03,389.948,393.4,395.82099999999997,398.891,401.778,405.23,407.651,415.021,417.997,422.48,427.429,432.378" y="324.684" style="fill:#171615;font-family:LFHPIM+AdvOTbc475f09;font-size:8.97px;font-style:NORMAL;font-weight:normal;">included studies, trim and </text>
  <text x="435.404" y="324.684" svg_rhmargin="440.353" style="fill:#171615;font-family:LFHPIN+AdvOTbc475f09+fb;font-size:8.97px;font-style:NORMAL;font-weight:normal;">ﬁ</text>
  <text x="440.336,442.757,445.178,448.159,452.642,457.592,462.075,464.496,468.979,472.431,474.852,478.304,481.324,488.228,492.711,496.163,499.182,504.131,509.081,511.968,514.942,518.86,523.81,528.759,533.708,538.658,542.576,545.463,549.382,554.331" y="324.684" svg_rhmargin="556.752" style="fill:#171615;font-family:LFHPIM+AdvOTbc475f09;font-size:8.97px;font-style:NORMAL;font-weight:normal;">ll analysis was not conducted.</text>
  <text x="331.937,337.852,340.80499999999995,345.486,352.585,355.339,360.564,366.081,371.997,377.221,382.446,385.2,390.916" y="351.332" svg_rhmargin="396.831" style="fill:#171615;font-family:LFHPHE+AdvOTfbba3ace.B;font-size:9.46px;font-style:NORMAL;font-weight:normal;">4. Discussion</text>
  <text x="331.937,338.375,343.324,346.776,350.228,354.146,359.096,361.983,364.404,368.887,371.308,373.662,377.114,382.063,389.433,393.351,395.772,399.69" y="367.263" svg_rhmargin="402.577" style="fill:#171615;font-family:LFHPIM+AdvOTbc475f09;font-size:8.97px;font-style:NORMAL;font-weight:normal;">Currently, some ef</text>
  <text x="402.576" y="367.263" svg_rhmargin="407.525" style="fill:#171615;font-family:LFHPIN+AdvOTbc475f09+fb;font-size:8.97px;font-style:NORMAL;font-weight:normal;">ﬁ</text>
  <text x="407.508,411.427,415.91,419.828,422.249,427.198,432.148,435.6,438.008,440.895,444.347,448.266,452.749,455.636,463.006,466.925,471.874,474.761,478.213,480.639,484.091,489.041,492.959,497.908,500.255,504.738,508.19,510.573,515.522,517.943,522.426,527.375,532.325,536.243,538.634,542.086,546.57,551.519,553.94,558.889,561.776,566.726,570.644,574.096" y="367.263" svg_rhmargin="576.983" style="fill:#171615;font-family:LFHPIM+AdvOTbc475f09;font-size:8.97px;font-style:NORMAL;font-weight:normal;">cacious treatments such as plaque radiother-</text>
  <text x="331.937,336.42,341.369,345.853,348.274,350.248,354.166,359.116,363.034,370.404,375.354,378.241,383.19,387.108,390.56,395.044,399.993,404.476,406.897,408.922,411.81,416.759,420.677,424.129,431.5,436.449,439.336,444.286,448.204,451.656,456.139,461.088,465.572,467.993,470.035,474.984,479.934,484.883,487.77,492.72,496.638,501.587,506.071,510.554,515.503,517.924,522.407,525.294,527.715,532.665,537.614,540.0350000000001,542.032,545.95,549.402,553.885,558.835,561.722,566.671,570.589,574.041" y="378.205" svg_rhmargin="576.928" style="fill:#171615;font-family:LFHPIM+AdvOTbc475f09;font-size:8.97px;font-style:NORMAL;font-weight:normal;">apy, chemotherapy, thermotherapy, photocoagulation, cryother-</text>
  <text x="331.937,336.42,341.369,345.853,348.274,350.021,353.939,358.889,361.776,365.694,369.146,374.096,378.579,381.0,382.788,387.738,391.656,396.139,403.509,405.295,408.747,413.23,418.179,420.6,425.55,428.437,433.386,437.304,440.756,445.24,450.189,454.672,457.093,458.868,463.351,468.3,473.249,475.025,478.943,483.892,488.842,492.76,495.181,499.099,503.582,506.47,508.891,513.84,518.789,520.604,525.553,530.037,534.52,538.438,540.22,545.169,549.087,553.006,557.9549999999999,559.721,564.671,568.123,572.041" y="389.203" svg_rhmargin="576.99" style="fill:#171615;font-family:LFHPIM+AdvOTbc475f09;font-size:8.97px;font-style:NORMAL;font-weight:normal;">apy, external beam radiotherapy, and enucleation have been used</text>
  <text x="331.937,334.824,339.773,344.977,347.864,351.316,355.234,359.717,362.604,367.824,370.711,375.66,379.57800000000003,384.831,388.283,392.201,395.088,397.509,402.459,407.408,412.357,414.778,419.262,422.714,425.601,430.55,437.92,442.404" y="400.144" svg_rhmargin="444.825" style="fill:#171615;font-family:LFHPIM+AdvOTbc475f09;font-size:8.97px;font-style:NORMAL;font-weight:normal;">to treat the retinoblastoma.</text>
  <text svg_rhmargin="456.625" x="444.869,447.035,450.748,454.46,456.625" y="400.145" style="fill:#171615;font-family:LFHPIM+AdvOTbc475f09;font-size:5.98px;font-style:NORMAL;font-weight:normal;">[48] </text>
  <text x="461.877,467.293,471.211,475.129,479.612,484.562,488.014,491.932,497.195,502.145,505.032,510.234,513.121,518.071,521.989,527.241,532.191,535.643,539.561,544.759,549.708,552.5949999999999,557.855,560.742,565.692,569.61,573.062" y="400.145" svg_rhmargin="576.98" style="fill:#171615;font-family:LFHPIM+AdvOTbc475f09;font-size:8.97px;font-style:NORMAL;font-weight:normal;">Because of the use of these</text>
  <text x="331.937,339.307,344.256,346.677,349.564,351.985,359.356,364.305,369.254,373.737,376.158,379.103,381.99,386.939,390.858,394.31,398.793,403.742,406.163,410.081,413.534,415.955,418.9,421.787,426.736,430.654,433.583,437.501,442.451,445.903,449.821,452.745,456.197,460.68,463.567,467.486,470.938,473.891,477.343,481.261,485.745,489.663,494.612,498.53,503.479,506.432,511.381,516.33,525.296,528.201,530.622,535.5709999999999,538.519,543.469,547.387,551.87,555.788,558.209,563.159,568.108,572.026" y="411.087" svg_rhmargin="576.975" style="fill:#171615;font-family:LFHPIM+AdvOTbc475f09;font-size:8.97px;font-style:NORMAL;font-weight:normal;">multimodal therapies, the cure rates reached 95% in developed</text>
  <text x="331.937,335.855,340.804,345.754,350.703,353.59,357.042,359.463,363.381,366.833" y="422.085" svg_rhmargin="369.254" style="fill:#171615;font-family:LFHPIM+AdvOTbc475f09;font-size:8.97px;font-style:NORMAL;font-weight:normal;">countries.</text>
  <text svg_rhmargin="380.997" x="369.241,371.407,375.12,378.832,380.997" y="422.085" style="fill:#171615;font-family:LFHPIM+AdvOTbc475f09;font-size:5.98px;font-style:NORMAL;font-weight:normal;">[48] </text>
  <text x="384.888,390.304,395.253,400.203,404.121,406.542,410.46,414.943,417.83,420.251,425.201,430.15000000000003,433.982,440.886,445.369,448.821,452.634,456.552,461.502,468.872,476.242,481.192,486.141,488.562,493.045,496.853,501.802,505.254,509.173,514.122,517.943,520.364,525.313,529.111,533.029,537.512,540.964,544.8820000000001,548.727,553.676,556.563,560.349,562.77,567.253,570.14,574.058" y="422.085" svg_rhmargin="576.945" style="fill:#171615;font-family:LFHPIM+AdvOTbc475f09;font-size:8.97px;font-style:NORMAL;font-weight:normal;">Enucleation was commonly used in case of late-</text>
  <text x="331.937,335.389,338.276,342.759,347.242,351.16,357.561,362.511,367.46,369.881,372.302,376.785,379.672,383.591,387.043,391.526,393.947,400.363,403.815,407.733,410.62,413.041,417.991,422.94,427.89,430.31,434.794,438.246,441.133,446.082,453.453,457.936,460.35699999999997,466.748,472.163,477.113,480.0,486.42,488.841,491.728,498.155,501.607,505.525,508.412,510.833,515.783,520.732,525.681,528.102,532.585,536.037,538.925,543.874,551.244,555.727,562.159,569.063,573.546" y="433.027" svg_rhmargin="576.998" style="fill:#171615;font-family:LFHPIM+AdvOTbc475f09;font-size:8.97px;font-style:NORMAL;font-weight:normal;">stage unilateral retinoblastoma. But if retinoblastoma was</text>
  <text x="331.937,336.886,339.307,341.728,346.211,349.098,353.016,356.469,360.952,363.373,365.794,369.126,373.044,377.994,381.912,389.282,394.232,397.119,402.068,405.987,409.439,413.922,418.871,423.354,426.667,431.151,436.1,441.04900000000004,444.355,448.838,453.322,457.805,461.257,465.175,468.627,472.079,474.5,478.983,482.901,486.193,489.08,494.03,497.948,502.431,504.852,508.189,511.076,516.026,519.944,523.396,527.879,532.828,537.3109999999999,540.617,547.521,552.47,557.419,559.84,564.789,568.112,573.061" y="443.968" svg_rhmargin="576.979" style="fill:#171615;font-family:LFHPIM+AdvOTbc475f09;font-size:8.97px;font-style:NORMAL;font-weight:normal;">bilateral, chemotherapy and aggressive focal therapy would be</text>
  <text x="331.937,336.42,341.369,346.319,348.74,351.16,355.079,360.028,365.782,368.669,373.618,379.388,382.84,387.323,391.806,395.724,401.555,406.504,410.987,414.439,417.326,419.747,424.23,426.651,432.452,436.935,439.356,442.808,445.229,450.178,455.127" y="454.91" svg_rhmargin="457.548" style="fill:#171615;font-family:LFHPIM+AdvOTbc475f09;font-size:8.97px;font-style:NORMAL;font-weight:normal;">applied to save partial vision.</text>
  <text svg_rhmargin="478.566" x="457.568,459.734,463.447,467.16,468.976,472.689,476.401,478.56600000000003" y="454.91" style="fill:#171615;font-family:LFHPIM+AdvOTbc475f09;font-size:5.98px;font-style:NORMAL;font-weight:normal;">[49,50] </text>
  <text x="484.384,491.853,496.802,503.706,507.625,512.108,516.026,519.478,521.899,527.696,532.645,537.5939999999999,543.399,546.851,549.739,554.222,559.171,564.121,568.604,572.056" y="454.91" svg_rhmargin="577.005" style="fill:#171615;font-family:LFHPIM+AdvOTbc475f09;font-size:8.97px;font-style:NORMAL;font-weight:normal;">However, no standard</text>
  <text x="331.936,335.855,340.804,344.722,352.093,357.042,359.929,364.879,368.797,372.249,376.732,381.681,386.164,389.817,393.269,397.188,401.671,404.092,411.462,415.38,420.329,424.059,426.946,431.895,435.347,439.025,442.477,446.396,449.283,451.704,456.653,461.603,466.552,468.973,473.456,476.908,479.795,484.745,492.115,496.598,500.308,507.212,511.696,515.148,518.846,523.796,527.714,531.166,533.587,538.07,543.019,546.938,551.887,555.582,560.531,565.4799999999999,569.131,572.018" y="465.909" svg_rhmargin="576.967" style="fill:#171615;font-family:LFHPIM+AdvOTbc475f09;font-size:8.97px;font-style:NORMAL;font-weight:normal;">chemotherapy regimen for retinoblastoma was designed up to</text>
  <path d=" M 71.88700103759766 766.885009765625 L 577.02099609375 766.885009765625 L 577.02099609375 767.6220092773438 L 71.88700103759766 767.6220092773438 Z " style="fill:none;stroke:#000000;stroke-width:1.0;"/>
  <path d=" M 71.88700103759766 539.8300170898438 L 577.02099609375 539.8300170898438 L 577.02099609375 540.5670166015625 L 71.88700103759766 540.5670166015625 Z " style="fill:none;stroke:#000000;stroke-width:1.0;"/>
  <rect style="stroke:blue;stroke-width:0.3;" x="84.076" y="40.202" height="192.302" width="480.914" title="6"/>
  <text x="84.076" y="40.202" class="image" id="image.6.1" width="480" height="192">image.6.1.84_565.40_233</text>
  <text svg_rhmargin="101.275" x="71.887,76.243,78.03,82.387,86.661,89.225,93.35,95.133,99.258,101.27499999999999" y="243.50199999999995" style="fill:#171615;font-family:LFHPOE+AdvOTf94803d4;font-size:7.47px;font-style:NORMAL;font-weight:normal;">Figure 4. </text>
  <text x="105.052,109.019,113.144,115.475,119.285,122.864,125.03800000000001,126.82,131.094,132.416,136.541,138.715,140.482,144.293,148.26,152.534,154.258,156.126,160.154,164.122,168.089,171.9,173.223,174.95,179.224,180.546,184.67,186.844,188.612,192.736,194.60399999999998,196.378,200.189,203.768,207.347,211.471,215.282,216.604,220.415,222.589,223.912,228.036,232.004,233.792,238.066,241.877,244.051,249.573,253.383,257.194,261.16200000000003,262.987,266.409,270.22,273.799,277.609,281.577,282.899,286.71,289.041,290.821,294.631,298.599,302.873,306.997,309.172,313.139,316.95,318.272,319.595,323.405,324.72799999999995,326.534,330.658,332.989,337.114,342.635,344.81,348.778,350.57,352.438,356.248,360.059,362.233,366.358,368.689,370.467,374.742,377.073,381.197,383.372,387.182,388.505,392.473,394.221,398.031,401.61,405.884,408.215,412.026,415.605,419.184,420.506,424.719,428.687,430.389,434.199,438.167,442.441,444.221,448.346,452.619,454.794,456.116,459.92699999999996,461.738,465.706,469.516,471.847,475.269,479.08,480.842,482.164,486.132,489.554,493.678,495.001,498.423,502.234,508.375,512.186,516.154,518.328,520.126,524.252,526.12,527.893,530.224,534.035,536.209,537.532,541.499,545.624,549.898,551.22,555.031,558.641,560.816,564.94,571.082,574.893" y="243.50199999999995" svg_rhmargin="576.91" style="fill:#171615;font-family:LFHPHG+AdvOT6e5d2ec0;font-size:7.47px;font-style:NORMAL;font-weight:normal;">Forest plot and funnel plot of association between vascular endothelial growth factor protein expression and optic nerve involvement of retinoblastoma.</text>
  <text svg_rhmargin="189.89" x="71.887,73.672,78.342,80.128,82.658,86.625,90.75,93.081,96.892,100.471,102.64500000000001,105.163,109.437,110.759,114.884,117.058,119.562,123.373,127.34,131.614,134.131,135.917,140.893,142.679,145.186,147.054,151.021,154.989,158.956,162.767,164.09,166.614,170.888,172.21,176.335,178.509,180.52599999999998,183.054,188.261,189.89" y="252.46000000000004" style="fill:#171615;font-family:LFHPHG+AdvOT6e5d2ec0;font-size:7.47px;font-style:NORMAL;font-weight:normal;">(A) Forest plot and (B) funnel plot. CI </text>
  <text x="190.828" y="252.46000000000004" svg_rhmargin="195.886" style="fill:#171615;font-family:LFHPHK+AdvOTb0c9bf5d;font-size:7.47px;font-style:NORMAL;font-weight:normal;">=</text>
  <text x="196.838,200.649,204.774" y="252.46000000000004" svg_rhmargin="208.742" style="fill:#171615;font-family:LFHPHG+AdvOT6e5d2ec0;font-size:7.47px;font-style:NORMAL;font-weight:normal;">con</text>
  <text x="208.743" y="252.46000000000004" svg_rhmargin="212.008" style="fill:#171615;font-family:LFHPHJ+AdvOT6e5d2ec0+fb;font-size:7.47px;font-style:NORMAL;font-weight:normal;">ﬁ</text>
  <text x="212.031,216.305,220.116,224.083,227.894,231.705,234.253,235.576,239.543,241.718,245.528,247.859,251.282,255.092,256.415,258.432,260.954,266.475" y="252.46000000000004" svg_rhmargin="271.451" style="fill:#171615;font-family:LFHPHG+AdvOT6e5d2ec0;font-size:7.47px;font-style:NORMAL;font-weight:normal;">dence interval, OR</text>
  <text x="272.409" y="252.46000000000004" svg_rhmargin="277.467" style="fill:#171615;font-family:LFHPHK+AdvOTb0c9bf5d;font-size:7.47px;font-style:NORMAL;font-weight:normal;">=</text>
  <text x="278.418,282.543,286.817,291.091,294.67,297.182,299.513,303.324,305.498,306.821,310.945" y="252.46000000000004" svg_rhmargin="312.962" style="fill:#171615;font-family:LFHPHG+AdvOT6e5d2ec0;font-size:7.47px;font-style:NORMAL;font-weight:normal;">odds ratio.</text>
  <path d=" M 71.88700103759766 314.30499267578125 L 576.9639892578125 314.30499267578125 L 576.9639892578125 315.0419921875 L 71.88700103759766 315.0419921875 Z " style="fill:none;stroke:#000000;stroke-width:1.0;"/>
  <path d=" M 71.88700103759766 84.302001953125 L 576.9639892578125 84.302001953125 L 576.9639892578125 85.03903198242188 L 71.88700103759766 85.03903198242188 Z " style="fill:none;stroke:#000000;stroke-width:1.0;"/>
  <rect style="stroke:blue;stroke-width:0.3;" x="84.472" y="492.782" height="195.25" width="480.193" title="6"/>
  <text x="84.472" y="492.782" class="image" id="image.6.2" width="480" height="195">image.6.2.84_565.493_688</text>
  <text svg_rhmargin="101.275" x="71.887,76.243,78.03,82.387,86.661,89.225,93.35,95.133,99.258,101.27499999999999" y="699.03" style="fill:#171615;font-family:LFHPOE+AdvOTf94803d4;font-size:7.47px;font-style:NORMAL;font-weight:normal;">Figure 5. </text>
  <text x="105.052,109.019,113.144,115.475,119.285,122.864,125.03800000000001,126.82,131.094,132.416,136.541,138.715,140.482,144.293,148.26,152.534,154.315,156.183,160.15,164.118,168.085,171.896,173.219,175.006,179.28,180.602,184.727,186.901,188.668,192.792,194.66,196.434,200.245,203.824,207.403,211.527,215.338,216.66,220.471,222.645,223.968,228.092,232.06,233.848,238.122,241.933,244.107,249.629,253.439,257.25,261.218,263.043,266.465,270.276,273.855,277.665,281.633,282.955,286.766,289.09700000000004,290.877,294.688,298.655,302.929,307.053,309.228,313.195,317.006,318.328,319.731,323.541,324.864,326.59,330.714,333.045,337.17,342.692,344.866,348.834,350.626,352.494,356.304,360.115,362.289,366.414,368.745,370.523,374.797,377.128,381.253,383.505,387.315,388.638,392.606,394.333,398.143,401.722,405.996,408.327,412.138,415.717,419.296,420.619,424.831,428.79900000000004,430.557,434.367,438.335,442.609,444.389,448.663,449.986,451.854,453.722,457.532,459.863,463.674,467.642,469.816,471.138,474.949,477.123,478.446,482.57,486.538,488.323,492.447,494.315,496.089,498.42,502.231,504.405,505.727,509.695,513.819,518.093,519.416,523.226,526.805,528.98,533.104,539.342,543.152,545.1690000000001,546.938,548.756,553.426,555.212,556.948,560.915,565.04,567.435,571.246,574.825" y="699.03" svg_rhmargin="576.999" style="fill:#171615;font-family:LFHPHG+AdvOT6e5d2ec0;font-size:7.47px;font-style:NORMAL;font-weight:normal;">Forest plot and funnel plot of association between vascular endothelial growth factor protein expression and differentiation of retinoblastoma. (A) Forest</text>
  <text svg_rhmargin="156.614" x="71.887,76.16,77.483,81.607,83.781,86.286,90.096,94.064,98.338,100.855,102.641,107.617,109.403,111.909,113.777,117.745,121.712,125.68,129.49,130.81300000000002,133.338,137.612,138.934,143.059,145.233,147.25,149.777,154.985,156.614" y="707.987" style="fill:#171615;font-family:LFHPHG+AdvOT6e5d2ec0;font-size:7.47px;font-style:NORMAL;font-weight:normal;">plot and (B) funnel plot. CI </text>
  <text x="157.549" y="707.987" svg_rhmargin="162.607" style="fill:#171615;font-family:LFHPHK+AdvOTb0c9bf5d;font-size:7.47px;font-style:NORMAL;font-weight:normal;">=</text>
  <text x="163.559,167.37,171.495" y="707.987" svg_rhmargin="175.463" style="fill:#171615;font-family:LFHPHG+AdvOT6e5d2ec0;font-size:7.47px;font-style:NORMAL;font-weight:normal;">con</text>
  <text x="175.521" y="707.987" svg_rhmargin="178.786" style="fill:#171615;font-family:LFHPHJ+AdvOT6e5d2ec0+fb;font-size:7.47px;font-style:NORMAL;font-weight:normal;">ﬁ</text>
  <text x="178.753,183.027,186.837,190.805,194.615,198.42600000000002,200.975,202.297,206.265,208.439,212.25,214.581,218.003,221.814,223.136,225.153,227.675,233.197" y="707.987" svg_rhmargin="238.173" style="fill:#171615;font-family:LFHPHG+AdvOT6e5d2ec0;font-size:7.47px;font-style:NORMAL;font-weight:normal;">dence interval, OR</text>
  <text x="239.13" y="707.987" svg_rhmargin="244.188" style="fill:#171615;font-family:LFHPHK+AdvOTb0c9bf5d;font-size:7.47px;font-style:NORMAL;font-weight:normal;">=</text>
  <text x="245.14,249.265,253.539,257.814,261.39300000000003,263.906,266.238,270.049,272.224,273.547,277.673" y="707.987" svg_rhmargin="279.69" style="fill:#171615;font-family:LFHPHG+AdvOT6e5d2ec0;font-size:7.47px;font-style:NORMAL;font-weight:normal;">odds ratio.</text>
  <text svg_rhmargin="182.003" x="71.887,79.108,83.34,85.946,90.011,92.33,95.017,99.082,100.492,102.644,105.278,111.829,115.894,120.453,121.864,125.929,127.339,131.571,135.636,138.215,140.12,144.52,148.919,153.319,157.719,159.624,162.252,166.652,171.051,173.203,177.603,182.002" y="9.870999999999981" style="fill:#171615;font-family:LFHPHG+AdvOT6e5d2ec0;font-size:7.97px;font-style:NORMAL;font-weight:normal;">Wu et al. Medicine (2018) 97:51 </text>
  <text x="542.723,549.944,554.503,559.317,561.31,565.869,567.861,572.508" y="9.870999999999981" svg_rhmargin="577.067" style="fill:#171615;font-family:LFHPHF+AdvOT34fe1490.B;font-size:7.97px;font-style:NORMAL;font-weight:normal;">Medicine</text>
  <text x="322.243" y="739.625" svg_rhmargin="326.643" style="fill:#171615;font-family:LFHPOE+AdvOTf94803d4;font-size:7.97px;font-style:NORMAL;font-weight:normal;">6</text>
 </g>
</svg>
