<?xml version="1.0" encoding="UTF-8"?>
<svg height="870.031005859375" width="672.0029907226562" xmlns="http://www.w3.org/2000/svg">
 <g style="fill:none;">
  <path d=" M 0.05999799817800522 826.072021484375 L 22.619997024536133 826.072021484375 L 22.619997024536133 826.35546875 L 0.05999799817800522 826.35546875 Z " style="fill:none;stroke:#000000;stroke-width:1.0;"/>
  <path d=" M 33.67599868774414 837.4110107421875 L 33.959449768066406 837.4110107421875 L 33.959449768066406 860.031005859375 L 33.67599868774414 860.031005859375 Z " style="fill:none;stroke:#000000;stroke-width:1.0;"/>
  <path d=" M 627.9869995117188 837.4110107421875 L 628.2703857421875 837.4110107421875 L 628.2703857421875 860.031005859375 L 627.9869995117188 860.031005859375 Z " style="fill:none;stroke:#000000;stroke-width:1.0;"/>
  <path d=" M 639.3259887695312 826.072021484375 L 662.0029907226562 826.072021484375 L 662.0029907226562 826.35546875 L 639.3259887695312 826.35546875 Z " style="fill:none;stroke:#000000;stroke-width:1.0;"/>
  <path d=" M 639.3259887695312 33.731998443603516 L 662.0029907226562 33.731998443603516 L 662.0029907226562 34.015480041503906 L 639.3259887695312 34.015480041503906 Z " style="fill:none;stroke:#000000;stroke-width:1.0;"/>
  <path d=" M 627.9869995117188 0.0 L 628.2703857421875 0.0 L 628.2703857421875 22.677000045776367 L 627.9869995117188 22.677000045776367 Z " style="fill:none;stroke:#000000;stroke-width:1.0;"/>
  <path d=" M 33.67599868774414 0.0 L 33.959449768066406 0.0 L 33.959449768066406 22.677000045776367 L 33.67599868774414 22.677000045776367 Z " style="fill:none;stroke:#000000;stroke-width:1.0;"/>
  <path d=" M 0.05999799817800522 33.731998443603516 L 22.619997024536133 33.731998443603516 L 22.619997024536133 34.015480041503906 L 0.05999799817800522 34.015480041503906 Z " style="fill:none;stroke:#000000;stroke-width:1.0;"/>
  <path d=" M 85.03900146484375 630.594970703125 L 566.248046875 630.594970703125 C 579.416015625 630.636962890625 590.1820068359375 619.8469848632812 590.115966796875 606.6709594726562 L 590.115966796875 353.59295654296875 L 85.03900146484375 353.59295654296875" style="fill:none;stroke:#000000;stroke-width:1.0;"/>
  <path d=" M 85.03900146484375 630.594970703125 L 566.248046875 630.594970703125 L 566.248046875 630.3679809570312 L 85.26599884033203 630.3679809570312" style="fill:none;stroke:#000000;stroke-width:1.0;"/>
  <path d=" M 566.2490234375 630.594970703125 L 569.9910278320312 630.3119506835938 C 580.1680297851562 628.719970703125 588.2870483398438 620.6019897460938 589.8330078125 610.4119873046875 L 590.1170043945312 606.6709594726562 L 589.8900146484375 606.6709594726562 L 589.6069946289062 610.4119873046875 C 587.9960327148438 620.6119995117188 580.0670166015625 628.365966796875 569.9340209960938 630.0849609375 L 566.2490234375 630.3679809570312" style="fill:none;stroke:#000000;stroke-width:1.0;"/>
  <path d=" M 590.1160278320312 606.6710205078125 L 590.1160278320312 353.5940246582031 L 589.8890380859375 353.8210144042969 L 589.8890380859375 606.6710205078125" style="fill:none;stroke:#000000;stroke-width:1.0;"/>
  <path d=" M 590.1160278320312 353.593994140625 L 85.03903198242188 353.593994140625 L 85.26602172851562 353.82098388671875 L 589.8890380859375 353.82098388671875" style="fill:none;stroke:#000000;stroke-width:1.0;"/>
  <path d=" M 85.03900146484375 353.593994140625 L 85.03900146484375 630.594970703125 L 85.26599884033203 630.3690185546875 L 85.26599884033203 353.82098388671875" style="fill:none;stroke:#000000;stroke-width:1.0;"/>
  <text x="85.039,97.895,111.389,126.735,138.77,145.485,157.524,168.108,180.147,188.44,200.479,211.063,223.52,231.911,243.95,254.952,265.955,271.757,283.796,296.24899999999997,302.911,308.713,319.71200000000005,326.385,338.005,349.008,360.011,372.049,383.67,389.472,401.092,408.768,420.807,433.26,439.941,456.323,462.126,469.801,482.25399999999996,488.935,500.974,513.431,521.107,526.909" y="81.077" svg_rhmargin="538.525" style="fill:#171615;font-family:LFHPHE+AdvOTfbba3ace.B;font-size:19.93px;font-style:NORMAL;font-weight:normal;">VEGF overexpression is associated with optic</text>
  <text x="85.039,97.493,109.528,117.817,128.397,140.432,147.117,152.915,165.368,175.949,187.983,193.782,204.362,216.509,234.76,246.795,259.248,266.919,273.598,285.215,297.668,310.121,316.799,329.252,335.05,342.303,349.556,361.591,369.88,381.914,394.368,402.039,407.837,419.454,427.292,433.09,445.125,457.578,464.256,476.291" y="101.03200000000004" svg_rhmargin="483.544" style="fill:#171615;font-family:LFHPHE+AdvOTfbba3ace.B;font-size:19.93px;font-style:NORMAL;font-weight:normal;">nerve involvement and differentiation of</text>
  <text x="85.039,93.328,105.363,113.034,118.833,131.286,143.321,155.774,161.688,173.305,184.303,191.975,204.009,222.261" y="120.93200000000002" svg_rhmargin="233.877" style="fill:#171615;font-family:LFHPHE+AdvOTfbba3ace.B;font-size:19.93px;font-style:NORMAL;font-weight:normal;">retinoblastoma</text>
  <text x="85.039,95.83,101.141,111.755,123.199,127.836,138.116,152.556,163.346,169.816,178.933,188.559,202.824,212.45,216.434,220.417,229.533,238.825,244.292,249.585,263.85,272.966,278.432,287.548,294.018,303.135,312.426,321.542,325.526,333.654,342.117,346.1" y="142.02200000000005" svg_rhmargin="354.564" style="fill:#171615;font-family:LFHPHF+AdvOT34fe1490.B;font-size:15.94px;font-style:NORMAL;font-weight:normal;">A PRISMA-compliant meta-analysis</text>
  <text x="85.039,92.77,94.621,99.412,104.967,110.302,115.857,121.631,125.121,134.598,140.153,142.977,146.437,155.036,161.574,164.39800000000002,167.867,173.851,175.702,181.037,186.811,190.318,196.856,202.411,207.965,210.78900000000002,214.243,222.841,229.379,232.203,235.729,243.459,249.014,254.349,259.904,265.678,270.469,272.32,277.875,283.649,287.092,293.075,298.63,303.965,309.52,315.294,318.118,321.617,330.216" y="159.82399999999996" svg_rhmargin="336.754" style="fill:#171615;font-family:LFHPHG+AdvOT6e5d2ec0;font-size:10.46px;font-style:NORMAL;font-weight:normal;">Qizheng Wu, MS, Xiao Sun, MS, Guangying Zheng, MS</text>
  <text x="336.699" y="153.19100000000003" svg_rhmargin="340.779" style="fill:#171615;font-family:LFHPHH+AdvOTb0c9bf5d+22;font-size:6.97px;font-style:NORMAL;font-weight:normal;">∗</text>
  <text x="91.276,97.915,104.052,109.607,113.09,117.155,123.045,128.935" y="181.59400000000005" svg_rhmargin="132.418" style="fill:#171615;font-family:LFHPHI+AdvOT91f5f621.B;font-size:7.97px;font-style:NORMAL;font-weight:normal;">Abstract</text>
  <text svg_rhmargin="152.86" x="91.276,98.329,104.219,110.109,115.832,121.969,126.034,132.171,137.932,143.822,149.959,152.86" y="191.572" style="fill:#171615;font-family:LFHPHI+AdvOT91f5f621.B;font-size:7.97px;font-style:NORMAL;font-weight:normal;">Background: </text>
  <text x="154.205,159.432,164.005,168.3,172.873,177.634,179.221,183.794,186.591,188.332,192.905,197.666,202.795,207.744,210.353,215.115,219.687,221.274,222.861,227.434,229.021,230.737,235.686,238.483,243.433,250.059,252.668,257.42900000000003,259.139,261.381,265.954,270.526,273.136,278.085,280.882,282.609,284.752,289.98,295.207,301.833,306.594,308.73699999999997,310.444,315.573,317.16,321.733,325.839,330.134,331.817,336.39,341.151,342.872,344.459,351.829,356.958,361.907,364.705,367.314,371.887,376.648,379.257,380.968,383.765,388.715,390.302,394.875,396.559,398.146,402.90700000000004,404.608,407.218,411.979,416.55199999999996,418.271,423.4,427.973,430.582,435.343,440.293,445.242,449.815,454.576,459.149,463.444,465.031,469.326,471.051,476.0,478.242,479.951,484.524,489.097,493.858,498.431,503.004,505.801,508.222,509.941,515.545,517.132,519.741,524.502,529.452,534.213,539.162,543.923,545.6,550.361,555.122,562.492,567.065,569.863,574.812,579.573" y="191.572" svg_rhmargin="583.868" style="fill:#171615;font-family:LFHPHG+AdvOT6e5d2ec0;font-size:8.97px;font-style:NORMAL;font-weight:normal;">Vascular endothelial growth factor (VEGF) plays an important role in the pathogenesis of cancer. Although numerous</text>
  <text x="91.276,95.57,98.18,102.941,108.07,109.657,114.229,118.524,121.946,126.707,131.28,135.386,139.959,143.319,144.906,149.667,153.773,158.346,162.641,165.25,166.837,171.787,176.36,178.969,183.542,188.671,192.073,194.682,199.443,204.01600000000002,207.437,212.01,216.304,220.599,225.549,230.122,231.709,236.281,238.891,240.478,245.427,250.188,253.584,258.712,263.285,265.894,272.52,277.093,281.666,286.427,289.866,295.093,300.32,306.947,311.708,315.093,319.666,323.961,329.09,331.887,336.46,340.755,345.05,346.637,351.586,356.34700000000004,359.766,364.339,369.1,374.22900000000004,377.624,382.753,387.326,389.935,394.696,399.646,404.595,409.168,413.929,418.502,422.797,424.384,428.67900000000003,432.048,436.997,439.23900000000003,442.65,445.447,450.02,452.629,454.216,458.977,463.927,469.056,470.643,475.215,479.51,482.119,487.069,494.439,499.012,501.433,504.839,507.448,512.209,516.7819999999999,520.203,523.0,527.573,531.868,536.629,538.216,540.825,545.12,548.492,551.289,555.862,563.232,567.805,569.392,574.153,578.726" y="202.51300000000003" svg_rhmargin="583.855" style="fill:#171615;font-family:LFHPHG+AdvOT6e5d2ec0;font-size:8.97px;font-style:NORMAL;font-weight:normal;">studies have investigated the association between VEGF expression and pathogenesis of retinoblastoma, the results remained</text>
  <text x="91.276,92.863,97.624,102.197,107.146,111.907,116.202,117.789,122.084,124.693,129.266,134.027,136.636,139.057,142.071,147.02,151.96900000000002,154.94,156.527,158.114,159.701,164.462,171.832,173.42,178.181,182.753,185.363,189.936,192.979,195.589,200.35,204.923,207.89,212.462,216.757,221.052,226.001,230.574,232.161,236.734,239.343,240.93,245.88,250.641,253.06199999999998,256.077,262.703,267.27599999999995,270.25,275.379,279.952,282.749,284.991,289.94,292.738,300.108,304.681,309.81,312.882,317.455,320.422,327.792,332.365,334.974,339.547,342.811,347.384,352.145,356.718,358.305,362.411,366.706,368.293,372.588,375.583,379.878,382.487,387.248,392.377,396.483" y="213.45500000000004" svg_rhmargin="398.904" style="fill:#171615;font-family:LFHPHG+AdvOT6e5d2ec0;font-size:8.97px;font-style:NORMAL;font-weight:normal;">inconsistent. To illuminate the association, we performed a meta-analysis study.</text>
  <text svg_rhmargin="136.323" x="91.276,100.242,106.22,109.703,115.593,121.73,127.867,133.422,136.323" y="227.68499999999995" style="fill:#171615;font-family:LFHPHI+AdvOT91f5f621.B;font-size:7.97px;font-style:NORMAL;font-weight:normal;">Methods: </text>
  <text x="138.104,143.708,148.281,152.853,157.803,160.6,165.729,167.316,172.077,177.026,179.262,181.871,186.82000000000002,189.07,191.679,196.44,201.013,203.243,208.847,214.819,216.773,222.377,229.748,235.352,237.541,242.491,247.252,248.839,253.967,258.54,260.127,261.714,266.475,271.048,273.469,275.751,280.324,281.911,283.498,288.447,290.034,295.163,296.75,301.323,303.53,307.824,310.434,315.195,320.323,321.91,326.483,330.778,333.009,339.635,344.208,347.005,351.578,353.814,358.109,362.682,367.255,370.052,374.625,379.386,383.959,389.088,391.344,392.931,397.692,399.905,402.514,407.275,411.84799999999996,414.078,421.448,426.021,431.15,432.737,437.309,438.896,443.658,448.23,450.651,452.911,458.138,465.508,470.637,475.21,479.505,484.078,486.49899999999997,488.739,496.863,501.436,506.565,508.809,513.758,516.0,518.163,523.767,528.34,529.927,534.5,539.261,543.834,548.406,550.827,553.085,559.335,564.096,565.683,570.444,575.017,579.311" y="227.68499999999995" svg_rhmargin="583.884" style="fill:#171615;font-family:LFHPHG+AdvOT6e5d2ec0;font-size:8.97px;font-style:NORMAL;font-weight:normal;">According to the PRISMA guideline, eligible studies were searched in the Medicine, Embase, Web of Science, Chinese</text>
  <text x="91.276,97.525,102.098,104.707,106.294,111.244,116.005,120.577,122.164,125.744,131.527,136.288,141.238,147.864,149.451,154.024,159.152,164.102,168.675,172.287,174.242,179.003,181.244,184.042,188.615,192.91,195.519,198.316,203.077,207.65,210.259,215.02,217.818,222.391,224.81199999999998,228.467,233.04,237.801,242.92999999999998,246.552,254.676,259.249,264.01,266.251,270.824,275.585,280.534,284.138,289.267,293.84,296.449,301.022,306.15,310.723,315.018,319.591,323.886,326.307,329.888,335.492,338.101,342.674,345.283,349.856,353.472,358.421,363.371,365.792,370.741,374.335,378.629,383.579,385.82,388.43,395.056,399.629,402.426,406.99899999999997,410.617,417.243,421.816,426.111,429.722,434.483,438.778,443.351,448.48,452.059,454.668,459.617,463.227,467.8,472.373,473.96,478.533,483.294,484.881,489.454,492.063,496.63599999999997,500.247,502.856,507.617,512.19,515.78,518.577,523.15,524.737,529.31,533.417,537.989,542.75,545.359,549.001,553.296,555.905,560.478,563.087,564.674,568.969,571.578,573.165,577.738,582.311" y="238.62699999999995" svg_rhmargin="583.898" style="fill:#171615;font-family:LFHPHG+AdvOT6e5d2ec0;font-size:8.97px;font-style:NORMAL;font-weight:normal;">National Knowledge Infrastructure, and Wanfang databases. Stata 14.0 software was used to calculate the relevant statistical</text>
  <text x="91.276,96.404,100.977,103.775,108.347,115.718,120.291,122.9,127.473,130.27,134.565" y="249.625" svg_rhmargin="136.986" style="fill:#171615;font-family:LFHPHG+AdvOT6e5d2ec0;font-size:8.97px;font-style:NORMAL;font-weight:normal;">parameters.</text>
  <text svg_rhmargin="129.676" x="91.276,97.994,103.972,109.527,115.417,117.737,121.22,126.775,129.67600000000002" y="263.799" style="fill:#171615;font-family:LFHPHI+AdvOT91f5f621.B;font-size:7.97px;font-style:NORMAL;font-weight:normal;">Results: </text>
  <text x="132.491,138.095,142.668,146.775,151.347,156.109,158.718,163.291,167.863,172.624,175.917,180.212,182.821,187.582,192.711,194.298,198.871,203.166,206.417,213.043,214.63,217.239,222.0,225.295,230.245,235.194,240.143,243.38,247.953,252.902,257.664,260.273,263.07,268.02,269.607,273.90200000000004,277.168,281.741,286.502,291.63100000000003,294.856,299.805,304.755,309.704,312.997,318.126,322.699,325.308,326.895,331.468,336.229,338.838,343.13300000000004,346.389,353.015,354.602,357.211,361.97200000000004,365.211,368.008,372.581,375.19,376.777,381.538,386.488,391.617,393.204,397.776,402.071,404.68,409.63,417.0,421.573,424.907,431.533,436.106,438.903,443.476,446.733,448.32,453.081,457.654,459.241,464.002,469.131,473.704,478.833,482.109,484.351,487.148,492.097,499.467,502.688,507.638,512.587,515.841,520.414,522.001,523.588,528.537,530.124,535.253,536.84,541.413,544.697,546.284,547.871,550.481,555.053,557.851,562.424,565.033,569.794,572.591,577.164,581.459" y="263.799" svg_rhmargin="583.88" style="fill:#171615;font-family:LFHPHG+AdvOT6e5d2ec0;font-size:8.97px;font-style:NORMAL;font-weight:normal;">Seventeen studies with 296 controls and 470 patients with retinoblastoma were included from 17 eligible literatures.</text>
  <text x="91.275,97.901,102.008,106.58,109.378,113.951,115.538,117.125,119.546,123.929,128.224,129.811,134.761,139.522" y="274.74" svg_rhmargin="141.109" style="fill:#171615;font-family:LFHPHG+AdvOT6e5d2ec0;font-size:8.97px;font-style:NORMAL;font-weight:normal;">Overall, signi</text>
  <text x="141.108" y="274.74" svg_rhmargin="145.026" style="fill:#171615;font-family:LFHPHJ+AdvOT6e5d2ec0+fb;font-size:8.97px;font-style:NORMAL;font-weight:normal;">ﬁ</text>
  <text x="145.02,149.593,154.166,158.927,161.536,165.939,170.512,174.807,179.102,184.051,188.624,190.211,194.784,197.393,198.98,203.929,208.69,213.049,218.178,222.751,225.36,231.986,236.559,241.132,245.893,250.295,255.522,260.75,267.376,272.137,276.487,281.436,285.543,290.115,292.913,297.486,301.78,306.909,309.707,314.28,318.574,322.869,324.456,329.406,334.16700000000003,338.563,343.136,347.897,353.026,357.441,361.736,366.497,370.792,375.365,379.938,385.067,387.676,389.263,394.392,395.979,397.566,399.153,401.762,405.868,410.221,415.17,417.41200000000003,421.785,424.583,429.156,431.765,433.352,438.113,443.063,448.191,449.778,454.351,458.646,461.255,466.205,473.575,478.14799999999997,482.558,489.184,493.757,498.052,502.457,507.406,512.535,516.83,521.403,524.2,528.307,532.88,538.009,542.368,543.955,548.716,553.083,559.332,564.093,565.68,570.441,575.014,579.309" y="274.74" svg_rhmargin="583.882" style="fill:#171615;font-family:LFHPHG+AdvOT6e5d2ec0;font-size:8.97px;font-style:NORMAL;font-weight:normal;">cant association between VEGF overexpression and susceptibility of retinoblastoma was observed in Chinese</text>
  <text svg_rhmargin="193.365" x="91.275,96.404,101.353,106.482,111.243,112.83,117.403,120.012,121.599,126.548,131.309,133.623,135.766,140.715,145.844,150.973,155.268,157.603,160.401,164.974,167.583,169.17,174.119,176.482,178.625,185.251,191.222,193.365" y="285.73900000000003" style="fill:#171615;font-family:LFHPHG+AdvOT6e5d2ec0;font-size:8.97px;font-style:NORMAL;font-weight:normal;">population (odds ratio [OR] </text>
  <text x="194.456" y="285.73900000000003" svg_rhmargin="200.526" style="fill:#171615;font-family:LFHPHK+AdvOTb0c9bf5d;font-size:8.97px;font-style:NORMAL;font-weight:normal;">=</text>
  <text x="201.656,206.606,211.555,213.976,218.926,223.875,226.296,228.641,233.591,238.54,246.475,248.767,253.34,258.289" y="285.73900000000003" svg_rhmargin="263.05" style="fill:#171615;font-family:LFHPHG+AdvOT6e5d2ec0;font-size:8.97px;font-style:NORMAL;font-weight:normal;">21.67, 95% con</text>
  <text x="263.055" y="285.73900000000003" svg_rhmargin="266.973" style="fill:#171615;font-family:LFHPHJ+AdvOT6e5d2ec0+fb;font-size:8.97px;font-style:NORMAL;font-weight:normal;">ﬁ</text>
  <text svg_rhmargin="334.334" x="266.967,272.096,276.668,281.43,286.002,290.575,292.932,294.519,299.28,301.889,306.462,309.259,313.366,317.939,319.526,321.844,323.987,330.237,332.191,334.33399999999995" y="285.73900000000003" style="fill:#171615;font-family:LFHPHG+AdvOT6e5d2ec0;font-size:8.97px;font-style:NORMAL;font-weight:normal;">dence interval [CI] </text>
  <text x="335.509" y="285.73900000000003" svg_rhmargin="341.579" style="fill:#171615;font-family:LFHPHK+AdvOTb0c9bf5d;font-size:8.97px;font-style:NORMAL;font-weight:normal;">=</text>
  <text x="342.709,347.658,352.608,355.029,359.978" y="285.73900000000003" svg_rhmargin="364.927" style="fill:#171615;font-family:LFHPHG+AdvOT6e5d2ec0;font-size:8.97px;font-style:NORMAL;font-weight:normal;">13.96</text>
  <text x="364.933" y="285.73900000000003" svg_rhmargin="369.416" style="fill:#171615;font-family:LFHPHL+AdvOT6e5d2ec0+20;font-size:8.97px;font-style:NORMAL;font-weight:normal;">–</text>
  <text x="369.411,374.361,379.31,381.731,386.681,391.63,393.773,396.194,398.494,404.098,408.859,413.987,418.937,421.734,426.684,431.445,436.574,438.915,443.487,448.249,452.821,454.408,458.515,462.81,464.397,468.692,471.001,476.13,480.703,484.998,489.571,494.70000000000005,497.023,501.972,506.733,509.041,513.614,518.563,523.324,525.934,528.731,533.68,535.2669999999999,537.613,541.908,546.481,553.851,558.98,560.567,565.14,567.49,570.099,574.205,579.334" y="285.73900000000003" svg_rhmargin="583.907" style="fill:#171615;font-family:LFHPHG+AdvOT6e5d2ec0;font-size:8.97px;font-style:NORMAL;font-weight:normal;">33.62). Subgroup analysis based on control sample type</text>
  <text x="91.275,95.57,100.331,105.28,111.906,116.479,121.608,124.496,127.105,131.866,136.439,139.048,141.957,147.184,152.412,159.038,163.799,166.674,171.624,175.73,180.303,183.101,187.674,191.968,197.097,199.895,204.467,208.762,213.057,214.644,219.594,224.355,227.22,233.846,238.419,242.714,245.589,249.884,251.471,256.42,261.181" y="296.681" svg_rhmargin="262.768" style="fill:#171615;font-family:LFHPHG+AdvOT6e5d2ec0;font-size:8.97px;font-style:NORMAL;font-weight:normal;">showed that VEGF overexpression was signi</text>
  <text x="262.772" y="296.681" svg_rhmargin="266.69" style="fill:#171615;font-family:LFHPHJ+AdvOT6e5d2ec0+fb;font-size:8.97px;font-style:NORMAL;font-weight:normal;">ﬁ</text>
  <text x="266.74,271.313,275.886,280.647,283.256,284.843,288.949,291.797,296.37,300.665,304.96,309.909,314.482,316.069,320.642,323.251,327.824,332.95300000000003,335.846,342.472,344.059,346.668,351.42900000000003,354.327,356.937,361.698,366.27099999999996,369.181,371.979,373.566,377.86,382.343,385.224,390.174,392.416,395.259,398.056,402.629,405.238,406.825,411.586,416.536,421.664,423.251,427.824,432.119,434.728,439.678,447.048,451.621,454.557,456.7,462.95,467.899,470.697,478.067,482.64,484.227,487.098,489.895,494.468,497.077,498.664,503.425,507.998,510.908,513.517,515.104,519.399,523.694,528.455,533.028,535.4490000000001,538.346,544.973" y="296.681" svg_rhmargin="550.945" style="fill:#171615;font-family:LFHPHG+AdvOT6e5d2ec0;font-size:8.97px;font-style:NORMAL;font-weight:normal;">cantly associated with the risk of retinoblastoma (Normal retina tissue, OR</text>
  <text x="552.077" y="296.681" svg_rhmargin="558.147" style="fill:#171615;font-family:LFHPHK+AdvOTb0c9bf5d;font-size:8.97px;font-style:NORMAL;font-weight:normal;">=</text>
  <text x="559.276,564.226,569.175,571.596,576.546,581.495" y="296.681" svg_rhmargin="583.916" style="fill:#171615;font-family:LFHPHG+AdvOT6e5d2ec0;font-size:8.97px;font-style:NORMAL;font-weight:normal;">23.97,</text>
  <text svg_rhmargin="121.873" x="91.275,96.224,101.174,109.10900000000001,113.668,119.918,121.873" y="307.622" style="fill:#171615;font-family:LFHPHG+AdvOT6e5d2ec0;font-size:8.97px;font-style:NORMAL;font-weight:normal;">95% CI </text>
  <text x="122.966" y="307.622" svg_rhmargin="129.036" style="fill:#171615;font-family:LFHPHK+AdvOTb0c9bf5d;font-size:8.97px;font-style:NORMAL;font-weight:normal;">=</text>
  <text x="130.166,135.116,137.537,142.486" y="307.622" svg_rhmargin="147.435" style="fill:#171615;font-family:LFHPHG+AdvOT6e5d2ec0;font-size:8.97px;font-style:NORMAL;font-weight:normal;">9.67</text>
  <text x="147.458" y="307.622" svg_rhmargin="151.941" style="fill:#171615;font-family:LFHPHL+AdvOT6e5d2ec0+20;font-size:8.97px;font-style:NORMAL;font-weight:normal;">–</text>
  <text x="151.937,156.886,161.835,164.256,169.206,174.155,176.576,181.133,183.93,188.503,191.112,192.699,197.46,202.41,207.538,209.125,213.698,217.993,220.602,225.552,232.922,237.495,242.076,246.649,251.777,253.364,257.937,262.51,267.083,271.844,274.453,279.038,281.648,283.235,287.529,291.824,296.585,301.158,303.579,308.121,314.747" y="307.622" svg_rhmargin="320.719" style="fill:#171615;font-family:LFHPHG+AdvOT6e5d2ec0;font-size:8.97px;font-style:NORMAL;font-weight:normal;">59.42; retinoblastoma adjacent tissue, OR</text>
  <text x="321.846" y="307.622" svg_rhmargin="327.916" style="fill:#171615;font-family:LFHPHK+AdvOTb0c9bf5d;font-size:8.97px;font-style:NORMAL;font-weight:normal;">=</text>
  <text svg_rhmargin="388.84" x="329.046,333.996,338.945,341.366,346.315,351.265,353.686,358.242,363.192,368.141,376.076,380.636,386.885,388.84" y="307.622" style="fill:#171615;font-family:LFHPHG+AdvOT6e5d2ec0;font-size:8.97px;font-style:NORMAL;font-weight:normal;">20.85, 95% CI </text>
  <text x="389.991" y="307.622" svg_rhmargin="396.061" style="fill:#171615;font-family:LFHPHK+AdvOTb0c9bf5d;font-size:8.97px;font-style:NORMAL;font-weight:normal;">=</text>
  <text x="397.191,402.14,407.09,409.511,414.46" y="307.622" svg_rhmargin="419.409" style="fill:#171615;font-family:LFHPHG+AdvOT6e5d2ec0;font-size:8.97px;font-style:NORMAL;font-weight:normal;">12.64</text>
  <text x="419.415" y="307.622" svg_rhmargin="423.898" style="fill:#171615;font-family:LFHPHL+AdvOT6e5d2ec0+20;font-size:8.97px;font-style:NORMAL;font-weight:normal;">–</text>
  <text x="423.893,428.843,433.792,436.213,441.163,446.112,448.255,450.676,455.243,460.847,462.434,467.384,472.145" y="307.622" svg_rhmargin="473.732" style="fill:#171615;font-family:LFHPHG+AdvOT6e5d2ec0;font-size:8.97px;font-style:NORMAL;font-weight:normal;">34.37). Signi</text>
  <text x="473.726" y="307.622" svg_rhmargin="477.644" style="fill:#171615;font-family:LFHPHJ+AdvOT6e5d2ec0+fb;font-size:8.97px;font-style:NORMAL;font-weight:normal;">ﬁ</text>
  <text x="477.638,482.211,486.784,491.545,494.154,498.728,503.301,507.596,511.891,516.84,521.413,523.0,527.573,530.182,531.769,536.718,541.479,545.774,550.317,555.266,557.5079999999999,562.052,567.279,572.506,579.132" y="307.622" svg_rhmargin="583.893" style="fill:#171615;font-family:LFHPHG+AdvOT6e5d2ec0;font-size:8.97px;font-style:NORMAL;font-weight:normal;">cant associations of VEGF</text>
  <text x="91.275,96.225,100.331,104.904,107.701,112.274,116.569,121.698,124.495,129.068,133.363,137.658,139.245,144.194,148.95499999999998,151.424,158.05,159.637,162.246,167.007,169.395,174.344,179.473,182.082,183.669,188.24200000000002,190.711,195.472,200.044,202.842,206.949,211.52200000000002,213.954,215.541,220.302,224.409,229.358,230.945,235.052,239.624,246.995,251.568,256.329,258.938,261.404,265.977,270.738,275.867,278.299,283.427,285.014,287.256,289.498,294.07,296.868,301.441,306.202,308.811,310.398,314.971,317.58,319.167,324.117,328.87800000000004,331.305,336.254,338.49600000000004,340.943,343.74,348.313,350.922,352.509,357.27,362.22,367.348,368.936,373.508,377.803,380.412,385.362,392.732,397.305,399.788,406.414,410.987,413.784,418.35699999999997,420.763,423.005,427.954,432.716,437.477,442.606,445.084,447.227,453.853,458.981,461.591,463.178,467.751,470.198,474.959,479.532,482.33,486.436,491.00899999999996,493.442,495.029,499.79,503.896,508.846,510.433,514.539,519.112,526.482,531.055,535.816,538.426,540.8470000000001,543.273,549.899" y="318.564" svg_rhmargin="555.871" style="fill:#171615;font-family:LFHPHG+AdvOT6e5d2ec0;font-size:8.97px;font-style:NORMAL;font-weight:normal;">overexpression with optic nerve involvement and differentiation of retinoblastoma were found (Optic nerve involvement, OR</text>
  <text x="557.009" y="318.564" svg_rhmargin="563.079" style="fill:#171615;font-family:LFHPHK+AdvOTb0c9bf5d;font-size:8.97px;font-style:NORMAL;font-weight:normal;">=</text>
  <text x="564.209,569.158,571.579,576.529,581.478" y="318.564" svg_rhmargin="583.899" style="fill:#171615;font-family:LFHPHG+AdvOT6e5d2ec0;font-size:8.97px;font-style:NORMAL;font-weight:normal;">6.90,</text>
  <text svg_rhmargin="119.776" x="91.275,96.224,101.174,109.10900000000001,111.571,117.821,119.776" y="329.562" style="fill:#171615;font-family:LFHPHG+AdvOT6e5d2ec0;font-size:8.97px;font-style:NORMAL;font-weight:normal;">95% CI </text>
  <text x="120.926" y="329.562" svg_rhmargin="126.996" style="fill:#171615;font-family:LFHPHK+AdvOTb0c9bf5d;font-size:8.97px;font-style:NORMAL;font-weight:normal;">=</text>
  <text x="128.126,133.075,135.496,140.445" y="329.562" svg_rhmargin="145.394" style="fill:#171615;font-family:LFHPHG+AdvOT6e5d2ec0;font-size:8.97px;font-style:NORMAL;font-weight:normal;">4.01</text>
  <text x="145.361" y="329.562" svg_rhmargin="149.844" style="fill:#171615;font-family:LFHPHL+AdvOT6e5d2ec0+20;font-size:8.97px;font-style:NORMAL;font-weight:normal;">–</text>
  <text x="149.839,154.789,159.738,162.159,167.108,172.058,174.47899999999998,176.995,183.065,184.652,186.894,189.135,193.708,196.505,201.078,205.839,208.449,210.036,214.608,217.218,218.805,223.754,228.515,230.93599999999998,233.402,240.028" y="329.562" svg_rhmargin="246.0" style="fill:#171615;font-family:LFHPHG+AdvOT6e5d2ec0;font-size:8.97px;font-style:NORMAL;font-weight:normal;">11.88; Differentiation, OR</text>
  <text x="247.181" y="329.562" svg_rhmargin="253.251" style="fill:#171615;font-family:LFHPHK+AdvOTb0c9bf5d;font-size:8.97px;font-style:NORMAL;font-weight:normal;">=</text>
  <text svg_rhmargin="305.048" x="254.325,259.274,261.695,266.644,271.594,274.015,276.491,281.44,286.39,294.325,296.844,303.093,305.048" y="329.562" style="fill:#171615;font-family:LFHPHG+AdvOT6e5d2ec0;font-size:8.97px;font-style:NORMAL;font-weight:normal;">0.18, 95% CI </text>
  <text x="306.142" y="329.562" svg_rhmargin="312.212" style="fill:#171615;font-family:LFHPHK+AdvOTb0c9bf5d;font-size:8.97px;font-style:NORMAL;font-weight:normal;">=</text>
  <text x="313.342,318.291,320.712,325.661" y="329.562" svg_rhmargin="330.61" style="fill:#171615;font-family:LFHPHG+AdvOT6e5d2ec0;font-size:8.97px;font-style:NORMAL;font-weight:normal;">0.12</text>
  <text x="330.633" y="329.562" svg_rhmargin="335.116" style="fill:#171615;font-family:LFHPHL+AdvOT6e5d2ec0+20;font-size:8.97px;font-style:NORMAL;font-weight:normal;">–</text>
  <text x="335.112,340.061,342.482,347.432,352.381,354.524,356.945,359.432,361.387,366.148,368.616,373.189,378.318,383.446,385.033,387.643,389.23,394.179,398.94,401.361,403.878,408.827,413.588,415.176,419.282,421.736,426.685,429.163,433.458,436.067,440.828,445.957,450.063,452.577,459.203,463.776,468.071,470.548,472.135,476.896,481.469,483.056,487.817,492.946,497.518,502.647,505.129,507.738,512.687,515.163,519.736,524.497,529.07,530.657,534.764,538.87,543.443,545.89,548.499,553.26,557.833,560.346,563.144,568.093,569.68,574.2529999999999,576.73,581.68" y="329.562" svg_rhmargin="583.922" style="fill:#171615;font-family:LFHPHG+AdvOT6e5d2ec0;font-size:8.97px;font-style:NORMAL;font-weight:normal;">0.28). In addition, only 1 study was included to analyze the role of</text>
  <text x="91.275,96.502,101.73,108.356,113.11699999999999,117.296,122.425,125.222,130.172,132.781,137.354,138.941,143.702,147.91,152.483,156.778,161.906,164.704,169.277,173.571,177.866,179.453,184.403,189.164,193.376,194.963,199.724,203.921,206.531,211.292,215.865,220.079,225.207,228.005,232.954,237.904,242.665,247.614,251.909,253.496,257.791,262.03,266.98,269.22200000000004,273.369,276.167,280.739,283.349,284.936,289.697,294.646,299.775,301.362,305.935,310.229,312.839,317.788,325.158,329.731,332.152,336.409,340.982,345.743,350.872,355.061,357.67,362.431,367.00399999999996,371.218,374.016,378.589,382.883,387.645,389.232,391.841,396.049,400.344,405.105,410.054,416.68,421.253,426.382,430.631,433.24,438.001,442.574,445.183,449.395,454.623,459.85,466.476,471.237,475.417,479.989,484.284,489.413,492.21,496.783,501.078,505.373,506.96,511.909,516.67,520.883,527.509,532.082,536.377,540.555,544.85,546.437,551.386,556.147" y="340.504" svg_rhmargin="557.734" style="fill:#171615;font-family:LFHPHG+AdvOT6e5d2ec0;font-size:8.97px;font-style:NORMAL;font-weight:normal;">VEGF protein expression in the prognosis of retinoblastoma, and the result showed that VEGF expression was signi</text>
  <text x="557.746" y="340.504" svg_rhmargin="561.664" style="fill:#171615;font-family:LFHPHJ+AdvOT6e5d2ec0+fb;font-size:8.97px;font-style:NORMAL;font-weight:normal;">ﬁ</text>
  <text x="561.714,566.287,570.86,575.621,578.23,579.817" y="340.504" svg_rhmargin="583.924" style="fill:#171615;font-family:LFHPHG+AdvOT6e5d2ec0;font-size:8.97px;font-style:NORMAL;font-weight:normal;">cantly</text>
  <text x="91.275,95.848,100.143,104.438,109.387,113.96,115.547,120.12,122.729,127.302,132.431,135.438,142.064,143.651,146.26,151.021,154.033,156.642,161.403,165.976,168.943,174.072,176.869,181.819,186.768,191.529,196.479,200.773,202.36,206.655,209.647,214.597,216.839,219.852,222.649,227.222,229.831,231.418,236.18,241.129,246.258,247.845,252.418,256.712,259.322,264.271,271.641,276.214,278.635,281.645,288.271,293.032,294.619,299.192,303.95300000000003,306.986,311.281,316.042,320.992,325.753,327.34,332.469,335.445,340.574,345.147,348.144,352.251,356.824,359.621" y="351.445" svg_rhmargin="361.208" style="fill:#171615;font-family:LFHPHG+AdvOT6e5d2ec0;font-size:8.97px;font-style:NORMAL;font-weight:normal;">associated with the prognosis of retinoblastoma, which should be veri</text>
  <text x="361.248" y="351.445" svg_rhmargin="365.166" style="fill:#171615;font-family:LFHPHJ+AdvOT6e5d2ec0+fb;font-size:8.97px;font-style:NORMAL;font-weight:normal;">ﬁ</text>
  <text x="365.16,369.733,374.862,377.859,379.446,384.20700000000005,387.213,389.822,394.584,399.157,402.123,404.365,409.126,411.735,416.496,419.294,423.86699999999996,426.897,431.192,433.801,438.562,443.691,445.278,449.851,454.146" y="351.445" svg_rhmargin="456.567" style="fill:#171615;font-family:LFHPHG+AdvOT6e5d2ec0;font-size:8.97px;font-style:NORMAL;font-weight:normal;">ed in the future studies.</text>
  <text svg_rhmargin="152.902" x="91.276,98.497,104.634,110.524,116.414,118.733,124.623,130.178,132.497,138.556,144.446,150.001,152.90200000000002" y="365.676" style="fill:#171615;font-family:LFHPHI+AdvOT91f5f621.B;font-size:7.97px;font-style:NORMAL;font-weight:normal;">Conclusions: </text>
  <text svg_rhmargin="169.126" x="154.942,161.568,166.329,169.126" y="365.676" style="fill:#171615;font-family:LFHPHG+AdvOT6e5d2ec0;font-size:8.97px;font-style:NORMAL;font-weight:normal;">Our </text>
  <text x="171.496" y="365.676" svg_rhmargin="175.414" style="fill:#171615;font-family:LFHPHJ+AdvOT6e5d2ec0+fb;font-size:8.97px;font-style:NORMAL;font-weight:normal;">ﬁ</text>
  <text x="175.408,180.169,185.298,186.885,191.646,196.596,200.891,203.301,208.429,213.002,220.372,225.322,230.083,234.378,236.987,239.784,244.357,246.966,251.539,256.668,259.141,261.75,266.511,271.084,273.693,276.092,281.319,286.546,293.173,297.934,300.299,305.248,309.355,313.928,316.725,321.298,325.593,330.722,333.519,338.092,342.387,346.682,348.269,353.218,357.97900000000004,360.448,367.074,371.646,375.94100000000003,378.306,382.601,384.188,389.137,393.898" y="365.676" svg_rhmargin="395.485" style="fill:#171615;font-family:LFHPHG+AdvOT6e5d2ec0;font-size:8.97px;font-style:NORMAL;font-weight:normal;">ndings demonstrated that VEGF overexpression was signi</text>
  <text x="395.49" y="365.676" svg_rhmargin="399.408" style="fill:#171615;font-family:LFHPHJ+AdvOT6e5d2ec0+fb;font-size:8.97px;font-style:NORMAL;font-weight:normal;">ﬁ</text>
  <text x="399.402,403.975,408.548,413.309,415.918,417.505,421.611,424.063,428.636,432.931,437.226,442.175,446.748,448.335,452.908,455.517,460.09,465.219,467.602,474.228,475.815,478.424,483.185,485.573,488.182,492.943,497.51599999999996,499.973,502.77,504.358,508.652,513.135,515.506,520.456,522.698,525.087,527.884,532.457,535.066,536.653,541.414,546.364,551.492,553.079,557.652,561.947,564.556,569.506,576.876,581.449" y="365.676" svg_rhmargin="583.87" style="fill:#171615;font-family:LFHPHG+AdvOT6e5d2ec0;font-size:8.97px;font-style:NORMAL;font-weight:normal;">cantly associated with the risk of retinoblastoma.</text>
  <text x="91.276,97.247,101.82,106.115,107.702,112.831,117.403,121.698,124.119,128.748,131.358,136.119,140.692,145.359,148.157,152.73,157.025,161.786,163.373,165.982,170.277,174.895,179.19,183.951,188.901,193.85,198.423,202.718,205.327,209.9,215.029,219.681,222.29,227.051,231.624,234.233,238.843,244.07,249.298,255.924,260.685,265.318,270.267,274.374,278.947,281.744,286.317,290.612,295.74,298.538,303.111,307.406,311.7,313.287,318.237,322.99800000000005,327.677,335.048,336.635,341.584,346.345,348.954,353.586,358.347,362.92,367.026,371.599,376.206,380.779,385.446,390.019,392.817,397.578,402.151,403.738,408.311,409.89799999999997,414.529,419.102,421.343,423.585,428.157,432.73,435.339,439.927,444.876,449.637,454.27,456.879,461.64,466.21299999999997,470.881,475.83,480.959,483.568,485.155,489.72799999999995,494.351,499.112,503.685,506.483,510.589,515.162,519.806,521.393,526.154,530.26,535.21,536.797,540.903,545.476,552.846,557.419,562.18,564.789,569.41,573.983,578.744" y="376.617" svg_rhmargin="583.873" style="fill:#171615;font-family:LFHPHG+AdvOT6e5d2ec0;font-size:8.97px;font-style:NORMAL;font-weight:normal;">Besides, the results suggested that VEGF overexpression might have a crucial effect on the optic nerve involvement and</text>
  <text x="91.276,96.404,97.991,100.233,102.474,107.047,109.845,114.418,119.179,121.788,123.375,127.948,130.557,132.144,137.093,141.85399999999998,144.848,149.798,152.04,155.053,157.85,162.423,165.032,166.619,171.381,176.33,181.459,183.046,187.618,191.913,194.523,199.472,206.842,211.415" y="387.559" svg_rhmargin="213.836" style="fill:#171615;font-family:LFHPHG+AdvOT6e5d2ec0;font-size:8.97px;font-style:NORMAL;font-weight:normal;">differentiation of retinoblastoma.</text>
  <text svg_rhmargin="159.934" x="91.276,97.915,104.052,110.189,114.254,120.131,125.439,127.758,133.648,137.131,139.451,145.588,151.478,157.033,159.934" y="402.81" style="fill:#171615;font-family:LFHPHI+AdvOT91f5f621.B;font-size:7.97px;font-style:NORMAL;font-weight:normal;">Abbreviations: </text>
  <text svg_rhmargin="177.532" x="165.033,171.283,173.237,177.53199999999998" y="402.81" style="fill:#171615;font-family:LFHPHG+AdvOT6e5d2ec0;font-size:8.97px;font-style:NORMAL;font-weight:normal;">CIs </text>
  <text svg_rhmargin="186.354" x="180.284,186.35399999999998" y="402.81" style="fill:#171615;font-family:LFHPHK+AdvOTb0c9bf5d;font-size:8.97px;font-style:NORMAL;font-weight:normal;">= </text>
  <text x="189.072,193.644,198.594" y="402.81" svg_rhmargin="203.355" style="fill:#171615;font-family:LFHPHG+AdvOT6e5d2ec0;font-size:8.97px;font-style:NORMAL;font-weight:normal;">con</text>
  <text x="203.359" y="402.81" svg_rhmargin="207.277" style="fill:#171615;font-family:LFHPHJ+AdvOT6e5d2ec0+fb;font-size:8.97px;font-style:NORMAL;font-weight:normal;">ﬁ</text>
  <text svg_rhmargin="289.981" x="207.327,212.456,217.029,221.79,226.363,230.936,233.689,235.276,240.037,242.646,247.219,250.017,254.123,258.696,260.283,264.578,266.99899999999997,269.744,275.994,282.243,288.026,289.981" y="402.81" style="fill:#171615;font-family:LFHPHG+AdvOT6e5d2ec0;font-size:8.97px;font-style:NORMAL;font-weight:normal;">dence intervals, CNKI </text>
  <text svg_rhmargin="298.833" x="292.763,298.83299999999997" y="402.81" style="fill:#171615;font-family:LFHPHK+AdvOTb0c9bf5d;font-size:8.97px;font-style:NORMAL;font-weight:normal;">= </text>
  <text svg_rhmargin="484.206" x="301.55,307.8,312.561,314.148,318.909,323.482,327.777,332.34999999999997,335.111,341.361,345.934,348.543,350.13,355.079,359.84,364.413,366.0,368.729,374.512,379.273,384.222,390.848,392.435,397.008,402.137,407.086,411.659,414.422,416.376,421.138,423.379,426.177,430.749,435.044,437.653,440.451,445.212,449.785,452.394,457.155,459.953,464.525,466.94599999999997,469.752,471.707,477.956,484.20500000000004" y="402.81" style="fill:#171615;font-family:LFHPHG+AdvOT6e5d2ec0;font-size:8.97px;font-style:NORMAL;font-weight:normal;">Chinese National Knowledge Infrastructure, IHC </text>
  <text svg_rhmargin="493.007" x="486.937,493.007" y="402.81" style="fill:#171615;font-family:LFHPHK+AdvOTb0c9bf5d;font-size:8.97px;font-style:NORMAL;font-weight:normal;">= </text>
  <text x="495.781,497.368,504.738,512.109,516.87,521.631,526.58,531.341,532.928,537.223,539.832,544.782,549.355,554.116,558.689,566.059,567.646,571.941,574.55,577.347,581.454" y="402.81" svg_rhmargin="583.875" style="fill:#171615;font-family:LFHPHG+AdvOT6e5d2ec0;font-size:8.97px;font-style:NORMAL;font-weight:normal;">immunohistochemistry,</text>
  <text svg_rhmargin="113.673" x="91.275,97.059,99.013,103.774,108.724,113.673" y="412.787" style="fill:#171615;font-family:LFHPHG+AdvOT6e5d2ec0;font-size:8.97px;font-style:NORMAL;font-weight:normal;">KIF14 </text>
  <text svg_rhmargin="122.574" x="116.504,122.57400000000001" y="412.787" style="fill:#171615;font-family:LFHPHK+AdvOTb0c9bf5d;font-size:8.97px;font-style:NORMAL;font-weight:normal;">= </text>
  <text svg_rhmargin="246.723" x="125.348,129.831,131.418,136.179,140.752,145.047,146.634,151.39499999999998,154.204,156.446,161.019,168.389,169.976,171.563,175.66899999999998,178.468,185.838,190.411,197.782,202.91,207.483,210.28,213.107,218.056,223.006,225.427,228.244,234.493,241.119,246.723" y="412.787" style="fill:#171615;font-family:LFHPHG+AdvOT6e5d2ec0;font-size:8.97px;font-style:NORMAL;font-weight:normal;">kinesin family member 14, NOS </text>
  <text svg_rhmargin="255.633" x="249.563,255.63299999999998" y="412.787" style="fill:#171615;font-family:LFHPHK+AdvOTb0c9bf5d;font-size:8.97px;font-style:NORMAL;font-weight:normal;">= </text>
  <text x="258.407,264.657,269.23,275.856,280.428,285.001,289.296,291.905,293.492" y="412.787" svg_rhmargin="298.065" style="fill:#171615;font-family:LFHPHG+AdvOT6e5d2ec0;font-size:8.97px;font-style:NORMAL;font-weight:normal;">Newcastle</text>
  <text x="298.092" y="412.787" svg_rhmargin="302.575" style="fill:#171615;font-family:LFHPHL+AdvOT6e5d2ec0+20;font-size:8.97px;font-style:NORMAL;font-weight:normal;">–</text>
  <text svg_rhmargin="374.737" x="302.571,309.197,311.806,314.415,318.988,325.614,330.18699999999995,333.014,337.309,341.882,346.454,348.042,352.614,355.03499999999997,357.844,364.47,370.442,374.737" y="412.787" style="fill:#171615;font-family:LFHPHG+AdvOT6e5d2ec0;font-size:8.97px;font-style:NORMAL;font-weight:normal;">Ottawa scale, ORs </text>
  <text svg_rhmargin="383.646" x="377.576,383.646" y="412.787" style="fill:#171615;font-family:LFHPHK+AdvOTb0c9bf5d;font-size:8.97px;font-style:NORMAL;font-weight:normal;">= </text>
  <text svg_rhmargin="447.008" x="386.42,391.369,396.498,401.627,405.922,408.757,411.554,416.127,418.736,420.323,425.273,429.568,431.989,434.778,441.404,447.008" y="412.787" style="fill:#171615;font-family:LFHPHG+AdvOT6e5d2ec0;font-size:8.97px;font-style:NORMAL;font-weight:normal;">odds ratios, OS </text>
  <text svg_rhmargin="455.873" x="449.803,455.873" y="412.787" style="fill:#171615;font-family:LFHPHK+AdvOTb0c9bf5d;font-size:8.97px;font-style:NORMAL;font-weight:normal;">= </text>
  <text svg_rhmargin="540.392" x="458.704,463.653,467.76,472.332,475.13,479.703,481.29,482.877,485.689,489.983,494.745,497.542,501.649,503.236,507.342,511.915,513.502,515.923,518.739,524.711,530.682,535.443,540.3919999999999" y="412.787" style="fill:#171615;font-family:LFHPHG+AdvOT6e5d2ec0;font-size:8.97px;font-style:NORMAL;font-weight:normal;">overall survival, RBL2 </text>
  <text svg_rhmargin="549.303" x="543.233,549.303" y="412.787" style="fill:#171615;font-family:LFHPHK+AdvOTb0c9bf5d;font-size:8.97px;font-style:NORMAL;font-weight:normal;">= </text>
  <text x="552.078,559.448,564.021,571.391,576.52,581.093" y="412.787" svg_rhmargin="583.89" style="fill:#171615;font-family:LFHPHG+AdvOT6e5d2ec0;font-size:8.97px;font-style:NORMAL;font-weight:normal;">member</text>
  <text svg_rhmargin="198.381" x="91.276,94.074,98.647,101.256,102.843,107.604,112.553,117.682,119.269,123.842,128.137,130.746,135.695,143.066,147.638,150.902,152.489,154.076,158.559,163.132,166.165,171.114,173.535,176.54,181.767,186.994,193.62,198.381" y="422.708" style="fill:#171615;font-family:LFHPHG+AdvOT6e5d2ec0;font-size:8.97px;font-style:NORMAL;font-weight:normal;">retinoblastoma-like 2, VEGF </text>
  <text svg_rhmargin="207.444" x="201.374,207.444" y="422.708" style="fill:#171615;font-family:LFHPHK+AdvOTb0c9bf5d;font-size:8.97px;font-style:NORMAL;font-weight:normal;">= </text>
  <text x="210.446,214.552,219.125,223.42,227.993,232.754,234.341,238.914,241.71099999999998,244.687,249.26,254.021,259.15,264.099,266.708,271.469,276.042,277.629,279.216,283.789,285.376,288.396,293.345,296.143,301.092,307.718,310.328,315.089,318.102,320.344,324.917,329.489,332.099,337.048,339.845" y="422.708" svg_rhmargin="342.266" style="fill:#171615;font-family:LFHPHG+AdvOT6e5d2ec0;font-size:8.97px;font-style:NORMAL;font-weight:normal;">vascular endothelial growth factor.</text>
  <text svg_rhmargin="142.36" x="91.276,98.162,104.14,109.28,117.665,123.702,127.767,133.904,139.459,142.36" y="437.676" style="fill:#171615;font-family:LFHPHI+AdvOT91f5f621.B;font-size:7.97px;font-style:NORMAL;font-weight:normal;">Keywords: </text>
  <text x="145.02,149.593,151.18,152.767,157.528,159.115,163.688,168.261,169.84799999999998,172.799,177.372,182.133,186.706,189.503,194.076,198.649,201.258,205.831,208.628,210.215,214.51,217.119,218.706,223.279,227.574,229.995,233.061,237.634,241.929,247.058,249.855,254.428,258.723,263.018,264.605,269.554,274.315,276.736,279.718,284.846,287.644,292.593,297.543,302.304,307.253,311.548,313.135,317.43,319.851,322.859,325.656,330.229,332.838,334.425,339.187,344.136,349.265,350.852,355.425,359.719,362.329,367.278,374.648,379.221,381.642,384.708,388.815,393.388,397.683,402.256,407.017,408.604,413.176,415.973,418.95,423.523,428.284,433.413,438.362,440.971,445.732,450.305,451.892,453.479,458.052,459.639,462.659,467.608,470.406,475.355,481.981,484.59,489.351,492.365,494.607,499.179,503.752,506.361,511.311" y="437.676" svg_rhmargin="514.108" style="fill:#171615;font-family:LFHPHG+AdvOT6e5d2ec0;font-size:8.97px;font-style:NORMAL;font-weight:normal;">clinical characteristics, expression, prognosis, retinoblastoma, vascular endothelial growth factor</text>
  <text x="85.039,90.955,93.908,98.646,101.599,107.514,111.158,115.095,120.812,126.727,132.643,138.16,141.804,144.558,150.275" y="489.266" svg_rhmargin="156.19" style="fill:#171615;font-family:LFHPHE+AdvOTfbba3ace.B;font-size:9.46px;font-style:NORMAL;font-weight:normal;">1. Introduction</text>
  <text x="85.039,91.477,95.395,98.283,100.704,105.653,110.602,115.552,117.973,122.456,125.908,128.795,133.744,141.115,145.598,151.311,153.732,157.184,162.877,165.764,170.713,174.631,180.338,187.708,192.657,196.109,198.996,204.658,208.576,213.526,220.896,228.266,233.216,238.16500000000002,243.888,246.309,251.258,254.146,257.598,262.081,267.03,270.948,275.898,278.319,282.802,286.254,291.962,295.88,300.363,305.313,309.231,313.149,316.601,322.292,327.242" y="505.197" svg_rhmargin="330.129" style="fill:#171615;font-family:LFHPIM+AdvOTbc475f09;font-size:8.97px;font-style:NORMAL;font-weight:normal;">Retinoblastoma is the most common intraocular cancer of</text>
  <text x="85.039,88.958,93.907,96.328,98.749,103.698,108.648,113.597,118.546,123.495,126.14,133.044,135.465,138.352,143.30100000000002,145.982,150.466,155.415,160.364,163.816,168.766,173.715,176.136,183.506,187.99,190.877,194.795,197.216,201.699,204.374,209.323,214.272,219.222,224.17100000000002,226.824,231.773,235.691,242.595,245.248,249.167,253.65,257.102,261.02,264.472,267.132,272.081,274.502,278.985,283.468,288.418,293.367,296.819,300.737,305.68600000000004,308.346,310.767,315.716,318.324,321.211,326.16" y="516.1379999999999" svg_rhmargin="330.078" style="fill:#171615;font-family:LFHPIM+AdvOTbc475f09;font-size:8.97px;font-style:NORMAL;font-weight:normal;">childhood with approximately 8000 new cases diagnosed in the</text>
  <text x="85.039,91.943,96.893,100.345,105.294,109.076,112.995,117.478,121.396,124.848,129.331,133.057,137.54,141.458,145.941,149.393" y="527.0799999999999" svg_rhmargin="151.814" style="fill:#171615;font-family:LFHPIM+AdvOTbc475f09;font-size:8.97px;font-style:NORMAL;font-weight:normal;">word every year.</text>
  <text svg_rhmargin="159.924" x="151.88,154.046,157.759,159.92399999999998" y="527.0799999999999" style="fill:#171615;font-family:LFHPIM+AdvOTbc475f09;font-size:5.98px;font-style:NORMAL;font-weight:normal;">[1] </text>
  <text x="163.672,170.11,174.028,176.916,179.337,184.286,189.235,194.185,196.606,201.089,204.541,207.428,212.377,219.748,224.231,228.073,230.494,233.946,237.711,241.629,244.05,248.533,251.985,255.437" y="527.0799999999999" svg_rhmargin="257.858" style="fill:#171615;font-family:LFHPIM+AdvOTbc475f09;font-size:8.97px;font-style:NORMAL;font-weight:normal;">Retinoblastoma is classi</text>
  <text x="257.84" y="527.0799999999999" svg_rhmargin="262.789" style="fill:#171615;font-family:LFHPIN+AdvOTbc475f09+fb;font-size:8.97px;font-style:NORMAL;font-weight:normal;">ﬁ</text>
  <text x="262.829,266.747,271.696,275.471,277.892,282.842,285.729,290.678,294.406,299.355,303.137,307.055,309.476,311.897,316.846,319.267,323.186,327.669" y="527.0799999999999" svg_rhmargin="330.09" style="fill:#171615;font-family:LFHPIM+AdvOTbc475f09;font-size:8.97px;font-style:NORMAL;font-weight:normal;">ed into 2 clinical</text>
  <text svg_rhmargin="330.127" x="85.04,87.927,92.876,96.328,103.699,107.151,109.572,111.458,116.407,118.828,121.249,125.732,128.62,132.538,135.99,140.473,142.894,144.792,147.679,152.629,159.999,164.948,168.4,170.303,177.207,182.156,184.577,188.496,193.44500000000002,195.36,199.843,203.762,207.68,212.629,217.579,222.528,225.415,228.867,230.735,233.622,238.572,242.024,243.888,248.371,253.32,258.27,261.722,266.671,271.62,274.041,281.412,285.895,288.782,292.7,295.121,299.604,301.542,306.491,311.441,320.407,322.291,327.24,330.127" y="488.529" style="fill:#171615;font-family:LFHPIM+AdvOTbc475f09;font-size:8.97px;font-style:NORMAL;font-weight:normal;">forms: bilateral tumor which accounts for approximately 75% of </text>
  <text x="345.091,347.978,352.928,356.846,361.248,366.198,370.681,373.568,375.989,379.907,384.857,387.744,391.196,395.66,402.564,404.985,407.872,412.821,417.26,420.712,424.63,427.517,429.938,434.888,439.837,444.787,447.207,451.691,455.143,458.03,462.979,470.349,474.832,479.28,483.763,488.712,493.661,498.102,503.051,508.001,510.422,512.843,517.326,520.213,524.131,527.583,532.066,534.4870000000001,538.919,541.807,546.756,554.126,559.076,562.528,566.981,573.885,578.835,581.256,585.174" y="488.529" svg_rhmargin="590.123" style="fill:#171615;font-family:LFHPIM+AdvOTbc475f09;font-size:8.97px;font-style:NORMAL;font-weight:normal;">the patients with retinoblastoma and unilateral tumor which</text>
  <text x="345.091,349.574,353.493,357.411,362.36,367.31,372.259,375.146,378.598,381.373,384.26,389.21,392.662,395.432,400.382,405.331,414.297,417.032,421.982,424.869,427.634,430.521,435.471,439.389,442.203,446.122,450.605,454.057,457.975,461.427" y="499.471" svg_rhmargin="463.848" style="fill:#171615;font-family:LFHPIM+AdvOTbc475f09;font-size:8.97px;font-style:NORMAL;font-weight:normal;">accounts for 25% of the cases.</text>
  <text svg_rhmargin="471.905" x="463.861,466.027,469.74,471.90500000000003" y="499.471" style="fill:#171615;font-family:LFHPIM+AdvOTbc475f09;font-size:5.98px;font-style:NORMAL;font-weight:normal;">[2] </text>
  <text x="474.69,480.572,485.521,489.439,492.207,495.659,500.142,507.513,512.462,515.349,520.298,527.668,530.473,535.423,538.31,541.075,543.496,547.414,552.364,557.313,562.263,566.181,571.13,574.582,577.003,581.486,584.274,586.695" y="499.471" svg_rhmargin="590.147" style="fill:#171615;font-family:LFHPIM+AdvOTbc475f09;font-size:8.97px;font-style:NORMAL;font-weight:normal;">The symptom of leukocoria is</text>
  <text x="345.089,347.976,352.925,357.875,362.824,367.773,371.678,374.099,379.048,383.016,390.387,395.336,398.788,402.706,406.657,409.544,414.493,418.977,423.926,427.86,432.809,437.292,439.713,442.6,446.568,451.517,454.404,458.359,461.246,466.196,470.11400000000003,474.063,477.981,482.931,485.352,487.772,492.722,496.174,500.092,505.041,508.985,515.889,518.31,521.197,526.146,530.075,533.527,537.445,540.332,542.753,547.702,552.652,557.601,560.022,564.505,567.957,570.844,575.794,583.164,587.647" y="510.412" svg_rhmargin="590.068" style="fill:#171615;font-family:LFHPIM+AdvOTbc475f09;font-size:8.97px;font-style:NORMAL;font-weight:normal;">found in more than half of the children with retinoblastoma,</text>
  <text x="345.089,351.993,356.942,359.363,361.784,365.702,369.693,373.145,376.033,379.485,383.968,388.917,391.338,394.79,402.16,407.11,410.562,414.536,416.957,420.409,424.4,428.884,433.833,438.782,441.669,446.619,450.537,453.989,457.961,461.88,466.829,474.199,481.57,486.519,491.468,495.434,498.886,501.307,505.79,510.73900000000003,514.709,519.192,524.142,529.091,533.077,535.498,538.95,542.942,546.394,550.312,552.733,557.216,560.104,564.022,568.971,572.932,579.836,582.257,585.144" y="521.354" svg_rhmargin="590.093" style="fill:#171615;font-family:LFHPIM+AdvOTbc475f09;font-size:8.97px;font-style:NORMAL;font-weight:normal;">while strabismus is another common sign and is related with</text>
  <text x="345.089,352.459,356.942,360.861,365.81,368.231,372.714,376.166,383.355,385.776,390.726,395.209,400.158,402.579,407.062,410.98,418.351,422.269,427.218,430.106" y="532.3530000000001" svg_rhmargin="432.527" style="fill:#171615;font-family:LFHPIM+AdvOTbc475f09;font-size:8.97px;font-style:NORMAL;font-weight:normal;">macular involvement.</text>
  <text svg_rhmargin="440.61" x="432.567,434.733,438.445,440.61" y="532.3530000000001" style="fill:#171615;font-family:LFHPIM+AdvOTbc475f09;font-size:5.98px;font-style:NORMAL;font-weight:normal;">[3] </text>
  <text x="447.76,450.648,455.59700000000004,462.784,467.268,472.217,477.166,479.587,482.474,484.895,489.845,494.794,497.215,504.453,508.936,513.885,518.368,522.852,527.801,531.719,535.637,540.5859999999999,547.708,550.129,555.078,557.965,561.417,565.901,570.85,574.768,579.718,582.138,586.622" y="532.3530000000001" svg_rhmargin="590.074" style="fill:#171615;font-family:LFHPIM+AdvOTbc475f09;font-size:8.97px;font-style:NORMAL;font-weight:normal;">In addition, advanced intraocular</text>
  <text x="345.089,347.976,352.926,360.296,365.245,368.697,372.149,376.553,383.923,388.406,392.889,397.302,402.251,406.169,410.567,415.517,420.0,422.421,427.37,430.257,435.207,437.628,442.088,447.037,451.986,455.904,460.342,463.229,468.178,472.587,476.039,479.958,483.876,488.825,493.775,498.724,503.207,506.659,511.142,515.559,520.042,522.463,526.946,531.896,535.814,540.763,548.134,552.617" y="543.294" svg_rhmargin="555.038" style="fill:#171615;font-family:LFHPIM+AdvOTbc475f09;font-size:8.97px;font-style:NORMAL;font-weight:normal;">tumors may be painful due to secondary glaucoma.</text>
  <text svg_rhmargin="563.124" x="555.08,557.246,560.959,563.1239999999999" y="543.2950000000001" style="fill:#171615;font-family:LFHPIM+AdvOTbc475f09;font-size:5.98px;font-style:NORMAL;font-weight:normal;">[3] </text>
  <text x="567.553,574.923,577.81,582.759,586.678" y="543.2950000000001" svg_rhmargin="590.13" style="fill:#171615;font-family:LFHPIM+AdvOTbc475f09;font-size:8.97px;font-style:NORMAL;font-weight:normal;">Other</text>
  <text x="345.089,348.541,353.024,360.394,365.344,368.231,373.18,380.551,384.003,386.077,390.56,394.012,397.93,400.023,404.506,406.927,410.379,415.32800000000003,417.427,420.314,425.264,430.213,435.163,440.112,442.258,444.678,449.627,451.725,454.612,459.562,463.48,465.557,470.507,472.928,477.411,481.894,486.843,491.793,495.245,497.666,501.118,503.201,508.15,511.037,513.178,516.63,520.549,523.436,525.857,530.806,535.756,540.705,543.126,547.609,551.061,553.948,558.898,566.268,570.751,572.873,576.325,581.275,585.193" y="554.236" svg_rhmargin="590.142" style="fill:#171615;font-family:LFHPIM+AdvOTbc475f09;font-size:8.97px;font-style:NORMAL;font-weight:normal;">symptoms are also found in the diagnosis of retinoblastoma such</text>
  <text svg_rhmargin="400.304" x="345.089,349.572,353.024,355.445,360.566,364.018,367.936,370.823,374.275,379.224,381.645,385.564,390.513,393.4,397.883,400.304" y="565.234" style="fill:#171615;font-family:LFHPIM+AdvOTbc475f09;font-size:8.97px;font-style:NORMAL;font-weight:normal;">as: retrolental </text>
  <text x="405.524" y="565.234" svg_rhmargin="410.473" style="fill:#171615;font-family:LFHPIN+AdvOTbc475f09+fb;font-size:8.97px;font-style:NORMAL;font-weight:normal;">ﬁ</text>
  <text x="410.512,415.462,418.914,423.863,428.813,433.296,436.748,441.697,444.118,448.601,452.053,454.474,458.957,461.378,466.523,471.473,475.391,478.843,482.295,484.716,488.168,491.055,494.973,499.923,502.81,508.021,512.97,517.453,522.403,526.321,529.773,534.723,537.143,541.627,545.079,547.966,550.387,554.305,559.496,564.446,567.898,570.319,577.689,582.172,585.624" y="565.234" svg_rhmargin="590.107" style="fill:#171615;font-family:LFHPIM+AdvOTbc475f09;font-size:8.97px;font-style:NORMAL;font-weight:normal;">brodysplasia, persistent hyperplastic primary</text>
  <text x="345.089,349.572,351.993,354.88,358.332,362.25,367.2,372.149,375.601,378.022,382.562,386.48,391.429,396.379,400.862,404.78,409.73,412.151,415.038,419.521,421.942,426.498,430.416,434.899,437.786,442.269,445.721,450.204,454.123,457.01,460.462,462.883,467.429,471.912,476.861,481.81,486.364,492.802,497.751,502.234,505.121,508.573,513.122,518.071,520.492,523.944,527.863,532.346,535.798,539.716" y="576.1759999999999" svg_rhmargin="542.137" style="fill:#171615;font-family:LFHPIM+AdvOTbc475f09;font-size:8.97px;font-style:NORMAL;font-weight:normal;">vitreous, congenital cataracts, and Coats disease.</text>
  <text svg_rhmargin="550.198" x="542.154,544.32,548.033,550.198" y="576.1759999999999" style="fill:#171615;font-family:LFHPIM+AdvOTbc475f09;font-size:5.98px;font-style:NORMAL;font-weight:normal;">[4] </text>
  <text x="554.74,561.178,565.096,569.014,572.933,577.882,580.769,583.19,587.673" y="576.1759999999999" svg_rhmargin="590.094" style="fill:#171615;font-family:LFHPIM+AdvOTbc475f09;font-size:8.97px;font-style:NORMAL;font-weight:normal;">Recently,</text>
  <text x="345.089,350.039,354.988,362.358,366.277,369.729,374.678,379.627,383.079,385.283,388.735,391.623,396.572,401.521,403.942,407.861,411.313,413.572,418.521,423.005,427.488,431.406,433.584,438.533,442.452,446.37,451.319,453.539,457.458,461.941,465.393,468.845,471.266,475.184,480.13300000000004,482.396,487.345,492.294,495.181,497.419,500.306,505.255,507.453,511.371,516.32,521.27,523.691,528.64,532.092,536.01,538.236,541.123,546.073,549.991,552.239,559.609,564.558,566.979,570.898,574.816,579.765,582.186,586.669" y="587.1179999999999" svg_rhmargin="590.121" style="fill:#171615;font-family:LFHPIM+AdvOTbc475f09;font-size:8.97px;font-style:NORMAL;font-weight:normal;">numerous studies have been carried out to explore the molecular</text>
  <text x="345.089,352.46,356.378,360.296,365.245,369.729,374.678,377.099,380.551,387.921,391.373,393.05,397.999,400.886,402.574,406.026,409.944,412.831,415.252,420.202,424.685,427.106,428.822,431.709,436.658,444.029,448.978,452.43,454.851,459.334,463.253,468.202,472.12,475.572,477.993,481.445,483.866,485.57,492.007,495.926,499.844,504.793,508.245,513.195,515.616,520.565,525.048,526.728,529.615,534.564,536.252,539.139,544.088,548.006,549.688,553.14,557.058,560.51,565.459,567.88,570.767,574.219,576.6400000000001,578.374,581.261,586.21" y="598.116" svg_rhmargin="590.128" style="fill:#171615;font-family:LFHPIM+AdvOTbc475f09;font-size:8.97px;font-style:NORMAL;font-weight:normal;">mechanisms of retinal tumorigenesis. According to the results, the</text>
  <text x="345.089,349.572,353.491,356.943,364.313,366.734,369.155,374.104,378.022,382.165,389.535,394.485,397.372,401.855,404.742,407.163,412.112,417.062,420.514,424.627,429.576,432.463,436.589,443.026,448.442,453.391,457.564,462.047,465.966,470.915,474.833,478.937,486.308,488.728,493.212,498.161,501.048,505.185,510.135,514.053,518.168,521.055,526.004,529.922,534.098,541.468,545.951,548.372,553.3209999999999,557.455,561.373,565.857,570.806,574.258,578.176,582.286,587.236" y="609.058" svg_rhmargin="590.123" style="fill:#171615;font-family:LFHPIM+AdvOTbc475f09;font-size:8.97px;font-style:NORMAL;font-weight:normal;">germline mutations of RB1 gene might be the main cause of</text>
  <text x="345.089,350.039,352.46,354.88,359.364,362.251,366.169,369.621,374.104,376.525,380.124,383.576,387.494,390.382,392.802,397.752,402.701,407.651,410.072,414.555,418.007,420.894,425.843,433.214,437.697,440.118,443.788,448.271,453.22,458.16900000000004,461.815,464.702,469.652,473.57,477.179,484.549,489.499,492.386,496.869,499.756,502.177,507.126,512.076,515.528,519.187,524.136,527.0229999999999,530.639,537.077,542.492,547.4409999999999,551.048,555.531,559.449,564.399,568.317,571.911,578.815,582.733,586.185" y="619.999" svg_rhmargin="590.103" style="fill:#171615;font-family:LFHPIM+AdvOTbc475f09;font-size:8.97px;font-style:NORMAL;font-weight:normal;">bilateral retinoblastoma, and the mutations of RB1 gene were</text>
  <text x="345.089,347.51,352.46,357.409,361.327,364.779,367.2,370.087,374.006,378.955,381.201,384.088,387.54,392.49,399.86,402.177,407.126,411.609,415.061,418.98,423.929,426.816,430.268,432.506,434.927,439.87600000000003,442.144,447.093,452.043,461.009,463.29,468.24,471.127,473.382,476.269,481.218,485.136,487.384,491.303,495.786,499.238,503.156,506.608,509.029,511.308,517.746,522.696,527.645,531.097,536.046,540.996,543.417,550.787,555.27,558.157,562.076,564.496,568.9789999999999,571.288,576.237,581.186" y="630.941" svg_rhmargin="590.152" style="fill:#171615;font-family:LFHPIM+AdvOTbc475f09;font-size:8.97px;font-style:NORMAL;font-weight:normal;">inherited from parents in 25% of the cases. Approximately 75%</text>
  <text x="345.089,349.007,353.957,356.378,358.799,363.748,367.2,371.118,376.067,380.068,386.972,389.393,392.28,397.229,401.214,404.666,408.584,411.471,413.892,418.842,423.791,428.74,431.161,435.644,439.096,441.984,446.933,454.303,458.786,462.836,467.786,472.735,476.187,479.639,483.558,487.01,490.462,494.38,499.329,503.37,506.258,511.207,515.125,519.13,526.501,531.45,534.337,538.82,541.708,544.129,549.078,554.027,557.479,561.478,566.428,569.3149999999999,573.327,579.765,585.181" y="641.939" svg_rhmargin="590.13" style="fill:#171615;font-family:LFHPIM+AdvOTbc475f09;font-size:8.97px;font-style:NORMAL;font-weight:normal;">children with retinoblastoma possessed the mutations of RB1</text>
  <text x="345.089,349.572,353.491,358.44,362.358,364.874,369.357,372.809,375.306,380.255,384.173,391.077,393.618,398.101,402.019,405.471,412.841,415.262,417.683,422.632,426.55,429.106,436.476,441.426,444.313,448.796,451.683,454.104,459.054,464.003,466.579,471.062,476.012,480.961,483.473,488.423,490.844,495.793,498.327,503.276,508.226,511.113,513.633,518.583,523.066,527.549,531.467,533.986,538.935,543.885,547.337,549.758,552.645,555.066,559.549,563.467,566.073,568.96,573.443,580.813,583.234,585.655" y="652.88" svg_rhmargin="590.138" style="fill:#171615;font-family:LFHPIM+AdvOTbc475f09;font-size:8.97px;font-style:NORMAL;font-weight:normal;">gene as new germline mutation and did not have positive family</text>
  <text x="345.089,350.039,352.46,355.912,358.799,363.748,367.2,371.683" y="663.822" svg_rhmargin="374.104" style="fill:#171615;font-family:LFHPIM+AdvOTbc475f09;font-size:8.97px;font-style:NORMAL;font-weight:normal;">history.</text>
  <text svg_rhmargin="382.16" x="374.116,376.282,379.995,382.16" y="663.8240000000001" style="fill:#171615;font-family:LFHPIM+AdvOTbc475f09;font-size:5.98px;font-style:NORMAL;font-weight:normal;">[5] </text>
  <text x="385.852,388.739,391.626,395.263,400.212,404.695,408.147,411.816,416.766,420.684,424.602,429.551,433.189,436.642,440.56,445.509,450.459,453.911,456.798,460.716,465.665,469.359,472.246,477.195,481.678,484.565,488.237,491.124,496.074,499.992,503.657,508.141,512.059,515.511,522.881,525.302,527.723,532.672,536.59,540.279,547.65,552.599,555.486,559.969,562.857,565.277,570.227,575.176,578.628,582.287,587.237" y="663.8240000000001" svg_rhmargin="590.124" style="fill:#171615;font-family:LFHPIM+AdvOTbc475f09;font-size:8.97px;font-style:NORMAL;font-weight:normal;">It has been reported that the germline mutations of</text>
  <text x="345.089,351.527,356.943,361.892,366.009,370.492,374.41,379.359,383.277,387.438,389.859,393.777,398.26,403.21,407.128,412.077,416.237,419.124,424.07300000000004,428.199,431.086,436.035,439.95300000000003,444.129,451.5,456.449,459.901,462.788,466.919,471.868,474.289,476.71,481.193,484.08,487.999,491.451,495.934,498.355,502.521,505.408,510.357,517.727,522.677,526.129,529.581,532.0020000000001,536.195,539.082,544.031,548.157,551.044,555.994,559.912,564.088,570.992,575.941,580.89,583.311,587.23" y="674.822" svg_rhmargin="590.117" style="fill:#171615;font-family:LFHPIM+AdvOTbc475f09;font-size:8.97px;font-style:NORMAL;font-weight:normal;">RB1 gene leaded to the most bilateral tumors. In the whole-</text>
  <text x="345.089,349.572,353.491,358.44,363.39,370.76,374.678,381.542,384.994,388.912,393.862,398.811,402.729,407.679,411.597,414.018,418.967,423.45,430.296,435.245,438.132,445.036,449.985,454.468,457.92,461.839,466.788,469.675" y="685.763" svg_rhmargin="473.127" style="fill:#171615;font-family:LFHPIM+AdvOTbc475f09;font-size:8.97px;font-style:NORMAL;font-weight:normal;">genome sequencing of parents</text>
  <text svg_rhmargin="475.58" x="473.159,475.58" y="685.763" style="fill:#171615;font-family:LFHPIO+AdvOTbc475f09+20;font-size:8.97px;font-style:NORMAL;font-weight:normal;">’ </text>
  <text x="482.4,487.349,489.77,494.72,499.669,504.618,511.54,515.458,519.376,521.797,524.218,527.67,530.091,536.938,543.375,548.791,553.74,560.635,564.087,569.036,576.406,580.89,583.777,586.198" y="685.763" svg_rhmargin="590.116" style="fill:#171615;font-family:LFHPIM+AdvOTbc475f09;font-size:8.97px;font-style:NORMAL;font-weight:normal;">blood cells, RB1 somatic</text>
  <text x="345.089,352.46,357.409,360.296,364.779,367.666,370.087,375.037,379.986,383.438,385.736,392.64,396.559,400.011,403.92900000000003,406.258,411.208,415.126,418.013,421.931,425.85,428.737,432.655,437.604,439.933,442.354,447.303,449.571,452.458,457.407,461.325,463.63,471.0,475.484,477.904,482.854,486.306,488.727,491.614,496.097,498.438,503.388,506.275,508.586,512.038,515.956,518.844,521.265,526.214,531.163,536.113,538.534,543.017,546.469,549.356,554.305,561.676,566.159,568.451,572.37,576.853,580.305,584.223,587.675" y="696.705" svg_rhmargin="590.096" style="fill:#171615;font-family:LFHPIM+AdvOTbc475f09;font-size:8.97px;font-style:NORMAL;font-weight:normal;">mutations were detected in the majority of retinoblastoma cases,</text>
  <text x="345.089,349.572,354.522,359.471,361.416,366.365,371.315,373.736,376.157,380.64,383.527,387.445,390.897,395.38,397.801,399.739,402.626,407.575,414.946,419.895,423.347,425.364,429.847,433.765,437.683,442.633,447.582,452.532,455.419,459.337,464.286,466.238,469.126,474.075,477.527,479.504,484.453,489.403,498.369,500.31,504.229,508.712,512.164,516.082,519.534" y="707.703" svg_rhmargin="521.955" style="fill:#171615;font-family:LFHPIM+AdvOTbc475f09;font-size:8.97px;font-style:NORMAL;font-weight:normal;">and unilateral tumor accounted for 75% cases.</text>
  <text svg_rhmargin="530.015" x="521.972,524.138,527.85,530.015" y="707.704" style="fill:#171615;font-family:LFHPIM+AdvOTbc475f09;font-size:5.98px;font-style:NORMAL;font-weight:normal;">[5] </text>
  <text x="532.006,539.475,544.425,551.329,555.247,559.73,563.648,567.1,569.5210000000001,571.463,578.834,583.783,587.235" y="707.704" svg_rhmargin="590.122" style="fill:#171615;font-family:LFHPIM+AdvOTbc475f09;font-size:8.97px;font-style:NORMAL;font-weight:normal;">However, most</text>
  <text x="345.089,350.039,352.926,354.84,358.292,362.211,365.098,367.519,372.468,377.417,382.367,384.788,389.271,392.723,395.61,400.559,407.93,412.413,414.422,416.843,421.79200000000003,423.719,428.669,433.152,436.604,440.522,445.472,448.359,451.811,453.765,460.669,464.588,468.04,471.958,473.891,477.809,482.293,485.745,488.166,492.649,494.584,498.036,500.923,505.406,509.889,513.807,516.2280000000001,518.224,522.707,527.657,532.606,534.551,537.438,542.387,546.305,548.214,553.163,556.615,561.565,566.048,569.5,573.418,576.87,580.322,582.285,587.234" y="718.645" svg_rhmargin="590.121" style="fill:#171615;font-family:LFHPIM+AdvOTbc475f09;font-size:8.97px;font-style:NORMAL;font-weight:normal;">of retinoblastoma in parents were early stage, and the progress of</text>
  <path d="M85.039 169.405 L566.248 169.405 C579.416 169.363 590.182 180.153 590.115 193.329 L590.115 446.407 L85.039 446.407 M85.039 169.405 L566.248 169.405 L566.248 169.632 L85.265 169.632 M566.249 169.405 L569.991 169.688 C580.168 171.28 588.287 179.398 589.833 189.588 L590.117 193.329 L589.89 193.329 L589.606 189.588 C587.996 179.388 580.067 171.634 569.934 169.915 L566.249 169.632 M590.116 193.328 L590.116 446.405 L589.889 446.178 L589.889 193.328 M590.116 446.406 L85.039 446.406 L85.266 446.179 L589.889 446.179 M85.039 446.406 L85.039 169.405 L85.265 169.63 L85.265 446.179 M85.039 555.539 L330.122 555.539 L330.122 719.212 L85.039 719.212 " style="fill:none;stroke:#000000;stroke-width:1.0;"/>
  <path d=" M 85.03900146484375 244.7429962158203 L 330.06597900390625 244.7429962158203 L 330.06597900390625 244.23300170898438 L 85.03900146484375 244.23300170898438 L 84.81200408935547 244.3459930419922 L 84.81200408935547 244.62998962402344" style="fill:none;stroke:#000000;stroke-width:1.0;"/>
  <text x="85.039,89.029,93.019,94.254,96.284,100.134,102.311,104.194,106.585,111.084,114.934,118.637,120.986,124.976,126.211" y="563.761" svg_rhmargin="128.094" style="fill:#171615;font-family:LFHPIP+AdvOT1deab444.I;font-size:6.97px;font-style:NORMAL;font-weight:normal;">Editor: Kou Yi.</text>
  <text x="85.039,88.89,92.593,96.15,98.477,102.034,105.738,107.768,111.472,115.322,117.584,120.925,123.253,126.957,130.514,133.709,137.266,139.582,143.285,147.135,149.503,151.247,154.95,158.654,162.644,163.879,167.583,171.433,173.769,177.327,181.03,185.019,187.376,190.934,194.784" y="575.723" svg_rhmargin="198.487" style="fill:#171615;font-family:LFHPIP+AdvOT1deab444.I;font-size:6.97px;font-style:NORMAL;font-weight:normal;">The authors have no funding and con</text>
  <text x="198.539" y="575.723" svg_rhmargin="201.587" style="fill:#171615;font-family:LFHPJA+AdvOT1deab444.I+fb;font-size:6.97px;font-style:NORMAL;font-weight:normal;">ﬂ</text>
  <text x="201.544,202.778,206.335,208.364,211.705,214.072,217.922,219.666,222.009,223.243,226.946,228.976,232.532,234.708,238.265,241.605,243.634,245.988,248.018,251.868,254.208,258.197,259.432,262.772,266.397,267.631,271.48,274.821,278.378" y="575.723" svg_rhmargin="280.261" style="fill:#171615;font-family:LFHPIP+AdvOT1deab444.I;font-size:6.97px;font-style:NORMAL;font-weight:normal;">icts of interest to disclose.</text>
  <text x="85.039,89.761,93.319,97.308,100.866,103.042,105.072,110.893,114.451,118.154,120.18299999999999,122.516,126.366,128.11,130.453,135.608,139.598,143.301,145.331,149.035,152.593,153.828,159.561,163.411,164.646,168.496,172.347,175.642,177.525,179.837,183.541,184.776,188.333,192.183,195.741,199.445,203.002,206.706,210.55599999999998,212.949,217.308,220.865,224.716,228.705,229.94" y="587.685" svg_rhmargin="233.497" style="fill:#171615;font-family:LFHPIP+AdvOT1deab444.I;font-size:6.97px;font-style:NORMAL;font-weight:normal;">Department of Ophthalmology, Liaocheng People</text>
  <text x="233.519" y="587.685" svg_rhmargin="235.402" style="fill:#171615;font-family:LFHPJB+AdvOT1deab444.I+20;font-size:6.97px;font-style:NORMAL;font-weight:normal;">’</text>
  <text x="235.39,238.731,241.059,245.92,249.77,253.111,257.101,258.408,260.438,263.995,265.23,267.113,269.464,273.168,274.403,277.96,281.811,285.368,289.072,292.629,296.333,300.18300000000005,302.576,307.437,308.672,310.702,313.897" y="587.685" svg_rhmargin="315.78" style="fill:#171615;font-family:LFHPIP+AdvOT1deab444.I;font-size:6.97px;font-style:NORMAL;font-weight:normal;">s Hospital, Liaocheng City,</text>
  <text x="85.04,89.399,93.103,96.661,100.364,104.354,108.204,111.908,115.758,118.151,122.51,124.687,128.537,131.732,132.967,136.671,140.228,143.785,145.668,148.031,152.892,156.596,157.831,161.535,165.092" y="596.642" svg_rhmargin="166.975" style="fill:#171615;font-family:LFHPIP+AdvOT1deab444.I;font-size:6.97px;font-style:NORMAL;font-weight:normal;">Shandong Province, China.</text>
  <text svg_rhmargin="87.759" x="85.039,87.759" y="608.605" style="fill:#171615;font-family:LFHPHH+AdvOTb0c9bf5d+22;font-size:4.65px;font-style:NORMAL;font-weight:normal;">∗ </text>
  <text x="88.951,93.813,97.512,99.689,101.865,105.28,108.621,112.611,116.336,120.04,124.029,127.391,131.095,134.653,138.05,139.93300000000002,142.019,147.173,150.75,154.307,157.893,161.744,164.938,166.001,169.705,173.555,175.583,179.572,183.276,186.638,190.342,194.192,196.07500000000002,198.034,202.756,206.198,210.188,213.745,215.78,217.81,223.433,226.991,230.577,232.606,234.659,238.509,240.253,242.256,247.411,251.271,254.974,257.004,260.569,264.126,265.361,270.944,274.795,276.03,279.733,283.583,286.649,288.532,290.561,294.265,295.381,298.938,302.788,306.209,309.913,313.353,317.057" y="608.605" svg_rhmargin="320.907" style="fill:#171615;font-family:LFHPIP+AdvOT1deab444.I;font-size:6.97px;font-style:NORMAL;font-weight:normal;">Correspondence: Guangying Zheng, Department of Ophthalmology, Liaocheng</text>
  <text x="85.04,89.399,92.956,96.662,100.652,101.765" y="617.563" svg_rhmargin="105.322" style="fill:#171615;font-family:LFHPIP+AdvOT1deab444.I;font-size:6.97px;font-style:NORMAL;font-weight:normal;">People</text>
  <text x="105.279" y="617.563" svg_rhmargin="107.162" style="fill:#171615;font-family:LFHPJB+AdvOT1deab444.I+20;font-size:6.97px;font-style:NORMAL;font-weight:normal;">’</text>
  <text x="107.093,110.434,112.479,117.34,121.19,124.385,128.375,129.488,131.518,135.075,136.178,138.061,140.09,144.952,148.802,150.685,152.62,156.47,160.32,162.315,167.037,170.762,174.466,178.189,181.747,185.45,189.008,192.534,196.384,198.43,204.749,208.182,211.523,213.552,215.552,220.051,223.773,227.33,231.32,233.203,235.169,239.891,243.616,247.32,251.17,254.615,258.319,261.759,265.463,269.186,270.93,274.633,276.613,281.335,282.453,285.794,287.824,289.881,291.116,294.53,296.56" y="617.563" svg_rhmargin="298.443" style="fill:#171615;font-family:LFHPIP+AdvOT1deab444.I;font-size:6.97px;font-style:NORMAL;font-weight:normal;">s Hospital, No. 67 Dongchang West Road, Dongchangfu District,</text>
  <text x="85.04,88.743,89.858,93.416,97.266,100.687,104.391,107.831,111.535,115.38499999999999,117.356,122.218,123.453,125.351,128.545,130.428,132.381,136.74,140.444,143.89,147.594,151.584,155.286,158.99,162.84,164.811,169.17,171.218,175.068,178.263,179.325,183.029,186.587,189.984,191.86700000000002,193.953,198.814,202.4,203.635,207.219,210.77599999999998,212.832,214.576,217.992,220.531,226.264,229.671,230.906,232.141,234.024,235.965,238.866,242.57,246.0,249.704,253.427,257.276,260.853,264.411,268.114,271.796,274.991,276.226,279.791,283.641,286.707,289.902,295.419,298.614,299.848,303.433,306.99,308.874,312.277,316.128,321.861,323.447" y="626.577" svg_rhmargin="325.33" style="fill:#171615;font-family:LFHPIP+AdvOT1deab444.I;font-size:6.97px;font-style:NORMAL;font-weight:normal;">Liaocheng City, Shandong Province, China (e-mail: zhengguangyingyk@sina.com).</text>
  <text svg_rhmargin="113.93" x="85.04,89.901,93.751,97.741,100.936,103.112,104.347,108.197,111.901,113.92999999999999" y="638.483" style="fill:#171615;font-family:LFHPIP+AdvOT1deab444.I;font-size:6.97px;font-style:NORMAL;font-weight:normal;">Copyright </text>
  <text svg_rhmargin="121.564" x="116.334,121.565" y="638.483" style="fill:#171615;font-family:LFHPHK+AdvOTb0c9bf5d;font-size:6.97px;font-style:NORMAL;font-weight:normal;">© </text>
  <text x="123.874,127.724,131.574,135.425,139.275,141.619,143.65,147.353,150.91,153.242,157.601,161.305,163.335,167.039,170.889,173.143,174.887,178.228,179.973,181.85600000000002,184.199,188.559,192.262,196.252,197.487,198.722,202.063,205.767,209.325,213.314,215.667,219.657,222.851,225.192,231.511,235.361,236.596,238.626,242.258,244.435,247.776,250.082,254.581,255.816,259.52,264.674,268.232,270.408,272.818,277.679,281.236,284.794,286.029,288.059,291.763,293.64599999999996,296.008,297.528,301.232,304.789" y="638.483" svg_rhmargin="306.672" style="fill:#171615;font-family:LFHPIP+AdvOT1deab444.I;font-size:6.97px;font-style:NORMAL;font-weight:normal;">2018 the Author(s). Published by Wolters Kluwer Health, Inc.</text>
  <text x="85.039,88.888,92.592,93.826,97.16699999999999,99.495,100.729,104.07,106.412,109.969,113.672,115.993,119.904,123.893,127.45,131.153,133.453,137.01,140.566,144.123,147.68,151.02,154.36100000000002,156.752,160.309,162.485,164.514,165.749,169.305,170.54,174.09699999999998,176.48,180.469,181.703,185.044,187.073,189.249,190.483,194.472,198.176,200.205,203.762,207.751,210.153,213.856,217.559,221.548,225.105,227.28099999999998,229.654,231.683,235.386,238.94299999999998,241.276,243.305,246.862,249.038,254.77,258.111,260.493,264.344,266.088,268.431,270.46,274.164,277.721,280.052,284.913,287.089,290.645,294.202,296.231,297.466,300.66" y="647.4970000000001" svg_rhmargin="304.217" style="fill:#171615;font-family:LFHPIP+AdvOT1deab444.I;font-size:6.97px;font-style:NORMAL;font-weight:normal;">This is an open access article distributed under the terms of the Creative</text>
  <text x="85.039,89.9,93.751,99.484,105.217,109.067,112.771,116.112,118.489,122.849,124.879,126.909,129.085,130.32,134.31,138.014,140.044,141.279,145.129,148.938,151.476,156.338,160.188,163.891,166.229,171.091,174.941,180.674,186.407,189.965,192.141,195.698,196.934,200.588,201.823,204.362,209.223,213.073,215.443,220.165,223.722,225.899,227.134,230.328,233.886,235.916,237.151,240.345,243.903,247.244,249.632,253.336,254.571,258.129,261.686,265.39,268.731,272.288,274.636,278.487,280.37,284.22,286.543,288.286,293.148,298.009,302.654,306.726,309.265,314.126,318.988" y="656.454" svg_rhmargin="321.526" style="fill:#171615;font-family:LFHPIP+AdvOT1deab444.I;font-size:6.97px;font-style:NORMAL;font-weight:normal;">Commons Attribution-Non Commercial-No Derivatives License 4.0 (CCBY-NC-</text>
  <text x="85.039,89.9,94.621,96.364,98.247,100.628,105.782,109.485,113.041,115.217,118.774,121.093,122.327,124.356,126.705,127.94,131.281,133.622,137.611,141.168,143.343,149.076,150.31,153.651,156.991,158.225,162.306,163.54,167.09699999999998,169.393,171.422,175.272,177.613,181.602,185.451,190.605,194.308,195.542,199.392,202.948,206.937,209.358,212.915,216.618,220.607,222.964,226.304,230.007,233.564,235.74,239.297,241.615,243.644,247.347,250.904,253.293,258.447,262.296,264.472,267.666,270.016,274.006,276.182,280.031,283.225,284.46,288.449,292.005,295.99399999999997,298.361,299.596,301.625,303.974,305.208" y="665.4110000000001" svg_rhmargin="308.548" style="fill:#171615;font-family:LFHPIP+AdvOT1deab444.I;font-size:6.97px;font-style:NORMAL;font-weight:normal;">ND), where it is permissible to download and share the work provided it is</text>
  <text x="85.039,89.029,91.205,95.055,99.045,102.602,104.779,106.014,109.208,111.574,115.132,116.367,118.397,121.954,125.944,127.827,130.228,134.079,137.782,141.339,143.666,148.82,152.67,154.847,158.041,160.391,163.948,167.506,171.209,174.913,178.763,180.792,183.183,187.173,190.73,193.048,196.606,200.31,203.934,207.637,211.487,215.045,219.034,221.339,222.573,226.276,228.652,232.21,235.914,239.10799999999998,241.465,246.62,250.177,253.37099999999998,255.696,259.546,261.722,264.087,267.791,271.132,274.689,278.678,280.983,284.54,288.39,294.193,299.926,303.483,305.66,309.217,310.452,314.01,315.245,316.48" y="674.3679999999999" svg_rhmargin="319.674" style="fill:#171615;font-family:LFHPIP+AdvOT1deab444.I;font-size:6.97px;font-style:NORMAL;font-weight:normal;">properly cited. The work cannot be changed in any way or used commercially</text>
  <text x="85.039,90.193,91.428,93.458,97.162,101.012,104.716,106.74499999999999,109.135,113.125,116.683,118.859,124.592,125.827,129.168,132.51,133.745,137.595,141.298,143.665,145.409,147.586,151.436,157.169,159.54,161.569,165.273,168.82999999999998,171.162,172.397,176.247,179.951,182.127,185.831,189.389,190.624" y="683.325" svg_rhmargin="192.507" style="fill:#171615;font-family:LFHPIP+AdvOT1deab444.I;font-size:6.97px;font-style:NORMAL;font-weight:normal;">without permission from the journal.</text>
  <text x="85.039,90.919,94.476,98.466,99.701,103.258,104.493,108.197,111.754,114.125,115.869,119.719,123.569,127.419,131.27,133.014,135.386,139.236,143.087,144.97,148.821,152.671,154.415,157.972,161.823,165.673,169.523,173.373,177.223" y="695.288" svg_rhmargin="178.966" style="fill:#171615;font-family:LFHPIP+AdvOT1deab444.I;font-size:6.97px;font-style:NORMAL;font-weight:normal;">Medicine (2018) 97:51(e13753)</text>
  <text x="85.039,89.538,93.095,96.652,100.21,101.445,104.713,108.271,112.26,114.143,116.45,120.3,124.14999999999999,126.485,130.844,134.548,138.398,142.102,145.443,147.472,149.844,153.694,157.544,161.394,165.244,167.589,169.835,172.181,176.541,180.098,183.655,187.213,191.202,193.233,196.79,200.87,202.75300000000001,205.066,208.916,212.766,215.101,219.962,223.813,227.007,230.565,236.298,240.288,243.845,246.021,248.439,252.289,256.139,259.989" y="707.25" svg_rhmargin="263.839" style="fill:#171615;font-family:LFHPIP+AdvOT1deab444.I;font-size:6.97px;font-style:NORMAL;font-weight:normal;">Received: 13 August 2018 / Accepted: 27 November 2018</text>
  <text x="85.039,88.743,90.773,92.803,96.793,98.676,100.922,103.169,107.158,110.353,112.237,116.338,120.188,121.423,123.307,127.157,129.334,133.184,135.43,139.28,143.131,145.014,148.865,152.796,156.647,160.497,162.743,168.623,173.345,175.228,179.078,182.929,186.779,190.629,194.479,198.33,202.18,206.03,209.88,213.731,217.658,221.57,225.42,229.27,233.121" y="719.212" svg_rhmargin="236.971" style="fill:#171615;font-family:LFHPIP+AdvOT1deab444.I;font-size:6.97px;font-style:NORMAL;font-weight:normal;">http://dx.doi.org/10.1097/MD.0000000000013753</text>
  <path d=" M 85.03900146484375 759.968017578125 L 590.1729736328125 759.968017578125 L 590.1729736328125 760.9884033203125 L 85.03900146484375 760.9884033203125 Z " style="fill:none;stroke:#000000;stroke-width:1.0;"/>
  <path d=" M 85.03900146484375 761.0460205078125 L 89.00749969482422 761.0460205078125 L 89.00749969482422 775.9559936523438 L 85.03900146484375 775.9559936523438 Z " style="fill:none;stroke:#000000;stroke-width:1.0;"/>
  <text svg_rhmargin="304.422" x="91.389,98.751,104.769,111.195,115.239,122.393,133.171,140.115,144.16,146.651,153.39600000000002,156.756,164.845,171.998,178.299,180.789,187.943,197.697,201.032,207.976,214.721,221.874,225.24,235.919,243.073,247.117,254.153,258.925,266.805,273.55,280.572,283.062,289.08,295.506,297.996,304.42199999999997" y="31.899" style="fill:#73828a;font-family:LFHPJC+AdvOTbed05995;font-size:9.96px;font-style:NORMAL;font-weight:normal;">Systematic Review and Meta-Analysis </text>
  <text x="437.272,469.714,489.657,511.847,519.123,537.736,545.012,564.991" y="31.899" svg_rhmargin="587.342" style="fill:#de000f;font-family:LFHPLC+Avenir-Roman;font-size:40.2px;font-style:NORMAL;font-weight:normal;">Medicine</text>
  <text x="584.326" y="14.110000000000014" svg_rhmargin="590.154" style="fill:#979699;font-family:LFHPLD+AkzidenzGroteskBE-Md;font-size:7.0px;font-style:NORMAL;font-weight:bold;">®</text>
  <path d="M85.039 555.257 L330.065 555.257 L330.065 555.766 L85.039 555.766 L84.812 555.654 L84.812 555.37 M443.709 35.651 L582.507 35.651 M584.0 35.651 L584.0 35.651 M440.722 35.651 L440.722 35.651 " style="fill:none;stroke:#979699;stroke-width:1.5;"/>
  <rect style="stroke:blue;stroke-width:0.3;" x="550.368" y="44.108" height="15.384" width="39.988" title="1"/>
  <text x="550.368" y="44.108" class="image" id="image.1.1" width="39" height="15">image.1.1.550_590.44_59</text>
  <text x="555.412,563.566,570.568,577.237" y="54.660999999999945" svg_rhmargin="585.238" style="fill:#ffffff;font-family:LFHPOD+HelveticaNeue-MediumExt;font-size:9.0px;font-style:NORMAL;font-weight:normal;">OPEN</text>
  <text x="335.395" y="739.622" svg_rhmargin="339.795" style="fill:#171615;font-family:LFHPOE+AdvOTf94803d4;font-size:7.97px;font-style:NORMAL;font-weight:normal;">1</text>
 </g>
</svg>
