<?xml version="1.0" encoding="UTF-8"?>
<svg height="870.031005859375" width="672.0029907226562" xmlns="http://www.w3.org/2000/svg">
 <g style="fill:none;">
  <path d=" M 0.05999799817800522 826.072021484375 L 22.619997024536133 826.072021484375 L 22.619997024536133 826.35546875 L 0.05999799817800522 826.35546875 Z " style="fill:none;stroke:#000000;stroke-width:1.0;"/>
  <path d=" M 33.67599868774414 837.4110107421875 L 33.959449768066406 837.4110107421875 L 33.959449768066406 860.031005859375 L 33.67599868774414 860.031005859375 Z " style="fill:none;stroke:#000000;stroke-width:1.0;"/>
  <path d=" M 627.9869995117188 837.4110107421875 L 628.2703857421875 837.4110107421875 L 628.2703857421875 860.031005859375 L 627.9869995117188 860.031005859375 Z " style="fill:none;stroke:#000000;stroke-width:1.0;"/>
  <path d=" M 639.3259887695312 826.072021484375 L 662.0029907226562 826.072021484375 L 662.0029907226562 826.35546875 L 639.3259887695312 826.35546875 Z " style="fill:none;stroke:#000000;stroke-width:1.0;"/>
  <path d=" M 639.3259887695312 33.731998443603516 L 662.0029907226562 33.731998443603516 L 662.0029907226562 34.015480041503906 L 639.3259887695312 34.015480041503906 Z " style="fill:none;stroke:#000000;stroke-width:1.0;"/>
  <path d=" M 627.9869995117188 0.0 L 628.2703857421875 0.0 L 628.2703857421875 22.677000045776367 L 627.9869995117188 22.677000045776367 Z " style="fill:none;stroke:#000000;stroke-width:1.0;"/>
  <path d=" M 33.67599868774414 0.0 L 33.959449768066406 0.0 L 33.959449768066406 22.677000045776367 L 33.67599868774414 22.677000045776367 Z " style="fill:none;stroke:#000000;stroke-width:1.0;"/>
  <path d=" M 0.05999799817800522 33.731998443603516 L 22.619997024536133 33.731998443603516 L 22.619997024536133 34.015480041503906 L 0.05999799817800522 34.015480041503906 Z " style="fill:none;stroke:#000000;stroke-width:1.0;"/>
  <text x="85.039,88.491,90.912,95.395,100.345" y="39.74800000000005" svg_rhmargin="102.766" style="fill:#171615;font-family:LFHPIM+AdvOTbc475f09;font-size:8.97px;font-style:NORMAL;font-weight:normal;">signi</text>
  <text x="102.785" y="39.74800000000005" svg_rhmargin="107.734" style="fill:#171615;font-family:LFHPIN+AdvOTbc475f09+fb;font-size:8.97px;font-style:NORMAL;font-weight:normal;">ﬁ</text>
  <text x="107.717,111.635,116.118,121.068,123.955,126.376,129.713,136.151,138.572,140.993,144.34,147.792,150.679,155.162,158.049,160.47,163.922,166.809,169.23,173.149,177.632,180.053,183.4,188.349,192.832,195.719,200.202,203.525,210.43,214.348,217.8,221.71800000000002,225.011,228.93,233.413,235.834,239.752,244.701,247.122,251.605,254.493,258.411,263.36,266.736,271.686,275.138,277.558,282.508,286.991,290.32,294.803,297.69,302.174,305.061,309.544,312.827,317.776,322.725,325.146" y="39.74800000000005" svg_rhmargin="330.095" style="fill:#171615;font-family:LFHPIM+AdvOTbc475f09;font-size:8.97px;font-style:NORMAL;font-weight:normal;">cant. All statistical data were calculated using Stata 14.0</text>
  <text x="85.039,88.491,93.441,96.328,99.215,106.119,110.602,114.054,117.97200000000001,120.982,123.869,128.352,131.239,135.722,138.609,143.092,146.096,152.534,157.484,160.936,165.88500000000002,168.886,174.302,179.251,181.672,184.703,191.14,196.09,198.511,200.932,204.85,209.333,213.251,216.223,220.706,223.593,228.076,230.963,233.384,238.334,243.283,245.70399999999998,248.707,254.589,261.493,264.38" y="50.690000000000055" svg_rhmargin="266.801" style="fill:#171615;font-family:LFHPIM+AdvOTbc475f09;font-size:8.97px;font-style:NORMAL;font-weight:normal;">software (Stata Corp LP, College Station, TX).</text>
  <text x="85.039,90.955,93.908,98.646,105.441,111.158,116.382,122.298,125.052,128.696" y="77.33600000000001" svg_rhmargin="133.92" style="fill:#171615;font-family:LFHPHE+AdvOTfbba3ace.B;font-size:9.46px;font-style:NORMAL;font-weight:normal;">3. Results</text>
  <text x="85.039,89.989,92.41,97.359,99.78,104.258,110.041,112.928,118.057,123.473,127.956,130.959,135.443,140.392,142.535,147.484,152.434,155.321,157.464,162.691,167.82,170.87,175.82,180.948,186.363,189.352,197.287,202.236,205.123,210.252,215.479,220.895,226.122,228.265,233.493,238.72,240.863,245.812,250.762,252.905,255.907,261.322,266.451,271.4,273.543,275.686,278.573" y="95.30700000000002" svg_rhmargin="283.056" style="fill:#171615;font-family:LFIABF+AdvOT01861455.I;font-size:8.97px;font-style:NORMAL;font-weight:normal;">3.1. Study selection and methodological quality</text>
  <text x="85.039,89.989,94.472,98.955,103.904,108.388,112.871,120.806,125.755,130.884" y="107.21299999999997" svg_rhmargin="133.771" style="fill:#171615;font-family:LFIABF+AdvOT01861455.I;font-size:8.97px;font-style:NORMAL;font-weight:normal;">assessment</text>
  <text x="85.039,91.477,93.033,95.811,100.76,103.464,107.947,110.36800000000001,111.855,116.673,119.56,121.096,126.045,130.846,135.79500000000002,137.309,141.675,145.127,147.855,150.275,154.034,156.455,160.214,163.666,165.203,172.107,175.861,179.313,183.231,184.648,187.069,191.848,195.766,200.578,203.356" y="123.20100000000002" svg_rhmargin="205.777" style="fill:#171615;font-family:LFHPIM+AdvOTbc475f09;font-size:8.97px;font-style:NORMAL;font-weight:normal;">A total of 456 articles were identi</text>
  <text x="205.683" y="123.20100000000002" svg_rhmargin="210.632" style="fill:#171615;font-family:LFHPIN+AdvOTbc475f09+fb;font-size:8.97px;font-style:NORMAL;font-weight:normal;">ﬁ</text>
  <text x="210.559,214.477,219.42600000000002,220.877,223.655,227.107,231.875,239.245,240.776,243.663,248.486,252.404,253.929,257.727,260.148,263.906,267.825,270.54,273.992,278.76,283.709,285.96,289.878,291.402,296.352,300.7,303.477,307.961,312.718,317.201,320.485,324.403,327.685" y="123.20100000000002" svg_rhmargin="330.106" style="fill:#171615;font-family:LFHPIM+AdvOTbc475f09;font-size:8.97px;font-style:NORMAL;font-weight:normal;">ed from the electronic databases.</text>
  <text x="85.04,91.478,95.245,99.043,103.992,107.263,112.213,114.463,119.413,123.896,126.765,129.543,134.49200000000002,137.423,140.201,145.15,149.068,151.88,156.829,163.104,165.992,170.304,179.271,185.70899999999997,188.559,192.925,197.874,200.125,205.074,208.855,211.276,213.504,218.453,222.178,224.599,227.564,232.383,237.332,242.281,245.138,249.504,252.956,255.683,258.104,261.863,264.284,268.042,271.49399999999997,274.392,281.296,285.051,288.503,292.421,295.255,298.707,302.455,309.825,314.134,316.555,321.334,325.252" y="134.14200000000005" svg_rhmargin="330.201" style="fill:#171615;font-family:LFHPIM+AdvOTbc475f09;font-size:8.97px;font-style:NORMAL;font-weight:normal;">According to the PRISMA guideline, 110 articles were remained</text>
  <text x="85.04,89.406,92.293,95.019,98.937,102.389,104.43,107.208,112.157,116.075,118.093,121.545,125.293,132.549,137.499,141.79,146.273,148.694,150.691,155.64,158.527,160.555,165.505,170.25,175.199,177.279,180.731,184.479,189.429,193.21,197.575,200.463,204.209,209.15800000000002,211.238,215.721,219.005,221.892,224.164,227.962,230.383,234.142,237.594,240.015,242.022,247.904,252.681,256.599,261.355,263.776,265.89,268.311,271.616,275.068,278.759,281.18,284.939,289.422,293.726,298.675,301.562,303.59,307.042,310.79,315.61,320.559,323.886,326.664" y="145.08399999999995" svg_rhmargin="330.116" style="fill:#171615;font-family:LFHPIM+AdvOTbc475f09;font-size:8.97px;font-style:NORMAL;font-weight:normal;">after the removal of 346 repeated articles. Then, irrelevant reports</text>
  <text x="85.04,91.944,95.699,99.151,103.069,106.867,110.665,113.086,115.371,122.627,125.048,129.827,134.31,137.027,140.945,145.894,149.726,154.092,156.512,160.995,164.806,168.258,172.006,176.372,181.321,183.572,188.521,193.004,196.781,199.668,201.94,204.718,207.139,211.05700000000002,214.866,219.349,224.107,229.056,232.951,237.317,242.266,245.594,248.371,251.823,256.138,260.056,262.943,266.74,271.689,274.576,278.362,282.728,286.18,288.907,291.328,295.087,297.508,301.266,304.718" y="156.02499999999998" svg_rhmargin="307.139" style="fill:#171615;font-family:LFHPIM+AdvOTbc475f09;font-size:8.97px;font-style:NORMAL;font-weight:normal;">were eliminated via reading title and abstract of articles.</text>
  <text svg_rhmargin="318.455" x="306.992,309.033,312.746,316.29,318.45500000000004" y="156.02499999999998" style="fill:#171615;font-family:LFHPIM+AdvOTbc475f09;font-size:5.98px;font-style:NORMAL;font-weight:normal;">[30] </text>
  <text x="322.356,325.243" y="156.02499999999998" svg_rhmargin="330.192" style="fill:#171615;font-family:LFHPIM+AdvOTbc475f09;font-size:8.97px;font-style:NORMAL;font-weight:normal;">In</text>
  <text x="85.038,89.404,94.354,99.155,101.576,104.314,106.735,111.514,116.333,118.754,122.625,127.108,129.825,132.712,136.458,139.91,143.829,147.281,151.029,155.394,160.344,162.594,167.544,172.02700000000002,175.803,178.581,183.531,185.781,188.202,190.94,193.827,197.574,202.523,205.41,209.196,214.145,217.032,220.818,225.301,228.584,231.362,233.783,237.542,239.963,243.721,247.173,249.594,253.416,258.234,263.183,267.079,271.897,276.38,281.194,284.992,288.444,291.896,295.707,302.611,306.365,309.817,313.735,317.477,322.427,327.228" y="167.02300000000002" svg_rhmargin="330.115" style="fill:#171615;font-family:LFHPIM+AdvOTbc475f09;font-size:8.97px;font-style:NORMAL;font-weight:normal;">addition, after reading full-text of articles, 16 papers were not</text>
  <text x="85.038,88.49,92.238,94.659,98.985,101.762,105.681,110.63,116.049,118.827,123.776,129.258,132.036,136.986,140.904,146.322,150.688,154.14,157.434,162.253,166.171,168.432,172.915,175.632,178.053,182.832,187.781,193.263,198.213,201.1,206.473,212.91,218.151,225.055,230.00400000000002,235.385,239.304,244.116,248.934,252.386,256.134,259.586,262.881,265.301,270.081,275.03000000000003,280.512,287.416,289.64,292.527,297.476,302.849,306.301,308.575,312.027,316.976,322.351,327.301" y="177.96500000000003" svg_rhmargin="330.188" style="fill:#171615;font-family:LFHPIM+AdvOTbc475f09;font-size:8.97px;font-style:NORMAL;font-weight:normal;">related to the association of VEGF expression with risk of</text>
  <text x="85.038,88.49,92.238,95.016,97.437,102.216,107.165,111.967,114.388,118.713,122.165,124.836,129.786,137.025,141.391,143.81199999999998,145.983,150.466,155.28,160.229,162.367,167.316,169.511,173.994,177.278,180.165,182.437,186.235,188.656,192.414,195.86599999999999,198.084,202.902,205.323,210.27200000000002,212.426,217.245,222.194,225.081,227.223,232.041,236.524,240.828,244.746,246.951,250.749,255.699,260.5,265.449,269.741,274.69,276.884,281.834,286.125,289.012,293.495,295.592,298.48,303.246,306.698,308.915,316.172,320.09,322.805,327.288" y="188.90700000000004" svg_rhmargin="330.175" style="fill:#171615;font-family:LFHPIM+AdvOTbc475f09;font-size:8.97px;font-style:NORMAL;font-weight:normal;">retinoblastoma, and 4 articles did not have enough data for meta-</text>
  <text x="85.038,89.404,94.354,98.701,101.122,105.391,108.843,111.117,114.569,116.99000000000001,118.884,124.765,129.542,133.46,136.742,140.66,143.375,148.324,151.652,155.45,157.87099999999998,159.872,164.821,169.77,171.664,176.147,179.43,182.317,184.59,188.508,190.769,194.567,198.019,200.066,206.97,210.724,214.177,218.095,219.965,223.417,227.165,234.535,239.354,243.72,247.638,252.394,254.815,256.816,261.299,266.113,271.062,273.03,277.979,282.928,284.821,289.304,292.588,295.475,297.747,301.665,303.927,307.725,311.177,313.224,320.128,322.351,325.238" y="199.90499999999997" svg_rhmargin="330.187" style="fill:#171615;font-family:LFHPIM+AdvOTbc475f09;font-size:8.97px;font-style:NORMAL;font-weight:normal;">analysis. Therefore, 20 articles were removed, and 17 articles with</text>
  <text svg_rhmargin="303.531" x="85.038,89.988,94.733,99.682,103.123,106.922,111.871,116.672,119.45,122.902,127.671,130.091,133.543,136.911,141.277,146.226,151.175,154.486,159.435,164.237,169.186,172.571,177.52,181.812,184.699,186.971,190.889,195.645,198.532,201.984,205.339,212.243,214.467,217.354,222.30300000000003,225.635,229.087,232.835,235.723,237.995,242.944,247.689,252.638,254.889,259.372,262.655,265.543,270.309,277.679,282.162,285.503,292.407,296.161,299.613,303.531" y="210.846" style="fill:#171615;font-family:LFHPIM+AdvOTbc475f09;font-size:8.97px;font-style:NORMAL;font-weight:normal;">296 controls and 470 patients with retinoblastoma were </text>
  <text x="306.822" y="210.846" svg_rhmargin="311.771" style="fill:#171615;font-family:LFHPIN+AdvOTbc475f09+fb;font-size:8.97px;font-style:NORMAL;font-weight:normal;">ﬁ</text>
  <text x="311.698,316.647,320.938,323.359,325.644" y="210.846" svg_rhmargin="330.127" style="fill:#171615;font-family:LFHPIM+AdvOTbc475f09;font-size:8.97px;font-style:NORMAL;font-weight:normal;">nally</text>
  <text x="85.039,87.459,92.238,96.157,98.418,103.367,108.112,112.031,116.843" y="221.788" svg_rhmargin="119.264" style="fill:#171615;font-family:LFHPIM+AdvOTbc475f09;font-size:8.97px;font-style:NORMAL;font-weight:normal;">included.</text>
  <text x="119.169,121.334,124.895" y="217.82100000000003" svg_rhmargin="128.607" style="fill:#171615;font-family:LFHPIM+AdvOTbc475f09;font-size:5.98px;font-style:NORMAL;font-weight:normal;">[31</text>
  <text x="128.523" y="217.82100000000003" svg_rhmargin="131.885" style="fill:#171615;font-family:LFHPIO+AdvOTbc475f09+20;font-size:5.98px;font-style:NORMAL;font-weight:normal;">–</text>
  <text svg_rhmargin="141.234" x="131.811,135.524,139.069,141.23399999999998" y="221.789" style="fill:#171615;font-family:LFHPIM+AdvOTbc475f09;font-size:5.98px;font-style:NORMAL;font-weight:normal;">47] </text>
  <text x="142.753,145.53,150.479,151.993,154.881,159.647,163.565,165.09,168.542,172.289,179.66,183.968,186.389,191.168,193.589,198.368,202.851,204.377,209.327,214.276,215.716,220.199,223.483,226.26,228.681,232.44,234.861,238.619,242.072,244.493,245.932,250.882,255.83100000000002,257.271,261.637,265.089,267.816,270.237,273.996,276.417,280.176,283.628,285.164,292.068,295.823,299.275,303.193,304.61,308.062,311.81,314.23,318.556,321.334,325.252" y="221.789" svg_rhmargin="330.201" style="fill:#171615;font-family:LFHPIM+AdvOTbc475f09;font-size:8.97px;font-style:NORMAL;font-weight:normal;">In the remaining 17 articles, 14 articles were related</text>
  <text svg_rhmargin="330.201" x="85.039,91.943,94.224,97.001,101.95,105.846,108.623,113.573,117.491,121.322,124.774,127.048,130.5,135.449,139.237,144.186,147.073,150.859,154.311,158.059,160.946,163.218,168.168,172.969,177.788,180.209,184.534,187.986,190.713,195.663,202.846,207.329,209.75,213.56,218.044,222.801,227.75,231.646,236.595,240.49,243.942,247.69,252.639,257.441,260.893,263.564,267.016,270.934,277.838,281.592,285.044,288.962,292.761,297.244,302.001,306.951,311.752,314.639,318.556,321.334,326.283,330.201" y="39.74800000000005" style="fill:#171615;font-family:LFHPIM+AdvOTbc475f09;font-size:8.97px;font-style:NORMAL;font-weight:normal;">with the risk of retinoblastoma, and 3 reports were about the </text>
  <text x="345.091,349.456,352.908,356.203,361.021,364.939,367.201,371.684,374.401,376.822,381.601,386.55,391.125,396.074,399.799,402.686,409.436,413.355,417.09,422.039,426.615,433.053,438.294,445.198,450.147,454.621,458.54,463.295,468.245,471.516,475.434,478.716,482.168,484.441,489.391,494.34000000000003,498.785,503.268,508.082,513.031,517.549,521.468,523.729,526.15,530.929,533.35,537.109,541.474,543.8950000000001,548.504,551.282,555.2,559.502,562.389,567.156,570.608,574.356,577.808,582.406,587.225" y="39.74800000000005" svg_rhmargin="590.112" style="fill:#171615;font-family:LFHPIM+AdvOTbc475f09;font-size:8.97px;font-style:NORMAL;font-weight:normal;">association between VEGF expression and clinical features of</text>
  <text x="345.091,348.543,352.291,355.068,357.489,362.268,367.218,371.963,374.384,378.709,382.161,384.889,389.838,397.021,401.504,403.925,409.89,416.328,420.038,423.957,428.769,432.221,436.989,439.41,444.189,448.672,454.677,457.455,462.404,468.453,471.23,476.18,480.098,486.028,490.977,495.722,500.205,502.468,504.889,507.627,512.11,518.115,522.034,525.315,527.736,530.474,534.273,537.725,539.998,544.364,546.7850000000001,552.811,557.76,563.753,568.236,571.519,574.407,576.679,580.597,582.858,586.776" y="50.690000000000055" svg_rhmargin="590.228" style="fill:#171615;font-family:LFHPIM+AdvOTbc475f09;font-size:8.97px;font-style:NORMAL;font-weight:normal;">retinoblastoma. According to the quality criteria, 7 articles</text>
  <text svg_rhmargin="569.827" x="345.091,349.456,353.375,358.13,363.08,365.33,368.782,372.53,377.479,381.204,386.153,389.822,393.274,397.022,401.971,405.242,409.16,412.442,414.863,418.565,425.469,430.244,432.665,434.949,438.867,442.546,447.495,451.22,455.586,459.038,461.766,464.187,467.945,470.366,474.125,477.577,481.268,486.218,490.963,493.85,498.163,500.583,505.363,509.281,514.23,517.835,522.784,526.509,529.961,533.709,538.658,541.929,545.727,549.179,551.6,555.251,561.133,565.909,569.827" y="61.63099999999997" style="fill:#171615;font-family:LFHPIM+AdvOTbc475f09;font-size:8.97px;font-style:NORMAL;font-weight:normal;">acquired 8 scores, while 4 articles obtained 6 scores. The </text>
  <text x="573.507" y="61.63099999999997" svg_rhmargin="578.456" style="fill:#171615;font-family:LFHPIN+AdvOTbc475f09+fb;font-size:8.97px;font-style:NORMAL;font-weight:normal;">ﬂ</text>
  <text x="578.383,583.332" y="61.63099999999997" svg_rhmargin="590.236" style="fill:#171615;font-family:LFHPIM+AdvOTbc475f09;font-size:8.97px;font-style:NORMAL;font-weight:normal;">ow</text>
  <text x="345.091,348.889,353.838,358.13,361.582,364.469,365.669,370.619,373.50600000000003,374.683,377.104,379.389,382.166,386.085,389.366,393.849,396.566,401.516,404.787,408.705,412.157,413.347,416.799,420.547,424.912,428.364,432.112,437.062,439.312,444.262,448.745,449.971,456.875,461.139,464.591,465.901,470.719,474.171,477.919,481.371,485.119,490.069,492.773,496.691,501.64,502.865,505.285,510.23400000000004,511.426,516.244,518.665,522.99,527.94,531.211,535.129,536.426,541.246,543.667,544.931,550.813,555.589,559.5070000000001,560.805,565.754,569.479,572.366,576.679,579.1,581.384,585.182" y="72.62900000000002" svg_rhmargin="590.131" style="fill:#171615;font-family:LFHPIM+AdvOTbc475f09;font-size:8.97px;font-style:NORMAL;font-weight:normal;">chart of literatures searching was presented in Figure 1. The detailed</text>
  <text x="345.091,347.512,352.291,355.068,360.018,363.289,370.659,374.967,377.854,380.127,385.076,390.02500000000003,392.202,397.022,399.909,402.181,404.602,409.381,413.179,415.6,420.379,425.328,429.11,434.059,436.309,439.762,442.489,447.308,452.258,454.508,458.427,461.879,464.032,467.951,472.763,477.582,480.003,484.952,487.164,491.983,495.901,498.163,501.05,505.816,510.766,515.567,520.516,522.767,525.188,530.137,532.291,538.173,542.496,547.314,549.735,553.494,556.946,559.22,564.169,566.419,570.785,575.735,580.684,582.861,587.81" y="83.57100000000003" svg_rhmargin="590.231" style="fill:#171615;font-family:LFHPIM+AdvOTbc475f09;font-size:8.97px;font-style:NORMAL;font-weight:normal;">information of included studies could be found in Tables 1 and 2.</text>
  <text x="345.091,350.04,352.461,357.41,359.831,364.309,372.244,377.194,380.081,385.03,388.482,393.432,398.56,403.51,405.653,410.136,414.619,416.762" y="106.24900000000002" svg_rhmargin="421.245" style="fill:#171615;font-family:LFIABF+AdvOT01861455.I;font-size:8.97px;font-style:NORMAL;font-weight:normal;">3.2. Meta-analysis</text>
  <text x="345.091,352.461,357.41,361.304,366.254,370.172,373.059,376.978,380.43,385.379,389.862,393.78,398.73,402.648,405.069,407.956,412.439,416.408,420.891,428.261,433.211,438.16,442.64300000000003,446.568,448.989,453.938,457.856,460.277,465.227,470.176,474.094,479.043,483.02,486.472,489.359,494.309,499.258,501.679,505.597,509.049,513.01,519.914,524.397,527.849,531.775,536.724,540.642,543.529,547.448,551.366,554.253,558.171,563.12,567.093,569.514,574.463,578.374,581.261,586.211" y="122.17899999999997" svg_rhmargin="590.129" style="fill:#171615;font-family:LFHPIM+AdvOTbc475f09;font-size:8.97px;font-style:NORMAL;font-weight:normal;">No heterogeneity among included studies was detected in the</text>
  <text x="345.091,349.574,354.523,359.006,361.427,365.91,369.362,371.783,375.235,378.935,383.884,386.771,390.501,393.388,398.337,402.255,406.034,410.517,413.969,417.421,422.37,426.289,428.71,433.193,436.08,438.501,443.45,448.399,452.123,457.073,460.991,463.878,470.782,474.7,478.619,483.56800000000004,487.329,493.766,499.182,506.086,511.035,514.767,519.717,524.2,528.118,531.57,535.488,540.438,545.387,548.839,552.757,556.209,559.661,562.082,567.032,571.981,575.767,580.25,585.199" y="133.12099999999998" svg_rhmargin="590.148" style="fill:#171615;font-family:LFHPIM+AdvOTbc475f09;font-size:8.97px;font-style:NORMAL;font-weight:normal;">analysis of the association between VEGF overexpression and</text>
  <text x="345.091,348.543,350.964,354.416,359.365,361.191,366.141,369.028,370.829,374.281,378.2,381.087,383.508,388.457,393.407,398.356,400.777,405.26,408.712,411.599,416.549,423.919,428.402,430.241" y="144.11900000000003" svg_rhmargin="433.128" style="fill:#171615;font-family:LFHPIM+AdvOTbc475f09;font-size:8.97px;font-style:NORMAL;font-weight:normal;">risk of retinoblastoma (</text>
  <text x="433.135" y="144.11900000000003" svg_rhmargin="436.587" style="fill:#171615;font-family:LFIABG+AdvOT638a931c.I;font-size:8.97px;font-style:NORMAL;font-weight:normal;">I</text>
  <text svg_rhmargin="440.304" x="436.592,440.304" y="144.12" style="fill:#171615;font-family:LFHPIM+AdvOTbc475f09;font-size:5.98px;font-style:NORMAL;font-weight:normal;">2 </text>
  <text x="441.468" y="144.12" svg_rhmargin="447.538" style="fill:#171615;font-family:LFHPHK+AdvOTb0c9bf5d;font-size:8.97px;font-style:NORMAL;font-weight:normal;">=</text>
  <text svg_rhmargin="472.375" x="448.668,453.617,456.038,460.987,469.954,472.375" y="144.12" style="fill:#171615;font-family:LFHPIM+AdvOTbc475f09;font-size:8.97px;font-style:NORMAL;font-weight:normal;">0.0%, </text>
  <text svg_rhmargin="479.595" x="474.179,479.594" y="144.12" style="fill:#171615;font-family:LFIABG+AdvOT638a931c.I;font-size:8.97px;font-style:NORMAL;font-weight:normal;">P </text>
  <text x="480.699" y="144.12" svg_rhmargin="486.769" style="fill:#171615;font-family:LFHPHK+AdvOTb0c9bf5d;font-size:8.97px;font-style:NORMAL;font-weight:normal;">=</text>
  <text x="487.899,490.32,495.269,500.218,503.106,505.527,507.344,513.782,519.197,526.101,531.05,532.911,537.861,542.344,546.262,549.714,553.633,558.582,563.531,566.983,570.902,574.354,577.806,580.227,585.176" y="144.12" svg_rhmargin="590.125" style="fill:#171615;font-family:LFHPIM+AdvOTbc475f09;font-size:8.97px;font-style:NORMAL;font-weight:normal;">.93). VEGF overexpression</text>
  <text x="345.089,351.993,356.476,359.928,362.493,365.945,368.366,372.849,377.799" y="155.06100000000004" svg_rhmargin="380.22" style="fill:#171615;font-family:LFHPIM+AdvOTbc475f09;font-size:8.97px;font-style:NORMAL;font-weight:normal;">was signi</text>
  <text x="380.239" y="155.06100000000004" svg_rhmargin="385.188" style="fill:#171615;font-family:LFHPIN+AdvOTbc475f09+fb;font-size:8.97px;font-style:NORMAL;font-weight:normal;">ﬁ</text>
  <text x="385.227,389.146,393.629,398.578,401.465,403.886,408.369,410.965,415.448,418.9,422.352,427.302,431.22,433.641,438.124,441.011,444.93,449.879,452.52,459.424,461.844,464.732,469.68100000000004,472.305,475.192,480.141,484.059,486.704,490.156,495.106,498.558,502.476,506.394,511.344,514.231,516.652,521.601,524.022,526.443,528.864,531.751,536.2339999999999,538.86,543.809,546.6959999999999,549.347,552.799,556.718,559.605,562.026,566.975,571.925,576.874,579.295,583.778,587.23" y="155.06100000000004" svg_rhmargin="590.117" style="fill:#171615;font-family:LFHPIM+AdvOTbc475f09;font-size:8.97px;font-style:NORMAL;font-weight:normal;">cantly associated with the susceptibility of retinoblas-</text>
  <text x="345.089,347.976,352.925,360.296,364.779,370.26,372.681,377.63,383.186,389.624,394.573,396.994,401.943,405.862,409.314,413.232,418.788,423.738,428.687,433.637,438.586,441.007,445.49,448.377,450.798,455.747,460.696,466.182,469.07,476.44" y="166.00300000000004" svg_rhmargin="482.878" style="fill:#171615;font-family:LFHPIM+AdvOTbc475f09;font-size:8.97px;font-style:NORMAL;font-weight:normal;">toma in Chinese population (OR</text>
  <text x="484.044" y="166.00300000000004" svg_rhmargin="490.114" style="fill:#171615;font-family:LFHPHK+AdvOTb0c9bf5d;font-size:8.97px;font-style:NORMAL;font-weight:normal;">=</text>
  <text svg_rhmargin="555.106" x="491.244,496.193,501.143,503.564,508.513,513.463,515.884,521.404,526.353,531.303,540.269,545.782,552.219,555.106" y="166.00300000000004" style="fill:#171615;font-family:LFHPIM+AdvOTbc475f09;font-size:8.97px;font-style:NORMAL;font-weight:normal;">21.67, 95% CI </text>
  <text x="556.271" y="166.00300000000004" svg_rhmargin="562.341" style="fill:#171615;font-family:LFHPHK+AdvOTb0c9bf5d;font-size:8.97px;font-style:NORMAL;font-weight:normal;">=</text>
  <text x="563.415,568.364,573.313,575.734,580.684" y="166.00300000000004" svg_rhmargin="585.633" style="fill:#171615;font-family:LFHPIM+AdvOTbc475f09;font-size:8.97px;font-style:NORMAL;font-weight:normal;">13.96</text>
  <text x="585.639" y="166.00300000000004" svg_rhmargin="590.122" style="fill:#171615;font-family:LFHPIO+AdvOTbc475f09+20;font-size:8.97px;font-style:NORMAL;font-weight:normal;">–</text>
  <text x="345.09,350.039,354.989,357.409,362.359,367.308,370.195,372.472,375.359,380.309,382.729,387.213,389.634,391.97,396.919,399.807,402.228,404.555,409.038,413.988,418.937,423.42,426.872,431.822,436.771,441.72,444.012,448.495,453.445,457.928,460.349,464.832,468.284,470.705,474.157,476.44,481.389,485.872,489.324,493.243,498.192,500.533,505.483,510.432,512.722,516.64,521.59,526.539,529.426,532.878,537.828,540.249,542.541,545.993,550.476,557.847,562.796,565.217,569.135,571.454,574.341,578.824,583.774,587.692" y="177.00099999999998" svg_rhmargin="590.113" style="fill:#171615;font-family:LFHPIM+AdvOTbc475f09;font-size:8.97px;font-style:NORMAL;font-weight:normal;">33.62) (Fig. 2). Subgroup analysis based on control sample type,</text>
  <text x="345.09,348.542,350.963,355.446,360.395" y="187.94299999999998" svg_rhmargin="362.816" style="fill:#171615;font-family:LFHPIM+AdvOTbc475f09;font-size:8.97px;font-style:NORMAL;font-weight:normal;">signi</text>
  <text x="362.835" y="187.94299999999998" svg_rhmargin="367.784" style="fill:#171615;font-family:LFHPIN+AdvOTbc475f09+fb;font-size:8.97px;font-style:NORMAL;font-weight:normal;">ﬁ</text>
  <text x="367.767,371.686,376.169,381.118,384.005,385.909,390.392,393.844,397.296,402.245,406.164,408.585,413.068,415.955,418.376,423.325,428.274,430.184,437.089,441.572,445.024,446.908,451.858,455.776,458.663,462.581,466.5,469.387,473.305,478.254,480.186,482.607,487.55600000000004,489.484,494.433,499.383,502.27,507.219,509.1,514.049,515.96,519.878,524.827,529.777,532.664,536.116,541.065,543.4860000000001,545.383,548.835,553.318,560.688,565.637,568.058,571.976,573.898,576.785,581.268,586.218" y="187.94299999999998" svg_rhmargin="590.136" style="fill:#171615;font-family:LFHPIM+AdvOTbc475f09;font-size:8.97px;font-style:NORMAL;font-weight:normal;">cant association was detected in both 2 control sample type</text>
  <text x="345.09,347.977,354.415,358.333,361.22,363.641,368.59,373.54,378.489,380.91,385.393,388.845,391.732,396.682,404.052,408.535,410.511,413.398,415.819,419.271,422.723,427.672,431.59000000000003,433.527,438.01,441.462,443.448,448.398,453.347,456.799,464.169,468.653,471.074,472.984,476.436,480.354,483.242,485.663,490.612,495.095,497.078,499.965,502.386,505.838,509.29,514.239,518.157,520.5780000000001,522.532,529.902" y="198.88400000000001" svg_rhmargin="536.34" style="fill:#171615;font-family:LFHPIM+AdvOTbc475f09;font-size:8.97px;font-style:NORMAL;font-weight:normal;">(Retinoblastoma tissue vs normal retina tissue, OR</text>
  <text x="537.507" y="198.88400000000001" svg_rhmargin="543.577" style="fill:#171615;font-family:LFHPHK+AdvOTb0c9bf5d;font-size:8.97px;font-style:NORMAL;font-weight:normal;">=</text>
  <text x="544.707,549.656,554.605,557.026,561.976,566.925,569.346,571.294,576.244,581.193" y="198.88400000000001" svg_rhmargin="590.159" style="fill:#171615;font-family:LFHPIM+AdvOTbc475f09;font-size:8.97px;font-style:NORMAL;font-weight:normal;">23.97, 95%</text>
  <text svg_rhmargin="354.415" x="345.09,351.528,354.415" y="209.82600000000002" style="fill:#171615;font-family:LFHPIM+AdvOTbc475f09;font-size:8.97px;font-style:NORMAL;font-weight:normal;">CI </text>
  <text x="355.521" y="209.82600000000002" svg_rhmargin="361.591" style="fill:#171615;font-family:LFHPHK+AdvOTb0c9bf5d;font-size:8.97px;font-style:NORMAL;font-weight:normal;">=</text>
  <text x="362.721,367.671,370.091,375.041" y="209.82600000000002" svg_rhmargin="379.99" style="fill:#171615;font-family:LFHPIM+AdvOTbc475f09;font-size:8.97px;font-style:NORMAL;font-weight:normal;">9.67</text>
  <text x="380.013" y="209.82600000000002" svg_rhmargin="384.496" style="fill:#171615;font-family:LFHPIO+AdvOTbc475f09+20;font-size:8.97px;font-style:NORMAL;font-weight:normal;">–</text>
  <text x="384.491,389.441,394.39,396.811,401.76,406.71,409.131,412.043,418.481,422.399,425.286,427.707,432.656,437.606,442.555,444.976,449.459,452.911,455.799,460.748,468.118,472.601,475.537,478.424,480.845,484.297,487.749,492.698,496.616,499.517,504.0,507.452,510.402,513.854,517.773,520.66,523.081,528.03,532.98,537.929,540.35,544.833,548.285,551.172,556.122,563.492,567.9749999999999,570.892,575.375,580.324,582.745,587.228" y="209.82600000000002" svg_rhmargin="590.115" style="fill:#171615;font-family:LFHPIM+AdvOTbc475f09;font-size:8.97px;font-style:NORMAL;font-weight:normal;">59.42; Retinoblastoma tissue vs retinoblastoma adja-</text>
  <text x="345.09,349.008,352.926,357.876,360.763,364.195,367.082,369.503,372.955,376.407,381.357,385.275,387.69599999999997,391.124,398.494" y="220.82399999999996" svg_rhmargin="404.932" style="fill:#171615;font-family:LFHPIM+AdvOTbc475f09;font-size:8.97px;font-style:NORMAL;font-weight:normal;">cent tissue, OR</text>
  <text x="406.092" y="220.82399999999996" svg_rhmargin="412.162" style="fill:#171615;font-family:LFHPHK+AdvOTb0c9bf5d;font-size:8.97px;font-style:NORMAL;font-weight:normal;">=</text>
  <text svg_rhmargin="469.544" x="413.292,418.241,423.191,425.612,430.561,435.51,437.931,441.354,446.303,451.253,460.219,466.657,469.544" y="220.82399999999996" style="fill:#171615;font-family:LFHPIM+AdvOTbc475f09;font-size:8.97px;font-style:NORMAL;font-weight:normal;">20.85, 95%CI </text>
  <text x="470.666" y="220.82399999999996" svg_rhmargin="476.736" style="fill:#171615;font-family:LFHPHK+AdvOTb0c9bf5d;font-size:8.97px;font-style:NORMAL;font-weight:normal;">=</text>
  <text x="477.865,482.815,487.764,490.185,495.135" y="220.82399999999996" svg_rhmargin="500.084" style="fill:#171615;font-family:LFHPIM+AdvOTbc475f09;font-size:8.97px;font-style:NORMAL;font-weight:normal;">12.64</text>
  <text x="500.089" y="220.82399999999996" svg_rhmargin="504.572" style="fill:#171615;font-family:LFHPIO+AdvOTbc475f09+20;font-size:8.97px;font-style:NORMAL;font-weight:normal;">–</text>
  <text x="504.568,509.517,514.467,516.888,521.837,526.786,529.674,532.095,535.521,541.403,546.352,549.807,552.228,557.178,561.661,565.579,569.031,571.918,574.339,578.822,583.306,586.193" y="220.82399999999996" svg_rhmargin="590.111" style="fill:#171615;font-family:LFHPIM+AdvOTbc475f09;font-size:8.97px;font-style:NORMAL;font-weight:normal;">34.37). To investigate</text>
  <text x="345.091,347.978,352.927,356.845,361.021,364.473,369.423,371.843,375.761,379.956,384.906,387.793,391.975,398.412,403.828,410.732,415.68100000000004,419.867,424.816,429.299,433.218,436.67,440.588,445.537,450.487,453.939,457.857,461.309,464.761,467.182,472.132,477.081,481.32,483.741,488.69,492.886,496.804,499.225,501.646,506.595,509.016,512.934,517.418,519.839,524.066,527.984,532.934,537.417,540.869,545.352,549.27,552.158,556.076,559.528,561.949,565.401,568.288,570.709,574.627,578.079,582.288,587.237" y="231.765" svg_rhmargin="590.124" style="fill:#171615;font-family:LFHPIM+AdvOTbc475f09;font-size:8.97px;font-style:NORMAL;font-weight:normal;">the role of VEGF overexpression in clinical characteristics of</text>
  <path d=" M 85.03900146484375 547.31298828125 L 590.1729736328125 547.31298828125 L 590.1729736328125 548.106689453125 L 85.03900146484375 548.106689453125 Z " style="fill:none;stroke:#000000;stroke-width:1.0;"/>
  <path d=" M 85.03900146484375 84.302001953125 L 590.1729736328125 84.302001953125 L 590.1729736328125 85.03903198242188 L 85.03900146484375 85.03903198242188 Z " style="fill:none;stroke:#000000;stroke-width:1.0;"/>
  <rect style="stroke:blue;stroke-width:0.3;" x="144.567" y="259.774" height="436.875" width="386.238" title="3"/>
  <text x="144.567" y="259.774" class="image" id="image.3.1" width="386" height="436">image.3.1.145_531.260_697</text>
  <text svg_rhmargin="298.679" x="268.554,272.911,274.698,279.054,283.329,285.893,290.018,292.537,296.662,298.679" y="707.591" style="fill:#171615;font-family:LFHPOE+AdvOTf94803d4;font-size:7.47px;font-style:NORMAL;font-weight:normal;">Figure 1. </text>
  <text x="302.456,306.424,307.746,311.871,317.393,319.916,323.727,327.694,331.505,333.836,336.01,338.51,342.634,344.502,347.013,348.336,349.658,351.833,355.643,357.975,361.785,363.959,367.927,370.258,374.06899999999996,376.605,380.184,383.994,385.317,389.127,392.938,395.112,396.435,400.559,404.609" y="707.591" svg_rhmargin="406.626" style="fill:#171615;font-family:LFHPHG+AdvOT6e5d2ec0;font-size:7.47px;font-style:NORMAL;font-weight:normal;">Flow chart of literature selection.</text>
  <text x="85.039,92.26,96.492,99.099,103.164,105.483,108.17,112.235,113.645,115.797,118.431,124.982,129.047,133.606,135.017,139.081,140.492,144.724,148.789,151.368,153.273,157.673,162.072,166.472,170.871,172.776,175.405,179.804,184.204,186.356,190.755,195.154,517.041,522.931,528.821,534.711,536.863,543.414,547.973,550.874,552.285,556.685,560.917,563.3,567.532,571.597,573.008,575.16,579.224,583.624" y="9.870999999999981" svg_rhmargin="590.176" style="fill:#171615;font-family:LFHPHG+AdvOT6e5d2ec0;font-size:7.97px;font-style:NORMAL;font-weight:normal;">Wu et al. Medicine (2018) 97:51 www.md-journal.com</text>
  <text x="335.396" y="739.625" svg_rhmargin="339.796" style="fill:#171615;font-family:LFHPOE+AdvOTf94803d4;font-size:7.97px;font-style:NORMAL;font-weight:normal;">3</text>
 </g>
</svg>
