<?xml version="1.0" encoding="UTF-8"?>
<svg height="777.932" width="560.0055916760526" xmlns="http://www.w3.org/2000/svg">
 <g style="fill:none;">
  <text x="44.829,48.573,52.317,56.195,58.14,61.758,63.822,65.763,69.381,70.668,72.607,426.996,431.172,432.459,434.52,438.138,443.943,445.23,448.975,450.936,455.71299999999997,457.65,461.394,465.012,468.243,471.861,473.148,476.502,478.44,479.727,483.472,485.415,489.807,494.586,497.943,499.882,502.146,506.54,508.473,514.278,517.896,519.957,523.575,526.158,530.55,534.294,537.912,539.199,542.43,545.787,547.074" y="55.428999999999974" svg_rhmargin="550.428" style="fill:#6d6d6c;font-family:FFCUJS+HelveticaNeueLTStd-Lt;font-size:6.97px;font-style:NORMAL;font-weight:normal;">Luo et al. Vitamin D Levels in PDs: A Meta-Analysis</text>
  <rect style="stroke:blue;stroke-width:0.3;" x="85.14" y="90.592" height="304.56" width="425.28" title="7"/>
  <text x="85.14" y="90.592" class="image" id="image.7.1" width="425" height="304">image.7.1.85_510.91_395</text>
  <text svg_rhmargin="85.993" x="50.265,54.396,56.457,61.749,66.915,71.946,76.465,78.408,82.286,84.438,85.99300000000001" y="414.583" style="fill:#171615;font-family:IUMUOI+HelveticaNeueLTStd-Bd;font-size:6.97px;font-style:NORMAL;font-weight:normal;">FIGURE 6 | </text>
  <text x="88.137,91.881,95.76,97.83,101.448,104.805,106.869,108.81,112.815,114.102,117.981,120.04499999999999,121.977,125.856,127.66199999999999,129.6,132.831,134.118,136.179,139.797,145.602,146.889,150.63400000000001,152.586,157.363,159.309,160.596,164.214,167.445,171.063,172.35,175.704,177.651,178.938,182.683,184.617,189.009,193.78599999999997,195.732,199.737,203.355,205.416,206.703,210.321,214.065,216.126,219.48000000000002,221.427,226.593,227.88,229.941,233.686,235.638,239.643,240.93,242.613,244.422,248.04,250.11,253.728,257.472,259.536,261.468,264.825,268.443,271.674,275.292,277.488,278.775,280.836,283.428" y="414.583" svg_rhmargin="285.367" style="fill:#171615;font-family:FFCUJS+HelveticaNeueLTStd-Lt;font-size:6.97px;font-style:NORMAL;font-weight:normal;">Forest plot of vitamin D levels in PD patients with different severity.</text>
  <rect style="stroke:blue;stroke-width:0.3;" x="113.634" y="445.531" height="112.8" width="368.4" title="7"/>
  <text x="113.634" y="445.531" class="image" id="image.7.2" width="368" height="112">image.7.2.114_482.446_558</text>
  <text svg_rhmargin="85.993" x="50.265,54.396,56.457,61.749,66.915,71.946,76.465,78.408,82.286,84.438,85.99300000000001" y="577.762" style="fill:#171615;font-family:IUMUOI+HelveticaNeueLTStd-Bd;font-size:6.97px;font-style:NORMAL;font-weight:normal;">FIGURE 7 | </text>
  <text x="88.137,91.881,95.76,97.83,101.448,104.805,106.869,108.81,112.815,114.102,117.981,120.04499999999999,121.977,125.856,127.66199999999999,129.6,131.661,135.405,139.025,140.967,144.585,148.464,150.66,152.73,156.348,157.635,161.253,163.314,164.601,168.48,172.225,174.177,177.795,181.674,185.292,186.975,190.071,193.689,194.977,198.594,202.339,204.403,206.352,210.357,213.975,216.036,221.202,224.82,228.438,232.183,234.126,237.357,238.644,240.705,244.323,250.128,251.415,255.16,257.112,261.889,263.826,265.113,268.731,271.962,275.58,276.867,280.221,282.168,285.786,289.53,293.53299999999996,295.479,299.484,300.771,302.454,304.263,307.881,309.951,313.569,317.313,319.377,321.318,326.232,330.489,333.846,335.907,339.525,343.404,347.022,350.376,352.314,353.601,357.346,359.289,363.681,368.45799999999997,370.395,374.4,378.018,380.079,381.366,384.984,388.728,390.789,394.146" y="577.762" svg_rhmargin="396.085" style="fill:#171615;font-family:FFCUJS+HelveticaNeueLTStd-Lt;font-size:6.97px;font-style:NORMAL;font-weight:normal;">Forest plot of the correlation coefﬁcient between vitamin D levels and different HYstages in PD patients.</text>
  <rect style="stroke:blue;stroke-width:0.3;" x="113.634" y="608.881" height="92.64" width="368.4" title="7"/>
  <text x="113.634" y="608.881" class="image" id="image.7.3" width="368" height="92">image.7.3.114_482.609_702</text>
  <text svg_rhmargin="85.993" x="50.265,54.396,56.457,61.749,66.915,71.946,76.465,78.408,82.286,84.438,85.99300000000001" y="720.943" style="fill:#171615;font-family:IUMUOI+HelveticaNeueLTStd-Bd;font-size:6.97px;font-style:NORMAL;font-weight:normal;">FIGURE 8 | </text>
  <text x="88.137,91.881,95.76,97.83,101.448,104.805,106.869,108.81,112.815,114.102,117.981,120.04499999999999,121.977,125.856,127.66199999999999,129.6,131.661,135.405,139.025,140.967,144.585,148.464,150.66,152.73,156.348,157.635,161.253,163.314,164.601,168.48,172.225,174.177,177.795,181.674,185.292,186.975,190.071,193.689,194.977,198.594,202.339,204.403,206.352,210.357,213.975,216.036,221.202,224.82,228.438,232.183,234.126,237.357,238.644,240.705,244.323,250.128,251.415,255.16,257.112,261.889,263.826,265.113,268.731,271.962,275.58,276.867,280.221,282.168,285.786,289.53,293.53299999999996,295.479,301.284,306.063,310.455,315.234,319.887,324.281,326.214,329.571,333.189,337.068,339.138,342.756,346.10999999999996,348.048,349.335,353.08,355.023,359.415,364.192,366.138,370.143,373.761,375.822,377.109,380.727,384.471,386.532,389.889" y="720.943" svg_rhmargin="391.828" style="fill:#171615;font-family:FFCUJS+HelveticaNeueLTStd-Lt;font-size:6.97px;font-style:NORMAL;font-weight:normal;">Forest plot of the correlation coefﬁcient between vitamin D levels and mUPDRS scores in PD patients.</text>
  <text svg_rhmargin="173.617" x="44.829,48.573,50.643,54.522,58.266,60.327,61.614,65.232,67.428,70.782,72.738,74.025,77.77000000000001,79.704,84.618,88.236,91.98,94.05,97.929,99.216,103.095,106.974,110.203,112.14,113.688,115.632,120.798,125.964,130.743,132.678,134.487,136.557,140.436,144.18,146.241,147.528,151.146,153.342,156.699,157.986,161.73,163.665,167.544,169.74,173.618" y="767.932" style="fill:#6d6d6c;font-family:FFCUJS+HelveticaNeueLTStd-Lt;font-size:6.97px;font-style:NORMAL;font-weight:normal;">Frontiers in Neurology | www.frontiersin.org </text>
  <text svg_rhmargin="299.572" x="295.695,299.573" y="767.932" style="fill:#6d6d6c;font-family:IUMUOI+HelveticaNeueLTStd-Bd;font-size:6.97px;font-style:NORMAL;font-weight:normal;">7 </text>
  <text x="430.929,435.843,439.722,442.953,446.571,452.376,456.381,459.999,462.196,464.13,468.009,471.888,475.767,479.645,481.581,483.129,485.064,488.809,492.688,493.975,497.719,503.523,507.14300000000003,509.094,512.972,514.909,516.457,518.401,522.793,524.989,527.05,528.337,531.955,533.242,536.862,538.813,542.692,546.571" y="767.932" svg_rhmargin="550.448" style="fill:#6d6d6c;font-family:FFCUJS+HelveticaNeueLTStd-Lt;font-size:6.97px;font-style:NORMAL;font-weight:normal;">November 2018 | Volume 9 | Article 909</text>
 </g>
</svg>
