<?xml version="1.0" encoding="UTF-8"?>
<svg height="778.922" width="562.3716030996775" xmlns="http://www.w3.org/2000/svg">
 <g style="fill:none;">
  <text x="44.829,48.573,52.317,56.195,58.14,61.758,63.822,65.763,69.381,70.668,72.607,426.996,431.172,432.459,434.52,438.138,443.943,445.23,448.975,450.936,455.71299999999997,457.65,461.394,465.012,468.243,471.861,473.148,476.502,478.44,479.727,483.472,485.415,489.807,494.586,497.943,499.882,502.146,506.54,508.473,514.278,517.896,519.957,523.575,526.158,530.55,534.294,537.912,539.199,542.43,545.787,547.074" y="55.428999999999974" svg_rhmargin="550.428" style="fill:#6d6d6c;font-family:FFCUJS+HelveticaNeueLTStd-Lt;font-size:6.97px;font-style:NORMAL;font-weight:normal;">Luo et al. Vitamin D Levels in PDs: A Meta-Analysis</text>
  <text x="44.829,48.06,53.237,57.294,61.452,66.447,71.442,73.98,76.869,79.407,84.231" y="90.20500000000004" svg_rhmargin="89.408" style="fill:#171615;font-family:XZHYCD+MinionPro-Regular;font-size:9.46px;font-style:NORMAL;font-weight:normal;">In addition</text>
  <text svg_rhmargin="91.81" x="89.406,91.81" y="90.20500000000004" style="fill:#171615;font-family:WNCTVH+MinionPro-Bold;font-size:9.46px;font-style:NORMAL;font-weight:BOLD;">, </text>
  <text x="95.859,103.608,107.766,110.16,115.335,120.357,123.246,126.756,129.294,132.183,134.721,139.545,144.72,146.878,150.939,153.747,157.905,160.443,162.837,167.859,171.369,175.391,179.451,184.275,187.076,191.133,195.291,198.18,201.69,206.514,211.473,216.531,219.069,223.072,227.115,230.589,235.287,237.825,243.00199999999998,247.05,249.939,254.766,258.822,263.782,267.292,272.116,277.111,282.133,286.138" y="90.20500000000004" svg_rhmargin="290.16" style="fill:#171615;font-family:XZHYCD+MinionPro-Regular;font-size:9.46px;font-style:NORMAL;font-weight:normal;">malnutrition, failure of atrophic skin to produce</text>
  <text x="44.829,49.212,51.75,54.693,58.851,66.6,69.138,74.315,78.633,85.589,89.901,94.05,97.523,101.835,108.315,112.338,114.732,117.126,121.446,125.595,129.068,133.38,137.385,142.209,149.958,154.782,158.301,163.107,165.645,170.64,173.178,176.067,178.605,182.61,186.084,188.242,192.564,196.038,201.06,205.011,210.065,214.38,218.529,222.002,226.314,229.824,233.847,239.022,243.18,245.574,249.894,254.718,258.229,262.548,267.606,271.629,276.589,280.747,283.636,286.174" y="101.66200000000003" svg_rhmargin="290.177" style="fill:#171615;font-family:XZHYCD+MinionPro-Regular;font-size:9.46px;font-style:NORMAL;font-weight:normal;">vitamin D as well as comorbidities, such as renal or hepatic</text>
  <text x="44.829,49.824,54.171,57.627,60.426,65.448,70.623,74.628,77.517,80.055,84.879,90.05600000000001,93.969,96.507,101.684,105.588,108.513,113.571,117.593,121.5,125.523,127.917,132.912,136.935,140.445,142.839,147.183,151.093,155.098,159.922,164.944,167.338,172.33499999999998,176.248,180.406,182.8,186.274,191.101,195.004,197.542,202.717,207.766,212.788,216.811,221.986,225.991,230.013,233.911,236.836,241.894,245.916,249.823,254.206,256.744,259.687,263.845,271.594,274.132,279.309,283.213" y="113.11900000000003" svg_rhmargin="290.169" style="fill:#171615;font-family:XZHYCD+MinionPro-Regular;font-size:9.46px;font-style:NORMAL;font-weight:normal;">dysfunction in the elderly could also inﬂuence the vitamin D</text>
  <text x="44.829,48.834,53.658,58.833,62.838,66.861,72.036,74.925,78.435,82.593,85.482,88.02,92.844,98.019,101.492,103.644,106.92,111.465,116.001,120.924,125.469,130.014,133.29" y="124.57600000000002" svg_rhmargin="135.448" style="fill:#171615;font-family:XZHYCD+MinionPro-Regular;font-size:9.46px;font-style:NORMAL;font-weight:normal;">concentrations (39–41).</text>
  <text x="56.286,61.848,66.672,69.597,74.651,79.578,83.961,86.499,89.442,93.6,101.349,103.887,109.064,113.976,120.932,125.847,128.385,133.56,137.034,142.056,149.607,153.612,156.15,160.173,165.348,169.353,173.697,178.623,182.781,187.956,192.95299999999997,197.865,202.86,206.874,211.941,215.946,218.484,222.507,227.682,231.687,236.031,240.948,244.98,249.138,254.315,259.227,261.765,266.94,270.945,274.455,278.523,282.672,286.146" y="136.03300000000002" svg_rhmargin="290.168" style="fill:#171615;font-family:XZHYCD+MinionPro-Regular;font-size:9.46px;font-style:NORMAL;font-weight:normal;">Both vitamin D insuﬃciency and deﬁciency can increase</text>
  <text x="44.829,47.754,52.812,56.833999999999996,61.2,64.71,67.248,70.722,75.416,79.776,84.6,87.401,91.773,97.101,103.68,105.83800000000001,110.205,115.263,120.087,126.567,130.671,135.054,139.077,142.588,146.952,149.877,154.935,158.958,162.468,166.48999999999998,170.856,173.394,176.86700000000002,181.233,185.391,190.56799999999998,194.931,197.469,202.644,206.649,210.159,214.227,218.376,221.85,225.873,230.87,235.233,238.743,241.281,244.755,249.44899999999998,253.809,258.633,261.43399999999997,265.806,271.134,278.09000000000003,282.456,284.994" y="147.49" svg_rhmargin="290.171" style="fill:#171615;font-family:XZHYCD+MinionPro-Regular;font-size:9.46px;font-style:NORMAL;font-weight:normal;">the risk of PD, however there is an increased risk of PD in</text>
  <text x="44.829,49.212,51.75,54.693,58.851,66.6,69.138,74.315,76.068,83.024,84.789,89.784,93.798,98.865,102.87,105.408,109.431,114.606,118.611,122.955,124.704,128.853,132.32600000000002,134.082,138.087,142.911,150.66,155.619,159.777,163.287,167.31,172.30700000000002,174.069,176.958,181.785,183.537,186.075,191.25,194.724,199.746,207.297,211.302,213.84,217.863,223.038,227.043,231.387,233.145,237.528,240.066,243.009,247.167,254.916,257.454,262.63100000000003,264.384,271.341,273.499,275.256,281.088,286.146" y="158.947" svg_rhmargin="290.168" style="fill:#171615;font-family:XZHYCD+MinionPro-Regular;font-size:9.46px;font-style:NORMAL;font-weight:normal;">vitamin D deﬁciency as compared to insuﬃciency vitamin D. The</text>
  <text x="44.829,48.303,52.326,55.836,60.858,68.609,70.794,75.339,79.884,83.16,90.234,97.488,100.764,107.72,109.89,112.284,116.388,120.771,124.794,127.188,130.661,132.84,139.32,143.343,146.853,150.875,153.063,156.573,160.596,168.345,172.503,176.013,180.711,184.788,189.594,191.988,196.332,198.504,203.499,206.037,209.511,212.4,214.938,220.113,224.118,227.005,229.185,233.343,241.092,245.916,251.091,255.52,257.706,262.701,265.239,270.548,274.571,278.081,282.104,287.28" y="170.404" svg_rhmargin="290.167" style="fill:#171615;font-family:XZHYCD+MinionPro-Regular;font-size:9.46px;font-style:NORMAL;font-weight:normal;">serum 25(OH)D levels were remarkably distinct among diﬀerent</text>
  <text x="44.829,48.303,52.407,56.79,60.813,64.323,66.861,69.75,74.094,75.852,81.18,88.13600000000001,89.883,94.311,97.821,102.645,107.667,112.626,116.1,118.258,120.024,126.567,131.742,136.73899999999998,138.492,141.417,146.475,150.498,154.84199999999998,156.591,160.749,163.143,166.617,171.444,173.196,179.676,183.699,187.209,191.231,192.987,198.162,202.194,206.604,210.762,213.651,216.189,220.572,224.595,226.99,231.334,233.083,237.088,241.912,245.422,248.932,252.955,255.349,259.507,262.396,266.419,271.416,273.169,279.648,282.186,285.111" y="181.86" svg_rhmargin="290.165" style="fill:#171615;font-family:XZHYCD+MinionPro-Regular;font-size:9.46px;font-style:NORMAL;font-weight:normal;">severity PD groups. And they also were negatively correlated with</text>
  <text x="44.829,52.083,58.815,64.815,67.446,70.92,73.863,77.967,82.395,86.4,89.873,92.502,96.66,101.835,106.832,109.467,116.433,121.761,128.718,134.595,139.081,141.714,144.945,148.176,151.403,154.026,157.563,161.568,166.392,169.902,173.907,177.381,179.539,182.178,186.984,192.006,194.893,197.532,202.707,207.531,210.418,213.057,215.982,221.04,225.06199999999998,227.7,232.695,235.233,238.707,242.775,246.924,250.398,254.42,257.049,262.044,267.066,270.576,274.734,277.623,280.161,284.985" y="193.317" svg_rhmargin="290.162" style="fill:#171615;font-family:XZHYCD+MinionPro-Regular;font-size:9.46px;font-style:NORMAL;font-weight:normal;">H&amp;Y stages and UPDRS III scores, but not the disease duration</text>
  <text x="44.829,48.987,54.162,59.159,61.758,64.683,69.741,73.763,76.356,80.46,84.888,88.91000000000001,91.503,96.327,99.128,101.727,107.055,114.01100000000001,116.612,121.572,125.73,128.619,131.157,135.18,140.355,143.244" y="204.774" svg_rhmargin="146.717" style="fill:#171615;font-family:XZHYCD+MinionPro-Regular;font-size:9.46px;font-style:NORMAL;font-weight:normal;">and the age of PD patients</text>
  <text svg_rhmargin="149.122" x="146.718,149.12199999999999" y="204.774" style="fill:#171615;font-family:WNCTVH+MinionPro-Bold;font-size:9.46px;font-style:NORMAL;font-weight:BOLD;">. </text>
  <text x="151.713,156.717,161.739,165.249,168.174,173.232,177.255,180.765,188.514,193.338,196.848,200.817,202.975,205.578,208.503,213.561,217.583,220.185,225.144,229.968,233.397,236.871,239.409,244.215,246.61,250.632,253.225,258.031,260.569,265.393,267.787,272.611,277.039,279.577,283.609,287.767" y="204.774" svg_rhmargin="290.162" style="fill:#171615;font-family:XZHYCD+MinionPro-Regular;font-size:9.46px;font-style:NORMAL;font-weight:normal;">Furthermore, the possible biological</text>
  <text x="44.829,52.578,56.655,60.606,65.637,69.795,74.97,77.508,80.982,88.731,92.204,94.833,97.632,102.456,105.967,108.612,112.617,117.081,122.04,124.435,128.592,131.13,136.305,138.843,144.018,148.447,151.084,155.467,158.005,160.948,165.106,172.855,175.393,180.57,183.196,190.152,192.79,196.264,199.207,203.365,206.254,211.276,214.74900000000002,217.378,221.383,226.207,231.382,234.271,237.781,240.319,245.125,250.147,253.036,255.574,260.749,265.178,267.814,270.703,275.53,278.164,281.089,286.147" y="216.231" svg_rhmargin="290.169" style="fill:#171615;font-family:XZHYCD+MinionPro-Regular;font-size:9.46px;font-style:NORMAL;font-weight:normal;">mechanisms for explaining vitamin D status contributing to the</text>
  <text x="44.829,48.303,52.407,56.79,60.813,64.323,66.861,69.75,74.094,76.248,81.072,83.873,86.022,91.35,98.306,100.458,104.616,108.126,112.14800000000001,114.291,118.296,123.12,130.869,135.828,138.222,140.76,144.792,148.95,151.839,155.862,160.857" y="227.688" svg_rhmargin="163.015" style="fill:#171615;font-family:XZHYCD+MinionPro-Regular;font-size:9.46px;font-style:NORMAL;font-weight:normal;">severity of PD are complicated.</text>
  <text x="56.286,61.29,63.828,67.275,70.749,73.647,75.805,80.442,82.98,85.867,90.495,93.033,96.506,101.142,105.966,108.767,113.399,118.421,121.311,129.06,133.883,137.357,140.244,144.882,147.42,155.169,160.128,164.952,168.462,171.405,175.563,180.738,184.743,188.765,193.401,196.29,201.117,205.749,210.771,215.946,220.941,224.964,228.411,231.885,234.828,238.986,244.161,249.15800000000002,253.8,256.725,261.756,265.914,268.801,273.42,278.244,283.419,285.813" y="239.14499999999998" svg_rhmargin="290.157" style="fill:#171615;font-family:XZHYCD+MinionPro-Regular;font-size:9.46px;font-style:NORMAL;font-weight:normal;">First, it is of utmost importance to understand that only</text>
  <text x="44.829,48.969,52.974,55.863,58.401,62.784,66.806,69.894,74.277,76.815,79.758,83.916,91.665,94.203,99.38,102.474,109.43,112.527,115.065,118.538,121.635,125.145,129.15,132.624,137.583,142.407,147.582,151.056,153.594,158.4,160.794,164.816,167.913,170.712,175.536,179.047,182.151,186.309,188.703,191.097,194.193,197.118,202.176,206.19799999999998,209.286,214.461,219.285,222.795,230.544,234.702,237.096,240.201,245.161,250.219,254.566,258.04,260.578,265.402,267.796,272.62,277.048,279.586,283.616,287.774" y="250.60199999999998" svg_rhmargin="290.169" style="fill:#171615;font-family:XZHYCD+MinionPro-Regular;font-size:9.46px;font-style:NORMAL;font-weight:normal;">active vitamin D is responsible for all the normal physiological</text>
  <text x="44.829,47.628,52.65,57.825,61.83,64.719,67.257,72.081,77.25800000000001,80.532,83.07,88.245,91.719,94.257,99.252,103.274,106.551,111.375,116.397,119.908,123.183,127.989,132.813,137.808,142.155,144.313,147.591,154.134,159.309,164.30599999999998,167.58,170.505,175.563,179.58499999999998,182.853,186.993,190.998,193.887,196.425,200.808,204.82999999999998,208.089,213.048,216.558,221.382,225.387,229.392,232.821,236.294,239.562,244.386,247.18699999999998,250.461,254.844,257.382,260.325,264.483,272.232,274.77,279.947,283.212" y="262.05899999999997" svg_rhmargin="290.168" style="fill:#171615;font-family:XZHYCD+MinionPro-Regular;font-size:9.46px;font-style:NORMAL;font-weight:normal;">function inside our body. And the active process of vitamin D</text>
  <text x="44.829,47.367,50.839999999999996,53.658,57.168,61.2,65.628,70.65,73.044,77.202,80.091,84.114,89.111,91.926,96.732,101.076,103.887" y="273.51599999999996" svg_rhmargin="108.43" style="fill:#171615;font-family:XZHYCD+MinionPro-Regular;font-size:9.46px;font-style:NORMAL;font-weight:normal;">is regulated by 1</text>
  <text x="108.432" y="273.51599999999996" svg_rhmargin="113.628" style="fill:#171615;font-family:GBKXCW+MTGU;font-size:9.46px;font-style:NORMAL;font-weight:normal;">α</text>
  <text x="113.625,116.991,122.049,126.396,131.391,134.901,139.725,144.189,148.536,150.93,155.079,158.553,162.575,165.393,167.931,173.108,175.914,180.612,183.15,188.145,193.32,197.343,201.69,203.84799999999998,206.658,210.816,215.993,218.808,222.831,228.006,231.984,236.331,244.08,248.102,250.911,257.391,262.449,264.987,268.938,273.99199999999996,276.804,280.836,284.994" y="273.51599999999996" svg_rhmargin="290.171" style="fill:#171615;font-family:XZHYCD+MinionPro-Regular;font-size:9.46px;font-style:NORMAL;font-weight:normal;">-hydroxylase in kidney, an enzyme which can</text>
  <text x="44.829,48.78,53.811,57.969,63.144,67.572,71.59400000000001,74.358,78.903,83.448,86.724,93.798,101.052,104.328,111.284,114.03,116.568,121.743,124.632,129.459,132.228,136.773,138.933,143.478,148.023,151.299,158.373,165.627,168.903,173.448,180.405,184.95,187.10799999999998,189.855,196.244,199.717,202.482,205.281,210.105,213.61599999999999,216.396,220.779,223.317,226.26,230.418,238.167,240.705,245.882,248.643,255.599,258.362,261.872,265.95,269.955,273.978,278.937,281.826,286.65" y="284.97299999999996" svg_rhmargin="290.161" style="fill:#171615;font-family:XZHYCD+MinionPro-Regular;font-size:9.46px;font-style:NORMAL;font-weight:normal;">change 25(OH)D into 1,25(OH)2D3. As for vitamin D receptor</text>
  <text x="44.829,48.123,54.774,61.731,67.608,70.88300000000001,74.511,82.26,86.283,91.278,93.816,97.974,100.863,104.886,109.883,113.508,118.314,122.65799999999999,126.279,129.753,134.713,138.79,142.795,145.333,149.491,151.88500000000002,155.512,162.163,169.12,174.997,178.615,183.043,187.066,192.241,196.246,199.72,201.878,205.507,212.158,219.115,224.993,228.466,232.093,236.791,241.966,246.79,250.795,255.493,260.317,265.339,268.226,271.856,279.605,282.143,286.148" y="296.43" svg_rhmargin="290.17" style="fill:#171615;font-family:XZHYCD+MinionPro-Regular;font-size:9.46px;font-style:NORMAL;font-weight:normal;">(VDR) mediated by special VDR genes, VDRs knockout mice</text>
  <text x="44.829,48.258,53.316,58.14,64.62,68.643,73.64,77.481,80.955,83.493,87.921,93.096,95.634,100.701,104.733,108.891,114.066,116.955,119.349,123.693,127.521,130.059,137.808,142.767,146.925,149.463,152.973,156.996,161.993,165.825,173.574,178.398,181.287,186.111,189.62199999999999,193.464,196.263,201.285,206.46,210.465,213.354,215.892,220.716,225.891,229.364,233.208,236.484,241.029,245.574,248.85,251.00799999999998,254.853,260.415,265.239,268.164,273.21799999999996,277.056" y="307.888" svg_rhmargin="281.599" style="fill:#171615;font-family:XZHYCD+MinionPro-Regular;font-size:9.46px;font-style:NORMAL;font-weight:normal;">showed signiﬁcantly impaired motor functions (42). Both 1</text>
  <text x="281.601" y="307.888" svg_rhmargin="286.797" style="fill:#171615;font-family:GBKXCW+MTGU;font-size:9.46px;font-style:NORMAL;font-weight:normal;">α</text>
  <text x="286.794" y="307.888" svg_rhmargin="290.163" style="fill:#171615;font-family:XZHYCD+MinionPro-Regular;font-size:9.46px;font-style:NORMAL;font-weight:normal;">-</text>
  <text x="44.829,49.887,54.234,59.229,62.739,67.563,72.027,76.374,78.768,82.917,86.391,90.41300000000001,93.663,97.821,102.996,107.993,111.24,117.891,124.848,130.725,133.974,138.132,141.642,145.664,148.905,152.91,157.374,162.334,165.844,169.849,173.277,176.751,180.774,185.77100000000002,189.018,191.556,196.733,199.981,205.039,210.061,217.81,221.968,227.14499999999998,230.392,235.198,238.708,242.866,245.404,250.581,253.819,257.824,261.298,266.257,270.334,274.339,276.877,281.035,283.429,285.823" y="319.345" svg_rhmargin="290.167" style="fill:#171615;font-family:XZHYCD+MinionPro-Regular;font-size:9.46px;font-style:NORMAL;font-weight:normal;">hydroxylase and VDR are expressed in human brain especially</text>
  <text x="44.829,47.367,52.544,55.026,57.951,63.009,67.031,69.516,72.99,78.012,82.809,86.283,89.226,93.384,98.559,101.448,103.986,108.141,110.628,115.803,118.341,122.769,126.279,130.434,132.921,137.079,142.254,147.25099999999998,149.733,154.791,159.138,164.097,168.921,171.846,176.877,181.035,183.429,187.587,195.336,200.358,203.83100000000002,206.307,209.583,214.128,218.664,221.94,224.09799999999998,226.584,233.127,238.304,240.786,244.944,250.119,252.657,260.406,264.564,266.958,269.442,272.916,275.805,280.827,285.822" y="330.802" svg_rhmargin="290.166" style="fill:#171615;font-family:XZHYCD+MinionPro-Regular;font-size:9.46px;font-style:NORMAL;font-weight:normal;">in the substantia nigra and hypothalamus (43). An animal study</text>
  <text x="44.829,47.367,52.542,57.537,60.075,64.107,68.265,71.154,75.177,80.174,82.548,85.473,90.504,94.662,97.549,99.918,104.301,106.839,109.782,113.94,121.689,124.227,129.404,131.778,138.73399999999998,141.111,143.649,148.824,152.829,156.339,160.407,164.556,168.03,172.053,177.05,179.424,182.313,186.66,190.17,194.994,198.468,201.006,206.181,210.203,212.58,217.638,221.985,226.98,230.49,235.314,239.778,244.125,246.519,250.668,254.142,258.164,260.541,265.5,270.324,273.798,276.336,279.225,281.763,286.146" y="342.259" svg_rhmargin="290.168" style="fill:#171615;font-family:XZHYCD+MinionPro-Regular;font-size:9.46px;font-style:NORMAL;font-weight:normal;">indicated that vitamin D increased tyrosine hydroxylase positive</text>
  <text x="44.829,48.834,52.857,55.251,57.645,61.118,65.529,69.687,74.862,79.859,84.267,86.805,91.98,97.038,99.576,104.382,106.92,109.809,113.832,118.829,123.228,125.766,130.941,135.99,140.148,147.897,155.646,159.804,162.693,167.517,171.027,175.37099999999998,179.775,183.285,187.29,190.764,195.723,200.547,205.722,209.196,213.201,216.674,221.085,223.974,228.801,233.208,237.366,245.115,249.138,251.532,254.07,258.894,262.404,266.562,269.451,273.473,277.884,283.212" y="353.716" svg_rhmargin="290.168" style="fill:#171615;font-family:XZHYCD+MinionPro-Regular;font-size:9.46px;font-style:NORMAL;font-weight:normal;">cells and inhibited inﬂammatory responses to ameliorate PD</text>
  <text x="44.829,48.303,52.65,60.399,65.358,68.247,73.071,80.82,84.29299999999999,87.3,90.576,95.121,99.657,102.933,105.09100000000001,108.099,113.103,118.125,121.635,124.56,129.618,133.641,137.151,144.9,149.724,153.234,157.203,159.361,162.369,165.843,168.381,173.556,177.984,180.378,184.39999999999998,187.407,192.582,197.604,201.609,204.003,208.026,212.85,215.739,218.277,223.272,227.29399999999998,230.301,235.261,240.085,242.479,246.826,254.575,259.399,262.909,267.868,272.926,275.464,278.938,286.687" y="365.173" svg_rhmargin="290.16" style="fill:#171615;font-family:XZHYCD+MinionPro-Regular;font-size:9.46px;font-style:NORMAL;font-weight:normal;">symptoms (44). Furthermore, single nucleotide polymorphisms</text>
  <text x="44.829,48.105,52.587,59.616,64.674,68.148,71.423,73.485,76.023,81.19999999999999,83.259,86.184,91.242,95.26400000000001,97.326,103.977,110.934,116.81099999999999,118.872,123.3,127.323,132.498,136.51999999999998,138.582,142.74,145.134,148.608,153.435,155.493,160.524,164.511,168.894,172.916,174.969,179.127,184.304,186.363,190.377,195.687,199.764,203.769,206.656,208.71,213.534,218.71099999999998,220.779,223.704,228.762,232.784,234.837,238.311,242.334,245.844,250.866,258.617,260.685,265.068,267.606,270.549,274.707,282.456,284.994" y="376.63" svg_rhmargin="290.171" style="fill:#171615;font-family:XZHYCD+MinionPro-Regular;font-size:9.46px;font-style:NORMAL;font-weight:normal;">(SNPs) in the VDR gene also have an eﬀect on the serum vitamin</text>
  <text x="44.829,51.785000000000004,55.755,58.149,62.253,66.636,70.659,73.053,76.526,80.505,83.043,88.22,92.187,97.515,104.471,108.45,113.409,117.567,120.456,122.994,127.017,132.192,135.081,138.554,142.515,145.791,150.336,154.881,157.039,161.01,165.555,170.091,173.367,175.52499999999998,179.505,183.987,188.064,192.069,196.893,202.068,207.009,209.16699999999997,213.156,217.539,220.077,223.02,227.178,234.927,237.465,242.642,246.609,253.565,257.535,262.495,264.889,269.047,273.394,276.867,280.837,284.995" y="388.087" svg_rhmargin="290.172" style="fill:#171615;font-family:XZHYCD+MinionPro-Regular;font-size:9.46px;font-style:NORMAL;font-weight:normal;">D levels in PD patients (45, 46). Second, vitamin D plays an</text>
  <text x="44.829,47.367,55.116,60.075,64.899,68.409,71.352,75.51,80.685,83.572,87.688,91.198,96.022,98.416,102.438,106.543,109.081,114.25800000000001,118.369,123.544,127.567,132.589,136.099,140.923,145.882,149.392,154.216,157.105,161.182,165.187,168.076,170.614,174.997,179.019,183.124,187.264,191.269,194.158,196.696,201.52,206.695,210.168,214.273,217.198,222.256,225.766,230.59,235.612,240.094,245.148,249.265,254.225,257.735,262.559,270.308,275.132,278.021,280.559,285.734" y="399.544" svg_rhmargin="290.163" style="fill:#171615;font-family:XZHYCD+MinionPro-Regular;font-size:9.46px;font-style:NORMAL;font-weight:normal;">important role in neuroprotective actions through promoting</text>
  <text x="44.829,47.754,52.812,56.833999999999996,61.785,65.295,69.318,71.712,75.78,79.929,83.403,87.42500000000001,92.375,97.199,100.0,104.949,109.377,111.771,114.309,118.467,120.861,125.811,129.816,133.839,136.233,138.627,141.993,146.988,151.011,154.521,157.059,161.442,165.465,170.462,175.418,180.593,184.616,189.638,193.148,197.972,200.861,204.371,209.195,214.155,219.213,221.751,225.75400000000002,230.706,233.514,237.654,241.659,244.548,249.372,252.883,257.832,261.108,267.876,274.833,281.862,286.883" y="411.001" svg_rhmargin="290.158" style="fill:#171615;font-family:XZHYCD+MinionPro-Regular;font-size:9.46px;font-style:NORMAL;font-weight:normal;">the release of glial cell-derived neurotrophic factor (GDNF)</text>
  <text x="44.829,48.987,54.162,59.159,63.99,68.814,71.739,76.797,80.82,84.33099999999999,89.163,92.052,95.562,100.386,105.345,110.403,112.941,116.944,121.77,124.578,128.718,132.723,135.612,140.436,143.883,147.357,149.515,154.359,159.921,163.926,167.4,169.938,174.933,178.938,182.412,184.57,189.405,193.788,196.326,199.269,203.427,211.176,213.714,218.891,223.722,230.678,235.503,239.535,243.693,248.87,253.701,256.239,261.414,266.409,268.947,272.457,276.534,280.539,283.428,285.822" y="422.458" svg_rhmargin="290.166" style="fill:#171615;font-family:XZHYCD+MinionPro-Regular;font-size:9.46px;font-style:NORMAL;font-weight:normal;">and other trophic factors. Besides, vitamin D can indirectly</text>
  <text x="44.829,48.339,52.344,55.818,58.707,63.531,67.041,71.063,74.466,79.461,84.285,89.244,93.402,101.151,103.689,108.864,112.887,116.325,120.753,123.291,127.294,130.689,134.694,137.232,140.616,144.621,149.643,152.181,155.07,158.543,161.946,166.752,171.096,174.492,177.03,182.205,186.21,189.72,193.788,197.937,201.411,203.949,209.124,213.553,216.945,219.87,224.928,228.933,232.407,236.429,239.823,244.998,249.021,254.043,257.553,262.377,265.266,268.776,273.599,278.558,283.616,286.154" y="433.914" svg_rhmargin="290.157" style="fill:#171615;font-family:XZHYCD+MinionPro-Regular;font-size:9.46px;font-style:NORMAL;font-weight:normal;">restore dopaminergic circuits by increasing these neurotrophic</text>
  <text x="44.829,47.637,51.777,55.782,58.671,63.495,66.941,70.415,72.57300000000001,76.833,83.222,86.695,90.935,95.09,99.341,103.769,107.279,112.103,117.125,122.084,126.332,131.156,133.957,138.213,141.02,145.178,148.067,151.433,154.907,159.731,162.125,167.147,171.953,174.347,178.369,182.627,186.101,190.179,194.184,199.008,202.482,205.371,209.394,212.904,217.728,220.266,225.234,228.708,230.86599999999999,235.116,237.654,240.541,244.782,247.32,250.793,255.033,259.191,261.585,265.059,269.886,274.131,278.199,282.348,285.822" y="445.371" svg_rhmargin="290.166" style="fill:#171615;font-family:XZHYCD+MinionPro-Regular;font-size:9.46px;font-style:NORMAL;font-weight:normal;">factors. As a group of fat-soluble secosteroids, it is also easy</text>
  <text x="44.829,47.718,52.545,57.672,61.677,65.187,70.011,73.44,76.913,82.044,84.969,90.027,94.049,99.171,103.977,106.371,111.195,116.019,121.016,126.153,130.959,134.469,138.627,141.165,146.34199999999998,151.47,156.321,160.479,163.989,167.499,170.037,174.06,177.571,182.7,186.858,192.033,197.02999999999997,202.158,206.163,210.627,214.65,218.16,221.047,226.179,228.717,231.606,235.079,240.201,245.16,250.218,254.565,258.039,260.577,265.401,267.795,272.619,277.047,279.585,283.617,287.775" y="456.828" svg_rhmargin="290.17" style="fill:#171615;font-family:XZHYCD+MinionPro-Regular;font-size:9.46px;font-style:NORMAL;font-weight:normal;">to cross the blood brain barrier and exert its physiological</text>
  <text x="44.829,48.843,54.153,58.23,62.235,65.124,68.597,71.001,74.277,78.822,83.367,86.643,88.801,91.206,97.038,102.096,104.634,108.144,113.085,115.243,117.648,120.042,124.065,130.545,134.88899999999998,137.295,142.101,146.925,151.92,154.458,158.463,161.936,164.349,168.507,172.017,176.039,178.443,182.52,187.326,192.501,197.325,200.835,208.584,212.742,215.136,217.548,221.652,226.134,230.562,234.072,238.104,242.514,246.672,249.561,253.566,257.039,259.443,264.267,267.068,269.478,273.636,276.03,280.99,286.021" y="468.286" svg_rhmargin="290.176" style="fill:#171615;font-family:XZHYCD+MinionPro-Regular;font-size:9.46px;font-style:NORMAL;font-weight:normal;">eﬀects (47). Third, lewy bodies are abnormal aggregates of alpha</text>
  <text x="44.829,48.303,52.65,57.825,62.847,66.852,69.246,73.269,75.807,80.98400000000001,84.663,87.588,92.619,96.777,99.664,103.329,108.324,112.428,116.811,120.834,123.228,128.052,133.011,136.484,140.166,142.704,147.881,151.56,156.735,160.758,165.78,169.29,174.114,179.289,182.762,186.453,188.991,194.168,197.838,203.166,210.123,212.28099999999998,215.955,222.166,224.704,227.646,231.805,239.554,242.092,247.269,250.948,257.904,261.577,265.735,270.91,275.068,277.462,282.286,286.696" y="479.743" svg_rhmargin="290.169" style="fill:#171615;font-family:XZHYCD+MinionPro-Regular;font-size:9.46px;font-style:NORMAL;font-weight:normal;">synuclein that develops in neurons in PD. Vitamin D analogs</text>
  <text x="44.829,48.861,53.019,58.196,63.081,68.076,72.153,76.158,79.668,83.736,87.884,91.358,95.38000000000001,100.268,102.806,107.981,110.87,114.38,118.52,122.525,126.548,128.942,131.336,136.358,138.752,142.91,146.204,149.57,152.369,155.879,159.902,163.92399999999998,168.812,175.202,179.357,184.238,187.514,190.745,193.976,197.251,202.121,206.279,211.454,216.45100000000002,221.336,226.331,231.155,237.635,242.81,246.32,250.352,254.78,259.802,262.196,266.354,269.243,273.265,278.162,281.087,286.145" y="491.2" svg_rhmargin="290.167" style="fill:#171615;font-family:XZHYCD+MinionPro-Regular;font-size:9.46px;font-style:NORMAL;font-weight:normal;">can decrease intracellular-free Ca (II) and downregulate the</text>
  <text svg_rhmargin="195.947" x="44.829,48.834,53.298,58.257,61.767,65.772,69.201,72.675,75.213,80.037,85.214,87.687,92.511,95.312,97.794,101.826,105.984,108.378,113.184,115.722,120.897,125.892,128.43,133.605,136.971,143.928,148.473,153.018,157.712,160.182,163.071,167.898,170.37,173.88,177.903,182.898,187.92,191.925,195.947" y="502.657" style="fill:#171615;font-family:XZHYCD+MinionPro-Regular;font-size:9.46px;font-style:NORMAL;font-weight:normal;">expression of calbindin-D28k to reduce </text>
  <text x="198.423" y="502.657" svg_rhmargin="203.619" style="fill:#171615;font-family:GBKXCW+MTGU;font-size:9.46px;font-style:NORMAL;font-weight:normal;">α</text>
  <text x="203.616,206.982,210.456,214.803,219.978,225.0,229.005,231.399,235.422,237.96,243.137,245.62,249.723,254.205,258.633,262.143,266.175,270.586,274.744,277.633,280.171,284.995" y="502.657" svg_rhmargin="290.172" style="fill:#171615;font-family:XZHYCD+MinionPro-Regular;font-size:9.46px;font-style:NORMAL;font-weight:normal;">-synuclein aggregation</text>
  <text x="44.829,48.105,52.65,57.195,60.471,62.629,65.916,73.17,77.994,84.474,88.578,92.961,96.984,99.891,102.049,105.327,108.801,113.628,116.91,119.718,123.876,127.387,130.662,133.2,136.089,139.562,142.839,147.798,151.956,154.881,159.939,164.763,169.191,173.214,178.389,182.394,185.868,188.406,191.87900000000002,195.156,200.187,204.336,207.80900000000003,211.077,216.252,221.076,223.963,227.25,232.056,236.079,240.102,245.279,248.562,252.567,257.391,265.14,270.1,272.494,276.517,279.406,283.429,285.823" y="514.114" svg_rhmargin="290.167" style="fill:#171615;font-family:XZHYCD+MinionPro-Regular;font-size:9.46px;font-style:NORMAL;font-weight:normal;">(48). However, so far its pathogenesis has not been completely</text>
  <text x="44.829,49.896,54.324,59.346,62.856,66.879,71.876,74.034,78.858,83.88,86.769" y="525.571" svg_rhmargin="88.927" style="fill:#171615;font-family:XZHYCD+MinionPro-Regular;font-size:9.46px;font-style:NORMAL;font-weight:normal;">ﬁgured out.</text>
  <text x="56.286,62.118,67.176,71.199,74.709,78.73100000000001,80.496,84.654,88.164,92.186,93.951,97.425,102.249,109.998,114.02000000000001,115.785,118.179,120.717,128.466,131.004,133.947,138.105,140.994,143.532,148.356,153.531,157.00400000000002,158.769,161.307,166.48399999999998,168.246,173.07,178.092,181.603,183.375,191.124,195.147,198.09,202.248,205.614,209.772,214.947,219.105,221.499,225.846,229.32,231.858,235.33100000000002,237.087,240.012,245.043,249.201,252.088,253.845,257.274,262.332,267.156,272.178,274.572,279.569,281.331,286.137" y="537.028" svg_rhmargin="290.159" style="fill:#171615;font-family:XZHYCD+MinionPro-Regular;font-size:9.46px;font-style:NORMAL;font-weight:normal;">There are some limitations in our meta-analysis that should be</text>
  <text x="44.829,48.834,53.658,58.833,62.307,64.845,69.84,73.863,77.373,81.396,86.391,88.549,90.261,96.651,100.08,103.608,107.766,112.11,113.814,121.563,125.586,128.511,133.569,138.393,143.361,146.834,148.536,152.541,157.365,162.54,165.429,168.939,171.477,176.283,181.305,184.194,188.217,193.214,194.921,197.315,201.473,204.911,209.339,213.362,215.756,220.1,221.795,224.684,229.511,231.209,234.134,239.192,243.214,244.916,249.911,252.449,255.986,259.991,263.501,267.524,272.483,276.641,281.816,285.821" y="548.485" svg_rhmargin="290.165" style="fill:#171615;font-family:XZHYCD+MinionPro-Regular;font-size:9.46px;font-style:NORMAL;font-weight:normal;">considered. Assay methods contributed largely to the discrepancy</text>
  <text x="44.829,48.987,56.736,61.56,66.735,71.164,74.232,77.157,82.215,86.22,89.694,93.71600000000001,96.759,100.233,103.122,108.144,113.139,115.677,119.682,123.156,125.31400000000001,128.376,134.208,139.266,143.289,146.799,150.821,153.873,158.031,161.541,165.563,168.624,176.373,180.531,185.706,190.04999999999998,193.104,199.584,203.742,208.089,211.562,214.623,217.512,222.339,225.387,230.383,234.406,237.295,241.372,245.376,248.263,251.325,254.25,259.308,263.33,266.382,269.856,273.879,277.389,282.411" y="559.942" svg_rhmargin="290.162" style="fill:#171615;font-family:XZHYCD+MinionPro-Regular;font-size:9.46px;font-style:NORMAL;font-weight:normal;">among these studies. There are many ways to detect the serum</text>
  <text x="44.829,49.212,51.75,54.693,58.851,66.6,69.138,74.315,75.987,82.943,84.609,87.003,91.107,95.49,99.513,101.907,105.38,107.055,113.535,118.593,121.131,125.082,130.136,131.796,136.827,140.814,145.197,149.219,150.885,155.88,158.418,163.728,167.751,171.261,175.284,180.459,183.346,185.013,188.487,192.51,197.685,201.159,203.697,206.586,209.124,213.507,216.045,218.934,221.472,225.477,228.95000000000002,230.607,234.765,239.94,244.937,246.609,250.083,255.042,259.12,263.125,265.663,270.73,274.735,277.273,280.162,282.7,286.705" y="571.399" svg_rhmargin="290.178" style="fill:#171615;font-family:XZHYCD+MinionPro-Regular;font-size:9.46px;font-style:NORMAL;font-weight:normal;">vitamin D levels which have diﬀerent sensitivities and speciﬁcities</text>
  <text svg_rhmargin="290.177" x="44.829,48.105,52.65,57.195,60.471,62.629,66.438,72.135,74.673,77.067,79.461,83.259,88.434,93.258,99.741,103.554,106.479,111.537,115.56,119.07,123.092,126.891,129.429,132.90200000000002,136.701,141.876,146.703,150.507,153.981,156.519,161.694,166.122,168.516,172.53799999999998,176.346,178.884,183.879,187.947,192.105,194.499,198.297,201.186,205.263,209.214,214.272,219.447,221.985,226.818,231.84,235.862,239.67,242.559,247.386,251.181,254.655,259.002,264.177,267.102,272.16,276.165,279.639,282.177,286.155,290.17699999999996" y="90.20500000000004" style="fill:#171615;font-family:XZHYCD+MinionPro-Regular;font-size:9.46px;font-style:NORMAL;font-weight:normal;">(49). Till now there is no single ideal technique to synthesize </text>
  <text x="305.109,308.034,313.092,317.114,319.689,323.163,326.052,329.562,333.585,338.76,343.188,346.113,351.099,354.572,357.138,361.962,364.763,367.344,372.339,374.877,380.186,384.209,387.719,391.742,396.917,399.804,402.38,405.269,409.274,412.748,415.635,418.203,425.952,429.975,432.899,437.957,442.781,447.749,451.223,453.38100000000003,455.957,460.961,465.983,469.493,472.418,477.476,481.499,485.01000000000005,487.592,491.75,494.639,497.528,501.551,506.726,509.615,512.153,516.977,522.154,524.717,528.146,533.205,538.029,543.051,545.445" y="90.20500000000004" svg_rhmargin="550.442" style="fill:#171615;font-family:XZHYCD+MinionPro-Regular;font-size:9.46px;font-style:NORMAL;font-weight:normal;">the strengths of diﬀerent test methods. Further attention should</text>
  <text x="305.109,309.915,313.937,317.529,322.488,326.646,329.184,334.18100000000004,337.77,340.308,345.485,349.074,351.999,357.057,359.595,363.06800000000004,366.651,370.809,374.319,378.387,382.542,386.127,389.601,394.428,398.016,400.941,405.972,410.13,413.017,416.601,423.081,427.103,430.695,434.727,438.885,444.062,447.651,452.457,456.48,459.369,462.258,466.281,469.79200000000003,473.372,477.378,481.841,486.801,489.195,494.019,497.529,501.551,505.152,508.077,513.135,517.157,520.74,523.278,526.707,530.181,535.203,539.225,542.817,547.641" y="101.66200000000003" svg_rhmargin="550.442" style="fill:#171615;font-family:XZHYCD+MinionPro-Regular;font-size:9.46px;font-style:NORMAL;font-weight:normal;">be paid in this area so that we can better explore the issue of</text>
  <text x="305.109,309.492,312.03,314.973,319.131,326.88,329.418,334.595,338.445,345.401,349.254,351.792,356.969,360.819,366.147,373.104,375.262,379.115,385.505,388.978,392.832,395.63,400.455,403.966,407.826,412.65,415.575,420.633,424.656,428.16700000000003,432.017,436.022,440.847,446.021,448.82,453.645,458.667,463.841,468.836,471.374,476.549,480.97799999999995,484.848,487.655,491.795,495.8,498.689,503.513,506.96,510.433,514.286,517.562,521.585,523.745,528.173,530.333,532.491,536.345,539.819,543.824,548.288" y="113.11900000000003" svg_rhmargin="550.446" style="fill:#171615;font-family:XZHYCD+MinionPro-Regular;font-size:9.46px;font-style:NORMAL;font-weight:normal;">vitamin D in PD. As for other confounding factors (e.g., sex,</text>
  <text x="305.109,308.619,312.759,316.764,320.733,322.891,326.583,332.145,336.969,341.964,346.308,350.01,358.29,362.438,365.867,369.34000000000003,373.031,376.262,381.437,386.432,390.437,394.901,397.059,400.751,404.225,408.294,412.442,415.916,420.74,425.915,428.07300000000004,431.774,435.797,440.792,445.814,449.846,454.004,456.893,459.431,464.255,469.43,471.588,475.289,479.447,484.622,487.511,490.049,493.415,498.744,505.70000000000005,509.391,514.386,517.896,522.918,527.328,530.802,534.078,536.236,539.937,546.417" y="124.57600000000002" svg_rhmargin="550.439" style="fill:#171615;font-family:XZHYCD+MinionPro-Regular;font-size:9.46px;font-style:NORMAL;font-weight:normal;">race, Body Mass Index, season, education, anti-PD drugs), we</text>
  <text x="305.109,309.114,313.938,318.96,321.354,326.351,330.03,335.205,340.029,342.916,346.59,350.595,355.419,360.594,364.599,366.993,372.015,377.01,381.032,384.714,388.872,394.047,398.394,401.319,406.377,408.915,414.09,418.51899999999995,422.181,426.204,428.598,432.072,436.094,439.767,444.762,449.784,453.806,457.488,460.377,465.204,468.873,471.411,476.586,480.591,485.415,493.164,498.124,500.518,504.541,507.43,511.452,515.125,520.138,524.296,527.239,531.397,533.5550000000001,537.229,546.418" y="136.03300000000002" svg_rhmargin="550.44" style="fill:#171615;font-family:XZHYCD+MinionPro-Regular;font-size:9.46px;font-style:NORMAL;font-weight:normal;">could not conclude anything else due to incomplete data. We</text>
  <text x="305.109,309.933,315.108,317.502,321.846,324.099,327.573,332.595,340.344,348.093,352.251,355.761,358.299,362.277,366.3,371.297,373.545,376.47,381.528,385.55,387.792,390.33,395.505,398.304,403.128,406.638,414.387,418.545,421.434,423.972,428.796,433.973,436.221,439.02,442.53,447.354,455.10499999999996,457.362,464.616,471.348,477.348,479.583,483.057,486.0,490.104,494.532,498.537,502.01,504.251,508.409,513.584,518.5809999999999,520.83,527.795,533.123,540.08,545.958" y="147.49" svg_rhmargin="550.444" style="fill:#171615;font-family:XZHYCD+MinionPro-Regular;font-size:9.46px;font-style:NORMAL;font-weight:normal;">only summarized the information from H&amp;Y stages and UPDRS</text>
  <text x="305.109,308.34,311.571,314.798,318.618,322.155,326.16,330.984,334.494,338.499,341.973,344.13100000000003,347.967,352.791,355.716,360.774,364.797,368.30800000000005,372.141,374.679,379.854,384.849,388.854,393.318,397.323,400.796,404.631,411.111,416.169,418.707,422.658,427.712,431.532,438.012,442.035,445.545,449.567,453.402,455.94,460.935,464.958,470.133,473.022,475.56,479.591,483.749,486.143,488.537,492.881,496.709,501.092,503.63,506.573,510.731,513.125,516.95,519.839,524.666,528.497,532.646,536.075,539.549,543.554,546.983" y="158.947" svg_rhmargin="550.456" style="fill:#171615;font-family:XZHYCD+MinionPro-Regular;font-size:9.46px;font-style:NORMAL;font-weight:normal;">III scores, other indexes which were identically vital to assess</text>
  <text x="305.109,310.437,317.39300000000003,321.984,325.458,329.805,337.554,342.513,345.402,350.226,357.975,361.449,363.607,368.208,371.682,376.704,380.655,385.70899999999995,390.303,394.452,397.925,402.516,405.405,410.229,413.172,417.33,419.724,424.314,431.28,436.608,443.565,449.442,453.924,456.082,460.674,467.64,472.968,479.925,485.803,490.289,494.884,498.115,501.346,503.504,508.087,513.262,518.086,523.261,526.627,534.376,539.2,542.089,546.913" y="170.404" svg_rhmargin="550.424" style="fill:#171615;font-family:XZHYCD+MinionPro-Regular;font-size:9.46px;font-style:NORMAL;font-weight:normal;">PD symptoms, such as total UPDRS, UPDRS II, non-motor</text>
  <text x="305.109,308.583,312.93,320.679,325.638,328.527,333.351,341.1,344.57300000000004,347.814,351.352,355.384,359.542,361.936,365.95799999999997,369.189,373.347,378.522,383.519,386.748,390.222,395.049,398.286,403.11,408.285,410.44300000000004,413.685,419.563,423.586,425.98,430.138,433.027,435.565,439.948,443.96999999999997,447.193,450.667,453.556,458.578,463.573,466.111,470.116,473.589,476.821,480.979,484.489,488.51099999999997,491.743,495.253,499.411,502.92,506.942,510.184,513.658,518.485,521.712,524.637,529.668,533.826,536.713,539.937,546.417" y="181.861" svg_rhmargin="550.439" style="fill:#171615;font-family:XZHYCD+MinionPro-Regular;font-size:9.46px;font-style:NORMAL;font-weight:normal;">symptoms scale and so on. Relative studies are rare so that we</text>
  <text x="305.109,309.114,313.938,318.96,321.354,326.351,328.95,334.125,338.949,341.836,344.43,349.425,354.252,356.85,359.649,364.671,368.181,371.106,376.164,380.187,383.69800000000004,386.289,390.447,395.622,399.78,402.174,406.521,409.995,412.533,416.007,418.165,420.75,429.939,433.961,436.554,441.585,445.572,449.955,453.977,456.561,459.45,464.277,466.866,470.898,475.056,480.078,482.967,485.505,490.329,495.351,498.825,501.219,505.563,508.158,512.163,516.627,521.587,523.981,528.139,530.677,535.854,538.444,541.369,546.426" y="193.31799999999998" svg_rhmargin="550.448" style="fill:#171615;font-family:XZHYCD+MinionPro-Regular;font-size:9.46px;font-style:NORMAL;font-weight:normal;">could not do further analysis. We have to cautiously explain the</text>
  <text x="305.109,310.176,315.351,320.346,322.884,328.059,332.488,334.35,339.174,341.97499999999997,343.845,346.77,351.828,355.84999999999997,357.705,361.215,365.238,367.632,371.79,374.679,377.217,382.041,387.216,390.645,395.703,398.241,403.2,405.054,409.86,413.883,416.772,423.252,427.275,431.298,436.475,438.336,442.719,445.257,448.2,452.358,460.107,462.645,467.822,469.683,476.639,478.503,480.897,485.001,489.384,493.407,495.801,499.274,501.138,505.296,510.471,515.468,517.329,522.324,527.346,530.856,535.014,537.903,540.441,545.265" y="204.77499999999998" svg_rhmargin="550.442" style="fill:#171615;font-family:XZHYCD+MinionPro-Regular;font-size:9.46px;font-style:NORMAL;font-weight:normal;">ﬁnding of the relationship between vitamin D levels and duration</text>
  <text x="305.109,309.933,312.734,315.315,320.643,327.599,330.183,334.341,339.516,344.51300000000003,347.085,351.189,355.617,359.639,362.214,367.038,369.839,372.42,377.748,384.704,387.287,392.247,396.405,399.294,401.832,405.855,411.03,413.919,417.392,419.55,422.117,430.55,435.374,438.884,442.906,445.49,448.964,451.853,456.875,461.87,464.408,468.413,471.886,474.47,478.628,482.138,486.15999999999997,488.735,493.91,497.933,501.956,506.951,510.974,515.971,518.552,521.441,526.268,528.848,533.231,537.254,540.764,543.302,546.101" y="216.23199999999997" svg_rhmargin="550.445" style="fill:#171615;font-family:XZHYCD+MinionPro-Regular;font-size:9.46px;font-style:NORMAL;font-weight:normal;">of PD and age of PD patients. More studies are needed to verify</text>
  <text x="305.109,309.933,314.955,318.466,320.67,324.675,329.499,334.674,338.679,341.073,346.095,349.569,352.107,356.931,362.108,364.311,369.306,374.328,378.34999999999997,380.547,383.436,388.263,390.456,393.381,398.439,402.461,404.658,408.132,415.881,420.039,422.433,424.827,427.023,430.551,434.709,442.458,447.417,449.811,453.83299999999997,456.03,459.504,462.042,466.02,470.042,472.23,474.768,479.945,482.139,485.064,490.122,494.144,496.332,504.081,508.104,511.047,515.205,518.571,522.729,527.904,532.062,534.456,538.802,542.276,544.815,548.288" y="227.68899999999996" svg_rhmargin="550.446" style="fill:#171615;font-family:XZHYCD+MinionPro-Regular;font-size:9.46px;font-style:NORMAL;font-weight:normal;">our conclusion due to the small sample size in the meta-analysis.</text>
  <text x="305.109,308.34,313.517,315.162,319.32,324.315,329.31,331.848,334.737,337.275,342.099,347.274,349.432,351.081,357.561,361.58299999999997,363.231,368.226,370.764,375.761,377.415,382.59,387.414,390.301,391.95,396.108,401.283,405.441,407.836,412.183,416.161,420.183,421.822,424.747,429.805,433.827,435.466,439.615,443.044,446.518,451.342,455.347,457.885,462.043,464.932,467.47,472.294,477.471,479.107,483.931,486.73199999999997,488.386,493.714,500.67,502.318,508.798,511.336,514.26,519.314,520.966,525.349,527.887,530.83,534.987,542.736,545.274" y="239.14599999999996" svg_rhmargin="550.451" style="fill:#171615;font-family:XZHYCD+MinionPro-Regular;font-size:9.46px;font-style:NORMAL;font-weight:normal;">In addition, we did not analyze the association of PD with vitamin</text>
  <text x="305.109,312.065,315.171,317.97,321.48,326.304,334.05499999999995,337.167,342.162,344.7,350.01,354.033,357.543,361.566,366.741,369.628,372.735,376.209,381.033,386.055,389.439,393.444,397.449,400.922,404.037,406.575,408.735,412.758,414.918,417.076,420.174,424.557,427.095,430.038,434.196,441.945,444.483,449.66,452.763,459.72,464.26300000000003,467.361,470.637,475.632,478.17,482.193,485.136,489.294,492.804,497.151,500.426,503.532,507.69,512.865,517.862,520.965,525.348,527.886,530.829,534.987,542.736,545.274" y="250.60299999999995" svg_rhmargin="550.451" style="fill:#171615;font-family:XZHYCD+MinionPro-Regular;font-size:9.46px;font-style:NORMAL;font-weight:normal;">D from diﬀerent sources i.e., vitamin D2 (dietary) and vitamin</text>
  <text x="305.109,312.066,316.609,319.077,322.353,330.102,334.26,336.798,341.973,344.367,348.711,351.18,354.654,359.676,364.851,367.245,369.783,374.265,379.323,382.212,385.488,387.646,390.114,395.118,397.656,402.831,406.989,409.383,411.777,416.124,418.28200000000004,420.741,423.666,428.724,432.747,436.257,440.279,442.746,446.904,450.414,454.436,456.903,461.727,466.902,469.296,473.64,476.109,480.26399999999995,482.733,485.532,489.555,496.038,498.51,501.984,504.873,509.895,514.89,517.428,521.433,524.906,527.372,533.853,538.911,541.449,545.4" y="262.05999999999995" svg_rhmargin="550.454" style="fill:#171615;font-family:XZHYCD+MinionPro-Regular;font-size:9.46px;font-style:NORMAL;font-weight:normal;">D3 (mainly sunlight). Finally, there are only a few studies which</text>
  <text x="305.109,307.908,312.732,316.737,321.759,325.233,329.256,334.253,336.357,341.181,346.358,348.453,351.378,356.436,360.45799999999997,362.556,366.939,369.477,372.42,376.578,384.327,386.865,392.04200000000003,394.128,401.084,403.182,406.656,411.678,416.637,421.597,423.991,428.014,435.763,439.786,444.961,447.848,449.947,454.105,459.28,464.277,466.372,468.91,471.799,475.272,477.369,480.879,484.902,487.296,491.454,494.343,496.881,501.705,506.882,508.968,511.857,516.6840000000001,518.778,524.106,531.062,533.16,536.436,540.981,545.526" y="273.51700000000005" svg_rhmargin="550.448" style="fill:#171615;font-family:XZHYCD+MinionPro-Regular;font-size:9.46px;font-style:NORMAL;font-weight:normal;">focused on the vitamin D supplement and its relation to PD (50–</text>
  <text x="305.109,309.654,314.199,317.475,319.63300000000004,322.677,326.835,332.01,337.007,340.056,344.88,350.055,352.449,356.793,359.847,364.671,369.846,373.868,376.929,381.924,386.748,391.77,396.576,398.97,402.992,406.053,410.859,413.253,415.791,420.966,425.961,429.984,434.981,438.03,443.844,450.135,455.974,459.027,462.501,465.39,470.412,475.407,479.751,482.805,486.081,490.626,495.162,498.438,500.596,503.649,510.723,515.745,519.256,522.306,526.311,531.333,534.843,538.353,542.376,547.551" y="284.97400000000005" svg_rhmargin="550.438" style="fill:#6d6d6c;font-family:XZHYCD+MinionPro-Regular;font-size:9.46px;font-style:NORMAL;font-weight:normal;">52), and only one double blinded RCT study (50). Our current</text>
  <text x="305.109,312.858,316.881,319.824,323.982,327.348,331.506,336.681,340.839,343.233,347.58,351.054,353.592,357.065,359.208,363.24,367.398,372.573,377.748,382.572,385.459,387.612,391.635,394.029,399.051,403.056,405.594,410.607,414.765,417.654,421.676,423.819,426.744,431.802,435.824,437.976,441.486,446.31,448.704,452.726,454.878,459.702,462.503,464.652,469.035,471.573,474.516,478.674,486.423,488.961,494.13800000000003,496.287,499.797,503.82,508.779,511.173,515.314,519.319,523.342,531.091,535.113,540.288,543.177" y="296.431" svg_rhmargin="545.335" style="fill:#171615;font-family:XZHYCD+MinionPro-Regular;font-size:9.46px;font-style:NORMAL;font-weight:normal;">meta-analysis cannot elucidate the role of vitamin replacement.</text>
  <text x="305.109,313.965,323.262,332.118,340.974,348.066,356.922,364.68,368.208,377.505" y="319.84" svg_rhmargin="386.364" style="fill:#171615;font-family:IUMUOI+HelveticaNeueLTStd-Bd;font-size:11.96px;font-style:NORMAL;font-weight:normal;">CONCLUSION</text>
  <text x="305.109,308.34,313.517,315.531,319.005,324.027,331.776,339.525,343.683,347.193,351.54,353.69800000000004,355.716,360.54,365.562,369.07300000000004,371.106,378.855,382.878,385.821,389.979,393.345,397.503,402.678,406.836,409.23,413.577,417.051,419.589,423.062,425.069,427.607,432.782,437.777,440.315,444.347,448.505,451.394,455.417,460.414,462.428,465.353,470.384,474.542,477.429,479.438,481.832,486.656,493.139,495.161,498.635,502.658,506.168,511.19,518.941,520.964,525.347,527.885,530.828,534.986,542.735,545.274" y="340.765" svg_rhmargin="550.451" style="fill:#171615;font-family:XZHYCD+MinionPro-Regular;font-size:9.46px;font-style:NORMAL;font-weight:normal;">In summary, our meta-analysis indicated that low serum vitamin</text>
  <text x="305.109,312.065,314.946,317.34,321.444,325.827,329.85,332.244,335.71700000000004,338.598,345.078,349.101,352.611,356.633,359.514,364.509,367.047,370.557,374.634,378.639,381.528,383.922,388.266,391.14,395.145,399.969,403.479,406.989,411.012,413.406,417.564,420.453,424.476,429.473,432.351,435.24,440.067,442.944,445.869,450.927,454.949,457.821,461.295,465.399,469.782,473.805,477.315,479.853,482.742,487.086,489.96,494.784,497.585,500.472,503.946,508.293,516.042,521.001,523.89,528.714,536.463,539.9359999999999,542.817,547.641" y="352.222" svg_rhmargin="550.442" style="fill:#171615;font-family:XZHYCD+MinionPro-Regular;font-size:9.46px;font-style:NORMAL;font-weight:normal;">D levels were directly correlated to the severity of symptoms of</text>
  <text x="305.109,310.437,317.39300000000003,321.291,325.449,330.624,335.62100000000004,339.516,342.054,347.229,351.234,354.744,358.812,362.961,366.435,370.458,375.45500000000004,379.341,382.851,385.389,388.863,393.557,397.458,402.282,405.08299999999997,408.978,413.973,418.077,422.46,426.483,428.877,433.701,438.66,441.198,446.373,450.80199999999996,454.707,460.035,466.992,469.15000000000003,473.04,480.114,485.136,488.64700000000005,492.543,496.053,500.058,503.532,508.554,510.948,513.837,517.31,521.208,526.167,529.677,534.501,538.884,541.422,546.417" y="363.679" svg_rhmargin="550.439" style="fill:#171615;font-family:XZHYCD+MinionPro-Regular;font-size:9.46px;font-style:NORMAL;font-weight:normal;">PD and increased risk of developing PD. Our results provide</text>
  <text x="305.109,309.267,314.444,318.411,320.949,326.124,330.129,333.639,337.662,345.411,349.434,354.609,357.552,361.71,364.104,368.073,372.177,376.56,379.098,384.093,388.116,393.291,397.296,401.318,405.288,408.177,413.004,416.979,421.083,425.457,429.615,432.008,437.031,441.188,444.077,448.099,452.06,454.985,460.043,464.065,468.035,471.545,476.369,478.763,482.78499999999997,486.755,491.579,494.38,498.356,502.739,505.277,508.22,512.378,520.127,522.665,527.842,531.809,538.765,542.727,545.265" y="375.136" svg_rhmargin="550.442" style="fill:#171615;font-family:XZHYCD+MinionPro-Regular;font-size:9.46px;font-style:NORMAL;font-weight:normal;">an incremental evidence to evaluate the role of vitamin D in</text>
  <text x="305.109,308.034,313.092,317.114,321.939,326.898,330.408,335.233,339.661,343.171,347.175,350.604,354.078,356.616,361.44,366.617,371.449,376.273,379.074,383.904,389.232,396.189,398.34700000000004,403.174,409.563,413.036,417.861,422.01599999999996,426.843,431.803,436.627,439.516,443.539,448.714,451.603,454.141,458.299,460.693,465.517,470.323,472.861,477.685,485.434,489.592,493.102,497.8,501.823,505.334,510.166,512.965,517.789,521.3,526.132,531.46,538.039,540.197,545.023,547.561" y="386.593" svg_rhmargin="550.448" style="fill:#171615;font-family:XZHYCD+MinionPro-Regular;font-size:9.46px;font-style:NORMAL;font-weight:normal;">the progression of PD. As a potential biomarker for PD, it</text>
  <text x="305.109,308.538,313.596,318.42,323.442,325.836,330.833,334.701,339.507,343.529,347.4,351.405,356.229,361.404,364.878,367.416,372.411,376.434,379.944,383.967,388.964,392.841,395.73,400.557,404.424,412.173,416.997,422.172,424.71,427.599,432.423,435.934,439.811,442.736,447.794,451.816,455.679,459.153,463.176,466.686,471.708,479.459,483.336,487.719,490.257,493.2,497.358,505.107,507.645,512.822,516.689,523.645,527.507,529.901,534.005,538.388,542.411,544.805,548.279" y="398.05" svg_rhmargin="550.437" style="fill:#171615;font-family:XZHYCD+MinionPro-Regular;font-size:9.46px;font-style:NORMAL;font-weight:normal;">should be considered to monitor the serum vitamin D levels.</text>
  <text x="305.109,312.363,317.187,323.667,327.771,332.154,336.177,339.084,341.242,343.611,351.36,356.184,359.694,363.716,366.093,371.151,373.689,378.171,383.22499999999997,385.596,390.429,395.451,399.609,402.004,404.542,407.431,411.775,414.145,416.539,421.363,426.538,430.966,433.504,436.393,441.415,446.41,448.948,454.123,458.281,460.675,463.05,466.56,470.718,475.893,480.888,485.712,493.461,495.999,499.977,504.0,508.997,511.362,514.872,518.877,522.351,526.419,530.577,533.962,537.913,542.971,546.976" y="409.507" svg_rhmargin="550.449" style="fill:#171615;font-family:XZHYCD+MinionPro-Regular;font-size:9.46px;font-style:NORMAL;font-weight:normal;">However, more high quality longitudinal randomized researches</text>
  <text x="305.109,309.267,312.777,316.799,321.921,326.943,330.381,334.809,338.832,344.007,346.896,349.291,353.635,358.759,363.934,367.957,371.98,376.975,380.998,385.995,391.123,394.012,398.839,403.966,408.124,413.119,418.114,421.624,425.629,429.057,432.53000000000003,437.652,440.577,445.635,449.657,454.779,459.954,464.031,468.036,472.041,475.47,478.998,483.156,486.666,491.01,496.125,500.949,503.75,508.878,513.261,515.799,518.743,522.901,530.649,533.188,538.365,543.484" y="420.964" svg_rhmargin="550.44" style="fill:#171615;font-family:XZHYCD+MinionPro-Regular;font-size:9.46px;font-style:NORMAL;font-weight:normal;">are urgently needed to address the necessary of vitamin D</text>
  <text x="305.109,308.619,312.642,317.601,319.996,324.136,328.141,332.164,339.913,343.936,349.111,351.998,354.142,356.68,361.857,364.006,369.334,376.291" y="432.421" svg_rhmargin="378.449" style="fill:#171615;font-family:XZHYCD+MinionPro-Regular;font-size:9.46px;font-style:NORMAL;font-weight:normal;">replacement in PD.</text>
  <text x="305.109,313.299,322.155,329.463,338.319,347.616,356.248,359.577,368.433,377.73,386.586,393.894,402.525,406.053,414.468,423.324,430.632,434.16,443.457,452.313" y="457.828" svg_rhmargin="460.072" style="fill:#171615;font-family:IUMUOI+HelveticaNeueLTStd-Bd;font-size:11.96px;font-style:NORMAL;font-weight:normal;">AUTHOR CONTRIBUTIONS</text>
  <text x="305.109,311.301,316.395,318.553,321.588,327.78,332.685,334.843,337.869,342.027,347.202,352.199,355.239,361.117,368.187,371.215,376.21,378.748,383.745,386.785,389.71,394.768,398.78999999999996,401.824,404.218,406.756,409.645,413.668,417.178,421.336,424.224,429.247,432.757,436.779,439.813,443.323,447.427,451.81,454.348,458.371,464.851,467.009,470.053,476.245,481.337,484.372,489.367,491.905,496.902,499.933,502.858,507.916,511.938,514.972,518.446,521.389,525.547,528.436,530.974,534.447,537.336,539.874,543.906,548.064" y="478.744" svg_rhmargin="550.459" style="fill:#171615;font-family:XZHYCD+MinionPro-Regular;font-size:9.46px;font-style:NORMAL;font-weight:normal;">XL, YT, and RO did the literature review. XL did the statistical</text>
  <text x="305.109,309.267,314.442,318.6,320.995,325.342,328.816,331.354,334.828,336.986,340.642,347.185,349.579,351.973,355.618,359.776,364.798,367.723,372.781,377.605,381.052,384.52500000000003,388.171,393.202,397.189,401.572,405.594,409.241,412.715,415.253,419.681,424.856,427.394,432.461,436.493,440.651,445.825,448.714,451.108,455.452,459.1,463.105,467.929,473.104,475.993,479.503,482.041,486.847,491.869,494.758,498.781,503.778,507.43,512.425,514.963,518.5,522.505,527.527,530.955,534.429,536.967,541.791,546.966" y="490.201" svg_rhmargin="550.439" style="fill:#171615;font-family:XZHYCD+MinionPro-Regular;font-size:9.46px;font-style:NORMAL;font-weight:normal;">analysis. All authors have signiﬁcantly contributed discussions</text>
  <text x="305.109,309.933,315.11,318.726,321.651,326.709,330.731,334.35,342.099,346.257,351.432,356.454,359.991,363.996,367.506,370.044,375.003,377.89,381.511,385.669,390.844,395.841,399.457,402.967,407.071,411.454,413.992,418.015,424.495,428.518,433.515,437.131,440.056,445.114,449.13599999999997,452.755,457.714,461.872,466.831,470.854,474.365,477.973,482.968,487.99,491.5,494.038,499.213,503.642,507.268,510.193,515.251,519.273,522.883,529.363,532.873,535.411,538.3,540.838,546.013" y="501.658" svg_rhmargin="550.442" style="fill:#171615;font-family:XZHYCD+MinionPro-Regular;font-size:9.46px;font-style:NORMAL;font-weight:normal;">on the manuscript and reviewed the paper during the writing</text>
  <text x="305.109,310.068,313.578,318.402,322.407,326.413,329.842,333.316" y="513.114" svg_rhmargin="335.474" style="fill:#171615;font-family:XZHYCD+MinionPro-Regular;font-size:9.46px;font-style:NORMAL;font-weight:normal;">process.</text>
  <text x="305.109,312.867,321.723,329.697,337.671,344.763,352.512,363.357,371.106,379.962,386.388,394.578,402.768,410.74199999999996,414.054,424.899,432.207,439.515,447.264,455.895,459.423,467.613" y="538.521" svg_rhmargin="474.702" style="fill:#171615;font-family:IUMUOI+HelveticaNeueLTStd-Bd;font-size:11.96px;font-style:NORMAL;font-weight:normal;">SUPPLEMENTARY MATERIAL</text>
  <text x="305.109,310.941,315.999,320.021,325.899,330.381,335.403,340.362,345.322,347.716,351.739,359.488,363.511,368.686,371.629,375.787,379.297,383.641,389.539,397.819,401.977,404.866,408.889,412.399,414.937,419.095,421.48900000000003,427.366,430.165,434.989,438.5,444.385,447.31,452.368,454.906,458.379,464.257,468.415,471.925,474.814,477.352,481.357,483.751,487.77299999999997,493.651,497.683,501.841,507.01800000000003,512.902,517.708,521.73,527.617,530.416,535.24,540.262,545.437" y="559.446" svg_rhmargin="550.434" style="fill:#171615;font-family:XZHYCD+MinionPro-Regular;font-size:9.46px;font-style:NORMAL;font-weight:normal;">The Supplementary Material for this article can be found</text>
  <text x="305.109,309.933,315.108,317.502,320.04,325.215,329.23699999999997,338.733,342.891,345.78,347.938,357.435,362.493,365.382,368.271,373.231,376.705,378.865,381.997,385.129,391.609,398.089,404.569,406.729,409.528,413.038,417.862,423.037,425.926,428.464,432.487,435.934,439.408,441.946,447.121,449.281,454.105,457.543,461.971,465.103,469.261,472.771,475.66,478.198,482.203,484.596,488.601,492.076,495.207,499.752,504.297,506.457,511.002,515.547,520.092,524.637,527.769,530.568,535.743,539.766,544.788,548.298" y="570.903" svg_rhmargin="550.456" style="fill:#171615;font-family:XZHYCD+MinionPro-Regular;font-size:9.46px;font-style:NORMAL;font-weight:normal;">online at: https://www.frontiersin.org/articles/10.3389/fneur.</text>
  <text x="305.109,309.654,314.199,318.744,323.289,325.449,329.994,334.539,339.084,343.629,348.174,351.306,354.105,359.127,361.521,363.916,368.461,371.935,376.957,381.916,386.875,389.27,393.293,401.042,405.065,410.24,413.183,417.341,420.851,425.198,428.564,436.313,440.471,443.36,447.383,450.893,453.431,457.589" y="582.36" svg_rhmargin="459.984" style="fill:#171615;font-family:XZHYCD+MinionPro-Regular;font-size:9.46px;font-style:NORMAL;font-weight:normal;">2018.00909/full#supplementary-material</text>
  <text x="44.829,53.46,61.209,68.301,76.05,84.681,92.43,101.286,110.142,117.891" y="626.64" svg_rhmargin="125.65" style="fill:#171615;font-family:IUMUOI+HelveticaNeueLTStd-Bd;font-size:11.96px;font-style:NORMAL;font-weight:normal;">REFERENCES</text>
  <text x="48.42,52.011,53.715,58.689,63.738,66.537,69.651,73.638,76.815,79.587,81.585,85.39599999999999,92.358,97.524,99.228,106.191,109.845,112.959,116.946,122.067,125.343,128.115,131.256,134.055,137.169,141.156,143.154,145.045,148.98999999999998,155.971,162.631,167.797,169.501,176.455,181.054,185.041,188.21699999999998,195.193,198.37,202.285,204.283,208.225,211.402,217.521,219.519,223.326,225.217,229.024,232.525,235.955,242.938,246.745,248.957,255.925,259.966,263.242,266.014,269.722,271.72,275.806,278.551,282.358,286.444,287.416" y="645.576" svg_rhmargin="290.158" style="fill:#171615;font-family:XZHYCD+MinionPro-Regular;font-size:7.47px;font-style:NORMAL;font-weight:normal;">1. Ascherio A, Schwarzschild MA. The epidemiology of Parkinson’s</text>
  <text svg_rhmargin="175.774" x="58.689,62.631,64.629,67.374,70.587,73.854,76.599,79.776,81.47999999999999,85.752,88.525,90.523,93.268,96.974,101.233,103.456,106.713,109.872,112.149,115.956,118.675,121.417,125.685,128.961,133.047,136.992,141.255,145.171,147.943,151.183,154.639,157.816,161.902,164.179,166.177,169.984,174.07,175.774" y="655.035" style="fill:#171615;font-family:XZHYCD+MinionPro-Regular;font-size:7.47px;font-style:NORMAL;font-weight:normal;">disease: risk factors and prevention. </text>
  <text svg_rhmargin="226.153" x="180.045,184.041,187.704,191.682,194.535,197.46,199.75400000000002,204.048,209.313,212.301,216.288,219.024,222.534,224.397,226.153" y="655.035" style="fill:#171615;font-family:JUPOUJ+MinionPro-It;font-size:7.47px;font-style:NORMAL;font-weight:normal;">Lancet Neurol. </text>
  <text x="230.409,232.992,236.583,240.174,243.765,247.356,249.941,254.178,257.769,261.36,263.061,266.652,270.243,273.834,277.425,281.313,284.904,288.495" y="655.035" svg_rhmargin="290.199" style="fill:#171615;font-family:XZHYCD+MinionPro-Regular;font-size:7.47px;font-style:NORMAL;font-weight:normal;">(2016) 15:1257–72.</text>
  <text x="58.689,62.631,66.438,68.436,70.14,71.847,75.438,79.029,80.73,84.321,87.912,91.503,95.094,97.569,100.314,103.905,107.496,111.087,114.678,117.342,120.933,124.524,128.115,131.706,134.289,137.88,141.471,144.054,147.645,151.236,154.827,158.418,162.009,164.673" y="664.5029999999999" svg_rhmargin="168.26" style="fill:#171615;font-family:XZHYCD+MinionPro-Regular;font-size:7.47px;font-style:NORMAL;font-weight:normal;">doi: 10.1016/s1474-4422(16)30230-7</text>
  <text x="48.42,52.011,53.715,58.689,62.253,65.529,71.649,75.618,78.795,80.685,82.323,85.869,87.573,89.208,92.754,94.752,97.029,99.802,101.8,105.887,107.532,114.192,119.682,121.386,123.03,127.935,129.933,132.255,135.531,141.651,143.649,147.736,149.382,154.638,155.61,158.352,159.992,162.765,166.572,168.462,171.63799999999998,173.286,175.284,179.37099999999998,181.017,184.176,187.353,189.243,191.13299999999998,192.772,196.687,199.459,203.266,205.156,207.154,209.368,212.545,215.318,218.594,220.871,222.869,226.676,230.76299999999998,232.417,235.693,239.779,243.724,245.369,249.311,251.309,255.503,258.68,261.452,264.629,268.712,270.989,272.987,276.263,278.54,280.538,284.345,288.431" y="673.971" svg_rhmargin="290.135" style="fill:#171615;font-family:XZHYCD+MinionPro-Regular;font-size:7.47px;font-style:NORMAL;font-weight:normal;">2. Samuel S, Sitrin MD. Vitamin D’s role in cell proliferation and diﬀerentiation.</text>
  <text svg_rhmargin="87.274" x="58.689,63.954,67.941,70.236,72.971,74.682,79.155,82.179,85.518,87.274" y="683.4300000000001" style="fill:#171615;font-family:JUPOUJ+MinionPro-It;font-size:7.47px;font-style:NORMAL;font-weight:normal;">Nutr Rev. </text>
  <text x="88.974,91.557,95.148,98.739,102.33,105.921,108.506,110.187,113.778,117.369,119.07,122.616,126.207,129.798,133.389,137.277,140.868,144.459,146.163,147.825,151.767,155.574,157.572,159.276,160.983,164.574,168.165,169.866,173.457,177.048,180.639,184.23,186.705,188.622,190.323,193.914,197.505,201.096,204.687,207.351,210.942,214.533,218.124,221.715,223.416,227.007,230.598,234.189,237.78,239.481,243.072,246.663,250.254,253.845,257.436,259.137" y="683.4300000000001" svg_rhmargin="262.664" style="fill:#171615;font-family:XZHYCD+MinionPro-Regular;font-size:7.47px;font-style:NORMAL;font-weight:normal;">(2008) 66:S116–24. doi: 10.1111/j.1753-4887.2008.00094.x</text>
  <text x="48.42,52.011,53.715,58.689,63.729,67.005,68.895,72.351,75.528,77.419,79.309,83.12,85.213,89.965,91.669,93.745,98.713,100.711,103.987,108.073,111.232,113.23,117.199,119.089,120.98,122.982,125.084,130.25,131.954,134.03,139.583,141.581,144.74,148.547,150.437,153.713,156.485,160.427,162.429,164.532,169.878,171.582,173.658,179.148,182.32399999999998,184.413,189.966,193.935,197.103,200.262,202.26,206.071,208.155,211.287,212.991,215.076,220.422,222.42,225.696,229.782,233.868,237.675,239.952,242.229,244.23100000000002,246.324,250.347,252.05100000000002,254.136,257.7,260.973,262.863,266.31,269.586,271.863,275.67,278.442,281.618,283.716,288.468" y="692.898" svg_rhmargin="290.172" style="fill:#171615;font-family:XZHYCD+MinionPro-Regular;font-size:7.47px;font-style:NORMAL;font-weight:normal;">3. Calvello R, Cianciulli A, Nicolardi G, De Nuccio F, Giannotti L, Salvatore R,</text>
  <text x="58.689,61.866,64.145,66.276,69.552,71.443,73.14699999999999,75.277,80.182,82.18,84.502,87.778,93.897,95.895,99.982,102.123,107.61500000000001,109.746,112.023,114.795,118.008,121.284,123.561,129.681,132.858,136.944,139.22299999999998,141.363,144.639,146.916,149.193,152.37,156.456,160.425,163.701,165.978,169.137,171.879,174.024,178.11,181.287,185.256,188.028,191.835,193.833,197.919,201.906,205.182,211.301,217.421,220.697,222.974,224.972,228.779,232.86599999999999,235.016,238.292,242.378,246.32299999999998,248.453,252.395,256.202,260.117,263.393,269.513,271.511,275.597,278.774,281.484,284.985,286.983" y="702.357" svg_rhmargin="290.144" style="fill:#171615;font-family:XZHYCD+MinionPro-Regular;font-size:7.47px;font-style:NORMAL;font-weight:normal;">et al. Vitamin D treatment attenuates neuroinﬂammation and dopaminergic</text>
  <text x="58.689,62.775,65.952,69.921,72.693,76.5,80.442,83.628,87.129,90.306,94.392,97.569,100.341,103.617,105.894,107.892,111.699,115.786,118.602,120.6,124.687,127.503,130.779,134.86599999999999,137.682,140.958,145.044,147.042,153.162,156.438,158.32799999999997,161.145,167.265,171.072,175.014,178.191,180.081,182.898,186.705,188.917,191.727,195.768,199.044,201.816,205.524,207.522,211.608,214.353,218.16,222.246,223.218,225.95999999999998,228.78,232.722,234.72,237.465,240.678,243.946,246.691,249.823,251.52700000000002,254.34,257.049,261.036,263.034,265.248,267.525,269.523,273.609,277.106,279.918,286.578" y="711.825" svg_rhmargin="290.165" style="fill:#171615;font-family:XZHYCD+MinionPro-Regular;font-size:7.47px;font-style:NORMAL;font-weight:normal;">neurodegeneration in an animal model of Parkinson’s disease, shifting M1</text>
  <text svg_rhmargin="143.535" x="58.689,60.966,64.777,67.824,74.484,78.071,81.117,87.237,89.235,92.394,95.166,98.973,102.474,104.364,106.362,109.642,112.698,115.47,118.629,121.374,125.289,129.096,133.182,135.927,139.086,141.831,143.535" y="721.293" style="fill:#171615;font-family:XZHYCD+MinionPro-Regular;font-size:7.47px;font-style:NORMAL;font-weight:normal;">to M2 microglia responses. </text>
  <text svg_rhmargin="232.156" x="146.583,148.982,152.046,157.311,160.299,164.286,167.022,170.532,172.575,178.452,184.329,188.316,192.294,195.28300000000002,198.351,202.463,206.235,209.898,212.634,218.511,222.174,225.027,228.537,230.4,232.156" y="721.293" style="fill:#171615;font-family:JUPOUJ+MinionPro-It;font-size:7.47px;font-style:NORMAL;font-weight:normal;">J Neuroimmune Pharmacol. </text>
  <text x="235.206,237.789,241.38,244.971,248.562,252.153,254.738,257.769,261.36,264.951,266.652,270.243,273.834,277.425,281.313,284.904,288.495" y="721.293" svg_rhmargin="290.199" style="fill:#171615;font-family:XZHYCD+MinionPro-Regular;font-size:7.47px;font-style:NORMAL;font-weight:normal;">(2017) 12:327–39.</text>
  <text svg_rhmargin="154.985" x="58.689,62.631,66.438,68.436,70.14,71.847,75.438,79.029,80.73,84.321,87.912,91.503,95.094,97.569,100.314,103.905,107.496,111.087,114.678,118.269,120.933,124.524,128.115,131.706,134.37,137.961,141.551,145.143,148.734,151.398,154.98499999999999" y="626.64" style="fill:#171615;font-family:XZHYCD+MinionPro-Regular;font-size:7.47px;font-style:NORMAL;font-weight:normal;">doi: 10.1007/s11481-016-9720-7 </text>
  <text x="308.7,312.291,313.995,318.969,324.135,328.221,332.307,337.428,340.605,342.603,344.493,347.67,350.442,354.087,359.055,360.759,364.401,368.055,371.169,375.156,378.963,381.24,383.519,387.18,392.346,399.006,400.71,404.343,408.735,411.912,414.684,417.456,421.425,423.704,427.347,432.693,434.397,438.04,443.043,447.013,450.289,454.258,457.714,459.712,462.484,465.65999999999997,469.324,473.5,475.204,478.846,482.869,486.045,489.682,495.037,498.313,500.203,502.09299999999996,505.739,510.932,512.636,516.287,518.834,522.92,526.061,528.059,530.381,533.657,536.429,538.4309999999999,542.081,548.74" y="626.64" svg_rhmargin="550.444" style="fill:#171615;font-family:XZHYCD+MinionPro-Regular;font-size:7.47px;font-style:NORMAL;font-weight:normal;">4. Annweiler C, Schott AM, Berrut G, Chauviré V, Le Gall D, Inzitari M,</text>
  <text svg_rhmargin="467.167" x="318.969,322.146,324.425,326.817,330.093,331.983,333.687,336.078,340.983,342.981,345.303,348.579,354.699,356.697,360.784,363.195,368.687,371.079,374.355,378.441,382.38599999999997,384.777,388.008,391.509,394.686,396.684,400.77,404.271,405.975,408.375,412.461,415.638,419.607,422.379,426.186,428.076,431.883,435.384,437.382,440.559,443.835,445.72499999999997,448.138,450.136,452.845,455.59,459.559,462.718,465.463,467.16700000000003" y="636.108" style="fill:#171615;font-family:XZHYCD+MinionPro-Regular;font-size:7.47px;font-style:NORMAL;font-weight:normal;">et al. Vitamin D and ageing: neurological issues. </text>
  <text svg_rhmargin="528.479" x="469.548,474.813,477.801,481.788,484.524,488.034,491.661,494.181,497.483,500.237,504.053,507.563,511.109,513.152,516.662,518.525,522.035,525.176,528.479" y="636.108" style="fill:#171615;font-family:JUPOUJ+MinionPro-It;font-size:7.47px;font-style:NORMAL;font-weight:normal;">Neuropsychobiology </text>
  <text x="530.927,533.51,537.101,540.692,544.283,547.874" y="636.108" svg_rhmargin="550.459" style="fill:#171615;font-family:XZHYCD+MinionPro-Regular;font-size:7.47px;font-style:NORMAL;font-weight:normal;">(2010)</text>
  <text x="318.968,322.559,326.15,327.851,331.442,335.033,338.624,342.512,346.103,349.694,351.398,353.061,357.003,360.81,362.808,364.512,366.218,369.809,373.4,375.101,378.692,382.283,385.874,389.465,391.94,395.531,399.122,402.713,406.304,409.895,413.486,417.077,420.668" y="645.576" svg_rhmargin="424.255" style="fill:#171615;font-family:XZHYCD+MinionPro-Regular;font-size:7.47px;font-style:NORMAL;font-weight:normal;">62:139–50. doi: 10.1159/000318570</text>
  <text x="308.699,312.29,313.994,318.968,323.999,328.085,331.262,334.97,337.249,339.588,342.756,344.46,346.806,351.837,353.835,355.725,359.433,363.141,365.139,369.225,372.402,376.489,378.837,384.003,385.707,388.053,392.697,394.695,397.404,400.194,403.47,407.556,410.733,414.82,417.159,422.882,424.586,426.932,433.475,436.751,439.523,443.609,445.607,448.784,454.904,456.906,459.26,461.393,463.097,465.443,469.007,472.283,475.559,479.267,481.976,483.911,487.187,490.175,493.631,495.633,497.988,503.019,504.723,507.068,512.792,515.969,517.859,519.857,523.664,527.111,530.387,533.663,536.435,539.7149999999999,542.079,548.739" y="655.035" svg_rhmargin="550.443" style="fill:#171615;font-family:XZHYCD+MinionPro-Regular;font-size:7.47px;font-style:NORMAL;font-weight:normal;">5. Knekt P, Kilkkinen A, Rissanen H, Marniemi J, Saaksjarvi K, Heliovaara M.</text>
  <text svg_rhmargin="484.741" x="318.968,322.514,325.691,328.463,332.432,338.552,341.801,345.257,347.255,349.577,352.853,358.973,360.971,365.058,368.341,373.833,377.089,380.365,384.451,388.396,391.66,393.964,397.951,401.127,404.395,407.167,409.165,411.91,415.61600000000004,418.876,422.683,424.895,428.155,432.196,435.472,438.244,441.952,443.95,448.036,450.781,454.588,458.675,461.95,465.892,467.89,470.635,473.848,477.115,479.86,483.037,484.741" y="664.5029999999999" style="fill:#171615;font-family:XZHYCD+MinionPro-Regular;font-size:7.47px;font-style:NORMAL;font-weight:normal;">Serum vitamin D and the risk of Parkinson disease. </text>
  <text svg_rhmargin="527.669" x="488.005,492.964,495.7,498.454,502.272,505.564,510.829,513.817,517.804,520.54,524.05,525.913,527.669" y="664.5029999999999" style="fill:#171615;font-family:JUPOUJ+MinionPro-It;font-size:7.47px;font-style:NORMAL;font-weight:normal;">Arch Neurol. </text>
  <text x="530.926,533.509,537.1,540.691,544.282,547.873" y="664.5029999999999" svg_rhmargin="550.458" style="fill:#171615;font-family:XZHYCD+MinionPro-Regular;font-size:7.47px;font-style:NORMAL;font-weight:normal;">(2010)</text>
  <text x="318.967,322.558,326.149,327.85,331.441,335.032,338.623,342.511,346.102,349.693,351.397,353.06,357.002,360.809,362.807,364.511,366.217,369.808,373.399,375.1,378.691,382.282,385.873,389.464,391.939,395.215,397.889,401.003,404.99,409.076,412.253,416.222,418.994,422.801,424.691,426.392,429.983,433.574,437.165,440.756,442.457,446.048,449.639" y="673.971" svg_rhmargin="453.226" style="fill:#171615;font-family:XZHYCD+MinionPro-Regular;font-size:7.47px;font-style:NORMAL;font-weight:normal;">67:808–11. doi: 10.1001/archneurol.2010.120</text>
  <text x="308.698,312.289,313.993,318.967,322.46,326.447,329.219,332.378,335.123,337.427,341.396,344.676,346.229,349.775,351.479,353.023,357.046,361.015,363.292,366.037,369.214,372.644,374.182,378.385,382.408,384.112,385.666,390.832,392.723,396.53,400.616,403.361,407.17199999999997,408.716,413.882,415.586,417.131,422.854,426.823,430.099,434.185,437.682,439.234,444.121,445.825,447.379,454.039,457.846,460.591,462.481,465.658,469.088,470.626,475.234,480.95799999999997,482.515,484.971,487.744,489.445,491.149,492.702,497.706,501.693,504.87,508.957,510.504,516.228,517.9319999999999,519.486,523.032,526.209,528.981,532.95,539.07,540.609,544.2,547.791" y="683.4300000000001" svg_rhmargin="550.451" style="fill:#171615;font-family:XZHYCD+MinionPro-Regular;font-size:7.47px;font-style:NORMAL;font-weight:normal;">6. Shrestha S, Lutsey PL, Alonso A, Huang X, Mosley TH Jr., Chen H. Serum 25-</text>
  <text x="318.967,322.954,326.383,330.325,333.097,336.904,340.432,343.861,347.317,349.315,351.637,354.913,361.033,363.031,367.118,369.241,374.733,376.828,379.987,383.794,387.88,391.039,394.216,398.302,400.579,403.351,406.627,408.904,410.902,414.709,418.795,421.53700000000003,423.655,425.653,429.74,431.836,437.955,439.953,443.895,446.559,449.835,453.777,457.746,459.637,461.941,465.928,469.735,473.542,477.48699999999997,479.608,482.884,486.97,490.915,493.009,497.05,500.326,503.098,506.806,508.804,512.89,515.635,519.442,523.528,524.5,527.242,529.351,533.293,535.291,538.036,541.249,544.517,547.262" y="692.898" svg_rhmargin="550.438" style="fill:#171615;font-family:XZHYCD+MinionPro-Regular;font-size:7.47px;font-style:NORMAL;font-weight:normal;">hydroxyvitamin D concentrations in mid-adulthood and Parkinson’s disease</text>
  <text svg_rhmargin="331.894" x="318.967,321.739,323.737,326.482,330.19,331.894" y="702.357" style="fill:#171615;font-family:XZHYCD+MinionPro-Regular;font-size:7.47px;font-style:NORMAL;font-weight:normal;">risk. </text>
  <text svg_rhmargin="370.376" x="333.592,340.135,343.645,346.98499999999996,348.694,354.013,356.056,358.576,362.086,364.822,368.62,370.376" y="702.357" style="fill:#171615;font-family:JUPOUJ+MinionPro-It;font-size:7.47px;font-style:NORMAL;font-weight:normal;">Mov Disord. </text>
  <text x="372.067,374.65,378.241,381.832,385.423,389.014,391.599,393.28,396.871,400.462,402.163,405.754,409.345,412.936,416.824,420.415,422.119,423.79,427.732,431.539,433.537,435.241,436.948,440.539,444.13,445.831,449.422,453.013,456.604,460.195,462.67,468.79,472.714,475.459,477.16,480.751,484.341,487.932,491.523" y="702.357" svg_rhmargin="495.11" style="fill:#171615;font-family:XZHYCD+MinionPro-Regular;font-size:7.47px;font-style:NORMAL;font-weight:normal;">(2016) 31:972–8. doi: 10.1002/mds.26573</text>
  <text x="308.698,312.289,313.993,318.967,322.657,326.11699999999996,328.876,333.385,335.089,337.849,343.42,345.422,348.19,353.914,355.618,358.387,365.641,368.917,373.003,376.5,379.267,383.29,384.994,387.763,391.561,394.837,398.924,401.704,406.591,408.295,411.055,416.599,419.875,423.962,426.733,429.865,431.569,434.338,441.592,444.868,448.954,452.451,455.227,460.95,462.654,465.423,468.6,470.879,473.64,476.916,478.807,480.511,483.28,488.185,490.183,492.505,495.781,501.9,503.898,507.985,510.765,516.257,519.027,521.772,524.095,527.371,529.648,533.617,536.3589999999999,539.125,542.401,546.487" y="711.825" svg_rhmargin="550.432" style="fill:#171615;font-family:XZHYCD+MinionPro-Regular;font-size:7.47px;font-style:NORMAL;font-weight:normal;">7. Lv Z, Qi H, Wang L, Fan X, Han F, Wang H, et al. Vitamin D status and</text>
  <text svg_rhmargin="495.038" x="318.967,323.008,326.284,329.056,332.764,334.762,338.848,341.593,345.4,349.486,350.458,353.20000000000005,355.003,358.945,360.943,363.688,366.901,370.169,372.914,376.091,377.795,379.592,382.87199999999996,384.659,387.404,390.833,393.578,395.855,399.032,405.151,408.427,410.704,412.702,415.863,417.661,420.434,423.674,427.13,429.128,432.305,437.423,439.226,442.502,446.588,450.533,452.33,458.449,461.626,463.948,467.224,469.888,473.164,477.25,480.526,482.417,485.846,488.591,490.589,493.334,495.038" y="721.294" style="fill:#171615;font-family:XZHYCD+MinionPro-Regular;font-size:7.47px;font-style:NORMAL;font-weight:normal;">Parkinson’s disease: a systematic review and meta-analysis. </text>
  <text svg_rhmargin="529.137" x="496.844,502.109,505.097,509.084,511.82,515.33,517.191,518.993,522.494,525.338,527.381,529.137" y="721.294" style="fill:#171615;font-family:JUPOUJ+MinionPro-It;font-size:7.47px;font-style:NORMAL;font-weight:normal;">Neurol Sci. </text>
  <text x="530.927,533.51,537.101,540.692,544.283,547.874" y="721.294" svg_rhmargin="550.459" style="fill:#171615;font-family:XZHYCD+MinionPro-Regular;font-size:7.47px;font-style:NORMAL;font-weight:normal;">(2014)</text>
  <text x="318.968,322.559,326.15,327.851,331.442,335.033,338.624,342.215,346.103,349.694,353.285,354.98900000000003,356.651,360.593,364.4,366.398,368.10200000000003,369.809,373.4,376.991,378.692,382.283,385.874,389.465,393.056,395.531,398.276,401.867,405.458,409.049,412.64,416.231,418.895,422.486,426.077,429.668,432.332,435.923,439.514,443.105,446.696,449.36" y="730.753" svg_rhmargin="452.947" style="fill:#171615;font-family:XZHYCD+MinionPro-Regular;font-size:7.47px;font-style:NORMAL;font-weight:normal;">35:1723–30. doi: 10.1007/s10072-014-1821-6</text>
  <text svg_rhmargin="173.617" x="44.829,48.573,50.643,54.522,58.266,60.327,61.614,65.232,67.428,70.782,72.738,74.025,77.77000000000001,79.704,84.618,88.236,91.98,94.05,97.929,99.216,103.095,106.974,110.203,112.14,113.688,115.632,120.798,125.964,130.743,132.678,134.487,136.557,140.436,144.18,146.241,147.528,151.146,153.342,156.699,157.986,161.73,163.665,167.544,169.74,173.618" y="768.922" style="fill:#6d6d6c;font-family:FFCUJS+HelveticaNeueLTStd-Lt;font-size:6.97px;font-style:NORMAL;font-weight:normal;">Frontiers in Neurology | www.frontiersin.org </text>
  <text svg_rhmargin="299.572" x="295.695,299.573" y="768.922" style="fill:#6d6d6c;font-family:IUMUOI+HelveticaNeueLTStd-Bd;font-size:6.97px;font-style:NORMAL;font-weight:normal;">8 </text>
  <text x="430.929,435.843,439.722,442.953,446.571,452.376,456.381,459.999,462.196,464.13,468.009,471.888,475.767,479.645,481.581,483.129,485.064,488.809,492.688,493.975,497.719,503.523,507.14300000000003,509.094,512.972,514.909,516.457,518.401,522.793,524.989,527.05,528.337,531.955,533.242,536.862,538.813,542.692,546.571" y="768.922" svg_rhmargin="550.448" style="fill:#6d6d6c;font-family:FFCUJS+HelveticaNeueLTStd-Lt;font-size:6.97px;font-style:NORMAL;font-weight:normal;">November 2018 | Volume 9 | Article 909</text>
 </g>
</svg>
