<?xml version="1.0" encoding="UTF-8"?>
<svg height="750.472" width="551.2414442666667" xmlns="http://www.w3.org/2000/svg">
 <g style="fill:none;">
  <text x="56.693,61.178,65.664,70.149,73.929,77.702,82.263,85.55,90.539,95.528,98.8,100.93599999999999,105.49,113.152,118.365,125.312,129.904,134.509,139.006,142.068,144.204,148.757,152.612,157.828,166.108,170.489,175.065,178.955,182.186,187.604,192.876,195.541,200.038,203.811,208.372,212.17,216.668,221.988,227.2,230.942,234.214,238.711,243.91500000000002,248.462,251.75,257.169,261.666,264.822,269.432,276.576,283.631" y="104.49199999999996" svg_rhmargin="290.569" style="fill:#131413;font-family:LHOKCP+LxflhwAdvTT86d47313;font-size:9.8px;font-style:NORMAL;font-weight:normal;">years [12]. However, some studies reported that DAA</text>
  <text x="56.694,62.095,66.687,70.46,73.716,81.993,87.188,90.962,95.343,98.73,103.208,108.403,116.665,121.968,124.615,127.163,131.758,136.238,139.492,142.139,147.334,152.843,156.61599999999999,159.872,163.127,166.077,170.557,178.819,184.014,187.788,192.268,194.816,198.051,203.559,208.151,212.631,217.531,220.794,223.745,227.519,232.054,236.533,239.787,245.188,248.962,253.442,255.578,258.828,261.775,266.255,274.517,279.712,283.486,287.966" y="116.45299999999997" svg_rhmargin="290.514" style="fill:#131413;font-family:LHOKCP+LxflhwAdvTT86d47313;font-size:9.8px;font-style:NORMAL;font-weight:normal;">has more complications (femoral neck fracture, femoral</text>
  <text x="56.694,62.006,66.496,70.237,73.185,78.39,82.174,86.663,89.927,92.584,97.789,103.307,106.46300000000001,112.095,115.359,120.77,125.259,130.669,136.314,141.519,144.783,150.194,154.683,158.358,163.98,168.459,173.731,179.06,182.844,187.94,192.429,196.919,202.329,206.819,210.7,212.83599999999998,218.467,225.514,230.786,236.099,238.755,242.02,244.677,249.881,255.4,259.889,262.546,265.094,269.632,271.76800000000003,277.398,280.686,286.097" y="128.47199999999998" svg_rhmargin="290.478" style="fill:#131413;font-family:LHOKCP+LxflhwAdvTT86d47313;font-size:9.8px;font-style:NORMAL;font-weight:normal;">perforation) than other approaches. Additionally, the</text>
  <text x="56.694,59.348,63.834,68.32,72.101,77.617,80.165,85.78,90.474,95.134,99.62,105.028,109.11,113.598,117.979,122.773,127.869,130.721,135.472,142.616,149.703,156.641,161.324,166.732,171.324,175.097,179.772,184.987,189.474,193.96,199.37,204.108,207.889,212.375,217.685,222.886,226.667,229.929,234.415,239.619,244.28,247.541,252.637,257.292,262.494,266.875,271.564,275.345,279.832,282.485,286.972" y="140.49" svg_rhmargin="290.539" style="fill:#131413;font-family:LHOKCP+LxflhwAdvTT86d47313;font-size:9.8px;font-style:NORMAL;font-weight:normal;">learning curve of DAA has been reported to be rela-</text>
  <text x="56.694,59.958,62.506,67.158,71.637,74.294,78.675,82.401,85.058,90.154,95.773,100.535,105.024,108.699,112.45,115.715,121.125,125.615,131.025,134.742,139.947,143.211,148.622,153.111,156.786,160.482,164.96,170.273,175.585,179.369,184.574,189.063,193.552,198.963,203.498,207.271,210.982,214.186,219.175,224.221,226.357,230.061,235.05,240.039,243.31,245.446,249.15,255.793,262.739,267.835,271.526,275.325,279.821,282.485,286.981" y="152.452" svg_rhmargin="290.548" style="fill:#131413;font-family:LHOKCP+LxflhwAdvTT86d47313;font-size:9.8px;font-style:NORMAL;font-weight:normal;">tively longer than other approaches [13, 14]. Two rele-</text>
  <text x="56.695,61.283,65.764,71.273,74.429,79.89,88.154,92.634,95.89,100.37,103.937,108.533,114.043,118.523,121.171,125.652,129.525,134.005,137.778,143.247,146.496,151.485,156.53,158.666,164.07,169.116,174.106,177.262,182.666,185.954,191.34,195.818,198.97400000000002,204.435,208.914,214.129,222.406,227.735,232.214,235.956,240.337,245.82,252.964,259.994,266.932,272.352,279.326,281.991,285.222" y="164.471" svg_rhmargin="290.524" style="fill:#131413;font-family:LHOKCP+LxflhwAdvTT86d47313;font-size:9.8px;font-style:NORMAL;font-weight:normal;">vant meta-analyses [11, 15] that compare DAA with</text>
  <text x="56.695,61.901,65.166,70.577,75.068,78.743,83.005,87.483,92.797,98.069,101.854,107.06,111.55,116.04,121.452,125.942,129.715,133.993,140.933,145.423,149.208,153.589,157.825,163.138,168.55,173.756,176.413,178.961,182.933,188.345,192.835,198.149,200.285,204.555,212.21,217.416,224.356,228.949,233.547,238.037,241.099,243.23499999999999,247.505,251.388,256.799,262.005,265.746,269.012,273.502,278.708,286.981" y="176.48900000000003" svg_rhmargin="290.548" style="fill:#131413;font-family:LHOKCP+LxflhwAdvTT86d47313;font-size:9.8px;font-style:NORMAL;font-weight:normal;">other approaches were published. However, shortcom-</text>
  <text x="56.695,59.35,64.866,69.56,74.107,79.323,82.175,86.693,89.981,95.39,99.877,103.757,108.138,112.657,115.92,122.857,127.953,132.495,140.772,145.26,148.522,153.009,156.683,161.171,166.687,171.174,173.829,178.317,182.196,186.732,190.505,195.009,198.889,204.297,209.5,214.908,217.563,222.767,227.314,232.517,236.898,241.418,246.935,252.137,255.4,259.887,265.198,267.334,271.887,279.54,282.195,286.996" y="188.45100000000002" svg_rhmargin="290.563" style="fill:#131413;font-family:LHOKCP+LxflhwAdvTT86d47313;font-size:9.8px;font-style:NORMAL;font-weight:normal;">ing of these two meta-analyses should be noted. Hig-</text>
  <text x="56.695,61.521,64.069,69.611,73.384,76.697,81.21,84.366,87.617,92.129,94.677,96.813,100.18,103.41,108.399,113.444,116.60000000000001,119.85,122.515,128.036,132.528,135.188,140.602,145.917,150.409,155.613,158.914,162.655,167.148,170.415,174.157,179.372,183.257,188.572,193.164,197.643,200.91,203.458,208.058,212.439,215.712,219.597,222.864,228.277,233.593,236.253,240.745,244.518,247.774,252.31,257.831,263.035,266.279,269.242,274.45,279.863,285.384" y="200.47000000000003" svg_rhmargin="290.588" style="fill:#131413;font-family:LHOKCP+LxflhwAdvTT86d47313;font-size:9.8px;font-style:NORMAL;font-weight:normal;">gins et al. [11] included retrospective studies and found</text>
  <text x="56.695,59.959,65.37,69.859,73.015,77.456,80.72,86.131,90.62,94.404,98.785,103.248,110.165,114.757,118.53,122.977,128.496,133.592,138.02,141.902,144.45,149.328,154.827,157.484,160.444,162.992,167.588,172.077,177.595,180.751,185.192,190.521,193.069,196.134,199.094,203.584,207.367,211.857,217.375,221.864,226.245,230.709,235.924,240.414,243.678,250.617,255.107,259.596,265.00600000000003,269.461,276.605,283.634" y="212.48800000000006" svg_rhmargin="290.572" style="fill:#131413;font-family:LHOKCP+LxflhwAdvTT86d47313;font-size:9.8px;font-style:NORMAL;font-weight:normal;">that there was no significant difference between DAA</text>
  <text x="56.695,61.184,66.703,71.907,75.321,80.424,87.36200000000001,90.8,95.563,99.347,104.552,109.962,115.275,119.048,122.419,125.084,130.494,133.93,137.162,142.572,146.953,150.341,153.301,158.712,164.23,168.72,171.984,174.641,179.845,185.364,189.853,192.401,195.806,201.011,206.422,209.686,214.175,219.38,227.652,232.142,236.023,238.159,241.58,250.765,253.422,256.079,258.628,263.167,266.842,270.254,274.744,277.90000000000003,281.321,285.811,288.467" y="224.45000000000005" svg_rhmargin="290.603" style="fill:#131413;font-family:LHOKCP+LxflhwAdvTT86d47313;font-size:9.8px;font-style:NORMAL;font-weight:normal;">and PA groups in the functional outcomes. Miller et al.</text>
  <text x="56.695,59.983,64.972,69.961,73.117,79.145,83.681,88.777,94.396,99.701,105.103,109.585,112.841,117.323,122.52699999999999,128.605,132.986,139.036,147.313,151.794,155.051,159.532,163.2,167.682,173.192,177.674,180.323,184.804,188.678,191.327,195.1,201.191,204.448,209.851,214.386,217.542,223.57,228.052,233.249,241.513,246.818,251.299,255.075,259.557,263.33000000000004,269.421,276.565,283.595" y="236.46900000000005" svg_rhmargin="290.533" style="fill:#131413;font-family:LHOKCP+LxflhwAdvTT86d47313;font-size:9.8px;font-style:NORMAL;font-weight:normal;">[15] conducted a meta-analysis that compares DAA</text>
  <text x="56.695,61.173,66.672,71.87599999999999,75.103,80.206,87.144,90.371,93.319,98.535,102.21,105.451,112.084,119.964,126.902,130.129,135.402,139.937,143.168,145.833,150.311,155.81,159.155,163.067,165.203,168.396,176.05,181.265,188.239,192.831,197.423,201.902,204.963,207.099,210.293,213.581,218.967,223.445,227.826,231.042,239.319,241.984,246.859,251.338,256.542,259.768,263.056,268.442,272.823,276.039,281.368,284.033,286.981" y="248.48699999999997" svg_rhmargin="290.548" style="fill:#131413;font-family:LHOKCP+LxflhwAdvTT86d47313;font-size:9.8px;font-style:NORMAL;font-weight:normal;">and PA for THA patients. However, they mixed the dif-</text>
  <text x="56.695,59.65,64.133,67.911,72.394,77.907,81.063,86.751,89.706,94.905,97.453,100.177,105.376,112.309,115.979,121.384,126.588,132.269,137.484,142.889,146.147,150.631,155.83,164.096,168.579,172.352,177.99,180.938,186.137,189.812,195.491,199.974,205.487,209.97,212.621,217.105,220.98,223.631,227.404,233.099,237.582,243.095,248.299,253.98,257.211,262.615,268.02,271.793,277.431,280.719,286.123" y="260.44899999999996" svg_rhmargin="290.504" style="fill:#131413;font-family:LHOKCP+LxflhwAdvTT86d47313;font-size:9.8px;font-style:NORMAL;font-weight:normal;">ferent follow-up outcomes for analysis and thus the</text>
  <text x="56.695,62.103,66.591,69.853,74.341,78.122,83.218,88.101,92.579,98.096,102.583,105.131,108.479,112.86,118.4,125.374,129.966,133.739,139.263,141.918,146.405,150.187,154.988,159.475,161.611,167.186,174.231,179.747,184.95,188.212,193.621,198.108,201.78300000000002,207.35,210.014,212.562,220.899,223.554,226.816,231.304,234.566,237.221,242.424,247.834,253.365,260.282,264.874,268.64700000000005,274.228,277.491,282.899,287.387" y="272.46799999999996" svg_rhmargin="290.543" style="fill:#131413;font-family:LHOKCP+LxflhwAdvTT86d47313;font-size:9.8px;font-style:NORMAL;font-weight:normal;">heterogeneity was large. Another limitation was that</text>
  <text x="56.695,59.949,65.35,69.83,74.211,77.88,82.36,85.007,88.879,93.97500000000001,97.609,100.256,105.765,110.244,112.891,118.292,123.595,128.074,133.27800000000002,136.919,140.693,145.172,148.427,152.201,157.396,161.268,166.57,171.163,175.698,178.929,181.576,186.163,190.544,194.157,198.069,201.324,206.724,212.027,214.674,219.154,222.927,226.58,231.06,236.568,241.77200000000002,245.413,248.7,254.101,259.502,263.27500000000003,266.928,270.8,275.28,277.828,282.48,286.86" y="284.486" svg_rhmargin="290.427" style="fill:#131413;font-family:LHOKCP+LxflhwAdvTT86d47313;font-size:9.8px;font-style:NORMAL;font-weight:normal;">they also included retrospective studies and thus selec-</text>
  <text x="56.695,59.983,62.531,67.806,73.216,76.254,81.469,84.017,88.669,92.442,95.529,100.007,105.223,110.609,113.274,118.478,121.494,126.993,132.208,135.364,138.331,143.427,147.808,150.917,155.298,159.931,165.027,167.754,173.083,177.562,182.834" y="296.448" svg_rhmargin="184.97" style="fill:#131413;font-family:LHOKCP+LxflhwAdvTT86d47313;font-size:9.8px;font-style:NORMAL;font-weight:normal;">tion bias could not be avoided.</text>
  <text x="64.689,71.215,76.517,80.898,84.573,88.953,91.805,96.901,100.576,104.956,107.092,112.028,118.859,123.24,128.299,132.679,137.775,143.266,148.47,153.772,158.152,161.308,165.688,170.892,175.865,180.246,185.219,193.382,197.762,200.918,205.299,208.866,213.246,218.656,223.036,225.584,230.12,233.893,236.441,240.214,245.143,250.239,254.724,258.497,262.878,268.082,273.036,278.132,283.542,286.09" y="308.467" svg_rhmargin="290.471" style="fill:#131413;font-family:LHOKCP+LxflhwAdvTT86d47313;font-size:9.8px;font-style:NORMAL;font-weight:normal;">Therefore, we conducted a meta-analysis based only</text>
  <text x="56.695,61.791,67.201,71.209,74.883,79.264,84.674,89.877,94.973,103.137,105.791,110.074,114.455,119.65899999999999,123.65,128.03,133.126,138.536,141.691,145.366,150.462,153.01,155.558,159.939,165.143,169.231,172.387,176.062,178.61,182.99,185.538,189.311,193.326,196.482,202.499,209.427,215.153,218.926,222.082,226.038,229.194,234.29,238.341,242.721,247.817,255.981,261.184,265.565,269.24,273.621,277.686,280.842,286.144" y="320.485" svg_rhmargin="290.525" style="fill:#131413;font-family:LHOKCP+LxflhwAdvTT86d47313;font-size:9.8px;font-style:NORMAL;font-weight:normal;">on randomized controlled trials (RCTs) to compare the</text>
  <text x="56.695,61.075,63.623,66.171,71.581,74.129,78.509,83.001,85.549,90.03,95.126,100.428,103.583,108.059,113.155,121.318,125.699,129.472,134.025,139.121,141.973,146.497,153.641,160.58,167.518,171.556,176.044,180.424,184.099,187.872,193.269,197.042,201.546,206.535,213.47299999999998,218.044,220.592,226.002,230.517,237.043,244.803,251.741,253.877,258.409,268.307,272.688,277.231,282.533,286.913" y="332.447" svg_rhmargin="290.48" style="fill:#131413;font-family:LHOKCP+LxflhwAdvTT86d47313;font-size:9.8px;font-style:NORMAL;font-weight:normal;">clinical outcomes of DAA versus PA in THA. We hy-</text>
  <text x="56.695,61.899,66.995,70.15,75.452,79.832,83.605,86.153,90.436,94.963,100.16699999999999,104.26,107.415,112.717,117.098,120.254,124.386,131.53,138.468,145.40599999999998,149.444,151.992,155.765,159.932,163.705,169.007,174.21,178.591,182.266,184.814,189.91,193.585,197.747,200.902,205.998,210.105,215.151,222.089,226.207,228.755,234.165,238.282,241.438,245.818,249.493,257.656,261.42900000000003,265.608,270.704,273.556,277.684,280.839,286.141" y="344.466" svg_rhmargin="290.522" style="fill:#131413;font-family:LHOKCP+LxflhwAdvTT86d47313;font-size:9.8px;font-style:NORMAL;font-weight:normal;">pothesized that DAA is superior to PA in terms of the</text>
  <text x="56.695,61.075,63.623,66.171,71.581,74.129,78.509,83.001,85.549,88.499,93.595,98.897,102.053,106.433,111.529,119.693,124.073,127.84599999999999,130.906,133.454,138.864,141.79,148.317,156.133,163.072" y="356.484" svg_rhmargin="165.208" style="fill:#131413;font-family:LHOKCP+LxflhwAdvTT86d47313;font-size:9.8px;font-style:NORMAL;font-weight:normal;">clinical outcomes in THA.</text>
  <text x="56.693,65.376,70.732,74.481,80.486,86.378,92.485" y="384.441" svg_rhmargin="96.883" style="fill:#131413;font-family:LHOJOL+HnvspgAdvTTaf7f9f4f.B;font-size:10.3px;font-style:NORMAL;font-weight:normal;">Methods</text>
  <text x="56.693,63.22,68.521,71.069,74.842,80.221,83.993,88.374,92.147,95.303,99.78,107.943,112.324,115.48,118.028,122.409,127.9,131.575,136.063,140.552,143.1,147.48,154.31099999999998,159.817,162.669,167.971,170.519,173.067,177.448,182.948,187.329,192.532,197.834,202.215,205.89,210.27,215.47400000000002,220.989,224.145,229.241,234.709,237.865,243.166,247.547,253.021,258.225,261.9,266.28,269.132,273.601,277.276,280.951,285.331" y="396.46" svg_rhmargin="290.535" style="fill:#131413;font-family:LHOKCP+LxflhwAdvTT86d47313;font-size:9.8px;font-style:NORMAL;font-weight:normal;">This systematic review fully adhered to the preferred</text>
  <text x="56.693,60.368,64.748,69.952,75.048,78.803,81.959,84.507,89.917,94.611,97.569,100.117,103.273,107.653,115.817,119.58999999999999,122.628,125.479,130.575,134.25,137.254,141.027,145.407,149.18,152.336,156.814,164.977,169.357,172.513,175.061,179.442,182.439,186.114,190.659,195.148,197.696,202.076,208.907,212.68,215.718,220.098,225.508,230.71200000000002,233.69,241.853,246.234,249.389,253.77,257.337,261.718,267.253,271.633,274.181,278.562,282.335,286.715" y="408.478" svg_rhmargin="290.488" style="fill:#131413;font-family:LHOKCP+LxflhwAdvTT86d47313;font-size:9.8px;font-style:NORMAL;font-weight:normal;">reporting items for systematic reviews and meta-analyses</text>
  <text x="56.693,59.848,65.356,71.373,74.637,79.634,89.008,95.946,99.102,102.048,106.742,112.044,114.592,119.795,124.272,126.82,129.368,134.778,139.158,142.93099999999998,145.929,149.102,154.002,158.91,162.065" y="420.44" svg_rhmargin="164.201" style="fill:#131413;font-family:LHOKCP+LxflhwAdvTT86d47313;font-size:9.8px;font-style:NORMAL;font-weight:normal;">(PRISMA) guidelines [16].</text>
  <text x="56.693,61.385,66.077,70.677,73.934,78.046,83.21600000000001,86.06,89.887,93.042,96.299,100.899,104.055,108.747,114.01" y="448.447" svg_rhmargin="118.61" style="fill:#131413;font-family:LHOKCN+HjkgddAdvTT99c4c969;font-size:9.2px;font-style:NORMAL;font-weight:normal;">Search strategy</text>
  <text x="56.693,66.591,70.972,75.742,83.905,88.286,93.771,99.073,103.453,106.001,108.549,112.93,117.752,121.525,125.906,130.286,133.961,138.342,143.643,148.024,153.228,158.061,163.569,168.87,173.966,183.051,187.431,192.635,194.771,199.618,205.125,213.288,218.384,222.919,226.692,231.072,233.208,237.999,247.897,252.277,257.373,262.207,267.303,270.155,274.906,280.009,284.39,286.938" y="460.466" svg_rhmargin="290.505" style="fill:#131413;font-family:LHOKCP+LxflhwAdvTT86d47313;font-size:9.8px;font-style:NORMAL;font-weight:normal;">We manually searched PubMed, Embase, Web of Sci-</text>
  <text x="56.693,61.073,66.483,70.864,75.244,77.38,81.241,84.396,89.698,94.079,97.908,104.543,109.639,114.019,119.321,123.08,127.461,132.87,137.251,141.109,146.617,149.165,154.261,157.936,162.316,165.991,170.372,172.508,176.372,180.753,186.162,191.366,195.194,202.436,207.609,212.705,217.399,219.947,224.328,228.132,233.336,237.717,240.872,245.253,250.349,254.948,258.721,263.101,266.874,270.708,273.56,277.235,282.331" y="472.485" svg_rhmargin="290.494" style="fill:#131413;font-family:LHOKCP+LxflhwAdvTT86d47313;font-size:9.8px;font-style:NORMAL;font-weight:normal;">ence, the Cochrane Library, and Google databases from</text>
  <text x="56.693,59.241,64.65,69.031,73.412,78.615,81.865,84.413,89.509,94.919,98.986,102.142,107.238,111.345,114.403,119.704,125.114,129.495,133.569,138.469,143.369,148.269,153.169,155.305,159.421,165.828,171.129,175.51,179.264,183.645,187.712,194.542,199.05,202.823,206.873,212.283,217.379,221.444,223.992,228.372,233.782,238.476,243.778,248.26,252.954,257.33500000000004,261.413,265.088,269.468,273.241,276.397,280.072,282.62,287.0" y="484.447" svg_rhmargin="290.567" style="fill:#131413;font-family:LHOKCP+LxflhwAdvTT86d47313;font-size:9.8px;font-style:NORMAL;font-weight:normal;">inception to June 2018. There was no language restric-</text>
  <text x="56.693,59.848,62.396,67.492,72.902,80.277,83.129,88.225,91.89999999999999,99.213,103.593,106.141,108.68900000000001,116.051,121.147,123.99900000000001,131.358,134.514,139.816,144.197,151.541,156.745,162.047,167.143,169.691,172.239,176.713,181.094,184.249,186.797,191.893,197.303,201.076,203.212,210.559,217.086,222.388,226.769,234.03,237.803,242.183,246.564,250.239,254.723,260.02500000000003,267.309,270.465,274.846,278.521,286.684" y="496.465" svg_rhmargin="290.457" style="fill:#131413;font-family:LHOKCP+LxflhwAdvTT86d47313;font-size:9.8px;font-style:NORMAL;font-weight:normal;">tion for all of the publications. The search terms</text>
  <text x="56.693,59.241,64.65,69.031,71.579,76.881,82.084,86.57,91.77399999999999,99.213,104.113,108.493,112.874,120.416,127.246,132.342,136.017,141.221,144.994,152.505,156.885,162.295,167.499,175.012,184.096,188.477,193.681,196.229,200.609,204.99,207.538,215.095,220.093,225.394,230.49,232.94,237.488,241.869,245.025,252.512,260.057,264.438,268.819,274.022,276.663,282.073,286.767" y="508.484" svg_rhmargin="290.54" style="fill:#131413;font-family:LHOKCP+LxflhwAdvTT86d47313;font-size:9.8px;font-style:NORMAL;font-weight:normal;">included key words and Medical Subject Headings</text>
  <text svg_rhmargin="164.271" x="56.693,59.848,68.933,73.314,78.311,85.947,89.10300000000001,94.394,97.55,101.93,105.605,113.769,117.542,122.911,126.586,130.966,133.514,137.895,141.05,145.532,150.73600000000002,156.02,159.175,164.27100000000002" y="520.4449999999999" style="fill:#131413;font-family:LHOKCP+LxflhwAdvTT86d47313;font-size:9.8px;font-style:NORMAL;font-weight:normal;">(MeSH) terms related to </text>
  <text x="169.568,173.135" y="520.4449999999999" svg_rhmargin="176.702" style="fill:#131413;font-family:LHOKDP+PjsdtnAdvTT86d47313+20;font-size:9.8px;font-style:NORMAL;font-weight:normal;">““</text>
  <text x="176.768,183.706,187.381,190.537,195.839,199.514,204.61,209.813,212.361,216.963,220.736,223.892,228.272,230.408,235.729,241.746,246.127,251.331,253.879,258.35,262.731,267.111,275.275,279.655,285.065,288.398" y="520.4449999999999" svg_rhmargin="290.534" style="fill:#131413;font-family:LHOKCP+LxflhwAdvTT86d47313;font-size:9.8px;font-style:NORMAL;font-weight:normal;">Arthroplasty, Replacement,</text>
  <text x="56.693,64.239,66.787" y="532.4639999999999" svg_rhmargin="71.991" style="fill:#131413;font-family:LHOKCP+LxflhwAdvTT86d47313;font-size:9.8px;font-style:NORMAL;font-weight:normal;">Hip</text>
  <text x="72.056" y="532.4639999999999" svg_rhmargin="75.623" style="fill:#131413;font-family:LHOKDP+PjsdtnAdvTT86d47313+20;font-size:9.8px;font-style:NORMAL;font-weight:normal;">”</text>
  <text x="75.628,78.784,87.868,92.249,96.022,101.324" y="532.4639999999999" svg_rhmargin="104.48" style="fill:#131413;font-family:LHOKCP+LxflhwAdvTT86d47313;font-size:9.8px;font-style:NORMAL;font-weight:normal;">[Mesh]</text>
  <text x="104.542" y="532.4639999999999" svg_rhmargin="108.109" style="fill:#131413;font-family:LHOKDP+PjsdtnAdvTT86d47313+20;font-size:9.8px;font-style:NORMAL;font-weight:normal;">”</text>
  <text x="108.114,110.25,115.88,119.036,124.132,127.287,131.668,134.216,139.862,145.163,147.711,152.91500000000002,158.514,162.894,166.569,169.725,175.125,178.8,183.896,189.099,191.647,196.158,199.931,203.087,207.467,209.603,215.264,218.42,223.516,226.671,231.052,233.6,239.245,244.547,247.095,252.299,257.954,261.629,266.01,271.214,273.762,278.142,282.523,286.903" y="532.4639999999999" svg_rhmargin="290.47" style="fill:#131413;font-family:LHOKCP+LxflhwAdvTT86d47313;font-size:9.8px;font-style:NORMAL;font-weight:normal;">; total hip arthroplasty; total hip replace-</text>
  <text x="56.694,64.857,69.238,74.647,77.803,79.939,83.963,90.49,98.306,105.563,107.699,111.119,117.645,125.191,131.585,133.721,137.708,142.911,145.459,149.134,153.638,158.019,161.175,165.147,169.528,174.938,178.093,182.474,186.238,188.786,193.882,197.55700000000002,201.545,205.926,211.129,216.333,220.008,225.186,229.567,233.948,239.249,241.385,245.369,252.513,259.452,266.629,268.76500000000004,272.752,277.956,283.052,286.983" y="544.483" svg_rhmargin="290.55" style="fill:#131413;font-family:LHOKCP+LxflhwAdvTT86d47313;font-size:9.8px;font-style:NORMAL;font-weight:normal;">ment; THA, THR, direct anterior approach, DAA, pos-</text>
  <text x="56.694,59.849,64.23,67.905,70.453,75.549,79.224,83.0,87.38,92.584,97.788,101.463,106.559,110.939,115.32,120.622,122.758,126.541,130.921,136.331,141.535,145.25,150.239,157.177,159.313,163.051,169.457,174.759,179.14,182.894,186.569,190.95,193.801,198.182,201.857,206.237,211.647,216.028,220.409,224.166,226.714,229.262,233.035,236.355,240.128,243.782,248.878,251.73,255.46,258.008,263.418,267.798,270.346,275.648,280.852,285.337" y="556.444" svg_rhmargin="290.541" style="fill:#131413;font-family:LHOKCP+LxflhwAdvTT86d47313;font-size:9.8px;font-style:NORMAL;font-weight:normal;">terior approach, and PA. The reference lists of included</text>
  <text x="56.694,60.467,63.622,68.924,74.128,76.763,81.144,84.917,89.916,95.011,98.68599999999999,103.749,111.912,116.293,119.449,123.829,127.396,131.777,137.186,141.567,144.115,148.495,152.268,154.816,158.589,163.73,170.561,174.941,178.698,183.079,188.109,192.489,195.037,198.81,203.906,208.915,217.078,221.459,226.944,232.245,236.626,239.174,241.722,246.103,251.151,255.532,260.324,264.705,272.979,275.527,280.936,285.317" y="568.463" svg_rhmargin="290.521" style="fill:#131413;font-family:LHOKCP+LxflhwAdvTT86d47313;font-size:9.8px;font-style:NORMAL;font-weight:normal;">studies or meta-analysis were also manually examined</text>
  <text x="56.694,59.546,64.642,68.317,71.604,76.808,81.904,85.06,89.44,94.963,98.118,100.666,105.047,107.595,110.893,119.057,121.605,125.377,129.15,131.698,137.108,141.802,145.136,148.811,153.299,157.68,162.776,166.451,171.655,175.524,177.66,180.91,187.436,192.738,195.286,199.059,202.283,210.446,214.827,217.983,222.466,226.033,230.414,235.823,240.204,242.752,247.132,250.905,253.453,257.226,260.564,265.768,268.316,273.52,276.835,282.244,287.34" y="580.482" svg_rhmargin="290.496" style="fill:#131413;font-family:LHOKCP+LxflhwAdvTT86d47313;font-size:9.8px;font-style:NORMAL;font-weight:normal;">for potential missing records. This meta-analysis did not</text>
  <text x="56.694,59.242,64.651,69.14,74.236,76.784,81.355,85.736,89.009,94.213,96.761,100.436,104.94,109.32,112.476,115.768,120.148,125.244,130.654,133.809,138.19,142.57,145.726,149.103,155.934,158.482,161.637,166.939,170.249,172.797,178.207,183.411,185.958,190.447,192.995,198.199,203.5,207.881,210.429,213.79,218.994,223.374,226.53,229.078,233.459,238.868,242.193,245.966,248.102,251.378,254.533,259.835,264.216,267.891,272.271,275.123,280.219,283.894,288.399" y="592.443" svg_rhmargin="290.535" style="fill:#131413;font-family:LHOKCP+LxflhwAdvTT86d47313;font-size:9.8px;font-style:NORMAL;font-weight:normal;">involve direct contact with individual patients; therefore,</text>
  <text x="56.694,62.103,67.199,70.186,74.567,77.723,83.024,85.572,89.953,93.726,96.719,101.099,106.303,111.507,115.257,120.353,124.841,129.222,131.77,134.76,141.59,146.098,149.871,152.845,158.254,162.635,167.015,172.219,176.6,181.803" y="604.462" svg_rhmargin="183.939" style="fill:#131413;font-family:LHOKCP+LxflhwAdvTT86d47313;font-size:9.8px;font-style:NORMAL;font-weight:normal;">no ethics approval was needed.</text>
  <text x="56.693,59.085,64.255,68.368,70.668,75.838,79.666,81.966,87.136,92.306,95.131,99.243,102.5,104.8,107.956,112.648,115.994,118.294,122.89399999999999,125.632,130.232,135.403,140.665,143.49,148.182,152.681,156.794,159.094,164.264,168.091,170.391,175.562,180.732,183.572,187.685,190.942,193.242,196.397,201.089,204.346,206.646" y="632.473" svg_rhmargin="211.246" style="fill:#131413;font-family:LHOKCN+HjkgddAdvTT99c4c969;font-size:9.2px;font-style:NORMAL;font-weight:normal;">Inclusion criteria and exclusion criteria</text>
  <text x="64.687,67.842,72.634,75.79,79.313,84.615,88.897,92.572,95.728,98.178,102.558,105.008,110.211,114.494,119.795,122.951,126.626,128.762,131.754,136.85,141.133,144.288,146.738,151.021,156.323,159.478,163.15300000000002,166.168,171.263,174.938,179.221,184.317,188.599,192.36,196.642,201.738,204.718,207.472,212.47,216.145,219.118,225.547,232.995,239.826" y="656.454" svg_rhmargin="241.962" style="fill:#000000;font-family:LHOLEN+RgytqtAdvTT43ccf47d;font-size:9.8px;font-style:NORMAL;font-weight:normal;">(1) Participants: patients prepared for THA.</text>
  <text x="64.687,67.842,72.634,75.79,79.313,82.557,88.0,91.243,95.665,99.428,104.005,108.376,113.818,117.062,119.6,124.687,130.129,133.893,136.029,140.072,143.316,148.759,153.04199999999997,157.036,159.587,164.977,168.265,172.635,176.399,180.975,185.346,190.736,194.024,196.562,201.648,206.95,210.945,215.651,219.414,224.5,229.792,234.888,238.92,242.683,247.054,251.523,255.893,258.432,263.008,267.43,272.526,276.558,279.801,285.191" y="668.472" svg_rhmargin="289.474" style="fill:#000000;font-family:LHOLEN+RgytqtAdvTT43ccf47d;font-size:9.8px;font-style:NORMAL;font-weight:normal;">(2) Interventions: the intervention group received the</text>
  <text x="79.313,86.458,93.397,100.22800000000001,104.282,107.117,112.224,115.899,119.935,126.472,134.029,140.968" y="680.491" svg_rhmargin="143.104" style="fill:#000000;font-family:LHOLEN+RgytqtAdvTT43ccf47d;font-size:9.8px;font-style:NORMAL;font-weight:normal;">DAA for THA.</text>
  <text x="64.687,67.842,72.634,75.79,79.313,85.778,90.606,98.492,103.419,107.532,111.037,113.318,116.823,121.651,126.784,130.289,132.42499999999998,134.938,137.924,143.056,147.339,149.803,154.055,158.883,164.015,167.001,170.507,175.335,177.785,180.268,184.684,188.19,193.018,198.052,203.148,205.592,209.108,213.221,217.432,221.545,223.825,228.144,232.257,237.353,239.797,244.446,251.277,253.743,256.351,261.179,264.854,267.302,273.562,280.84,287.501" y="692.453" svg_rhmargin="289.637" style="fill:#000000;font-family:LHOLEN+RgytqtAdvTT43ccf47d;font-size:9.8px;font-style:NORMAL;font-weight:normal;">(3) Comparisons: the control group received PA for THA.</text>
  <text x="64.687,67.842,72.634,75.79,79.313,86.954,92.253,95.503,99.979,105.072,113.223,117.644,121.386,123.52199999999999,127.566,135.106,139.483,143.253,147.023,149.568,153.24300000000002,157.279,162.665,165.21,170.306,174.338,178.108,182.583,187.676,191.446,195.72899999999998,199.78,204.145,207.30100000000002,211.345,216.137,220.133,227.106,231.484,235.861,240.651,244.421,246.557,250.6,255.392,259.445,266.362,270.739,275.161,279.95,283.72" y="704.471" svg_rhmargin="285.856" style="fill:#000000;font-family:LHOLEN+RgytqtAdvTT43ccf47d;font-size:9.8px;font-style:NORMAL;font-weight:normal;">(4) Outcomes: Harris hip score at 2 weeks, 6 weeks,</text>
  <text x="79.313,84.194,88.986,93.039,99.958,104.33,108.752,113.514,117.278,119.414,123.401,127.822,133.208,138.304,142.336,147.12800000000001,151.181,155.65,160.022,164.394,168.158,170.29399999999998,174.281,181.141,188.114,193.014,197.016,201.387,204.543,208.587,213.469,218.261,222.313,227.704,229.84,233.884,238.765,243.557,247.61,253.001,255.137,259.18,263.552,268.943" y="716.49" svg_rhmargin="274.039" style="fill:#000000;font-family:LHOLEN+RgytqtAdvTT43ccf47d;font-size:9.8px;font-style:NORMAL;font-weight:normal;">12 weeks, and 1 year; VAS at 24 h, 48 h, and</text>
  <text x="79.313,84.105,88.897,91.388,96.69,98.826,101.31,103.76,108.907,113.287,115.54,119.215,121.493,126.491,131.793,134.305,136.755,140.882,146.184,150.633,153.788,158.91,161.046,163.616,168.614,173.594,177.876,181.361,185.644,188.675,190.999,195.997,201.299,203.812,206.967,209.255,217.31,221.444,223.57999999999998,226.15,231.246,236.128,239.803,242.762,247.76,252.74,257.022,260.507,264.79,267.821,270.145,274.634" y="728.451" svg_rhmargin="278.917" style="fill:#000000;font-family:LHOLEN+RgytqtAdvTT43ccf47d;font-size:9.8px;font-style:NORMAL;font-weight:normal;">72 h; incision length, operation time, postoperative</text>
  <text svg_rhmargin="285.383" x="79.313,84.188,86.638,91.502,96.5,101.596,104.088,106.538,111.345,115.02,118.545,120.681,123.251,125.701,129.827,135.129,139.578,142.734,148.036,150.52,155.518,158.272,160.781,166.083,170.929,174.604,179.546,181.871,185.026,189.184,191.634,194.174,197.849,200.863,205.146,208.857,210.993,213.563,217.845,222.974,228.07,230.627,235.008,239.869,247.924,252.908,255.233,257.683,261.922,266.205,269.236,271.561,276.559,281.708,285.38300000000004" y="104.49199999999996" style="fill:#000000;font-family:LHOLEN+RgytqtAdvTT43ccf47d;font-size:9.8px;font-style:NORMAL;font-weight:normal;">blood loss, length of hospital stay, and complications </text>
  <text x="327.344,330.499,332.786,338.088,341.063,344.738,348.887,353.885,358.808,363.091,366.631,370.914,373.888,376.338,380.691,384.974,387.494,390.248,393.787,398.069,402.291,405.447,410.511,414.186,418.279,420.415,422.985,428.081,432.963,436.638,439.597,444.594,449.575,453.857,457.342,461.625,464.656,466.98,471.469,475.752,478.262,483.358,485.633,489.308,491.585,496.583,500.826,505.109,508.14,510.465,515.463,520.612" y="104.49199999999996" svg_rhmargin="522.748" style="fill:#000000;font-family:LHOLEN+RgytqtAdvTT43ccf47d;font-size:9.8px;font-style:NORMAL;font-weight:normal;">(intraoperative fracture, postoperative dislocation,</text>
  <text x="327.344,332.645,336.754,339.91,344.068,347.743,352.572,355.728,360.566,365.555,368.005,372.38599999999997,374.909,379.907,383.414,387.089,389.366,392.12,394.412,398.793,402.917,406.072,408.359,413.357,418.65900000000005,421.172,424.327,431.604,439.15,442.149,444.285,446.854,451.137,456.322,461.418,463.976,468.454,472.129,476.959,479.409,484.711,487.22,492.316,496.462,498.912,504.059,507.214" y="116.45399999999995" svg_rhmargin="509.35" style="fill:#000000;font-family:LHOLEN+RgytqtAdvTT43ccf47d;font-size:9.8px;font-style:NORMAL;font-weight:normal;">heterotopic ossification (HO), and groin pain).</text>
  <text x="312.717,315.873,320.665,323.821,327.345,332.348,335.608,340.915,346.115,350.496,354.506,359.721,364.108,367.887,370.441,375.027,380.532,382.668,386.655,392.678,399.416,405.949,409.624,413.602,420.537,424.923,428.702,432.985,436.979,440.758,445.144,449.835,454.221,458.0,463.2,467.586,472.682,476.714,481.1,484.77500000000003,488.811,493.197,495.751,498.305,502.995,505.549,510.651,513.101,517.384,521.479,524.033" y="128.47199999999998" svg_rhmargin="529.335" style="fill:#000000;font-family:LHOLEN+RgytqtAdvTT43ccf47d;font-size:9.8px;font-style:NORMAL;font-weight:normal;">(5) Study design: RCTs were regarded as eligible in</text>
  <text x="327.344,330.575,336.017,340.3,344.294,348.093,351.324,356.653,361.749,365.838" y="140.49099999999999" svg_rhmargin="367.974" style="fill:#000000;font-family:LHOLEN+RgytqtAdvTT43ccf47d;font-size:9.8px;font-style:NORMAL;font-weight:normal;">the study.</text>
  <text x="312.717,320.165,325.261,330.746,334.313,340.33,347.187,352.913,356.882,359.01800000000003,363.799,366.347,370.728,373.883,377.039,381.419,385.094,389.141,391.27700000000004,396.057,400.438,405.848,411.052,415.843,420.224,425.428,427.976,431.131,436.227,439.994,442.542,446.923,449.471,454.225,458.605,463.701,471.865,480.028,484.499,489.908,493.173,496.946,501.733,508.563,512.944,516.619,521.0,525.771,530.151,534.944" y="164.47199999999998" svg_rhmargin="538.511" style="fill:#131413;font-family:LHOKCP+LxflhwAdvTT86d47313;font-size:9.8px;font-style:NORMAL;font-weight:normal;">Non-RCTs, letters, and editorial comments were ex-</text>
  <text x="304.723,309.104,311.652,316.954,322.157,326.538,331.742,334.771,337.319,342.72900000000004,345.656,348.811,354.113,356.661,360.434,363.457,371.62,376.001,379.157,383.537,387.104,391.485,396.894,401.275,403.823,408.358,412.131,414.679,418.452" y="176.49099999999999" svg_rhmargin="420.588" style="fill:#131413;font-family:LHOKCP+LxflhwAdvTT86d47313;font-size:9.8px;font-style:NORMAL;font-weight:normal;">cluded in this meta-analysis.</text>
  <text x="304.724,309.416,312.572,317.742,323.005,327.605,330.406,334.234,338.926,341.226,345.918,350.03,353.186,355.578,360.748" y="200.47299999999996" svg_rhmargin="365.918" style="fill:#131413;font-family:LHOKCN+HjkgddAdvTT99c4c969;font-size:9.2px;font-style:NORMAL;font-weight:normal;">Study selection</text>
  <text x="304.724,311.471,315.851,320.088,325.184,328.705,333.908,336.301,341.711,346.40500000000003,351.042,354.197,359.293,363.968,367.123,372.301,376.682,381.372,384.224,389.196,392.87,400.874,406.176,408.585,412.965,415.955,420.336,425.54,430.186,433.959,438.179,442.56,446.116,450.497,455.79900000000004,460.459,464.232,467.206,470.881,475.086,478.241,482.512,487.206,491.413,493.54900000000004,498.273,502.654,505.076,507.624,512.333,517.537,521.744,526.948,531.212,534.887" y="212.49199999999996" svg_rhmargin="538.66" style="fill:#131413;font-family:LHOKCP+LxflhwAdvTT86d47313;font-size:9.8px;font-style:NORMAL;font-weight:normal;">According to the formulated search strategy, all papers</text>
  <text x="304.724,311.555,315.78,319.455,323.836,328.195,332.889,338.003,340.551,345.6,349.98,355.184,359.546,362.094,367.369,370.525,375.621,379.955,385.463,390.727,395.931,401.159,406.255,409.267,413.648,418.054,424.787,429.68699999999995,434.042,437.197,443.566,448.868,453.828,461.991,467.037,470.81,475.768,481.178,485.576,491.593,495.837,501.139,504.171,508.551,512.051,515.963,518.0989999999999,522.483,529.286,536.429" y="224.45299999999997" svg_rhmargin="538.565" style="fill:#131413;font-family:LHOKCP+LxflhwAdvTT86d47313;font-size:9.8px;font-style:NORMAL;font-weight:normal;">were guided into Endnote X7 (Thompson Reuters, CA,</text>
  <text x="304.724,311.868,316.687,323.625,326.665,328.80100000000004,331.484,338.011,344.841,349.937,352.517,356.192,360.573,364.933,367.481,371.736,378.567,382.791,386.466,390.23900000000003,392.882,396.038,402.163,407.339,411.72,416.81600000000003,419.471,429.369,433.588,438.998,443.692,446.344,450.724,455.982,461.18600000000004,463.919,471.345,476.441,481.72,486.414,489.828,496.658,500.883,503.431,506.155,511.967,516.347,521.349,524.505,527.189,529.737,535.012" y="236.47199999999998" svg_rhmargin="538.579" style="fill:#131413;font-family:LHOKCP+LxflhwAdvTT86d47313;font-size:9.8px;font-style:NORMAL;font-weight:normal;">USA). Two reviewers (Zhao Wang and Hong-wei Bao) in-</text>
  <text x="304.724,309.928,314.135,319.339,323.603,329.012,334.035,338.415,343.673,346.829,349.229,353.61,356.542,360.315,364.536,368.917,374.174,379.584,383.812,389.016,391.976,395.131,400.253,404.634,407.622,410.778,413.122,416.278,418.678,423.058,426.831,429.733,434.113,439.371,444.575,447.479,451.859,456.833,460.605,463.579,467.254,471.516,475.896,479.052,482.82500000000005,485.689,490.785,493.637,496.517,499.673,504.794,509.17499999999995,512.108,517.312,522.256,525.411,529.682,535.092" y="248.49" svg_rhmargin="538.659" style="fill:#131413;font-family:LHOKCP+LxflhwAdvTT86d47313;font-size:9.8px;font-style:NORMAL;font-weight:normal;">dependently scanned the titles and abstracts of the poten-</text>
  <text x="304.724,307.88,310.28,314.66,317.208,323.772,327.545,330.519,335.82,340.894,343.332,347.713,351.383,353.519,360.113,363.377,366.229,372.812,375.968,381.146,385.398,389.073,393.45399999999995,400.024,406.855,411.236,415.009,421.624,426.005,432.68,437.06,441.978,447.387,450.368,454.043,458.986,463.474,467.716,471.391,475.03,479.41099999999994,486.028,491.124,495.382,498.538,505.19,509.571,513.807,519.217,525.883,529.038,534.16" y="260.452" svg_rhmargin="538.541" style="fill:#131413;font-family:LHOKCP+LxflhwAdvTT86d47313;font-size:9.8px;font-style:NORMAL;font-weight:normal;">tial studies. If there was a controversy between the</text>
  <text x="304.724,308.399,312.78,317.14,319.578,323.959,330.69,335.071,338.57,342.482,344.61800000000005,347.188,354.019,358.4,360.908,365.289,368.959,373.859,378.086,383.29,385.91,390.29100000000005,392.939,396.712,400.933,406.342,408.756,413.745,417.42,419.982,423.657,428.037,432.397,434.945,439.2,446.031,450.256,453.931,456.492,459.648,464.744,467.208,475.371,479.623,484.523,488.904,491.415,495.79600000000005,498.332,503.536,507.916,512.297,514.66,518.433,520.839,525.829,531.238" y="272.471" svg_rhmargin="533.374" style="fill:#131413;font-family:LHOKCP+LxflhwAdvTT86d47313;font-size:9.8px;font-style:NORMAL;font-weight:normal;">reviewers, we asked a senior reviewer to make a decision.</text>
  <text x="304.724,310.953,315.553,318.708,323.40000000000003,326.211,330.903,335.402,338.558,341.814,346.415,350.527,353.683,355.983,361.153" y="296.454" svg_rhmargin="366.323" style="fill:#131413;font-family:LHOKCN+HjkgddAdvTT99c4c969;font-size:9.2px;font-style:NORMAL;font-weight:normal;">Date extraction</text>
  <text x="304.724,311.251,318.082,323.178,327.912,331.587,336.076,340.564,343.112,347.493,354.324,358.81,362.485,366.25800000000004,370.942,374.098,380.353,385.655,390.035,395.13100000000003,399.856,409.754,414.134,419.544,424.238,428.939,433.32,438.729,443.933,448.668,451.726,454.274,459.683,464.377,467.774,472.057,477.358,481.739,486.835,491.585,499.131,504.227,509.528,512.684,517.38,519.928,525.338,530.541,535.012" y="308.473" svg_rhmargin="538.579" style="fill:#131413;font-family:LHOKCP+LxflhwAdvTT86d47313;font-size:9.8px;font-style:NORMAL;font-weight:normal;">Two reviewers (Zhao Wang and Jing-zhao Hou) inde-</text>
  <text x="304.724,309.928,314.309,319.718,324.922,329.386,334.795,337.951,340.499,344.88,348.492,352.872,357.664,360.82,364.495,368.875,373.256,376.412,380.07,383.225,388.527,392.908,396.511,399.363,404.459,407.007,409.555,414.651,421.481,424.029,429.439,434.13300000000004,437.783,440.331,445.741,448.593,453.689,457.364,465.62,470.001,473.156,475.704,480.8,486.21,488.346,491.983,494.835,497.383,501.058,504.83,507.986,511.598,515.979,521.281,524.436,529.738,534.834" y="320.491" svg_rhmargin="538.509" style="fill:#131413;font-family:LHOKCP+LxflhwAdvTT86d47313;font-size:9.8px;font-style:NORMAL;font-weight:normal;">pendently extract the following information: first author</text>
  <text x="304.724,310.134,314.514,322.678,327.05899999999997,333.071,337.451,342.861,348.065,354.047,359.251,364.553,369.649,372.302,374.85,379.231,383.612,386.767,389.315,394.411,399.821,405.865,410.246,414.626,419.007,422.022,424.158,430.13,434.51,439.606,444.908,450.318,453.473,457.148,461.529,463.665,469.702,474.905,479.286,482.442,484.99,489.37,494.874,498.162" y="332.453" svg_rhmargin="501.935" style="fill:#131413;font-family:LHOKCP+LxflhwAdvTT86d47313;font-size:9.8px;font-style:NORMAL;font-weight:normal;">name and publication year, country, patients</text>
  <text svg_rhmargin="503.889" x="501.958,503.889" y="332.453" style="fill:#131413;font-family:LHOKDP+PjsdtnAdvTT86d47313+20;font-size:9.8px;font-style:NORMAL;font-weight:normal;">’ </text>
  <text x="509.044,513.739,518.119,523.529,527.909,531.584,535.965" y="332.453" svg_rhmargin="538.513" style="fill:#131413;font-family:LHOKCP+LxflhwAdvTT86d47313;font-size:9.8px;font-style:NORMAL;font-weight:normal;">general</text>
  <text x="304.724,309.105,314.407,318.787,322.462,326.843,331.223,334.489,338.869,342.544,345.092,348.865,352.021,354.569,358.95000000000005,362.779,365.935,371.344,376.44,378.576,382.451,387.547,390.399,394.187,399.39,403.771,406.927,409.475,413.855,419.359,422.647,426.616,428.752,432.511,436.892,441.586,446.06,448.196,451.956,457.16,460.835,465.931,471.134,476.23,479.905,483.061,485.609,490.848,496.25800000000004,500.032,505.128,507.97999999999996,511.768,514.62,519.0,527.245,531.625,534.173" y="344.472" svg_rhmargin="538.554" style="fill:#131413;font-family:LHOKCP+LxflhwAdvTT86d47313;font-size:9.8px;font-style:NORMAL;font-weight:normal;">characteristic (no. of patients, age, proportion of female</text>
  <text x="304.724,309.928,314.309,317.464,320.012,324.393,329.896,333.127,337.152,339.288,342.425,348.236,357.32,360.584,363.739,365.875,369.014,374.11,379.411,382.567,387.043,392.139,400.302,404.682,408.699,410.83500000000004,413.972,417.745,420.9,426.202,431.49,435.871,438.007,441.128,445.509,450.918,456.122,459.27,462.122,467.218,469.766,472.313,477.409,484.24,487.807,493.229,498.433,501.563,506.767,512.069,515.744,520.124,523.28,525.828,530.924,536.333" y="356.49" svg_rhmargin="538.469" style="fill:#131413;font-family:LHOKCP+LxflhwAdvTT86d47313;font-size:9.8px;font-style:NORMAL;font-weight:normal;">patients, BMI), outcomes, study, and follow-up duration.</text>
  <text x="304.724,311.251,316.553,320.93399999999997,323.943,329.147,332.822,335.37,343.533,347.913,351.588,355.96900000000005,359.093,364.189,369.491,372.646,377.027,382.123,390.388,394.769,398.54200000000003,401.613,408.444,412.824,416.499,420.88,423.95,431.496,435.876,439.551,443.226,445.774,449.547,452.693,457.995,460.543,465.747,468.794,472.567,476.948,482.044,485.802,490.183,493.228,497.609,500.765,503.83,508.72999999999996,511.767,518.597,522.978,527.358,532.46,536.429" y="368.452" svg_rhmargin="538.565" style="fill:#131413;font-family:LHOKCP+LxflhwAdvTT86d47313;font-size:9.8px;font-style:NORMAL;font-weight:normal;">The primary outcomes were Harris hip score at 2 weeks,</text>
  <text x="304.724,309.62399999999997,313.852,320.683,325.063,329.444,334.489,338.513,340.649,344.863,349.763,354.66299999999995,358.923,365.753,370.134,374.514,379.559,383.33200000000005,387.553,391.934,397.418,402.622,406.829,411.729,415.956,420.337,424.717,429.098,432.114,434.25,437.954,444.02,451.05,456.048,460.291,464.672,467.82800000000003,472.083,476.983,481.883,486.143,491.445,493.581,497.822,502.722,507.62199999999996,511.882,517.183,519.319,523.56,527.941,533.35" y="380.47" svg_rhmargin="538.554" style="fill:#131413;font-family:LHOKCP+LxflhwAdvTT86d47313;font-size:9.8px;font-style:NORMAL;font-weight:normal;">6 weeks, 12 weeks and 1 year, VAS at 24 h, 48 h, and</text>
  <text x="304.724,309.624,314.524,321.675,326.977,329.113,336.302,338.85,344.259,348.64,351.188,354.961,357.509,362.605,368.01500000000004,375.194,377.741,382.122,387.609,392.303,395.459,400.76,402.896,410.06,415.156,420.359,424.74,428.415,432.795,435.951,438.499,443.735,449.14500000000004,456.264,459.42,461.968,470.131,474.512,476.648,483.873,489.077,494.173,497.946,501.102,506.198,511.401,515.782,519.457,523.956,527.112,529.66,534.148" y="392.489" svg_rhmargin="538.529" style="fill:#131413;font-family:LHOKCP+LxflhwAdvTT86d47313;font-size:9.8px;font-style:NORMAL;font-weight:normal;">72 h; incision length, operation time, postoperative</text>
  <text x="304.724,309.82,312.368,317.464,322.56,327.764,330.69,333.238,338.334,342.107,346.11,348.24600000000004,351.099,353.647,358.028,363.515,368.209,371.365,376.66700000000003,379.559,384.655,387.50699999999995,390.558,395.859,400.955,404.728,409.932,412.48,415.73,420.11,422.658,425.538,429.31,432.466,436.847,441.227,443.363,446.287,450.667,456.077,461.281,464.145,468.526,473.622,481.785,486.989,489.537,492.085,496.574,500.955,504.11,506.658,511.754,517.164,520.937,523.843,526.999,529.547,534.956" y="404.451" svg_rhmargin="538.523" style="fill:#131413;font-family:LHOKCP+LxflhwAdvTT86d47313;font-size:9.8px;font-style:NORMAL;font-weight:normal;">blood loss, length of hospital stay, and complications (in-</text>
  <text x="304.724,307.88,311.555,315.935,321.031,326.324,330.705,334.38,338.76,341.916,344.464,348.952,353.33299999999997,358.469,361.321,364.996,369.376,373.757,377.007,382.309,385.984,390.365,392.50100000000003,397.644,402.848,407.944,411.717,414.872,419.968,425.172,429.552,433.227,437.727,440.882,443.43,447.918,452.299,457.399,462.603,465.151,468.924,471.472,476.567,481.04,485.421,488.576,491.124,496.22,501.63,503.766,508.934,514.235,518.616,521.771,526.152,529.827,534.923" y="416.469" svg_rhmargin="538.49" style="fill:#131413;font-family:LHOKCP+LxflhwAdvTT86d47313;font-size:9.8px;font-style:NORMAL;font-weight:normal;">traoperative fracture, postoperative dislocation, hetero-</text>
  <text x="304.724,307.88,312.976,318.18,320.728,325.10900000000004,328.138,333.234,337.007,340.78,343.328,346.18,348.728,353.108,357.489,360.645,363.192,368.288,373.69800000000004,376.781,379.937,387.483,395.136,398.292,400.428,403.427,407.808,413.217,418.421,421.399,426.093,429.768,434.864,437.412,442.822,445.834,451.038,455.418,457.966,463.376" y="428.488" svg_rhmargin="466.532" style="fill:#131413;font-family:LHOKCP+LxflhwAdvTT86d47313;font-size:9.8px;font-style:NORMAL;font-weight:normal;">topic ossification (HO), and groin pain)</text>
  <text x="466.582" y="428.488" svg_rhmargin="469.032" style="fill:#131413;font-family:LHOLEO+XlcngpAdvTT4fa15320.B;font-size:9.8px;font-style:NORMAL;font-weight:normal;">.</text>
  <text x="304.724,311.137,316.307,319.463,323.575,328.746,336.501,341.193,344.069,351.825,356.517,361.117,364.944,370.115,373.372,378.064,381.891,384.718,389.318,394.489,399.751,402.519,406.347,409.502,414.102,417.258,419.641,423.468,426.624,428.924,433.036,437.636,439.93600000000004,442.715,447.315,452.485,457.085,459.385,463.985,467.886,470.186" y="452.473" svg_rhmargin="474.013" style="fill:#131413;font-family:LHOKCN+HjkgddAdvTT99c4c969;font-size:9.2px;font-style:NORMAL;font-weight:normal;">Outcome measures and statistical analysis</text>
  <text x="304.724,311.359,316.455,321.864,325.02,327.568,333.071,338.372,343.468,348.77,352.543,358.866,363.962,369.264,372.419,376.8,381.997,390.16,394.54,398.31300000000005,404.617,407.772,415.318,419.699,423.374,427.049,429.597,433.37,439.71,445.012,447.56,452.764,459.099,462.872,467.253,472.349,476.024,480.405,486.765,491.146,494.302,500.599,505.49899999999997,511.767,518.597,522.978,527.358,532.46,536.429" y="464.491" svg_rhmargin="538.565" style="fill:#131413;font-family:LHOKCP+LxflhwAdvTT86d47313;font-size:9.8px;font-style:NORMAL;font-weight:normal;">Continuous outcomes (Harris hip score at 2 weeks,</text>
  <text x="304.724,309.62399999999997,313.569,320.399,324.78,329.16,334.262,338.231,340.367,344.297,349.197,354.097,358.074,364.905,369.285,373.666,378.767,382.736,384.872,388.803,393.183,398.667,403.871,407.795,412.695,416.639,421.02,425.484,429.864,433.539,435.675,439.657,445.667,452.696,457.694,461.653,466.034,469.19,473.219,478.119,483.019,486.939,492.241,494.377,498.391,503.291,508.191,512.111,517.413,519.549,523.563,527.944,533.353" y="476.453" svg_rhmargin="538.557" style="fill:#131413;font-family:LHOKCP+LxflhwAdvTT86d47313;font-size:9.8px;font-style:NORMAL;font-weight:normal;">6 weeks, 12 weeks, and 1 year; VAS at 24 h, 48 h, and</text>
  <text x="304.724,309.624,314.524,321.675,326.977,329.113,336.302,338.85,344.259,348.64,351.188,354.961,357.509,362.605,368.01500000000004,375.193,377.741,382.122,387.609,392.303,395.459,400.76,402.896,410.06,415.156,420.359,424.74,428.415,432.795,435.951,438.499,443.735,449.14500000000004,456.264,459.42,461.968,470.131,474.512,476.648,483.873,489.077,494.173,497.946,501.102,506.198,511.401,515.782,519.457,523.956,527.112,529.66,534.148" y="488.472" svg_rhmargin="538.529" style="fill:#131413;font-family:LHOKCP+LxflhwAdvTT86d47313;font-size:9.8px;font-style:NORMAL;font-weight:normal;">72 h; incision length, operation time, postoperative</text>
  <text x="304.724,309.82,312.368,317.464,322.56,327.764,332.107,334.655,339.751,343.524,347.584,349.72,353.99,358.371,363.855,369.059,373.323,375.871,380.251,385.661,390.355,393.51,398.812,403.2,408.296,411.14799999999997,415.672,420.974,426.07,429.843,435.046,437.594,440.844,445.225,447.773,452.069,455.842,458.997,463.378,467.758,470.914,475.256,482.087,486.467,490.224,494.605,498.898,503.278,508.07,513.274,516.949,521.33,525.203,528.976,533.357" y="500.49" svg_rhmargin="538.561" style="fill:#131413;font-family:LHOKCP+LxflhwAdvTT86d47313;font-size:9.8px;font-style:NORMAL;font-weight:normal;">blood loss, and length of hospital stay) were expressed</text>
  <text x="304.724,309.203,312.976,316.006,319.161,324.463,328.84400000000005,331.937,338.767,343.148,345.696,350.39,355.692,358.847,363.228,368.432,371.565,379.729,384.109,388.49,393.90000000000003,396.964,402.168,404.716,407.567,410.419,414.8,418.475,422.855,428.372,432.752,437.133,440.906,443.962,447.118,457.016,466.1,473.244,476.40000000000003,479.453,486.283,488.831,491.987,497.28900000000004,500.372,505.272,510.172,517.003,520.045,524.425,529.521,535.012" y="512.452" svg_rhmargin="538.579" style="fill:#131413;font-family:LHOKCP+LxflhwAdvTT86d47313;font-size:9.8px;font-style:NORMAL;font-weight:normal;">as the weighted mean differences (WMD) with 95% con-</text>
  <text x="304.724,307.576,310.124,315.328,319.708,325.118,329.498,333.879,341.178,343.726,349.135,352.291,356.672,360.681,365.169,369.55,372.098,375.87100000000004,383.074,386.23,392.939,396.202,399.975,403.131,405.267,412.498,419.132,424.228,432.392,437.595,440.143,442.691,447.072,451.559,454.715,457.263,462.359,467.768,471.541,478.772,481.927,484.475,489.885,493.04,496.715,501.096,506.192,511.395,515.776,519.451,523.956,527.112,529.659,534.148" y="524.471" svg_rhmargin="538.529" style="fill:#131413;font-family:LHOKCP+LxflhwAdvTT86d47313;font-size:9.8px;font-style:NORMAL;font-weight:normal;">fidence intervals (CIs). Complications (intraoperative</text>
  <text x="304.724,307.576,311.251,315.632,320.012,323.168,328.469,332.144,336.643,338.779,342.766,347.969,353.065,356.838,359.994,365.09,370.293,374.797,378.472,382.853,386.009,388.557,393.045,397.42600000000004,401.5,406.704,409.252,413.025,415.573,420.669,425.142,429.522,432.678,435.226,440.322,445.731,447.867,451.901,459.447,467.101,469.237,473.332,477.712,483.122,488.326,492.324,497.018,500.693,505.789,508.425,513.835,517.836,523.039,527.42,529.968,535.378" y="536.489" svg_rhmargin="538.534" style="fill:#131413;font-family:LHOKCP+LxflhwAdvTT86d47313;font-size:9.8px;font-style:NORMAL;font-weight:normal;">fracture, postoperative dislocation, HO, and groin pain)</text>
  <text svg_rhmargin="503.707" x="304.724,311.555,315.935,319.61,323.991,327.685,332.066,336.858,342.062,345.737,350.117,353.991,357.764,362.145,367.349,370.999,375.478,379.25100000000003,382.904,386.579,389.127,392.9,397.79999999999995,401.499,405.174,409.555,412.71,415.258,420.354,424.007,427.162,433.179,439.197,442.353,446.06,452.891,455.439,458.594,463.896,467.604,472.504,477.403,484.23400000000004,487.9,494.535,497.798,501.571,503.70700000000005" y="548.451" style="fill:#131413;font-family:LHOKCP+LxflhwAdvTT86d47313;font-size:9.8px;font-style:NORMAL;font-weight:normal;">were expressed as risk ratio (RR) with 95% CIs. </text>
  <text svg_rhmargin="512.497" x="507.401,512.497" y="548.451" style="fill:#131413;font-family:LHOLEP+NvncstAdvTT8861b38f.I;font-size:9.8px;font-style:NORMAL;font-weight:normal;">p </text>
  <text x="514.43,519.732,521.687,526.587,528.724,533.624" y="548.451" svg_rhmargin="538.524" style="fill:#131413;font-family:LHOKCP+LxflhwAdvTT86d47313;font-size:9.8px;font-style:NORMAL;font-weight:normal;">&lt; 0.05</text>
  <text x="304.724,311.555,316.063,319.836,323.83,328.211,333.307,338.716,342.489,345.037,350.241,354.621,358.296,362.677,367.88100000000003,371.906,375.679,378.835,383.302,386.457,389.005,392.778,395.934,398.482,402.862,407.243,409.791,412.339,416.72,420.776,424.549,427.097,431.791,437.2,439.748,442.6,445.148,449.529,453.909,459.44,462.596,466.526,471.73,474.278,477.13,479.982,484.362,488.126,492.507,497.917,502.297,506.678,508.814,512.788,517.786,520.941,525.322,528.478,531.026,535.012" y="560.47" svg_rhmargin="538.579" style="fill:#131413;font-family:LHOKCP+LxflhwAdvTT86d47313;font-size:9.8px;font-style:NORMAL;font-weight:normal;">was considered statistically significant difference. Statis-</text>
  <text x="304.724,307.88,310.428,314.808,319.189,321.737,326.552,330.932,336.342,340.722,343.27,347.651,351.424,353.972,357.745,362.608,369.439,373.947,377.72,382.451,387.655,392.035,395.71,398.562,403.658,407.333,415.617,419.998,425.202,429.96,435.262,439.035,441.583,446.992,451.68600000000004,456.492,461.49,464.646,469.026,472.182,476.563,481.494,485.267,490.363,493.215,496.37,503.201,507.581,511.256,515.637,517.7729999999999,522.654,527.142,531.522,535.013" y="572.488" svg_rhmargin="538.58" style="fill:#131413;font-family:LHOKCP+LxflhwAdvTT86d47313;font-size:9.8px;font-style:NORMAL;font-weight:normal;">tical analysis was performed using Stata software, ver-</text>
  <text x="304.724,308.497,311.045,316.141,321.55100000000004,326.552,331.452,336.352,338.488,343.388,348.322,351.478,356.476,359.631,364.012,367.167,371.548,376.556,383.19,388.286,392.033,397.236,399.373,401.509,406.489,413.124,418.22,420.768,423.316,427.696,432.391,436.77200000000005,441.752,446.75,449.906,454.286,457.442,459.99,465.086,470.609,472.745,477.186,483.713,490.445,492.581,497.538,504.683,509.68,516.619,519.774,521.91,526.906,533.432" y="584.45" svg_rhmargin="538.528" style="fill:#131413;font-family:LHOKCP+LxflhwAdvTT86d47313;font-size:9.8px;font-style:NORMAL;font-weight:normal;">sion 12.0 (Stata Corp., College Station, TX, USA). To</text>
  <text svg_rhmargin="421.935" x="304.724,309.203,312.976,316.749,321.129,324.902,328.675,332.164,335.32,340.621,345.00199999999995,348.435,353.737,358.117,361.273,365.653,369.328,374.424,379.219,383.6,389.009,393.39,395.938,399.093,403.474,405.61,409.096,412.252,417.554,421.93499999999995" y="596.469" style="fill:#131413;font-family:LHOKCP+LxflhwAdvTT86d47313;font-size:9.8px;font-style:NORMAL;font-weight:normal;">assess the heterogeneity, the </text>
  <text x="425.366" y="596.469" svg_rhmargin="428.522" style="fill:#131413;font-family:LHOLEP+NvncstAdvTT8861b38f.I;font-size:9.8px;font-style:NORMAL;font-weight:normal;">I</text>
  <text svg_rhmargin="432.217" x="428.542,432.217" y="596.473" style="fill:#131413;font-family:LHOKCP+LxflhwAdvTT86d47313;font-size:6.53px;font-style:NORMAL;font-weight:normal;">2 </text>
  <text x="435.628,438.176,443.586,448.789,453.26,458.05199999999996,461.423,465.804,471.288,476.492,479.905,484.286,489.382,493.057,496.732,501.112,504.885,510.089,515.185,520.594,525.798,528.346,533.877" y="596.473" svg_rhmargin="538.571" style="fill:#131413;font-family:LHOKCP+LxflhwAdvTT86d47313;font-size:9.8px;font-style:NORMAL;font-weight:normal;">index and corresponding</text>
  <text svg_rhmargin="309.821" x="304.725,309.821" y="608.491" style="fill:#131413;font-family:LHOLEP+NvncstAdvTT8861b38f.I;font-size:9.8px;font-style:NORMAL;font-weight:normal;">p </text>
  <text svg_rhmargin="439.113" x="314.987,319.475,323.855,326.403,331.705,336.086,341.349,348.18,352.56,356.235,360.616,365.954,370.334,374.715,377.263,381.643,386.945,389.493,393.874,397.029,401.41,406.614,408.75,414.03,423.928,429.23,433.703,439.113" y="608.491" style="fill:#131413;font-family:LHOKCP+LxflhwAdvTT86d47313;font-size:9.8px;font-style:NORMAL;font-weight:normal;">value were calculated. When </text>
  <text x="444.302" y="608.491" svg_rhmargin="447.458" style="fill:#131413;font-family:LHOLEP+NvncstAdvTT8861b38f.I;font-size:9.8px;font-style:NORMAL;font-weight:normal;">I</text>
  <text svg_rhmargin="451.095" x="447.42,451.095" y="608.491" style="fill:#131413;font-family:LHOKCP+LxflhwAdvTT86d47313;font-size:6.53px;font-style:NORMAL;font-weight:normal;">2 </text>
  <text x="456.321,463.152,467.66,471.43300000000005,476.617,479.165,483.545,487.318,491.091,496.289,499.445,504.746,509.127,514.537,519.76,524.66,529.56,536.39" y="608.491" svg_rhmargin="538.526" style="fill:#131413;font-family:LHOKCP+LxflhwAdvTT86d47313;font-size:9.8px;font-style:NORMAL;font-weight:normal;">was less than 50%,</text>
  <text x="304.725,307.88,313.182,317.562,321.237,325.61800000000005,328.932,335.763,340.328,344.101,347.357,349.905,355.001,361.832,365.159,370.46,374.841,377.996,382.377,386.052,391.148,395.943,400.324,405.733,410.114,412.662,415.817,420.198,422.334,425.707,430.803,433.959,439.261,443.641,447.316,454.147,456.695,460.468,464.848,466.98400000000004,470.382,473.538,478.839,483.22,486.895,491.27599999999995,494.59,501.42,505.928,509.701,513.015,517.396,520.668,525.97,528.518,533.212" y="620.453" svg_rhmargin="538.514" style="fill:#131413;font-family:LHOKCP+LxflhwAdvTT86d47313;font-size:9.8px;font-style:NORMAL;font-weight:normal;">there was low heterogeneity; otherwise, there was a high</text>
  <text x="304.725,310.026,314.407,317.562,321.943,325.618,330.714,335.509,339.89,345.299,349.68,352.228,355.383,359.764,361.90000000000003,369.129,374.636,379.938,385.034,387.582,390.219,394.599,398.98,402.136,404.684,409.78,415.19,422.364,427.46,430.008,434.553,438.326,445.494,452.325,456.833,460.60600000000005,467.718,472.206,474.754,478.602,483.904,488.285,490.833,493.381,497.76199999999994,504.965,509.444,513.216,516.989,521.37,525.143,528.916,533.296" y="632.472" svg_rhmargin="538.5" style="fill:#131413;font-family:LHOKCP+LxflhwAdvTT86d47313;font-size:9.8px;font-style:NORMAL;font-weight:normal;">heterogeneity. Publication bias was visually assessed</text>
  <text x="304.725,310.026,313.799,316.347,321.757,326.451,330.293,333.145,338.447,343.857,349.266,353.647,356.195,359.944,365.148,367.696,372.792,376.102,379.875,383.585,386.741,391.121,393.973,396.825,401.33,405.711,408.867,412.725,416.498,419.046,423.329,427.71000000000004,431.434,438.265,442.773,446.54600000000005,450.199,453.972,458.353,466.516,474.679,479.17,482.325,486.0,490.381,492.379,498.09200000000004,500.033,505.442,510.538,514.206,519.41,524.712,529.808,532.462,535.01" y="644.49" svg_rhmargin="538.577" style="fill:#131413;font-family:LHOKCP+LxflhwAdvTT86d47313;font-size:9.8px;font-style:NORMAL;font-weight:normal;">using funnel plots (effect size was symmetry = no publi-</text>
  <text x="304.725,309.105,313.486,316.641,319.189,324.285,329.69500000000005,333.184,338.28,340.828,345.374,349.147,352.303,355.749,360.129,365.539,370.743,374.174,381.005,385.513,389.286,392.713,397.917,403.218,407.68,413.09,416.245,418.793,421.949,426.33,429.485,432.033,436.521,440.902,443.45,447.831,451.391,455.869,459.642,463.415,467.796,471.569,475.429,479.81,485.014,488.412,493.714,497.487,500.035,505.533,510.22700000000003,513.641,519.452,523.833,528.527" y="656.452" svg_rhmargin="533.221" style="fill:#131413;font-family:LHOKCP+LxflhwAdvTT86d47313;font-size:9.8px;font-style:NORMAL;font-weight:normal;">cation bias) and was quantitatively assessed using Begg</text>
  <text x="533.48" y="656.452" svg_rhmargin="535.411" style="fill:#131413;font-family:LHOKDP+PjsdtnAdvTT86d47313+20;font-size:9.8px;font-style:NORMAL;font-weight:normal;">’</text>
  <text x="534.784" y="656.452" svg_rhmargin="538.557" style="fill:#131413;font-family:LHOKCP+LxflhwAdvTT86d47313;font-size:9.8px;font-style:NORMAL;font-weight:normal;">s</text>
  <text x="304.726,307.881,312.262,316.035,319.19100000000003,322.187" y="668.471" svg_rhmargin="325.343" style="fill:#131413;font-family:LHOKCP+LxflhwAdvTT86d47313;font-size:9.8px;font-style:NORMAL;font-weight:normal;">test (</text>
  <text svg_rhmargin="330.458" x="325.362,330.458" y="668.471" style="fill:#131413;font-family:LHOLEP+NvncstAdvTT8861b38f.I;font-size:9.8px;font-style:NORMAL;font-weight:normal;">p </text>
  <text x="332.392,337.694,339.648,344.548,346.685,351.585,356.48499999999996,358.47,364.18300000000005,366.181,371.59,376.686,379.617,384.821,390.123,395.219,397.767,400.315,404.789,409.17,412.326,414.874,419.97,425.38000000000005,428.374,433.47,436.018,440.563,444.336,447.492" y="668.471" svg_rhmargin="449.628" style="fill:#131413;font-family:LHOKCP+LxflhwAdvTT86d47313;font-size:9.8px;font-style:NORMAL;font-weight:normal;">&gt; 0.05 = no publication bias).</text>
  <text x="304.724,310.729,316.085,320.483,326.375,329.156,332.905" y="692.454" svg_rhmargin="337.303" style="fill:#131413;font-family:LHOJOL+HnvspgAdvTTaf7f9f4f.B;font-size:10.3px;font-style:NORMAL;font-weight:normal;">Results</text>
  <text x="304.724,309.416,314.108,318.708,321.965,326.078,331.248,334.091,337.348,342.04,345.867,351.038,353.338,356.493,360.32,363.117,367.717,372.888,378.15,380.919,386.247,390.939,396.11,400.802,404.059,408.659,410.959,413.744,417.856,423.027,427.627,430.883,435.483,439.596,442.752,447.444,450.7,453.0,456.944,460.099,462.399" y="704.472" svg_rhmargin="466.511" style="fill:#131413;font-family:LHOKCN+HjkgddAdvTT99c4c969;font-size:9.2px;font-style:NORMAL;font-weight:normal;">Search results and general characteristic</text>
  <text x="304.724,309.82,312.368,317.062,322.364,326.039,330.41999999999996,335.621,340.52099999999996,345.712,349.485,354.787,359.883,366.714,370.487,375.703,378.859,384.16,388.54100000000005,393.732,396.584,399.132,404.228,411.058,415.439,420.74,425.253,428.928,432.084,437.215,440.067,445.163,448.838,454.053,457.826,462.207,464.755,469.247,473.628,476.783,479.331,484.427,489.83700000000005,495.099,500.195,503.04699999999997,508.195,511.968,515.123,520.425,525.629,528.264,532.645,536.417" y="716.491" svg_rhmargin="538.553" style="fill:#131413;font-family:LHOKCP+LxflhwAdvTT86d47313;font-size:9.8px;font-style:NORMAL;font-weight:normal;">Figure 1 shows the flowchart for selection of studies.</text>
  <text x="304.723,309.819,312.367,316.042,319.815,323.149,325.285,328.252,332.63300000000004,335.622,338.778,343.956,347.112,351.492,354.04,357.053,362.149,365.001,367.994,372.894,377.794,382.69399999999996,385.682,389.455,392.611,397.913,403.201,405.749,410.129,413.90200000000004,416.92,423.751,428.132,431.806,436.187,439.257,441.805,447.009,451.39,456.799,459.955,462.503,465.354,467.902,472.283,477.487,480.586,483.438,487.113,492.209,500.372,503.377,506.533,511.834,516.215,519.251,523.632,526.18,530.703,535.084" y="728.453" svg_rhmargin="538.651" style="fill:#131413;font-family:LHOKCP+LxflhwAdvTT86d47313;font-size:9.8px;font-style:NORMAL;font-weight:normal;">First, a total of 285 studies were identified from the elec-</text>
  <text x="304.723,307.879,311.554,316.65,322.059,324.607,328.98800000000006,334.26,339.464,343.845,347.0,351.381,356.477,361.02,364.793,369.173,372.946,378.198,381.354,386.861,392.163,397.259,406.432,410.812,416.016,417.997,423.71000000000004,425.651,430.551,435.451,440.351,442.487,447.705,453.212,461.376,466.472,471.006,474.779,479.15999999999997,481.154,486.867,488.808,493.708,498.608,500.744,505.986,515.884,520.264,525.36,530.591,535.686" y="740.472" svg_rhmargin="538.538" style="fill:#131413;font-family:LHOKCP+LxflhwAdvTT86d47313;font-size:9.8px;font-style:NORMAL;font-weight:normal;">tronic databases (PubMed = 147, Embase = 56, Web of</text>
  <text svg_rhmargin="76.101" x="56.693,63.437,67.269,71.685,76.101" y="48.13900000000001" style="fill:#131413;font-family:LHOKBL+TkctpbAdvTTe45e47d2;font-size:8.0px;font-style:NORMAL;font-weight:normal;">Wang </text>
  <text svg_rhmargin="243.832" x="78.463,82.039,84.535,86.91,91.07,92.814,94.478,96.888,99.72,103.88,108.04,110.536,114.784,118.944,120.688,123.024,127.184,129.432,131.811,137.139,139.635,142.131,146.379,150.539,154.699,158.859,162.435,166.595,168.339,171.667,173.991,177.655,181.815,184.31,188.47,192.046,194.542,198.038,200.409,204.569,208.817,212.977,215.376,219.536,223.112,226.024,229.6,233.76,236.256,239.584,243.832" y="48.13900000000001" style="fill:#131413;font-family:LHOKPN+RgbfmsAdvTT7329fd89.I;font-size:8.0px;font-style:NORMAL;font-weight:normal;">et al. Journal of Orthopaedic Surgery and Research </text>
  <text svg_rhmargin="294.384" y="48.13900000000001" x="247.856,250.128,254.232,258.336,262.44,266.544,268.816,270.512,274.616,278.72,280.376,284.48,288.584,292.688,294.384" style="fill:#131413;font-family:MyriadPro-Regular;font-size:8.0px;font-style:NORMAL;font-weight:normal;">(2018) 13:229 </text>
  <text x="496.061,500.309,504.141,508.557,512.557,514.94,519.0200000000001,521.403,525.731,528.059,530.417,534.497" y="48.13900000000001" svg_rhmargin="538.577" style="fill:#131413;font-family:LHOKBL+TkctpbAdvTTe45e47d2;font-size:8.0px;font-style:NORMAL;font-weight:normal;">Page 2 of 11</text>
 </g>
</svg>
