<?xml version="1.0" encoding="UTF-8"?>
<svg height="744.236" width="550.4550524" xmlns="http://www.w3.org/2000/svg">
 <g style="fill:none;">
  <text x="56.693,61.897,66.277,69.433,71.981,76.361,81.869,85.025,89.18,94.276,99.577,102.733,107.113,112.307,120.471,124.851,128.624,132.828,135.68,139.355,144.451,152.614,156.809,159.964,165.266,169.647,173.812,181.975,186.355,189.511,193.989,197.557,201.937,207.347,211.727,214.275,218.656,222.429,224.977,228.75,232.993,235.541,240.951,246.154,248.702,253.083,257.463,260.717,265.098,270.302,274.496,277.651,282.953,287.334" y="368.454" svg_rhmargin="290.49" style="fill:#131413;font-family:OAHGEE+QjjnrcAdvTT86d47313;font-size:9.8px;font-style:NORMAL;font-weight:normal;">patient outcomes from the meta-analysis indicated that</text>
  <text x="56.693,59.848,65.15,69.531,73.206,77.587,81.467,88.298,92.806,96.579,100.4,105.81,110.906,114.689,118.462,121.01,125.704,131.182,133.73,136.582,139.13,143.51,147.891,153.3,156.45600000000002,160.317,165.521,168.069,170.921,173.772,178.153,181.916,186.297,191.706,196.087,200.468,204.309,209.405,213.785,216.941,223.771,228.152,232.533,237.94299999999998,241.842,244.998,250.3,254.681,258.512,262.187,264.735,268.508,272.967,278.171,281.846,286.942" y="380.468" svg_rhmargin="290.509" style="fill:#131413;font-family:OAHGEE+QjjnrcAdvTT86d47313;font-size:9.8px;font-style:NORMAL;font-weight:normal;">there was no significant difference between the risedro-</text>
  <text x="56.693,62.102,66.483,69.639,74.02,78.292,82.672,88.082,93.28599999999999,97.509,101.89,106.986,112.474,115.63,119.304,124.4,126.94800000000001,131.182,135.876,139.551,144.647,149.949,155.152,158.92499999999998,163.218,166.893,171.273,175.967,180.348,184.023,189.227,191.775,197.292,201.986,206.19,209.346,214.648,219.029,223.311,229.122,238.207,245.351,249.731,254.112,259.414,263.794,269.204,273.898,278.279,282.561,285.109" y="392.483" svg_rhmargin="290.519" style="fill:#131413;font-family:OAHGEE+QjjnrcAdvTT86d47313;font-size:9.8px;font-style:NORMAL;font-weight:normal;">nate and control groups regarding the BMD change in</text>
  <text svg_rhmargin="124.478" x="56.693,60.975,66.071,71.481,75.862,79.252,84.152,87.474,90.63,100.528,109.612,116.756,118.765,124.478" y="404.449" style="fill:#131413;font-family:OAHGEE+QjjnrcAdvTT86d47313;font-size:9.8px;font-style:NORMAL;font-weight:normal;">zone 5 (WMD = </text>
  <text svg_rhmargin="132.142" x="126.429,132.142" y="404.449" style="fill:#131413;font-family:OAHNEA+JclqrsAdvTT86d47313+22;font-size:9.8px;font-style:NORMAL;font-weight:normal;">− </text>
  <text svg_rhmargin="186.326" x="134.083,138.983,141.119,146.019,150.919,153.055,156.417,161.317,166.285,173.11599999999999,176.428,183.063,186.326" y="404.449" style="fill:#131413;font-family:OAHGEE+QjjnrcAdvTT86d47313;font-size:9.8px;font-style:NORMAL;font-weight:normal;">0.99, 95% CI </text>
  <text svg_rhmargin="195.41" x="189.697,195.41" y="404.449" style="fill:#131413;font-family:OAHNEA+JclqrsAdvTT86d47313+22;font-size:9.8px;font-style:NORMAL;font-weight:normal;">− </text>
  <text svg_rhmargin="248.124" x="197.351,202.251,204.387,209.287,214.187,217.529,220.684,225.78,229.152,234.051,236.188,241.088,245.988,248.124" y="404.449" style="fill:#131413;font-family:OAHGEE+QjjnrcAdvTT86d47313;font-size:9.8px;font-style:NORMAL;font-weight:normal;">4.24 to 2.26; </text>
  <text svg_rhmargin="257.003" x="251.495,257.003" y="404.449" style="fill:#131413;font-family:OAHGPG+RlvwcrAdvTT8861b38f.I;font-size:9.8px;font-style:NORMAL;font-weight:normal;">P </text>
  <text x="258.924,264.637,266.636,271.536,273.673,278.572,283.472,288.372" y="404.449" svg_rhmargin="290.508" style="fill:#131413;font-family:OAHGEE+QjjnrcAdvTT86d47313;font-size:9.8px;font-style:NORMAL;font-weight:normal;">= 0.550,</text>
  <text x="56.703" y="416.463" svg_rhmargin="59.859" style="fill:#131413;font-family:OAHGPG+RlvwcrAdvTT8861b38f.I;font-size:9.8px;font-style:NORMAL;font-weight:normal;">I</text>
  <text svg_rhmargin="63.543" x="59.868,63.543" y="416.473" style="fill:#131413;font-family:OAHGEE+QjjnrcAdvTT86d47313;font-size:6.53px;font-style:NORMAL;font-weight:normal;">2 </text>
  <text x="66.501,72.214,74.155,79.054,83.954,86.091,90.991,97.909,100.045,102.956,108.052,110.6,115.373,117.509,120.42,125.32,130.23,133.385" y="416.473" svg_rhmargin="135.521" style="fill:#131413;font-family:OAHGEE+QjjnrcAdvTT86d47313;font-size:9.8px;font-style:NORMAL;font-weight:normal;">= 78.6%, Fig. 10).</text>
  <text x="56.693,62.82,67.42,70.677,73.934,76.234,80.06099999999999,82.886,88.056,90.356,95.72,98.48,102.307,106.419,111.59,114.847,119.622" y="440.454" svg_rhmargin="123.449" style="fill:#131413;font-family:OAHGDC+YfmhkcAdvTT99c4c969;font-size:9.2px;font-style:NORMAL;font-weight:normal;">Harris hip scores</text>
  <text x="56.693,63.631,67.63,70.785,75.881,79.037,83.417,85.965,90.022,95.118,97.97,101.988,104.84,109.936,115.237,118.91199999999999,122.96,126.733,129.888,135.19,140.394,142.942,147.322,151.095,155.162,158.837,163.218,168.422,173.518,177.192,180.348,184.729,189.93300000000002,193.999,197.674,202.055,204.603,209.14,213.628,218.009,223.419,226.57500000000002,230.622,235.825,240.206,243.361,247.742,251.77,255.445,259.825,264.519,268.9,272.575,277.779,280.327,285.844" y="452.473" svg_rhmargin="290.538" style="fill:#131413;font-family:OAHGEE+QjjnrcAdvTT86d47313;font-size:9.8px;font-style:NORMAL;font-weight:normal;">A total of four studies reported relevant data regarding</text>
  <text x="56.693,64.239,68.619,72.294,75.969,78.517,82.28999999999999,86.514,91.816,94.364,99.568,103.693,107.466,111.847,116.943,120.696,125.077,128.85,132.995,136.15,141.05,145.95,150.85,155.045,159.425,164.835,170.03900000000002,174.203,179.103,184.003,188.903,193.029,198.233,202.613,205.769,208.317,212.815,218.225,221.488,225.261,229.367,231.915,237.325,241.499,244.655,249.957,254.338,258.502,262.177,264.725,268.498,272.957,278.161,281.836,286.932" y="464.487" svg_rhmargin="290.499" style="fill:#131413;font-family:OAHGEE+QjjnrcAdvTT86d47313;font-size:9.8px;font-style:NORMAL;font-weight:normal;">Harris hip scores (108 and 111 patients in the risedro-</text>
  <text x="56.693,62.102,66.483,69.639,74.02,78.351,82.731,88.141,93.345,97.627,102.008,107.104,112.513,115.669,119.344,124.44,126.988,131.3,135.994,139.669,144.765,150.066,155.27,159.308,161.444,165.717,169.392,173.772,177.545,182.749,187.316,191.696,194.852,197.4,201.888,206.269,208.817,213.197,216.353,218.489,222.86,229.269,234.571,238.952,243.273,248.173,253.073,257.973,262.207,267.41,271.791,274.946,277.494,281.875,287.383" y="476.453" svg_rhmargin="290.539" style="fill:#131413;font-family:OAHGEE+QjjnrcAdvTT86d47313;font-size:9.8px;font-style:NORMAL;font-weight:normal;">nate and control groups, respectively). The 219 patient</text>
  <text svg_rhmargin="290.479" x="56.693,61.789,67.091,70.246,74.627,79.821,87.984,92.365,96.13799999999999,102.439,105.291,108.966,114.062,122.225,128.516,131.672,136.974,141.355,147.626,155.789,160.17,163.326,167.804,171.371,175.752,181.161,185.542,188.09,192.471,196.243,198.791,202.564,208.905,211.453,216.862,222.066,224.614,228.995,233.375,236.629,241.009,246.213,252.505,255.66,260.962,265.343,268.499,274.78,279.876,283.551,287.931,290.479" y="368.448" style="fill:#131413;font-family:OAHGEE+QjjnrcAdvTT86d47313;font-size:9.8px;font-style:NORMAL;font-weight:normal;">outcomes from the meta-analysis indicated that oral </text>
  <text x="304.719,308.394,310.941,314.714,319.095,324.299,327.974,333.07,338.479,342.987,346.143,350.524,355.511,359.892,364.988,370.29,372.838,378.04200000000003,383.01,385.558,390.967,395.348,399.023,403.404,407.951,411.724,416.105,420.994,424.15,429.452,433.83299999999997,438.742,446.288,450.668,454.343,458.018,460.566,464.339,469.298,474.6,477.148,482.35200000000003,487.271,491.044,495.425,500.521,504.195,508.576,512.349,517.318,521.698,526.794,534.957" y="368.448" svg_rhmargin="538.524" style="fill:#131413;font-family:OAHGEE+QjjnrcAdvTT86d47313;font-size:9.8px;font-style:NORMAL;font-weight:normal;">risedronate could increase the Harris hip scores com-</text>
  <text x="304.719,309.922,314.303,317.978,322.358,327.562,330.737,337.568,340.116,343.271,348.57300000000004,351.827,354.982,360.284,364.66499999999996,367.928,372.309,377.404,382.814,385.97,389.645,394.74,397.288,400.522,405.217,408.892,413.987,419.289,424.493,427.678,430.834,440.731,449.904,457.048,458.979,464.692,466.633,471.533,473.669,478.569,483.469,485.605,488.8,493.7,498.668,505.499,508.645,515.279,518.542,521.688,526.588,528.725,533.625" y="380.463" svg_rhmargin="538.525" style="fill:#131413;font-family:OAHGEE+QjjnrcAdvTT86d47313;font-size:9.8px;font-style:NORMAL;font-weight:normal;">pared with the control group (WMD = 3.85, 95% CI 1.23</text>
  <text svg_rhmargin="334.912" x="304.719,307.874,312.97,315.939,320.839,322.976,327.876,332.776,334.91200000000003" y="392.478" style="fill:#131413;font-family:OAHGEE+QjjnrcAdvTT86d47313;font-size:9.8px;font-style:NORMAL;font-weight:normal;">to 6.46; </text>
  <text svg_rhmargin="343.389" x="337.881,343.38899999999995" y="392.478" style="fill:#131413;font-family:OAHGPG+RlvwcrAdvTT8861b38f.I;font-size:9.8px;font-style:NORMAL;font-weight:normal;">P </text>
  <text svg_rhmargin="376.895" x="345.369,351.08200000000005,353.022,357.922,360.059,364.959,369.859,374.759,376.89500000000004" y="392.478" style="fill:#131413;font-family:OAHGEE+QjjnrcAdvTT86d47313;font-size:9.8px;font-style:NORMAL;font-weight:normal;">= 0.004, </text>
  <text x="379.894" y="392.478" svg_rhmargin="383.05" style="fill:#131413;font-family:OAHGPG+RlvwcrAdvTT8861b38f.I;font-size:9.8px;font-style:NORMAL;font-weight:normal;">I</text>
  <text svg_rhmargin="386.749" x="383.074,386.749" y="392.491" style="fill:#131413;font-family:OAHGEE+QjjnrcAdvTT86d47313;font-size:6.53px;font-style:NORMAL;font-weight:normal;">2 </text>
  <text x="389.707,395.42,397.361,402.261,407.161,409.297,414.197,421.116,423.252,426.163,431.259,433.807,438.579,440.71500000000003,443.626,448.526,453.495,456.65" y="392.491" svg_rhmargin="458.786" style="fill:#131413;font-family:OAHGEE+QjjnrcAdvTT86d47313;font-size:9.8px;font-style:NORMAL;font-weight:normal;">= 47.8%, Fig. 11).</text>
  <text x="304.724,311.8,314.581,318.98,323.584,329.475,333.873,338.271,341.052,347.078" y="416.473" svg_rhmargin="353.083" style="fill:#131413;font-family:OAHGAA+FxtdxbAdvTTaf7f9f4f.B;font-size:10.3px;font-style:NORMAL;font-weight:normal;">Discussion</text>
  <text x="304.724,311.251,316.553,319.101,322.874,326.666,329.214,332.987,336.809,339.965,345.267,349.648,353.538,356.389,358.937,362.612,366.385,369.541,373.441,381.605,385.985,389.141,393.521,397.088,401.469,407.006,411.386,413.934,418.315,422.088,424.636,428.40900000000005,432.29,436.67,441.766,449.929,455.133,459.612,463.287,465.835,471.244,475.93800000000005,479.79,482.945,488.247,492.62800000000004,496.518,500.899,503.751,506.602,509.15,513.531,517.911,522.292,526.673,530.592,535.688" y="428.491" svg_rhmargin="538.54" style="fill:#131413;font-family:OAHGEE+QjjnrcAdvTT86d47313;font-size:9.8px;font-style:NORMAL;font-weight:normal;">This is the first meta-analysis comparing the efficacy of</text>
  <text x="304.724,309.82,313.495,317.876,320.424,327.793,331.468,334.016,337.789,342.248,347.452,351.127,356.223,361.632,366.013,369.168,373.549,380.967,383.515,388.925,396.275,399.95,404.33,409.534,414.924,419.305,421.853,427.262,431.956,439.306,444.402,449.498,454.908,459.289,466.746,469.294,474.39,478.163,481.93600000000004,489.305,493.686,496.538,499.693,504.074,507.749,515.158,521.684,529.446,536.384" y="440.457" svg_rhmargin="538.52" style="fill:#131413;font-family:OAHGEE+QjjnrcAdvTT86d47313;font-size:9.8px;font-style:NORMAL;font-weight:normal;">oral risedronate in reducing bone loss after THA.</text>
  <text x="304.724,310.741,315.122,318.895,324.285,326.833,330.067,333.84000000000003,338.289,340.837,346.246,351.45,353.998,358.467,362.848,366.003,370.384,375.588,380.066,383.221,388.523,392.992,396.148,400.587,405.683,409.358,413.738,416.286,420.765,424.44,426.988,430.761,435.141,440.345,444.02,449.116,454.526,459.034,462.189,466.57000000000005,471.107,475.488,479.868,485.278,489.756,493.529,496.077,500.771,506.249,508.797,511.649,514.197,518.578,522.958,528.368,531.523,534.071" y="452.472" svg_rhmargin="538.452" style="fill:#131413;font-family:OAHGEE+QjjnrcAdvTT86d47313;font-size:9.8px;font-style:NORMAL;font-weight:normal;">Results indicated that oral risedronate can significantly</text>
  <text x="304.724,307.272,312.682,317.062,320.737,325.118,329.665,333.438,337.81899999999996,343.777,346.932,352.234,356.615,362.603,368.414,377.498,384.642,390.611,394.991,398.666,403.762,409.064,414.473,419.677,425.704,431.006,436.415,440.796,445.176,453.34,457.72,463.238,466.393,470.774,475.978,481.946,484.797,489.178,497.341,502.437,506.112,510.493,513.0409999999999,519.019,522.792,525.947,530.416" y="464.487" svg_rhmargin="538.579" style="fill:#131413;font-family:OAHGEE+QjjnrcAdvTT86d47313;font-size:9.8px;font-style:NORMAL;font-weight:normal;">increase the BMD around uncemented femoral stem</text>
  <text x="304.724,307.88,315.122,318.797,324.099,328.479,333.889,339.818,344.1,349.196,354.606,358.98699999999997,364.935,369.835,372.99,375.12600000000003,380.977,387.504,392.806,397.186,400.861,405.24199999999996,411.083,417.913,422.421,426.194,432.054,434.602,437.15,440.306,443.462,446.01,450.39099999999996,456.437,460.817,463.365,465.913,471.323,473.959,478.339,482.72,485.26800000000003,491.138,494.911,497.459,502.153,507.563,510.189,513.041,515.589,519.969,524.35,529.759,534.14" y="476.452" svg_rhmargin="538.521" style="fill:#131413;font-family:OAHGEE+QjjnrcAdvTT86d47313;font-size:9.8px;font-style:NORMAL;font-weight:normal;">(Gruen zone 1). There was little clinical significance</text>
  <text x="304.724,309.82,314.201,317.356,324.285,328.665,333.046,338.456,345.374,348.53,353.832,358.21299999999997,365.16,368.835,371.383,375.156,379.537,384.74,388.415,393.511,398.921,403.301,406.457,410.83799999999997,417.825,422.206,427.693,432.897,439.767,444.147,449.243,454.653,457.809,461.483,466.579,469.127,476.105,480.799,484.474,489.57,494.872,500.076,503.84900000000005,510.797,513.345,518.755,525.702,528.858,534.16" y="488.467" svg_rhmargin="538.541" style="fill:#131413;font-family:OAHGEE+QjjnrcAdvTT86d47313;font-size:9.8px;font-style:NORMAL;font-weight:normal;">between the risedronate and control groups in the</text>
  <path d=" M 60.71799850463867 702.2550048828125 L 534.5570068359375 702.2550048828125 L 534.5570068359375 702.0280151367188 L 60.71799850463867 702.0280151367188" style="fill:none;stroke:#131413;stroke-width:0.0;"/>
  <path d=" M 534.5570068359375 702.2550048828125 L 535.2940063476562 702.197998046875 C 536.8519897460938 702.0260009765625 538.333984375 700.4860229492188 538.5260009765625 698.9669799804688 L 538.58203125 698.2869873046875 L 538.35498046875 698.2869873046875 L 538.2990112304688 698.9100341796875 C 538.083984375 700.3889770507812 536.7509765625 701.7470092773438 535.2369995117188 701.9719848632812 L 534.5570068359375 702.0280151367188" style="fill:none;stroke:#131413;stroke-width:0.0;"/>
  <path d=" M 538.5830078125 698.2860107421875 L 538.5830078125 462.2170104980469 L 538.3560180664062 462.2170104980469 L 538.3560180664062 698.2860107421875" style="fill:none;stroke:#131413;stroke-width:0.0;"/>
  <path d=" M 538.5830078125 462.21697998046875 L 538.5260009765625 461.47998046875 C 538.3309936523438 459.91998291015625 536.781982421875 458.4759826660156 535.2949829101562 458.24798583984375 L 534.5579833984375 458.1919860839844 L 534.5579833984375 458.4749755859375 L 535.238037109375 458.531982421875 C 536.7850341796875 458.72698974609375 538.010009765625 460.0379943847656 538.2999877929688 461.5369873046875 L 538.3560180664062 462.21697998046875" style="fill:none;stroke:#131413;stroke-width:0.0;"/>
  <path d=" M 534.5570068359375 458.1919860839844 L 60.718017578125 458.1919860839844 L 60.718017578125 458.4749755859375 L 534.5570068359375 458.4749755859375" style="fill:none;stroke:#131413;stroke-width:0.0;"/>
  <path d=" M 60.718017578125 458.1919860839844 L 59.98101806640625 458.2489929199219 C 58.4940185546875 458.4759826660156 56.94501876831055 459.91998291015625 56.74901580810547 461.47998046875 L 56.693016052246094 462.21697998046875 L 56.92001724243164 462.21697998046875 L 56.976016998291016 461.5369873046875 C 57.26601791381836 460.0379943847656 58.49101638793945 458.72698974609375 60.03801727294922 458.531982421875 L 60.718017578125 458.4749755859375" style="fill:none;stroke:#131413;stroke-width:0.0;"/>
  <path d=" M 56.69300842285156 462.21697998046875 L 56.69300842285156 698.2860107421875 L 56.92000961303711 698.2860107421875 L 56.92000961303711 462.21697998046875" style="fill:none;stroke:#131413;stroke-width:0.0;"/>
  <path d=" M 56.69300842285156 698.2860107421875 L 56.75000762939453 698.9660034179688 C 56.941009521484375 700.4860229492188 58.42300796508789 702.0250244140625 59.98101043701172 702.197998046875 L 60.71800994873047 702.2540283203125 L 60.71800994873047 702.0280151367188 L 60.03800964355469 701.9710083007812 C 58.524009704589844 701.7470092773438 57.19200897216797 700.3890380859375 56.976009368896484 698.9100341796875 L 56.92000961303711 698.2860107421875" style="fill:none;stroke:#131413;stroke-width:0.0;"/>
  <path d="M60.717 97.744 L534.557 97.744 L534.557 97.971 L60.717 97.971 M534.557 97.744 L535.294 97.802 C536.852 97.973 538.334 99.513 538.526 101.033 L538.582 101.713 L538.354 101.713 L538.299 101.089 C538.084 99.611 536.751 98.252 535.237 98.028 L534.557 97.971 M538.583 101.713 L538.583 337.782 L538.356 337.782 L538.356 101.713 M538.583 337.783 L538.526 338.52 C538.331 340.08 536.782 341.524 535.295 341.752 L534.557 341.808 L534.557 341.525 L535.238 341.468 C536.785 341.273 538.01 339.962 538.3 338.463 L538.356 337.783 M534.557 341.808 L60.718 341.808 L60.718 341.525 L534.557 341.525 M60.718 341.808 L59.981 341.751 C58.494 341.524 56.945 340.08 56.749 338.52 L56.693 337.783 L56.92 337.783 L56.976 338.463 C57.266 339.962 58.491 341.273 60.038 341.468 L60.718 341.525 M56.693 337.783 L56.693 101.713 L56.92 101.713 L56.92 337.783 M56.693 101.713 L56.75 101.033 C56.941 99.513 58.423 97.974 59.981 97.802 L60.718 97.745 L60.718 97.971 L60.038 98.028 C58.524 98.252 57.192 99.61 56.976 101.089 L56.92 101.713 M127.276 103.981 L468.0 103.981 L468.0 323.553 L127.276 323.553 " style="fill:none;stroke:#000000;stroke-width:1.0;"/>
  <rect style="stroke:blue;stroke-width:0.3;" x="127.276" y="103.981" height="219.572" width="340.756" title="5"/>
  <text x="127.276" y="103.981" class="image" id="image.5.1" width="340" height="219">image.5.1.127_468.104_324</text>
  <text svg_rhmargin="82.478" x="62.702,66.862,69.022,73.686,75.686,78.062,82.478" y="335.572" style="fill:#131413;font-family:OAHGAA+FxtdxbAdvTTaf7f9f4f.B;font-size:8.0px;font-style:NORMAL;font-weight:normal;">Fig. 4 </text>
  <text x="84.87,88.534,92.782,95.11,98.942,101.854,104.27,106.582,110.91,112.574,116.822,119.238,121.662,125.158,129.405,135.901,140.229,143.805,146.037,147.701,151.949,156.27700000000002,158.677,161.093,165.341,169.173,171.549,175.549,181.709,186.869,189.237,192.733,196.981,200.557,204.805,209.132,212.964,215.316,216.98,221.22799999999998,223.596,226.756,231.004,235.252,239.084,241.452,245.284,247.684,252.012,255.844,258.26,264.004,267.836,271.668,275.916,278.244,280.66,284.907,288.739,291.115,293.531,299.275,303.52299999999997,305.851,310.179,312.507,316.755,320.915,325.243" y="335.572" svg_rhmargin="328.155" style="fill:#131413;font-family:OAHGDB+DrpcbdAdvTTb5929f4c;font-size:8.0px;font-style:NORMAL;font-weight:normal;">Forest plot comparing the BMD change in zone 1 between the two groups</text>
  <path d=" M 60.71799850463867 298.3179931640625 L 534.5570068359375 298.3179931640625 L 534.5570068359375 298.09100341796875 L 60.71799850463867 298.09100341796875" style="fill:none;stroke:#131413;stroke-width:0.0;"/>
  <path d=" M 534.5570068359375 298.3179931640625 L 535.2940063476562 298.260986328125 C 536.8519897460938 298.0889892578125 538.333984375 296.5489807128906 538.5260009765625 295.0299987792969 L 538.58203125 294.3500061035156 L 538.35498046875 294.3500061035156 L 538.2990112304688 294.9729919433594 C 538.0800170898438 296.4389953613281 536.7030029296875 297.81597900390625 535.2369995117188 298.0350036621094 L 534.5570068359375 298.09100341796875" style="fill:none;stroke:#131413;stroke-width:0.0;"/>
  <path d=" M 538.5830078125 294.3500061035156 L 538.5830078125 63.553009033203125 L 538.3560180664062 63.553009033203125 L 538.3560180664062 294.3500061035156" style="fill:none;stroke:#131413;stroke-width:0.0;"/>
  <path d=" M 538.5830078125 63.55299377441406 L 538.5260009765625 62.81599426269531 C 538.3309936523438 61.2559928894043 536.781982421875 59.81199264526367 535.2949829101562 59.58399200439453 L 534.5579833984375 59.527992248535156 L 534.5579833984375 59.81099319458008 L 535.238037109375 59.86799240112305 C 536.7850341796875 60.062992095947266 538.010009765625 61.373992919921875 538.2999877929688 62.87299346923828 L 538.3560180664062 63.55299377441406" style="fill:none;stroke:#131413;stroke-width:0.0;"/>
  <path d=" M 534.5570068359375 59.52800369262695 L 60.718017578125 59.52800369262695 L 60.718017578125 59.811004638671875 L 534.5570068359375 59.811004638671875" style="fill:none;stroke:#131413;stroke-width:0.0;"/>
  <path d=" M 60.718017578125 59.52800369262695 L 59.98101806640625 59.58500289916992 C 58.4940185546875 59.81200408935547 56.94501876831055 61.256004333496094 56.74901580810547 62.816001892089844 L 56.693016052246094 63.55300521850586 L 56.92001724243164 63.55300521850586 L 56.976016998291016 62.87300491333008 C 57.26601791381836 61.37400436401367 58.49101638793945 60.06300354003906 60.03801727294922 59.868003845214844 L 60.718017578125 59.81200408935547" style="fill:none;stroke:#131413;stroke-width:0.0;"/>
  <path d=" M 56.69300842285156 63.55299377441406 L 56.69300842285156 294.3499755859375 L 56.92000961303711 294.3499755859375 L 56.92000961303711 63.55299377441406" style="fill:none;stroke:#131413;stroke-width:0.0;"/>
  <path d=" M 56.69300842285156 294.3500061035156 L 56.75000762939453 295.0299987792969 C 56.941009521484375 296.5500183105469 58.42300796508789 298.0890197753906 59.98101043701172 298.2619934082031 L 60.71800994873047 298.3179931640625 L 60.71800994873047 298.0920104980469 L 60.03800964355469 298.0350036621094 C 58.5720100402832 297.8170166015625 57.19500732421875 296.4389953613281 56.976009368896484 294.9739990234375 L 56.92000961303711 294.3500061035156" style="fill:none;stroke:#131413;stroke-width:0.0;"/>
  <rect style="stroke:blue;stroke-width:0.3;" x="127.276" y="507.919" height="214.242" width="340.756" title="5"/>
  <text x="127.276" y="507.919" class="image" id="image.5.2" width="340" height="214">image.5.2.127_468.508_722</text>
  <text svg_rhmargin="82.478" x="62.702,66.862,69.022,73.686,75.686,78.062,82.478" y="734.236" style="fill:#131413;font-family:OAHGAA+FxtdxbAdvTTaf7f9f4f.B;font-size:8.0px;font-style:NORMAL;font-weight:normal;">Fig. 5 </text>
  <text x="84.87,88.534,92.782,95.11,98.942,101.854,104.27,106.582,110.91,112.574,116.822,119.238,121.662,125.158,129.405,135.901,140.229,143.805,146.037,147.701,151.949,156.27700000000002,158.677,161.093,165.341,169.173,171.549,175.549,181.709,186.869,189.237,192.733,196.981,200.557,204.805,209.132,212.964,215.316,216.98,221.22799999999998,223.596,226.756,231.004,235.252,239.084,241.452,245.284,247.684,252.012,255.844,258.26,264.004,267.836,271.668,275.916,278.244,280.66,284.907,288.739,291.115,293.531,299.275,303.52299999999997,305.851,310.179,312.507,316.755,320.915,325.243" y="734.236" svg_rhmargin="328.155" style="fill:#131413;font-family:OAHGDB+DrpcbdAdvTTb5929f4c;font-size:8.0px;font-style:NORMAL;font-weight:normal;">Forest plot comparing the BMD change in zone 7 between the two groups</text>
  <text svg_rhmargin="88.59" x="56.694,60.438,62.27,64.686,68.518,72.934,77.42999999999999,79.766,84.262,88.59" y="48.14099999999996" style="fill:#131413;font-family:OAHGDA+BhdlwdAdvTTe45e47d2;font-size:8.0px;font-style:NORMAL;font-weight:normal;">Li and Xu </text>
  <text svg_rhmargin="237.932" x="90.99,93.822,97.982,102.142,104.638,108.886,113.046,114.79,117.126,121.286,123.534,125.91,131.237,133.733,136.229,140.477,144.637,148.797,152.957,156.533,160.693,162.365,165.693,168.093,171.757,175.917,178.413,182.573,186.149,188.645,192.14100000000002,194.509,198.669,202.917,207.077,209.476,213.636,217.212,220.124,223.7,227.86,230.356,233.684,237.932" y="48.14099999999996" style="fill:#131413;font-family:OAHGMC+DblyspAdvTT7329fd89.I;font-size:8.0px;font-style:NORMAL;font-weight:normal;">Journal of Orthopaedic Surgery and Research </text>
  <text svg_rhmargin="288.483" y="48.14099999999996" x="241.956,244.228,248.332,252.436,256.54,260.644,262.916,264.612,268.716,272.82,274.476,278.58,282.684,286.787,288.483" style="fill:#131413;font-family:MyriadPro-Regular;font-size:8.0px;font-style:NORMAL;font-weight:normal;">(2018) 13:144 </text>
  <text x="500.137,504.385,508.217,512.633,516.633,519.017,523.0970000000001,525.481,529.808,532.136,534.496" y="48.14099999999996" svg_rhmargin="538.576" style="fill:#131413;font-family:OAHGDA+BhdlwdAdvTTe45e47d2;font-size:8.0px;font-style:NORMAL;font-weight:normal;">Page 5 of 9</text>
 </g>
</svg>
