<?xml version="1.0" encoding="UTF-8"?>
<svg height="769.854" width="551.2275730962963" xmlns="http://www.w3.org/2000/svg">
 <g style="fill:none;">
  <text x="70.276,75.661,78.484,81.484,82.984,87.524,89.71,92.511,94.179,95.679,99.055,101.822,103.652,106.661,108.329,109.829,114.368,116.554,119.355,121.023,122.523,126.551,128.449,130.447,131.947,136.043,139.16,141.949,144.751,146.507,148.007,149.507,152.597,155.416,158.291,161.291,162.791,168.248,171.122,173.12,174.62,177.449,179.234,182.331,185.331,186.831,188.766,191.611,193.563,195.147,197.843,200.638,203.329,206.251,208.073,211.124,214.139,215.639,217.139,218.639,220.139,221.639,223.139,224.639,226.139,227.639,229.139,230.639,232.139,233.639,235.139,236.639,238.139,239.639,241.139,242.639,244.139,245.639,247.139,248.639,250.139,251.639,253.139,254.639,256.139,257.639,259.139,260.639,262.139,263.639,265.139,266.639,268.139,269.639,271.139,272.639,274.139,275.639,277.139,278.639,280.139,281.639,283.139,284.639,286.139,287.639,289.139,290.639,292.139,293.639,295.139,296.639,298.139,299.639,301.139,302.639,304.139,305.639,307.139,308.639,310.139,311.639,313.139,314.639,316.139,318.367,323.148,326.173,327.952,330.821,333.891,335.753,338.087,339.587,341.48,344.48,345.98,349.105,351.872,353.753,355.468,358.297,361.366,363.228,365.562,367.062,371.594,373.313,375.183,378.183,379.683,382.787,384.972,387.774,389.442,390.942,395.762,398.632,401.849,403.665,405.693,408.519,410.97,412.873,415.64,417.521,419.23,422.336,425.515,427.849,429.349,432.334,434.332,435.832,438.604,441.7,443.53,446.571,448.458,453.398,458.14,461.392,464.492,467.156,468.656,471.76,473.758,475.258,479.999,483.116,485.921,489.157,491.395,494.191,497.287,499.189,502.059,505.16,507.983,511.07,514.257,516.591,518.091,521.292,523.083,525.539,528.356,531.204,533.659,536.484" y="44.424999999999955" svg_rhmargin="538.818" style="fill:#171615;font-family:EHOOBT+TimesNewRomanPSMT;font-size:6.0px;font-style:NORMAL;font-weight:normal;">Med Oral Patol Oral Cir Bucal. 2019 Mar 1;24 (2):e217-30. Implants in patients with oral manifestations of autoimmune or muco-cutaneous diseases</text>
  <text x="296.941,300.493,304.493,308.493" y="759.854" svg_rhmargin="312.493" style="fill:#171615;font-family:EHOOBT+TimesNewRomanPSMT;font-size:8.0px;font-style:NORMAL;font-weight:normal;">e224</text>
  <text svg_rhmargin="98.219" x="75.366,80.415,83.656,88.67,93.719,98.219" y="114.38499999999999" style="fill:#171615;font-family:CRUCZX+TimesNewRomanPS-BoldMT;font-size:9.0px;font-style:NORMAL;font-weight:bold;">Study </text>
  <text x="190.718,194.284,197.524,202.538,207.585,212.085" y="114.38499999999999" svg_rhmargin="214.335" style="fill:#171615;font-family:CRUCZX+TimesNewRomanPS-BoldMT;font-size:9.0px;font-style:NORMAL;font-weight:bold;">study </text>
  <text svg_rhmargin="210.004" x="192.8,196.133,200.923,206.008,210.00400000000002" y="114.38499999999999" style="fill:#171615;font-family:CRUCZX+TimesNewRomanPS-BoldMT;font-size:9.0px;font-style:NORMAL;font-weight:bold;">type </text>
  <text x="224.602,229.541,234.661,242.14,247.213,251.241,255.237,257.487,261.939,264.936" y="114.38499999999999" svg_rhmargin="267.186" style="fill:#171615;font-family:CRUCZX+TimesNewRomanPS-BoldMT;font-size:9.0px;font-style:NORMAL;font-weight:bold;">number of </text>
  <text svg_rhmargin="260.282" x="229.253,234.258,238.751,242.035,244.593,248.652,253.618,256.781,260.282" y="114.38499999999999" style="fill:#171615;font-family:CRUCZX+TimesNewRomanPS-BoldMT;font-size:9.0px;font-style:NORMAL;font-weight:bold;">patients </text>
  <text x="275.302,280.241,285.361,292.84,297.913,301.941,305.937,308.187,312.639,315.636" y="114.38499999999999" svg_rhmargin="317.886" style="fill:#171615;font-family:CRUCZX+TimesNewRomanPS-BoldMT;font-size:9.0px;font-style:NORMAL;font-weight:bold;">number of </text>
  <text svg_rhmargin="312.494" x="278.444,281.153,288.649,293.671,296.277,300.862,305.83,308.993,312.49399999999997" y="114.38499999999999" style="fill:#171615;font-family:CRUCZX+TimesNewRomanPS-BoldMT;font-size:9.0px;font-style:NORMAL;font-weight:bold;">implants </text>
  <text x="327.635,332.241,336.719,340.715,342.965,345.467,347.717,355.228,359.333,363.918,368.922,371.172,375.78,380.257,384.253" y="114.38499999999999" svg_rhmargin="386.503" style="fill:#171615;font-family:CRUCZX+TimesNewRomanPS-BoldMT;font-size:9.0px;font-style:NORMAL;font-weight:bold;">age / mean age </text>
  <text svg_rhmargin="369.274" x="342.615,345.848,350.224,354.33,358.906,363.055,366.277,369.274" y="107.63499999999999" style="fill:#171615;font-family:CRUCZX+TimesNewRomanPS-BoldMT;font-size:9.0px;font-style:NORMAL;font-weight:bold;">(years) </text>
  <text x="405.14,408.111,412.639,415.42,417.988,422.389,428.848,431.992,436.992,441.996,444.246,446.748" y="107.63499999999999" svg_rhmargin="448.998" style="fill:#171615;font-family:CRUCZX+TimesNewRomanPS-BoldMT;font-size:9.0px;font-style:NORMAL;font-weight:bold;">follow-up / </text>
  <text x="395.785,403.299,407.405,411.99,416.994,419.244,422.215,426.743,429.525,432.093,436.494,442.953,446.097,451.097,456.101" y="121.13499999999999" svg_rhmargin="458.351" style="fill:#171615;font-family:CRUCZX+TimesNewRomanPS-BoldMT;font-size:9.0px;font-style:NORMAL;font-weight:bold;">mean follow-up </text>
  <text svg_rhmargin="442.954" x="408.932,411.618,419.117,423.631,428.597,431.661,436.737,439.957,442.954" y="107.63499999999999" style="fill:#171615;font-family:CRUCZX+TimesNewRomanPS-BoldMT;font-size:9.0px;font-style:NORMAL;font-weight:bold;">(months) </text>
  <text x="467.449,470.158,477.655,482.677,485.284,489.868,494.835,497.832,500.082,503.592,508.715,513.013,517.803,520.393,524.858,529.503,532.005" y="107.63499999999999" svg_rhmargin="534.255" style="fill:#171615;font-family:CRUCZX+TimesNewRomanPS-BoldMT;font-size:9.0px;font-style:NORMAL;font-weight:bold;">implant survival </text>
  <text x="491.885,495.97,500.461,503.568" y="121.13499999999999" svg_rhmargin="507.564" style="fill:#171615;font-family:CRUCZX+TimesNewRomanPS-BoldMT;font-size:9.0px;font-style:NORMAL;font-weight:bold;">rate</text>
  <text x="492.577,495.41,503.879" y="134.635" svg_rhmargin="506.876" style="fill:#171615;font-family:CRUCZX+TimesNewRomanPS-BoldMT;font-size:9.0px;font-style:NORMAL;font-weight:bold;">(%)</text>
  <text x="75.366,78.949,83.093,87.237,90.52,93.086,97.6,102.604,104.854,109.354,111.604,113.854,118.312,124.35" y="162.38400000000001" svg_rhmargin="129.354" style="fill:#171615;font-family:CRUCZX+TimesNewRomanPS-BoldMT;font-size:9.0px;font-style:NORMAL;font-weight:bold;">section a oLp</text>
  <text x="75.366,80.956,84.562,89.183,93.758,97.235,99.692,102.326,106.827" y="176.63300000000004" svg_rhmargin="109.077" style="fill:#171615;font-family:EHOOBT+TimesNewRomanPSMT;font-size:9.0px;font-style:NORMAL;font-weight:normal;">Esposito </text>
  <text x="109.078,113.204,115.706,117.956,122.501,125.143" y="176.63300000000004" svg_rhmargin="127.393" style="fill:#171615;font-family:CRUCZX+TimesNewRomanPS-ItalicMT;font-size:9.0px;font-style:ITALIC;font-weight:normal;">et al.</text>
  <text y="176.62800000000004" svg_rhmargin="501.976" x="129.643,134.158,138.874,143.59,148.09,150.34,153.08,157.151,160.14800000000002,197.832,201.972,204.969,242.518,247.018,293.219,297.719,351.487,355.897,360.397,414.693,418.932,423.605,425.855,428.105,432.695,437.195,497.476" style="fill:#171615;font-family:EHOOBT+TimesNewRomanPSMT;font-size:9.0px;font-style:NORMAL;font-weight:normal;">2000 (3) cr 1 2 69 32, 60 0</text>
  <text x="75.366,80.956,84.562,89.183,93.758,97.235,99.692,102.326,106.827" y="190.88199999999995" svg_rhmargin="109.077" style="fill:#171615;font-family:EHOOBT+TimesNewRomanPSMT;font-size:9.0px;font-style:NORMAL;font-weight:normal;">Esposito </text>
  <text x="109.078,113.204,115.706,117.956,122.501,125.143" y="190.88199999999995" svg_rhmargin="127.393" style="fill:#171615;font-family:CRUCZX+TimesNewRomanPS-ItalicMT;font-size:9.0px;font-style:ITALIC;font-weight:normal;">et al.</text>
  <text y="190.87699999999995" svg_rhmargin="506.377" x="129.643,134.158,138.878,143.3,147.8,150.05,152.57,156.869,159.86599999999999,197.832,201.972,204.969,242.518,247.018,293.219,297.719,344.746,349.139,353.812,356.062,358.312,362.641,367.141,421.67,425.72,430.22,493.072,497.158,501.877" style="fill:#171615;font-family:EHOOBT+TimesNewRomanPSMT;font-size:9.0px;font-style:NORMAL;font-weight:normal;">2003 (4) cr 2 4 72, 78 21 100</text>
  <text x="75.366,81.974,85.961,90.094,94.311,99.073,101.814,104.808" y="205.13099999999997" svg_rhmargin="107.058" style="fill:#171615;font-family:EHOOBT+TimesNewRomanPSMT;font-size:9.0px;font-style:NORMAL;font-weight:normal;">Öczakir </text>
  <text x="107.058,111.185,113.687,115.937,120.482,123.123" y="205.13099999999997" svg_rhmargin="125.373" style="fill:#171615;font-family:CRUCZX+TimesNewRomanPS-ItalicMT;font-size:9.0px;font-style:ITALIC;font-weight:normal;">et al.</text>
  <text y="205.12599999999998" svg_rhmargin="506.377" x="127.623,132.139,136.858,141.323,145.823,148.073,150.553,155.078,158.075,197.832,201.972,204.969,242.518,247.018,293.219,297.719,351.64,355.744,360.244,421.497,425.889,430.389,493.072,497.158,501.877" style="fill:#171615;font-family:EHOOBT+TimesNewRomanPSMT;font-size:9.0px;font-style:NORMAL;font-weight:normal;">2005 (5) cr 1 4 74 72 100</text>
  <text x="75.366,81.338,85.372,87.837,91.827,96.439,100.645,104.023,106.525,108.775,113.29,118.01,122.622,127.122,129.372,131.959,136.565,139.562,197.832,201.972,204.969,242.518,247.018,293.219,297.719,344.837,349.204,353.56,355.81,358.06,362.546,367.046,412.685,417.069,421.621,423.871,426.121,430.288,434.703,439.203,493.072,497.158,501.877" y="219.37099999999998" svg_rhmargin="506.377" style="fill:#171615;font-family:EHOOBT+TimesNewRomanPSMT;font-size:9.0px;font-style:NORMAL;font-weight:normal;">Reichart 2006 (6) cr 2 5 63, 68 36, 156 100</text>
  <text x="75.366,81.792,85.933,89.328,93.949,98.145,102.671,107.237,111.289,115.283" y="233.62" svg_rhmargin="117.533" style="fill:#171615;font-family:EHOOBT+TimesNewRomanPSMT;font-size:9.0px;font-style:NORMAL;font-weight:normal;">Hernandez </text>
  <text x="117.532,121.658,124.16,126.41,130.955,133.597" y="233.62" svg_rhmargin="135.847" style="fill:#171615;font-family:CRUCZX+TimesNewRomanPS-ItalicMT;font-size:9.0px;font-style:ITALIC;font-weight:normal;">et al.</text>
  <text y="233.615" svg_rhmargin="506.377" x="138.097,142.612,146.698,151.006,155.506,157.756,160.641,165.255,168.252,197.087,201.722,205.71800000000002,240.525,244.512,249.012,291.011,295.426,299.926,348.569,352.786,357.05,358.819,363.319,418.092,422.507,426.986,429.295,433.795,493.072,497.158,501.877" style="fill:#171615;font-family:EHOOBT+TimesNewRomanPSMT;font-size:9.0px;font-style:NORMAL;font-weight:normal;">2012 (7) pc 18 56 53.7 56.5 100</text>
  <text x="75.366,81.306,85.406,89.547,92.941,97.66,100.393,105.053,108.598,113.393,117.893" y="247.86900000000003" svg_rhmargin="120.143" style="fill:#171615;font-family:EHOOBT+TimesNewRomanPSMT;font-size:9.0px;font-style:NORMAL;font-weight:normal;">Czerninsky </text>
  <text x="120.14,124.267,126.769,129.019,133.564,136.205" y="247.86900000000003" svg_rhmargin="138.455" style="fill:#171615;font-family:CRUCZX+TimesNewRomanPS-ItalicMT;font-size:9.0px;font-style:ITALIC;font-weight:normal;">et al.</text>
  <text y="247.865" svg_rhmargin="506.377" x="140.705,145.221,149.307,153.528,158.028,160.278,162.996,167.223,170.22000000000003,199.903,202.89999999999998,240.529,244.507,249.007,290.954,295.481,299.981,351.555,355.83,360.33,421.54,425.851,430.351,493.072,497.158,501.877" style="fill:#171615;font-family:EHOOBT+TimesNewRomanPSMT;font-size:9.0px;font-style:NORMAL;font-weight:normal;">2013 (8) r 14 54 59 12 100</text>
  <text x="75.366,81.029,85.583,90.205,94.255,98.305,101.276,104.693,109.233,112.628,117.164,121.229,123.73" y="262.11800000000005" svg_rhmargin="125.98" style="fill:#171615;font-family:EHOOBT+TimesNewRomanPSMT;font-size:9.0px;font-style:NORMAL;font-weight:normal;">Lopez-Jornet </text>
  <text x="125.986,130.112,132.614,134.864,139.409,142.051" y="262.11800000000005" svg_rhmargin="144.301" style="fill:#171615;font-family:CRUCZX+TimesNewRomanPS-ItalicMT;font-size:9.0px;font-style:ITALIC;font-weight:normal;">et al.</text>
  <text y="262.11400000000003" svg_rhmargin="507.563" x="146.551,151.066,155.152,159.13,163.63,165.88,168.582,172.74,175.73700000000002,199.903,202.89999999999998,240.531,244.509,249.009,291.011,295.426,299.926,347.981,352.673,357.101,359.409,363.909,421.521,425.868,430.368,491.888,496.406,500.885,503.063" style="fill:#171615;font-family:EHOOBT+TimesNewRomanPSMT;font-size:9.0px;font-style:NORMAL;font-weight:normal;">2014 (9) r 16 56 64.5 42 96.4</text>
  <text x="75.366,81.854,86.458,90.97,95.642,99.166,103.694,107.631,110.283,112.831,117.331" y="283.11300000000006" svg_rhmargin="119.581" style="fill:#171615;font-family:EHOOBT+TimesNewRomanPSMT;font-size:9.0px;font-style:NORMAL;font-weight:normal;">Aboushelib </text>
  <text x="119.582,123.708,126.21,128.46,133.005,135.647" y="283.11300000000006" svg_rhmargin="137.897" style="fill:#171615;font-family:CRUCZX+TimesNewRomanPS-ItalicMT;font-size:9.0px;font-style:ITALIC;font-weight:normal;">et al.</text>
  <text svg_rhmargin="249.261" y="276.35799999999995" x="140.147,144.662,148.748,152.633,157.133,159.383,161.96,166.046,170.278,173.27499999999998,199.152,203.652,240.279,244.761,249.261" style="fill:#171615;font-family:EHOOBT+TimesNewRomanPSMT;font-size:9.0px;font-style:NORMAL;font-weight:normal;">2017 (10) p 23 </text>
  <text x="291.146,295.291" y="276.35799999999995" svg_rhmargin="299.791" style="fill:#171615;font-family:EHOOBT+TimesNewRomanPSMT;font-size:9.0px;font-style:NORMAL;font-weight:normal;">55</text>
  <text svg_rhmargin="303.138" x="287.8,290.032,294.376,298.638,303.138" y="283.10799999999995" style="fill:#171615;font-family:EHOOBT+TimesNewRomanPSMT;font-size:9.0px;font-style:NORMAL;font-weight:normal;">/42* </text>
  <text svg_rhmargin="363.525" x="348.362,352.777,357.256,359.025,363.525" y="276.35799999999995" style="fill:#171615;font-family:EHOOBT+TimesNewRomanPSMT;font-size:9.0px;font-style:NORMAL;font-weight:normal;">56.7 </text>
  <text x="420.283,424.868,427.1" y="276.35799999999995" svg_rhmargin="431.6" style="fill:#171615;font-family:EHOOBT+TimesNewRomanPSMT;font-size:9.0px;font-style:NORMAL;font-weight:normal;">2.8</text>
  <text svg_rhmargin="433.733" x="418.151,420.664,425.048,429.233,433.733" y="276.35799999999995" style="fill:#171615;font-family:EHOOBT+TimesNewRomanPSMT;font-size:9.0px;font-style:NORMAL;font-weight:normal;">/36* </text>
  <text x="492.164,496.385,500.65,502.791" y="276.35799999999995" svg_rhmargin="507.291" style="fill:#171615;font-family:EHOOBT+TimesNewRomanPSMT;font-size:9.0px;font-style:NORMAL;font-weight:normal;">13.0</text>
  <text x="489.683,491.99,496.076,500.797,505.266" y="289.858" svg_rhmargin="509.766" style="fill:#171615;font-family:EHOOBT+TimesNewRomanPSMT;font-size:9.0px;font-style:NORMAL;font-weight:normal;">/100*</text>
  <text x="75.366,82.167,86.885,89.342,92.183,96.888,100.883" y="304.107" svg_rhmargin="103.133" style="fill:#171615;font-family:EHOOBT+TimesNewRomanPSMT;font-size:9.0px;font-style:NORMAL;font-weight:normal;">Anitua </text>
  <text x="103.135,107.261,109.763,112.013,116.56,119.201" y="304.107" svg_rhmargin="121.451" style="fill:#171615;font-family:CRUCZX+TimesNewRomanPS-ItalicMT;font-size:9.0px;font-style:ITALIC;font-weight:normal;">et al.</text>
  <text y="304.103" svg_rhmargin="507.6" x="123.7,128.215,132.301,136.287,140.787,143.037,145.615,149.467,153.415,156.41199999999998,199.903,202.89999999999998,240.279,244.761,249.261,290.933,295.505,300.005,351.538,355.849,360.349,421.45,425.937,430.437,491.855,496.292,500.791,503.1" style="fill:#171615;font-family:EHOOBT+TimesNewRomanPSMT;font-size:9.0px;font-style:NORMAL;font-weight:normal;">2018 (11) r 23 66 58 68 98.5</text>
  <text x="75.366,78.0,82.5,85.25,89.34" y="325.102" svg_rhmargin="91.842" style="fill:#171615;font-family:EHOOBT+TimesNewRomanPSMT;font-size:9.0px;font-style:NORMAL;font-weight:normal;">total</text>
  <text svg_rhmargin="128.186" x="75.366,81.76,85.792,88.222,92.936,97.464,101.588,106.088,108.338,115.376,119.49,123.686,128.186" y="331.852" style="fill:#171615;font-family:EHOOBT+TimesNewRomanPSMT;font-size:9.0px;font-style:NORMAL;font-weight:normal;">weighed mean </text>
  <text x="238.114,242.2,246.92,251.42,288.724,293.179,297.714,302.214,338.051,342.362,346.862,348.991,353.491,355.741,360.682,362.932,367.172,369.337,373.837,405.799,410.405,414.801,416.93,421.43,423.68,428.621,430.871,435.394,439.82,441.588" y="331.856" svg_rhmargin="446.088" style="fill:#171615;font-family:EHOOBT+TimesNewRomanPSMT;font-size:9.0px;font-style:NORMAL;font-weight:normal;">100 302 58.9 ± 5.6 40.9 ± 24.7</text>
  <text svg_rhmargin="448.04" x="403.849,407.977,412.686,417.114,419.279,423.779,426.029,430.968,433.218,437.265,441.362,443.54,448.04" y="331.856" style="fill:#171615;font-family:EHOOBT+TimesNewRomanPSMT;font-size:9.0px;font-style:NORMAL;font-weight:normal;">*44.6 ± 21.4 </text>
  <text x="479.62,484.231,488.659,490.837,495.337,497.587,502.526,504.776,508.951,513.192,515.333" y="331.856" svg_rhmargin="519.833" style="fill:#171615;font-family:EHOOBT+TimesNewRomanPSMT;font-size:9.0px;font-style:NORMAL;font-weight:normal;">84.4 ± 35.0</text>
  <text x="477.983,480.474,484.949,489.383,493.883,496.185,500.685,502.935,507.876,510.126,514.626,516.971" y="345.356" svg_rhmargin="521.471" style="fill:#171615;font-family:EHOOBT+TimesNewRomanPSMT;font-size:9.0px;font-style:NORMAL;font-weight:normal;">/*98.3 ± 8.2</text>
  <text x="75.366,78.453,82.578,89.699,93.904,96.973,101.675,105.176,228.993,233.243,237.312,241.401,243.856,247.939,252.606,255.159,259.192,261.836,265.959,270.459,272.709,276.804,281.349,286.009,289.485,291.955,296.521,300.662,303.954,306.687,311.201,315.701,317.951,320.649,325.177,329.173,331.423,334.509,338.637,342.239,346.906,349.365,352.051,355.552,357.802,360.698,365.087,367.73,370.19,374.583,381.271,384.004,388.517,393.017,395.267,399.362,403.903,407.28,409.996,412.461,416.555,421.13,424.693,427.335,431.477,434.542,438.985,441.453,445.953,448.203,450.902,455.43,459.571,462.74,466.8,471.279,475.779,478.029,480.607,484.696,488.928" y="359.596" svg_rhmargin="491.925" style="fill:#171615;font-family:EHOOBT+TimesNewRomanPSMT;font-size:9.0px;font-style:NORMAL;font-weight:normal;">remarks *calculated considering the results following corticosteroid therapy (10)</text>
  <text x="75.366,78.949,83.093,87.237,90.52,93.086,97.6,102.604,104.854,109.858,112.108,114.358,116.608,121.526,124.552" y="384.492" svg_rhmargin="129.556" style="fill:#171615;font-family:CRUCZX+TimesNewRomanPS-BoldMT;font-size:9.0px;font-style:NORMAL;font-weight:bold;">section b SjS</text>
  <text x="75.366,80.307,84.261,89.069,93.605,97.6" y="398.741" svg_rhmargin="99.85" style="fill:#171615;font-family:EHOOBT+TimesNewRomanPSMT;font-size:9.0px;font-style:NORMAL;font-weight:normal;">Payne </text>
  <text x="99.851,103.978,106.48,108.73,113.276,115.918" y="398.741" svg_rhmargin="118.168" style="fill:#171615;font-family:CRUCZX+TimesNewRomanPS-ItalicMT;font-size:9.0px;font-style:ITALIC;font-weight:normal;">et al.</text>
  <text y="398.736" svg_rhmargin="507.619" x="120.416,124.59,129.158,133.692,138.192,140.442,143.016,147.323,151.452,154.449,197.832,201.972,204.969,242.518,247.018,290.982,295.455,299.955,337.989,342.318,346.89,349.14,351.39,355.719,360.29,362.54,364.79,369.396,373.896,408.198,412.715,417.267,419.517,421.767,426.151,430.703,432.953,435.203,439.189,443.689,491.83,496.312,500.811,503.119" style="fill:#171615;font-family:EHOOBT+TimesNewRomanPSMT;font-size:9.0px;font-style:NORMAL;font-weight:normal;">1997 (12) cr 3 26 38, 38, 40 96, 36, 18 88.5</text>
  <text x="75.366,78.451,81.925,84.394,88.951,93.491,96.488" y="412.99" svg_rhmargin="98.738" style="fill:#171615;font-family:EHOOBT+TimesNewRomanPSMT;font-size:9.0px;font-style:NORMAL;font-weight:normal;">Isidor </text>
  <text x="98.742,102.868,105.37,107.62,112.167,114.809" y="412.99" svg_rhmargin="117.059" style="fill:#171615;font-family:CRUCZX+TimesNewRomanPS-ItalicMT;font-size:9.0px;font-style:ITALIC;font-weight:normal;">et al.</text>
  <text y="412.985" svg_rhmargin="504.198" x="119.307,123.481,128.049,132.616,137.116,139.366,141.944,146.161,150.233,153.23000000000002,199.152,203.652,242.518,247.018,290.954,295.481,299.981,343.42,347.637,352.137,354.387,357.384,359.634,363.967,368.467,421.435,425.953,430.453,495.252,499.698" style="fill:#171615;font-family:EHOOBT+TimesNewRomanPSMT;font-size:9.0px;font-style:NORMAL;font-weight:normal;">1999 (13) p 8 54 53 - 70 48 87</text>
  <text x="75.366,81.267,83.999,88.526,93.071,97.571,99.821,104.336,109.056,113.521,118.021,120.271,122.848,126.826,131.125,134.122,197.832,201.972,204.969,242.518,247.018,293.219,297.719,351.538,355.849,360.349,419.403,423.57,427.985,432.485,493.072,497.158,501.877" y="427.23" svg_rhmargin="506.377" style="fill:#171615;font-family:EHOOBT+TimesNewRomanPSMT;font-size:9.0px;font-style:NORMAL;font-weight:normal;">Binon 2005 (14) cr 1 6 67 156 100</text>
  <text x="75.366,81.974,85.961,90.094,94.311,99.073,101.814,104.808" y="441.479" svg_rhmargin="107.058" style="fill:#171615;font-family:EHOOBT+TimesNewRomanPSMT;font-size:9.0px;font-style:NORMAL;font-weight:normal;">Öczakir </text>
  <text x="107.058,111.185,113.687,115.937,120.482,123.123" y="441.479" svg_rhmargin="125.373" style="fill:#171615;font-family:CRUCZX+TimesNewRomanPS-ItalicMT;font-size:9.0px;font-style:ITALIC;font-weight:normal;">et al.</text>
  <text y="441.475" svg_rhmargin="506.377" x="127.623,132.139,136.858,141.323,145.823,148.073,150.553,155.078,158.075,197.832,201.972,204.969,242.518,247.018,291.065,295.376,299.876,344.734,349.101,353.457,355.707,357.957,362.649,367.149,414.637,419.163,423.663,425.913,428.163,432.752,437.252,493.072,497.158,501.877" style="fill:#171615;font-family:EHOOBT+TimesNewRomanPSMT;font-size:9.0px;font-style:NORMAL;font-weight:normal;">2005 (5) cr 2 12 63, 64 24, 60 100</text>
  <text x="75.366,83.349,87.383,90.115,94.826,97.378,101.575,106.102,110.668,114.809,117.806" y="455.728" svg_rhmargin="120.056" style="fill:#171615;font-family:EHOOBT+TimesNewRomanPSMT;font-size:9.0px;font-style:NORMAL;font-weight:normal;">Weinländer </text>
  <text x="120.058,124.185,126.687,128.936,133.481,136.123" y="455.728" svg_rhmargin="138.373" style="fill:#171615;font-family:CRUCZX+TimesNewRomanPS-ItalicMT;font-size:9.0px;font-style:ITALIC;font-weight:normal;">et al.</text>
  <text y="455.724" svg_rhmargin="506.377" x="140.623,145.139,149.225,153.311,157.811,160.061,162.638,166.804,171.33,174.327,197.62,201.679,205.18,242.518,247.018,291.195,295.245,299.745,348.418,352.562,356.804,358.969,363.469,401.299,405.643,410.317,412.567,414.817,419.41,423.963,426.213,428.463,432.979,437.55,439.8,442.05,446.088,450.588,493.072,497.158,501.877" style="fill:#171615;font-family:EHOOBT+TimesNewRomanPSMT;font-size:9.0px;font-style:NORMAL;font-weight:normal;">2010 (15) cs 4 21 55.6 42, 46, 48, 91 100</text>
  <text x="75.366,80.359,84.832,87.565,92.185,96.22,98.853,103.353" y="469.977" svg_rhmargin="105.603" style="fill:#171615;font-family:EHOOBT+TimesNewRomanPSMT;font-size:9.0px;font-style:NORMAL;font-weight:normal;">Spinato </text>
  <text x="105.601,109.728,112.23,114.48,119.025,121.666" y="469.977" svg_rhmargin="123.916" style="fill:#171615;font-family:CRUCZX+TimesNewRomanPS-ItalicMT;font-size:9.0px;font-style:ITALIC;font-weight:normal;">et al.</text>
  <text y="469.973" svg_rhmargin="506.377" x="126.166,130.682,134.768,138.854,143.354,145.604,148.181,152.156,156.763,159.76,197.832,201.972,204.969,242.518,247.018,293.219,297.719,351.529,355.858,360.358,421.44,425.949,430.449,493.072,497.158,501.877" style="fill:#171615;font-family:EHOOBT+TimesNewRomanPSMT;font-size:9.0px;font-style:NORMAL;font-weight:normal;">2010 (16) cr 1 6 62 22 100</text>
  <text x="75.366,79.932,83.928,86.178,94.133,98.267,102.794,107.35,111.895,116.444,120.512,124.508,126.758,130.0,134.445,138.839,142.98,146.374,151.093,153.557,157.592,160.094" y="484.226" svg_rhmargin="162.344" style="fill:#171615;font-family:EHOOBT+TimesNewRomanPSMT;font-size:9.0px;font-style:NORMAL;font-weight:normal;">de Mendonça Invernici </text>
  <text x="162.342,166.468,168.97" y="484.226" svg_rhmargin="171.22" style="fill:#171615;font-family:CRUCZX+TimesNewRomanPS-ItalicMT;font-size:9.0px;font-style:ITALIC;font-weight:normal;">et </text>
  <text x="75.366,79.911,82.553" y="497.726" svg_rhmargin="84.803" style="fill:#171615;font-family:CRUCZX+TimesNewRomanPS-ItalicMT;font-size:9.0px;font-style:ITALIC;font-weight:normal;">al.</text>
  <text svg_rhmargin="120.461" y="490.972" x="87.055,91.57,95.656,99.634,104.134,106.384,108.962,112.85,117.464,120.461" style="fill:#171615;font-family:EHOOBT+TimesNewRomanPSMT;font-size:9.0px;font-style:NORMAL;font-weight:normal;">2014 (17) </text>
  <text x="197.832,201.972,204.969,242.518,247.018,293.219,297.719,351.538,355.849,360.349,421.497,425.889,430.389,493.072,497.158,501.877" y="490.972" svg_rhmargin="506.377" style="fill:#171615;font-family:EHOOBT+TimesNewRomanPSMT;font-size:9.0px;font-style:NORMAL;font-weight:normal;">cr 1 2 58 72 100</text>
  <text x="75.366,81.817,86.357,89.611,92.653,96.721,101.205,105.2" y="511.975" svg_rhmargin="107.45" style="fill:#171615;font-family:EHOOBT+TimesNewRomanPSMT;font-size:9.0px;font-style:NORMAL;font-weight:normal;">Korfage </text>
  <text x="107.448,111.575,114.077,116.327,120.872,123.513" y="511.975" svg_rhmargin="125.763" style="fill:#171615;font-family:CRUCZX+TimesNewRomanPS-ItalicMT;font-size:9.0px;font-style:ITALIC;font-weight:normal;">et al.</text>
  <text y="511.971" svg_rhmargin="507.094" x="128.013,132.529,136.615,140.593,145.093,147.343,149.92,153.906,158.133,161.13,199.903,202.89999999999998,240.303,244.731,249.231,288.927,292.905,297.511,302.011,351.538,355.849,360.349,421.521,425.868,430.368,492.36,496.894,500.773,502.594" style="fill:#171615;font-family:EHOOBT+TimesNewRomanPSMT;font-size:9.0px;font-style:NORMAL;font-weight:normal;">2016 (18) r 50 140 67 42 97.1</text>
  <text x="75.366,80.217,84.359,87.424,91.969,96.469" y="526.2239999999999" svg_rhmargin="98.719" style="fill:#171615;font-family:EHOOBT+TimesNewRomanPSMT;font-size:9.0px;font-style:NORMAL;font-weight:normal;">Peron </text>
  <text x="98.721,102.848,105.35,107.6,112.147,114.788" y="526.2239999999999" svg_rhmargin="117.038" style="fill:#171615;font-family:CRUCZX+TimesNewRomanPS-ItalicMT;font-size:9.0px;font-style:ITALIC;font-weight:normal;">et al.</text>
  <text y="526.22" svg_rhmargin="506.377" x="119.286,123.802,127.888,131.776,136.276,138.526,141.103,145.277,149.435,152.43200000000002,197.832,201.972,204.969,242.518,247.018,293.219,297.719,351.529,355.858,360.358,421.502,425.885,430.385,493.072,497.158,501.877" style="fill:#171615;font-family:EHOOBT+TimesNewRomanPSMT;font-size:9.0px;font-style:NORMAL;font-weight:normal;">2017 (19) cr 1 5 62 36 100</text>
  <text x="75.366,78.0,82.5,85.25,89.34" y="540.469" svg_rhmargin="91.842" style="fill:#171615;font-family:EHOOBT+TimesNewRomanPSMT;font-size:9.0px;font-style:NORMAL;font-weight:normal;">total</text>
  <text svg_rhmargin="128.186" x="75.366,81.76,85.792,88.222,92.936,97.464,101.588,106.088,108.338,115.376,119.49,123.686,128.186" y="547.219" style="fill:#171615;font-family:EHOOBT+TimesNewRomanPSMT;font-size:9.0px;font-style:NORMAL;font-weight:normal;">weighed mean </text>
  <text svg_rhmargin="302.119" x="240.427,244.612,249.112,288.818,293.227,297.619,302.119" y="553.973" style="fill:#171615;font-family:EHOOBT+TimesNewRomanPSMT;font-size:9.0px;font-style:NORMAL;font-weight:normal;">71 272 </text>
  <text x="337.688,342.38,346.805,349.151,353.651,355.901,360.842,363.092,367.569,369.699,374.199,405.825,410.057,414.299,416.645,421.145,423.395,428.334,430.584,435.066,439.33,441.562,446.062,479.381,483.94,488.368,490.713,495.213,497.463,502.403,504.653,509.131,513.395,515.573" y="553.973" svg_rhmargin="520.073" style="fill:#171615;font-family:EHOOBT+TimesNewRomanPSMT;font-size:9.0px;font-style:NORMAL;font-weight:normal;">64.2 ± 6.9 45.2 ± 23.8 94.2 ± 23.4</text>
  <text x="75.366,78.949,83.093,87.237,90.52,93.086,97.6,102.604,104.854,108.85,111.1,113.35,119.391" y="581.722" svg_rhmargin="125.394" style="fill:#171615;font-family:CRUCZX+TimesNewRomanPS-BoldMT;font-size:9.0px;font-style:NORMAL;font-weight:bold;">section c EB</text>
  <text x="75.366,80.22,84.353,88.973,93.18,96.57,99.639,104.256,108.247,112.858,116.921,119.961,126.565,129.101,133.169,137.631,142.131" y="595.971" svg_rhmargin="144.381" style="fill:#171615;font-family:EHOOBT+TimesNewRomanPSMT;font-size:9.0px;font-style:NORMAL;font-weight:normal;">Peñarrocha-Diago </text>
  <text x="144.377,148.504,151.006,153.256,157.801,160.442" y="595.971" svg_rhmargin="162.692" style="fill:#171615;font-family:CRUCZX+TimesNewRomanPS-ItalicMT;font-size:9.0px;font-style:ITALIC;font-weight:normal;">et al.</text>
  <text y="595.971" style="fill:#171615;font-family:EHOOBT+TimesNewRomanPSMT;font-size:9.0px;font-style:NORMAL;font-weight:normal;" svg_rhmargin="164.943" x=""/>
  <text svg_rhmargin="110.59" x="75.366,79.884,84.604,89.323,93.823,96.073,98.844,103.362,107.593,110.59" y="602.717" style="fill:#171615;font-family:EHOOBT+TimesNewRomanPSMT;font-size:9.0px;font-style:NORMAL;font-weight:normal;">2000 (20) </text>
  <text x="197.832,201.972,204.969,242.518,247.018,291.135,295.302,299.802,331.498,335.672,339.986,342.236,344.486,348.94,353.409,355.659,357.909,362.383,366.935,369.185,371.435,375.889,380.389,401.215,405.522,410.196,412.446,414.696,419.221,423.721,425.971,428.221,432.605,437.158,439.408,441.658,446.174,450.674,493.072,497.158,501.877" y="602.717" svg_rhmargin="506.377" style="fill:#171615;font-family:EHOOBT+TimesNewRomanPSMT;font-size:9.0px;font-style:NORMAL;font-weight:normal;">cr 4 15 35, 30, 26, 30 12, 24, 36, 48 100</text>
  <text x="75.366,81.016,85.141,89.137" y="623.72" svg_rhmargin="91.387" style="fill:#171615;font-family:EHOOBT+TimesNewRomanPSMT;font-size:9.0px;font-style:NORMAL;font-weight:normal;">Lee </text>
  <text x="91.386,95.512,98.014,100.264,104.809,107.451" y="623.72" svg_rhmargin="109.701" style="fill:#171615;font-family:CRUCZX+TimesNewRomanPS-ItalicMT;font-size:9.0px;font-style:ITALIC;font-weight:normal;">et al.</text>
  <text y="623.716" svg_rhmargin="506.377" x="111.951,116.469,121.188,125.706,130.206,132.456,135.226,139.273,143.221,146.21800000000002,197.832,201.972,204.969,242.518,247.018,293.219,297.719,351.497,355.889,360.389,421.454,425.936,430.436,493.072,497.158,501.877" style="fill:#171615;font-family:EHOOBT+TimesNewRomanPSMT;font-size:9.0px;font-style:NORMAL;font-weight:normal;">2007 (21) cr 1 8 29 23 100</text>
  <text x="75.366,80.219,84.353,88.973,93.179,96.57,99.636,104.253,108.243,112.855,116.851" y="637.969" svg_rhmargin="119.101" style="fill:#171615;font-family:EHOOBT+TimesNewRomanPSMT;font-size:9.0px;font-style:NORMAL;font-weight:normal;">Peñarrocha </text>
  <text x="119.1,123.226,125.728,127.978,132.523,135.164" y="637.969" svg_rhmargin="137.414" style="fill:#171615;font-family:CRUCZX+TimesNewRomanPS-ItalicMT;font-size:9.0px;font-style:ITALIC;font-weight:normal;">et al.</text>
  <text y="637.965" svg_rhmargin="507.649" x="139.665,144.183,148.902,153.42,157.538,161.533,163.783,166.553,171.061,175.189,178.18599999999998,197.832,201.972,204.969,242.518,247.018,291.014,295.424,299.924,338.227,342.935,347.435,349.685,351.935,356.328,360.433,362.683,364.933,369.162,373.662,408.043,412.632,417.101,419.351,421.601,425.985,430.537,432.787,435.037,439.344,443.844,491.805,496.322,500.804,503.149" style="fill:#171615;font-family:EHOOBT+TimesNewRomanPSMT;font-size:9.0px;font-style:NORMAL;font-weight:normal;">2007a (22) cr 3 27 44, 29, 43 60, 36, 12 96.2</text>
  <text x="75.366,80.219,84.353,88.973,93.179,96.57,99.636,104.253,108.243,112.855,116.851" y="652.218" svg_rhmargin="119.101" style="fill:#171615;font-family:EHOOBT+TimesNewRomanPSMT;font-size:9.0px;font-style:NORMAL;font-weight:normal;">Peñarrocha </text>
  <text x="119.1,123.226,125.728,127.978,132.523,135.164" y="652.218" svg_rhmargin="137.414" style="fill:#171615;font-family:CRUCZX+TimesNewRomanPS-ItalicMT;font-size:9.0px;font-style:ITALIC;font-weight:normal;">et al.</text>
  <text y="652.218" svg_rhmargin="164.899" x="139.665,144.183,148.902,153.42,158.149,162.649" style="fill:#171615;font-family:EHOOBT+TimesNewRomanPSMT;font-size:9.0px;font-style:NORMAL;font-weight:normal;">2007b </text>
  <text svg_rhmargin="91.93" x="75.366,78.136,82.615,86.683,89.68,91.93" y="658.9639999999999" style="fill:#171615;font-family:EHOOBT+TimesNewRomanPSMT;font-size:9.0px;font-style:NORMAL;font-weight:normal;">(23) </text>
  <text svg_rhmargin="299.645" x="197.62,201.679,205.18,242.518,247.018,291.293,295.145,299.645" y="652.2139999999999" style="fill:#171615;font-family:EHOOBT+TimesNewRomanPSMT;font-size:9.0px;font-style:NORMAL;font-weight:normal;">cs 3 11 </text>
  <text x="330.049,334.528,338.887,341.137,343.387,347.771,352.323,354.573,356.823,361.31,365.881,368.131,370.381,375.09,379.59,381.84" y="652.2139999999999" svg_rhmargin="384.09" style="fill:#171615;font-family:EHOOBT+TimesNewRomanPSMT;font-size:9.0px;font-style:NORMAL;font-weight:normal;">23, 36, 28, 44, </text>
  <text svg_rhmargin="366.806" x="345.08,349.473,353.577,355.827,358.077,362.306,366.806" y="652.2139999999999" style="fill:#171615;font-family:EHOOBT+TimesNewRomanPSMT;font-size:9.0px;font-style:NORMAL;font-weight:normal;">29, 43 </text>
  <text x="397.842,401.931,406.488,411.059,413.309,415.559,420.076,424.628,426.878,429.128,433.739,438.239,440.489,442.739,447.328,451.797,454.047" y="652.2139999999999" svg_rhmargin="456.297" style="fill:#171615;font-family:EHOOBT+TimesNewRomanPSMT;font-size:9.0px;font-style:NORMAL;font-weight:normal;">108, 96, 84, 60, </text>
  <text svg_rhmargin="437.069" x="414.822,419.206,423.758,426.008,428.258,432.569,437.069" y="658.9639999999999" style="fill:#171615;font-family:EHOOBT+TimesNewRomanPSMT;font-size:9.0px;font-style:NORMAL;font-weight:normal;">36, 12 </text>
  <text x="492.181,496.716,500.595,502.773" y="658.9639999999999" svg_rhmargin="507.273" style="fill:#171615;font-family:EHOOBT+TimesNewRomanPSMT;font-size:9.0px;font-style:NORMAL;font-weight:normal;">97.4</text>
  <text x="75.366,80.982,85.189,88.579,91.748,95.957,100.09,104.154,108.708,112.798,115.314,118.356,126.3,130.84,133.906,138.451,142.951" y="679.967" svg_rhmargin="145.201" style="fill:#171615;font-family:EHOOBT+TimesNewRomanPSMT;font-size:9.0px;font-style:NORMAL;font-weight:normal;">Larrazabal-Moron </text>
  <text x="145.204,149.331,151.833,154.083,158.628,161.269" y="679.967" svg_rhmargin="163.519" style="fill:#171615;font-family:CRUCZX+TimesNewRomanPS-ItalicMT;font-size:9.0px;font-style:ITALIC;font-weight:normal;">et al.</text>
  <text y="679.967" style="fill:#171615;font-family:EHOOBT+TimesNewRomanPSMT;font-size:9.0px;font-style:NORMAL;font-weight:normal;" svg_rhmargin="165.77" x=""/>
  <text svg_rhmargin="110.533" x="75.366,79.882,84.601,89.19,93.69,95.94,98.712,103.237,107.536,110.533" y="686.713" style="fill:#171615;font-family:EHOOBT+TimesNewRomanPSMT;font-size:9.0px;font-style:NORMAL;font-weight:normal;">2009 (24) </text>
  <text x="197.832,201.972,204.969,242.518,247.018,293.219,297.719,351.578,355.809,360.309,421.701,425.688,430.188,493.072,497.158,501.877" y="686.713" svg_rhmargin="506.377" style="fill:#171615;font-family:EHOOBT+TimesNewRomanPSMT;font-size:9.0px;font-style:NORMAL;font-weight:normal;">cr 1 2 52 18 100</text>
  <text x="75.366,81.804,84.455,86.919,91.311,95.344,98.086,101.255,105.249" y="707.716" svg_rhmargin="107.499" style="fill:#171615;font-family:EHOOBT+TimesNewRomanPSMT;font-size:9.0px;font-style:NORMAL;font-weight:normal;">Oliveira </text>
  <text x="107.501,111.628,114.13,116.38,120.925,123.566" y="707.716" svg_rhmargin="125.816" style="fill:#171615;font-family:CRUCZX+TimesNewRomanPS-ItalicMT;font-size:9.0px;font-style:ITALIC;font-weight:normal;">et al.</text>
  <text y="707.712" svg_rhmargin="506.377" x="128.066,132.582,136.668,140.754,145.254,147.504,150.274,154.74,159.266,162.26299999999998,197.832,201.972,204.969,242.518,247.018,293.219,297.719,351.585,355.806,360.306,421.435,425.953,430.453,493.072,497.158,501.877" style="fill:#171615;font-family:EHOOBT+TimesNewRomanPSMT;font-size:9.0px;font-style:NORMAL;font-weight:normal;">2010 (25) cr 1 2 13 48 100</text>
  <text x="75.366,83.284,87.953,90.599,93.067,97.207,100.204" y="721.965" svg_rhmargin="102.454" style="fill:#171615;font-family:EHOOBT+TimesNewRomanPSMT;font-size:9.0px;font-style:NORMAL;font-weight:normal;">Müller </text>
  <text x="102.452,106.579,109.081,111.331,115.878,118.519" y="721.965" svg_rhmargin="120.769" style="fill:#171615;font-family:CRUCZX+TimesNewRomanPS-ItalicMT;font-size:9.0px;font-style:ITALIC;font-weight:normal;">et al.</text>
  <text y="721.961" svg_rhmargin="506.377" x="123.018,127.533,131.619,135.705,140.205,142.455,145.225,149.699,154.306,157.303,197.832,201.972,204.969,242.518,247.018,291.174,295.26,299.76,349.054,353.815,358.33,362.83,421.435,425.953,430.453,493.072,497.158,501.877" style="fill:#171615;font-family:EHOOBT+TimesNewRomanPSMT;font-size:9.0px;font-style:NORMAL;font-weight:normal;">2010 (26) cr 1 10 &gt;20 48 100</text>
  <text x="70.866,75.778,79.829,84.308,86.616,90.166,92.286,96.356" y="82.71199999999999" svg_rhmargin="98.356" style="fill:#171615;font-family:CRUCZX+TimesNewRomanPS-BoldMT;font-size:8.0px;font-style:NORMAL;font-weight:bold;">Table 3.</text>
  <text y="82.71199999999999" svg_rhmargin="540.63" x="100.47,104.918,107.473,111.571,115.658,119.658,121.778,124.313,128.64,132.781,136.402,138.402,140.521,144.613,148.312,154.594,158.588,162.874,165.722,169.366,173.413,177.63,179.854,183.406,185.522,189.751,193.371,195.846,199.612,201.612,203.732,207.838,212.12,214.969,218.589,221.035,223.242,227.316,231.316,233.436,237.341,240.005,242.125,246.157,250.257,253.464,257.177,260.213,264.259,267.88,270.325,272.533,276.606,280.606,282.726,286.867,290.581,293.538,295.745,299.87,304.07,307.182,309.302,313.064,317.122,321.122,323.242,325.695,332.002,335.964,338.267,342.029,346.053,348.277,350.392,353.626,357.908,360.943,365.142,367.366,371.413,375.082,377.306,379.421,382.27,385.89,388.273,391.825,393.94,397.845,400.509,402.629,406.729,410.35,412.796,415.01,418.717,422.741,425.16,428.272,430.392,436.368,438.592,441.023,445.023,447.143,451.124,456.044,460.044,462.164,464.476,467.682,471.393,475.054,477.5,479.707,483.78,487.78,489.9,493.161,495.774,497.774,499.894,504.256,506.444,510.892,513.012,515.324,518.531,522.241,525.903,528.349,530.557,534.63,538.63" style="fill:#171615;font-family:EHOOBT+TimesNewRomanPSMT;font-size:8.0px;font-style:NORMAL;font-weight:normal;">Study type, demographic data, duration of observation periods and implant survival rate of patients with oLp (section a), SjS (section </text>
  <text x="70.866,74.502,77.115,79.115,81.115,86.086,91.422,93.422,95.734,98.94,102.651,106.312,108.757,110.965,115.039,119.039,121.039,124.234,126.847,128.847,130.847,134.035,138.557,142.109,144.109,146.421,149.627,153.337,156.999,159.445,161.652,165.725,169.725,171.725,175.762,178.341" y="92.31200000000001" svg_rhmargin="180.341" style="fill:#171615;font-family:EHOOBT+TimesNewRomanPSMT;font-size:8.0px;font-style:NORMAL;font-weight:normal;">b), EB (section c), sSc (section d).</text>
 </g>
</svg>
