<?xml version="1.0" encoding="UTF-8"?>
<svg height="750.587" width="548.2675928857143" xmlns="http://www.w3.org/2000/svg">
 <g style="fill:none;">
  <text x="70.276,75.661,78.484,81.484,82.984,87.524,89.71,92.511,94.179,95.679,99.055,101.822,103.652,106.661,108.329,109.829,114.368,116.554,119.355,121.023,122.523,126.551,128.449,130.447,131.947,136.043,139.16,141.949,144.751,146.507,148.007,149.507,152.597,155.416,158.291,161.291,162.791,168.248,171.122,173.12,174.62,177.449,179.234,182.331,185.331,186.831,188.766,191.611,193.563,195.147,197.843,200.638,203.329,206.251,208.073,211.124,214.139,215.639,217.139,218.639,220.139,221.639,223.139,224.639,226.139,227.639,229.139,230.639,232.139,233.639,235.139,236.639,238.139,239.639,241.139,242.639,244.139,245.639,247.139,248.639,250.139,251.639,253.139,254.639,256.139,257.639,259.139,260.639,262.139,263.639,265.139,266.639,268.139,269.639,271.139,272.639,274.139,275.639,277.139,278.639,280.139,281.639,283.139,284.639,286.139,287.639,289.139,290.639,292.139,293.639,295.139,296.639,298.139,299.639,301.139,302.639,304.139,305.639,307.139,308.639,310.139,311.639,313.139,314.639,316.139,318.367,323.148,326.173,327.952,330.821,333.891,335.753,338.087,339.587,341.48,344.48,345.98,349.105,351.872,353.753,355.468,358.297,361.366,363.228,365.562,367.062,371.594,373.313,375.183,378.183,379.683,382.787,384.972,387.774,389.442,390.942,395.762,398.632,401.849,403.665,405.693,408.519,410.97,412.873,415.64,417.521,419.23,422.336,425.515,427.849,429.349,432.334,434.332,435.832,438.604,441.7,443.53,446.571,448.458,453.398,458.14,461.392,464.492,467.156,468.656,471.76,473.758,475.258,479.999,483.116,485.921,489.157,491.395,494.191,497.287,499.189,502.059,505.16,507.983,511.07,514.257,516.591,518.091,521.292,523.083,525.539,528.356,531.204,533.659,536.484" y="44.424999999999955" svg_rhmargin="538.818" style="fill:#171615;font-family:EHOOBT+TimesNewRomanPSMT;font-size:6.0px;font-style:NORMAL;font-weight:normal;">Med Oral Patol Oral Cir Bucal. 2019 Mar 1;24 (2):e217-30. Implants in patients with oral manifestations of autoimmune or muco-cutaneous diseases</text>
  <text svg_rhmargin="312.493" x="296.941,300.493,304.493,308.493,312.493" y="740.587" style="fill:#171615;font-family:EHOOBT+TimesNewRomanPSMT;font-size:8.0px;font-style:NORMAL;font-weight:normal;">e219 </text>
  <text x="499.88,505.109" y="740.587" svg_rhmargin="507.723" style="fill:#000000;font-family:CRUCZX+TimesNewRomanPSMT;font-size:10.46px;font-style:NORMAL;font-weight:normal;">1 </text>
  <text y="752.718" style="fill:#000000;font-family:CRUCZX+TimesNewRomanPSMT;font-size:10.46px;font-style:NORMAL;font-weight:normal;" svg_rhmargin="112.448" x=""/>
  <text x="109.834,112.497,115.161" y="699.8050000000001" svg_rhmargin="117.777" style="fill:#000000;font-family:CRUCZX+ArialMT;font-size:9.41px;font-style:NORMAL;font-weight:normal;">. </text>
  <text y="711.726" style="fill:#000000;font-family:CRUCZX+TimesNewRomanPSMT;font-size:10.46px;font-style:NORMAL;font-weight:normal;" svg_rhmargin="112.448" x=""/>
  <text x="92.684,94.867,98.787,100.969,103.151,105.333,108.812,110.995,112.96,116.014,119.493,122.972,125.584,129.063,132.983,134.949,137.131,141.051,143.017,146.937,150.416,152.598,156.077,158.69,164.792,166.974,170.894,174.374,176.339,179.393,181.575,185.054,187.666,189.848" y="114.84000000000003" svg_rhmargin="191.783" style="fill:#000000;font-family:CRUCZX+TimesNewRomanPSMT;font-size:7.74px;font-style:NORMAL;font-weight:normal;">initial search to determine start </text>
  <text svg_rhmargin="171.491" x="92.684,96.606,100.528,102.708,106.63,108.811,110.776,114.698,117.312,119.277,121.458,123.639,125.819,129.302,131.915,135.398,137.578,141.5,144.114,147.596,149.562,152.618,156.1,159.583,162.197,165.679,169.556,171.491" y="114.84000000000003" style="fill:#000000;font-family:CRUCZX+TimesNewRomanPSMT;font-size:7.74px;font-style:NORMAL;font-weight:normal;">point of literature search </text>
  <text x="203.947,206.555,210.474,213.527,216.58,220.058,223.977,226.156,230.075,232.253,235.732,239.651,242.259,245.737,247.915,251.394,255.313,257.921,263.582,265.76,267.938,269.9,274.26,276.438,279.917,282.095,286.014,289.068,291.676,293.204,298.865,304.525,310.186,312.147,314.325,320.427,324.346,326.525,330.003,333.922,336.101,338.708,344.369,346.547,348.726,350.687,355.048,357.226,360.704,362.883,366.802,369.855,372.462,375.07,376.599,382.259,387.92,393.58,395.542,398.149,401.349,404.402,408.321,410.929,414.848,417.027,420.946,424.424,426.603,429.802,432.41,438.071,440.249,442.427,444.389,448.749,450.932,454.409,456.587,460.507,463.56,466.168,468.13,473.79,479.025" y="114.84000000000003" svg_rhmargin="480.96" style="fill:#000000;font-family:CRUCZX+TimesNewRomanPSMT;font-size:7.74px;font-style:NORMAL;font-weight:normal;">(osseointegrated[All Fields] AND implant[All Fields]) AND ("survival"[All Fields] OR </text>
  <text x="203.947,207.148,210.203,214.126,216.739,220.662,222.842,226.765,230.245,232.425,235.626,238.24,245.209,248.689,253.051,258.713,260.53,264.775,268.255,270.868,276.971,280.025,282.638,285.251,286.781,292.443,298.105,303.767,305.733,308.346,310.959,314.161,318.084,322.007,325.931,329.854,332.034,335.957,339.88,342.06,345.983,349.907,353.108,355.721,360.083,365.745,370.54,375.328,377.941,379.907,382.087,384.052,387.253,391.177,395.1,399.023,402.947,405.126,409.05,412.973,415.153,419.076,422.999,426.201,428.814,433.175,438.837,443.632,448.42,451.033,453.646,455.176,460.838,466.5,472.162" y="128.22400000000005" svg_rhmargin="474.097" style="fill:#000000;font-family:CRUCZX+TimesNewRomanPSMT;font-size:7.74px;font-style:NORMAL;font-weight:normal;">"survival"[MeSH Terms]) AND (("1975/01/01"[PDAT] : "1990/12/31"[PDAT]) AND </text>
  <text x="203.947,207.151,211.072,214.993,221.096,224.578,228.499,231.555,234.759,237.371,244.342,247.824,252.186,257.848,259.667,263.913,267.395,270.007,276.111,279.168,281.781,284.37" y="141.82000000000005" svg_rhmargin="286.305" style="fill:#000000;font-family:CRUCZX+TimesNewRomanPSMT;font-size:7.74px;font-style:NORMAL;font-weight:normal;">"humans"[MeSH Terms]) </text>
  <path d=" M 87.66500091552734 692.27099609375 L 87.8740005493164 692.27099609375 L 87.8740005493164 692.4810180664062 L 87.66500091552734 692.4810180664062 Z " style="fill:none;stroke:#000000;stroke-width:1.0;"/>
  <path d=" M 87.66500091552734 692.27099609375 L 87.8740005493164 692.27099609375 L 87.8740005493164 692.4810180664062 L 87.66500091552734 692.4810180664062 Z " style="fill:none;stroke:#000000;stroke-width:1.0;"/>
  <path d=" M 87.8740005493164 692.27099609375 L 198.92800903320312 692.27099609375 L 198.92800903320312 692.4810180664062 L 87.8740005493164 692.4810180664062 Z " style="fill:none;stroke:#000000;stroke-width:1.0;"/>
  <path d=" M 198.92799377441406 692.27099609375 L 199.13699340820312 692.27099609375 L 199.13699340820312 692.4810180664062 L 198.92799377441406 692.4810180664062 Z " style="fill:none;stroke:#000000;stroke-width:1.0;"/>
  <path d=" M 199.13699340820312 692.27099609375 L 519.9580078125 692.27099609375 L 519.9580078125 692.4810180664062 L 199.13699340820312 692.4810180664062 Z " style="fill:none;stroke:#000000;stroke-width:1.0;"/>
  <path d=" M 519.9580078125 692.27099609375 L 520.1680297851562 692.27099609375 L 520.1680297851562 692.4810180664062 L 519.9580078125 692.4810180664062 Z " style="fill:none;stroke:#000000;stroke-width:1.0;"/>
  <path d=" M 519.9580078125 692.27099609375 L 520.1680297851562 692.27099609375 L 520.1680297851562 692.4810180664062 L 519.9580078125 692.4810180664062 Z " style="fill:none;stroke:#000000;stroke-width:1.0;"/>
  <path d=" M 87.66500091552734 651.697998046875 L 87.8740005493164 651.697998046875 L 87.8740005493164 692.27099609375 L 87.66500091552734 692.27099609375 Z " style="fill:none;stroke:#000000;stroke-width:1.0;"/>
  <path d=" M 198.92799377441406 651.697998046875 L 199.13699340820312 651.697998046875 L 199.13699340820312 692.27099609375 L 198.92799377441406 692.27099609375 Z " style="fill:none;stroke:#000000;stroke-width:1.0;"/>
  <path d=" M 519.9580078125 651.697998046875 L 520.1680297851562 651.697998046875 L 520.1680297851562 692.27099609375 L 519.9580078125 692.27099609375 Z " style="fill:none;stroke:#000000;stroke-width:1.0;"/>
  <text y="155.62199999999996" style="fill:#000000;font-family:CRUCZX+TimesNewRomanPSMT;font-size:7.74px;font-style:NORMAL;font-weight:normal;" svg_rhmargin="94.619" x=""/>
  <text svg_rhmargin="159.303" x="92.684,96.608,100.088,102.269,106.192,110.115,112.296,116.219,120.143,122.323,125.788,127.746,131.227,135.15,139.073,142.997,145.177,147.358,149.538,153.462,157.368,159.303" y="155.62199999999996" style="fill:#000000;font-family:CRUCZX+TimesNewRomanPSMT;font-size:7.74px;font-style:NORMAL;font-weight:normal;">pathologic condition </text>
  <text y="155.62199999999996" style="fill:#000000;font-family:CRUCZX+TimesNewRomanPSMT;font-size:7.74px;font-style:NORMAL;font-weight:normal;" svg_rhmargin="205.882" x=""/>
  <text x="203.947,210.921,214.403,218.769,224.435,226.392,229.875,233.799,237.724,239.682,242.733,246.215,249.698,252.307,255.789,259.714,261.672,263.848,267.33,269.939,276.038,277.996,281.478,285.403,291.502,295.427,297.603,301.528,305.01,307.186,309.362,313.287,317.212,320.252" y="169.00699999999995" svg_rhmargin="322.187" style="fill:#000000;font-family:CRUCZX+TimesNewRomanPSMT;font-size:7.74px;font-style:NORMAL;font-weight:normal;">MeSH and search term combinations </text>
  <path d=" M 87.66500091552734 651.4879760742188 L 87.8740005493164 651.4879760742188 L 87.8740005493164 651.697998046875 L 87.66500091552734 651.697998046875 Z " style="fill:none;stroke:#000000;stroke-width:1.0;"/>
  <path d=" M 87.8740005493164 651.4879760742188 L 198.92800903320312 651.4879760742188 L 198.92800903320312 651.697998046875 L 87.8740005493164 651.697998046875 Z " style="fill:none;stroke:#000000;stroke-width:1.0;"/>
  <path d=" M 198.92799377441406 651.4879760742188 L 199.13699340820312 651.4879760742188 L 199.13699340820312 651.697998046875 L 198.92799377441406 651.697998046875 Z " style="fill:none;stroke:#000000;stroke-width:1.0;"/>
  <path d=" M 199.13699340820312 651.4879760742188 L 519.9580078125 651.4879760742188 L 519.9580078125 651.697998046875 L 199.13699340820312 651.697998046875 Z " style="fill:none;stroke:#000000;stroke-width:1.0;"/>
  <path d=" M 519.9580078125 651.4879760742188 L 520.1680297851562 651.4879760742188 L 520.1680297851562 651.697998046875 L 519.9580078125 651.697998046875 Z " style="fill:none;stroke:#000000;stroke-width:1.0;"/>
  <path d=" M 87.66500091552734 624.510009765625 L 87.8740005493164 624.510009765625 L 87.8740005493164 651.489013671875 L 87.66500091552734 651.489013671875 Z " style="fill:none;stroke:#000000;stroke-width:1.0;"/>
  <path d=" M 198.92799377441406 624.510009765625 L 199.13699340820312 624.510009765625 L 199.13699340820312 651.489013671875 L 198.92799377441406 651.489013671875 Z " style="fill:none;stroke:#000000;stroke-width:1.0;"/>
  <path d=" M 519.9580078125 624.510009765625 L 520.1680297851562 624.510009765625 L 520.1680297851562 651.489013671875 L 519.9580078125 651.489013671875 Z " style="fill:none;stroke:#000000;stroke-width:1.0;"/>
  <text x="92.684,96.608,101.396,105.319,107.254,203.947,206.559,209.755,211.933,214.111,217.586,221.505,224.979,228.899,230.86,234.78,236.958,240.433,244.352,248.271,251.32,253.282,255.244,259.163,261.775,265.249,267.427,270.623,273.235,280.211,283.685,288.046,293.706,295.529,299.773,303.247,305.859,311.96,315.013,317.625,319.586,325.246,330.482,332.443,335.055,338.25,340.429,342.607,346.081,350.001,353.475,357.395,360.591,363.202,368.863,371.041,373.219,375.181,379.541,381.72,385.194,387.373,391.292,394.341,396.952,398.48,404.14,409.801,415.461,417.423,420.619,424.538,426.717,430.191,434.11,438.03,441.079,444.275,446.886,452.547,454.725,456.903,458.865,463.225,465.404,468.878,471.057,474.976,478.025,480.636,482.165,487.825,493.486,499.146" y="182.80999999999995" svg_rhmargin="501.081" style="fill:#000000;font-family:CRUCZX+TimesNewRomanPSMT;font-size:7.74px;font-style:NORMAL;font-weight:normal;">oLp ("lichen planus, oral"[MeSH Terms] OR ("lichen"[All Fields] AND "planus"[All Fields] AND </text>
  <text x="203.947,207.151,211.072,213.685,217.167,219.347,222.55,225.164,230.826,233.005,235.185,237.151,241.513,243.693,247.175,249.355,253.276,256.332,258.946,261.559,263.525,269.187,274.416,276.381,279.585,283.506,286.119,289.601,291.781,293.747,295.926,298.106,301.588,305.509,308.992,312.913,314.878,318.799,320.979,324.461,328.382,332.303,335.359,338.563,341.176,346.838,349.018,351.198,353.164,357.526,359.706,363.188,365.368,369.289,372.346,374.959,376.924,382.587,387.815,389.781,392.394,395.598,399.518,402.132,405.614,407.794,410.997,413.611,419.273,421.452,423.632,425.598,429.96,432.14,435.622,437.802,441.723,444.779,447.392,448.922,454.584,460.247,465.909,467.875,471.078,473.259,475.439,478.921,482.842,486.324,490.245,493.449,496.062,501.724,503.904,506.084" y="196.404" svg_rhmargin="508.019" style="fill:#000000;font-family:CRUCZX+TimesNewRomanPSMT;font-size:7.74px;font-style:NORMAL;font-weight:normal;">"oral"[All Fields]) OR "oral lichen planus"[All Fields] OR ("oral"[All Fields] AND "lichen"[All </text>
  <text x="203.947,208.309,210.489,213.971,216.151,220.072,223.128,225.742,227.274,232.936,238.598,244.26,246.223,249.427,253.348,255.528,259.01,262.932,266.853,269.91,273.096,275.707,281.368,283.546,285.724,287.686,292.046,294.225,297.699,299.878,303.796,306.845,309.457,312.068,314.68,316.208,321.869,327.529,333.19,335.151,337.763,340.959,344.878,348.353,352.272,354.45,357.925,360.103,362.065,364.243,370.345,374.264,376.442,379.917,383.835,386.014,389.063,392.259,394.87,401.846,405.321,409.681,415.342,417.164,421.408,424.883,427.494,433.596,436.645,439.256,441.218,446.879,452.113,454.075,456.687,459.883,463.802,467.276,471.195,473.374,476.849,479.027,482.223,484.834,490.495,492.673,494.852" y="209.79100000000005" svg_rhmargin="496.787" style="fill:#000000;font-family:CRUCZX+TimesNewRomanPSMT;font-size:7.74px;font-style:NORMAL;font-weight:normal;">Fields] AND "planus"[All Fields])) AND ("dental implants"[MeSH Terms] OR ("dental"[All </text>
  <text x="203.947,208.309,210.491,213.971,216.153,220.074,223.128,225.742,227.271,232.934,238.596,244.258,246.223,249.424,251.607,257.71,261.631,263.814,267.293,271.214,273.397,276.451,279.652,282.265,287.927,290.11,292.292,294.257,298.619,300.801,304.281,306.463,310.384,313.439,316.052,318.665,320.631,326.293,331.521,333.487,336.688,340.609,344.089,348.01,350.192,353.672,355.854,357.82,360.002,366.105,370.026,372.208,375.688,379.609,381.791,384.845,388.046,390.66,396.322,398.504,400.686,402.652,407.014,409.197,412.676,414.859,418.779,421.834,424.447,426.412,432.074,437.303,439.269,441.882,445.083,449.004,452.484,456.405,458.587,462.067,464.249,467.45,470.064,475.726,477.908,480.09,482.055,486.417,488.6,492.079,494.262,498.183,501.237,503.85" y="223.38699999999994" svg_rhmargin="505.785" style="fill:#000000;font-family:CRUCZX+TimesNewRomanPSMT;font-size:7.74px;font-style:NORMAL;font-weight:normal;">Fields] AND "implants"[All Fields]) OR "dental implants"[All Fields] OR ("dental"[All Fields] </text>
  <text x="203.947,209.611,215.274,220.938,222.896,226.098,228.281,234.378,238.3,240.482,243.964,247.886,250.068,253.271,255.886,261.549,263.732,265.914,267.872,272.235,274.417,277.899,280.081,284.003,287.051,289.666,292.281,294.239,299.902,305.132,307.09,310.293,314.216,317.697,321.619,323.802,327.283,329.465,331.423,333.605,339.702,343.625,345.807,349.288,353.211,355.393,358.596,361.21,366.874,369.056,371.238,373.196,377.56,379.742,383.223,385.405,389.328,392.376,394.991,397.549" y="236.98299999999995" svg_rhmargin="399.484" style="fill:#000000;font-family:CRUCZX+TimesNewRomanPSMT;font-size:7.74px;font-style:NORMAL;font-weight:normal;">AND "implant"[All Fields]) OR "dental implant"[All Fields]) </text>
  <path d=" M 87.66500091552734 624.2999877929688 L 87.8740005493164 624.2999877929688 L 87.8740005493164 624.510009765625 L 87.66500091552734 624.510009765625 Z " style="fill:none;stroke:#000000;stroke-width:1.0;"/>
  <path d=" M 87.8740005493164 624.2999877929688 L 198.92800903320312 624.2999877929688 L 198.92800903320312 624.510009765625 L 87.8740005493164 624.510009765625 Z " style="fill:none;stroke:#000000;stroke-width:1.0;"/>
  <path d=" M 198.92799377441406 624.2999877929688 L 199.13699340820312 624.2999877929688 L 199.13699340820312 624.510009765625 L 198.92799377441406 624.510009765625 Z " style="fill:none;stroke:#000000;stroke-width:1.0;"/>
  <path d=" M 199.13699340820312 624.2999877929688 L 519.9580078125 624.2999877929688 L 519.9580078125 624.510009765625 L 199.13699340820312 624.510009765625 Z " style="fill:none;stroke:#000000;stroke-width:1.0;"/>
  <path d=" M 519.9580078125 624.2999877929688 L 520.1680297851562 624.2999877929688 L 520.1680297851562 624.510009765625 L 519.9580078125 624.510009765625 Z " style="fill:none;stroke:#000000;stroke-width:1.0;"/>
  <path d=" M 87.66500091552734 556.7479858398438 L 87.8740005493164 556.7479858398438 L 87.8740005493164 624.2999877929688 L 87.66500091552734 624.2999877929688 Z " style="fill:none;stroke:#000000;stroke-width:1.0;"/>
  <path d=" M 198.92799377441406 556.7479858398438 L 199.13699340820312 556.7479858398438 L 199.13699340820312 624.2999877929688 L 198.92799377441406 624.2999877929688 Z " style="fill:none;stroke:#000000;stroke-width:1.0;"/>
  <path d=" M 519.9580078125 556.7479858398438 L 520.1680297851562 556.7479858398438 L 520.1680297851562 624.2999877929688 L 519.9580078125 624.2999877929688 Z " style="fill:none;stroke:#000000;stroke-width:1.0;"/>
  <text x="92.684,97.049,100.531,102.46600000000001,203.947,206.559,209.755,213.674,217.148,221.068,223.246,226.721,228.899,230.86,233.039,239.14,243.059,245.237,248.712,252.631,254.809,257.858,261.054,263.666,270.642,274.116,278.477,284.137,285.96,290.204,293.678,296.29,302.391,305.444,308.055,310.069,315.732,320.962,322.92,325.535,328.738,332.66,336.142,340.064,342.246,345.728,347.91,351.113,353.728,359.391,361.573,363.755,365.713,370.076,372.258,375.74,377.922,381.844,384.892,387.507,389.038,394.702,400.366,406.029,407.987,411.19,413.372,419.469,423.391,425.574,429.055,432.977,435.16,438.208,441.41,444.025,449.689,451.871,454.053,456.011,460.374,462.557,466.038,468.22,472.143,475.192,477.806,480.421,482.379,488.042,493.273" y="250.78099999999995" svg_rhmargin="495.208" style="fill:#000000;font-family:CRUCZX+TimesNewRomanPSMT;font-size:7.74px;font-style:NORMAL;font-weight:normal;">Pe ("dental implants"[MeSH Terms] OR ("dental"[All Fields] AND "implants"[All Fields]) OR </text>
  <text x="203.947,207.148,211.069,214.549,218.47,220.652,224.132,226.314,228.28,230.462,236.565,240.486,242.668,246.148,250.069,252.251,255.305,258.508,261.121,266.782,268.964,271.146,273.112,277.474,279.656,283.136,285.318,289.239,292.293,294.906,296.872,302.534,307.763,309.728,312.341,315.543,319.464,322.943,326.864,329.047,332.526,334.709,337.91,340.523,346.185,348.367,350.549,352.515,356.877,359.059,362.539,364.721,368.642,371.696,374.31,375.839,381.501,387.163,392.825,394.791,397.993,400.175,406.279,410.2,412.382,415.862,419.783,421.965,425.166,427.78,433.442,435.624,437.806,439.771,444.134,446.316,449.796,451.978,455.899,458.953,461.566,464.179,466.145,471.807,477.036,479.001,482.202,486.123,489.603,493.524,495.706,499.186,501.368" y="264.16600000000005" svg_rhmargin="503.303" style="fill:#000000;font-family:CRUCZX+TimesNewRomanPSMT;font-size:7.74px;font-style:NORMAL;font-weight:normal;">"dental implants"[All Fields] OR ("dental"[All Fields] AND "implant"[All Fields]) OR "dental </text>
  <text x="203.947,206.126,212.228,216.149,218.328,221.807,225.727,227.906,231.107,233.722,239.383,241.562,243.741,245.706,250.067,252.247,255.726,257.905,261.825,264.878,267.494,270.109,271.638,277.3,282.961,288.622,290.588,293.203,296.404,300.324,303.803,309.905,313.826,317.745,319.925,323.844,327.764,330.818,334.018,336.634,343.611,347.09,351.451,357.112,358.928,363.173,366.652,369.267,375.37,378.423,381.039,383.004,388.665,393.893,395.859,399.059,402.98,406.459,412.561,416.481,420.401,422.58,426.5,430.42,433.474,436.674,439.29,444.951,447.13,449.309,451.274,455.636,457.815,461.294,463.473,467.393,470.447,473.062,475.658" y="277.76199999999994" svg_rhmargin="477.593" style="fill:#000000;font-family:CRUCZX+TimesNewRomanPSMT;font-size:7.74px;font-style:NORMAL;font-weight:normal;">implant"[All Fields]) AND ("pemphigus"[MeSH Terms] OR "pemphigus"[All Fields]) </text>
  <text x="203.947,206.559,209.755,213.674,217.148,221.068,223.246,226.721,228.899,230.86,233.039,239.14,243.059,245.237,248.712,252.631,254.809,257.858,261.054,263.666,270.642,274.116,278.477,284.137,285.96,290.204,293.678,296.29,302.447,305.499,308.106,310.064,315.732,320.966,322.923,325.531,328.73,332.649,336.126,340.045,342.223,345.701,347.878,351.077,353.685,359.353,361.53,363.708,365.665,370.025,372.203,375.68,377.858,381.776,384.828,387.436,388.964,394.631,400.298,405.966,407.924,411.123,413.3,419.401,423.32,425.497,428.975,432.893,435.071,438.123,441.322,443.929,449.597,451.774,453.953,455.91,460.27,462.448,465.925,468.103,472.021,475.073,477.681,480.289,482.247,487.914,493.148" y="291.358" svg_rhmargin="495.083" style="fill:#000000;font-family:CRUCZX+TimesNewRomanPSMT;font-size:7.74px;font-style:NORMAL;font-weight:normal;">("dental implants"[MeSH Terms] OR ("dental"[All Fields] AND "implants"[All Fields]) OR </text>
  <text x="203.947,207.148,211.069,214.549,218.47,220.652,224.132,226.314,228.28,230.462,236.565,240.486,242.668,246.148,250.069,252.251,255.305,258.508,261.121,266.782,268.964,271.146,273.112,277.474,279.656,283.136,285.318,289.239,292.293,294.906,296.872,302.534,307.763,309.728,312.341,315.543,319.464,322.943,326.864,329.047,332.526,334.709,337.91,340.523,346.185,348.367,350.549,352.515,356.877,359.059,362.539,364.721,368.642,371.696,374.31,375.839,381.501,387.163,392.825,394.791,397.993,400.175,406.279,410.2,412.382,415.862,419.783,421.965,425.166,427.78,433.442,435.624,437.806,439.771,444.134,446.316,449.796,451.978,455.899,458.953,461.566,464.179,466.145,471.807,477.036,479.001,482.202,486.123,489.603,493.524,495.706,499.186,501.368" y="304.745" svg_rhmargin="503.303" style="fill:#000000;font-family:CRUCZX+TimesNewRomanPSMT;font-size:7.74px;font-style:NORMAL;font-weight:normal;">"dental implants"[All Fields] OR ("dental"[All Fields] AND "implant"[All Fields]) OR "dental </text>
  <text x="203.947,206.126,212.228,216.152,218.331,221.81,225.733,227.912,231.113,233.725,239.386,241.566,243.745,245.71,250.067,252.246,255.725,257.904,261.827,264.881,267.493,270.106,271.635,277.296,282.957,288.618,290.584,293.196,296.397,300.32,303.799,309.902,313.825,317.748,319.927,323.85,327.774,329.953,333.876,335.839,337.804,341.727,345.647,347.826,350.005,353.928,357.851,360.905,364.105,366.718,373.695,377.174,381.535,387.196,389.012,393.257,396.736,399.348,405.451,408.504,411.117,413.082,418.743,423.971,425.937,428.549,431.75,435.673,439.152,445.254,449.178,453.097,455.277,459.196,463.12,465.299,469.222,472.422,475.035,480.696,482.875,485.054,487.02,491.381,493.56,497.039,499.218,503.142,506.195,508.807" y="318.341" svg_rhmargin="510.742" style="fill:#000000;font-family:CRUCZX+TimesNewRomanPSMT;font-size:7.74px;font-style:NORMAL;font-weight:normal;">implant"[All Fields]) AND ("pemphigoid, bullous"[MeSH Terms] OR ("pemphigoid"[All Fields] </text>
  <text x="203.947,209.611,215.274,220.938,222.896,226.098,230.022,233.945,236.126,238.308,242.231,246.154,249.202,252.405,255.011,260.675,262.856,265.038,266.996,271.359,273.54,277.022,279.203,283.127,286.175,288.789,291.403,293.361,299.025,304.255,306.213,309.416,313.339,317.262,319.444,321.625,325.548,329.471,332.52,334.477,338.401,341.882,347.979,351.902,355.826,358.007,361.93,365.853,368.035,371.958,375.161,377.776,383.439,385.62,387.801,389.759,394.123,396.304,399.785,401.967,405.89,408.938,411.553,413.511,419.174,424.405,426.362,429.565,433.488,436.97,443.067,446.99,450.913,453.095,457.018,460.941,463.123,467.046,470.249,472.864,478.526,480.708,482.89,484.848,489.211,491.393,494.874,497.056,500.979,504.027,506.642,509.196" y="331.937" svg_rhmargin="511.131" style="fill:#000000;font-family:CRUCZX+TimesNewRomanPSMT;font-size:7.74px;font-style:NORMAL;font-weight:normal;">AND "bullous"[All Fields]) OR "bullous pemphigoid"[All Fields] OR "pemphigoid"[All Fields]) </text>
  <path d=" M 87.66500091552734 556.5390014648438 L 87.8740005493164 556.5390014648438 L 87.8740005493164 556.7479858398438 L 87.66500091552734 556.7479858398438 Z " style="fill:none;stroke:#000000;stroke-width:1.0;"/>
  <path d=" M 87.8740005493164 556.5390014648438 L 198.92800903320312 556.5390014648438 L 198.92800903320312 556.7479858398438 L 87.8740005493164 556.7479858398438 Z " style="fill:none;stroke:#000000;stroke-width:1.0;"/>
  <path d=" M 198.92799377441406 556.5390014648438 L 199.13699340820312 556.5390014648438 L 199.13699340820312 556.7479858398438 L 198.92799377441406 556.7479858398438 Z " style="fill:none;stroke:#000000;stroke-width:1.0;"/>
  <path d=" M 199.13699340820312 556.5390014648438 L 519.9580078125 556.5390014648438 L 519.9580078125 556.7479858398438 L 199.13699340820312 556.7479858398438 Z " style="fill:none;stroke:#000000;stroke-width:1.0;"/>
  <path d=" M 519.9580078125 556.5390014648438 L 520.1680297851562 556.5390014648438 L 520.1680297851562 556.7479858398438 L 519.9580078125 556.7479858398438 Z " style="fill:none;stroke:#000000;stroke-width:1.0;"/>
  <path d=" M 87.66500091552734 461.7980041503906 L 87.8740005493164 461.7980041503906 L 87.8740005493164 556.5390014648438 L 87.66500091552734 556.5390014648438 Z " style="fill:none;stroke:#000000;stroke-width:1.0;"/>
  <path d=" M 198.92799377441406 461.7980041503906 L 199.13699340820312 461.7980041503906 L 199.13699340820312 556.5390014648438 L 198.92799377441406 556.5390014648438 Z " style="fill:none;stroke:#000000;stroke-width:1.0;"/>
  <path d=" M 519.9580078125 461.7980041503906 L 520.1680297851562 461.7980041503906 L 520.1680297851562 556.5390014648438 L 519.9580078125 556.5390014648438 Z " style="fill:none;stroke:#000000;stroke-width:1.0;"/>
  <text x="92.684,97.474,102.705,104.64,203.947,206.559,209.755,213.674,217.148,221.068,223.246,226.721,228.899,230.86,233.039,239.14,243.059,245.237,248.712,252.631,254.809,257.858,261.054,263.666,270.642,274.116,278.477,284.137,285.96,290.204,293.678,296.29,302.392,305.44,308.052,310.014,315.674,320.909,322.871,325.482,328.678,332.598,336.073,339.992,342.171,345.645,347.823,351.019,353.631,359.291,361.47,363.648,365.61,369.97,372.148,375.623,377.801,381.721,384.769,387.381,388.909,394.57,400.23,405.891,407.853,411.048,413.227,419.327,423.247,425.425,428.9,432.819,434.997,438.046,441.242,443.854,449.514,451.693,453.871,455.832,460.193,462.371,465.846,468.024,471.943,474.992,477.604,480.216,482.177,487.838,493.073" y="345.521" svg_rhmargin="495.008" style="fill:#000000;font-family:CRUCZX+TimesNewRomanPSMT;font-size:7.74px;font-style:NORMAL;font-weight:normal;">EB ("dental implants"[MeSH Terms] OR ("dental"[All Fields] AND "implants"[All Fields]) OR </text>
  <text x="203.947,207.148,211.069,214.549,218.47,220.652,224.132,226.314,228.28,230.462,236.565,240.486,242.668,246.148,250.069,252.251,255.305,258.508,261.121,266.782,268.964,271.146,273.112,277.474,279.656,283.136,285.318,289.239,292.293,294.906,296.872,302.534,307.763,309.728,312.341,315.543,319.464,322.943,326.864,329.047,332.526,334.709,337.91,340.523,346.185,348.367,350.549,352.515,356.877,359.059,362.539,364.721,368.642,371.696,374.31,375.839,381.501,387.163,392.825,394.791,397.993,400.175,406.279,410.2,412.382,415.862,419.783,421.965,425.166,427.78,433.442,435.624,437.806,439.771,444.134,446.316,449.796,451.978,455.899,458.953,461.566,464.179,466.145,471.807,477.036,479.001,482.202,486.012,489.493,493.414,495.597,499.077,501.259" y="359.115" svg_rhmargin="503.194" style="fill:#000000;font-family:CRUCZX+TimesNewRomanPSMT;font-size:7.74px;font-style:NORMAL;font-weight:normal;">"dental implants"[All Fields] OR ("dental"[All Fields] AND "implant"[All Fields]) OR "dental </text>
  <text x="203.947,206.126,212.228,216.149,218.328,221.807,225.727,227.906,231.107,233.722,239.383,241.562,243.741,245.706,250.067,252.247,255.726,257.905,261.825,264.878,267.494,270.109,271.638,277.3,282.961,288.622,290.588,293.203,296.404,299.883,303.803,305.982,309.901,313.381,315.993,322.095,326.016,328.195,332.115,335.168,337.347,340.401,342.366,346.286,350.207,352.386,354.565,358.485,361.538,365.018,368.218,370.834,377.81,381.289,385.651,391.312,393.127,397.372,400.851,403.466,409.569,412.622,415.238,417.203,422.864,428.092,430.058,432.673,435.874,439.353,443.273,445.452,449.372,452.852,455.467,461.569,465.49,467.669,471.589,474.642,476.821,479.87,483.072,485.683,491.344,493.523,495.703" y="372.711" svg_rhmargin="497.638" style="fill:#000000;font-family:CRUCZX+TimesNewRomanPSMT;font-size:7.74px;font-style:NORMAL;font-weight:normal;">implant"[All Fields]) AND ("epidermolysis bullosa"[MeSH Terms] OR ("epidermolysis"[All </text>
  <text x="203.947,208.309,210.489,213.971,216.151,220.072,223.128,225.742,227.272,232.934,238.596,244.258,246.223,249.427,253.348,257.269,259.449,261.628,265.55,268.607,272.089,275.292,277.906,283.568,285.748,287.927,289.893,294.255,296.435,299.917,302.097,306.018,309.074,311.688,314.301,316.266,321.928,327.157,329.123,332.326,335.808,339.729,341.909,345.831,349.313,351.926,358.03,361.951,364.131,368.052,371.108,373.288,376.345,378.31,382.231,386.152,388.332,390.512,394.433,397.489,400.972,404.175,406.788,412.451,414.63,416.81,418.776,423.138,425.318,428.8,430.98,434.901,437.958,440.571,443.088" y="386.098" svg_rhmargin="445.023" style="fill:#000000;font-family:CRUCZX+TimesNewRomanPSMT;font-size:7.74px;font-style:NORMAL;font-weight:normal;">Fields] AND "bullosa"[All Fields]) OR "epidermolysis bullosa"[All Fields]) </text>
  <path d=" M 87.66500091552734 461.5889892578125 L 87.8740005493164 461.5889892578125 L 87.8740005493164 461.7980041503906 L 87.66500091552734 461.7980041503906 Z " style="fill:none;stroke:#000000;stroke-width:1.0;"/>
  <path d=" M 87.8740005493164 461.5889892578125 L 198.92800903320312 461.5889892578125 L 198.92800903320312 461.7980041503906 L 87.8740005493164 461.7980041503906 Z " style="fill:none;stroke:#000000;stroke-width:1.0;"/>
  <path d=" M 198.92799377441406 461.5889892578125 L 199.13699340820312 461.5889892578125 L 199.13699340820312 461.7980041503906 L 198.92799377441406 461.7980041503906 Z " style="fill:none;stroke:#000000;stroke-width:1.0;"/>
  <path d=" M 199.13699340820312 461.5889892578125 L 519.9580078125 461.5889892578125 L 519.9580078125 461.7980041503906 L 199.13699340820312 461.7980041503906 Z " style="fill:none;stroke:#000000;stroke-width:1.0;"/>
  <path d=" M 519.9580078125 461.5889892578125 L 520.1680297851562 461.5889892578125 L 520.1680297851562 461.7980041503906 L 519.9580078125 461.7980041503906 Z " style="fill:none;stroke:#000000;stroke-width:1.0;"/>
  <path d=" M 87.66500091552734 407.4219970703125 L 87.8740005493164 407.4219970703125 L 87.8740005493164 461.5889892578125 L 87.66500091552734 461.5889892578125 Z " style="fill:none;stroke:#000000;stroke-width:1.0;"/>
  <path d=" M 198.92799377441406 407.4219970703125 L 199.13699340820312 407.4219970703125 L 199.13699340820312 461.5889892578125 L 198.92799377441406 461.5889892578125 Z " style="fill:none;stroke:#000000;stroke-width:1.0;"/>
  <path d=" M 519.9580078125 407.4219970703125 L 520.1680297851562 407.4219970703125 L 520.1680297851562 461.5889892578125 L 519.9580078125 461.5889892578125 Z " style="fill:none;stroke:#000000;stroke-width:1.0;"/>
  <text x="92.684,97.046,99.229,103.588,105.523,203.947,206.555,209.755,213.674,217.152,221.072,223.25,226.728,228.907,230.868,233.047,239.148,243.067,245.246,248.724,252.644,254.822,257.875,261.074,263.682,270.658,274.137,278.498,284.192,286.011,290.253,293.738,296.346,302.446,305.497,308.105,310.063,315.729,320.962,322.92,325.528,328.726,332.652,336.136,340.062,342.239,345.723,347.9,351.099,353.707,359.373,361.55,363.727,365.685,370.044,372.22,375.705,377.882,381.807,384.858,387.466,388.993,394.66,400.326,405.993,407.951,411.149,413.326,419.426,423.351,425.528,429.012,432.938,435.115,438.166,441.364,443.972,449.639,451.815,453.992,455.95,460.309,462.486,465.97,468.147,472.073,475.124,477.732,480.34,482.298,487.964,493.198" y="399.898" svg_rhmargin="495.133" style="fill:#000000;font-family:CRUCZX+TimesNewRomanPSMT;font-size:7.74px;font-style:NORMAL;font-weight:normal;">SjS ("dental implants"[MeSH Terms] OR ("dental"[All Fields] AND "implants"[All Fields]) OR </text>
  <text x="203.947,207.148,211.069,214.549,218.47,220.652,224.132,226.314,228.28,230.462,236.565,240.486,242.668,246.148,250.069,252.251,255.305,258.508,261.121,266.782,268.964,271.146,273.112,277.474,279.656,283.136,285.318,289.239,292.293,294.906,296.872,302.534,307.763,309.728,312.341,315.543,319.464,322.943,326.864,329.047,332.526,334.709,337.91,340.523,346.185,348.367,350.549,352.515,356.877,359.059,362.539,364.721,368.642,371.696,374.31,375.839,381.501,387.163,392.825,394.791,397.993,400.175,406.279,410.2,412.382,415.862,419.783,421.965,425.166,427.78,433.442,435.624,437.806,439.771,444.134,446.316,449.796,451.978,455.899,458.953,461.566,464.179,466.145,471.807,477.036,479.001,482.202,486.123,489.603,493.524,495.706,499.186,501.368" y="413.492" svg_rhmargin="503.303" style="fill:#000000;font-family:CRUCZX+TimesNewRomanPSMT;font-size:7.74px;font-style:NORMAL;font-weight:normal;">"dental implants"[All Fields] OR ("dental"[All Fields] AND "implant"[All Fields]) OR "dental </text>
  <text x="203.947,206.129,212.232,216.152,218.334,221.813,225.733,227.915,231.116,233.728,239.39,241.572,243.754,245.719,250.081,252.263,255.742,257.924,261.844,264.898,267.51,270.123,271.652,277.313,282.974,288.635,290.601,294.963,297.141,301.062,304.982,307.595,311.073,314.994,317.602,323.264,325.446,327.624,329.59,333.951,336.133,339.612,341.795,345.715,348.768,351.36" y="426.879" svg_rhmargin="353.295" style="fill:#000000;font-family:CRUCZX+TimesNewRomanPSMT;font-size:7.74px;font-style:NORMAL;font-weight:normal;">implant"[All Fields]) AND Sjogren[All Fields] </text>
  <path d=" M 87.66500091552734 407.2130126953125 L 87.8740005493164 407.2130126953125 L 87.8740005493164 407.4220275878906 L 87.66500091552734 407.4220275878906 Z " style="fill:none;stroke:#000000;stroke-width:1.0;"/>
  <path d=" M 87.8740005493164 407.2130126953125 L 198.92800903320312 407.2130126953125 L 198.92800903320312 407.4220275878906 L 87.8740005493164 407.4220275878906 Z " style="fill:none;stroke:#000000;stroke-width:1.0;"/>
  <path d=" M 198.92799377441406 407.2130126953125 L 199.13699340820312 407.2130126953125 L 199.13699340820312 407.4220275878906 L 198.92799377441406 407.4220275878906 Z " style="fill:none;stroke:#000000;stroke-width:1.0;"/>
  <path d=" M 199.13699340820312 407.2130126953125 L 519.9580078125 407.2130126953125 L 519.9580078125 407.4220275878906 L 199.13699340820312 407.4220275878906 Z " style="fill:none;stroke:#000000;stroke-width:1.0;"/>
  <path d=" M 519.9580078125 407.2130126953125 L 520.1680297851562 407.2130126953125 L 520.1680297851562 407.4220275878906 L 519.9580078125 407.4220275878906 Z " style="fill:none;stroke:#000000;stroke-width:1.0;"/>
  <path d=" M 87.66500091552734 366.6390075683594 L 87.8740005493164 366.6390075683594 L 87.8740005493164 407.2130126953125 L 87.66500091552734 407.2130126953125 Z " style="fill:none;stroke:#000000;stroke-width:1.0;"/>
  <path d=" M 198.92799377441406 366.6390075683594 L 199.13699340820312 366.6390075683594 L 199.13699340820312 407.2130126953125 L 198.92799377441406 407.2130126953125 Z " style="fill:none;stroke:#000000;stroke-width:1.0;"/>
  <path d=" M 519.9580078125 366.6390075683594 L 520.1680297851562 366.6390075683594 L 520.1680297851562 407.2130126953125 L 519.9580078125 407.2130126953125 Z " style="fill:none;stroke:#000000;stroke-width:1.0;"/>
  <text x="92.684,95.733,100.526,105.321,107.256,203.947,207.151,211.072,214.554,218.475,220.655,224.137,226.317,228.282,230.462,236.565,240.487,242.666,246.148,250.069,252.249,255.305,258.509,261.122,268.092,271.574,275.936,281.598,283.414,287.66,291.143,293.756,299.859,302.915,305.529,307.494,313.156,318.385,320.35,322.964,326.167,330.088,333.57,337.491,339.671,343.153,345.333,348.537,351.15,356.813,358.992,361.173,363.138,367.487,369.669,373.148,375.33,379.251,382.305,384.913,386.442,392.104,397.764,403.425,405.391,408.591,410.774,416.876,420.796,422.978,426.457,430.378,432.56,435.613,438.814,441.426,447.087,449.27,451.452,453.417,457.779,459.961,463.44,465.622,469.542,472.596,475.208,477.82,479.786,485.447,490.675,492.641,495.841,499.761,503.24,507.161,509.343,512.821,515.003" y="440.68" svg_rhmargin="516.938" style="fill:#000000;font-family:CRUCZX+TimesNewRomanPSMT;font-size:7.74px;font-style:NORMAL;font-weight:normal;">sLE "dental implants"[MeSH Terms] OR ("dental"[All Fields] AND "implants"[All Fields]) OR "dental </text>
  <text x="203.947,206.129,212.232,216.152,218.334,221.813,225.733,227.915,230.969,234.169,236.782,242.443,244.625,246.807,248.773,253.134,255.316,258.795,260.978,264.898,267.951,270.564,272.526,278.188,283.416,285.381,287.994,291.194,295.115,298.594,302.514,304.696,308.175,310.357,313.558,316.17,321.831,324.014,326.196,328.161,332.523,334.705,338.184,340.366,344.286,347.34,349.952,351.481,357.142,362.804,368.465,370.43,373.631,375.813,381.915,385.836,388.018,391.497,395.417,397.599,400.8,403.412,409.073,411.256,413.438,415.403,419.765,421.944,425.423,427.605,431.525,434.579,437.192,439.804,441.766,447.427,452.656,454.621,457.822,461.742,465.221,469.141,471.323,474.802,476.985" y="454.274" svg_rhmargin="478.92" style="fill:#000000;font-family:CRUCZX+TimesNewRomanPSMT;font-size:7.74px;font-style:NORMAL;font-weight:normal;">implants"[All Fields] OR ("dental"[All Fields] AND "implant"[All Fields]) OR "dental </text>
  <text x="203.947,206.126,212.228,216.152,218.331,221.81,225.733,227.912,231.113,233.725,239.386,241.565,243.745,245.71,250.067,252.246,255.725,257.904,261.827,264.881,267.493,270.105,271.635,277.296,282.957,288.618,290.584,293.196,295.375,299.299,303.222,307.145,310.199,312.164,315.643,318.256,322.179,324.358,328.281,331.76,337.863,341.342,343.52,346.999,350.923,354.846,357.458,363.119,365.299,367.478,369.443,373.804,375.983,379.463,381.642,385.565,388.618,391.231,393.196,398.858,404.086,406.051,408.23,412.153,416.077,420.0,423.053,425.019,428.498,431.11,435.034,437.212,441.135,444.614,450.716,454.195,456.374,460.297,464.221,467.274,471.198,474.251,476.863,482.525,484.704,486.883,488.848,493.21,495.389,498.868,501.047,504.97,508.024,510.636" y="467.87" svg_rhmargin="512.571" style="fill:#000000;font-family:CRUCZX+TimesNewRomanPSMT;font-size:7.74px;font-style:NORMAL;font-weight:normal;">implant"[All Fields]) AND (lupus erythemateux[All Fields] OR lupus erythemathosus[All Fields] </text>
  <text x="203.947,209.611,214.841,216.799,218.98,222.903,226.827,230.75,233.798,235.756,239.237,241.852,245.775,247.956,251.88,255.361,261.458,264.939,267.121,271.044,274.967,278.449,281.497,284.112,289.775,291.957,294.138,296.096,300.459,302.641,306.122,308.281,312.204,315.259,317.873,319.839,325.502,330.731,332.697,334.877,338.801,342.724,346.647,349.702,351.668,355.148,357.762,361.686,363.866,367.79,371.271,377.374,380.856,383.035,386.959,390.882,394.805,397.86,400.474,406.137,408.318,410.498,412.464,416.827,419.007,422.488,424.669,428.592,431.647,434.261,436.226,441.889,447.119,449.084,451.265,455.188,459.111,463.035,466.09" y="481.257" svg_rhmargin="468.025" style="fill:#000000;font-family:CRUCZX+TimesNewRomanPSMT;font-size:7.74px;font-style:NORMAL;font-weight:normal;">OR lupus erythematodes[All Fields] OR lupus erythematodus[All Fields] OR lupus </text>
  <text x="203.947,207.429,210.043,213.965,216.145,220.067,223.549,229.653,233.135,235.316,239.238,242.294,245.777,248.833,251.447,257.11,259.29,261.471,263.437,267.8,269.98,273.462,275.643,279.565,282.621,285.235,287.201,292.864,298.093,300.059,302.239,306.161,310.083,314.004,317.061,319.027,322.509,325.123,329.044,331.225,335.147,338.629,344.733,348.215,350.396,354.318,357.375,359.555,362.612,365.226,370.889,373.069,375.25,377.216,381.578,383.759,387.241,389.422,393.344,396.4,399.014,400.98,406.642,411.872,413.837,416.018,419.94,423.861,427.783,430.84,432.805,436.287,438.901,442.823,445.004,448.926,452.408,458.512,461.994,464.174,468.096,471.153,475.074,478.996,482.053,484.667,490.33,492.51,494.691" y="494.853" svg_rhmargin="496.626" style="fill:#000000;font-family:CRUCZX+TimesNewRomanPSMT;font-size:7.74px;font-style:NORMAL;font-weight:normal;">erythematoses[All Fields] OR lupus erythematosis[All Fields] OR lupus erythematosous[All </text>
  <text x="203.947,208.309,210.489,213.969,216.149,220.072,223.126,225.739,227.705,233.367,238.596,240.561,242.741,246.664,250.587,254.511,257.565,259.53,263.01,265.624,269.547,271.727,275.651,279.131,285.234,288.714,290.893,294.817,297.871,301.794,304.848,307.462,313.124,315.304,317.483,319.449,323.811,325.991,329.471,331.65,335.574,338.628,341.241,343.207,348.869,354.097,356.063,358.243,362.166,366.089,370.013,373.067,375.032,378.512,381.125,385.049,387.229,391.153,394.632,400.736,404.215,406.395,410.318,413.372,417.295,420.35,422.313,424.926,430.588,432.768,434.948,436.913,441.275,443.455,446.935,449.115,453.038,456.092,458.706,460.671,466.333,471.562,473.527,475.707,479.63,483.554,487.477,490.531" y="508.449" svg_rhmargin="492.466" style="fill:#000000;font-family:CRUCZX+TimesNewRomanPSMT;font-size:7.74px;font-style:NORMAL;font-weight:normal;">Fields] OR lupus erythematosus[All Fields] OR lupus erythematosus,[All Fields] OR lupus </text>
  <text x="203.947,207.428,210.042,213.963,216.146,220.067,223.548,229.652,233.132,235.315,239.236,242.291,246.213,249.268,251.882,257.545,259.727,261.909,263.875,268.238,270.42,273.901,276.083,280.005,283.06,285.674,287.64,293.302,298.532,300.497,302.68,306.548,310.471,314.394,317.449,319.415,322.896,325.51,329.433,331.613,335.537,339.017,345.121,348.602,350.783,354.706,358.629,361.684,364.297,369.96,372.141,374.321,376.287,380.65,382.83,386.311,388.492,392.415,395.47,398.084,400.049,405.712,410.942,412.907,415.088,419.011,422.934,426.858,429.913,431.878,435.359,437.973,441.896,444.077,448.0,451.481,457.585,461.065,463.246,467.169,471.092,474.148,478.071,481.126,483.74,489.403,491.583,493.764" y="521.836" svg_rhmargin="495.699" style="fill:#000000;font-family:CRUCZX+TimesNewRomanPSMT;font-size:7.74px;font-style:NORMAL;font-weight:normal;">erythematosys[All Fields] OR lupus erythematous[All Fields] OR lupus erythematousus[All </text>
  <text x="203.947,208.309,210.491,213.971,216.153,220.074,223.128,225.742,228.349" y="535.432" svg_rhmargin="230.284" style="fill:#000000;font-family:CRUCZX+TimesNewRomanPSMT;font-size:7.74px;font-style:NORMAL;font-weight:normal;">Fields]) </text>
  <path d=" M 87.66500091552734 366.42999267578125 L 87.8740005493164 366.42999267578125 L 87.8740005493164 366.6390075683594 L 87.66500091552734 366.6390075683594 Z " style="fill:none;stroke:#000000;stroke-width:1.0;"/>
  <path d=" M 87.8740005493164 366.42999267578125 L 198.92800903320312 366.42999267578125 L 198.92800903320312 366.6390075683594 L 87.8740005493164 366.6390075683594 Z " style="fill:none;stroke:#000000;stroke-width:1.0;"/>
  <path d=" M 198.92799377441406 366.42999267578125 L 199.13699340820312 366.42999267578125 L 199.13699340820312 366.6390075683594 L 198.92799377441406 366.6390075683594 Z " style="fill:none;stroke:#000000;stroke-width:1.0;"/>
  <path d=" M 199.13699340820312 366.42999267578125 L 519.9580078125 366.42999267578125 L 519.9580078125 366.6390075683594 L 199.13699340820312 366.6390075683594 Z " style="fill:none;stroke:#000000;stroke-width:1.0;"/>
  <path d=" M 519.9580078125 366.42999267578125 L 520.1680297851562 366.42999267578125 L 520.1680297851562 366.6390075683594 L 519.9580078125 366.6390075683594 Z " style="fill:none;stroke:#000000;stroke-width:1.0;"/>
  <path d=" M 87.66500091552734 258.09600830078125 L 87.8740005493164 258.09600830078125 L 87.8740005493164 366.4309997558594 L 87.66500091552734 366.4309997558594 Z " style="fill:none;stroke:#000000;stroke-width:1.0;"/>
  <path d=" M 198.92799377441406 258.09600830078125 L 199.13699340820312 258.09600830078125 L 199.13699340820312 366.4309997558594 L 198.92799377441406 366.4309997558594 Z " style="fill:none;stroke:#000000;stroke-width:1.0;"/>
  <path d=" M 519.9580078125 258.09600830078125 L 520.1680297851562 258.09600830078125 L 520.1680297851562 366.4309997558594 L 519.9580078125 366.4309997558594 Z " style="fill:none;stroke:#000000;stroke-width:1.0;"/>
  <text x="92.684,95.733,100.093,103.58,105.515,203.947,206.559,209.755,213.674,217.148,221.068,223.246,226.721,228.899,230.86,233.039,239.14,243.059,245.237,248.712,252.631,254.809,257.858,261.054,263.666,270.642,274.116,278.477,284.137,285.96,290.204,293.678,296.29,302.392,305.44,308.052,310.014,315.674,320.909,322.871,325.482,328.678,332.598,336.073,339.992,342.171,345.645,347.823,351.019,353.631,359.291,361.47,363.648,365.61,369.97,372.148,375.623,377.801,381.721,384.769,387.381,388.909,394.57,400.23,405.891,407.853,411.048,413.227,419.327,423.247,425.425,428.9,432.819,434.997,438.046,441.242,443.854,449.514,451.693,453.871,455.832,460.193,462.371,465.846,468.024,471.943,474.992,477.604,480.216,482.177,487.838,493.073" y="549.2239999999999" svg_rhmargin="495.008" style="fill:#000000;font-family:CRUCZX+TimesNewRomanPSMT;font-size:7.74px;font-style:NORMAL;font-weight:normal;">sSc ("dental implants"[MeSH Terms] OR ("dental"[All Fields] AND "implants"[All Fields]) OR </text>
  <text x="203.947,207.148,211.069,214.549,218.47,220.652,224.132,226.314,228.28,230.462,236.565,240.486,242.668,246.148,250.069,252.251,255.305,258.508,261.121,266.782,268.964,271.146,273.112,277.474,279.656,283.136,285.318,289.239,292.293,294.906,296.872,302.534,307.763,309.728,312.341,315.543,319.464,322.943,326.864,329.047,332.526,334.709,337.91,340.523,346.185,348.367,350.549,352.515,356.877,359.059,362.539,364.721,368.642,371.696,374.31,375.839,381.501,387.163,392.825,394.791,397.993,400.175,406.279,410.2,412.382,415.862,419.783,421.965,425.166,427.78,433.442,435.624,437.806,439.771,444.134,446.316,449.796,451.978,455.899,458.953,461.566,464.179,466.145,471.807,477.036,479.001,482.202,486.123,489.603,493.524,495.706,499.186,501.368" y="562.609" svg_rhmargin="503.303" style="fill:#000000;font-family:CRUCZX+TimesNewRomanPSMT;font-size:7.74px;font-style:NORMAL;font-weight:normal;">"dental implants"[All Fields] OR ("dental"[All Fields] AND "implant"[All Fields]) OR "dental </text>
  <text x="203.947,206.129,212.232,216.152,218.334,221.807,225.729,227.909,231.113,233.727,239.389,241.57,243.751,245.716,250.079,252.26,255.742,257.922,261.844,264.901,267.514,270.128,271.659,277.322,282.985,288.648,290.613,293.227,296.43,299.487,302.969,305.15,308.632,311.246,315.167,319.089,322.571,325.185,331.289,334.771,336.735,338.701,341.757,345.679,348.736,350.916,354.399,360.502,362.683,366.165,369.369,371.983,378.954,382.436,386.799,392.462,394.279,398.518,402.0,404.614,410.718,413.775,416.389,418.354,424.017,429.246,431.212,433.826,437.029,440.086,443.568,445.749,449.231,451.845,455.767,459.688,463.171,465.785,471.889,475.371,478.574,481.188,486.851,489.032,491.212,493.178,497.541,499.721,503.204,505.384,509.306,512.362,514.976" y="576.205" svg_rhmargin="516.911" style="fill:#000000;font-family:CRUCZX+TimesNewRomanPSMT;font-size:7.74px;font-style:NORMAL;font-weight:normal;">implant"[All Fields]) AND ("scleroderma, systemic"[MeSH Terms] OR ("scleroderma"[All Fields] </text>
  <text x="203.947,209.611,215.274,220.938,222.896,226.099,229.147,233.07,236.118,238.3,241.782,247.879,250.06,253.543,256.746,259.361,265.025,267.206,269.388,271.345,275.709,277.89,281.372,283.554,287.476,290.524,293.139,295.754,297.712,303.375,308.606,310.563,313.767,316.815,320.737,323.786,325.967,329.449,335.546,337.727,341.21,343.167,346.215,349.698,351.879,355.361,357.976,361.898,365.821,369.303,371.918,378.015,381.497,384.701,387.315,392.979,395.16,397.342,399.3,403.663,405.844,409.326,411.507,415.43,418.478,421.093,423.05,428.714,433.944,435.902,439.106,442.154,445.636,447.817,451.3,453.914,457.837,461.759,465.241,467.856,473.953,477.435,480.639,483.253,488.917,491.099,493.28" y="589.8009999999999" svg_rhmargin="495.215" style="fill:#000000;font-family:CRUCZX+TimesNewRomanPSMT;font-size:7.74px;font-style:NORMAL;font-weight:normal;">AND "systemic"[All Fields]) OR "systemic scleroderma"[All Fields] OR "scleroderma"[All </text>
  <text x="203.947,208.309,210.489,213.971,216.151,220.072,223.128,225.742,227.707,233.369,238.598,240.563,243.767,246.824,250.306,252.486,255.968,258.581,262.502,266.423,269.905,272.518,278.621,282.104,284.067,286.032,288.212,292.133,295.615,299.097,301.277,303.457,306.939,310.422,314.342,317.546,320.159,327.129,330.611,334.974,340.636,342.451,346.697,350.18,352.793,358.896,361.952,364.566,366.531,372.194,377.423,379.388,382.001,385.205,388.262,391.744,393.924,397.406,400.019,403.94,407.861,411.343,413.956,420.059,423.542,426.745,429.358,435.02,437.2,439.38,441.346,445.708,447.888,451.37,453.55,457.471,460.527,463.14,464.67,470.332,475.994,481.563" y="603.188" svg_rhmargin="483.498" style="fill:#000000;font-family:CRUCZX+TimesNewRomanPSMT;font-size:7.74px;font-style:NORMAL;font-weight:normal;">Fields] OR "scleroderma, localized"[MeSH Terms] OR ("scleroderma"[All Fields] AND </text>
  <text x="203.947,207.151,209.33,213.251,216.734,220.216,222.396,224.576,228.058,231.54,235.461,238.664,241.278,246.94,249.12,251.299,253.265,257.627,259.808,263.29,265.47,269.391,272.447,275.06,277.673,279.639,285.301,290.53,292.495,295.699,297.879,301.8,305.282,308.764,310.944,313.124,316.606,320.088,324.009,325.975,329.031,332.513,334.693,338.175,340.789,344.71,348.631,352.113,354.727,360.83,364.312,367.516,370.129,375.791,377.971,380.15,382.116,386.478,388.658,392.14,394.32,398.241,401.297,403.911,406.44" y="616.784" svg_rhmargin="408.375" style="fill:#000000;font-family:CRUCZX+TimesNewRomanPSMT;font-size:7.74px;font-style:NORMAL;font-weight:normal;">"localized"[All Fields]) OR "localized scleroderma"[All Fields]) </text>
  <text x="203.947,206.559,209.755,213.674,217.148,221.068,223.246,226.721,228.899,230.86,233.039,239.14,243.059,245.237,248.712,252.631,254.809,257.858,261.054,263.666,270.642,274.116,278.477,284.137,285.96,290.204,293.678,296.29,302.392,305.44,308.052,310.014,315.674,320.909,322.871,325.482,328.678,332.598,336.073,339.992,342.171,345.645,347.823,351.019,353.631,359.291,361.47,363.648,365.61,369.97,372.148,375.623,377.801,381.721,384.769,387.381,388.909,394.57,400.23,405.891,407.853,411.048,413.227,419.327,423.247,425.425,428.9,432.819,434.997,438.046,441.242,443.854,449.514,451.693,453.871,455.832,460.193,462.371,465.846,468.024,471.943,474.992,477.604,480.216,482.177,487.838,493.073" y="630.38" svg_rhmargin="495.008" style="fill:#000000;font-family:CRUCZX+TimesNewRomanPSMT;font-size:7.74px;font-style:NORMAL;font-weight:normal;">("dental implants"[MeSH Terms] OR ("dental"[All Fields] AND "implants"[All Fields]) OR </text>
  <text x="203.947,207.148,211.069,214.549,218.47,220.652,224.132,226.314,228.28,230.462,236.565,240.486,242.668,246.148,250.069,252.251,255.305,258.508,261.121,266.782,268.964,271.146,273.112,277.474,279.656,283.136,285.318,289.239,292.293,294.906,296.872,302.534,307.763,309.728,312.341,315.543,319.464,322.943,326.864,329.047,332.526,334.709,337.91,340.523,346.185,348.367,350.549,352.515,356.877,359.059,362.539,364.721,368.642,371.696,374.31,375.839,381.501,387.163,392.825,394.791,397.993,400.175,406.279,410.2,412.382,415.862,419.783,421.965,425.166,427.78,433.442,435.624,437.806,439.772,444.134,446.316,449.796,451.978,455.899,458.953,461.566,464.179,466.145,471.807,477.036,479.001,482.202,486.123,489.603,493.524,495.706,499.186,501.368" y="643.767" svg_rhmargin="503.303" style="fill:#000000;font-family:CRUCZX+TimesNewRomanPSMT;font-size:7.74px;font-style:NORMAL;font-weight:normal;">"dental implants"[All Fields] OR ("dental"[All Fields] AND "implant"[All Fields]) OR "dental </text>
  <text x="203.947,206.129,212.232,216.152,218.334,221.813,225.733,227.915,231.116,233.728,239.388,241.567,243.746,245.712,250.073,252.252,255.731,257.91,261.83,264.884,267.499,270.111,271.64,277.301,282.963,288.624,290.589,293.205,296.405,299.459,302.938,305.117,308.596,311.212,315.132,319.052,322.531,325.147,331.249,334.728,336.69,338.655,341.709,345.629,348.682,350.861,354.341,360.442,362.621,366.1,369.301,371.916,378.893,382.372,386.733,392.395,394.21,398.455,401.934,404.55,410.652,413.706,416.321,418.287,423.948,429.176,431.141,433.757,436.957,440.011,443.49,445.668,449.148,451.76,455.68,459.6,463.079,465.695,471.797,475.276,478.477,481.092,486.753,488.933,491.112,493.077,497.438,499.617,503.097,505.276,509.195,512.249,514.861" y="657.363" svg_rhmargin="516.796" style="fill:#000000;font-family:CRUCZX+TimesNewRomanPSMT;font-size:7.74px;font-style:NORMAL;font-weight:normal;">implant"[All Fields]) AND ("scleroderma, systemic"[MeSH Terms] OR ("scleroderma"[All Fields] </text>
  <text x="203.947,209.611,215.274,220.938,222.896,226.098,229.147,233.07,236.119,238.3,241.781,247.878,250.06,253.541,256.744,259.359,265.022,267.204,269.385,271.343,275.706,277.888,281.369,283.551,287.473,290.522,293.138,295.753,297.711,303.374,308.605,310.562,313.765,316.814,320.737,323.785,325.967,329.447,335.545,337.727,341.207,343.165,346.214,349.695,351.877,355.358,357.974,361.896,365.819,369.3,371.916,378.012,381.494,384.697,387.312,392.976,395.156,397.338,399.296,403.659,405.841,409.322,411.503,415.426,418.475,421.09,423.048,428.712,433.942,435.9,438.515,441.718,444.767,448.689,451.738,453.92,457.401,463.498,465.679,469.16,472.363,474.978,480.642,482.823,485.005,486.962,491.326,493.507,496.989,499.17,503.093,506.142,508.757" y="670.9590000000001" svg_rhmargin="510.692" style="fill:#000000;font-family:CRUCZX+TimesNewRomanPSMT;font-size:7.74px;font-style:NORMAL;font-weight:normal;">AND "systemic"[All Fields]) OR "systemic scleroderma"[All Fields] OR ("systemic"[All Fields] </text>
  <text x="203.947,209.611,215.274,220.938,222.896,226.098,229.147,232.629,234.81,238.291,240.907,244.829,247.878,250.06,253.109,256.311,258.927,264.59,266.772,268.953,270.911,275.275,277.456,280.937,283.119,287.041,290.09,292.706,295.321,297.279,302.943,308.173,310.131,313.333,316.381,320.303,323.352,325.533,329.014,335.112,337.292,340.774,342.732,345.78,349.262,351.443,354.925,357.54,361.463,364.512,366.693,369.742,372.945,375.56,381.224,383.405,385.587,387.544,391.908,394.089,397.57,399.752,403.674,406.723,409.338,411.927" y="684.5550000000001" svg_rhmargin="413.862" style="fill:#000000;font-family:CRUCZX+TimesNewRomanPSMT;font-size:7.74px;font-style:NORMAL;font-weight:normal;">AND "sclerosis"[All Fields]) OR "systemic sclerosis"[All Fields]) </text>
  <path d=" M 87.66500091552734 257.8869934082031 L 87.8740005493164 257.8869934082031 L 87.8740005493164 258.09600830078125 L 87.66500091552734 258.09600830078125 Z " style="fill:none;stroke:#000000;stroke-width:1.0;"/>
  <path d=" M 87.8740005493164 257.8869934082031 L 198.92800903320312 257.8869934082031 L 198.92800903320312 258.09600830078125 L 87.8740005493164 258.09600830078125 Z " style="fill:none;stroke:#000000;stroke-width:1.0;"/>
  <path d=" M 198.92799377441406 257.8869934082031 L 199.13699340820312 257.8869934082031 L 199.13699340820312 258.09600830078125 L 198.92799377441406 258.09600830078125 Z " style="fill:none;stroke:#000000;stroke-width:1.0;"/>
  <path d=" M 199.13699340820312 257.8869934082031 L 519.9580078125 257.8869934082031 L 519.9580078125 258.09600830078125 L 199.13699340820312 258.09600830078125 Z " style="fill:none;stroke:#000000;stroke-width:1.0;"/>
  <path d=" M 519.9580078125 257.8869934082031 L 520.1680297851562 257.8869934082031 L 520.1680297851562 258.09600830078125 L 519.9580078125 258.09600830078125 Z " style="fill:none;stroke:#000000;stroke-width:1.0;"/>
  <path d=" M 87.66500091552734 109.18800354003906 L 87.8740005493164 109.18800354003906 L 87.8740005493164 257.88702392578125 L 87.66500091552734 257.88702392578125 Z " style="fill:none;stroke:#000000;stroke-width:1.0;"/>
  <path d=" M 87.66500091552734 108.97899627685547 L 87.8740005493164 108.97899627685547 L 87.8740005493164 109.18799591064453 L 87.66500091552734 109.18799591064453 Z " style="fill:none;stroke:#000000;stroke-width:1.0;"/>
  <path d=" M 87.66500091552734 108.97899627685547 L 87.8740005493164 108.97899627685547 L 87.8740005493164 109.18799591064453 L 87.66500091552734 109.18799591064453 Z " style="fill:none;stroke:#000000;stroke-width:1.0;"/>
  <path d=" M 87.8740005493164 108.97899627685547 L 198.92800903320312 108.97899627685547 L 198.92800903320312 109.18799591064453 L 87.8740005493164 109.18799591064453 Z " style="fill:none;stroke:#000000;stroke-width:1.0;"/>
  <path d=" M 198.92799377441406 109.18800354003906 L 199.13699340820312 109.18800354003906 L 199.13699340820312 257.88702392578125 L 198.92799377441406 257.88702392578125 Z " style="fill:none;stroke:#000000;stroke-width:1.0;"/>
  <path d=" M 198.92799377441406 108.97899627685547 L 199.13699340820312 108.97899627685547 L 199.13699340820312 109.18799591064453 L 198.92799377441406 109.18799591064453 Z " style="fill:none;stroke:#000000;stroke-width:1.0;"/>
  <path d=" M 199.13699340820312 108.97899627685547 L 519.9580078125 108.97899627685547 L 519.9580078125 109.18799591064453 L 199.13699340820312 109.18799591064453 Z " style="fill:none;stroke:#000000;stroke-width:1.0;"/>
  <path d=" M 519.9580078125 109.18800354003906 L 520.1680297851562 109.18800354003906 L 520.1680297851562 257.88702392578125 L 519.9580078125 257.88702392578125 Z " style="fill:none;stroke:#000000;stroke-width:1.0;"/>
  <path d=" M 519.9580078125 108.97899627685547 L 520.1680297851562 108.97899627685547 L 520.1680297851562 109.18799591064453 L 519.9580078125 109.18799591064453 Z " style="fill:none;stroke:#000000;stroke-width:1.0;"/>
  <path d=" M 519.9580078125 108.97899627685547 L 520.1680297851562 108.97899627685547 L 520.1680297851562 109.18799591064453 L 519.9580078125 109.18799591064453 Z " style="fill:none;stroke:#000000;stroke-width:1.0;"/>
  <text x="87.473,92.385,96.436,100.915,103.222,106.773,108.773,112.71" y="103.42899999999997" svg_rhmargin="114.71" style="fill:#171615;font-family:CRUCZX+TimesNewRomanPS-BoldMT;font-size:8.0px;font-style:NORMAL;font-weight:bold;">Table 1.</text>
  <text y="103.42899999999997" svg_rhmargin="402.341" x="116.707,123.814,127.463,131.888,137.664,139.664,143.427,147.486,151.486,153.486,156.691,160.383,164.152,166.926,170.51,174.51,176.51,178.891,182.605,185.641,191.865,193.865,197.536,201.598,207.862,211.872,214.332,218.472,222.093,224.538,226.745,230.819,234.993,238.105,240.105,244.011,246.675,248.675,251.064,253.288,255.669,259.383,262.232,265.853,268.406,272.688,275.465,279.017,281.017,284.222,287.914,291.683,294.458,298.041,302.041,304.041,308.098,310.544,312.911,315.3,317.733,321.466,323.926,327.973,331.973,333.973,337.508,339.738,343.449,347.11,349.641,352.4,356.473,360.699,362.923,366.475,368.475,372.703,376.323,378.799,382.445,386.528,390.26,393.466,397.169,400.341" style="fill:#171615;font-family:EHOOBT+TimesNewRomanPSMT;font-size:8.0px;font-style:NORMAL;font-weight:normal;">MeSH and search term combinations of literature search utilizing electronic databases.</text>
 </g>
</svg>
