<?xml version="1.0" encoding="UTF-8"?>
<svg height="769.854" width="552.8803271929825" xmlns="http://www.w3.org/2000/svg">
 <g style="fill:none;">
  <text x="70.276,75.661,78.484,81.484,82.984,87.524,89.71,92.511,94.179,95.679,99.055,101.822,103.652,106.661,108.329,109.829,114.368,116.554,119.355,121.023,122.523,126.551,128.449,130.447,131.947,136.043,139.16,141.949,144.751,146.507,148.007,149.507,152.597,155.416,158.291,161.291,162.791,168.248,171.122,173.12,174.62,177.449,179.234,182.331,185.331,186.831,188.766,191.611,193.563,195.147,197.843,200.638,203.329,206.251,208.073,211.124,214.139,215.639,217.139,218.639,220.139,221.639,223.139,224.639,226.139,227.639,229.139,230.639,232.139,233.639,235.139,236.639,238.139,239.639,241.139,242.639,244.139,245.639,247.139,248.639,250.139,251.639,253.139,254.639,256.139,257.639,259.139,260.639,262.139,263.639,265.139,266.639,268.139,269.639,271.139,272.639,274.139,275.639,277.139,278.639,280.139,281.639,283.139,284.639,286.139,287.639,289.139,290.639,292.139,293.639,295.139,296.639,298.139,299.639,301.139,302.639,304.139,305.639,307.139,308.639,310.139,311.639,313.139,314.639,316.139,318.367,323.148,326.173,327.952,330.821,333.891,335.753,338.087,339.587,341.48,344.48,345.98,349.105,351.872,353.753,355.468,358.297,361.366,363.228,365.562,367.062,371.594,373.313,375.183,378.183,379.683,382.787,384.972,387.774,389.442,390.942,395.762,398.632,401.849,403.665,405.693,408.519,410.97,412.873,415.64,417.521,419.23,422.336,425.515,427.849,429.349,432.334,434.332,435.832,438.604,441.7,443.53,446.571,448.458,453.398,458.14,461.392,464.492,467.156,468.656,471.76,473.758,475.258,479.999,483.116,485.921,489.157,491.395,494.191,497.287,499.189,502.059,505.16,507.983,511.07,514.257,516.591,518.091,521.292,523.083,525.539,528.356,531.204,533.659,536.484" y="44.424999999999955" svg_rhmargin="538.818" style="fill:#171615;font-family:EHOOBT+TimesNewRomanPSMT;font-size:6.0px;font-style:NORMAL;font-weight:normal;">Med Oral Patol Oral Cir Bucal. 2019 Mar 1;24 (2):e217-30. Implants in patients with oral manifestations of autoimmune or muco-cutaneous diseases</text>
  <text x="296.941,300.493,304.493,308.493" y="759.854" svg_rhmargin="312.493" style="fill:#171615;font-family:EHOOBT+TimesNewRomanPSMT;font-size:8.0px;font-style:NORMAL;font-weight:normal;">e228</text>
  <text x="70.866,75.943,80.943,84.684,89.684,94.124,96.624,101.658,106.212,111.157,114.279,119.559,122.952,127.501,131.391,133.891,138.891,141.391,144.213,148.103,150.603,153.594,161.398,166.497,171.042,176.076,180.622,185.622,188.122,193.174,198.189,202.629,205.129,208.019,213.019,215.519,220.818,224.559,229.867,234.867,239.416,243.371,247.261,249.761,254.553,257.883,260.383,265.383,268.867,273.374,276.154,278.654,286.386,291.473" y="84.09900000000005" svg_rhmargin="294.803" style="fill:#171615;font-family:EHOOBT+TimesNewRomanPSMT;font-size:10.0px;font-style:NORMAL;font-weight:normal;">borne dentures – is impeded due to dryness of oral mu-</text>
  <text x="70.866,75.377,80.423,84.381,89.012,91.512,94.012,94.682,99.164,103.618,108.772,112.595,115.597,120.572,125.572,128.072,128.742,136.474,141.504,146.016,151.061,155.019,159.526,162.306,164.806,165.471,169.398,173.952,179.091,183.05,187.49,190.472,193.145,198.155,203.294,207.257,209.757,212.257,212.927,217.972,222.488,225.489,230.624,233.124,235.624,236.294,241.294,244.624,247.124,247.794,252.944,255.632,260.129,264.693,268.177,272.617,275.598,278.271,283.281,288.42,292.302,294.802" y="96.09900000000005" svg_rhmargin="297.302" style="fill:#171615;font-family:EHOOBT+TimesNewRomanPSMT;font-size:10.0px;font-style:NORMAL;font-weight:normal;">cosa, causing mucosal sensations, pain, or ulcerations. </text>
  <text x="70.866,77.981,82.821,89.882,94.322,99.162,103.726,106.766,109.266,111.766,115.136,122.531,125.222,128.185,133.383,136.384,141.384,143.884,147.254,150.217,155.208,159.648,162.148,165.512,170.024,174.97,179.95,184.956,188.676,191.456,193.956,197.321,202.113,205.443,207.943,211.313,216.288,221.332,226.197,229.106,231.929,235.805,240.796,245.342,250.342,252.842,256.212,259.304,262.697,267.233,271.673,274.757,282.537,287.091,292.036,294.816" y="108.09900000000005" svg_rhmargin="297.316" style="fill:#171615;font-family:EHOOBT+TimesNewRomanPSMT;font-size:10.0px;font-style:NORMAL;font-weight:normal;">However, within the cohort of published treatment </text>
  <text x="70.866,75.377,80.353,85.632,89.122,93.048,97.598,101.488,103.628,106.629,111.644,115.928,118.664,123.707,128.741,133.286,138.286,140.426,143.427,148.372,151.262,156.262,158.402,161.364,166.562,169.384,173.274,175.414,179.354,184.373,188.293,191.194,195.739,203.615,208.055,211.036,213.734,218.174,220.309,223.702,228.142,233.315,235.998,240.447,247.083,249.583,251.723,256.723,261.259,265.896,269.157,271.868,276.868,279.008,284.095,288.601,291.486,294.816" y="120.09900000000005" svg_rhmargin="297.316" style="fill:#171615;font-family:EHOOBT+TimesNewRomanPSMT;font-size:10.0px;font-style:NORMAL;font-weight:normal;">courses included into this systematic review, nearly half </text>
  <text x="70.866,75.658,78.988,81.178,84.14,89.131,93.571,95.761,98.448,102.795,110.015,113.905,116.095,118.846,124.04,128.914,131.276,136.276,138.466,146.381,149.711,151.901,158.963,163.527,166.92,171.36,173.55,176.642,180.035,184.571,189.011,191.912,196.457,201.457,203.647,208.801,212.624,215.626,220.601,225.601,227.791,230.782,238.585,243.45,246.248,250.876,255.821,258.468,261.814,265.207,269.685,272.705,277.222,280.223,285.223,289.768,294.768" y="132.09900000000005" svg_rhmargin="297.268" style="fill:#171615;font-family:EHOOBT+TimesNewRomanPSMT;font-size:10.0px;font-style:NORMAL;font-weight:normal;">of the jaws (44.6 %) were treated using implant-retained </text>
  <text x="70.866,74.259,78.805,86.575,91.406,96.381,100.859,105.724,108.427,112.867,115.367,117.052,121.564,126.564,134.367,139.232,141.934,146.412,149.312,153.752,156.252,157.942,162.976,167.53,172.475,175.597,180.877,184.27,188.819,192.783,195.283,197.783,199.473,206.66,211.651,216.215,219.608,224.144,228.732,232.622,235.122,236.812,241.367,246.032,248.409,253.409,255.909,257.599,265.929,268.429,270.119,274.911,278.241,280.741,282.431,285.393,290.384,294.824" y="144.09900000000005" svg_rhmargin="297.324" style="fill:#171615;font-family:EHOOBT+TimesNewRomanPSMT;font-size:10.0px;font-style:NORMAL;font-weight:normal;">removable complete dentures, whereas 55.4 % of the </text>
  <text x="70.866,73.552,77.9,85.12,89.01,91.601,98.663,103.227,106.62,111.06,113.649,116.741,120.134,124.67,129.11,132.011,136.556,141.556,144.146,151.541,154.232,157.195,162.195,164.785,167.776,175.579,180.444,183.243,187.87,192.815,195.462,198.736,204.51,209.316,213.862,218.862,221.452,226.499,229.867,234.912,238.832,241.795,246.776,251.853,256.878,261.888,266.833,269.814,272.511,276.951,279.54,282.933,287.482" y="156.09900000000005" svg_rhmargin="291.372" style="fill:#171615;font-family:CRUCZX+TimesNewRomanPSMT;font-size:10.0px;font-style:NORMAL;font-weight:normal;">jaws were treated with implant-fixed prosthodontic res</text>
  <text x="291.473" y="156.09900000000005" svg_rhmargin="294.803" style="fill:#171615;font-family:EHOOBT+TimesNewRomanPSMT;font-size:10.0px;font-style:NORMAL;font-weight:normal;">-</text>
  <text x="70.866,73.756,78.761,82.245,86.69,89.671,92.344,97.354,102.493,106.374" y="168.09900000000005" svg_rhmargin="108.874" style="fill:#171615;font-family:EHOOBT+TimesNewRomanPSMT;font-size:10.0px;font-style:NORMAL;font-weight:normal;">torations.</text>
  <text x="70.866,78.266,80.958,83.92,88.901,93.876,98.924,104.127,109.127,111.627,113.318,118.245,120.918,125.88,131.547,134.558,142.338,144.838,146.528,151.098,155.609,160.106,165.366,173.098,178.248,181.046,185.486,188.467,191.141,196.151,201.151,203.651,205.341,212.736,215.427,218.389,223.389,225.889,227.579,232.091,237.101,242.116,246.627,251.627,259.614,262.305,265.325,269.953,274.898,277.678,280.178,281.866,286.421" y="180.09900000000005" svg_rhmargin="291.421" style="fill:#171615;font-family:CRUCZX+TimesNewRomanPSMT;font-size:10.0px;font-style:NORMAL;font-weight:normal;">Although biofilm accumulation with concomitant en</text>
  <text x="291.473" y="180.09900000000005" svg_rhmargin="294.803" style="fill:#171615;font-family:EHOOBT+TimesNewRomanPSMT;font-size:10.0px;font-style:NORMAL;font-weight:normal;">-</text>
  <text x="70.866,75.953,80.581,85.595,90.092,94.637,99.637,101.657,105.281,108.103,112.003,117.003,119.023,123.815,127.145,129.165,134.264,138.828,142.452,145.189,148.423,151.414,159.217,164.082,166.881,171.508,176.453,179.233,181.253,188.985,194.015,198.527,203.572,207.395,210.087,213.068,215.89,219.78,221.8,226.8,230.13,232.15,237.249,241.813,245.438,248.174,251.408,254.399,262.202,267.068,269.866,274.493,279.438,282.42,285.111,288.092,290.915,294.805" y="192.09900000000005" svg_rhmargin="297.305" style="fill:#171615;font-family:EHOOBT+TimesNewRomanPSMT;font-size:10.0px;font-style:NORMAL;font-weight:normal;">hanced risk of peri-implant mucositis or peri-implantitis </text>
  <text x="70.866,73.688,77.578,79.778,83.741,88.895,92.863,97.962,102.523,107.021,109.921,114.466,119.466,121.666,126.718,131.733,136.173,138.373,141.263,146.263,148.463,153.371,158.709,163.807,168.852,172.811,177.317,180.226,182.923,187.898,192.338,195.32,197.993,203.003,208.138,210.638,212.838,216.231,220.565,223.363,227.803,230.784,233.48,238.32,242.654,245.365,250.365,252.565,257.763,260.421,265.624,270.624,272.824,280.604,285.139,289.767,294.767" y="204.09900000000005" svg_rhmargin="297.267" style="fill:#171615;font-family:EHOOBT+TimesNewRomanPSMT;font-size:10.0px;font-style:NORMAL;font-weight:normal;">is suspected due to hyposalivation, relatively high mean </text>
  <text x="70.866,77.928,82.368,85.026,90.23,95.22,99.766,104.766,107.266,109.376,112.367,120.171,125.036,127.834,132.461,137.406,140.186,142.686,144.796,148.759,154.04,157.766,162.938,165.635,170.61,175.116,177.896,180.396,182.506,185.99,190.43,193.331,197.771,200.271,202.381,209.578,214.166,218.056,220.556,222.666,225.841,230.816,236.086,241.077,246.077,248.577,250.687,253.688,258.688,261.188,263.298,268.343,272.783,275.764,278.448,283.002,287.947,290.894,294.784" y="216.09900000000005" svg_rhmargin="297.284" style="fill:#171615;font-family:EHOOBT+TimesNewRomanPSMT;font-size:10.0px;font-style:NORMAL;font-weight:normal;">weighed implant survival rate was found in patients </text>
  <text x="70.866,78.261,80.952,83.914,88.914,91.414,96.777,99.424,104.94,107.44" y="228.09900000000005" svg_rhmargin="109.94" style="fill:#171615;font-family:EHOOBT+TimesNewRomanPSMT;font-size:10.0px;font-style:NORMAL;font-weight:normal;">with SjS. </text>
  <text x="70.866,76.315,80.755,83.736,86.42,90.974,95.919,98.866,102.756,105.256,107.036,114.431,117.123,120.085,125.085,127.585,129.36,133.287,137.848,142.36,147.37,152.361,157.573,162.21,165.951,170.951,173.451,175.231,180.593,183.241,188.801,191.301,193.081,197.709,202.7,207.7,210.2,211.975,215.349,220.339,224.817,230.077,237.952,242.392,245.282,250.176,252.878,257.878,260.378,262.158,266.795,270.516,273.479,278.798,282.422,285.113,288.095,290.917,294.807" y="240.09900000000005" svg_rhmargin="297.307" style="fill:#171615;font-family:EHOOBT+TimesNewRomanPSMT;font-size:10.0px;font-style:NORMAL;font-weight:normal;">Patients with secondary SjS and rheumatoid arthritis </text>
  <text x="70.866,74.791,79.791,87.571,92.048,95.03,98.021,105.801,110.351,114.241,116.741,117.681,125.556,129.909,134.909,137.409,138.349,141.742,146.182,151.022,155.557,160.063,162.843,165.343,166.283,169.193,172.184,180.17,182.861,185.762,190.307,195.307,197.807,198.747,206.622,211.249,216.202,221.395,225.902,228.682,231.182,232.122,236.6,241.527,244.407,247.317,250.008,252.989,255.673,260.222,264.112,266.612,267.552,270.443,275.443,277.943,278.883,283.982,288.546,291.473" y="252.09900000000005" svg_rhmargin="294.803" style="fill:#171615;font-family:EHOOBT+TimesNewRomanPSMT;font-size:10.0px;font-style:NORMAL;font-weight:normal;">sometimes may reveal limited manual abilities to per-</text>
  <text x="70.866,74.041,79.041,82.767,90.547,93.047,94.157,99.204,102.572,107.597,112.696,117.261,120.591,123.091,124.201,129.201,132.685,137.192,139.972,142.472,143.582,148.49,153.325,158.499,161.182,165.736,170.736,175.096,177.596,180.096,181.206,187.557,192.755,195.577,199.467,201.967,203.077,207.705,212.696,217.696,220.196,221.306,226.404,231.449,235.404,239.228,242.021,246.886,249.588,254.028,256.528,257.638,262.638,267.2,271.696,276.246,280.2,284.024,286.715,289.812,294.812" y="264.09900000000005" svg_rhmargin="297.312" style="fill:#171615;font-family:EHOOBT+TimesNewRomanPSMT;font-size:10.0px;font-style:NORMAL;font-weight:normal;">form proper oral hygiene. This and possible necessity </text>
  <text x="70.866,75.658,78.988,81.488,84.34,88.968,93.913,96.894,99.63,102.864,105.866,111.185,116.755,121.373,129.461,137.336,141.776,144.666,149.666,153.407,158.407,160.907,163.759,168.348,172.238,174.738,177.592,184.653,188.987,191.886,194.666,197.166,200.017,204.605,208.495,210.995,213.849,216.84,224.928,232.661,237.931,242.922,247.967,251.93,256.968,262.051,267.098,270.491,275.04,278.995,282.818,285.514,290.354,294.794" y="276.09900000000005" svg_rhmargin="297.294" style="fill:#171615;font-family:CRUCZX+TimesNewRomanPSMT;font-size:10.0px;font-style:NORMAL;font-weight:normal;">of anti-inflammatory as well as immunosuppressive </text>
  <text x="70.866,78.646,83.192,88.37,91.067,95.55,99.99,102.971,105.645,110.655,115.655,117.755,122.854,127.899,131.853,135.677,138.47,143.335,146.046,151.046,153.146,156.148,161.093,163.993,168.557,172.139,175.343,179.907,183.531,186.532,191.507,196.507,198.607,203.598,208.56,211.34,213.44,218.45,223.647,226.359,231.359,233.459,240.853,243.545,246.507,251.507,253.607,258.652,262.606,266.533,271.078,275.972,278.974,283.919,286.819,291.473" y="288.099" svg_rhmargin="294.803" style="fill:#171615;font-family:EHOOBT+TimesNewRomanPSMT;font-size:10.0px;font-style:NORMAL;font-weight:normal;">medication possibly interfering not only with osseointe-</text>
  <text x="70.866,76.151,79.635,84.075,87.056,89.729,94.739,99.739,102.509,107.484,112.473,115.253,118.023,123.014,127.55,132.056,134.749,137.711,142.711,145.481,150.273,153.603,156.373,161.472,166.036,169.661,172.397,175.631,178.622,186.425,191.29,194.089,198.716,203.661,206.441,209.211,212.192,215.014,218.969,222.932,227.947,232.387,235.157,239.033,244.014,248.989,254.139,256.833,261.833,264.603,269.682,274.122,276.892,281.404,286.414,291.473" y="300.099" svg_rhmargin="294.803" style="fill:#171615;font-family:EHOOBT+TimesNewRomanPSMT;font-size:10.0px;font-style:NORMAL;font-weight:normal;">gration but health of peri-implant tissue should be con-</text>
  <text x="70.866,74.69,77.392,82.426,86.99,90.384,94.929,99.929,102.429,103.296,110.483,115.681,118.561,121.263,125.703,128.203,129.069,132.693,135.516,139.415,143.917,147.306,152.385,156.94,161.94,166.417,171.882,174.662,177.162,178.027,182.616,186.57,190.497,195.047,199.001,202.926,210.706,215.26,220.205,223.115,225.615,228.115,228.982,231.983,236.983,239.483,240.351,243.313,248.304,252.868,256.352,260.825,265.761,270.761,273.261,274.128,278.993,281.791,286.419" y="312.099" svg_rhmargin="291.419" style="fill:#171615;font-family:CRUCZX+TimesNewRomanPSMT;font-size:10.0px;font-style:NORMAL;font-weight:normal;">sidered while risk-benefit assessment, in therapy plan</text>
  <text x="291.473" y="312.099" svg_rhmargin="294.803" style="fill:#171615;font-family:EHOOBT+TimesNewRomanPSMT;font-size:10.0px;font-style:NORMAL;font-weight:normal;">-</text>
  <text x="70.866,76.073,79.074,84.049,89.049,91.789,96.417,101.408,106.408,109.148,112.11,117.091,122.091,125.459,130.434,135.482,140.685,145.685,148.425,153.47,157.91,160.891,163.574,168.129,173.074,175.854,178.589,181.59,186.773,189.948,194.948,198.674,206.55,210.99,213.972,216.645,221.655,226.655,229.395,233.983,237.873,240.613,247.675,252.008,254.907,257.663,260.163,262.903,268.352,272.792,275.773,278.456,283.011,287.956,290.903,294.793" y="324.099" svg_rhmargin="297.293" style="fill:#171615;font-family:EHOOBT+TimesNewRomanPSMT;font-size:10.0px;font-style:NORMAL;font-weight:normal;">ning and thorough patient information as well. Patients </text>
  <text x="70.866,74.743,79.724,84.699,89.849,92.542,97.542,99.932,103.108,107.943,110.842,113.535,118.375,125.595,127.987,131.381,135.772,141.086,146.236,149.034,153.672,157.002,159.392,164.02,169.011,174.011,176.401,180.051,183.444,187.989,193.042,198.057,202.612,207.557,210.337,212.725,216.118,220.68,225.163,229.669,232.568,235.348,237.737,240.628,245.628,248.018,252.554,257.191,260.452,263.163,268.163,270.554,275.588,280.065,282.966,287.527,292.025,294.805" y="336.099" svg_rhmargin="297.305" style="fill:#171615;font-family:CRUCZX+TimesNewRomanPSMT;font-size:10.0px;font-style:NORMAL;font-weight:normal;">should follow regular and frequent recall to early detect </text>
  <text x="70.866,75.965,80.53,84.154,86.89,90.124,93.115,100.919,105.784,108.582,113.209,118.154,120.934,123.434,124.564,132.296,137.326,141.837,146.882,150.706,153.397,156.379,159.201,163.091,165.591,166.721,171.348,176.339,181.339,183.839,184.969,187.97,192.961,198.139,200.837,205.319,209.759,212.649,217.649,221.138,225.028,227.528,228.658,231.834,236.834,240.164,242.664,243.794,248.794,252.278,256.784,259.564,262.064,263.194,268.102,272.937,278.111,280.795,285.349,290.349,294.789" y="348.099" svg_rhmargin="297.289" style="fill:#171615;font-family:EHOOBT+TimesNewRomanPSMT;font-size:10.0px;font-style:NORMAL;font-weight:normal;">peri-implant mucositis and indicators for oral hygiene </text>
  <text x="70.866,75.9,80.378,85.862,90.306,92.996,95.823" y="360.099" svg_rhmargin="98.323" style="fill:#171615;font-family:CRUCZX+TimesNewRomanPSMT;font-size:10.0px;font-style:NORMAL;font-weight:normal;">deficit.</text>
  <text x="70.866,74.189,80.289,85.219,87.921,92.955,97.519,101.246,109.016,113.851,116.561,121.58,125.4,128.222,132.114,134.614,139.589,144.739,147.638,150.332,155.377,159.336" y="372.099" svg_rhmargin="163.776" style="fill:#171615;font-family:EHOOBT+TimesNewRomanPSMT;font-size:10.0px;font-style:NORMAL;font-weight:normal;">-Epidermolysis bullosa</text>
  <text x="70.866,76.995,83.665,86.165,87.485,92.073,95.963,98.463,99.783,104.223,106.723,108.043,111.527,116.164,119.557,123.997,126.497,128.997,130.317,133.318,138.637,143.627,148.192,151.816,154.507,157.408,161.953,167.148,169.648,172.148,173.468,176.861,181.422,185.919,190.468,194.423,198.246,200.942,205.782,210.222,212.722,214.042,219.22,222.043,225.969,230.505,235.093,239.02,243.46,245.96,247.28,252.073,255.403,257.903,259.223,263.123,268.379,271.38,276.38,278.88,280.2,284.828,289.819,294.819" y="384.099" svg_rhmargin="297.319" style="fill:#171615;font-family:EHOOBT+TimesNewRomanPSMT;font-size:10.0px;font-style:NORMAL;font-weight:normal;">EB as a rare, inherited, recessive disease of skin and </text>
  <text x="70.866,78.598,83.628,88.14,93.185,97.143,101.774,104.274,106.774,107.664,115.539,120.167,125.374,128.239,131.443,135.993,139.913,142.861,146.751,149.251,150.141,155.068,160.068,162.568,163.458,166.633,171.633,175.359,183.346,186.347,191.322,196.322,198.822,199.712,204.504,207.834,210.334,211.224,214.317,217.801,222.254,227.514,235.39,239.864,243.098,246.099,251.09,256.142,261.172,265.669,270.214,275.214,277.714,278.604,283.579,288.729,291.473" y="396.099" svg_rhmargin="294.803" style="fill:#171615;font-family:EHOOBT+TimesNewRomanPSMT;font-size:10.0px;font-style:NORMAL;font-weight:normal;">mucosa, manifests by forming of trauma-induced bul-</text>
  <text x="70.866,73.664,78.224,82.664,85.507,90.507,93.352,98.144,101.778,104.678,109.233,114.233,117.077,124.472,127.163,130.126,135.126,137.971,141.934,146.978,152.023,155.95,160.495,165.548,170.563,175.118,180.063,182.843,185.686,189.628,194.11,198.748,202.078,204.922,208.098,213.098,216.824,224.7,229.14,232.122,234.795,239.805,244.805,247.65,252.65,255.495,260.122,265.113,270.113,272.958,278.021,281.948,286.425" y="408.099" svg_rhmargin="291.425" style="fill:#171615;font-family:CRUCZX+TimesNewRomanPSMT;font-size:10.0px;font-style:NORMAL;font-weight:normal;">lae – often with subsequent scar formation – and pseu</text>
  <text x="291.473" y="408.099" svg_rhmargin="294.803" style="fill:#171615;font-family:EHOOBT+TimesNewRomanPSMT;font-size:10.0px;font-style:NORMAL;font-weight:normal;">-</text>
  <text x="70.866,75.891,80.936,84.876,90.184,95.175,100.387,104.956,109.454,112.551,117.424,120.135,124.486,126.986,129.486,130.276,133.843,138.741,143.552,148.387,151.083,155.923,160.469,168.249,172.804,177.749,180.529,183.029,183.819,188.611,191.941,194.441,195.231,200.231,203.715,208.221,211.001,213.501,214.291,218.919,223.91,228.91,231.41,232.2,237.239,241.827,245.748,248.84,252.208,257.102,260.103,265.049,267.949,272.498,276.419,279.4,282.401,287.498,292.004,294.784" y="420.099" svg_rhmargin="297.284" style="fill:#171615;font-family:EHOOBT+TimesNewRomanPSMT;font-size:10.0px;font-style:NORMAL;font-weight:normal;">dosyndactyly. Involvement of oral and gastrointestinal </text>
  <text x="70.866,78.598,83.628,88.14,93.185,97.143,101.583,104.083,105.953,108.954,113.969,118.254,120.989,126.032,131.066,135.506,138.006,139.876,143.269,147.83,152.327,157.607,161.343,164.736,169.29,174.235,177.015,179.515,181.385,186.36,191.51,194.409,197.207,201.767,206.207,208.707,211.207,213.077,217.019,221.501,226.139,229.469,231.969,233.839,237.014,242.014,245.74,253.615,258.055,261.036,263.709,268.719,273.855,276.355,278.855,280.725,288.711,291.473" y="432.099" svg_rhmargin="294.803" style="fill:#171615;font-family:EHOOBT+TimesNewRomanPSMT;font-size:10.0px;font-style:NORMAL;font-weight:normal;">mucosa include recurrent bullae, scar formation, mi-</text>
  <text x="70.866,75.431,78.799,83.844,87.764,90.655,95.655,103.641,106.421,110.861,113.361,117.988,122.979,127.979,130.479,135.106,140.449,145.744,150.617,153.311,158.218,163.3,165.993,171.038,174.993,178.956,184.216,192.131,194.631,197.131,201.008,206.095,210.602,213.501,216.194,221.034,228.254,230.754,235.594,240.143,244.064,247.045,249.839,254.814,259.964,262.762,267.399,270.729,273.229,277.193,282.343,285.031,289.471,292.289,294.789" y="444.099" svg_rhmargin="297.289" style="fill:#171615;font-family:EHOOBT+TimesNewRomanPSMT;font-size:10.0px;font-style:NORMAL;font-weight:normal;">crostomia and ankyloglossum, shallow vestibular sulci, </text>
  <text x="70.866,75.841,80.83,83.61,86.39,90.897,93.738,97.663,102.663,105.443,110.542,115.106,118.731,121.404,126.481,131.506,136.516,141.461,144.442,147.134,150.115,152.937,156.901,159.401,162.181,166.687,169.384,174.224,178.769,183.604,186.402,191.04,194.37,197.15,202.227,207.237,212.237,216.677,219.457,222.85,227.399,231.324,236.324,240.093,245.084,248.065,250.739,255.749,260.749,263.529,270.923,273.615,276.577,281.577,284.357,288.797,291.473" y="456.099" svg_rhmargin="294.803" style="fill:#171615;font-family:EHOOBT+TimesNewRomanPSMT;font-size:10.0px;font-style:NORMAL;font-weight:normal;">but also periodontitis, alveolar bone resorption with at-</text>
  <text x="70.866,74.234,79.259,84.235,89.143,94.143,96.643,97.163,101.955,105.285,107.785,108.305,111.267,116.258,120.698,123.198,123.718,128.263,133.297,137.851,142.796,145.918,151.068,153.761,158.736,163.89,167.78,170.28,170.8,175.437,178.83,183.366,187.954,191.844,194.344,194.864,199.656,202.986,205.486,206.006,213.881,218.493,223.662,226.543,229.442,232.24,236.68,239.18,239.7,244.327,249.318,254.318,256.818,257.338,265.213,269.841,274.832,280.01,282.803,287.668,290.37,294.81" y="468.099" svg_rhmargin="297.31" style="fill:#171615;font-family:EHOOBT+TimesNewRomanPSMT;font-size:10.0px;font-style:NORMAL;font-weight:normal;">rophy of the edentulous areas of maxilla and mandible </text>
  <text x="70.866,75.866,78.366,78.966,83.472,86.372,89.152,91.652,92.252,95.253,100.198,103.098,107.663,111.244,114.448,119.012,122.636,125.638,130.613,135.613,138.113,138.713,146.107,148.799,151.761,156.761,159.261,159.861,164.372,169.382,174.28,179.12,183.674,188.619,191.601,194.274,199.284,204.38,208.887,211.667,214.167,214.767,219.814,223.182,228.227,232.147,235.11,240.09,245.168,250.192,255.203,260.148,263.129,265.826,270.266,272.766,273.366,276.459,279.852,284.387,288.827,291.473" y="480.099" svg_rhmargin="294.803" style="fill:#171615;font-family:EHOOBT+TimesNewRomanPSMT;font-size:10.0px;font-style:NORMAL;font-weight:normal;">– all interfering with conventional prosthodontic treat-</text>
  <text x="70.866,78.646,83.201,88.146,90.926,93.426,94.085,97.415,99.915,100.575,105.202,110.193,115.193,117.693,118.354,122.908,128.226,133.313,137.941,142.956,147.452,151.998,156.998,159.498,160.158,165.205,168.598,173.144,178.321,181.144,185.111,190.209,195.254,199.078,201.769,204.751,207.424,212.434,217.434,219.934,220.594,223.769,228.769,232.099,234.599,235.26,240.26,243.744,248.25,251.03,253.53,254.189,258.139,263.192,268.385,273.002,280.772,285.747,290.901,294.791" y="492.099" svg_rhmargin="297.291" style="fill:#171615;font-family:CRUCZX+TimesNewRomanPSMT;font-size:10.0px;font-style:NORMAL;font-weight:normal;">ment - and enhanced predisposition for oral squamous </text>
  <text x="70.866,75.362,79.696,82.595,85.375,87.875,92.357,96.995,100.382,104.822,107.823,112.814,117.814,125.69,130.13,132.63,135.379,140.442,145.52,148.651,151.151" y="504.099" svg_rhmargin="153.651" style="fill:#171615;font-family:EHOOBT+TimesNewRomanPSMT;font-size:10.0px;font-style:NORMAL;font-weight:normal;">cell carcinoma (46). </text>
  <text x="70.866,78.121,82.561,85.582,90.022,92.522,94.152,98.779,103.875,108.382,111.093,116.112,120.038,124.588,128.478,130.978,132.608,137.4,140.73,143.23,144.86,149.716,154.716,157.216,158.846,163.891,168.331,171.312,173.995,178.55,183.495,186.442,190.332,192.832,194.462,197.343,205.123,209.658,214.286,219.286,221.786,223.416,227.899,232.841,237.281,239.781,241.411,246.0,251.0,253.5,255.13,259.99,264.526,269.164,272.653,275.987,279.317,281.817,283.447,286.84,291.473" y="516.0989999999999" svg_rhmargin="294.803" style="fill:#171615;font-family:EHOOBT+TimesNewRomanPSMT;font-size:10.0px;font-style:NORMAL;font-weight:normal;">Data analyses of 27 patients (mean age 35 years) re-</text>
  <text x="70.866,75.706,80.241,84.748,87.45,91.996,96.996,99.496,101.176,105.616,108.116,109.796,116.857,121.297,123.955,129.158,134.149,138.695,143.695,146.195,147.875,155.655,160.191,164.818,169.818,172.318,173.998,176.99,184.793,189.658,192.456,197.084,202.029,204.809,207.309,208.989,212.953,218.233,221.959,227.132,229.828,234.803,239.31,242.09,244.59,246.27,249.754,254.194,257.094,261.534,264.034,265.714,270.506,273.836,276.336,278.016,282.899,287.855,289.768,294.768" y="528.0989999999999" svg_rhmargin="297.268" style="fill:#171615;font-family:EHOOBT+TimesNewRomanPSMT;font-size:10.0px;font-style:NORMAL;font-weight:normal;">vealed a weighed mean implant survival rate of 98.7 </text>
  <text x="70.866,79.196,82.016,86.507,90.141,93.042,97.606,100.936,103.756,108.196,111.016,118.796,123.331,127.959,132.959,135.779,140.737,145.783,149.709,154.274,158.0,162.975,167.415,170.396,173.07,178.08,183.08,185.9,190.999,195.563,199.187,201.86,206.937,211.937,214.757,219.549,222.879,225.699,230.332,235.332,238.152,245.922,250.932,255.877,258.84,263.97,267.851,270.351,273.171,281.956,286.956,290.349,294.789" y="540.0989999999999" svg_rhmargin="297.289" style="fill:#171615;font-family:EHOOBT+TimesNewRomanPSMT;font-size:10.0px;font-style:NORMAL;font-weight:normal;">% after a mean observation period of 33 months. More </text>
  <text x="70.866,73.828,78.915,83.543,88.543,91.043,91.851,96.857,101.857,104.357,105.165,113.495,115.995,116.803,121.595,124.925,127.425,128.233,131.195,136.186,140.626,143.126,143.932,146.618,150.966,158.186,162.076,164.576,165.385,172.447,177.011,180.404,184.844,187.344,188.15,191.243,194.636,199.171,203.611,206.511,211.057,216.057,218.557,219.364,226.759,229.45,232.412,237.412,239.912,240.72,243.712,251.515,256.38,259.178,263.806,268.751,271.398,274.672,280.445,285.252,289.797,294.797" y="552.0989999999999" svg_rhmargin="297.297" style="fill:#171615;font-family:CRUCZX+TimesNewRomanPSMT;font-size:10.0px;font-style:NORMAL;font-weight:normal;">than 80 % of the jaws were treated with implant-fixed </text>
  <text x="70.866,75.377,80.377,88.18,93.045,95.747,100.225,103.125,107.565,110.065,111.365,116.365,119.695,122.195,123.495,128.54,133.178,136.899,139.88,142.66,147.166,149.946,152.446,153.746,158.781,163.335,168.28,171.401,176.681,180.074,184.624,188.587,191.087,193.587,194.887,202.074,207.065,211.63,215.023,219.558,224.146,228.036,230.536,231.836,236.836,241.372,246.009,249.27,251.982,256.982,259.482,260.782,265.759,270.759,273.259,274.559,282.889,285.389,286.689,291.482,294.812" y="564.0989999999999" svg_rhmargin="297.312" style="fill:#171615;font-family:EHOOBT+TimesNewRomanPSMT;font-size:10.0px;font-style:NORMAL;font-weight:normal;">complete or partial dentures, whereas nearly 20 % of </text>
  <text x="70.866,73.828,78.819,83.259,85.759,88.649,91.335,95.683,102.903,106.793,109.293,112.183,119.245,123.809,127.202,131.642,134.142,137.032,140.124,143.517,148.052,152.492,155.392,159.938,164.938,167.438,170.328,177.722,180.414,183.376,188.376,190.876,193.766,196.757,204.561,209.426,212.224,216.851,221.796,224.444,227.79,231.183,235.66,238.681,243.197,246.198,251.198,255.744,260.744,263.244,266.134,269.527,274.072,281.843,286.674,291.473" y="576.0989999999999" svg_rhmargin="294.803" style="fill:#171615;font-family:EHOOBT+TimesNewRomanPSMT;font-size:10.0px;font-style:NORMAL;font-weight:normal;">the jaws were treated with implant-retained remov-</text>
  <text x="70.866,75.345,80.21,82.912,87.352,89.852,90.765,95.596,100.436,105.001,108.35,113.384,117.938,122.883,126.005,131.285,134.678,139.227,143.117,145.617,146.537,153.932,156.623,159.585,164.585,167.085,168.0,171.877,176.858,181.858,185.579,188.359,190.859,191.772,196.806,201.361,206.306,209.326,213.833,216.613,219.113,220.026,224.663,228.05,232.446,237.446,239.946,240.861,244.254,248.694,253.781,258.26,263.187,266.067,268.977,271.668,274.688,279.128,282.109,284.782,289.792,294.792" y="588.0989999999999" svg_rhmargin="297.292" style="fill:#171615;font-family:EHOOBT+TimesNewRomanPSMT;font-size:10.0px;font-style:NORMAL;font-weight:normal;">able overdentures with short dental arch rehabilitation </text>
  <text x="70.866,73.756,78.756,81.256,82.036,87.083,90.476,94.916,99.756,104.31,109.255,112.035,114.535,115.315,118.306,126.11,131.209,135.754,140.788,145.334,150.334,152.834,153.614,158.614,162.098,166.605,169.385,171.885,172.665,177.573,182.408,187.582,190.265,194.82,199.82,204.26,206.76,207.54,212.109,216.621,221.117,225.667,229.621,233.511,236.011,236.797,241.848,246.863,251.303,253.803,254.583,257.473,262.473,264.973,265.753,268.662,271.653,279.64,282.331,285.231,289.777,294.777" y="600.0989999999999" svg_rhmargin="297.277" style="fill:#171615;font-family:EHOOBT+TimesNewRomanPSMT;font-size:10.0px;font-style:NORMAL;font-weight:normal;">to prevent impeded oral hygiene access due to limited </text>
  <text x="70.866,75.964,81.009,84.93,87.83,92.394,96.019,98.692,103.692,107.022,109.522,113.49,118.535,123.104,127.6,132.04,134.54,139.166,144.157,149.157,151.657,159.428,164.403,169.392,172.354,177.354,179.854,184.879,189.978,194.532,199.739,202.741,207.716,212.619,215.119,217.619,220.119" y="612.0989999999999" svg_rhmargin="222.619" style="fill:#171615;font-family:EHOOBT+TimesNewRomanPSMT;font-size:10.0px;font-style:NORMAL;font-weight:normal;">posterior space and mouth opening. </text>
  <text x="70.866,74.307,79.787,84.806,88.726,91.626,96.172,104.158,106.858,111.297,113.797,119.368,123.653,126.353,130.917,134.285,139.33,143.154,145.976" y="624.0989999999999" svg_rhmargin="149.866" style="fill:#171615;font-family:EHOOBT+TimesNewRomanPSMT;font-size:10.0px;font-style:NORMAL;font-weight:normal;">-Systemic Sclerosis</text>
  <text x="70.866,76.376,81.948,86.388,88.888,90.038,92.86,96.75,99.25,100.4,105.028,110.028,112.528,113.678,118.132,123.121,126.011,130.905,133.896,141.985,149.717,154.987,159.987,164.427,166.927,168.077,175.809,180.959,183.652,186.633,189.455,193.395,198.414,202.334,205.235,209.78,217.56,220.06,221.21,224.583,229.574,234.051,239.311,247.187,251.627,254.609,257.306,261.746,264.246,265.396,270.574,273.396,277.323,281.858,286.447,290.373,294.813" y="636.0989999999999" svg_rhmargin="297.313" style="fill:#171615;font-family:EHOOBT+TimesNewRomanPSMT;font-size:10.0px;font-style:NORMAL;font-weight:normal;">SSc is an autoimmune multisystem rheumatic disease </text>
  <text x="70.866,75.357,78.886,82.09,86.651,91.149,94.13,97.131,102.106,107.106,109.606,110.365,114.876,119.886,125.204,130.204,134.766,139.263,142.245,144.941,149.781,154.221,156.721,157.478,160.459,163.282,167.236,171.2,176.215,180.655,183.155,185.655,186.414,191.042,196.033,201.033,203.533,204.291,208.919,213.919,216.419,217.177,220.179,225.498,231.068,235.686,243.774,251.649,256.089,258.979,263.979,267.72,272.153,274.653,277.153,277.912,282.887,287.475" y="648.0989999999999" svg_rhmargin="291.365" style="fill:#171615;font-family:CRUCZX+TimesNewRomanPSMT;font-size:10.0px;font-style:NORMAL;font-weight:normal;">affecting connective tissue, and an inflammatory, vas</text>
  <text x="291.473" y="648.0989999999999" svg_rhmargin="294.803" style="fill:#171615;font-family:EHOOBT+TimesNewRomanPSMT;font-size:10.0px;font-style:NORMAL;font-weight:normal;">-</text>
  <text x="70.866,75.362,80.513,83.311,87.948,91.278,93.778,94.408,99.035,104.026,109.026,111.526,112.156,116.097,120.382,123.084,127.648,131.017,135.979,138.96,141.657,146.097,148.597,149.227,154.405,157.227,161.154,165.69,170.278,174.205,178.645,181.145,181.775,186.567,189.897,192.397,193.027,195.989,200.98,205.42,207.92,208.55,212.45,217.706,220.707,225.707,228.207,228.837,233.425,237.315,239.815,240.445,247.507,251.84,254.74,257.52,260.02,260.65,265.239,269.129,271.629,272.259,277.051,280.381,282.881,283.511,288.517,291.473" y="660.0989999999999" svg_rhmargin="294.803" style="fill:#171615;font-family:EHOOBT+TimesNewRomanPSMT;font-size:10.0px;font-style:NORMAL;font-weight:normal;">cular and sclerotic disease of the skin as well as of or-</text>
  <text x="70.866,75.905,80.533,85.672,89.562,91.942,95.359,98.094,103.364,108.339,113.33,115.83,118.21,123.201,127.737,132.374,136.095,139.005,141.505,143.885,148.924,153.513,157.433,160.526,163.894,168.788,171.789,176.734,179.634,184.184,188.104,191.086,194.087,199.183,203.69,206.47,208.85,211.943,215.427,219.996,224.494,226.809,229.94,232.44,234.82,242.229,245.713,250.22,253.0,255.38,260.008,264.999,269.999,272.379,275.719,280.289,284.729,287.509,292.015,294.795" y="672.099" svg_rhmargin="297.295" style="fill:#171615;font-family:EHOOBT+TimesNewRomanPSMT;font-size:10.0px;font-style:NORMAL;font-weight:normal;">gans (lung, heart, gastrointestinal tract). Oral and facial </text>
  <text x="70.866,75.15,78.06,81.061,86.268,88.966,93.448,97.955,100.733,103.293,109.082,114.073,119.251,122.252,127.227,132.27,136.162,138.722,143.359,146.749,151.187,153.747,161.623,166.211,170.111,174.613,177.847,180.756,183.782,188.675,193.113,195.673,199.014,203.583,208.083,212.524,215.024,217.584,220.547,225.745,228.746,233.746,236.306,241.146,245.711,249.437,257.423,260.303,263.213,265.886,270.896,275.896,278.456,283.533,288.538" y="684.099" svg_rhmargin="291.868" style="fill:#171615;font-family:CRUCZX+TimesNewRomanPSMT;font-size:10.0px;font-style:NORMAL;font-weight:normal;">clinical findings are mask-like face, thin vermilion bor</text>
  <text x="291.473" y="684.099" svg_rhmargin="294.803" style="fill:#171615;font-family:EHOOBT+TimesNewRomanPSMT;font-size:10.0px;font-style:NORMAL;font-weight:normal;">-</text>
  <text x="70.866,75.9,80.464,83.505,86.005,88.505,89.875,93.359,97.953,103.131,105.911,110.417,113.197,115.697,117.067,122.166,126.73,130.354,133.027,138.027,141.512,146.018,148.798,151.298,152.668,156.346,161.626,165.362,168.73,173.57,180.79,184.754,187.254,189.754,191.124,199.111,201.808,206.372,209.74,214.786,218.706,221.596,226.596,234.583,237.363,241.994,244.494,246.994,248.364,252.305,256.59,259.292,263.857,267.225,272.27,276.093,278.915,282.805,285.305,286.675,291.467,294.797" y="696.099" svg_rhmargin="297.297" style="fill:#171615;font-family:EHOOBT+TimesNewRomanPSMT;font-size:10.0px;font-style:NORMAL;font-weight:normal;">der, radial perioral furrows, microstomia, sclerosis of </text>
  <text x="70.866,73.828,78.819,83.259,85.759,86.563,89.454,94.464,99.439,104.753,109.768,114.414,117.773,120.755,123.438,127.878,130.378,131.182,135.809,140.8,145.8,148.3,149.11,152.111,157.103,162.155,167.435,170.919,175.359,178.34,181.014,186.024,191.024,193.524,194.329,199.121,202.451,204.951,205.761,208.723,213.714,218.154,220.654,221.459,224.349,229.359,234.334,239.648,244.663,249.022,251.522,254.022,254.832,261.89,267.228,272.326,277.371,281.329,285.836,288.745,291.473" y="708.099" svg_rhmargin="294.803" style="fill:#171615;font-family:EHOOBT+TimesNewRomanPSMT;font-size:10.0px;font-style:NORMAL;font-weight:normal;">the tongue-tie and induration of the tongue. Hyposali-</text>
  <text x="70.866,75.841,80.281,83.263,85.936,90.946,96.081,98.581,101.081,106.051,114.037,116.734,121.299,124.667,129.712,133.632,136.523,141.523,149.509,152.289,156.92,159.42,161.92,166.89,171.518,176.861,182.156,187.029,189.722,194.629,199.711,202.405,207.45,211.404,215.228,218.008,222.639,225.139,227.639,232.609,235.518,238.51,246.496,249.187,252.088,256.633,261.633,264.133,269.103,276.873,281.848,286.837,289.799,294.799" y="720.099" svg_rhmargin="297.299" style="fill:#171615;font-family:EHOOBT+TimesNewRomanPSMT;font-size:10.0px;font-style:NORMAL;font-weight:normal;">vation, microstomia, ankyloglossia, limited mouth </text>
  <text svg_rhmargin="297.313" x="70.866,75.891,80.99,85.545,90.752,93.753,98.728,103.728,105.948,110.923,115.912,118.692,120.907,125.413,128.255,132.179,137.179,139.399,147.386,150.387,155.378,160.378,163.708,165.928,173.804,178.431,183.384,188.577,193.084,195.864,198.078,201.978,207.234,210.114,213.014,215.855,219.745,221.965,224.966,229.911,232.812,237.376,240.957,244.161,248.726,252.119,256.559,258.773,266.168,268.859,271.822,276.822,279.042,284.042,287.526,292.033,294.813,297.313" y="84.09900000000005" style="fill:#171615;font-family:EHOOBT+TimesNewRomanPSMT;font-size:10.0px;font-style:NORMAL;font-weight:normal;">opening but also minor manual skills interfere with oral </text>
  <text x="314.646,319.554,324.389,329.563,332.246,336.801,341.801,346.241,348.741,351.858,356.337,361.264,364.144,367.054,369.745,372.842,377.193,379.693,382.193,385.312,395.105,400.303,403.183,405.885,410.325,412.825,415.943,420.99,424.358,429.189,434.362,437.064,442.242,445.244,450.219,455.219,457.719,460.838,468.232,470.924,473.886,478.886,481.386,484.505,487.497,495.3,500.165,502.963,507.591,512.536,515.183,518.457,524.23,529.037,533.582,538.582" y="84.09900000000005" svg_rhmargin="541.082" style="fill:#171615;font-family:CRUCZX+TimesNewRomanPSMT;font-size:10.0px;font-style:NORMAL;font-weight:normal;">hygiene ability. While providing with implant-fixed </text>
  <text x="314.646,319.693,323.061,328.106,332.026,334.988,339.969,345.046,350.071,355.08,360.025,363.007,365.704,370.142,372.642,377.052,381.016,386.054,391.153,395.717,399.206,403.126,406.219,409.984,415.014,419.511,422.632,427.912,431.305,435.855,439.818,442.318,444.818,449.228,452.621,457.182,461.694,466.704,471.843,475.763,478.856,482.62,487.65,492.148,495.129,498.13,503.105,508.105,510.605,515.015,518.892,523.873,528.878,532.598,535.253" y="96.09900000000005" svg_rhmargin="538.583" style="fill:#171615;font-family:EHOOBT+TimesNewRomanPSMT;font-size:10.0px;font-style:NORMAL;font-weight:normal;">prosthodontic superstructures, reconstructing short-</text>
  <text x="314.646,319.201,324.201,328.747,333.747,336.247,337.857,342.891,347.445,352.39,355.41,359.917,362.697,365.197,366.807,371.445,374.832,379.227,384.218,388.768,392.731,395.231,397.731,399.341,404.519,407.341,411.3,415.895,420.909,425.883,430.511,435.456,438.476,442.959,447.901,452.45,456.34,458.84,460.45,465.242,468.572,471.072,472.682,475.48,480.049,484.435,489.435,491.935,493.545,498.337,501.667,504.167,505.777,509.17,513.714,521.486,526.316,531.292,535.798,538.578" y="108.09900000000005" svg_rhmargin="541.078" style="fill:#171615;font-family:EHOOBT+TimesNewRomanPSMT;font-size:10.0px;font-style:NORMAL;font-weight:normal;">ened dental arches, disadvantages of lack of removal </text>
  <text x="314.646,319.438,322.768,325.268,327.258,332.089,336.929,341.494,344.843,349.877,354.431,359.376,362.498,367.778,371.171,375.72,379.61,382.11,384.1,389.152,394.167,398.607,401.107,403.097,405.987,410.987,413.487,415.477,420.524,423.892,428.799,434.084,437.477,442.026,445.981,449.805,452.478,457.488,462.488,464.988,466.978,471.77,475.1,477.6,479.59,482.283,487.328,491.151,494.153,499.128,504.128,506.628,508.618,516.493,521.121,526.074,531.267,535.773,538.553" y="120.09900000000005" svg_rhmargin="541.053" style="fill:#171615;font-family:EHOOBT+TimesNewRomanPSMT;font-size:10.0px;font-style:NORMAL;font-weight:normal;">of overdentures due to progression of losing manual </text>
  <text x="314.646,319.68,324.095,329.167,332.068,336.632,340.256,342.948,346.045,351.045,353.855,358.483,363.474,368.474,371.284,379.271,381.968,386.532,389.9,394.946,398.866,401.756,406.756,414.743,417.523,421.963,424.773,432.759,435.417,440.62,445.556,448.336,451.141,456.22,460.66,463.47,466.49,471.142,476.035,480.589,485.589,488.399,491.4,496.345,499.235,504.235,507.045,511.614,516.126,520.637,525.612,530.882,535.827,538.607" y="132.09900000000005" svg_rhmargin="541.107" style="fill:#171615;font-family:EHOOBT+TimesNewRomanPSMT;font-size:10.0px;font-style:NORMAL;font-weight:normal;">dexterity and microstomia might be taken into account </text>
  <text x="314.646,317.397,322.055,326.39,328.8,333.776,338.424,341.555,344.055,346.555,353.206,355.899,360.944,364.871,369.311,371.811,376.323,381.4,386.425,391.524,396.088,399.572,404.012,406.993,409.666,414.677,419.677,422.177,427.255,431.733,434.825,441.887,446.434,450.989,455.989,458.489,463.523,468.077,473.022,476.043,480.549,483.329,485.829,490.877,494.245,499.037,502.241,506.79,510.745,514.568,517.242,522.252,527.348,531.854,534.695,538.585" y="144.09900000000005" svg_rhmargin="541.085" style="fill:#171615;font-family:EHOOBT+TimesNewRomanPSMT;font-size:10.0px;font-style:NORMAL;font-weight:normal;">(47,48). Close cooperation between dental professionals </text>
  <text x="314.646,319.273,324.264,329.264,331.764,332.614,335.987,340.978,345.455,350.716,358.591,363.031,365.922,370.757,373.45,378.357,383.531,386.353,390.274,393.221,397.111,399.611,400.461,403.284,407.174,409.674,410.524,415.524,420.085,424.582,429.131,433.086,437.044,441.682,445.423,450.423,452.923,453.768,456.943,461.943,465.273,467.773,468.623,473.657,478.218,482.658,485.48,489.304,491.977,496.987,501.987,504.487,505.332,513.208,517.859,523.115,526.117,531.092,536.083,538.583" y="156.09900000000005" svg_rhmargin="541.083" style="fill:#171615;font-family:EHOOBT+TimesNewRomanPSMT;font-size:10.0px;font-style:NORMAL;font-weight:normal;">and rheumatologists is necessary for decision making, </text>
  <text x="314.646,317.647,322.647,325.147,328.24,331.633,336.168,340.608,343.691,351.471,356.026,360.971,363.751,366.251,371.114,373.912,378.54,383.858,389.065,392.066,397.041,402.041,404.541,409.169,414.16,419.16,421.66,429.535,434.051,437.053,441.998,444.898,449.453,454.549,459.176,464.191,468.688,473.047,475.547,478.047,480.547" y="168.09900000000005" svg_rhmargin="483.047" style="fill:#171615;font-family:EHOOBT+TimesNewRomanPSMT;font-size:10.0px;font-style:NORMAL;font-weight:normal;">in treatment planning and maintenance. </text>
  <text x="314.646,321.901,326.341,329.362,333.802,336.112,341.122,346.122,348.432,353.466,358.02,362.965,365.985,370.492,373.272,375.582,378.573,386.376,391.241,394.04,398.667,403.612,406.392,408.702,411.794,415.187,419.723,424.163,427.247,435.027,439.581,444.526,447.306,449.616,454.127,459.102,464.383,467.872,471.798,476.348,480.238,482.548,487.34,490.67,492.98,496.804,499.79,504.79,507.1,512.145,516.585,519.566,522.249,526.804,531.749,534.696,538.586" y="180.09900000000005" svg_rhmargin="541.086" style="fill:#171615;font-family:EHOOBT+TimesNewRomanPSMT;font-size:10.0px;font-style:NORMAL;font-weight:normal;">Data on dental implant treatment courses of six patients </text>
  <text x="314.646,318.61,323.745,327.273,330.477,335.041,338.665,341.667,346.642,351.642,354.142,354.682,358.331,361.699,366.699,374.479,376.979,377.519,381.42,386.992,391.432,393.932,394.472,401.534,406.098,409.491,413.931,416.431,416.971,421.308,426.283,430.8,433.68,436.478,440.957,445.822,448.524,452.964,455.464,456.004,459.654,463.022,468.022,475.802,478.302,478.842,483.842,486.342,486.882,491.364,495.952,499.879,504.319,506.819,507.359,510.752,515.351,520.449,525.449,529.17,532.117,536.081,538.581" y="192.09900000000005" svg_rhmargin="541.081" style="fill:#171615;font-family:EHOOBT+TimesNewRomanPSMT;font-size:10.0px;font-style:NORMAL;font-weight:normal;">suffering from sSc were available from 6 case reports, </text>
  <text x="314.646,318.039,322.479,327.318,331.854,336.361,339.27,342.271,347.246,352.246,355.066,359.506,362.326,369.388,373.828,376.486,381.689,386.68,391.226,396.226,399.046,406.826,411.362,415.989,420.989,423.809,426.801,434.604,439.469,442.267,446.895,451.84,454.62,457.44,461.404,466.684,470.41,475.583,478.279,483.254,487.761,490.541,493.361,496.845,501.285,504.185,508.625,511.445,516.237,519.567,522.387,527.387,531.64,533.553,538.553" y="204.09900000000005" svg_rhmargin="541.053" style="fill:#171615;font-family:EHOOBT+TimesNewRomanPSMT;font-size:10.0px;font-style:NORMAL;font-weight:normal;">revealing a weighed mean implant survival rate of 97.7 </text>
  <text x="314.646,322.976,325.476,327.996,332.488,336.122,339.022,343.587,346.917,349.417,351.937,356.377,358.877,361.397,369.177,373.712,378.34,383.34,385.84,388.36,393.318,398.363,402.29,406.854,410.58,415.555,419.995,422.977,425.65,430.66,435.66,438.16,440.68,445.779,450.344,453.968,456.641,461.718,466.718,469.218,471.738,476.531,479.861,482.361,484.881,489.568,493.821,496.345,501.345,503.845,506.365,514.135,519.145,524.09,527.053,532.183,536.064,538.564" y="216.09900000000005" svg_rhmargin="541.064" style="fill:#171615;font-family:EHOOBT+TimesNewRomanPSMT;font-size:10.0px;font-style:NORMAL;font-weight:normal;">% after a mean observation period of 37.5 months. </text>
  <text x="314.646,318.203,326.006,330.871,333.67,338.297,343.242,345.89,349.164,354.937,359.743,364.289,369.289,371.789,373.449,377.961,382.961,390.764,395.629,398.331,402.809,405.709,410.149,412.649,414.308,419.308,422.638,425.138,426.799,431.844,436.481,440.202,443.183,445.963,450.469,453.249,455.749,457.408,462.442,466.997,471.942,475.063,480.343,483.736,488.285,492.175,494.675,496.338,503.399,507.964,511.357,515.797,518.297,519.956,525.11,529.037,533.582,538.582" y="228.09900000000005" svg_rhmargin="541.082" style="fill:#171615;font-family:CRUCZX+TimesNewRomanPSMT;font-size:10.0px;font-style:NORMAL;font-weight:normal;">Implant-fixed complete or partial dentures were used </text>
  <text x="314.646,322.521,327.038,330.039,335.236,337.947,342.947,345.447,346.627,351.254,356.245,361.245,363.745,364.925,368.017,375.049,380.049,382.549,383.729,388.774,393.214,396.196,398.879,403.433,408.378,411.326,415.216,417.716,418.896,422.289,426.85,431.347,435.787,438.484,443.324,447.869,452.869,455.369,456.549,459.541,467.344,472.209,475.007,479.635,484.58,487.227,490.573,493.966,498.444,501.464,505.98,508.982,513.982,518.527,523.527,526.027,527.207,530.6,535.253" y="240.09900000000005" svg_rhmargin="538.583" style="fill:#171615;font-family:EHOOBT+TimesNewRomanPSMT;font-size:10.0px;font-style:NORMAL;font-weight:normal;">mainly and two patients received implant-retained re-</text>
  <text x="314.646,322.416,327.246,332.221,336.7,341.565,344.267,348.706,351.206,356.036,360.875,365.44,368.789,373.823,378.377,383.322,386.444,391.724,395.117,399.666,403.548,406.048" y="252.09900000000005" svg_rhmargin="408.548" style="fill:#171615;font-family:EHOOBT+TimesNewRomanPSMT;font-size:10.0px;font-style:NORMAL;font-weight:normal;">movable overdentures. </text>
  <text x="314.646,317.988,323.337,327.882,335.685,340.661,345.859,348.518,353.832,358.986,362.876,365.376,370.005,374.996,379.996,382.496,386.435,391.454,395.375,398.275,402.821,410.807,413.504,417.944,420.444,426.499,431.537,436.512,441.666,445.556,448.056,454.196,457.937,463.27,466.233,471.224,475.769,483.645,488.085,490.975,496.02,499.984,505.138" y="264.09900000000005" svg_rhmargin="509.028" style="fill:#171615;font-family:EHOOBT+TimesNewRomanPSMT;font-size:10.0px;font-style:NORMAL;font-weight:normal;">-Pemphigus and systemic Lupus Erythematosus</text>
  <text x="314.646,319.994,324.434,326.934,328.104,330.927,334.817,337.317,338.487,343.115,348.115,350.615,351.785,356.238,361.227,364.118,369.012,372.003,380.091,387.824,393.094,398.094,402.534,405.034,406.204,413.937,418.967,423.478,428.571,433.068,438.056,441.077,445.704,450.704,455.25,460.225,465.379,469.269,471.769,472.939,478.117,480.939,484.866,489.401,493.989,497.916,502.356,504.856,507.356,508.526,512.921,518.008,522.646,526.13,530.699,535.253" y="276.09900000000005" svg_rhmargin="538.583" style="fill:#171615;font-family:EHOOBT+TimesNewRomanPSMT;font-size:10.0px;font-style:NORMAL;font-weight:normal;">Pe is an autoimmune mucocutaneous disease, charac-</text>
  <text x="314.646,317.546,322.111,325.735,328.702,333.219,337.764,342.764,344.984,349.911,354.911,357.131,361.73,366.657,369.348,372.31,377.301,381.635,384.544,387.324,391.831,394.611,396.831,401.696,404.605,407.427,411.348,414.248,418.813,422.437,425.438,430.413,435.413,437.633,442.073,444.853,447.073,450.972,456.229,459.23,464.23,466.45,471.078,476.069,481.069,483.289,491.022,496.052,500.563,505.608,509.567,514.197,516.697,518.917,521.619,526.155,530.492,535.253" y="288.099" svg_rhmargin="538.583" style="fill:#171615;font-family:EHOOBT+TimesNewRomanPSMT;font-size:10.0px;font-style:NORMAL;font-weight:normal;">terized by epithelial blistering at skin and mucosa, leav-</text>
  <text x="314.646,317.647,322.622,327.622,330.232,334.797,338.165,343.21,347.034,349.707,354.717,359.856,363.746,366.356,371.356,374.686,377.296,382.446,385.134,389.63,394.195,397.684,401.574,404.184,407.359,412.194,415.093,417.786,422.626,430.021,433.022,437.997,442.997,445.607,449.373,454.411,459.401,462.523,467.803,471.427,474.428,479.403,484.403,487.013,491.505,495.033,498.237,502.798,507.296,510.277,513.278,518.254,523.254,525.864,530.855,535.817,538.597" y="300.099" svg_rhmargin="541.097" style="fill:#171615;font-family:EHOOBT+TimesNewRomanPSMT;font-size:10.0px;font-style:NORMAL;font-weight:normal;">ing erosions or ulcers following rupturing affecting not </text>
  <text x="314.646,319.656,324.853,327.564,332.564,335.064,335.964,338.926,343.918,348.358,350.858,351.758,356.758,360.242,364.748,367.528,370.028,370.928,375.41,379.747,384.921,387.612,390.709,395.709,398.209,399.109,404.084,409.073,411.853,414.353,415.253,419.76,422.601,426.526,431.526,434.026,434.926,437.889,442.88,447.32,449.82,450.72,458.453,463.483,467.994,473.039,476.998,481.438,483.938,484.838,489.63,492.96,495.46,496.36,501.351,506.396,510.322,514.762,517.262,519.762,520.662,525.173,530.183,535.253" y="312.099" svg_rhmargin="538.583" style="fill:#171615;font-family:EHOOBT+TimesNewRomanPSMT;font-size:10.0px;font-style:NORMAL;font-weight:normal;">only the oral cavity but also the mucosa of nose, con-</text>
  <text x="314.646,317.386,322.656,327.671,332.169,335.15,337.846,342.821,347.381,351.821,354.321,356.821,361.763,366.318,371.525,374.216,377.236,381.743,384.584,388.548,391.048,393.548,398.097,402.022,407.047,412.023,417.11,421.593,426.906,432.06,436.024,438.524,441.024,446.0,451.087,455.725,459.466,464.774,470.078,475.078,477.578,482.205,487.196,492.196,494.696,497.494,502.132,505.873,511.181,516.485,521.499,523.999" y="324.099" svg_rhmargin="526.499" style="fill:#171615;font-family:EHOOBT+TimesNewRomanPSMT;font-size:10.0px;font-style:NORMAL;font-weight:normal;">junctivae, genitals, esophagus, pharynx and larynx. </text>
  <text x="314.646,320.072,326.188,332.298,334.798,336.518,339.34,343.23,345.73,347.45,351.89,354.39,356.11,363.842,368.992,371.685,374.666,377.488,381.428,386.447,390.367,393.268,397.813,405.593,408.093,409.813,414.266,419.255,422.146,427.04,430.031,438.119,445.852,451.122,456.122,460.562,463.062,464.782,469.959,472.782,476.709,481.244,485.832,489.759,494.199,496.699,498.419,505.814,508.505,511.467,516.467,518.967,520.687,525.198,530.208,535.253" y="336.099" svg_rhmargin="538.583" style="fill:#171615;font-family:EHOOBT+TimesNewRomanPSMT;font-size:10.0px;font-style:NORMAL;font-weight:normal;">SLE is a multisystem autoimmune disease with con-</text>
  <text x="314.646,319.646,324.207,328.705,331.686,334.383,339.223,343.663,346.163,346.963,349.945,352.767,356.722,360.685,365.7,370.14,372.64,373.44,378.067,383.058,388.058,390.558,391.358,396.223,398.916,403.993,409.07,414.07,416.57,417.37,422.21,426.76,430.714,434.641,438.974,441.754,444.254,445.054,450.232,453.054,456.979,461.979,465.328,470.362,474.926,477.967,480.467,482.967,483.767,488.162,493.249,497.887,501.371,505.94,510.438,513.338,517.903,521.527,524.494,529.01,533.556,538.556" y="348.099" svg_rhmargin="541.056" style="fill:#171615;font-family:EHOOBT+TimesNewRomanPSMT;font-size:10.0px;font-style:NORMAL;font-weight:normal;">nective tissue and blood vessel disorder, characterized </text>
  <text x="314.646,319.573,324.573,327.313,331.911,336.839,339.661,343.585,348.662,353.696,358.246,362.136,364.878,369.669,372.999,375.74,379.133,383.694,388.191,393.471,397.207,400.6,405.154,410.099,412.879,415.618,420.187,424.684,429.673,432.573,437.013,439.751,444.751,448.081,450.822,455.217,460.536,463.904,468.914,474.121,476.818,481.258,483.997,486.998,492.317,497.888,502.505,510.594,518.469,522.909,525.891,528.564,533.574,538.574" y="360.099" svg_rhmargin="541.074" style="fill:#171615;font-family:CRUCZX+TimesNewRomanPSMT;font-size:10.0px;font-style:NORMAL;font-weight:normal;">by episodes of recurrent acute or chronic inflammation </text>
  <text x="314.646,322.041,324.732,327.694,332.694,334.884,337.885,342.83,345.73,350.295,354.021,361.801,366.347,371.525,374.305,378.745,381.646,386.086,388.276,393.252,398.339,402.928,406.854,411.404,415.294,417.484,422.275,425.605,427.795,431.188,435.733,443.719,446.542,450.496,454.32,456.993,462.003,467.138,469.638,471.828,479.703,484.219,487.221,492.418,495.129,500.129,502.319,506.811,510.339,513.543,518.104,522.602,525.583,528.584,533.559,538.559" y="372.099" svg_rhmargin="541.059" style="fill:#171615;font-family:EHOOBT+TimesNewRomanPSMT;font-size:10.0px;font-style:NORMAL;font-weight:normal;">with intermediate phases of remission, mainly affecting </text>
  <text x="314.646,317.324,322.218,325.22,330.165,333.112,337.076,339.576,341.866,344.867,349.812,352.712,357.277,361.018,366.114,370.62,373.4,375.69,380.69,384.038,389.077,393.705,398.844,402.734,405.024,409.652,414.643,419.643,421.933,425.833,431.089,434.09,439.143,441.643,443.933,451.343,454.827,459.334,462.114,464.404,472.279,476.907,482.114,484.979,488.183,492.733,496.653,499.674,504.114,507.096,509.769,514.779,519.918,523.808,526.098,530.735,534.128,538.568" y="384.099" svg_rhmargin="541.068" style="fill:#171615;font-family:EHOOBT+TimesNewRomanPSMT;font-size:10.0px;font-style:NORMAL;font-weight:normal;">joints, internal organs and skin. Oral manifestations are </text>
  <text x="314.646,319.157,324.157,332.245,340.015,345.025,350.025,352.525,353.116,358.116,360.616,361.207,365.757,369.725,374.824,379.385,383.825,386.605,391.111,394.011,396.722,401.722,404.222,404.813,409.865,415.145,418.769,421.77,426.745,431.745,434.245,434.837,440.015,442.837,446.764,451.299,455.888,459.814,464.254,466.754,467.344,472.914,477.552,480.945,485.494,489.384,491.884,492.477,497.477,499.977,500.568,505.196,510.187,515.187,517.687,518.278,523.325,526.718,531.267" y="396.099" svg_rhmargin="535.157" style="fill:#171615;font-family:CRUCZX+TimesNewRomanPSMT;font-size:10.0px;font-style:NORMAL;font-weight:normal;">common – especially during disease flares – and pres</text>
  <text x="535.253" y="396.099" svg_rhmargin="538.583" style="fill:#171615;font-family:EHOOBT+TimesNewRomanPSMT;font-size:10.0px;font-style:NORMAL;font-weight:normal;">-</text>
  <text x="314.646,319.201,324.145,326.925,329.425,330.165,334.753,338.643,341.143,341.883,345.058,350.058,353.784,361.703,365.593,368.093,368.833,373.625,376.955,379.455,380.195,385.24,389.756,392.758,397.955,400.657,405.206,409.161,413.051,415.551,416.291,421.441,424.13,428.626,433.191,436.68,440.57,443.07,443.81,446.561,451.364,455.934,459.065,461.565,464.065,464.805,470.484,473.877,478.413,482.853,485.937,493.717,498.271,503.216,505.996,508.496,509.231,514.023,517.353,519.853,520.593,525.67,530.632,533.594,538.594" y="408.099" svg_rhmargin="541.094" style="fill:#171615;font-family:EHOOBT+TimesNewRomanPSMT;font-size:10.0px;font-style:NORMAL;font-weight:normal;">ent as forms of painless ulcers (49). Treatment of both </text>
  <text x="314.646,319.994,324.434,326.834,331.462,336.452,341.452,343.852,347.708,353.824,359.934,362.334,366.846,371.846,379.649,384.696,388.32,391.142,395.069,399.618,403.508,405.908,408.9,416.988,424.72,429.99,434.981,440.026,443.99,449.028,454.11,459.157,462.55,467.099,471.054,475.013,479.64,484.585,487.365,489.765,497.545,502.09,507.268,509.965,514.448,518.888,521.869,524.542,529.552,534.691,538.581" y="420.099" svg_rhmargin="541.081" style="fill:#171615;font-family:EHOOBT+TimesNewRomanPSMT;font-size:10.0px;font-style:NORMAL;font-weight:normal;">Pe and sLE comprises immunosuppressant medications </text>
  <text x="314.646,322.521,327.038,330.039,335.236,337.947,342.38,344.88,347.38,347.92,355.106,360.304,363.002,367.397,372.397,374.897,375.437,383.312,387.664,392.664,395.164,395.704,400.186,404.64,409.794,413.72,418.16,420.66,421.2,425.795,430.809,435.649,440.213,443.702,447.629,452.069,454.569,455.109,459.446,462.974,466.178,470.74,475.237,478.185,482.075,484.575,485.115,487.883,492.5,500.27,505.28,510.255,515.255,517.755,518.295,521.257,526.248,530.794,538.574" y="432.099" svg_rhmargin="541.074" style="fill:#171615;font-family:EHOOBT+TimesNewRomanPSMT;font-size:10.0px;font-style:NORMAL;font-weight:normal;">mainly, which may cause adverse effects (among them </text>
  <text x="314.646,319.128,323.756,328.747,333.925,336.627,341.839,346.314,349.548,352.549,357.732,360.936,365.498,369.995,372.977,375.65,380.66,385.799,389.689,392.189,393.659,398.451,401.781,404.281,405.751,408.713,413.704,418.144,420.644,422.114,427.114,430.598,435.104,437.884,440.384,441.854,449.586,454.616,459.128,464.173,468.132,472.107,475.437,477.937,479.407,486.802,489.493,492.456,497.456,499.956,501.426,504.427,509.418,514.596,517.292,522.465,525.168,530.22,535.253" y="444.099" svg_rhmargin="538.583" style="fill:#171615;font-family:EHOOBT+TimesNewRomanPSMT;font-size:10.0px;font-style:NORMAL;font-weight:normal;">candida-infections of the oral mucosa) with individu-</text>
  <text x="314.646,319.152,322.052,324.763,329.763,331.813,336.991,339.856,343.384,346.588,351.153,354.546,359.1,364.045,366.825,368.875,373.909,378.3,383.586,386.979,391.526,395.966,398.016,402.808,406.138,408.188,412.679,416.207,419.411,423.973,428.47,431.452,434.125,439.135,444.27,446.77,448.82,453.448,458.439,463.439,465.489,470.523,475.122,480.221,484.775,489.766,494.8,499.355,504.3,507.08,509.13,514.14,519.14,521.19,526.215,531.26,535.253" y="456.099" svg_rhmargin="538.583" style="fill:#171615;font-family:EHOOBT+TimesNewRomanPSMT;font-size:10.0px;font-style:NORMAL;font-weight:normal;">ally different degree of affection, and dependent on dos-</text>
  <text x="314.646,319.128,324.07,328.51,331.02,335.647,340.638,345.638,348.148,353.201,358.481,361.965,366.405,369.386,372.06,377.07,382.07,384.58,389.372,392.702,395.212,400.366,404.292,408.652,411.152,413.662,421.004,424.894,427.404,432.558,436.522,441.715,446.221,449.001,451.506,454.508,459.508,462.018,467.052,471.606,476.551,479.572,484.078,486.858,489.363,492.456,495.849,500.384,504.824,507.907,515.687,520.241,525.186,527.966,530.471,535.263,538.593" y="468.099" svg_rhmargin="541.093" style="fill:#171615;font-family:EHOOBT+TimesNewRomanPSMT;font-size:10.0px;font-style:NORMAL;font-weight:normal;">age and duration of use. As usual in dental treatment of </text>
  <text x="314.646,318.614,323.713,328.274,332.714,335.494,340.0,342.78,345.13,350.13,354.678,359.223,364.396,368.286,370.636,375.681,380.121,383.102,385.785,390.34,395.285,398.232,402.122,404.472,409.472,412.802,415.152,420.197,424.637,427.619,430.302,434.856,439.802,442.749,446.639,448.989,456.384,459.075,462.037,467.037,469.387,473.326,478.345,482.266,485.166,489.712,497.698,500.395,504.835,507.185,511.639,516.628,519.518,524.412,527.404,535.253" y="480.099" svg_rhmargin="538.583" style="fill:#171615;font-family:EHOOBT+TimesNewRomanPSMT;font-size:10.0px;font-style:NORMAL;font-weight:normal;">special needs patients or patients with systemic autoim-</text>
  <text x="314.646,322.378,327.648,332.648,337.088,340.038,345.038,348.368,351.318,359.051,364.081,368.592,373.685,378.182,383.171,386.191,390.818,395.818,400.364,405.339,410.493,414.383,417.333,422.511,425.334,429.26,433.796,438.384,442.311,446.86,450.824,453.324,456.274,460.559,463.252,468.297,472.224,476.664,479.614,484.126,489.203,494.228,499.327,503.891,507.375,511.815,514.796,517.469,522.479,527.479,530.429,535.221,538.551" y="492.099" svg_rhmargin="541.051" style="fill:#171615;font-family:EHOOBT+TimesNewRomanPSMT;font-size:10.0px;font-style:NORMAL;font-weight:normal;">mune or mucocutaneous diseases, close cooperation of </text>
  <text x="314.646,317.608,322.599,327.039,329.539,334.572,339.126,344.071,347.053,349.875,353.795,356.575,359.075,363.701,368.692,373.692,376.192,379.155,384.146,388.586,391.086,394.176,397.57,402.105,406.545,409.526,412.527,417.502,422.502,425.002,428.97,434.069,438.63,443.07,445.85,450.356,453.266,456.088,460.009,462.956,466.846,469.346,472.17,476.06,478.56,486.437,491.064,496.055,501.267,505.707,508.597,513.597,517.338,521.689,524.189" y="504.099" svg_rhmargin="526.689" style="fill:#171615;font-family:EHOOBT+TimesNewRomanPSMT;font-size:10.0px;font-style:NORMAL;font-weight:normal;">the dentist and the treating specialists is mandatory. </text>
  <text x="314.646,320.668,323.66,331.646,334.337,337.238,341.783,346.783,349.683,357.454,362.429,367.418,370.38,375.38,378.28,383.305,388.404,392.959,398.166,401.167,406.142,411.142,414.042,418.67,423.66,428.66,431.56,436.468,441.806,446.904,451.949,455.907,460.414,463.323,466.019,470.995,475.435,478.416,481.09,486.1,491.1,494.0,499.052,504.067,508.507,511.407,514.298,519.298,522.198,526.125,530.686,535.253" y="516.0989999999999" svg_rhmargin="538.583" style="fill:#171615;font-family:EHOOBT+TimesNewRomanPSMT;font-size:10.0px;font-style:NORMAL;font-weight:normal;">Limited mouth opening and hyposalivation due to sec-</text>
  <text x="314.646,319.656,324.647,329.859,334.496,338.238,343.238,345.738,347.178,352.541,355.219,360.126,365.411,368.804,373.358,377.907,380.528,384.418,386.918,388.358,392.297,397.605,402.596,407.895,411.263,416.263,424.043,428.483,430.983,432.418,437.006,440.896,443.396,444.836,449.425,453.379,457.304,462.397,466.837,469.617,474.057,476.958,481.503,486.503,489.003,490.443,494.955,500.194,503.53,511.3,516.3,519.712,524.639,527.342,532.52,535.253" y="528.0989999999999" svg_rhmargin="538.583" style="fill:#171615;font-family:EHOOBT+TimesNewRomanPSMT;font-size:10.0px;font-style:NORMAL;font-weight:normal;">ondary Sjögren’s syndrome as associated co-morbidi-</text>
  <text x="314.646,317.743,322.743,325.243,327.368,330.07,334.95,339.604,342.934,345.434,347.564,352.046,356.674,361.674,364.174,366.298,369.3,374.245,377.145,381.71,385.291,388.495,393.059,396.452,400.892,403.392,405.516,412.911,415.602,418.564,423.564,426.064,428.189,435.251,439.786,444.424,448.048,451.049,456.024,461.024,463.524,465.649,470.441,473.771,476.271,478.396,486.129,491.159,495.67,500.715,504.674,509.18,511.936,515.325,520.402,525.402,529.143,534.143,538.583" y="540.0989999999999" svg_rhmargin="541.083" style="fill:#171615;font-family:EHOOBT+TimesNewRomanPSMT;font-size:10.0px;font-style:NORMAL;font-weight:normal;">ty (50) can interfere with wearing of mucosal-borne </text>
  <text x="314.646,319.68,324.234,329.179,332.301,337.581,340.974,345.523,349.405,351.905,354.405,355.931,361.339,364.341,369.356,373.852,378.292,380.792,382.317,385.197,388.096,390.852,394.126,399.59,402.669,405.65,408.651,413.626,418.626,421.126,422.652,427.699,431.068,436.112,440.033,442.995,447.986,452.536,456.462,461.012,464.902,467.402,468.93,473.93,477.26,479.76,481.286,485.913,490.825,495.825,498.325,499.851,502.944,506.428,510.881,516.141,524.016,528.456,531.437,534.134,538.574" y="552.0989999999999" svg_rhmargin="541.074" style="fill:#171615;font-family:CRUCZX+TimesNewRomanPSMT;font-size:10.0px;font-style:NORMAL;font-weight:normal;">dentures. Since ill-fitting prostheses or any traumatic </text>
  <text x="314.646,319.157,324.168,329.113,332.133,336.702,341.2,343.98,346.49,353.884,356.576,359.538,364.538,367.048,370.01,375.001,379.441,381.951,389.684,394.714,399.225,404.27,408.229,412.669,415.179,419.661,424.289,429.289,431.799,436.281,440.735,445.888,449.815,454.255,456.765,459.941,464.941,468.667,476.542,480.982,483.964,486.637,491.647,496.647,499.157,503.949,507.279,509.789,514.629,519.178,523.001,525.699,530.195,535.253" y="564.0989999999999" svg_rhmargin="538.583" style="fill:#171615;font-family:EHOOBT+TimesNewRomanPSMT;font-size:10.0px;font-style:NORMAL;font-weight:normal;">contact with the mucosa can cause formation of vesicu-</text>
  <text x="314.646,317.339,322.297,327.272,332.422,335.322,338.015,342.99,348.144,352.034,354.694,359.694,363.024,365.684,370.834,373.522,378.019,382.583,386.067,390.507,393.489,396.185,401.025,405.465,408.119,410.821,415.37,419.194,421.867,426.877,432.016,435.98,438.48,441.135,444.126,451.929,456.795,459.593,464.22,469.165,471.813,475.202,480.279,485.279,489.02,494.02,498.46,501.113,505.034,508.054,512.533,517.46,520.34,523.249,526.217,530.771,535.253" y="576.0989999999999" svg_rhmargin="538.583" style="fill:#171615;font-family:EHOOBT+TimesNewRomanPSMT;font-size:10.0px;font-style:NORMAL;font-weight:normal;">lobullous or ulcerative lesions, implant-borne stabiliza-</text>
  <text x="314.646,317.627,320.301,325.311,330.311,332.811,334.161,338.953,342.283,344.783,346.133,351.167,355.721,360.666,363.787,369.067,372.46,377.01,380.9,383.4,384.75,392.145,395.025,397.924,400.704,403.204,404.554,407.947,412.497,416.46,421.61,424.303,427.083,429.583,430.933,433.935,438.935,441.435,442.785,445.487,450.037,453.992,457.882,460.382,461.732,464.824,468.308,472.761,478.022,485.897,490.337,492.837,494.187,498.814,503.805,508.805,511.305,512.655,517.853,520.511,525.714,530.705,535.269,538.599" y="588.0989999999999" svg_rhmargin="541.099" style="fill:#171615;font-family:EHOOBT+TimesNewRomanPSMT;font-size:10.0px;font-style:NORMAL;font-weight:normal;">tion of dentures will result in less trauma and higher </text>
  <text x="314.646,319.691,324.131,327.113,329.796,334.351,339.296,342.076,344.576,349.085,354.085,362.048,365.223,370.223,373.944,376.724,379.224,382.221,387.048,392.065,394.611,399.298,404.386,407.517,410.017,412.517" y="600.0989999999999" svg_rhmargin="415.017" style="fill:#171615;font-family:EHOOBT+TimesNewRomanPSMT;font-size:10.0px;font-style:NORMAL;font-weight:normal;">patient comfort (36,37). </text>
  <text x="314.646,322.061,327.258,329.969,334.969,337.839,340.931,347.963,352.963,355.833,360.316,364.904,368.831,373.271,376.141,379.534,384.133,389.231,394.231,397.952,400.899,404.789,407.659,414.721,419.285,422.678,427.118,429.988,433.163,438.138,443.408,448.399,453.399,456.269,463.664,466.355,469.318,474.318,477.188,482.4,486.84,489.86,494.3,497.17,502.18,507.18,510.05,515.06,520.06,524.5,527.37,530.574,535.253" y="612.0989999999999" svg_rhmargin="538.583" style="fill:#171615;font-family:EHOOBT+TimesNewRomanPSMT;font-size:10.0px;font-style:NORMAL;font-weight:normal;">Only two case reports were found with data on one fe-</text>
  <text x="314.646,322.521,327.028,329.73,334.17,337.16,342.205,346.645,349.626,352.309,356.864,361.809,364.589,367.579,372.115,376.684,381.08,386.08,389.07,396.464,399.155,402.118,407.118,410.108,415.456,419.896,422.886,427.513,432.504,437.504,440.494,444.351,450.461,456.772,459.272,462.262,467.339,472.301,475.264,480.264,483.254,486.647,491.087,495.927,500.462,504.969,507.878,510.879,515.855,520.855,523.845,528.338,533.544,538.544" y="624.0989999999999" svg_rhmargin="541.044" style="fill:#171615;font-family:EHOOBT+TimesNewRomanPSMT;font-size:10.0px;font-style:NORMAL;font-weight:normal;">male patient each with Pe and sLE, both revealing 100 </text>
  <text x="314.646,322.976,325.476,326.256,329.248,337.051,341.916,344.714,349.342,354.287,357.067,359.567,360.347,364.311,369.591,373.317,378.49,381.186,386.161,390.668,393.448,395.948,396.728,401.22,404.854,407.754,412.319,415.649,418.149,418.929,423.369,425.869,426.649,429.824,434.659,437.558,440.251,445.091,452.128,455.503,460.541,465.541,468.041,468.821,473.92,478.485,482.109,484.782,489.859,494.859,497.359,498.139,502.931,506.261,508.761,509.541,513.981,516.761,519.261,520.041,522.743,527.278,531.867,535.787,538.567" y="636.0989999999999" svg_rhmargin="541.067" style="fill:#171615;font-family:EHOOBT+TimesNewRomanPSMT;font-size:10.0px;font-style:NORMAL;font-weight:normal;">% implant survival after a follow-up period of at least </text>
  <text x="314.646,319.632,324.632,327.132,328.112,335.883,340.893,345.838,348.8,353.93,357.894,360.394,362.894,363.874,371.061,376.259,378.956,383.352,388.352,390.852,391.832,394.654,398.544,401.044,402.024,404.915,409.992,414.992,417.492,418.472,421.174,425.724,429.678,433.568,436.068,437.048,442.261,446.701,449.721,454.161,456.661,457.641,460.531,465.531,468.031,469.011,473.803,477.331,480.535,485.099,488.429,490.929,491.909,496.537,501.449,506.449,508.949,509.929,513.322,517.883,522.395,527.395,535.253" y="648.0989999999999" svg_rhmargin="538.583" style="fill:#171615;font-family:EHOOBT+TimesNewRomanPSMT;font-size:10.0px;font-style:NORMAL;font-weight:normal;">24 months, which is too less data to offer any recom-</text>
  <text x="314.646,322.426,326.981,331.972,337.184,341.624,344.606,347.279,352.289,357.428,361.31,363.81,366.8,373.914,378.754,385.816,390.256,395.096,399.66,402.7,405.2,408.19,413.235,417.675,420.656,423.339,427.894,432.839,435.786,439.676,442.666,450.061,452.752,455.715,460.715,463.705,469.053,473.493,476.483,481.483,484.813,487.803,491.66,497.77,503.88,506.87,510.797,515.344,519.889,527.669,530.659,533.549,538.549" y="660.0989999999999" svg_rhmargin="541.049" style="fill:#171615;font-family:EHOOBT+TimesNewRomanPSMT;font-size:10.0px;font-style:NORMAL;font-weight:normal;">mendations. However, patients with Pe or sLE seem to </text>
  <text x="314.646,319.725,324.28,329.28,333.758,339.223,342.003,344.503,345.732,349.381,352.749,357.749,365.529,368.029,369.259,372.25,380.054,384.919,387.717,392.344,397.289,399.937,403.283,406.676,411.153,414.174,418.69,421.691,426.691,431.237,436.237,438.737,439.968,444.968,448.298,450.798,452.03,455.021,462.824,467.689,470.488,475.115,480.06,482.707,485.982,491.755,496.561,501.107,506.107,508.607,509.838,514.885,518.253,523.298,527.219,530.181" y="672.099" svg_rhmargin="535.181" style="fill:#171615;font-family:CRUCZX+TimesNewRomanPSMT;font-size:10.0px;font-style:NORMAL;font-weight:normal;">benefit from implant-retained or implant-fixed prosth</text>
  <text x="535.253" y="672.099" svg_rhmargin="538.583" style="fill:#171615;font-family:EHOOBT+TimesNewRomanPSMT;font-size:10.0px;font-style:NORMAL;font-weight:normal;">-</text>
  <text x="314.646,319.723,324.748,329.758,334.703,337.684,340.382,344.822,347.322,350.412,353.805,358.341,362.781,365.865,373.645,378.2,383.145,385.972,388.472,390.972,393.472" y="684.099" svg_rhmargin="395.972" style="fill:#171615;font-family:EHOOBT+TimesNewRomanPSMT;font-size:10.0px;font-style:NORMAL;font-weight:normal;">odontic treatment. </text>
  <text x="314.646,322.449,327.872,333.866,338.699,341.68,347.774,352.054,355.104,360.527,366.636" y="709.299" svg_rhmargin="370.915" style="fill:#171615;font-family:CRUCZX+TimesNewRomanPS-BoldMT;font-size:11.0px;font-style:NORMAL;font-weight:bold;">Conclusions</text>
  <text x="314.646,322.003,327.162,329.864,334.898,339.231,342.141,345.142,350.142,354.692,358.582,360.912,364.305,368.697,373.736,378.373,381.722,386.9,389.902,394.877,399.877,402.207,405.198,413.001,417.866,420.665,425.292,430.237,433.017,435.341,438.434,441.827,446.362,450.802,453.885,461.665,466.22,471.165,473.945,476.269,481.061,484.391,486.721,491.766,496.206,499.187,501.87,506.425,511.37,514.317,518.207,520.537,527.931,530.623,533.585,538.585" y="721.299" svg_rhmargin="541.085" style="fill:#171615;font-family:EHOOBT+TimesNewRomanPSMT;font-size:10.0px;font-style:NORMAL;font-weight:normal;">Guidelines regarding implant treatment of patients with </text>
  <text x="314.646,319.535,325.601,330.477,332.977,335.447,340.795,345.235,347.735,350.2,356.33,362.988,365.488,367.953,373.315,375.963,381.56,384.06,386.53,390.386,396.502,402.612,405.076,410.076,413.406,415.871,419.773,425.344,429.784,432.248,437.273,442.273,444.738,449.73,454.692,457.472,459.935,464.351,469.52,472.342,476.263,479.043,481.506,485.431,490.431,492.896,496.236,500.874,503.832,506.332,508.797,515.39,519.94,523.903,529.054,531.746,534.693,538.583" y="733.299" svg_rhmargin="541.083" style="fill:#171615;font-family:EHOOBT+TimesNewRomanPSMT;font-size:10.0px;font-style:NORMAL;font-weight:normal;">oLp, Pe, EB, SjS, sLE or sSc do not exist so far. Results </text>
 </g>
</svg>
