<?xml version="1.0" encoding="UTF-8"?>
<svg height="769.854" width="548.2675928857143" xmlns="http://www.w3.org/2000/svg">
 <g style="fill:none;">
  <text x="70.276,75.661,78.484,81.484,82.984,87.524,89.71,92.511,94.179,95.679,99.055,101.822,103.652,106.661,108.329,109.829,114.368,116.554,119.355,121.023,122.523,126.551,128.449,130.447,131.947,136.043,139.16,141.949,144.751,146.507,148.007,149.507,152.597,155.416,158.291,161.291,162.791,168.248,171.122,173.12,174.62,177.449,179.234,182.331,185.331,186.831,188.766,191.611,193.563,195.147,197.843,200.638,203.329,206.251,208.073,211.124,214.139,215.639,217.139,218.639,220.139,221.639,223.139,224.639,226.139,227.639,229.139,230.639,232.139,233.639,235.139,236.639,238.139,239.639,241.139,242.639,244.139,245.639,247.139,248.639,250.139,251.639,253.139,254.639,256.139,257.639,259.139,260.639,262.139,263.639,265.139,266.639,268.139,269.639,271.139,272.639,274.139,275.639,277.139,278.639,280.139,281.639,283.139,284.639,286.139,287.639,289.139,290.639,292.139,293.639,295.139,296.639,298.139,299.639,301.139,302.639,304.139,305.639,307.139,308.639,310.139,311.639,313.139,314.639,316.139,318.367,323.148,326.173,327.952,330.821,333.891,335.753,338.087,339.587,341.48,344.48,345.98,349.105,351.872,353.753,355.468,358.297,361.366,363.228,365.562,367.062,371.594,373.313,375.183,378.183,379.683,382.787,384.972,387.774,389.442,390.942,395.762,398.632,401.849,403.665,405.693,408.519,410.97,412.873,415.64,417.521,419.23,422.336,425.515,427.849,429.349,432.334,434.332,435.832,438.604,441.7,443.53,446.571,448.458,453.398,458.14,461.392,464.492,467.156,468.656,471.76,473.758,475.258,479.999,483.116,485.921,489.157,491.395,494.191,497.287,499.189,502.059,505.16,507.983,511.07,514.257,516.591,518.091,521.292,523.083,525.539,528.356,531.204,533.659,536.484" y="44.424999999999955" svg_rhmargin="538.818" style="fill:#171615;font-family:EHOOBT+TimesNewRomanPSMT;font-size:6.0px;font-style:NORMAL;font-weight:normal;">Med Oral Patol Oral Cir Bucal. 2019 Mar 1;24 (2):e217-30. Implants in patients with oral manifestations of autoimmune or muco-cutaneous diseases</text>
  <text x="296.941,300.493,304.493,308.493" y="759.854" svg_rhmargin="312.493" style="fill:#171615;font-family:EHOOBT+TimesNewRomanPSMT;font-size:8.0px;font-style:NORMAL;font-weight:normal;">e230</text>
  <text x="70.866,75.167,79.396,82.588,85.129,88.988,93.148,95.148,95.896,99.99,104.092,107.966,110.87,115.122,118.988,123.172,125.396,125.885,130.327,133.265,136.977,138.977,139.724,142.661,146.443,150.735,154.541,158.71,161.237,163.786,166.17,168.805,172.586,175.192,177.559,181.793,185.953,187.953,188.701,192.623,196.841,201.001,203.001,203.749,208.011,210.929,215.084,219.529,222.467,226.329,229.717,233.003,235.387,239.489,243.201,245.201,245.949,249.324,253.563,256.924,259.465,263.325,269.933,272.317,276.029,278.029,278.777,282.154,285.811,288.201,292.139" y="82.71199999999999" svg_rhmargin="294.803" style="fill:#171615;font-family:EHOOBT+TimesNewRomanPSMT;font-size:8.0px;font-style:NORMAL;font-weight:normal;">ported overdent ure rehabilitation and progressive systemic scle-</text>
  <text x="70.866,73.784,78.044,81.33,83.812,87.144,89.304,91.465,94.538,98.721,101.105,103.265,106.537,108.697,113.511,116.43,120.69,124.05,126.641,130.852,135.137,139.381,143.615,147.798,150.285,152.445,154.605,158.516,162.77,166.98,171.03,173.385,177.467,179.704,184.081,188.369,192.845,195.509,196.06,200.189" y="92.31200000000001" svg_rhmargin="202.189" style="fill:#171615;font-family:EHOOBT+TimesNewRomanPSMT;font-size:8.0px;font-style:NORMAL;font-weight:normal;">rosis. Int J Prosthodont. 1996;9:440- 4.</text>
  <text x="70.866,75.06,79.19,81.35,83.35,84.014,89.117,91.472,95.615,99.86,104.093,108.253,110.253,110.917,116.979,119.139,121.139,121.803,127.911,132.128,134.35199999999998,134.813,141.336,145.214,148.957,153.176,157.049,159.873,161.873,162.537,167.837,169.997,171.997,172.661,177.121,180.901,183.285,187.028,191.188,193.188,193.852,198.557,200.717,202.717,203.381,208.595,212.373,216.732,219.352,223.512,225.512,226.176,231.375,233.535,235.535,236.199,240.807,245.148,247.689,250.121,253.017,259.458,263.665,267.882,270.473,274.633,276.633,277.297,280.233,284.015,288.307,292.139" y="101.91200000000003" svg_rhmargin="294.803" style="fill:#171615;font-family:EHOOBT+TimesNewRomanPSMT;font-size:8.0px;font-style:NORMAL;font-weight:normal;">34. Zigdon H, Gut macher Z, Teich S, Levin L. Full-mouth reha-</text>
  <text x="70.866,75.036,77.562,80.111,82.495,85.13,88.911,91.517,93.884,98.117,102.277,104.277,105.989,110.334,113.619,116.24,120.446,124.606,126.606,128.318,132.57,136.437,140.62,143.255,147.085,149.469,151.469,153.181,155.793,162.261,166.382,168.845,172.767,176.95,179.53,182.802,184.802,186.514,189.134,193.294,195.294,197.006,200.718,202.718,204.43,208.691,212.471,215.077,217.452,221.318,225.501,227.885,229.885,231.597,237.733,240.117,242.709,246.869,248.869,250.581,253.957,257.615,260.005,263.879,266.797,271.081,275.333,279.208,282.403,288.926,292.789,294.789" y="111.51199999999994" svg_rhmargin="296.789" style="fill:#171615;font-family:EHOOBT+TimesNewRomanPSMT;font-size:8.0px;font-style:NORMAL;font-weight:normal;">bilitation using dental implants in a patient with scleroderma. </text>
  <text x="70.866,77.024,81.372,83.993,88.176,90.717,94.58,97.968,101.334,105.201,109.437,113.259,116.971,119.131,122.204,126.388,128.875,131.035,133.195,137.404,141.237,144.864,148.711,150.965,155.024,159.036,161.162,165.207,169.029,172.917,175.517,179.486" y="121.11199999999997" svg_rhmargin="181.486" style="fill:#171615;font-family:EHOOBT+TimesNewRomanPSMT;font-size:8.0px;font-style:NORMAL;font-weight:normal;">Quintessence Int. 2011;42:781-5.</text>
  <text x="70.866,74.777,78.747,80.907,82.667,88.212,92.014,96.232,98.838,101.32,104.681,107.065,108.825,114.192,120.223,122.383,124.143,128.617,131.226,135.302,139.16,143.32,145.08,147.693,154.161,158.282,160.745,164.668,168.85,171.234,172.994,176.388,180.643,184.932,189.233,193.462,196.653,199.195,203.054,207.214,208.974,211.912,215.693,219.985,223.791,227.961,230.487,233.037,235.421,238.056,241.837,244.442,246.809,251.043,255.203,256.963,261.028,263.852,265.612,269.873,273.801,276.993,279.598,282.047,285.876,288.417,290.814,294.814" y="130.712" svg_rhmargin="296.814" style="fill:#171615;font-family:EHOOBT+TimesNewRomanPSMT;font-size:8.0px;font-style:NORMAL;font-weight:normal;">35. Baptist BA. Fixed implant supported rehabilitation of partially </text>
  <text x="70.866,74.724,78.976,82.844,87.027,89.251,89.74,94.081,96.465,100.672,105.017,108.289,110.289,111.665,115.965,120.225,123.585,126.127,130.001,133.118,135.485,139.715,142.539,144.539,145.915,152.438,156.349,160.705,163.232,165.773,168.237,171.949,173.949,175.325,177.945,182.105,184.105,185.481,189.193,191.193,192.569,196.83,200.61,203.216,205.591,209.457,213.641,216.025,218.025,219.401,225.537,227.921,230.512,234.672,236.672,238.048,241.423,245.662,249.023,251.565,255.424,262.033,264.417,268.129,270.129,271.505,274.882,278.539,280.929,284.803,287.721,292.139" y="140.312" svg_rhmargin="294.803" style="fill:#171615;font-family:EHOOBT+TimesNewRomanPSMT;font-size:8.0px;font-style:NORMAL;font-weight:normal;">edent ulous posterior maxilla in a patient with systemic sclero-</text>
  <text x="70.866,75.118,78.992,82.187,88.711,92.481,94.865,97.025,100.737,102.897,106.707,110.6,113.965,117.677,119.837,122.775,126.675,130.976,135.205,138.396,140.884,143.044,145.204,148.269,154.737,158.858,161.322,165.244,169.427,171.811,173.971,180.031,183.897,188.081,190.569,192.729,194.889,199.097,202.93,206.665,210.716,213.187,217.352,221.218,223.21,227.113,230.998,235.327,238.129,241.916" y="149.91200000000003" svg_rhmargin="243.916" style="fill:#171615;font-family:EHOOBT+TimesNewRomanPSMT;font-size:8.0px;font-style:NORMAL;font-weight:normal;">derma: a case report. Implant Dent. 2016;25:155-9.</text>
  <text x="70.866,74.96,79.137,81.297,83.297,84.281,90.424,92.808,95.413,98.033,102.193,104.193,105.177,111.134,113.294,115.294,116.278,121.415,124.319,128.787,133.221,137.381,139.381,140.365,145.069,147.229,149.229,150.213,156.352,160.132,162.722,166.434,168.434,169.418,172.609,174.769,176.769,177.753,182.414,186.336,190.573,194.383,198.324,202.739,205.288,207.672,209.672,210.656,215.927,218.087,220.087,221.071,227.0,231.229,234.238,237.95,242.11,244.11,245.094,252.492,254.652,256.652,257.636,262.238,266.161,270.321,274.437,278.311,281.428,283.812,285.812,286.796,292.793,294.793" y="159.51199999999994" svg_rhmargin="296.793" style="fill:#171615;font-family:EHOOBT+TimesNewRomanPSMT;font-size:8.0px;font-style:NORMAL;font-weight:normal;">36. Altin N, Ergun S, Katz J, Sancakli E, Koray M, Tanyeri H. </text>
  <text x="70.866,73.932,80.399,84.521,86.984,90.906,95.089,97.438,100.402,103.797,108.052,112.34,116.641,120.871,124.062,126.604,130.462,134.622,136.574,140.804,143.813,147.642,150.026,151.978,154.916,158.697,162.989,166.795,170.965,173.492,176.041,178.425,181.06,184.841,187.446,189.813,194.047,198.207,200.159,204.224,207.048,209.0,212.712,214.664,218.925,222.705,225.311,227.685,231.552,235.736,238.12,240.072,246.209,248.593,251.183,255.343,257.295,261.596,265.455,271.922,276.129,280.507,282.861,287.329,291.674,294.788" y="169.11199999999997" svg_rhmargin="296.788" style="fill:#171615;font-family:EHOOBT+TimesNewRomanPSMT;font-size:8.0px;font-style:NORMAL;font-weight:normal;">Implant-supported oral rehabilitation of a patient with pemphigus </text>
  <text x="70.866,75.368,79.708,82.078,86.332,90.262,93.379,95.861,99.037,101.421,103.581,107.293,109.453,113.11,115.66,118.28,122.665,125.049,128.86,132.689,135.073,137.233,140.17,144.071,148.372,152.601,155.793,158.28,160.44,162.6,165.872,168.032,172.845,175.764,180.024,183.385,185.975,190.186,194.471,198.716,202.949,207.133,209.62,211.78,213.94,218.149,221.981,225.93,229.813,232.283,236.485,240.497,242.795,246.825,250.647,254.535,257.677,261.854" y="178.712" svg_rhmargin="263.854" style="fill:#171615;font-family:EHOOBT+TimesNewRomanPSMT;font-size:8.0px;font-style:NORMAL;font-weight:normal;">vulgaris: a clinical report. J Prosthodont. 2013;22:581-6.</text>
  <text x="70.866,74.852,78.503,80.663,82.663,83.679,88.815,91.719,96.187,100.621,104.781,106.781,107.797,112.502,114.662,116.662,117.678,123.816,127.596,130.188,133.9,135.9,136.916,140.106,142.266,144.266,145.282,150.74,153.256,156.381,158.922,162.797,165.621,167.621,168.637,173.764,179.579,181.739,183.739,184.755,190.684,194.913,197.922,201.634,205.794,207.794,208.81,216.208,218.368,220.368,221.384,226.546,229.913,233.779,237.939,239.939,240.955,246.321,252.417,254.577,256.577,257.593,262.196,266.117,270.277,274.394,278.269,281.385,283.769,285.769,286.785,292.781,294.781" y="188.312" svg_rhmargin="296.781" style="fill:#171615;font-family:EHOOBT+TimesNewRomanPSMT;font-size:8.0px;font-style:NORMAL;font-weight:normal;">37. Ergun S, Katz J, Cifter ED, Koray M, Esen BA, Tanyeri H. </text>
  <text x="70.866,73.932,80.399,84.521,86.984,90.906,95.089,97.438,100.402,103.797,108.052,112.34,116.641,120.871,124.062,126.604,130.462,134.622,136.622,137.662,141.892,144.9,148.73,151.114,153.114,154.154,157.092,160.873,165.165,168.971,173.141,175.667,178.217,180.601,183.236,187.017,189.622,191.989,196.223,200.383,202.383,203.423,207.488,210.312,212.312,213.352,217.064,219.064,220.104,224.365,228.145,230.75,233.125,236.992,241.175,243.559,245.559,246.599,252.736,255.12,257.711,261.871,263.871,264.911,268.285,272.525,275.886,278.428,282.286,288.896,291.28,294.83" y="197.91200000000003" svg_rhmargin="296.83" style="fill:#171615;font-family:EHOOBT+TimesNewRomanPSMT;font-size:8.0px;font-style:NORMAL;font-weight:normal;">Implant-supported oral rehabilitation of a patient with systemic </text>
  <text x="70.866,73.281,77.536,81.742,86.087,89.359,91.359,93.143,97.017,99.681,100.224,104.706,107.297,111.515,115.373,121.897,125.677,128.212,132.472,135.866,140.211,143.386,145.77,147.77,149.554,153.365,157.257,160.623,164.335,166.335,168.119,171.057,174.957,179.257,183.487,186.678,189.062,191.062,192.846,196.768,200.986,205.146,207.146,208.93,211.868,215.645,220.004,222.379,226.163,232.099,234.099,235.883,239.948,242.772,244.772,246.556,249.146,253.365,257.077,259.077,260.861,263.409,265.793,268.335,272.209,275.217,278.998,281.222,281.712,286.153,289.091,292.808,294.807" y="207.51199999999994" svg_rhmargin="296.807" style="fill:#171615;font-family:EHOOBT+TimesNewRomanPSMT;font-size:8.0px;font-style:NORMAL;font-weight:normal;">lupus er ythematosus: case report and review of the literat ure. </text>
  <text x="70.866,77.024,81.372,83.992,88.176,90.717,94.58,97.968,101.333,105.2,109.437,113.259,116.97,119.13,122.203,126.386,128.769,130.929,135.138,138.971,142.806,146.936,149.19,152.919,156.703,158.893,163.058,167.137,171.47,173.918,177.568" y="217.11199999999997" svg_rhmargin="179.568" style="fill:#171615;font-family:EHOOBT+TimesNewRomanPSMT;font-size:8.0px;font-style:NORMAL;font-weight:normal;">Quintessence Int 2010;41:863-7.</text>
  <text x="70.866,74.912,79.106,81.266,83.596,89.517,93.615,96.243,102.8,106.161,108.385,108.852,111.516,112.077,116.332,120.492,122.821,126.765,128.925,131.254,135.773,138.163,142.021,148.464,152.697,157.03,160.302,162.632,165.822,167.982,170.312,177.578,181.366,185.495,187.885,191.597,193.926,197.053,199.213,201.542,207.464,211.697,215.965,218.905,223.027,225.49,229.394,233.661,237.897,241.836,244.653,247.273,251.491,255.757,260.005,263.828,267.686,271.846,274.176,278.535,281.155,285.361,289.721" y="226.712" svg_rhmargin="291.945" style="fill:#171615;font-family:CRUCZX+TimesNewRomanPSMT;font-size:8.0px;font-style:NORMAL;font-weight:normal;">38. Holmst r up P, Plemons J, Meyle J. Non-plaque-induced gingi</text>
  <text x="292.139" y="226.712" svg_rhmargin="294.803" style="fill:#171615;font-family:EHOOBT+TimesNewRomanPSMT;font-size:8.0px;font-style:NORMAL;font-weight:normal;">-</text>
  <text x="70.866,75.072,78.901,81.285,83.445,87.809,90.291,93.657,97.508,101.4,104.767,108.629,111.962,114.122,116.282,119.554,121.714,127.262,129.811,132.432,136.592,138.752,143.262,147.136,150.253,152.621,156.905,161.15,165.384,169.567,172.101,176.2,178.631,180.791,182.951,187.16,190.993,194.739,198.74,200.993,204.956,209.116,211.276,213.877,218.513,222.768,227.056,231.177,233.561,235.721,239.93,243.892,246.575,248.967,253.15,257.496,260.15999999999997,260.71,264.669,268.658" y="236.312" svg_rhmargin="270.658" style="fill:#171615;font-family:EHOOBT+TimesNewRomanPSMT;font-size:8.0px;font-style:NORMAL;font-weight:normal;">val diseases. J Clin Periodontol. 2018;45 (Suppl 20):28- 43.</text>
  <text x="70.866,74.86,78.647,80.807,82.807,84.063,90.126,92.51,94.51,95.766,100.374,103.009,106.902,110.187,112.555,116.715,118.715,119.971,125.787,127.947,129.947,131.203,137.311,141.66,144.05,148.439,152.151,154.151,155.407,161.502,163.662,165.662,166.918,171.58,175.409,177.799,181.673,184.337,184.879,189.097,193.257,195.257,196.513,202.085,204.245,206.245,207.501,213.117,217.351,221.533,224.169,227.998,230.382,234.627,238.787,240.787,242.043,249.44,251.6,253.6,254.856,260.018,263.416,267.716,271.976,275.261,277.645,280.181,284.341,286.341,287.597,292.833,294.833" y="245.91200000000003" svg_rhmargin="296.833" style="fill:#171615;font-family:EHOOBT+TimesNewRomanPSMT;font-size:8.0px;font-style:NORMAL;font-weight:normal;">39. Di Stasio D, Guida A, Saler no C, Contaldo M, Esposito V, </text>
  <text x="70.866,76.051,79.888,82.508,86.726,90.886,92.862,98.125,100.285,102.261,106.068,108.452,110.428,114.256,116.688,118.848,120.824,126.973,129.982,133.812,136.196,138.172,140.721,143.105,146.848,151.066,154.933,159.093,161.069,165.191,167.654,171.577,175.766,180.11,183.286,185.67,187.646,191.358,193.334,197.634,201.564,204.22799999999998,204.766,207.775,211.555,214.161,216.545,220.647,224.359,226.335,229.273,233.05,237.409,239.784,243.569,249.056,251.216,253.192,257.697,260.615,264.849,269.032,271.416,273.392,278.833,281.201,285.461,288.838,292.618,294.841" y="255.51199999999994" svg_rhmargin="296.841" style="fill:#171615;font-family:EHOOBT+TimesNewRomanPSMT;font-size:8.0px;font-style:NORMAL;font-weight:normal;">Laino L, et al. Oral lichen planus: a nar rative review. Front Biosci </text>
  <text x="70.866,73.908,78.943,81.492,83.876,86.418,90.13,92.29,97.512,101.708,104.447,106.607,108.767,112.976,116.808,120.548,124.538,126.843,130.857,133.181,137.167,141.217,145.693,148.834,153.012" y="265.11199999999997" svg_rhmargin="155.012" style="fill:#171615;font-family:EHOOBT+TimesNewRomanPSMT;font-size:8.0px;font-style:NORMAL;font-weight:normal;">(Elite Ed). 2014;6:370-6.</text>
  <text x="70.866,75.154,79.259,81.419,83.411,88.082,91.956,94.62,95.159,98.168,102.089,106.308,110.468,112.46,115.649,117.809,119.801,125.028,129.272,133.573,137.369,141.164,144.065,148.794,151.414,155.597,158.132,162.361,165.185,167.177,173.048,180.445,182.605,184.597,190.657,194.89,199.336,203.202,207.032,209.421,213.217,217.012,219.989,224.661,228.535,231.19899999999998,231.737,234.746,238.668,242.886,247.046,249.038,252.228,254.388,256.38,260.769,264.642,267.306,267.849,272.149,276.071,280.289,284.541,288.337,292.131" y="274.712" svg_rhmargin="294.795" style="fill:#171615;font-family:EHOOBT+TimesNewRomanPSMT;font-size:8.0px;font-style:NORMAL;font-weight:normal;">40. Ser rano J, Lopéz-Pintor RM, González-Ser rano J, Fer nández-</text>
  <text x="70.866,76.474,80.366,83.727,85.95100000000001,86.418,89.336,93.496,95.496,97.204,104.601,106.761,108.761,110.469,116.077,119.969,123.36,127.281,131.581,135.473,138.745,140.745,142.453,147.725,149.885,151.885,153.593,159.498,163.373,166.03699999999998,166.579,170.879,174.801,179.019,183.271,187.067,190.779,192.779,194.487,200.423,202.583,204.583,206.291,212.44,215.449,219.278,221.662,223.662,225.37,227.76,231.622,234.908,237.275,241.509,245.842,249.114,251.114,252.821,255.441,259.601,261.601,263.309,267.831,270.202,274.357,278.802,281.74,285.606,289.406,291.684,294.797" y="284.312" svg_rhmargin="296.797" style="fill:#171615;font-family:EHOOBT+TimesNewRomanPSMT;font-size:8.0px;font-style:NORMAL;font-weight:normal;">Cast ro M, Casañas E, Her nández G. Oral lesions in Sjögren´s </text>
  <text x="70.866,74.241,78.705,82.923,87.38,90.298,94.521,100.97,104.561,106.945,108.945,109.913,113.625,115.625,116.593,119.969,124.209,127.569,130.111,133.969,140.493,144.273,146.879,149.263,152.975,154.975,155.943,158.881,162.657,167.017,169.391,173.176,178.664,180.824,182.824,183.792,191.058,194.917,199.077,201.077,202.045,208.195,211.204,215.033,217.417,219.417,220.385,224.975,228.755,231.29,235.389,237.773,239.773,240.741,246.89,249.899,253.728,256.112,258.112,259.08,264.537,267.166,269.99,271.99,272.958,278.51,282.758,286.568,290.397,292.829,294.829" y="293.912" svg_rhmargin="296.829" style="fill:#171615;font-family:EHOOBT+TimesNewRomanPSMT;font-size:8.0px;font-style:NORMAL;font-weight:normal;">syndrome: a systematic review. Med Oral Patol Oral Cir Bucal. </text>
  <text x="70.866,75.075,78.908,82.652,86.653,89.123,93.299,97.145,99.338,103.042,107.037,110.829,114.717,117.381,117.931,122.219,126.605,130.71" y="303.512" svg_rhmargin="132.71" style="fill:#171615;font-family:EHOOBT+TimesNewRomanPSMT;font-size:8.0px;font-style:NORMAL;font-weight:normal;">2018;23:e391- 400.</text>
  <text x="70.866,74.596,78.44,80.6,82.6,83.728,88.073,91.853,94.388,98.493,102.611,106.323,108.323,109.451,113.525,115.685,117.685,118.813,124.884,128.676,132.938,135.60199999999998,136.145,140.261,143.973,145.973,147.101,151.737,153.897,155.897,157.025,161.633,165.733,169.601,173.934,177.298,181.532,185.692,187.692,188.82,193.312,200.399,202.559,204.559,205.687,211.19,215.041,218.871,221.302,224.035,229.892,234.121,236.958,239.342,243.502,245.502,246.63,249.251,253.488,257.268,259.657,263.909,267.777,272.013,275.835,279.547,281.547,282.675,286.597,290.816,294.815" y="313.112" svg_rhmargin="296.815" style="fill:#171615;font-family:EHOOBT+TimesNewRomanPSMT;font-size:8.0px;font-style:NORMAL;font-weight:normal;">41. Fatoye F, Gebr ye T, Svenson LW. Real-world incidence and </text>
  <text x="70.866,75.128,78.066,81.844,86.049,89.879,92.268,96.135,100.372,104.194,107.906,109.906,110.434,114.499,117.323,119.323,119.851,123.226,127.466,130.826,133.368,137.227,143.836,146.22,149.932,151.932,152.46,154.874,159.129,163.336,167.681,170.953,172.953,173.481,177.355,180.01899999999998,180.561,185.044,187.634,191.853,195.711,202.235,206.015,208.549,212.809,216.204,220.549,223.821,225.821,226.349,228.969,233.129,235.129,235.657,241.8,244.225,248.511,252.385,255.577,258.212,262.137,264.297,266.297,266.825,272.433,276.355,280.655,284.55,288.939,292.801,294.801" y="322.712" svg_rhmargin="296.801" style="fill:#171615;font-family:EHOOBT+TimesNewRomanPSMT;font-size:8.0px;font-style:NORMAL;font-weight:normal;">prevalence of systemic lupus er ythematosus in Alberta, Canada. </text>
  <text x="70.866,76.735,80.953,84.76,89.187,95.711,99.491,102.025,106.124,108.507,110.667,113.74,117.924,120.411,122.571,124.731,128.94,132.772,136.519,140.52,142.912,146.958,150.901,152.894,156.55,160.651,164.449,168.337,170.861,174.517,178.618,182.79,186.968" y="332.312" svg_rhmargin="188.968" style="fill:#171615;font-family:EHOOBT+TimesNewRomanPSMT;font-size:8.0px;font-style:NORMAL;font-weight:normal;">Rheumatol Int. 2018;38:1721-1726.</text>
  <text x="70.866,74.925,79.195,81.355,83.355,85.371,89.845,92.465,96.691,100.403,102.403,104.419,108.01,113.763,115.923,117.923,119.939,125.045,129.215,131.605,135.857,139.716,146.324,148.692,152.791,155.175,159.329,163.778,167.938,169.938,171.954,176.019,178.843,180.843,182.859,185.48,189.951,194.169,198.043,201.16,203.544,206.086,209.945,214.105,216.105,218.121,222.021,226.191,228.581,232.833,236.706,239.36999999999998,239.901,246.344,250.442,252.838,257.078,260.364,262.846,266.118,268.118,270.134,274.341,278.681,281.223,283.607,287.867,291.257,294.808" y="341.912" svg_rhmargin="296.808" style="fill:#171615;font-family:EHOOBT+TimesNewRomanPSMT;font-size:8.0px;font-style:NORMAL;font-weight:normal;">42. Fine JD. Epidemiology of inherited epider molysis bullosa </text>
  <text x="70.866,75.109,79.001,82.368,86.226,90.386,92.386,93.702,97.936,102.096,104.096,105.412,108.032,112.268,116.048,118.439,122.69,126.557,130.794,134.616,138.328,140.328,141.643,145.565,149.784,153.944,155.944,157.259,161.521,164.459,168.237,172.443,176.272,178.661,182.529,186.765,190.587,194.299,196.299,197.614,201.477,204.837,207.444,210.056,216.579,220.36,222.901,226.764,230.036,232.036,233.352,236.487,239.406,243.628,250.012,252.012,253.327,255.918,260.137,263.849,265.849,267.165,271.465,275.245,277.851,280.218,284.452,288.752,292.581,294.803" y="351.512" svg_rhmargin="296.803" style="fill:#171615;font-family:EHOOBT+TimesNewRomanPSMT;font-size:8.0px;font-style:NORMAL;font-weight:normal;">based on incidence and prevalence estimates from the national </text>
  <text x="70.866,74.766,78.936,81.326,85.578,89.452,92.116,92.647,99.089,103.187,105.584,109.824,113.109,115.591,118.863,120.863,121.823,126.029,130.37,132.912,135.296,139.556,142.946,146.658,148.658,149.618,152.556,156.297,160.656,163.138,166.498,168.72199999999998,169.19,171.85399999999998,172.397,176.122,178.282,180.282,181.242,184.288,190.525,198.097,204.033,206.033,206.993,213.053,216.926,219.58999999999997,220.121,226.645,230.425,232.96,237.058,239.489,241.649,243.649,244.609,248.818,252.651,256.387,260.437,262.509,266.412,270.371,274.383,276.375,280.402,284.577,288.245,292.133" y="361.112" svg_rhmargin="294.797" style="fill:#171615;font-family:EHOOBT+TimesNewRomanPSMT;font-size:8.0px;font-style:NORMAL;font-weight:normal;">epider molysis bullosa regist r y. JAMA Der matol. 2016;152:1231-</text>
  <text x="70.866,75.058" y="370.712" svg_rhmargin="77.058" style="fill:#171615;font-family:EHOOBT+TimesNewRomanPSMT;font-size:8.0px;font-style:NORMAL;font-weight:normal;">8.</text>
  <text x="70.866,74.824,78.814,80.974,82.974,83.79,89.278,93.384,97.512,99.901,103.613,105.613,106.429,109.686,115.69,117.85,119.85,120.666,125.851,129.773,133.933,138.027,142.261,146.421,148.421,149.237,153.929,159.501,161.661,163.661,164.477,170.682,173.691,177.528,180.148,184.354,188.534,192.246,194.246,195.062,202.557,205.747,207.907,209.907,210.723,216.685,220.893,225.27,227.753,231.08,235.298,239.095,243.255,245.255,246.071,252.165,254.325,256.325,257.141,261.653,265.504,269.433,272.368,276.189,279.901,281.901,282.717,286.774,292.805,294.805" y="380.312" svg_rhmargin="296.805" style="fill:#171615;font-family:EHOOBT+TimesNewRomanPSMT;font-size:8.0px;font-style:NORMAL;font-weight:normal;">43. Royle JG, Lanyon PC, Grainge MJ, Abhishek A, Pearce FA. </text>
  <text x="70.866,76.167,80.385,84.097,86.097,88.305,90.926,95.163,98.943,101.332,105.584,109.452,113.688,117.51,121.291,123.451,125.451,127.659,131.921,134.859,138.636,142.843,146.672,149.061,152.928,157.165,160.987,164.767,166.927,168.927,171.135,175.057,179.275,183.435,185.435,187.643,191.037,195.478,198.673,203.033,205.417,209.623,213.452,215.836,217.836,220.044,224.109,226.933,228.933,231.141,234.515,238.755,242.116,244.657,248.516,255.125,257.509,261.221,263.221,265.429,268.806,272.464,274.853,278.728,281.646,285.905,289.191,291.673,294.787" y="389.912" svg_rhmargin="296.787" style="fill:#171615;font-family:EHOOBT+TimesNewRomanPSMT;font-size:8.0px;font-style:NORMAL;font-weight:normal;">The incidence, prevalence, and survival of systemic sclerosis </text>
  <text x="70.866,73.486,77.646,79.646,81.054,83.645,87.863,91.575,93.575,94.983,101.223,107.159,109.159,110.563,114.22,116.769,119.389,123.775,126.159,129.969,133.798,136.182,138.182,139.586,143.849,146.857,150.735,154.557,157.162,159.546,163.369,167.081,169.081,170.489,173.426,177.289,180.654,184.506,188.435,191.369,195.113,199.273,201.273,202.677,207.065,210.846,213.481,217.31,219.86,222.48,226.97,231.275,233.435,235.435,236.839,242.387,244.936,247.557,251.717,253.717,255.125,260.993,265.212,269.018,273.446,279.969,283.75,286.284,290.382,292.814,294.814" y="399.512" svg_rhmargin="296.814" style="fill:#171615;font-family:EHOOBT+TimesNewRomanPSMT;font-size:8.0px;font-style:NORMAL;font-weight:normal;">in the UK clinical practice research datalink. Clin Rheumatol. </text>
  <text x="70.866,75.075,78.908,82.654,86.655,89.047,93.033,96.848,99.24,103.038,106.874,111.002,115.335,117.859,121.486,125.33" y="409.112" svg_rhmargin="127.33" style="fill:#171615;font-family:EHOOBT+TimesNewRomanPSMT;font-size:8.0px;font-style:NORMAL;font-weight:normal;">2018;37:2103-11.</text>
  <text x="70.866,75.244,79.373,81.533,83.781,89.677,93.936,98.19,102.416,106.29,109.114,111.362,115.436,117.596,119.844,125.347,129.218,132.953,137.096,140.808,143.056,149.151,151.311,153.559,158.661,161.188,163.73,166.279,168.917,173.06,176.927,181.26,184.533,186.781,192.597,194.757,197.005,202.053,204.673,208.891,213.143,217.017,219.841,222.089,227.818,229.978,232.226,236.909,240.652,245.108,251.717,254.106,258.339,260.723,262.971,268.163,270.323,272.571,277.385,280.323,284.1,288.306,292.139" y="418.712" svg_rhmargin="294.803" style="fill:#171615;font-family:EHOOBT+TimesNewRomanPSMT;font-size:8.0px;font-style:NORMAL;font-weight:normal;">44. Hübner F, Recke A, Zillikens D, Linder R, Schmidt E. Preva-</text>
  <text x="70.866,73.256,77.123,81.36,85.181,88.893,90.901,94.824,99.042,103.202,105.21,109.02,113.2,116.912,118.92,123.284,125.766,129.127,131.351,131.818,134.935,137.395,141.601,145.819,148.425,150.793,155.026,159.186,161.194,165.259,168.083,170.091,174.392,178.251,184.718,188.925,193.303,195.657,200.125,204.47,207.742,209.75,213.673,217.891,222.051,224.059,228.36,232.219,238.686,242.893,247.271,249.625,253.785,257.929,260.319,264.479,266.487,270.85,273.333,276.699,280.55,284.443,287.809,291.672,294.785" y="428.312" svg_rhmargin="296.785" style="fill:#171615;font-family:EHOOBT+TimesNewRomanPSMT;font-size:8.0px;font-style:NORMAL;font-weight:normal;">lence and age dist ribution of pemphigus and pemphigoid diseases </text>
  <text x="70.866,73.486,77.646,79.806,85.877,89.751,92.946,99.47,103.392,107.552,111.277,113.437,115.597,118.869,121.029,124.103,128.25,132.352,136.215,139.575,141.959,144.119,150.178,154.053,157.248,163.771,167.551,170.086,174.185,176.616,178.776,180.936,185.145,188.977,192.713,196.764,198.835,202.784,206.877,210.892,213.284,217.501,221.577,225.722,230.051,233.036,237.229" y="437.912" svg_rhmargin="239.229" style="fill:#171615;font-family:EHOOBT+TimesNewRomanPSMT;font-size:8.0px;font-style:NORMAL;font-weight:normal;">in Germany. J Invest Dermatol. 2016;136:2495-8.</text>
  <text x="70.866,74.828,78.798,80.958,82.958,84.294,89.902,93.824,98.042,102.294,105.989,108.421,111.323,118.688,122.618,125.809,128.415,130.799,132.799,134.135,141.66,146.931,149.091,151.091,152.427,158.353,160.988,164.793,167.542,173.685,176.233,178.617,180.617,181.953,185.144,187.304,189.304,190.64,195.15,199.017,203.317,207.246,209.91,210.449,213.367,217.664,221.407,225.699,229.504,232.633,238.551,240.935,243.159,243.626,246.635,250.347,252.347,253.683,259.498,261.658,263.658,264.994,269.505,273.372,277.672,281.601,284.265,284.803,287.721,292.139" y="447.512" svg_rhmargin="294.803" style="fill:#171615;font-family:EHOOBT+TimesNewRomanPSMT;font-size:8.0px;font-style:NORMAL;font-weight:normal;">45. Candel-Marti ME, Ata-Ali J, Peñar rocha-Olt ra D, Peñar ro-</text>
  <text x="70.866,74.608,78.9,82.706,85.604,91.666,94.115,97.924,102.084,106.244,108.244,109.748,117.145,119.305,121.305,122.809,128.354,132.164,136.418,140.341,144.501,146.501,148.001,151.626,156.8,158.96,160.96,162.46,168.52,172.386,176.569,179.205,183.034,185.418,187.418,188.922,191.534,198.001,202.123,204.587,208.509,212.692,215.271,218.543,220.543,222.043,224.664,228.824,230.824,232.324,236.585,240.365,242.971,245.345,249.213,253.396,255.975,259.247,261.247,262.747,268.884,271.268,273.859,278.019,280.019,281.523,285.753,288.761,292.59,294.813" y="457.112" svg_rhmargin="296.813" style="fill:#171615;font-family:EHOOBT+TimesNewRomanPSMT;font-size:8.0px;font-style:NORMAL;font-weight:normal;">cha-Diago M, Bagán JV. Dental implants in patients with oral </text>
  <text x="70.866,77.279,81.527,85.36,89.62,93.009,96.839,99.223,101.223,102.039,105.868,108.252,110.794,114.668,117.676,121.457,124.063,126.43,130.664,134.997,138.173,140.557,142.557,143.373,149.609,153.769,155.769,156.585,160.84,165.141,169.529,173.309,175.851,179.568,181.728,183.728,184.544,191.81,195.669,199.829,201.829,202.645,208.795,211.804,215.633,218.017,220.017,220.833,225.423,229.203,231.738,235.836,238.22,240.22,241.036,247.185,250.194,254.024,256.408,258.408,259.224,264.682,267.31,270.134,272.134,272.95,278.501,282.75,286.56,290.389,292.821,294.821" y="466.712" svg_rhmargin="296.821" style="fill:#171615;font-family:EHOOBT+TimesNewRomanPSMT;font-size:8.0px;font-style:NORMAL;font-weight:normal;">mucosal alterations: An update. Med Oral Patol Oral Cir Bucal. </text>
  <text x="70.866,75.075,78.908,82.535,86.383,88.455,92.191,96.205,98.398,101.811,105.856,110.005,113.981,116.784,120.926,124.916" y="476.312" svg_rhmargin="126.916" style="fill:#171615;font-family:EHOOBT+TimesNewRomanPSMT;font-size:8.0px;font-style:NORMAL;font-weight:normal;">2011;16:e787-93.</text>
  <text x="70.866,75.143,79.32,81.48,83.48,84.512,88.986,91.607,95.832,99.544,101.544,102.576,106.168,111.92,114.08,116.08,117.112,120.186,124.657,128.876,132.749,135.866,138.25,140.792,144.65,148.81,150.81,151.842,155.743,159.913,162.302,166.554,170.428,173.09199999999998,173.624,180.065,184.164,186.56,190.8,194.085,196.568,199.84,201.84,202.872,207.078,211.419,213.961,216.345,220.605,223.995,227.766,230.15,232.15,233.182,237.443,241.335,244.696,247.247,249.407,251.407,252.439,256.701,259.639,263.502,266.868,270.734,274.918,277.469,279.629,281.629,282.661,286.583,290.801,294.801" y="485.912" svg_rhmargin="296.801" style="fill:#171615;font-family:EHOOBT+TimesNewRomanPSMT;font-size:8.0px;font-style:NORMAL;font-weight:normal;">46. Fine JD. Inherited epider molysis bullosa: past, present, and </text>
  <text x="70.866,74.024,78.242,80.46600000000001,80.956,85.397,88.335,92.052,94.212,96.372,102.607,107.079,111.239,113.399,119.335,121.495,127.431,129.591,135.468,139.277,143.173,147.333,149.493,154.176,157.957,160.373,162.533,164.693,168.901,172.734,176.57,180.7,182.771,186.398,190.309,194.556,198.512,200.904,204.702,208.651,212.984,215.621,219.822,224.092" y="495.512" svg_rhmargin="226.092" style="fill:#171615;font-family:EHOOBT+TimesNewRomanPSMT;font-size:8.0px;font-style:NORMAL;font-weight:normal;">fut ure. Ann N Y Acad Sci. 2010;1194:213-22.</text>
  <text x="70.866,74.829,78.48,80.64,82.64,83.437,88.026,91.807,94.349,98.044,100.428,102.428,103.224,109.393,111.553,113.553,114.349,121.649,125.345,127.876,130.772,134.701,137.638,141.35,143.35,144.146,149.874,152.034,154.034,154.83,160.445,164.73,168.964,173.264,177.193,180.017,182.017,182.813,188.822,193.464,195.624,197.624,198.42,203.721,207.939,211.651,213.651,214.447,218.709,221.629,225.722,230.081,232.565,235.849,238.217,242.45,246.61,248.61,249.406,253.471,256.295,258.295,259.09,263.342,267.209,271.393,274.028,277.857,280.241,282.241,283.037,285.649,292.139" y="505.112" svg_rhmargin="294.803" style="fill:#171615;font-family:EHOOBT+TimesNewRomanPSMT;font-size:8.0px;font-style:NORMAL;font-weight:normal;">47. Patel K, Welfare R, Coonar HS. The provision of dental im-</text>
  <text x="70.866,74.988,77.451,81.373,85.556,88.136,91.408,93.408,94.74,98.661,102.88,107.04,109.04,110.371,114.083,116.083,117.414,122.254,126.33,130.189,134.349,136.349,137.68,141.942,144.861,149.121,152.481,155.072,159.29,163.153,166.438,168.921,172.193,174.193,175.524,178.144,182.304,184.304,185.635,188.225,192.444,196.156,198.156,199.487,201.71099999999998,202.178,205.116,208.968,212.748,214.97199999999998,215.432,221.881,225.748,229.931,232.315,234.315,235.646,239.711,242.535,244.535,245.866,249.578,251.578,252.91,257.17,260.95,263.556,265.931,269.797,273.981,276.365,278.365,279.697,285.833,288.217,290.808,294.808" y="514.712" svg_rhmargin="296.808" style="fill:#171615;font-family:CRUCZX+TimesNewRomanPSMT;font-size:8.0px;font-style:NORMAL;font-weight:normal;">plants and a fixed prosthesis in the t reat ment of a patient with </text>
  <text x="70.866,74.244,77.9,80.29,84.164,87.083,91.368,95.62,99.493,102.157,102.688,109.212,112.983,115.367,117.527,121.239,123.399,127.056,129.605,132.225,136.611,138.995,142.804,146.634,149.018,151.178,154.116,158.016,162.317,166.546,169.737,172.225,174.385,176.545,179.817,181.977,186.791,189.709,193.969,197.33,199.921,204.139,207.946,210.33,212.49,218.549,222.417,226.6,229.087,231.247,233.407,237.317,241.572,245.709,249.71,251.829,255.905,259.987,262.265,266.045,269.673,273.561,276.702,280.482,284.509,288.778" y="524.312" svg_rhmargin="290.778" style="fill:#171615;font-family:EHOOBT+TimesNewRomanPSMT;font-size:8.0px;font-style:NORMAL;font-weight:normal;">scleroder ma: a clinical report. J Prosthet Dent. 1998;79:611-612.</text>
  <text x="70.866,75.076,79.269,81.429,83.429,85.021,90.566,94.496,97.414,101.647,105.807,107.807,109.399,116.796,118.956,120.956,122.548,128.443,132.701,137.061,140.426,144.66,148.82,150.82,152.412,159.809,161.969,163.969,165.561,170.164,173.945,176.55,179.01,183.295,187.501,191.738,195.545,197.929,199.929,201.521,206.225,208.385,210.385,211.977,216.585,219.128,222.987,226.682,229.073,232.785,234.785,236.377,242.105,244.265,246.265,247.857,253.083,257.243,259.243,260.835,266.107,268.267,270.267,271.859,278.064,281.073,284.771,288.873,292.568,294.791" y="533.912" svg_rhmargin="296.791" style="fill:#171615;font-family:EHOOBT+TimesNewRomanPSMT;font-size:8.0px;font-style:NORMAL;font-weight:normal;">48. Baron M, Hudson M, Tatibouet S, Steele R, Lo E, Gravel </text>
  <text x="70.866,75.571,77.731,79.731,81.355,85.162,87.546,89.546,91.17,95.0,97.431,99.591,101.591,103.215,108.718,112.413,114.877,118.657,121.263,123.631,127.865,132.198,135.525,139.902,142.321,146.481,148.481,150.105,154.39,158.197,160.421,160.889,166.768,170.627,174.494,178.654,180.654,182.278,186.642,189.125,192.49,196.342,200.234,203.601,207.313,209.313,210.937,214.68,218.972,222.901,225.909,229.788,233.609,236.15,240.025,243.141,245.624,248.985,251.59,253.974,257.778,261.05,263.05,264.674,268.597,272.815,276.975,278.975,280.599,284.829,287.747,292.139" y="543.512" svg_rhmargin="294.803" style="fill:#171615;font-family:EHOOBT+TimesNewRomanPSMT;font-size:8.0px;font-style:NORMAL;font-weight:normal;">S, et al. Relationship bet ween disease characteristics and oro-</text>
  <text x="70.866,73.762,77.64,81.42,83.868,87.698,90.082,92.082,93.698,100.222,104.144,108.529,111.045,113.837,117.7,121.06,123.696,127.476,130.081,132.449,136.682,141.016,144.288,146.288,147.904,150.525,154.685,156.685,158.301,161.676,165.915,169.276,171.817,175.677,182.285,184.669,188.381,190.381,191.997,195.375,199.032,201.421,205.296,208.214,212.474,215.759,218.242,221.417,223.801,225.801,227.417,233.025,236.947,241.247,245.143,249.505,251.954,255.876,260.036,262.036,263.652,268.268,272.508,275.869,278.41,282.269,288.878,291.262,294.813" y="553.112" svg_rhmargin="296.813" style="fill:#171615;font-family:EHOOBT+TimesNewRomanPSMT;font-size:8.0px;font-style:NORMAL;font-weight:normal;">facial manifestations in systemic sclerosis: Canadian Systemic </text>
  <text x="70.866,75.549,79.206,81.596,85.47,88.388,92.648,95.933,98.416,101.688,103.688,104.992,111.141,114.15,117.979,120.363,122.363,123.667,129.573,133.424,137.253,139.637,142.228,146.388,148.388,149.692,154.3,156.524,157.013,161.272,165.519,169.679,171.679,172.983,176.029,179.074,181.944,184.104,186.104,187.408,193.65,196.841,199.432,203.904,207.021,209.405,212.01,214.493,217.765,219.765,221.069,226.677,230.605,233.543,237.255,239.255,240.559,246.062,249.925,253.197,255.197,256.501,259.553,265.475,269.668,273.953,278.153,282.296,286.162,290.068,292.806,294.806" y="562.712" svg_rhmargin="296.806" style="fill:#171615;font-family:EHOOBT+TimesNewRomanPSMT;font-size:8.0px;font-style:NORMAL;font-weight:normal;">Sclerosis Oral Health St udy III. Arthritis Care Res (Hoboken). </text>
  <text x="70.866,75.075,78.908,82.812,86.712,89.017,93.047,96.861,99.14,103.323,107.145,111.033,113.835,118.124,122.229" y="572.312" svg_rhmargin="124.229" style="fill:#171615;font-family:EHOOBT+TimesNewRomanPSMT;font-size:8.0px;font-style:NORMAL;font-weight:normal;">2015;67:681-90.</text>
  <text x="70.866,74.942,78.729,80.889,82.897,87.407,91.214,93.438,93.905,97.022,99.406,101.414,108.812,110.972,112.98,119.129,122.081,126.324,130.161,132.545,134.553,140.789,148.186,150.346,152.354,158.497,160.96,164.889,167.823,171.656,175.889,180.049,182.057,188.051,192.757,194.917,196.925,202.985,207.214,210.118,214.363,218.597,222.757,224.765,230.337,232.497,234.505,241.771,245.645,248.309,248.848,251.965,254.491,257.033,259.417,261.425,264.945,269.581,271.741,273.749,278.153,282.382,285.573,288.179,290.799,294.799" y="581.912" svg_rhmargin="296.799" style="fill:#171615;font-family:EHOOBT+TimesNewRomanPSMT;font-size:8.0px;font-style:NORMAL;font-weight:normal;">49. Pet ri M, Orbai AM, Alarcón GS, Gordon C, Mer rill JT, Fortin </text>
  <text x="70.866,75.395,81.123,83.283,85.283,85.731,89.538,91.922,93.922,94.37,98.2,100.631,102.791,104.791,105.239,111.299,115.173,118.289,120.673,124.88,128.661,131.266,133.633,137.867,142.027,144.027,144.475,148.397,152.616,156.776,158.776,159.224,163.43,167.259,169.808,172.198,176.587,180.367,182.973,185.341,189.574,193.734,195.734,196.182,200.247,203.071,205.071,205.519,208.109,212.328,216.04,218.04,218.488,223.104,227.344,230.705,233.246,237.105,243.714,246.098,249.81,251.81,252.258,257.332,261.587,265.793,270.138,273.41,275.41,275.858,278.932,283.115,285.657,289.531,292.139" y="591.512" svg_rhmargin="294.803" style="fill:#171615;font-family:EHOOBT+TimesNewRomanPSMT;font-size:8.0px;font-style:NORMAL;font-weight:normal;">PR, et al. Derivation and validation of the Systemic Lupus Inter-</text>
  <text x="70.866,75.166,78.946,81.552,83.92,88.153,92.453,96.282,98.666,100.666,101.076,106.691,110.789,113.331,115.795,119.601,123.885,128.115,131.124,134.904,137.51,140.13,144.337,148.497,150.497,150.907,156.454,159.004,161.624,166.009,168.393,172.197,175.469,177.469,177.88,181.537,184.001,187.893,191.281,194.565,197.187,201.804,205.613,209.394,212.0,214.367,218.601,222.761,224.761,225.171,229.044,232.161,234.545,237.087,240.961,244.077,246.526,250.238,252.238,252.649,255.418,259.648,262.472,264.472,264.882,268.257,272.497,275.857,278.399,282.257,288.867,291.251,294.801" y="601.112" svg_rhmargin="296.801" style="fill:#171615;font-family:CRUCZX+TimesNewRomanPSMT;font-size:8.0px;font-style:NORMAL;font-weight:normal;">national Collaborating Clinics classification criteria for systemic </text>
  <text x="70.866,73.281,77.536,81.742,86.087,89.359,91.519,95.393,98.057,98.599,103.081,105.672,109.89,113.749,120.273,124.053,126.588,130.848,134.241,138.586,141.919,144.079,146.239,152.481,155.673,158.264,162.736,165.853,168.237,170.842,173.325,176.597,178.757,184.626,188.845,192.651,197.078,203.569,205.729,207.889,212.098,215.931,219.957,224.029,226.334,230.697,234.653,237.045,241.217,245.247,249.36,253.336,256.321,260.485,264.663" y="610.712" svg_rhmargin="266.663" style="fill:#171615;font-family:EHOOBT+TimesNewRomanPSMT;font-size:8.0px;font-style:NORMAL;font-weight:normal;">lupus er ythematosus. Arthritis Rheum. 2012;64:2677-86.</text>
  <text x="70.866,75.0,79.105,81.265,83.265,83.793,89.008,92.788,97.244,103.768,107.69,111.85,113.85,114.378,119.344,122.471,124.631,126.631,127.155,133.091,135.091,135.619,139.881,142.89,146.768,150.589,153.195,155.579,159.389,163.218,165.602,167.602,168.13,172.598,176.947,179.337,183.589,187.301,189.301,189.825,192.36,196.52,198.52,199.044,202.419,206.659,210.019,212.561,216.42,223.029,225.413,229.125,231.125,231.653,234.067,238.322,242.529,246.873,250.145,252.145,252.673,256.548,259.212,259.754,264.236,266.827,271.045,274.904,281.427,285.208,287.742,292.139" y="620.312" svg_rhmargin="294.803" style="fill:#171615;font-family:EHOOBT+TimesNewRomanPSMT;font-size:8.0px;font-style:NORMAL;font-weight:normal;">50. Lehman TJ. A practical guide to systemic lupus er ythemato-</text>
  <text x="70.866,74.26,78.605,81.937,84.097,86.257,90.768,94.627,98.99,101.438,105.219,107.443,107.91,110.734,112.894,118.442,120.991,123.611,127.771,129.931,135.853,140.083,143.274,145.865,150.025,152.185,158.413,164.903,167.063,169.223,173.133,177.388,181.533,185.433,187.687,191.746,195.758,197.75,201.777,205.978,210.154,214.487,216.991,221.037,225.231" y="629.912" svg_rhmargin="227.231" style="fill:#171615;font-family:EHOOBT+TimesNewRomanPSMT;font-size:8.0px;font-style:NORMAL;font-weight:normal;">sus. Pediat r Clin North Am. 1995;42:1223-38.</text>
  <text x="70.866,76.309,80.405,84.977,89.576,91.928,95.698,98.124,101.236,103.236,107.29,109.954,111.954,115.066,119.647,122.019,125.745,128.96,132.73,136.052,138.479" y="649.112" svg_rhmargin="141.591" style="fill:#171615;font-family:CRUCZX+TimesNewRomanPS-BoldItalicMT;font-size:8.0px;font-style:ITALIC;font-weight:bold;">Conflicts of Interests</text>
  <text x="70.866,76.629,80.629,82.381,85.379,89.653,93.712,97.915,100.375,104.421,108.421,110.174,114.233,118.302,120.966,122.718,126.754,129.185,133.243,136.957,139.621,141.373,146.065,150.205,153.967,158.044,161.665,163.953,167.621,169.845,171.597,175.655,179.725,182.389,184.141,188.177,190.608,194.666,198.38,201.044,202.797,206.03,210.125,214.254,218.395,222.465,225.496,227.72,229.471,235.295,239.027,242.139,243.893,246.67,250.381,254.043,257.663,259.887,263.829,267.527,271.527,273.28,277.289,281.289,283.041,286.803,290.803,294.803" y="658.712" svg_rhmargin="296.803" style="fill:#171615;font-family:CRUCZX+TimesNewRomanPSMT;font-size:8.0px;font-style:NORMAL;font-weight:normal;">No funding nor other financial nor other support was received by any </text>
  <text x="70.866,74.494,78.551,80.982,85.033,89.103,91.767,94.159,100.136,102.36,104.791,108.791,111.183,113.961,117.541,121.636,125.405,128.149,132.149,134.541,136.915,140.915,143.307,145.737,149.955,152.277,155.389,157.781,160.997,165.077,168.277,170.659,174.357,180.721,184.341,186.787,189.011,192.563,194.951,197.729,201.345,205.545,207.759,211.384,216.712,218.712,221.104,227.086,229.468,231.692,234.08,237.707,241.765,244.196,248.247,252.317,255.169,258.281,260.673,264.765,268.475,271.973,274.276,278.045,280.823,284.375,286.763,290.821,294.821" y="668.312" svg_rhmargin="296.821" style="fill:#171615;font-family:EHOOBT+TimesNewRomanPSMT;font-size:8.0px;font-style:NORMAL;font-weight:normal;">author with regard to this systematic review. All authors declare no </text>
  <text x="70.866,74.539,78.613,82.926,87.534,89.758,93.42,95.644,97.644,101.547,104.211,106.211,108.672,112.694,115.077,118.79,121.568,125.271,128.472,130.891,134.063" y="677.912" svg_rhmargin="136.063" style="fill:#171615;font-family:CRUCZX+TimesNewRomanPSMT;font-size:8.0px;font-style:NORMAL;font-weight:normal;">conflict of interests.</text>
 </g>
</svg>
