<?xml version="1.0" encoding="UTF-8"?>
<svg height="870.031005859375" width="672.0029907226562" xmlns="http://www.w3.org/2000/svg">
 <g style="fill:none;">
  <path d=" M 0.05999799817800522 826.072021484375 L 22.619997024536133 826.072021484375 L 22.619997024536133 826.35546875 L 0.05999799817800522 826.35546875 Z " style="fill:none;stroke:#000000;stroke-width:1.0;"/>
  <path d=" M 33.67599868774414 837.4110107421875 L 33.959449768066406 837.4110107421875 L 33.959449768066406 860.031005859375 L 33.67599868774414 860.031005859375 Z " style="fill:none;stroke:#000000;stroke-width:1.0;"/>
  <path d=" M 627.9869995117188 837.4110107421875 L 628.2703857421875 837.4110107421875 L 628.2703857421875 860.031005859375 L 627.9869995117188 860.031005859375 Z " style="fill:none;stroke:#000000;stroke-width:1.0;"/>
  <path d=" M 639.3259887695312 826.072021484375 L 662.0029907226562 826.072021484375 L 662.0029907226562 826.35546875 L 639.3259887695312 826.35546875 Z " style="fill:none;stroke:#000000;stroke-width:1.0;"/>
  <path d=" M 639.3259887695312 33.731998443603516 L 662.0029907226562 33.731998443603516 L 662.0029907226562 34.015480041503906 L 639.3259887695312 34.015480041503906 Z " style="fill:none;stroke:#000000;stroke-width:1.0;"/>
  <path d=" M 627.9869995117188 0.0 L 628.2703857421875 0.0 L 628.2703857421875 22.677000045776367 L 627.9869995117188 22.677000045776367 Z " style="fill:none;stroke:#000000;stroke-width:1.0;"/>
  <path d=" M 33.67599868774414 0.0 L 33.959449768066406 0.0 L 33.959449768066406 22.677000045776367 L 33.67599868774414 22.677000045776367 Z " style="fill:none;stroke:#000000;stroke-width:1.0;"/>
  <path d=" M 0.05999799817800522 33.731998443603516 L 22.619997024536133 33.731998443603516 L 22.619997024536133 34.015480041503906 L 0.05999799817800522 34.015480041503906 Z " style="fill:none;stroke:#000000;stroke-width:1.0;"/>
  <text x="85.039,89.989,92.876,96.662,101.611,108.049,113.931,118.88,122.626,125.047,129.996,133.738,137.656,142.139,147.089,151.007,154.925,158.377,162.141,167.09,171.573,174.46,176.881,180.799,185.749,188.636,192.088,195.872,202.776,206.694,210.146,214.064,217.811,220.232,225.182,229.665,233.583,237.035,239.922,242.343,246.826,251.31,254.197,258.115,263.064,265.485,269.287,276.191,280.109,282.996,286.915,290.833,293.72,296.141,301.09,305.573,309.367,313.85,317.769,322.718,326.636" y="313.688" svg_rhmargin="330.088" style="fill:#171615;font-family:NCNEAO+AdvOTbc475f09;font-size:8.97px;font-style:NORMAL;font-weight:normal;">of PVT1 in cancer patients were investigated. Detecting genes</text>
  <text x="85.039,88.958,91.379,96.328,99.78,103.698,106.119,110.602,112.874,116.326,120.245,122.666,127.149,130.036,133.954,138.90300000000002,141.22,144.107,149.056,151.311,156.261,159.713,164.662,169.145,174.094,179.044,182.496,184.917,188.369,190.654,195.138,200.087,205.036,207.322,210.209,212.63,216.082,219.534,224.483,228.401,230.679,235.628,238.049,240.936,243.824,247.742,251.194,255.112,260.062,262.949,265.37,269.853,272.74,275.161,280.11,285.059,287.427,294.331,299.28,304.23,306.65,311.599,313.845,318.794,322.713,325.134" y="324.686" svg_rhmargin="330.083" style="fill:#171615;font-family:NCNEAO+AdvOTbc475f09;font-size:8.97px;font-style:NORMAL;font-weight:normal;">closely related to prognosis and tissue differentiation would help</text>
  <text x="85.039,87.927,92.876,94.904,99.854,103.772,106.659,109.546,113.464,116.916,118.997,123.947,128.896,133.846,137.764,141.216,144.668,147.555,152.038,156.988,161.937,164.01,166.897,171.847,175.76500000000001,177.843,185.214,189.132,193.05,198.0,202.483,207.432,209.853,213.305,220.675,222.743,227.692,230.579,232.664,235.551,240.501,247.871,252.82,256.272,258.693,263.176,267.095,272.044,275.962,279.414,281.835,285.287,287.70799999999997,289.752,295.634,300.583,303.004,306.456,308.516,315.887,319.805,322.692,327.175" y="335.628" svg_rhmargin="330.062" style="fill:#171615;font-family:NCNEAO+AdvOTbc475f09;font-size:8.97px;font-style:NORMAL;font-weight:normal;">to better understand the mechanism of tumorigenesis. This meta-</text>
  <text x="85.039,89.523,94.472,98.955,101.376,105.859,109.311,111.732,115.184,120.811,127.715,132.665,137.614,140.035,144.984,150.631,155.581,159.033,163.982,168.465,170.886,175.836,179.75400000000002,185.327,189.81,195.418,198.305,203.255,208.204,213.153,218.103,222.586,225.473,227.894,232.843,237.792,243.435,246.323,251.272,254.724,260.33,263.782,267.7,271.152,275.07,279.553,283.005,286.924,291.873,297.519,299.94,304.89,307.777,312.726,318.326,321.213,326.162" y="346.57" svg_rhmargin="330.08" style="fill:#171615;font-family:NCNEAO+AdvOTbc475f09;font-size:8.97px;font-style:NORMAL;font-weight:normal;">analysis would provide a foundation for research into the</text>
  <text x="85.039,87.927,92.876,96.794,100.246,104.729,109.679,113.597,118.546,121.434,123.854,127.772,130.789,135.272,139.755,142.176,147.126,151.044,154.032,158.982,161.869,164.861,169.81,176.248,182.13,187.079,190.089,192.509,197.458,200.463,204.382,208.865,213.814,217.733,221.651,225.103,228.555" y="357.568" svg_rhmargin="230.976" style="fill:#171615;font-family:NCNEAO+AdvOTbc475f09;font-size:8.97px;font-style:NORMAL;font-weight:normal;">therapeutic value of PVT1 in cancers.</text>
  <text x="93.997,100.435,104.938,107.825,112.775,115.662,120.145,122.566,127.105,132.054,134.941,139.464,144.413,149.363,154.312,159.26100000000002,163.728,167.646,172.129,177.078,180.997,184.915,188.367,192.867,197.817,202.3,205.187,207.608,211.526,216.476,219.363,222.815,227.335,230.223,233.675,238.624,245.994,250.522,253.41,260.314,264.232,269.181,272.068,276.552,279.439,282.326,287.275,290.727,294.646,298.564,303.131,307.049,309.47,311.891,316.374,318.795,323.745,326.166" y="368.509" svg_rhmargin="330.084" style="fill:#171615;font-family:NCNEAO+AdvOTbc475f09;font-size:8.97px;font-style:NORMAL;font-weight:normal;">A total of 2350 cancer patients from twenty-three eligible</text>
  <text x="85.039,88.491,91.379,96.328,101.277,103.698,107.617,111.069,115.71,122.614,126.532,129.984,133.90200000000002,138.613,142.531,147.481,149.902,152.323,156.241,160.159,163.046,166.964,171.913,176.54,181.023,185.972,190.92100000000002,195.588,200.071,205.02,209.503,211.924,216.407,220.326,224.244,229.193,233.854,236.275,241.22400000000002,245.872,248.76,253.709,256.13,259.582,264.241,267.693,270.58,275.529,280.479,284.962,287.383,292.019,297.901,302.851,306.769,311.408,318.778,323.728,327.18" y="379.451" svg_rhmargin="330.067" style="fill:#171615;font-family:NCNEAO+AdvOTbc475f09;font-size:8.97px;font-style:NORMAL;font-weight:normal;">studies were collected and analyzed in this study. The most</text>
  <text x="85.039,88.491,92.41,94.831,99.314,102.201,106.119,111.068,112.874,115.295,120.245,124.163,130.601,137.971,144.409,146.266,149.718,152.605,157.554,162.504,164.925,168.843,172.295,174.158,181.062,184.98,188.432,192.35,194.17,197.057,200.509,205.459,212.829,214.636,221.073,226.023,228.444,233.393,237.876,239.693,244.176,247.063,249.95,253.869,257.321,259.138,262.59,266.508,269.396,272.848,275.268,279.187,283.67,286.091,291.04,295.523,297.404,300.292,305.241,309.159,310.953,313.841,318.79,322.242,326.16" y="390.449" svg_rhmargin="330.078" style="fill:#171615;font-family:NCNEAO+AdvOTbc475f09;font-size:8.97px;font-style:NORMAL;font-weight:normal;">related lncRNA studies were from China after retrieving the three</text>
  <text x="85.039,89.523,91.943,96.893,101.842,106.325,108.74600000000001,115.539,118.991,122.909,125.33,129.249,134.198,138.116,142.03400000000002,148.817,153.766,158.249,161.136,165.62,170.569,175.052,178.504,182.422,185.874,188.295,195.077,201.514,205.433,209.351,214.3,217.752,222.702,225.123,230.072,234.555,241.336,244.224,249.173,255.963,258.85,263.8,267.718,274.501,276.922,281.871,285.79,288.21,293.16,296.612,299.033,303.982,308.93100000000004,315.715,320.199,325.148" y="401.39" svg_rhmargin="330.097" style="fill:#171615;font-family:NCNEAO+AdvOTbc475f09;font-size:8.97px;font-style:NORMAL;font-weight:normal;">global science databases. According to the inclusion and</text>
  <text x="85.039,88.958,93.907,97.825,100.246,105.196,108.648,111.069,116.018,120.967,123.022,126.941,130.393,132.814,135.701,139.619,143.071,145.492,149.975,152.396,154.486,159.435,164.38400000000001,166.392,169.279,174.228,181.598,186.548,190.0,192.016,194.903,199.387,204.336,208.254,211.706,213.786,216.206,221.155,223.197,228.146,233.095,235.102,239.02,241.441,243.862,248.345,250.766,255.716,258.137,262.055,264.128,267.58,270.467,275.416,280.366,282.787,286.705,290.157,292.578,294.628,297.048,301.998,305.916,308.337,313.286,318.236,320.657,325.606" y="412.332" svg_rhmargin="330.089" style="fill:#171615;font-family:NCNEAO+AdvOTbc475f09;font-size:8.97px;font-style:NORMAL;font-weight:normal;">exclusion criteria, 10 tumor types in 23 eligible studies, including</text>
  <text x="85.039,89.989,94.938,101.026,103.913,107.365,112.315,119.685,125.744,132.182,137.131,139.552,144.501,148.984,155.11,159.593,164.543,169.49200000000002,175.519,180.46800000000002,186.575,189.462,192.914,197.863,205.233,211.292,214.744,219.227,224.177,228.66,233.609,236.03,242.132,247.081,251.564,256.513,262.597,269.968,273.886,276.773,282.836,285.723,290.673,294.591,300.694,304.612,308.065,310.485,313.373,317.291,320.743,323.164,327.647" y="423.274" svg_rhmargin="330.068" style="fill:#171615;font-family:NCNEAO+AdvOTbc475f09;font-size:8.97px;font-style:NORMAL;font-weight:normal;">22 from China and 1 from Japan, had met the criteria.</text>
  <text x="85.039,91.477,96.427,101.376,104.828,108.746,113.696,118.645,122.563,127.513,130.4,132.821,137.304,139.725,143.828,146.715,151.664,155.582,159.702,163.154,167.072,170.524,175.474,177.894,180.782,184.234,188.331,195.701,198.122,202.606,207.555,210.442,214.523,219.472,223.39000000000001,227.505,232.454,237.404,239.825,244.308,248.368,251.82,256.769,259.19,262.077,266.56,271.51,273.931,277.849,281.986,284.873,289.823,293.275,297.35,300.237,305.186,309.104,313.224,320.693,325.176" y="434.272" svg_rhmargin="330.125" style="fill:#171615;font-family:NCNEAO+AdvOTbc475f09;font-size:8.97px;font-style:NORMAL;font-weight:normal;">Consequently, the results might be only suitable for the Han</text>
  <text svg_rhmargin="330.09" x="85.039,89.989,94.938,99.888,104.837,107.258,111.741,114.628,117.049,121.998,126.947,133.0,137.95,141.402,147.4,153.838,157.29,159.711,164.194,169.143,175.178,180.128,185.077,190.027,194.976,197.397,201.88,204.767,207.188,212.138,217.087,219.50799999999998,225.52,231.402,236.351,241.301,244.753,247.17399999999998,253.185,256.637,259.525,264.474,269.423,271.844,275.762,279.214,285.273,288.16,291.612,296.562,303.932,309.934,314.883,317.771,322.72,326.638,330.09" y="313.685" style="fill:#171615;font-family:NCNEAO+AdvOTbc475f09;font-size:8.97px;font-style:NORMAL;font-weight:normal;">population or Asian population. Thus, studies from other </text>
  <text x="345.091,349.009,351.896,356.846,361.795,364.216,368.134,370.555,373.442,375.863,379.781,383.233,387.836,392.785,396.237,400.818,404.736,409.686,414.635,419.585,422.472,425.924,428.345,432.263,435.715,440.332,444.815,448.267,452.185,456.772,461.722,465.64,469.558,474.508,478.426,483.375,487.953,490.84,495.789,500.368,505.318,509.236,512.123,516.041,519.493,526.864,529.285,534.234,538.152,542.774,549.678,554.627,558.545,561.432,566.382,570.3,573.752,578.375,581.262,586.212" y="313.685" svg_rhmargin="590.13" style="fill:#171615;font-family:NCNEAO+AdvOTbc475f09;font-size:8.97px;font-style:NORMAL;font-weight:normal;">ethnicities or countries are needed to determine whether the</text>
  <text x="345.091,348.543,352.461,355.913,360.863,363.283,366.171,369.623,371.905,376.389,379.841,383.759,386.078,390.562,395.511,400.46,402.881,405.302,409.22,413.704,418.653,421.074,424.992,427.293,430.18,435.129,437.441,441.924,444.345,446.766,449.063,454.013,458.962,463.911,468.861,471.282,475.765,478.652,481.073,486.022,490.972,494.424,496.84499999999997,499.121,505.55899999999997,507.852,511.304,515.787,520.736,525.686,530.635,538.005,540.336,544.254,547.141,550.028,553.946,557.865,560.752,564.204,566.527,573.897,578.847,583.796,587.714" y="324.683" svg_rhmargin="590.135" style="fill:#171615;font-family:NCNEAO+AdvOTbc475f09;font-size:8.97px;font-style:NORMAL;font-weight:normal;">results are applicable to all populations. A random effects model</text>
  <text svg_rhmargin="353.492" x="345.091,350.04,353.492" y="335.625" style="fill:#171615;font-family:NCNEAO+AdvOTbc475f09;font-size:8.97px;font-style:NORMAL;font-weight:normal;">or </text>
  <text x="356.373" y="335.625" svg_rhmargin="361.322" style="fill:#171615;font-family:NCNEBP+AdvOTbc475f09+fb;font-size:8.97px;font-style:NORMAL;font-weight:normal;">ﬁ</text>
  <text x="361.305,366.255,370.173,375.122,377.973,381.891,384.778,387.665,391.584,395.502,398.389,401.841,404.788,412.158,417.107,422.057,425.975,428.396,431.262,438.166,442.65,446.102,449.007,453.956,457.408,461.326,466.27500000000003,469.189,471.61,476.559,479.45,482.337,487.286,489.707,493.159,496.004,503.374,507.292,510.179,514.662,517.549,522.033,526.982,531.465,533.886,538.369,541.821,544.242,547.694,550.653,555.602,559.521,564.47,568.388,573.338,578.287,580.708,585.658" y="335.625" svg_rhmargin="590.141" style="fill:#171615;font-family:NCNEAO+AdvOTbc475f09;font-size:8.97px;font-style:NORMAL;font-weight:normal;">xed effects model was used in this meta-analysis depending</text>
  <text x="345.092,350.041,354.99,358.13,361.018,365.967,369.885,373.097,376.549,380.467,383.919,388.869,391.29,394.177,397.629,400.876,405.825,408.712,411.874,416.823,420.741,423.628,427.547,430.999,435.948,440.431,444.35,449.299,453.217,455.638,458.525,463.008,466.24,470.723,475.672,480.156,482.576,487.06,490.512,492.933,496.385,498.806,502.012,504.899,507.786,511.026,517.93,522.413,525.865,529.053,531.94,536.89,541.839,546.789,551.7379999999999,554.905,557.792,562.741,567.225,570.112,573.33,578.279,580.7,585.183" y="346.566" svg_rhmargin="590.132" style="fill:#171615;font-family:NCNEAO+AdvOTbc475f09;font-size:8.97px;font-style:NORMAL;font-weight:normal;">on the results of heterogeneity analysis. It was found that high</text>
  <text x="345.092,350.041,356.479,362.361,367.31,371.793,375.712,380.661,385.61,389.062,392.981,396.433,399.885,402.306,407.255,412.204,416.749,424.12,426.541,431.024,435.973,438.86,443.395,445.816,450.765,455.714,458.135,462.054,466.537,469.424,473.342,477.863,482.812,487.762,492.711,496.163,500.081,503.533,508.079,513.029,516.481,521.43,525.913,530.863,535.812,539.264,541.685,545.137,549.69,552.577,557.527,560.979,565.508,569.426,573.909,578.858,582.777,586.695" y="357.564" svg_rhmargin="590.147" style="fill:#171615;font-family:NCNEAO+AdvOTbc475f09;font-size:8.97px;font-style:NORMAL;font-weight:normal;">PVT1 expression might indicate poorer prognosis for cancer</text>
  <text x="345.092,350.041,354.524,357.411,359.832,363.751,368.7,371.587,375.039,377.46,380.92,388.389,394.827,398.279,401.783,404.67,408.122,413.071,420.44100000000003,423.949,430.387,435.337,440.286,443.734,451.105,456.054,458.475,461.362,463.783,468.266,472.749,476.201,478.622,483.105,485.993,489.911,493.453,497.936,502.885,507.368,509.789,514.272,517.724,521.643,525.095,528.601,535.505,539.424,542.876,546.794,550.258,554.176,559.125,566.496,571.445,573.866,578.815,582.734,587.683" y="368.506" svg_rhmargin="590.104" style="fill:#171615;font-family:NCNEAO+AdvOTbc475f09;font-size:8.97px;font-style:NORMAL;font-weight:normal;">patients. HRs from Cox multivariate analyses were combined,</text>
  <text x="345.092,349.575,354.524,359.473,362.496,366.979,370.036,373.488,375.909,380.392,385.341" y="379.447" svg_rhmargin="387.762" style="fill:#171615;font-family:NCNEAO+AdvOTbc475f09;font-size:8.97px;font-style:NORMAL;font-weight:normal;">and a signi</text>
  <text x="387.781" y="379.447" svg_rhmargin="392.73" style="fill:#171615;font-family:NCNEBP+AdvOTbc475f09+fb;font-size:8.97px;font-style:NORMAL;font-weight:normal;">ﬁ</text>
  <text x="392.714,396.632,401.115,406.064,408.951,412.046,416.995,419.416,422.303,425.19,429.109,432.561,436.479,441.428,445.347,449.265,452.353,459.257,463.74,467.192,470.268,473.155,478.104,483.053,488.003,492.952,496.005,498.426,503.375,506.437,513.807,518.29,521.347,526.296,530.214,533.102,540.006,543.924,547.842,552.7909999999999,555.872,560.821,563.242,567.725,572.674,575.77,580.254,585.203" y="379.447" svg_rhmargin="590.152" style="fill:#171615;font-family:NCNEAO+AdvOTbc475f09;font-size:8.97px;font-style:NORMAL;font-weight:normal;">cant difference was found in OS between high and</text>
  <text x="345.092,347.513,352.462,359.366,364.027,368.976,375.414,381.296,386.245,390.899,394.817,399.766,404.716,408.168,412.086,415.538,418.99,421.411,426.36,431.309,435.968,440.451,443.903,448.852,453.802,458.751,462.203,464.62399999999997,469.302,472.189,475.076,479.733,486.637,491.12,494.572,499.235,502.122,507.072,512.021,516.97,521.919,526.561,529.448,534.397,538.88,541.7669999999999,546.46,551.409,553.83,558.313,563.262,567.889,572.838,579.276,585.158" y="390.445" svg_rhmargin="590.107" style="fill:#171615;font-family:NCNEAO+AdvOTbc475f09;font-size:8.97px;font-style:NORMAL;font-weight:normal;">low PVT1 expression groups. It was found that high PVT1</text>
  <text x="345.092,349.01,353.959,358.909,362.361,366.279,369.731,373.183,375.604,380.553,385.502,389.991,396.895,401.379,404.831,409.266,412.718,416.637,424.007,428.49,431.942,436.891,441.375,446.324,448.745,453.228,457.737,462.22,465.672,469.124,474.074,477.992,480.413,484.896,487.783,491.702,496.651,501.106,508.01,510.431,513.318,518.2669999999999,522.763,529.667,534.616,539.0989999999999,543.569,548.052,553.001,557.9499999999999,562.447,568.885,573.835,578.318,582.743,585.164" y="401.387" svg_rhmargin="590.113" style="fill:#171615;font-family:NCNEAO+AdvOTbc475f09;font-size:8.97px;font-style:NORMAL;font-weight:normal;">expression was remarkably associated with DFS and RFS in</text>
  <text x="345.092,350.041,352.462,355.349,358.236,362.155,365.607,369.525,374.474,377.361,381.203,384.091,388.574,393.523,397.441,400.893,404.787,409.736,412.623,416.465,420.384,424.867,429.816,433.734,437.653,441.105,443.526,447.362,452.312,457.261,460.713,463.6,468.55,472.468,475.92,483.29,488.24,491.692,495.61,498.031,501.899,504.32,507.207,511.083,517.987,522.47,525.922,529.791,533.243,537.161,541.645,545.563,550.046,552.467,556.385,561.334,565.167,567.588,572.5369999999999,576.392,579.279,584.228,586.649" y="412.329" svg_rhmargin="590.101" style="fill:#171615;font-family:NCNEAO+AdvOTbc475f09;font-size:8.97px;font-style:NORMAL;font-weight:normal;">different types of cancer. Furthermore, it was revealed in this</text>
  <text x="345.092,352.462,356.38,359.267,363.751,366.638,371.121,376.07,380.553,382.974,387.457,390.909,393.33,396.782,399.231,402.118,407.068,411.551,414.438,416.862,421.812,424.233,428.716,433.665,436.081,441.03,447.468,453.35,458.29900000000004,460.742,464.66,469.609,474.559,478.011,481.929,485.381,488.833,491.254,496.203,501.152,503.6,510.504,514.987,518.439,520.834,524.752,529.235,531.656,536.606,540.524,545.473,548.36,550.781,555.2639999999999,557.74,561.658,566.608,570.06,573.512,577.43,579.851,584.334,587.221" y="423.27" svg_rhmargin="590.108" style="fill:#171615;font-family:NCNEAO+AdvOTbc475f09;font-size:8.97px;font-style:NORMAL;font-weight:normal;">meta-analysis that high PVT1 expression was evidently correlat-</text>
  <text x="345.092,349.01,353.959,356.997,363.901,366.322,369.209,374.158,377.236,379.657,384.14,387.592,392.075,395.993,399.445,402.52,405.407,410.357,417.727,422.676,426.128,429.165,432.617,435.038,438.956,442.875,445.296,448.383,453.333,458.282,463.232,466.684,469.756,474.706,477.127,480.014,482.901,486.819,490.271,494.19,499.139,502.026,504.447,508.93,511.817,514.238,519.188,524.137,527.241,531.724,535.176,539.66,544.609,548.527,550.9480000000001,553.999,558.482,563.432,567.915,572.398,577.348,581.266,585.184" y="434.268" svg_rhmargin="590.133" style="fill:#171615;font-family:NCNEAO+AdvOTbc475f09;font-size:8.97px;font-style:NORMAL;font-weight:normal;">ed with larger tumor size, poor differentiation grade, advanced</text>
  <text x="345.092,347.979,352.928,360.299,365.248,368.7,370.432,373.884,376.771,381.255,385.738,389.656,392.077,393.789,399.204,406.575,415.541,417.962,419.697,424.18,429.129,434.07800000000003,435.798,442.702,451.668,454.089,455.809,461.691,466.641,470.559,472.307,477.256,481.174,484.061,487.98,491.432,496.381,500.864,504.782,509.732,513.65,516.071,518.958,523.4409999999999,525.142,530.092,532.513,535.965,539.883,544.832,549.315,553.234,556.686,560.604,565.553,567.321,569.742,574.6909999999999,576.392,579.279,584.228,586.649" y="445.21" svg_rhmargin="590.101" style="fill:#171615;font-family:NCNEAO+AdvOTbc475f09;font-size:8.97px;font-style:NORMAL;font-weight:normal;">tumor stage, LNM, and DM. The heterogeneity discovered in this</text>
  <path d=" M 85.03900146484375 328.989013671875 L 590.1729736328125 328.989013671875 L 590.1729736328125 329.78271484375 L 85.03900146484375 329.78271484375 Z " style="fill:none;stroke:#000000;stroke-width:1.0;"/>
  <path d=" M 85.03900146484375 81.35399627685547 L 590.1729736328125 81.35399627685547 L 590.1729736328125 82.09102630615234 L 85.03900146484375 82.09102630615234 Z " style="fill:none;stroke:#000000;stroke-width:1.0;"/>
  <rect style="stroke:blue;stroke-width:0.3;" x="168.321" y="478.098" height="221.499" width="338.726" title="9"/>
  <text x="168.321" y="478.098" class="image" id="image.9.1" width="338" height="221">image.9.1.168_507.478_700</text>
  <text svg_rhmargin="128.417" x="94.167,98.524,100.31,104.667,108.942,111.505,115.63,118.15,122.275,126.4,128.417" y="710.539" style="fill:#171615;font-family:NCNEJG+AdvOTf94803d4;font-size:7.47px;font-style:NORMAL;font-weight:normal;">Figure 10. </text>
  <text x="132.151,137.128,140.938,145.063" y="710.539" svg_rhmargin="149.187" style="fill:#171615;font-family:NCNEAI+AdvOT6e5d2ec0;font-size:7.47px;font-style:NORMAL;font-weight:normal;">Begg</text>
  <text x="149.215" y="710.539" svg_rhmargin="151.232" style="fill:#171615;font-family:NCNEAN+AdvOT6e5d2ec0+20;font-size:7.47px;font-style:NORMAL;font-weight:normal;">’</text>
  <text svg_rhmargin="448.973" x="151.257,154.836,157.323,159.191,163.159,167.126,171.094,174.904,176.227,178.751,183.025,184.348,188.472,190.64600000000002,193.15,196.729,200.697,204.821,210.343,211.665,215.633,219.758,222.288,224.462,228.43,232.241,234.76,239.035,243.002,247.276,248.599,249.921,253.732,257.542,259.717,261.039,265.164,269.132,271.665,275.939,277.262,281.073,284.652,287.199,289.067,293.191,295.522,298.026,302.696,307.052,311.176,315.301,317.811,321.621,325.2,329.474,331.805,335.616,339.195,342.774,344.096,348.221,352.189,354.714,358.525,362.493,366.767,369.284,373.558,374.881,378.46,380.634,384.445,388.412,390.58599999999996,393.093,399.236,403.046,405.221,409.031,412.61,414.785,418.595,422.174,423.592,427.171,429.188,431.698,436.368,440.724,444.849,448.974" y="710.539" style="fill:#171615;font-family:NCNEAI+AdvOT6e5d2ec0;font-size:7.47px;font-style:NORMAL;font-weight:normal;">s funnel plot showing the publication bias for PVT1 expression and distant metastasis. PVT1 </text>
  <text svg_rhmargin="456.559" x="451.501,456.56" y="710.539" style="fill:#171615;font-family:NCNEAM+AdvOTb0c9bf5d;font-size:7.47px;font-style:NORMAL;font-weight:normal;">= </text>
  <text x="459.04,463.71,465.033,468.843,472.422,478.564,482.375,486.185,489.607,491.782,495.906,502.048,505.859,508.415,511.837,515.648,517.979,519.302,523.112,527.08,529.254,531.771,533.945,536.276,540.087,544.129,547.708,549.031,553.155,556.966,560.776,562.951,564.273,568.397,572.365,574.855,578.979" y="710.539" svg_rhmargin="580.996" style="fill:#171615;font-family:NCNEAI+AdvOT6e5d2ec0;font-size:7.47px;font-style:NORMAL;font-weight:normal;">Plasmacytoma variant translocation 1.</text>
  <path d=" M 85.03900146484375 766.885009765625 L 590.115966796875 766.885009765625 L 590.115966796875 767.6220092773438 L 85.03900146484375 767.6220092773438 Z " style="fill:none;stroke:#000000;stroke-width:1.0;"/>
  <path d=" M 85.03900146484375 519.0800170898438 L 590.115966796875 519.0800170898438 L 590.115966796875 519.8737182617188 L 85.03900146484375 519.8737182617188 Z " style="fill:none;stroke:#000000;stroke-width:1.0;"/>
  <path d="M168.32 40.202 L506.89 40.202 L506.89 261.814 L168.32 261.814 " style="fill:none;stroke:#000000;stroke-width:1.0;"/>
  <rect style="stroke:blue;stroke-width:0.3;" x="168.321" y="40.201" height="221.613" width="338.726" title="9"/>
  <text x="168.321" y="40.201" class="image" id="image.9.2" width="338" height="221">image.9.2.168_507.40_262</text>
  <text svg_rhmargin="118.112" x="87.931,92.288,94.074,98.431,102.785,105.349,109.474,111.97,116.095,118.112" y="272.813" style="fill:#171615;font-family:NCNEJG+AdvOTf94803d4;font-size:7.47px;font-style:NORMAL;font-weight:normal;">Figure 9. </text>
  <text x="121.833,126.809,130.621,134.746" y="272.813" svg_rhmargin="138.87" style="fill:#171615;font-family:NCNEAI+AdvOT6e5d2ec0;font-size:7.47px;font-style:NORMAL;font-weight:normal;">Begg</text>
  <text x="138.897" y="272.813" svg_rhmargin="140.914" style="fill:#171615;font-family:NCNEAN+AdvOT6e5d2ec0+20;font-size:7.47px;font-style:NORMAL;font-weight:normal;">’</text>
  <text svg_rhmargin="455.15" x="140.939,144.518,147.005,148.873,152.84,156.808,160.776,164.586,165.90900000000002,168.433,172.707,174.03,178.154,180.328,182.832,186.411,190.379,194.503,200.025,201.347,205.315,209.44,211.97,214.144,218.112,221.923,224.442,228.717,232.684,236.958,238.281,239.603,243.414,247.224,249.399,250.721,254.846,258.814,261.347,265.621,266.943,270.754,274.333,276.88,278.748,282.872,285.20300000000003,287.707,292.377,296.733,300.858,304.983,307.492,311.302,314.881,319.155,321.486,325.297,328.876,332.455,333.778,337.902,341.87,344.396,348.206,352.174,356.448,358.965,360.287,363.71,369.851,374.125,378.093,380.62,384.588,388.712,392.986,396.79699999999997,399.328,405.469,409.28,411.454,415.265,418.844,421.018,424.829,428.408,429.73,433.309,435.326,437.875,442.545,446.901,451.026,455.151" y="272.813" style="fill:#171615;font-family:NCNEAI+AdvOT6e5d2ec0;font-size:7.47px;font-style:NORMAL;font-weight:normal;">s funnel plot showing the publication bias for PVT1 expression and lymph node metastasis. PVT1 </text>
  <text svg_rhmargin="462.738" x="457.68,462.73900000000003" y="272.813" style="fill:#171615;font-family:NCNEAM+AdvOTb0c9bf5d;font-size:7.47px;font-style:NORMAL;font-weight:normal;">= </text>
  <text x="465.22,469.89,471.212,475.023,478.602,484.744,488.554,492.365,495.787,498.042,502.167,508.308,512.119,514.595,518.017,521.828,524.159,525.481,529.292,533.26,535.434,538.007,540.182,542.513,546.323,550.291,553.87,555.192,559.317,563.127,566.938,569.112,570.435,574.559,578.5269999999999,581.09,585.216" y="272.813" svg_rhmargin="587.233" style="fill:#171615;font-family:NCNEAI+AdvOT6e5d2ec0;font-size:7.47px;font-style:NORMAL;font-weight:normal;">Plasmacytoma variant translocation 1.</text>
  <text x="85.039,91.591,95.65599999999999,98.305,102.37,104.68900000000001,107.319,111.384,112.795,114.947,117.58,124.132,128.196,132.755,134.166,138.231,139.642,143.874,147.939,150.574,152.479,156.879,161.278,165.678,170.077,171.982,174.554,178.954,183.353,185.505,189.905,194.304,517.041,522.931,528.821,534.711,536.863,543.414,547.973,550.874,552.285,556.685,560.917,563.3,567.532,571.597,573.008,575.16,579.224,583.624" y="9.870999999999981" svg_rhmargin="590.176" style="fill:#171615;font-family:NCNEAI+AdvOT6e5d2ec0;font-size:7.97px;font-style:NORMAL;font-weight:normal;">Ma et al. Medicine (2018) 97:49 www.md-journal.com</text>
  <text x="335.396" y="739.625" svg_rhmargin="339.796" style="fill:#171615;font-family:NCNEJG+AdvOTf94803d4;font-size:7.97px;font-style:NORMAL;font-weight:normal;">9</text>
 </g>
</svg>
