<?xml version="1.0" encoding="UTF-8"?>
<svg height="870.031005859375" width="672.0029907226562" xmlns="http://www.w3.org/2000/svg">
 <g style="fill:none;">
  <path d=" M 0.05999799817800522 826.072021484375 L 22.619997024536133 826.072021484375 L 22.619997024536133 826.35546875 L 0.05999799817800522 826.35546875 Z " style="fill:none;stroke:#000000;stroke-width:1.0;"/>
  <path d=" M 33.67599868774414 837.4110107421875 L 33.959449768066406 837.4110107421875 L 33.959449768066406 860.031005859375 L 33.67599868774414 860.031005859375 Z " style="fill:none;stroke:#000000;stroke-width:1.0;"/>
  <path d=" M 627.9869995117188 837.4110107421875 L 628.2703857421875 837.4110107421875 L 628.2703857421875 860.031005859375 L 627.9869995117188 860.031005859375 Z " style="fill:none;stroke:#000000;stroke-width:1.0;"/>
  <path d=" M 639.3259887695312 826.072021484375 L 662.0029907226562 826.072021484375 L 662.0029907226562 826.35546875 L 639.3259887695312 826.35546875 Z " style="fill:none;stroke:#000000;stroke-width:1.0;"/>
  <path d=" M 639.3259887695312 33.731998443603516 L 662.0029907226562 33.731998443603516 L 662.0029907226562 34.015480041503906 L 639.3259887695312 34.015480041503906 Z " style="fill:none;stroke:#000000;stroke-width:1.0;"/>
  <path d=" M 627.9869995117188 0.0 L 628.2703857421875 0.0 L 628.2703857421875 22.677000045776367 L 627.9869995117188 22.677000045776367 Z " style="fill:none;stroke:#000000;stroke-width:1.0;"/>
  <path d=" M 33.67599868774414 0.0 L 33.959449768066406 0.0 L 33.959449768066406 22.677000045776367 L 33.67599868774414 22.677000045776367 Z " style="fill:none;stroke:#000000;stroke-width:1.0;"/>
  <path d=" M 0.05999799817800522 33.731998443603516 L 22.619997024536133 33.731998443603516 L 22.619997024536133 34.015480041503906 L 0.05999799817800522 34.015480041503906 Z " style="fill:none;stroke:#000000;stroke-width:1.0;"/>
  <text x="71.887,75.805,80.288,84.206,89.155,91.048,93.469,98.419,105.323,109.241,112.693,115.114,117.07,119.957,124.906,129.389,132.276,134.191,136.612,140.064,142.48499999999999,144.395,149.345,154.294,156.715,161.198,163.103,168.053,170.474,175.423,177.844,182.793" y="39.74800000000005" svg_rhmargin="187.742" style="fill:#171615;font-family:BEHJOI+AdvOTbc475f09;font-size:8.97px;font-style:NORMAL;font-weight:normal;">even lower, that is, only 1.5/10</text>
  <text x="187.767" y="35.77999999999997" svg_rhmargin="191.479" style="fill:#171615;font-family:BEHJOI+AdvOTbc475f09;font-size:5.98px;font-style:NORMAL;font-weight:normal;">6</text>
  <text x="191.509,193.92999999999998,195.817,200.766,205.249,208.701,212.62,217.56900000000002,219.457,224.407,229.35600000000002,231.306,235.78900000000002,237.656,242.606,247.089,249.976,252.397,257.346,262.296,266.779,269.2,271.161,274.613,279.562,283.014,287.497,291.416,295.899,297.806,300.227,305.176,307.047,311.996" y="39.74800000000005" svg_rhmargin="316.945" style="fill:#171615;font-family:BEHJOI+AdvOTbc475f09;font-size:8.97px;font-style:NORMAL;font-weight:normal;">, based on a national survey in 83</text>
  <text x="71.887,79.257,83.175,88.124,90.545,94.464,98.947,101.36800000000001,103.86,107.779,111.697,116.646,119.533,123.452,126.904,130.356,132.773,137.722,140.609,143.091,148.04,151.492,155.975,160.925,164.843,168.761,171.21,176.159,180.077,182.965,189.869,193.787,197.705,202.65400000000002,205.111,214.078,218.561,223.044,225.464,230.413,235.363,240.312,245.26100000000002,247.687,252.17,257.12,262.069,264.525,270.963,275.912,279.364,281.785,284.206,286.691,291.641,296.59,301.539,306.489" y="50.690000000000055" svg_rhmargin="308.91" style="fill:#171615;font-family:BEHJOI+AdvOTbc475f09;font-size:8.97px;font-style:NORMAL;font-weight:normal;">medical centers of France between May 1984 and April 1987.</text>
  <text x="308.92,311.086,314.798" y="46.721000000000004" svg_rhmargin="316.963" style="fill:#171615;font-family:BEHJOI+AdvOTbc475f09;font-size:5.98px;font-style:NORMAL;font-weight:normal;">[7]</text>
  <text x="71.887,77.768,82.718,85.139,88.591,90.822,93.243,98.192,103.141,105.562,109.48,113.964,116.851,120.769,125.718,128.011,130.898,135.848,140.331,143.218,145.472,148.359,153.309,157.227,159.475,161.896,166.845,170.763,173.184,178.134,182.052,187.001,190.92,194.838,197.118,200.57,205.053,207.94,211.858,214.069,216.49,221.43900000000002,223.707,230.144,233.597,236.017,240.5,242.755,250.125,254.608,259.091,261.35,266.299,270.217,272.404,277.353,279.604,282.492,287.44100000000003,289.696,294.64500000000004,296.896,299.783,302.204,309.574,313.493" y="61.63199999999995" svg_rhmargin="316.945" style="fill:#171615;font-family:BEHJOI+AdvOTbc475f09;font-size:8.97px;font-style:NORMAL;font-weight:normal;">This indicated that the incidence rate in Asia may be 2 to 3 times</text>
  <text x="71.887,76.836,79.723,81.524,84.412,89.361,93.844,96.731,98.475,100.896,105.845,107.659,116.626,120.544,123.996,126.883,130.801,134.253,139.202,140.993,144.912,149.861,154.811,159.76,162.647,166.099,168.52,172.438,175.89,178.31099999999998,180.11,185.992,190.941,194.859,196.607,201.556,206.506,211.455,218.825,221.246,226.196,230.679,232.435,234.856,239.806,244.755,249.704,253.157,256.044,259.496,263.979,265.769,270.719,275.202,278.654,280.453,287.357,292.306,295.758,299.21,303.128,308.078,311.996" y="72.63" svg_rhmargin="316.945" style="fill:#171615;font-family:BEHJOI+AdvOTbc475f09;font-size:8.97px;font-style:NORMAL;font-weight:normal;">of that in Western countries. The booming industry has worsened</text>
  <text x="71.887,75.805,80.754,85.237,87.658,91.11,96.06,101.009,108.379,112.298,117.247,120.134,124.617,127.03800000000001,131.808,136.758,141.707,144.128,146.549,151.498,154.385,156.806,161.756,166.705,169.126,173.816,178.3,183.249,188.198,192.922,197.405,199.826,202.713,206.631,210.083,214.002,218.95100000000002,223.705,226.126,228.547,233.03,235.451,240.4,244.883,249.613,253.531,258.481,262.964,265.385,268.837,273.786,278.736,286.106,290.024,294.974,297.861,302.563,307.046,311.995" y="83.57100000000003" svg_rhmargin="316.944" style="fill:#171615;font-family:BEHJOI+AdvOTbc475f09;font-size:8.97px;font-style:NORMAL;font-weight:normal;">environmental pollution, and altered living environment and</text>
  <text x="71.887,74.307,76.728,79.616,83.534,86.986,89.873,94.356,96.777,100.69500000000001,104.2,109.15,112.037,115.482,120.431,125.38,132.751,137.234,142.18300000000002,145.585,150.534,154.453,156.874,161.823,166.306,169.758,173.251,178.2,182.683,186.601,190.053,193.489,197.973,201.891,206.374,209.826,213.278" y="94.51300000000003" svg_rhmargin="215.699" style="fill:#171615;font-family:BEHJOI+AdvOTbc475f09;font-size:8.97px;font-style:NORMAL;font-weight:normal;">lifestyle of human beings over years.</text>
  <text svg_rhmargin="223.76" x="215.717,217.883,221.595,223.76" y="94.51300000000003" style="fill:#171615;font-family:BEHJOI+AdvOTbc475f09;font-size:5.98px;font-style:NORMAL;font-weight:normal;">[8] </text>
  <text x="227.225,234.595,238.514,245.418,248.825,252.743,257.226,260.678,264.597,268.049,271.502,276.451,279.338,282.783,289.221,295.659,299.111,304.06,308.543,313.026" y="94.51300000000003" svg_rhmargin="316.944" style="fill:#171615;font-family:BEHJOI+AdvOTbc475f09;font-size:8.97px;font-style:NORMAL;font-weight:normal;">New cases of AA have</text>
  <text x="71.886,74.773,78.225,82.143,87.093,92.042,95.96,100.90899999999999,103.349,106.237,111.18599999999999,113.61,116.031,120.981,124.899,128.351,132.269,136.752,140.204,144.122,146.548,151.497,155.981,159.899,163.351,165.823,170.306,174.224,178.708,182.16,185.612,188.033,190.426,197.331,202.28,204.701,207.122,211.04000000000002,213.499,216.952,219.372,222.824,227.774,231.226,233.682,238.165,241.617,245.069,250.018,253.937,256.358,260.841,263.728,267.646,272.595,275.067,277.954,282.903,285.328,291.765,298.203,300.635,308.005,312.488" y="105.51199999999994" svg_rhmargin="316.971" style="fill:#171615;font-family:BEHJOI+AdvOTbc475f09;font-size:8.97px;font-style:NORMAL;font-weight:normal;">trended to increase over years; while risks associated to AA may</text>
  <text x="71.886,76.835,81.318,85.801,89.71900000000001,93.088,97.571,99.992,103.444,108.393,111.797,115.715,120.664,125.147,130.097,134.58,138.498,143.447,146.831,151.781,156.264,160.182,163.634,167.014,169.901,172.322,179.692,183.61,186.031,189.407,192.294,197.24300000000002,200.632,204.084,208.002,211.921,215.839,220.788,223.675,227.107,231.59,235.508,239.991,243.443,246.895,249.316,252.674,257.624,260.044,263.963,268.912,271.799,276.282,279.659,284.609,287.496,290.884,294.336,297.223,302.173,307.122,309.543,313.461" y="116.45299999999997" svg_rhmargin="316.913" style="fill:#171615;font-family:BEHJOI+AdvOTbc475f09;font-size:8.97px;font-style:NORMAL;font-weight:normal;">have also changed over time. In recent years, plenty of studies</text>
  <text x="71.886,76.835,81.318,85.801,89.71900000000001,92.068,97.017,100.936,104.854,109.803,112.136,116.055,120.538,123.99,127.442,129.863,133.781,138.73000000000002,141.106,146.055,151.004,153.891,156.242,158.663,163.61200000000002,165.993,172.431,177.381,179.801,184.751,189.234,191.618,195.07,198.988,203.472,207.955,211.407,216.356,218.777,223.726,228.209,230.565,237.003,243.441,245.862,248.196,255.665,260.615,267.519,271.437,275.92,279.839,283.291,285.712,288.106,295.477,300.426,303.878,306.765,309.139,314.088" y="127.39499999999998" svg_rhmargin="316.975" style="fill:#171615;font-family:BEHJOI+AdvOTbc475f09;font-size:8.97px;font-style:NORMAL;font-weight:normal;">have been carried out in China regarding AA. However, most of</text>
  <text x="71.886,74.773,79.722,83.641,91.01100000000001,93.542,100.446,104.364,107.816,111.73400000000001,114.234,118.153,120.574,122.995,127.944,130.365,134.283,138.766,141.18699999999998,143.714,147.632,152.115,155.567,159.485,161.968,166.452,171.401,175.884,178.305,182.788,186.24,188.661,192.113,194.534,197.06,202.009,205.46099999999998,207.945,210.832,215.781,219.7,224.649,228.101,232.019,236.96800000000002,239.465,244.414,249.363,251.881,256.83,261.779,265.697,268.207,271.659,274.08,279.03,283.513,285.934,289.85200000000003,292.358,295.81,298.231,301.683,306.632,309.139,314.088" y="138.39300000000003" svg_rhmargin="316.975" style="fill:#171615;font-family:BEHJOI+AdvOTbc475f09;font-size:8.97px;font-style:NORMAL;font-weight:normal;">them were clinical case analysis, or focused on one single risk of</text>
  <text x="71.886,78.324,84.761,87.182,89.233,94.182,97.634,99.608,104.557,109.04,113.989,115.992,120.47500000000001,122.511,125.963,133.334,137.817,140.238,142.659,144.678,148.13,151.017,155.966,160.916,165.399,167.411,170.863,175.346,182.716,187.666,190.087,194.005,196.426,198.477,204.359,209.309,213.227,216.679,220.597,222.628,227.577,232.061,236.544,240.46200000000002,242.47,247.419,251.337,255.256,260.205,262.255,265.142,269.06,275.964,277.958,281.41,285.329,290.278,295.227,298.679,301.566,305.018,307.04,311.99" y="149.33399999999995" svg_rhmargin="316.939" style="fill:#171615;font-family:BEHJOI+AdvOTbc475f09;font-size:8.97px;font-style:NORMAL;font-weight:normal;">AA, or had a small study sample. There have been few reports on</text>
  <text x="71.886,74.773,79.722,83.64,86.625,91.109,94.561,98.013,102.962,106.88,109.301,113.784,116.671,119.092,124.042,128.991,132.035,136.985,140.903,143.79,150.694,154.612,158.531,163.48000000000002,166.503,173.874,178.823,181.244,184.131,186.552,191.502,193.922,197.84,200.858,204.31,206.731,210.183,215.132,218.584,221.55,226.033,230.983,235.93200000000002,238.955,245.393,251.83" y="160.27599999999995" svg_rhmargin="254.251" style="fill:#171615;font-family:BEHJOI+AdvOTbc475f09;font-size:8.97px;font-style:NORMAL;font-weight:normal;">the association between multiple risks and AA.</text>
  <text x="254.268,256.433" y="156.30899999999997" svg_rhmargin="260.145" style="fill:#171615;font-family:BEHJOI+AdvOTbc475f09;font-size:5.98px;font-style:NORMAL;font-weight:normal;">[8</text>
  <text x="260.164" y="156.30899999999997" svg_rhmargin="263.526" style="fill:#171615;font-family:BEHJOK+AdvOTbc475f09+20;font-size:5.98px;font-style:NORMAL;font-weight:normal;">–</text>
  <text x="263.509,267.221,270.992" y="156.30899999999997" svg_rhmargin="273.157" style="fill:#171615;font-family:BEHJOI+AdvOTbc475f09;font-size:5.98px;font-style:NORMAL;font-weight:normal;">10]</text>
  <text x="80.844,83.731,88.67999999999999,91.956,96.439,101.253,106.203,108.51,111.397,113.818,118.601,123.551,125.97200000000001,129.259,132.147,136.97,140.888,144.226,149.175,152.503,156.421,160.904,163.161,168.11,173.06,176.512,179.715,183.167,185.951,190.9,195.849,200.332,203.582,208.531,213.48000000000002,216.735,221.684,223.991,227.443,231.248,235.731,239.071,242.989,246.327,249.779,253.583,256.004,260.33,263.217,267.135,272.084,275.353,278.805,281.079,284.531,289.355,292.807,296.158,299.61,303.415,305.836,308.256,312.032" y="171.21900000000005" svg_rhmargin="316.981" style="fill:#171615;font-family:BEHJOI+AdvOTbc475f09;font-size:8.97px;font-style:NORMAL;font-weight:normal;">In addition, the previous study on disease related risks relied</text>
  <text x="71.887,79.257,83.622,86.043,90.878,93.299,97.78200000000001,100.97,105.919,110.868,114.009,118.958,123.907,127.671,131.124,133.908,136.328,141.164,146.113,150.915,155.398,157.819,161.119,165.038,168.49,171.664,176.147,180.961,185.91000000000003,189.125,193.043,195.361,197.782,202.617,205.038,208.853,213.336,215.757,218.945,222.397,226.201,230.12,234.932,238.384,243.209,246.661,249.082,252.279,259.183,264.014,266.435,270.25,275.199,278.414,283.363,286.691,291.64,293.947,298.896,303.698,308.181,312.099" y="182.21699999999998" svg_rhmargin="317.048" style="fill:#171615;font-family:BEHJOI+AdvOTbc475f09;font-size:8.97px;font-style:NORMAL;font-weight:normal;">mainly on questionnaires and clinical records, which prolonged</text>
  <text x="71.887,75.339,78.123,83.072,87.874,92.357,94.224,98.707,103.656,107.999,110.42,114.746,118.198,120.619,124.071,125.858,128.745,133.568,137.02,138.897,142.816,147.765,154.998,159.947,162.255,166.173,171.122,172.913,177.862,182.21,185.097,189.58,191.394,195.312,200.262,202.563,204.983,208.799,212.717,215.488,217.909,222.745,227.694,230.11499999999998,231.929,240.895,244.81300000000002,246.612,251.095,255.909,260.859,265.808,268.552,272.47,277.41900000000004,279.21,284.626,286.92,290.838,294.757,297.521,300.973,305.798,310.747,313.054" y="193.159" svg_rhmargin="316.972" style="fill:#171615;font-family:BEHJOI+AdvOTbc475f09;font-size:8.97px;font-style:NORMAL;font-weight:normal;">study analysis for complex data collection. We adopted Electronic</text>
  <text x="71.887,78.791,83.274,86.002,90.485,92.069,98.507,102.99,107.773,110.66,115.483,118.935,122.85300000000001,124.384,127.271,132.686,139.464,145.902,148.789,150.292,153.744,158.115,161.567,164.351,168.269,175.639,177.164,180.051,185.0,186.575,190.493,195.305,197.726,200.147,203.923,207.841,210.728,212.256,216.739,221.553,226.502,228.13,235.5,239.865,244.814,249.162,253.645,257.563,259.083,264.033,268.516,271.272,275.755,278.176,279.663,286.567,291.516,293.778,297.697,302.646,304.21,309.159,313.507" y="204.10000000000002" svg_rhmargin="316.959" style="fill:#171615;font-family:BEHJOI+AdvOTbc475f09;font-size:8.97px;font-style:NORMAL;font-weight:normal;">Data Capture (EDC) system to collect and manage data, which has</text>
  <text x="71.887,75.339,80.164,85.113,88.44,91.327,95.13,100.079,103.998,108.947,113.952,118.902,123.249,126.136,130.619,135.721,139.64,144.452,146.873,149.294,153.069,156.988,159.759,162.18,167.016,171.965,177.051,181.534,186.483,191.43200000000002,196.439,200.358,203.696,208.645,211.973,215.425,218.209,222.127,226.939,230.857,234.776,239.72500000000002,244.741,249.224,254.038,258.987,264.13,266.551,273.921,278.699,282.151,286.976,291.459,295.253,300.202,305.344,308.231,313.054" y="215.09799999999996" svg_rhmargin="316.972" style="fill:#171615;font-family:BEHJOI+AdvOTbc475f09;font-size:8.97px;font-style:NORMAL;font-weight:normal;">shortened data collection and cross-check and improved the</text>
  <text x="71.887,76.836,81.638,86.121,88.542,90.822,93.709,98.19200000000001,101.14,106.09,108.977,111.911,116.861,121.209,124.096,128.465,130.886,133.908,140.345,144.264,147.57,151.489,155.847,159.299,163.104,168.053,171.834,175.286,178.738,181.699,185.617,190.429,195.379,197.686,202.63500000000002,205.679,208.1,212.936,217.885,222.686,225.573,228.583,233.532,237.88,240.767,245.25,248.198,251.65,254.071,261.294,266.244,268.551,271.438,275.807,280.757,284.675,289.47,294.42,297.747,300.168,304.651,307.612,312.561" y="226.03999999999996" svg_rhmargin="317.044" style="fill:#171615;font-family:BEHJOI+AdvOTbc475f09;font-size:8.97px;font-style:NORMAL;font-weight:normal;">quality of data. Researchers could input data simultaneously by</text>
  <text x="71.887,76.836,80.164,82.584,87.42,91.903,93.713,99.128,106.032,112.47,114.178,116.599,121.548,123.306,128.255,130.109,135.059,139.407,142.859,145.643,148.064,151.879,154.3,159.135,163.618,166.392,168.812,173.648,178.131,179.941,187.311,191.109,196.058,198.365,202.284,206.642,209.063,210.894,214.812,218.731,223.536,226.424,230.226,233.678,237.13,239.551,241.281,247.719,250.606,252.335,257.285,260.612,264.53,267.869,271.787,276.736,279.491,281.912,283.743,289.158,295.931,302.36899999999997,304.208,309.158,313.505" y="236.98199999999997" svg_rhmargin="316.957" style="fill:#171615;font-family:BEHJOI+AdvOTbc475f09;font-size:8.97px;font-style:NORMAL;font-weight:normal;">using EDC in 5 participating medical centers. At present, EDC has</text>
  <text x="71.887,76.836,80.617,84.536,89.485,90.878,98.249,102.613,105.034,109.87,112.291,116.774,118.204,122.687,127.501,132.451,134.758,137.178,140.994,145.943,147.4,149.821,154.77,156.131,160.049,162.367,164.787,169.623,172.044,175.859,180.342,182.763,184.136,187.023,190.372,192.793,197.276,199.556,203.008,204.432,209.381,212.268,213.673,218.622,221.949,226.899,231.247,234.699,237.12,238.503,243.452,248.402,251.289,252.62,256.072,259.876,262.297,267.132,272.082,280.852,285.801,289.719,293.494,298.44300000000004,299.844,304.794,308.246,312.033" y="247.98000000000002" svg_rhmargin="316.982" style="fill:#171615;font-family:BEHJOI+AdvOTbc475f09;font-size:8.97px;font-style:NORMAL;font-weight:normal;">been mainly applied in clinical trials of drugs, but seldombeen used</text>
  <text x="71.887,74.308,79.257,81.808,85.726,90.676,92.976,97.926,101.707,109.077,111.498,116.276,118.697,123.533,128.016,130.437,134.191,138.674,141.095,143.658,147.11,149.894,154.844,159.793,164.276,166.789,171.738,174.625,177.22,181.138,185.951,189.403,194.227,199.177,201.484,205.40200000000002,208.061,213.01,215.317,218.769,222.573,227.057,230.397,234.315,237.653" y="258.92100000000005" svg_rhmargin="240.074" style="fill:#171615;font-family:BEHJOI+AdvOTbc475f09;font-size:8.97px;font-style:NORMAL;font-weight:normal;">in epidemiological study of chronic diseases.</text>
  <text x="80.844,86.726,91.675,95.594,99.046,102.964,105.851,110.801,114.253,118.171,120.59200000000001,123.985,128.935,133.418,136.87,140.788,145.73700000000002,149.1,154.049,158.99800000000002,162.366,167.315,172.264,175.631,180.115,184.033,188.516,191.968" y="269.86300000000006" svg_rhmargin="195.42" style="fill:#171615;font-family:BEHJOI+AdvOTbc475f09;font-size:8.97px;font-style:NORMAL;font-weight:normal;">Therefore, based on 10 years</text>
  <text svg_rhmargin="197.842" x="195.421,197.84199999999998" y="269.86300000000006" style="fill:#171615;font-family:BEHJOK+AdvOTbc475f09+20;font-size:8.97px;font-style:NORMAL;font-weight:normal;">’ </text>
  <text x="201.203,206.153,210.636,213.523,215.944,219.862,224.812,227.699" y="269.86300000000006" svg_rhmargin="231.151" style="fill:#171615;font-family:BEHJOI+AdvOTbc475f09;font-size:8.97px;font-style:NORMAL;font-weight:normal;">patients</text>
  <text svg_rhmargin="233.615" x="231.194,233.61499999999998" y="269.86300000000006" style="fill:#171615;font-family:BEHJOK+AdvOTbc475f09+20;font-size:8.97px;font-style:NORMAL;font-weight:normal;">’ </text>
  <text x="236.976,241.925,246.409,249.296,253.779,257.102,259.523,264.47200000000004,267.873,273.289,280.193,286.631,289.983,292.87,296.322,301.272,308.642,312.037" y="269.86300000000006" svg_rhmargin="316.986" style="fill:#171615;font-family:BEHJOI+AdvOTbc475f09;font-size:8.97px;font-style:NORMAL;font-weight:normal;">data in EDC from 5</text>
  <text x="71.886,79.256,83.174,88.124,90.545,94.463,98.946,101.367,105.674,109.592,113.51,118.46,121.347,125.265,128.717,132.169,136.4,138.821,143.77,148.022,152.971,157.263,161.181,163.602,166.489,168.91,172.828,176.28,178.701,183.001,189.905,193.823,198.081,203.031,206.949,210.401,212.822,217.305,222.254,226.173,231.122,235.384,238.271,243.22,245.641,249.093,253.355,256.807,259.694,264.643,269.593,274.076,278.356,281.243,286.192,290.431,293.319,298.268,301.72,304.607,309.556,313.475" y="280.861" svg_rhmargin="316.927" style="fill:#171615;font-family:BEHJOI+AdvOTbc475f09;font-size:8.97px;font-style:NORMAL;font-weight:normal;">medical centers in 4 cities, we designed this study to further</text>
  <text x="71.886,75.804,80.754" y="291.802" svg_rhmargin="85.703" style="fill:#171615;font-family:BEHJOI+AdvOTbc475f09;font-size:8.97px;font-style:NORMAL;font-weight:normal;">con</text>
  <text x="85.719" y="291.802" svg_rhmargin="90.668" style="fill:#171615;font-family:BEHJOJ+AdvOTbc475f09+fb;font-size:8.97px;font-style:NORMAL;font-weight:normal;">ﬁ</text>
  <text x="90.651,94.103,101.473,103.237,106.125,111.074,114.992,116.73,121.213,124.665,128.117,133.067,136.985,139.406,143.889,146.776,149.197,154.146,159.095,160.835,165.785,169.703,172.59,179.494,183.412,187.331,192.28,194.056,198.539,203.023,206.475,208.895,212.814,217.763,219.511,222.963,225.384,228.836,233.785,237.237,239.012,243.495,248.445,253.394,255.113,261.551,267.989,270.40999999999997,272.177,276.66,281.609,286.558,288.278,292.761,297.71,302.193,304.614,309.097,313.016" y="291.802" svg_rhmargin="316.934" style="fill:#171615;font-family:BEHJOI+AdvOTbc475f09;font-size:8.97px;font-style:NORMAL;font-weight:normal;">rm the association between varied risks and AA, and analyze</text>
  <text x="71.886,74.773,79.722,83.64,87.079,90.998,95.947,98.368,103.317,107.235,114.606,117.027,120.94500000000001,124.382,127.269,131.187,135.67,138.557,143.507,146.959,150.877,154.329,157.773,162.723,165.61,169.055,175.492,181.92999999999998,185.325,187.746,192.69500000000002,196.153,202.591,207.541,209.962,214.911,219.394,221.815,225.236,230.185,234.668,238.105,243.054,246.506,248.927,253.877,258.36,261.745,266.695,271.644,275.096,280.046,282.467,285.354,289.837,292.258,295.145,300.094,304.578,308.03,311.948" y="302.744" svg_rhmargin="316.897" style="fill:#171615;font-family:BEHJOI+AdvOTbc475f09;font-size:8.97px;font-style:NORMAL;font-weight:normal;">the epidemic features of AA in China, by using hospital-based</text>
  <text x="71.886,76.835,81.318,84.206,88.689,93.638,98.121,101.573,105.492,107.91300000000001,112.307,121.273,125.191,129.541,134.49,139.44,144.389,148.30700000000002,152.671,155.558,160.508,162.929,166.381,170.756,174.208,177.096,182.045,186.994,191.477,195.871,199.789,204.739,209.688,212.109,217.05800000000002,221.439,223.86,228.343,232.826,237.199,240.087,245.036,248.954,253.3,257.783,261.235,266.185,271.134,276.084,281.033,287.937,292.886,296.338,301.28700000000003,305.682,308.569,313.519" y="313.686" svg_rhmargin="316.971" style="fill:#171615;font-family:BEHJOI+AdvOTbc475f09;font-size:8.97px;font-style:NORMAL;font-weight:normal;">database. We hope this study could lay the groundwork for</text>
  <text x="71.886,76.369,79.821,83.273,87.191,90.643,94.095,96.516,101.466,105.949,107.885,114.322,120.76,123.647,127.099,131.018,133.439,137.922,140.809,144.727,149.67600000000002,151.65,155.102,157.523,160.975,165.924,169.376,171.322,175.805,180.755,185.704,187.592,192.542,195.994,200.943,205.426,207.847,212.797,216.715,218.659,222.577,227.06,229.481,234.431,238.349,243.298,247.217,251.13500000000002,253.071,255.958,260.907,264.359,266.28,271.229,274.681,278.599,283.083,287.001,291.95,294.837,297.258,302.208,307.15700000000004,309.138,314.087" y="324.684" svg_rhmargin="316.974" style="fill:#171615;font-family:BEHJOI+AdvOTbc475f09;font-size:8.97px;font-style:NORMAL;font-weight:normal;">assessing AA-related risks and provide evidence for prevention of</text>
  <text x="71.886,78.324,84.762,87.76,92.243,99.613,104.563,109.512,113.995,117.012,119.899,124.849,128.767,131.752,136.701,139.122,143.605,148.555,151.442,154.894,157.315,160.767,165.716,168.715,173.664,178.614,183.563,188.512,190.933,195.416,198.304,200.724,205.674,210.623" y="335.625" svg_rhmargin="213.044" style="fill:#171615;font-family:BEHJOI+AdvOTbc475f09;font-size:8.97px;font-style:NORMAL;font-weight:normal;">AA among the high-risk population.</text>
  <text x="71.887,77.802,80.75500000000001,85.493,94.162,99.68,103.324,109.041,112.978,115.732,121.25,124.004,129.229,132.378,137.896,143.811,149.727,152.901,161.57,167.287,170.931,176.846,182.563,188.478" y="360.29" svg_rhmargin="193.702" style="fill:#171615;font-family:BEHJLP+AdvOTfbba3ace.B;font-size:9.46px;font-style:NORMAL;font-weight:normal;">2. Materials and methods</text>
  <text x="71.887,76.836,79.257,84.206,86.62700000000001,91.105,96.888,99.775,104.904,110.32,114.803,117.807,122.29,127.239,130.126,133.013,135.156,140.285,145.512,148.533,153.483,158.611,164.02599999999998,167.015,172.43,177.38,180.643,183.53,185.673,190.623,192.766,198.181,203.131,208.26,211.147" y="378.205" svg_rhmargin="215.63" style="fill:#171615;font-family:BEHKGP+AdvOT01861455.I;font-size:8.97px;font-style:NORMAL;font-weight:normal;">2.1. Study setting and participants</text>
  <text x="71.887,78.325,83.055,86.973,91.456,94.908" y="394.135" svg_rhmargin="98.826" style="fill:#171615;font-family:BEHJOI+AdvOTbc475f09;font-size:8.97px;font-style:NORMAL;font-weight:normal;">A case</text>
  <text x="98.816" y="394.135" svg_rhmargin="103.299" style="fill:#171615;font-family:BEHJOK+AdvOTbc475f09+20;font-size:8.97px;font-style:NORMAL;font-weight:normal;">–</text>
  <text x="103.295,107.213,112.162,117.112,119.999,123.451,128.4,130.821,135.608,139.06,141.947,146.897,151.846,156.329,161.063,167.967,172.45,175.902,180.621,184.539,189.489,194.438,199.387,204.337,208.255,211.142,215.061,220.01000000000002,224.726,227.147,232.096,236.858,241.80700000000002,246.553,250.471,252.892,255.779,258.2,262.118,265.57,270.306,275.256,278.143,282.892,289.33,294.28,298.198,300.619,303.04,307.523,312.472" y="394.135" svg_rhmargin="316.955" style="fill:#171615;font-family:BEHJOI+AdvOTbc475f09;font-size:8.97px;font-style:NORMAL;font-weight:normal;">control study was conducted in 4 cities of Zhejiang</text>
  <text x="71.887,76.836,80.288,85.237,89.721,92.141,97.091,101.009,104.927,107.34800000000001,111.571,115.489,119.972,123.424,126.311,130.229,133.681,138.63000000000002,142.807,146.726,151.675,156.158,159.61,162.497,166.98,169.40099999999998,173.59,178.54,181.992,186.941,191.424,193.845,198.795,202.713,206.631,210.836,215.786,218.673,222.855,229.293,234.242,236.663,241.612,246.096,248.517,252.732,258.613,263.563,267.481,271.667,276.616,281.099,284.551,287.438,289.859,293.777,296.198,301.148,305.631,310.58,313.467" y="405.133" svg_rhmargin="316.919" style="fill:#171615;font-family:BEHJOI+AdvOTbc475f09;font-size:8.97px;font-style:NORMAL;font-weight:normal;">Province, eastern coastal province of China. The participants</text>
  <text x="71.887,74.307,79.257,83.175,85.596,90.545,95.495,99.413,104.362,108.339,110.76,115.709,118.597,123.546,128.495,131.947,136.897,139.318,142.205,146.688,149.10899999999998,153.068,158.018,162.501,165.388,167.809,171.727,176.677,179.564,183.016,187.026,189.914,193.366,198.315,205.685,209.647,214.596,218.547,225.918,230.401,232.822,237.771,241.22299999999998,245.193,252.563,256.481,261.431,263.851,267.77,272.253,274.674,278.641,282.559,286.477,291.426,294.314,298.232,301.684,305.136,309.14,314.09" y="416.075" svg_rhmargin="316.977" style="fill:#171615;font-family:BEHJOI+AdvOTbc475f09;font-size:8.97px;font-style:NORMAL;font-weight:normal;">included in-hospital patients from 5 major medical centers of</text>
  <text x="71.887,79.356,83.839,88.788,93.271,97.189,102.139,107.088,112.038,114.459,118.203,123.619,126.039,129.491,134.441,139.39,141.811,144.232,148.022,151.474,153.895,158.378,163.328,165.748,170.698,175.181,177.602,181.356,185.839,190.789,195.738,199.441,202.893,205.314,210.264,215.213,220.162,224.645,228.41,234.848,237.269,240.156,244.639,248.422,251.309,254.761,259.711,267.081,270.816,274.268,278.751,283.7,288.65,293.133,296.585,301.068,304.83" y="427.016" svg_rhmargin="309.779" style="fill:#171615;font-family:BEHJOI+AdvOTbc475f09;font-size:8.97px;font-style:NORMAL;font-weight:normal;">Hangzhou, Lishui, Jiaxing, and Jinhua City from January 1</text>
  <text x="309.77,312.36" y="423.049" svg_rhmargin="314.525" style="fill:#171615;font-family:BEHJOI+AdvOTbc475f09;font-size:5.98px;font-style:NORMAL;font-weight:normal;">st</text>
  <text x="314.532" y="427.017" svg_rhmargin="316.953" style="fill:#171615;font-family:BEHJOI+AdvOTbc475f09;font-size:8.97px;font-style:NORMAL;font-weight:normal;">,</text>
  <text x="71.885,76.835,81.784,86.733,91.682,94.052,96.939,101.88799999999999,104.313,107.765,112.248,117.197,122.147,126.63,130.082,134.565,136.967" y="438.015" svg_rhmargin="141.916" style="fill:#171615;font-family:BEHJOI+AdvOTbc475f09;font-size:8.97px;font-style:NORMAL;font-weight:normal;">2003 to January 1</text>
  <text x="141.902,144.491" y="433.991" svg_rhmargin="146.656" style="fill:#171615;font-family:BEHJOI+AdvOTbc475f09;font-size:5.98px;font-style:NORMAL;font-weight:normal;">st</text>
  <text x="146.665,149.08599999999998,151.483,156.432,161.382,166.331,171.281,173.702,176.144,182.026,186.975,190.893,193.265,196.717,199.604,204.554,209.503,213.986,216.395,221.345,225.828,230.77700000000002,233.176,237.659,241.577,246.527,251.476,253.897,257.349,261.267,266.216,268.608,271.495,276.445,280.363,282.781,287.264,292.214,297.163,300.615,305.564,310.048,314.531" y="438.016" svg_rhmargin="316.952" style="fill:#171615;font-family:BEHJOI+AdvOTbc475f09;font-size:8.97px;font-style:NORMAL;font-weight:normal;">, 2014. The study had acquired the approval</text>
  <text x="71.886,76.836,79.723,82.374,86.293,89.18,94.129,99.079,101.499,105.418,108.87,111.57,115.489,120.438,127.808,135.179,137.6,140.487,143.374,147.292,151.21,153.862,158.811,161.698,164.406,167.293,172.243,176.161,178.806,183.755,186.176,189.628,193.08,195.967,198.648,205.085" y="448.957" svg_rhmargin="207.972" style="fill:#171615;font-family:BEHJOI+AdvOTbc475f09;font-size:8.97px;font-style:NORMAL;font-weight:normal;">of ethnics committee of the First Af</text>
  <text x="207.95" y="448.957" svg_rhmargin="212.899" style="fill:#171615;font-family:BEHJOJ+AdvOTbc475f09+fb;font-size:8.97px;font-style:NORMAL;font-weight:normal;">ﬁ</text>
  <text x="212.939,215.36,217.781,222.264,225.151,229.069,234.018,236.692,244.161,249.111,252.563,257.512,259.933,262.82,267.303,269.724,272.408,277.357,280.244,282.896,289.334,294.283,298.201,300.622,303.043,307.526,312.476" y="448.957" svg_rhmargin="316.959" style="fill:#171615;font-family:BEHJOI+AdvOTbc475f09;font-size:8.97px;font-style:NORMAL;font-weight:normal;">liated Hospital of Zhejiang</text>
  <text x="71.886,78.324,83.274,85.695,90.644,94.562,98.014,101.932,104.257,113.223,117.141,122.091,124.511,128.43,132.913,135.334,137.647,144.085,149.034,151.455,155.938,159.857,163.309,166.761,169.182,172.069,176.552,178.97299999999998,181.299,188.203,190.624,193.511,198.46,200.8,204.252,208.171,211.058,214.976,218.428,222.346,227.296,231.214,235.132,237.48,242.429,247.378,254.749,259.698,263.616,267.068,269.397,274.346,277.233,279.489,284.438,289.387,294.337,299.286,302.173,308.611,314.027" y="459.899" svg_rhmargin="316.914" style="fill:#171615;font-family:BEHJOI+AdvOTbc475f09;font-size:8.97px;font-style:NORMAL;font-weight:normal;">Chinese Medical University, with reference number of 2014-KL-</text>
  <text x="71.886,76.836,81.785" y="470.897" svg_rhmargin="86.734" style="fill:#171615;font-family:BEHJOI+AdvOTbc475f09;font-size:8.97px;font-style:NORMAL;font-weight:normal;">018</text>
  <text x="86.74" y="470.897" svg_rhmargin="91.223" style="fill:#171615;font-family:BEHJOK+AdvOTbc475f09+20;font-size:8.97px;font-style:NORMAL;font-weight:normal;">–</text>
  <text x="91.219,96.168,101.117,103.53800000000001,105.448,111.33,116.28,120.19800000000001,122.059,128.497,130.918,133.339,138.288,140.709,144.627,149.111,151.53199999999998,153.466,159.904,163.356,166.808,170.726,174.178,177.631,185.001,188.919,193.868,196.755,198.649,203.132,208.082,213.031,214.92,221.357,226.307,230.79,233.211,237.694,241.146,243.567,247.019,248.934,255.372,259.29,264.24,267.127,271.045,274.497,276.429,281.379,284.266,286.124,289.011,293.96,297.878,299.787,304.736,307.157,310.609,314.061" y="470.897" svg_rhmargin="316.948" style="fill:#171615;font-family:BEHJOI+AdvOTbc475f09;font-size:8.97px;font-style:NORMAL;font-weight:normal;">01. The Clinical Assessment and Analysis Center of the First</text>
  <text x="71.886,78.324" y="481.839" svg_rhmargin="81.211" style="fill:#171615;font-family:BEHJOI+AdvOTbc475f09;font-size:8.97px;font-style:NORMAL;font-weight:normal;">Af</text>
  <text x="81.241" y="481.839" svg_rhmargin="86.19" style="fill:#171615;font-family:BEHJOJ+AdvOTbc475f09+fb;font-size:8.97px;font-style:NORMAL;font-weight:normal;">ﬁ</text>
  <text x="86.173,88.594,91.015,95.498,98.385,102.304,107.253,110.097,117.566,122.516,125.968,130.917,133.338,136.225,140.708,143.129,145.982,150.932,153.819,156.64,163.078,168.028,171.946,174.367,176.788,181.271,186.22,190.703,193.547,199.984,204.934,207.355,212.304,216.222,219.674,223.592,226.428,235.394,239.312,244.262,246.683,250.601,255.084,257.505,260.329,266.767,271.717,274.138,278.621,282.539,285.991,289.443,291.864,294.751,299.234,302.111,309.015,313.498" y="481.839" svg_rhmargin="316.95" style="fill:#171615;font-family:BEHJOI+AdvOTbc475f09;font-size:8.97px;font-style:NORMAL;font-weight:normal;">liated Hospital of Zhejiang Chinese Medical University was</text>
  <text x="71.886,75.338,79.257,82.709,87.658,92.608,97.557,101.009,103.43,108.379,110.8,114.718,117.636,120.523,125.473,128.925,131.866,136.815,141.298,144.185,148.668,151.538,158.908,163.391,168.341,172.824,177.307,181.225,188.595,192.514,197.463,200.35,203.297,207.78,212.729,217.67800000000003,220.587,224.039,228.989,233.938,237.856,241.308,245.791,248.212,251.664,254.085,259.035,263.98400000000004,266.904,269.324,274.273,277.165,280.052,285.001,287.422,290.874,293.776,297.228,300.115,305.064,310.014,314.497" y="492.78" svg_rhmargin="316.918" style="fill:#171615;font-family:BEHJOI+AdvOTbc475f09;font-size:8.97px;font-style:NORMAL;font-weight:normal;">responsible for data management and supervision in this study.</text>
  <text x="71.886,76.836,79.257,84.206,86.62700000000001,91.105,97.543,102.492,106.975,111.925" y="517.442" svg_rhmargin="116.408" style="fill:#171615;font-family:BEHKGP+AdvOT01861455.I;font-size:8.97px;font-style:NORMAL;font-weight:normal;">2.2. Cases</text>
  <text x="71.886,78.324,82.807,86.259,90.178,93.63,99.779,104.728,109.211,112.663,115.551,117.971,121.89,124.311,129.26,133.743,138.693,141.58,145.032,151.198,158.102,162.02,165.472,169.39000000000001,175.519,178.971,182.889,186.808,190.26,195.209,197.63,200.517,204.435,209.38400000000001,215.543,218.43,221.882,226.831,234.201,240.374,243.261,248.211,252.12900000000002,258.232,263.182,265.602,269.055,272.507,275.394,281.589,288.027" y="533.3720000000001" svg_rhmargin="290.914" style="fill:#171615;font-family:BEHJOI+AdvOTbc475f09;font-size:8.97px;font-style:NORMAL;font-weight:normal;">Cases participants were recruited from the First Af</text>
  <text x="290.892" y="533.3720000000001" svg_rhmargin="295.841" style="fill:#171615;font-family:BEHJOJ+AdvOTbc475f09+fb;font-size:8.97px;font-style:NORMAL;font-weight:normal;">ﬁ</text>
  <text x="295.881,298.302,300.723,305.206,308.093,312.011" y="533.3720000000001" svg_rhmargin="316.96" style="fill:#171615;font-family:BEHJOI+AdvOTbc475f09;font-size:8.97px;font-style:NORMAL;font-weight:normal;">liated</text>
  <text x="71.886,79.355,84.305,87.757,92.706,95.127,98.014,102.497,104.918,109.019,113.968,116.855,120.981,127.418,132.368,136.286,138.707,141.128,145.611,150.56,155.043,159.134,165.572,170.521,172.942,177.891,181.81,185.262,189.18,193.319,202.285,206.203,211.153,213.574,217.492,221.975,224.396,228.468,234.905,239.855,242.276,246.759,250.677,254.129,257.581,260.002,262.889,267.372,269.793,273.934,276.821,281.771,285.689,289.808,294.291,298.209,302.128,307.077,312.026" y="544.371" svg_rhmargin="316.975" style="fill:#171615;font-family:BEHJOI+AdvOTbc475f09;font-size:8.97px;font-style:NORMAL;font-weight:normal;">Hospital of Zhejiang Chinese Medical University, the Second</text>
  <text x="71.886,78.324" y="555.312" svg_rhmargin="81.211" style="fill:#171615;font-family:BEHJOI+AdvOTbc475f09;font-size:8.97px;font-style:NORMAL;font-weight:normal;">Af</text>
  <text x="81.241" y="555.312" svg_rhmargin="86.19" style="fill:#171615;font-family:BEHJOJ+AdvOTbc475f09+fb;font-size:8.97px;font-style:NORMAL;font-weight:normal;">ﬁ</text>
  <text x="86.173,88.594,91.015,95.498,98.385,102.304,107.253,111.174,118.643,123.592,127.044,131.994,134.415,137.302,141.785,144.206,148.137,153.086,155.973,159.815,166.253,171.203,175.121,177.542,179.963,184.446,189.395,193.87800000000001,197.798,204.236,209.186,211.607,216.556,220.474,223.926,227.844,231.757,240.723,244.641,249.59,252.011,255.93,260.413,262.834,266.735,273.173,278.122,280.543,285.026,288.944,292.397,295.849,298.269,301.157,305.64,309.593,314.076" y="555.312" svg_rhmargin="316.963" style="fill:#171615;font-family:BEHJOI+AdvOTbc475f09;font-size:8.97px;font-style:NORMAL;font-weight:normal;">liated Hospital of Zhejiang Chinese Medical University at</text>
  <text x="71.886,79.355,83.839,88.788,93.271,97.189,102.139,107.088,112.03699999999999,117.863,124.301,126.722,129.609,134.092,136.513,142.41,147.826,150.247,153.699,158.648,163.597,166.018,171.889,178.327,180.748,183.635,188.118,193.999,198.949,202.867,207.816,212.766,215.187" y="566.254" svg_rhmargin="219.105" style="fill:#171615;font-family:BEHJOI+AdvOTbc475f09;font-size:8.97px;font-style:NORMAL;font-weight:normal;">Hangzhou City, Lishui City People</text>
  <text x="219.119" y="566.254" svg_rhmargin="221.54" style="fill:#171615;font-family:BEHJOK+AdvOTbc475f09+20;font-size:8.97px;font-style:NORMAL;font-weight:normal;">’</text>
  <text x="221.556,225.008,230.855,238.323,243.273,246.725,251.674,254.095,256.982,261.465,263.886,266.307,272.182,275.069,280.019,283.937,289.813,294.297,298.215,302.133,307.082,312.032" y="566.254" svg_rhmargin="316.981" style="fill:#171615;font-family:BEHJOI+AdvOTbc475f09;font-size:8.97px;font-style:NORMAL;font-weight:normal;">s Hospital, the Second</text>
  <text x="71.887,79.355,84.305,87.757,92.706,95.127,98.014,102.497,104.918,107.545,112.495,115.382,117.977,121.429,123.85,128.333,133.282,135.703,140.653,145.136,147.557,150.178,154.661,159.61,164.55900000000003,167.185,170.637,173.058,178.007,182.957,187.906,192.389,194.963,199.913,203.831,208.78,213.73,216.151" y="577.252" svg_rhmargin="220.069" style="fill:#171615;font-family:BEHJOI+AdvOTbc475f09;font-size:8.97px;font-style:NORMAL;font-weight:normal;">Hospital of Jiaxing, and Jinhua People</text>
  <text x="220.082" y="577.252" svg_rhmargin="222.503" style="fill:#171615;font-family:BEHJOK+AdvOTbc475f09+20;font-size:8.97px;font-style:NORMAL;font-weight:normal;">’</text>
  <text x="222.52,225.972,228.587,236.056,241.005,244.457,249.407,251.828,254.715,259.198,261.619,264.04,266.626,272.042,274.463,276.884,281.367,283.788,288.737,291.158,295.076,297.749,301.668,306.151,309.603,313.521" y="577.252" svg_rhmargin="316.973" style="fill:#171615;font-family:BEHJOI+AdvOTbc475f09;font-size:8.97px;font-style:NORMAL;font-weight:normal;">s Hospital. Eligible cases</text>
  <text x="71.887,74.307,79.257,83.175,85.596,90.545,95.495,99.413,104.362,111.457,116.407,120.89,123.777,126.198,130.116,135.066,137.953,141.405,148.477,155.381,160.33,165.27900000000002,172.344,179.714,183.633,186.52,193.603,196.49,201.44,205.358,212.482,217.431,219.852,224.335,228.818,233.768,238.717,242.169,244.59,248.042,255.114,259.032,262.484,264.905,267.792,271.71,275.162,277.583,282.06600000000003,289.186,294.135,297.022,304.096,310.534" y="588.193" svg_rhmargin="316.972" style="fill:#171615;font-family:BEHJOI+AdvOTbc475f09;font-size:8.97px;font-style:NORMAL;font-weight:normal;">included patients who met the diagnosis criteria of AA</text>
  <text x="71.887,74.775,80.657,85.141,90.092,92.513,96.43100000000001,99.269,104.219" y="599.135" svg_rhmargin="107.106" style="fill:#171615;font-family:BEHJOI+AdvOTbc475f09;font-size:8.97px;font-style:NORMAL;font-weight:normal;">(Table 1)</text>
  <text svg_rhmargin="118.849" x="107.093,109.259,112.972,116.684,118.849" y="599.137" style="fill:#171615;font-family:BEHJOI+AdvOTbc475f09;font-size:5.98px;font-style:NORMAL;font-weight:normal;">[11] </text>
  <text x="121.72,126.203,131.152,136.101,138.897,145.801,149.72,153.172,157.09,159.93,166.834,169.255,171.675,174.096,176.517,181.467,185.95000000000002,188.786,191.673,196.622,199.444,204.393,208.877,212.329,215.216,217.637,221.555,223.976,228.925,233.408,236.296,240.214,243.039,245.46,250.40900000000002,253.244,256.131,261.08,264.998,267.813,271.265,274.152,279.102,284.051,288.534,290.955,293.778,299.66,304.609,309.558,313.01" y="599.137" svg_rhmargin="316.928" style="fill:#171615;font-family:BEHJOI+AdvOTbc475f09;font-size:8.97px;font-style:NORMAL;font-weight:normal;">and were willing to participate in the study. Those</text>
  <text x="71.887,78.791,83.74,88.69,92.142,96.06,99.155,106.525,110.444,115.393,117.814,121.732,126.215,128.636,131.752,135.204,139.122,143.041,147.99,151.442,156.391,159.843,162.932,169.836,173.755,177.207,181.125,184.192,189.141,194.09,196.977,200.065,204.549,208.467,212.385,216.303,219.755,223.207,225.628,230.578,232.999,236.917,240.033,244.516,249.465,254.41400000000002,257.494,264.398,269.347,274.296,277.393,284.297,288.215,291.667,295.585,298.652,303.601,307.519,312.003" y="610.079" svg_rhmargin="316.952" style="fill:#171615;font-family:BEHJOI+AdvOTbc475f09;font-size:8.97px;font-style:NORMAL;font-weight:normal;">whose medical records were not accessible and who were dead</text>
  <text x="71.887,78.791,82.709,86.161,90.07900000000001,92.806,97.755,102.705,105.592,108.339,110.76,115.71,119.628,122.049,126.998,131.948,135.866,140.815,143.236,145.982,151.397,156.347,160.265,162.686,167.635,171.087,173.508,178.458,183.407,186.119,190.038,193.49,195.91,198.798,202.716,206.168,208.589,213.072,215.826,218.246,223.196,227.114,229.535,234.484,239.434,243.352,248.30100000000002,251.031,255.98,258.401,261.853,264.74,269.69,273.142,277.625,280.34,285.289,288.176,290.884,293.771,298.721,306.091,311.04,314.493" y="621.077" svg_rhmargin="316.914" style="fill:#171615;font-family:BEHJOI+AdvOTbc475f09;font-size:8.97px;font-style:NORMAL;font-weight:normal;">were not included. Exclusion criteria included history of tumor,</text>
  <text x="71.887,75.339,79.822,84.771,87.192,92.142,95.029,99.978,103.896,107.349,111.832,116.781,121.26400000000001,124.439,128.922,133.872,138.82100000000003,141.957,145.875,150.824,154.743,162.113,167.062,169.949,174.899,178.817,182.269,186.752,191.702,196.185,198.606,201.765,204.186,211.557,218.927,223.876,228.826,233.775,236.196,241.145,245.629,248.05,251.968,256.451,258.872,262.084,264.972,269.921,273.839,277.291,281.774,286.724,291.207,293.628,296.78,301.729,304.616,309.565,313.484" y="632.018" svg_rhmargin="316.936" style="fill:#171615;font-family:BEHJOI+AdvOTbc475f09;font-size:8.97px;font-style:NORMAL;font-weight:normal;">radiotherapy and chemotherapy, immunological therapy, other</text>
  <text x="71.887,76.836,79.257,84.206,89.156,94.105,101.65,105.102,109.585,113.037,115.924,119.842,127.212,134.758,139.707,142.128,145.58,149.498,153.981,157.433,161.352,164.804,167.225,174.838,177.259,184.629,191.999,196.949,201.898,205.816,213.388,218.337,220.758,224.21,229.159,232.611,237.561,241.479,244.931,248.383,255.906,259.358,264.307,268.225,273.17400000000004,280.737,285.22,288.672,296.214,298.635,303.584,308.533,313.483" y="642.96" svg_rhmargin="316.935" style="fill:#171615;font-family:BEHJOI+AdvOTbc475f09;font-size:8.97px;font-style:NORMAL;font-weight:normal;">blood system diseases, immune disorders such as lupus</text>
  <text x="71.887,75.805,79.257,83.74,86.627,91.577,95.495,102.865,107.349,110.236,115.185,118.637,123.586,127.038,134.7,139.183,144.133,149.08200000000002,156.754,161.237,166.186,171.136,175.619,178.04,182.989,186.441,188.862,193.811,198.294,205.962,209.414,214.363,219.313,224.262,229.211,233.694,236.115,238.536,241.423,243.844,247.296,249.71699999999998,257.381,262.33,266.813,271.763,275.681,279.133,282.585,286.503,291.453,294.905,297.326,300.213,302.634,307.117,309.538,312.425" y="653.958" svg_rhmargin="316.908" style="fill:#171615;font-family:BEHJOI+AdvOTbc475f09;font-size:8.97px;font-style:NORMAL;font-weight:normal;">erythematosus and ankylosing spondylitis, hypersensitivity</text>
  <text x="71.887,76.836,79.257,82.709,86.627,91.111,94.563,98.481,101.933,104.35400000000001,107.375,111.859,116.808,121.757,124.723,128.642,133.591,138.54,143.024,146.942,151.891,154.312,157.199,161.682,164.10299999999998,167.129,172.078,174.499,177.951,181.869,186.352,189.804,193.722,196.721,200.173,205.122,209.041,213.99,217.016,221.499,224.951,227.901,232.851,237.334,242.283,246.202,251.151,256.1,258.521,261.519,266.002,270.951,274.87,282.24,284.661,289.144" y="664.899" svg_rhmargin="291.565" style="fill:#171615;font-family:BEHJOI+AdvOTbc475f09;font-size:8.97px;font-style:NORMAL;font-weight:normal;">diseases, and congenital disease such as Fanconi anemia.</text>
  <text x="71.887,76.836,79.257,84.206,86.62700000000001,91.105,97.543,102.77,107.899,110.786,114.05,119.277,121.42" y="690.525" svg_rhmargin="125.903" style="fill:#171615;font-family:BEHKGP+AdvOT01861455.I;font-size:8.97px;font-style:NORMAL;font-weight:normal;">2.3. Controls</text>
  <text x="71.887,77.769,82.718,86.63600000000001,90.651,94.57,99.519,104.469,107.356,110.808,115.757,118.178,121.63,125.686,132.59,136.509,139.961,143.87900000000002,147.966,151.418,155.336,157.757,161.675,165.594,168.481,172.399,177.348,181.414,186.363,190.846,194.85,202.22,206.703,209.59,213.509,218.458,220.879,225.828,230.311,234.363,238.846,243.33,247.248,249.66899999999998,253.695,257.147,261.065,266.014,268.435,272.516,276.999,281.948,286.897,290.884,294.336,296.757,304.127,306.548,308.969,313.452" y="706.513" svg_rhmargin="316.904" style="fill:#171615;font-family:BEHJOI+AdvOTbc475f09;font-size:8.97px;font-style:NORMAL;font-weight:normal;">The controls were selected by matching age, sex, and similar</text>
  <text x="71.887,76.836,80.754,84.206,86.627,91.577,96.526,98.759,103.708,106.595,108.793,113.742,118.692,122.144,127.093,129.514,132.401,136.884,139.30499999999998,141.56,146.043,150.993,158.363,160.784,164.236,167.688,170.109,175.058,180.007,182.265" y="717.454" svg_rhmargin="185.152" style="fill:#171615;font-family:BEHJOI+AdvOTbc475f09;font-size:8.97px;font-style:NORMAL;font-weight:normal;">period of hospital admission (</text>
  <text x="185.16" y="717.454" svg_rhmargin="191.23" style="fill:#171615;font-family:BEHJNF+AdvOTb0c9bf5d;font-size:8.97px;font-style:NORMAL;font-weight:normal;">±</text>
  <text svg_rhmargin="316.986" x="191.226,196.175,198.37,205.74,210.69,215.639,218.526,223.476,226.928,229.815,232.045,238.949,241.37,244.257,249.20600000000002,251.433,255.352,259.835,263.287,267.205,270.657,273.078,275.3,277.721,282.67,284.881,289.364,291.571,295.023,299.506,302.393,304.814,309.76300000000003,312.037,316.986" y="248.94299999999998" style="fill:#171615;font-family:BEHJOI+AdvOTbc475f09;font-size:8.97px;font-style:NORMAL;font-weight:normal;">6 months) with cases, in a ratio 4 </text>
  <text x="331.939,334.826,339.77500000000003,342.71,347.66,350.081,353.085,358.967,363.917,367.835,372.318,375.252,382.156,386.074,389.526,393.444,396.454,400.937,403.358,406.81,411.759,414.709,417.13,422.079,427.029,431.512,434.399,436.82,440.738,445.687,448.575,452.027,455.016,457.903,461.355,466.304,473.674,476.672,481.622,485.54,490.489,494.972,498.424,501.312,508.682,512.6,517.55,520.437,523.889,526.844,531.793,534.68,537.672,542.621,546.539,551.489,553.91,558.393,561.28,564.732,567.153,571.071,574.523" y="248.94299999999998" svg_rhmargin="576.944" style="fill:#171615;font-family:BEHJOI+AdvOTbc475f09;font-size:8.97px;font-style:NORMAL;font-weight:normal;">to 1. They were also inpatients from departments of pediatrics,</text>
  <text x="331.939,336.422,340.905,344.357,347.245,350.697,355.646,358.067,363.016,365.903,369.822,373.274,376.161,378.582,383.531,388.014,390.435,397.247,400.699,405.648,409.1,413.584,417.502,420.954,425.437,427.858,434.72,439.669,443.587,448.537,453.02,455.907,460.857,465.806,468.227,470.648,473.069,477.552,481.004,485.487,492.318,495.77,500.719,504.171,508.654,512.572,516.024,520.508,522.9290000000001,529.734,534.683,538.135,541.023,545.972,550.921,555.871,559.789,564.738,567.159,571.078,574.53" y="259.885" svg_rhmargin="576.951" style="fill:#171615;font-family:BEHJOI+AdvOTbc475f09;font-size:8.97px;font-style:NORMAL;font-weight:normal;">gastrointestinal surgery, hepatobiliary surgery, orthopedics,</text>
  <text x="331.939,335.857,340.807,344.725,348.643,353.593,358.542,363.025,365.446,370.396,375.345,379.828,382.715,387.665,392.148,394.569,401.442,404.894,408.813,412.265,417.214,419.635,423.087,427.57,430.457,432.878,437.828,442.777,445.198,452.124,457.074,460.992,465.941,470.891,474.343,479.292,484.242,488.725,491.612,496.561,501.044,503.465,510.403,514.886,519.369,522.821,525.708,529.16,534.109,538.028,542.977,545.864,549.783,553.235,558.184,560.605,565.554,570.037,574.521" y="270.88300000000004" svg_rhmargin="576.942" style="fill:#171615;font-family:BEHJOI+AdvOTbc475f09;font-size:8.97px;font-style:NORMAL;font-weight:normal;">encephalopathy, respiration, nephropathy, gastroenterology,</text>
  <text x="331.939,335.857,340.341,343.793,348.742,351.163,356.112,360.595,365.079,368.531,372.449,377.398,379.819,384.302,387.754,390.175,395.377,401.258,406.208,410.12600000000003,415.276,418.728,423.211,430.581,434.499,439.653,443.571,448.521,452.439,454.86,459.809,463.261,465.682,470.632,475.581,480.811,484.729,488.181,490.602,493.489,497.408,500.86,503.281,507.764,512.955,519.859,523.778,527.23,531.148,536.313,540.796,545.745,550.695,553.115,555.536,559.455,564.404,569.59,572.011" y="281.82399999999996" svg_rhmargin="576.96" style="fill:#171615;font-family:BEHJOI+AdvOTbc475f09;font-size:8.97px;font-style:NORMAL;font-weight:normal;">cardiovascular. The same exclusion criteria were applied in</text>
  <text x="331.939,335.391,339.309,341.73,345.649,349.567,352.454,354.875,359.824,364.307,367.315,371.233,376.182,381.132,384.019,387.471,392.42,394.841,398.293" y="292.766" svg_rhmargin="400.714" style="fill:#171615;font-family:BEHJOI+AdvOTbc475f09;font-size:8.97px;font-style:NORMAL;font-weight:normal;">selecting controls.</text>
  <text x="331.939,336.888,339.309,344.259,346.68,351.157,357.595,362.545,365.432,370.38100000000003,373.38,378.33,383.557,385.7,387.843,392.793,397.742,400.629,402.772,407.999,413.12800000000004,416.126,419.013,424.24,429.467" y="319.412" svg_rhmargin="431.61" style="fill:#171615;font-family:BEHKGP+AdvOT01861455.I;font-size:8.97px;font-style:NORMAL;font-weight:normal;">2.4. Data collection tool</text>
  <text x="331.939,337.821,342.77,346.688,352.745,359.183,361.604,364.025,368.974,371.395,375.314,379.797,382.218,388.348,394.786,398.238,401.69,405.608,409.06,412.512,419.882,423.801,428.75,431.637,437.726,442.209,447.159,452.108,458.192,464.63,469.579,474.062,476.483,480.966,484.418,486.839,490.291,496.402,502.84,506.758,511.707,514.594,518.046,521.964,528.036,532.985,535.872,541.925,544.813,549.762,553.68,559.784,564.733,567.154,570.606,574.058" y="335.4" svg_rhmargin="576.945" style="fill:#171615;font-family:BEHJOI+AdvOTbc475f09;font-size:8.97px;font-style:NORMAL;font-weight:normal;">The Clinical Assessment and Analysis Centre of the First</text>
  <text x="331.939,338.377" y="346.341" svg_rhmargin="341.264" style="fill:#171615;font-family:BEHJOI+AdvOTbc475f09;font-size:8.97px;font-style:NORMAL;font-weight:normal;">Af</text>
  <text x="341.237" y="346.341" svg_rhmargin="346.186" style="fill:#171615;font-family:BEHJOJ+AdvOTbc475f09+fb;font-size:8.97px;font-style:NORMAL;font-weight:normal;">ﬁ</text>
  <text x="346.226,348.647,351.068,355.551,358.438,362.356,367.305,373.098,380.567,385.516,388.968,393.918,396.339,399.226,403.709,406.13,411.875,416.824,419.711,425.481,431.919,436.868,440.786,443.207,445.628,450.111,455.061,459.544,465.335,471.773,476.722,479.143,484.093,488.011,491.463,495.38100000000003,501.165,510.131,514.049,518.999,521.419,525.338,529.821,532.2420000000001,538.071,544.509,549.458,551.879,556.362,560.28,563.732,567.184,569.605,572.492" y="346.341" svg_rhmargin="576.975" style="fill:#171615;font-family:BEHJOI+AdvOTbc475f09;font-size:8.97px;font-style:NORMAL;font-weight:normal;">liated Hospital of Zhejiang Chinese Medical University</text>
  <text x="331.939,336.889,340.807,344.259,346.68,351.163,356.112,360.031,364.98,367.031,371.514,373.55,378.499,382.983,385.87,390.353,395.302,399.785,403.237,407.15500000000003,409.209,414.158,418.642,422.094,426.012,430.961,433.019,437.968,442.91700000000003,444.981,450.397,457.301,463.739,465.786,468.673,473.623,477.075,479.166,482.053,487.002,489.423,492.875,494.926,498.378,501.265,506.215,511.164,515.647,518.0680000000001,520.097,525.046,528.498,532.417,535.304,538.756,543.705,547.157,551.64,555.559,560.0419999999999,562.161,569.066,573.549" y="357.283" svg_rhmargin="577.001" style="fill:#171615;font-family:BEHJOI+AdvOTbc475f09;font-size:8.97px;font-style:NORMAL;font-weight:normal;">designed a database based on EDC for this study. Pre-survey was</text>
  <text x="331.939" y="368.281" svg_rhmargin="336.888" style="fill:#171615;font-family:BEHJOJ+AdvOTbc475f09+fb;font-size:8.97px;font-style:NORMAL;font-weight:normal;">ﬁ</text>
  <text x="336.871,340.324,343.776,346.663,349.084,353.567,357.564,361.482,366.432,371.381,376.33,381.28,385.198,388.085,392.003,396.952,400.876,405.359,412.729,417.678,422.628,427.111,431.092,437.53,443.96799999999996,447.93,452.879,457.362,460.25,462.671,466.589,471.538,474.425,477.877,481.888,484.309,489.25800000000004,493.227,496.114,501.063,504.981,508.93,512.382,516.866,524.236,528.154,532.117,539.586,544.536,547.988,552.937,555.358,558.245,562.728,565.149,569.136,572.024" y="368.281" svg_rhmargin="576.973" style="fill:#171615;font-family:BEHJOI+AdvOTbc475f09;font-size:8.97px;font-style:NORMAL;font-weight:normal;">rstly conducted among AA patients in the same Hospital to</text>
  <text x="331.939,334.36,339.309,343.228,348.177,351.064,353.485,356.372,360.855,363.459,370.83,374.748,379.231,382.683,387.632,391.084,395.003,398.455,401.045,405.528,410.478,415.427,418.052,423.002,427.951,430.838,434.757,439.706,447.076,450.995,454.447,457.056,459.477,464.426,466.977,469.864,474.814,477.234,480.686,483.304,486.756,489.643,494.592,499.542,504.025,506.44599999999997,509.042,514.923,519.873,523.791,526.39,531.339,535.822,538.709,543.192,548.142,552.625,556.077,559.995,562.615,567.565,572.048" y="379.222" svg_rhmargin="576.997" style="fill:#171615;font-family:BEHJOI+AdvOTbc475f09;font-size:8.97px;font-style:NORMAL;font-weight:normal;">identify measures and outcomes in this study. The database had</text>
  <text x="331.939,334.36,336.781,344.151,346.572,349.459,353.378,358.327,360.795,365.279,369.197,373.115,377.033,380.485,383.937,386.477,389.364,394.313,396.795,399.682,404.632,408.55,411.025,415.974,420.457,423.909,426.796,429.217,433.135,435.556,440.506,444.989,447.876,450.297,455.246,459.729,462.273,467.223,472.172,475.624,480.573,482.994,485.882,490.365,492.786,496.238,498.726,501.613,506.562,509.044,512.962,517.912,521.364,526.313,529.765,533.683,536.2,540.118,545.067" y="390.164" svg_rhmargin="550.016" style="fill:#171615;font-family:BEHJOI+AdvOTbc475f09;font-size:8.97px;font-style:NORMAL;font-weight:normal;">limited access to the participating hospitals to ensure con</text>
  <text x="549.981" y="390.164" svg_rhmargin="554.93" style="fill:#171615;font-family:BEHJOJ+AdvOTbc475f09+fb;font-size:8.97px;font-style:NORMAL;font-weight:normal;">ﬁ</text>
  <text x="554.97,559.919,563.837,568.787,571.674,574.095" y="390.164" svg_rhmargin="576.982" style="fill:#171615;font-family:BEHJOI+AdvOTbc475f09;font-size:8.97px;font-style:NORMAL;font-weight:normal;">denti-</text>
  <text x="331.939,336.422,338.843,341.264,344.151,348.634,351.611,356.561,359.448,362.44,366.923,369.344,371.765,374.799,379.748,384.231,387.684,390.571,392.992,396.91,399.331,404.28,408.763,413.713,416.6,420.052" y="401.106" svg_rhmargin="422.473" style="fill:#171615;font-family:BEHJOI+AdvOTbc475f09;font-size:8.97px;font-style:NORMAL;font-weight:normal;">ality of all participants.</text>
  <text x="340.896,347.964,352.61,355.66,360.14300000000003,362.237,369.304,373.386,377.001,380.919,383.01,387.092,392.204,394.788,397.372,401.454,405.535,408.54,412.621,417.57,419.708,424.821,429.30400000000003,431.398,434.448,438.063,442.71,445.294,450.406,454.488,459.437,461.575,465.657,468.241,470.825,475.938,478.522,482.603,487.249,489.67,491.785,495.413,499.495,503.11,507.191,511.838,515.453,519.534,524.647,528.729,532.344,535.959,538.38,540.494,543.499,548.658,551.663,556.822,560.437,567.971,572.052" y="412.104" svg_rhmargin="577.001" style="fill:#171615;font-family:BEHJOI+AdvOTbc475f09;font-size:8.97px;font-style:NORMAL;font-weight:normal;">Data were collected by trained clinical researchers. Informed</text>
  <text x="331.939,336.021,341.133,346.246,349.861,353.942,359.055,362.105,365.557,371.688,378.755,382.836,386.451,390.369,396.487,401.6,406.713,409.763,414.409,416.993,422.106,426.187,431.136,437.244,440.306,443.921,449.033,456.403,462.528,465.59,470.702,474.62,480.738,485.851,490.497,494.112,497.163,499.747,503.828,506.412,511.525,516.171,521.284,524.334,527.786,533.917,539.029,543.111,546.161,551.274,554.889,558.807,564.925,567.975,573.088" y="423.045" svg_rhmargin="577.006" style="fill:#171615;font-family:BEHJOI+AdvOTbc475f09;font-size:8.97px;font-style:NORMAL;font-weight:normal;">consents were obtained from the participants before the</text>
  <text x="331.939,337.052,342.164,346.246,349.861,352.911,355.495,360.608,365.72,370.833,375.479,378.063,381.679,385.597,390.127,397.157,401.239,404.854,408.772,413.302,417.952,423.064,430.598,433.182,438.294,440.879,444.494,447.544,451.626,455.241,459.322,464.435,466.856,471.409,477.454,482.566,486.484,491.014,496.127,501.24,505.321,508.936,511.987,514.571,519.683,524.843,529.947,534.593,537.177,540.793,544.874,548.326,552.869,557.972,562.619,567.568,572.087" y="433.987" svg_rhmargin="577.036" style="fill:#171615;font-family:BEHJOI+AdvOTbc475f09;font-size:8.97px;font-style:NORMAL;font-weight:normal;">questionnaire were administered. The questionnaires had 6</text>
  <text x="331.939,339.468,344.627,349.735,354.843,357.423,361.5,365.111,367.532,372.481,377.13,381.207,386.315,390.392,394.003,398.645,401.066,405.958,409.569,414.677,418.754,421.334,426.442,430.519,434.596,439.704,444.812,449.92,457.449,460.029,463.947,468.873,472.484,475.53,480.171,483.217,488.325,491.936,494.35699999999997,499.306,501.915,507.023,511.1,513.679,518.787,523.947,526.497,531.606,536.0889999999999,541.017,545.658,550.3,554.377,556.798,561.747,565.376,569.453,574.561" y="444.986" svg_rhmargin="576.982" style="fill:#171615;font-family:BEHJOI+AdvOTbc475f09;font-size:8.97px;font-style:NORMAL;font-weight:normal;">modules: general socioeconomic status, including age, sex,</text>
  <text x="331.939,336.021,341.133,346.246,350.327,354.973,357.978,360.562,365.675,370.624,372.365,374.973,379.054,383.701,387.782,390.366,392.787,394.561,402.102,406.184,411.296,413.88,417.962,422.608,425.029,426.747,429.331,434.443,438.059,443.171,446.786,451.433,456.545,460.627,464.545,466.296,469.301,473.947,479.06,483.141,486.756,489.17699999999996,490.952,496.054,500.136,504.217,509.33,514.442,519.089,522.139,524.723,529.836,534.785,536.526,539.576,544.169,549.328,553.409,555.83,557.548,562.651,567.297,569.881,572.465" y="455.927" svg_rhmargin="576.948" style="fill:#171615;font-family:BEHJOI+AdvOTbc475f09;font-size:8.97px;font-style:NORMAL;font-weight:normal;">education level, medical insurance types, occupation type; daily</text>
  <text x="331.939,336.015,341.122,346.23,351.337,354.947,360.054,363.664,367.74,371.192,374.827,377.872,382.821,386.433,390.509,395.668,399.744,407.272,409.851,413.927,418.568,420.989,424.634,427.679,432.32,436.396,439.441,444.548,448.158,452.799,455.21999999999997,458.864,461.443,466.585,471.696,474.278,478.358,480.94,486.051,490.534,494.158,497.772,502.416,507.527,510.109,514.754,517.802,520.385,525.495,530.606,533.027,536.672,541.783,545.862,549.476,552.524,555.107,559.186,561.768,566.879,570.959,574.572" y="466.869" svg_rhmargin="576.993" style="fill:#171615;font-family:BEHJOI+AdvOTbc475f09;font-size:8.97px;font-style:NORMAL;font-weight:normal;">exposures to chemical factory, ionizing radiation, pesticides;</text>
  <text x="331.939,334.524,339.638,344.751,347.336,351.983,354.568,359.682,364.795,369.443,371.864,374.148,379.307,383.39,388.503,393.15,397.798,400.383,405.496,409.112,412.728,415.149,417.434,420.019,425.132,429.215,431.8,436.913,442.027,444.612,449.725,454.208,456.529,460.145,467.605,472.765,477.867,480.446,485.553,490.194,492.615,494.956,500.063,503.673,506.252,511.359,516.466,519.045,524.204,528.797,531.2180000000001,533.559,538.662,541.24,545.316,548.203,550.532,555.635,559.245,563.321,566.366,570.442,574.052" y="477.868" svg_rhmargin="576.939" style="fill:#171615;font-family:BEHJOI+AdvOTbc475f09;font-size:8.97px;font-style:NORMAL;font-weight:normal;">individual behaviors, including smoking, drinking, diet prefer-</text>
  <text x="331.939,336.015,341.122,345.198,349.275,351.69599999999997,356.417,361.524,365.134,367.713,372.871,377.978,380.557,385.664,390.147,394.904,401.966,406.607,409.652,413.728,417.18,421.947,425.518,430.676,435.778,439.388,443.464,447.54,451.15,453.57099999999997,458.292,461.92,464.965,469.606,474.247,476.826,481.933,486.574,489.619,494.726,499.675,504.419,507.027,511.668,514.713,518.789,521.21,525.931,531.039,535.115,539.191,544.298,549.405,554.046,557.091,559.67,564.777,569.884,574.525" y="488.81" svg_rhmargin="576.946" style="fill:#171615;font-family:BEHJOI+AdvOTbc475f09;font-size:8.97px;font-style:NORMAL;font-weight:normal;">ence, drinking water sources, staying-up late; occupational</text>
  <text x="331.939,336.019,341.13,346.24,351.351,354.965,360.075,363.689,367.768,371.21999999999997,378.597,381.646,386.595,393.948,396.531,401.641,406.752,411.863,415.476,418.525,422.138,424.721,429.365,431.786,439.116,442.177,447.288,452.399,454.981,459.061,462.673,465.094,472.424,475.032,480.138,485.243,487.82,492.459,495.036,500.141,505.247,509.886,512.307,519.694,524.797,528.871,533.51,536.087,539.13,544.079,551.433,555.062,558.105,562.744,565.787,570.893,574.501" y="499.751" svg_rhmargin="576.922" style="fill:#171615;font-family:BEHJOI+AdvOTbc475f09;font-size:8.97px;font-style:NORMAL;font-weight:normal;">exposures to industrial toxics; individual health status,</text>
  <text x="331.939,334.49,339.593,343.68,346.271,351.39,356.509,359.099,364.218,368.701,373.005,378.124,380.675,384.296,387.353,392.302,396.651,400.222,403.279,407.931,410.988,416.107,419.728,422.149,426.474,431.593,434.184,437.805,441.893,446.485,450.114,454.032,458.391,463.494,466.084,469.655,472.712,477.831,481.452,486.105,488.526,492.851,497.954,501.575,505.663,510.316,515.435,520.087,525.206,529.294,533.7769999999999,538.138,541.709,544.77,549.423,552.48,557.598,561.05,565.422,568.427,573.586" y="510.749" svg_rhmargin="577.038" style="fill:#171615;font-family:BEHJOI+AdvOTbc475f09;font-size:8.97px;font-style:NORMAL;font-weight:normal;">including birth status, disease history, pregnancy status for</text>
  <text x="331.939,334.989,339.069,346.602,351.247,353.83,357.748,360.464,365.109,370.221,375.332,377.916,380.965,384.579,387.0,389.739,392.8,397.445,404.978,407.561,410.144,414.627,417.344,422.503,425.086,428.701,432.781,437.427,441.041,444.959,447.674,452.786,455.369,458.984,462.033,467.145,470.759,475.242,477.959,481.02,487.064,491.71,496.821,499.405,503.323,506.094,511.043,513.748,516.797,521.909,525.361,528.089,533.191,537.272,540.321,544.967,547.55,550.133,553.748,556.797,559.2180000000001,561.956,568.0,573.112" y="521.691" svg_rhmargin="577.03" style="fill:#171615;font-family:BEHJOI+AdvOTbc475f09;font-size:8.97px;font-style:NORMAL;font-weight:normal;">female adults; family disease history (Table 2 for details). The</text>
  <text x="331.939,335.553,340.197,347.729,351.647,356.403,361.562,366.665,370.744,374.358,377.406,379.989,385.099,390.21,395.321,399.966,402.548,406.161,410.079,414.835,421.922,426.567,430.019,434.787,439.432,444.542,449.653,452.235,454.818,458.897,463.846,468.648,471.653,476.764,480.216,485.04,490.151,495.262,498.311,503.26,508.005,512.086,516.731,520.344,524.2620000000001,529.018,533.667,538.778,543.727,548.529,552.609,557.719,562.83,565.879,569.492,574.603" y="532.6320000000001" svg_rhmargin="577.024" style="fill:#171615;font-family:BEHJOI+AdvOTbc475f09;font-size:8.97px;font-style:NORMAL;font-weight:normal;">same questionnaire was applied for both case and control</text>
  <text x="331.939,336.584,340.197,345.308,350.419,355.579,359.192,361.613,365.543,370.703,375.296,378.91,381.958,384.541,388.62,391.203,396.314,400.958,406.069,409.117,412.569,416.545,421.656,425.269,430.429,435.023,437.605,442.716,446.796,451.745,455.697,458.28,463.39,466.439,471.55,475.163,482.695,487.339,490.388,492.97,498.081,503.03000000000003,506.926,509.988,515.099,519.179,526.71,530.324,534.404,536.986,541.63,545.71,549.162,553.081,558.192,563.303,565.885,569.965,573.578" y="543.5740000000001" svg_rhmargin="577.03" style="fill:#171615;font-family:BEHJOI+AdvOTbc475f09;font-size:8.97px;font-style:NORMAL;font-weight:normal;">groups. Participants provided information themselves unless</text>
  <text x="331.939,334.982,340.141,344.216,348.699,350.962,356.067,360.707,365.656,367.906,371.535,375.609,380.249,384.323,387.931,391.849,394.167,398.248,403.354,408.459,413.565,416.142,419.185,421.762,426.867,431.81600000000003,434.123,439.229,442.681,444.955,452.015,456.089,459.697,463.615,465.877,468.92,474.025,478.974,481.282,485.931,491.036,496.141,501.247,505.73,507.993,511.036,515.985,518.236,523.342,528.501,533.606,537.68,541.288,544.896,547.94,552.579,557.684,562.6329999999999,564.884,567.927,573.033" y="554.572" svg_rhmargin="576.951" style="fill:#171615;font-family:BEHJOI+AdvOTbc475f09;font-size:8.97px;font-style:NORMAL;font-weight:normal;">they had severe condition or were too young to understand the</text>
  <text x="331.939,337.05,342.161,346.24,349.854,352.902,355.485,360.595,365.706,369.32,371.741,377.483,380.092,385.041,390.806,397.836,402.995,405.546,409.626,414.575,420.341,424.42,429.065,432.678,436.758,440.21,445.942,449.003,454.114,458.194,460.776,464.228,469.96,473.009,477.653,485.185,487.767,490.35,494.833,500.554,508.086,512.165,519.697,524.808,528.888,532.501,535.953,541.742,546.844,550.458,555.617,560.261,562.844,567.954,572.034" y="565.514" svg_rhmargin="576.983" style="fill:#171615;font-family:BEHJOI+AdvOTbc475f09;font-size:8.97px;font-style:NORMAL;font-weight:normal;">questions, in which cases their family members provided</text>
  <text x="331.939,334.521,339.632,343.246,346.294,350.374,355.018,360.129,362.55,364.779,371.845,376.489,379.538,384.021,386.228,393.294,397.373,400.987,404.90500000000003,407.167,411.247,414.86,419.971,423.585,427.198,430.247,434.326,439.437,443.517,447.596,452.707,456.787,461.736,463.988,468.638,473.748,478.697,480.949,483.532,488.642,493.802,498.906,501.793,504.01,506.618,511.729,514.777,519.726,521.978,527.534,534.6,541.199,543.62,545.906,555.034,557.616,561.23,564.843,567.425,572.536" y="576.455" svg_rhmargin="577.019" style="fill:#171615;font-family:BEHJOI+AdvOTbc475f09;font-size:8.97px;font-style:NORMAL;font-weight:normal;">instead. Data were cross-checked and input into EDC. Missing</text>
  <text x="331.939,337.051,340.503,343.06,347.705,355.238,360.35,362.933,367.578,372.69,377.802,382.913,386.365,388.98,391.563,396.675,399.724,404.836,408.45,415.983,420.628,423.678,426.261,431.373,436.322,438.913,445.999,450.645,454.097,456.654,460.268,464.349,467.398,471.479,476.591,479.174,481.757,485.838,489.918,492.968,497.048,501.997,504.589,507.638,512.75,516.364,521.476,526.588,531.233,536.1819999999999,538.773,541.834,545.915,548.498,552.578,557.69,562.802,567.914,573.025" y="587.453" svg_rhmargin="576.943" style="fill:#171615;font-family:BEHJOI+AdvOTbc475f09;font-size:8.97px;font-style:NORMAL;font-weight:normal;">or ambiguous information was re-collected through telephone</text>
  <text x="331.939,337.053,340.505,343.345,347.428,354.962,359.609,362.194,364.779" y="598.395" svg_rhmargin="367.2" style="fill:#171615;font-family:BEHJOI+AdvOTbc475f09;font-size:8.97px;font-style:NORMAL;font-weight:normal;">or email.</text>
  <text x="331.939,336.888,339.309,344.259,346.68,351.157,356.941,359.828,364.777,367.664,369.807,374.291,377.178,379.321,384.27,389.219,391.36199999999997,394.356,399.306,404.434,409.384,411.527,416.01,420.493,422.636" y="625.0409999999999" svg_rhmargin="427.119" style="fill:#171615;font-family:BEHKGP+AdvOT01861455.I;font-size:8.97px;font-style:NORMAL;font-weight:normal;">2.5. Statistical analysis</text>
  <text x="331.939,340.905,344.823,347.982,352.466,357.415,362.364,367.314,370.201,374.119,379.06800000000004,382.28,386.764,391.713,396.196,400.67900000000003,403.823,408.306,412.224,415.676,419.128,421.549,426.499,431.44800000000004,434.663,439.613,444.562,446.983,451.932,455.129,458.581,463.53,466.417,469.305,476.209,480.692,484.144,488.062,491.241,494.128,497.015,502.431,511.397,514.598,521.036,525.985,529.437,534.387,536.807,539.2280000000001,542.433,548.871,552.323,559.693,564.642,569.592,574.541" y="640.971" svg_rhmargin="576.962" style="fill:#171615;font-family:BEHJOI+AdvOTbc475f09;font-size:8.97px;font-style:NORMAL;font-weight:normal;">We adopted SPSS version 17.0 software (IBM Corp., Armonk,</text>
  <text x="331.939,339.309,345.747,348.634,352.065,354.952,359.901,363.404,367.887,372.836,377.319,379.74,384.223,388.142,392.06,395.548,398.435,403.384,407.302,410.741,414.659,419.609,422.03,424.451,428.369,432.287,435.174,439.093,444.04200000000003,447.534,452.483,456.966,459.853,464.336,467.829,471.281,474.168,478.651,481.538,483.959,487.411,490.298,492.719,496.637,501.121,503.542,505.962,510.446,512.8670000000001,516.356,522.238,527.188,531.106,534.611,538.529,543.478,548.428,551.315,553.736,558.685,563.635,568.584,573.533" y="651.969" svg_rhmargin="576.985" style="fill:#171615;font-family:BEHJOI+AdvOTbc475f09;font-size:8.97px;font-style:NORMAL;font-weight:normal;">NY) to analyze the collected data statistically. The continuous</text>
  <text svg_rhmargin="463.825" x="331.939,336.422,340.905,344.357,346.778,351.261,356.211,358.632,362.55,366.002,368.392,375.296,379.214,382.666,386.584,388.97,393.92,397.372,401.29,404.742,408.66,413.61,416.497,420.415,425.36400000000003,427.803,432.753,437.236,439.652,447.022,450.941,455.424,460.373,463.825" y="662.9110000000001" style="fill:#171615;font-family:BEHJOI+AdvOTbc475f09;font-size:8.97px;font-style:NORMAL;font-weight:normal;">variables were presented by means </text>
  <text x="464.941" y="662.9110000000001" svg_rhmargin="471.011" style="fill:#171615;font-family:BEHJNF+AdvOTb0c9bf5d;font-size:8.97px;font-style:NORMAL;font-weight:normal;">±</text>
  <text x="472.141,475.593,478.48,482.963,487.912,492.862,497.345,500.797,505.74600000000004,508.139,513.089,517.007,521.49,523.911,528.394,531.281,533.702,538.652,543.601,546.022,548.447,552.93,557.879,562.828,565.227,568.114,573.064" y="662.9110000000001" svg_rhmargin="576.982" style="fill:#171615;font-family:BEHJOI+AdvOTbc475f09;font-size:8.97px;font-style:NORMAL;font-weight:normal;">standard deviation, and the</text>
  <text svg_rhmargin="532.442" x="331.938,335.857,340.34,343.227,347.145,351.628,356.578,360.03,362.451,366.369,370.852,373.27299999999997,377.234,381.717,386.201,389.653,392.073,396.557,401.506,403.927,407.845,411.297,415.274,422.178,426.096,429.548,433.466,437.44,442.39,445.842,449.76,453.212,457.13,462.08,464.967,468.885,473.834,477.805,480.226,485.175,489.144,494.093,498.011,501.463,505.382,509.3,514.249,517.136,521.619,526.103,530.021,532.442" y="673.853" style="fill:#171615;font-family:BEHJOI+AdvOTbc475f09;font-size:8.97px;font-style:NORMAL;font-weight:normal;">categorical variables were presented in percentage. </text>
  <text svg_rhmargin="539.317" x="536.43,539.3169999999999" y="673.853" style="fill:#171615;font-family:BEHKIA+AdvOT638a931c.I;font-size:8.97px;font-style:NORMAL;font-weight:normal;">t </text>
  <text x="543.233,546.12,550.038,553.49,556.377,558.798,562.791,566.709,571.659,574.079" y="673.853" svg_rhmargin="576.966" style="fill:#171615;font-family:BEHJOI+AdvOTbc475f09;font-size:8.97px;font-style:NORMAL;font-weight:normal;">test, chi-</text>
  <text x="331.937,335.389,340.339,345.288,349.771,353.223,357.141,361.757,364.644,368.562,372.014,374.901,379.557,384.507,387.959,392.596,397.546,402.495,407.444,410.331,415.281,419.764,423.216,427.699,435.07,438.988,441.875,445.327,447.748,451.666,456.373,459.825,464.309,469.258,474.207,478.823,482.275,487.225,494.595,499.232,502.12,506.038,509.49,512.377,514.798,519.471,523.954,528.904,533.853,538.52,543.469,548.419,550.84,555.323,559.806,563.258,565.679,570.162,573.049" y="684.794" svg_rhmargin="576.967" style="fill:#171615;font-family:BEHJOI+AdvOTbc475f09;font-size:8.97px;font-style:NORMAL;font-weight:normal;">square test or non-parametric rank sum test, and univariate</text>
  <text x="331.937,337.353,342.302,346.786,349.206,352.658,355.546,357.966,361.884,368.219,371.671,375.59,380.073,383.525,387.443,390.895,394.347,396.768,401.718,406.66700000000003,413.062,417.545,422.494,426.977,429.398,433.882,437.334,439.754,443.206,449.514,456.418,460.337,463.789,467.707,474.119,478.602,483.551,488.501,490.922,493.342,497.261,502.21000000000004,508.53,511.418,516.367,522.703,527.187,532.136,536.619,539.04,543.523,547.442,551.36,557.738,562.688,567.171,570.058,574.541" y="695.793" svg_rhmargin="576.962" style="fill:#171615;font-family:BEHJOI+AdvOTbc475f09;font-size:8.97px;font-style:NORMAL;font-weight:normal;">Logistic regression analysis were applied to analyze data.</text>
  <text x="331.937,334.824,339.774,344.723,347.144,351.062,355.546,358.433,363.382,366.834,370.286,372.528,375.415,380.364,384.847,387.734,390.045,396.949,400.868,404.32,408.238,410.511,413.963,416.85,421.333,424.22,426.641,430.093,432.98,435.401,439.32,443.803,446.224,448.644,453.127,455.41,458.862,461.283,465.767,470.716" y="706.735" svg_rhmargin="473.137" style="fill:#171615;font-family:BEHJOI+AdvOTbc475f09;font-size:8.97px;font-style:NORMAL;font-weight:normal;">Indicators that were statistically signi</text>
  <text x="473.16" y="706.735" svg_rhmargin="478.109" style="fill:#171615;font-family:BEHJOJ+AdvOTbc475f09+fb;font-size:8.97px;font-style:NORMAL;font-weight:normal;">ﬁ</text>
  <text x="478.149,482.067,486.55,491.5,494.387,496.63,499.051,504.0,506.268,511.218,516.167,518.588,523.071,527.554,531.006,533.427,537.91,540.797,544.715,547.029,552.445,557.394,561.877,564.298,567.75,570.637,573.058" y="706.735" svg_rhmargin="576.976" style="fill:#171615;font-family:BEHJOI+AdvOTbc475f09;font-size:8.97px;font-style:NORMAL;font-weight:normal;">cant in univariate Logistic</text>
  <text x="331.937,335.389,339.308,343.791,347.243,351.161,354.613,358.065,360.486,365.435,370.384,374.285,378.768,383.718,388.201,390.622,395.105,398.557,400.978,404.43,408.356,415.26,420.21,425.159,427.58,432.529,436.475,441.425,445.343,449.288,453.771,458.721,463.204,465.625,470.108,474.026,477.945,482.894,486.818,491.301,495.784,500.267,502.688,507.637,511.535,513.956,518.905,522.816,527.766,532.715,537.665,540.552,544.47,549.419,554.369,559.318,561.739,564.626,567.047,571.997" y="717.676" svg_rhmargin="576.946" style="fill:#171615;font-family:BEHJOI+AdvOTbc475f09;font-size:8.97px;font-style:NORMAL;font-weight:normal;">regression analysis would be analyzed again in non-condition</text>
  <path d=" M 331.93701171875 741.7130126953125 L 577.02001953125 741.7130126953125 L 577.02001953125 742.2232666015625 L 331.93701171875 742.2232666015625 Z " style="fill:none;stroke:#000000;stroke-width:1.0;"/>
  <path d=" M 331.93701171875 593.3480224609375 L 577.02001953125 593.3480224609375 L 577.02001953125 593.8582763671875 L 331.93701171875 593.8582763671875 Z " style="fill:none;stroke:#000000;stroke-width:1.0;"/>
  <path d=" M 331.93701171875 728.333984375 L 411.364013671875 728.333984375 L 411.364013671875 728.8441772460938 L 331.93701171875 728.8441772460938 Z " style="fill:none;stroke:#000000;stroke-width:1.0;"/>
  <path d=" M 369.9209899902344 728.333984375 L 577.02001953125 728.333984375 L 577.02001953125 728.8441772460938 L 369.9209899902344 728.8441772460938 Z " style="fill:none;stroke:#000000;stroke-width:1.0;"/>
  <path d=" M 331.93701171875 754.8660278320312 L 370.9420166015625 754.8660278320312 L 370.9420166015625 766.8280029296875 L 331.93701171875 766.8280029296875 Z " style="fill:none;stroke:#000000;stroke-width:1.0;"/>
  <path d=" M 331.93701171875 766.6580200195312 L 577.02001953125 766.6580200195312 L 577.02001953125 767.1682739257812 L 331.93701171875 767.1682739257812 Z " style="fill:none;stroke:#000000;stroke-width:1.0;"/>
  <text x="334.885,340.607,346.497,352.635,354.954,360.932,363.57" y="42.186000000000035" svg_rhmargin="367.97" style="fill:#ffffff;font-family:BEHJND+AdvOT91f5f621.B;font-size:7.97px;font-style:NORMAL;font-weight:normal;">Table 1</text>
  <text x="331.937,337.827,339.819,344.378,349.192,353.839,358.653,362.777,364.769,369.00100000000003,371.678,376.237,379.305,381.298,384.032,388.59,391.659,393.652,398.211,400.817,405.631,408.19699999999995,410.795,415.354,420.168,422.16,426.719,430.951,433.685,435.678,440.237,442.882,447.441,452.087,456.646,463.78,465.772,470.331" y="54.20500000000004" svg_rhmargin="472.483" style="fill:#171615;font-family:BEHJNA+AdvOT34fe1490.B;font-size:7.97px;font-style:NORMAL;font-weight:normal;">Diagnosis criteria of aplastic anemia.</text>
  <text x="331.937,335.754,339.237,343.223,346.873,349.454,353.272,355.591,358.242,362.641,367.04,482.683,486.915,489.481,491.386,493.705,497.356,499.922,501.827" y="67.24400000000003" svg_rhmargin="505.645" style="fill:#171615;font-family:BEHKIB+AdvOT9d0303c0.B;font-size:7.97px;font-style:NORMAL;font-weight:normal;">Type of AA Criteria</text>
  <text x="331.937,335.754,339.07,341.971,345.287,347.439,350.755,353.366,357.351" y="81.644" svg_rhmargin="361.336" style="fill:#171615;font-family:BEHKIC+AdvOTcb6dfb9e;font-size:7.97px;font-style:NORMAL;font-weight:normal;">Severe AA</text>
  <text svg_rhmargin="355.137" x="339.873,341.611,345.429,349.414,353.399,355.136" y="81.644" style="fill:#171615;font-family:BEHKIC+AdvOTcb6dfb9e;font-size:7.97px;font-style:NORMAL;font-weight:normal;">(SAA) </text>
  <text svg_rhmargin="477.622" x="411.364,415.349,418.664,422.147,425.46299999999997,428.088,433.483,436.799,438.951,441.103,444.419,449.066,451.671,454.907,458.223,459.634,461.044,464.527,465.938,469.254,471.406,472.816,474.721,477.622" y="81.644" style="fill:#171615;font-family:BEHKIC+AdvOTcb6dfb9e;font-size:7.97px;font-style:NORMAL;font-weight:normal;">Bone marrow cellularity </text>
  <text x="480.246" y="81.644" svg_rhmargin="486.383" style="fill:#171615;font-family:BEHJNI+AdvP4C4E51;font-size:7.97px;font-style:NORMAL;font-weight:normal;">&lt;</text>
  <text x="486.369,490.187,494.004,499.726,502.356,504.094,507.409,509.561,512.221,516.039" y="81.644" svg_rhmargin="519.857" style="fill:#171615;font-family:BEHKIC+AdvOTcb6dfb9e;font-size:7.97px;font-style:NORMAL;font-weight:normal;">25% (or 25</text>
  <text x="519.817" y="81.644" svg_rhmargin="523.802" style="fill:#171615;font-family:BEHKJD+AdvOTcb6dfb9e+20;font-size:7.97px;font-style:NORMAL;font-weight:normal;">–</text>
  <text x="523.786,527.604,531.421,537.143,539.773,544.419,545.83,547.735" y="81.644" svg_rhmargin="551.218" style="fill:#171615;font-family:BEHKIC+AdvOTcb6dfb9e;font-size:7.97px;font-style:NORMAL;font-weight:normal;">50% with</text>
  <text x="419.3" y="91.56500000000005" svg_rhmargin="425.437" style="fill:#171615;font-family:BEHJNI+AdvP4C4E51;font-size:7.97px;font-style:NORMAL;font-weight:normal;">&lt;</text>
  <text x="425.423,429.241,433.059,438.781,441.411,443.563,446.878,449.947,451.357,454.84,458.323,461.639,463.05,465.674,469.157,472.473,477.869,481.184,483.089,486.405,489.888,493.203,494.614,497.93,499.835,501.245,504.481,507.059,510.295,513.61,515.021,516.432,519.5,521.238,523.143,525.824,529.307,530.717,534.2,537.268,539.883,543.199,545.1039999999999,547.763,549.174,552.49,555.805,558.874,560.779,563.411,567.2289999999999,569.874,573.189,575.094" y="91.56500000000005" svg_rhmargin="576.999" style="fill:#171615;font-family:BEHKIC+AdvOTcb6dfb9e;font-size:7.97px;font-style:NORMAL;font-weight:normal;">30% residual hematopoietic cells), plus at least 2 of:</text>
  <text svg_rhmargin="449.811" x="419.3,422.783,426.099,429.582,431.487,433.639,436.954,440.437,443.92,445.331,446.742,449.81" y="101.543" style="fill:#171615;font-family:BEHKIC+AdvOTcb6dfb9e;font-size:7.97px;font-style:NORMAL;font-weight:normal;">neutrophils </text>
  <text x="450.765" y="101.543" svg_rhmargin="456.902" style="fill:#171615;font-family:BEHJNI+AdvP4C4E51;font-size:7.97px;font-style:NORMAL;font-weight:normal;">&lt;</text>
  <text svg_rhmargin="467.45" x="457.909,461.727,463.632,467.45" y="101.543" style="fill:#171615;font-family:BEHKIC+AdvOTcb6dfb9e;font-size:7.97px;font-style:NORMAL;font-weight:normal;">0.5 </text>
  <text x="468.397" y="101.543" svg_rhmargin="474.534" style="fill:#171615;font-family:BEHKJE+AdvP4C4E74;font-size:7.97px;font-style:NORMAL;font-weight:normal;">?</text>
  <text x="475.541,479.358" y="101.543" svg_rhmargin="483.176" style="fill:#171615;font-family:BEHKIC+AdvOTcb6dfb9e;font-size:7.97px;font-style:NORMAL;font-weight:normal;">10</text>
  <text x="483.137" y="98.029" svg_rhmargin="486.0" style="fill:#171615;font-family:BEHKIC+AdvOTcb6dfb9e;font-size:5.31px;font-style:NORMAL;font-weight:normal;">9</text>
  <text x="485.972,488.124,491.439" y="101.54399999999998" svg_rhmargin="493.344" style="fill:#171615;font-family:BEHKIC+AdvOTcb6dfb9e;font-size:7.97px;font-style:NORMAL;font-weight:normal;">/L.</text>
  <text svg_rhmargin="442.43" x="419.3,422.783,424.194,427.509,429.414,432.73,434.141,437.456,439.361,442.429" y="111.52099999999996" style="fill:#171615;font-family:BEHKIC+AdvOTcb6dfb9e;font-size:7.97px;font-style:NORMAL;font-weight:normal;">platelets </text>
  <text x="443.395" y="111.52099999999996" svg_rhmargin="449.532" style="fill:#171615;font-family:BEHJNI+AdvP4C4E51;font-size:7.97px;font-style:NORMAL;font-weight:normal;">&lt;</text>
  <text svg_rhmargin="458.174" x="450.538,454.356,458.174" y="111.52099999999996" style="fill:#171615;font-family:BEHKIC+AdvOTcb6dfb9e;font-size:7.97px;font-style:NORMAL;font-weight:normal;">20 </text>
  <text x="459.156" y="111.52099999999996" svg_rhmargin="465.293" style="fill:#171615;font-family:BEHKJE+AdvP4C4E74;font-size:7.97px;font-style:NORMAL;font-weight:normal;">?</text>
  <text x="466.242,470.06" y="111.52099999999996" svg_rhmargin="473.878" style="fill:#171615;font-family:BEHKIC+AdvOTcb6dfb9e;font-size:7.97px;font-style:NORMAL;font-weight:normal;">10</text>
  <text x="473.839" y="107.95000000000005" svg_rhmargin="476.702" style="fill:#171615;font-family:BEHKIC+AdvOTcb6dfb9e;font-size:5.31px;font-style:NORMAL;font-weight:normal;">9</text>
  <text x="476.731,478.883,482.198" y="111.52099999999996" svg_rhmargin="484.103" style="fill:#171615;font-family:BEHKIC+AdvOTcb6dfb9e;font-size:7.97px;font-style:NORMAL;font-weight:normal;">/L.</text>
  <text svg_rhmargin="468.907" x="419.301,421.452,424.768,426.673,428.084,431.32,434.803,436.213,439.529,442.765,445.666,447.571,450.887,453.485,456.721,460.036,463.519,467.002,468.907" y="121.44299999999998" style="fill:#171615;font-family:BEHKIC+AdvOTcb6dfb9e;font-size:7.97px;font-style:NORMAL;font-weight:normal;">reticulocyte count </text>
  <text x="469.927" y="121.44299999999998" svg_rhmargin="476.064" style="fill:#171615;font-family:BEHJNI+AdvP4C4E51;font-size:7.97px;font-style:NORMAL;font-weight:normal;">&lt;</text>
  <text svg_rhmargin="484.649" x="477.014,480.831,484.649" y="121.44299999999998" style="fill:#171615;font-family:BEHKIC+AdvOTcb6dfb9e;font-size:7.97px;font-style:NORMAL;font-weight:normal;">20 </text>
  <text x="485.631" y="121.44299999999998" svg_rhmargin="491.768" style="fill:#171615;font-family:BEHKJE+AdvP4C4E74;font-size:7.97px;font-style:NORMAL;font-weight:normal;">?</text>
  <text x="492.775,496.592" y="121.44299999999998" svg_rhmargin="500.41" style="fill:#171615;font-family:BEHKIC+AdvOTcb6dfb9e;font-size:7.97px;font-style:NORMAL;font-weight:normal;">10</text>
  <text x="500.372" y="117.928" svg_rhmargin="503.235" style="fill:#171615;font-family:BEHKIC+AdvOTcb6dfb9e;font-size:5.31px;font-style:NORMAL;font-weight:normal;">9</text>
  <text x="503.206,505.358,508.674" y="121.44299999999998" svg_rhmargin="510.579" style="fill:#171615;font-family:BEHKIC+AdvOTcb6dfb9e;font-size:7.97px;font-style:NORMAL;font-weight:normal;">/L.</text>
  <text x="331.936,335.587,338.902,341.054,343.955,346.562,349.631,352.946,355.848,359.163,361.315" y="131.42100000000005" svg_rhmargin="364.631" style="fill:#171615;font-family:BEHKIC+AdvOTcb6dfb9e;font-size:7.97px;font-style:NORMAL;font-weight:normal;">Very severe</text>
  <text svg_rhmargin="369.388" x="339.873,343.858,347.843,350.474,352.212,355.862,359.68,363.665,367.65,369.387" y="131.42100000000005" style="fill:#171615;font-family:BEHKIC+AdvOTcb6dfb9e;font-size:7.97px;font-style:NORMAL;font-weight:normal;">AA (VSAA) </text>
  <text svg_rhmargin="487.51" x="411.363,415.348,418.416,421.057,422.962,426.278,428.43,431.035,434.853,438.838,442.82300000000004,445.492,448.975,452.458,454.363,457.0,460.483,463.798,467.281,469.186,471.338,474.654,478.137,481.62,483.03,484.441,487.50899999999996" y="131.42100000000005" style="fill:#171615;font-family:BEHKIC+AdvOTcb6dfb9e;font-size:7.97px;font-style:NORMAL;font-weight:normal;">As for SAA but neutrophils </text>
  <text x="488.466" y="131.42100000000005" svg_rhmargin="494.603" style="fill:#171615;font-family:BEHJNI+AdvP4C4E51;font-size:7.97px;font-style:NORMAL;font-weight:normal;">&lt;</text>
  <text svg_rhmargin="505.093" x="495.552,499.37,501.275,505.09299999999996" y="131.42100000000005" style="fill:#171615;font-family:BEHKIC+AdvOTcb6dfb9e;font-size:7.97px;font-style:NORMAL;font-weight:normal;">0.2 </text>
  <text x="506.097" y="131.42100000000005" svg_rhmargin="512.234" style="fill:#171615;font-family:BEHKJE+AdvP4C4E74;font-size:7.97px;font-style:NORMAL;font-weight:normal;">?</text>
  <text x="513.183,517.001" y="131.42100000000005" svg_rhmargin="520.819" style="fill:#171615;font-family:BEHKIC+AdvOTcb6dfb9e;font-size:7.97px;font-style:NORMAL;font-weight:normal;">10</text>
  <text x="520.838" y="127.90599999999995" svg_rhmargin="523.701" style="fill:#171615;font-family:BEHKIC+AdvOTcb6dfb9e;font-size:5.31px;font-style:NORMAL;font-weight:normal;">9</text>
  <text x="523.672,525.824,529.14" y="131.42100000000005" svg_rhmargin="531.045" style="fill:#171615;font-family:BEHKIC+AdvOTcb6dfb9e;font-size:7.97px;font-style:NORMAL;font-weight:normal;">/L.</text>
  <text x="331.936,336.169,339.484,342.967,345.534,348.602,351.918,354.819,358.134,360.286" y="151.37699999999995" svg_rhmargin="363.602" style="fill:#171615;font-family:BEHKIC+AdvOTcb6dfb9e;font-size:7.97px;font-style:NORMAL;font-weight:normal;">Non-severe</text>
  <text svg_rhmargin="369.97" x="339.873,343.858,347.843,350.474,352.212,356.444,360.262,364.247,368.232,369.96900000000005" y="151.37699999999995" style="fill:#171615;font-family:BEHKIC+AdvOTcb6dfb9e;font-size:7.97px;font-style:NORMAL;font-weight:normal;">AA (NSAA) </text>
  <text svg_rhmargin="477.622" x="411.363,415.349,418.664,422.147,425.46299999999997,428.087,433.483,436.799,438.951,441.103,444.418,449.065,451.671,454.907,458.223,459.633,461.044,464.527,465.938,469.253,471.405,472.816,474.721,477.622" y="151.37699999999995" style="fill:#171615;font-family:BEHKIC+AdvOTcb6dfb9e;font-size:7.97px;font-style:NORMAL;font-weight:normal;">Bone marrow cellularity </text>
  <text x="480.246" y="151.37699999999995" svg_rhmargin="486.383" style="fill:#171615;font-family:BEHJNI+AdvP4C4E51;font-size:7.97px;font-style:NORMAL;font-weight:normal;">&lt;</text>
  <text x="486.369,490.186,494.004,499.727,501.63199999999995,504.227,507.71,509.12,512.603,515.6709999999999,518.343,521.658,523.563,526.223,527.634,530.949,534.265,537.333,539.2379999999999,541.87,545.688,548.333,551.649,553.554" y="151.37699999999995" svg_rhmargin="555.459" style="fill:#171615;font-family:BEHKIC+AdvOTcb6dfb9e;font-size:7.97px;font-style:NORMAL;font-weight:normal;">50%, plus at least 2 of:</text>
  <text svg_rhmargin="449.811" x="419.301,422.784,426.1,429.583,431.487,433.639,436.955,440.438,443.921,445.332,446.742,449.81" y="161.298" style="fill:#171615;font-family:BEHKIC+AdvOTcb6dfb9e;font-size:7.97px;font-style:NORMAL;font-weight:normal;">neutrophils </text>
  <text x="450.766" y="161.298" svg_rhmargin="456.903" style="fill:#171615;font-family:BEHJNI+AdvP4C4E51;font-size:7.97px;font-style:NORMAL;font-weight:normal;">&lt;</text>
  <text svg_rhmargin="467.45" x="457.909,461.727,463.632,467.45" y="161.298" style="fill:#171615;font-family:BEHKIC+AdvOTcb6dfb9e;font-size:7.97px;font-style:NORMAL;font-weight:normal;">1.5 </text>
  <text x="468.397" y="161.298" svg_rhmargin="474.534" style="fill:#171615;font-family:BEHKJE+AdvP4C4E74;font-size:7.97px;font-style:NORMAL;font-weight:normal;">?</text>
  <text x="475.541,479.359" y="161.298" svg_rhmargin="483.177" style="fill:#171615;font-family:BEHKIC+AdvOTcb6dfb9e;font-size:7.97px;font-style:NORMAL;font-weight:normal;">10</text>
  <text x="483.137" y="157.78300000000002" svg_rhmargin="486.0" style="fill:#171615;font-family:BEHKIC+AdvOTcb6dfb9e;font-size:5.31px;font-style:NORMAL;font-weight:normal;">9</text>
  <text x="485.972,488.124,491.439" y="161.298" svg_rhmargin="493.344" style="fill:#171615;font-family:BEHKIC+AdvOTcb6dfb9e;font-size:7.97px;font-style:NORMAL;font-weight:normal;">/L.</text>
  <text svg_rhmargin="442.43" x="419.3,422.783,424.194,427.509,429.414,432.73,434.141,437.456,439.361,442.429" y="171.27599999999995" style="fill:#171615;font-family:BEHKIC+AdvOTcb6dfb9e;font-size:7.97px;font-style:NORMAL;font-weight:normal;">platelets </text>
  <text x="443.395" y="171.27599999999995" svg_rhmargin="449.532" style="fill:#171615;font-family:BEHJNI+AdvP4C4E51;font-size:7.97px;font-style:NORMAL;font-weight:normal;">&lt;</text>
  <text svg_rhmargin="461.992" x="450.538,454.356,458.174,461.99199999999996" y="171.27599999999995" style="fill:#171615;font-family:BEHKIC+AdvOTcb6dfb9e;font-size:7.97px;font-style:NORMAL;font-weight:normal;">100 </text>
  <text x="462.954" y="171.27599999999995" svg_rhmargin="469.091" style="fill:#171615;font-family:BEHKJE+AdvP4C4E74;font-size:7.97px;font-style:NORMAL;font-weight:normal;">?</text>
  <text x="470.041,473.858" y="171.27599999999995" svg_rhmargin="477.676" style="fill:#171615;font-family:BEHKIC+AdvOTcb6dfb9e;font-size:7.97px;font-style:NORMAL;font-weight:normal;">10</text>
  <text x="477.694" y="167.76099999999997" svg_rhmargin="480.557" style="fill:#171615;font-family:BEHKIC+AdvOTcb6dfb9e;font-size:5.31px;font-style:NORMAL;font-weight:normal;">9</text>
  <text x="480.529,482.681,485.997" y="171.27599999999995" svg_rhmargin="487.902" style="fill:#171615;font-family:BEHKIC+AdvOTcb6dfb9e;font-size:7.97px;font-style:NORMAL;font-weight:normal;">/L.</text>
  <text svg_rhmargin="468.907" x="419.3,421.452,424.768,426.673,428.083,431.319,434.802,436.213,439.529,442.765,445.666,447.571,450.887,453.485,456.72,460.036,463.519,467.002,468.907" y="181.25400000000002" style="fill:#171615;font-family:BEHKIC+AdvOTcb6dfb9e;font-size:7.97px;font-style:NORMAL;font-weight:normal;">reticulocyte count </text>
  <text x="469.927" y="181.25400000000002" svg_rhmargin="476.064" style="fill:#171615;font-family:BEHJNI+AdvP4C4E51;font-size:7.97px;font-style:NORMAL;font-weight:normal;">&lt;</text>
  <text svg_rhmargin="484.649" x="477.013,480.831,484.649" y="181.25400000000002" style="fill:#171615;font-family:BEHKIC+AdvOTcb6dfb9e;font-size:7.97px;font-style:NORMAL;font-weight:normal;">40 </text>
  <text x="485.631" y="181.25400000000002" svg_rhmargin="491.768" style="fill:#171615;font-family:BEHKJE+AdvP4C4E74;font-size:7.97px;font-style:NORMAL;font-weight:normal;">?</text>
  <text x="492.774,496.592" y="181.25400000000002" svg_rhmargin="500.41" style="fill:#171615;font-family:BEHKIC+AdvOTcb6dfb9e;font-size:7.97px;font-style:NORMAL;font-weight:normal;">10</text>
  <text x="500.372" y="177.68200000000002" svg_rhmargin="503.235" style="fill:#171615;font-family:BEHKIC+AdvOTcb6dfb9e;font-size:5.31px;font-style:NORMAL;font-weight:normal;">9</text>
  <text x="503.206,505.358,508.674" y="181.25400000000002" svg_rhmargin="510.579" style="fill:#171615;font-family:BEHKIC+AdvOTcb6dfb9e;font-size:7.97px;font-style:NORMAL;font-weight:normal;">/L.</text>
  <text x="419.301" y="191.23199999999997" svg_rhmargin="425.438" style="fill:#171615;font-family:BEHJNI+AdvP4C4E51;font-size:7.97px;font-style:NORMAL;font-weight:normal;">&gt;</text>
  <text x="425.423,429.241,431.886,436.533,439.849,443.164,446.4,449.469" y="191.23199999999997" svg_rhmargin="451.374" style="fill:#171615;font-family:BEHKIC+AdvOTcb6dfb9e;font-size:7.97px;font-style:NORMAL;font-weight:normal;">6 weeks.</text>
  <text x="419.301,423.118,426.434,428.339,429.75,433.065,436.548,438.453,441.52099999999996,444.131,447.614,450.93,452.835,455.526,457.431,460.914" y="201.15300000000002" svg_rhmargin="462.325" style="fill:#171615;font-family:BEHKIC+AdvOTcb6dfb9e;font-size:7.97px;font-style:NORMAL;font-weight:normal;">Patients not ful</text>
  <text x="462.274" y="201.15300000000002" svg_rhmargin="465.59" style="fill:#171615;font-family:BEHKJF+AdvOTcb6dfb9e+fb;font-size:7.97px;font-style:NORMAL;font-weight:normal;">ﬁ</text>
  <text x="465.62,467.03,468.441,469.852,473.335,476.818,479.453,481.358,484.84,488.15599999999995,490.791,494.027,496.179,497.59,499.495,502.81,504.962,506.373,509.68899999999996,512.334,514.239,517.554,519.706,522.312,526.129,530.115,534.1,536.768,540.084,542.236,544.875,548.526,552.343,556.329,560.314" y="201.15300000000002" svg_rhmargin="562.219" style="fill:#171615;font-family:BEHKIC+AdvOTcb6dfb9e;font-size:7.97px;font-style:NORMAL;font-weight:normal;">lling the criteria for SAA or VSAA.</text>
  <text svg_rhmargin="338.911" x="331.937,335.424,338.911" y="216.85699999999997" style="fill:#171615;font-family:BEHKIC+AdvOTcb6dfb9e;font-size:6.97px;font-style:NORMAL;font-weight:normal;">AA </text>
  <text x="339.761" y="216.85699999999997" svg_rhmargin="344.482" style="fill:#171615;font-family:BEHJNF+AdvOTb0c9bf5d;font-size:6.97px;font-style:NORMAL;font-weight:normal;">=</text>
  <text x="345.373,348.274,351.322,352.556,355.457,358.142,359.809,361.043,363.874,366.235,369.136,372.183,375.084,379.806,381.04,383.941" y="216.85699999999997" svg_rhmargin="385.608" style="fill:#171615;font-family:BEHKIC+AdvOTcb6dfb9e;font-size:6.97px;font-style:NORMAL;font-weight:normal;">aplastic anemia.</text>
  <text svg_rhmargin="177.603" x="71.887,79.108,83.34,85.946,90.011,92.33,95.017,99.082,100.492,102.644,105.278,111.829,115.894,120.453,121.864,125.929,127.339,131.571,135.636,138.215,140.12,144.52,148.919,153.319,157.719,159.624,162.252,166.652,171.051,173.203,177.602" y="9.870999999999981" style="fill:#171615;font-family:BEHJNB+AdvOT6e5d2ec0;font-size:7.97px;font-style:NORMAL;font-weight:normal;">Wu et al. Medicine (2019) 98:8 </text>
  <text x="542.723,549.944,554.503,559.317,561.31,565.869,567.861,572.508" y="9.870999999999981" svg_rhmargin="577.067" style="fill:#171615;font-family:BEHJNA+AdvOT34fe1490.B;font-size:7.97px;font-style:NORMAL;font-weight:normal;">Medicine</text>
  <text x="322.243" y="739.625" svg_rhmargin="326.643" style="fill:#171615;font-family:BEHKEP+AdvOTf94803d4;font-size:7.97px;font-style:NORMAL;font-weight:normal;">2</text>
 </g>
</svg>
