<?xml version="1.0" encoding="UTF-8"?>
<svg height="870.031005859375" width="672.0029907226562" xmlns="http://www.w3.org/2000/svg">
 <g style="fill:none;">
  <path d=" M 0.05999799817800522 826.072021484375 L 22.619997024536133 826.072021484375 L 22.619997024536133 826.35546875 L 0.05999799817800522 826.35546875 Z " style="fill:none;stroke:#000000;stroke-width:1.0;"/>
  <path d=" M 33.67599868774414 837.4110107421875 L 33.959449768066406 837.4110107421875 L 33.959449768066406 860.031005859375 L 33.67599868774414 860.031005859375 Z " style="fill:none;stroke:#000000;stroke-width:1.0;"/>
  <path d=" M 627.9869995117188 837.4110107421875 L 628.2703857421875 837.4110107421875 L 628.2703857421875 860.031005859375 L 627.9869995117188 860.031005859375 Z " style="fill:none;stroke:#000000;stroke-width:1.0;"/>
  <path d=" M 639.3259887695312 826.072021484375 L 662.0029907226562 826.072021484375 L 662.0029907226562 826.35546875 L 639.3259887695312 826.35546875 Z " style="fill:none;stroke:#000000;stroke-width:1.0;"/>
  <path d=" M 639.3259887695312 33.731998443603516 L 662.0029907226562 33.731998443603516 L 662.0029907226562 34.015480041503906 L 639.3259887695312 34.015480041503906 Z " style="fill:none;stroke:#000000;stroke-width:1.0;"/>
  <path d=" M 627.9869995117188 0.0 L 628.2703857421875 0.0 L 628.2703857421875 22.677000045776367 L 627.9869995117188 22.677000045776367 Z " style="fill:none;stroke:#000000;stroke-width:1.0;"/>
  <path d=" M 33.67599868774414 0.0 L 33.959449768066406 0.0 L 33.959449768066406 22.677000045776367 L 33.67599868774414 22.677000045776367 Z " style="fill:none;stroke:#000000;stroke-width:1.0;"/>
  <path d=" M 0.05999799817800522 33.731998443603516 L 22.619997024536133 33.731998443603516 L 22.619997024536133 34.015480041503906 L 0.05999799817800522 34.015480041503906 Z " style="fill:none;stroke:#000000;stroke-width:1.0;"/>
  <path d=" M 85.03900146484375 625.6060180664062 L 566.248046875 625.6060180664062 C 579.4039916992188 625.6310424804688 590.1589965820312 614.9219970703125 590.115966796875 601.738037109375 L 590.115966796875 378.4820251464844 L 85.03900146484375 378.4820251464844" style="fill:none;stroke:#000000;stroke-width:1.0;"/>
  <path d=" M 85.03900146484375 625.6060180664062 L 566.248046875 625.6060180664062 L 566.248046875 625.3790283203125 L 85.26599884033203 625.3790283203125" style="fill:none;stroke:#000000;stroke-width:1.0;"/>
  <path d=" M 566.2490234375 625.6060180664062 L 569.9910278320312 625.322021484375 C 580.1910400390625 623.6890258789062 588.2260131835938 615.7150268554688 589.8330078125 605.4800415039062 L 590.1170043945312 601.738037109375 L 589.8900146484375 601.738037109375 L 589.6069946289062 605.4230346679688 C 588.0440063476562 615.5320434570312 580.0380249023438 623.467041015625 569.9340209960938 625.0960083007812 L 566.2490234375 625.3790283203125" style="fill:none;stroke:#000000;stroke-width:1.0;"/>
  <path d=" M 590.1160278320312 601.7379760742188 L 590.1160278320312 378.48095703125 L 589.8890380859375 378.76495361328125 L 589.8890380859375 601.7379760742188" style="fill:none;stroke:#000000;stroke-width:1.0;"/>
  <path d=" M 590.1160278320312 378.48199462890625 L 85.03903198242188 378.48199462890625 L 85.26602172851562 378.7649841308594 L 589.8890380859375 378.7649841308594" style="fill:none;stroke:#000000;stroke-width:1.0;"/>
  <path d=" M 85.03900146484375 378.48199462890625 L 85.03900146484375 625.60595703125 L 85.26599884033203 625.3800048828125 L 85.26599884033203 378.7649841308594" style="fill:none;stroke:#000000;stroke-width:1.0;"/>
  <text x="85.039,103.293,115.748,121.549,129.222,135.022,147.581,153.381,165.416,172.075,180.366,186.166,197.167,208.785,219.784,226.451,238.07,250.525,262.143,267.944,278.526,289.527,295.327,306.326,313.005,320.26,332.296,340.585,347.25,358.869,371.324,377.124,388.743,399.744,407.524,413.325,424.941,431.564,443.183,455.638,467.675,485.929,491.836,503.452,510.092,515.89" y="81.077" svg_rhmargin="528.343" style="fill:#171615;font-family:BEHJLP+AdvOTfbba3ace.B;font-size:19.93px;font-style:NORMAL;font-weight:normal;">Multiple risks analysis for aplastic anemia in</text>
  <text x="85.039,98.31,110.763,122.798,128.596,134.394,146.011,158.464,170.499,176.716,183.456,198.4,210.854,216.652,229.105" y="101.03200000000004" svg_rhmargin="240.721" style="fill:#171615;font-family:BEHJLP+AdvOTfbba3ace.B;font-size:19.93px;font-style:NORMAL;font-weight:normal;">Zhejiang, China</text>
  <text x="85.039,95.83,101.141,110.259,119.376,127.841,136.959,143.43,152.548,162.176,171.469,176.937,183.074,192.702,196.687,201.992,210.456,215.924,225.217,234.845" y="122.06600000000003" svg_rhmargin="242.975" style="fill:#171615;font-family:BEHJNA+AdvOT34fe1490.B;font-size:15.94px;font-style:NORMAL;font-weight:normal;">A case-control study</text>
  <text x="85.039,90.594,92.446,96.253,102.237,104.088,109.423,114.978,120.752,124.214,133.691,139.246,142.07000000000002,145.587,154.186" y="139.86800000000005" svg_rhmargin="162.785" style="fill:#171615;font-family:BEHJNB+AdvOT6e5d2ec0;font-size:10.46px;font-style:NORMAL;font-weight:normal;">Li-qiang Wu, MM</text>
  <text x="162.765" y="135.21900000000005" svg_rhmargin="166.766" style="fill:#171615;font-family:BEHJNB+AdvOT6e5d2ec0;font-size:6.97px;font-style:NORMAL;font-weight:normal;">a</text>
  <text x="166.79,169.614,173.084,179.402,181.253,186.808,192.582,196.39,201.181,203.033,208.587,214.361,217.814,224.352,229.906,235.241,240.796,243.62,247.123,255.722" y="139.86800000000005" svg_rhmargin="264.321" style="fill:#171615;font-family:BEHJNB+AdvOT6e5d2ec0;font-size:10.46px;font-style:NORMAL;font-weight:normal;">, Ying-ying Shen, MM</text>
  <text x="264.302" y="135.21900000000005" svg_rhmargin="268.303" style="fill:#171615;font-family:BEHJNB+AdvOT6e5d2ec0;font-size:6.97px;font-style:NORMAL;font-weight:normal;">a</text>
  <text x="268.328,271.152,274.621,280.939,282.79,288.345,294.119,297.581,303.564,309.119,314.454,320.009,325.783,328.607,332.106,340.705" y="139.86800000000005" svg_rhmargin="349.304" style="fill:#171615;font-family:BEHJNB+AdvOT6e5d2ec0;font-size:10.46px;font-style:NORMAL;font-weight:normal;">, Ying Zhang, MM</text>
  <text x="349.285" y="135.21900000000005" svg_rhmargin="353.286" style="fill:#171615;font-family:BEHJNB+AdvOT6e5d2ec0;font-size:6.97px;font-style:NORMAL;font-weight:normal;">a</text>
  <text x="353.31,356.134,359.603,365.922,371.476,376.811,380.619,389.218,391.069,396.624,400.139,406.886,412.44,417.775,423.33,429.104,431.928,435.402,444.0" y="139.86800000000005" svg_rhmargin="450.967" style="fill:#171615;font-family:BEHJNB+AdvOT6e5d2ec0;font-size:10.46px;font-style:NORMAL;font-weight:normal;">, Yue-min Kuang, MB</text>
  <text x="450.935" y="135.21900000000005" svg_rhmargin="455.423" style="fill:#171615;font-family:BEHJNB+AdvOT6e5d2ec0;font-size:6.97px;font-style:NORMAL;font-weight:normal;">b</text>
  <text x="455.414,458.238,461.764,468.731,470.582,476.137,481.911,485.719,494.317,499.872,503.319,508.874,514.208,519.763,525.537,528.361,531.835,540.433" y="139.86800000000005" svg_rhmargin="549.032" style="fill:#171615;font-family:BEHJNB+AdvOT6e5d2ec0;font-size:10.46px;font-style:NORMAL;font-weight:normal;">, Bing-mu Fang, MM</text>
  <text x="549.071" y="135.21900000000005" svg_rhmargin="553.072" style="fill:#171615;font-family:BEHJNB+AdvOT6e5d2ec0;font-size:6.97px;font-style:NORMAL;font-weight:normal;">c</text>
  <text x="553.039" y="139.86800000000005" svg_rhmargin="555.863" style="fill:#171615;font-family:BEHJNB+AdvOT6e5d2ec0;font-size:10.46px;font-style:NORMAL;font-weight:normal;">,</text>
  <text x="85.039,91.022,96.577,102.351,107.906,111.714,116.505,122.059,127.394,132.949,138.723,142.185,151.662,156.997,162.552,168.326,171.15,174.613,183.212" y="152.34000000000003" svg_rhmargin="190.179" style="fill:#171615;font-family:BEHJNB+AdvOT6e5d2ec0;font-size:10.46px;font-style:NORMAL;font-weight:normal;">Zhou-zheng Wang, MB</text>
  <text x="190.205" y="147.692" svg_rhmargin="194.693" style="fill:#171615;font-family:BEHJNB+AdvOT6e5d2ec0;font-size:6.97px;font-style:NORMAL;font-weight:normal;">d</text>
  <text x="194.683,197.507,200.977,206.531,208.383,212.19,214.042,219.597,224.932,230.487,233.972,239.526,245.081,247.905,251.433,260.031" y="152.34000000000003" svg_rhmargin="266.998" style="fill:#171615;font-family:BEHJNB+AdvOT6e5d2ec0;font-size:10.46px;font-style:NORMAL;font-weight:normal;">, Li-juan Fu, MB</text>
  <text x="266.967" y="147.692" svg_rhmargin="270.968" style="fill:#171615;font-family:BEHJNB+AdvOT6e5d2ec0;font-size:6.97px;font-style:NORMAL;font-weight:normal;">e</text>
  <text x="270.992,273.81600000000003,277.285,284.032,289.367,293.175,299.159,301.01,306.565,312.339,315.836,322.374,327.929,333.264,339.038,341.862,345.316,353.915" y="152.34000000000003" svg_rhmargin="362.514" style="fill:#171615;font-family:BEHJNB+AdvOT6e5d2ec0;font-size:10.46px;font-style:NORMAL;font-weight:normal;">, Ke-ding Shao, MM</text>
  <text x="362.551" y="147.692" svg_rhmargin="364.512" style="fill:#171615;font-family:BEHJNB+AdvOT6e5d2ec0;font-size:6.97px;font-style:NORMAL;font-weight:normal;">f</text>
  <text x="364.479,367.303,370.772,376.002,377.854,383.189,388.743,392.551,398.535,400.386,405.941,411.715,415.218,421.756,427.311,432.646,438.2,441.024,444.472,453.07" y="152.34000000000003" svg_rhmargin="460.037" style="fill:#171615;font-family:BEHJNB+AdvOT6e5d2ec0;font-size:10.46px;font-style:NORMAL;font-weight:normal;">, Jian-ping Shen, MB</text>
  <text x="460.063" y="147.692" svg_rhmargin="464.064" style="fill:#171615;font-family:BEHJNB+AdvOT6e5d2ec0;font-size:6.97px;font-style:NORMAL;font-weight:normal;">a</text>
  <text x="464.088,466.91200000000003,470.381,476.7,482.254,486.062,491.617,497.391,502.945,508.719,512.163,518.147,523.702,529.476,535.03,537.8539999999999,541.36,549.959" y="152.34000000000003" svg_rhmargin="556.926" style="fill:#171615;font-family:BEHJNB+AdvOT6e5d2ec0;font-size:10.46px;font-style:NORMAL;font-weight:normal;">, Yu-hong Zhou, MB</text>
  <text x="556.894" y="147.692" svg_rhmargin="560.895" style="fill:#171615;font-family:BEHJNB+AdvOT6e5d2ec0;font-size:6.97px;font-style:NORMAL;font-weight:normal;">a</text>
  <text x="560.92" y="152.34000000000003" svg_rhmargin="563.744" style="fill:#171615;font-family:BEHJNB+AdvOT6e5d2ec0;font-size:10.46px;font-style:NORMAL;font-weight:normal;">,</text>
  <text x="85.039,91.358,93.209,97.017,103.0,104.852,110.407,116.181,119.679,126.217,131.771,137.106,142.661,145.485,148.932,157.531" y="164.813" svg_rhmargin="164.498" style="fill:#171615;font-family:BEHJNB+AdvOT6e5d2ec0;font-size:10.46px;font-style:NORMAL;font-weight:normal;">Yi-ping Shen, MB</text>
  <text x="164.523" y="160.164" svg_rhmargin="168.524" style="fill:#171615;font-family:BEHJNB+AdvOT6e5d2ec0;font-size:6.97px;font-style:NORMAL;font-weight:normal;">a</text>
  <text x="168.491,171.31500000000003,174.841,181.808,187.143,192.917,196.725,202.708,208.483,214.037,219.811,223.256,229.574,234.909,237.733,241.228,249.826" y="164.813" svg_rhmargin="256.908" style="fill:#171615;font-family:BEHJNB+AdvOT6e5d2ec0;font-size:10.46px;font-style:NORMAL;font-weight:normal;">, Bao-dong Ye, MD</text>
  <text x="256.875" y="160.164" svg_rhmargin="260.876" style="fill:#171615;font-family:BEHJNB+AdvOT6e5d2ec0;font-size:6.97px;font-style:NORMAL;font-weight:normal;">a</text>
  <text x="260.901,263.725,267.194,273.177,278.732,280.584,284.391,289.182,291.034,296.589,300.075,306.059,311.613,316.948,322.503,328.277,331.101,334.601,343.199" y="164.813" svg_rhmargin="350.281" style="fill:#171615;font-family:BEHJNB+AdvOT6e5d2ec0;font-size:10.46px;font-style:NORMAL;font-weight:normal;">, Zhi-yin Zheng, MD</text>
  <text x="350.305" y="160.164" svg_rhmargin="354.306" style="fill:#171615;font-family:BEHJNB+AdvOT6e5d2ec0;font-size:6.97px;font-style:NORMAL;font-weight:normal;">a</text>
  <text x="354.274,357.098,360.567,365.798,371.352,376.907,380.714,383.33,388.66499999999996,392.145,399.436,404.991,410.326,415.88,418.704,422.192,430.791" y="164.813" svg_rhmargin="439.39" style="fill:#171615;font-family:BEHJNB+AdvOT6e5d2ec0;font-size:10.46px;font-style:NORMAL;font-weight:normal;">, Jun-fa Chen, MM</text>
  <text x="439.427" y="160.164" svg_rhmargin="443.428" style="fill:#171615;font-family:BEHJNB+AdvOT6e5d2ec0;font-size:6.97px;font-style:NORMAL;font-weight:normal;">a</text>
  <text x="443.395,446.219,449.745,456.283,461.837,467.172,472.727,478.501,482.309,487.1,492.655,498.21,501.675,507.23,509.081,514.636,517.4599999999999,520.893,529.492" y="164.813" svg_rhmargin="536.459" style="fill:#171615;font-family:BEHJNB+AdvOT6e5d2ec0;font-size:10.46px;font-style:NORMAL;font-weight:normal;">, Sheng-yun Lin, MB</text>
  <text x="536.485,540.486" y="160.164" svg_rhmargin="542.604" style="fill:#171615;font-family:BEHJNB+AdvOT6e5d2ec0;font-size:6.97px;font-style:NORMAL;font-weight:normal;">a,</text>
  <text x="542.607" y="158.12300000000005" svg_rhmargin="546.687" style="fill:#171615;font-family:BEHJNC+AdvOTb0c9bf5d+22;font-size:6.97px;font-style:NORMAL;font-weight:normal;">∗</text>
  <text x="91.276,97.915,104.052,109.607,113.09,117.155,123.045,128.935" y="186.58299999999997" svg_rhmargin="132.418" style="fill:#171615;font-family:BEHJND+AdvOT91f5f621.B;font-size:7.97px;font-style:NORMAL;font-weight:normal;">Abstract</text>
  <text x="91.276,96.225,101.17399999999999,103.635,108.396,113.157,118.286,122.858,125.656,129.951,132.56,137.133,141.894,147.023,149.555,152.164,156.925,161.49800000000002,163.955,166.752,168.339,172.634,177.117,181.41199999999998,183.91,188.483,192.778,197.073,202.022,206.595,208.182,212.755,215.364,219.937,225.066,227.563,234.189,235.776,238.385,243.146,245.59,250.163,255.292,256.879,261.452,265.746,268.356,269.943,274.51599999999996,276.997,281.57,286.331,290.904,298.274,299.861,304.43399999999997,306.93,309.073,314.677,320.281,322.424,324.902,326.489,331.25,333.746,338.695,341.173,345.746,347.333,349.942,351.529,356.102,360.397,362.886,367.835,370.077,372.523,377.652,382.413,386.986,388.573,390.16,394.733,399.494,404.44300000000004,406.935,412.539,415.337,420.286,424.393,425.98,430.741,435.314,439.886,442.307,444.804,451.054,455.815,457.402,462.163,466.736,469.157,471.619,478.245,479.832,482.441,487.202,489.704,493.999,499.128,503.7,508.273,509.86,514.433,516.02,518.503,520.744,525.694,530.267,535.028,539.323,541.803,546.752,551.5129999999999,553.992,556.601,561.362,565.935,568.391,569.978,574.928,576.515,581.276" y="197.298" svg_rhmargin="583.885" style="fill:#171615;font-family:BEHJNB+AdvOT6e5d2ec0;font-size:8.97px;font-style:NORMAL;font-weight:normal;">To understand the risks associated with aplastic anemia (AA) in 4 cities of Zhejiang Province, China, with special focus on the joint</text>
  <text x="91.276,95.848,100.798,105.559,108.168,110.966,112.553,117.681,122.442,125.052,126.639,131.588,136.349,140.64399999999998,143.658,148.607,150.849,153.806,161.176,165.937,167.524,170.133,171.72,176.849,178.436,183.00900000000001,186.063,188.86,190.447,194.742,199.225,203.52" y="208.23900000000003" svg_rhmargin="205.941" style="fill:#171615;font-family:BEHJNB+AdvOT6e5d2ec0;font-size:8.97px;font-style:NORMAL;font-weight:normal;">contributions of multiple risks.</text>
  <text x="100.233,106.204,110.777,115.072,119.645,124.774,127.161,132.111,136.87199999999999,139.237,143.81,148.571,150.916,156.143,157.73,162.303,166.876,169.485,172.283,177.232,181.993,183.58,188.15300000000002,190.542,196.613,201.185,203.795,208.368,210.725,216.974,221.547,226.676,229.285,234.046,236.844,241.417,243.832,245.975,251.202,257.272,263.522,265.665,268.086,270.477,275.04999999999995,277.394,281.966,286.539,290.834,295.407,297.803,302.376,307.325,312.086,314.695,317.493,322.442,324.029,326.375,330.67,333.279,338.04,343.169,347.275,349.675,356.301,360.873,365.168,367.533,372.106,376.678,379.476,382.273,383.86,388.433,393.562,395.935,400.885,405.646,408.255,410.676,413.056,419.127,423.699,426.309,430.882,433.239,436.036,440.609,445.558,450.131,452.929,458.057,459.644,464.406,469.355,471.732,476.027,480.976,485.549,487.136,492.085,495.349,500.478,505.051,512.421,517.37,522.32,525.117,529.69,534.819,539.58,541.167,545.74,548.1610000000001,550.589,555.718,557.305,561.599,566.172,570.745,575.04,579.613" y="219.23699999999997" svg_rhmargin="583.908" style="fill:#171615;font-family:BEHJNB+AdvOT6e5d2ec0;font-size:8.97px;font-style:NORMAL;font-weight:normal;">Based on an Electronic Data Capture (EDC), a case control study was carried out. Data regarding socio-demographic, diseases</text>
  <text svg_rhmargin="497.201" x="91.276,96.037,97.624,101.919,104.528,109.477,112.275,116.381,118.802,120.868,122.455,124.042,128.149,129.736,134.497,139.44600000000003,141.56,146.322,150.894,156.023,157.61,160.219,164.514,166.935,169.056,173.628,178.389,183.518,185.609,190.182,194.477,199.606,204.555,208.85,213.611,216.408,220.981,225.27599999999998,227.334,229.943,234.89200000000002,236.972,239.581,244.53,248.825,250.412,254.985,257.098,261.392,266.153,271.282,275.577,278.186,282.759,287.52,292.093,296.666,300.961,303.382,305.511,310.084,312.693,317.266,319.687,322.108,324.219,330.845,335.418,338.216,342.789,344.855,349.428,354.377,355.964,357.551,362.124,366.697,369.306,373.879,379.00800000000004,381.137,383.747,388.508,391.305,396.255,401.016,405.965,410.726,412.828,417.123,421.884,424.681,428.788,433.361,437.467,439.53,444.658,449.419,453.992,458.287,460.896,462.483,467.433,472.194,476.955,481.528,483.115,485.912,490.485,494.78,497.20099999999996" y="230.17899999999997" style="fill:#171615;font-family:BEHJNB+AdvOT6e5d2ec0;font-size:8.97px;font-style:NORMAL;font-weight:normal;">history, living habits, and exposures to toxic substances, etc., were collected through survey questionnaires. </text>
  <text svg_rhmargin="501.962" x="499.353,501.962" y="230.17899999999997" style="fill:#171615;font-family:BEHJNE+AdvOT1deab444.I;font-size:8.97px;font-style:NORMAL;font-weight:normal;">t </text>
  <text x="504.002,508.951,513.524,517.819,520.428,522.849,524.977,529.55,534.311,535.898,539.162,543.457,548.586,553.347,557.919,560.717,565.29,567.383,569.992,574.565,578.859,581.469" y="230.17899999999997" svg_rhmargin="583.89" style="fill:#171615;font-family:BEHJNB+AdvOT6e5d2ec0;font-size:8.97px;font-style:NORMAL;font-weight:normal;">Test, chi-square test,</text>
  <text x="91.276,96.225,99.02199999999999,101.99,106.751,111.701,116.462,119.726,124.854,129.427,132.225,136.798,144.168,148.741,151.35,154.147,155.734,160.30700000000002,163.33,166.127,170.7,175.461,179.94400000000002,182.945,187.24,192.001,199.371,202.39,205.0,209.572,213.867,216.477,218.898,221.892,226.465,231.226,236.355,239.353,244.114,248.875,250.462,254.569,259.142,261.939,263.526,268.099,270.708,275.281,278.3,282.873,287.634,292.76300000000003,295.761,303.131,307.892,309.48,312.089,313.676,317.782,322.355,325.153,326.74,331.312,333.922,338.495,341.511,346.272,351.221,356.171,357.758,362.053,364.662,366.249,370.822,373.824,376.622,381.195,386.144,388.942,393.514,397.809,402.104,403.691,408.641,413.40200000000004,416.399,420.972,425.733,430.306,431.893,435.999,440.294,441.881,446.176,449.166,455.793,460.365,463.163,467.736,470.766,475.339,480.289,485.05,490.178,494.939,499.512,502.121,506.694,511.82300000000004,514.815,517.424,522.3729999999999,525.36,529.933,534.694,539.267,540.854,544.961,549.067,553.64,556.654,561.782,566.355,568.964,573.537" y="241.12099999999998" svg_rhmargin="575.958" style="fill:#171615;font-family:BEHJNB+AdvOT6e5d2ec0;font-size:8.97px;font-style:NORMAL;font-weight:normal;">or non-parametric rank sum test, and univariate and multivariate Logistic regression analysis were conducted to analyze data.</text>
  <text svg_rhmargin="457.432" x="100.233,105.182,109.943,114.51599999999999,117.071,121.832,126.593,128.18,132.287,136.859,139.657,141.244,145.817,148.426,152.999,155.62,157.208,162.157,167.106,168.693,172.988,175.597,177.184,181.757,184.363,187.16,191.733,196.683,199.48,204.053,208.348,212.643,214.23,219.179,223.94,226.541,231.114,235.875,240.448,242.035,246.142,250.436,252.023,256.318,258.912,261.71,266.283,270.577,275.339,276.926,279.535,283.83000000000004,286.408,287.995,292.756,297.884,299.471,304.044,308.617,311.226,315.799,320.928,323.541,326.15,330.911,335.484,338.09299999999996,340.662,345.235,352.605,357.554,362.315,367.264,369.858,374.431,376.018,377.60499999999996,380.175,384.47,387.079,391.84,396.969,401.075,403.702,408.831,413.404,416.201,418.81,420.397,424.97,426.557,431.686,436.259,441.02,443.629,447.92400000000004,450.529,452.671,457.432" y="252.062" style="fill:#171615;font-family:BEHJNB+AdvOT6e5d2ec0;font-size:8.97px;font-style:NORMAL;font-weight:normal;">The univariate logistic regression analysis results indicated that among all study participants (n </text>
  <text x="458.59" y="252.062" svg_rhmargin="464.66" style="fill:#171615;font-family:BEHJNF+AdvOTb0c9bf5d;font-size:8.97px;font-style:NORMAL;font-weight:normal;">=</text>
  <text x="465.733,470.683,475.632,480.582,485.531,487.674,490.09499999999997,492.718,498.322,503.926,506.494,513.12,517.693,521.9879999999999,524.578,529.151,533.446,537.741,542.69,547.263,548.85,553.423,556.032,560.605,565.734,568.344,574.97,576.557,579.166" y="252.062" svg_rhmargin="583.927" style="fill:#171615;font-family:BEHJNB+AdvOT6e5d2ec0;font-size:8.97px;font-style:NORMAL;font-weight:normal;">1802), AA was associated with</text>
  <text x="91.276,96.225,100.332,104.904,107.701,111.798,116.747,121.696,125.8,128.598,130.185,134.48,138.963,143.258,145.679,149.837,151.424,156.185,160.269,162.878,167.451,170.248,177.618,181.91299999999998,186.063,191.012,193.254,197.344,199.953,204.715,209.287,210.874,213.671,217.753,219.34,224.102,229.23,230.817,234.924,236.511,241.64,246.401,250.974,252.56099999999998,256.7,261.829,266.402,271.163,275.736,279.842,281.429,286.379,289.176,293.471,295.892,300.069,305.197,309.77,311.357,312.944,317.05,321.158,325.731,330.492,335.62100000000004,339.753,344.326,349.087,353.194,354.781,357.578,362.528,367.289,374.659,379.232,383.993,386.602,391.175,392.762,396.897,401.47,405.765,410.894,415.843,420.138,424.899,427.697,432.27,436.564,438.985,443.101,448.23,449.817,454.111,458.684,463.257,467.552,472.125,476.42,480.517,485.278,486.865,491.16,493.769,498.719,501.516,505.623,508.044,512.208,516.781,521.542,526.671,530.746,532.987,537.56,544.93,546.517,548.104,552.21,556.37,561.131,562.719,567.013,569.623,574.572,577.369,581.476" y="263.05999999999995" svg_rhmargin="583.897" style="fill:#171615;font-family:BEHJNB+AdvOT6e5d2ec0;font-size:8.97px;font-style:NORMAL;font-weight:normal;">over 30 risks, in terms of their individual behaviors, daily and environmental exposures, diseases history, and family history.</text>
  <text x="91.276,98.646,103.407,104.994,107.603,109.19,113.297,117.87,120.667,122.254,126.827,129.436,134.00900000000001,136.969,138.556,143.505,148.455,150.042,154.337,156.946,158.533,163.106,166.108,168.906,173.479,178.428,181.226,185.798,190.093,194.388,195.975,200.925,205.686,208.627,213.199,217.961,222.533,224.12,228.227,232.522,234.109,238.404,241.394,243.636,248.397,251.194,253.803,258.564,263.137,265.934,268.889,273.462,278.411" y="274.00199999999995" svg_rhmargin="283.172" style="fill:#171615;font-family:BEHJNB+AdvOT6e5d2ec0;font-size:8.97px;font-style:NORMAL;font-weight:normal;">Multivariate logistic regression analysis further con</text>
  <text x="283.182" y="274.00199999999995" svg_rhmargin="287.1" style="fill:#171615;font-family:BEHJNG+AdvOT6e5d2ec0+fb;font-size:8.97px;font-style:NORMAL;font-weight:normal;">ﬁ</text>
  <text x="287.094,289.892,297.262,301.835,306.964,309.941,312.55,317.312,321.884,324.493,327.459,330.068,334.829,339.402,342.369,343.956,348.717,353.846,358.418,363.547,368.12,372.881,378.01,382.583,387.344,389.953,392.937,395.734,397.321,401.616,406.099,410.394,413.346,416.144,420.716,422.303,426.876,429.485,434.058,439.187,442.145,444.754,449.70300000000003,452.69,458.294,463.89799999999997,466.807,468.394,473.155,477.728,479.315,484.076,489.205,493.777,498.906,501.898,507.027,509.824,514.397,518.692,523.265,528.026,532.599,537.172,540.165,545.114,547.356,550.313,554.885,559.647,564.219,571.59,573.177,577.75,582.322" y="274.00199999999995" svg_rhmargin="583.909" style="fill:#171615;font-family:BEHJNB+AdvOT6e5d2ec0;font-size:8.97px;font-style:NORMAL;font-weight:normal;">rmed that the independent risks related to AA included presence of chemical</text>
  <text svg_rhmargin="298.814" x="91.277,93.518,98.091,102.664,105.273,110.222,113.02,117.12599999999999,120.133,126.759,128.346,130.955,135.716,137.303,142.064,145.077,150.026,151.143,155.626,162.996,166.053,171.002,173.244,176.201,177.788,179.375,183.482,185.069,189.83,194.77900000000002,197.801,200.598,205.171,209.466,211.053,216.182,220.754,225.516,230.088,234.661,237.712,239.854,244.804,249.933,255.061,259.356,262.372,265.17,269.743,272.352,273.939,278.88800000000003,281.931,284.074,290.7,296.671,298.81399999999996" y="284.943" style="fill:#171615;font-family:BEHJNB+AdvOT6e5d2ec0;font-size:8.97px;font-style:NORMAL;font-weight:normal;">factory within 3 km of living residence (odds ratio [OR] </text>
  <text x="299.964" y="284.943" svg_rhmargin="306.034" style="fill:#171615;font-family:BEHJNF+AdvOTb0c9bf5d;font-size:8.97px;font-style:NORMAL;font-weight:normal;">=</text>
  <text x="307.107,312.056,314.477,319.427,324.376,326.79699999999997,329.84,334.79,339.739,347.674,350.703,356.952,358.907,361.328,364.309,369.259,371.68,376.629" y="284.943" svg_rhmargin="381.578" style="fill:#171615;font-family:BEHJNB+AdvOT6e5d2ec0;font-size:8.97px;font-style:NORMAL;font-weight:normal;">8.73, 95% CI: 1.42</text>
  <text x="381.602" y="284.943" svg_rhmargin="386.085" style="fill:#171615;font-family:BEHJNH+AdvOT6e5d2ec0+20;font-size:8.97px;font-style:NORMAL;font-weight:normal;">–</text>
  <text svg_rhmargin="410.72" x="386.08,391.03,395.979,398.4,403.35,408.299,410.71999999999997" y="284.943" style="fill:#171615;font-family:BEHJNB+AdvOT6e5d2ec0;font-size:8.97px;font-style:NORMAL;font-weight:normal;">53.74, </text>
  <text svg_rhmargin="419.351" x="413.747,419.351" y="284.943" style="fill:#171615;font-family:BEHJNE+AdvOT1deab444.I;font-size:8.97px;font-style:NORMAL;font-weight:normal;">P </text>
  <text x="420.493" y="284.943" svg_rhmargin="426.563" style="fill:#171615;font-family:BEHJNF+AdvOTb0c9bf5d;font-size:8.97px;font-style:NORMAL;font-weight:normal;">=</text>
  <text x="427.693,430.114,435.063,440.013,444.962,447.105,449.526,452.523,454.11,455.697,459.804,461.391,466.152,471.101,474.123,475.71,480.471,483.478,488.051,491.075,495.836,500.409,507.035,508.622,512.7280000000001,515.736,520.865,525.437,530.01,534.96,537.757,542.33,544.939,549.512,554.641,557.687,562.448,567.398,572.159,576.454,581.027" y="284.943" svg_rhmargin="583.914" style="fill:#171615;font-family:BEHJNB+AdvOT6e5d2ec0;font-size:8.97px;font-style:NORMAL;font-weight:normal;">.019), living in a newly decorated house/</text>
  <text x="91.276,95.848,100.977,105.55,108.348,110.957,118.327,122.9,127.661,130.27,132.036,134.179,140.806" y="295.942" svg_rhmargin="146.778" style="fill:#171615;font-family:BEHJNB+AdvOT6e5d2ec0;font-size:8.97px;font-style:NORMAL;font-weight:normal;">apartment (OR</text>
  <text x="147.912" y="295.942" svg_rhmargin="153.982" style="fill:#171615;font-family:BEHJNF+AdvOTb0c9bf5d;font-size:8.97px;font-style:NORMAL;font-weight:normal;">=</text>
  <text x="155.112,160.062,165.011,167.432,172.381,177.331,179.75199999999998,181.473,186.422,191.372,199.30700000000002,201.089,207.338,209.293,211.714,213.448,218.397,220.818,225.768" y="295.942" svg_rhmargin="230.717" style="fill:#171615;font-family:BEHJNB+AdvOT6e5d2ec0;font-size:8.97px;font-style:NORMAL;font-weight:normal;">25.37, 95% CI: 4.44</text>
  <text x="230.741" y="295.942" svg_rhmargin="235.224" style="fill:#171615;font-family:BEHJNH+AdvOT6e5d2ec0+20;font-size:8.97px;font-style:NORMAL;font-weight:normal;">–</text>
  <text svg_rhmargin="264.809" x="235.22,240.169,245.119,250.068,252.489,257.438,262.388,264.80899999999997" y="295.942" style="fill:#171615;font-family:BEHJNB+AdvOT6e5d2ec0;font-size:8.97px;font-style:NORMAL;font-weight:normal;">144.81, </text>
  <text svg_rhmargin="272.118" x="266.514,272.118" y="295.942" style="fill:#171615;font-family:BEHJNE+AdvOT1deab444.I;font-size:8.97px;font-style:NORMAL;font-weight:normal;">P </text>
  <text x="273.26" y="295.942" svg_rhmargin="280.164" style="fill:#171615;font-family:BEHJNI+AdvP4C4E51;font-size:8.97px;font-style:NORMAL;font-weight:normal;">&lt;</text>
  <text x="281.311,283.732,288.681,293.631,298.58,300.723,303.144,304.894,309.001,313.574,318.523,323.096,325.705,330.278,333.075,334.662,339.235,343.99600000000004,345.768,350.897,352.484,357.057,359.666,361.415,363.558,370.184" y="295.942" svg_rhmargin="376.156" style="fill:#171615;font-family:BEHJNB+AdvOT6e5d2ec0;font-size:8.97px;font-style:NORMAL;font-weight:normal;">.001), vegetarian diet (OR</text>
  <text x="377.293" y="295.942" svg_rhmargin="383.363" style="fill:#171615;font-family:BEHJNF+AdvOTb0c9bf5d;font-size:8.97px;font-style:NORMAL;font-weight:normal;">=</text>
  <text x="384.436,389.385,394.335,399.284,401.705,406.655,411.604,414.025,415.786,420.735,425.685,433.62,435.345,441.594,443.549,445.96999999999997,447.761,452.71,455.131,460.08" y="295.942" svg_rhmargin="465.029" style="fill:#171615;font-family:BEHJNB+AdvOT6e5d2ec0;font-size:8.97px;font-style:NORMAL;font-weight:normal;">131.60, 95% CI: 3.45</text>
  <text x="465.054" y="295.942" svg_rhmargin="469.537" style="fill:#171615;font-family:BEHJNH+AdvOT6e5d2ec0+20;font-size:8.97px;font-style:NORMAL;font-weight:normal;">–</text>
  <text svg_rhmargin="504.071" x="469.533,474.482,479.431,484.381,489.33,491.751,496.7,501.65,504.07099999999997" y="295.942" style="fill:#171615;font-family:BEHJNB+AdvOT6e5d2ec0;font-size:8.97px;font-style:NORMAL;font-weight:normal;">5020.16, </text>
  <text x="505.816" y="295.942" svg_rhmargin="511.42" style="fill:#171615;font-family:BEHJNE+AdvOT1deab444.I;font-size:8.97px;font-style:NORMAL;font-weight:normal;">P</text>
  <text x="512.506" y="295.942" svg_rhmargin="518.576" style="fill:#171615;font-family:BEHJNF+AdvOTb0c9bf5d;font-size:8.97px;font-style:NORMAL;font-weight:normal;">=</text>
  <text x="519.706,522.127,527.076,532.026,536.975,539.118,541.5390000000001,543.289,548.418,551.216,555.788,558.03,562.603,565.4,569.973,574.734,579.307" y="295.942" svg_rhmargin="583.88" style="fill:#171615;font-family:BEHJNB+AdvOT6e5d2ec0;font-size:8.97px;font-style:NORMAL;font-weight:normal;">.009), preference</text>
  <text x="91.277,96.226,98.468,102.105,106.4,111.161,116.111,120.683,123.48,127.106,129.249,135.875" y="306.884" svg_rhmargin="141.847" style="fill:#171615;font-family:BEHJNB+AdvOT6e5d2ec0;font-size:8.97px;font-style:NORMAL;font-weight:normal;">of sugar (OR</text>
  <text x="142.981" y="306.884" svg_rhmargin="149.051" style="fill:#171615;font-family:BEHJNF+AdvOTb0c9bf5d;font-size:8.97px;font-style:NORMAL;font-weight:normal;">=</text>
  <text x="150.124,155.074,160.023,162.444,167.393,172.343,174.76399999999998,178.413,183.362,188.312,196.247,199.899,206.148,208.103,210.524,214.128,219.078,221.499,226.448" y="306.884" svg_rhmargin="231.397" style="fill:#171615;font-family:BEHJNB+AdvOT6e5d2ec0;font-size:8.97px;font-style:NORMAL;font-weight:normal;">89.38, 95% CI: 7.22</text>
  <text x="231.423" y="306.884" svg_rhmargin="235.906" style="fill:#171615;font-family:BEHJNH+AdvOT6e5d2ec0+20;font-size:8.97px;font-style:NORMAL;font-weight:normal;">–</text>
  <text svg_rhmargin="270.44" x="235.901,240.851,245.8,250.749,255.699,258.12,263.069,268.019,270.44" y="306.884" style="fill:#171615;font-family:BEHJNB+AdvOT6e5d2ec0;font-size:8.97px;font-style:NORMAL;font-weight:normal;">1106.44, </text>
  <text svg_rhmargin="279.66" x="274.056,279.65999999999997" y="306.884" style="fill:#171615;font-family:BEHJNE+AdvOT1deab444.I;font-size:8.97px;font-style:NORMAL;font-weight:normal;">P </text>
  <text x="280.802" y="306.884" svg_rhmargin="287.706" style="fill:#171615;font-family:BEHJNI+AdvP4C4E51;font-size:8.97px;font-style:NORMAL;font-weight:normal;">&lt;</text>
  <text x="288.853,291.274,296.223,301.172,306.122,308.265,310.686,314.307,319.436,322.233,326.806,329.048,333.62,336.418,340.991,345.752,350.325,354.89799999999997,358.526,363.476,365.718,369.355,374.304,375.891,377.478,381.584,385.229,387.47,392.42,397.369,402.49800000000005,406.092,408.234,414.861" y="306.884" svg_rhmargin="420.833" style="fill:#171615;font-family:BEHJNB+AdvOT6e5d2ec0;font-size:8.97px;font-style:NORMAL;font-weight:normal;">.001), preference of oily food (OR</text>
  <text x="421.968" y="306.884" svg_rhmargin="428.038" style="fill:#171615;font-family:BEHJNF+AdvOTb0c9bf5d;font-size:8.97px;font-style:NORMAL;font-weight:normal;">=</text>
  <text x="429.168,434.117,439.067,441.488,446.437,451.387,453.808,457.457,462.406,467.356,475.291,478.886,485.136,487.09,489.51099999999997,493.172,498.122,500.543,505.492" y="306.884" svg_rhmargin="510.441" style="fill:#171615;font-family:BEHJNB+AdvOT6e5d2ec0;font-size:8.97px;font-style:NORMAL;font-weight:normal;">55.68, 95% CI: 5.12</text>
  <text x="510.466" y="306.884" svg_rhmargin="514.949" style="fill:#171615;font-family:BEHJNH+AdvOT6e5d2ec0+20;font-size:8.97px;font-style:NORMAL;font-weight:normal;">–</text>
  <text svg_rhmargin="544.534" x="514.945,519.894,524.844,529.793,532.214,537.164,542.113,544.5340000000001" y="306.884" style="fill:#171615;font-family:BEHJNB+AdvOT6e5d2ec0;font-size:8.97px;font-style:NORMAL;font-weight:normal;">605.26, </text>
  <text x="548.167" y="306.884" svg_rhmargin="553.771" style="fill:#171615;font-family:BEHJNE+AdvOT1deab444.I;font-size:8.97px;font-style:NORMAL;font-weight:normal;">P</text>
  <text x="554.857" y="306.884" svg_rhmargin="560.927" style="fill:#171615;font-family:BEHJNF+AdvOTb0c9bf5d;font-size:8.97px;font-style:NORMAL;font-weight:normal;">=</text>
  <text x="562.057,564.478,569.427,574.376,579.326,581.469" y="306.884" svg_rhmargin="583.89" style="fill:#171615;font-family:BEHJNB+AdvOT6e5d2ec0;font-size:8.97px;font-style:NORMAL;font-weight:normal;">.001),</text>
  <text x="91.277,96.405,99.203,100.79,105.551,110.034,111.621,116.382,121.331,123.137,124.724,129.296,133.78,138.353,140.144,146.77,151.343,153.952,158.525,161.322,163.16,168.11,170.907,172.684,177.813,182.763,187.524,192.653,194.454,201.08,205.653,208.262,212.835,215.632,217.47,219.613,226.239" y="317.826" svg_rhmargin="232.211" style="fill:#171615;font-family:BEHJNB+AdvOT6e5d2ec0;font-size:8.97px;font-style:NORMAL;font-weight:normal;">drinking lake water or pond water (OR</text>
  <text x="233.349" y="317.826" svg_rhmargin="239.419" style="fill:#171615;font-family:BEHJNF+AdvOTb0c9bf5d;font-size:8.97px;font-style:NORMAL;font-weight:normal;">=</text>
  <text x="240.549,245.499,250.448,252.869,257.818,262.768,265.18899999999996,266.968,271.917,276.866,284.801,286.64,292.889,294.844,297.265,299.055,304.005,306.426,311.375" y="317.826" svg_rhmargin="316.324" style="fill:#171615;font-family:BEHJNB+AdvOT6e5d2ec0;font-size:8.97px;font-style:NORMAL;font-weight:normal;">58.05, 95% CI: 3.21</text>
  <text x="316.348" y="317.826" svg_rhmargin="320.831" style="fill:#171615;font-family:BEHJNH+AdvOT6e5d2ec0+20;font-size:8.97px;font-style:NORMAL;font-weight:normal;">–</text>
  <text svg_rhmargin="355.365" x="320.826,325.776,330.725,335.675,340.624,343.045,347.994,352.944,355.365" y="317.826" style="fill:#171615;font-family:BEHJNB+AdvOT6e5d2ec0;font-size:8.97px;font-style:NORMAL;font-weight:normal;">1049.81, </text>
  <text svg_rhmargin="362.771" x="357.167,362.77099999999996" y="317.826" style="fill:#171615;font-family:BEHJNE+AdvOT1deab444.I;font-size:8.97px;font-style:NORMAL;font-weight:normal;">P </text>
  <text x="363.913" y="317.826" svg_rhmargin="370.817" style="fill:#171615;font-family:BEHJNI+AdvP4C4E51;font-size:8.97px;font-style:NORMAL;font-weight:normal;">&lt;</text>
  <text x="371.907,374.328,379.277,384.226,389.176,391.319,393.74,395.547,400.308,404.881,410.01,411.597,414.20599999999996,416.069,421.019,423.261,425.027,429.321,431.931,436.503,440.61,442.197,446.958,451.90700000000004,453.712,458.474,463.603,465.448,467.035,471.607,474.217,478.78999999999996,480.584,482.727,489.354" y="317.826" svg_rhmargin="495.326" style="fill:#171615;font-family:BEHJNB+AdvOT6e5d2ec0;font-size:8.97px;font-style:NORMAL;font-weight:normal;">.001), habit of staying up late (OR</text>
  <text x="496.461" y="317.826" svg_rhmargin="502.531" style="fill:#171615;font-family:BEHJNF+AdvOTb0c9bf5d;font-size:8.97px;font-style:NORMAL;font-weight:normal;">=</text>
  <text x="503.661,508.61,513.56,515.981,520.93,525.88,528.301,530.079,535.029,539.978,547.9129999999999,549.695,555.944,557.899,560.32,562.167,567.116,569.537,574.487" y="317.826" svg_rhmargin="579.436" style="fill:#171615;font-family:BEHJNB+AdvOT6e5d2ec0;font-size:8.97px;font-style:NORMAL;font-weight:normal;">11.87, 95% CI: 3.43</text>
  <text x="579.459" y="317.826" svg_rhmargin="583.942" style="fill:#171615;font-family:BEHJNH+AdvOT6e5d2ec0+20;font-size:8.97px;font-style:NORMAL;font-weight:normal;">–</text>
  <text svg_rhmargin="115.914" x="91.275,96.224,101.174,103.595,108.544,113.493,115.914" y="328.825" style="fill:#171615;font-family:BEHJNB+AdvOT6e5d2ec0;font-size:8.97px;font-style:NORMAL;font-weight:normal;">41.02, </text>
  <text x="119.338" y="328.825" svg_rhmargin="124.942" style="fill:#171615;font-family:BEHJNE+AdvOT1deab444.I;font-size:8.97px;font-style:NORMAL;font-weight:normal;">P</text>
  <text x="126.027" y="328.825" svg_rhmargin="132.931" style="fill:#171615;font-family:BEHJNI+AdvP4C4E51;font-size:8.97px;font-style:NORMAL;font-weight:normal;">&lt;</text>
  <text x="134.078,136.499,141.449,146.398,151.347,153.49,155.911,159.306,160.893,165.654,167.896,172.468,177.041,179.65,181.237,186.187,190.948,194.341,199.102,200.689,204.984,207.593,212.542,215.34,219.446,222.856,224.999,231.625" y="328.825" svg_rhmargin="237.597" style="fill:#171615;font-family:BEHJNB+AdvOT6e5d2ec0;font-size:8.97px;font-style:NORMAL;font-weight:normal;">.001), infection history (OR</text>
  <text x="238.734" y="328.825" svg_rhmargin="244.804" style="fill:#171615;font-family:BEHJNF+AdvOTb0c9bf5d;font-size:8.97px;font-style:NORMAL;font-weight:normal;">=</text>
  <text x="245.934,250.883,255.833,258.253,263.203,268.152,270.573,273.996,278.945,283.894,291.829,295.198,301.448,303.402,305.823,309.257,314.207,316.628,321.577" y="328.825" svg_rhmargin="326.526" style="fill:#171615;font-family:BEHJNB+AdvOT6e5d2ec0;font-size:8.97px;font-style:NORMAL;font-weight:normal;">10.08, 95% CI: 2.75</text>
  <text x="326.552" y="328.825" svg_rhmargin="331.035" style="fill:#171615;font-family:BEHJNH+AdvOT6e5d2ec0+20;font-size:8.97px;font-style:NORMAL;font-weight:normal;">–</text>
  <text svg_rhmargin="355.67" x="331.03,335.98,340.929,343.35,348.299,353.249,355.67" y="328.825" style="fill:#171615;font-family:BEHJNB+AdvOT6e5d2ec0;font-size:8.97px;font-style:NORMAL;font-weight:normal;">36.93, </text>
  <text svg_rhmargin="364.64" x="359.036,364.64" y="328.825" style="fill:#171615;font-family:BEHJNE+AdvOT1deab444.I;font-size:8.97px;font-style:NORMAL;font-weight:normal;">P </text>
  <text x="365.783" y="328.825" svg_rhmargin="372.687" style="fill:#171615;font-family:BEHJNI+AdvP4C4E51;font-size:8.97px;font-style:NORMAL;font-weight:normal;">&lt;</text>
  <text x="373.833,376.254,381.204,386.153,391.103,393.246,395.667,399.061,405.033,409.605,413.9,418.661,420.248,422.85699999999997,426.273,431.222,433.464,436.817,439.615,444.188,448.76,453.333,454.92,459.027,463.6,466.39700000000005,469.811,474.761,479.89,484.462,487.26,491.833,494.442,496.029,500.79,505.73900000000003,509.155,513.728,518.489,523.061,525.859,530.432,535.005,537.614,542.187,544.984,546.571,550.866,553.475,555.062,559.635,563.068,567.641,572.402,575.2,579.306" y="328.825" svg_rhmargin="583.879" style="fill:#171615;font-family:BEHJNB+AdvOT6e5d2ec0;font-size:8.97px;font-style:NORMAL;font-weight:normal;">.001). Result of receiver operating characteristic curve</text>
  <text svg_rhmargin="551.514" x="91.275,93.418,99.389,106.016,112.265,114.408,116.389,120.961,125.723,130.295,131.882,135.989,140.284,141.871,146.166,148.136,153.085,157.846,159.814,162.423,167.185,171.758,173.704,175.291,180.24,181.827,186.589,189.198,191.221,195.794,200.744,205.505,208.114,210.911,212.498,217.627,222.388,224.997,226.584,231.534,236.295,238.275,243.224,245.46599999999998,247.402,254.773,259.534,261.121,263.73,265.317,270.446,272.033,276.606,278.583,281.38,282.967,287.262,291.745,296.04,298.028,299.615,304.376,309.505,311.092,315.665,320.238,322.847,327.42,332.54900000000004,334.537,337.146,341.907,346.48,349.089,351.091,356.695,362.299,364.243,370.869,375.442,379.737,381.704,386.654,391.603,394.024,398.973,403.923,408.872,410.844,413.453,415.04,422.41,426.983,431.278,433.294,434.881,436.468,440.951,445.524,447.111,451.217,453.136,455.745,460.694,462.66,467.609,472.182,476.755,481.516,484.31300000000005,486.301,492.927,497.688,502.261,507.02200000000005,509.034,513.607,517.901,523.03,527.98,532.274,536.847,541.976,543.956,546.565,551.514" y="339.766" style="fill:#171615;font-family:BEHJNB+AdvOT6e5d2ec0;font-size:8.97px;font-style:NORMAL;font-weight:normal;">(ROC) analysis on the joint contribution of multiple risks indicated that AA was 13.835 times likely to occur when exposed to </text>
  <text x="553.494" y="339.766" svg_rhmargin="559.564" style="fill:#171615;font-family:BEHJNC+AdvOTb0c9bf5d+22;font-size:8.97px;font-style:NORMAL;font-weight:normal;">≥</text>
  <text x="559.56,564.5089999999999,566.476,569.274,570.861,575.156,579.639" y="339.766" svg_rhmargin="583.934" style="fill:#171615;font-family:BEHJNB+AdvOT6e5d2ec0;font-size:8.97px;font-style:NORMAL;font-weight:normal;">1 risks</text>
  <text x="91.275,93.884,98.645,103.218,107.979,110.947,113.556,118.317,123.267,127.562,132.135,135.154,139.727,144.022,149.151,154.1,158.395,162.968,168.09699999999998,171.097,173.706,178.655,181.641,186.59,189.578,192.375,193.962,198.257,202.74,207.035,210.043,212.186,217.136,222.085,230.02,233.003,239.253,241.208,243.629,246.666,251.616,254.037,258.986,263.935" y="350.708" svg_rhmargin="268.884" style="fill:#171615;font-family:BEHJNB+AdvOT6e5d2ec0;font-size:8.97px;font-style:NORMAL;font-weight:normal;">than those exposed to 0 risks (95% CI: 9.995</text>
  <text x="268.895" y="350.708" svg_rhmargin="273.378" style="fill:#171615;font-family:BEHJNH+AdvOT6e5d2ec0+20;font-size:8.97px;font-style:NORMAL;font-weight:normal;">–</text>
  <text x="273.373,278.323,283.272,285.693,290.642,295.592,300.541,302.684" y="350.708" svg_rhmargin="305.105" style="fill:#171615;font-family:BEHJNB+AdvOT6e5d2ec0;font-size:8.97px;font-style:NORMAL;font-weight:normal;">19.149).</text>
  <text x="100.232,106.858,111.619,114.416,117.069,121.364,123.973,128.734,133.863,137.969,140.596,143.393,147.966,152.261,157.022,158.609,161.218,165.51299999999998,168.148,173.276,177.849,185.219,190.169,194.93,199.225,201.834,204.631,209.204,211.813,216.386,221.515,224.215,228.788,231.415,235.987,240.937,248.307,253.436,256.233,260.806,265.567,270.14,274.901,279.196,280.783,284.89,289.46299999999997,292.073,296.646,301.775,303.362,308.491,313.064,320.434,322.021,326.97,328.557,333.507,338.456,340.043,344.616,349.189,350.776,353.469,358.598,363.171,365.78,368.389,372.962,375.76,380.521,382.942,385.614,387.201,391.96200000000005,394.571,401.197,405.958,407.545,412.118,416.879,419.515,422.124,426.885,431.45799999999997,434.084,435.672,440.621,442.208,446.969,449.578,452.226,456.799,461.748,466.509,469.118,471.916,473.503,478.632,483.393,486.002,487.589,492.538,497.3,501.595,504.212,509.161,511.403,514.019,515.606,520.367,525.496,527.083,531.19,532.777,537.905,542.666,547.239,548.826,551.492,553.079,557.84,562.601,567.174,569.971,571.559,574.168,578.741" y="361.649" svg_rhmargin="583.87" style="fill:#171615;font-family:BEHJNB+AdvOT6e5d2ec0;font-size:8.97px;font-style:NORMAL;font-weight:normal;">Our study results demonstrated a comprehensive epidemiological pattern, in which the joint contributions of individual inherited</text>
  <text x="91.275,96.036,100.609,105.182,106.769,109.378,114.139,117.127,121.421,124.031,128.603,131.213,135.974,140.269,142.69,145.699,150.271,155.033,159.139,160.726,163.524,168.473,173.234,180.604,185.177,189.938,192.547,195.586,200.159,204.454,209.583,214.532,218.827,223.588,226.385,230.958,233.379,236.404,240.976,245.737,250.86599999999999,253.864,255.452,260.213,265.341,266.928,271.035,272.622,277.751,282.512,287.085,288.67199999999997,291.677,296.806,301.379,306.14,310.713,314.819,316.406,321.356,324.153,328.44800000000004,331.418,333.005,337.577,342.15,347.279,350.296,352.905,357.854,360.841,363.45,368.211,372.784,375.807,380.756,385.329,389.902,394.663,397.461,400.258,404.831,409.592,414.165,418.738,421.727,426.676,428.918,431.932,437.536,443.14" y="372.647" svg_rhmargin="445.561" style="fill:#171615;font-family:BEHJNB+AdvOT6e5d2ec0;font-size:8.97px;font-style:NORMAL;font-weight:normal;">health status, environment exposure, and individual behaviors lead to the occurrence of AA.</text>
  <text svg_rhmargin="159.934" x="91.276,97.915,104.052,110.189,114.254,120.131,125.439,127.758,133.648,137.131,139.451,145.588,151.478,157.033,159.934" y="387.843" style="fill:#171615;font-family:BEHJND+AdvOT91f5f621.B;font-size:7.97px;font-style:NORMAL;font-weight:normal;">Abbreviations: </text>
  <text svg_rhmargin="174.257" x="163.049,168.653,174.257" y="387.843" style="fill:#171615;font-family:BEHJNB+AdvOT6e5d2ec0;font-size:8.97px;font-style:NORMAL;font-weight:normal;">AA </text>
  <text svg_rhmargin="182.045" x="175.975,182.045" y="387.843" style="fill:#171615;font-family:BEHJNF+AdvOTb0c9bf5d;font-size:8.97px;font-style:NORMAL;font-weight:normal;">= </text>
  <text svg_rhmargin="263.593" x="183.799,188.371,193.5,195.087,199.66,203.955,206.564,208.151,212.72400000000002,214.469,219.042,223.803,228.375,235.746,237.333,241.906,244.327,246.045,251.273,257.343,263.59200000000004" y="387.843" style="fill:#171615;font-family:BEHJNB+AdvOT6e5d2ec0;font-size:8.97px;font-style:NORMAL;font-weight:normal;">aplastic anemia, EDC </text>
  <text svg_rhmargin="271.45" x="265.38,271.45" y="387.843" style="fill:#171615;font-family:BEHJNF+AdvOTb0c9bf5d;font-size:8.97px;font-style:NORMAL;font-weight:normal;">= </text>
  <text svg_rhmargin="392.842" x="273.147,277.72,279.307,283.88,288.452,291.062,293.859,298.808,303.57,305.157,309.72999999999996,311.527,316.656,321.229,323.838,328.411,330.122,334.695,339.268,344.397,347.006,351.767,354.564,359.137,361.558,363.343,369.969,375.573,380.523,387.893,392.842" y="387.843" style="fill:#171615;font-family:BEHJNB+AdvOT6e5d2ec0;font-size:8.97px;font-style:NORMAL;font-weight:normal;">electronic data capture, GSTM1 </text>
  <text svg_rhmargin="400.654" x="394.584,400.654" y="387.843" style="fill:#171615;font-family:BEHJNF+AdvOTb0c9bf5d;font-size:8.97px;font-style:NORMAL;font-weight:normal;">= </text>
  <text svg_rhmargin="534.172" x="402.408,407.357,408.944,413.705,416.315,420.887,423.497,428.258,429.845,434.794,439.555,444.128,445.89,451.494,454.758,457.367,460.164,464.737,469.498,473.793,476.035,480.607,483.405,487.978,492.273,496.846,498.556,505.926,510.687,512.446,517.395,519.816,521.574,528.2,534.171" y="387.843" style="fill:#171615;font-family:BEHJNB+AdvOT6e5d2ec0;font-size:8.97px;font-style:NORMAL;font-weight:normal;">glutathione S-transferase Mu 1, OR </text>
  <text svg_rhmargin="541.99" x="535.92,541.99" y="387.843" style="fill:#171615;font-family:BEHJNF+AdvOTb0c9bf5d;font-size:8.97px;font-style:NORMAL;font-weight:normal;">= </text>
  <text x="543.744,548.694,553.823,558.951,563.246,564.947,567.745,572.317,574.927,576.514,581.463" y="387.843" svg_rhmargin="583.884" style="fill:#171615;font-family:BEHJNB+AdvOT6e5d2ec0;font-size:8.97px;font-style:NORMAL;font-weight:normal;">odds ratio,</text>
  <text svg_rhmargin="110.124" x="91.276,97.248,103.874,110.12299999999999" y="397.82" style="fill:#171615;font-family:BEHJNB+AdvOT6e5d2ec0;font-size:8.97px;font-style:NORMAL;font-weight:normal;">ROC </text>
  <text svg_rhmargin="119.173" x="113.103,119.173" y="397.82" style="fill:#171615;font-family:BEHJNF+AdvOTb0c9bf5d;font-size:8.97px;font-style:NORMAL;font-weight:normal;">= </text>
  <text svg_rhmargin="290.506" x="122.174,124.972,129.544,134.117,138.69,140.277,144.384,148.956,151.753,154.771,159.721,164.849,169.422,172.22,176.792,179.402,180.989,185.75,190.699,193.718,198.291,203.052,207.625,210.422,214.995,219.568,222.177,226.75,229.547,231.134,235.429,238.038,239.626,244.199,247.234,251.807,256.568,259.366,263.472,268.045,270.466,273.426,279.03,285.279,290.506" y="397.82" style="fill:#171615;font-family:BEHJNB+AdvOT6e5d2ec0;font-size:8.97px;font-style:NORMAL;font-weight:normal;">receiver operating characteristic curve, SCE </text>
  <text svg_rhmargin="299.628" x="293.558,299.628" y="397.82" style="fill:#171615;font-family:BEHJNF+AdvOTb0c9bf5d;font-size:8.97px;font-style:NORMAL;font-weight:normal;">= </text>
  <text svg_rhmargin="432.003" x="302.572,306.866,308.453,312.748,315.358,319.93,322.72700000000003,325.758,330.331,335.092,337.89,342.839,350.21,354.782,357.392,358.979,364.108,367.143,371.716,376.011,380.584,385.345,389.918,394.679,399.628,404.201,406.622,409.605,414.832,421.458,427.708,432.00300000000004" y="397.82" style="fill:#171615;font-family:BEHJNB+AdvOT6e5d2ec0;font-size:8.97px;font-style:NORMAL;font-weight:normal;">sister chromatid exchange, VOCs </text>
  <text svg_rhmargin="441.077" x="435.007,441.077" y="397.82" style="fill:#171615;font-family:BEHJNF+AdvOTb0c9bf5d;font-size:8.97px;font-style:NORMAL;font-weight:normal;">= </text>
  <text x="444.078,448.184,453.134,454.721,459.294,461.903,463.49,465.077,469.65,472.65,477.599,480.397,485.346,489.919,494.68,496.267,500.84,503.83,508.403,513.352,520.723,525.851,530.801,535.562,540.323,545.452,549.747" y="397.82" svg_rhmargin="552.168" style="fill:#171615;font-family:BEHJNB+AdvOT6e5d2ec0;font-size:8.97px;font-style:NORMAL;font-weight:normal;">volatile organic compounds.</text>
  <text svg_rhmargin="142.36" x="91.276,98.162,104.14,109.28,117.665,123.702,127.767,133.904,139.459,142.36" y="412.788" style="fill:#171615;font-family:BEHJND+AdvOT91f5f621.B;font-size:7.97px;font-style:NORMAL;font-weight:normal;">Keywords: </text>
  <text svg_rhmargin="324.535" x="145.02,149.593,154.722,156.309,160.882,165.177,167.786,169.373,173.946,176.938,181.511,186.272,190.844,198.215,199.802,204.375,206.796,209.819,214.392,218.965,223.259,227.832,231.096,235.669,240.618,245.379,247.989,250.786,255.735,257.322,260.331,264.625,267.235,271.996,277.125,281.231,283.652,286.635,289.433,291.02,295.314,299.797,302.792,305.034,309.607,314.18,316.789,321.738,324.535" y="472.825" style="fill:#171615;font-family:BEHJNB+AdvOT6e5d2ec0;font-size:8.97px;font-style:NORMAL;font-weight:normal;">aplastic anemia, case-control study, risk factor </text>
  <text x="345.09,351.005,353.95799999999997,358.639,361.592,367.508,371.151,375.089,380.805,386.721,392.636,398.154,401.798,404.552,410.269" y="472.825" svg_rhmargin="416.184" style="fill:#171615;font-family:BEHJLP+AdvOTfbba3ace.B;font-size:9.46px;font-style:NORMAL;font-weight:normal;">1. Introduction</text>
  <text x="345.09,351.326,356.144,358.41,362.738,366.035,368.767,371.033,374.951,379.31,383.638,388.432,392.195,399.41,401.676,406.159,410.577,413.309,419.592,425.874,428.761,433.188,435.454,438.906,443.278,447.761,452.179,456.998,461.792,466.587,470.505,474.921,482.121,486.449,489.746,493.043,497.837,504.741,509.176,513.938,518.266,523.06,527.854,532.648,534.914,539.242,542.539,544.805,549.2879999999999,553.706,556.994,561.322,566.116,570.91,574.207,579.001,586.217" y="488.756" svg_rhmargin="590.135" style="fill:#171615;font-family:BEHJOI+AdvOTbc475f09;font-size:8.97px;font-style:NORMAL;font-weight:normal;">Aplastic anemia (AA) is a bone marrow hypoplasia syndrome</text>
  <text x="345.09,348.383,352.143,355.436,360.227,362.489,365.217,367.479,372.27,376.753,378.506,380.774,385.723,387.464,392.226,395.985,399.745,403.038,406.798,411.122,414.415,418.333,420.085,422.352,427.301,428.986,435.732,440.523,442.785,445.513,449.431,451.183,455.973,458.235,463.026,467.817,472.766,474.507,478.262,482.027,484.296,486.564,489.864,492.28499999999997,494.003,498.822,502.588,509.806,514.603,518.934,521.202,525.999,530.796,533.065,537.862,540.283,542.0,546.331,551.128,556.077,557.818,562.58,564.849,569.179,571.914,575.68,577.948,581.714,584.449,587.749" y="499.698" svg_rhmargin="590.17" style="fill:#171615;font-family:BEHJOI+AdvOTbc475f09;font-size:8.97px;font-style:NORMAL;font-weight:normal;">resulting in decrease in white blood cells, hemoglobin, and platelets,</text>
  <text x="345.09,349.418,354.212,359.161,360.902,363.169,365.901,369.353,371.061,374.824,377.09,379.355,384.15,386.415,390.178,394.507,396.928,398.702,401.999,406.327,413.542,418.336,421.068,425.863,433.078,436.53,438.293,440.559,445.353,449.117,451.382,456.177,460.971,464.889,466.64,470.949,475.727,479.525,486.724,488.974,493.286,495.707,497.481,502.259,504.509,508.307,512.048,516.867,519.134,523.913,528.224,530.6450000000001,532.42,536.728,541.547,546.496,548.236,550.486,555.305,558.021,561.768,565.566,568.288,570.537,575.315,580.134" y="510.696" svg_rhmargin="582.555" style="fill:#171615;font-family:BEHJOI+AdvOTbc475f09;font-size:8.97px;font-style:NORMAL;font-weight:normal;">and its clinical symptoms include anemia, bleeding, and infection.</text>
  <text x="582.406,584.391,587.962" y="506.671" svg_rhmargin="590.127" style="fill:#171615;font-family:BEHJOI+AdvOTbc475f09;font-size:5.98px;font-style:NORMAL;font-weight:normal;">[1]</text>
  <text x="345.09,349.41,353.165,357.485,361.283,364.572,368.49,370.411,376.686,383.12399999999997,385.02,389.807,394.126,397.578,399.513,403.996,405.863,410.649,412.906,417.226,422.175,424.029,431.286,436.048,439.336,442.114,446.434,448.692,450.95,453.674,458.157,460.08,463.368,467.688,470.412,474.21,476.631,478.518,487.322,492.108,494.365,496.623,500.541,502.406,507.192,511.978,516.764,519.488,522.777,526.575,530.895,534.65,537.939,541.857,543.779,550.053,556.491,558.387,563.174,567.539,570.991,572.869,576.157,578.414,583.201" y="521.6379999999999" svg_rhmargin="590.105" style="fill:#171615;font-family:BEHJOI+AdvOTbc475f09;font-size:8.97px;font-style:NORMAL;font-weight:normal;">Severe AA has a high mortality rate. While non-severe AA has slow</text>
  <text x="345.09,349.852,353.14,357.958,362.266,365.554,369.296,372.748,376.2,380.635,385.001,389.763,394.712,399.291,401.559,406.378,411.14,415.623,420.202,423.944,428.762,433.524,436.976,440.158,443.899,446.32,450.929,455.237,460.056,465.005,469.584,472.872,477.634,484.89,488.808,493.388,497.129,501.438,505.236,510.185,514.764,519.526,523.325,527.066,532.015,536.595,539.316,542.768,546.97,551.732,555.02,557.797,562.559,565.847,568.115,572.934,577.8829999999999,582.458,585.18" y="532.579" svg_rhmargin="590.129" style="fill:#171615;font-family:BEHJOI+AdvOTbc475f09;font-size:8.97px;font-style:NORMAL;font-weight:normal;">progress and long course, and some even need transfusion to</text>
  <text x="345.09,352.298,356.619,358.877,363.664,366.389,370.71,372.969,377.918,379.602,382.327,385.616,389.415,393.723,396.448,403.656,407.454,412.216,414.994,417.415,419.074,425.826,430.623,432.891,436.657,441.606,443.234,447.032,451.829,456.626,458.894,463.843,465.471,470.268,474.599,479.396,481.664,486.147,487.787,490.055" y="543.521" svg_rhmargin="495.004" style="fill:#171615;font-family:BEHJOI+AdvOTbc475f09;font-size:8.97px;font-style:NORMAL;font-weight:normal;">maintain treatment, which could badly in</text>
  <text x="494.873" y="543.521" svg_rhmargin="499.822" style="fill:#171615;font-family:BEHJOJ+AdvOTbc475f09+fb;font-size:8.97px;font-style:NORMAL;font-weight:normal;">ﬂ</text>
  <text x="499.635,504.445,508.187,512.997,516.739,520.657,522.352,527.114,531.458,534.206,536.488,540.23,544.992,547.769" y="543.521" svg_rhmargin="551.221" style="fill:#171615;font-family:BEHJOI+AdvOTbc475f09;font-size:8.97px;font-style:NORMAL;font-weight:normal;">uence patients</text>
  <text svg_rhmargin="553.476" x="551.055,553.476" y="543.521" style="fill:#171615;font-family:BEHJOK+AdvOTbc475f09+20;font-size:8.97px;font-style:NORMAL;font-weight:normal;">’ </text>
  <text x="555.138,559.936,564.733,569.065,571.334,573.604,576.339,580.822,582.462,587.224" y="543.521" svg_rhmargin="590.111" style="fill:#171615;font-family:BEHJOI+AdvOTbc475f09;font-size:8.97px;font-style:NORMAL;font-weight:normal;">quality of</text>
  <text x="345.09,347.35,349.61,352.337,356.095,358.516,360.234,366.511,369.398,371.104,375.892,379.184,382.942,386.233,389.991,394.78,397.507,399.928,401.646,404.372,409.161,413.079,414.717,421.973,426.296,428.556,433.505,435.189,437.911,442.7,446.457,449.749,454.072,458.86,461.121,464.879,468.331,470.038,472.298,477.087,480.845,483.105,487.894,492.683,496.601,498.239,500.506,507.763,514.963,519.752,524.54,528.298,531.076,534.367,539.156,543.945,548.734,552.026,555.783,559.075,562.366,564.627,569.416,574.365,575.992,580.358,585.12" y="554.519" svg_rhmargin="590.069" style="fill:#171615;font-family:BEHJOI+AdvOTbc475f09;font-size:8.97px;font-style:NORMAL;font-weight:normal;">life. At present, the main therapies include immune-suppression and</text>
  <text x="345.09,349.401,351.649,353.898,358.675,363.041,366.783,371.56,375.358,377.607,381.52500000000003,382.823,387.6,391.398,398.596,402.907,405.622,410.441,415.219,420.038,422.287,426.033,428.811,431.078,434.996,436.294,439.582,442.297,446.043,454.717,458.515,462.261,464.51,466.931,468.252,470.973,474.253,478.564,483.382,486.67,491.448,493.696,498.062,502.824,505.539,509.905,512.62,514.868,519.646,524.464,526.8850000000001,528.206,532.968,537.4509999999999,538.75,545.496,550.315,552.582,556.328,561.2769999999999,562.564,567.384,572.146,582.407,585.128" y="565.461" svg_rhmargin="590.077" style="fill:#171615;font-family:BEHJOI+AdvOTbc475f09;font-size:8.97px;font-style:NORMAL;font-weight:normal;">allogeneic hematopoietic stemcell transplantation, by which 60%to</text>
  <text x="345.09,349.867,354.685,363.651,365.514,370.333,374.644,377.359,379.607,383.405,388.183,390.898" y="576.402" svg_rhmargin="394.35" style="fill:#171615;font-family:BEHJOI+AdvOTbc475f09;font-size:8.97px;font-style:NORMAL;font-weight:normal;">80% patients</text>
  <text svg_rhmargin="396.664" x="394.243,396.664" y="576.402" style="fill:#171615;font-family:BEHJOK+AdvOTbc475f09+20;font-size:8.97px;font-style:NORMAL;font-weight:normal;">’ </text>
  <text x="398.551,402.313,407.105,411.898,416.69,418.954,421.684,423.948,428.741,433.69,435.601,439.342,444.135,448.927,451.191,456.14,458.051,462.844,466.762,468.626,470.89,478.104,482.896,486.191,490.984,495.31,499.071,504.02000000000004,505.931,510.724,514.176,516.11,519.871,524.664,528.116,531.751,536.543" y="576.402" svg_rhmargin="538.964" style="fill:#171615;font-family:BEHJOI+AdvOTbc475f09;font-size:8.97px;font-style:NORMAL;font-weight:normal;">condition could be improved or cured.</text>
  <text svg_rhmargin="551.802" x="538.809,540.842,544.422,546.066,549.637,551.8019999999999" y="576.403" style="fill:#171615;font-family:BEHJOI+AdvOTbc475f09;font-size:5.98px;font-style:NORMAL;font-weight:normal;">[2,3] </text>
  <text x="553.72,561.027,565.815,572.719,576.36,580.681,584.438,587.729" y="576.403" svg_rhmargin="590.15" style="fill:#171615;font-family:BEHJOI+AdvOTbc475f09;font-size:8.97px;font-style:NORMAL;font-weight:normal;">However,</text>
  <text x="345.089,347.81,352.572,356.352,359.666,363.584,368.511,371.289,376.051,379.849,383.163,387.471,392.233,394.5,398.281,401.733,406.671,411.483,415.791,420.74,425.712,430.02,434.782,439.148,442.89,446.204,449.518,453.436,458.418,462.16,464.938,467.659,471.401,475.181,478.068,483.005,487.313,492.132,497.081,502.053,508.799,512.541,515.829,519.747,524.729,528.471,533.282,538.044,541.825,546.587,549.901,552.184,556.529,560.27,562.691,567.641,574.387,579.198,581.481,585.223" y="587.4010000000001" svg_rhmargin="590.172" style="fill:#171615;font-family:BEHJOI+AdvOTbc475f09;font-size:8.97px;font-style:NORMAL;font-weight:normal;">these therapies had adverse effect and were expensive, which</text>
  <text x="345.089,347.337,352.113,355.858,359.31,362.944,367.253,370.532,374.33,379.279,380.622,383.4,388.176,392.094,393.506,398.282,403.101,406.38,411.198,414.944,419.89300000000003,421.293,426.07,428.957,430.378,433.092,437.911,441.656,443.904,447.356,448.723,451.501,455.811,463.008,465.256,467.504,471.987,473.4,477.71,482.529,487.478,488.821,491.599,496.375,500.293,501.705,504.984,509.76,513.558,515.826,519.571,522.285,526.651,529.072,530.449,536.158,540.934,544.852,546.263,550.571,554.37,557.091,561.867,566.233,568.654,570.031,573.773,578.139,582.901,586.18" y="598.343" svg_rhmargin="590.098" style="fill:#171615;font-family:BEHJOI+AdvOTbc475f09;font-size:8.97px;font-style:NORMAL;font-weight:normal;">increased the burden of their family and the society. The actual cause</text>
  <text x="345.089,349.877,352.764,354.412,360.689,367.127,368.739,370.999,374.451,376.102,379.392,382.118,384.378,386.637,389.058,390.719,395.507,400.295,404.051,406.311,410.068,414.39,417.68,420.101,421.762,428.038,430.925,432.573,437.361,440.652,444.409,447.699,451.456,456.244,458.97,461.391,463.051,465.777,470.565,474.483,476.121,480.883,485.671,490.459,497.201,502.15000000000003,503.778,507.23,509.39,512.681,517.469,520.921,522.572,526.313,530.679,535.441,538.732,540.991,545.779,550.262,551.846,556.634,560.956,568.212,572.534,576.856,580.774,582.412,585.138" y="609.284" svg_rhmargin="590.087" style="fill:#171615;font-family:BEHJOI+AdvOTbc475f09;font-size:8.97px;font-style:NORMAL;font-weight:normal;">of AA is still unclear. At present, the known risks causing damage to</text>
  <text x="345.089,349.867,353.614,360.871,365.179,367.895,372.713,377.491,382.311,384.56,388.307,391.023,393.273,397.19100000000003,399.906,403.194,407.56,410.848,413.564,417.311,424.681,427.402,432.221,435.108,437.776,442.595,447.373,452.192,456.11,458.769,466.025,470.337,473.618,476.899,481.717,488.621,491.299,493.566,498.385,502.126,504.376,509.195,513.974,517.892,520.607,525.385,530.203,534.515,537.796,540.046,543.844,548.156,550.405,552.826,555.508,559.306,564.084,567.882,575.081,577.331,581.078,585.444,587.693" y="620.282" svg_rhmargin="590.114" style="fill:#171615;font-family:BEHJOI+AdvOTbc475f09;font-size:8.97px;font-style:NORMAL;font-weight:normal;">hematopoietic system of bone marrow include physical, chemical,</text>
  <text x="345.089,349.409,354.195,359.144,360.715,365.533,367.791,372.577,374.835,379.621,383.941,386.199,389.997,394.305,396.726,398.33,403.092,407.878,411.634,414.922,417.343,418.947,423.734,427.186,428.779,431.503,436.289,440.044,442.302,445.754,447.347,451.089,455.875,463.082,470.339,475.101,480.05,481.62,485.418,488.142,490.866,494.621,498.419,501.141,504.43" y="631.2239999999999" svg_rhmargin="506.851" style="fill:#171615;font-family:BEHJOI+AdvOTbc475f09;font-size:8.97px;font-style:NORMAL;font-weight:normal;">and biological ones, or their common effects.</text>
  <text svg_rhmargin="514.498" x="506.721,508.754,512.333,514.4979999999999" y="631.225" style="fill:#171615;font-family:BEHJOI+AdvOTbc475f09;font-size:5.98px;font-style:NORMAL;font-weight:normal;">[4] </text>
  <text x="516.076,521.818,526.579,530.358,533.67,537.412,540.133,544.942,548.255,551.996,554.417,556.021,560.831,565.593,569.045,570.638,573.359,578.169,581.91,586.72" y="631.225" svg_rhmargin="590.172" style="fill:#171615;font-family:BEHJOI+AdvOTbc475f09;font-size:8.97px;font-style:NORMAL;font-weight:normal;">Therefore, our focus</text>
  <text x="345.089,347.359,350.811,352.121,356.92,361.869,363.213,365.483,370.282,374.049,378.848,381.585,383.855,386.591,390.924,393.194,397.993,402.476,403.833,408.595,413.393,416.13,419.898,424.696,427.433,429.703,434.036,436.457,437.777,441.545,444.281,446.552,451.35,453.621,458.419,462.752,464.995,468.794,473.102,475.52299999999997,476.9,480.188,482.437,485.717,490.494,493.946,495.313,498.091,502.853,507.164,510.051,511.416,518.148,522.967,527.744,529.993,534.942,536.343,541.105,544.903,547.17,552.1189999999999,553.463,556.184,561.1329999999999,562.477,567.296,570.576,574.322,578.688,582.429,587.207" y="642.167" svg_rhmargin="590.094" style="fill:#171615;font-family:BEHJOI+AdvOTbc475f09;font-size:8.97px;font-style:NORMAL;font-weight:normal;">is on identifying potential etiological risks that would help to prevent</text>
  <text x="345.089,351.342,357.78,360.356,362.624,367.57300000000004,370.107,372.809,377.574,381.492,384.037,386.758,391.577,394.298,399.117,402.405,406.139" y="653.108" svg_rhmargin="408.56" style="fill:#171615;font-family:BEHJOI+AdvOTbc475f09;font-size:8.97px;font-style:NORMAL;font-weight:normal;">AA in the future.</text>
  <text x="354.046,363.013,367.962,371.414,374.301,376.043,380.992,383.879,385.623,389.541,394.491,396.912,401.861,405.779,413.15,415.57,420.52,422.941,427.89,432.373,434.794,438.712,440.499,443.952,448.901,452.353,456.836,460.754,465.238,468.69,470.433,475.382,480.331,482.055,488.493,494.931,496.681,503.586,507.504,510.956,514.874,516.637,520.555,525.505,530.454,535.403,540.353,544.271,547.158,551.076,556.025,557.795,560.216,565.165,566.865,571.815,576.764,581.713,586.663" y="664.106" svg_rhmargin="590.115" style="fill:#171615;font-family:BEHJOI+AdvOTbc475f09;font-size:8.97px;font-style:NORMAL;font-weight:normal;">Most of epidemiologic surveys on AA were conducted in 1980s</text>
  <text x="345.089,347.51,352.459,354.783,361.221,366.171,368.592,373.541,378.024,380.445,382.845,389.283,391.69,394.111,398.594,402.046,406.529,410.447,412.778,417.728,422.211,425.098,427.519,432.468,437.418,441.901,444.322,446.736,450.188,455.138,458.59,463.073,466.991,471.474,473.895,476.272,483.176,488.126,490.547,494.465,499.414,501.783,508.687,513.17,516.622,519.017,521.438,528.809,533.758,536.179,540.097,547.467,551.386,556.335,559.222,563.141,568.0899999999999,570.493,572.914,577.8629999999999,580.244,585.193" y="675.048" svg_rhmargin="590.142" style="fill:#171615;font-family:BEHJOI+AdvOTbc475f09;font-size:8.97px;font-style:NORMAL;font-weight:normal;">in China. A large national survey, which was implemented in 21</text>
  <text x="345.089,350.038,353.49,358.44,362.923,365.344,370.293,374.212,378.13,381.582,384.942,389.892,392.779,396.111,402.549,407.498,409.919,414.868,419.351,422.699,427.648,431.566,434.453,441.358,445.276,449.194,454.14300000000003,457.507,462.456,467.406,472.355,477.30400000000003,480.637,485.12,490.07,495.019,498.381,503.331,508.28,513.23,518.179,520.6,523.949,527.401,531.319,536.269,541.218,544.67,547.557,551.475,556.424,559.777,562.664,567.614,572.097,574.9839999999999,578.372,581.26,586.209" y="685.99" svg_rhmargin="590.127" style="fill:#171615;font-family:BEHJOI+AdvOTbc475f09;font-size:8.97px;font-style:NORMAL;font-weight:normal;">provinces of China between 1986 and 1988, reported that the</text>
  <text x="345.089,347.51,352.459,356.378,358.799,363.748,367.666,372.616,376.534,380.452,382.789,386.241,390.724,393.611,397.529,399.91,404.859,407.746,410.058,416.496,422.93399999999997,425.308,432.212,436.695,440.147,442.486,447.435,449.856,454.805,457.226,462.176" y="696.988" svg_rhmargin="467.125" style="fill:#171615;font-family:BEHJOI+AdvOTbc475f09;font-size:8.97px;font-style:NORMAL;font-weight:normal;">incidence rate of AA was 7.4/10</text>
  <text x="467.15" y="692.9639999999999" svg_rhmargin="470.862" style="fill:#171615;font-family:BEHJOI+AdvOTbc475f09;font-size:5.98px;font-style:NORMAL;font-weight:normal;">6</text>
  <text x="470.835" y="696.989" svg_rhmargin="473.256" style="fill:#171615;font-family:BEHJOI+AdvOTbc475f09;font-size:8.97px;font-style:NORMAL;font-weight:normal;">.</text>
  <text svg_rhmargin="481.316" x="473.272,475.438,479.151,481.31600000000003" y="696.989" style="fill:#171615;font-family:BEHJOI+AdvOTbc475f09;font-size:5.98px;font-style:NORMAL;font-weight:normal;">[5] </text>
  <text x="483.704,491.173,496.122,503.026,506.944,511.428,515.346,518.798,521.219,523.557,526.444,531.394,535.312,537.674,540.095,545.044,548.962,551.383,556.333,560.251,565.2,569.119,573.037,575.373,578.826,583.309,586.196" y="696.989" svg_rhmargin="590.114" style="fill:#171615;font-family:BEHJOI+AdvOTbc475f09;font-size:8.97px;font-style:NORMAL;font-weight:normal;">However, the incidence rate</text>
  <text x="345.089,351.993,356.477,359.929,363.344,368.293,373.243,375.663,380.146,383.526,388.475,390.896,395.846,398.267,403.216" y="707.931" svg_rhmargin="408.165" style="fill:#171615;font-family:BEHJOI+AdvOTbc475f09;font-size:8.97px;font-style:NORMAL;font-weight:normal;">was only 3.7/10</text>
  <text svg_rhmargin="411.901" x="408.189,411.901" y="707.931" style="fill:#171615;font-family:BEHJOI+AdvOTbc475f09;font-size:5.98px;font-style:NORMAL;font-weight:normal;">6 </text>
  <text x="415.332,417.753,422.702,426.161,431.11,436.06,441.009,445.958,449.348,451.769,456.718,460.119,465.535,470.018,474.967,479.45,484.4,489.349,494.298" y="707.931" svg_rhmargin="496.719" style="fill:#171615;font-family:BEHJOI+AdvOTbc475f09;font-size:8.97px;font-style:NORMAL;font-weight:normal;">in 1991 in Bangkok,</text>
  <text svg_rhmargin="504.787" x="496.743,498.909,502.622,504.78700000000003" y="707.931" style="fill:#171615;font-family:BEHJOI+AdvOTbc475f09;font-size:5.98px;font-style:NORMAL;font-weight:normal;">[6] </text>
  <text x="508.252,515.156,520.105,522.526,526.444,531.3929999999999,534.783,541.687,546.17,549.622,553.094,558.043,562.993,567.476,569.897,574.846,579.796,583.248,585.669" y="707.931" svg_rhmargin="590.152" style="fill:#171615;font-family:BEHJOI+AdvOTbc475f09;font-size:8.97px;font-style:NORMAL;font-weight:normal;">which was obviously</text>
  <text x="345.089,347.51,352.46,359.364,363.282,366.734,370.034,372.921,377.87,382.353,387.302,390.556,393.443,398.392,402.875,405.762,409.094,411.514,416.463,419.752,426.19,431.139,433.56,438.509,442.992,445.413,448.664,454.08,457.998,461.45,463.871,468.821,472.739,476.191,478.61199999999997,481.942,484.829,489.779,493.697,497.022,499.443,504.393,508.311,510.732,515.681,519.6,524.549,528.467,532.385,535.686,538.107,543.0559999999999,546.344,551.294,554.746,559.229,564.178,568.096,572.014,575.313,582.218,586.701" y="718.872" svg_rhmargin="590.153" style="fill:#171615;font-family:BEHJOI+AdvOTbc475f09;font-size:8.97px;font-style:NORMAL;font-weight:normal;">lower than that in China. Besides, the incidence in France was</text>
  <path d="M85.039 174.393 L566.248 174.393 C579.404 174.368 590.159 185.078 590.115 198.261 L590.115 421.517 L85.039 421.517 M85.039 174.393 L566.248 174.393 L566.248 174.62 L85.265 174.62 M566.249 174.393 L569.991 174.677 C580.191 176.31 588.226 184.284 589.833 194.519 L590.117 198.261 L589.89 198.261 L589.606 194.576 C588.044 184.467 580.038 176.532 569.934 174.903 L566.249 174.62 M590.116 198.262 L590.116 421.519 L589.889 421.235 L589.889 198.262 M590.116 421.518 L85.039 421.518 L85.266 421.235 L589.889 421.235 M85.039 421.518 L85.039 174.394 L85.265 174.619 L85.265 421.235 M85.039 471.86 L330.122 471.86 L330.122 719.212 L85.039 719.212 " style="fill:none;stroke:#000000;stroke-width:1.0;"/>
  <path d=" M 85.03900146484375 328.4219970703125 L 330.06597900390625 328.4219970703125 L 330.06597900390625 327.9119873046875 L 85.03900146484375 327.9119873046875 L 84.81200408935547 328.0249938964844 L 84.81200408935547 328.3089904785156" style="fill:none;stroke:#000000;stroke-width:1.0;"/>
  <text x="85.039,89.029,93.019,94.254,96.284,100.134,102.311,104.194,106.585,111.446,115.15,119.14,122.844,125.02,127.05,128.284,130.682,135.543,137.42600000000002,139.752,144.474,148.032,151.373" y="480.082" svg_rhmargin="153.256" style="fill:#171615;font-family:BEHJNE+AdvOT1deab444.I;font-size:6.97px;font-style:NORMAL;font-weight:normal;">Editor: Undurti N. Das.</text>
  <text x="85.039,88.89,92.593,93.828,97.169,99.497,104.652,108.502,110.679,113.873,116.223,121.438,124.996,128.337,130.623,133.964,137.668,141.736,145.725,149.576,151.752,153.782,157.34,161.329,163.678,167.668,170.862,173.203,177.053,179.23,182.787,186.491,188.521,191.862,194.238,195.982,198.159,202.009,207.742,210.113,214.103,217.807,221.364,222.599,223.834,227.391,231.095,234.945,237.272,241.631,245.335,249.325,250.56,251.795,255.35199999999998,257.74,264.059,267.616,268.851,270.596,274.153,276.329,279.886,282.233,286.084,289.641,293.198,296.975,300.678,304.529,305.764,309.614,313.464" y="492.044" svg_rhmargin="316.658" style="fill:#171615;font-family:BEHJNE+AdvOT1deab444.I;font-size:6.97px;font-style:NORMAL;font-weight:normal;">This work was supported by grants from Zhejiang Public Welfare Technology</text>
  <text x="85.039,89.399,93.388,97.378,98.613,99.848,103.406,107.039,109.069,110.304,114.154,117.857,120.193,124.692,128.249,131.59,135.148,138.705,140.881,144.439,148.142,150.526,154.886,157.062,160.912,162.147,165.705,169.262,171.291,173.659,175.403,180.265,185.419,187.30200000000002,189.647,193.497,197.348,201.198,205.048,209.91,213.76,217.61,221.46,225.31,229.161,230.905,233.304,236.861,240.565,244.554,246.911,251.41,254.967,258.308,261.866,265.423,267.6,271.234,274.93699999999995,277.244,281.603,283.78,287.63,288.865,292.422,295.979,298.008,300.376,302.12,305.97" y="501.002" svg_rhmargin="308.146" style="fill:#171615;font-family:BEHJNE+AdvOT1deab444.I;font-size:6.97px;font-style:NORMAL;font-weight:normal;">Application Research Project (NO. 2014C33273) and Research Project for</text>
  <text x="85.039,89.399,91.575,95.133,98.69,100.72,101.955,105.512,109.069,111.461,116.183,119.74,122.935,126.492,127.727,131.578,135.567,141.301,144.858,148.654,150.683,153.02,156.87,158.614,160.9,165.762,169.319,171.349,172.584,176.435,180.138,183.696,184.93,187.322,191.172,193.349,196.906,200.896,202.131,204.161,205.396,209.322,213.026,216.583,217.817,220.151,225.013,228.716,229.952,233.655,237.213,240.554,244.111,246.459,252.339,255.896,259.886,261.2,264.758,265.993,269.697,273.254,275.601,280.1,283.657,286.999,290.556,294.113,296.29,299.847,303.54999999999995,305.935,310.58,314.137,317.478,321.036" y="509.96" svg_rhmargin="324.376" style="fill:#171615;font-family:BEHJNE+AdvOT1deab444.I;font-size:6.97px;font-style:NORMAL;font-weight:normal;">Practice Development of National Traditional Chinese Medicine Research Bases</text>
  <text x="85.039,86.784,91.645,96.799,98.682,101.028,104.878,108.728,112.578,116.428,121.29,125.14,128.99,130.735" y="518.9739999999999" svg_rhmargin="132.618" style="fill:#171615;font-family:BEHJNE+AdvOT1deab444.I;font-size:6.97px;font-style:NORMAL;font-weight:normal;">(NO. 2015H03).</text>
  <text x="85.039,88.89,92.593,96.15,98.477,102.034,105.738,107.768,111.472,115.322,117.584,120.925,123.253,126.957,130.514,133.709,137.266,139.582,143.285,147.135,149.503,153.06,156.91" y="530.9359999999999" svg_rhmargin="160.613" style="fill:#171615;font-family:BEHJNE+AdvOT1deab444.I;font-size:6.97px;font-style:NORMAL;font-weight:normal;">The authors have no con</text>
  <text x="160.611" y="530.9359999999999" svg_rhmargin="163.659" style="fill:#171615;font-family:BEHJOL+AdvOT1deab444.I+fb;font-size:6.97px;font-style:NORMAL;font-weight:normal;">ﬂ</text>
  <text x="163.672,164.907,168.463,170.493,173.834,176.201,180.05,181.794,184.081,185.315,189.018,191.047,194.681,196.857,200.414,203.754,205.783,208.117,210.146,213.99599999999998,216.337,220.326,221.56,224.9,228.457,229.691,233.541,236.881,240.438" y="530.9359999999999" svg_rhmargin="242.321" style="fill:#171615;font-family:BEHJNE+AdvOT1deab444.I;font-size:6.97px;font-style:NORMAL;font-weight:normal;">icts of interest to disclose.</text>
  <text svg_rhmargin="87.706" x="85.039,87.706" y="542.841" style="fill:#171615;font-family:BEHJNE+AdvOT1deab444.I;font-size:4.65px;font-style:NORMAL;font-weight:normal;">a </text>
  <text x="88.895,93.616,97.174,101.164,104.721,106.897,108.927,114.661,118.218,121.922,123.951,126.315,130.165,131.909,134.252,139.114,142.671,148.404,151.961,153.991,157.842,159.077,162.927,166.777,170.085,171.96800000000002,174.28,178.131,181.834,185.391,187.717,191.421,192.656,194.833,198.174,200.203,202.573,206.932" y="542.841" svg_rhmargin="208.675" style="fill:#171615;font-family:BEHJNE+AdvOT1deab444.I;font-size:6.97px;font-style:NORMAL;font-weight:normal;">Department of Hematology, The First Af</text>
  <text x="208.687" y="542.841" svg_rhmargin="211.735" style="fill:#171615;font-family:BEHJOL+AdvOT1deab444.I+fb;font-size:6.97px;font-style:NORMAL;font-weight:normal;">ﬁ</text>
  <text x="211.748,212.983,214.217,217.774,219.803,223.36,227.34900000000002,229.719,234.58,238.429,241.77,245.759,246.993,249.023,252.579,253.81300000000002,256.192,260.042,261.786,264.129,268.118,271.821,275.378,276.612,277.847,281.403,285.107,288.95700000000005,291.283,296.144,299.847,301.147,304.851,308.407,311.748" y="542.841" svg_rhmargin="315.305" style="fill:#171615;font-family:BEHJNE+AdvOT1deab444.I;font-size:6.97px;font-style:NORMAL;font-weight:normal;">liated Hospital of Zhejiang Chinese</text>
  <text svg_rhmargin="140.842" x="85.039,90.918,94.475,98.464,99.698,103.255,106.812,108.04599999999999,110.436,115.297,119.0,120.234,123.428,126.985,129.161,132.501,133.735,135.765,138.959,140.842" y="548.737" style="fill:#171615;font-family:BEHJNE+AdvOT1deab444.I;font-size:6.97px;font-style:NORMAL;font-weight:normal;">Medical University, </text>
  <text svg_rhmargin="146.255" x="143.263,146.255" y="551.855" style="fill:#171615;font-family:BEHJNE+AdvOT1deab444.I;font-size:4.65px;font-style:NORMAL;font-weight:normal;">b </text>
  <text x="147.402,152.123,155.681,159.671,163.228,165.404,167.434,173.168,176.725,180.429,182.458,184.879,188.729,190.473,192.816,197.678,201.235,206.968,210.526,212.556,216.406,217.641,221.491,225.341,228.536,230.419,232.788,236.276,237.511,241.214,244.978,248.682,252.23899999999998,254.56,258.919,262.476,266.326,270.316,271.551" y="551.855" svg_rhmargin="275.108" style="fill:#171615;font-family:BEHJNE+AdvOT1deab444.I;font-size:6.97px;font-style:NORMAL;font-weight:normal;">Department of Hematology, Jinhua People</text>
  <text x="275.131" y="551.855" svg_rhmargin="277.014" style="fill:#171615;font-family:BEHJOM+AdvOT1deab444.I+20;font-size:6.97px;font-style:NORMAL;font-weight:normal;">’</text>
  <text x="277.002,280.343,282.728,287.589,291.438,294.779,298.768,300.002,302.032,305.588,306.823" y="551.855" svg_rhmargin="308.706" style="fill:#171615;font-family:BEHJNE+AdvOT1deab444.I;font-size:6.97px;font-style:NORMAL;font-weight:normal;">s Hospital,</text>
  <text svg_rhmargin="106.314" x="85.04,88.527,89.762,93.466,97.17,100.874,104.431,106.314" y="557.6949999999999" style="fill:#171615;font-family:BEHJNE+AdvOT1deab444.I;font-size:6.97px;font-style:NORMAL;font-weight:normal;">Jinhua, </text>
  <text svg_rhmargin="111.347" x="108.68,111.34700000000001" y="560.813" style="fill:#171615;font-family:BEHJNE+AdvOT1deab444.I;font-size:4.65px;font-style:NORMAL;font-weight:normal;">c </text>
  <text x="112.535,117.257,120.815,124.804,128.362,130.538,132.568,138.301,141.859,145.563,147.59199999999998,149.955,153.806,155.55,157.893,162.754,166.312,172.124,175.681,177.711,181.561,182.796,186.647,190.497,193.692,195.57500000000002,197.922,201.626,202.861,206.202,209.906,213.609,214.84300000000002,217.2,222.061,223.296,225.326,228.51999999999998,230.864,235.223,238.781,242.631,246.621,247.93" y="560.813" svg_rhmargin="251.487" style="fill:#171615;font-family:BEHJNE+AdvOT1deab444.I;font-size:6.97px;font-style:NORMAL;font-weight:normal;">Department of Hematology, Lishui City People</text>
  <text x="251.433" y="560.813" svg_rhmargin="253.316" style="fill:#171615;font-family:BEHJOM+AdvOT1deab444.I+20;font-size:6.97px;font-style:NORMAL;font-weight:normal;">’</text>
  <text x="253.361,256.702,259.03,263.891,267.74,271.081,275.07,276.304,278.333,281.89,283.124,285.007,287.374,291.077,292.312,295.652,299.355,303.058,304.293" y="560.813" svg_rhmargin="306.176" style="fill:#171615;font-family:BEHJNE+AdvOT1deab444.I;font-size:6.97px;font-style:NORMAL;font-weight:normal;">s Hospital, Lishui,</text>
  <text svg_rhmargin="88.031" x="85.039,88.031" y="569.77" style="fill:#171615;font-family:BEHJNE+AdvOT1deab444.I;font-size:4.65px;font-style:NORMAL;font-weight:normal;">d </text>
  <text x="89.178,93.9,97.457,101.447,105.004,107.264,109.295,115.028,118.585,122.289,124.318,126.654,130.505,132.249,134.592,139.453,143.011,148.744,152.301,154.331,158.182,159.417,163.267,167.117,170.312,172.19500000000002,174.621,178.471,182.175,185.732,188.058,192.417,195.975,199.532,203.382,207.086,211.07500000000002,213.458,218.319,222.17,225.511,229.501,230.736,232.766,236.323,237.55700000000002,239.936,243.786,245.53,247.874,251.361,252.596,256.154,259.348,260.583,264.287,268.138,270.02099999999996,272.368,275.855,277.09,280.648,283.843,285.078,288.781,292.632" y="569.77" svg_rhmargin="294.515" style="fill:#171615;font-family:BEHJNE+AdvOT1deab444.I;font-size:6.97px;font-style:NORMAL;font-weight:normal;">Department of Hematology, The Second Hospital of Jiaxing, Jiaxing,</text>
  <text svg_rhmargin="87.706" x="85.039,87.706" y="578.7280000000001" style="fill:#171615;font-family:BEHJNE+AdvOT1deab444.I;font-size:4.65px;font-style:NORMAL;font-weight:normal;">e </text>
  <text x="88.895,93.616,97.174,101.164,104.721,106.897,108.927,114.661,118.218,121.922,123.951,126.315,130.165,131.909,134.252,139.114,142.671,148.404,151.961,153.991,157.842,159.077,162.927,166.777,170.085,171.96800000000002,174.28,178.131,181.834,185.391,187.717,192.077,195.634,199.191,203.042,206.824,210.81300000000002,213.117,217.477" y="578.7280000000001" svg_rhmargin="219.22" style="fill:#171615;font-family:BEHJNE+AdvOT1deab444.I;font-size:6.97px;font-style:NORMAL;font-weight:normal;">Department of Hematology, The Second Af</text>
  <text x="219.231" y="578.7280000000001" svg_rhmargin="222.279" style="fill:#171615;font-family:BEHJOL+AdvOT1deab444.I+fb;font-size:6.97px;font-style:NORMAL;font-weight:normal;">ﬁ</text>
  <text x="222.293,223.527,224.762,228.318,230.348,233.904,237.893,240.264,245.124,248.974,252.314,256.303,257.538,259.567,263.124,264.358,266.737,270.587,272.331,274.674,278.663,282.367,285.923,287.158,288.392,291.949,295.652,299.502,301.885,306.746,310.449,311.683,315.386,318.943,322.283" y="578.7280000000001" svg_rhmargin="325.84" style="fill:#171615;font-family:BEHJNE+AdvOT1deab444.I;font-size:6.97px;font-style:NORMAL;font-weight:normal;">liated Hospital of Zhejiang Chinese</text>
  <text svg_rhmargin="140.842" x="85.039,90.918,94.475,98.464,99.698,103.255,106.812,108.04599999999999,110.436,115.297,119.0,120.234,123.428,126.985,129.161,132.501,133.735,135.765,138.959,140.842" y="584.567" style="fill:#171615;font-family:BEHJNE+AdvOT1deab444.I;font-size:6.97px;font-style:NORMAL;font-weight:normal;">Medical University, </text>
  <text svg_rhmargin="144.571" x="143.263,144.571" y="587.685" style="fill:#171615;font-family:BEHJNE+AdvOT1deab444.I;font-size:4.65px;font-style:NORMAL;font-weight:normal;">f </text>
  <text x="145.701,149.691,153.394,156.952,158.187,159.422,163.051,166.755,170.605,172.916,177.777,181.481,182.716,186.42,189.977,193.319,196.87599999999998,199.224,205.104,208.661,212.651,213.965,217.522,221.079,222.31300000000002,224.623,229.485,233.189,234.488,237.683,241.24,243.417,246.758,247.993,250.023,253.218,255.101,257.452,262.314,265.871,269.575,273.425,276.327,280.031,283.881,287.672,289.555,291.868,296.729,300.433,301.668,305.372,308.929" y="587.685" svg_rhmargin="310.812" style="fill:#171615;font-family:BEHJNE+AdvOT1deab444.I;font-size:6.97px;font-style:NORMAL;font-weight:normal;">Zhejiang Chinese Medical University, Hangzhou, China.</text>
  <text svg_rhmargin="87.759" x="85.039,87.759" y="599.6469999999999" style="fill:#171615;font-family:BEHJNC+AdvOTb0c9bf5d+22;font-size:4.65px;font-style:NORMAL;font-weight:normal;">∗ </text>
  <text x="88.951,93.813,97.663,99.839,102.016,105.573,108.914,112.904,116.754,120.458,124.448,128.005,131.709,135.266,138.824,140.70700000000002,143.154,147.514,151.217,154.775,158.479,162.329,164.868,168.063,171.766,175.469,177.853,181.557,182.792,186.496,188.37900000000002,190.724,195.446,199.003,202.993,206.55,208.727,210.757,216.49,220.048,223.751,225.78,228.201,232.051,233.795,236.082,240.943,244.5,250.312,253.87,255.9,259.75,260.985,264.835,268.686,271.88,273.763,276.111,279.961,283.665,287.22200000000004,289.548,293.252,294.487,296.663,300.004,302.033,304.403,308.763" y="599.6469999999999" svg_rhmargin="310.506" style="fill:#171615;font-family:BEHJNE+AdvOT1deab444.I;font-size:6.97px;font-style:NORMAL;font-weight:normal;">Correspondence: Sheng-yun Lin, Department of Hematology, The First Af</text>
  <text x="310.507" y="599.6469999999999" svg_rhmargin="313.555" style="fill:#171615;font-family:BEHJOL+AdvOT1deab444.I+fb;font-size:6.97px;font-style:NORMAL;font-weight:normal;">ﬁ</text>
  <text x="313.569,314.803,316.038,319.594,321.624,325.18" y="599.6469999999999" svg_rhmargin="329.169" style="fill:#171615;font-family:BEHJNE+AdvOT1deab444.I;font-size:6.97px;font-style:NORMAL;font-weight:normal;">liated</text>
  <text x="85.04,89.901,93.751,97.092,101.082,102.317,104.347,107.905,109.139,111.518,115.368,117.112,119.455,123.445,127.149,130.706,131.941,133.176,136.734,140.437,144.287,146.671,151.532,155.236,156.471,160.175,163.732,167.073,170.63,172.979,178.858,182.416,186.405,187.72,191.277,194.834,196.068,198.379,203.24,206.944,208.179,211.374,214.931,217.107,220.449,221.684,223.714,226.908,228.791,231.208,235.058,238.908,241.242,245.232,249.082,252.786,256.776,258.011,261.568,265.27099999999996,267.663,272.162,276.012,279.57,283.559,285.442,287.79,292.652,296.209,299.913,303.763,306.665,310.369,314.219" y="608.604" svg_rhmargin="317.922" style="fill:#171615;font-family:BEHJNE+AdvOT1deab444.I;font-size:6.97px;font-style:NORMAL;font-weight:normal;">Hospital of Zhejiang Chinese Medical University, 54 Youdian Road, Hangzhou</text>
  <text x="85.04,88.89,92.74,96.59,100.441,104.291,108.141,110.024,112.368,117.229,120.933,122.233,125.937,129.494,131.814,133.558,137.116,139.655,145.388,148.945,150.18,151.489,153.372,155.684,156.919,158.154,161.858,165.199,168.903,172.46,176.164,180.014,183.209,186.982,190.686,194.536,198.386,202.236,206.087,211.604,215.454,219.304,223.154,225.038,228.595,232.446,238.179,239.923" y="617.562" svg_rhmargin="241.806" style="fill:#171615;font-family:BEHJNE+AdvOT1deab444.I;font-size:6.97px;font-style:NORMAL;font-weight:normal;">310006, China (e-mail: linshengyun1113@163.com).</text>
  <text svg_rhmargin="113.93" x="85.04,89.901,93.751,97.741,100.936,103.112,104.347,108.198,111.901,113.92999999999999" y="629.524" style="fill:#171615;font-family:BEHJNE+AdvOT1deab444.I;font-size:6.97px;font-style:NORMAL;font-weight:normal;">Copyright </text>
  <text svg_rhmargin="121.564" x="116.334,121.565" y="629.524" style="fill:#171615;font-family:BEHJNF+AdvOTb0c9bf5d;font-size:6.97px;font-style:NORMAL;font-weight:normal;">© </text>
  <text x="123.874,127.724,131.574,135.425,139.275,141.619,143.65,147.353,150.91,153.242,157.601,161.305,163.335,167.039,170.889,173.143,174.887,178.228,179.973,181.85600000000002,184.199,188.559,192.262,196.252,197.487,198.722,202.063,205.767,209.325,213.314,215.667,219.657,222.851,225.192,231.511,235.361,236.596,238.626,242.258,244.435,247.776,250.082,254.581,255.816,259.52,264.674,268.232,270.408,272.818,277.679,281.236,284.794,286.029,288.059,291.763,293.64599999999996,296.008,297.528,301.232,304.789" y="629.524" svg_rhmargin="306.672" style="fill:#171615;font-family:BEHJNE+AdvOT1deab444.I;font-size:6.97px;font-style:NORMAL;font-weight:normal;">2019 the Author(s). Published by Wolters Kluwer Health, Inc.</text>
  <text x="85.039,88.888,92.592,93.826,97.16699999999999,99.495,100.729,104.07,106.412,109.969,113.672,115.993,119.904,123.893,127.45,131.153,133.453,137.01,140.566,144.123,147.68,151.02,154.36100000000002,156.752,160.309,162.485,164.514,165.749,169.305,170.54,174.09699999999998,176.48,180.469,181.703,185.044,187.073,189.249,190.483,194.473,198.176,200.205,203.762,207.751,210.153,213.856,217.559,221.548,225.105,227.28099999999998,229.654,231.683,235.386,238.94299999999998,241.276,243.305,246.862,249.038,254.77,258.111,260.493,264.344,266.088,268.431,270.46,274.164,277.721,280.052,284.913,287.089,290.645,294.202,296.231,297.466,300.66" y="638.482" svg_rhmargin="304.217" style="fill:#171615;font-family:BEHJNE+AdvOT1deab444.I;font-size:6.97px;font-style:NORMAL;font-weight:normal;">This is an open access article distributed under the terms of the Creative</text>
  <text x="85.039,89.9,93.751,99.484,105.217,109.067,112.771,116.112,118.489,122.849,124.879,126.909,129.085,130.321,134.31,138.014,140.044,141.279,145.129,148.938,151.476,156.338,160.188,163.891,166.229,171.091,174.941,180.674,186.407,189.965,192.141,195.698,196.934,200.588,201.823,204.362,209.223,213.073,215.443,220.165,223.722,225.899,227.134,230.328,233.886,235.916,237.151,240.345,243.903,247.244,249.632,253.336,254.571,258.129,261.686,265.39,268.731,272.288,274.636,278.487,280.37,284.22,286.543,288.286,293.148,298.009,302.654,306.726,309.265,314.126,318.988" y="647.496" svg_rhmargin="321.526" style="fill:#171615;font-family:BEHJNE+AdvOT1deab444.I;font-size:6.97px;font-style:NORMAL;font-weight:normal;">Commons Attribution-Non Commercial-No Derivatives License 4.0 (CCBY-NC-</text>
  <text x="85.039,89.9,94.621,96.364,98.247,100.628,105.782,109.485,113.042,115.217,118.774,121.093,122.327,124.356,126.705,127.94,131.281,133.622,137.611,141.168,143.343,149.076,150.31,153.651,156.991,158.225,162.306,163.54,167.09699999999998,169.393,171.422,175.272,177.613,181.602,185.451,190.605,194.308,195.542,199.392,202.948,206.937,209.358,212.915,216.618,220.607,222.964,226.304,230.008,233.564,235.74,239.297,241.615,243.644,247.347,250.904,253.293,258.447,262.296,264.472,267.666,270.016,274.006,276.182,280.031,283.225,284.46,288.449,292.005,295.99399999999997,298.361,299.596,301.625,303.974,305.208" y="656.453" svg_rhmargin="308.548" style="fill:#171615;font-family:BEHJNE+AdvOT1deab444.I;font-size:6.97px;font-style:NORMAL;font-weight:normal;">ND), where it is permissible to download and share the work provided it is</text>
  <text x="85.039,89.029,91.205,95.055,99.045,102.602,104.779,106.014,109.208,111.574,115.132,116.367,118.397,121.954,125.944,127.827,130.228,134.079,137.782,141.339,143.666,148.82,152.67,154.847,158.041,160.391,163.948,167.506,171.209,174.913,178.763,180.792,183.183,187.173,190.73,193.048,196.606,200.31,203.934,207.637,211.487,215.045,219.034,221.339,222.573,226.276,228.653,232.21,235.914,239.10799999999998,241.465,246.62,250.177,253.37099999999998,255.696,259.546,261.722,264.087,267.791,271.132,274.689,278.678,280.983,284.54,288.39,294.193,299.926,303.484,305.66,309.217,310.452,314.01,315.245,316.48" y="665.41" svg_rhmargin="319.674" style="fill:#171615;font-family:BEHJNE+AdvOT1deab444.I;font-size:6.97px;font-style:NORMAL;font-weight:normal;">properly cited. The work cannot be changed in any way or used commercially</text>
  <text x="85.039,90.193,91.428,93.458,97.162,101.012,104.716,106.74499999999999,109.135,113.125,116.683,118.859,124.592,125.827,129.168,132.51,133.745,137.595,141.298,143.665,145.409,147.586,151.436,157.169,159.54,161.569,165.273,168.82999999999998,171.162,172.397,176.247,179.951,182.127,185.831,189.389,190.624" y="674.367" svg_rhmargin="192.507" style="fill:#171615;font-family:BEHJNE+AdvOT1deab444.I;font-size:6.97px;font-style:NORMAL;font-weight:normal;">without permission from the journal.</text>
  <text x="85.039,90.919,94.476,98.466,99.701,103.258,104.493,108.197,111.754,114.125,115.869,119.719,123.569,127.419,131.27,133.014,135.386,139.236,143.087,144.97,148.821,150.565,154.122,157.972,161.823,165.673,169.523,173.373" y="686.33" svg_rhmargin="175.116" style="fill:#171615;font-family:BEHJNE+AdvOT1deab444.I;font-size:6.97px;font-style:NORMAL;font-weight:normal;">Medicine (2019) 98:8(e14519)</text>
  <text svg_rhmargin="200.139" x="85.039,89.538,93.095,96.652,100.21,101.445,104.713,108.271,112.26,114.143,116.45,120.3,124.14999999999999,126.485,129.973,133.676,137.38,140.93699999999998,143.324,147.174,151.024,154.875,158.725,161.069,163.315,165.662,170.16,173.718,177.275,180.832,182.068,185.262,188.82,192.809,195.201,196.436,200.139" y="698.292" style="fill:#171615;font-family:BEHJNE+AdvOT1deab444.I;font-size:6.97px;font-style:NORMAL;font-weight:normal;">Received: 10 June 2018 / Received in </text>
  <text x="202.45" y="698.292" svg_rhmargin="205.498" style="fill:#171615;font-family:BEHJOL+AdvOT1deab444.I+fb;font-size:6.97px;font-style:NORMAL;font-weight:normal;">ﬁ</text>
  <text x="205.511,209.215,212.772,214.006,216.34,218.084,221.934,224.11,229.844,231.727,234.086,237.936,241.786,244.121,248.843,252.4,255.958,259.515,265.248,269.238,272.795,274.971,277.345,281.195,285.045,288.896,292.74600000000004,295.09" y="698.292" svg_rhmargin="297.336" style="fill:#171615;font-family:BEHJNE+AdvOT1deab444.I;font-size:6.97px;font-style:NORMAL;font-weight:normal;">nal form: 19 December 2018 /</text>
  <text x="85.039,89.398,92.956,96.513,100.07,104.06,106.09,109.647,113.728,115.61099999999999,117.923,121.773,125.62299999999999,127.958,131.446,135.003,138.707,142.411,145.968,148.145,151.339,153.699,157.55,161.4,165.25" y="707.249" svg_rhmargin="169.1" style="fill:#171615;font-family:BEHJNE+AdvOT1deab444.I;font-size:6.97px;font-style:NORMAL;font-weight:normal;">Accepted: 23 January 2019</text>
  <text x="85.039,88.743,90.773,92.803,96.793,98.676,100.922,103.169,107.158,110.353,112.237,116.338,120.188,121.423,123.307,127.157,129.334,133.184,135.43,139.28,143.131,145.014,148.865,152.796,156.647,160.497,162.743,168.623,173.345,175.228,179.079,182.929,186.779,190.629,194.479,198.33,202.18,206.03,209.88,213.731,217.658,221.57,225.42,229.27,233.121" y="719.211" svg_rhmargin="236.971" style="fill:#171615;font-family:BEHJNE+AdvOT1deab444.I;font-size:6.97px;font-style:NORMAL;font-weight:normal;">http://dx.doi.org/10.1097/MD.0000000000014519</text>
  <path d=" M 85.03900146484375 759.968017578125 L 590.1729736328125 759.968017578125 L 590.1729736328125 760.9884033203125 L 85.03900146484375 760.9884033203125 Z " style="fill:none;stroke:#000000;stroke-width:1.0;"/>
  <path d=" M 85.03900146484375 761.0460205078125 L 89.00749969482422 761.0460205078125 L 89.00749969482422 775.9559936523438 L 85.03900146484375 775.9559936523438 Z " style="fill:none;stroke:#000000;stroke-width:1.0;"/>
  <text svg_rhmargin="203.497" x="91.389,100.306,107.459,113.885,121.038,125.601,131.924,138.868,142.913,145.403,152.556,159.301,166.336,168.82700000000003,172.175,179.537,183.582,190.327,197.48,203.498" y="31.899" style="fill:#73828a;font-family:BEHJON+AdvOTbed05995;font-size:9.96px;font-style:NORMAL;font-weight:normal;">Observational Study </text>
  <text x="437.272,469.714,489.657,511.847,519.123,537.736,545.012,564.991" y="31.899" svg_rhmargin="587.342" style="fill:#de000f;font-family:BEHKBN+Avenir-Roman;font-size:40.2px;font-style:NORMAL;font-weight:normal;">Medicine</text>
  <text x="584.326" y="14.110000000000014" svg_rhmargin="590.154" style="fill:#979699;font-family:BEHKBO+AkzidenzGroteskBE-Md;font-size:7.0px;font-style:NORMAL;font-weight:bold;">®</text>
  <path d="M85.039 471.578 L330.065 471.578 L330.065 472.088 L85.039 472.088 L84.812 471.975 L84.812 471.691 M443.709 35.651 L582.507 35.651 M584.0 35.651 L584.0 35.651 M440.722 35.651 L440.722 35.651 " style="fill:none;stroke:#979699;stroke-width:1.5;"/>
  <rect style="stroke:blue;stroke-width:0.3;" x="550.368" y="44.108" height="15.384" width="39.988" title="1"/>
  <text x="550.368" y="44.108" class="image" id="image.1.1" width="39" height="15">image.1.1.550_590.44_59</text>
  <text x="555.412,563.566,570.568,577.237" y="54.660999999999945" svg_rhmargin="585.238" style="fill:#ffffff;font-family:BEHKDO+HelveticaNeue-MediumExt;font-size:9.0px;font-style:NORMAL;font-weight:normal;">OPEN</text>
  <text x="335.395" y="739.622" svg_rhmargin="339.795" style="fill:#171615;font-family:BEHKEP+AdvOTf94803d4;font-size:7.97px;font-style:NORMAL;font-weight:normal;">1</text>
 </g>
</svg>
