<?xml version="1.0" encoding="UTF-8"?>
<svg height="870.031005859375" width="672.0029907226562" xmlns="http://www.w3.org/2000/svg">
 <g style="fill:none;">
  <path d=" M 0.05999799817800522 826.072021484375 L 22.619997024536133 826.072021484375 L 22.619997024536133 826.35546875 L 0.05999799817800522 826.35546875 Z " style="fill:none;stroke:#000000;stroke-width:1.0;"/>
  <path d=" M 33.67599868774414 837.4110107421875 L 33.959449768066406 837.4110107421875 L 33.959449768066406 860.031005859375 L 33.67599868774414 860.031005859375 Z " style="fill:none;stroke:#000000;stroke-width:1.0;"/>
  <path d=" M 627.9869995117188 837.4110107421875 L 628.2703857421875 837.4110107421875 L 628.2703857421875 860.031005859375 L 627.9869995117188 860.031005859375 Z " style="fill:none;stroke:#000000;stroke-width:1.0;"/>
  <path d=" M 639.3259887695312 826.072021484375 L 662.0029907226562 826.072021484375 L 662.0029907226562 826.35546875 L 639.3259887695312 826.35546875 Z " style="fill:none;stroke:#000000;stroke-width:1.0;"/>
  <path d=" M 639.3259887695312 33.731998443603516 L 662.0029907226562 33.731998443603516 L 662.0029907226562 34.015480041503906 L 639.3259887695312 34.015480041503906 Z " style="fill:none;stroke:#000000;stroke-width:1.0;"/>
  <path d=" M 627.9869995117188 0.0 L 628.2703857421875 0.0 L 628.2703857421875 22.677000045776367 L 627.9869995117188 22.677000045776367 Z " style="fill:none;stroke:#000000;stroke-width:1.0;"/>
  <path d=" M 33.67599868774414 0.0 L 33.959449768066406 0.0 L 33.959449768066406 22.677000045776367 L 33.67599868774414 22.677000045776367 Z " style="fill:none;stroke:#000000;stroke-width:1.0;"/>
  <path d=" M 0.05999799817800522 33.731998443603516 L 22.619997024536133 33.731998443603516 L 22.619997024536133 34.015480041503906 L 0.05999799817800522 34.015480041503906 Z " style="fill:none;stroke:#000000;stroke-width:1.0;"/>
  <text x="72.057,74.463,78.587,82.711,85.117,88.44,95.912,100.037,102.329,108.083,110.1,112.42,116.933,118.95,121.207,126.572,128.589,130.901,138.373,142.109,146.233,149.969,152.272,157.637,159.654,161.966,165.232,167.638,169.96,173.696,175.713,177.73,180.05,184.563,188.688,192.812,195.689,198.954,201.831,204.707,206.725,210.849,214.974,217.294,221.419,223.82500000000002,226.139,228.545,231.421,235.157,239.282,242.158,245.423,248.3,250.317,254.442,256.848,258.961,263.085,267.21,269.505,271.911,275.647,278.912,281.318,285.442,288.319,290.65,294.775,300.139,305.041,310.406,312.811" y="37.76400000000001" svg_rhmargin="316.935" style="fill:#171615;font-family:BEHJOI+AdvOTbc475f09;font-size:7.47px;font-style:NORMAL;font-weight:normal;">[18] Wu X, Li Y, Wang Z, et al. Expression of transcription factor FATA-3</text>
  <text x="88.441,92.177,95.442,99.566,102.831,105.504,107.522,111.647,114.348,118.472,122.597,126.721,129.986,132.715,138.857,142.593,145.469,148.346,152.47,158.223,160.946,163.823,166.229,169.106,173.23,179.372,183.108,185.125,187.873,191.139,194.404,196.421,198.438,201.315,204.03,206.436,209.312,213.437,219.579,222.284,226.408,230.144,232.55,234.568,237.833,241.957,244.363,247.24,249.948,255.701,257.718,260.124,264.249,266.954,270.69,274.814,276.832,280.568,283.444,285.462,287.868,291.133,293.881,297.617,301.741,305.006,311.148,313.166" y="46.721000000000004" svg_rhmargin="316.902" style="fill:#171615;font-family:BEHJOI+AdvOTbc475f09;font-size:7.47px;font-style:NORMAL;font-weight:normal;">gene in bone marrow stromal cells from patients with aplasitc anemia</text>
  <text x="88.441,92.177,96.301,100.426,102.897,107.021,111.145,114.022,120.164,123.9,125.917,128.463,131.728,135.852,139.977,142.383,145.259,149.384,151.401,154.278,156.295,158.848,164.212,168.337,170.354,174.479,176.988,179.865,182.374,186.499,190.234,192.64,196.765,200.889,205.014,209.138,212.874,215.751,217.768,221.892,223.909,226.477,230.602,234.726,238.85,242.975,244.992,249.117,253.241,255.259,259.383,263.507" y="55.678" svg_rhmargin="267.631" style="fill:#171615;font-family:BEHJOI+AdvOTbc475f09;font-size:7.47px;font-style:NORMAL;font-weight:normal;">and normal controls. Chin J Pathophysiol 2006;22:219</text>
  <text x="267.703" y="55.678" svg_rhmargin="271.439" style="fill:#171615;font-family:BEHJOK+AdvOTbc475f09+20;font-size:7.47px;font-style:NORMAL;font-weight:normal;">–</text>
  <text x="271.445,275.57,279.695" y="55.678" svg_rhmargin="281.712" style="fill:#171615;font-family:BEHJOI+AdvOTbc475f09;font-size:7.47px;font-style:NORMAL;font-weight:normal;">22.</text>
  <text x="72.057,74.463,78.587,82.711,85.117,88.44,93.805,97.541,101.666,106.184,111.55,113.567,118.09,123.455,127.58,129.597,133.721,136.987,139.863,143.128,147.682,153.824,157.948,160.825,163.231,166.496,168.902,171.778,173.796,177.061,179.93800000000002,184.472,188.208,192.333,196.458,201.026,206.779,210.515,214.64,217.905,221.17,225.294,227.312,231.436,235.172,237.189,241.728,245.852,249.977,254.102,258.622,261.887,266.011,268.028,272.567,276.692,280.817,284.941,289.065,291.083,295.207,298.472,302.597,306.721,308.739" y="64.63599999999997" svg_rhmargin="312.004" style="fill:#171615;font-family:BEHJOI+AdvOTbc475f09;font-size:7.47px;font-style:NORMAL;font-weight:normal;">[19] Cao Y. Chinese Obstetrics and Gynecolog, 2nd ed. 2005;People</text>
  <text x="312.037" y="64.63599999999997" svg_rhmargin="314.054" style="fill:#171615;font-family:BEHJOK+AdvOTbc475f09+20;font-size:7.47px;font-style:NORMAL;font-weight:normal;">’</text>
  <text x="314.078" y="64.63599999999997" svg_rhmargin="316.955" style="fill:#171615;font-family:BEHJOI+AdvOTbc475f09;font-size:7.47px;font-style:NORMAL;font-weight:normal;">s</text>
  <text x="88.442,95.913,99.179,103.303,105.32,108.586,112.321,114.338,116.843,120.967,125.092,129.216,131.298,133.316,136.192,140.317,142.334,146.459,150.195,152.67,158.894,163.018,167.143,170.019,173.361" y="73.59299999999996" svg_rhmargin="175.378" style="fill:#171615;font-family:BEHJOI+AdvOTbc475f09;font-size:7.47px;font-style:NORMAL;font-weight:normal;">Medical Publishing House,</text>
  <text x="72.057,74.463,78.589,82.713,85.119,88.442,93.654,97.626,101.598,105.57,109.306,110.729,116.719,120.302,122.319,123.76,128.976,132.712,134.475,138.058,142.03,146.155,147.586,152.802,157.551,159.56799999999998,161.009,164.593,167.705,171.677,174.79,176.655,180.627,184.599,187.712,190.436,194.172,195.652,199.624,201.641,203.082,208.295,212.267,214.991,217.715,220.828,224.8,227.20600000000002,228.655,231.768,235.74,239.712,242.825,245.937,249.909,252.163,255.04000000000002,256.472,258.337,262.462,263.893,266.146,270.118,273.383,274.824,278.792,282.376,284.629,288.601,292.573,296.546,300.518,304.101,306.978,308.692,312.664,314.529" y="82.54999999999995" svg_rhmargin="316.935" style="fill:#171615;font-family:BEHJOI+AdvOTbc475f09;font-size:7.47px;font-style:NORMAL;font-weight:normal;">[20] Young NS, Calado RT, Scheinberg P. Current concepts in the pathophysiol-</text>
  <text x="88.442,92.414,95.997,99.733,101.836,105.408,109.38,113.505,115.559,117.812,120.537,123.649,127.233,129.486,135.476,138.589,142.561,144.967,147.039,151.007,153.413,155.486,159.222,163.083,164.897,168.633,171.246,173.457,175.328,178.593,180.714,184.285,188.257,191.37,197.36,199.224,202.808,204.825,206.89,211.25,213.115,217.087,221.059,225.184,227.295,231.267,235.239,239.211,243.183,245.048,249.02,252.992,256.964,258.829,262.801,266.773,270.745" y="91.56399999999996" svg_rhmargin="274.869" style="fill:#171615;font-family:BEHJOI+AdvOTbc475f09;font-size:7.47px;font-style:NORMAL;font-weight:normal;">ogy and treatment of aplastic anemia. Blood 2006;108:2509</text>
  <text x="274.734" y="91.56399999999996" svg_rhmargin="278.47" style="fill:#171615;font-family:BEHJOK+AdvOTbc475f09+20;font-size:7.47px;font-style:NORMAL;font-weight:normal;">–</text>
  <text x="278.305,282.274,286.242" y="91.56399999999996" svg_rhmargin="288.259" style="fill:#171615;font-family:BEHJOI+AdvOTbc475f09;font-size:7.47px;font-style:NORMAL;font-weight:normal;">19.</text>
  <text x="72.057,74.463,78.588,82.712,85.11800000000001,88.441,93.806,97.93,102.055,106.179,108.196,112.321,116.057,120.181,123.917,130.059,133.735,137.86,139.877,143.486,150.959,152.976,154.994,157.011,159.028,162.764,168.906,171.78300000000002,175.46,178.336,180.353,183.963,191.436,193.453,195.471,197.488,199.505,203.241,209.383,212.26000000000002,215.937,222.078,226.203,229.08,231.485,234.751,237.157,240.033,242.051,245.316,248.192,250.209,253.861,257.986,262.11,264.516,268.641,272.285,275.55,279.675,281.692,285.323,289.059,291.465,295.201,301.343,303.749,307.873,310.75,314.874" y="100.52099999999996" svg_rhmargin="316.891" style="fill:#171615;font-family:BEHJOI+AdvOTbc475f09;font-size:7.47px;font-style:NORMAL;font-weight:normal;">[21] Cunningham F, Williams J. Williams Obstetrics, 20th ed. Stamford,</text>
  <text svg_rhmargin="194.725" x="88.442,93.807,97.932,102.057,106.183,108.2,110.723,116.089,120.214,124.339,126.357,129.623,132.03,136.155,140.28,142.814,149.815,152.281,156.795,160.532,164.657,168.394,171.728,173.745,176.207,180.332,184.457,188.582,192.708,194.725" y="37.763000000000034" style="fill:#171615;font-family:BEHJOI+AdvOTbc475f09;font-size:7.47px;font-style:NORMAL;font-weight:normal;">Conn: Appleton &amp; Lange; 1997. </text>
  <text x="332.05,334.456,338.58,342.705,345.111,348.433,354.187,357.923,360.799,364.535,368.271,371.536,375.661,378.926,382.276,386.4,389.666,393.402,394.861,397.737,400.143,402.15999999999997,403.704,409.069,411.946,416.07,418.947,421.824,425.559,429.684,431.198,436.952,441.076,443.093,444.577,449.09,452.826,456.95,460.686,464.02,467.756,469.774,473.899,475.358,479.483,481.5,483.012,486.277,488.683,490.155,493.89,495.908,497.925,499.452,505.205,508.47,512.595,516.719,519.125,523.25,527.374,529.391,532.656,534.202,537.467,541.591,545.716,548.592,551.858,555.982,560.107,563.372,567.496,570.761,574.11" y="37.763000000000034" svg_rhmargin="576.987" style="fill:#171615;font-family:BEHJOI+AdvOTbc475f09;font-size:7.47px;font-style:NORMAL;font-weight:normal;">[22] Garaycoechea JI, Crossan GP, Langevin F, et al. Genotoxic consequences</text>
  <text x="348.434,352.559,354.96500000000003,357.618,360.883,365.007,369.132,373.256,376.992,380.257,384.382,388.506,392.707,395.584,398.207,401.943,403.96,408.084,411.349,415.474,419.21,423.334,426.599,429.476,432.163,436.287,440.412,443.048,449.19,453.314,457.438,460.315,463.58,466.233,470.358,474.094,477.359,483.501,487.237,489.643,493.84,497.965,502.089,504.106,507.372,509.778,511.795,515.0600000000001,517.706,520.583,522.988,526.254,532.3960000000001,535.053,538.318,541.584,543.601,545.618,548.319,550.725,554.849,558.974,562.239,564.645,566.662,570.787,574.911" y="46.72000000000003" svg_rhmargin="576.928" style="fill:#171615;font-family:BEHJOI+AdvOTbc475f09;font-size:7.47px;font-style:NORMAL;font-weight:normal;">of endogenous aldehydes on mouse haematopoietic stem cell function.</text>
  <text x="348.434,354.576,358.312,360.718,364.842,367.719,370.984,373.547,377.671,381.796,385.92,390.044,392.062,396.186,400.311,404.435,406.453,410.577,414.701" y="55.67700000000002" svg_rhmargin="418.825" style="fill:#171615;font-family:BEHJOI+AdvOTbc475f09;font-size:7.47px;font-style:NORMAL;font-weight:normal;">Nature 2012;489:571</text>
  <text x="418.903" y="55.67700000000002" svg_rhmargin="422.639" style="fill:#171615;font-family:BEHJOK+AdvOTbc475f09+20;font-size:7.47px;font-style:NORMAL;font-weight:normal;">–</text>
  <text x="422.588,426.713" y="55.67700000000002" svg_rhmargin="428.73" style="fill:#171615;font-family:BEHJOI+AdvOTbc475f09;font-size:7.47px;font-style:NORMAL;font-weight:normal;">5.</text>
  <text x="332.05,334.456,338.58,342.705,345.111,348.433,354.187,358.312,363.059,368.813,370.83,375.588,383.06,385.077,388.342,392.538,395.803,399.927,403.192,407.957,410.834,416.199,418.216,422.98,429.122,431.139,435.264,439.987,444.89,446.907,451.667,454.932,457.338,462.098,465.834,467.851,469.868,474.627,479.14,482.405,486.529,489.794,493.06,497.184,500.449,505.239,508.504,512.628,516.753,520.877,523.754,527.878,530.755,534.02,536.037,540.839,544.575,546.592,550.717,553.123,556.858,559.264,563.389,565.406,569.531,573.655" y="64.63400000000001" svg_rhmargin="576.92" style="fill:#171615;font-family:BEHJOI+AdvOTbc475f09;font-size:7.47px;font-style:NORMAL;font-weight:normal;">[23] Xu X, Wiencke JK, Niu T, et al. Benzene exposure, glutathione</text>
  <text x="348.434,352.17,354.576,356.982,359.858,363.594,367.719,370.595,373.093,376.358,379.235,382.971,385.848,389.113,396.223,398.629,402.753,406.087,408.493,412.229,419.353,423.478,427.603,433.745,437.869,441.134,444.87,448.606,452.8,456.924,459.801,466.916,471.04,474.305,476.323,479.588,481.994,484.011,488.136,492.26,494.277,501.496,505.232,509.356,513.481,520.601,523.477,525.495,528.371,530.777,534.042,536.919,544.07,547.336,551.46,554.337,558.526,564.668,568.404,570.81,572.827" y="73.59100000000001" svg_rhmargin="576.951" style="fill:#171615;font-family:BEHJOI+AdvOTbc475f09;font-size:7.47px;font-style:NORMAL;font-weight:normal;">S-transferase theta homozygous deletion, and sister chromatid</text>
  <text x="348.434,351.699,355.824,359.089,363.213,366.949,371.074,374.809,378.075,381.03,383.04699999999997,385.508,390.874,397.016,399.568,402.445,404.897,407.303,411.427,415.552,418.106,425.578,428.843,432.968,435.453,439.577,443.702,447.826,451.95,453.968,458.092,462.217,464.307,468.431,472.555" y="82.54899999999998" svg_rhmargin="476.679" style="fill:#171615;font-family:BEHJOI+AdvOTbc475f09;font-size:7.47px;font-style:NORMAL;font-weight:normal;">exchanges. Am J Ind Med 1998;33:157</text>
  <text x="476.673" y="82.54899999999998" svg_rhmargin="480.409" style="fill:#171615;font-family:BEHJOK+AdvOTbc475f09+20;font-size:7.47px;font-style:NORMAL;font-weight:normal;">–</text>
  <text x="480.414,484.54,488.665" y="82.54899999999998" svg_rhmargin="490.682" style="fill:#171615;font-family:BEHJOI+AdvOTbc475f09;font-size:7.47px;font-style:NORMAL;font-weight:normal;">63.</text>
  <text x="332.05,334.456,338.58,342.705,345.111,348.433,353.798,357.922,361.658,365.783,369.519,373.263,378.628,380.645,384.318,391.791,395.527,399.651,403.387,407.108,412.862,414.879,418.56,422.296,426.42,428.437,432.165,437.53,439.54699999999997,443.22,446.485,448.891,452.574,456.31,458.327,460.344,464.082,467.818,470.224,474.348,478.472,482.20799999999997,485.907,490.032,494.157,497.869,500.275,504.4,508.524,510.541,513.807,515.824,518.23,521.966,525.646,529.771,532.1769999999999,535.907,538.784,542.52,546.644,550.769,552.786,555.192" y="91.56299999999999" svg_rhmargin="558.069" style="fill:#171615;font-family:BEHJOI+AdvOTbc475f09;font-size:7.47px;font-style:NORMAL;font-weight:normal;">[24] Zhang Z, Wang X, Shi Y, et al. Study on toxicity of rabbits</text>
  <text svg_rhmargin="560.157" x="558.14,560.157" y="91.56299999999999" style="fill:#171615;font-family:BEHJOK+AdvOTbc475f09+20;font-size:7.47px;font-style:NORMAL;font-weight:normal;">’ </text>
  <text x="563.81,566.686,570.811,572.828" y="91.56299999999999" svg_rhmargin="576.952" style="fill:#171615;font-family:BEHJOI+AdvOTbc475f09;font-size:7.47px;font-style:NORMAL;font-weight:normal;">skin</text>
  <text svg_rhmargin="441.802" x="348.434,352.559,356.294,358.312,362.436,364.842,368.107,372.232,376.552,382.305,384.323,386.729,390.854,395.146,399.271,403.395,405.413,409.602,411.619,414.885,416.902,421.026,424.762,429.047,433.172,436.908,438.925,441.802" y="100.51999999999998" style="fill:#171615;font-family:BEHJOI+AdvOTbc475f09;font-size:7.47px;font-style:NORMAL;font-weight:normal;">painted with oxidizing hair </text>
  <text svg_rhmargin="449.851" x="446.115,449.851" y="100.51999999999998" style="fill:#171615;font-family:BEHJOK+AdvOTbc475f09+20;font-size:7.47px;font-style:NORMAL;font-weight:normal;">– </text>
  <text x="454.109,458.233,461.969,465.234,468.111,470.128,474.403,479.768,483.893,485.91,490.106,493.842,498.099,502.224,506.348,510.473,512.49,514.508,517.773,522.079,528.303,531.568,535.304,537.321,539.727,543.852,548.155,552.28,556.404,560.529,564.653,566.671,570.795,574.919" y="100.51999999999998" svg_rhmargin="576.936" style="fill:#171615;font-family:BEHJOI+AdvOTbc475f09;font-size:7.47px;font-style:NORMAL;font-weight:normal;">dyes. China Public Health 2002;18:</text>
  <text x="348.433,352.559,356.684" y="109.47699999999998" svg_rhmargin="360.808" style="fill:#171615;font-family:BEHJOI+AdvOTbc475f09;font-size:7.47px;font-style:NORMAL;font-weight:normal;">179</text>
  <text x="360.849" y="109.47699999999998" svg_rhmargin="364.585" style="fill:#171615;font-family:BEHJOK+AdvOTbc475f09+20;font-size:7.47px;font-style:NORMAL;font-weight:normal;">–</text>
  <text x="364.591,368.716,372.842" y="109.47699999999998" svg_rhmargin="374.859" style="fill:#171615;font-family:BEHJOI+AdvOTbc475f09;font-size:7.47px;font-style:NORMAL;font-weight:normal;">80.</text>
  <text svg_rhmargin="177.603" x="71.887,79.108,83.34,85.946,90.011,92.33,95.017,99.082,100.492,102.644,105.278,111.829,115.894,120.453,121.864,125.929,127.339,131.571,135.636,138.215,140.12,144.52,148.919,153.319,157.719,159.624,162.252,166.652,171.051,173.203,177.602" y="9.870999999999981" style="fill:#171615;font-family:BEHJNB+AdvOT6e5d2ec0;font-size:7.97px;font-style:NORMAL;font-weight:normal;">Wu et al. Medicine (2019) 98:8 </text>
  <text x="542.723,549.944,554.503,559.317,561.31,565.869,567.861,572.508" y="9.870999999999981" svg_rhmargin="577.067" style="fill:#171615;font-family:BEHJNA+AdvOT34fe1490.B;font-size:7.97px;font-style:NORMAL;font-weight:normal;">Medicine</text>
  <text x="322.243" y="739.625" svg_rhmargin="326.643" style="fill:#171615;font-family:BEHKEP+AdvOTf94803d4;font-size:7.97px;font-style:NORMAL;font-weight:normal;">8</text>
 </g>
</svg>
