<?xml version="1.0" encoding="UTF-8"?>
<svg height="744.236" width="550.564091559322" xmlns="http://www.w3.org/2000/svg">
 <g style="fill:none;">
  <text x="56.693,61.592999999999996,64.8,69.181,73.561,77.942,81.61699999999999,84.87,87.721,92.817,95.365,97.913,103.009,109.84,113.407,118.829,124.033,126.169,129.374,135.611,140.912,145.293,150.389,153.639,158.02,161.17600000000002,164.355,168.735,171.283,173.41899999999998,176.657,179.83,184.73,189.637,192.793,195.987,198.838,203.934,209.236,214.646,219.85,223.143,226.299,231.601,235.981,239.137,242.362,249.506,256.444,263.382,266.513,271.207,274.882,279.978,285.279" y="368.454" svg_rhmargin="290.483" style="fill:#131413;font-family:LHOKCP+LxflhwAdvTT86d47313;font-size:9.8px;font-style:NORMAL;font-weight:normal;">1 year follow-up. Zhao et al. [24] found that DAA group</text>
  <text x="56.693,63.523,68.031,71.804,74.948,79.484,83.257,87.029,92.125,96.506,99.054,103.435,106.59,110.971,116.175,119.396,126.226,128.774,131.93,137.232,140.429,144.81,147.969,153.065,157.446,160.601,163.757,168.137,171.812,175.012,177.864,183.165,188.575,192.956,196.111,198.659,203.869,209.278,213.659,216.207,219.346,223.021,227.509,231.89,236.986,241.474,245.854,249.62,254.001,257.16,260.315,265.617,269.998,275.408,278.59,283.579" y="380.472" svg_rhmargin="290.517" style="fill:#131413;font-family:LHOKCP+LxflhwAdvTT86d47313;font-size:9.8px;font-style:NORMAL;font-weight:normal;">was associated with a better functional recovery than PA</text>
  <text x="56.693,61.387,65.062,70.158,75.46,80.66399999999999,85.436,89.817,92.973,97.739,102.63900000000001,107.32,115.483,120.579,125.989,129.145,134.533,138.305,140.441,145.191,152.737,157.833,164.751,169.229,173.717,178.098,181.078,183.214,187.938,191.094,196.395,200.776,204.451,208.832,213.62,220.45,224.958,228.731,233.463,238.872,243.96800000000002,248.713,252.486,255.034,259.728,265.211,267.759,270.611,273.159,277.54,281.92,287.33" y="392.491" svg_rhmargin="290.486" style="fill:#131413;font-family:LHOKCP+LxflhwAdvTT86d47313;font-size:9.8px;font-style:NORMAL;font-weight:normal;">group at 3 months. However, there was no significant</text>
  <text x="56.693,61.897,64.445,67.296,70.148,74.529,78.293,82.673,88.083,92.464,96.845,102.444,107.54,111.92,115.076,121.906,126.287,130.79,136.2,141.732,148.876,155.814,162.75199999999998,168.264,172.644,178.054,183.258,188.844,193.89,200.82799999999997,206.362,211.056,214.731,219.827,225.129,230.332,234.105,239.754,244.135,247.291,252.906,257.806,263.337,271.501,276.597,282.006,285.162" y="404.453" svg_rhmargin="290.464" style="fill:#131413;font-family:LHOKCP+LxflhwAdvTT86d47313;font-size:9.8px;font-style:NORMAL;font-weight:normal;">difference between DAA and PA groups at 6 month</text>
  <text x="56.693,59.545,64.641,67.189,69.737,74.833,81.663,85.23,90.652,95.856" y="416.471" svg_rhmargin="97.992" style="fill:#131413;font-family:LHOKCP+LxflhwAdvTT86d47313;font-size:9.8px;font-style:NORMAL;font-weight:normal;">follow-up.</text>
  <text x="64.687,74.585,78.966,84.189,88.57,91.118,94.891,99.98700000000001,105.223,108.075,113.171,118.472,123.882,129.086,134.306,137.462,142.763,147.144,150.3,155.509,158.665,163.967,168.348,173.594,180.623,187.562,194.5,199.729,204.423,208.098,213.194,218.496,223.70000000000002,228.926,235.757,240.265,244.03799999999998,249.222,253.7,257.473,261.246,266.342,270.822,273.37,277.75,280.906,285.286" y="428.49" svg_rhmargin="290.49" style="fill:#131413;font-family:LHOKCP+LxflhwAdvTT86d47313;font-size:9.8px;font-style:NORMAL;font-weight:normal;">We also found that the DAA group was associated</text>
  <text x="56.693,63.523,66.071,69.227,74.529,77.613,81.994,85.096,88.771,93.151,98.355,103.657,108.038,111.193,113.741,118.837,124.247,127.389,132.485,135.33700000000002,138.388,143.592,147.972,150.52,155.93,159.024,161.572,166.982,170.138,174.518,179.928,183.8,186.348,189.503,193.884,196.952,201.333,204.489,207.554,212.453,217.353,220.423,225.725,227.861,230.911,235.811,240.711,243.78,249.082,251.218,254.268,258.648,264.132,269.336,272.352,277.252,282.152,285.222" y="440.452" svg_rhmargin="290.524" style="fill:#131413;font-family:LHOKCP+LxflhwAdvTT86d47313;font-size:9.8px;font-style:NORMAL;font-weight:normal;">with a reduction of pain intensity at 24 h, 48 h, and 72 h</text>
  <text x="56.693,61.073,66.169,74.333,79.536,84.019,87.694,92.074,97.27799999999999,101.877,105.033,110.129,114.747,117.902,123.204,127.585,132.151,137.197,144.135,148.706,153.4,157.075,162.171,167.473,172.677,174.813,179.491,187.144,192.554,196.935,201.544,206.748,211.844,215.617,219.39,221.938,227.034,229.582,233.963,238.621,242.296,246.677,249.832,252.38,257.476,262.886,267.364,269.912,274.293,278.873,281.725,286.821" y="452.47" svg_rhmargin="290.496" style="fill:#131413;font-family:LHOKCP+LxflhwAdvTT86d47313;font-size:9.8px;font-style:NORMAL;font-weight:normal;">compared to the PA group. One possible rationale for</text>
  <text svg_rhmargin="290.447" x="56.693,59.241,67.404,72.608,76.283,81.468,85.956,88.504,93.914,98.608,101.651,109.197,113.577,117.252,120.927,123.475,127.24799999999999,130.338,135.64,138.188,143.392,146.439,150.212,154.593,159.689,163.447,167.828,170.818,175.198,180.682,185.886,188.902,194.106,198.596,202.977,206.652,211.033,215.604,219.377,221.925,227.335,232.029,235.05,240.254,244.634,247.182,252.59199999999998,255.687,258.235,263.644,266.8,271.18,276.59,280.363,282.911,286.066,290.447" y="368.452" style="fill:#131413;font-family:LHOKCP+LxflhwAdvTT86d47313;font-size:9.8px;font-style:NORMAL;font-weight:normal;">improving Harris hip score and decreasing pain intensity </text>
  <text x="304.723,311.554,316.062,319.83500000000004,323.999,327.154,332.456,336.837,341.063,345.316,349.804,354.9,357.448,362.652,367.143,372.552,376.933,381.31399999999996,385.512,390.608,393.46,397.644,405.807,411.109,414.882,419.263,421.811,426.192,430.413,434.186,439.39,441.938,444.486,447.641,450.797,453.345,458.754,463.44800000000004,467.717,472.098,477.507,482.711,486.88,490.555,494.936,500.139,505.441,509.822,514.202,519.406,523.674,527.447,532.543,535.394" y="368.452" svg_rhmargin="538.55" style="fill:#131413;font-family:LHOKCP+LxflhwAdvTT86d47313;font-size:9.8px;font-style:NORMAL;font-weight:normal;">was the avoidance of muscle splitting and reduced soft</text>
  <text x="304.723,307.879,310.427,314.2,317.973,323.275,327.65599999999995,330.916,336.119,340.5,348.663,353.044,357.738,362.119,365.385,367.933,373.343,376.554,383.583,390.522,397.46,400.648,405.342,409.017,414.197,419.499,424.70300000000003,427.86,431.016,436.318,440.786,446.196,449.346,452.502,457.804,462.273,465.42900000000003,468.622,473.718,476.57,479.734,484.78,491.71799999999996,494.871,499.565,503.24,508.42,513.722,518.926,521.062,524.237,534.135" y="380.47" svg_rhmargin="538.516" style="fill:#131413;font-family:LHOKCP+LxflhwAdvTT86d47313;font-size:9.8px;font-style:NORMAL;font-weight:normal;">tissue damage in DAA group than that of PA group. We</text>
  <text x="304.723,307.575,312.671,317.973,323.383,328.587,332.22,335.376,342.206,347.302,350.929,356.946,363.798,369.524,373.297,376.895,380.05,385.352,389.733,392.889,396.51,401.812,405.585,409.966,413.575,420.209,423.777,427.452,431.832,436.213,440.593,443.749,446.297,450.785,455.16600000000005,458.816,464.02,467.695,472.791,475.946,480.416,482.964,488.374,491.981,495.137,501.771,507.788,513.296,516.452,520.044,522.592,527.13,531.619,535.999" y="392.489" svg_rhmargin="538.547" style="fill:#131413;font-family:LHOKCP+LxflhwAdvTT86d47313;font-size:9.8px;font-style:NORMAL;font-weight:normal;">found two RCTs that use C-reactive protein (CRP) level</text>
  <text x="304.723,307.879,312.975,317.536,321.309,326.611,331.814,337.095,342.191,345.866,349.022,353.594,358.69,363.991,367.666,372.189,377.491,381.871,387.156,392.252,395.408,400.71,405.09,408.863,411.411,415.184,419.812,422.985,427.885,432.792,435.948,438.084,442.657,448.894,454.195,458.576,463.672,468.226,472.607,475.76300000000003,480.301,484.682,487.23,489.36600000000004,493.964,497.139,502.039,506.946,510.10200000000003,514.657,517.509,522.605,527.906,533.316" y="404.451" svg_rhmargin="538.52" style="fill:#131413;font-family:LHOKCP+LxflhwAdvTT86d47313;font-size:9.8px;font-style:NORMAL;font-weight:normal;">to support our hypothesis [24]. Zhao et al. [24] found</text>
  <text x="304.723,307.879,313.181,317.561,320.881,323.017,326.38,329.232,334.328,338.003,341.404,346.607,351.703,355.476,358.632,363.728,368.931,373.435,377.11,381.491,384.647,387.195,391.683,396.06399999999996,399.514,404.718,409.098,413.47900000000004,416.862,421.762,425.139,428.294,433.39,436.76,441.66,443.79600000000005,447.192,450.348,455.65,460.03099999999995,463.463,466.011,470.494,474.982,479.363,481.911,485.347,490.443,493.29499999999996,496.686,503.32,509.338,513.637,515.7729999999999,519.136,522.399,527.906,531.551,536.451" y="416.469" svg_rhmargin="538.587" style="fill:#131413;font-family:LHOKCP+LxflhwAdvTT86d47313;font-size:9.8px;font-style:NORMAL;font-weight:normal;">that, for postoperative day 1 to 4, the level of CRP, IL-6,</text>
  <text x="304.723,309.104,314.514,319.718,322.922,328.534,333.532,339.549,342.708,349.538,354.046,357.819,361.02,364.793,367.341,372.035,377.445,379.993,382.844,385.392,389.773,394.153,399.563,402.719,405.267,409.648,412.895,415.443,420.539,427.465,431.846,435.521,438.69,441.238,446.648,449.802,456.832,463.77,470.70799999999997,473.896,478.59,482.265,487.361,492.663,497.867,501.053,504.208,509.51,513.979,519.389,522.539,525.695,530.996,535.377" y="428.488" svg_rhmargin="538.533" style="fill:#131413;font-family:LHOKCP+LxflhwAdvTT86d47313;font-size:9.8px;font-style:NORMAL;font-weight:normal;">and ESR was significantly lower in DAA group than that</text>
  <text x="304.723,307.271,312.68100000000004,315.665,320.654,327.592,330.519,335.213,338.888,344.068,349.37,354.574" y="440.45" svg_rhmargin="356.71" style="fill:#131413;font-family:LHOKCP+LxflhwAdvTT86d47313;font-size:9.8px;font-style:NORMAL;font-weight:normal;">in PA group.</text>
  <text x="312.717,322.615,326.996,330.802,335.183,340.278,348.442,353.646,358.128,361.803,366.184,371.38800000000003,375.079,377.931,383.027,388.328,392.003,395.716,400.096,405.192,413.355,418.559,421.228,423.776,428.156,432.537,435.692,438.24,443.336,448.746,452.519,456.264,459.42,461.968,467.377,470.533,474.293,478.674,483.77,488.973,493.354,497.029,501.409,504.565,507.113,511.601,515.982,519.761,522.612,526.287,530.668,535.049" y="452.468" svg_rhmargin="538.616" style="fill:#131413;font-family:LHOKCP+LxflhwAdvTT86d47313;font-size:9.8px;font-style:NORMAL;font-weight:normal;">We compared four complications (intraoperative frac-</text>
  <text x="304.723,307.879,313.181,316.856,321.236,323.372,330.008,335.212,340.308,344.081,347.236,352.332,357.536,361.917,365.592,370.091,373.246,375.794,380.283,384.664,391.237,396.441,399.06,402.833,405.381,410.477,414.858,419.238,422.394,424.942,430.038,435.571,437.70700000000005,444.245,451.791,459.444,461.58000000000004,468.169,472.55,478.034,483.238,489.769,494.463,498.138,503.234,505.782,511.192,517.832,523.036,527.416,529.964,535.374" y="464.487" svg_rhmargin="538.53" style="fill:#131413;font-family:LHOKCP+LxflhwAdvTT86d47313;font-size:9.8px;font-style:NORMAL;font-weight:normal;">ture, postoperative dislocation, HO, and groin pain)</text>
  <path d=" M 60.71799850463867 702.2550048828125 L 534.5570068359375 702.2550048828125 L 534.5570068359375 702.0280151367188 L 60.71799850463867 702.0280151367188" style="fill:none;stroke:#131413;stroke-width:0.0;"/>
  <path d=" M 534.5570068359375 702.2550048828125 L 535.2940063476562 702.197998046875 C 536.8519897460938 702.0260009765625 538.333984375 700.4860229492188 538.5260009765625 698.9669799804688 L 538.58203125 698.2869873046875 L 538.35498046875 698.2869873046875 L 538.2990112304688 698.9100341796875 C 538.083984375 700.3889770507812 536.7509765625 701.7470092773438 535.2369995117188 701.9719848632812 L 534.5570068359375 702.0280151367188" style="fill:none;stroke:#131413;stroke-width:0.0;"/>
  <path d=" M 538.5830078125 698.2860107421875 L 538.5830078125 461.82000732421875 L 538.3560180664062 461.82000732421875 L 538.3560180664062 698.2860107421875" style="fill:none;stroke:#131413;stroke-width:0.0;"/>
  <path d=" M 538.5830078125 461.82000732421875 L 538.5260009765625 461.1400146484375 C 538.3350219726562 459.6199951171875 536.85302734375 458.08001708984375 535.2949829101562 457.90802001953125 L 534.5579833984375 457.85101318359375 L 534.5579833984375 458.0780029296875 L 535.238037109375 458.135009765625 C 536.7039794921875 458.3529968261719 538.0809936523438 459.73101806640625 538.2999877929688 461.1960144042969 L 538.3560180664062 461.82000732421875" style="fill:none;stroke:#131413;stroke-width:0.0;"/>
  <path d=" M 534.5570068359375 457.85198974609375 L 60.718017578125 457.85198974609375 L 60.718017578125 458.0789794921875 L 534.5570068359375 458.0789794921875" style="fill:none;stroke:#131413;stroke-width:0.0;"/>
  <path d=" M 60.717987060546875 457.85198974609375 L 59.980987548828125 457.90899658203125 C 58.4219856262207 458.08099365234375 56.94098663330078 459.6199951171875 56.748985290527344 461.1399841308594 L 56.69298553466797 461.82098388671875 L 56.919986724853516 461.82098388671875 L 56.97598648071289 461.1969909667969 C 57.19498825073242 459.7309875488281 58.57198715209961 458.35400390625 60.037986755371094 458.1349792480469 L 60.717987060546875 458.0789794921875" style="fill:none;stroke:#131413;stroke-width:0.0;"/>
  <path d=" M 56.69298553466797 461.82000732421875 L 56.69298553466797 698.2860107421875 L 56.919986724853516 698.2860107421875 L 56.919986724853516 461.82000732421875" style="fill:none;stroke:#131413;stroke-width:0.0;"/>
  <path d=" M 56.69298553466797 698.2860107421875 L 56.74998474121094 698.9660034179688 C 56.94098663330078 700.4860229492188 58.4229850769043 702.0250244140625 59.980987548828125 702.197998046875 L 60.717987060546875 702.2540283203125 L 60.717987060546875 702.0280151367188 L 60.037986755371094 701.9710083007812 C 58.52398681640625 701.7470092773438 57.191986083984375 700.3890380859375 56.97598648071289 698.9100341796875 L 56.919986724853516 698.2860107421875" style="fill:none;stroke:#131413;stroke-width:0.0;"/>
  <path d="M60.717 97.744 L534.557 97.744 L534.557 97.971 L60.717 97.971 M534.557 97.744 L535.294 97.802 C536.852 97.973 538.334 99.513 538.526 101.033 L538.582 101.713 L538.354 101.713 L538.299 101.089 C538.084 99.611 536.751 98.252 535.237 98.028 L534.557 97.971 M538.583 101.713 L538.583 338.179 L538.356 338.179 L538.356 101.713 M538.583 338.179 L538.526 338.859 C538.335 340.38 536.853 341.919 535.295 342.091 L534.557 342.148 L534.557 341.921 L535.238 341.864 C536.704 341.647 538.081 340.268 538.3 338.803 L538.356 338.179 M534.557 342.148 L60.718 342.148 L60.718 341.921 L534.557 341.921 M60.717 342.148 L59.98 342.091 C58.421 341.919 56.94 340.38 56.748 338.86 L56.692 338.179 L56.919 338.179 L56.975 338.803 C57.194 340.269 58.571 341.645 60.037 341.865 L60.717 341.921 M56.692 338.179 L56.692 101.713 L56.919 101.713 L56.919 338.179 M56.692 101.713 L56.749 101.033 C56.94 99.513 58.422 97.974 59.98 97.802 L60.717 97.745 L60.717 97.971 L60.037 98.028 C58.523 98.252 57.191 99.61 56.975 101.089 L56.919 101.713 M127.276 103.981 L468.0 103.981 L468.0 323.893 L127.276 323.893 " style="fill:none;stroke:#000000;stroke-width:1.0;"/>
  <rect style="stroke:blue;stroke-width:0.3;" x="127.276" y="103.981" height="219.912" width="340.756" title="8"/>
  <text x="127.276" y="103.981" class="image" id="image.8.1" width="340" height="219">image.8.1.127_468.104_324</text>
  <text svg_rhmargin="82.482" x="62.702,66.862,69.022,73.686,75.686,78.066,82.482" y="335.912" style="fill:#131413;font-family:LHOJOL+HnvspgAdvTTaf7f9f4f.B;font-size:8.0px;font-style:NORMAL;font-weight:normal;">Fig. 9 </text>
  <text x="84.869,88.533,92.781,95.109,98.941,101.853,104.26899999999999,106.583,110.91,112.574,116.822,119.238,121.663,123.743,127.991,130.319,132.661,136.157,140.405,146.901,151.229,154.805,157.133,158.797,163.045,167.373,169.739,174.898,179.562,184.226,186.576,190.152,193.984,196.312,199.224,203.384,206.296,208.629,212.629,217.29299999999998,219.684,221.348,225.596,228.018,230.434,234.266,236.594,243.09,246.002,248.314,252.561,254.64100000000002,257.045,258.709,262.957,266.453,268.116,271.028,272.692,276.94,281.188,283.52,285.184,289.016,293.264,297.592,300.008" y="335.912" svg_rhmargin="304.256" style="fill:#131413;font-family:LHOKBM+FbrspwAdvTTb5929f4c;font-size:8.0px;font-style:NORMAL;font-weight:normal;">Forest plot for comparing DAA versus PA in terms of incision length</text>
  <path d=" M 60.71799850463867 318.27398681640625 L 534.5570068359375 318.27398681640625 L 534.5570068359375 318.0469970703125 L 60.71799850463867 318.0469970703125" style="fill:none;stroke:#131413;stroke-width:0.0;"/>
  <path d=" M 534.5570068359375 318.27398681640625 L 535.2940063476562 318.21697998046875 C 536.8519897460938 318.04498291015625 538.333984375 316.5049743652344 538.5260009765625 314.9859924316406 L 538.58203125 314.30499267578125 L 538.35498046875 314.30499267578125 L 538.2990112304688 314.9289855957031 C 538.0800170898438 316.3949890136719 536.7030029296875 317.77197265625 535.2369995117188 317.9909973144531 L 534.5570068359375 318.0469970703125" style="fill:none;stroke:#131413;stroke-width:0.0;"/>
  <path d=" M 538.5830078125 314.30499267578125 L 538.5830078125 63.55198669433594 L 538.3560180664062 63.55198669433594 L 538.3560180664062 314.30499267578125" style="fill:none;stroke:#131413;stroke-width:0.0;"/>
  <path d=" M 538.5830078125 63.553009033203125 L 538.5260009765625 62.816009521484375 C 538.3309936523438 61.25600814819336 536.781982421875 59.812007904052734 535.2949829101562 59.584007263183594 L 534.5579833984375 59.52800750732422 L 534.5579833984375 59.81100845336914 L 535.238037109375 59.86800765991211 C 536.7850341796875 60.06300735473633 538.010009765625 61.37400817871094 538.2999877929688 62.873008728027344 L 538.3560180664062 63.553009033203125" style="fill:none;stroke:#131413;stroke-width:0.0;"/>
  <path d=" M 534.5570068359375 59.52800750732422 L 60.718017578125 59.52800750732422 L 60.718017578125 59.81100845336914 L 534.5570068359375 59.81100845336914" style="fill:none;stroke:#131413;stroke-width:0.0;"/>
  <path d=" M 60.717987060546875 59.52800750732422 L 59.980987548828125 59.58500671386719 C 58.493988037109375 59.812007904052734 56.94498825073242 61.25600814819336 56.748985290527344 62.816009521484375 L 56.69298553466797 63.553009033203125 L 56.919986724853516 63.553009033203125 L 56.97598648071289 62.873008728027344 C 57.265987396240234 61.37400817871094 58.49098587036133 60.06300735473633 60.037986755371094 59.86800765991211 L 60.717987060546875 59.812007904052734" style="fill:none;stroke:#131413;stroke-width:0.0;"/>
  <path d=" M 56.69298553466797 63.553009033203125 L 56.69298553466797 314.3060302734375 L 56.919986724853516 314.3060302734375 L 56.919986724853516 63.553009033203125" style="fill:none;stroke:#131413;stroke-width:0.0;"/>
  <path d=" M 56.69298553466797 314.30499267578125 L 56.74998474121094 314.9849853515625 C 56.94098663330078 316.5050048828125 58.4229850769043 318.04498291015625 59.980987548828125 318.21697998046875 L 60.717987060546875 318.27398681640625 L 60.717987060546875 318.0469970703125 L 60.037986755371094 317.989990234375 C 58.57198715209961 317.77099609375 57.194984436035156 316.39398193359375 56.97598648071289 314.9289855957031 L 56.919986724853516 314.30499267578125" style="fill:none;stroke:#131413;stroke-width:0.0;"/>
  <rect style="stroke:blue;stroke-width:0.3;" x="127.276" y="487.963" height="234.198" width="340.756" title="8"/>
  <text x="127.276" y="487.963" class="image" id="image.8.2" width="340" height="234">image.8.2.127_468.488_722</text>
  <text svg_rhmargin="86.898" x="62.702,66.862,69.022,73.686,75.686,78.066,82.482,86.898" y="734.236" style="fill:#131413;font-family:LHOJOL+HnvspgAdvTTaf7f9f4f.B;font-size:8.0px;font-style:NORMAL;font-weight:normal;">Fig. 10 </text>
  <text x="89.235,92.899,97.147,99.475,103.307,106.219,108.63499999999999,111.005,115.333,116.997,121.245,123.661,126.029,128.109,132.357,134.685,137.084,140.58,144.828,151.324,155.652,159.228,161.555,163.219,167.467,171.79500000000002,174.104,179.264,183.928,188.59199999999998,190.998,194.574,198.406,200.734,203.646,207.806,210.71800000000002,213.052,217.052,221.71599999999998,224.107,225.771,230.01899999999998,232.384,234.8,238.632,240.96,247.456,250.368,252.737,256.985,259.065,261.468,265.716,270.044,273.876,276.204,279.78,282.196,283.86,288.108,292.356,294.69,297.106,298.77,305.266" y="734.236" svg_rhmargin="309.098" style="fill:#131413;font-family:LHOKBM+FbrspwAdvTTb5929f4c;font-size:8.0px;font-style:NORMAL;font-weight:normal;">Forest plot for comparing DAA versus PA in terms of operation time</text>
  <text svg_rhmargin="76.101" x="56.694,63.437,67.269,71.685,76.101" y="48.14200000000005" style="fill:#131413;font-family:LHOKBL+TkctpbAdvTTe45e47d2;font-size:8.0px;font-style:NORMAL;font-weight:normal;">Wang </text>
  <text svg_rhmargin="243.833" x="78.464,82.04,84.536,86.911,91.071,92.815,94.479,96.889,99.721,103.881,108.041,110.537,114.785,118.945,120.689,123.025,127.185,129.433,131.812,137.14,139.636,142.132,146.38,150.54,154.7,158.859,162.435,166.595,168.339,171.667,173.991,177.655,181.815,184.311,188.471,192.047,194.543,198.03900000000002,200.41,204.57,208.818,212.978,215.377,219.537,223.113,226.025,229.601,233.761,236.257,239.585,243.833" y="48.14200000000005" style="fill:#131413;font-family:LHOKPN+RgbfmsAdvTT7329fd89.I;font-size:8.0px;font-style:NORMAL;font-weight:normal;">et al. Journal of Orthopaedic Surgery and Research </text>
  <text svg_rhmargin="294.384" y="48.14200000000005" x="247.857,250.129,254.233,258.337,262.441,266.545,268.817,270.513,274.616,278.72,280.376,284.48,288.584,292.688,294.384" style="fill:#131413;font-family:MyriadPro-Regular;font-size:8.0px;font-style:NORMAL;font-weight:normal;">(2018) 13:229 </text>
  <text x="496.062,500.31,504.142,508.558,512.558,514.941,519.0210000000001,521.404,525.732,528.06,530.418,534.498" y="48.14200000000005" svg_rhmargin="538.578" style="fill:#131413;font-family:LHOKBL+TkctpbAdvTTe45e47d2;font-size:8.0px;font-style:NORMAL;font-weight:normal;">Page 8 of 11</text>
 </g>
</svg>
