<?xml version="1.0" encoding="UTF-8"?>
<svg height="750.471" width="549.138422775" xmlns="http://www.w3.org/2000/svg">
 <g style="fill:none;">
  <text x="56.693,61.863,66.841,74.311,79.288,81.487,83.686,87.614,92.5,95.584,97.783,102.761,107.738" y="356.491" svg_rhmargin="111.372" style="fill:#131413;font-family:LHOLGP+YcppgdAdvTT83913201.I;font-size:9.2px;font-style:NORMAL;font-weight:normal;">Complications</text>
  <text x="56.693,63.22,68.521,72.902,76.577,80.958,84.246,91.077,95.585,99.35799999999999,102.671,108.081,113.177,116.56,120.333,122.881,127.576,132.985,135.533,138.385,140.933,145.313,149.694,155.104,158.26000000000002,161.688,166.892,169.44,172.292,175.143,179.524,183.199,187.579,193.096,197.476,201.857,205.171,210.267,214.648,217.803,224.731,229.111,233.492,238.902,242.249,249.279,256.217,263.155,266.514,271.208,274.883,279.979,285.28" y="368.454" svg_rhmargin="290.484" style="fill:#131413;font-family:LHOKCP+LxflhwAdvTT86d47313;font-size:9.8px;font-style:NORMAL;font-weight:normal;">There was no significant difference between DAA group</text>
  <text x="56.693,61.073,66.483,71.687,76.989,82.035,88.973,94.225,98.919,102.594,107.69,112.991,118.195,123.535,126.083,131.493,136.801,139.957,144.337,148.012,156.176,159.94899999999998,165.318,170.414,173.266,178.527,181.683,186.985,191.366,196.726,199.274,204.683,207.839,211.514,215.894,220.99,226.194,230.574,234.249,238.63,241.91,244.458,248.946,253.327,258.635,261.486,265.161,269.542,273.922,277.078,282.38,286.055" y="380.472" svg_rhmargin="290.436" style="fill:#131413;font-family:LHOKCP+LxflhwAdvTT86d47313;font-size:9.8px;font-style:NORMAL;font-weight:normal;">and PA group in terms of the intraoperative fracture</text>
  <text svg_rhmargin="200.39" x="56.693,59.848,65.866,71.883,73.871,79.58399999999999,81.525,86.425,88.561,93.461,98.361,100.497,107.831,112.731,117.631,124.461,131.096,134.359,141.677,146.577,148.713,153.613,158.513,165.828,168.983,174.079,181.418,186.318,188.454,193.354,198.254,200.39" y="392.491" style="fill:#131413;font-family:LHOKCP+LxflhwAdvTT86d47313;font-size:9.8px;font-style:NORMAL;font-weight:normal;">(RR = 1.62, 95%CI 1.62 to 4.46, </text>
  <text svg_rhmargin="212.761" x="207.665,212.761" y="392.491" style="fill:#131413;font-family:LHOLEP+NvncstAdvTT8861b38f.I;font-size:9.8px;font-style:NORMAL;font-weight:normal;">p </text>
  <text x="214.752,220.465,222.405,227.305,229.442,234.342,239.242,244.141,246.277,253.643,258.739,261.287,265.982,268.11800000000005,275.413,280.313,285.221,288.376" y="392.491" svg_rhmargin="290.512" style="fill:#131413;font-family:LHOKCP+LxflhwAdvTT86d47313;font-size:9.8px;font-style:NORMAL;font-weight:normal;">= 0.350, Fig. 13);</text>
  <text x="56.692,61.896,66.992,70.765,73.92,79.016,84.22,88.724,92.399,96.779,99.935,102.483,106.971,111.352,114.747,119.95,122.57,126.343,128.891,133.987,138.367,142.748,145.903,148.451,153.547,158.957,162.425,165.581,171.598,177.615,179.603,185.316,187.257,192.157,194.293,199.193,204.093,206.22899999999998,209.651,214.551,219.451,226.281,232.916,236.179,239.641,244.541,246.678,251.578,256.478,259.881,263.037,268.133,271.503,276.403,278.539,283.439,288.339" y="404.453" svg_rhmargin="290.475" style="fill:#131413;font-family:LHOKCP+LxflhwAdvTT86d47313;font-size:9.8px;font-style:NORMAL;font-weight:normal;">postoperative dislocation (RR = 0.52, 95%CI 0.10 to 2.27,</text>
  <text svg_rhmargin="61.788" x="56.692,61.788" y="416.471" style="fill:#131413;font-family:LHOLEP+NvncstAdvTT8861b38f.I;font-size:9.8px;font-style:NORMAL;font-weight:normal;">p </text>
  <text x="63.721,69.434,71.432,76.332,78.468,83.368,88.268,93.168,95.304,98.588,103.684,106.412,111.23,113.366,117.637,122.626,127.615,130.868,133.004,137.275,144.985,152.639,156.891,160.145,166.26,172.277,174.31,180.023,182.077,187.075,189.309,194.307,199.305,201.441,205.768,210.766,215.764,222.692,229.425,232.68800000000002,237.022,242.02,244.254,249.252,254.15200000000002,258.493,261.747,266.843,271.158,276.156,278.39,283.388,288.386" y="416.471" svg_rhmargin="290.522" style="fill:#131413;font-family:LHOKCP+LxflhwAdvTT86d47313;font-size:9.8px;font-style:NORMAL;font-weight:normal;">= 0.441, Fig. 13), HO (RR = 1.57, 95%CI 0.49 to 5.09,</text>
  <text svg_rhmargin="61.788" x="56.692,61.788" y="428.49" style="fill:#131413;font-family:LHOLEP+NvncstAdvTT8861b38f.I;font-size:9.8px;font-style:NORMAL;font-weight:normal;">p </text>
  <text x="63.835,69.548,71.601,76.591,78.832,83.837,88.841,93.846,95.982,101.443,106.539,109.266,114.065,116.201,121.604,126.594,131.583,134.84,136.976,142.38,146.863,152.418,157.622,163.02,167.838,171.615,176.813,179.463,184.873,190.291,195.597,200.132,202.68,208.09,213.569,216.826,222.945,228.962,230.996,236.709,238.762,243.764,246.002,251.004,256.006,258.142,263.546,268.592,273.581,280.514,287.25" y="428.49" svg_rhmargin="290.513" style="fill:#131413;font-family:LHOKCP+LxflhwAdvTT86d47313;font-size:9.8px;font-style:NORMAL;font-weight:normal;">= 0.450, Fig. 13), and groin pain (RR = 2.62, 95%CI</text>
  <text svg_rhmargin="114.632" x="56.692,61.694,63.932,68.934,73.834,77.834,81.092,86.188,90.219,95.221,100.223,102.461,107.507,112.496,114.63199999999999" y="440.452" style="fill:#131413;font-family:LHOKCP+LxflhwAdvTT86d47313;font-size:9.8px;font-style:NORMAL;font-weight:normal;">0.63 to 10.94, </text>
  <text svg_rhmargin="123.697" x="118.601,123.697" y="440.452" style="fill:#131413;font-family:LHOLEP+NvncstAdvTT8861b38f.I;font-size:9.8px;font-style:NORMAL;font-weight:normal;">p </text>
  <text svg_rhmargin="196.081" x="125.744,131.457,133.51,138.5,140.74,145.744,150.747,155.751,157.887,161.931,167.131,169.679,174.557,176.69299999999998,180.736,185.725,190.714,193.945,196.081" y="356.491" style="fill:#131413;font-family:LHOKCP+LxflhwAdvTT86d47313;font-size:9.8px;font-style:NORMAL;font-weight:normal;">= 0.191, Fig. 13). </text>
  <text x="304.724,311.8,314.581,318.98,323.584,329.475,333.873,338.271,341.052,347.074" y="356.491" svg_rhmargin="353.079" style="fill:#131413;font-family:LHOJOL+HnvspgAdvTTaf7f9f4f.B;font-size:10.3px;font-style:NORMAL;font-weight:normal;">Discussion</text>
  <text x="304.724,312.287,316.887,319.187,324.357,327.174,330.045,332.345,337.515,342.778,345.078,350.248,355.511" y="368.454" svg_rhmargin="359.338" style="fill:#131413;font-family:LHOKCN+HjkgddAdvTT99c4c969;font-size:9.2px;font-style:NORMAL;font-weight:normal;">Main findings</text>
  <text x="304.724,312.378,317.68,321.355,324.227,332.39,336.771,339.927,344.41,347.977,352.358,357.767,362.148,364.696,369.076,372.849,375.397,379.17,382.111,384.659,390.069,395.272,397.82,402.201,406.582,409.834,414.215,419.419,422.306,425.462,430.764,435.144,438.3,441.185,448.329,455.267,462.205,464.996,470.298,474.804,478.577,481.437,485.818,488.694,493.898,498.994,502.767,505.315,508.47,511.018,515.623,520.004,522.823,526.498,531.594,534.218" y="380.473" svg_rhmargin="538.599" style="fill:#131413;font-family:LHOKCP+LxflhwAdvTT86d47313;font-size:9.8px;font-style:NORMAL;font-weight:normal;">Our meta-analysis indicated that DAA has a positive role</text>
  <text x="304.724,307.272,312.682,315.552,319.227,323.608,328.811,334.204,338.585,341.133,346.542,351.236,354.16,358.54,362.921,368.223,371.378,375.759,378.708,383.911,388.292,390.84,396.25,399.174,401.722,407.131,410.287,414.667,420.077,423.85,426.5,429.655,434.036,436.172,439.086,441.634,449.797,455.001,458.676,463.772,468.34,470.887,476.297,480.99100000000004,483.873,489.077,494.173,497.946,501.102,506.197,511.401,515.905,519.58,523.961,527.116,529.664,534.153" y="392.491" svg_rhmargin="538.534" style="fill:#131413;font-family:LHOKCP+LxflhwAdvTT86d47313;font-size:9.8px;font-style:NORMAL;font-weight:normal;">in reducing acute pain intensity, improving postoperative</text>
  <text x="304.724,308.399,312.78,318.082,322.462,327.558,330.106,332.654,335.202,338.358,342.879,346.035,348.583,353.679,359.088,361.22400000000005,364.99,369.37,374.78,379.984,383.699,388.903,393.393,397.773,401.448,405.829,410.401,414.174,416.721,422.131,426.825,430.527,433.682,438.984,443.365,447.137,449.685,454.066,459.476,464.17,467.325,472.627,476.391,481.487,484.339,488.07,490.618,496.027,500.408,502.956,506.729,509.277,514.373,519.783,523.56,527.941,533.35" y="404.453" svg_rhmargin="538.554" style="fill:#131413;font-family:LHOKCP+LxflhwAdvTT86d47313;font-size:9.8px;font-style:NORMAL;font-weight:normal;">rehabilitation, and decreasing the length of incision and</text>
  <text x="304.724,309.82,312.368,317.464,322.56,327.764,332.05,334.598,339.694,343.467,347.24,349.37600000000003,353.593,363.491,367.87199999999996,372.132,377.434,381.207,385.587,390.791,395.036,398.809,403.19,408.599,412.372,414.92,418.076,420.624,425.112,427.66,430.816,435.197,439.484,443.864,449.274,453.654,456.202,460.687,464.46,467.008,470.781,474.973,478.129,483.225,487.445,490.297,495.599,499.274,502.429,507.731,512.22,515.895,520.044,524.424,529.52,535.011" y="416.471" svg_rhmargin="538.578" style="fill:#131413;font-family:LHOKCP+LxflhwAdvTT86d47313;font-size:9.8px;font-style:NORMAL;font-weight:normal;">blood loss. We used sensitivity analysis to further con-</text>
  <text x="304.724,307.576,310.124,313.799,321.962,326.041,329.197,334.498,338.879,342.992,346.667,351.047,353.595,356.143,360.524,365.62,368.168,370.716,373.264,376.419,380.79999999999995,384.945,390.041,392.893,396.964,402.06,407.362,411.03700000000003,415.105,419.486,424.582,430.073,434.453,437.001,442.303,446.076,448.624,453.72,459.13,461.266,465.393,474.477,479.573,483.422,486.57800000000003,490.622,495.718,498.57,502.64,507.736,513.038,516.713,520.782,525.162,530.572,534.952" y="428.49" svg_rhmargin="538.519" style="fill:#131413;font-family:LHOKCP+LxflhwAdvTT86d47313;font-size:9.8px;font-style:NORMAL;font-weight:normal;">firm the reliability of our conclusion. Most of our ana-</text>
  <text x="304.724,307.272,311.653,315.426,319.806,323.579,326.607,333.438,337.819,341.493,345.874,348.832,351.38,356.476,363.306,366.873,369.865,373.021,378.117,381.09,389.253,391.801,397.078,402.281,404.829,409.21,412.777,417.981,423.283,427.663,430.211,432.759,435.915,440.29600000000005,443.339,447.874,452.363,454.911,460.114,464.495,469.905,474.285,478.772" y="440.452" svg_rhmargin="480.908" style="fill:#131413;font-family:LHOKCP+LxflhwAdvTT86d47313;font-size:9.8px;font-style:NORMAL;font-weight:normal;">lyses were low- to middle-quality evidence.</text>
  <path d=" M 60.71799850463867 702.2550048828125 L 534.5570068359375 702.2550048828125 L 534.5570068359375 702.0280151367188 L 60.71799850463867 702.0280151367188" style="fill:none;stroke:#131413;stroke-width:0.0;"/>
  <path d=" M 534.5570068359375 702.2550048828125 L 535.2940063476562 702.197998046875 C 536.8519897460938 702.0260009765625 538.333984375 700.4860229492188 538.5260009765625 698.9669799804688 L 538.58203125 698.2869873046875 L 538.35498046875 698.2869873046875 L 538.2990112304688 698.9100341796875 C 538.083984375 700.3889770507812 536.7509765625 701.7470092773438 535.2369995117188 701.9719848632812 L 534.5570068359375 702.0280151367188" style="fill:none;stroke:#131413;stroke-width:0.0;"/>
  <path d=" M 538.5830078125 698.2860107421875 L 538.5830078125 492.60400390625 L 538.3560180664062 492.60400390625 L 538.3560180664062 698.2860107421875" style="fill:none;stroke:#131413;stroke-width:0.0;"/>
  <path d=" M 538.5830078125 492.6050109863281 L 538.5260009765625 491.9250183105469 C 538.3350219726562 490.4049987792969 536.85302734375 488.8650207519531 535.2949829101562 488.6930236816406 L 534.5579833984375 488.58001708984375 L 534.5579833984375 488.8630065917969 L 535.238037109375 488.9200134277344 C 536.7520141601562 489.1440124511719 538.083984375 490.50201416015625 538.2999877929688 491.98101806640625 L 538.3560180664062 492.6050109863281" style="fill:none;stroke:#131413;stroke-width:0.0;"/>
  <path d=" M 534.5570068359375 488.5790100097656 L 60.718017578125 488.5790100097656 L 60.718017578125 488.86199951171875 L 534.5570068359375 488.86199951171875" style="fill:none;stroke:#131413;stroke-width:0.0;"/>
  <path d=" M 60.717987060546875 488.5790100097656 L 59.980987548828125 488.6920166015625 C 58.4219856262207 488.8650207519531 56.94098663330078 490.4040222167969 56.748985290527344 491.92401123046875 L 56.69298553466797 492.60400390625 L 56.919986724853516 492.60400390625 L 56.97598648071289 491.98101806640625 C 57.23698806762695 490.3970031738281 58.46198654174805 489.2030029296875 60.037986755371094 488.91900634765625 L 60.717987060546875 488.86199951171875" style="fill:none;stroke:#131413;stroke-width:0.0;"/>
  <path d=" M 56.69298553466797 492.6050109863281 L 56.69298553466797 698.2869873046875 L 56.919986724853516 698.2869873046875 L 56.919986724853516 492.6050109863281" style="fill:none;stroke:#131413;stroke-width:0.0;"/>
  <path d=" M 56.69298553466797 698.2860107421875 L 56.74998474121094 698.9660034179688 C 56.94098663330078 700.4860229492188 58.4229850769043 702.0250244140625 59.980987548828125 702.197998046875 L 60.717987060546875 702.2540283203125 L 60.717987060546875 702.0280151367188 L 60.037986755371094 701.9710083007812 C 58.52398681640625 701.7470092773438 57.191986083984375 700.3890380859375 56.97598648071289 698.9100341796875 L 56.919986724853516 698.2860107421875" style="fill:none;stroke:#131413;stroke-width:0.0;"/>
  <rect style="stroke:blue;stroke-width:0.3;" x="63.836" y="103.981" height="189.128" width="467.664" title="5"/>
  <text x="63.836" y="103.981" class="image" id="image.5.1" width="467" height="189">image.5.1.64_532.104_293</text>
  <text svg_rhmargin="82.482" x="62.702,66.862,69.022,73.686,75.686,78.066,82.482" y="305.128" style="fill:#131413;font-family:LHOJOL+HnvspgAdvTTaf7f9f4f.B;font-size:8.0px;font-style:NORMAL;font-weight:normal;">Fig. 3 </text>
  <text svg_rhmargin="254.695" x="84.869,88.869,90.533,93.445,96.773,99.155,103.403,105.483,107.83,112.158,113.822,117.398,120.31,122.683,125.595,129.755,136.251,142.747,146.323,148.651,152.14700000000002,154.488,156.568,160.815,163.143,165.543,167.207,171.455,174.95,176.614,180.774,185.102,188.934,193.262,195.59,198.502,200.918,205.078,209.406,211.07,214.902,217.814,219.142,221.499,226.243,227.571,230.003,234.251,238.499,240.887,245.215,246.879,250.455,253.367,254.695" y="305.128" style="fill:#131413;font-family:LHOKBM+FbrspwAdvTTb5929f4c;font-size:8.0px;font-style:NORMAL;font-weight:normal;">Risk of bias summary for included studies. +, no bias; </text>
  <text x="257.045" y="305.128" svg_rhmargin="261.789" style="fill:#131413;font-family:LHPJJK+SwshlsAdvTTb5929f4c+22;font-size:8.0px;font-style:NORMAL;font-weight:normal;">−</text>
  <text x="261.807,263.135,265.492,269.82,271.484,275.06,277.972,279.3,282.3,283.628,286.015,290.343,292.007,295.583,298.495,300.868,305.028,309.276,312.604,316.852,321.1,326.844" y="305.128" svg_rhmargin="331.092" style="fill:#131413;font-family:LHOKBM+FbrspwAdvTTb5929f4c;font-size:8.0px;font-style:NORMAL;font-weight:normal;">, bias;?, bias unknown</text>
  <path d=" M 60.71799850463867 323.5459899902344 L 534.5570068359375 323.5459899902344 L 534.5570068359375 323.3190002441406 L 60.71799850463867 323.3190002441406" style="fill:none;stroke:#131413;stroke-width:0.0;"/>
  <path d=" M 534.5570068359375 323.5459899902344 L 535.2940063476562 323.4889831542969 C 536.8519897460938 323.3169860839844 538.333984375 321.7769775390625 538.5260009765625 320.25799560546875 L 538.58203125 319.5769958496094 L 538.35498046875 319.5769958496094 L 538.2990112304688 320.20098876953125 C 538.0830078125 321.67999267578125 536.7509765625 323.0379943847656 535.2369995117188 323.26300048828125 L 534.5570068359375 323.3190002441406" style="fill:none;stroke:#131413;stroke-width:0.0;"/>
  <path d=" M 538.5830078125 319.5780029296875 L 538.5830078125 63.553009033203125 L 538.3560180664062 63.553009033203125 L 538.3560180664062 319.5780029296875" style="fill:none;stroke:#131413;stroke-width:0.0;"/>
  <path d=" M 538.5830078125 63.553009033203125 L 538.5260009765625 62.816009521484375 C 538.3309936523438 61.25600814819336 536.781982421875 59.812007904052734 535.2949829101562 59.584007263183594 L 534.5579833984375 59.52800750732422 L 534.5579833984375 59.81100845336914 L 535.238037109375 59.86800765991211 C 536.7850341796875 60.06300735473633 538.010009765625 61.37400817871094 538.2999877929688 62.873008728027344 L 538.3560180664062 63.553009033203125" style="fill:none;stroke:#131413;stroke-width:0.0;"/>
  <path d=" M 534.5570068359375 59.52800750732422 L 60.718017578125 59.52800750732422 L 60.718017578125 59.81100845336914 L 534.5570068359375 59.81100845336914" style="fill:none;stroke:#131413;stroke-width:0.0;"/>
  <path d=" M 60.717987060546875 59.52800750732422 L 59.980987548828125 59.58500671386719 C 58.493988037109375 59.812007904052734 56.94498825073242 61.25600814819336 56.748985290527344 62.816009521484375 L 56.69298553466797 63.553009033203125 L 56.919986724853516 63.553009033203125 L 56.97598648071289 62.873008728027344 C 57.265987396240234 61.37400817871094 58.49098587036133 60.06300735473633 60.037986755371094 59.86800765991211 L 60.717987060546875 59.812007904052734" style="fill:none;stroke:#131413;stroke-width:0.0;"/>
  <path d=" M 56.69298553466797 63.553009033203125 L 56.69298553466797 319.5780029296875 L 56.919986724853516 319.5780029296875 L 56.919986724853516 63.553009033203125" style="fill:none;stroke:#131413;stroke-width:0.0;"/>
  <path d=" M 56.69298553466797 319.5780029296875 L 56.74998474121094 320.25799560546875 C 56.94098663330078 321.77801513671875 58.4229850769043 323.3170166015625 59.980987548828125 323.489990234375 L 60.717987060546875 323.5469970703125 L 60.717987060546875 323.32000732421875 L 60.037986755371094 323.26300048828125 C 58.496986389160156 323.02301025390625 57.24398422241211 321.7229919433594 56.97598648071289 320.2019958496094 L 56.919986724853516 319.5780029296875" style="fill:none;stroke:#131413;stroke-width:0.0;"/>
  <path d="M60.717 97.744 L534.557 97.744 L534.557 97.971 L60.717 97.971 M534.557 97.744 L535.294 97.802 C536.852 97.973 538.334 99.513 538.526 101.033 L538.582 101.713 L538.354 101.713 L538.299 101.089 C538.084 99.611 536.751 98.252 535.237 98.028 L534.557 97.971 M538.583 101.713 L538.583 307.395 L538.356 307.395 L538.356 101.713 M538.583 307.394 L538.526 308.074 C538.335 309.595 536.853 311.134 535.295 311.306 L534.557 311.419 L534.557 311.136 L535.238 311.079 C536.752 310.855 538.084 309.497 538.3 308.018 L538.356 307.394 M534.557 311.42 L60.718 311.42 L60.718 311.138 L534.557 311.138 M60.717 311.42 L59.98 311.307 C58.421 311.134 56.94 309.595 56.748 308.075 L56.692 307.395 L56.919 307.395 L56.975 308.018 C57.236 309.602 58.461 310.796 60.037 311.08 L60.717 311.138 M56.692 307.394 L56.692 101.713 L56.919 101.713 L56.919 307.394 M56.692 101.713 L56.749 101.033 C56.94 99.513 58.422 97.974 59.98 97.802 L60.717 97.745 L60.717 97.971 L60.037 98.028 C58.523 98.252 57.191 99.61 56.975 101.089 L56.919 101.713 M60.717 476.454 L534.557 476.454 L534.557 476.68 L60.717 476.68 M534.557 476.454 L535.294 476.511 C536.852 476.683 538.334 478.223 538.526 479.742 L538.582 480.423 L538.354 480.423 L538.299 479.799 C538.083 478.32 536.751 476.962 535.237 476.736 L534.557 476.68 M538.583 480.421 L538.583 736.446 L538.356 736.446 L538.356 480.421 M538.583 736.446 L538.526 737.183 C538.331 738.743 536.782 740.187 535.295 740.415 L534.557 740.471 L534.557 740.188 L535.238 740.131 C536.785 739.936 538.01 738.625 538.3 737.126 L538.356 736.446 M534.557 740.471 L60.718 740.471 L60.718 740.188 L534.557 740.188 M60.717 740.471 L59.98 740.414 C58.493 740.187 56.944 738.743 56.748 737.183 L56.692 736.446 L56.919 736.446 L56.975 737.126 C57.265 738.625 58.49 739.936 60.037 740.131 L60.717 740.187 M56.692 736.446 L56.692 480.421 L56.919 480.421 L56.919 736.446 M56.692 480.421 L56.749 479.742 C56.94 478.221 58.422 476.682 59.98 476.51 L60.717 476.453 L60.717 476.679 L60.037 476.736 C58.496 476.976 57.243 478.277 56.975 479.798 L56.919 480.421 M127.276 482.69 L468.0 482.69 L468.0 722.217 L127.276 722.217 " style="fill:none;stroke:#000000;stroke-width:1.0;"/>
  <rect style="stroke:blue;stroke-width:0.3;" x="127.276" y="482.69" height="239.527" width="340.756" title="5"/>
  <text x="127.276" y="482.69" class="image" id="image.5.2" width="340" height="239">image.5.2.127_468.483_722</text>
  <text svg_rhmargin="82.482" x="62.702,66.862,69.022,73.686,75.686,78.066,82.482" y="734.236" style="fill:#131413;font-family:LHOJOL+HnvspgAdvTTaf7f9f4f.B;font-size:8.0px;font-style:NORMAL;font-weight:normal;">Fig. 4 </text>
  <text x="84.869,88.533,92.781,95.109,98.941,101.853,104.26899999999999,106.583,110.91,112.574,116.822,119.238,121.663,123.743,127.991,130.319,132.661,136.157,140.405,146.901,151.229,154.805,157.133,158.797,163.045,167.373,169.739,174.898,179.562,184.226,186.576,190.152,193.984,196.312,199.224,203.384,206.296,208.629,212.629,217.29299999999998,219.684,221.348,225.596,228.018,230.434,234.266,236.594,243.09,246.002,248.314,252.561,254.64100000000002,257.045,262.045,265.621,267.949,270.276,271.94,274.852,277.228,281.476,283.14,287.46799999999996,289.87,292.782,296.278,300.526,302.854,306.686,309.032,312.608,315.024,317.422,321.254,323.601,329.345,333.177,337.009,340.337" y="734.236" svg_rhmargin="343.249" style="fill:#131413;font-family:LHOKBM+FbrspwAdvTTb5929f4c;font-size:8.0px;font-style:NORMAL;font-weight:normal;">Forest plot for comparing DAA versus PA in terms of Harris hip score at 2 weeks</text>
  <text svg_rhmargin="76.101" x="56.693,63.437,67.269,71.685,76.101" y="48.14200000000005" style="fill:#131413;font-family:LHOKBL+TkctpbAdvTTe45e47d2;font-size:8.0px;font-style:NORMAL;font-weight:normal;">Wang </text>
  <text svg_rhmargin="243.832" x="78.463,82.039,84.535,86.91,91.07,92.814,94.478,96.888,99.72,103.88,108.04,110.536,114.784,118.944,120.688,123.024,127.184,129.432,131.811,137.139,139.635,142.131,146.379,150.539,154.699,158.859,162.435,166.595,168.339,171.667,173.99,177.654,181.814,184.31,188.47,192.046,194.542,198.038,200.409,204.569,208.817,212.977,215.376,219.536,223.112,226.024,229.6,233.76,236.256,239.584,243.832" y="48.14200000000005" style="fill:#131413;font-family:LHOKPN+RgbfmsAdvTT7329fd89.I;font-size:8.0px;font-style:NORMAL;font-weight:normal;">et al. Journal of Orthopaedic Surgery and Research </text>
  <text svg_rhmargin="294.383" y="48.14200000000005" x="247.856,250.128,254.232,258.336,262.44,266.544,268.816,270.512,274.616,278.72,280.376,284.479,288.583,292.687,294.38300000000004" style="fill:#131413;font-family:MyriadPro-Regular;font-size:8.0px;font-style:NORMAL;font-weight:normal;">(2018) 13:229 </text>
  <text x="496.061,500.309,504.141,508.557,512.557,514.94,519.0200000000001,521.403,525.731,528.059,530.417,534.497" y="48.14200000000005" svg_rhmargin="538.577" style="fill:#131413;font-family:LHOKBL+TkctpbAdvTTe45e47d2;font-size:8.0px;font-style:NORMAL;font-weight:normal;">Page 5 of 11</text>
 </g>
</svg>
