<?xml version="1.0" encoding="UTF-8"?>
<svg height="870.031005859375" width="672.0029907226562" xmlns="http://www.w3.org/2000/svg">
 <g style="fill:none;">
  <path d=" M 0.05999799817800522 826.072021484375 L 22.619997024536133 826.072021484375 L 22.619997024536133 826.35546875 L 0.05999799817800522 826.35546875 Z " style="fill:none;stroke:#000000;stroke-width:1.0;"/>
  <path d=" M 33.67599868774414 837.4110107421875 L 33.959449768066406 837.4110107421875 L 33.959449768066406 860.031005859375 L 33.67599868774414 860.031005859375 Z " style="fill:none;stroke:#000000;stroke-width:1.0;"/>
  <path d=" M 627.9869995117188 837.4110107421875 L 628.2703857421875 837.4110107421875 L 628.2703857421875 860.031005859375 L 627.9869995117188 860.031005859375 Z " style="fill:none;stroke:#000000;stroke-width:1.0;"/>
  <path d=" M 639.3259887695312 826.072021484375 L 662.0029907226562 826.072021484375 L 662.0029907226562 826.35546875 L 639.3259887695312 826.35546875 Z " style="fill:none;stroke:#000000;stroke-width:1.0;"/>
  <path d=" M 639.3259887695312 33.731998443603516 L 662.0029907226562 33.731998443603516 L 662.0029907226562 34.015480041503906 L 639.3259887695312 34.015480041503906 Z " style="fill:none;stroke:#000000;stroke-width:1.0;"/>
  <path d=" M 627.9869995117188 0.0 L 628.2703857421875 0.0 L 628.2703857421875 22.677000045776367 L 627.9869995117188 22.677000045776367 Z " style="fill:none;stroke:#000000;stroke-width:1.0;"/>
  <path d=" M 33.67599868774414 0.0 L 33.959449768066406 0.0 L 33.959449768066406 22.677000045776367 L 33.67599868774414 22.677000045776367 Z " style="fill:none;stroke:#000000;stroke-width:1.0;"/>
  <path d=" M 0.05999799817800522 33.731998443603516 L 22.619997024536133 33.731998443603516 L 22.619997024536133 34.015480041503906 L 0.05999799817800522 34.015480041503906 Z " style="fill:none;stroke:#000000;stroke-width:1.0;"/>
  <text x="71.887,78.791,81.212,84.099,89.048,91.559,98.929,103.878,108.828,112.746,116.198,120.681,123.568,127.486,130.052,133.504,135.925,139.377,144.32600000000002,146.832,151.782,154.669,157.207,162.157,164.578,169.061,172.513,174.934,177.446,183.328,188.277,193.227,198.176,202.659,207.608,210.1,217.471,222.42,225.872,228.75900000000001,231.303,236.252,239.139,241.62,244.508,249.457,253.375,255.906,258.327,263.277,267.195,269.616,274.565,279.515,283.433,288.382,290.885,294.337,297.224,302.174,307.123,309.544,313.462" y="587.685" svg_rhmargin="316.914" style="fill:#171615;font-family:FAHBDF+AdvOTbc475f09;font-size:8.97px;font-style:NORMAL;font-weight:normal;">with moderate risk of bias. Though most of the included studies</text>
  <text x="71.887,76.37,79.822,83.74000000000001,89.291,95.729,102.167,108.049,111.501,113.92200000000001,119.451,122.338,126.256,133.16,138.727,143.676,146.563,152.106,154.993,159.943,163.861,171.231,176.824,180.276,184.194,189.143,194.093,197.545,200.432,204.35,209.299,214.863,219.813,223.731,226.618,231.101,233.522,235.943,239.395,244.909,249.859,252.746,258.345,261.797,266.28,271.23,276.179,281.129,288.499,290.92,294.838,299.321,302.208,304.629,309.579,314.528" y="598.627" svg_rhmargin="316.949" style="fill:#171615;font-family:FAHBDF+AdvOTbc475f09;font-size:8.97px;font-style:NORMAL;font-weight:normal;">are RCTs, few of them reported details of randomization,</text>
  <text x="71.887,76.836,79.257,81.678,86.627,91.577,93.997,98.947,103.43,105.85100000000001,109.53,111.951,116.9,121.849,124.27,128.189,132.672,135.559,137.98,142.929,147.412,151.084,156.034,160.983,163.87,167.788,172.738,175.625,178.046,182.529,184.95,188.613,192.065,195.984,198.405,202.323,206.241,209.128,211.549,216.499,221.448,225.122,229.606,234.555,239.50400000000002,243.15,248.1,252.018,254.905,258.823,262.741,265.629,268.049,272.999,277.94800000000004,281.643,286.593,289.014,293.497,296.949,300.635,308.005,312.488" y="609.625" svg_rhmargin="316.971" style="fill:#171615;font-family:FAHBDF+AdvOTbc475f09;font-size:8.97px;font-style:NORMAL;font-weight:normal;">blinding, indicating potential selection and detection bias may</text>
  <text x="71.887,75.805,80.754,83.175,86.627,89.514,91.935,93.656,99.072,102.99,106.442,108.863,113.812,117.73,121.182,123.60300000000001,125.289,128.176,133.126,137.044,138.781,143.731,148.68,156.051,161.0,164.918,168.37,170.075,175.024,177.911,179.599,183.051,187.534,194.904,199.854,202.275,206.193,207.887,212.371,216.854,220.306,222.727,226.645,230.097,231.811,236.294,240.213,243.665,248.614,252.066,255.518,257.209,260.661,263.548,268.498,273.447,275.868,279.786,283.238,285.659,287.369,291.852,295.771,299.689,304.638,309.588,314.537" y="620.566" svg_rhmargin="316.958" style="fill:#171615;font-family:FAHBDF+AdvOTbc475f09;font-size:8.97px;font-style:NORMAL;font-weight:normal;">exist. Besides, the number of sample varies across studies. Second,</text>
  <text x="71.887,74.774,79.723,84.673,89.622,94.105,99.054,101.933,104.82,109.769,113.687,117.139,121.057,123.985,126.406,129.858,132.716,137.665,142.614,145.471,148.923,151.344,155.827,160.777" y="631.508" svg_rhmargin="163.198" style="fill:#171615;font-family:FAHBDF+AdvOTbc475f09;font-size:8.97px;font-style:NORMAL;font-weight:normal;">though there is no signi</text>
  <text x="163.219" y="631.508" svg_rhmargin="168.168" style="fill:#171615;font-family:FAHBDG+AdvOTbc475f09+fb;font-size:8.97px;font-style:NORMAL;font-weight:normal;">ﬁ</text>
  <text x="168.208,172.126,176.609,181.559,184.446,187.313,192.263,196.181,199.068,202.986,206.438,211.388,215.871,219.789,224.739,228.657,231.078,233.965,238.448,241.34,245.823,249.741,253.193,258.143,261.595,265.047,267.985,270.872,275.822,279.74,283.192,287.11,289.981,293.899,296.32,298.741,303.224,305.645,310.595,313.016" y="631.508" svg_rhmargin="316.934" style="fill:#171615;font-family:FAHBDF+AdvOTbc475f09;font-size:8.97px;font-style:NORMAL;font-weight:normal;">cant heterogeneity across these eligible</text>
  <text x="71.887,75.339,78.226,83.175,88.125,90.545,94.464,97.916,100.337,105.618,108.505,113.454,117.372,122.569,126.487,131.436,135.919,139.371,143.855,147.773,150.66,154.578,158.03,160.451,163.903,166.79,169.211,173.13,176.582,181.867,186.817,189.704,194.963,199.913,204.396,207.283,209.704,213.622,218.572,221.459,224.911,230.112,234.595,239.545,244.494,249.728,253.18,256.067,261.016,265.966,270.449,275.692,280.642,284.56,288.012,290.433,294.916,299.865,305.115,309.598,313.051" y="642.506" svg_rhmargin="316.969" style="fill:#171615;font-family:FAHBDF+AdvOTbc475f09;font-size:8.97px;font-style:NORMAL;font-weight:normal;">studies, the characteristics of patients and study design are</text>
  <text x="71.887,76.836,79.257,82.144,85.031,88.949,92.401,96.32,101.269,104.156,106.57700000000001,111.287,117.725,120.146,122.56700000000001,127.274,130.161,135.111,139.029,143.715,146.136,151.085,155.003,157.424,162.374,167.323,171.241,176.19000000000003,180.904,184.356,187.243,192.193,197.142,199.563,203.481,206.933,211.631,216.58,219.001,223.95000000000002,228.582,233.531,238.48,241.367,246.099,249.551,253.469,258.419,263.368,266.82,269.707,274.388,277.275,282.224,286.142,290.828,295.778,300.261,304.179,307.631,312.114,314.535" y="653.448" svg_rhmargin="316.956" style="fill:#171615;font-family:FAHBDF+AdvOTbc475f09;font-size:8.97px;font-style:NORMAL;font-weight:normal;">different. All the included studies did not report the overall</text>
  <text x="71.887,75.339,80.288,83.74,88.223,90.644,95.127,99.61,102.031,103.804,107.256,111.739,114.626,118.544,120.965,122.795,130.166,134.649,139.598,142.019,146.969,151.452,153.239,156.126,161.075,164.993,166.788,169.675,174.624,177.511,181.995,184.416,186.233,189.685,194.634,198.086,202.57,204.99,209.474,213.957,216.378,218.15,223.1,225.987,227.788,232.738,237.221,240.108,242.529,246.447,251.396,254.284,257.736,259.535,266.439,268.86,271.747,276.696,278.47,285.84,290.324,292.745,295.165,299.649,304.598,309.081,314.031" y="664.389" svg_rhmargin="316.918" style="fill:#171615;font-family:FAHBDF+AdvOTbc475f09;font-size:8.97px;font-style:NORMAL;font-weight:normal;">survival rate, making the total survival of patients with malignant</text>
  <text x="71.887,76.836,79.257,83.175,88.125,91.577,96.06,98.48100000000001,100.572,104.491,107.378,110.265,115.214,118.666,121.087,126.037,130.98600000000002,133.113,136.565,139.452,141.873,144.294,146.715,148.816,151.237,156.187,160.105,165.054,170.004,173.922,176.343,181.292,184.744,187.165,191.649,195.567,197.988,200.065,205.947,210.896,214.815,218.267,222.185,224.272,226.693,231.643,236.592,240.51,243.962,247.881,252.83,255.717,257.833,262.783,265.204,268.091,270.978,274.896,278.348,282.266,287.216,291.134,295.052,298.504,300.635,308.005,312.488" y="675.387" svg_rhmargin="316.971" style="fill:#171615;font-family:FAHBDF+AdvOTbc475f09;font-size:8.97px;font-style:NORMAL;font-weight:normal;">pleural effusion still inconclusive. These inherent differences may</text>
  <text svg_rhmargin="207.058" x="71.887,74.307,79.257,83.175,86.627,90.545,95.029,98.481,102.399,104.144,107.031,111.98,115.89800000000001,117.58,121.032,123.453,126.905,131.854,133.567,138.516,141.403,143.147,148.097,150.517,155.001,158.453,160.874,162.592,169.963,174.446,178.364,181.816,186.299,188.72,191.141,193.56199999999998,195.303,198.19,203.14,207.058" y="686.329" style="fill:#171615;font-family:FAHBDF+AdvOTbc475f09;font-size:8.97px;font-style:NORMAL;font-weight:normal;">increase the risk of bias. Overall, the </text>
  <text x="208.744" y="686.329" svg_rhmargin="213.693" style="fill:#171615;font-family:FAHBDG+AdvOTbc475f09+fb;font-size:8.97px;font-style:NORMAL;font-weight:normal;">ﬁ</text>
  <text x="213.733,218.682,223.631,226.052,231.002,235.485,238.937,240.604,245.553,248.44,250.184,255.134,260.083,263.535,265.207,272.577,276.496,279.383,283.866,286.753,291.236,296.186,300.669,303.09,307.573,311.025,313.446" y="686.329" svg_rhmargin="316.898" style="fill:#171615;font-family:FAHBDF+AdvOTbc475f09;font-size:8.97px;font-style:NORMAL;font-weight:normal;">ndings of our meta-analysis</text>
  <text x="71.887,76.37,79.822,83.74000000000001,86.74,90.192,94.11,96.531,98.952,103.435,108.385,110.806,114.724,117.14500000000001,120.188,125.137,130.087,132.974,135.948,138.369,141.256,144.282,147.734,152.684,157.633,162.582,165.003,169.952,172.912,177.861,181.779,184.761,188.679,193.162,196.614,200.532,203.419,208.369,210.79,213.211,217.69400000000002,220.759,225.243,227.663,231.582,238.486,242.404,247.353" y="697.27" svg_rhmargin="249.774" style="fill:#171615;font-family:FAHBDF+AdvOTbc475f09;font-size:8.97px;font-style:NORMAL;font-weight:normal;">are reliable, but it should be carefully viewed.</text>
  <text x="80.844,83.731,88.67999999999999,93.203,97.121,102.071,107.02,110.938,113.359,118.309,121.761,124.182,129.131,134.08,136.501,140.993,143.881,148.83,152.74800000000002,157.264,160.716,164.634,168.086,173.035,175.456,178.343,181.795,186.289,191.239,194.126,198.649,201.536,206.485,208.906,212.358,216.847,220.299,223.186,228.135,233.085,237.568,242.074,245.526,250.476,255.425,262.329,266.792,269.679,274.628,279.111,281.998,286.52,290.438,292.859,296.778,304.148,308.066,313.016" y="708.212" svg_rhmargin="316.934" style="fill:#171615;font-family:FAHBDF+AdvOTbc475f09;font-size:8.97px;font-style:NORMAL;font-weight:normal;">In conclusion, the results of this study show that elemene</text>
  <text svg_rhmargin="316.969" x="71.887,74.774,78.226,82.144,86.627,89.514,96.885,100.803,105.752,108.639,113.782,117.7,122.183,127.132,132.263,134.684,142.054,147.004,150.456,155.405,159.888,163.806,168.999,172.917,175.338,177.759,182.708,185.129,189.047,193.531,195.952,201.086,205.004,209.953,214.903,217.79,221.242,226.191,228.612,233.796,238.746,241.633,246.722,254.093,258.576,260.997,263.418,267.901,272.85,277.333,282.283,285.17,290.375,295.324,297.745,301.663,306.613,310.065,314.548,316.969" y="587.682" style="fill:#171615;font-family:FAHBDF+AdvOTbc475f09;font-size:8.97px;font-style:NORMAL;font-weight:normal;">treatment can improve clinical control of malignant pleural </text>
  <text x="331.938,335.856,338.743,341.631,346.58,350.032,352.453,357.402,362.352,364.77299999999997,370.771,378.141,385.512,390.927,393.348,399.343,406.247,408.668,411.555,416.504,422.53,425.417,430.366,432.787,436.706,440.158,444.641,449.59,452.011,455.92900000000003,461.931,466.414,471.363,475.846,479.765,483.217,486.669,490.587,496.569,500.487,504.971,508.889,513.838,516.725,520.177,522.5980000000001,528.599,534.015,538.498,541.95,546.433,550.351,556.322,559.774,563.692,568.175,570.596,574.514" y="587.682" svg_rhmargin="576.935" style="fill:#171615;font-family:FAHBDF+AdvOTbc475f09;font-size:8.97px;font-style:NORMAL;font-weight:normal;">effusion, QOL, with tolerable adverse events. Large scale,</text>
  <text x="331.938,335.39,339.873,344.823,349.772,354.721,362.092,364.513,368.431,372.349,377.299,379.71999999999997,384.944,388.862,393.812,398.761,401.648,405.1,410.05,412.471,414.892,418.81,423.759,426.18,431.431,435.349,437.77,440.191,445.14,447.561,451.479,455.963,458.384,463.631,466.519,469.971,472.392,476.875,479.296,482.748,487.953,492.436,495.888,499.806,505.017,508.469,512.388,517.337,522.286,524.707,528.159,532.078,537.0269999999999,542.263,545.15,550.0989999999999,555.302,559.785,563.703,567.156,569.576,572.464" y="598.623" svg_rhmargin="576.947" style="fill:#171615;font-family:FAHBDF+AdvOTbc475f09;font-size:8.97px;font-style:NORMAL;font-weight:normal;">randomized, controlled, clinical trials are required to verify</text>
  <text svg_rhmargin="345.289" x="331.938,336.887,341.837,345.289" y="609.621" style="fill:#171615;font-family:FAHBDF+AdvOTbc475f09;font-size:8.97px;font-style:NORMAL;font-weight:normal;">our </text>
  <text x="348.266" y="609.621" svg_rhmargin="353.215" style="fill:#171615;font-family:FAHBDG+AdvOTbc475f09+fb;font-size:8.97px;font-style:NORMAL;font-weight:normal;">ﬁ</text>
  <text x="353.198,358.147,363.097,365.518,370.467,374.95,378.402" y="609.621" svg_rhmargin="380.823" style="fill:#171615;font-family:FAHBDF+AdvOTbc475f09;font-size:8.97px;font-style:NORMAL;font-weight:normal;">ndings.</text>
  <text x="331.937,338.534,344.449,348.093,354.008,359.725,363.66200000000003,366.803,372.32,378.037,383.952,387.596,391.534,394.288,400.203,406.119,409.762,412.517,418.233,424.149" y="637.235" svg_rhmargin="429.373" style="fill:#171615;font-family:FAHBBK+AdvOTfbba3ace.B;font-size:9.46px;font-style:NORMAL;font-weight:normal;">Author contributions</text>
  <text svg_rhmargin="404.25" x="331.937,338.375,343.324,348.273,352.192,356.11,361.059,363.947,368.896,373.379,375.8,378.221,382.139,386.622,389.51,391.93,396.88,401.829,404.25" y="653.222" style="fill:#171615;font-family:FAJJED+AdvOT66af078c.B;font-size:8.97px;font-style:NORMAL;font-weight:normal;">Conceptualization: </text>
  <text x="407.282,414.186,419.135,424.084,428.568,431.455,434.907,439.856,443.774,448.724,453.207,456.206,462.644,467.593,472.543,477.492" y="653.222" svg_rhmargin="479.913" style="fill:#171615;font-family:FAHBDF+AdvOTbc475f09;font-size:8.97px;font-style:NORMAL;font-weight:normal;">Dong-sheng Zhou.</text>
  <text svg_rhmargin="388.08" x="331.937,338.841,343.324,346.211,350.694,353.65,357.568,362.517,365.969,370.453,373.34,375.761,380.71,385.659,388.08" y="664.164" style="fill:#171615;font-family:FAJJED+AdvOT66af078c.B;font-size:8.97px;font-style:NORMAL;font-weight:normal;">Data curation: </text>
  <text x="391.124,398.028,402.978,407.927,412.41,415.297,418.75,423.699,427.617,432.567,437.05,440.049,446.487,451.436,456.386,461.335" y="664.164" svg_rhmargin="463.756" style="fill:#171615;font-family:FAHBDF+AdvOTbc475f09;font-size:8.97px;font-style:NORMAL;font-weight:normal;">Dong-sheng Zhou.</text>
  <text svg_rhmargin="395.115" x="331.937,336.886,341.836,345.288,352.658,357.141,359.562,362.55,367.033,371.982,376.465,378.886,383.369,386.821,389.242,392.694,395.115" y="675.105" style="fill:#171615;font-family:FAJJED+AdvOT66af078c.B;font-size:8.97px;font-style:NORMAL;font-weight:normal;">Formal analysis: </text>
  <text x="398.097,404.535,408.453,411.341,413.762,416.182,421.13100000000003,424.176,430.614,435.563,440.046,444.996,449.479,451.9,454.903,458.355,460.775,465.259,470.208,473.214,478.629,481.05,485.533,490.483,494.966" y="675.105" svg_rhmargin="497.387" style="fill:#171615;font-family:FAHBDF+AdvOTbc475f09;font-size:8.97px;font-style:NORMAL;font-weight:normal;">Ze-lin Zhang, Jian Liang.</text>
  <text svg_rhmargin="386.264" x="331.937,340.903,344.821,347.709,352.658,357.607,362.557,367.506,369.927,374.877,379.36,383.843,386.264" y="686.047" style="fill:#171615;font-family:FAJJED+AdvOT66af078c.B;font-size:8.97px;font-style:NORMAL;font-weight:normal;">Methodology: </text>
  <text x="389.254,396.624,399.045,403.995,408.478,411.365,414.252,418.735,423.684,426.67,435.637,440.12,445.069,449.552,451.973,455.016,461.453,465.372,468.259,470.68,473.101,478.05,481.037,487.474,492.424,496.907,501.856,506.34" y="686.047" svg_rhmargin="508.761" style="fill:#171615;font-family:FAHBDF+AdvOTbc475f09;font-size:8.97px;font-style:NORMAL;font-weight:normal;">Qing-tao Wang, Ze-lin Zhang.</text>
  <text svg_rhmargin="419.913" x="331.937,336.886,340.338,345.288,347.709,351.627,355.545,358.432,361.416,365.899,370.849,378.219,380.64,385.589,388.01,391.462,394.35,397.802,402.285,405.172,407.593,412.542,417.492,419.913" y="697.045" style="fill:#171615;font-family:FAJJED+AdvOT66af078c.B;font-size:8.97px;font-style:NORMAL;font-weight:normal;">Project administration: </text>
  <text x="422.986,426.438,431.388,436.337,439.314,444.729,447.15" y="697.045" svg_rhmargin="449.571" style="fill:#171615;font-family:FAHBDF+AdvOTbc475f09;font-size:8.97px;font-style:NORMAL;font-weight:normal;">Jun Li.</text>
  <text svg_rhmargin="372.805" x="331.937,338.375,342.293,345.745,350.694,355.644,359.096,363.014,366.932,370.384,372.805" y="707.986" style="fill:#171615;font-family:FAJJED+AdvOT66af078c.B;font-size:8.97px;font-style:NORMAL;font-weight:normal;">Resources: </text>
  <text x="375.817,379.269,381.69,386.173,391.122,394.129,399.545,401.966,406.449,411.398,415.881" y="707.986" svg_rhmargin="418.302" style="fill:#171615;font-family:FAHBDF+AdvOTbc475f09;font-size:8.97px;font-style:NORMAL;font-weight:normal;">Jian Liang.</text>
  <text svg_rhmargin="368.322" x="331.937,336.42,341.369,344.257,347.144,354.048,358.531,361.983,365.901,368.322" y="718.928" style="fill:#171615;font-family:FAJJED+AdvOT66af078c.B;font-size:8.97px;font-style:NORMAL;font-weight:normal;">Software: </text>
  <text x="371.338,374.79,379.74,384.689,387.666,393.082,395.503" y="718.928" svg_rhmargin="397.924" style="fill:#171615;font-family:FAHBDF+AdvOTbc475f09;font-size:8.97px;font-style:NORMAL;font-weight:normal;">Jun Li.</text>
  <path d=" M 71.88700103759766 766.885009765625 L 577.02099609375 766.885009765625 L 577.02099609375 767.6220092773438 L 71.88700103759766 767.6220092773438 Z " style="fill:none;stroke:#000000;stroke-width:1.0;"/>
  <path d=" M 71.88700103759766 241.90899658203125 L 577.02099609375 241.90899658203125 L 577.02099609375 242.64599609375 L 71.88700103759766 242.64599609375 Z " style="fill:none;stroke:#000000;stroke-width:1.0;"/>
  <rect style="stroke:blue;stroke-width:0.3;" x="96.435" y="40.202" height="498.784" width="456.11" title="12"/>
  <text x="96.435" y="40.202" class="image" id="image.12.1" width="456" height="498">image.12.1.96_553.40_539</text>
  <text svg_rhmargin="166.018" x="135.893,140.25,142.036,146.393,150.668,153.231,157.356,159.876,164.001,166.018" y="549.984" style="fill:#171615;font-family:FAHBKM+AdvOTf94803d4;font-size:7.47px;font-style:NORMAL;font-weight:normal;">Figure 8. </text>
  <text x="169.739,173.706,177.831,180.226,184.037,187.616,189.79000000000002,192.244,196.518,197.841,201.965,204.139,206.7,210.825,212.69299999999998,215.147,218.958,223.082,229.224,233.571,237.382,239.713,241.035,244.614,248.739,252.706,254.72299999999998,257.21,261.021,262.343,266.224,272.366,276.177,280.144,283.955,286.462,289.884,293.695,296.026,299.605,303.573,307.152,309.648,313.773,315.947,319.914,323.725,326.05600000000004,328.582,334.724,338.535,342.809,344.131,347.942,351.752,353.927,355.339,359.463,363.431,367.01,369.027,371.495,375.62,379.587,381.761,385.572,389.696,395.838,399.726,401.743,404.204,408.329,412.139,415.718,417.893,420.304,424.428,425.751,429.718,431.893,435.703,439.282,441.456,442.779,446.746,450.557,451.88,454.373,458.184,462.457,465.879,469.69,472.021,475.688,479.49899999999997,481.98,484.312,488.122,491.933,495.743,497.918,499.24,503.365,507.332,510.911" y="549.984" svg_rhmargin="512.928" style="fill:#171615;font-family:FAHBBN+AdvOT6e5d2ec0;font-size:7.47px;font-style:NORMAL;font-weight:normal;">Forest plot of comparison: elemene versus other medications, outcome: gastrointestinal adverse reactions.</text>
  <text svg_rhmargin="190.449" x="71.887,79.108,83.172,87.405,91.804,94.393,98.458,100.777,103.464,107.529,108.939,111.091,113.725,120.276,124.341,128.9,130.311,134.375,135.786,140.018,144.083,146.662,148.567,152.967,157.366,161.766,166.165,168.07,170.699,175.098,179.498,181.65,186.049,190.448" y="9.870999999999981" style="fill:#171615;font-family:FAHBBN+AdvOT6e5d2ec0;font-size:7.97px;font-style:NORMAL;font-weight:normal;">Wang et al. Medicine (2018) 97:44 </text>
  <text x="542.723,549.944,554.503,559.317,561.31,565.869,567.861,572.508" y="9.870999999999981" svg_rhmargin="577.067" style="fill:#171615;font-family:FAHBBM+AdvOT34fe1490.B;font-size:7.97px;font-style:NORMAL;font-weight:normal;">Medicine</text>
  <text x="320.032,324.432" y="739.625" svg_rhmargin="328.832" style="fill:#171615;font-family:FAHBKM+AdvOTf94803d4;font-size:7.97px;font-style:NORMAL;font-weight:normal;">12</text>
 </g>
</svg>
