<?xml version="1.0" encoding="UTF-8"?>
<svg height="870.031005859375" width="672.0029907226562" xmlns="http://www.w3.org/2000/svg">
 <g style="fill:none;">
  <path d=" M 0.05999799817800522 826.072021484375 L 22.619997024536133 826.072021484375 L 22.619997024536133 826.35546875 L 0.05999799817800522 826.35546875 Z " style="fill:none;stroke:#000000;stroke-width:1.0;"/>
  <path d=" M 33.67599868774414 837.4110107421875 L 33.959449768066406 837.4110107421875 L 33.959449768066406 860.031005859375 L 33.67599868774414 860.031005859375 Z " style="fill:none;stroke:#000000;stroke-width:1.0;"/>
  <path d=" M 627.9869995117188 837.4110107421875 L 628.2703857421875 837.4110107421875 L 628.2703857421875 860.031005859375 L 627.9869995117188 860.031005859375 Z " style="fill:none;stroke:#000000;stroke-width:1.0;"/>
  <path d=" M 639.3259887695312 826.072021484375 L 662.0029907226562 826.072021484375 L 662.0029907226562 826.35546875 L 639.3259887695312 826.35546875 Z " style="fill:none;stroke:#000000;stroke-width:1.0;"/>
  <path d=" M 639.3259887695312 33.731998443603516 L 662.0029907226562 33.731998443603516 L 662.0029907226562 34.015480041503906 L 639.3259887695312 34.015480041503906 Z " style="fill:none;stroke:#000000;stroke-width:1.0;"/>
  <path d=" M 627.9869995117188 0.0 L 628.2703857421875 0.0 L 628.2703857421875 22.677000045776367 L 627.9869995117188 22.677000045776367 Z " style="fill:none;stroke:#000000;stroke-width:1.0;"/>
  <path d=" M 33.67599868774414 0.0 L 33.959449768066406 0.0 L 33.959449768066406 22.677000045776367 L 33.67599868774414 22.677000045776367 Z " style="fill:none;stroke:#000000;stroke-width:1.0;"/>
  <path d=" M 0.05999799817800522 33.731998443603516 L 22.619997024536133 33.731998443603516 L 22.619997024536133 34.015480041503906 L 0.05999799817800522 34.015480041503906 Z " style="fill:none;stroke:#000000;stroke-width:1.0;"/>
  <path d=" M 85.03900146484375 618.1229858398438 L 566.248046875 618.1229858398438 C 579.427978515625 618.1900024414062 590.1530151367188 607.406005859375 590.115966796875 594.2550048828125 L 590.115966796875 395.9439697265625 L 85.03900146484375 395.9439697265625" style="fill:none;stroke:#000000;stroke-width:1.0;"/>
  <path d=" M 85.03900146484375 618.1229858398438 L 566.248046875 618.1229858398438 L 566.248046875 617.89599609375 L 85.26599884033203 617.89599609375" style="fill:none;stroke:#000000;stroke-width:1.0;"/>
  <path d=" M 566.2490234375 618.1229858398438 L 569.9910278320312 617.8399658203125 C 580.1600341796875 616.3040161132812 588.2579956054688 608.14697265625 589.8330078125 597.9970092773438 L 590.1170043945312 594.2550048828125 L 589.8900146484375 594.2550048828125 L 589.6069946289062 597.9400024414062 C 588.154052734375 607.8699951171875 579.8930053710938 616.198974609375 569.9340209960938 617.6129760742188 L 566.2490234375 617.89599609375" style="fill:none;stroke:#000000;stroke-width:1.0;"/>
  <path d=" M 590.1160278320312 594.2550048828125 L 590.1160278320312 395.9429931640625 L 589.8890380859375 396.16998291015625 L 589.8890380859375 594.2550048828125" style="fill:none;stroke:#000000;stroke-width:1.0;"/>
  <path d=" M 590.1160278320312 395.9429931640625 L 85.03903198242188 395.9429931640625 L 85.26602172851562 396.16998291015625 L 589.8890380859375 396.16998291015625" style="fill:none;stroke:#000000;stroke-width:1.0;"/>
  <path d=" M 85.03900146484375 395.9429931640625 L 85.03900146484375 618.1220092773438 L 85.26599884033203 617.89599609375 L 85.26599884033203 396.16998291015625" style="fill:none;stroke:#000000;stroke-width:1.0;"/>
  <text x="85.039,98.535,109.121,120.744,126.548,139.007,150.63,158.307,164.111,176.152,188.605,195.264,207.305,214.558,221.235,228.912,241.371,253.406,260.081,272.122" y="81.077" svg_rhmargin="279.375" style="fill:#171615;font-family:FAHBBK+AdvOTfbba3ace.B;font-size:19.93px;font-style:NORMAL;font-weight:normal;">Evaluation of the ef</text>
  <text x="279.383" y="81.077" svg_rhmargin="292.235" style="fill:#171615;font-family:FAHBBL+AdvOTfbba3ace.B+fb;font-size:19.93px;font-style:NORMAL;font-weight:normal;">ﬁ</text>
  <text x="292.308,303.925,315.541,327.158,337.738,344.409,356.025,368.479,380.93199999999996,387.609,398.608,410.224,417.477,429.512,437.183,447.763,454.448,466.483,473.736,480.413,492.448,498.246,510.281,528.533,540.568,553.021,565.0559999999999,571.8,577.599" y="81.077" svg_rhmargin="590.052" style="fill:#171615;font-family:FAHBBK+AdvOTfbba3ace.B;font-size:19.93px;font-style:NORMAL;font-weight:normal;">cacy and safety of elemene in</text>
  <text x="85.039,92.713,101.004,113.04,124.659,132.332,138.132,150.701,162.736,169.353,187.607,199.225,205.026,210.826,222.863,235.318,246.936,259.507,267.178,273.852,286.307,292.107,304.144,316.599,324.89,336.509,342.307,349.038,361.074,368.329,375.584,388.039,399.04,404.84,416.877,429.33,436.017,447.636,459.254,471.71,482.71,494.747,507.2,513.836,526.291" y="101.03200000000004" svg_rhmargin="536.871" style="fill:#171615;font-family:FAHBBK+AdvOTfbba3ace.B;font-size:19.93px;font-style:NORMAL;font-weight:normal;">treating malignant pleural effusion caused by</text>
  <text x="85.039,92.711,105.164,123.416,135.45,143.739" y="120.93200000000002" svg_rhmargin="154.738" style="fill:#171615;font-family:FAHBBK+AdvOTfbba3ace.B;font-size:19.93px;font-style:NORMAL;font-weight:normal;">tumors</text>
  <text x="85.039,95.83,101.141,111.757,123.202,127.841,138.122,152.564,163.355,168.659,178.287,187.58,191.565,201.193,210.311,219.93900000000002,225.18,239.447,248.565,254.032,263.15,269.622,278.74,288.033,297.151,301.136,309.265,317.73,321.715" y="142.02200000000005" svg_rhmargin="330.179" style="fill:#171615;font-family:FAHBBM+AdvOT34fe1490.B;font-size:15.94px;font-style:NORMAL;font-weight:normal;">A PRISMA guided meta-analysis</text>
  <text x="85.039,92.77,94.621,100.176,105.95,109.758,112.802,118.137,123.911,127.389,136.866,142.201,147.755,153.53,156.354,159.817,168.415,177.014,179.83800000000002,183.344,189.327,194.662,198.47,200.322,202.173,207.728,211.236,217.22,222.774,228.109,233.664,239.438,242.262,245.705,254.304,261.271,264.095,267.589,274.88,280.435,282.287,285.788,291.771,293.623,299.397,304.952,310.726,313.55,317.025,325.624" y="159.82399999999996" svg_rhmargin="332.591" style="fill:#171615;font-family:FAHBBN+AdvOT6e5d2ec0;font-size:10.46px;font-style:NORMAL;font-weight:normal;">Qing-tao Wang, MM, Ze-lin Zhang, MB, Hui Xiong, MB</text>
  <text x="332.617" y="153.19100000000003" svg_rhmargin="336.697" style="fill:#171615;font-family:FAHBBO+AdvOTb0c9bf5d+22;font-size:6.97px;font-style:NORMAL;font-weight:normal;">∗</text>
  <text x="336.699,339.523,342.992,350.074,355.848,361.403,367.177,370.985,375.996,381.55,386.885,392.44,398.214,401.668,407.652,413.207,418.981,424.535,427.35900000000004,430.809,439.407,446.374,449.19800000000004,452.693,457.923,463.478,469.033,472.535,478.09,479.942,482.766,486.255,494.853,503.452,506.276,509.782,515.012,516.864,522.199,527.7539999999999,531.212,536.766,538.618,543.953,549.507,555.282,558.106,561.599,570.198,578.796" y="159.82399999999996" svg_rhmargin="581.62" style="fill:#171615;font-family:FAHBBN+AdvOT6e5d2ec0;font-size:10.46px;font-style:NORMAL;font-weight:normal;">, Dong-sheng Zhou, MB, Jun Li, MM, Jian Liang, MM,</text>
  <text x="85.039,91.357,96.692,100.5,103.115,108.45,110.302,113.782,123.259,128.594,134.149,139.923,142.747,146.21,154.808" y="172.24" svg_rhmargin="163.407" style="fill:#171615;font-family:FAHBBN+AdvOT6e5d2ec0;font-size:10.46px;font-style:NORMAL;font-weight:normal;">Ya-fei Wang, MM</text>
  <text x="91.276,97.915,104.052,109.607,113.09,117.155,123.045,128.935" y="194.06600000000003" svg_rhmargin="132.418" style="fill:#171615;font-family:FAHBBP+AdvOT91f5f621.B;font-size:7.97px;font-style:NORMAL;font-weight:normal;">Abstract</text>
  <text svg_rhmargin="138.961" x="91.276,98.744,104.881,107.2,113.178,119.068,122.455,124.774,130.083,136.06,138.961" y="204.04399999999998" style="fill:#171615;font-family:FAHBBP+AdvOT91f5f621.B;font-size:7.97px;font-style:NORMAL;font-weight:normal;">Objective: </text>
  <text x="140.315,145.542,147.129,151.702,159.072,163.645,168.406,172.979,174.727,176.314,180.60899999999998,182.324,188.95,190.537,195.666,200.238,201.826,205.932,207.664,212.425,216.72,221.293,226.422,228.186,230.796,235.745,237.427,240.036,242.834,247.407,251.979,254.58800000000002,256.362,263.732,268.305,269.892,271.479,276.429,281.19,285.763,290.524,293.133,294.855,299.984,301.571,306.144,310.905,313.703,318.275,319.86199999999997,321.614,326.186,328.428,330.67,335.431,339.725,341.313,346.262,351.023,352.737,354.324,359.08500000000004,360.787,367.037,371.798,373.385,378.146,382.719,385.14,386.921,391.871,396.632,398.219,402.514,404.212,411.582,416.155,418.764,423.337,426.601,431.174,435.935,440.508,442.095,446.201,450.496,452.083,456.37800000000004,458.125,462.697,464.285,471.655,476.228,481.357,483.069,485.678,490.627,492.366,496.939,501.045,505.618,507.205,511.966,516.539,519.148,523.721,525.473,528.082,532.844,537.417,539.136,543.709" y="204.04399999999998" svg_rhmargin="545.951" style="fill:#171615;font-family:FAHBBN+AdvOT6e5d2ec0;font-size:8.97px;font-style:NORMAL;font-weight:normal;">Elemene is widely used to treat malignant pleural effusion in China. This meta-analysis aimed to evaluate the ef</text>
  <text x="545.954" y="204.04399999999998" svg_rhmargin="549.872" style="fill:#171615;font-family:FAHBDA+AdvOT6e5d2ec0+fb;font-size:8.97px;font-style:NORMAL;font-weight:normal;">ﬁ</text>
  <text x="549.866,554.439,559.011,563.584,567.6899999999999,569.424,573.997,578.758" y="204.04399999999998" svg_rhmargin="583.887" style="fill:#171615;font-family:FAHBBN+AdvOT6e5d2ec0;font-size:8.97px;font-style:NORMAL;font-weight:normal;">cacy and</text>
  <text x="91.275,95.57,100.143,102.385,106.958,109.567,113.67299999999999,116.673,121.623,123.86500000000001,126.821,131.394,132.981,137.554,144.924,149.497,154.258,158.83100000000002,161.856,163.443,168.204,171.211,173.82,176.618,181.19,185.763,188.372,189.959,194.721,199.67000000000002,202.675,210.045,214.618,216.205,217.792,222.741,227.502,232.075,236.836,239.44500000000002,242.472,247.6,249.187,253.76,258.521,261.319,265.891,267.478,270.477,275.05,277.291,279.533,284.294,288.589,290.176,295.125,299.886" y="214.986" svg_rhmargin="302.307" style="fill:#171615;font-family:FAHBBN+AdvOT6e5d2ec0;font-size:8.97px;font-style:NORMAL;font-weight:normal;">safety of elemene in treating malignant pleural effusion.</text>
  <text svg_rhmargin="136.323" x="91.276,100.242,106.22,109.703,115.593,121.73,127.867,133.422,136.323" y="229.159" style="fill:#171615;font-family:FAHBBP+AdvOT91f5f621.B;font-size:7.97px;font-style:NORMAL;font-weight:normal;">Methods: </text>
  <text x="138.898,144.125,145.712,150.285,154.858,157.467,160.264,165.214,169.975,171.562,176.13500000000002,179.205,184.333,188.906,191.515,196.088,201.217,205.79,210.085,214.657,218.952,222.006,223.593,228.354,232.927,234.514,239.275,244.404,245.991,250.752,255.70100000000002,258.742,264.346,269.107,274.236,281.606,286.179,291.308,293.729,296.782,299.391,304.152,308.72499999999997,311.748,317.998,322.947,327.52,332.281,335.079,339.651,344.412,348.98499999999996,351.999,356.76,358.347,363.476,366.273,370.846,373.644,377.75,380.171,383.236,388.463,395.833,400.962,405.535,409.83,414.40299999999996,417.477,422.05,426.811,431.94,434.938,441.188,445.949,447.536,452.297,456.87,461.164,465.73699999999997,468.782,473.911,475.498,480.447,487.818,492.391,497.519,499.106,503.679,508.252,509.839,512.888,514.475,516.062,518.671,523.244,526.041,530.614,533.223,537.984,540.782,545.355,548.433,553.561,558.134,560.743,565.316,570.445,575.018,579.313" y="229.159" svg_rhmargin="583.886" style="fill:#171615;font-family:FAHBBN+AdvOT6e5d2ec0;font-size:8.97px;font-style:NORMAL;font-weight:normal;">Electronic databases including Pubmed, the Cochrane Library, Embase and Chinese biomedical literature database</text>
  <text x="91.276,97.902,102.475,105.272,109.845,112.649,116.944,121.516,126.089,128.887,133.46,138.221,142.793,147.922,150.745,155.506,160.267,162.876,164.463,166.04999999999998,168.886,176.257,180.829,183.627,188.2,192.96099999999998,195.758,200.708,205.657,210.607,215.556,217.977,220.816,227.065,228.652,230.239,235.0,236.587,241.16,245.733,247.32,250.125,254.697,259.647,264.408,267.017,269.815,274.764,276.351,277.938,282.511,287.64000000000004,290.488,293.097,295.895,297.482,302.055,303.642,307.937,310.727,312.87,319.119,325.369,330.318,334.613,336.756,339.582,344.155,348.45,352.745,357.318,361.613,365.907,367.494,372.256,377.205,380.003,382.612,387.374,391.947,394.799,399.372" y="240.15700000000004" svg_rhmargin="401.614" style="fill:#171615;font-family:FAHBBN+AdvOT6e5d2ec0;font-size:8.97px;font-style:NORMAL;font-weight:normal;">were searched until March 2017. Clinical controlled trials (CCTs) assessing the ef</text>
  <text x="401.614" y="240.15700000000004" svg_rhmargin="405.532" style="fill:#171615;font-family:FAHBDA+AdvOT6e5d2ec0+fb;font-size:8.97px;font-style:NORMAL;font-weight:normal;">ﬁ</text>
  <text x="405.526,410.099,414.671,419.244,423.35,426.162,430.735,435.496,440.625,443.452,447.747,452.32,454.562,459.134,461.744,465.85,468.68,473.629,475.87100000000004,478.658,483.23,484.817,489.39,496.761,501.333,506.095,510.668,513.523,515.11,519.871,522.651,525.26,530.021,534.5939999999999,537.39,540.0,542.797,547.37,551.943,554.552,561.922,566.495,571.256,573.865,576.734,581.683" y="240.15700000000004" svg_rhmargin="583.925" style="fill:#171615;font-family:FAHBBN+AdvOT6e5d2ec0;font-size:8.97px;font-style:NORMAL;font-weight:normal;">cacy and safety of elemene in the treatment of</text>
  <text x="91.276,98.646,103.219,104.806,106.393,111.342,116.103,120.676,125.437,128.046,130.165,135.294,136.881,141.454,146.215,149.012,153.585,155.172,157.321,161.893,164.135,166.377,171.138,175.433,177.02,181.969,186.73,188.841,195.467,200.04,202.837,207.41,209.533,211.12,215.881,220.454,222.041,226.802,231.931,236.504,241.633,244.054,246.155,251.105,255.866,260.439,262.539,267.668,272.429,277.002,278.589,280.176,282.785,286.891,289.014,293.964,296.206,298.311,300.92,305.682,310.255,312.37,313.957,318.719,323.291,324.878,329.64,334.768,339.341,344.47,346.612,350.907,353.516,358.277,363.406,364.993,369.566,373.861,375.978,382.604,387.177,391.47200000000004,393.61,398.182,402.289,406.862,408.449,413.21,417.783,420.392,424.965,430.094,432.216,436.977,441.272,442.859,447.62,452.569,454.666,457.275,462.036,466.609,468.725,473.854,478.615,483.188,484.775,486.362,488.971,493.077,495.2,499.772,503.879,508.452,510.039,514.8,519.373,521.982,523.569,528.518,533.279,535.45,540.023,542.821,544.408,547.017,551.59,554.387,555.974,560.547,562.662,567.612,569.8539999999999,571.959,574.568,579.33" y="251.09900000000005" svg_rhmargin="583.903" style="fill:#171615;font-family:FAHBBN+AdvOT6e5d2ec0;font-size:8.97px;font-style:NORMAL;font-weight:normal;">malignant pleural effusion were included. The quality of the included studies was evaluated using the quality evaluation criteria of the</text>
  <text x="91.276,97.525,102.475,107.047,111.809,114.606,119.179,123.94,128.513,131.526,137.776,142.349,147.11,152.239,157.367,162.317,167.266,171.749,174.725,178.832,183.405,186.202,190.497,192.084,197.033,201.79399999999998,204.829,209.778,212.199,217.148,219.569,224.519" y="262.03999999999996" svg_rhmargin="226.94" style="fill:#171615;font-family:FAHBBN+AdvOT6e5d2ec0;font-size:8.97px;font-style:NORMAL;font-weight:normal;">Cochrane Handbook version 5.1.0.</text>
  <text svg_rhmargin="129.676" x="91.276,97.994,103.972,109.527,115.417,117.737,121.22,126.775,129.67600000000002" y="276.27099999999996" style="fill:#171615;font-family:FAHBBP+AdvOT91f5f621.B;font-size:7.97px;font-style:NORMAL;font-weight:normal;">Results: </text>
  <text x="133.058,138.662,142.526,145.135,150.084,152.694,157.266,158.85299999999998,162.651,167.601,169.843,173.706,178.655,183.604,187.425,193.675,199.924,204.874,209.16899999999998,212.993,219.619,224.192,226.989,231.562,235.386,236.973,241.734,246.307,247.894,252.655,257.784,262.357,267.486,269.907,273.766,280.392,281.979,284.588,289.34900000000005,293.154,298.104,303.053,308.002,312.951,316.795,321.924,326.496,329.106,330.693,335.265,340.027,342.636,346.931,349.352,353.191,359.162,363.735,368.03,372.791,374.378,376.987,381.28200000000004,385.108,390.058,392.3,396.163,403.533,408.106,410.715,415.288,418.552,423.124,427.886,432.458,434.045,438.152,442.447,444.034,448.329,452.173,456.468,461.229,466.179,472.805,477.378,482.507,486.358,488.968,493.729,498.302,500.911,504.727,509.3,510.887,515.459,522.83,527.403,532.164,536.737,540.555,544.85,546.437,551.386,556.148" y="276.27099999999996" svg_rhmargin="557.735" style="fill:#171615;font-family:FAHBBN+AdvOT6e5d2ec0;font-size:8.97px;font-style:NORMAL;font-weight:normal;">A total of 46 CCTs were included, with 2992 patients. Results of meta-analysis showed that elemene signi</text>
  <text x="557.746" y="276.27099999999996" svg_rhmargin="561.664" style="fill:#171615;font-family:FAHBDA+AdvOT6e5d2ec0+fb;font-size:8.97px;font-style:NORMAL;font-weight:normal;">ﬁ</text>
  <text x="561.715,566.287,570.86,575.621,578.231,579.818" y="276.27099999999996" svg_rhmargin="583.925" style="fill:#171615;font-family:FAHBBN+AdvOT6e5d2ec0;font-size:8.97px;font-style:NORMAL;font-weight:normal;">cantly</text>
  <text svg_rhmargin="446.346" x="91.275,92.862,100.233,105.361,108.159,113.108,117.215,121.788,126.917,128.918,131.528,136.289,140.862,142.865,147.814,151.921,156.493,159.291,163.864,165.451,167.03799999999998,168.999,171.796,176.369,180.664,185.793,190.742,195.503,199.798,204.371,206.358,209.155,213.728,216.337,220.91,222.911,225.054,231.68,237.652,243.624,245.767,247.742,249.329,254.09,256.076,260.649,265.598,270.359,272.968,275.766,280.715,282.302,283.889,285.476,290.238,295.187,297.177,304.547,309.12,310.707,312.294,317.243,322.004,326.577,331.338,333.947,335.953,341.082,342.669,347.242,352.003,354.8,359.373,360.96,362.938,367.511,369.753,371.994,376.755,381.05,382.637,387.586,392.34700000000004,394.345,396.488,399.286,400.873,405.168,409.651,411.636,414.433,419.006,421.615,423.202,428.151,430.117,432.26,438.232,444.203,446.34599999999995" y="287.21299999999997" style="fill:#171615;font-family:FAHBBN+AdvOT6e5d2ec0;font-size:8.97px;font-style:NORMAL;font-weight:normal;">improved the overall response rate (ORR) in controlling malignant pleural effusion (risk ratio [RR] </text>
  <text x="447.535" y="287.21299999999997" svg_rhmargin="453.605" style="fill:#171615;font-family:FAHBDB+AdvOTb0c9bf5d;font-size:8.97px;font-style:NORMAL;font-weight:normal;">=</text>
  <text x="454.735,459.684,462.105,467.055,472.004,474.425,476.391,481.341,486.29,494.225,496.234,502.483,504.438,506.859,508.819,513.768,516.189,521.139" y="287.21299999999997" svg_rhmargin="526.088" style="fill:#171615;font-family:FAHBBN+AdvOT6e5d2ec0;font-size:8.97px;font-style:NORMAL;font-weight:normal;">1.16; 95% CI: 1.08</text>
  <text x="526.111" y="287.21299999999997" svg_rhmargin="530.594" style="fill:#171615;font-family:FAHBDC+AdvOT6e5d2ec0+20;font-size:8.97px;font-style:NORMAL;font-weight:normal;">–</text>
  <text svg_rhmargin="550.28" x="530.59,535.539,537.96,542.91,547.859,550.2800000000001" y="287.21299999999997" style="fill:#171615;font-family:FAHBBN+AdvOT6e5d2ec0;font-size:8.97px;font-style:NORMAL;font-weight:normal;">1.23; </text>
  <text svg_rhmargin="557.851" x="552.247,557.851" y="287.21299999999997" style="fill:#171615;font-family:FAHBDD+AdvOT1deab444.I;font-size:8.97px;font-style:NORMAL;font-weight:normal;">P </text>
  <text x="558.993" y="287.21299999999997" svg_rhmargin="565.897" style="fill:#171615;font-family:FAHBDE+AdvP4C4E51;font-size:8.97px;font-style:NORMAL;font-weight:normal;">&lt;</text>
  <text x="567.044,569.465,574.414,579.364,581.507" y="287.21299999999997" svg_rhmargin="583.928" style="fill:#171615;font-family:FAHBBN+AdvOT6e5d2ec0;font-size:8.97px;font-style:NORMAL;font-weight:normal;">.05).</text>
  <text x="91.275,96.879,101.64,106.769,111.718,114.516,119.465,124.226,129.355,131.016,133.813,138.386,142.681,147.442,149.029,151.638,155.933,157.661,161.956,166.717,171.666,178.292,182.865,187.994,189.691,192.3,197.061,201.634,204.243,205.905,208.514,213.275,217.848,219.568,226.194,232.165,238.136,239.807,244.756,246.998,248.707,253.28,254.867,259.44,266.81,271.383,276.144,280.717,282.382,283.969,288.73,290.432,293.041,297.802,302.375,304.038,306.648,309.445,314.018,318.591,321.2,328.57,333.143,337.904,340.513,342.248,347.198,349.44,351.149,352.736,357.497,362.258,367.207,368.837,373.41,377.983,382.744,387.317,391.889,394.68600000000004,396.389,401.517,406.09,408.699,410.286,414.859,419.62,422.23,426.52500000000003,428.249,434.875,436.462,439.071,443.83200000000005,445.539,452.91,457.482,459.069,460.656,465.606,470.367,474.94,479.701,482.31,483.976,489.105,490.692,495.265,500.026,502.823,507.396,508.983,510.678,515.25,517.492,519.734,524.495,528.79,530.377,535.326,540.087,541.802,543.944,549.916" y="298.154" svg_rhmargin="555.888" style="fill:#171615;font-family:FAHBBN+AdvOT6e5d2ec0;font-size:8.97px;font-style:NORMAL;font-weight:normal;">Subgroup results showed that the ORR of elemene in the treatment of lung cancer patients with malignant pleural effusion (RR</text>
  <text x="557.009" y="298.154" svg_rhmargin="563.079" style="fill:#171615;font-family:FAHBDB+AdvOTb0c9bf5d;font-size:8.97px;font-style:NORMAL;font-weight:normal;">=</text>
  <text x="564.209,569.158,571.579,576.529,581.478" y="298.154" svg_rhmargin="583.899" style="fill:#171615;font-family:FAHBBN+AdvOT6e5d2ec0;font-size:8.97px;font-style:NORMAL;font-weight:normal;">1.20,</text>
  <text x="91.275,96.225,101.174,109.10900000000001,111.06,117.31,119.264,121.685,123.703,128.652,131.073,136.022" y="309.152" svg_rhmargin="140.971" style="fill:#171615;font-family:FAHBBN+AdvOT6e5d2ec0;font-size:8.97px;font-style:NORMAL;font-weight:normal;">95% CI: 1.07</text>
  <text x="140.995" y="309.152" svg_rhmargin="145.478" style="fill:#171615;font-family:FAHBDC+AdvOT6e5d2ec0+20;font-size:8.97px;font-style:NORMAL;font-weight:normal;">–</text>
  <text svg_rhmargin="165.164" x="145.474,150.423,152.844,157.794,162.743,165.164" y="309.152" style="fill:#171615;font-family:FAHBBN+AdvOT6e5d2ec0;font-size:8.97px;font-style:NORMAL;font-weight:normal;">1.34; </text>
  <text x="167.188" y="309.152" svg_rhmargin="172.792" style="fill:#171615;font-family:FAHBDD+AdvOT1deab444.I;font-size:8.97px;font-style:NORMAL;font-weight:normal;">P</text>
  <text x="173.877" y="309.152" svg_rhmargin="180.781" style="fill:#171615;font-family:FAHBDE+AdvP4C4E51;font-size:8.97px;font-style:NORMAL;font-weight:normal;">&lt;</text>
  <text x="181.928,184.349,189.298,194.248,196.391,198.369,204.995,209.568,213.863,215.886,220.647,222.234,227.184,231.945,236.518,239.315,241.284,243.893,248.654,253.227,257.988,259.992,262.602,267.363,271.935,274.544,276.546,281.495,283.737,285.73,290.68,293.289,298.05,302.623,305.42,307.386,311.959,316.532,321.293,325.866,330.439,333.236,337.531,339.531,341.674,347.645" y="309.152" svg_rhmargin="353.617" style="fill:#171615;font-family:FAHBBN+AdvOT6e5d2ec0;font-size:8.97px;font-style:NORMAL;font-weight:normal;">.05) was higher than that of other cancers (RR</text>
  <text x="354.786" y="309.152" svg_rhmargin="360.856" style="fill:#171615;font-family:FAHBDB+AdvOTb0c9bf5d;font-size:8.97px;font-style:NORMAL;font-weight:normal;">=</text>
  <text x="361.986,366.935,369.356,374.306,379.255,381.676,383.642,388.592,393.541,401.476,403.485,409.734,411.689,414.11,416.127,421.076,423.497,428.447" y="309.152" svg_rhmargin="433.396" style="fill:#171615;font-family:FAHBBN+AdvOT6e5d2ec0;font-size:8.97px;font-style:NORMAL;font-weight:normal;">1.14, 95% CI: 1.05</text>
  <text x="433.362" y="309.152" svg_rhmargin="437.845" style="fill:#171615;font-family:FAHBDC+AdvOT6e5d2ec0+20;font-size:8.97px;font-style:NORMAL;font-weight:normal;">–</text>
  <text svg_rhmargin="457.531" x="437.841,442.79,445.211,450.16,455.11,457.531" y="309.152" style="fill:#171615;font-family:FAHBBN+AdvOT6e5d2ec0;font-size:8.97px;font-style:NORMAL;font-weight:normal;">1.23; </text>
  <text svg_rhmargin="465.158" x="459.554,465.15799999999996" y="309.152" style="fill:#171615;font-family:FAHBDD+AdvOT1deab444.I;font-size:8.97px;font-style:NORMAL;font-weight:normal;">P </text>
  <text x="466.301" y="309.152" svg_rhmargin="473.205" style="fill:#171615;font-family:FAHBDE+AdvP4C4E51;font-size:8.97px;font-style:NORMAL;font-weight:normal;">&lt;</text>
  <text x="474.294,476.715,481.664,486.614,488.757,491.178,493.173,500.543,505.116,509.689,514.45,521.076,525.837,527.424,529.011,533.584,536.005,538.071,542.644,544.231,548.804,556.174,560.747,565.508,570.081,572.086,577.215,578.802" y="309.152" svg_rhmargin="583.931" style="fill:#171615;font-family:FAHBBN+AdvOT6e5d2ec0;font-size:8.97px;font-style:NORMAL;font-weight:normal;">.05). Meanwhile, elemene did</text>
  <text x="91.275,96.036,100.986,103.595,106.582,110.876,112.464,117.413,122.174" y="320.094" svg_rhmargin="123.761" style="fill:#171615;font-family:FAHBBN+AdvOT6e5d2ec0;font-size:8.97px;font-style:NORMAL;font-weight:normal;">not signi</text>
  <text x="123.76" y="320.094" svg_rhmargin="127.678" style="fill:#171615;font-family:FAHBDA+AdvOT6e5d2ec0+fb;font-size:8.97px;font-style:NORMAL;font-weight:normal;">ﬁ</text>
  <text x="127.672,132.245,136.818,141.579,144.188,145.775,149.881,152.9,154.487,159.248,163.821,166.618,171.191,175.764,180.059,184.632,187.651,190.261,195.022,199.595,202.561,204.148,208.91,213.482,215.069,220.198,224.771,229.532,234.105,238.678,242.97299999999998,245.987,250.936,253.178,256.192,260.764,265.525,270.098,274.393,277.00199999999995,280.002,285.13,289.703,291.29,296.05100000000004,299.05,303.622,308.384,313.51300000000003,316.511,318.752,323.325,327.432,332.004,334.80100000000004,337.77" y="320.094" svg_rhmargin="339.913" style="fill:#171615;font-family:FAHBBN+AdvOT6e5d2ec0;font-size:8.97px;font-style:NORMAL;font-weight:normal;">cantly increase the incidences of chest pain and fever (</text>
  <text svg_rhmargin="345.535" x="339.931,345.53499999999997" y="320.094" style="fill:#171615;font-family:FAHBDD+AdvOT1deab444.I;font-size:8.97px;font-style:NORMAL;font-weight:normal;">P </text>
  <text x="346.678" y="320.094" svg_rhmargin="353.582" style="fill:#171615;font-family:FAHBDE+AdvP4C4E51;font-size:8.97px;font-style:NORMAL;font-weight:normal;">&gt;</text>
  <text x="354.671,357.092,362.041,366.991,369.134" y="320.094" svg_rhmargin="371.555" style="fill:#171615;font-family:FAHBBN+AdvOT6e5d2ec0;font-size:8.97px;font-style:NORMAL;font-weight:normal;">.05).</text>
  <text svg_rhmargin="147.347" x="91.276,98.497,104.634,110.524,116.414,118.733,124.623,130.178,132.497,138.556,144.446,147.347" y="334.268" style="fill:#171615;font-family:FAHBBP+AdvOT91f5f621.B;font-size:7.97px;font-style:NORMAL;font-weight:normal;">Conclusion: </text>
  <text x="150.406,155.634,157.221,161.794,169.164,173.737,178.498,183.071,186.575,188.163,192.458,195.93,200.225,204.986,209.935,214.885,219.458,223.752,226.362,230.934,236.063,239.525,242.134,247.083,250.523,255.284,259.857,263.964,268.537,272.009,274.618,279.379,283.952,287.429,292.002,297.131,298.718,300.305,301.892,304.501,308.60699999999997,312.09,317.04,319.28200000000004,322.749,324.336,331.706,336.835,339.632,344.581,348.688,350.275,355.036,359.985,363.453,366.062,370.823,375.39599999999996,378.817,381.426,384.223,388.796,393.369,395.978,403.348,407.921,412.682,415.291,418.784,423.733,428.494,431.104,435.676,440.626,447.996,452.56899999999996,456.086,461.036,463.278,466.688,474.058,478.631,480.218,481.805,486.755,491.516,496.089,500.85,503.459,506.939,512.068,513.655,518.227,522.988,525.786,530.359,531.946,535.454,540.027,542.269,544.51,549.271,553.566,555.153,560.103,564.8639999999999,568.336,574.962,576.549,579.158" y="334.268" svg_rhmargin="583.919" style="fill:#171615;font-family:FAHBBN+AdvOT6e5d2ec0;font-size:8.97px;font-style:NORMAL;font-weight:normal;">Elemene is suggested to have the ability of improving the treatment outcome of malignant pleural effusion with</text>
  <text x="91.275,95.848,100.421,104.994,109.567,114.695,117.305,121.877,127.006,128.593,133.166,136.175,140.47,145.043,147.284,151.857,154.466,158.573" y="345.266" svg_rhmargin="160.994" style="fill:#171615;font-family:FAHBBN+AdvOT6e5d2ec0;font-size:8.97px;font-style:NORMAL;font-weight:normal;">acceptable safety.</text>
  <text svg_rhmargin="159.934" x="91.276,97.915,104.052,110.189,114.254,120.131,125.439,127.758,133.648,137.131,139.451,145.588,151.478,157.033,159.934" y="360.46" style="fill:#171615;font-family:FAHBBP+AdvOT91f5f621.B;font-size:7.97px;font-style:NORMAL;font-weight:normal;">Abbreviations: </text>
  <text svg_rhmargin="184.95" x="166.847,172.819,177.58,184.95000000000002" y="360.46" style="fill:#171615;font-family:FAHBBN+AdvOT6e5d2ec0;font-size:8.97px;font-style:NORMAL;font-weight:normal;">BLM </text>
  <text svg_rhmargin="194.631" x="188.561,194.631" y="360.46" style="fill:#171615;font-family:FAHBDB+AdvOTb0c9bf5d;font-size:8.97px;font-style:NORMAL;font-weight:normal;">= </text>
  <text svg_rhmargin="262.576" x="198.255,203.384,204.971,209.544,214.493,221.864,225.97,230.543,232.13,236.891,239.31199999999998,242.985,249.234,255.206,262.57599999999996" y="360.46" style="fill:#171615;font-family:FAHBBN+AdvOT6e5d2ec0;font-size:8.97px;font-style:NORMAL;font-weight:normal;">bleomycin, CBM </text>
  <text svg_rhmargin="272.301" x="266.231,272.301" y="360.46" style="fill:#171615;font-family:FAHBDB+AdvOTb0c9bf5d;font-size:8.97px;font-style:NORMAL;font-weight:normal;">= </text>
  <text svg_rhmargin="459.464" x="275.925,282.174,286.936,288.523,293.284,297.857,302.151,306.724,310.393,316.365,317.952,322.901,330.271,334.844,339.973,341.56,346.133,350.706,352.293,355.973,360.734,362.321,364.93,369.503,372.3,376.873,379.482,384.243,387.041,391.614,395.259,401.329,405.902,408.511,413.084,418.213,422.786,427.081,431.653,434.074,437.721,443.97,450.22,455.169,459.464" y="360.46" style="fill:#171615;font-family:FAHBBN+AdvOT6e5d2ec0;font-size:8.97px;font-style:NORMAL;font-weight:normal;">Chinese Biomedical Literature Database, CCTs </text>
  <text svg_rhmargin="469.196" x="463.126,469.19599999999997" y="360.46" style="fill:#171615;font-family:FAHBDB+AdvOTb0c9bf5d;font-size:8.97px;font-style:NORMAL;font-weight:normal;">= </text>
  <text svg_rhmargin="574.225" x="472.82,477.393,478.98,480.567,485.328,486.915,491.488,496.061,497.64799999999997,501.279,505.852,510.802,515.563,518.172,520.969,525.919,527.506,529.093,533.666,538.7950000000001,542.494,545.103,547.901,549.488,554.06,555.648,559.942,562.363,566.021,572.27,574.225" y="360.46" style="fill:#171615;font-family:FAHBBN+AdvOT6e5d2ec0;font-size:8.97px;font-style:NORMAL;font-weight:normal;">clinical controlled trials, CI </text>
  <text x="577.873" y="360.46" svg_rhmargin="583.943" style="fill:#171615;font-family:FAHBDB+AdvOTb0c9bf5d;font-size:8.97px;font-style:NORMAL;font-weight:normal;">=</text>
  <text x="91.277,95.849,100.799" y="370.438" svg_rhmargin="105.56" style="fill:#171615;font-family:FAHBBN+AdvOT6e5d2ec0;font-size:8.97px;font-style:NORMAL;font-weight:normal;">con</text>
  <text x="105.563" y="370.438" svg_rhmargin="109.481" style="fill:#171615;font-family:FAHBDA+AdvOT6e5d2ec0+fb;font-size:8.97px;font-style:NORMAL;font-weight:normal;">ﬁ</text>
  <text svg_rhmargin="177.821" x="109.475,114.604,119.177,123.938,128.511,133.084,134.816,136.403,141.164,143.773,148.346,151.144,155.25,159.823,161.41,163.831,165.599,171.849,177.82" y="370.438" style="fill:#171615;font-family:FAHBBN+AdvOT6e5d2ec0;font-size:8.97px;font-style:NORMAL;font-weight:normal;">dence interval, CR </text>
  <text svg_rhmargin="185.674" x="179.604,185.674" y="370.438" style="fill:#171615;font-family:FAHBDB+AdvOTb0c9bf5d;font-size:8.97px;font-style:NORMAL;font-weight:normal;">= </text>
  <text svg_rhmargin="281.875" x="187.428,192.001,196.951,204.321,209.45,211.037,215.61,218.219,222.792,224.561,227.358,231.931,236.226,241.354,246.304,251.065,255.36,259.933,262.354,264.131,270.201,276.271,281.875" y="370.438" style="fill:#171615;font-family:FAHBBN+AdvOT6e5d2ec0;font-size:8.97px;font-style:NORMAL;font-weight:normal;">complete response, DDP </text>
  <text svg_rhmargin="289.65" x="283.58,289.65" y="370.438" style="fill:#171615;font-family:FAHBDB+AdvOTb0c9bf5d;font-size:8.97px;font-style:NORMAL;font-weight:normal;">= </text>
  <text svg_rhmargin="338.867" x="291.404,295.977,297.564,301.859,306.988,308.575,313.148,315.757,317.344,322.105,324.526,326.269,332.895,338.866" y="370.438" style="fill:#171615;font-family:FAHBBN+AdvOT6e5d2ec0;font-size:8.97px;font-style:NORMAL;font-weight:normal;">cisplatin, OR </text>
  <text svg_rhmargin="346.741" x="340.671,346.741" y="370.438" style="fill:#171615;font-family:FAHBDB+AdvOTb0c9bf5d;font-size:8.97px;font-style:NORMAL;font-weight:normal;">= </text>
  <text svg_rhmargin="408.958" x="348.437,353.387,358.515,363.644,367.939,369.696,372.494,377.067,379.676,381.263,386.212,388.633,390.389,397.015,402.986,408.957" y="370.438" style="fill:#171615;font-family:FAHBBN+AdvOT6e5d2ec0;font-size:8.97px;font-style:NORMAL;font-weight:normal;">odds ratio, ORR </text>
  <text svg_rhmargin="416.813" x="410.743,416.813" y="370.438" style="fill:#171615;font-family:FAHBDB+AdvOTb0c9bf5d;font-size:8.97px;font-style:NORMAL;font-weight:normal;">= </text>
  <text svg_rhmargin="511.949" x="418.567,423.517,427.623,432.196,434.993,439.566,441.153,442.74,444.475,447.273,451.846,456.14,461.269,466.219,470.98,475.275,479.84799999999996,481.608,484.406,488.979,491.588,496.161,498.582,500.373,505.977,511.948" y="370.438" style="fill:#171615;font-family:FAHBBN+AdvOT6e5d2ec0;font-size:8.97px;font-style:NORMAL;font-weight:normal;">overall response rate, PR </text>
  <text svg_rhmargin="519.768" x="513.698,519.768" y="370.438" style="fill:#171615;font-family:FAHBDB+AdvOTb0c9bf5d;font-size:8.97px;font-style:NORMAL;font-weight:normal;">= </text>
  <text x="521.464,526.593,531.166,533.963,536.573,538.16,542.732,544.319,546.125,548.923,553.496,557.79,562.919,567.869,572.63,576.924,581.497" y="370.438" svg_rhmargin="583.918" style="fill:#171615;font-family:FAHBBN+AdvOT6e5d2ec0;font-size:8.97px;font-style:NORMAL;font-weight:normal;">partial response,</text>
  <text svg_rhmargin="109.291" x="91.277,97.904,104.53,109.291" y="380.359" style="fill:#171615;font-family:FAHBBN+AdvOT6e5d2ec0;font-size:8.97px;font-style:NORMAL;font-weight:normal;">QOL </text>
  <text svg_rhmargin="118.324" x="112.254,118.32400000000001" y="380.359" style="fill:#171615;font-family:FAHBDB+AdvOTb0c9bf5d;font-size:8.97px;font-style:NORMAL;font-weight:normal;">= </text>
  <text svg_rhmargin="195.741" x="121.325,126.454,131.215,135.788,137.375,138.962,141.571,145.677,148.707,153.657,155.899,158.856,160.443,162.03,164.271,168.844,171.265,174.276,180.247,186.497,191.446,195.74099999999999" y="380.359" style="fill:#171615;font-family:FAHBBN+AdvOT6e5d2ec0;font-size:8.97px;font-style:NORMAL;font-weight:normal;">quality of life, RCTs </text>
  <text svg_rhmargin="204.838" x="198.768,204.838" y="380.359" style="fill:#171615;font-family:FAHBDB+AdvOTb0c9bf5d;font-size:8.97px;font-style:NORMAL;font-weight:normal;">= </text>
  <text svg_rhmargin="331.18" x="207.782,210.579,215.152,219.913,225.042,229.991,237.362,238.949,243.055,247.628,252.75699999999998,255.799,260.372,265.321,270.083,272.692,275.489,280.439,282.026,283.613,288.185,293.314,296.333,298.942,301.74,303.327,307.9,309.487,313.782,316.203,319.237,325.208,331.17900000000003" y="380.359" style="fill:#171615;font-family:FAHBBN+AdvOT6e5d2ec0;font-size:8.97px;font-style:NORMAL;font-weight:normal;">randomized controlled trials, RR </text>
  <text svg_rhmargin="340.221" x="334.151,340.221" y="380.359" style="fill:#171615;font-family:FAHBDB+AdvOTb0c9bf5d;font-size:8.97px;font-style:NORMAL;font-weight:normal;">= </text>
  <text x="343.222,346.02,347.607,351.902,356.385,359.38,362.177,366.75,369.359,370.946,375.896" y="380.359" svg_rhmargin="378.317" style="fill:#171615;font-family:FAHBBN+AdvOT6e5d2ec0;font-size:8.97px;font-style:NORMAL;font-weight:normal;">risk ratio.</text>
  <text svg_rhmargin="142.36" x="91.276,98.162,104.14,109.28,117.665,123.702,127.767,133.904,139.459,142.36" y="395.326" style="fill:#171615;font-family:FAHBBP+AdvOT91f5f621.B;font-size:7.97px;font-style:NORMAL;font-weight:normal;">Keywords: </text>
  <text x="145.02,149.593,154.166,158.927,163.5,168.073,170.87,173.291,176.257,180.83,182.417,186.99,194.36,198.933,203.694,208.267,210.688,213.73,221.1,225.673,227.26,228.847,233.797,238.558,243.131,247.892,250.501,253.527,258.656,260.243,264.816,269.577,272.374,276.947,278.534,281.532,286.105,288.347,290.588,295.349,299.644,301.231,306.181,310.942,313.363,316.34,323.711,328.284,330.893,335.466,338.729,343.302,348.063,352.636,354.223,358.33,362.625,364.212,368.506,370.92699999999996,373.938,376.547,379.345,383.918,389.046,390.633,393.243,394.83,399.779,404.54,409.113,410.7,413.735,419.985,424.746,426.333,431.094,435.667,439.962,444.53499999999997,447.523,454.893,459.466,464.595,466.182,470.755,472.342,477.103,481.676,484.712" y="395.326" svg_rhmargin="487.133" style="fill:#171615;font-family:FAHBBN+AdvOT6e5d2ec0;font-size:8.97px;font-style:NORMAL;font-weight:normal;">cancer, elemene, malignant pleural effusion, meta-analysis, traditional Chinese medicine ;</text>
  <text x="85.039,90.955,93.908,98.646,101.599,107.514,111.158,115.095,120.812,126.727,132.643,138.16,141.804,144.558,150.275" y="433.934" svg_rhmargin="156.19" style="fill:#171615;font-family:FAHBBK+AdvOTfbba3ace.B;font-size:9.46px;font-style:NORMAL;font-weight:normal;">1. Introduction</text>
  <text x="85.039,94.006,98.489,100.91,103.331,107.814,112.763,117.246,122.196,125.083,126.821,131.77,134.191,138.109,143.059,146.511,150.994,153.415,155.109,159.027,161.915,164.802,169.751,173.203,175.624,180.574,185.52300000000002,187.31,189.731,193.183,194.85,199.799,202.686,205.573,209.492,214.441,216.223,221.172,223.593,228.076,232.559,237.509,242.458,245.91,249.828,254.77700000000002,256.473,261.423,265.906,269.358,273.276,278.225,279.944,284.893,289.842,291.566,296.049,300.532,305.015,308.467,312.385,315.837,319.289,321.71,326.194" y="449.921" svg_rhmargin="330.112" style="fill:#171615;font-family:FAHBDF+AdvOTbc475f09;font-size:8.97px;font-style:NORMAL;font-weight:normal;">Malignant pleural effusion is often diagnosed based on aggressive</text>
  <text x="85.039,89.989,92.41,96.328,101.277,104.729,109.213,111.634,113.498,117.417,120.304,123.191,128.14,131.592,134.013,138.963,143.912,145.812,150.761,154.213,156.073,161.023,163.443,167.362,172.311,175.763,180.246,182.667,184.532,189.482,191.902,196.852,201.801,205.253,209.736" y="460.863" svg_rhmargin="212.157" style="fill:#171615;font-family:FAHBDF+AdvOTbc475f09;font-size:8.97px;font-style:NORMAL;font-weight:normal;">pleural effusion or pleural biopsy.</text>
  <text svg_rhmargin="220.245" x="212.202,214.368,218.08,220.245" y="460.863" style="fill:#171615;font-family:FAHBDF+AdvOTbc475f09;font-size:5.98px;font-style:NORMAL;font-weight:normal;">[1] </text>
  <text x="222.123,228.005,232.954,236.872,238.734,243.683,247.601,251.52,256.469,259.921,263.373,267.291,272.241,276.159,280.077,281.933,286.882,289.769,291.627,298.997,303.48,305.901,308.322,312.805,317.755,322.238,327.187" y="460.863" svg_rhmargin="330.074" style="fill:#171615;font-family:FAHBDF+AdvOTbc475f09;font-size:8.97px;font-style:NORMAL;font-weight:normal;">The occurrence of malignant</text>
  <text x="85.039,89.988,92.409,96.327,101.277,104.729,109.212,111.63300000000001,115.368,119.286,122.174,125.061,130.01,133.462,135.883,140.833,145.782,149.497,151.918,155.37,159.021,163.504,165.925,173.295,178.244,181.696,184.583,188.33,192.813,196.265,199.717,204.666,208.585,211.005,215.489,218.376,222.294,227.24300000000002,230.962,237.866,240.287,243.174,248.12300000000002,251.825,256.308,261.257,265.74,270.223,275.173,279.091,283.009,287.958,291.622,298.992,303.475,305.896,308.317,312.8,317.749,322.232,327.182" y="471.805" svg_rhmargin="330.069" style="fill:#171615;font-family:FAHBDF+AdvOTbc475f09;font-size:8.97px;font-style:NORMAL;font-weight:normal;">pleural effusion is almost associated with advanced malignant</text>
  <text x="85.039,87.926,92.875,100.246,105.195,108.647,112.099,114.52000000000001,121.604,126.087,128.975,131.862,135.78,139.698,142.585,145.006,149.956,154.439,161.515,166.464,171.414,175.897,178.318,180.739,183.626,188.109,195.246,200.196,203.083,210.1,212.521,214.942,217.829,221.747,228.865,231.752,239.122,246.492,251.908,254.795,261.859,266.342,271.291,276.24,283.345,286.797,290.715,295.664,299.116,303.035,306.487,310.405,315.354,318.242,320.662,325.612" y="482.746" svg_rhmargin="330.095" style="fill:#171615;font-family:FAHBDF+AdvOTbc475f09;font-size:8.97px;font-style:NORMAL;font-weight:normal;">tumors, affecting quality of life (QOL) and representing</text>
  <text x="85.039,89.988,92.409,96.892,101.841,105.504,112.875,117.824,121.276,124.163,128.646,131.067,133.488,136.375,140.859" y="493.744" svg_rhmargin="143.28" style="fill:#171615;font-family:FAHBDF+AdvOTbc475f09;font-size:8.97px;font-style:NORMAL;font-weight:normal;">high mortality.</text>
  <text svg_rhmargin="156.892" x="143.32,145.486,149.198,151.015,154.727,156.892" y="493.745" style="fill:#171615;font-family:FAHBDF+AdvOTbc475f09;font-size:5.98px;font-style:NORMAL;font-weight:normal;">[2,3] </text>
  <text x="160.611,169.577,174.06,177.512,180.964,183.385,187.869,191.787,195.419,200.368,202.789,206.708,211.657,215.109,219.592,222.013,225.692,229.61,232.497,235.385,240.334,243.786,246.207,251.156,256.106,259.558,263.221,270.592,275.075,279.558,283.233,288.183,292.101,296.019,300.502,303.954,306.375,311.325,316.274,320.757,323.178,325.599" y="493.745" svg_rhmargin="330.082" style="fill:#171615;font-family:FAHBDF+AdvOTbc475f09;font-size:8.97px;font-style:NORMAL;font-weight:normal;">Massive pleural effusions may occasionally</text>
  <text x="85.039,88.958,93.441,98.39,101.842,105.76,111.458,114.91,117.331,121.814,126.763" y="504.686" svg_rhmargin="129.184" style="fill:#171615;font-family:FAHBDF+AdvOTbc475f09;font-size:8.97px;font-style:NORMAL;font-weight:normal;">cause signi</text>
  <text x="129.203" y="504.686" svg_rhmargin="134.152" style="fill:#171615;font-family:FAHBDG+AdvOTbc475f09+fb;font-size:8.97px;font-style:NORMAL;font-weight:normal;">ﬁ</text>
  <text x="134.192,138.11,142.593,147.543,150.43,156.131,158.552,163.502,168.451,172.934,178.638,186.008,189.926,194.876,197.297,201.78,205.232,208.119,210.54,215.489,219.972,222.393,228.129,232.047,236.997,244.367,249.316,252.768,256.687,260.139,263.591,266.012,270.961,275.91,278.331,284.083,287.535,291.454,294.906,299.855,302.276,305.163,307.584,312.533,317.016,322.747,325.168" y="504.686" svg_rhmargin="330.117" style="fill:#171615;font-family:FAHBDF+AdvOTbc475f09;font-size:8.97px;font-style:NORMAL;font-weight:normal;">cant lung mediastinal compression, resulting in</text>
  <text x="85.039,88.491,92.409,95.861,100.81,103.231,106.683,111.166,114.053,119.003,122.455,126.938,129.768,134.251,139.2,144.149,146.889,150.807,153.228,156.68,160.598,165.548,167.969,172.452,175.339,180.288,183.74,188.223,191.052,193.939,198.422,200.843,203.264,208.213,211.665,215.583,218.004,220.814,227.718,232.668,235.089,239.007,243.95600000000002,246.779,251.728,254.615,257.503,261.421,266.37,269.172,274.122,278.04,281.958,286.90700000000004,289.694,293.613,300.983,304.901,308.353,312.836,316.755,321.704,325.622" y="515.6279999999999" svg_rhmargin="330.105" style="fill:#171615;font-family:FAHBDF+AdvOTbc475f09;font-size:8.97px;font-style:NORMAL;font-weight:normal;">respiratory and circulatory failure, which often need emergency</text>
  <text x="85.039,87.926,91.378,95.296,99.779,102.666,110.037,113.955,118.904,121.791,125.243" y="526.626" svg_rhmargin="127.664" style="fill:#171615;font-family:FAHBDF+AdvOTbc475f09;font-size:8.97px;font-style:NORMAL;font-weight:normal;">treatments.</text>
  <text svg_rhmargin="141.302" x="127.729,129.895,133.608,135.424,139.137,141.302" y="433.197" style="fill:#171615;font-family:FAHBDF+AdvOTbc475f09;font-size:5.98px;font-style:NORMAL;font-weight:normal;">[2,3] </text>
  <text x="354.047,359.929,364.878,368.796,374.966,378.885,383.834,388.317,391.769,396.252,400.171,403.058,406.976,410.428,412.849,416.301,419.188,421.609,425.527,428.979,435.229,442.599,446.517,451.467,454.354,456.775,461.724,466.674,470.592,475.541,481.716,486.199,491.148,496.098,500.581,504.499,510.685,514.137,519.086,523.569,528.053,531.971,535.423,538.31,544.529,549.012,555.187,560.137,564.62,567.041,569.462,571.883,576.366,579.253,581.674,586.157" y="433.197" svg_rhmargin="590.075" style="fill:#171615;font-family:FAHBDF+AdvOTbc475f09;font-size:8.97px;font-style:NORMAL;font-weight:normal;">The characteristics mentioned above suggest a palliative</text>
  <text x="345.09,347.977,351.429,355.347,359.83,362.717,370.088,374.006,378.955,381.842,384.66,388.112,392.03,396.513,398.934,406.304,410.223,415.172,417.593,420.375,424.858,428.31,431.09,433.977,438.927,442.845,445.659,449.111,454.061,457.513,461.996,464.417,468.9,473.383,475.804,478.597,483.546,486.433,489.255,492.142,497.092,501.01,504.462,508.38,511.195,516.144,520.628,523.515,525.936,529.854,534.803,537.69,541.142,543.906,547.358,551.841,556.79,561.274,565.192,568.644,571.457,574.345,577.797,582.746" y="444.196" svg_rhmargin="590.116" style="fill:#171615;font-family:FAHBDF+AdvOTbc475f09;font-size:8.97px;font-style:NORMAL;font-weight:normal;">treatment regimen, as the survival of these patients ranges from</text>
  <text x="345.09,350.039,353.424,360.794,365.744,370.693,373.58,378.53,381.98199999999997,385.398,388.285,393.23400000000004,396.623,401.572,404.957,409.44,413.358,417.841,421.293,423.714,427.123,432.073,435.991,439.443,444.392,446.813,449.701,453.619,457.056,460.975,465.924,470.874,474.326,476.746,481.696,485.614,489.066,493.549,498.499,500.92,504.838,508.249,512.732,517.681,522.164,526.648,531.597,535.515,539.433,542.885,546.288,550.771,554.69,559.639,562.06,565.978,570.461,574.38,579.329,582.741,585.162" y="455.137" svg_rhmargin="590.111" style="fill:#171615;font-family:FAHBDF+AdvOTbc475f09;font-size:8.97px;font-style:NORMAL;font-weight:normal;">4 months to 1 year, despite considerable advances achieved in</text>
  <text x="345.09,348.542,352.46,356.378,360.297,365.246,368.133,372.528,377.012,380.93,385.413,388.865,392.317" y="466.079" svg_rhmargin="394.738" style="fill:#171615;font-family:FAHBDF+AdvOTbc475f09;font-size:8.97px;font-style:NORMAL;font-weight:normal;">recent years.</text>
  <text svg_rhmargin="408.325" x="394.753,396.919,400.631,402.448,406.16,408.32500000000005" y="466.079" style="fill:#171615;font-family:FAHBDF+AdvOTbc475f09;font-size:5.98px;font-style:NORMAL;font-weight:normal;">[2,3] </text>
  <text x="412.724,419.162,423.08,426.999,431.948,435.4,438.852,442.77,447.72,451.638,455.556,459.948,464.897,467.784,472.137,479.507,483.99,486.411,488.832,493.315,498.265,502.748,507.697,510.584,514.995,519.944,522.365,526.283,531.233,534.685,539.168,541.589,546.005,549.923,552.81,555.697,560.647,564.099,566.52,571.469,576.419,579.871,584.271,586.692" y="466.079" svg_rhmargin="590.144" style="fill:#171615;font-family:FAHBDF+AdvOTbc475f09;font-size:8.97px;font-style:NORMAL;font-weight:normal;">Recurrence of malignant pleural effusions is</text>
  <text x="345.09,349.008,353.957,361.328,368.698,373.647,378.596,386.304,389.191,394.141,396.562,398.983,403.932,410.836,413.257,418.206,422.689,430.41,432.831,437.781,440.202,443.089,445.51,449.993,452.414,460.173,463.06,468.01,472.959,476.411,480.894,484.813,488.731,493.68,496.567,500.486,503.938,506.359,509.811,512.232,519.982,525.398,529.316,532.768,535.189,540.138,544.056,547.508,549.9290000000001,557.625,561.077,564.995,569.945,573.863,578.346,581.233,585.152" y="477.02" svg_rhmargin="590.101" style="fill:#171615;font-family:FAHBDF+AdvOTbc475f09;font-size:8.97px;font-style:NORMAL;font-weight:normal;">common following initial thoracentesis. Besides, repeated</text>
  <text x="345.09,349.008,353.957,356.845,360.297,364.78,368.698,371.585,374.006,378.955,383.904,386.588,391.537,394.424,397.132,402.081,404.502,408.421,413.37,416.822,421.305,423.726,426.497,430.416,433.303,436.19,441.139,444.591,447.012,451.962,456.911,459.606,466.51,468.93,471.351,473.772,476.5,480.983,484.901,488.82,492.738,495.159,499.077,502.529,507.012,509.899,513.817,516.58,519.467,524.417,528.335,531.036,533.457,538.407,541.859,545.311,548.044,552.993,555.88,558.588,563.071,565.492,570.442,575.391,582.761,585.182" y="488.019" svg_rhmargin="590.131" style="fill:#171615;font-family:FAHBDF+AdvOTbc475f09;font-size:8.97px;font-style:NORMAL;font-weight:normal;">extraction of pleural effusion will accelerate the loss of albumin</text>
  <text x="345.09,349.573,354.522,359.471,361.416,365.335,369.818,374.767,378.219,382.137,384.15,388.068,390.489,394.407,398.325,401.212,404.665,409.614,412.035,416.518,419.405,423.323,425.364,427.785,435.155,440.105,444.588,447.009,451.492,456.441,460.36,464.278,466.295,468.716,473.665,475.706,479.625,484.108,489.057,492.975,496.894,500.346,502.352,507.301,511.784,514.671,517.092,521.01,525.96,528.847,532.299" y="498.961" svg_rhmargin="534.72" style="fill:#171615;font-family:FAHBDF+AdvOTbc475f09;font-size:8.97px;font-style:NORMAL;font-weight:normal;">and cause electrolyte imbalance in cancer patients.</text>
  <text svg_rhmargin="548.373" x="534.727,536.893,540.606,542.495,546.208,548.3729999999999" y="498.961" style="fill:#171615;font-family:FAHBDF+AdvOTbc475f09;font-size:5.98px;font-style:NORMAL;font-weight:normal;">[4,5] </text>
  <text x="550.375,556.257,561.206,565.124,568.576,572.495,575.382,580.331,583.783,587.701" y="498.961" svg_rhmargin="590.122" style="fill:#171615;font-family:FAHBDF+AdvOTbc475f09;font-size:8.97px;font-style:NORMAL;font-weight:normal;">Therefore,</text>
  <text x="345.089,349.007,351.894,354.781,358.699,362.618,365.505,367.926,372.409,376.327,379.613,383.532,388.481,393.43,396.318,399.77,404.719,407.14,410.453,415.402,418.289,421.565,428.935,433.418,435.839,438.26,442.743,447.693,452.176,457.125,460.012,463.29,468.239,470.66,474.578,479.528,482.98,487.463,489.884,493.166,497.084,499.972,502.859,507.808,511.26,513.681,518.63,523.579,526.897,530.816,535.299,540.2479999999999,543.508,545.929,553.3,558.249,561.701,566.65,571.134,575.052,578.373,581.26,586.209" y="509.902" svg_rhmargin="590.127" style="fill:#171615;font-family:FAHBDF+AdvOTbc475f09;font-size:8.97px;font-style:NORMAL;font-weight:normal;">effective control of malignant pleural effusion can improve the</text>
  <text x="345.089,349.572,353.49,358.439,362.358,365.81,370.293,372.714,376.325,380.244,385.193,390.142,395.092,397.513,400.4,402.821,407.77,412.719,416.406,421.355,424.242,427.857,432.807,437.29,440.177,442.598,446.516,451.466,454.353,457.805,460.226,463.856,468.339,473.289,478.238,481.884,484.771,489.72,494.67,498.122,501.783,504.204,507.091,510.74,513.161,516.6129999999999,520.208,523.095,528.044,531.962,535.628,542.998,547.481,549.902,554.851,558.475,561.362,566.311,570.23,575.179,578.631,582.285,587.234" y="520.9" svg_rhmargin="590.121" style="fill:#171615;font-family:FAHBDF+AdvOTbc475f09;font-size:8.97px;font-style:NORMAL;font-weight:normal;">general condition of patients, and thus it is the main focus of</text>
  <text x="345.089,347.976,352.925,356.843,360.295,364.779,369.728,374.211,378.707,381.594,386.543,389.995,394.524,399.007,403.957,408.44,412.923,417.873,421.791,425.709,430.658,435.172,439.09,443.574,448.523,452.441,456.359,459.811,464.368,469.318,473.801,476.688,479.109,483.027,487.976,490.864,494.316,498.836,505.741,508.161,511.049,515.9979999999999,520.549,527.919,532.403,534.824,537.244,541.728,546.677,551.16,556.11,558.997,563.521,568.471,570.891,574.81,579.759,583.211,587.694" y="531.842" svg_rhmargin="590.115" style="fill:#171615;font-family:FAHBDF+AdvOTbc475f09;font-size:8.97px;font-style:NORMAL;font-weight:normal;">therapy for advanced cancer patients with malignant pleural</text>
  <text x="345.089,349.007,351.894,354.781,359.731,363.183,365.603,370.553,375.502" y="542.784" svg_rhmargin="377.923" style="fill:#171615;font-family:FAHBDF+AdvOTbc475f09;font-size:8.97px;font-style:NORMAL;font-weight:normal;">effusion.</text>
  <text svg_rhmargin="385.959" x="377.915,380.081,383.794,385.959" y="542.784" style="fill:#171615;font-family:FAHBDF+AdvOTbc475f09;font-size:5.98px;font-style:NORMAL;font-weight:normal;">[6] </text>
  <text x="388.97,395.408,398.295,401.272,406.221,409.673,413.591,417.043,420.962,425.911,428.798,431.219,434.209,437.097,442.046,445.964,448.949,452.867,457.817,465.187,472.557,477.507,482.456,484.877,489.36,492.317,497.267,500.719,504.637,509.586,512.613,516.531,518.952,521.373,526.322,528.743,532.661,537.144,539.565,542.546,545.433,548.885,552.803,557.286,560.174,567.544,571.462,576.411,579.2979999999999,582.286,587.236" y="542.784" svg_rhmargin="590.123" style="fill:#171615;font-family:FAHBDF+AdvOTbc475f09;font-size:8.97px;font-style:NORMAL;font-weight:normal;">At present, the commonly used clinical treatment of</text>
  <text x="345.09,352.46,356.943,359.364,361.785,366.268,371.218,375.701,380.65,383.537,389.536,394.485,396.906,400.824,405.774,409.226,413.709,416.13,422.133,426.051,428.938,431.825,436.775,440.227,442.648,447.597,452.546,458.529,460.95,465.899,469.817,472.238,477.188,482.137,486.055,489.507,495.548,499.0,503.483,506.935,509.822,513.741,521.111,523.532,527.45,533.418,537.336,542.286,546.204,553.574,558.524,561.411,566.36,570.278,573.73,578.214,583.163,587.646" y="553.782" svg_rhmargin="590.067" style="fill:#171615;font-family:FAHBDF+AdvOTbc475f09;font-size:8.97px;font-style:NORMAL;font-weight:normal;">malignant pleural effusion includes systemic chemotherapy,</text>
  <text x="345.09,350.039,352.46,357.41,360.862,364.78,367.667,370.088,374.006,376.42699999999996,382.223,386.706,391.655,396.604,402.405,405.292,410.242,415.191,418.643,423.126,427.044,429.465,433.383,439.197,441.618,446.568,448.989,452.907,456.825,459.712,462.133,467.083,472.03200000000004,477.805,482.754,485.641,491.467,496.417,499.869,504.818,509.301,512.753,518.509,521.396,524.848,529.797,533.716,538.665,544.473,548.957,552.409,558.193,562.111,564.532,567.984,572.933,575.354,579.837,582.725,585.146" y="564.7239999999999" svg_rhmargin="590.095" style="fill:#171615;font-family:FAHBDF+AdvOTbc475f09;font-size:8.97px;font-style:NORMAL;font-weight:normal;">diuretic, and thoracic injection of drugs (such as cisplatin</text>
  <text x="345.09,347.977,354.881,361.785,366.734,369.622,372.043,377.801,382.75,385.171,389.089,394.039,401.409,405.892,409.81,412.231,417.18,422.927,425.814,431.23,436.646,445.612,448.499,454.22,458.704,463.653,468.60200000000003,474.346,477.233,480.685,485.169,490.118,492.539,495.426,497.847,502.796,507.746,512.229,514.6500000000001,520.436,526.873,531.823,534.244,539.193,543.111,546.563,550.481,556.265,563.635,567.554,572.503,574.924,578.842,581.263,586.212" y="575.6659999999999" svg_rhmargin="590.13" style="fill:#171615;font-family:FAHBDF+AdvOTbc475f09;font-size:8.97px;font-style:NORMAL;font-weight:normal;">(DDP), bleomycin [BLM] and traditional Chinese medicine</text>
  <text x="345.09,350.039,353.491,357.41,362.359,366.842,370.294,374.777,377.664,380.085,385.035,389.984,393.436,396.323,399.343,402.23,407.18,410.632,413.629,418.579,420.999,424.918,429.867,433.319,438.269,443.218,447.136,450.588,453.009,456.461,459.435,463.918,466.806,469.693,473.611,477.063,480.071,482.958,487.908,492.857,496.309,500.792,504.711,507.132,511.05,514.086,518.004,520.425,525.374,528.826,532.745,537.694,540.674,545.624,549.076,553.559,555.98,560.929,565.412,569.896,573.814" y="586.607" svg_rhmargin="576.235" style="fill:#171615;font-family:FAHBDF+AdvOTbc475f09;font-size:8.97px;font-style:NORMAL;font-weight:normal;">preparations) for pleurodesis after thoracic closed drainage.</text>
  <text x="576.283,578.449,582.162,583.978,587.691" y="582.639" svg_rhmargin="589.856" style="fill:#171615;font-family:FAHBDF+AdvOTbc475f09;font-size:5.98px;font-style:NORMAL;font-weight:normal;">[6,7]</text>
  <text x="354.047,359.463,361.884,365.802,373.172,377.09,382.04,385.958,388.379,390.726,395.675,397.983,402.932,405.819,408.131,411.018,415.967,419.885,422.247,428.685,433.635,436.056,441.005,444.923,448.375,452.293,454.618,461.988,465.906,470.856,473.277,477.195,479.616,484.565,488.483,490.843,494.762,499.711,502.598,506.05,510.533,514.452,517.339,520.791,523.2120000000001,525.538,527.959,531.411,533.759,537.677,542.626,545.513,548.966,553.449,557.367,560.254,564.172,569.121,571.458,574.346,577.798,582.747" y="597.606" svg_rhmargin="590.117" style="fill:#171615;font-family:FAHBDF+AdvOTbc475f09;font-size:8.97px;font-style:NORMAL;font-weight:normal;">Elemene, 1 of the Chinese medicine extracts, is extracted from</text>
  <text x="345.09,347.977,352.926,356.844,361.53,366.014,368.434,373.384,377.867,381.785,385.237,389.933,394.882,397.303,401.786,406.736,409.623,414.311,417.198,421.116,428.486,433.436,437.354,440.806,445.289,448.176,453.126,456.578,460.496,465.219,468.107,473.056,476.508,483.878,487.797,491.249,493.669,497.588,500.009,504.789,508.708,513.657,518.607,521.027,525.977,528.398,531.285,533.706,538.655,543.1379999999999,547.818,552.301,557.25,560.138,562.558,565.446,569.364,573.847,578.796,582.715,586.633" y="608.548" svg_rhmargin="590.085" style="fill:#171615;font-family:FAHBDF+AdvOTbc475f09;font-size:8.97px;font-style:NORMAL;font-weight:normal;">the ginger plant temperature turmeric, exhibiting anti-cancer</text>
  <text x="345.09,349.573,353.491,356.378,358.799,363.282,365.703,368.59,373.074" y="619.489" svg_rhmargin="375.495" style="fill:#171615;font-family:FAHBDF+AdvOTbc475f09;font-size:8.97px;font-style:NORMAL;font-weight:normal;">activity.</text>
  <text svg_rhmargin="383.577" x="375.534,377.7,381.412,383.577" y="619.49" style="fill:#171615;font-family:FAHBDF+AdvOTbc475f09;font-size:5.98px;font-style:NORMAL;font-weight:normal;">[8] </text>
  <text x="390.501,396.939,400.857,404.775,409.724,413.176,418.126,420.547,425.496,429.979,436.931,439.818,444.767,451.728,454.615,459.565,463.483,470.436,475.386,478.838,483.787,488.27,495.21,497.631,502.58,506.032,508.92,512.372,517.321,521.239,524.126,526.547,531.497,536.4459999999999,543.398,548.347,551.2339999999999,558.195,563.61,566.031,569.95,577.32,581.238,586.188" y="619.49" svg_rhmargin="590.106" style="fill:#171615;font-family:FAHBDF+AdvOTbc475f09;font-size:8.97px;font-style:NORMAL;font-weight:normal;">According to the drug instruction of Elemene</text>
  <text svg_rhmargin="478.668" x="345.089,347.976,352.926,355.347,359.265,363.183,366.07,368.491,373.441,378.39,380.811,384.49,386.911,389.798,393.447,397.365,402.315,407.264,410.151,414.634,417.055,422.005,425.457,429.106,433.589,437.213,444.584,447.005,451.954,454.841,459.79,463.243,467.161,470.832,475.781,478.668" y="630.488" style="fill:#171615;font-family:FAHBDF+AdvOTbc475f09;font-size:8.97px;font-style:NORMAL;font-weight:normal;">Injection, it contains a mixture of </text>
  <text x="482.286" y="630.488" svg_rhmargin="487.791" style="fill:#171615;font-family:FAHBDH+AdvP7DA6;font-size:8.97px;font-style:NORMAL;font-weight:normal;">b</text>
  <text x="487.785,490.672" y="630.488" svg_rhmargin="493.093" style="fill:#171615;font-family:FAHBDF+AdvOTbc475f09;font-size:8.97px;font-style:NORMAL;font-weight:normal;">-,</text>
  <text x="493.115" y="630.488" svg_rhmargin="498.064" style="fill:#171615;font-family:FAHBDH+AdvP7DA6;font-size:8.97px;font-style:NORMAL;font-weight:normal;">g</text>
  <text svg_rhmargin="521.442" x="498.103,500.991,503.412,507.061,511.544,516.493,521.442" y="630.488" style="fill:#171615;font-family:FAHBDF+AdvOTbc475f09;font-size:8.97px;font-style:NORMAL;font-weight:normal;">-, and </text>
  <text x="525.033" y="630.488" svg_rhmargin="529.516" style="fill:#171615;font-family:FAHBDH+AdvP7DA6;font-size:8.97px;font-style:NORMAL;font-weight:normal;">d</text>
  <text x="529.568,532.455,537.871,540.292,544.21,551.58,555.499,560.448,564.366,566.787,570.442,575.857,580.341,583.793,586.214" y="630.488" svg_rhmargin="590.132" style="fill:#171615;font-family:FAHBDF+AdvOTbc475f09;font-size:8.97px;font-style:NORMAL;font-weight:normal;">-Elemene. Basic</text>
  <text x="345.088,349.571,354.521,359.47,361.585,365.504,367.924,370.345,375.295,377.716,381.634,386.117,388.538,390.667,394.586,399.535,404.485,408.403,411.855,414.276,421.646,425.564,430.514,433.401,437.884,440.305,442.483,445.935,449.853,453.305,458.255,460.675,463.563,467.015,469.128,472.58,477.529,482.479,489.383,493.301,498.25,500.421,503.308,508.258,512.741,515.6279999999999,517.769,521.688,524.108,528.027,535.397,539.315,544.265,548.183,550.31,555.259,559.742,563.194,565.333,569.8159999999999,571.91,578.814,581.235,586.184" y="641.429" svg_rhmargin="590.102" style="fill:#171615;font-family:FAHBDF+AdvOTbc475f09;font-size:8.97px;font-style:NORMAL;font-weight:normal;">and clinical experimental results showed that elemene has a wide</text>
  <text x="345.088,348.54,353.023,357.973,362.456,366.374,368.956,373.905,376.792,379.443,383.927,388.876,391.763,394.184,397.071,399.958,404.908,412.278,417.227,420.679,423.322,426.774,431.723,435.642,439.56,442.447,445.899,450.848,458.219,460.64,463.233,470.137,472.558,475.445,480.394,483.075,486.993,491.943,495.395,499.878,502.765,505.186,509.669,513.587,516.182,520.101,522.988,525.875,529.793,533.711,536.599,539.0200000000001,541.693,549.063,551.484,553.905,558.8539999999999,561.478,565.961,570.911,575.394,579.312,582.764,586.216" y="652.371" svg_rhmargin="590.134" style="fill:#171615;font-family:FAHBDF+AdvOTbc475f09;font-size:8.97px;font-style:NORMAL;font-weight:normal;">range of anti-tumor spectrum, with curative effect, mild adverse</text>
  <text x="345.088,348.54,352.458,356.942,360.86,363.747,366.168,371.117,376.067,379.519,382.278,386.761,391.71,396.659,399.399,404.348,407.235,412.185,416.103,419.555,422.302,427.252,430.704,435.653,443.024,445.444,450.394,454.312,459.262,462.149,464.877,469.36,474.31,478.793,483.276,488.225,491.113,495.596,500.079,503.997,507.449" y="663.369" svg_rhmargin="509.87" style="fill:#171615;font-family:FAHBDF+AdvOTbc475f09;font-size:8.97px;font-style:NORMAL;font-weight:normal;">reactions and other prominent advantages.</text>
  <text x="509.896,512.061" y="659.345" svg_rhmargin="515.773" style="fill:#171615;font-family:FAHBDF+AdvOTbc475f09;font-size:5.98px;font-style:NORMAL;font-weight:normal;">[8</text>
  <text x="515.792" y="659.345" svg_rhmargin="519.154" style="fill:#171615;font-family:FAHBDI+AdvOTbc475f09+20;font-size:5.98px;font-style:NORMAL;font-weight:normal;">–</text>
  <text svg_rhmargin="528.784" x="519.193,522.906,526.619,528.784" y="663.37" style="fill:#171615;font-family:FAHBDF+AdvOTbc475f09;font-size:5.98px;font-style:NORMAL;font-weight:normal;">10] </text>
  <text x="531.553,534.44,539.389,542.098,545.55,549.468,553.386,557.305,562.254,565.141,567.892,572.375,576.294,580.777,584.229,587.681" y="663.37" svg_rhmargin="590.102" style="fill:#171615;font-family:FAHBDF+AdvOTbc475f09;font-size:8.97px;font-style:NORMAL;font-weight:normal;">In recent years,</text>
  <text x="345.089,347.976,352.925,356.843,360.295,364.213,367.765,372.715,377.198,381.681,385.599,389.195,394.144,398.062,401.981,406.93,410.51,413.962,417.881,422.364,426.282,429.734,434.217,436.638,440.273,443.725,447.643,452.593,457.542,460.994,463.881,467.33299999999997,470.943,475.893,478.78,482.338,486.257,488.678,492.596,499.966,503.884,508.834,512.752,516.409,520.893,523.313,528.263,533.212,537.13,540.73,545.679,549.131,552.692,556.61,561.559,568.93,573.879,576.3,581.249,585.168" y="674.312" svg_rhmargin="590.117" style="fill:#171615;font-family:FAHBDF+AdvOTbc475f09;font-size:8.97px;font-style:NORMAL;font-weight:normal;">there have been several reports of elemene alone or combined</text>
  <text x="345.089,351.993,354.413,357.301,362.25,367.028,370.946,375.896,379.814,387.184,392.134,395.021,399.97,403.889,407.341,411.824,416.773,421.25600000000003,426.043,430.527,435.476,440.425,442.846,447.796,451.248,456.033,460.982,465.466,470.415,474.333,477.785,480.672,485.622,489.54,492.992,500.362,502.783,507.266,512.044,514.465,519.414,524.176,527.063,532.013,535.931,540.731,543.618,547.07,550.988,555.471,558.358,565.729,569.647,574.596,577.483,582.285,587.234" y="685.253" svg_rhmargin="590.121" style="fill:#171615;font-family:FAHBDF+AdvOTbc475f09;font-size:8.97px;font-style:NORMAL;font-weight:normal;">with chemotherapy and/or hyperthermia in the treatment of</text>
  <text x="345.089,352.459,356.942,359.363,361.784,366.267,371.216,375.699,380.649,383.536,386.36,391.309,393.73,397.648,402.598,406.05,410.533,412.954,415.782,419.701,422.588,425.475,430.424,433.876,436.297,441.247,446.196,448.617,451.498,456.447,461.397,468.301,472.219,476.702,480.62,484.072,486.493,489.367,492.254,497.204,501.122,503.936,507.388,511.307,514.759,519.708,522.129,525.016,528.468,531.319,535.802,539.254,543.172,546.058,551.008,555.957,558.8439999999999,561.649,565.567,570.517,573.404,575.825,579.277,583.195,585.616" y="696.251" svg_rhmargin="590.099" style="fill:#171615;font-family:FAHBDF+AdvOTbc475f09;font-size:8.97px;font-style:NORMAL;font-weight:normal;">malignant pleural effusion, however, the results are not entirely</text>
  <text x="345.089,349.007,353.956,358.906,362.358,364.779,368.231,371.118,375.036,379.985,382.873" y="707.193" svg_rhmargin="385.294" style="fill:#171615;font-family:FAHBDF+AdvOTbc475f09;font-size:8.97px;font-style:NORMAL;font-weight:normal;">consistent.</text>
  <text svg_rhmargin="402.643" x="385.285,387.451,391.164,393.052,396.765,400.478,402.64300000000003" y="707.194" style="fill:#171615;font-family:FAHBDF+AdvOTbc475f09;font-size:5.98px;font-style:NORMAL;font-weight:normal;">[8,11] </text>
  <text x="404.787,407.674,412.623,414.821,419.771,424.72,429.67,434.619,437.04,439.198,445.636,450.585,454.504,459.45300000000003,461.648,465.566,468.453,470.605,475.089,477.51,479.733,484.682,488.601,492.053,494.94,499.889,503.341,510.712,514.63,519.579,521.741,526.2239999999999,528.374,535.745,539.663,542.55,547.033,549.92,554.404,559.353,563.836,566.257,570.74,574.192,576.613,580.065,582.287,585.174" y="707.194" svg_rhmargin="590.123" style="fill:#171615;font-family:FAHBDF+AdvOTbc475f09;font-size:8.97px;font-style:NORMAL;font-weight:normal;">In 2014, Chen et al performed a meta-analysis to</text>
  <text x="345.09,349.008,353.491,357.974,360.395,365.345,369.828,372.715,376.633,379.501,382.389,387.338,391.25600000000003,394.128,398.046,400.467,402.888,407.838,410.259,414.177,418.66,421.081,423.947,427.866" y="718.135" svg_rhmargin="430.753" style="fill:#171615;font-family:FAHBDF+AdvOTbc475f09;font-size:8.97px;font-style:NORMAL;font-weight:normal;">evaluate the clinical ef</text>
  <text x="430.753" y="718.135" svg_rhmargin="435.702" style="fill:#171615;font-family:FAHBDG+AdvOTbc475f09+fb;font-size:8.97px;font-style:NORMAL;font-weight:normal;">ﬁ</text>
  <text x="435.685,439.603,444.087,448.005,452.488,455.357,460.307,463.194,466.072,469.99,472.411,476.329,483.7,487.618,492.567,496.485,499.349,501.77,506.72,509.607,513.059,517.542,522.492,524.912,528.831,533.78,537.232,541.715,544.1360000000001,547.026,549.447,554.396,556.817,560.735,564.654,567.541,569.962,574.911,579.8599999999999,582.741,585.162" y="718.135" svg_rhmargin="590.111" style="fill:#171615;font-family:FAHBDF+AdvOTbc475f09;font-size:8.97px;font-style:NORMAL;font-weight:normal;">cacy of elemene intrapleural injection in</text>
  <path d="M85.039 181.877 L566.248 181.877 C579.428 181.809 590.153 192.593 590.115 205.744 L590.115 404.056 L85.039 404.056 M85.039 181.877 L566.248 181.877 L566.248 182.104 L85.265 182.104 M566.249 181.877 L569.991 182.16 C580.16 183.695 588.258 191.853 589.833 202.002 L590.117 205.744 L589.89 205.744 L589.606 202.059 C588.154 192.13 579.893 183.801 569.934 182.387 L566.249 182.104 M590.116 205.744 L590.116 404.057 L589.889 403.83 L589.889 205.744 M590.116 404.057 L85.039 404.057 L85.266 403.83 L589.889 403.83 M85.039 404.057 L85.039 181.877 L85.265 182.104 L85.265 403.83 M85.039 540.572 L330.122 540.572 L330.122 719.212 L85.039 719.212 " style="fill:none;stroke:#000000;stroke-width:1.0;"/>
  <path d=" M 85.03900146484375 259.7099914550781 L 330.06597900390625 259.7099914550781 L 330.06597900390625 259.1999816894531 L 85.03900146484375 259.1999816894531 L 84.81200408935547 259.31298828125 L 84.81200408935547 259.59698486328125" style="fill:none;stroke:#000000;stroke-width:1.0;"/>
  <text x="85.039,89.029,93.019,94.254,96.284,100.134,102.311,104.194,106.585,112.465,116.168,119.872,123.429,129.163,134.896,138.453,142.442,144.854,149.214,152.917,156.475,160.179,163.08,166.638,170.627,172.976,177.336,180.677,181.912,185.469,191.202" y="548.85" svg_rhmargin="193.085" style="fill:#171615;font-family:FAHBDD+AdvOT1deab444.I;font-size:6.97px;font-style:NORMAL;font-weight:normal;">Editor: Muhammad Shahzad Aslam.</text>
  <text x="85.039,90.194,96.512,98.873,102.43,106.134,110.123,112.48,116.47,120.459,122.798,126.356,130.206,133.91,135.94,138.116,139.351,143.341,147.045,149.075,152.63199999999998,155.003,158.56,162.55,166.253,169.811,171.046,172.353,175.547" y="560.813" svg_rhmargin="177.43" style="fill:#171615;font-family:FAHBDD+AdvOT1deab444.I;font-size:6.97px;font-style:NORMAL;font-weight:normal;">QW and ZZ contribute equally.</text>
  <text x="85.039,88.89,92.593,96.15,98.477,102.034,105.738,107.768,111.472,115.322,117.584,120.925,123.253,126.957,130.514,133.709,137.266,139.582,143.285,147.135,149.503,153.06,156.91" y="572.775" svg_rhmargin="160.613" style="fill:#171615;font-family:FAHBDD+AdvOT1deab444.I;font-size:6.97px;font-style:NORMAL;font-weight:normal;">The authors have no con</text>
  <text x="160.611" y="572.775" svg_rhmargin="163.659" style="fill:#171615;font-family:FAHBEI+AdvOT1deab444.I+fb;font-size:6.97px;font-style:NORMAL;font-weight:normal;">ﬂ</text>
  <text x="163.672,164.907,168.463,170.493,173.834,176.201,180.05,181.794,184.081,185.315,189.018,191.047,194.681,196.857,200.414,203.754,205.783,208.117,210.146,213.99599999999998,216.337,220.326,221.56,224.9,228.457,229.691,233.541,236.881,240.438" y="572.775" svg_rhmargin="242.321" style="fill:#171615;font-family:FAHBDD+AdvOT1deab444.I;font-size:6.97px;font-style:NORMAL;font-weight:normal;">icts of interest to disclose.</text>
  <text x="85.039,89.398,93.101,97.09,101.079,102.313,105.87,111.683,115.239,118.943,120.972,124.529,125.76299999999999,128.123,132.844,134.078,137.928,139.162,141.192,144.748,145.982,148.304,153.164,157.014,160.717,162.816,166.373,170.076,172.105,174.437,175.672,179.013,181.354,184.91,188.104,191.661,192.895,194.13,197.686,201.675,202.91,206.46699999999998,208.848,210.591,214.441,216.617,218.939,220.969,224.672,225.906,229.247,231.581,235.138,237.314,239.343,240.651,244.208,245.442,248.999" y="584.6800000000001" svg_rhmargin="250.882" style="fill:#171615;font-family:FAHBDD+AdvOT1deab444.I;font-size:6.97px;font-style:NORMAL;font-weight:normal;">Supplemental Digital Content is available for this article.</text>
  <text x="85.039,89.761,93.319,97.308,100.866,103.042,105.072,110.893,114.451,118.154,120.18299999999999,122.516,126.366,128.11,130.453,135.315,138.872,141.049,145.039,146.274,150.124,152.154,155.858,159.708,161.884,165.442,168.999,170.234,173.791,176.21,179.767,183.471,187.46,189.817,194.463,196.639,200.196,203.754,207.095,209.124,211.476,215.835,219.539,221.715,225.566,229.123,231.3,234.494,236.377,238.748,242.737,243.972,247.53,251.234,255.084,257.458,261.447,265.005,268.708,272.55800000000005,274.92,279.781,283.632,285.515,287.847,291.697,294.026,298.385,301.943,305.793,309.783,311.092" y="596.643" svg_rhmargin="314.649" style="fill:#171615;font-family:FAHBDD+AdvOT1deab444.I;font-size:6.97px;font-style:NORMAL;font-weight:normal;">Department of Cardiothoracic and Breast Surgery, Xiang Yang No. 1 People</text>
  <text x="314.646" y="596.643" svg_rhmargin="316.529" style="fill:#171615;font-family:FAHBEJ+AdvOT1deab444.I+20;font-size:6.97px;font-style:NORMAL;font-weight:normal;">’</text>
  <text x="316.517" y="596.643" svg_rhmargin="319.857" style="fill:#171615;font-family:FAHBDD+AdvOT1deab444.I;font-size:6.97px;font-style:NORMAL;font-weight:normal;">s</text>
  <text x="85.04,89.902,93.752,97.093,101.083,102.318,104.348,107.905,109.14,111.023,113.39,118.251,121.955,126.6,130.229,131.46300000000002,133.801,138.662,142.366,143.601,146.796,150.353,152.53,155.871,157.106,159.136,162.32999999999998,164.703,168.553,170.297,172.64,178.52,182.077,186.067,187.302,190.859,192.094,195.798,199.355,201.238,203.598,207.587,208.822,212.38,216.083,219.934,224.009,227.566,231.27,235.12,237.00300000000001,239.374,244.235,247.939,251.929,255.486,256.721,258.604,260.976,265.335,267.219,271.718,273.601,275.944,280.805,284.509,285.744,289.448,293.005" y="605.6" svg_rhmargin="294.888" style="fill:#171615;font-family:FAHBDD+AdvOT1deab444.I;font-size:6.97px;font-style:NORMAL;font-weight:normal;">Hospital, HuBei University of Medicine, XiangYang, Hubei, P.R. China.</text>
  <text svg_rhmargin="87.759" x="85.039,87.759" y="617.562" style="fill:#171615;font-family:FAHBBO+AdvOTb0c9bf5d+22;font-size:4.65px;font-style:NORMAL;font-weight:normal;">∗ </text>
  <text x="88.951,93.813,97.663,99.839,102.016,105.573,108.914,112.904,116.754,120.458,124.448,128.005,131.709,135.266,138.824,140.70700000000002,143.154,148.016,151.72,152.954,155.287,159.277,160.512,164.362,168.066,171.916,173.799,176.152,179.64,180.875,184.432,186.176,189.734,193.438,197.28799999999998,199.625,204.124,207.974,211.532,215.52100000000002,217.938,221.788,225.638,229.489,231.372,233.699,237.403,240.961,244.664,248.222,251.925,255.483,259.187,263.03700000000003,265.393,270.115,271.35,274.691,276.79,278.966,280.201,283.759,285.789,287.67199999999997,290.001,293.991,295.226,298.783,302.487,306.337,309.532,313.089,316.876,320.726" y="617.562" svg_rhmargin="322.609" style="fill:#171615;font-family:FAHBDD+AdvOT1deab444.I;font-size:6.97px;font-style:NORMAL;font-weight:normal;">Correspondence: Hui Xiong, Jiefang Road #75, Fancheng District, Xiangyang,</text>
  <text x="85.04,89.901,93.605,97.595,101.152,102.387,104.27,106.642,110.492,114.342,118.192,122.043,125.893,129.743,131.626,134.026,138.386,140.269,144.768,146.651,148.994,153.856,157.559,158.794,162.498,166.05499999999998,168.385,170.129,173.686,176.226,181.959,185.516,186.751,188.059,189.942,192.255,195.157,198.351,202.12,205.824,209.381,211.265,215.115,218.965,222.815,228.332,232.183,236.033,239.883,241.767,245.324,249.174,254.907,256.652" y="626.577" svg_rhmargin="258.535" style="fill:#171615;font-family:FAHBDD+AdvOT1deab444.I;font-size:6.97px;font-style:NORMAL;font-weight:normal;">Hubei, 441000, P.R. China (e-mail: zxhua.008@163.com).</text>
  <text svg_rhmargin="113.93" x="85.04,89.901,93.751,97.741,100.936,103.112,104.347,108.197,111.901,113.92999999999999" y="638.482" style="fill:#171615;font-family:FAHBDD+AdvOT1deab444.I;font-size:6.97px;font-style:NORMAL;font-weight:normal;">Copyright </text>
  <text svg_rhmargin="121.564" x="116.334,121.565" y="638.482" style="fill:#171615;font-family:FAHBDB+AdvOTb0c9bf5d;font-size:6.97px;font-style:NORMAL;font-weight:normal;">© </text>
  <text x="123.874,127.724,131.574,135.425,139.275,141.619,143.65,147.353,150.91,153.242,157.601,161.305,163.335,167.039,170.889,173.143,174.887,178.228,179.973,181.85600000000002,184.199,188.559,192.262,196.252,197.487,198.722,202.063,205.767,209.325,213.314,215.667,219.657,222.851,225.192,231.511,235.361,236.596,238.626,242.258,244.435,247.776,250.082,254.581,255.816,259.52,264.674,268.232,270.408,272.818,277.679,281.236,284.794,286.029,288.059,291.763,293.64599999999996,296.008,297.528,301.232,304.789" y="638.482" svg_rhmargin="306.672" style="fill:#171615;font-family:FAHBDD+AdvOT1deab444.I;font-size:6.97px;font-style:NORMAL;font-weight:normal;">2018 the Author(s). Published by Wolters Kluwer Health, Inc.</text>
  <text x="85.039,88.888,92.592,93.826,97.16699999999999,99.495,100.729,104.07,106.412,109.969,113.672,115.993,119.904,123.893,127.45,131.153,133.453,137.01,140.566,144.123,147.68,151.02,154.36100000000002,156.752,160.309,162.485,164.514,165.749,169.305,170.54,174.09699999999998,176.48,180.469,181.703,185.044,187.073,189.249,190.483,194.472,198.176,200.205,203.762,207.751,210.153,213.856,217.559,221.548,225.105,227.28099999999998,229.654,231.683,235.386,238.94299999999998,241.276,243.305,246.862,249.038,254.77,258.111,260.493,264.344,266.088,268.431,270.46,274.164,277.721,280.052,284.913,287.089,290.645,294.202,296.231,297.466,300.66" y="647.4970000000001" svg_rhmargin="304.217" style="fill:#171615;font-family:FAHBDD+AdvOT1deab444.I;font-size:6.97px;font-style:NORMAL;font-weight:normal;">This is an open access article distributed under the terms of the Creative</text>
  <text x="85.039,89.9,93.751,99.484,105.217,109.067,112.771,116.112,118.489,122.849,124.879,126.909,129.085,130.32,134.31,138.014,140.044,141.279,145.129,148.938,151.476,156.338,160.188,163.891,166.229,171.091,174.941,180.674,186.407,189.965,192.141,195.698,196.934,200.588,201.822,204.16,207.864,209.099,212.656,216.213,219.917,223.258,226.815,229.164,233.014,234.898,238.748,241.07,242.814,247.676,252.537,257.182,261.254,263.793,268.654,273.516,275.26,277.143,279.51,284.665,288.368,291.926,294.102,297.659,300.034,301.269,303.298,305.647,306.881" y="656.454" svg_rhmargin="310.221" style="fill:#171615;font-family:FAHBDD+AdvOT1deab444.I;font-size:6.97px;font-style:NORMAL;font-weight:normal;">Commons Attribution-Non Commercial License 4.0 (CCBY-NC), where it is</text>
  <text x="85.039,89.029,92.586,94.762,100.496,101.731,105.072,108.413,109.648,113.728,114.963,118.52,120.816,122.846,126.696,129.037,133.026,136.877,142.031,145.735,146.97,150.82,154.377,158.463,160.346,162.658,165.998,169.702,173.26,175.436,178.993,180.876,183.238,185.415,188.972,194.705,195.94,199.135,201.018,203.423,205.453,207.629,211.187,214.89,218.232,219.976,223.826,226.002,231.736,233.619,235.968,239.525,243.228,247.217,249.575,253.564,257.268,258.503,259.738,263.806,267.51,271.49899999999997,273.841,275.871,279.575,283.132,285.464,290.618,294.468,296.645,299.839,302.189,306.179,308.355,312.206,315.4,316.635,320.625,324.182" y="665.4110000000001" svg_rhmargin="328.171" style="fill:#171615;font-family:FAHBDD+AdvOT1deab444.I;font-size:6.97px;font-style:NORMAL;font-weight:normal;">permissible to download, share, remix, transform, and buildup the work provided</text>
  <text x="85.039,86.274,88.303,90.652,91.887,95.228,97.569,101.559,103.736,107.586,111.576,115.133,117.309,118.545,121.739,124.105,127.662,128.897,130.927,134.485,138.474,140.357,142.702,146.552,150.256,153.813,156.195,161.35,165.2,167.376,170.57,172.921,176.478,180.035,183.739,187.443,191.293,193.322,195.656,199.646,203.20299999999997,205.578,209.281,212.622,216.18,220.169,222.529,226.087,229.937,235.67,241.403,244.961,247.137,250.695,252.012,255.569,256.804,258.039,261.233,263.579,268.733,269.968,271.998,275.702,279.552,283.256,285.28499999999997,287.619,291.608,295.166,297.342,303.154,304.389,307.73,311.071,312.306,316.156" y="674.3679999999999" svg_rhmargin="319.859" style="fill:#171615;font-family:FAHBDD+AdvOT1deab444.I;font-size:6.97px;font-style:NORMAL;font-weight:normal;">it is properly cited. The work cannot be used commercially without permission</text>
  <text x="85.039,86.783,88.96,92.81,98.543,100.914,102.943,106.647,110.20400000000001,112.536,113.771,117.621,121.325,123.502,127.205,130.763,131.998" y="683.325" svg_rhmargin="133.881" style="fill:#171615;font-family:FAHBDD+AdvOT1deab444.I;font-size:6.97px;font-style:NORMAL;font-weight:normal;">from the journal.</text>
  <text x="85.039,90.919,94.476,98.466,99.701,103.258,104.493,108.197,111.754,114.125,115.869,119.719,123.569,127.419,131.27,133.014,135.386,139.236,143.087,144.97,148.821,152.671,154.415,157.972,161.823,165.673,169.523,173.373,177.223" y="695.287" svg_rhmargin="178.966" style="fill:#171615;font-family:FAHBDD+AdvOT1deab444.I;font-size:6.97px;font-style:NORMAL;font-weight:normal;">Medicine (2018) 97:44(e12542)</text>
  <text x="85.039,89.538,93.095,96.652,100.21,101.445,104.713,108.271,112.26,114.143,116.45,120.3,124.14999999999999,126.485,130.844,134.834,137.01,138.246,139.48000000000002,141.85,145.701,149.551,153.401,157.251,159.596,161.842,164.188,168.547,172.105,175.662,179.219,183.209,185.239,188.797,192.877,194.76000000000002,197.072,200.923,204.773,207.108,211.467,215.171,219.021,222.725,226.066,228.095,230.466,234.317,238.167,242.017" y="707.25" svg_rhmargin="245.867" style="fill:#171615;font-family:FAHBDD+AdvOT1deab444.I;font-size:6.97px;font-style:NORMAL;font-weight:normal;">Received: 16 April 2018 / Accepted: 31 August 2018</text>
  <text x="85.039,88.743,90.773,92.803,96.793,98.676,100.922,103.169,107.158,110.353,112.237,116.338,120.188,121.423,123.307,127.157,129.334,133.184,135.43,139.28,143.131,145.014,148.865,152.796,156.647,160.497,162.743,168.623,173.345,175.228,179.078,182.929,186.779,190.629,194.479,198.33,202.18,206.03,209.88,213.731,217.658,221.57,225.42,229.27,233.121" y="719.212" svg_rhmargin="236.971" style="fill:#171615;font-family:FAHBDD+AdvOT1deab444.I;font-size:6.97px;font-style:NORMAL;font-weight:normal;">http://dx.doi.org/10.1097/MD.0000000000012542</text>
  <path d=" M 85.03900146484375 759.968017578125 L 590.1729736328125 759.968017578125 L 590.1729736328125 760.9884033203125 L 85.03900146484375 760.9884033203125 Z " style="fill:none;stroke:#000000;stroke-width:1.0;"/>
  <path d=" M 85.03900146484375 761.0460205078125 L 89.00749969482422 761.0460205078125 L 89.00749969482422 775.9559936523438 L 85.03900146484375 775.9559936523438 Z " style="fill:none;stroke:#000000;stroke-width:1.0;"/>
  <text svg_rhmargin="304.422" x="91.389,98.751,104.769,111.195,115.239,122.393,133.171,140.115,144.16,146.651,153.39600000000002,156.756,164.845,171.998,178.299,180.789,187.943,197.697,201.032,207.976,214.721,221.874,225.24,235.919,243.073,247.117,254.153,258.925,266.805,273.55,280.572,283.062,289.08,295.506,297.996,304.42199999999997" y="31.899" style="fill:#73828a;font-family:FAHBEK+AdvOTbed05995;font-size:9.96px;font-style:NORMAL;font-weight:normal;">Systematic Review and Meta-Analysis </text>
  <text x="437.272,469.714,489.657,511.847,519.123,537.736,545.012,564.991" y="31.899" svg_rhmargin="587.342" style="fill:#de000f;font-family:FAHBHK+Avenir-Roman;font-size:40.2px;font-style:NORMAL;font-weight:normal;">Medicine</text>
  <text x="584.326" y="14.110000000000014" svg_rhmargin="590.154" style="fill:#979699;font-family:FAHBHL+AkzidenzGroteskBE-Md;font-size:7.0px;font-style:NORMAL;font-weight:bold;">®</text>
  <path d="M85.039 540.29 L330.065 540.29 L330.065 540.8 L85.039 540.8 L84.812 540.687 L84.812 540.403 M443.709 35.651 L582.507 35.651 M584.0 35.651 L584.0 35.651 M440.722 35.651 L440.722 35.651 " style="fill:none;stroke:#979699;stroke-width:1.5;"/>
  <rect style="stroke:blue;stroke-width:0.3;" x="550.368" y="44.108" height="15.384" width="39.988" title="1"/>
  <text x="550.368" y="44.108" class="image" id="image.1.1" width="39" height="15">image.1.1.550_590.44_59</text>
  <text x="555.412,563.566,570.568,577.237" y="54.660999999999945" svg_rhmargin="585.238" style="fill:#ffffff;font-family:FAHBKL+HelveticaNeue-MediumExt;font-size:9.0px;font-style:NORMAL;font-weight:normal;">OPEN</text>
  <text x="335.395" y="739.622" svg_rhmargin="339.795" style="fill:#171615;font-family:FAHBKM+AdvOTf94803d4;font-size:7.97px;font-style:NORMAL;font-weight:normal;">1</text>
 </g>
</svg>
