<?xml version="1.0" encoding="UTF-8"?>
<svg height="870.031005859375" width="672.0029907226562" xmlns="http://www.w3.org/2000/svg">
 <g style="fill:none;">
  <path d=" M 0.05999799817800522 826.072021484375 L 22.619997024536133 826.072021484375 L 22.619997024536133 826.35546875 L 0.05999799817800522 826.35546875 Z " style="fill:none;stroke:#000000;stroke-width:1.0;"/>
  <path d=" M 33.67599868774414 837.4110107421875 L 33.959449768066406 837.4110107421875 L 33.959449768066406 860.031005859375 L 33.67599868774414 860.031005859375 Z " style="fill:none;stroke:#000000;stroke-width:1.0;"/>
  <path d=" M 627.9869995117188 837.4110107421875 L 628.2703857421875 837.4110107421875 L 628.2703857421875 860.031005859375 L 627.9869995117188 860.031005859375 Z " style="fill:none;stroke:#000000;stroke-width:1.0;"/>
  <path d=" M 639.3259887695312 826.072021484375 L 662.0029907226562 826.072021484375 L 662.0029907226562 826.35546875 L 639.3259887695312 826.35546875 Z " style="fill:none;stroke:#000000;stroke-width:1.0;"/>
  <path d=" M 639.3259887695312 33.731998443603516 L 662.0029907226562 33.731998443603516 L 662.0029907226562 34.015480041503906 L 639.3259887695312 34.015480041503906 Z " style="fill:none;stroke:#000000;stroke-width:1.0;"/>
  <path d=" M 627.9869995117188 0.0 L 628.2703857421875 0.0 L 628.2703857421875 22.677000045776367 L 627.9869995117188 22.677000045776367 Z " style="fill:none;stroke:#000000;stroke-width:1.0;"/>
  <path d=" M 33.67599868774414 0.0 L 33.959449768066406 0.0 L 33.959449768066406 22.677000045776367 L 33.67599868774414 22.677000045776367 Z " style="fill:none;stroke:#000000;stroke-width:1.0;"/>
  <path d=" M 0.05999799817800522 33.731998443603516 L 22.619997024536133 33.731998443603516 L 22.619997024536133 34.015480041503906 L 0.05999799817800522 34.015480041503906 Z " style="fill:none;stroke:#000000;stroke-width:1.0;"/>
  <text x="85.039,90.955,93.908,98.646,105.441,111.158,116.382,122.298,125.052,128.696" y="39.18100000000004" svg_rhmargin="133.92" style="fill:#171615;font-family:FAHBBK+AdvOTfbba3ace.B;font-size:9.46px;font-style:NORMAL;font-weight:normal;">3. Results</text>
  <text x="85.039,89.989,92.41,97.359,99.78,104.258,110.041,114.99,119.94,123.204,128.153,133.28199999999998,136.288,139.552,144.501,148.984,154.113,156.256,159.143" y="57.096000000000004" svg_rhmargin="163.626" style="fill:#171615;font-family:FAHBLN+AdvOT01861455.I;font-size:8.97px;font-style:NORMAL;font-weight:normal;">3.1. Search results</text>
  <text x="85.039,91.477,95.754,98.641,103.464,106.351,110.721,113.14200000000001,117.41,122.36,125.247,129.429,134.378,139.328,144.112,149.061,153.353,156.805,160.609,163.03,166.789,171.272,175.633,180.582,183.469,187.709,192.192,195.532,198.419,200.84,204.602,207.023,210.838,214.29,218.548,225.453,229.263,232.715,236.633,240.829,245.778,250.58,253.467,257.836,260.257,265.093,269.011,273.96000000000004,278.189,282.672,285.445,288.332,292.135,295.587,299.845,304.794,308.122,310.543,317.913,322.238,325.69" y="73.08399999999995" svg_rhmargin="330.173" style="fill:#171615;font-family:FAHBDF+AdvOTbc475f09;font-size:8.97px;font-style:NORMAL;font-weight:normal;">A total of 1820 relevant articles were obtained after primary</text>
  <text x="85.039,88.491,92.296,96.779,100.119,104.037,108.849,111.27000000000001,113.498,119.936,122.683,125.57,129.372,132.824,135.042,138.494,142.298,146.781,151.595,154.016,158.852,163.335,165.542,168.429,173.252,177.17000000000002,179.375,182.262,184.534,187.421,189.842,193.76000000000002,195.873,200.356,205.17,210.119,212.313,216.797,221.611,225.063,227.847,231.299,235.67,239.588,242.359,244.78,247.008,249.896,254.719,258.637,260.785,263.206,265.627,268.381,272.3,275.638,280.121,282.894,287.844,291.171,295.089,298.541,300.695,303.582,308.405,312.888,315.775,317.929,322.879,325.186" y="84.02599999999995" svg_rhmargin="330.135" style="fill:#171615;font-family:FAHBDF+AdvOTbc475f09;font-size:8.97px;font-style:NORMAL;font-weight:normal;">search. After reading the title and abstract, the literatures that did</text>
  <text x="85.039,89.989,94.79,97.677,99.552,106.923,110.721,114.639,117.526,119.338,122.225,127.048,130.966,132.831,135.252,140.087,144.005,146.323,151.273,154.6,157.021,161.856,166.805,168.659,172.577,175.916,178.336,181.075,184.993,188.331,190.752,195.235,197.062,203.966,207.776,211.228,215.14600000000002,216.904,220.822,225.772,229.547,231.967,236.803,241.752,245.533,250.483,252.904,254.718,259.201,264.015,268.964,270.818,275.768,280.569,285.51800000000003,287.372,291.855,295.195,298.082,300.503,304.265,306.686,310.501,313.953,315.774,318.195,322.01,324.897,327.679" y="94.96699999999998" svg_rhmargin="330.1" style="fill:#171615;font-family:FAHBDF+AdvOTbc475f09;font-size:8.97px;font-style:NORMAL;font-weight:normal;">not meet the inclusion criteria were excluded, and 122 articles left.</text>
  <text x="85.039,91.477,94.364,97.114,101.033,104.485,106.638,109.525,114.475,117.75,120.637,125.587,129.372,132.824,135.042,138.494,142.298,146.781,149.202,152.956,159.86,162.281,167.073,171.556,173.819,178.769,181.656,183.853,186.741,191.564,195.482,197.743,200.63,205.453,207.874,210.295,212.483,215.37,219.173,224.122,227.009,229.42999999999998,231.588,235.04,237.824,242.774,247.723,249.956,253.874,257.326,259.537,266.441,268.862,271.612,276.56100000000004,278.812,281.233,286.068,288.956,292.758,296.21,300.581,304.499,309.312,312.199,314.62,319.403,324.353,327.68" y="105.96500000000003" svg_rhmargin="330.101" style="fill:#171615;font-family:FAHBDF+AdvOTbc475f09;font-size:8.97px;font-style:NORMAL;font-weight:normal;">After further reviewing of the full text, studies with interventions,</text>
  <text x="85.039,88.491,93.316,98.266,100.573,104.491,108.283,111.17,114.519,116.94000000000001,119.791,124.74,128.192,130.903,135.852,138.739,143.545,147.464,150.916,153.693,158.177,161.46,166.409,170.328,174.103,176.99,180.442,183.23,186.117,190.94,195.424,198.311,201.032,205.981,208.288,213.23700000000002,216.055,221.004,225.954,228.841,231.532,238.902,242.82,246.611,249.498,252.281,255.168,260.117,264.035,266.737,269.158,273.993,277.912,280.229,285.179,288.506,290.927,295.763,300.712,303.529,307.448,310.786,313.207,316.094,319.856,323.308,325.729" y="116.90700000000004" svg_rhmargin="330.212" style="fill:#171615;font-family:FAHBDF+AdvOTbc475f09;font-size:8.97px;font-style:NORMAL;font-weight:normal;">subjects, or other aspects that did not meet the inclusion criteria</text>
  <text x="85.039,91.943,95.754,99.206,103.12400000000001,105.392,109.31,114.122,118.041,120.359,125.308,130.109,134.028,138.977,141.398,143.602,147.054,150.858,154.31,159.26,161.517,164.404,166.825,171.608,176.091,178.411,180.832,185.781,188.049,192.998,197.947,200.181,204.099,206.417,208.838,213.674,216.094,219.91,224.393,226.814,229.037,231.924,235.273,237.694,242.177,244.458,247.91" y="127.84799999999996" svg_rhmargin="250.331" style="fill:#171615;font-family:FAHBDF+AdvOTbc475f09;font-size:8.97px;font-style:NORMAL;font-weight:normal;">were excluded, resulting in 46 clinical trials.</text>
  <text x="250.186,252.352,256.064,259.654,261.47,265.182" y="123.88" svg_rhmargin="268.894" style="fill:#171615;font-family:FAHBDF+AdvOTbc475f09;font-size:5.98px;font-style:NORMAL;font-weight:normal;">[11,14</text>
  <text x="268.724" y="123.88" svg_rhmargin="272.086" style="fill:#171615;font-family:FAHBDI+AdvOTbc475f09+20;font-size:5.98px;font-style:NORMAL;font-weight:normal;">–</text>
  <text svg_rhmargin="281.659" x="272.069,275.782,279.494,281.65900000000005" y="127.84900000000005" style="fill:#171615;font-family:FAHBDF+AdvOTbc475f09;font-size:5.98px;font-style:NORMAL;font-weight:normal;">58] </text>
  <text x="283.861,288.811,293.612,298.562,303.511,305.745,309.663,314.146,318.954,322.872,326.664" y="127.84900000000005" svg_rhmargin="330.116" style="fill:#171615;font-family:FAHBDF+AdvOTbc475f09;font-size:8.97px;font-style:NORMAL;font-weight:normal;">2992 cancer</text>
  <text x="85.039,89.988,94.336,97.223,99.644,103.407,108.356,111.117,114.569,117.069,123.973,127.784,131.236,135.154,137.535,139.956,144.905,148.703,151.124,155.96,160.909,164.69,169.64,172.06099999999998,174.498,179.447,184.248,189.198,194.14700000000002,196.55,201.5,204.387,206.811,209.698,214.521,218.44,225.81,228.241,235.145,238.955,242.408,246.326,248.763,251.184,256.133,258.514,261.401,266.35,270.26800000000003,272.63,276.548,278.866,282.785,290.035,293.953,298.902,302.82,305.228,309.711,312.995,317.944,322.893,327.678" y="138.79100000000005" svg_rhmargin="330.099" style="fill:#171615;font-family:FAHBDF+AdvOTbc475f09;font-size:8.97px;font-style:NORMAL;font-weight:normal;">patients were included, 1499 of them were in the elemene group,</text>
  <text x="85.039,89.522,94.336,99.285,101.65,104.537,109.487,113.405,115.653,119.105,123.023,126.311,129.198,131.583,138.487,142.298,145.75,149.668,151.992,154.413,159.36200000000002,161.687,164.574,169.397,173.315,175.689,179.608,184.42,189.369,192.256,195.532,200.481,202.902,205.226,209.709,213.049,217.999,222.948,227.732,230.153,232.551,238.433,243.209,247.127,249.502,254.451,258.934,262.257,266.175,268.437,270.858,275.693,279.611,281.986,286.935,291.418,294.174,298.657,300.977,305.927,308.814,311.182,314.069,318.892,322.81,325.184" y="149.789" svg_rhmargin="330.133" style="fill:#171615;font-family:FAHBDF+AdvOTbc475f09;font-size:8.97px;font-style:NORMAL;font-weight:normal;">and the rest were in the control group. The baseline data of the 2</text>
  <text x="85.039,89.522,92.862,97.812,102.613,107.562,111.014,114.405,121.309,125.063,128.515,132.433,135.778,139.696,144.645,151.878,156.828,161.176,164.628,168.999,173.948,176.255,180.173,182.594,185.949,191.831,196.664,200.582,203.978,207.43,212.255,216.173,219.965" y="160.73000000000002" svg_rhmargin="222.386" style="fill:#171615;font-family:FAHBDF+AdvOTbc475f09;font-size:8.97px;font-style:NORMAL;font-weight:normal;">groups were comparable. The speci</text>
  <text x="222.35" y="160.73000000000002" svg_rhmargin="227.299" style="fill:#171615;font-family:FAHBDG+AdvOTbc475f09+fb;font-size:8.97px;font-style:NORMAL;font-weight:normal;">ﬁ</text>
  <text x="227.226,231.144,234.54,239.489,242.941,247.749,251.667,255.459,258.911,262.363,265.72,270.669,273.556,276.888,280.34,284.145,288.628,291.968,295.886,300.698,303.119,307.955,312.438,315.835,320.318,325.268" y="160.73000000000002" svg_rhmargin="330.217" style="fill:#171615;font-family:FAHBDF+AdvOTbc475f09;font-size:8.97px;font-style:NORMAL;font-weight:normal;">c process of searching and</text>
  <text x="85.039,87.46,92.295,96.214,101.026,103.913,106.334,109.076,113.559,115.98,120.755,125.238,127.898,130.785,135.608,139.526,142.127,144.548,146.969,149.724,153.642,156.98,161.463,164.237,169.186,172.513,176.432,179.884,182.491,184.912,188.364,190.938,194.39,199.215,204.164,210.95,215.899,218.547,220.968,225.917,228.468,233.418,235.725,240.208,245.022,248.474,252.392,255.0,259.949" y="171.67200000000003" svg_rhmargin="262.37" style="fill:#171615;font-family:FAHBDF+AdvOTbc475f09;font-size:8.97px;font-style:NORMAL;font-weight:normal;">identifying the literatures is shown in Figure 1.</text>
  <text x="85.039,89.988,92.409,97.359,99.78,104.257,110.507,115.456,119.939,124.889,127.032,129.175,134.303,139.252,142.297,147.246,152.375,157.324,160.588,165.538,170.487,173.374,178.324,181.587,183.73,188.213,191.101,193.243,198.193,202.67600000000002,205.677,210.626,215.755,221.17,224.158,229.386,233.869,238.818,242.082,247.031,249.174,251.317,254.318,259.734,264.863,269.812,271.955,274.098,276.985,281.468,284.478,289.706" y="198.31799999999998" svg_rhmargin="292.503" style="fill:#171615;font-family:FAHBLN+AdvOT01861455.I;font-size:8.97px;font-style:NORMAL;font-weight:normal;">3.2. Baseline characteristics and overall quality of</text>
  <text x="85.039,87.182,92.311,97.26,99.403,104.532,109.947,114.897,120.31200000000001,123.305,127.789,130.676,135.804,141.22,143.363,148.312" y="210.27999999999997" svg_rhmargin="152.795" style="fill:#171615;font-family:FAHBLN+AdvOT01861455.I;font-size:8.97px;font-style:NORMAL;font-weight:normal;">included studies</text>
  <text x="85.039,87.926,92.875,96.774,100.289,105.238,112.705,120.075,124.723,128.238,132.721,135.142,139.009,143.958,149.043,158.00900000000001,161.8,168.773,172.691,176.256,180.174,184.023,190.46,197.005,202.958,206.41,210.214,214.697,219.795,224.744,228.526,231.413,236.519,240.437,244.229,247.744,251.663,255.228,258.115,261.974,268.947,273.43,276.882,280.738,284.253,288.172,291.17,294.685,299.73,303.245,308.194,312.202,316.227,319.114,321.67,326.153" y="226.21000000000004" svg_rhmargin="330.071" style="fill:#171615;font-family:FAHBDF+AdvOTbc475f09;font-size:8.97px;font-style:NORMAL;font-weight:normal;">In summary, 89% were RCTs and the rest was retrospective</text>
  <text svg_rhmargin="330.064" x="85.039,87.926,91.502,93.996,98.48,101.026,104.478,106.922,109.87,115.823,120.306,125.404,127.898,131.816,134.248,139.197,142.241,144.662,147.117,153.07,158.019,161.937,164.409,169.001,173.484,177.40200000000002,179.886,184.836,187.723,190.261,195.211,199.785,202.672,205.228,209.253,214.202,217.19,220.642,223.086,228.131,232.614,236.181,239.068,241.624,245.542,248.087,253.036,257.611,260.615,264.534,269.483,271.954,274.449,279.398,281.875,284.762,289.812,293.837,297.352,301.27,303.702,307.217,310.104,315.21,320.16,322.694,326.612,330.064" y="39.74599999999998" style="fill:#171615;font-family:FAHBDF+AdvOTbc475f09;font-size:8.97px;font-style:NORMAL;font-weight:normal;">trials (Table 1). The age of patients participated in these studies </text>
  <text x="345.09,348.605,353.088,358.129,362.612,366.633,371.582,375.59,378.477,382.053,387.099,394.469,398.437,403.483,408.432,412.383,415.271,420.22,424.289,429.334,434.283,438.235,442.828,446.746,451.331,454.846,458.361,460.782,464.767,470.72,475.669,478.203,481.655,485.687,490.636,495.664,500.71,505.659,508.193,512.676,515.676,518.171,523.12,528.069,532.117,539.09,543.573,547.025,551.108,556.058,558.592,563.075,567.662,572.707,577.657,581.211,585.129" y="39.74599999999998" svg_rhmargin="590.078" style="fill:#171615;font-family:FAHBDF+AdvOTbc475f09;font-size:8.97px;font-style:NORMAL;font-weight:normal;">ranged from 18 to 82 years. This population was diagnosed</text>
  <text x="345.09,351.995,354.501,357.389,362.338,365.046,369.529,374.626,379.11,383.697,388.646,392.654,396.679,401.628,404.219,408.244,412.727,417.768,421.686,425.761,429.276,432.791,435.212,437.836,443.789,448.738,452.656,455.354,460.303,463.857,466.352,473.722,478.314,481.828,486.311,488.972,493.921,496.455,499.97,503.888,508.474,511.988,515.907,519.359,522.08,529.053,532.971,536.536,540.454,543.056,545.55,550.595,555.545,560.0279999999999,562.671,566.696,571.179,576.22,580.138,584.214,587.728" y="50.68799999999999" svg_rhmargin="590.149" style="fill:#171615;font-family:FAHBDF+AdvOTbc475f09;font-size:8.97px;font-style:NORMAL;font-weight:normal;">with advanced cancers. The primary diseases were lung cancer,</text>
  <text x="345.09,350.04,353.594,357.512,362.098,365.613,368.5,371.168,375.193,379.676,384.717,388.635,392.654,396.169,398.59,401.272,405.755,410.399,413.914,416.801,420.377,422.871,426.789,429.448,433.366,437.952,442.901,446.966,450.884,454.449,456.87,459.552,464.501,469.076,473.559,477.126,479.62,484.103,489.052,491.809,495.727,500.312,505.262,509.27,513.295,516.747,519.418,523.901,528.942,533.891,536.539,541.584,544.471,549.521,553.44,556.892,559.613,562.5,567.153,572.102,576.11,579.562,582.233,587.182" y="61.62900000000002" svg_rhmargin="590.069" style="fill:#171615;font-family:FAHBDF+AdvOTbc475f09;font-size:8.97px;font-style:NORMAL;font-weight:normal;">breast cancer, gastric cancer, ovarian cancer and other types of</text>
  <text x="345.09,352.461,357.052,359.547,362.041,366.524,371.565,376.048,381.147,384.034,391.068,393.955,399.005,406.375,411.477,414.992,418.507,420.928,427.918,433.87,438.916,442.834,449.857,454.807,457.341,461.824,466.411,471.456,476.406,479.96,482.847,485.402,489.32,496.344,503.714,507.796,510.683,515.733,520.778,525.727,529.179,536.255,541.204,544.0909999999999,551.165,558.535,563.183,565.604,568.116,572.599,577.697,582.18,587.221" y="72.62699999999995" svg_rhmargin="590.108" style="fill:#171615;font-family:FAHBDF+AdvOTbc475f09;font-size:8.97px;font-style:NORMAL;font-weight:normal;">malignant tumors. The diagnostic methods of malignant</text>
  <text x="345.09,350.04,352.574,356.492,361.531,365.046,369.529,371.95,375.137,379.056,382.111,384.998,390.048,393.562,396.057,401.006,405.955,409.153,411.574,416.636,420.554,423.099,428.049,433.133,437.052,442.00100000000003,445.152,450.651,453.538,458.588,461.082,463.969,467.545,472.028,475.595,480.64,485.59,490.618,495.663,498.084,501.162,505.187,510.137,517.603,522.648,527.598,530.585,534.504,539.453,542.604,545.608,550.558,558.024,562.973,567.605,571.119,575.602,580.643,585.593" y="83.56899999999996" svg_rhmargin="590.076" style="fill:#171615;font-family:FAHBDF+AdvOTbc475f09;font-size:8.97px;font-style:NORMAL;font-weight:normal;">pleural effusion included B-ultrasound, computed tomography</text>
  <text x="345.09,348.605,352.524,357.109,362.058,364.479,368.05,377.017,381.599,386.083,391.18,395.098,398.097,400.591,404.509,408.018,414.456,418.506,422.02,426.97,431.998,436.481,441.58,445.498,449.416,452.975,455.862,463.35,467.833,472.477,474.898,479.961,484.444,487.954,491.469,495.387,499.973,504.922,507.343,510.914,515.397,520.438,525.387,528.885,532.91,535.797,538.807,543.756,547.31,549.805,554.754,559.703,563.241,567.266,572.215,575.203,578.717,583.201,587.221" y="94.50999999999999" svg_rhmargin="590.108" style="fill:#171615;font-family:FAHBDF+AdvOTbc475f09;font-size:8.97px;font-style:NORMAL;font-weight:normal;">scan, Magnetic Resonance Imaging scan, and effusion extrac-</text>
  <text x="345.09,347.978,350.533,355.482,360.511,362.932,368.562,373.977,376.492,380.411,387.944,391.862,396.906,400.824,403.245,408.924,415.922,422.921,427.87,430.291,435.959,441.375,446.885,455.851,458.272,463.892,466.387,471.43,474.317,478.33,481.876,484.391,488.309,493.405,498.354,500.869,505.819,508.8,513.749,519.345,522.232,525.241,530.751,533.638,538.682,541.663,544.0840000000001,549.657,554.14,559.237,564.1859999999999,569.725,574.769,577.656,582.699,586.712" y="105.50900000000001" svg_rhmargin="590.164" style="fill:#171615;font-family:FAHBDF+AdvOTbc475f09;font-size:8.97px;font-style:NORMAL;font-weight:normal;">tion. Elemene, DDP, BLM, interleukin-2 (IL-2), and other</text>
  <text x="345.09,352.461,356.486,361.435,363.969,367.887,372.529,375.416,377.972,382.921,387.949,391.401,396.0,402.973,406.998,410.513,414.431,419.017,423.966,427.52,431.545,436.494,441.07,445.553,449.005,453.656,456.151,461.196,464.083,468.113,471.627,476.111,480.131,485.176,488.063,490.619,495.568,500.597,504.049,508.704,511.591,516.641,520.093,524.692,527.579,532.685,536.603,540.168,544.086,548.672,552.697,557.18,560.747,564.665,568.23,570.6510000000001,575.26,581.213,586.162" y="116.45000000000005" svg_rhmargin="590.08" style="fill:#171615;font-family:FAHBDF+AdvOTbc475f09;font-size:8.97px;font-style:NORMAL;font-weight:normal;">medications were used as interventions for these cases. The</text>
  <text x="345.09,350.04,355.068,358.583,363.066,366.066,368.561,373.606,378.555,380.862,385.346,390.386,395.33500000000004,397.643,402.592,407.677,411.192,415.11,417.371,422.417,425.304,427.576,431.601,434.095,438.014,445.491,449.409,454.504,458.422,460.684,465.167,469.754,473.269,475.764,479.789,484.738,486.988,491.581,495.499,499.064,504.014,507.568,511.02,513.35,515.845,520.794,524.802,527.297,532.246,537.331,541.249,546.198,548.556,551.443,555.018,557.513,561.996,564.543,568.057,570.4780000000001,572.763,579.736,582.23,585.117" y="127.39200000000005" svg_rhmargin="590.066" style="fill:#171615;font-family:FAHBDF+AdvOTbc475f09;font-size:8.97px;font-style:NORMAL;font-weight:normal;">duration and dose of elemene varied across included trials, with</text>
  <text x="345.09,349.573,352.347,355.862,360.345,365.443,369.926,373.844,376.724,381.674,384.561,387.439,392.389,397.473,402.422,403.596,410.967,415.558,418.053" y="138.39" svg_rhmargin="425.423" style="fill:#171615;font-family:FAHBDF+AdvOTbc475f09;font-size:8.97px;font-style:NORMAL;font-weight:normal;">a range of 200 mg/m</text>
  <text svg_rhmargin="429.192" x="425.48,429.192" y="138.394" style="fill:#171615;font-family:FAHBDF+AdvOTbc475f09;font-size:5.98px;font-style:NORMAL;font-weight:normal;">2 </text>
  <text x="432.0,434.887,439.836,442.715,447.76,452.709,457.658,458.872,466.242,470.834,473.328" y="138.394" svg_rhmargin="480.698" style="fill:#171615;font-family:FAHBDF+AdvOTbc475f09;font-size:8.97px;font-style:NORMAL;font-weight:normal;">to 300 mg/m</text>
  <text x="480.813" y="134.36900000000003" svg_rhmargin="484.525" style="fill:#171615;font-family:FAHBDF+AdvOTbc475f09;font-size:5.98px;font-style:NORMAL;font-weight:normal;">2</text>
  <text x="484.554,486.97499999999997,489.826,494.776,497.31,504.283,506.777,509.198,511.993,514.88,519.986,523.438,526.222,531.1709999999999,532.346,541.312,544.138,547.025,551.9739999999999,554.853,559.8019999999999,560.976,570.047,572.4680000000001,575.263,581.216,586.165" y="138.394" svg_rhmargin="590.083" style="fill:#171615;font-family:FAHBDF+AdvOTbc475f09;font-size:8.97px;font-style:NORMAL;font-weight:normal;">, q.w., for 2 W to 3 W. The</text>
  <text x="345.089,348.604,352.522,357.561,362.51,366.065,369.069,372.987,377.93600000000004,385.737,390.686,395.771,398.658,402.687,407.637,415.16,419.078,422.53,430.353,437.257,441.294,444.809,448.72700000000003,456.488,463.858,468.45,470.944,475.894,478.428,482.911,490.673,493.56,498.61,502.635,507.584,511.138,515.057,520.006,527.806,532.851,537.8,545.55,549.468" y="149.336" svg_rhmargin="552.355" style="fill:#171615;font-family:FAHBDF+AdvOTbc475f09;font-size:8.97px;font-style:NORMAL;font-weight:normal;">reported outcomes were mainly focused on ef</text>
  <text x="552.472" y="149.336" svg_rhmargin="557.421" style="fill:#171615;font-family:FAHBDG+AdvOTbc475f09+fb;font-size:8.97px;font-style:NORMAL;font-weight:normal;">ﬁ</text>
  <text x="557.517,561.436,566.021,569.939,574.4219999999999,582.235,587.184" y="149.336" svg_rhmargin="590.071" style="fill:#171615;font-family:FAHBDF+AdvOTbc475f09;font-size:8.97px;font-style:NORMAL;font-weight:normal;">cacy of</text>
  <text x="345.089,349.007,354.046,358.996,362.04,365.572,370.522,373.023,375.525,378.026,382.976,387.459,391.86,399.23,403.794,406.295,408.797,413.28,418.31,422.793,427.891,430.778,435.147,440.097,442.63,446.549,451.588,455.12,459.684,462.105,466.431,470.349,473.404,476.291,481.321,484.854,487.355,492.305,497.389,499.81,504.136,506.637,514.008,519.109,522.624,527.573,532.148,534.65,539.599,544.082,548.483,555.853,563.393,568.809,571.23,575.638,580.121,585.151" y="160.27700000000004" svg_rhmargin="590.1" style="fill:#171615;font-family:FAHBDF+AdvOTbc475f09;font-size:8.97px;font-style:NORMAL;font-weight:normal;">controlling malignant pleural effusion, improving QOL, and</text>
  <text x="345.089,347.51,352.572,356.49,359.035,363.984,367.992,373.038,376.956,380.975,384.427,388.004,392.954,395.841,399.456,403.939,409.036,413.52,417.54,421.055,424.57,428.488,432.053,435.971,440.557,444.475,449.57,452.458,456.033" y="171.21900000000005" svg_rhmargin="458.454" style="fill:#171615;font-family:FAHBDF+AdvOTbc475f09;font-size:8.97px;font-style:NORMAL;font-weight:normal;">incidences of adverse events.</text>
  <text x="354.046,359.999,364.948,368.866,371.451,376.4,381.428,385.911,388.458,390.952,393.839,398.322,400.93,405.879,408.766,411.361,413.856,418.805,422.813,425.308,430.353,435.302,439.31,444.259,446.794,450.308,453.195,458.302,463.251,465.785,469.703,473.155,475.763,482.736,487.219,490.671,493.224,497.707,501.274,504.788,508.813,512.328,515.843,519.761,524.7099999999999,527.295,531.778,535.798,539.717,544.812,548.327,553.276,555.81,560.76,565.2429999999999,567.829,570.716,575.665,578.26,581.147,586.197" y="182.21699999999998" svg_rhmargin="590.115" style="fill:#171615;font-family:FAHBDF+AdvOTbc475f09;font-size:8.97px;font-style:NORMAL;font-weight:normal;">The quality of included studies was assessed according to the</text>
  <text x="345.089,351.527,356.597,360.515,365.554,369.069,373.552,378.651,382.569,386.758,394.298,398.781,403.822,408.867,413.816,418.845,423.89,428.839,433.018,437.967,440.501,445.546,447.967,452.123,459.606,464.09,468.11,471.625,476.108,478.654,481.149,483.57,487.782,490.669,495.719,499.637,503.826,508.872,513.821,518.396,520.89,523.385,526.272,530.755,535.007,540.052,542.939,547.139,550.026,555.076,558.994,562.559,566.477,570.723,573.61,577.186,579.68,584.164,586.71" y="193.15800000000002" svg_rhmargin="590.162" style="fill:#171615;font-family:FAHBDF+AdvOTbc475f09;font-size:8.97px;font-style:NORMAL;font-weight:normal;">Cochrane Handbook 5.1. Overall, the quality of these trials</text>
  <text x="345.089,351.993,356.597,360.049,363.514,367.432,372.527,377.477,381.031,383.525,388.475,392.483,395.998,400.023,404.97200000000004,408.413,413.006,416.45799999999997,419.922,427.293,432.395,437.344,441.352,444.867,449.35,452.35,456.26800000000003,459.777,463.292,465.786,469.301,474.25,477.748,482.697,485.584,489.087,494.132,496.626,501.11,504.676,507.097,510.573,516.525,521.475,526.56,531.509,536.083,541.0319999999999,544.531,551.901,556.946,560.461,563.348,566.867,571.817,574.704,578.263,581.15,586.2" y="204.10000000000002" svg_rhmargin="590.118" style="fill:#171615;font-family:FAHBDF+AdvOTbc475f09;font-size:8.97px;font-style:NORMAL;font-weight:normal;">was considered as moderate risk of bias. Though most of the</text>
  <text x="345.089,348.627,351.514,356.549,361.499,364.006,367.924,371.376,378.009,381.523,385.442,390.481,395.516,399.054,401.941,405.971,410.92,417.48,422.429,425.403,427.91,430.417,432.924,436.842,441.411,444.298,446.854,451.899,456.848,463.351,468.396,471.283,477.807,481.322,485.805,490.903,495.853,500.937,508.308,510.859,514.777,519.362,522.249,524.805,529.754,534.839,537.2600000000001,543.796,546.683,551.719,555.6370000000001,562.207,565.745,570.694,574.759,578.677" y="215.09799999999996" svg_rhmargin="581.098" style="fill:#171615;font-family:FAHBDF+AdvOTbc475f09;font-size:8.97px;font-style:NORMAL;font-weight:normal;">studies reported utilization of randomization, the speci</text>
  <text x="581.215" y="215.09799999999996" svg_rhmargin="586.164" style="fill:#171615;font-family:FAHBDG+AdvOTbc475f09+fb;font-size:8.97px;font-style:NORMAL;font-weight:normal;">ﬁ</text>
  <text x="586.204" y="215.09799999999996" svg_rhmargin="590.122" style="fill:#171615;font-family:FAHBDF+AdvOTbc475f09;font-size:8.97px;font-style:NORMAL;font-weight:normal;">c</text>
  <text x="345.089,350.038,354.046,356.933,361.529,364.024,366.518,369.96999999999997,373.491,378.084,383.033,387.982,391.52,399.003,402.921,405.92,410.869,415.954,420.903,424.355,427.916,432.961,435.848,439.368,442.882,447.366,452.464,457.413,462.441,469.812,472.363,476.388,480.871,483.871,486.365,491.315,496.264,499.858,506.831,510.749,514.314,518.232,521.741,526.786,530.301,534.219,537.784,541.703,546.742,549.746,553.665,558.6139999999999,562.162,564.656,569.6049999999999,573.16,578.109,583.194,585.615" y="226.03999999999996" svg_rhmargin="590.098" style="fill:#171615;font-family:FAHBDF+AdvOTbc475f09;font-size:8.97px;font-style:NORMAL;font-weight:normal;">details and methods of randomization were presented in only</text>
  <text x="345.089,347.976,352.005,358.909,363.514,366.402,369.977,372.472,376.955,379.501,383.016,385.437,389.989,396.509,399.003,402.518,407.467,412.043,416.992,419.879,424.515,429.107,431.528,434.04,439.085,443.003,447.589,450.476,453.031,457.981,462.93,467.544,474.517,479.109,482.561,487.102,491.127,495.611,500.198,502.692,507.641,512.216,515.103,519.189,524.1379999999999,528.714,533.197,536.649,541.3,548.67,553.716,558.761,562.679,566.244,570.727,573.728,577.646,582.231,585.118" y="236.981" svg_rhmargin="590.067" style="fill:#171615;font-family:FAHBDF+AdvOTbc475f09;font-size:8.97px;font-style:NORMAL;font-weight:normal;">few trials. Risk of allocation was evaluated as moderate to</text>
  <path d=" M 85.03900146484375 544.7050170898438 L 590.1729736328125 544.7050170898438 L 590.1729736328125 545.4420166015625 L 85.03900146484375 545.4420166015625 Z " style="fill:none;stroke:#000000;stroke-width:1.0;"/>
  <path d=" M 85.03900146484375 81.52400207519531 L 590.1729736328125 81.52400207519531 L 590.1729736328125 82.31770324707031 L 85.03900146484375 82.31770324707031 Z " style="fill:none;stroke:#000000;stroke-width:1.0;"/>
  <rect style="stroke:blue;stroke-width:0.3;" x="121.266" y="262.381" height="436.989" width="433.039" title="3"/>
  <text x="121.266" y="262.381" class="image" id="image.3.1" width="433" height="436">image.3.1.121_554.262_699</text>
  <text svg_rhmargin="318.635" x="288.453,292.81,294.597,298.954,303.228,305.792,309.917,312.493,316.618,318.635" y="710.3679999999999" style="fill:#171615;font-family:FAHBKM+AdvOTf94803d4;font-size:7.47px;font-style:NORMAL;font-weight:normal;">Figure 1. </text>
  <text svg_rhmargin="340.866" x="322.355,327.026,329.201,333.169,337.444,340.86600000000004" y="710.3679999999999" style="fill:#171615;font-family:FAHBBN+AdvOT6e5d2ec0;font-size:7.47px;font-style:NORMAL;font-weight:normal;">Study </text>
  <text x="343.388" y="710.3679999999999" svg_rhmargin="346.653" style="fill:#171615;font-family:FAHBDA+AdvOT6e5d2ec0+fb;font-size:7.47px;font-style:NORMAL;font-weight:normal;">ﬂ</text>
  <text x="346.677,350.801,356.323,358.809,363.083,364.405,368.216,372.34,374.671,378.482,384.624" y="710.3679999999999" svg_rhmargin="386.641" style="fill:#171615;font-family:FAHBBN+AdvOT6e5d2ec0;font-size:7.47px;font-style:NORMAL;font-weight:normal;">ow diagram.</text>
  <text x="85.039,92.26,96.325,100.557,104.956,107.546,111.61,113.929,116.617,120.681,122.092,124.244,126.877,133.429,137.494,142.053,143.463,147.528,148.939,153.171,157.236,159.815,161.72,166.119,170.519,174.919,179.318,181.223,183.852,188.251,192.651,194.803,199.202,203.601,517.041,522.931,528.821,534.711,536.863,543.414,547.973,550.874,552.285,556.685,560.917,563.3,567.532,571.597,573.008,575.16,579.224,583.624" y="9.870999999999981" svg_rhmargin="590.176" style="fill:#171615;font-family:FAHBBN+AdvOT6e5d2ec0;font-size:7.97px;font-style:NORMAL;font-weight:normal;">Wang et al. Medicine (2018) 97:44 www.md-journal.com</text>
  <text x="335.396" y="739.625" svg_rhmargin="339.796" style="fill:#171615;font-family:FAHBKM+AdvOTf94803d4;font-size:7.97px;font-style:NORMAL;font-weight:normal;">3</text>
 </g>
</svg>
