<?xml version="1.0" encoding="UTF-8"?>
<svg height="870.031005859375" width="672.0029907226562" xmlns="http://www.w3.org/2000/svg">
 <g style="fill:none;">
  <path d=" M 0.05999799817800522 826.072021484375 L 22.619997024536133 826.072021484375 L 22.619997024536133 826.35546875 L 0.05999799817800522 826.35546875 Z " style="fill:none;stroke:#000000;stroke-width:1.0;"/>
  <path d=" M 33.67599868774414 837.4110107421875 L 33.959449768066406 837.4110107421875 L 33.959449768066406 860.031005859375 L 33.67599868774414 860.031005859375 Z " style="fill:none;stroke:#000000;stroke-width:1.0;"/>
  <path d=" M 627.9869995117188 837.4110107421875 L 628.2703857421875 837.4110107421875 L 628.2703857421875 860.031005859375 L 627.9869995117188 860.031005859375 Z " style="fill:none;stroke:#000000;stroke-width:1.0;"/>
  <path d=" M 639.3259887695312 826.072021484375 L 662.0029907226562 826.072021484375 L 662.0029907226562 826.35546875 L 639.3259887695312 826.35546875 Z " style="fill:none;stroke:#000000;stroke-width:1.0;"/>
  <path d=" M 639.3259887695312 33.731998443603516 L 662.0029907226562 33.731998443603516 L 662.0029907226562 34.015480041503906 L 639.3259887695312 34.015480041503906 Z " style="fill:none;stroke:#000000;stroke-width:1.0;"/>
  <path d=" M 627.9869995117188 0.0 L 628.2703857421875 0.0 L 628.2703857421875 22.677000045776367 L 627.9869995117188 22.677000045776367 Z " style="fill:none;stroke:#000000;stroke-width:1.0;"/>
  <path d=" M 33.67599868774414 0.0 L 33.959449768066406 0.0 L 33.959449768066406 22.677000045776367 L 33.67599868774414 22.677000045776367 Z " style="fill:none;stroke:#000000;stroke-width:1.0;"/>
  <path d=" M 0.05999799817800522 33.731998443603516 L 22.619997024536133 33.731998443603516 L 22.619997024536133 34.015480041503906 L 0.05999799817800522 34.015480041503906 Z " style="fill:none;stroke:#000000;stroke-width:1.0;"/>
  <text x="85.039,88.491,93.441,98.39,105.294,109.213,114.16199999999999,120.245,123.132,128.081,132.564,135.451,141.561,145.479,147.9,151.819,159.189,163.107,168.057,171.975,178.07,181.988,186.938,194.308,199.258,201.678,206.628,210.546,215.495,221.609,228.513,230.934,233.821,238.77,244.852,248.77,253.72,257.638,265.008,269.958,272.845,277.794,281.713,285.165,289.648,294.597,299.08,305.171,310.12,314.604,319.553,325.637" y="554.803" svg_rhmargin="330.12" style="fill:#171615;font-family:FAHBDF+AdvOTbc475f09;font-size:8.97px;font-style:NORMAL;font-weight:normal;">showed that elemene combined with chemotherapy had a</text>
  <text x="85.039,88.491,90.912,95.395,100.345" y="565.745" svg_rhmargin="102.766" style="fill:#171615;font-family:FAHBDF+AdvOTbc475f09;font-size:8.97px;font-style:NORMAL;font-weight:normal;">signi</text>
  <text x="102.785" y="565.745" svg_rhmargin="107.734" style="fill:#171615;font-family:FAHBDG+AdvOTbc475f09+fb;font-size:8.97px;font-style:NORMAL;font-weight:normal;">ﬁ</text>
  <text x="107.717,111.635,116.118,121.068,123.955,126.142,129.594,132.015,135.467,139.38500000000002,141.619,144.039,148.988,151.143,154.03,158.979,162.89700000000002,165.145,170.095,175.044,182.414,187.364,191.282,194.734,196.892,201.842,204.729,206.926,211.876,216.359,219.246,221.667,225.585,230.535,233.422,236.874,239.071,245.975,250.924,255.87300000000002,258.062,262.545,266.464,271.413,273.834,277.752,282.235,286.154,291.103,293.324,296.211,299.663,303.581,308.065,310.952,318.322,322.24,327.19" y="565.745" svg_rhmargin="330.077" style="fill:#171615;font-family:FAHBDF+AdvOTbc475f09;font-size:8.97px;font-style:NORMAL;font-weight:normal;">cant rise in the number of patients who achieved treatment</text>
  <text x="85.039,88.491,92.41,95.862,100.811,105.761,110.71,114.162,118.08,120.501,123.646,128.129,131.581,135.033,139.982,143.9,146.321,150.805,153.692,157.61,162.55900000000003,165.654,172.558,174.979,177.866,182.81500000000003,185.949,188.37,193.319,200.22299999999998,203.353,206.805,209.226,212.678,217.627,220.701,225.651,228.538,231.643,236.126,241.075,245.559,249.477,252.929,256.381,260.299,263.446,267.365,271.848,275.766,280.716,283.603,287.055,289.476,292.586,300.055,305.004,311.908,315.827,320.31,324.228,327.68" y="576.7429999999999" svg_rhmargin="330.101" style="fill:#171615;font-family:FAHBDF+AdvOTbc475f09;font-size:8.97px;font-style:NORMAL;font-weight:normal;">response, associated with low risk of adverse events. However,</text>
  <text svg_rhmargin="102.667" x="85.039,87.927,92.876,96.794,99.215,102.667" y="587.684" style="fill:#171615;font-family:FAHBDF+AdvOTbc475f09;font-size:8.97px;font-style:NORMAL;font-weight:normal;">their </text>
  <text x="106.299" y="587.684" svg_rhmargin="111.248" style="fill:#171615;font-family:FAHBDG+AdvOTbc475f09+fb;font-size:8.97px;font-style:NORMAL;font-weight:normal;">ﬁ</text>
  <text x="111.232,116.181,121.131,123.551,128.501,132.984,136.436,140.031,142.918,147.401,149.822,152.243,156.161,161.11,164.748,167.635,172.584,176.2,181.149,184.601,189.551,194.034,197.952,201.54,205.459,207.88,211.798,219.168,223.086,228.036,231.954,235.555,242.459,246.942,250.394,253.98,258.929,262.847,265.735,268.622,272.54,275.992,279.661,282.082,287.031,290.603,293.024,300.394,305.343,308.795,313.745,318.228,320.649,325.598" y="587.684" svg_rhmargin="330.081" style="fill:#171615;font-family:FAHBDF+AdvOTbc475f09;font-size:8.97px;font-style:NORMAL;font-weight:normal;">ndings failed to prove elemene was better in improving</text>
  <text x="85.039,88.491,93.441,96.893,101.376,103.797,108.28,112.763,115.18400000000001,117.07,120.522,125.005,127.892,131.81,134.231,136.118,142.556,147.505,152.454,155.341,160.291,164.209,167.661,169.566,173.018,175.905,180.854,185.804,190.287,192.128,197.078,201.561,203.467,209.905,214.854,218.773,223.722,225.577,229.495,232.382,234.251,238.734" y="598.626" svg_rhmargin="241.155" style="fill:#171615;font-family:FAHBDF+AdvOTbc475f09;font-size:8.97px;font-style:NORMAL;font-weight:normal;">survival rate. Another study by Chen et al</text>
  <text svg_rhmargin="249.215" x="241.172,243.338,247.05,249.215" y="598.627" style="fill:#171615;font-family:FAHBDF+AdvOTbc475f09;font-size:5.98px;font-style:NORMAL;font-weight:normal;">[8] </text>
  <text x="251.093,255.011,259.494,263.977,266.398,271.348,275.831,278.718,282.636,287.58500000000004,289.472,292.359,297.309,301.22700000000003,303.135,307.053,309.474,311.895,316.845,319.265,323.184,327.667" y="598.627" svg_rhmargin="330.088" style="fill:#171615;font-family:FAHBDF+AdvOTbc475f09;font-size:8.97px;font-style:NORMAL;font-weight:normal;">evaluated the clinical</text>
  <text x="85.039,88.957" y="609.625" svg_rhmargin="91.844" style="fill:#171615;font-family:FAHBDF+AdvOTbc475f09;font-size:8.97px;font-style:NORMAL;font-weight:normal;">ef</text>
  <text x="91.842" y="609.625" svg_rhmargin="96.791" style="fill:#171615;font-family:FAHBDG+AdvOTbc475f09+fb;font-size:8.97px;font-style:NORMAL;font-weight:normal;">ﬁ</text>
  <text x="96.83,100.749,105.232,109.15,113.63300000000001,120.188,125.137,128.024,134.644,138.562,140.983,144.901,152.272,156.19,161.139,165.05700000000002,171.663,174.084,179.03300000000002,185.609,188.496,191.948,195.867,200.35,203.237,205.658,210.607,215.09,221.722,224.143,229.092,234.042,238.525,245.136,249.054,253.537,258.487,262.405,266.323,269.775,276.372,281.322,285.805,288.692,291.113,295.031,299.981,302.868,306.32,312.938,319.842,322.263,325.15" y="609.625" svg_rhmargin="330.099" style="fill:#171615;font-family:FAHBDF+AdvOTbc475f09;font-size:8.97px;font-style:NORMAL;font-weight:normal;">cacy of elemene in treating lung cancer patients with</text>
  <text x="85.038,92.408,96.891,99.312,101.733,106.216,111.166,115.649,120.598,123.485,127.216,132.166,134.587,138.505,143.454,146.906,151.389,153.81,157.546,161.464,164.351,167.238,172.188,175.64,178.061,183.01,187.959,190.38,194.111,199.993,204.942,208.861,213.344,217.015,219.436,224.385,228.303,230.724,235.674,240.623,244.541,249.49,253.24,257.723,261.404,264.291,269.241,272.128,276.611,279.032,282.72,287.669,290.556,294.284,299.234,304.183,307.891,314.329,320.766,326.648" y="620.566" svg_rhmargin="330.1" style="fill:#171615;font-family:FAHBDF+AdvOTbc475f09;font-size:8.97px;font-style:NORMAL;font-weight:normal;">malignant pleural effusion. They included a total of 14 RCTs</text>
  <text x="85.038,91.942,94.363,97.25,102.199,105.333,110.283,115.232,120.181,125.13,128.237,132.155,136.638,141.587,145.506,149.424,152.876,156.015,160.965,165.448,168.335,170.756,174.674,179.623,182.511,185.963,189.066,191.953,196.902,200.35399999999998,203.466,206.353,211.302,215.22,218.376,225.746,229.664,232.551,237.035,239.922,244.405,249.354,253.838,256.258,260.742,264.194,266.615,270.067,273.196,277.679,282.628,287.577,290.657,293.544,298.493,302.411,305.567,309.019,312.937,316.389,321.339,323.759,326.647" y="631.508" svg_rhmargin="330.099" style="fill:#171615;font-family:FAHBDF+AdvOTbc475f09;font-size:8.97px;font-style:NORMAL;font-weight:normal;">with 1298 cancer patients for the meta-analysis and the results</text>
  <text x="85.038,88.49,93.439,98.389,105.293,109.211,114.16,118.883,121.77,126.72,131.203,134.09,138.782,141.669,146.618,150.536,155.279,160.228,165.178,167.599,171.517,175.435,178.322,180.743,185.226,189.144,193.885,197.337,201.256,204.708,209.657,214.606,219.556,223.008,226.92600000000002,231.641,235.093,239.577,242.464,246.382,251.087,256.036,258.923,263.673,266.56,271.509,275.427,280.113,284.032,286.452,290.371,297.741,301.659,306.609,310.527,315.262,322.166,326.649" y="642.506" svg_rhmargin="330.101" style="fill:#171615;font-family:FAHBDF+AdvOTbc475f09;font-size:8.97px;font-style:NORMAL;font-weight:normal;">showed that the objective response rate of the elemene was</text>
  <text x="85.038,88.49,90.911,95.394,100.343" y="653.448" svg_rhmargin="102.764" style="fill:#171615;font-family:FAHBDF+AdvOTbc475f09;font-size:8.97px;font-style:NORMAL;font-weight:normal;">signi</text>
  <text x="102.783" y="653.448" svg_rhmargin="107.732" style="fill:#171615;font-family:FAHBDG+AdvOTbc475f09+fb;font-size:8.97px;font-style:NORMAL;font-weight:normal;">ﬁ</text>
  <text x="107.715,111.634,116.117,121.066,123.953,126.374,130.857,135.098,140.047,142.468,146.951,151.901,155.819,159.271,163.5,166.387,171.337,175.82,180.769,184.986,187.873,192.823,197.306,200.193,204.431,209.381,212.268,216.507,219.394,224.344,228.262,232.494,236.412,241.362,246.311,249.198,252.65,257.6,260.021,264.241,268.724,272.176,277.126,282.075,287.025,289.44599999999997,293.721,297.639,301.091,306.04,309.959,313.877,316.298,320.781,323.202,325.623" y="653.448" svg_rhmargin="330.106" style="fill:#171615;font-family:FAHBDF+AdvOTbc475f09;font-size:8.97px;font-style:NORMAL;font-weight:normal;">cantly higher than that of the control group, especially</text>
  <text x="85.038,91.942,96.891,100.81,105.759,108.791,112.71,117.659,125.029,129.979,134.462,137.914,141.832,146.781,149.836,156.74,159.161,162.048,166.997,170.074,176.978,183.882,188.832,191.253,194.282,200.719,204.638,208.556,212.474,217.424,220.311,222.732,227.215,229.636,232.718,241.685,246.168,251.117,255.6,258.626,262.545,265.432,268.491,272.974" y="664.389" svg_rhmargin="275.395" style="fill:#171615;font-family:FAHBDF+AdvOTbc475f09;font-size:8.97px;font-style:NORMAL;font-weight:normal;">when compared with DDP. Recently, Wang et al</text>
  <text svg_rhmargin="287.17" x="275.414,277.58,281.293,285.005,287.17" y="664.391" style="fill:#171615;font-family:FAHBDF+AdvOTbc475f09;font-size:5.98px;font-style:NORMAL;font-weight:normal;">[12] </text>
  <text x="290.268,295.217,299.135,302.587,305.474,310.424,313.876,321.246,325.164" y="664.391" svg_rhmargin="330.113" style="fill:#171615;font-family:FAHBDF+AdvOTbc475f09;font-size:8.97px;font-style:NORMAL;font-weight:normal;">performed</text>
  <text x="85.039,89.522,94.471,99.421,102.308,107.257,111.176,114.628,118.146,125.516,129.435,132.322,136.805,139.692,144.175,149.125,153.608,156.029,160.512,163.964,166.385,169.837,173.363,176.25,181.199,184.758,189.242,192.694,196.146,200.064,203.516,206.968,210.496,213.383,218.333,222.251,225.746,229.664,232.085,234.506,239.456,241.876,245.795,250.278,252.69899999999998,256.246,260.164" y="675.389" svg_rhmargin="263.051" style="fill:#171615;font-family:FAHBDF+AdvOTbc475f09;font-size:8.97px;font-style:NORMAL;font-weight:normal;">another meta-analysis to assess the clinical ef</text>
  <text x="263.055" y="675.389" svg_rhmargin="268.004" style="fill:#171615;font-family:FAHBDG+AdvOTbc475f09+fb;font-size:8.97px;font-style:NORMAL;font-weight:normal;">ﬁ</text>
  <text x="267.987,271.906,276.389,280.307,284.79,288.34,293.289,296.176,299.679,303.597,306.018,309.936,317.306,321.225,326.174" y="675.389" svg_rhmargin="330.092" style="fill:#171615;font-family:FAHBDF+AdvOTbc475f09;font-size:8.97px;font-style:NORMAL;font-weight:normal;">cacy of elemene</text>
  <text x="85.039,89.522,93.44,96.892,100.344,105.294,108.746,110.777,117.681,124.585,129.534,131.582,134.003,138.952,140.993,143.88,147.332,151.251,155.734,158.621,161.042,165.991,170.47400000000002,172.513,179.884,184.367,186.788,189.208,193.692,198.641,203.124,208.074,210.961,213.047,217.997,220.417,224.336,229.285,232.737,237.22,239.641,241.676,245.594,248.481,251.368,256.318,259.77,262.191,267.14,272.089,274.16,278.078,282.561,287.511,290.963,294.881,299.83,301.825,306.775,311.258,313.277,315.698,320.647,325.597" y="686.33" svg_rhmargin="330.08" style="fill:#171615;font-family:FAHBDF+AdvOTbc475f09;font-size:8.97px;font-style:NORMAL;font-weight:normal;">versus DDP in treating malignant pleural effusion caused by lung</text>
  <text x="85.039,88.957,93.44,98.39,102.308,106.226,109.678,112.099,114.575,120.457,125.406,129.324,133.80700000000002,136.231,138.652,143.601,147.52,149.941,154.89,159.839,163.758,168.70700000000002,171.153,176.102,181.05100000000002,183.512,186.964,189.851,194.801,199.75,202.171,206.089,209.541,212.028,218.932,221.353,224.24,229.18900000000002,231.643,236.126,238.56,241.447,246.396,249.284,253.767,256.188,258.628,263.578,266.465,268.946,273.895,278.845,283.79400000000004,286.236,288.657,293.607,298.556,303.039,305.455,309.373,313.856,318.806,322.724,326.642" y="697.272" svg_rhmargin="330.094" style="fill:#171615;font-family:FAHBDF+AdvOTbc475f09;font-size:8.97px;font-style:NORMAL;font-weight:normal;">cancer. They included 14 studies with a total of 732 lung cancer</text>
  <text svg_rhmargin="140.016" x="85.039,89.988,94.471,97.359,99.779,103.698,108.647,111.534,114.986,117.40700000000001,119.393,125.275,130.225,134.143,136.564,140.016" y="708.213" style="fill:#171615;font-family:FAHBDF+AdvOTbc475f09;font-size:8.97px;font-style:NORMAL;font-weight:normal;">patients. Their </text>
  <text x="141.959" y="708.213" svg_rhmargin="146.908" style="fill:#171615;font-family:FAHBDG+AdvOTbc475f09+fb;font-size:8.97px;font-style:NORMAL;font-weight:normal;">ﬁ</text>
  <text x="146.948,151.897,156.846,159.267,164.217,168.7,172.152,174.103,177.555,182.504,186.988,191.471,195.389,198.841,201.728,205.646,210.595,212.54,215.427,220.376,224.859,227.746,229.717,232.604,237.554,241.472,243.437,250.807,257.245,263.683,265.603,268.024,272.973,274.958,278.876,281.297,285.215,292.585,296.504,301.453,305.371,307.329,311.812,315.264,320.213,325.163" y="708.213" svg_rhmargin="330.112" style="fill:#171615;font-family:FAHBDF+AdvOTbc475f09;font-size:8.97px;font-style:NORMAL;font-weight:normal;">ndings suggested that the ORR in elemene group</text>
  <text x="85.039,91.943,96.426,99.878,101.65,105.102,107.523,112.006,116.955" y="719.211" svg_rhmargin="119.376" style="fill:#171615;font-family:FAHBDF+AdvOTbc475f09;font-size:8.97px;font-style:NORMAL;font-weight:normal;">was signi</text>
  <text x="119.395" y="719.211" svg_rhmargin="124.344" style="fill:#171615;font-family:FAHBDG+AdvOTbc475f09+fb;font-size:8.97px;font-style:NORMAL;font-weight:normal;">ﬁ</text>
  <text svg_rhmargin="330.101" x="124.327,128.246,132.729,137.678,140.565,142.986,147.469,149.215,154.165,156.585,161.069,166.018,169.936,173.388,175.123,178.01,182.96,187.443,192.39200000000002,194.171,197.058,202.008,206.491,209.37800000000001,211.122,216.072,218.959,220.703,223.59,228.539,232.457,234.195,241.099,248.003,252.952,254.717,259.2,262.652,267.602,272.551,277.501,279.92199999999997,281.702,287.584,292.533,296.452,299.904,303.822,305.57,309.022,312.94,316.392,321.341,323.762,326.649,330.101" y="554.802" style="fill:#171615;font-family:FAHBDF+AdvOTbc475f09;font-size:8.97px;font-style:NORMAL;font-weight:normal;">cantly higher than that of the DDP group. These results </text>
  <text svg_rhmargin="453.399" x="345.09,349.573,353.025,356.943,360.794,363.215,368.164,372.075,376.558,380.477,384.395,389.344,392.796,397.746,402.229,407.178,411.097,415.015,418.958,425.862,428.283,431.17,436.119,440.048,444.997,449.947,453.399" y="554.802" style="fill:#171615;font-family:FAHBDF+AdvOTbc475f09;font-size:8.97px;font-style:NORMAL;font-weight:normal;">are in accordance with our </text>
  <text x="457.286" y="554.802" svg_rhmargin="462.235" style="fill:#171615;font-family:FAHBDG+AdvOTbc475f09+fb;font-size:8.97px;font-style:NORMAL;font-weight:normal;">ﬁ</text>
  <text x="462.218,467.167,472.117,474.538,479.487,483.97,487.422,489.843,493.738,501.108,506.058,509.51,513.41,516.862,520.78,524.232,529.182,531.603,534.49,537.942,541.869,545.321,550.271,555.22,562.124,566.042,570.991,574.92,577.807,582.756,587.24" y="554.802" svg_rhmargin="590.127" style="fill:#171615;font-family:FAHBDF+AdvOTbc475f09;font-size:8.97px;font-style:NORMAL;font-weight:normal;">ndings. Our results showed that</text>
  <text x="345.09,349.009,351.429,355.348,362.718,366.636,371.586,375.504,381.316,388.22,392.703,396.155,401.895,406.845,411.794,414.681,420.491,425.44,430.389,432.81,437.293,443.111,447.029,451.978,456.928,459.349,464.298,466.719,469.606,472.027,476.977,481.46,487.273,490.161,495.11,499.028,504.791,509.274,514.223,516.644,519.065,521.486,524.373,528.856,534.667,539.617,542.5039999999999,548.33,552.249,557.198,562.147,565.034,568.487,573.436,575.857,578.278,580.699,585.648" y="565.7429999999999" svg_rhmargin="590.131" style="fill:#171615;font-family:FAHBDF+AdvOTbc475f09;font-size:8.97px;font-style:NORMAL;font-weight:normal;">elemene was not only exhibiting the ability of controlling</text>
  <text x="345.09,352.461,356.944,359.365,361.786,366.269,371.218,375.701,380.651,383.538,389.536,394.486,396.907,400.825,405.774,409.226,413.709,416.13,422.191,426.109,428.996,431.883,436.833,440.285,442.706,447.655,452.604,455.025,461.081,466.03,470.98,473.867,479.903,484.386,486.807,490.259,495.208,501.22,503.641,511.011,515.96,519.412,524.362,528.845,531.266,536.215,540.698,546.742,554.113,561.483,566.8979999999999,572.934,579.838,582.259,585.146" y="576.741" svg_rhmargin="590.095" style="fill:#171615;font-family:FAHBDF+AdvOTbc475f09;font-size:8.97px;font-style:NORMAL;font-weight:normal;">malignant pleural effusion, but also improving QOL with</text>
  <text x="345.09,347.977,352.927,355.348,359.266,362.718,367.201,372.151,374.571,378.48900000000003,382.109,386.593,391.542,396.025,399.943,403.395,406.847,410.765,414.367,418.285,422.768,426.686,431.636,434.523,437.975,440.396,443.959,452.925,455.346,458.233,463.182,466.806,470.258,474.176,478.659,483.143,486.595,491.54400000000004,495.152,498.039,502.988,506.547,511.031,515.98,520.463,524.381,527.833,531.285,535.203,538.805,542.257,546.175,550.658,554.576,557.463,559.884,564.834,569.783,573.235,575.6560000000001,579.282,586.186" y="587.683" svg_rhmargin="590.104" style="fill:#171615;font-family:FAHBDF+AdvOTbc475f09;font-size:8.97px;font-style:NORMAL;font-weight:normal;">tolerable adverse events. With regard to adverse reactions, we</text>
  <text x="345.09,349.573,351.994,355.446,360.39500000000004,362.778,365.665,370.615,375.564,380.513,385.462,387.893,390.78,395.729,400.212,403.099,405.524,408.411,413.361,417.279,419.697,422.118,427.067,430.986,433.407,438.356,442.274,447.224,451.142,455.06,458.512,460.968,465.918,468.805,471.229,475.147,480.097,484.015,487.467,490.354,492.772,497.721,502.204,504.625,509.574,512.046,516.53,521.479,526.428,528.827,531.714,535.632,540.115,544.034,547.486,549.917,552.337,557.286,559.724,563.642,566.063,569.981,577.352,581.27,586.219" y="598.625" svg_rhmargin="590.137" style="fill:#171615;font-family:FAHBDF+AdvOTbc475f09;font-size:8.97px;font-style:NORMAL;font-weight:normal;">also found that the incidences of chest pain and fever in elemene</text>
  <text x="345.09,349.573,353.025,357.975,362.924,367.873,369.581,376.485,380.403,383.855,387.773,389.48,391.901,396.85,400.768,404.22,408.139,412.622,416.074,419.992,424.94100000000003,426.669,433.573,438.523,442.441,447.39,449.119,453.037,457.987,465.357,470.307,474.79,478.242,482.16,487.10900000000004,488.803,495.707,498.128,501.015,505.964,507.682,511.6,516.549,521.499,524.386,527.838,532.787,535.2080000000001,536.934,541.417,544.869,549.819,554.768,559.718,562.139,563.863,568.812,573.762,576.6489999999999,578.376,581.263,586.212" y="609.623" svg_rhmargin="590.13" style="fill:#171615;font-family:FAHBDF+AdvOTbc475f09;font-size:8.97px;font-style:NORMAL;font-weight:normal;">group were increased when compared with control group, but the</text>
  <text x="345.09,348.542,353.025,355.913,359.831,363.283,367.597,372.546,375.433,379.729,387.099,391.582,395.501,397.922,402.871,405.758,409.21,414.159,419.109,424.058,427.51,431.429,434.881,438.333,440.754,445.703,450.652,455.014,459.498,464.447,469.396,473.723,478.206,482.689,486.141,489.028,492.48,497.43,499.85,504.8,507.687,511.605,515.057,517.944,520.365,525.315,529.798,532.219,536.593,540.045,543.963,548.446,552.364,555.251,557.672,562.622,567.5709999999999,571.911,578.815,582.733,586.185" y="620.564" svg_rhmargin="590.103" style="fill:#171615;font-family:FAHBDF+AdvOTbc475f09;font-size:8.97px;font-style:NORMAL;font-weight:normal;">rates of myelo-suppression and gastrointestinal reaction were</text>
  <text x="345.09,348.542,350.963,358.333,360.754,363.175,367.658,371.11,374.909,379.859,383.311,387.098,391.017,395.5,399.418,404.367,408.188,413.137,417.056,420.974,424.426,428.344,432.827,436.279,440.198,445.147,448.949,455.853,460.802,464.72,469.66900000000004,473.439,477.358,482.307,489.677,494.627,499.11,502.562,506.48,511.42900000000003,515.22,522.125,524.545,527.433,532.382,536.196,541.146,544.033,548.982,552.9,556.352,560.177,567.547,571.465,576.415,578.835,582.754,587.237" y="631.506" svg_rhmargin="590.124" style="fill:#171615;font-family:FAHBDF+AdvOTbc475f09;font-size:8.97px;font-style:NORMAL;font-weight:normal;">similar or even decreased when compared with other medica-</text>
  <text x="345.09,347.977,350.398,355.348,360.297,363.749,366.17,367.88,373.762,378.711,382.629,386.082,390.0,391.747,399.118,403.601,408.084,409.832,414.782,418.7,420.434,424.352,428.836,433.785,437.237,441.155,446.104,447.873,452.822,457.305,459.041,461.928,466.878,470.796,472.534,477.017,481.5,484.952,487.373,491.291,496.24,497.988,500.875,505.358,510.308,514.226,517.678,519.418,524.367,527.2539999999999,528.998,532.916,537.4,542.349,546.267,550.185,553.638,556.0590000000001,557.853,562.803,565.224,568.111,570.998,574.916,578.368,582.287,587.236" y="642.504" svg_rhmargin="590.123" style="fill:#171615;font-family:FAHBDF+AdvOTbc475f09;font-size:8.97px;font-style:NORMAL;font-weight:normal;">tions. These may be caused by the varied types of cancer, different</text>
  <text x="345.09,349.009,353.958,361.328,366.278,368.699,373.648,378.131,381.018,383.439,388.389,393.338,398.663,403.612,406.499,411.816,414.703,418.155,422.073,426.556,429.443,436.814,440.732,445.681,448.568,453.938,458.421,463.37,468.319,473.61,478.559,481.446,486.396,490.314,493.766,499.121,503.604,507.056,512.005,515.923,519.842,522.729,526.181,528.6020000000001,533.929,539.811,544.76,548.678,553.998,557.45,562.399,567.349,571.832,575.284,580.233,585.183" y="653.4449999999999" svg_rhmargin="590.132" style="fill:#171615;font-family:FAHBDF+AdvOTbc475f09;font-size:8.97px;font-style:NORMAL;font-weight:normal;">combination of treatment and other aspects. The subgroup</text>
  <text x="345.09,349.573,354.523,359.006,361.427,365.91,369.362,373.28,376.73199999999997,381.316,384.768,389.717,394.667,401.571,405.489,410.438,415.104,417.991,422.94,427.423,430.31,434.946,438.864,441.285,445.204,452.574,456.492,461.442,465.36,469.981,476.885,481.368,484.82,489.426,496.797,501.746,505.198,508.085,512.726,516.644,519.531,522.419,526.337,530.255,533.142,535.563,540.046,543.964,548.612,551.033,555.982,560.63,563.517,566.969,570.888,575.371,578.258,580.679,585.628" y="664.387" svg_rhmargin="590.111" style="fill:#171615;font-family:FAHBDF+AdvOTbc475f09;font-size:8.97px;font-style:NORMAL;font-weight:normal;">analyses showed that elemene was most effective in treating</text>
  <text x="345.09,350.04,352.461,356.379,361.328,364.78,369.263,371.68399999999997,374.683,378.601,381.488,384.375,389.325,392.777,395.198,400.147,405.096,408.074,411.992,416.475,421.425,424.877,428.795,433.744,436.76,441.709,446.192,449.176,451.597,456.546,461.495,465.978,468.961,472.879,477.362,482.311,486.23,490.148,493.6" y="675.385" svg_rhmargin="496.021" style="fill:#171615;font-family:FAHBDF+AdvOTbc475f09;font-size:8.97px;font-style:NORMAL;font-weight:normal;">pleural effusion caused by lung cancer.</text>
  <text x="354.048,359.93,364.879,369.828,374.778,379.261,384.21000000000004,385.851,388.738,393.688,397.606,399.344,402.796,406.714,410.166,415.115,417.536,420.423,423.875,425.592,430.541,433.428,435.116,440.065,445.014,448.466,450.139,457.509,461.427,464.314,468.797,471.685,476.168,481.117,485.6,488.021,492.504,495.956,498.377,501.829,503.541,506.993,511.942,516.892,523.796,525.537,530.487,534.405,539.354" y="686.327" svg_rhmargin="543.272" style="fill:#171615;font-family:FAHBDF+AdvOTbc475f09;font-size:8.97px;font-style:NORMAL;font-weight:normal;">Though the results of our meta-analysis show bene</text>
  <text x="543.289" y="686.327" svg_rhmargin="548.238" style="fill:#171615;font-family:FAHBDG+AdvOTbc475f09+fb;font-size:8.97px;font-style:NORMAL;font-weight:normal;">ﬁ</text>
  <text x="548.222,552.14,554.561,559.044,561.465,563.132,567.05,569.471,571.892,576.841,579.262,583.18,587.664" y="686.327" svg_rhmargin="590.085" style="fill:#171615;font-family:FAHBDF+AdvOTbc475f09;font-size:8.97px;font-style:NORMAL;font-weight:normal;">cial clinical</text>
  <text x="345.09,350.04,354.989,357.876,361.794,366.744,374.114,378.032,381.484,383.413,387.896,392.846,397.795,399.797,403.249,407.732,410.62,414.538,417.425,421.908,423.834,430.738,435.688,439.606,444.555,446.567,451.517,454.969,457.39,462.339,466.822,468.79,472.709,475.129,479.048,486.418,490.336,495.286,499.204,501.161,504.048,508.998,512.45,514.427,518.345,522.828,527.778,531.696,535.614,539.066,541.015,545.964,550.447,553.334,555.755,559.674,564.623,567.51,570.962,572.932,579.836,582.257,585.144" y="697.268" svg_rhmargin="590.093" style="fill:#171615;font-family:FAHBDF+AdvOTbc475f09;font-size:8.97px;font-style:NORMAL;font-weight:normal;">outcomes and safety when using elemene for cancer patients with</text>
  <text x="345.09,352.461,356.944,359.365,361.786,366.269,371.218,375.701,380.651,383.538,385.851,390.8,393.221,397.14,402.089,405.541,410.024,412.445,414.82,418.739,421.626,424.513,429.462,432.914,435.335,440.285,445.234,447.655,450.026,453.478,457.396,461.879,465.797,469.249,473.733,476.154,478.541,480.962,483.383,490.753,493.174,496.061,500.544,503.432,505.852,510.802,515.751,519.203,521.57,525.488,530.437,532.858,536.31,539.1969999999999,541.581,544.002,548.9509999999999,551.276,556.225,561.175,564.627,566.979,570.431,573.319,578.268,583.217,587.701" y="708.21" svg_rhmargin="590.122" style="fill:#171615;font-family:FAHBDF+AdvOTbc475f09;font-size:8.97px;font-style:NORMAL;font-weight:normal;">malignant pleural effusion, several limitations exist in our study.</text>
  <text x="345.09,350.04,352.461,355.913,359.365,362.252,364.673,367.71,370.597,375.546,379.464,382.506,387.455,391.938,395.857,399.309,403.792,406.213,408.634,411.645,416.595,421.544,426.027,428.448,430.869,433.756,436.177,440.095,443.547,446.624,451.573,454.46,457.509,460.396,465.345,469.26300000000003,472.249,474.669,479.619,483.537,485.958,490.907,495.857,499.775,504.724,507.794,511.246,514.133,519.082,524.032,526.453,530.371,533.823,536.876,541.359,544.811,548.729,551.729,559.1,564.049,568.999,572.917,576.369,580.852,583.739,587.657" y="719.208" svg_rhmargin="590.078" style="fill:#171615;font-family:FAHBDF+AdvOTbc475f09;font-size:8.97px;font-style:NORMAL;font-weight:normal;">First, the overall qualities of the included studies are moderate,</text>
  <path d=" M 85.03900146484375 766.885009765625 L 590.1729736328125 766.885009765625 L 590.1729736328125 767.6220092773438 L 85.03900146484375 767.6220092773438 Z " style="fill:none;stroke:#000000;stroke-width:1.0;"/>
  <path d=" M 85.03900146484375 272.1830139160156 L 590.1729736328125 272.1830139160156 L 590.1729736328125 272.9200134277344 L 85.03900146484375 272.9200134277344 Z " style="fill:none;stroke:#000000;stroke-width:1.0;"/>
  <path d="M109.586 40.202 L565.625 40.202 L565.625 508.769 L109.586 508.769 " style="fill:none;stroke:#000000;stroke-width:1.0;"/>
  <rect style="stroke:blue;stroke-width:0.3;" x="109.587" y="40.202" height="468.567" width="456.11" title="11"/>
  <text x="109.587" y="40.202" class="image" id="image.11.1" width="456" height="468">image.11.1.110_566.40_509</text>
  <text svg_rhmargin="202.301" x="172.176,176.533,178.32,182.676,186.951,189.515,193.64,196.159,200.284,202.301" y="519.767" style="fill:#171615;font-family:FAHBKM+AdvOTf94803d4;font-size:7.47px;font-style:NORMAL;font-weight:normal;">Figure 7. </text>
  <text x="206.022,209.99,214.114,216.509,220.32,223.899,226.073,228.585,232.859,234.181,238.305,240.479,242.984,247.108,248.976,251.487,255.298,259.422,265.564,269.838,273.649,275.98,277.302,280.881,285.006,288.973,290.99,293.55,297.36,298.683,302.493,308.635,312.446,316.413,320.224,322.744,326.166,329.977,332.308,335.887,339.855,343.434,345.93,350.054,352.229,356.196,360.007,362.338,364.864,371.006,374.817,379.091,380.413,384.224,388.034,390.209,391.621,395.745,399.713,403.292,405.30899999999997,407.777,411.901,415.869,418.043,421.854,425.978,432.21,436.02,438.037,440.543,446.685,450.107,453.917,455.24,459.364,462.084,465.663,469.631,473.905,478.178,480.51,484.32,487.899,491.478,492.801,496.925,500.893" y="519.767" svg_rhmargin="502.91" style="fill:#171615;font-family:FAHBBN+AdvOT6e5d2ec0;font-size:7.47px;font-style:NORMAL;font-weight:normal;">Forest plot of comparison: elemene versus other medications, outcome: myelo-suppression.</text>
  <text x="85.039,92.26,96.325,100.557,104.956,107.546,111.61,113.929,116.617,120.681,122.092,124.244,126.877,133.429,137.494,142.053,143.463,147.528,148.939,153.171,157.236,159.815,161.72,166.119,170.519,174.919,179.318,181.223,183.852,188.251,192.651,194.803,199.202,203.601,517.041,522.931,528.821,534.711,536.863,543.414,547.973,550.874,552.285,556.685,560.917,563.3,567.532,571.597,573.008,575.16,579.224,583.624" y="9.870999999999981" svg_rhmargin="590.176" style="fill:#171615;font-family:FAHBBN+AdvOT6e5d2ec0;font-size:7.97px;font-style:NORMAL;font-weight:normal;">Wang et al. Medicine (2018) 97:44 www.md-journal.com</text>
  <text x="333.185,337.585" y="739.625" svg_rhmargin="341.985" style="fill:#171615;font-family:FAHBKM+AdvOTf94803d4;font-size:7.97px;font-style:NORMAL;font-weight:normal;">11</text>
 </g>
</svg>
