<?xml version="1.0" encoding="UTF-8"?>
<svg height="750.472" width="550.1723241461539" xmlns="http://www.w3.org/2000/svg">
 <g style="fill:none;">
  <text x="64.687,71.208,76.642,81.023,85.546,90.019,95.434,99.172,102.96,107.453,112.976,116.132,120.575,128.851,133.345,136.613,141.106,144.668,149.26,154.782,159.275,161.936,166.429,170.285,172.946,176.719,181.163,185.02,189.513,193.369,196.637,201.131,209.407,213.9,217.168,219.711,224.204,228.698,231.241,233.96,238.341,242.805,246.661,251.154,255.647,261.17,266.692,271.185,276.389,280.823,285.297,287.958" y="260.45399999999995" svg_rhmargin="290.506" style="fill:#131413;font-family:EMLAJL+JhftpfAdvTT86d47313;font-size:9.8px;font-style:NORMAL;font-weight:normal;">The current meta-analysis systematically scanned all</text>
  <text x="56.69,61.892,64.744,69.318,72.579,77.987,82.368,86.942,91.321,95.915,100.401,103.055,105.709,110.195,115.397,117.943,122.324,127.016,130.875,134.137,139.544,144.854,147.508,151.994,155.767,160.381,164.867,170.382,175.586,180.131,185.578,190.172,193.945,198.51,203.31,205.856,210.509,214.986,220.396,225.019,229.4,233.974,237.755,242.29,244.836,249.372,252.633,255.287,259.773,264.154,268.895,273.43,277.172,281.658,286.968" y="272.46799999999996" svg_rhmargin="290.535" style="fill:#131413;font-family:EMLAJL+JhftpfAdvTT86d47313;font-size:9.8px;font-style:NORMAL;font-weight:normal;">of the available studies and has given a relative cred-</text>
  <text x="56.69,59.342,64.434,67.164,71.545,75.725,80.317,84.91,87.562,92.869,97.354,102.867,107.351,111.732,115.913,118.868,124.068,127.743,131.894,135.124,140.53,144.911,149.199,153.683,156.227,158.948,164.442,167.094,171.578,176.062,178.61,182.811,187.295,190.251,193.206,197.799,202.283,205.631,209.404,213.624,218.716,221.568,225.807,231.418,237.539,242.635,246.835,252.035,257.445,261.616,265.394,270.594,273.854,278.387,281.647,286.846" y="284.48299999999995" svg_rhmargin="290.521" style="fill:#131413;font-family:EMLAJL+JhftpfAdvTT86d47313;font-size:9.8px;font-style:NORMAL;font-weight:normal;">ible evidence for the clinical effects of PRF on rotator</text>
  <text x="56.69,61.174,66.58,69.536,72.388,77.244,80.504,84.988,89.473,93.148,98.034,103.341,107.826,111.085,113.629,118.163,123.715,127.063,130.92,133.05599999999998,137.953,141.349,146.759,151.665,154.895,160.3,162.952,166.725,171.621,179.898,184.383,187.642,192.126,195.798,200.282,205.795,210.28,212.932,217.416,221.293,223.945,228.027,230.16299999999998,235.06,241.975,246.356,251.271,253.932,259.24,263.774,269.287,272.546,275.198,278.154,280.806,285.29" y="296.449" svg_rhmargin="290.494" style="fill:#131413;font-family:EMLAJL+JhftpfAdvTT86d47313;font-size:9.8px;font-style:NORMAL;font-weight:normal;">cuff tear patients. In this meta-analysis, we identified</text>
  <text x="56.69,60.492,64.971,68.538,71.89,76.368,80.847,84.52199999999999,89.804,93.547,98.026,101.309,105.69,110.942,115.538,119.31099999999999,124.554,127.837,133.227,137.608,142.86,148.192,151.935,154.601,162.882,167.36,171.162,175.543,180.796,185.892,191.399,194.633,199.171,204.267,212.606,217.085,219.221,224.513,230.638,235.117,238.968,244.407,246.955,250.414,254.18699999999998,259.43,263.281,268.72,273.816,280.853,285.331" y="308.463" svg_rhmargin="290.535" style="fill:#131413;font-family:EMLAJL+JhftpfAdvTT86d47313;font-size:9.8px;font-style:NORMAL;font-weight:normal;">re-tear rate as the primary outcome. Results showed</text>
  <text x="56.69,59.951,65.359,69.845,73.001,79.202,84.816,90.939,96.035,102.167,107.614,112.208,115.981,122.134,126.515,132.676,138.172,142.659,147.459,151.945,155.206,157.752,162.405,166.786,172.948,177.483,180.441,183.399,187.993,192.479,195.63500000000002,201.777,206.979,212.389,218.541,221.802,227.21,231.591,237.753,242.964,247.559,252.045,255.826,260.312,262.858,265.406,271.647,274.301,279.816,284.302,286.956" y="320.478" svg_rhmargin="290.523" style="fill:#131413;font-family:EMLAJL+JhftpfAdvTT86d47313;font-size:9.8px;font-style:NORMAL;font-weight:normal;">that PRF has a negative effect on the overall inci-</text>
  <text x="56.69,61.996,66.478,71.989,76.472,80.853,89.059,94.159,97.01100000000001,105.276,109.014,113.545,117.116,120.462,124.944,129.427,133.102,141.279,145.761,148.917,157.104,160.361,165.765,170.146,178.352,181.296,183.848,189.467,193.949,196.497,204.664,207.618,212.816,215.368,218.096,223.294,230.226,233.896,239.299,244.605,246.74099999999999,254.918,260.528,264.305,268.895,273.485,276.135,281.333,286.737" y="332.444" svg_rhmargin="290.51" style="fill:#131413;font-family:EMLAJL+JhftpfAdvTT86d47313;font-size:9.8px;font-style:NORMAL;font-weight:normal;">dence of re-tear at the final follow-up. Previous</text>
  <text x="56.69,64.962,69.451,72.716,77.205,80.773,85.37,90.889,95.378,98.035,102.524,106.406,109.063,112.836,119.442,124.715,127.372,132.576,139.162,144.68,149.885,153.041,159.637,164.91,170.115,175.32,177.868,184.444,187.709,193.119,195.776,199.549,206.155,208.704,217.045,222.357,227.562,231.306,234.59,239.08,244.598,247.75400000000002,254.35,259.564,264.975,268.239,272.729,277.933,286.098" y="344.458" svg_rhmargin="290.479" style="fill:#131413;font-family:EMLAJL+JhftpfAdvTT86d47313;font-size:9.8px;font-style:NORMAL;font-weight:normal;">meta-analysis did not pool this important outcome</text>
  <text x="56.69,59.983,64.972,69.961,73.213,75.34899999999999,80.19,86.304,90.782,94.446,97.699,102.176,106.654,110.329,115.159,119.637,124.83,130.228,132.873,138.077,142.849,151.129,155.606,160.603,164.984,169.785,173.076,178.475,182.856,187.657,192.957,197.435,200.688,203.333,207.81,213.317,216.716,220.489,225.28,230.581,233.226,237.096,240.966,245.444,248.696,251.341,255.211,258.16,260.805,265.283,270.487,275.317,279.794,285.301" y="356.473" svg_rhmargin="290.505" style="fill:#131413;font-family:EMLAJL+JhftpfAdvTT86d47313;font-size:9.8px;font-style:NORMAL;font-weight:normal;">[23]. Re-tear could make the patients dissatisfied and</text>
  <text x="56.69,59.341,64.853,69.337,73.115,77.598,82.189,86.065,90.446,95.586,100.069,105.376,110.682,113.333,116.592,119.135,124.412,129.915,134.398,136.946,142.106,146.589,151.788,155.664,159.069,162.945,165.081,170.202,175.303,180.708,185.799,190.684,194.462,199.661,205.065,210.269,215.38,219.863,225.376,229.908,232.451,236.993,240.908,243.451,247.224,252.472,255.015,260.626,265.932,268.583,273.067,277.55,280.809,285.292" y="368.439" svg_rhmargin="290.496" style="fill:#131413;font-family:EMLAJL+JhftpfAdvTT86d47313;font-size:9.8px;font-style:NORMAL;font-weight:normal;">increase additional costs. Subgroup analysis indicated</text>
  <text x="56.69,59.973,65.363,69.841,72.997,77.211,82.826,88.951,94.047,98.251,103.641,108.237,112.00999999999999,116.234,120.615,124.789,130.062,135.275,139.185,141.733,145.085,147.633,152.288,156.669,160.902,164.646,169.859,172.525,176.906,181.08,183.746,189.156,193.33,197.132,201.611,206.883,212.322,216.801,219.466,224.964,229.658,233.803,237.086,242.476,246.857,251.09,253.638,259.254,263.732,266.28,271.67,276.149,281.646,286.125" y="380.453" svg_rhmargin="290.506" style="fill:#131413;font-family:EMLAJL+JhftpfAdvTT86d47313;font-size:9.8px;font-style:NORMAL;font-weight:normal;">that PRF has a positive role in reducing the incidence</text>
  <text x="56.69,61.896,64.748,72.609,76.354,80.894,84.463,87.816,92.307,96.797,100.472,108.363,112.108,116.589,119.854,124.235,132.096,135.322,140.763,145.254,150.664,158.515,161.78,167.192,171.573,179.551,184.032,189.237,194.757,198.022,201.768,206.973,209.52100000000002,217.402,222.167,225.962,231.059,236.569,241.843,243.97899999999998,251.88,259.536,264.742,271.682,276.27,280.868,285.359,288.418" y="392.468" svg_rhmargin="290.554" style="fill:#131413;font-family:EMLAJL+JhftpfAdvTT86d47313;font-size:9.8px;font-style:NORMAL;font-weight:normal;">of re-tear rate than the control group. However,</text>
  <text x="56.69,59.345,64.44,70.054,74.816,78.49,81.752,86.289,90.031,98.194,104.71,109.188,112.147,115.105,119.7,124.188,127.528,131.30100000000002,137.788,143.001,145.853,152.358,157.973,164.097,169.193,175.66,182.597,187.084,190.866,195.247,201.694,206.182,211.08,214.343,218.125,222.612,230.882,235.37,238.024,242.405,248.911,251.458,259.797,265.127,270.222,274.082,277.344,281.832,287.348" y="404.434" svg_rhmargin="290.504" style="fill:#131413;font-family:EMLAJL+JhftpfAdvTT86d47313;font-size:9.8px;font-style:NORMAL;font-weight:normal;">long-term effects of PRF were extremely important</text>
  <text x="56.69,59.647,64.847,68.52199999999999,72.557,77.033,79.578,82.299,87.813,90.466,94.952,99.437,101.985,106.01,110.495,115.804,124.072,126.617,132.229,134.774,138.75,141.981,145.761,150.247,153.507,156.16,161.361,166.875" y="416.448" svg_rhmargin="169.011" style="fill:#131413;font-family:EMLAJL+JhftpfAdvTT86d47313;font-size:9.8px;font-style:NORMAL;font-weight:normal;">for clinical administration.</text>
  <text x="64.687,72.233,77.534,81.915,84.463,88.951,93.332,97.34,101.72,104.876,108.904,113.284,115.832,117.96799999999999,121.996,125.181,130.081,134.991,138.14700000000002,142.194,146.575,151.671,157.08,162.284,167.586,172.074,175.229,179.61,184.81400000000002,188.851,193.232,197.24,205.403,209.784,212.939,217.32,220.995,225.376,230.785,235.166,237.714,242.094,245.867,248.415,252.462,254.59799999999998,258.646,263.027,268.436,273.64,277.697,280.853,286.155" y="428.463" svg_rhmargin="290.536" style="fill:#131413;font-family:EMLAJL+JhftpfAdvTT86d47313;font-size:9.8px;font-style:NORMAL;font-weight:normal;">Hueley et al. [23] conducted a meta-analysis, and the</text>
  <text x="56.7,61.903,66.999,72.095,74.643,79.024,84.228,87.824,91.499,95.88,99.731,105.033,107.581,110.73700000000001,114.303,121.134,125.642,129.415,132.953,136.726,139.274,147.437,149.985,152.621,157.002,160.67700000000002,164.185,171.016,173.563,176.719,182.021,185.666,190.762,196.064,199.739,203.296,211.46,215.84,218.996,223.376,226.944,231.324,236.734,241.114,243.662,248.199,251.972,254.52,258.293,260.42900000000003,264.017,269.524,275.541,280.637,284.195,286.743" y="440.429" svg_rhmargin="290.516" style="fill:#131413;font-family:EMLAJL+JhftpfAdvTT86d47313;font-size:9.8px;font-style:NORMAL;font-weight:normal;">pooled result was similar with our meta-analysis. PRF is</text>
  <text x="56.7,61.08,66.176,71.586,75.359,77.907,83.11,87.599,91.274,95.654,100.85799999999999,104.837,109.374,113.14699999999999,117.087,122.183,127.592,131.973,136.02,140.92,143.468,148.878,154.082,158.07,163.166,166.018,170.036,175.239,177.787,182.168,185.323,189.704,192.252,196.74,199.89600000000002,203.884,208.265,213.361,218.77,223.151,227.532,232.941,236.195,239.87,244.25,247.406,251.786,255.814,257.95,261.939,266.32,271.729,276.933,280.931,283.479,286.772" y="452.444" svg_rhmargin="290.545" style="fill:#131413;font-family:EMLAJL+JhftpfAdvTT86d47313;font-size:9.8px;font-style:NORMAL;font-weight:normal;">considered as one kind of platelet concentrates, and its</text>
  <text x="56.7,64.863,69.959,72.507,77.054,81.435,86.736,89.284,93.665,97.34,101.093,104.866,108.022,111.697,117.077,121.457,124.613,129.915,133.59,137.971,141.733,148.564,151.112,154.267,159.569,163.332,165.88,170.976,177.807,181.59,184.745,190.047,193.722,198.818,206.981,212.077,214.625,220.035,223.827,228.208,233.304,238.792,243.172,247.553,252.962,256.118,259.793,264.173,267.329,269.877,274.973,280.38300000000004,284.204,286.752" y="464.458" svg_rhmargin="290.525" style="fill:#131413;font-family:EMLAJL+JhftpfAdvTT86d47313;font-size:9.8px;font-style:NORMAL;font-weight:normal;">molecular structure with low thrombin concentration is</text>
  <text x="56.7,61.08,66.49,70.135,75.231,80.435,83.591,86.139,94.302,98.682,101.23,104.886,113.049,117.43,120.585,124.26,126.808,131.6,135.334,138.186,143.282,146.95700000000002,150.583,158.746,161.294,165.988,169.663,174.044,177.199,179.835,184.931,190.341,193.947,199.043,201.895,205.511,209.892,215.301,220.505,225.601,228.757,234.058,238.566,241.114,243.662,248.043,250.591,254.217,258.597,262.978,265.526,268.074,271.84700000000004,275.531,279.912,285.322" y="476.424" svg_rhmargin="290.526" style="fill:#131413;font-family:EMLAJL+JhftpfAdvTT86d47313;font-size:9.8px;font-style:NORMAL;font-weight:normal;">an optimal matrix for migration of endothelial cells and</text>
  <text x="56.7,59.551,62.099,67.195,70.87,75.966,81.062,83.61,88.216,91.989,95.243,99.212,101.348,104.994,111.824,117.126,119.674,124.054,129.356,133.002,137.382,141.763,147.173,150.798,156.002,159.677,164.773,169.467,173.142,177.611,181.384,185.157,187.705,192.193,196.574,199.122,203.50300000000001,207.148,210.823,215.203,217.751,222.23,226.708,230.481,234.862,238.498,242.271,246.779,251.267,255.647,259.322,263.703,266.251,269.906,274.287,278.667,281.823,286.919" y="488.439" svg_rhmargin="290.486" style="fill:#131413;font-family:EMLAJL+JhftpfAdvTT86d47313;font-size:9.8px;font-style:NORMAL;font-weight:normal;">fibroblasts, which can progressively release several cyto-</text>
  <text svg_rhmargin="215.526" x="56.7,61.6,64.148,69.557,73.938,77.711,80.68,83.836,88.932,91.901,97.203,101.583,104.131,109.335,112.363,115.215,117.763,122.859,126.534,129.082,134.492,137.48,145.644,150.024,153.18,156.855,159.403,164.195,167.184,170.859,175.239,183.403,188.499,193.702,198.191,200.739,203.287,208.696,213.39,215.52599999999998" y="260.414" style="fill:#131413;font-family:EMLAJL+JhftpfAdvTT86d47313;font-size:9.8px;font-style:NORMAL;font-weight:normal;">kines to help fibrin matrix remodeling. </text>
  <text x="312.722,315.985,321.39500000000004,323.894,328.275,333.685,336.193,340.446,345.856,348.266,356.43,360.683,363.231,365.789,370.169,374.804,380.008,384.212,387.887,390.278,398.442,402.695,408.104,411.26,413.396,415.905,422.736,427.11699999999996,429.625,432.477,437.396,442.698,448.0,453.204,455.771,458.927,464.052,468.433,471.589,474.087,479.595,485.485,490.581,493.138,498.44,502.821,506.59400000000005,509.122,513.503,516.041,521.137,525.39,530.799,535.023" y="260.414" svg_rhmargin="538.59" style="fill:#131413;font-family:EMLAJL+JhftpfAdvTT86d47313;font-size:9.8px;font-style:NORMAL;font-weight:normal;">In an animal experiment, we found that PRF has a bene-</text>
  <text x="304.725,307.577,309.939,314.319,316.74,321.121,323.669,326.266,329.94,334.88,337.428,341.80899999999997,344.464,346.904,352.314,355.067,358.223,360.565,364.338,367.993,373.295,377.67600000000004,380.292,383.967,388.172,392.866,397.129,402.538,406.762,410.437,414.641,417.797,420.198,425.186,430.596,433.29,440.121,445.305,449.686,453.184,457.565,461.945,465.718,468.374,471.53,476.704,481.084,484.583,488.96400000000006,491.668,498.499,502.879,506.65200000000004,509.298,513.679,516.442,521.852,526.027,530.721,534.984" y="272.429" svg_rhmargin="538.551" style="fill:#131413;font-family:EMLAJL+JhftpfAdvTT86d47313;font-size:9.8px;font-style:NORMAL;font-weight:normal;">ficial role in tissue regeneration whereas there was a nega-</text>
  <text x="304.725,307.881,310.282,314.77,319.15099999999995,322.581,326.256,331.195,333.743,338.124,341.622,344.062,349.47200000000004,353.019,357.4,360.957,365.338,367.7,370.247,375.52,377.96,382.341,386.574,389.122,392.699,397.08,401.715,406.919,411.123,414.798,417.189,425.352,429.605,435.015,438.171,441.62,444.697,449.597,454.331,457.486,459.622,463.121,469.138,473.519,478.772,483.975,488.238,490.678,493.226,495.774,499.234,503.614,506.77,510.229,514.61,516.972,519.108,522.695,525.762,530.662,535.395" y="284.44399999999996" svg_rhmargin="538.551" style="fill:#131413;font-family:EMLAJL+JhftpfAdvTT86d47313;font-size:9.8px;font-style:NORMAL;font-weight:normal;">tive role in a clinical experiment [19]. Randelli et al. [26]</text>
  <text x="304.716,308.391,312.595,317.798,322.738,326.413,329.431,333.811,339.015,343.66,346.816,351.941,356.322,359.478,364.132,368.513,373.658,376.813,381.762,384.203,389.298,393.836,398.932,404.096,407.869,412.544,418.051,423.941,429.44899999999996,434.143,437.818,442.022,447.226,452.4,456.781,461.014,466.218,470.883,476.086,480.349,482.79,488.20000000000005,492.932,495.373,500.783,505.466,508.622,513.796,518.177,522.871,525.723,528.085,531.76,535.395" y="296.409" svg_rhmargin="538.551" style="fill:#131413;font-family:EMLAJL+JhftpfAdvTT86d47313;font-size:9.8px;font-style:NORMAL;font-weight:normal;">reported that autologous PRP reduced pain in the first</text>
  <text x="304.716,309.919,314.858,318.631,321.601,326.697,331.744,336.124,339.682,344.062,347.051,349.599,353.911,358.29200000000003,361.222,369.385,374.314,379.724,382.762,388.064,391.83700000000005,394.669,399.049,404.302,409.50600000000003,412.407,416.787,419.492,422.344,426.724,430.997,434.153,438.367,443.571,446.471,450.852,455.997,458.848,461.7,464.552,468.227,473.166,476.322,480.536,483.691,488.64,492.315,495.216,500.518,504.8,509.181,511.543,514.091,519.363,524.057,527.075,529.8,534.896" y="308.424" svg_rhmargin="538.571" style="fill:#131413;font-family:EMLAJL+JhftpfAdvTT86d47313;font-size:9.8px;font-style:NORMAL;font-weight:normal;">postoperative months and affected cuff rotator healing for</text>
  <text x="304.716,309.811,314.751,317.906,323.208,326.942,331.636,335.164,339.544,344.572,348.953,352.794,357.69399999999996,361.467,365.847,371.1,376.30400000000003,380.116,385.01599999999996,388.789,391.944,396.217,400.598,404.096,407.869,410.00500000000005,413.73,418.826,423.99,427.665,430.625,435.926,440.209,443.884,451.891,456.879,460.554,464.817,466.95300000000003,470.716,477.654,482.907,488.111,490.502,494.88300000000004,498.724,503.105,506.261,509.945,514.326,516.746,518.882,522.695,525.762,530.662,535.395" y="320.439" svg_rhmargin="538.551" style="fill:#131413;font-family:EMLAJL+JhftpfAdvTT86d47313;font-size:9.8px;font-style:NORMAL;font-weight:normal;">both grade 1 and 2 tears. Furthermore, Andia et al. [27]</text>
  <text x="304.716,308.391,312.771,317.132,321.513,325.746,328.186,332.567,337.771,341.563,344.719,349.844,354.225,357.38100000000003,361.183,366.69,372.521,376.774,378.91,382.723,387.103,390.87600000000003,394.737,399.118,404.528,408.291,412.671,417.816,420.972,425.921,428.469,433.408,438.102,443.041,448.343,452.11600000000004,455.908,460.897,463.445,468.384,471.539,475.92,480.3,485.445,490.855,495.765,498.313,503.252,507.946,512.327,516.119,521.323,524.851,529.839,535.043" y="332.405" svg_rhmargin="538.61" style="fill:#131413;font-family:EMLAJL+JhftpfAdvTT86d47313;font-size:9.8px;font-style:NORMAL;font-weight:normal;">revealed that PRP, as an autologous biotechnology prod-</text>
  <text x="304.716,310.017,314.241,317.397,319.533,322.12,327.422,331.803,335.576,338.104,342.485,345.081,350.285,355.224,358.997,361.349,364.505,366.906,371.394,375.775,378.303,382.684,385.33,388.181,392.562,396.835,399.991,402.558,407.654,413.064,415.543,419.923,424.617,429.821,434.025,437.7,440.091,448.255,452.449,457.859,460.897,465.277,467.825,470.305,473.46,477.674,483.084,488.16,493.148,498.55800000000005,501.145,506.447,510.67,515.051,517.471,519.912,525.321,529.829" y="344.419" svg_rhmargin="531.965" style="fill:#131413;font-family:EMLAJL+JhftpfAdvTT86d47313;font-size:9.8px;font-style:NORMAL;font-weight:normal;">uct, has a positive effect on experimental tendon healing.</text>
  <text x="312.712,319.063,324.364,328.745,331.195,334.87,339.074,343.455,347.228,352.225,357.63500000000005,360.105,362.956,367.925,371.6,374.109,377.264,382.39,386.77099999999996,389.308,392.16,396.394,398.834,401.382,406.546,410.221,414.602,417.032,422.128,424.97999999999996,427.41,432.918,438.808,443.904,446.403,449.558,454.654,457.065,459.917,465.111,467.551,470.403,472.764,475.312,477.86,480.301,482.848,486.004,489.77700000000004,492.207,497.411,500.939,506.035,514.091,516.531,520.304,524.685,527.134,530.809,535.013" y="356.434" svg_rhmargin="538.58" style="fill:#131413;font-family:EMLAJL+JhftpfAdvTT86d47313;font-size:9.8px;font-style:NORMAL;font-weight:normal;">The reason for the failure of PRF to fulfill its promise re-</text>
  <text x="304.716,312.879,317.132,319.572,324.982,328.75500000000005,331.361,336.663,341.906,346.287,348.649,353.029,357.263,360.938,363.074,365.651,372.002,377.303,381.586,385.261,389.64200000000005,392.189,396.57,400.127,404.50800000000004,407.154,410.927,415.886,424.049,428.42999999999995,431.026,436.23,441.169,444.942,448.539,451.087,456.026,458.574,462.95500000000004,465.552,468.099,473.372,476.527,480.741,484.416,489.473,493.148,497.352,500.508,504.722,507.877,510.278,515.374,520.656,524.429,527.065,529.917,534.886" y="368.4" svg_rhmargin="538.561" style="fill:#131413;font-family:EMLAJL+JhftpfAdvTT86d47313;font-size:9.8px;font-style:NORMAL;font-weight:normal;">mains unclear. There are some possible interpretations for</text>
  <text x="304.716,307.871,313.045,315.486,319.259,322.738,327.941,333.057,337.437,342.69,347.786,355.783,360.163,365.416,370.512,375.794,377.93,381.41,388.946,394.35600000000005,397.844,401.0,406.125,410.506,413.945,419.041,424.323,428.70399999999995,432.144,437.445,441.728,447.138,452.155,454.291,457.77,462.974,467.178,470.334,472.735,477.115,482.368,485.524,489.297,492.746,497.127,499.547,502.095,505.555,509.23,513.61,517.854,522.234,524.596,529.084,533.328" y="380.414" svg_rhmargin="538.532" style="fill:#131413;font-family:EMLAJL+JhftpfAdvTT86d47313;font-size:9.8px;font-style:NORMAL;font-weight:normal;">this phenomenon. On the one hand, patients all received</text>
  <text x="304.716,309.096,314.241,317.397,322.346,324.894,329.833,334.527,339.466,344.768,348.541,352.108,355.881,360.84,366.141,369.63,374.011,378.39200000000005,381.988,387.495,393.385,398.481,401.891,406.272,411.525,416.729,420.364,423.52,428.694,433.07500000000005,436.691,441.385,444.913,449.901,456.732,459.77,465.072,468.727,471.578,475.812,480.193,483.182,488.278,491.796,495.569,499.224,503.605,508.524,513.934,516.972,521.225,523.773,529.045,533.426" y="392.429" svg_rhmargin="538.63" style="fill:#131413;font-family:EMLAJL+JhftpfAdvTT86d47313;font-size:9.8px;font-style:NORMAL;font-weight:normal;">autologous source PRF and the growth factors contained</text>
  <text x="304.716,307.264,312.67400000000004,315.936,321.444,327.334,332.43,335.781,340.27,344.513,348.188,352.56899999999996,355.793,358.644,362.202,367.19,375.353,378.754,383.958,388.162,391.837,395.414,400.51,405.92,409.251,412.407,417.503,420.756,425.96,430.164,433.839,437.475,442.571,447.853,449.98900000000003,453.292,456.144,461.112,464.78700000000003,468.139,474.969,480.104,482.652,486.905,492.207,495.52,498.675,503.85,508.23,511.729,516.11,519.5,526.33,530.554,534.229" y="404.395" svg_rhmargin="538.61" style="fill:#131413;font-family:EMLAJL+JhftpfAdvTT86d47313;font-size:9.8px;font-style:NORMAL;font-weight:normal;">in PRF vary from person to person, for which there were</text>
  <text x="304.716,312.879,318.034,322.414,327.716,331.352,339.515,344.503,348.178,352.55899999999997,356.185,361.388,363.78,366.631,369.336,371.884,376.137,381.439,383.791,386.947,391.328,395.012,397.864,402.783,406.458,410.212,414.592,419.227,424.431,428.635,432.31,434.701,442.865,447.118,452.527,455.507,459.887,462.308,464.748,469.129,472.911,477.899,480.447,484.828,488.601,492.296,496.676,501.645,507.054,510.033,513.708,518.647,521.088,523.2239999999999,526.987,533.514" y="416.409" svg_rhmargin="538.61" style="fill:#131413;font-family:EMLAJL+JhftpfAdvTT86d47313;font-size:9.8px;font-style:NORMAL;font-weight:normal;">much more difficulty for experimentally bias control. To</text>
  <text x="304.716,309.811,314.192,319.621,323.394,328.461,332.841,337.222,339.633,342.484,344.905,349.285,351.42100000000005,356.92,360.075,365.249,369.63,373.129,377.51,383.046,385.486,389.259,394.786,399.16700000000003,404.704,409.084,414.229,418.61,423.863,428.243,432.624,438.092,441.248,446.373,450.754,453.91,459.358,462.514,467.688,472.06899999999996,477.556,482.76,487.023,490.179,492.58,496.96,502.213" y="428.424" svg_rhmargin="505.369" style="fill:#131413;font-family:EMLAJL+JhftpfAdvTT86d47313;font-size:9.8px;font-style:NORMAL;font-weight:normal;">be specific, there is a chance that the patient</text>
  <text x="505.29" y="428.424" svg_rhmargin="507.221" style="fill:#131413;font-family:EMLAKM+HlwydcAdvTT86d47313+20;font-size:9.8px;font-style:NORMAL;font-weight:normal;">’</text>
  <text x="506.535,510.30800000000005,515.835,520.823,523.371,528.31,533.406" y="428.424" svg_rhmargin="538.61" style="fill:#131413;font-family:EMLAJL+JhftpfAdvTT86d47313;font-size:9.8px;font-style:NORMAL;font-weight:normal;">s blood</text>
  <text x="304.706,309.909,312.301,316.681,320.454,328.51,332.89099999999996,336.555,340.936,345.905,351.314,354.293,358.674,361.036,366.445,370.218,373.844,378.225,382.742,387.123,391.356,395.129,398.785,401.225,405.713,410.09400000000005,413.191,419.717,426.852,431.84" y="440.39" svg_rhmargin="435.407" style="fill:#131413;font-family:EMLAJL+JhftpfAdvTT86d47313;font-size:9.8px;font-style:NORMAL;font-weight:normal;">plasma contains excessive TGF-</text>
  <text x="435.387" y="440.39" svg_rhmargin="440.483" style="fill:#131413;font-family:EMLMBM+YqwqpbAdvTT86d47313+03;font-size:9.8px;font-style:NORMAL;font-weight:normal;">β</text>
  <text x="440.376,442.512,446.216,450.597,455.85,461.05400000000003,464.748,467.188,470.422,474.19500000000005,477.85,483.054,487.993,491.149,495.422,500.831,503.81,506.251,510.631,513.179,516.795,521.176,523.881,526.732,531.113,535.386" y="440.39" svg_rhmargin="538.542" style="fill:#131413;font-family:EMLAJL+JhftpfAdvTT86d47313;font-size:9.8px;font-style:NORMAL;font-weight:normal;">, and its potential effect</text>
  <text x="304.706,309.802,315.21200000000005,318.71,323.09,327.726,333.027,337.986,342.367,345.924,350.305,355.557,358.713,362.3,365.152,367.513,372.609,376.127,381.223,384.859,387.299,391.072,394.669,402.832,407.085,411.466,415.082,419.463,422.109,424.96,429.341,433.614,436.77,440.356,443.512,448.686,453.067,456.624,459.779,464.954,469.334,472.833,477.213,482.3,486.68,491.825,494.981,497.382,501.76300000000003,505.32,509.7,512.405,515.257,519.637,523.91,527.0659999999999,530.652,535.641" y="452.404" svg_rhmargin="538.493" style="fill:#131413;font-family:EMLAJL+JhftpfAdvTT86d47313;font-size:9.8px;font-style:NORMAL;font-weight:normal;">on exuberant fibrosis may affect the therapeutic effect of</text>
  <text x="304.706,310.213,316.103,321.091,323.22700000000003,328.686,336.134,340.515,344.846,349.227,352.784,355.94,361.065,365.446,367.866,372.247,375.863,379.773,381.90900000000005,387.309,391.082,396.041,404.204,408.58500000000004,413.955,419.159,423.363,426.519,428.919,433.3,438.553,441.708" y="464.419" svg_rhmargin="445.481" style="fill:#131413;font-family:EMLAJL+JhftpfAdvTT86d47313;font-size:9.8px;font-style:NORMAL;font-weight:normal;">PRF. Nevertheless, some patients</text>
  <text svg_rhmargin="447.344" x="445.413,447.344" y="464.419" style="fill:#131413;font-family:EMLAKM+HlwydcAdvTT86d47313+20;font-size:9.8px;font-style:NORMAL;font-weight:normal;">’ </text>
  <text x="452.782,457.986,460.377,464.758,468.531,476.586,480.967,486.396,494.559,498.812,503.193,508.622,513.003,517.922,523.332,526.37,530.75,533.112" y="464.419" svg_rhmargin="538.522" style="fill:#131413;font-family:EMLAJL+JhftpfAdvTT86d47313;font-size:9.8px;font-style:NORMAL;font-weight:normal;">plasma may contain</text>
  <text x="304.696,309.077,314.045,319.347,324.59,329.793,333.998,339.407,342.563,345.963,348.404,353.813,356.508,359.056,363.25,371.414,379.459,383.84,386.829,391.925,395.443,399.82399999999996,403.263,411.427,415.68,420.884,423.275,427.655,430.644,435.74,439.258,443.169,445.305,448.725,455.556,460.74,463.18,467.561,472.863,476.224,480.604,485.573,490.875,493.285,498.48900000000003,501.899,506.28,511.366,515.727,520.108,523.665,527.438,531.662,534.102" y="476.385" svg_rhmargin="538.483" style="fill:#131413;font-family:EMLAJL+JhftpfAdvTT86d47313;font-size:9.8px;font-style:NORMAL;font-weight:normal;">abundant inflammatory mediators, which could adversely</text>
  <text x="304.696,309.077,311.781,314.633,319.014,323.286,326.442,330.205,335.507,339.731,344.111,346.473,349.021,354.293,358.987,362.741,367.945,371.472,376.461,380.841,385.075,388.848,392.444,394.58000000000004,398.344,407.428,412.407,416.082,420.46299999999997,424.137,426.577,434.741,439.944,444.835,448.509,451.528,455.908,461.161,464.317,466.718,471.098,473.23400000000004,476.919,482.329,487.239,492.648,497.029,500.733,505.829,508.681,512.356,517.658,521.431,525.115,530.417,534.798" y="488.399" svg_rhmargin="538.571" style="fill:#131413;font-family:EMLAJL+JhftpfAdvTT86d47313;font-size:9.8px;font-style:NORMAL;font-weight:normal;">affect healing process. More importantly, none of us has</text>
  <text x="304.696,309.077,314.329,319.425,324.59,329.284,334.586,338.368,343.572,347.776,350.932,355.313,359.115,362.27,367.366,371.13,376.333,380.537,383.693,387.907,391.582,399.588,402.136,407.409,411.78999999999996,415.631,418.786,423.961,428.342,432.183,437.171,441.552,445.217,448.373,452.194,456.575,458.995,461.436,466.845,469.256,473.636,477.87,480.418,484.22,489.522,493.177,497.558,502.076,506.457,510.298,515.394,518.246,522.028,527.536,533.426" y="500.414" svg_rhmargin="538.522" style="fill:#131413;font-family:EMLAJL+JhftpfAdvTT86d47313;font-size:9.8px;font-style:NORMAL;font-weight:normal;">enough data to determine the best clinical usage of PRF</text>
  <path d=" M 60.71799850463867 702.2550048828125 L 534.5570068359375 702.2550048828125 L 534.5570068359375 702.0280151367188 L 60.71799850463867 702.0280151367188" style="fill:none;stroke:#131413;stroke-width:0.0;"/>
  <path d=" M 534.5570068359375 702.2550048828125 L 535.2940063476562 702.197998046875 C 536.8519897460938 702.0260009765625 538.333984375 700.4860229492188 538.5260009765625 698.9669799804688 L 538.58203125 698.2869873046875 L 538.35498046875 698.2869873046875 L 538.2990112304688 698.9100341796875 C 538.083984375 700.3889770507812 536.7509765625 701.7470092773438 535.2369995117188 701.9719848632812 L 534.5570068359375 702.0280151367188" style="fill:none;stroke:#131413;stroke-width:0.0;"/>
  <path d=" M 538.5830078125 698.2860107421875 L 538.5830078125 566.7579956054688 L 538.3560180664062 566.7579956054688 L 538.3560180664062 698.2860107421875" style="fill:none;stroke:#131413;stroke-width:0.0;"/>
  <path d=" M 538.5830078125 566.759033203125 L 538.5260009765625 566.0790405273438 C 538.3350219726562 564.5590209960938 536.85302734375 563.02001953125 535.2949829101562 562.8470458984375 L 534.5579833984375 562.7900390625 L 534.5579833984375 563.0170288085938 L 535.238037109375 563.0740356445312 C 536.7520141601562 563.2980346679688 538.083984375 564.656005859375 538.2999877929688 566.135009765625 L 538.3560180664062 566.759033203125" style="fill:none;stroke:#131413;stroke-width:0.0;"/>
  <path d=" M 534.5570068359375 562.7899780273438 L 60.718017578125 562.7899780273438 L 60.718017578125 563.0169677734375 L 534.5570068359375 563.0169677734375" style="fill:none;stroke:#131413;stroke-width:0.0;"/>
  <path d=" M 60.718017578125 562.7899780273438 L 59.98101806640625 562.8469848632812 C 58.42201614379883 563.0189819335938 56.941017150878906 564.5579833984375 56.74901580810547 566.0780029296875 L 56.693016052246094 566.7589721679688 L 56.92001724243164 566.7589721679688 L 56.976016998291016 566.1349487304688 C 57.1920166015625 564.6549682617188 58.524017333984375 563.2979736328125 60.03801727294922 563.072998046875 L 60.718017578125 563.0169677734375" style="fill:none;stroke:#131413;stroke-width:0.0;"/>
  <path d=" M 56.69300842285156 566.759033203125 L 56.69300842285156 698.2870483398438 L 56.92000961303711 698.2870483398438 L 56.92000961303711 566.759033203125" style="fill:none;stroke:#131413;stroke-width:0.0;"/>
  <path d=" M 56.69300842285156 698.2860107421875 L 56.75000762939453 698.9660034179688 C 56.941009521484375 700.4860229492188 58.42300796508789 702.0250244140625 59.98101043701172 702.197998046875 L 60.71800994873047 702.2540283203125 L 60.71800994873047 702.0280151367188 L 60.03800964355469 701.9710083007812 C 58.524009704589844 701.7470092773438 57.19200897216797 700.3890380859375 56.976009368896484 698.9100341796875 L 56.92000961303711 698.2860107421875" style="fill:none;stroke:#131413;stroke-width:0.0;"/>
  <path d="M60.717 97.744 L534.557 97.744 L534.557 97.971 L60.717 97.971 M534.557 97.744 L535.294 97.802 C536.852 97.973 538.334 99.513 538.526 101.033 L538.582 101.713 L538.354 101.713 L538.299 101.089 C538.084 99.611 536.751 98.252 535.237 98.028 L534.557 97.971 M538.583 101.713 L538.583 233.242 L538.356 233.242 L538.356 101.713 M538.583 233.24 L538.526 233.92 C538.335 235.44 536.853 236.979 535.295 237.152 L534.557 237.209 L534.557 236.982 L535.238 236.925 C536.752 236.701 538.084 235.343 538.3 233.864 L538.356 233.24 M534.557 237.21 L60.718 237.21 L60.718 236.983 L534.557 236.983 M60.718 237.21 L59.981 237.153 C58.422 236.981 56.941 235.442 56.749 233.921 L56.693 233.241 L56.92 233.241 L56.976 233.865 C57.192 235.345 58.524 236.702 60.038 236.927 L60.718 236.983 M56.693 233.24 L56.693 101.712 L56.92 101.712 L56.92 233.24 M56.693 101.713 L56.75 101.033 C56.941 99.513 58.423 97.974 59.981 97.802 L60.718 97.745 L60.718 97.971 L60.038 98.028 C58.524 98.252 57.192 99.61 56.976 101.089 L56.92 101.713 M155.679 103.981 L439.54 103.981 L439.54 218.953 L155.679 218.953 " style="fill:none;stroke:#000000;stroke-width:1.0;"/>
  <rect style="stroke:blue;stroke-width:0.3;" x="155.679" y="103.981" height="114.973" width="283.868" title="5"/>
  <text x="155.679" y="103.981" class="image" id="image.5.1" width="283" height="114">image.5.1.156_440.104_219</text>
  <text svg_rhmargin="82.478" x="62.702,66.862,69.022,73.686,75.686,78.062,82.478" y="230.97299999999996" style="fill:#131413;font-family:EMLAGH+SflnxhAdvTTaf7f9f4f.B;font-size:8.0px;font-style:NORMAL;font-weight:normal;">Fig. 3 </text>
  <text x="84.87,88.87,90.534,93.446,96.774,99.158,103.406,105.486,107.83,112.158,113.822,117.398,120.31,122.686,127.013,129.341,132.917,137.245" y="230.97299999999996" svg_rhmargin="141.493" style="fill:#131413;font-family:EMLAJI+QmcgngAdvTTb5929f4c;font-size:8.0px;font-style:NORMAL;font-weight:normal;">Risk of bias graph</text>
  <path d=" M 60.71799850463867 284.6549987792969 L 534.5570068359375 284.6549987792969 L 534.5570068359375 284.37200927734375 L 60.71799850463867 284.37200927734375" style="fill:none;stroke:#131413;stroke-width:0.0;"/>
  <path d=" M 534.5570068359375 284.6549987792969 L 535.2940063476562 284.5419921875 C 536.8519897460938 284.3689880371094 538.333984375 282.8299865722656 538.5260009765625 281.30999755859375 L 538.58203125 280.6300048828125 L 538.35498046875 280.6300048828125 L 538.2990112304688 281.25299072265625 C 538.0380249023438 282.8370056152344 536.81298828125 284.031005859375 535.2369995117188 284.31500244140625 L 534.5570068359375 284.37200927734375" style="fill:none;stroke:#131413;stroke-width:0.0;"/>
  <path d=" M 538.5830078125 280.6300048828125 L 538.5830078125 63.553009033203125 L 538.3560180664062 63.553009033203125 L 538.3560180664062 280.6300048828125" style="fill:none;stroke:#131413;stroke-width:0.0;"/>
  <path d=" M 538.5830078125 63.55299377441406 L 538.5260009765625 62.81599426269531 C 538.3309936523438 61.2559928894043 536.781982421875 59.81199264526367 535.2949829101562 59.58399200439453 L 534.5579833984375 59.527992248535156 L 534.5579833984375 59.81099319458008 L 535.238037109375 59.86799240112305 C 536.7850341796875 60.062992095947266 538.010009765625 61.373992919921875 538.2999877929688 62.87299346923828 L 538.3560180664062 63.55299377441406" style="fill:none;stroke:#131413;stroke-width:0.0;"/>
  <path d=" M 534.5570068359375 59.52800369262695 L 60.718017578125 59.52800369262695 L 60.718017578125 59.811004638671875 L 534.5570068359375 59.811004638671875" style="fill:none;stroke:#131413;stroke-width:0.0;"/>
  <path d=" M 60.718017578125 59.52800369262695 L 59.98101806640625 59.58500289916992 C 58.4940185546875 59.81200408935547 56.94501876831055 61.256004333496094 56.74901580810547 62.816001892089844 L 56.693016052246094 63.55300521850586 L 56.92001724243164 63.55300521850586 L 56.976016998291016 62.87300491333008 C 57.26601791381836 61.37400436401367 58.49101638793945 60.06300354003906 60.03801727294922 59.868003845214844 L 60.718017578125 59.81200408935547" style="fill:none;stroke:#131413;stroke-width:0.0;"/>
  <path d=" M 56.69300842285156 63.55299377441406 L 56.69300842285156 280.6300048828125 L 56.92000961303711 280.6300048828125 L 56.92000961303711 63.55299377441406" style="fill:none;stroke:#131413;stroke-width:0.0;"/>
  <path d=" M 56.69300842285156 280.6300048828125 L 56.75000762939453 281.30999755859375 C 56.941009521484375 282.83001708984375 58.42300796508789 284.3690185546875 59.98101043701172 284.5419921875 L 60.71800994873047 284.6549987792969 L 60.71800994873047 284.37200927734375 L 60.03800964355469 284.31500244140625 C 58.524009704589844 284.09100341796875 57.19200897216797 282.7330017089844 56.976009368896484 281.2539978027344 L 56.92000961303711 280.6300048828125" style="fill:none;stroke:#131413;stroke-width:0.0;"/>
  <path d="M60.717 515.345 L534.557 515.345 L534.557 515.627 L60.717 515.627 M534.557 515.345 L535.294 515.458 C536.852 515.631 538.334 517.17 538.526 518.69 L538.582 519.369 L538.354 519.369 L538.299 518.747 C538.038 517.162 536.813 515.968 535.237 515.684 L534.557 515.627 M538.583 519.369 L538.583 736.446 L538.356 736.446 L538.356 519.369 M538.583 736.447 L538.526 737.184 C538.331 738.744 536.782 740.188 535.295 740.416 L534.557 740.472 L534.557 740.189 L535.238 740.132 C536.785 739.937 538.01 738.626 538.3 737.127 L538.356 736.447 M534.557 740.471 L60.718 740.471 L60.718 740.188 L534.557 740.188 M60.718 740.471 L59.981 740.414 C58.494 740.187 56.945 738.743 56.749 737.183 L56.693 736.446 L56.92 736.446 L56.976 737.126 C57.266 738.625 58.491 739.936 60.038 740.131 L60.718 740.187 M56.693 736.447 L56.693 519.369 L56.92 519.369 L56.92 736.447 M56.693 519.369 L56.75 518.69 C56.941 517.169 58.423 515.63 59.981 515.458 L60.718 515.345 L60.718 515.627 L60.038 515.684 C58.524 515.908 57.192 517.266 56.976 518.746 L56.92 519.369 M155.679 521.638 L439.54 521.638 L439.54 722.217 L155.679 722.217 " style="fill:none;stroke:#000000;stroke-width:1.0;"/>
  <rect style="stroke:blue;stroke-width:0.3;" x="155.679" y="521.638" height="200.579" width="283.868" title="5"/>
  <text x="155.679" y="521.638" class="image" id="image.5.2" width="283" height="200">image.5.2.156_440.522_722</text>
  <text svg_rhmargin="82.478" x="62.702,66.862,69.022,73.686,75.686,78.062,82.478" y="734.236" style="fill:#131413;font-family:EMLAGH+SflnxhAdvTTaf7f9f4f.B;font-size:8.0px;font-style:NORMAL;font-weight:normal;">Fig. 4 </text>
  <text x="84.87,88.534,92.782,95.11,98.942,101.854,104.27,106.582,110.91,112.574,116.822,119.238,121.662,123.742,127.989,130.317,132.661,135.077,139.325,143.15699999999998,145.533,149.029,153.277,159.773,164.101,167.677,170.005,171.669,174.581,178.829,183.077,185.389,189.637,191.717,194.117,196.445,200.277,202.605,205.02,208.852,212.428,214.756,217.132,219.46,223.036,225.452,229.284,231.644,235.972,239.804,242.22,247.964,251.796,255.628,259.876,262.204,264.62,268.868,272.7,275.076,279.076,283.076,286.74,289.075,293.403,295.731,299.979,304.139,308.467,310.843,314.419,318.667,322.99499999999995,325.355,327.771,332.019,335.851,338.227,341.723,345.971,350.219,352.635,354.963,359.211,360.875,363.226,367.554,369.882,374.13,378.29" y="734.236" svg_rhmargin="382.618" style="fill:#131413;font-family:EMLAJI+QmcgngAdvTTb5929f4c;font-size:8.0px;font-style:NORMAL;font-weight:normal;">Forest plot for the comparison of re-tear rate between the PRF group and the control group</text>
  <text svg_rhmargin="105.806" x="56.694,63.11,66.942,71.27,73.646,77.478,81.894,86.39,88.726,93.142,97.558,101.39,105.806" y="48.14099999999996" style="fill:#131413;font-family:EMLAJH+KdjcqpAdvTTe45e47d2;font-size:8.0px;font-style:NORMAL;font-weight:normal;">Mao and Zhan </text>
  <text svg_rhmargin="255.116" x="108.174,111.006,115.166,119.326,121.822,126.07,130.229,131.973,134.309,138.469,140.71699999999998,143.149,148.477,150.973,153.469,157.717,161.877,165.941,170.101,173.677,177.837,179.581,182.909,185.333,188.997,193.157,195.653,199.813,203.389,205.884,209.38,211.748,215.908,220.156,224.316,226.66,230.82,234.396,237.308,240.884,245.044,247.54,250.868,255.11599999999999" y="48.14099999999996" style="fill:#131413;font-family:EMLBHI+YblhkbAdvTT7329fd89.I;font-size:8.0px;font-style:NORMAL;font-weight:normal;">Journal of Orthopaedic Surgery and Research </text>
  <text svg_rhmargin="305.723" y="48.14099999999996" x="259.196,261.468,265.572,269.676,273.78,277.884,280.156,281.852,285.955,290.059,291.715,295.819,299.923,304.027,305.723" style="fill:#131413;font-family:MyriadPro-Regular;font-size:8.0px;font-style:NORMAL;font-weight:normal;">(2018) 13:202 </text>
  <text x="500.145,504.393,508.225,512.641,516.641,519.025,523.105,525.488,529.816,532.144,534.504" y="48.14099999999996" svg_rhmargin="538.584" style="fill:#131413;font-family:EMLAJH+KdjcqpAdvTTe45e47d2;font-size:8.0px;font-style:NORMAL;font-weight:normal;">Page 5 of 9</text>
 </g>
</svg>
