<?xml version="1.0" encoding="UTF-8"?>
<svg height="870.031005859375" width="672.0029907226562" xmlns="http://www.w3.org/2000/svg">
 <g style="fill:none;">
  <path d=" M 0.05999799817800522 826.072021484375 L 22.619997024536133 826.072021484375 L 22.619997024536133 826.35546875 L 0.05999799817800522 826.35546875 Z " style="fill:none;stroke:#000000;stroke-width:1.0;"/>
  <path d=" M 33.67599868774414 837.4110107421875 L 33.959449768066406 837.4110107421875 L 33.959449768066406 860.031005859375 L 33.67599868774414 860.031005859375 Z " style="fill:none;stroke:#000000;stroke-width:1.0;"/>
  <path d=" M 627.9869995117188 837.4110107421875 L 628.2703857421875 837.4110107421875 L 628.2703857421875 860.031005859375 L 627.9869995117188 860.031005859375 Z " style="fill:none;stroke:#000000;stroke-width:1.0;"/>
  <path d=" M 639.3259887695312 826.072021484375 L 662.0029907226562 826.072021484375 L 662.0029907226562 826.35546875 L 639.3259887695312 826.35546875 Z " style="fill:none;stroke:#000000;stroke-width:1.0;"/>
  <path d=" M 639.3259887695312 33.731998443603516 L 662.0029907226562 33.731998443603516 L 662.0029907226562 34.015480041503906 L 639.3259887695312 34.015480041503906 Z " style="fill:none;stroke:#000000;stroke-width:1.0;"/>
  <path d=" M 627.9869995117188 0.0 L 628.2703857421875 0.0 L 628.2703857421875 22.677000045776367 L 627.9869995117188 22.677000045776367 Z " style="fill:none;stroke:#000000;stroke-width:1.0;"/>
  <path d=" M 33.67599868774414 0.0 L 33.959449768066406 0.0 L 33.959449768066406 22.677000045776367 L 33.67599868774414 22.677000045776367 Z " style="fill:none;stroke:#000000;stroke-width:1.0;"/>
  <path d=" M 0.05999799817800522 33.731998443603516 L 22.619997024536133 33.731998443603516 L 22.619997024536133 34.015480041503906 L 0.05999799817800522 34.015480041503906 Z " style="fill:none;stroke:#000000;stroke-width:1.0;"/>
  <path d=" M 85.03900146484375 766.885009765625 L 590.115966796875 766.885009765625 L 590.115966796875 767.6220092773438 L 85.03900146484375 767.6220092773438 Z " style="fill:none;stroke:#000000;stroke-width:1.0;"/>
  <path d=" M 85.03900146484375 424.5159912109375 L 590.115966796875 424.5159912109375 L 590.115966796875 425.25299072265625 L 85.03900146484375 425.25299072265625 Z " style="fill:none;stroke:#000000;stroke-width:1.0;"/>
  <path d="M167.414 40.202 L507.742 40.202 L507.742 302.972 L167.414 302.972 " style="fill:none;stroke:#000000;stroke-width:1.0;"/>
  <rect style="stroke:blue;stroke-width:0.3;" x="167.414" y="40.201" height="262.772" width="340.507" title="5"/>
  <text x="167.414" y="40.201" class="image" id="image.5.1" width="340" height="262">image.5.1.167_508.40_303</text>
  <text svg_rhmargin="114.484" x="85.039,89.396,91.183,95.54,99.814,102.378,106.503,108.342,112.467,114.484" y="313.972" style="fill:#171615;font-family:IDJKMK+AdvOTf94803d4;font-size:7.47px;font-style:NORMAL;font-weight:normal;">Figure 2. </text>
  <text svg_rhmargin="228.534" x="118.204,122.172,126.296,128.692,132.503,136.082,138.256,140.03,144.303,145.626,149.75,151.924,153.749,157.873,161.84099999999998,163.613,167.424,171.003,174.581,178.706,182.517,183.907,187.718,189.892,191.214,195.339,199.307,201.084,205.359,209.169,211.344,216.865,220.756,224.566,228.534" y="313.972" style="fill:#171615;font-family:IDJKEN+AdvOT6e5d2ec0;font-size:7.47px;font-style:NORMAL;font-weight:normal;">Forest plot on association between </text>
  <text svg_rhmargin="261.938" x="230.343,235.163,239.833,244.504,249.175,253.143,257.268,261.938" y="313.972" style="fill:#171615;font-family:IDJKGB+AdvOT1deab444.I;font-size:7.47px;font-style:NORMAL;font-weight:normal;">RASSF1A </text>
  <text x="263.735,268.009,270.34,274.464,280.606,284.731,286.905,290.716,293.047,294.913,298.881,302.303,306.577,310.387,312.719,318.86,322.671,324.845,328.813,332.235,333.557,337.368,339.542,340.865,344.989,348.957,350.864,354.675,358.642,362.916,364.697,368.821,371.152,374.963,376.286,378.075,381.886,385.696,389.664,393.551,397.362,399.69300000000004,401.488,403.819,405.142,408.721,412.457,414.474,416.284,420.408,424.376,428.18699999999995,430.003,431.87,435.995,438.326,442.137,445.716,447.89,449.673,453.947,455.27,459.394,461.568,463.392,464.715,468.294,470.082,474.356,476.687,480.498,486.019,489.987,491.793,493.968,498.093,499.9,503.711,507.522,508.844,512.655,516.622,517.945,521.755,523.93,527.741,529.605,533.416,535.218,539.492,543.616,547.741,549.063,552.874,557.148,558.971,562.782,566.361,568.536,569.858,576.0,579.81,581.985,585.795" y="313.972" svg_rhmargin="590.069" style="fill:#171615;font-family:IDJKEN+AdvOT6e5d2ec0;font-size:7.47px;font-style:NORMAL;font-weight:normal;">promoter hypermethylation and oral cancer risk. The forest plot is drawn to calculate a pooled estimated</text>
  <text x="85.04,88.462,92.273,93.595,97.563,101.374,102.897,107.022,108.89,110.381,115.902,120.879,124.458,125.97,129.781,133.748,138.022,139.519,143.643,147.767,154.38,159.588,161.217,164.79600000000002,166.332,171.854,173.177,175.351,179.319,180.845,184.424,186.598,190.409,192.583,196.394,197.908,202.033,206.157,208.175,212.3,213.782,217.361,221.485,223.353,225.527,231.049,234.86,237.191,241.001,243.018,244.563,248.531,252.655,254.986,256.525,260.335,264.146,267.957,271.925,273.418,276.997,279.171,283.139,287.412,290.834,292.851,294.393,296.567,300.534,304.34499999999997,305.844,309.654,313.233,315.408,316.73,322.872,326.683,328.857,330.179,334.304,338.272,339.8,343.924,345.792,347.283,352.805,357.781,361.36,362.872,366.683,370.65,374.924,376.478,377.8,379.974,383.553,385.038,389.162,393.287,399.9,401.421,406.629,408.25800000000004,409.755,413.565,415.897,419.70799999999997,421.206,425.48,426.802,430.927,433.101,435.275,439.086,443.36,444.902,450.424,451.747,453.921,457.889,459.415,463.226,464.687,468.962,473.086,476.665,478.18,481.99,485.958,490.232,491.728,495.539,497.057,501.025,505.149,507.481,508.803,512.225,516.35,520.317,522.491,526.302,527.625,529.143,530.465,531.788,535.755,539.566,541.104,546.626,550.594,551.916,555.727,559.6949999999999,561.229,565.04,567.371,571.525,575.104,578.683,580.193,582.368,586.335" y="322.929" svg_rhmargin="590.146" style="fill:#171615;font-family:IDJKEN+AdvOT6e5d2ec0;font-size:7.47px;font-style:NORMAL;font-weight:normal;">value of ORs and 95%CIs with stata 12.0 software. For each study, the estimation of ORs and its 95% CI are plotted with a box and a horizontal line which cross the</text>
  <text x="85.04,86.363,92.504,96.315,100.44,101.762,105.73,109.54,111.871,115.29299999999999,117.012,118.334,119.657,123.625,127.499,129.516,131.184,135.309,139.276,143.08700000000002,144.79,146.112,149.923,153.891,158.015,160.189,164.15699999999998,165.878,170.003,171.87099999999998,173.588,175.763,179.73,183.541,185.267,189.542,190.864,194.675,198.485,202.221,203.918,205.241,206.563,210.531,214.342,216.049,221.571,225.538,226.861,230.672,234.64,236.344,240.155,242.486,246.61,250.189,253.768,257.579,261.158,262.874,265.049,269.016,272.827,274.553,275.875,282.017,285.828,289.952,291.275,295.242,299.053,301.384,304.80600000000004,306.581,307.904,309.226,313.194,317.005,318.712,320.035,323.61400000000003,325.288,329.563,331.894,336.019,340.293,344.417,346.748,348.922,350.245,354.369,358.337,362.147,363.46999999999997,365.254,367.429,371.554,373.248,375.422,379.389,383.2,384.869,388.994,393.118,399.731,404.938,406.567,410.146,411.91,416.035,417.903,419.564,420.886,424.854,428.664,430.051,434.019,438.293,442.103,446.377,448.078,451.657,453.832,457.799,462.073,463.395,467.206,470.785,472.802,474.552,478.676,482.644,486.455,488.157,493.679,497.49,498.813,502.937,506.904,509.078,510.776,513.108,516.918,521.264,523.595,527.406,530.984,534.795,538.763,540.937,544.516,546.235,548.41,552.378,556.1890000000001,557.914,561.882,565.85,571.993,576.268,580.079,582.41,584.164,588.289" y="331.886" svg_rhmargin="590.157" style="fill:#171615;font-family:IDJKEN+AdvOT6e5d2ec0;font-size:7.47px;font-style:NORMAL;font-weight:normal;">imaginary line. The length of the black line which crosses the imaginary line is proportional to the 95%CIs of included studies. The weight represents the number of</text>
  <text svg_rhmargin="352.654" x="85.04,88.851,90.173,93.984,100.126,103.936,107.904,110.078,113.657,115.255,117.429,121.396,125.207,127.381,128.974,133.098,134.421,137.843,141.654,143.259,145.59,146.913,150.492,154.303,155.844,158.018,162.143,163.723,165.898,169.865,173.67600000000002,175.288,179.413,182.836,186.646,188.977,192.788,194.111,195.434,197.001,200.423,204.233,205.556,209.523,213.334,215.351,216.955,221.625,225.435,229.246,233.37,235.702,239.975,241.298,245.266,249.391,251.025,253.199,257.324,258.905,261.079,265.046,268.85699999999997,270.413,274.223,278.191,279.513,282.233,285.812,290.086,294.053,297.864,300.195,304.006,308.28,309.924,312.098,315.909,319.488,321.662,323.246,327.52,331.331,334.91,338.72,342.994,344.561,348.686,352.654" y="340.9" style="fill:#171615;font-family:IDJKEN+AdvOT6e5d2ec0;font-size:7.47px;font-style:NORMAL;font-weight:normal;">elements that give rise to the overall value. According to the chi-squared test based on </text>
  <text x="354.273" y="340.9" svg_rhmargin="359.795" style="fill:#171615;font-family:IDJKGB+AdvOT1deab444.I;font-size:7.47px;font-style:NORMAL;font-weight:normal;">Q</text>
  <text svg_rhmargin="438.894" x="359.772,362.492,366.071,368.245,372.131,374.305,375.627,379.206,381.381,382.703,386.51399999999995,388.06,390.235,394.045,397.624,399.799,401.816,403.423,405.597,409.565,413.376,414.988,418.41,422.221,423.543,427.511,431.322,432.902,437.026,438.894" y="340.9" style="fill:#171615;font-family:IDJKEN+AdvOT6e5d2ec0;font-size:7.47px;font-style:NORMAL;font-weight:normal;">-statistic test, the value of </text>
  <text x="440.446" y="340.9" svg_rhmargin="442.075" style="fill:#171615;font-family:IDJKGB+AdvOT1deab444.I;font-size:7.47px;font-style:NORMAL;font-weight:normal;">I</text>
  <text svg_rhmargin="484.527" x="442.09,444.81,448.388,452.662,456.63,460.44,462.772,466.582,470.856,472.475,476.285,480.253,484.527" y="340.9" style="fill:#171615;font-family:IDJKEN+AdvOT6e5d2ec0;font-size:7.47px;font-style:NORMAL;font-weight:normal;">-squared and </text>
  <text svg_rhmargin="490.81" x="486.14,490.81" y="340.9" style="fill:#171615;font-family:IDJKGB+AdvOT1deab444.I;font-size:7.47px;font-style:NORMAL;font-weight:normal;">P </text>
  <text x="492.376,495.798,499.608,500.931,504.898,508.709,510.289,515.811,519.622,521.953,525.764,527.353,531.32,534.899,538.71,542.984,544.53,546.704,550.829,552.409,556.22,559.642,563.453,564.775,568.743,572.553,574.728,578.539,580.186,582.361,586.328" y="340.9" svg_rhmargin="590.139" style="fill:#171615;font-family:IDJKEN+AdvOT6e5d2ec0;font-size:7.47px;font-style:NORMAL;font-weight:normal;">value were used to evaluate the</text>
  <text svg_rhmargin="451.483" x="85.039,89.007,92.818,94.992,98.802,101.134,105.258,109.382,113.193,117.238,121.049,122.371,124.546,127.968,129.937,133.747,139.889,144.014,147.981,152.106,154.143,157.722,159.896,163.864,168.138,169.46,173.271,176.932,178.94899999999998,180.957,185.628,189.595,193.869,195.867,199.835,203.96,205.958,209.925,213.736,215.91,219.721,222.052,226.176,230.301,234.189,238.156,241.967,243.289,245.463,248.885,250.855,252.178,255.757,257.772,259.64,263.764,267.732,271.699,275.973,278.01,279.332,283.3,285.323,287.498,291.465,295.27599999999995,297.285,299.153,303.277,305.608,309.419,312.998,315.17199999999997,317.182,321.456,322.779,326.903,329.077,331.094,333.112,337.237,341.204,345.015,347.057,349.389,353.199,356.778,360.746,362.068,364.243,367.822,369.846,371.169,375.136,379.41,380.733,384.543,388.354,390.528,394.339,398.613,400.685,402.859,406.827,410.637,412.811,414.8,419.074,422.885,427.009,431.283,432.606,436.417,438.496,444.018,445.341,447.515,451.483" y="349.857" style="fill:#171615;font-family:IDJKEN+AdvOT6e5d2ec0;font-size:7.47px;font-style:NORMAL;font-weight:normal;">heterogeneity among studies. And no heterogeneity is found in the forest plot. The results indicated that people with </text>
  <text svg_rhmargin="485.08" x="453.484,458.304,462.975,467.646,472.316,476.284,480.41,485.08000000000004" y="349.857" style="fill:#171615;font-family:IDJKGB+AdvOT1deab444.I;font-size:7.47px;font-style:NORMAL;font-weight:normal;">RASSF1A </text>
  <text x="487.103,491.377,493.708,497.832,504.053,508.177,510.351,514.162,516.493,518.508,522.476,525.898,530.172,533.982,536.314,542.455,546.266,548.44,552.408,555.83,557.152,560.963,563.137,564.46,568.584,572.5519999999999,574.629,580.151,583.962,586.293" y="349.857" svg_rhmargin="590.104" style="fill:#171615;font-family:IDJKEN+AdvOT6e5d2ec0;font-size:7.47px;font-style:NORMAL;font-weight:normal;">promoter hypermethylation were</text>
  <text svg_rhmargin="216.851" x="85.039,89.164,93.288,95.306,99.431,101.933,104.107,105.43,111.572,115.382,118.961,121.491,125.458,126.781,130.905,134.873,138.683,141.01399999999998,143.542,145.873,147.196,150.775,154.511,157.034,159.208,163.176,166.986,170.95399999999998,173.474,175.648,179.616,183.74,187.319,191.13,193.599,199.12,200.443,202.617,206.585,210.709,214.677,216.851" y="358.815" style="fill:#171615;font-family:IDJKEN+AdvOT6e5d2ec0;font-size:7.47px;font-style:NORMAL;font-weight:normal;">11.8 times higher risk than those without </text>
  <text svg_rhmargin="250.996" x="219.401,224.221,228.892,233.562,238.233,242.201,246.326,250.99599999999998" y="358.815" style="fill:#171615;font-family:IDJKGB+AdvOT1deab444.I;font-size:7.47px;font-style:NORMAL;font-weight:normal;">RASSF1A </text>
  <text x="253.53,257.804,260.135,264.259,270.401,274.526,276.7,280.511,282.84200000000004,285.389,289.357,292.779,297.052,300.863,303.194,309.336,313.147,315.321,319.289,322.803,324.126,327.936,330.111,331.433,335.558,339.526,342.021,344.195,348.32,350.807,354.386,358.354,360.222,362.09,365.901,368.232,370.762,372.63,374.961,379.085,385.227,387.769,391.894,394.225,398.036,399.359,401.829,405.639,409.45,413.417,417.228,421.039,423.37,425.387,427.962,429.591,433.559,436.069,439.879,444.153,448.427,449.75,451.924,453.246,457.371,461.338,463.355,465.887,469.466,473.433,477.707,481.831,484.163,488.287,492.254,496.528,499.049,502.86,506.827,510.638,511.961,515.383,518.962,520.284,523.8629999999999,526.43,530.704,534.514,538.093,541.904,546.178,548.652,552.462,554.637,558.604,562.572,563.894,567.705,569.116,571.29,574.712,577.166,582.688,586.499" y="358.815" svg_rhmargin="590.078" style="fill:#171615;font-family:IDJKEN+AdvOT6e5d2ec0;font-size:7.47px;font-style:NORMAL;font-weight:normal;">promoter hypermethylation to suffer from oral cancer. In addition, subgroup analysis based ethnicity was</text>
  <text svg_rhmargin="136.652" x="85.039,89.314,93.125,95.457,97.326,101.451,103.783,109.926,113.737,118.012,120.029,122.573,128.096,133.073,136.65200000000002" y="367.772" style="fill:#171615;font-family:IDJKEN+AdvOT6e5d2ec0;font-size:7.47px;font-style:NORMAL;font-weight:normal;">performed. ORs </text>
  <text svg_rhmargin="144.239" x="139.181,144.24" y="367.772" style="fill:#171615;font-family:IDJKGC+AdvOTb0c9bf5d;font-size:7.47px;font-style:NORMAL;font-weight:normal;">= </text>
  <text svg_rhmargin="219.182" x="146.721,150.846,155.12,159.395,162.97400000000002,165.487,167.819,171.63,173.805,175.128,179.322,182.901,184.918,187.429,192.406,197.077,201.747,206.418,210.386,214.512,219.182" y="367.772" style="fill:#171615;font-family:IDJKEN+AdvOT6e5d2ec0;font-size:7.47px;font-style:NORMAL;font-weight:normal;">odds ratios, RASSF1A </text>
  <text svg_rhmargin="226.726" x="221.668,226.727" y="367.772" style="fill:#171615;font-family:IDJKGC+AdvOTb0c9bf5d;font-size:7.47px;font-style:NORMAL;font-weight:normal;">= </text>
  <text x="229.208,234.184,238.854,243.524,246.045,249.855,253.434,257.013,261.138,264.948,266.339,270.149,272.324,273.646,277.771,281.73900000000003,284.252,288.526,292.651,298.793,302.603,303.926,307.894,310.386,312.254,316.064,322.206,323.529,324.851,328.273,330.794,335.067,337.399,341.523,343.697,347.508,348.83,352.798,355.34,359.464,363.275" y="367.772" svg_rhmargin="365.292" style="fill:#171615;font-family:IDJKEN+AdvOT6e5d2ec0;font-size:7.47px;font-style:NORMAL;font-weight:normal;">RAS association domain family protein 1a.</text>
  <path d=" M 85.03900146484375 370.5450134277344 L 590.115966796875 370.5450134277344 L 590.115966796875 371.28204345703125 L 85.03900146484375 371.28204345703125 Z " style="fill:none;stroke:#000000;stroke-width:1.0;"/>
  <path d=" M 85.03900146484375 80.9010009765625 L 590.115966796875 80.9010009765625 L 590.115966796875 81.63800048828125 L 85.03900146484375 81.63800048828125 Z " style="fill:none;stroke:#000000;stroke-width:1.0;"/>
  <rect style="stroke:blue;stroke-width:0.3;" x="169.568" y="436.542" height="210.047" width="336.199" title="5"/>
  <text x="169.568" y="436.542" class="image" id="image.5.2" width="336" height="210">image.5.2.170_506.437_647</text>
  <text svg_rhmargin="114.257" x="85.039,89.396,91.183,95.54,99.814,102.378,106.503,108.115,112.24,114.25699999999999" y="657.587" style="fill:#171615;font-family:IDJKMK+AdvOTf94803d4;font-size:7.47px;font-style:NORMAL;font-weight:normal;">Figure 3. </text>
  <text svg_rhmargin="227.376" x="118.035,122.002,126.127,128.458,132.269,135.848,138.02200000000002,139.576,143.85,145.172,149.297,151.471,153.068,157.192,161.16,162.762,166.572,170.151,173.73,177.855,181.666,182.988,186.799,188.973,190.295,194.42,198.38799999999998,200.006,204.28,208.09,210.265,215.786,219.597,223.408,227.37599999999998" y="657.587" style="fill:#171615;font-family:IDJKEN+AdvOT6e5d2ec0;font-size:7.47px;font-style:NORMAL;font-weight:normal;">Forest plot on association between </text>
  <text x="228.982,233.802,238.473" y="657.587" svg_rhmargin="243.292" style="fill:#171615;font-family:IDJKGB+AdvOT1deab444.I;font-size:7.47px;font-style:NORMAL;font-weight:normal;">RAR</text>
  <text svg_rhmargin="247.524" x="243.325,247.524" y="657.587" style="fill:#171615;font-family:IDJKEL+AdvP4A5FDB;font-size:7.47px;font-style:NORMAL;font-weight:normal;">b </text>
  <text x="249.107,253.381,255.712,259.837,265.979,270.103,272.277,276.088,278.41900000000004,280.059,284.027,287.449,291.723,295.533,297.865,304.006,307.817,309.991,313.959,317.474,318.796,322.607,324.781,326.103,330.228,334.196,335.784,339.595,343.562,347.836,349.389,353.514,355.845,359.656,360.979,362.598,366.409,370.219,374.187,377.997,381.808,384.139,385.727,388.058,389.381,392.96,396.695,398.712,400.296,404.421,408.388,412.19899999999996,413.788,415.656,419.78,422.112,425.922,429.501,431.67499999999995,433.289,437.562,438.885,443.009,445.183,446.78,448.103,451.682,453.243,457.517,459.849,463.659,469.181,473.149,474.785,476.96,481.085,482.665,486.477,490.287,491.61,495.42,499.388,500.71,504.521,506.695,510.506,512.087,515.898,517.472,521.746,525.871,529.995,531.318,535.128,539.402,541.055,544.866,548.445,550.619,551.941,558.083,561.894,564.068,567.879,572.153,573.764,577.186,580.997,582.32,586.287" y="657.587" svg_rhmargin="590.098" style="fill:#171615;font-family:IDJKEN+AdvOT6e5d2ec0;font-size:7.47px;font-style:NORMAL;font-weight:normal;">promoter hypermethylation and oral cancer risk. The forest plot is drawn to calculate a pooled estimated value</text>
  <text x="85.039,89.164,91.032,93.146,98.668,103.644,107.223,109.303,113.113,117.081,121.355,123.475,127.6,131.724,138.336,143.544,145.173,148.752,150.855,156.378,157.7,159.875,163.843,165.936,169.515,171.689,175.5,177.674,181.485,183.623,187.748,191.872,193.889,198.014,200.119,203.698,207.823,209.691,211.865,217.387,221.197,223.529,227.339,229.356,231.468,235.436,239.56,241.891,243.996,247.807,251.617,255.428,259.396,261.513,265.092,267.266,271.234,275.508,278.93,280.947,283.111,285.285,289.253,293.06399999999996,295.129,298.94,302.519,304.693,306.016,312.158,315.968,318.142,319.465,323.589,327.557,329.709,333.834,335.702,337.816,343.338,348.314,351.89300000000003,353.973,357.783,361.751,366.025,368.145,369.468,371.642,375.221,377.329,381.453,385.578,392.191,394.279,399.487,401.11600000000004,403.18,406.99,409.321,413.132,415.255,419.529,420.852,424.976,427.151,429.325,433.135,437.409,439.575,445.096,446.419,448.593,452.56100000000004,454.654,458.465,460.55,464.825,468.949,472.528,474.61,478.421,482.388,486.662,488.782,492.59299999999996,494.678,498.646,502.77,505.102,506.424,509.846,513.971,517.938,520.112,523.923,525.246,527.388,528.71,530.033,534.0,537.811,539.916,545.438,549.406,550.728,554.539,558.507,560.608,564.419,566.75,570.874,574.453,578.0319999999999,580.165,582.34,586.307" y="666.545" svg_rhmargin="590.118" style="fill:#171615;font-family:IDJKEN+AdvOT6e5d2ec0;font-size:7.47px;font-style:NORMAL;font-weight:normal;">of ORs and 95%CIs with stata 12.0 software. For each study, the estimation of ORs and its 95% CI are plotted with a box and a horizontal line which cross the</text>
  <text x="85.039,86.362,92.504,96.314,100.439,101.761,105.729,109.539,111.871,115.29299999999999,117.011,118.334,119.656,123.624,127.499,129.516,131.184,135.308,139.276,143.08700000000002,144.789,146.112,149.922,153.89,158.014,160.189,164.15699999999998,165.878,170.002,171.87,173.588,175.762,179.73,183.541,185.266,189.541,190.863,194.674,198.485,202.221,203.917,205.24,206.562,210.53,214.341,216.048,221.57,225.538,226.86,230.671,234.63899999999998,236.343,240.154,242.485,246.61,250.189,253.768,257.578,261.157,262.874,265.048,269.015,272.82599999999996,274.552,275.874,282.016,285.827,289.951,291.274,295.241,299.052,301.383,304.805,306.581,307.903,309.226,313.193,317.00399999999996,318.712,320.034,323.613,325.288,329.562,331.893,336.018,340.292,344.416,346.747,348.922,350.244,354.369,358.336,362.147,363.46999999999997,365.254,367.428,371.553,373.247,375.421,379.389,383.2,384.868,388.993,393.117,399.73,404.938,406.567,410.146,411.909,416.034,417.902,419.563,420.885,424.853,428.664,430.05,434.018,438.292,442.102,446.376,448.078,451.657,453.831,457.798,462.072,463.395,467.205,470.784,472.801,474.551,478.675,482.643,486.45399999999995,488.156,493.679,497.489,498.812,502.936,506.904,509.078,510.776,513.107,516.917,521.263,523.594,527.405,530.984,534.794,538.762,540.936,544.515,546.234,548.409,552.377,556.188,557.913,561.881,565.85,571.992,576.267,580.078,582.409,584.164,588.288" y="675.502" svg_rhmargin="590.156" style="fill:#171615;font-family:IDJKEN+AdvOT6e5d2ec0;font-size:7.47px;font-style:NORMAL;font-weight:normal;">imaginary line. The length of the black line which crosses the imaginary line is proportional to the 95%CIs of included studies. The weight represents the number of</text>
  <text svg_rhmargin="352.653" x="85.039,88.85,90.173,93.983,100.125,103.936,107.903,110.077,113.65599999999999,115.254,117.428,121.396,125.206,127.38000000000001,128.973,133.097,134.42,137.842,141.65300000000002,143.258,145.589,146.912,150.491,154.30200000000002,155.843,158.017,162.142,163.723,165.897,169.865,173.67600000000002,175.288,179.413,182.835,186.645,188.977,192.787,194.11,195.43300000000002,197.0,200.422,204.233,205.555,209.523,213.333,215.35,216.954,221.624,225.435,229.245,233.37,235.701,239.975,241.297,245.265,249.39,251.024,253.198,257.323,258.904,261.078,265.046,268.85699999999997,270.412,274.222,278.19,279.513,282.232,285.811,290.085,294.053,297.863,300.194,304.005,308.279,309.923,312.098,315.908,319.487,321.661,323.246,327.519,331.33,334.909,338.72,342.994,344.56,348.685,352.653" y="684.4590000000001" style="fill:#171615;font-family:IDJKEN+AdvOT6e5d2ec0;font-size:7.47px;font-style:NORMAL;font-weight:normal;">elements that give rise to the overall value. According to the chi-squared test based on </text>
  <text x="354.272" y="684.4590000000001" svg_rhmargin="359.794" style="fill:#171615;font-family:IDJKGB+AdvOT1deab444.I;font-size:7.47px;font-style:NORMAL;font-weight:normal;">Q</text>
  <text svg_rhmargin="438.893" x="359.771,362.491,366.07,368.244,372.13,374.304,375.627,379.206,381.38,382.702,386.513,388.06,390.234,394.045,397.624,399.798,401.815,403.422,405.597,409.564,413.375,414.987,418.409,422.22,423.542,427.51,431.32099999999997,432.901,437.025,438.893" y="684.4590000000001" style="fill:#171615;font-family:IDJKEN+AdvOT6e5d2ec0;font-size:7.47px;font-style:NORMAL;font-weight:normal;">-statistic test, the value of </text>
  <text x="440.445" y="684.4590000000001" svg_rhmargin="442.074" style="fill:#171615;font-family:IDJKGB+AdvOT1deab444.I;font-size:7.47px;font-style:NORMAL;font-weight:normal;">I</text>
  <text svg_rhmargin="484.526" x="442.089,444.809,448.388,452.662,456.629,460.44,462.771,466.582,470.856,472.474,476.284,480.252,484.526" y="684.4590000000001" style="fill:#171615;font-family:IDJKEN+AdvOT6e5d2ec0;font-size:7.47px;font-style:NORMAL;font-weight:normal;">-squared and </text>
  <text svg_rhmargin="490.809" x="486.139,490.809" y="684.4590000000001" style="fill:#171615;font-family:IDJKGB+AdvOT1deab444.I;font-size:7.47px;font-style:NORMAL;font-weight:normal;">P </text>
  <text x="492.375,495.797,499.608,500.93,504.898,508.709,510.289,515.81,519.621,521.952,525.763,527.352,531.319,534.898,538.709,542.983,544.529,546.703,550.828,552.409,556.219,559.641,563.452,564.774,568.742,572.553,574.727,578.538,580.186,582.36,586.328" y="684.4590000000001" svg_rhmargin="590.139" style="fill:#171615;font-family:IDJKEN+AdvOT6e5d2ec0;font-size:7.47px;font-style:NORMAL;font-weight:normal;">value were used to evaluate the</text>
  <text svg_rhmargin="483.795" x="85.039,89.006,92.817,94.991,98.802,101.133,105.257,109.382,113.192,117.238,121.048,122.371,124.545,127.967,129.369,133.179,139.321,143.446,147.413,151.538,153.008,156.587,158.761,162.729,167.003,168.325,172.136,175.715,177.732,179.198,183.868,187.836,192.11,193.484,197.452,201.577,203.009,206.977,210.788,212.962,216.841,219.172,223.297,227.421,231.232,235.199,239.01,240.333,242.507,245.929,247.34,248.662,252.241,253.689,255.557,259.682,263.649,267.617,271.891,273.303,274.626,278.594,280.05,282.224,286.192,290.003,291.387,295.198,299.166,302.976,304.299,307.721,311.3,312.702,316.281,318.298,319.675,321.304,325.272,326.704,328.879,332.846,334.169,337.748,339.176,341.044,345.169,347.5,351.31,354.889,357.063,358.507,362.781,364.104,368.228,370.402,372.419,373.87,376.044,380.012,383.823,385.265,387.596,391.406,394.985,398.953,400.275,402.45,406.029,407.486,411.065,415.033,419.157,424.679,428.49,432.764,434.187,436.361,440.329,444.139,446.313,447.735,452.009,455.82,459.944,464.218,465.541,469.352,470.808,476.33,477.652,479.827,483.795" y="693.4159999999999" style="fill:#171615;font-family:IDJKEN+AdvOT6e5d2ec0;font-size:7.47px;font-style:NORMAL;font-weight:normal;">heterogeneity among studies. And no heterogeneity is found in the analysis. In this forest plot, the results showed that people with </text>
  <text x="485.288,490.108,494.779" y="693.4159999999999" svg_rhmargin="499.598" style="fill:#171615;font-family:IDJKGB+AdvOT1deab444.I;font-size:7.47px;font-style:NORMAL;font-weight:normal;">RAR</text>
  <text svg_rhmargin="503.774" x="499.575,503.774" y="693.4159999999999" style="fill:#171615;font-family:IDJKEL+AdvP4A5FDB;font-size:7.47px;font-style:NORMAL;font-weight:normal;">b </text>
  <text x="505.188,509.462,511.793,515.917,522.137,526.262,528.436,532.247,534.578,535.969,539.937,543.359,547.704,551.514,553.845,559.987,563.798,565.972,569.94,573.362,574.684,578.495,580.669,581.992,586.116" y="693.4159999999999" svg_rhmargin="590.084" style="fill:#171615;font-family:IDJKEN+AdvOT6e5d2ec0;font-size:7.47px;font-style:NORMAL;font-weight:normal;">promoter hypermethylation</text>
  <text svg_rhmargin="231.59" x="85.039,90.56,94.371,96.702,100.513,101.988,106.113,110.237,112.255,116.379,120.504,121.943,124.117,125.439,131.581,135.392,138.971,140.423,144.391,145.713,149.838,153.805,157.616,159.947,161.455,163.786,165.109,168.688,172.42399999999998,173.87,176.044,180.012,183.823,187.791,189.233,191.407,195.375,199.499,203.078,206.889,208.337,213.859,215.182,217.356,221.324,225.448,229.416,231.59" y="702.373" style="fill:#171615;font-family:IDJKEN+AdvOT6e5d2ec0;font-size:7.47px;font-style:NORMAL;font-weight:normal;">were 20.35 times higher risk than those without </text>
  <text x="233.063,237.883,242.554" y="702.373" svg_rhmargin="247.373" style="fill:#171615;font-family:IDJKGB+AdvOT1deab444.I;font-size:7.47px;font-style:NORMAL;font-weight:normal;">RAR</text>
  <text svg_rhmargin="251.605" x="247.406,251.60500000000002" y="702.373" style="fill:#171615;font-family:IDJKEL+AdvP4A5FDB;font-size:7.47px;font-style:NORMAL;font-weight:normal;">b </text>
  <text svg_rhmargin="434.157" x="253.076,257.35,259.681,263.805,269.947,274.071,276.246,280.056,282.387,283.857,287.825,291.247,295.521,299.331,301.663,307.804,311.615,313.789,317.757,321.272,322.594,326.405,328.579,329.901,334.026,337.994,339.468,341.643,345.768,347.178,350.757,354.725,356.593,358.461,362.271,364.60200000000003,366.056,367.924,370.255,374.38,380.522,381.986,386.11,388.441,392.252,393.575,395.024,398.835,402.645,406.613,410.423,414.234,416.565,418.582,420.08,425.602,430.578,434.157" y="702.373" style="fill:#171615;font-family:IDJKEN+AdvOT6e5d2ec0;font-size:7.47px;font-style:NORMAL;font-weight:normal;">promoter hypermethylation to suffer from oral cancer. ORs </text>
  <text svg_rhmargin="440.684" x="435.626,440.685" y="702.373" style="fill:#171615;font-family:IDJKGC+AdvOTb0c9bf5d;font-size:7.47px;font-style:NORMAL;font-weight:normal;">= </text>
  <text x="442.146,446.271,450.546,454.82,458.399,459.835,462.167,465.979,468.154,469.477,473.602,477.182,479.199,480.644,485.621,490.292" y="702.373" svg_rhmargin="495.268" style="fill:#171615;font-family:IDJKEN+AdvOT6e5d2ec0;font-size:7.47px;font-style:NORMAL;font-weight:normal;">odds ratios, RAR</text>
  <text x="495.323" y="702.373" svg_rhmargin="499.911" style="fill:#171615;font-family:IDJKFA+AdvP7DA6;font-size:7.47px;font-style:NORMAL;font-weight:normal;">b</text>
  <text x="500.823" y="702.373" svg_rhmargin="505.881" style="fill:#171615;font-family:IDJKGC+AdvOTb0c9bf5d;font-size:7.47px;font-style:NORMAL;font-weight:normal;">=</text>
  <text x="506.832,509.163,512.974,515.148,516.471,520.438,524.563,525.885,529.696,531.208,535.019,538.829,540.152,544.426,545.834,548.165,551.976,555.787,559.666,563.94,566.114,570.239,572.57,574.008,578.282,582.093,584.267,588.078" y="702.373" svg_rhmargin="590.095" style="fill:#171615;font-family:IDJKEN+AdvOT6e5d2ec0;font-size:7.47px;font-style:NORMAL;font-weight:normal;">retinoic acid receptor beta,</text>
  <text svg_rhmargin="116.792" x="85.039,90.016,94.687,99.358,104.028,107.997,112.122,116.792" y="711.387" style="fill:#171615;font-family:IDJKEN+AdvOT6e5d2ec0;font-size:7.47px;font-style:NORMAL;font-weight:normal;">RASSF1A </text>
  <text x="117.751" y="711.387" svg_rhmargin="122.809" style="fill:#171615;font-family:IDJKGC+AdvOTb0c9bf5d;font-size:7.47px;font-style:NORMAL;font-weight:normal;">=</text>
  <text x="123.761,128.737,133.407,138.077,140.597,144.408,147.987,151.566,155.691,159.501,160.824,164.634,166.809,168.131,172.256,176.224,178.749,183.022,187.147,193.289,197.099,198.422,202.39,204.939,206.807,210.617,216.759,218.082,219.404,222.826,225.346,229.62,231.951,236.076,238.25,242.061,243.383,247.351,249.893,254.017,257.828" y="711.387" svg_rhmargin="259.845" style="fill:#171615;font-family:IDJKEN+AdvOT6e5d2ec0;font-size:7.47px;font-style:NORMAL;font-weight:normal;">RAS association domain family protein 1a.</text>
  <text x="85.039,92.26,96.325,100.557,103.18,107.245,109.56400000000001,112.195,116.259,117.67,119.822,122.456,129.007,133.072,137.631,139.042,143.106,144.517,148.749,152.814,155.45,157.355,161.754,166.154,170.553,174.953,176.858,179.43,183.829,188.229,190.381,194.78,199.179,517.041,522.931,528.821,534.711,536.863,543.414,547.973,550.874,552.285,556.685,560.917,563.3,567.532,571.597,573.008,575.16,579.224,583.624" y="9.870999999999981" svg_rhmargin="590.176" style="fill:#171615;font-family:IDJKEN+AdvOT6e5d2ec0;font-size:7.97px;font-style:NORMAL;font-weight:normal;">Wen et al. Medicine (2018) 97:11 www.md-journal.com</text>
  <text x="335.396" y="739.625" svg_rhmargin="339.796" style="fill:#171615;font-family:IDJKMK+AdvOTf94803d4;font-size:7.97px;font-style:NORMAL;font-weight:normal;">5</text>
 </g>
</svg>
