<?xml version="1.0" encoding="UTF-8"?>
<svg height="870.031005859375" width="672.0029907226562" xmlns="http://www.w3.org/2000/svg">
 <g style="fill:none;">
  <path d=" M 0.05999799817800522 826.072021484375 L 22.619997024536133 826.072021484375 L 22.619997024536133 826.35546875 L 0.05999799817800522 826.35546875 Z " style="fill:none;stroke:#000000;stroke-width:1.0;"/>
  <path d=" M 33.67599868774414 837.4110107421875 L 33.959449768066406 837.4110107421875 L 33.959449768066406 860.031005859375 L 33.67599868774414 860.031005859375 Z " style="fill:none;stroke:#000000;stroke-width:1.0;"/>
  <path d=" M 627.9869995117188 837.4110107421875 L 628.2703857421875 837.4110107421875 L 628.2703857421875 860.031005859375 L 627.9869995117188 860.031005859375 Z " style="fill:none;stroke:#000000;stroke-width:1.0;"/>
  <path d=" M 639.3259887695312 826.072021484375 L 662.0029907226562 826.072021484375 L 662.0029907226562 826.35546875 L 639.3259887695312 826.35546875 Z " style="fill:none;stroke:#000000;stroke-width:1.0;"/>
  <path d=" M 639.3259887695312 33.731998443603516 L 662.0029907226562 33.731998443603516 L 662.0029907226562 34.015480041503906 L 639.3259887695312 34.015480041503906 Z " style="fill:none;stroke:#000000;stroke-width:1.0;"/>
  <path d=" M 627.9869995117188 0.0 L 628.2703857421875 0.0 L 628.2703857421875 22.677000045776367 L 627.9869995117188 22.677000045776367 Z " style="fill:none;stroke:#000000;stroke-width:1.0;"/>
  <path d=" M 33.67599868774414 0.0 L 33.959449768066406 0.0 L 33.959449768066406 22.677000045776367 L 33.67599868774414 22.677000045776367 Z " style="fill:none;stroke:#000000;stroke-width:1.0;"/>
  <path d=" M 0.05999799817800522 33.731998443603516 L 22.619997024536133 33.731998443603516 L 22.619997024536133 34.015480041503906 L 0.05999799817800522 34.015480041503906 Z " style="fill:none;stroke:#000000;stroke-width:1.0;"/>
  <text svg_rhmargin="296.325" x="85.039,92.012,95.931,99.496,103.414,110.891,114.406,118.889,126.368,133.738,137.82,140.707,144.282,146.777,150.695,158.116,163.065,166.109,171.059,175.066,178.518,186.008,188.895,193.945,198.428,203.377,210.896,213.783,218.833,222.751,230.228,233.115,238.165,243.21,248.16,252.168,254.589,262.089,267.038,269.572,274.522,277.409,284.936,287.823,292.873,296.325" y="346.967" style="fill:#171615;font-family:IDJKGE+AdvOTbc475f09;font-size:8.97px;font-style:NORMAL;font-weight:normal;">were symmetric other than the funnel plot for </text>
  <text x="303.818,310.256,317.708,325.191" y="346.967" svg_rhmargin="330.14" style="fill:#171615;font-family:IDJKGG+AdvOT638a931c.I;font-size:8.97px;font-style:NORMAL;font-weight:normal;">CDH1</text>
  <text x="85.039,89.989,94.563,99.609,103.527,107.092,114.462,118.487,121.492,126.441,131.016,133.51,137.993,140.994,143.488,148.437,153.522,155.94299999999998,160.268,166.706,169.593,173.988,176.875,181.925,185.84300000000002,190.145,193.66,198.252,205.623,209.541,213.899,216.787,219.342,226.712,230.794,233.215,237.54,241.055,244.973,250.012,253.527,256.021,258.908,261.464,265.947,268.493,271.381,275.864,280.229,284.712,289.809,294.292,296.839,301.322,304.889,307.383,310.835,315.15,322.123,326.606" y="357.909" svg_rhmargin="330.058" style="fill:#171615;font-family:IDJKGE+AdvOTbc475f09;font-size:8.97px;font-style:NORMAL;font-weight:normal;">hypermethylation. At the same time, sensitivity analysis was</text>
  <text x="85.039,89.523,92.069,95.584,100.533,102.898,106.816,111.855,116.9,121.85,126.878,130.903,133.79,137.819,142.768,145.133,149.616,154.657,159.60600000000002,161.971,164.858,169.908,173.826,176.201,181.15,185.725,189.643,193.208,197.8,200.221,202.642,205.057,210.006,215.035,220.08,222.574,226.493,231.442,233.799,241.283,247.72,251.172,253.584,258.534,261.068,266.017,268.324,273.369,278.319,281.206,283.63,287.145,289.566,294.175,299.124" y="368.907" svg_rhmargin="301.545" style="fill:#171615;font-family:IDJKGE+AdvOTbc475f09;font-size:8.97px;font-style:NORMAL;font-weight:normal;">also conducted and the overall pooled ORs did not signi</text>
  <text x="301.663" y="368.907" svg_rhmargin="306.612" style="fill:#171615;font-family:IDJKNL+AdvOTbc475f09+fb;font-size:8.97px;font-style:NORMAL;font-weight:normal;">ﬁ</text>
  <text x="306.652,310.571,315.212,320.162,323.149,325.644" y="368.907" svg_rhmargin="330.127" style="fill:#171615;font-family:IDJKGE+AdvOTbc475f09;font-size:8.97px;font-style:NORMAL;font-weight:normal;">cantly</text>
  <text x="85.038,88.957,94.052,98.535,103.576,108.059,112.08,117.029,120.584,123.588,128.538,131.071,135.555,139.121,141.542,145.074" y="379.848" svg_rhmargin="150.023" style="fill:#171615;font-family:IDJKGE+AdvOTbc475f09;font-size:8.97px;font-style:NORMAL;font-weight:normal;">changed (Figs. 6</text>
  <text x="150.122" y="379.848" svg_rhmargin="154.605" style="fill:#171615;font-family:IDJKGF+AdvOTbc475f09+20;font-size:8.97px;font-style:NORMAL;font-weight:normal;">–</text>
  <text svg_rhmargin="165.015" x="154.657,159.607,162.594,165.015" y="346.4" style="fill:#171615;font-family:IDJKGE+AdvOTbc475f09;font-size:8.97px;font-style:NORMAL;font-weight:normal;">8). </text>
  <text x="345.09,351.005,353.95799999999997,358.639,365.738,368.492,373.716,379.234,385.15,390.374,395.598,398.353,404.069" y="346.4" svg_rhmargin="409.984" style="fill:#171615;font-family:IDJKEJ+AdvOTfbba3ace.B;font-size:9.46px;font-style:NORMAL;font-weight:normal;">4. Discussion</text>
  <text x="345.09,351.994,359.364,365.80199999999996,370.034,377.404,382.354,385.241,389.724,392.611,395.032,399.981,404.931,408.383,412.609,417.092,422.041,426.99,431.204,435.687,439.605,444.555,448.473,452.69,456.608,461.557,463.978,468.462,472.38,477.329,481.247,484.135,486.556,490.474,494.754,497.175,502.125,506.608,510.526,513.413,515.834,520.317,524.8,527.688,530.108,535.058,540.007,544.246,548.729,551.616,554.503,558.421,562.34,565.227,569.145,574.0939999999999,578.374,581.261,586.211" y="362.388" svg_rhmargin="590.129" style="fill:#171615;font-family:IDJKGE+AdvOTbc475f09;font-size:8.97px;font-style:NORMAL;font-weight:normal;">DNA mutations and gene epigenetic inactivation affected the</text>
  <text x="345.09,347.977,352.926,357.876,361.794,364.681,367.102,372.051,377.0,379.671,384.62,387.507,390.159,397.529,402.012,406.962,411.445,414.139,418.622,422.541,427.49,431.408,434.86,437.281,439.99,446.894,451.843,454.264,458.183,463.132,465.784,468.671,473.621,477.539,482.022,484.719,491.623,495.542,498.994,502.91200000000003,505.582,509.5,514.45,521.82,529.19,534.14,539.089,541.51,545.9929999999999,548.724,553.674,557.592,560.479,564.397,568.316,571.203,575.121,580.0699999999999,582.739,585.16" y="373.329" svg_rhmargin="590.109" style="fill:#171615;font-family:IDJKGE+AdvOTbc475f09;font-size:8.97px;font-style:NORMAL;font-weight:normal;">function of many genes, which they were commonly detected in</text>
  <text x="345.09,347.977,352.926,360.297,365.246,368.698,373.776,377.228,382.177,387.126,392.076,395.528,399.446,402.898,406.35,411.3,414.752,419.865,424.348,428.267,433.216,437.134,440.586,443.007,448.154,454.036,458.985,462.903,466.355,470.273,475.366,479.284,484.233,488.716,493.666,498.149,502.067,505.519,510.627,515.111,517.998,520.885,524.803,528.721,531.609,535.527,540.476,545.606,548.493,553.442,557.36,562.5,567.45,572.399,575.851,583.221,587.704" y="384.271" svg_rhmargin="590.125" style="fill:#171615;font-family:IDJKGE+AdvOTbc475f09;font-size:8.97px;font-style:NORMAL;font-weight:normal;">tumor suppressor genes. These changes affected the normal</text>
  <text x="345.09,349.573,353.025,357.974,364.878,367.765,372.714,375.079,378.998,383.947,388.896,391.784,395.236,400.185,402.606,405.012,409.962,412.849,415.217,419.135,423.053,425.474,427.895,431.347,433.755,436.176,441.125,443.506,450.41,455.359,457.78,461.698,466.647,469.017,472.935,476.853,479.274,481.695,484.096,488.014,492.497,496.416,498.837,502.755,505.128,512.032,516.516,519.968,522.362,527.312,529.733,533.185,536.072,541.021,544.473,549.423,553.341,558.29,560.685,565.168,570.118,575.067,577.466,581.384,585.302,587.723" y="395.212" svg_rhmargin="590.144" style="fill:#171615;font-family:IDJKGE+AdvOTbc475f09;font-size:8.97px;font-style:NORMAL;font-weight:normal;">growth control of cells in which cell cycle was disturbed and cell</text>
  <path d=" M 85.03900146484375 766.885009765625 L 590.115966796875 766.885009765625 L 590.115966796875 767.6220092773438 L 85.03900146484375 767.6220092773438 Z " style="fill:none;stroke:#000000;stroke-width:1.0;"/>
  <path d=" M 85.03900146484375 489.8269958496094 L 590.115966796875 489.8269958496094 L 590.115966796875 490.6206970214844 L 85.03900146484375 490.6206970214844 Z " style="fill:none;stroke:#000000;stroke-width:1.0;"/>
  <rect style="stroke:blue;stroke-width:0.3;" x="169.568" y="40.201" height="197.405" width="336.199" title="7"/>
  <text x="169.568" y="40.201" class="image" id="image.7.1" width="336" height="197">image.7.1.170_506.40_238</text>
  <text svg_rhmargin="114.144" x="85.039,89.396,91.183,95.54,99.814,102.378,106.503,108.002,112.127,114.14399999999999" y="248.66099999999994" style="fill:#171615;font-family:IDJKMK+AdvOTf94803d4;font-size:7.47px;font-style:NORMAL;font-weight:normal;">Figure 5. </text>
  <text svg_rhmargin="226.698" x="117.865,121.832,125.956,128.288,132.098,135.677,137.851,139.35,143.624,144.946,149.07,151.244,152.672,156.796,160.76399999999998,162.196,166.007,169.586,173.165,177.289,181.1,182.49,186.301,188.475,189.798,193.922,197.89,199.327,203.602,207.413,209.587,215.109,218.919,222.73,226.69799999999998" y="248.66099999999994" style="fill:#171615;font-family:IDJKEN+AdvOT6e5d2ec0;font-size:7.47px;font-style:NORMAL;font-weight:normal;">Forest plot on association between </text>
  <text svg_rhmargin="259.784" x="228.189,233.009,237.679,242.35,247.021,250.989,255.114,259.784" y="248.66099999999994" style="fill:#171615;font-family:IDJKGB+AdvOT1deab444.I;font-size:7.47px;font-style:NORMAL;font-weight:normal;">RASSF1A </text>
  <text x="261.24,265.514,267.845,271.97,278.19,282.314,284.489,288.299,290.63,292.078,296.046,299.468,303.742,307.553,309.884,316.026,319.836,322.01,325.978,329.493,330.815,334.626,336.8,338.123,342.247,346.21500000000003,347.633,351.445,355.412,359.686,361.183,363.357,367.482,371.449,375.573,379.541,383.352,384.822,386.996,390.964,397.106,401.23,403.56100000000004,405.003,407.335,408.657,412.236,415.972,417.989,419.459,423.583,427.551,431.36199999999997,432.781,434.649,438.774,441.171,444.982,448.561,450.73499999999996,452.169,456.443,457.765,461.89,464.06399999999996,465.491,466.813,470.392,471.84,476.114,478.445,482.256,487.777,491.745,493.212,495.386,499.511,500.979,504.789,508.6,509.922,513.733,517.7,519.023,522.833,525.008,528.8190000000001,530.287,534.0980000000001,535.559,539.833,543.958,548.082,549.405,553.215,557.489,558.972,562.782,566.361,568.536,569.858,576.0,579.81,581.985,585.795" y="248.66099999999994" svg_rhmargin="590.069" style="fill:#171615;font-family:IDJKEN+AdvOT6e5d2ec0;font-size:7.47px;font-style:NORMAL;font-weight:normal;">promoter hypermethylation and tongue tumor risk. The forest plot is drawn to calculate a pooled estimated</text>
  <text x="85.039,88.461,92.272,93.595,97.562,101.37299999999999,102.896,107.021,108.889,110.38,115.902,120.878,124.457,125.969,129.78,133.747,138.02100000000002,139.518,143.642,147.767,154.379,159.587,161.216,164.79500000000002,166.331,171.854,173.176,175.35,179.31799999999998,180.844,184.423,186.598,190.408,192.583,196.394,197.908,202.032,206.157,208.174,212.299,213.781,217.36,221.484,223.352,225.526,231.048,234.859,237.19,241.001,243.018,244.562,248.53,252.654,254.98499999999999,256.524,260.335,264.145,267.956,271.92400000000004,273.417,276.996,279.17,283.138,287.412,290.834,292.851,294.392,296.566,300.534,304.34499999999997,305.843,309.654,313.233,315.407,316.729,322.871,326.682,328.856,330.179,334.303,338.271,339.799,343.924,345.792,347.282,352.804,357.78,361.359,362.872,366.682,370.65,374.924,376.477,377.799,379.974,383.553,385.037,389.162,393.286,399.899,401.421,406.629,408.25800000000004,409.754,413.565,415.896,419.707,421.205,425.479,426.802,430.926,433.1,435.275,439.085,443.359,444.901,450.424,451.746,453.921,457.889,459.415,463.226,464.687,468.961,473.086,476.665,478.179,481.99,485.957,490.231,491.728,495.539,497.057,501.024,505.149,507.48,508.802,512.224,516.349,520.316,522.491,526.301,527.624,529.142,530.465,531.787,535.755,539.566,541.104,546.625,550.593,551.915,555.726,559.694,561.228,565.039,567.37,571.525,575.104,578.683,580.193,582.367,586.334" y="257.619" svg_rhmargin="590.145" style="fill:#171615;font-family:IDJKEN+AdvOT6e5d2ec0;font-size:7.47px;font-style:NORMAL;font-weight:normal;">value of ORs and 95%CIs with stata 12.0 software. For each study, the estimation of ORs and its 95% CI are plotted with a box and a horizontal line which cross the</text>
  <text x="85.039,86.362,92.504,96.314,100.439,101.761,105.729,109.539,111.871,115.29299999999999,117.011,118.334,119.656,123.624,127.499,129.516,131.184,135.308,139.276,143.08700000000002,144.789,146.112,149.922,153.89,158.014,160.189,164.15699999999998,165.878,170.002,171.87,173.588,175.762,179.73,183.541,185.266,189.541,190.863,194.674,198.485,202.221,203.917,205.24,206.562,210.53,214.341,216.049,221.57,225.538,226.86,230.671,234.63899999999998,236.343,240.154,242.485,246.61,250.189,253.768,257.578,261.157,262.874,265.048,269.015,272.82599999999996,274.552,275.874,282.016,285.827,289.951,291.274,295.241,299.052,301.383,304.805,306.581,307.903,309.226,313.193,317.00399999999996,318.712,320.034,323.613,325.288,329.562,331.893,336.018,340.292,344.416,346.747,348.922,350.244,354.369,358.336,362.147,363.46999999999997,365.254,367.428,371.553,373.247,375.421,379.389,383.2,384.868,388.993,393.117,399.73,404.938,406.567,410.146,411.909,416.034,417.902,419.563,420.885,424.853,428.664,430.05,434.018,438.292,442.102,446.376,448.078,451.657,453.831,457.798,462.072,463.395,467.205,470.784,472.801,474.551,478.675,482.643,486.45399999999995,488.156,493.679,497.489,498.812,502.936,506.904,509.078,510.776,513.107,516.917,521.263,523.594,527.405,530.984,534.794,538.762,540.936,544.515,546.234,548.409,552.377,556.188,557.913,561.881,565.85,571.992,576.267,580.078,582.409,584.164,588.288" y="266.576" svg_rhmargin="590.156" style="fill:#171615;font-family:IDJKEN+AdvOT6e5d2ec0;font-size:7.47px;font-style:NORMAL;font-weight:normal;">imaginary line. The length of the black line which crosses the imaginary line is proportional to the 95%CIs of included studies. The weight represents the number of</text>
  <text svg_rhmargin="352.653" x="85.039,88.85,90.173,93.983,100.125,103.936,107.903,110.077,113.65599999999999,115.254,117.428,121.396,125.206,127.38000000000001,128.973,133.097,134.42,137.842,141.65300000000002,143.258,145.589,146.912,150.491,154.30200000000002,155.843,158.017,162.142,163.723,165.897,169.865,173.67600000000002,175.288,179.413,182.835,186.645,188.977,192.787,194.11,195.43300000000002,197.0,200.422,204.233,205.555,209.523,213.333,215.35,216.954,221.624,225.435,229.245,233.37,235.701,239.975,241.297,245.265,249.39,251.024,253.198,257.323,258.904,261.078,265.046,268.85699999999997,270.412,274.222,278.19,279.513,282.232,285.811,290.085,294.053,297.863,300.194,304.005,308.279,309.923,312.098,315.908,319.487,321.661,323.246,327.519,331.33,334.909,338.72,342.994,344.56,348.685,352.653" y="275.533" style="fill:#171615;font-family:IDJKEN+AdvOT6e5d2ec0;font-size:7.47px;font-style:NORMAL;font-weight:normal;">elements that give rise to the overall value. According to the chi-squared test based on </text>
  <text x="354.272" y="275.533" svg_rhmargin="359.794" style="fill:#171615;font-family:IDJKGB+AdvOT1deab444.I;font-size:7.47px;font-style:NORMAL;font-weight:normal;">Q</text>
  <text svg_rhmargin="438.893" x="359.771,362.491,366.07,368.244,372.13,374.304,375.627,379.206,381.38,382.702,386.513,388.06,390.234,394.045,397.624,399.798,401.815,403.422,405.597,409.564,413.375,414.987,418.409,422.22,423.542,427.51,431.32099999999997,432.901,437.025,438.893" y="275.533" style="fill:#171615;font-family:IDJKEN+AdvOT6e5d2ec0;font-size:7.47px;font-style:NORMAL;font-weight:normal;">-statistic test, the value of </text>
  <text x="440.445" y="275.533" svg_rhmargin="442.074" style="fill:#171615;font-family:IDJKGB+AdvOT1deab444.I;font-size:7.47px;font-style:NORMAL;font-weight:normal;">I</text>
  <text svg_rhmargin="484.526" x="442.089,444.809,448.388,452.662,456.629,460.44,462.771,466.582,470.856,472.474,476.284,480.252,484.526" y="275.533" style="fill:#171615;font-family:IDJKEN+AdvOT6e5d2ec0;font-size:7.47px;font-style:NORMAL;font-weight:normal;">-squared and </text>
  <text svg_rhmargin="490.809" x="486.139,490.809" y="275.533" style="fill:#171615;font-family:IDJKGB+AdvOT1deab444.I;font-size:7.47px;font-style:NORMAL;font-weight:normal;">P </text>
  <text x="492.375,495.797,499.608,500.93,504.898,508.709,510.289,515.81,519.621,521.952,525.763,527.352,531.319,534.898,538.709,542.983,544.529,546.703,550.828,552.409,556.219,559.641,563.452,564.774,568.742,572.553,574.727,578.538,580.186,582.36,586.328" y="275.533" svg_rhmargin="590.139" style="fill:#171615;font-family:IDJKEN+AdvOT6e5d2ec0;font-size:7.47px;font-style:NORMAL;font-weight:normal;">value were used to evaluate the</text>
  <text svg_rhmargin="526.141" x="85.039,89.006,92.817,94.991,98.802,101.133,105.257,109.382,113.192,117.238,121.048,122.371,124.545,127.967,129.426,133.236,139.378,143.502,147.47,151.595,153.122,156.701,158.875,162.842,167.116,168.439,172.249,175.828,177.845,179.368,184.038,188.005,192.279,193.824,197.791,201.916,203.404,207.371,211.182,213.356,217.167,219.498,223.623,227.747,231.558,235.525,239.336,240.658,242.833,246.255,247.791,249.113,252.692,254.197,256.065,260.19,264.157,268.125,272.399,273.868,275.191,279.159,280.671,282.846,286.813,290.62399999999997,292.123,295.934,299.901,303.712,305.035,308.457,312.036,313.358,316.937,318.954,320.468,322.096,326.064,328.238,332.049,334.38,338.191,341.77,343.944,345.353,349.321,353.445,354.768,358.19,360.207,361.68,363.002,366.97,368.483,370.657,374.625,375.947,379.526,381.011,382.879,387.004,389.335,393.146,396.725,398.899,400.399,404.672,405.995,410.119,412.294,414.311,415.818,417.992,421.96,425.77099999999996,427.269,429.601,433.411,436.99,440.958,442.348,444.522,448.101,449.548,453.127,457.094,461.282,466.804,470.615,474.889,476.362,478.536,482.504,486.314,488.488,490.024,494.299,498.109,502.234,506.508,507.83,511.64099999999996,513.154,518.676,519.999,522.173,526.141" y="284.49" style="fill:#171615;font-family:IDJKEN+AdvOT6e5d2ec0;font-size:7.47px;font-style:NORMAL;font-weight:normal;">heterogeneity among studies. And no heterogeneity is found in the analysis. Interestingly, in this forest plot, the results showed that people with </text>
  <text svg_rhmargin="559.301" x="527.637,532.458,537.128,541.867,546.538,550.506,554.631,559.3009999999999" y="284.49" style="fill:#171615;font-family:IDJKGB+AdvOT1deab444.I;font-size:7.47px;font-style:NORMAL;font-weight:normal;">RASSF1A </text>
  <text x="560.746,565.02,567.351,571.475,577.695,581.82,583.994,587.805" y="284.49" svg_rhmargin="590.136" style="fill:#171615;font-family:IDJKEN+AdvOT6e5d2ec0;font-size:7.47px;font-style:NORMAL;font-weight:normal;">promoter</text>
  <text svg_rhmargin="259.878" x="85.038,89.005,92.428,96.701,100.512,102.843,108.985,112.796,114.97,118.937,122.452,123.775,127.585,129.76,131.082,135.207,139.17499999999998,142.294,146.261,150.072,154.346,157.487,161.298,164.403,165.726,169.85,175.372,179.256,181.587,184.698,187.03,188.352,191.931,195.667,198.757,200.932,204.899,208.71,212.678,215.821,217.995,221.962,226.087,229.666,233.477,236.626,242.148,243.47,245.644,249.612,253.736,257.704,259.878" y="293.448" style="fill:#171615;font-family:IDJKEN+AdvOT6e5d2ec0;font-size:7.47px;font-style:NORMAL;font-weight:normal;">hypermethylation had a lower risk than those without </text>
  <text x="263.053,267.873,272.543" y="293.448" svg_rhmargin="277.362" style="fill:#171615;font-family:IDJKGB+AdvOT1deab444.I;font-size:7.47px;font-style:NORMAL;font-weight:normal;">RAR</text>
  <text svg_rhmargin="281.595" x="277.396,281.595" y="293.448" style="fill:#171615;font-family:IDJKEL+AdvP4A5FDB;font-size:7.47px;font-style:NORMAL;font-weight:normal;">b </text>
  <text svg_rhmargin="488.183" x="284.709,288.983,291.314,295.439,301.659,305.783,307.958,311.768,314.099,317.192,321.159,324.582,328.926,332.737,335.068,341.21,345.021,347.195,351.162,354.585,355.907,359.718,361.892,363.214,367.339,371.307,374.447,376.621,380.746,383.914,387.493,391.461,393.329,395.197,399.007,401.338,404.492,406.36,408.692,412.816,418.95799999999997,422.066,424.24,428.365,432.332,436.457,440.424,444.23499999999996,447.406,451.216,455.027,458.995,462.805,466.616,468.947,470.964,474.106,479.628,484.604,488.183" y="293.448" style="fill:#171615;font-family:IDJKEN+AdvOT6e5d2ec0;font-size:7.47px;font-style:NORMAL;font-weight:normal;">promoter hypermethylation to suffer from tongue cancer. ORs </text>
  <text x="489.143" y="293.448" svg_rhmargin="494.201" style="fill:#171615;font-family:IDJKGC+AdvOTb0c9bf5d;font-size:7.47px;font-style:NORMAL;font-weight:normal;">=</text>
  <text svg_rhmargin="568.86" x="495.152,499.277,503.552,507.827,511.406,514.542,516.874,520.686,522.861,524.184,528.377,531.957,533.974,537.108,542.085,546.756,551.426,556.097,560.065,564.19,568.86" y="293.448" style="fill:#171615;font-family:IDJKEN+AdvOT6e5d2ec0;font-size:7.47px;font-style:NORMAL;font-weight:normal;">odds ratios, RASSF1A </text>
  <text x="569.817" y="293.448" svg_rhmargin="574.875" style="fill:#171615;font-family:IDJKGC+AdvOTb0c9bf5d;font-size:7.47px;font-style:NORMAL;font-weight:normal;">=</text>
  <text x="575.826,580.803,585.474" y="293.448" svg_rhmargin="590.144" style="fill:#171615;font-family:IDJKEN+AdvOT6e5d2ec0;font-size:7.47px;font-style:NORMAL;font-weight:normal;">RAS</text>
  <text svg_rhmargin="204.287" x="85.039,88.849,92.428,96.007,100.132,103.942,105.265,109.075,111.25,112.572,116.697,120.665,123.19,127.464,131.588,137.73,141.614,142.936,146.904,149.381,151.249,155.059,161.201,162.523,163.846,167.268,169.788,174.062,176.393,180.518,182.692,186.503,187.825,191.79299999999998,194.335,198.459,202.27,204.287" y="604.863" style="fill:#171615;font-family:IDJKEN+AdvOT6e5d2ec0;font-size:7.47px;font-style:NORMAL;font-weight:normal;">association domain family protein 1a. </text>
  <path d=" M 345.0329895019531 364.5920104980469 L 590.115966796875 364.5920104980469 L 590.115966796875 365.3290100097656 L 345.0329895019531 365.3290100097656 Z " style="fill:none;stroke:#000000;stroke-width:1.0;"/>
  <path d=" M 345.0329895019531 79.8239974975586 L 590.115966796875 79.8239974975586 L 590.115966796875 80.61772918701172 L 345.0329895019531 80.61772918701172 Z " style="fill:none;stroke:#000000;stroke-width:1.0;"/>
  <rect style="stroke:blue;stroke-width:0.3;" x="353.537" y="442.495" height="151.37" width="228.199" title="7"/>
  <text x="353.537" y="442.495" class="image" id="image.7.2" width="228" height="151">image.7.2.354_582.442_594</text>
  <text svg_rhmargin="374.7" x="345.033,349.389,351.175,355.531,359.805,362.368,366.493,368.559,372.683,374.7" y="604.863" style="fill:#171615;font-family:IDJKMK+AdvOTf94803d4;font-size:7.47px;font-style:NORMAL;font-weight:normal;">Figure 7. </text>
  <text svg_rhmargin="490.772" x="378.482,382.45,386.417,390.385,394.352,398.163,399.486,401.554,405.828,407.151,411.275,413.44899999999996,415.5,419.624,423.59200000000004,425.647,429.458,433.037,436.616,440.74,444.551,445.941,449.752,451.927,453.249,457.374,461.34200000000004,463.402,467.676,471.487,473.661,479.183,482.994,486.804,490.772" y="604.863" style="fill:#171615;font-family:IDJKEN+AdvOT6e5d2ec0;font-size:7.47px;font-style:NORMAL;font-weight:normal;">Funnel plot on association between </text>
  <text x="492.831,497.651,502.322" y="604.863" svg_rhmargin="507.141" style="fill:#171615;font-family:IDJKGB+AdvOT1deab444.I;font-size:7.47px;font-style:NORMAL;font-weight:normal;">RAR</text>
  <text svg_rhmargin="511.374" x="507.175,511.374" y="604.863" style="fill:#171615;font-family:IDJKEL+AdvP4A5FDB;font-size:7.47px;font-style:NORMAL;font-weight:normal;">b </text>
  <text x="513.411,517.685,520.016,524.14,530.361,534.485,536.659,540.47,542.801,544.873,548.841,552.263,556.537,560.348,562.679,568.821,572.631,574.806,578.773,582.195,583.518,587.328" y="604.863" svg_rhmargin="590.048" style="fill:#171615;font-family:IDJKEN+AdvOT6e5d2ec0;font-size:7.47px;font-style:NORMAL;font-weight:normal;">promoter hypermethyla-</text>
  <text x="345.034,347.208,348.531,352.655,356.623,358.356,362.167,366.134,370.408,372.075,376.199,378.594,382.405,383.72799999999995,385.397,389.208,393.019,396.987,400.797,404.608,406.939,408.696,411.028,412.35,415.929,419.66499999999996,421.338,423.124,426.934,431.059,435.026,437.201,439.532,443.656,444.979,446.734,450.156,453.735,455.408,459.218,463.029,466.608,470.419,472.436,474.172,478.139,482.107,488.249,492.059,494.233,498.201,501.623,502.946,506.756,508.93,510.253,514.477,518.4449999999999,520.09,523.512,527.0909999999999,528.82,534.962,538.773,540.947,544.915,548.337,549.659,553.47,555.644,556.967,561.091,565.059,566.844,568.8610000000001,570.6,574.179,576.196,580.007,582.024,586.149,588.016" y="613.8199999999999" svg_rhmargin="590.033" style="fill:#171615;font-family:IDJKEN+AdvOT6e5d2ec0;font-size:7.47px;font-style:NORMAL;font-weight:normal;">tion and oral cancer risk (control vs case, unmethylation vs methylation). s.e.of:</text>
  <text x="345.034,346.356,350.481,354.605,360.127,365.103,367.12,370.09,373.669,375.843,379.654,383.621,387.895,391.706,394.125,398.399,401.325,405.135,407.467,409.798,413.922,416.25300000000004,419.238,423.363,425.231,428.196,429.518,433.643,437.768,440.724,446.246,451.222,453.239,456.201,460.325,464.293,468.104,471.053,472.921,476.889,480.856,484.824,488.634,489.957,492.935,497.209,498.531,502.656,504.83,507.787,509.11,512.689,515.668,519.479,523.752,528.026,529.349,530.671,534.482,538.756,541.744,543.919,548.044,550.985,554.796,558.218,562.029,563.351,567.319,571.13,573.304,577.115,580.123,582.298,586.265" y="622.777" svg_rhmargin="590.076" style="fill:#171615;font-family:IDJKEN+AdvOT6e5d2ec0;font-size:7.47px;font-style:NORMAL;font-weight:normal;">logOR, standard error of log OR. The funnel plot is applied to evaluate the</text>
  <text x="345.034,349.308,353.275,357.549,358.872,360.194,364.005,367.815,369.99,371.312,375.436,379.404,382.278,386.552,387.875,391.685,395.264,398.095,401.905,408.047,412.172,416.139,420.264,423.095,424.417,428.385,432.195,433.582,437.549,441.823,445.634,449.908,452.743,456.322,458.496,462.463,466.737,468.06,471.87,475.449,477.466,480.293,484.418,488.385,492.19599999999997,495.033,499.001,503.126,505.457,506.779,510.201,514.326,518.293,520.543,524.354,525.677,528.48,532.29,535.869,537.192,540.771,543.559,545.89,549.701,554.047,556.378,560.188,563.767,567.578,571.545,573.72,577.299,580.123,582.297,586.265" y="631.735" svg_rhmargin="590.076" style="fill:#171615;font-family:IDJKEN+AdvOT6e5d2ec0;font-size:7.47px;font-style:NORMAL;font-weight:normal;">publication bias among included studies. The horizontal axis represents the</text>
  <text x="345.034,348.844,350.712,352.58,356.391,360.201,362.375,364.762,368.34,369.663,373.085,376.89599999999996,379.274,383.398,385.266,387.664,391.475,395.285,399.096,403.064,405.464,406.787,410.754,414.565,415.887,419.855,424.129,427.939,432.213,434.602,438.181,440.355,444.323,448.596,452.019,454.036,456.427,460.551,464.519,468.33,470.713,474.524,476.856,480.666,484.477,486.87,490.681,494.648,498.459,499.851,503.976,507.555,511.365,515.639,517.992,522.266,525.688,528.083,530.257,534.225,538.0360000000001,540.441,544.566,546.904,551.178,552.501,556.311,560.436,564.56,568.528,572.414,573.737,576.099,577.421,578.744,582.711,586.522" y="640.692" svg_rhmargin="590.101" style="fill:#171615;font-family:IDJKEN+AdvOT6e5d2ec0;font-size:7.47px;font-style:NORMAL;font-weight:normal;">effect size of each included study. The area enclosed by the 2 diagonal lines</text>
  <text x="345.034,348.613,349.935,356.077,360.045,361.367,365.178,367.352,371.163,374.742,377.346,379.521,383.488,387.299,389.875,393.999,398.124,404.736,409.944,411.573,415.152,417.169,419.749,421.378,423.246,425.815,427.989,431.957,435.768,438.344,442.618,446.742,448.916,451.496,452.818,456.397,458.923,460.245,464.369,468.18,471.991,474.165,477.976,482.25,484.886,489.011,492.978,495.152,497.698,499.872,503.84,507.65099999999995,510.227,514.352,518.476,525.089,530.297,531.926,535.505,537.522,540.102,544.376,548.343,552.617,553.94,555.262,559.073,562.884,565.058,566.38,570.505,574.473,577.063,581.337,582.659,586.47" y="649.649" svg_rhmargin="590.049" style="fill:#171615;font-family:IDJKEN+AdvOT6e5d2ec0;font-size:7.47px;font-style:NORMAL;font-weight:normal;">simulates the 95%CIs. If the dot is located out the 95%CIs, publication bias</text>
  <text x="345.034,351.176,354.986,358.408,362.097,365.908,369.487,370.809,374.388,376.56199999999995,380.238,384.048,390.19,394.315,398.282,402.407,406.088,409.667,411.841,415.809,420.083,421.405,425.216,428.876,430.893,434.546,436.175,440.14300000000003,443.787,447.598,451.872,456.146,457.469,459.643,460.965,465.09,469.057,471.074,474.796,476.971,480.938,484.749,488.328,492.13899999999995,495.828,500.102,504.226,506.401,509.98,513.685,515.859,519.827,523.637,525.8109999999999,529.501,531.832,535.643,539.917,542.248,546.059,549.638,553.448,557.416,559.59,563.287,564.61,568.577,572.388,573.71,577.678,581.952,585.762" y="658.663" svg_rhmargin="590.036" style="fill:#171615;font-family:IDJKEN+AdvOT6e5d2ec0;font-size:7.47px;font-style:NORMAL;font-weight:normal;">may exist among studies. In addition, these dots that represent included</text>
  <text x="345.034,348.613,350.787,354.755,359.028,360.351,364.162,367.741,369.693,373.272,377.239,381.364,385.331,386.654,390.928,392.822,397.096,400.907,402.799,406.378,409.8,415.942,422.084,425.894,428.069,430.4,431.823,435.634,439.444,440.767,442.65,446.461,450.429,454.703,456.596,460.87,464.681,466.574,470.847,472.17,475.814,477.988,480.319,481.642,485.916,489.883,492.058,495.868,500.142,502.061,506.185,510.153,512.038,516.312,520.436,522.611,526.579,528.478,532.057,533.38,537.719,541.529,545.108,546.959,551.083,552.951,554.895,557.07,561.037,564.8480000000001,566.743,570.554,574.522,578.646,582.614,583.936,587.747" y="667.62" svg_rhmargin="590.078" style="fill:#171615;font-family:IDJKEN+AdvOT6e5d2ec0;font-size:7.47px;font-style:NORMAL;font-weight:normal;">studies should be symmetrical and be distributed on both sides of the angular</text>
  <text x="345.034,349.308,350.63,354.209,358.02,361.83,364.005,368.129,370.46,372.477,374.058,379.58,383.547,384.87,388.68,392.648,394.239,398.513,402.324,408.466,412.59,416.557,420.136,422.311,424.642,428.453,430.627,434.544,438.123,439.647,443.615,447.74,449.285,453.559,457.527,461.801,463.123,464.446,468.256,472.067,474.241,475.564,479.688,483.656,485.282,489.556,490.879,494.689,498.26800000000003,499.795,501.117,504.696,506.258,508.126,512.25,516.218,520.185,524.459,526.476,528.083,532.05,534.382,538.506,544.648,546.224,548.398,552.366,556.177,557.732,559.6,563.567,567.535,571.502,575.313,576.636,578.196,582.47,583.793,587.917" y="676.577" svg_rhmargin="590.091" style="fill:#171615;font-family:IDJKEN+AdvOT6e5d2ec0;font-size:7.47px;font-style:NORMAL;font-weight:normal;">bisector, which demonstrates no publication bias is found. From the funnel plot</text>
  <text x="345.034,349.159,351.027,353.368,358.345,362.156,366.281" y="685.535" svg_rhmargin="370.405" style="fill:#171615;font-family:IDJKEN+AdvOT6e5d2ec0;font-size:7.47px;font-style:NORMAL;font-weight:normal;">of Begg</text>
  <text x="370.432" y="685.535" svg_rhmargin="372.449" style="fill:#171615;font-family:IDJKGD+AdvOT6e5d2ec0+20;font-size:7.47px;font-style:NORMAL;font-weight:normal;">’</text>
  <text svg_rhmargin="447.486" x="372.473,376.052,378.369,380.543,384.354,387.933,390.107,392.124,394.469,399.99,403.801,406.147,411.669,412.991,414.314,415.637,417.938,421.749,425.56,429.833,433.801,435.123,437.455,441.26599999999996,443.675,447.486" y="685.535" style="fill:#171615;font-family:IDJKEN+AdvOT6e5d2ec0;font-size:7.47px;font-style:NORMAL;font-weight:normal;">s test, we will acquire a </text>
  <text svg_rhmargin="454.472" x="449.802,454.47200000000004" y="685.535" style="fill:#171615;font-family:IDJKGB+AdvOT1deab444.I;font-size:7.47px;font-style:NORMAL;font-weight:normal;">P </text>
  <text svg_rhmargin="543.824" x="456.775,460.197,464.008,465.33,469.298,473.109,475.126,477.523,481.49,483.822,487.946,494.088,496.4,498.575,502.542,506.35299999999995,508.702,511.033,514.844,518.423,522.39,523.713,525.887,529.466,531.4830000000001,533.872,536.046,540.013,543.8240000000001" y="685.535" style="fill:#171615;font-family:IDJKEN+AdvOT6e5d2ec0;font-size:7.47px;font-style:NORMAL;font-weight:normal;">value. From the results, the </text>
  <text svg_rhmargin="550.793" x="546.123,550.793" y="685.535" style="fill:#171615;font-family:IDJKGB+AdvOT1deab444.I;font-size:7.47px;font-style:NORMAL;font-weight:normal;">P </text>
  <text x="553.153,556.575,560.387,561.71,565.678,569.489,571.806,575.931,577.7990000000001,580.14,582.314,586.282" y="685.535" svg_rhmargin="590.093" style="fill:#171615;font-family:IDJKEN+AdvOT6e5d2ec0;font-size:7.47px;font-style:NORMAL;font-weight:normal;">value of the</text>
  <text svg_rhmargin="392.696" x="345.034,346.902,350.869,354.837,358.804,362.615,363.938,365.895,370.17,371.492,375.617,377.791,379.784,385.306,389.117,392.696" y="694.492" style="fill:#171615;font-family:IDJKEN+AdvOT6e5d2ec0;font-size:7.47px;font-style:NORMAL;font-weight:normal;">funnel plot was </text>
  <text svg_rhmargin="400.45" x="394.697,400.45" y="694.492" style="fill:#171615;font-family:IDJKOM+AdvP4C4E51;font-size:7.47px;font-style:NORMAL;font-weight:normal;">&gt; </text>
  <text x="402.407,406.531,408.549,412.673,416.797,418.814,420.774,424.898,428.866,432.676,435.008,438.818,440.686,444.811,447.142,450.952,452.969,455.013,458.981,463.106,465.047,468.626,469.949,474.073,478.041" y="694.492" svg_rhmargin="479.364" style="fill:#171615;font-family:IDJKEN+AdvOT6e5d2ec0;font-size:7.47px;font-style:NORMAL;font-weight:normal;">0.05. Therefore, no signi</text>
  <text x="479.395" y="694.492" svg_rhmargin="482.66" style="fill:#171615;font-family:IDJKFB+AdvOT6e5d2ec0+fb;font-size:7.47px;font-style:NORMAL;font-weight:normal;">ﬁ</text>
  <text x="482.684,486.494,490.305,494.272,496.44599999999997,498.386,502.66,506.628,510.902,512.224,513.547,517.434,521.244,523.418,524.741,528.865,532.833,534.78,539.054,540.376,544.187,547.766,549.746,555.268,559.078,562.6569999999999,564.655,566.523,570.648,574.615,578.583,582.857,584.837,586.159" y="694.492" svg_rhmargin="590.127" style="fill:#171615;font-family:IDJKEN+AdvOT6e5d2ec0;font-size:7.47px;font-style:NORMAL;font-weight:normal;">cant publication bias was found in</text>
  <text x="345.034,347.209,351.176,352.499,356.07800000000003,358.526,362.337,366.304,370.115,371.438,374.86,378.439,379.761,383.34,385.35699999999997,387.834,391.802,395.926,400.051,402.46,407.983" y="703.449" svg_rhmargin="412.959" style="fill:#171615;font-family:IDJKEN+AdvOT6e5d2ec0;font-size:7.47px;font-style:NORMAL;font-weight:normal;">this analysis. Log OR</text>
  <text x="413.916" y="703.449" svg_rhmargin="418.974" style="fill:#171615;font-family:IDJKGC+AdvOTb0c9bf5d;font-size:7.47px;font-style:NORMAL;font-weight:normal;">=</text>
  <text x="419.926,423.505,425.679,429.49,433.457,437.731,441.542,443.873,448.147,450.651,454.462,456.793,459.124,463.249,465.58000000000004,467.998,472.122,473.99,476.445,477.767,481.892,486.017,488.406,492.531,496.805,501.078,504.657,507.113,509.445,513.255,515.43,516.752,520.945,522.9620000000001,525.367,530.343,535.013" y="703.449" svg_rhmargin="539.989" style="fill:#171615;font-family:IDJKEN+AdvOT6e5d2ec0;font-size:7.47px;font-style:NORMAL;font-weight:normal;">standard error of log odds ratio, RAR</text>
  <text svg_rhmargin="544.589" x="540.001,544.5889999999999" y="703.449" style="fill:#171615;font-family:IDJKFA+AdvP7DA6;font-size:7.47px;font-style:NORMAL;font-weight:normal;">b </text>
  <text x="545.557" y="703.449" svg_rhmargin="550.615" style="fill:#171615;font-family:IDJKGC+AdvOTb0c9bf5d;font-size:7.47px;font-style:NORMAL;font-weight:normal;">=</text>
  <text x="551.566,553.897,557.708,559.882,561.205,565.172,569.297,570.619,574.4300000000001,576.849,580.66,584.471,585.793" y="703.449" svg_rhmargin="590.067" style="fill:#171615;font-family:IDJKEN+AdvOT6e5d2ec0;font-size:7.47px;font-style:NORMAL;font-weight:normal;">retinoic acid</text>
  <text x="345.035,347.366,351.177,354.988,358.798,363.072,365.246,369.371,371.702,374.23,378.504,382.314,384.489,388.299,390.316,392.88,396.459,398.477,402.287,404.305,408.429,410.297,412.314,414.819,416.141,420.266,424.391,426.894,432.416" y="712.406" svg_rhmargin="437.392" style="fill:#171615;font-family:IDJKEN+AdvOT6e5d2ec0;font-size:7.47px;font-style:NORMAL;font-weight:normal;">receptor beta, s.e.of: log OR</text>
  <text x="438.351" y="712.406" svg_rhmargin="443.409" style="fill:#171615;font-family:IDJKGC+AdvOTb0c9bf5d;font-size:7.47px;font-style:NORMAL;font-weight:normal;">=</text>
  <text x="444.361,447.94,450.114,453.925,457.892,462.166,465.977,468.308,472.582,475.142,478.953,481.284,483.615,487.74,490.071,492.603,496.727,498.59499999999997,501.049,502.372,506.496,510.621,513.125,517.249,521.523,525.797,529.376,531.888,534.22,538.03,540.279,541.601,545.725" y="712.406" svg_rhmargin="547.742" style="fill:#171615;font-family:IDJKEN+AdvOT6e5d2ec0;font-size:7.47px;font-style:NORMAL;font-weight:normal;">standard error of log odds ratio.</text>
  <path d=" M 85.03900146484375 382.3940124511719 L 330.12200927734375 382.3940124511719 L 330.12200927734375 383.1310119628906 L 85.03900146484375 383.1310119628906 Z " style="fill:none;stroke:#000000;stroke-width:1.0;"/>
  <path d=" M 85.03900146484375 79.70999908447266 L 330.12200927734375 79.70999908447266 L 330.12200927734375 80.44702911376953 L 85.03900146484375 80.44702911376953 Z " style="fill:none;stroke:#000000;stroke-width:1.0;"/>
  <path d="M93.542 424.692 L321.562 424.692 L321.562 576.063 L93.542 576.063 " style="fill:none;stroke:#000000;stroke-width:1.0;"/>
  <rect style="stroke:blue;stroke-width:0.3;" x="93.543" y="424.693" height="151.37" width="228.199" title="7"/>
  <text x="93.543" y="424.693" class="image" id="image.7.3" width="228" height="151">image.7.3.94_322.425_576</text>
  <text svg_rhmargin="116.185" x="85.039,89.396,91.183,95.54,99.814,102.378,106.503,110.043,114.168,116.185" y="587.061" style="fill:#171615;font-family:IDJKMK+AdvOTf94803d4;font-size:7.47px;font-style:NORMAL;font-weight:normal;">Figure 6. </text>
  <text svg_rhmargin="238.035" x="119.905,123.873,127.84,131.808,135.775,139.586,140.90900000000002,144.451,148.725,150.048,154.172,156.346,159.871,163.995,167.963,171.436,175.246,178.825,182.404,186.529,190.34,191.73,195.541,197.715,199.037,203.162,207.13,210.664,214.939,218.75,220.924,226.446,230.256,234.067,238.035" y="587.061" style="fill:#171615;font-family:IDJKEN+AdvOT6e5d2ec0;font-size:7.47px;font-style:NORMAL;font-weight:normal;">Funnel plot on association between </text>
  <text svg_rhmargin="273.163" x="241.568,246.388,251.058,255.729,260.4,264.368,268.493,273.163" y="587.061" style="fill:#171615;font-family:IDJKGB+AdvOT1deab444.I;font-size:7.47px;font-style:NORMAL;font-weight:normal;">RASSF1A </text>
  <text x="276.66,280.934,283.266,287.39,293.61,297.735,299.909,303.72,306.05100000000004,309.54,313.508,316.93,321.204,325.014,327.345" y="587.061" svg_rhmargin="330.065" style="fill:#171615;font-family:IDJKEN+AdvOT6e5d2ec0;font-size:7.47px;font-style:NORMAL;font-weight:normal;">promoter hyper-</text>
  <text x="85.039,91.181,94.992,97.166,101.134,104.556,105.878,109.689,111.863,113.186,117.31,121.278,127.272,131.083,135.05,139.324,145.299,149.424,151.755,155.566,156.889,162.873,166.684,170.494,174.462,178.273,182.083,184.414,190.367,192.698,194.021,197.6,201.33599999999998,207.318,209.103,212.914,217.039,221.006,223.18,225.512,229.636,230.959,236.909,240.331,243.91,249.891,253.702,257.513,261.092,264.902,266.919,272.907,276.875,280.842,286.984,290.795,292.969,296.937,300.359,301.681,305.492,307.666,308.989,313.113,317.081,323.077,326.499" y="596.019" svg_rhmargin="330.078" style="fill:#171615;font-family:IDJKEN+AdvOT6e5d2ec0;font-size:7.47px;font-style:NORMAL;font-weight:normal;">methylation and oral cancer risk (control vs case, unmethylation vs</text>
  <text x="85.039,91.181,94.992,97.166,101.134,104.556,105.878,109.689,111.863,113.186,117.31,121.278,123.063,125.08,128.632,132.211,134.229,138.039,140.057,144.181,146.049,148.066,151.534,152.856,156.981,161.105,166.627,171.603,173.62,177.157,180.736,182.91,186.721,190.688,194.962,198.773,201.104,205.37800000000001,208.902,212.713,215.044,217.375,221.5,223.831,227.326,231.452,233.32,236.738,238.06,242.185,246.31,249.777,253.901,258.175,262.449,266.028,269.562,271.893,275.703,277.878,279.2,283.325,285.342,288.836,292.803,296.928,301.053,304.538,310.06,315.036,317.053,320.525,321.848,325.972" y="604.976" svg_rhmargin="330.096" style="fill:#171615;font-family:IDJKEN+AdvOT6e5d2ec0;font-size:7.47px;font-style:NORMAL;font-weight:normal;">methylation). s.e.of: logOR, standard error of log odds ratio. Log OR, log</text>
  <text x="85.039,89.164,93.438,97.712,101.291,104.824,107.155,110.966,113.14,114.463,118.587,120.604,124.098,128.223,132.19,136.001,139.461,141.329,145.357,149.325,153.292,157.103,158.42600000000002,161.91,166.184,167.506,171.631,173.805,177.273,178.595,182.174,185.663,189.63,193.209,197.02,201.294,204.824,206.998,211.123,214.574,218.385,221.964,225.543,229.427,233.006,236.585,240.028,242.202,246.17,249.981,253.52,257.794,261.762,266.036,267.358,268.681,272.491,276.302,278.476,279.799,283.923,287.891,291.388,295.662,296.985,300.795,304.374,307.885,311.696,317.838,321.962,325.93" y="613.933" svg_rhmargin="330.054" style="fill:#171615;font-family:IDJKEN+AdvOT6e5d2ec0;font-size:7.47px;font-style:NORMAL;font-weight:normal;">odds ratio. The funnel plot is used to assess the publication bias among</text>
  <text x="85.039,86.362,90.329,94.14,95.463,99.43,103.704,107.515,111.789,116.218,119.797,121.972,125.939,130.213,131.536,135.346,139.007,141.024,145.414,149.538,153.506,157.317,161.74,165.708,169.832,172.164,173.486,176.908,181.033,185.0,187.174,190.985,192.30800000000002,196.773,200.584,204.163,205.486,209.065,213.44,215.771,219.582,223.856,226.187,229.998,233.577,237.476,241.444,243.618,247.197,251.592,253.766,257.734,261.54499999999996,265.935,269.746,271.614,273.482,277.293,281.103,283.277,287.704,291.283,292.605,296.027,299.83799999999997,304.258,308.382,310.25,314.689,318.5,322.31,326.121" y="622.89" svg_rhmargin="330.089" style="fill:#171615;font-family:IDJKEN+AdvOT6e5d2ec0;font-size:7.47px;font-style:NORMAL;font-weight:normal;">included studies. The horizontal axis represents the effect size of each</text>
  <text x="85.039,86.362,90.329,94.14,95.463,99.43,103.704,107.515,111.789,114.12,117.699,119.874,123.841,128.115,131.537,133.554,135.832,139.956,143.924,147.735,150.004,153.815,156.146,159.957,163.768,166.048,169.859,173.826,177.637,178.959,183.084,186.663,190.473,194.747,197.057,201.331,204.753,207.035,209.209,213.176,216.987,219.279,223.404,225.629,229.903,231.226,235.037,239.161,243.285,247.253,251.139,252.46200000000002,254.711,256.033,257.356,261.323,265.134,268.713,270.98,274.559,275.882,282.024,285.991,287.314,291.124,293.299,297.109,300.688,303.009,305.183,309.151,312.962,315.198,319.322,323.447" y="631.847" svg_rhmargin="330.06" style="fill:#171615;font-family:IDJKEN+AdvOT6e5d2ec0;font-size:7.47px;font-style:NORMAL;font-weight:normal;">included study. The area enclosed by the 2 diagonal lines simulates the 95%</text>
  <text x="85.039,90.247,91.876,95.455,97.472,100.232,101.861,103.729,106.411,108.585,112.553,116.364,119.109,123.384,127.508,129.682,132.376,133.698,137.27700000000002,139.972,141.295,145.419,149.23,153.04,155.215,159.025,163.299,166.049,170.173,174.141,176.315,179.03,181.205,185.172,188.983,191.729,195.853,199.977,206.59,211.798,213.427,217.006,219.023,221.773,226.047,230.015,234.289,235.611,236.934,240.744,244.555,246.729,248.052,252.176,256.144,258.905,263.178,264.501,268.312,271.891,274.607,280.749,284.56,287.982,290.707,294.518,298.097,299.42,302.999,305.173,307.884,311.695,317.837,321.961,325.929" y="640.8050000000001" svg_rhmargin="330.053" style="fill:#171615;font-family:IDJKEN+AdvOT6e5d2ec0;font-size:7.47px;font-style:NORMAL;font-weight:normal;">CIs. If the dot is located out the 95%CIs, publication bias may exist among</text>
  <text x="85.039,88.618,90.793,94.76,99.034,100.357,104.167,107.746,109.76299999999999,113.27,114.899,118.867,122.341,126.151,130.425,134.699,136.022,138.196,139.519,143.643,147.611,149.628,153.122,155.297,159.264,163.075,166.654,170.465,173.984,178.258,182.382,184.556,188.13500000000002,191.614,193.789,197.756,201.567,203.741,207.203,209.535,213.345,217.619,219.95,223.761,227.34,231.151,235.118,237.292,240.82,242.142,246.11,249.92,251.243,255.211,259.484,263.295,267.569,271.092,274.671,276.845,280.813,285.086,286.409,290.22,293.79900000000004,297.282,300.861,304.828,308.953,312.92,314.243,318.517,321.999,326.272" y="649.819" svg_rhmargin="330.083" style="fill:#171615;font-family:IDJKEN+AdvOT6e5d2ec0;font-size:7.47px;font-style:NORMAL;font-weight:normal;">studies. In addition, these dots that represent included studies should be</text>
  <text x="85.039,88.618,92.04,98.182,104.324,108.135,110.309,112.64,113.963,117.862,121.672,122.99499999999999,125.572,129.382,133.35,137.624,140.255,144.528,148.339,150.969,155.243,156.565,160.144,162.319,164.65,165.972,170.246,174.214,176.388,180.199,184.473,187.136,191.261,195.22899999999998,197.851,202.125,206.249,208.423,212.391,215.028,218.607,219.929,224.203,228.014,231.59300000000002,234.245,238.37,240.238,242.806,244.98,248.948,252.75900000000001,255.391,259.202,263.169,267.294,271.261,272.584,276.394,278.725,281.354,285.628,286.951,290.595,294.405,298.216,300.39,304.515,306.846,308.863,311.456,316.978,320.945,322.34,326.151" y="658.7760000000001" svg_rhmargin="330.119" style="fill:#171615;font-family:IDJKEN+AdvOT6e5d2ec0;font-size:7.47px;font-style:NORMAL;font-weight:normal;">symmetrical and be distributed on both sides of the angular bisector, which</text>
  <text x="85.039,89.313,93.124,99.266,103.39,107.358,110.937,113.111,115.442,119.253,121.427,125.345,128.924,130.617,134.584,138.709,140.424,144.699,148.666,152.94,154.263,155.585,159.472,163.283,165.457,166.779,170.904,174.87199999999999,176.592,180.866,182.189,185.999,189.578,191.331,192.654,196.233,197.964,199.832,203.956,207.924,211.891,216.165,218.182,219.902,223.87,226.201,230.326,236.468,238.213,240.387,244.355,248.166,249.947,251.815,255.783,259.75,263.718,267.528,268.851,270.581,274.855,276.178,280.302,282.476,284.187,288.311,290.179,291.953,296.929,300.74,304.864" y="667.733" svg_rhmargin="308.988" style="fill:#171615;font-family:IDJKEN+AdvOT6e5d2ec0;font-size:7.47px;font-style:NORMAL;font-weight:normal;">demonstrates no publication bias is found. From the funnel plot of Begg</text>
  <text x="308.975" y="667.733" svg_rhmargin="310.992" style="fill:#171615;font-family:IDJKGD+AdvOT6e5d2ec0+20;font-size:7.47px;font-style:NORMAL;font-weight:normal;">’</text>
  <text x="311.016,314.595,316.345,318.519,322.33,325.909,328.083" y="667.733" svg_rhmargin="330.1" style="fill:#171615;font-family:IDJKEN+AdvOT6e5d2ec0;font-size:7.47px;font-style:NORMAL;font-weight:normal;">s test,</text>
  <text svg_rhmargin="136.072" x="85.039,90.561,94.37200000000001,96.037,101.559,102.881,104.204,105.52699999999999,107.205,111.015,114.826,119.1,123.067,124.39,126.721,130.532,132.261,136.072" y="676.69" style="fill:#171615;font-family:IDJKEN+AdvOT6e5d2ec0;font-size:7.47px;font-style:NORMAL;font-weight:normal;">we will acquire a </text>
  <text svg_rhmargin="142.377" x="137.707,142.37699999999998" y="676.69" style="fill:#171615;font-family:IDJKGB+AdvOT1deab444.I;font-size:7.47px;font-style:NORMAL;font-weight:normal;">P </text>
  <text svg_rhmargin="252.307" x="144.056,147.478,151.289,152.611,156.579,160.39,162.40699999999998,164.124,168.794,172.604,176.415,180.54,182.871,187.145,188.467,192.435,196.56,198.25,200.424,204.549,206.186,208.361,212.328,216.139,217.865,220.196,224.007,227.586,231.553,232.876,235.05,238.629,240.646,242.355,244.529,248.496,252.30700000000002" y="676.69" style="fill:#171615;font-family:IDJKEN+AdvOT6e5d2ec0;font-size:7.47px;font-style:NORMAL;font-weight:normal;">value. According to the results, the </text>
  <text svg_rhmargin="258.653" x="253.983,258.653" y="676.69" style="fill:#171615;font-family:IDJKGB+AdvOT1deab444.I;font-size:7.47px;font-style:NORMAL;font-weight:normal;">P </text>
  <text x="260.276,263.698,267.508,268.831,272.798,276.609,278.303,282.428,284.296,285.957,288.131,292.099,295.90999999999997,297.578,299.446,303.474,307.442,311.409,315.22,316.543,318.213,322.488,323.81,327.935" y="676.69" svg_rhmargin="330.109" style="fill:#171615;font-family:IDJKEN+AdvOT6e5d2ec0;font-size:7.47px;font-style:NORMAL;font-weight:normal;">value of the funnel plot</text>
  <text svg_rhmargin="97.951" x="85.039,90.561,94.372,97.951" y="685.647" style="fill:#171615;font-family:IDJKEN+AdvOT6e5d2ec0;font-size:7.47px;font-style:NORMAL;font-weight:normal;">was </text>
  <text svg_rhmargin="105.135" x="99.382,105.135" y="685.647" style="fill:#171615;font-family:IDJKOM+AdvP4C4E51;font-size:7.47px;font-style:NORMAL;font-weight:normal;">&gt; </text>
  <text x="106.581,110.706,112.723,116.848,121.037,123.054,124.495,128.62,132.588,136.555,140.134,142.15099999999998,143.6,147.567,151.692,153.124,156.703,158.025,162.15,166.117" y="685.647" svg_rhmargin="167.44" style="fill:#171615;font-family:IDJKEN+AdvOT6e5d2ec0;font-size:7.47px;font-style:NORMAL;font-weight:normal;">0.05. Thus, no signi</text>
  <text x="167.469" y="685.647" svg_rhmargin="170.734" style="fill:#171615;font-family:IDJKFB+AdvOT6e5d2ec0+fb;font-size:7.47px;font-style:NORMAL;font-weight:normal;">ﬁ</text>
  <text x="170.757,174.568,178.379,182.346,184.52,185.95,190.224,194.191,198.465,199.788,201.11,204.997,208.808,210.982,212.304,216.429,220.397,221.834,226.109,227.431,231.242,234.821,236.29,241.812,245.623,249.202,250.689,252.557,256.682,260.649,264.617,268.891,270.303,271.626,275.594,277.05,279.224,283.192,284.514,288.093,289.578,293.389,297.357,301.167,302.49,305.912,309.491,310.813,314.392,316.409,317.866,321.833,325.958" y="685.647" svg_rhmargin="330.082" style="fill:#171615;font-family:IDJKEN+AdvOT6e5d2ec0;font-size:7.47px;font-style:NORMAL;font-weight:normal;">cant publication bias was found in this analysis. Log</text>
  <text x="85.038,90.56" y="694.605" svg_rhmargin="95.536" style="fill:#171615;font-family:IDJKEN+AdvOT6e5d2ec0;font-size:7.47px;font-style:NORMAL;font-weight:normal;">OR</text>
  <text x="96.49" y="694.605" svg_rhmargin="101.548" style="fill:#171615;font-family:IDJKGC+AdvOTb0c9bf5d;font-size:7.47px;font-style:NORMAL;font-weight:normal;">=</text>
  <text x="102.5,106.079,108.253,112.063,116.031,120.305,124.115,126.447,130.721,134.245,138.056,140.387,142.718,146.842,149.173,152.726,156.85,158.718,162.25,163.573,167.697,171.822,175.346,179.47,183.744,188.018,191.597,195.13,197.462,201.272,203.447,204.769,208.894,210.911,214.405,219.381,224.051" y="694.605" svg_rhmargin="229.027" style="fill:#171615;font-family:IDJKEN+AdvOT6e5d2ec0;font-size:7.47px;font-style:NORMAL;font-weight:normal;">standard error of log odds ratio, RAR</text>
  <text x="229.094" y="694.605" svg_rhmargin="233.682" style="fill:#171615;font-family:IDJKFA+AdvP7DA6;font-size:7.47px;font-style:NORMAL;font-weight:normal;">b</text>
  <text x="234.593" y="694.605" svg_rhmargin="239.651" style="fill:#171615;font-family:IDJKGC+AdvOTb0c9bf5d;font-size:7.47px;font-style:NORMAL;font-weight:normal;">=</text>
  <text x="240.603,242.934,246.745,248.919,250.242,254.209,258.334,259.656,263.467,267.02,270.831,274.642,275.964,280.238,283.744,286.075,289.886,293.696,297.575,301.849,304.024,308.148,310.47900000000004,313.959,318.233,322.043,324.218,328.028" y="694.605" svg_rhmargin="330.045" style="fill:#171615;font-family:IDJKEN+AdvOT6e5d2ec0;font-size:7.47px;font-style:NORMAL;font-weight:normal;">retinoic acid receptor beta,</text>
  <text svg_rhmargin="99.117" x="85.039,90.561,95.538,99.11699999999999" y="703.619" style="fill:#171615;font-family:IDJKEN+AdvOT6e5d2ec0;font-size:7.47px;font-style:NORMAL;font-weight:normal;">ORs </text>
  <text x="100.062" y="703.619" svg_rhmargin="105.12" style="fill:#171615;font-family:IDJKGC+AdvOTb0c9bf5d;font-size:7.47px;font-style:NORMAL;font-weight:normal;">=</text>
  <text svg_rhmargin="177.162" x="106.072,110.196,114.47,118.744,122.323,124.156,126.487,130.298,132.472,133.794,137.988,141.567,143.584,145.414,150.39,155.06,159.73,164.4,168.367,172.492,177.16199999999998" y="703.619" style="fill:#171615;font-family:IDJKEN+AdvOT6e5d2ec0;font-size:7.47px;font-style:NORMAL;font-weight:normal;">odds ratios, RASSF1A </text>
  <text x="178.128" y="703.619" svg_rhmargin="183.186" style="fill:#171615;font-family:IDJKGC+AdvOTb0c9bf5d;font-size:7.47px;font-style:NORMAL;font-weight:normal;">=</text>
  <text x="184.138,189.114,193.784,198.45399999999998,200.294,204.105,207.684,211.263,215.387,219.198,220.52,224.331,226.505,227.828,231.952,235.92,237.765,242.04,246.164,252.306,256.117,257.439,261.40700000000004,263.276,265.144,268.955,275.097,276.419,277.742,281.16400000000004,283.004,287.278,289.609,293.734,295.908,299.718,301.041,305.009,306.87,310.994,314.805,316.822,318.661,322.24,324.257,328.068" y="703.619" svg_rhmargin="330.085" style="fill:#171615;font-family:IDJKEN+AdvOT6e5d2ec0;font-size:7.47px;font-style:NORMAL;font-weight:normal;">RAS association domain family protein 1a, s.e.</text>
  <text x="85.039,89.164,91.032,93.04899999999999,95.527,96.849,100.974,105.099,107.602,113.124" y="712.576" svg_rhmargin="118.1" style="fill:#171615;font-family:IDJKEN+AdvOT6e5d2ec0;font-size:7.47px;font-style:NORMAL;font-weight:normal;">of: log OR</text>
  <text x="119.055" y="712.576" svg_rhmargin="124.113" style="fill:#171615;font-family:IDJKGC+AdvOTb0c9bf5d;font-size:7.47px;font-style:NORMAL;font-weight:normal;">=</text>
  <text x="125.064,128.643,130.818,134.628,138.596,142.87,146.68,149.1,153.374,155.846,159.657,161.988,164.319,168.443,170.774,173.306,177.43,179.298,181.81,183.132,187.257,191.382,193.885,198.009,202.283,206.557,210.136,212.649,214.98,218.791,220.965,222.287,226.412" y="712.576" svg_rhmargin="228.429" style="fill:#171615;font-family:IDJKEN+AdvOT6e5d2ec0;font-size:7.47px;font-style:NORMAL;font-weight:normal;">standard error of log odds ratio.</text>
  <text x="85.039,92.26,96.325,100.557,103.18,107.245,109.56400000000001,112.195,116.259,117.67,119.822,122.456,129.007,133.072,137.631,139.042,143.106,144.517,148.749,152.814,155.45,157.355,161.754,166.154,170.553,174.953,176.858,179.43,183.829,188.229,190.381,194.78,199.179,517.041,522.931,528.821,534.711,536.863,543.414,547.973,550.874,552.285,556.685,560.917,563.3,567.532,571.597,573.008,575.16,579.224,583.624" y="9.870999999999981" svg_rhmargin="590.176" style="fill:#171615;font-family:IDJKEN+AdvOT6e5d2ec0;font-size:7.97px;font-style:NORMAL;font-weight:normal;">Wen et al. Medicine (2018) 97:11 www.md-journal.com</text>
  <text x="335.396" y="739.625" svg_rhmargin="339.796" style="fill:#171615;font-family:IDJKMK+AdvOTf94803d4;font-size:7.97px;font-style:NORMAL;font-weight:normal;">7</text>
 </g>
</svg>
