<?xml version="1.0" encoding="UTF-8"?>
<svg height="870.031005859375" width="672.0029907226562" xmlns="http://www.w3.org/2000/svg">
 <g style="fill:none;">
  <path d=" M 0.05999799817800522 826.072021484375 L 22.619997024536133 826.072021484375 L 22.619997024536133 826.35546875 L 0.05999799817800522 826.35546875 Z " style="fill:none;stroke:#000000;stroke-width:1.0;"/>
  <path d=" M 33.67599868774414 837.4110107421875 L 33.959449768066406 837.4110107421875 L 33.959449768066406 860.031005859375 L 33.67599868774414 860.031005859375 Z " style="fill:none;stroke:#000000;stroke-width:1.0;"/>
  <path d=" M 627.9869995117188 837.4110107421875 L 628.2703857421875 837.4110107421875 L 628.2703857421875 860.031005859375 L 627.9869995117188 860.031005859375 Z " style="fill:none;stroke:#000000;stroke-width:1.0;"/>
  <path d=" M 639.3259887695312 826.072021484375 L 662.0029907226562 826.072021484375 L 662.0029907226562 826.35546875 L 639.3259887695312 826.35546875 Z " style="fill:none;stroke:#000000;stroke-width:1.0;"/>
  <path d=" M 639.3259887695312 33.731998443603516 L 662.0029907226562 33.731998443603516 L 662.0029907226562 34.015480041503906 L 639.3259887695312 34.015480041503906 Z " style="fill:none;stroke:#000000;stroke-width:1.0;"/>
  <path d=" M 627.9869995117188 0.0 L 628.2703857421875 0.0 L 628.2703857421875 22.677000045776367 L 627.9869995117188 22.677000045776367 Z " style="fill:none;stroke:#000000;stroke-width:1.0;"/>
  <path d=" M 33.67599868774414 0.0 L 33.959449768066406 0.0 L 33.959449768066406 22.677000045776367 L 33.67599868774414 22.677000045776367 Z " style="fill:none;stroke:#000000;stroke-width:1.0;"/>
  <path d=" M 0.05999799817800522 33.731998443603516 L 22.619997024536133 33.731998443603516 L 22.619997024536133 34.015480041503906 L 0.05999799817800522 34.015480041503906 Z " style="fill:none;stroke:#000000;stroke-width:1.0;"/>
  <text x="71.887,75.339,80.288,82.709,86.62700000000001,88.498,90.918,95.867,97.738,100.625,105.575,109.49300000000001,111.345,114.797,117.217,120.67,125.619,127.445,132.395,135.282,137.14,140.027,144.976,149.926,154.409,159.358,163.276,165.145,168.032,172.982,180.352,185.301,188.753,190.6,193.487,196.374,201.323,206.273,210.756,215.705,219.62300000000002,221.497,224.384,229.333,236.703,241.653,245.105,247.007,251.491,254.943,256.758,261.708,264.595,269.544,273.463,276.915,278.811,282.263,284.684,287.571,291.48900000000003,293.324,296.211,301.16,308.531,313.48" y="468.12" svg_rhmargin="316.932" style="fill:#171615;font-family:IDJKGE+AdvOTbc475f09;font-size:8.97px;font-style:NORMAL;font-weight:normal;">role in the risk of tongue tumor (tongue tumor vs other site tumor</text>
  <text x="71.887,74.307,79.256,83.565,90.935,95.885,100.834,103.721,108.671,111.09200000000001,115.425,122.795" y="479.118" svg_rhmargin="129.233" style="fill:#171615;font-family:IDJKGE+AdvOTbc475f09;font-size:8.97px;font-style:NORMAL;font-weight:normal;">in mouth, OR</text>
  <text x="130.393" y="479.118" svg_rhmargin="136.463" style="fill:#171615;font-family:IDJKGC+AdvOTb0c9bf5d;font-size:8.97px;font-style:NORMAL;font-weight:normal;">=</text>
  <text svg_rhmargin="194.085" x="137.593,142.543,144.964,149.913,154.863,157.284,161.574,166.523,171.473,180.43900000000002,184.761,191.198,194.085" y="479.118" style="fill:#171615;font-family:IDJKGE+AdvOTbc475f09;font-size:8.97px;font-style:NORMAL;font-weight:normal;">0.65, 95% CI </text>
  <text x="195.25" y="479.118" svg_rhmargin="201.32" style="fill:#171615;font-family:IDJKGC+AdvOTb0c9bf5d;font-size:8.97px;font-style:NORMAL;font-weight:normal;">=</text>
  <text x="202.45,207.4,209.821,214.77" y="479.118" svg_rhmargin="219.719" style="fill:#171615;font-family:IDJKGE+AdvOTbc475f09;font-size:8.97px;font-style:NORMAL;font-weight:normal;">0.44</text>
  <text x="219.685" y="479.118" svg_rhmargin="224.168" style="fill:#171615;font-family:IDJKGF+AdvOTbc475f09+20;font-size:8.97px;font-style:NORMAL;font-weight:normal;">–</text>
  <text x="224.164,229.113,231.534,236.484,241.433,244.32,246.74099999999999,251.092,256.042,260.991,264.443,267.33,272.28,276.198,279.65,287.02,291.97,295.422,299.34,301.76099999999997,306.139,313.043" y="479.118" svg_rhmargin="316.961" style="fill:#171615;font-family:IDJKGE+AdvOTbc475f09;font-size:8.97px;font-style:NORMAL;font-weight:normal;">0.98). Furthermore, we</text>
  <text x="71.887,76.836,79.257,82.709,86.627,91.577,95.029,98.481,102.399,107.348,113.498,116.385,121.335,125.253,131.413,135.331,140.281,143.733,147.185,151.103,153.524,158.007,160.894,163.315,168.264,173.21300000000002,179.374,184.323,187.21,193.376,198.326,201.778,206.727,214.097,219.047,221.934,225.852,229.304,235.441,240.39,244.873,249.823,253.741,257.193,264.563,268.482,271.369,276.318,280.801,283.222,287.705,290.593,293.013,297.963,302.91200000000003,309.082,314.031" y="490.059" svg_rhmargin="316.918" style="fill:#171615;font-family:IDJKGE+AdvOTbc475f09;font-size:8.97px;font-style:NORMAL;font-weight:normal;">discussed the correlation of promoter hypermethylation of</text>
  <text svg_rhmargin="110.065" x="71.887,78.324,84.762,89.245,93.728,98.678,103.627,110.065" y="501.001" style="fill:#171615;font-family:IDJKGG+AdvOT638a931c.I;font-size:8.97px;font-style:NORMAL;font-weight:normal;">RASSF1A </text>
  <text x="113.045,119.95,122.37,125.258,130.207,133.228,136.68,144.05,148.999,153.949,156.37,161.319,165.802,168.829,173.313,178.262,183.211,186.234,191.183,194.635,197.056,202.006,206.955,209.376,214.325,218.808,221.779,224.2,229.149,232.154,237.103,240.555,245.038,247.459,250.465,254.383,258.866,263.816,267.734,271.652,275.104,277.525,280.567,285.051,287.471,294.842,297.263,299.684,304.167,307.619,310.04,314.523" y="501.001" svg_rhmargin="316.944" style="fill:#171615;font-family:IDJKGE+AdvOTbc475f09;font-size:8.97px;font-style:NORMAL;font-weight:normal;">with smoking and drinking in oral cancer. Similarly,</text>
  <text x="71.887,76.836,81.785,85.152,88.604,91.025,95.508,100.458" y="511.999" svg_rhmargin="102.879" style="fill:#171615;font-family:IDJKGE+AdvOTbc475f09;font-size:8.97px;font-style:NORMAL;font-weight:normal;">no signi</text>
  <text x="102.897" y="511.999" svg_rhmargin="107.846" style="fill:#171615;font-family:IDJKNL+AdvOTbc475f09+fb;font-size:8.97px;font-style:NORMAL;font-weight:normal;">ﬁ</text>
  <text svg_rhmargin="184.49" x="107.83,111.748,116.231,121.181,124.068,127.445,131.929,135.381,138.833,143.782,147.7,150.121,154.604,157.491,159.912,164.862,169.811,173.263,176.653,181.603,184.49" y="511.999" style="fill:#171615;font-family:IDJKGE+AdvOTbc475f09;font-size:8.97px;font-style:NORMAL;font-weight:normal;">cant associations of </text>
  <text svg_rhmargin="226.002" x="187.824,194.261,200.699,205.182,209.665,214.615,219.564,226.00199999999998" y="511.999" style="fill:#171615;font-family:IDJKGG+AdvOT638a931c.I;font-size:8.97px;font-style:NORMAL;font-weight:normal;">RASSF1A </text>
  <text x="229.38,234.329,237.781,242.73,250.101,255.05,257.937,261.856,265.308,268.666,273.616,278.099,283.048,286.967,290.419,297.789,301.707,304.594,309.544,314.027" y="511.999" svg_rhmargin="316.914" style="fill:#171615;font-family:IDJKGE+AdvOTbc475f09;font-size:8.97px;font-style:NORMAL;font-weight:normal;">promoter hypermethy-</text>
  <text x="71.887,74.307,78.791,81.678,84.099,89.048,93.997,96.434,103.338,105.759,108.646,113.595,116.049,119.501,126.872,131.821,136.77,139.191,144.141,148.624,151.084,155.567,160.517,165.466,167.865,172.814,176.266,178.687,183.636,188.586,191.007,195.956,200.439,202.9,205.32,210.269,212.65,217.6,221.052,225.535,227.956,230.395,234.313,238.796,243.745,247.664,251.582,255.034,257.493,264.397,268.315,271.767,275.685,278.129,281.016,285.965,290.915,295.864,300.813,303.234,305.68,312.118,314.539" y="522.941" svg_rhmargin="316.96" style="fill:#171615;font-family:IDJKGE+AdvOTbc475f09;font-size:8.97px;font-style:NORMAL;font-weight:normal;">lation with smoking and drinking in oral cancer were found. All</text>
  <text svg_rhmargin="222.229" x="71.887,75.339,79.257,82.709,87.658,90.079,92.966,96.41799999999999,99.438,106.342,110.261,113.713,117.631,120.641,124.093,129.042,133.992,140.896,145.845,148.817,151.237,156.186,159.191,165.073,169.557,174.506,176.927,180.845,183.852,188.80100000000002,191.789,194.681,199.63,202.051,206.534,208.95499999999998,211.972,216.921,219.808,222.22899999999998" y="467.041" style="fill:#171615;font-family:IDJKGE+AdvOTbc475f09;font-size:8.97px;font-style:NORMAL;font-weight:normal;">results were shown in Table 3 (Fig. 5). </text>
  <text x="331.938,336.887,339.308,344.258,346.679,351.156,356.94,361.889,367.018,371.501,373.644,376.531,378.674,383.157,385.3,388.187,392.67,395.715,400.665,405.793,410.743,412.886,417.369,421.852,423.995,428.478,431.431,436.38,441.509,446.92400000000004,449.969,455.384,460.513,465.929,468.072,470.215,475.164,480.113,483.0,485.143,490.371,495.5,498.496,503.912,506.055,511.004" y="467.041" svg_rhmargin="515.487" style="fill:#171615;font-family:IDJKNM+AdvOT01861455.I;font-size:8.97px;font-style:NORMAL;font-weight:normal;">3.4. Sensitivity analysis and publication bias</text>
  <text x="331.938,337.354,341.349,345.832" y="480.477" svg_rhmargin="350.315" style="fill:#171615;font-family:IDJKGE+AdvOTbc475f09;font-size:8.97px;font-style:NORMAL;font-weight:normal;">Begg</text>
  <text x="350.477" y="480.477" svg_rhmargin="352.898" style="fill:#171615;font-family:IDJKGF+AdvOTbc475f09+20;font-size:8.97px;font-style:NORMAL;font-weight:normal;">’</text>
  <text x="352.915,356.367,359.831,362.718,366.748,370.263,373.15,376.613,381.096,386.194,391.14300000000003,394.585,400.0,404.562,409.046,413.122" y="480.477" svg_rhmargin="416.574" style="fill:#171615;font-family:IDJKGE+AdvOTbc475f09;font-size:8.97px;font-style:NORMAL;font-weight:normal;">s test and Egger</text>
  <text x="416.638" y="480.477" svg_rhmargin="419.059" style="fill:#171615;font-family:IDJKGF+AdvOTbc475f09+20;font-size:8.97px;font-style:NORMAL;font-weight:normal;">’</text>
  <text x="419.133,422.585,425.993,428.88,432.909,436.424,439.311,442.774,449.747,453.665,457.23,461.148,464.601,469.084,471.63,474.051,477.526,481.445,486.484,491.529,496.479,501.507,505.532,508.419,512.448,517.3969999999999,520.839,523.726,528.675,532.178,537.127,542.212,545.727,549.645,553.21,557.693,561.611,565.116,568.003,573.053" y="480.477" svg_rhmargin="576.971" style="fill:#171615;font-family:IDJKGE+AdvOTbc475f09;font-size:8.97px;font-style:NORMAL;font-weight:normal;">s test were all conducted to observe the</text>
  <text svg_rhmargin="485.716" x="331.939,336.888,341.917,346.979,349.4,351.934,355.965,360.448,363.448,365.982,370.932,375.88100000000003,378.851,383.801,386.335,390.818,394.27,397.276,399.771,404.72,407.651,410.538,415.601,419.519,422.404,429.888,433.806,436.806,441.289,444.289,448.772,453.835,458.318,460.852,465.335,468.9,471.434,474.886,477.784,482.829,485.716" y="491.419" style="fill:#171615;font-family:IDJKGE+AdvOTbc475f09;font-size:8.97px;font-style:NORMAL;font-weight:normal;">publication bias in the meta-analysis of </text>
  <text x="488.582,495.11,501.639,506.122,510.695,515.645,520.73" y="491.419" svg_rhmargin="527.168" style="fill:#171615;font-family:IDJKGG+AdvOT638a931c.I;font-size:8.97px;font-style:NORMAL;font-weight:normal;">RASSF1A</text>
  <text svg_rhmargin="529.667" x="527.246,529.667" y="491.419" style="fill:#171615;font-family:IDJKGE+AdvOTbc475f09;font-size:8.97px;font-style:NORMAL;font-weight:normal;">, </text>
  <text x="532.575,539.094,545.614" y="491.419" svg_rhmargin="552.052" style="fill:#171615;font-family:IDJKGG+AdvOT638a931c.I;font-size:8.97px;font-style:NORMAL;font-weight:normal;">RAR</text>
  <text x="552.078" y="491.419" svg_rhmargin="557.117" style="fill:#171615;font-family:IDJKEL+AdvP4A5FDB;font-size:8.97px;font-style:NORMAL;font-weight:normal;">b</text>
  <text x="557.123,559.5440000000001,562.509,566.992,572.033" y="491.419" svg_rhmargin="576.982" style="fill:#171615;font-family:IDJKGE+AdvOTbc475f09;font-size:8.97px;font-style:NORMAL;font-weight:normal;">, and</text>
  <text svg_rhmargin="358.26" x="331.938,338.376,345.828,353.311,358.26" y="502.417" style="fill:#171615;font-family:IDJKGG+AdvOT638a931c.I;font-size:8.97px;font-style:NORMAL;font-weight:normal;">CDH1 </text>
  <text x="364.82,369.874,374.357,379.41,383.328,386.884,394.255,398.336,401.223,406.277,410.76,413.285,417.768,420.759,423.284,428.337,433.287,435.70799999999997,442.34,446.823,449.348,453.831,458.885" y="502.417" svg_rhmargin="461.306" style="fill:#171615;font-family:IDJKGE+AdvOTbc475f09;font-size:8.97px;font-style:NORMAL;font-weight:normal;">hypermethylation. Signi</text>
  <text x="461.368" y="502.417" svg_rhmargin="466.317" style="fill:#171615;font-family:IDJKNL+AdvOTbc475f09+fb;font-size:8.97px;font-style:NORMAL;font-weight:normal;">ﬁ</text>
  <text x="466.414,470.332,474.917,479.867,482.754,489.43,494.38,499.408,504.453,506.948,509.442,513.36,517.946,520.833,523.388,528.338,533.2869999999999,539.943,544.892,547.426,551.909,555.361,561.996,568.969,573.453" y="502.417" svg_rhmargin="576.905" style="fill:#171615;font-family:IDJKGE+AdvOTbc475f09;font-size:8.97px;font-style:NORMAL;font-weight:normal;">cant publication bias was</text>
  <text x="331.938,334.825,339.875,344.824,349.909,354.858,357.733" y="513.3589999999999" svg_rhmargin="360.62" style="fill:#171615;font-family:IDJKGE+AdvOTbc475f09;font-size:8.97px;font-style:NORMAL;font-weight:normal;">found (</text>
  <text svg_rhmargin="366.097" x="360.681,366.096" y="513.3589999999999" style="fill:#171615;font-family:IDJKGG+AdvOT638a931c.I;font-size:8.97px;font-style:NORMAL;font-weight:normal;">P </text>
  <text x="367.315" y="513.3589999999999" svg_rhmargin="374.219" style="fill:#171615;font-family:IDJKOM+AdvP4C4E51;font-size:8.97px;font-style:NORMAL;font-weight:normal;">&lt;</text>
  <text x="375.308" y="513.3589999999999" svg_rhmargin="377.729" style="fill:#171615;font-family:IDJKGG+AdvOT638a931c.I;font-size:8.97px;font-style:NORMAL;font-weight:normal;">.</text>
  <text svg_rhmargin="460.075" x="377.802,382.848,387.797,390.684,393.619,396.113,401.062,403.937,406.825,411.931,415.849,418.734,423.218,428.315,432.798,435.345,439.828,443.395,445.889,449.341,452.239,457.188,460.075" y="513.3589999999999" style="fill:#171615;font-family:IDJKGE+AdvOTbc475f09;font-size:8.97px;font-style:NORMAL;font-weight:normal;">05) in the analysis of </text>
  <text svg_rhmargin="489.335" x="463.012,469.547,476.918,484.386,489.33500000000004" y="513.3589999999999" style="fill:#171615;font-family:IDJKGG+AdvOT638a931c.I;font-size:8.97px;font-style:NORMAL;font-weight:normal;">CDH1 </text>
  <text x="492.265,496.748,501.789,505.708,509.273,512.787,517.271,522.368,525.255,528.15,535.521,539.545,542.55,547.499,552.074,554.568,559.052,562.052,564.546,569.496,574.58" y="513.3589999999999" svg_rhmargin="577.001" style="fill:#171615;font-family:IDJKGE+AdvOTbc475f09;font-size:8.97px;font-style:NORMAL;font-weight:normal;">aberrant methylation.</text>
  <text x="331.937,336.42,341.369,345.6,348.487,353.537,357.455,361.644,365.159,370.108,375.193,379.676,383.243,388.193,393.277,398.226,402.405,406.888,411.929,416.412,418.959,423.442,427.009,429.503,432.955,437.157,442.106,446.681,450.195,454.22,459.16900000000004,463.348,468.298,473.247,477.465,481.383,484.381,489.427,494.376,496.91,500.828,503.373,506.26,510.743,514.995,521.968,526.451,529.903,534.157,539.106,543.114,546.629,549.633,554.583,558.137,565.507,569.532,574.578" y="524.3" svg_rhmargin="576.999" style="fill:#171615;font-family:IDJKGE+AdvOTbc475f09;font-size:8.97px;font-style:NORMAL;font-weight:normal;">So the subgroup analysis based on ethnicity was performed.</text>
  <text x="331.937,340.903,345.94,349.468,353.386,358.482,362.965,366.959,370.488,372.909,375.703,378.591,383.697,387.615,390.387,393.915,397.909,401.438,406.387,408.921,411.808,415.26,418.105,423.15,426.037,428.82,431.707,436.813,441.762,446.788,450.783,453.204,455.998,460.948,463.482,468.527,471.414,474.866,477.711,481.239,486.189,491.273,498.246,503.195,505.957,508.961,513.911,518.485,521.372,524.211,527.098,532.124,536.042,538.87,546.24,551.286,554.814,557.7009999999999,560.54,565.489,570.518,573.522" y="535.298" svg_rhmargin="576.974" style="fill:#171615;font-family:IDJKGE+AdvOTbc475f09;font-size:8.97px;font-style:NORMAL;font-weight:normal;">Moreover, the results of funnel plots shown that the most dots</text>
  <path d=" M 71.88700103759766 766.885009765625 L 577.02099609375 766.885009765625 L 577.02099609375 767.6220092773438 L 71.88700103759766 767.6220092773438 Z " style="fill:none;stroke:#000000;stroke-width:1.0;"/>
  <path d=" M 71.88700103759766 384.2080078125 L 577.02099609375 384.2080078125 L 577.02099609375 384.94500732421875 L 71.88700103759766 384.94500732421875 Z " style="fill:none;stroke:#000000;stroke-width:1.0;"/>
  <rect style="stroke:blue;stroke-width:0.3;" x="139.691" y="40.202" height="303.08" width="369.704" title="6"/>
  <text x="139.691" y="40.202" class="image" id="image.6.1" width="369" height="303">image.6.1.140_509.40_343</text>
  <text svg_rhmargin="101.048" x="71.887,76.243,78.03,82.387,86.661,89.225,93.35,94.906,99.031,101.048" y="354.28" style="fill:#171615;font-family:IDJKMK+AdvOTf94803d4;font-size:7.47px;font-style:NORMAL;font-weight:normal;">Figure 4. </text>
  <text svg_rhmargin="213.996" x="104.825,108.793,112.917,115.248,119.059,122.638,124.81200000000001,126.366,130.64,131.963,136.087,138.261,139.802,143.926,147.89399999999998,149.439,153.249,156.828,160.407,164.532,168.342,169.665,173.475,175.65,176.972,181.097,185.065,186.626,190.9,194.711,196.885,202.407,206.218,210.028,213.99599999999998" y="354.28" style="fill:#171615;font-family:IDJKEN+AdvOT6e5d2ec0;font-size:7.47px;font-style:NORMAL;font-weight:normal;">Forest plot on association between </text>
  <text svg_rhmargin="235.146" x="215.546,220.755,225.814,231.022,235.147" y="354.28" style="fill:#171615;font-family:IDJKGB+AdvOT1deab444.I;font-size:7.47px;font-style:NORMAL;font-weight:normal;">CDH1 </text>
  <text x="236.749,241.023,243.354,247.478,253.62,257.745,259.919,263.73,266.06100000000004,267.587,271.555,274.977,279.322,283.132,285.464,291.605,295.416,297.59,301.558,304.98,306.302,310.113,312.287,313.61,317.734,321.702,323.255,327.066,331.033,335.307,336.86,340.985,343.316,347.127,348.45,350.012,353.823,357.634,361.601,365.412,369.222,371.553,373.084,375.416,376.738,380.317,384.053,386.07,387.654,391.778,395.746,399.55699999999996,401.089,402.957,407.082,409.413,413.224,416.803,418.977,420.533,424.807,426.13,430.254,432.428,433.968,435.291,438.87,440.375,444.648,446.98,450.79,456.312,460.28000000000003,461.86,464.034,468.159,469.684,473.494,477.305,478.627,482.438,486.405,487.728,491.538,493.713,497.524,499.104,502.91499999999996,504.433,508.708,512.832,516.957,518.279,522.09,526.364,527.903,531.714,535.293,537.467,538.789,544.931,548.821,550.995,554.806,559.08,560.612,564.034,567.845,569.167,573.135" y="354.28" svg_rhmargin="576.946" style="fill:#171615;font-family:IDJKEN+AdvOT6e5d2ec0;font-size:7.47px;font-style:NORMAL;font-weight:normal;">promoter hypermethylation and oral cancer risk. The forest plot is drawn to calculate a pooled estimated value</text>
  <text x="71.887,76.011,77.87899999999999,79.993,85.515,90.491,94.07,96.15,99.96,103.928,108.202,110.322,114.447,118.571,125.184,130.392,132.02,135.59900000000002,137.703,143.225,144.548,146.722,150.69,152.783,156.362,158.536,162.347,164.521,168.332,170.47,174.595,178.719,180.737,184.862,186.967,190.546,194.67,196.538,198.712,204.234,208.045,210.376,214.186,216.203,218.315,222.283,226.407,228.738,230.843,234.654,238.465,242.275,246.243,248.36,251.939,254.113,258.081,262.355,265.777,267.794,269.958,272.132,276.1,279.911,281.977,285.787,289.366,291.54,292.863,299.005,302.815,304.99,306.312,310.437,314.40500000000003,316.556,320.68,322.548,324.663,330.185,335.161,338.74,340.819,344.63,348.597,352.871,354.992,356.314,358.488,362.067,364.175,368.3,372.424,379.037,381.126,386.334,387.963,390.027,393.838,396.169,399.97999999999996,402.103,406.377,407.699,411.824,413.998,416.172,419.983,424.257,426.422,431.944,433.266,435.44,439.408,441.501,445.31199999999995,447.397,451.672,455.797,459.37600000000003,461.457,465.268,469.235,473.509,475.63,479.441,481.526,485.493,489.618,491.949,493.271,496.693,500.818,504.785,506.96,510.77,512.093,514.235,515.557,516.88,520.847,524.658,526.764,532.285,536.253,537.575,541.386,545.3539999999999,547.455,551.266,553.597,557.721,561.3,564.8789999999999,567.013,569.187,573.154" y="363.238" svg_rhmargin="576.965" style="fill:#171615;font-family:IDJKEN+AdvOT6e5d2ec0;font-size:7.47px;font-style:NORMAL;font-weight:normal;">of ORs and 95%CIs with stata 12.0 software. For each study, the estimation of ORs and its 95% CI are plotted with a box and a horizontal line which cross the</text>
  <text x="71.887,73.209,79.351,83.162,87.286,88.608,92.576,96.387,98.718,102.14,103.858,105.181,106.503,110.471,114.346,116.363,118.031,122.156,126.124,129.935,131.637,132.96,136.77,140.738,144.862,147.036,151.004,152.726,156.85,158.718,160.436,162.61,166.578,170.389,172.114,176.388,177.71,181.521,185.332,189.06799999999998,190.764,192.087,193.41,197.377,201.18800000000002,202.896,208.418,212.386,213.708,217.519,221.487,223.191,227.002,229.333,233.458,237.037,240.616,244.426,248.005,249.722,251.896,255.863,259.674,261.4,262.722,268.864,272.675,276.799,278.122,282.089,285.9,288.231,291.653,293.429,294.751,296.074,300.041,303.852,305.561,306.883,310.462,312.136,316.41,318.742,322.866,327.14,331.264,333.595,335.77,337.092,341.217,345.184,348.995,350.318,352.102,354.276,358.401,360.095,362.269,366.237,370.048,371.716,375.841,379.965,386.578,391.786,393.415,396.994,398.757,402.882,404.75,406.411,407.733,411.701,415.512,416.898,420.866,425.14,428.95,433.224,434.926,438.505,440.679,444.646,448.92,450.243,454.053,457.632,459.649,461.399,465.523,469.491,473.30199999999996,475.004,480.527,484.337,485.66,489.784,493.752,495.926,497.624,499.955,503.765,508.111,510.442,514.253,517.832,521.642,525.61,527.784,531.3629999999999,533.08,535.255,539.222,543.033,544.759,548.726,552.694,558.836,563.11,566.92,569.251,571.006,575.131" y="372.252" svg_rhmargin="576.999" style="fill:#171615;font-family:IDJKEN+AdvOT6e5d2ec0;font-size:7.47px;font-style:NORMAL;font-weight:normal;">imaginary line. The length of the black line which crosses the imaginary line is proportional to the 95%CIs of included studies. The weight represents the number of</text>
  <text svg_rhmargin="339.501" x="71.887,75.697,77.02,80.83,86.972,90.783,94.75,96.925,100.50399999999999,102.102,104.276,108.244,112.054,114.22800000000001,115.821,119.945,121.268,124.69,128.501,130.107,132.438,133.761,137.34,141.151,142.692,144.866,148.991,150.571,152.746,156.713,160.524,162.136,166.261,169.683,173.493,175.825,179.635,180.958,182.281,183.848,187.27,191.081,192.403,196.371,200.181,202.198,203.802,208.472,212.283,216.093,220.218,222.549,226.823,228.145,232.113,236.238,237.872,240.046,244.171,245.752,247.926,251.894,255.705,257.26,261.07,265.038,266.36,269.08,272.659,276.933,280.901,284.711,287.042,290.853,295.127,296.771,298.946,302.756,306.335,308.50899999999996,310.094,314.367,318.178,321.757,325.568,329.842,331.408,335.533,339.50100000000003" y="381.209" style="fill:#171615;font-family:IDJKEN+AdvOT6e5d2ec0;font-size:7.47px;font-style:NORMAL;font-weight:normal;">elements that give rise to the overall value. According to the chi-squared test based on </text>
  <text x="341.119" y="381.209" svg_rhmargin="346.641" style="fill:#171615;font-family:IDJKGB+AdvOT1deab444.I;font-size:7.47px;font-style:NORMAL;font-weight:normal;">Q</text>
  <text svg_rhmargin="425.74" x="346.619,349.338,352.917,355.092,358.977,361.151,362.474,366.053,368.227,369.55,373.361,374.907,377.081,380.892,384.471,386.645,388.662,390.27,392.444,396.411,400.222,401.834,405.256,409.067,410.39,414.357,418.168,419.748,423.872,425.74" y="381.209" style="fill:#171615;font-family:IDJKEN+AdvOT6e5d2ec0;font-size:7.47px;font-style:NORMAL;font-weight:normal;">-statistic test, the value of </text>
  <text x="427.292" y="381.209" svg_rhmargin="428.921" style="fill:#171615;font-family:IDJKGB+AdvOT1deab444.I;font-size:7.47px;font-style:NORMAL;font-weight:normal;">I</text>
  <text svg_rhmargin="471.373" x="428.936,431.656,435.235,439.509,443.476,447.287,449.618,453.429,457.703,459.321,463.132,467.099,471.373" y="381.209" style="fill:#171615;font-family:IDJKEN+AdvOT6e5d2ec0;font-size:7.47px;font-style:NORMAL;font-weight:normal;">-squared and </text>
  <text svg_rhmargin="477.656" x="472.986,477.656" y="381.209" style="fill:#171615;font-family:IDJKGB+AdvOT1deab444.I;font-size:7.47px;font-style:NORMAL;font-weight:normal;">P </text>
  <text x="479.222,482.644,486.455,487.777,491.745,495.556,497.136,502.658,506.469,508.8,512.611,514.2,518.167,521.746,525.557,529.831,531.377,533.551,537.676,539.257,543.067,546.489,550.3,551.622,555.59,559.401,561.575,565.3860000000001,567.034,569.208,573.176" y="381.209" svg_rhmargin="576.987" style="fill:#171615;font-family:IDJKEN+AdvOT6e5d2ec0;font-size:7.47px;font-style:NORMAL;font-weight:normal;">value were used to evaluate the</text>
  <text x="71.886,75.853,79.664,81.838,85.649,87.98,92.104,96.229,100.04,104.085,107.895,109.218,111.392,114.814,116.897,120.707,126.849,130.974,134.941,139.066,141.159,144.738,146.912,150.88,155.154,156.476,160.377,163.956,165.97299999999998,168.03,172.7,174.022,176.197,180.164,184.289,188.324,192.449,196.417,198.472,202.44,206.25,208.425,212.304,214.635,218.76,222.884,226.695,230.662,234.473,235.796,237.97,241.392,243.483,244.805,248.38400000000001,250.512,252.38,256.504,260.472,264.439,268.713,270.807,272.129,276.09700000000004,278.177,280.351,284.319,288.13,290.252,294.377,297.799,301.609,303.941,307.751,309.074,310.397,312.531,316.341,320.309,324.12,325.442,328.864,332.443,333.766,337.345,339.362,341.498,345.466,349.591,351.646,355.225,356.547,360.672,364.639" y="390.166" svg_rhmargin="365.962" style="fill:#171615;font-family:IDJKEN+AdvOT6e5d2ec0;font-size:7.47px;font-style:NORMAL;font-weight:normal;">heterogeneity among studies. Although heterogeneity is found in the overall analysis, no signi</text>
  <text x="366.007" y="390.166" svg_rhmargin="369.272" style="fill:#171615;font-family:IDJKFB+AdvOT6e5d2ec0+fb;font-size:7.47px;font-style:NORMAL;font-weight:normal;">ﬁ</text>
  <text x="369.296,373.106,376.917,380.884,383.058,385.169,389.136,392.947,395.121,398.932,401.263,405.387,409.512,413.322,417.29,421.1,422.423,424.597,428.019,430.179,431.501,435.08,437.152,439.02,443.145,447.112,451.08,455.354,457.504,458.826,462.79400000000004,464.874,467.048,471.016,474.827,476.949,480.528,484.496,488.77,492.894,495.225,499.35,503.317,507.591,510.311,514.121,518.089,521.899,523.222,526.644,530.223,531.546,535.224,537.2410000000001,539.306,540.935,544.9029999999999,547.016,549.19,553.158,556.969,559.034,560.902,565.027,567.424,571.235,574.814" y="390.166" svg_rhmargin="576.988" style="fill:#171615;font-family:IDJKEN+AdvOT6e5d2ec0;font-size:7.47px;font-style:NORMAL;font-weight:normal;">cant heterogeneity is found in the subgroup-analysis. In the forest</text>
  <text svg_rhmargin="233.287" x="71.887,76.16,77.483,81.607,83.782,85.79899999999999,90.027,92.202,96.169,99.97999999999999,104.257,106.588,110.398,113.977,117.945,119.268,121.442,125.02099999999999,129.257,133.53,137.341,143.483,147.681,151.648,155.227,157.401,159.733,163.543,165.717,169.528,173.802,178.066,180.24,184.208,188.019,190.193,194.45,198.723,202.534,206.658,210.932,212.255,216.066,220.3,225.822,227.145,229.319,233.28699999999998" y="399.123" style="fill:#171615;font-family:IDJKEN+AdvOT6e5d2ec0;font-size:7.47px;font-style:NORMAL;font-weight:normal;">plot, the results demonstrated that people with </text>
  <text svg_rhmargin="257.143" x="237.542,242.751,247.81,253.019,257.144" y="399.123" style="fill:#171615;font-family:IDJKGB+AdvOT1deab444.I;font-size:7.47px;font-style:NORMAL;font-weight:normal;">CDH1 </text>
  <text svg_rhmargin="519.469" x="261.41,265.684,268.015,272.14,278.282,282.406,284.58,288.391,290.72200000000004,295.027,298.994,302.416,306.69,310.501,312.832,318.974,322.784,324.959,328.926,332.348,333.671,337.481,339.656,340.978,345.103,349.071,353.359,358.881,362.691,365.093,368.904,373.087,377.211,381.336,383.353,387.542,391.667,395.876,398.051,399.373,405.515,409.326,412.90500000000003,417.135,421.103,422.425,426.55,430.517,434.328,436.659,440.945,443.276,444.598,448.177,451.913,456.138,458.312,462.28,466.09,470.058,474.335,476.51,480.477,484.602,488.181,491.99199999999996,496.217,501.739,503.061,505.236,509.203,513.328,517.295,519.4689999999999" y="399.123" style="fill:#171615;font-family:IDJKEN+AdvOT6e5d2ec0;font-size:7.47px;font-style:NORMAL;font-weight:normal;">promoter hypermethylation were 13.46 times higher risk than those without </text>
  <text svg_rhmargin="543.384" x="523.784,528.993,534.052,539.26,543.385" y="399.123" style="fill:#171615;font-family:IDJKGB+AdvOT1deab444.I;font-size:7.47px;font-style:NORMAL;font-weight:normal;">CDH1 </text>
  <text x="547.595,551.87,554.202,558.327,564.547,568.672,570.847,574.659" y="399.123" svg_rhmargin="576.99" style="fill:#171615;font-family:IDJKEN+AdvOT6e5d2ec0;font-size:7.47px;font-style:NORMAL;font-weight:normal;">promoter</text>
  <text svg_rhmargin="234.059" x="71.887,75.855,79.277,83.551,87.361,89.693,95.834,99.645,101.819,105.787,109.302,110.624,114.435,116.609,117.932,122.056,126.024,128.519,130.693,134.818,137.306,140.885,144.852,146.72,148.588,152.399,154.73,157.26,159.128,161.459,165.584,171.726,174.267,178.393,180.724,184.534,185.857,188.327,192.138,195.948,199.916,203.727,207.537,209.868,211.885,214.461,219.668,224.727,229.935,234.06" y="408.08" style="fill:#171615;font-family:IDJKEN+AdvOT6e5d2ec0;font-size:7.47px;font-style:NORMAL;font-weight:normal;">hypermethylation to suffer from oral cancer. CDH1 </text>
  <text x="234.992" y="408.08" svg_rhmargin="240.05" style="fill:#171615;font-family:IDJKGC+AdvOTb0c9bf5d;font-size:7.47px;font-style:NORMAL;font-weight:normal;">=</text>
  <text svg_rhmargin="294.023" x="241.002,245.358,248.078,251.888,255.699,260.049,264.016,267.827,270.158,271.481,275.448,277.465,279.946,285.468,290.444,294.023" y="408.08" style="fill:#171615;font-family:IDJKEN+AdvOT6e5d2ec0;font-size:7.47px;font-style:NORMAL;font-weight:normal;">E-cadherin, ORs </text>
  <text x="295.03" y="408.08" svg_rhmargin="300.088" style="fill:#171615;font-family:IDJKGC+AdvOTb0c9bf5d;font-size:7.47px;font-style:NORMAL;font-weight:normal;">=</text>
  <text x="300.982,305.108,309.382,313.657,317.236,319.805,322.137,325.949,328.124,329.447,333.572,337.152" y="408.08" svg_rhmargin="339.169" style="fill:#171615;font-family:IDJKEN+AdvOT6e5d2ec0;font-size:7.47px;font-style:NORMAL;font-weight:normal;">odds ratios.</text>
  <path d=" M 71.88700103759766 204.71800231933594 L 576.9639892578125 204.71800231933594 L 576.9639892578125 205.2282257080078 L 71.88700103759766 205.2282257080078 Z " style="fill:none;stroke:#000000;stroke-width:1.0;"/>
  <path d=" M 71.88700103759766 94.2239990234375 L 576.9639892578125 94.2239990234375 L 576.9639892578125 94.73424530029297 L 71.88700103759766 94.73424530029297 Z " style="fill:none;stroke:#000000;stroke-width:1.0;"/>
  <path d=" M 205.6820068359375 192.24600219726562 L 296.843994140625 192.24600219726562 L 296.843994140625 192.75624084472656 L 205.6820068359375 192.75624084472656 Z " style="fill:none;stroke:#000000;stroke-width:1.0;"/>
  <path d=" M 323.8869934082031 192.24600219726562 L 394.29998779296875 192.24600219726562 L 394.29998779296875 192.75624084472656 L 323.8869934082031 192.75624084472656 Z " style="fill:none;stroke:#000000;stroke-width:1.0;"/>
  <path d=" M 421.3420104980469 192.24600219726562 L 485.00799560546875 192.24600219726562 L 485.00799560546875 192.75624084472656 L 421.3420104980469 192.75624084472656 Z " style="fill:none;stroke:#000000;stroke-width:1.0;"/>
  <path d=" M 512.1069946289062 192.75599670410156 L 576.9639892578125 192.75599670410156 L 576.9639892578125 192.24600219726562 L 512.1069946289062 192.24600219726562" style="fill:none;stroke:#000000;stroke-width:1.0;"/>
  <path d=" M 71.88700103759766 179.37600708007812 L 174.04800415039062 179.37600708007812 L 174.04800415039062 179.88623046875 L 71.88700103759766 179.88623046875 Z " style="fill:none;stroke:#000000;stroke-width:1.0;"/>
  <path d=" M 147.0050048828125 179.37600708007812 L 205.6820068359375 179.37600708007812 L 205.6820068359375 179.88623046875 L 147.0050048828125 179.88623046875 Z " style="fill:none;stroke:#000000;stroke-width:1.0;"/>
  <path d=" M 256.1390075683594 179.37600708007812 L 178.6400146484375 179.37600708007812 L 178.6400146484375 179.88600158691406 L 256.1390075683594 179.88600158691406" style="fill:none;stroke:#000000;stroke-width:1.0;"/>
  <path d=" M 229.0959930419922 179.37600708007812 L 323.8869934082031 179.37600708007812 L 323.8869934082031 179.88623046875 L 229.0959930419922 179.88623046875 Z " style="fill:none;stroke:#000000;stroke-width:1.0;"/>
  <path d=" M 296.843994140625 179.37600708007812 L 374.51300048828125 179.37600708007812 L 374.51300048828125 179.88623046875 L 296.843994140625 179.88623046875 Z " style="fill:none;stroke:#000000;stroke-width:1.0;"/>
  <path d=" M 347.47100830078125 179.37600708007812 L 421.3420104980469 179.37600708007812 L 421.3420104980469 179.88623046875 L 347.47100830078125 179.88623046875 Z " style="fill:none;stroke:#000000;stroke-width:1.0;"/>
  <path d=" M 394.29901123046875 179.37600708007812 L 467.8860168457031 179.37600708007812 L 467.8860168457031 179.88623046875 L 394.29901123046875 179.88623046875 Z " style="fill:none;stroke:#000000;stroke-width:1.0;"/>
  <path d=" M 440.7869873046875 179.37600708007812 L 512.1069946289062 179.37600708007812 L 512.1069946289062 179.88623046875 L 440.7869873046875 179.88623046875 Z " style="fill:none;stroke:#000000;stroke-width:1.0;"/>
  <path d=" M 485.00799560546875 179.37600708007812 L 561.14697265625 179.37600708007812 L 561.14697265625 179.88623046875 L 485.00799560546875 179.88623046875 Z " style="fill:none;stroke:#000000;stroke-width:1.0;"/>
  <path d=" M 534.0469970703125 179.37600708007812 L 576.9639892578125 179.37600708007812 L 576.9639892578125 179.88623046875 L 534.0469970703125 179.88623046875 Z " style="fill:none;stroke:#000000;stroke-width:1.0;"/>
  <path d=" M 71.88700103759766 217.87100219726562 L 112.98899841308594 217.87100219726562 L 112.98899841308594 229.8330078125 L 71.88700103759766 229.8330078125 Z " style="fill:none;stroke:#000000;stroke-width:1.0;"/>
  <path d=" M 71.88700103759766 229.66299438476562 L 576.9639892578125 229.66299438476562 L 576.9639892578125 230.1732177734375 L 71.88700103759766 230.1732177734375 Z " style="fill:none;stroke:#000000;stroke-width:1.0;"/>
  <text x="74.891,80.614,86.504,92.641,94.96,100.93799999999999,103.52" y="579.181" svg_rhmargin="109.992" style="fill:#ffffff;font-family:IDJKEP+AdvOT91f5f621.B;font-size:7.97px;font-style:NORMAL;font-weight:normal;">Table 3</text>
  <text svg_rhmargin="162.66" x="71.887,78.024,82.67,87.229,91.876,94.61,96.602,99.336,103.895,106.629,108.621,112.59,117.149,119.847,124.406,129.053,133.612,135.604,139.669,143.901,148.363,152.595,155.28,160.094,162.66" y="591.2" style="fill:#171615;font-family:IDJKEM+AdvOT34fe1490.B;font-size:7.97px;font-style:NORMAL;font-weight:normal;">Quantitative analyses of </text>
  <text svg_rhmargin="201.102" x="165.26,170.982,176.378,181.519,186.66,191.306,195.706,201.10199999999998" y="591.2" style="fill:#171615;font-family:IDJLGO+AdvOT6601a1b9.BI;font-size:7.97px;font-style:NORMAL;font-weight:normal;">RASSF1A </text>
  <text x="203.698,208.512,211.58,216.394,223.528,228.342,231.075,235.634,238.702,241.284,245.93,249.995,254.809,259.368,262.436,269.57,274.129,276.862,281.421,285.485,287.478,292.037,294.771,296.763,301.577,306.224,308.859,313.418,318.064,322.87800000000004,325.47,330.029,332.021,334.014,338.66,340.653,345.212,350.026,354.84,359.399,362.133,366.779,371.502,373.495,378.309,383.123,385.115,389.674,394.233,396.226,398.827,402.892,407.451,410.52,412.512,417.071,421.885,423.878,428.437,432.66900000000004,435.28,440.094,442.65999999999997,445.314,450.128,453.197,457.756,459.74899999999997,462.378,466.937,471.496,476.143,480.702,485.261,488.329" y="591.2" svg_rhmargin="490.481" style="fill:#171615;font-family:IDJKEM+AdvOT34fe1490.B;font-size:7.97px;font-style:NORMAL;font-weight:normal;">promoter hypermethylation and clinicopathological variables of oral cancer.</text>
  <text x="219.232,223.049,226.7,230.183,232.50199999999998,235.105,238.923,241.242,243.892,247.71,251.193,254.676,258.494,262.144,264.049,267.867,270.186,272.091,275.908,279.894,283.377,337.434,341.833,345.484,347.803,351.453,354.02,357.837,361.822,365.473,369.458,373.108,375.013,377.332,380.815,435.227,439.627,443.277,447.262" y="604.239" svg_rhmargin="451.247" style="fill:#171615;font-family:IDJLFL+AdvOT9d0303c0.B;font-size:7.97px;font-style:NORMAL;font-weight:normal;">Test of associations Heterogeneity Begg</text>
  <text x="451.219" y="604.239" svg_rhmargin="453.212" style="fill:#171615;font-family:IDJNLE+AdvOT9d0303c0.B+20;font-size:7.97px;font-style:NORMAL;font-weight:normal;">’</text>
  <text x="453.204,456.687,459.327,461.646,465.296,468.779,471.098,525.601,529.418,533.403,537.388,541.039" y="604.239" svg_rhmargin="543.605" style="fill:#171615;font-family:IDJLFL+AdvOT9d0303c0.B;font-size:7.97px;font-style:NORMAL;font-weight:normal;">s test Egger</text>
  <text x="543.573" y="604.239" svg_rhmargin="545.566" style="fill:#171615;font-family:IDJNLE+AdvOT9d0303c0.B+20;font-size:7.97px;font-style:NORMAL;font-weight:normal;">’</text>
  <text x="545.557,549.04,551.68,553.999,557.649,561.132" y="604.239" svg_rhmargin="563.451" style="fill:#171615;font-family:IDJLFL+AdvOT9d0303c0.B;font-size:7.97px;font-style:NORMAL;font-weight:normal;">s test</text>
  <text svg_rhmargin="286.51" x="71.887,75.951,79.769,82.335,84.24,88.058,92.043,93.948,97.598,101.081,174.046,178.605,212.994,217.394,221.793,266.512,270.33,274.148,280.285,284.517,286.51" y="616.202" style="fill:#171615;font-family:IDJLFL+AdvOT9d0303c0.B;font-size:7.97px;font-style:NORMAL;font-weight:normal;">Variables N OR 95%CI </text>
  <text x="333.242" y="616.202" svg_rhmargin="335.235" style="fill:#171615;font-family:IDJLIA+AdvOT1ae6bdaa.BI;font-size:7.97px;font-style:NORMAL;font-weight:normal;">I</text>
  <text svg_rhmargin="338.088" x="335.225,338.088" y="616.202" style="fill:#171615;font-family:IDJLFL+AdvOT9d0303c0.B;font-size:5.31px;font-style:NORMAL;font-weight:normal;">2 </text>
  <text x="382.394,386.459,429.165,432.983,474.406,478.471,521.915,524.2339999999999,567.043" y="616.202" svg_rhmargin="571.108" style="fill:#171615;font-family:IDJLIA+AdvOT1ae6bdaa.BI;font-size:7.97px;font-style:NORMAL;font-weight:normal;">P Z P t P</text>
  <text x="71.886,75.871,79.856,83.674,87.491,90.807,94.625" y="630.545" svg_rhmargin="98.61" style="fill:#171615;font-family:IDJLGL+AdvOTcb6dfb9e;font-size:7.97px;font-style:NORMAL;font-weight:normal;">RASSF1A</text>
  <text x="79.822,83.305,87.538,92.933,95.5,98.568,100.473,103.789,107.272,110.58800000000001,174.441,178.25900000000001,210.725,214.543,216.448,220.265,224.083,256.136,259.954,261.859,265.676" y="640.523" svg_rhmargin="269.494" style="fill:#171615;font-family:IDJLGL+AdvOTcb6dfb9e;font-size:7.97px;font-style:NORMAL;font-weight:normal;">TNM-stage 3 1.89 0.66</text>
  <text x="269.461" y="640.523" svg_rhmargin="273.446" style="fill:#171615;font-family:IDJLGM+AdvOTcb6dfb9e+20;font-size:7.97px;font-style:NORMAL;font-weight:normal;">–</text>
  <text x="273.429,277.247,279.152,282.969,286.787,330.916,334.733,336.638,340.456,344.274,377.744,379.649,383.466,387.284,391.102,427.463,431.281,433.186,437.004,440.822,467.885,471.703,473.608,477.425,481.243,519.475,523.293,525.198,529.016,532.834,562.392,564.297,568.114,571.932" y="640.523" svg_rhmargin="575.75" style="fill:#171615;font-family:IDJLGL+AdvOTcb6dfb9e;font-size:7.97px;font-style:NORMAL;font-weight:normal;">5.39 0.00 .816 0.00 1.00 0.57 .671</text>
  <text x="79.822,83.639,89.035,92.351,95.587,96.997,100.48,103.96300000000001,174.441,178.25900000000001,210.725,214.543,216.448,220.265,224.083,256.136,259.954,261.859,265.676" y="650.501" svg_rhmargin="269.494" style="fill:#171615;font-family:IDJLGL+AdvOTcb6dfb9e;font-size:7.97px;font-style:NORMAL;font-weight:normal;">Smoking 4 0.81 0.46</text>
  <text x="269.46" y="650.501" svg_rhmargin="273.445" style="fill:#171615;font-family:IDJLGM+AdvOTcb6dfb9e+20;font-size:7.97px;font-style:NORMAL;font-weight:normal;">–</text>
  <text svg_rhmargin="391.101" x="273.428,277.246,279.151,282.968,286.786,330.915,334.733,336.637,340.455,344.27299999999997,377.743,379.648,383.465,387.283,391.101" y="650.501" style="fill:#171615;font-family:IDJLGL+AdvOTcb6dfb9e;font-size:7.97px;font-style:NORMAL;font-weight:normal;">1.41 0.00 .478 </text>
  <text x="421.341" y="650.501" svg_rhmargin="427.478" style="fill:#171615;font-family:IDJLIB+AdvP4C4E74;font-size:7.97px;font-style:NORMAL;font-weight:normal;">?</text>
  <text svg_rhmargin="481.243" x="427.463,431.281,433.186,437.004,440.822,467.885,471.703,473.608,477.425,481.243" y="650.501" style="fill:#171615;font-family:IDJLGL+AdvOTcb6dfb9e;font-size:7.97px;font-style:NORMAL;font-weight:normal;">0.34 1.00 </text>
  <text x="513.354" y="650.501" svg_rhmargin="519.491" style="fill:#171615;font-family:IDJLIB+AdvP4C4E74;font-size:7.97px;font-style:NORMAL;font-weight:normal;">?</text>
  <text x="519.476,523.294,525.199,529.017,532.835,562.393,564.298,568.115" y="650.501" svg_rhmargin="571.933" style="fill:#171615;font-family:IDJLGL+AdvOTcb6dfb9e;font-size:7.97px;font-style:NORMAL;font-weight:normal;">0.17 .88</text>
  <text x="79.821,84.053,86.205,87.616,91.099,94.335,95.745,99.228,102.711,174.441,178.25900000000001,210.724,214.542,216.447,220.265,224.083,256.135,259.953,261.858,265.676" y="660.4780000000001" svg_rhmargin="269.494" style="fill:#171615;font-family:IDJLGL+AdvOTcb6dfb9e;font-size:7.97px;font-style:NORMAL;font-weight:normal;">Drinking 4 1.22 0.82</text>
  <text x="269.459" y="660.4780000000001" svg_rhmargin="273.444" style="fill:#171615;font-family:IDJLGM+AdvOTcb6dfb9e+20;font-size:7.97px;font-style:NORMAL;font-weight:normal;">–</text>
  <text svg_rhmargin="391.1" x="273.427,277.245,279.15,282.968,286.786,330.914,334.732,336.637,340.454,344.272,377.742,379.647,383.465,387.282,391.09999999999997" y="660.4780000000001" style="fill:#171615;font-family:IDJLGL+AdvOTcb6dfb9e;font-size:7.97px;font-style:NORMAL;font-weight:normal;">1.82 0.00 .438 </text>
  <text x="421.34" y="660.4780000000001" svg_rhmargin="427.477" style="fill:#171615;font-family:IDJLIB+AdvP4C4E74;font-size:7.97px;font-style:NORMAL;font-weight:normal;">?</text>
  <text x="427.463,431.28,433.185,437.003,440.82099999999997,467.884,471.702,473.607,477.425,481.243,519.475,523.292,525.197,529.015,532.833,562.391,564.296,568.114,571.931" y="660.4780000000001" svg_rhmargin="575.749" style="fill:#171615;font-family:IDJLGL+AdvOTcb6dfb9e;font-size:7.97px;font-style:NORMAL;font-weight:normal;">0.34 1.00 0.65 .582</text>
  <text x="79.821,83.304,86.619,90.102,93.585,97.068,100.384,103.008,104.913,108.396,113.791,117.107,119.259,174.441,178.25900000000001,210.724,214.542,216.447,220.265,224.083,256.135,259.953,261.858,265.676" y="670.4" svg_rhmargin="269.494" style="fill:#171615;font-family:IDJLGL+AdvOTcb6dfb9e;font-size:7.97px;font-style:NORMAL;font-weight:normal;">Tongue tumor 3 0.65 0.44</text>
  <text x="269.459" y="670.4" svg_rhmargin="273.444" style="fill:#171615;font-family:IDJLGM+AdvOTcb6dfb9e+20;font-size:7.97px;font-style:NORMAL;font-weight:normal;">–</text>
  <text x="273.427,277.245,279.15,282.968,286.786,327.115,330.933,334.751,336.656,340.474,377.742,379.647,383.465,387.282,391.09999999999997,427.462,431.279,433.184,437.002,440.82,471.682,473.587,477.405,481.222,485.03999999999996,515.675,519.493,523.311,525.215,529.033,532.851,562.389,564.294,568.112,571.93" y="670.4" svg_rhmargin="575.748" style="fill:#171615;font-family:IDJLGL+AdvOTcb6dfb9e;font-size:7.97px;font-style:NORMAL;font-weight:normal;">0.98 51.7 .126 1.04 .296 21.59 .029</text>
  <text x="79.82,83.136,86.037,91.433,94.916,98.399,101.022,104.505,107.821,111.304,114.62,117.236,122.632,125.948,127.852,131.168,134.237,136.141,139.457,142.526,143.936,147.00400000000002,174.438,178.256,210.722,214.539,216.444,220.262,224.08,256.133,259.95,261.855,265.673" y="680.378" svg_rhmargin="269.491" style="fill:#171615;font-family:IDJLGL+AdvOTcb6dfb9e;font-size:7.97px;font-style:NORMAL;font-weight:normal;">Lymph node metastasis 5 1.21 0.82</text>
  <text x="269.458" y="680.378" svg_rhmargin="273.443" style="fill:#171615;font-family:IDJLGM+AdvOTcb6dfb9e+20;font-size:7.97px;font-style:NORMAL;font-weight:normal;">–</text>
  <text svg_rhmargin="485.039" x="273.427,277.244,279.149,282.967,286.78499999999997,327.115,330.932,334.75,336.655,340.47299999999996,377.741,379.646,383.464,387.282,391.09999999999997,427.461,431.279,433.184,437.001,440.81899999999996,471.681,473.586,477.404,481.221,485.039" y="680.378" style="fill:#171615;font-family:IDJLGL+AdvOTcb6dfb9e;font-size:7.97px;font-style:NORMAL;font-weight:normal;">1.78 11.2 .337 1.02 .308 </text>
  <text x="513.352" y="680.378" svg_rhmargin="519.489" style="fill:#171615;font-family:IDJLIB+AdvP4C4E74;font-size:7.97px;font-style:NORMAL;font-weight:normal;">?</text>
  <text x="519.475,523.292,525.197,529.015,532.833,562.391,564.296,568.114,571.931" y="680.378" svg_rhmargin="575.749" style="fill:#171615;font-family:IDJLGL+AdvOTcb6dfb9e;font-size:7.97px;font-style:NORMAL;font-weight:normal;">1.37 .304</text>
  <text x="79.819,84.051,85.462,87.367,89.272,92.587,94.739,98.055,101.538,103.443,104.854,108.169,110.074,111.485,114.8,118.283,174.438,178.256,210.722,214.539,216.444,220.262,224.08,256.133,259.95,261.855,265.673" y="690.356" svg_rhmargin="269.491" style="fill:#171615;font-family:IDJLGL+AdvOTcb6dfb9e;font-size:7.97px;font-style:NORMAL;font-weight:normal;">Differentiation 3 0.73 0.14</text>
  <text x="269.457" y="690.356" svg_rhmargin="273.442" style="fill:#171615;font-family:IDJLGM+AdvOTcb6dfb9e+20;font-size:7.97px;font-style:NORMAL;font-weight:normal;">–</text>
  <text svg_rhmargin="481.24" x="273.426,277.243,279.148,282.966,286.784,327.114,330.931,334.749,336.654,340.472,377.74,379.645,383.463,387.281,391.099,427.46,431.278,433.183,437.0,440.818,467.882,471.699,473.604,477.422,481.24" y="690.356" style="fill:#171615;font-family:IDJLGL+AdvOTcb6dfb9e;font-size:7.97px;font-style:NORMAL;font-weight:normal;">3.87 73.5 .023 0.00 1.00 </text>
  <text x="513.351" y="690.356" svg_rhmargin="519.488" style="fill:#171615;font-family:IDJLIB+AdvP4C4E74;font-size:7.97px;font-style:NORMAL;font-weight:normal;">?</text>
  <text x="519.474,523.291,525.196,529.014,532.832,562.39,564.295,568.113,571.931" y="690.356" svg_rhmargin="575.749" style="fill:#171615;font-family:IDJLGL+AdvOTcb6dfb9e;font-size:7.97px;font-style:NORMAL;font-weight:normal;">0.39 .763</text>
  <text x="79.818,83.301,86.784,92.18,95.496,97.648,100.283,103.352,105.257,108.572,112.055,115.37100000000001,174.437,178.25500000000002,210.721,214.539,216.443,220.261,224.079,256.132,259.95,261.854,265.672" y="700.277" svg_rhmargin="269.49" style="fill:#171615;font-family:IDJLGL+AdvOTcb6dfb9e;font-size:7.97px;font-style:NORMAL;font-weight:normal;">Tumor stage 5 0.89 0.62</text>
  <text x="269.456" y="700.277" svg_rhmargin="273.441" style="fill:#171615;font-family:IDJLGM+AdvOTcb6dfb9e+20;font-size:7.97px;font-style:NORMAL;font-weight:normal;">–</text>
  <text svg_rhmargin="391.098" x="273.425,277.243,279.147,282.965,286.78299999999996,327.113,330.931,334.748,336.653,340.471,377.74,379.644,383.462,387.28,391.09799999999996" y="700.277" style="fill:#171615;font-family:IDJLGL+AdvOTcb6dfb9e;font-size:7.97px;font-style:NORMAL;font-weight:normal;">1.27 26.7 .244 </text>
  <text x="421.337" y="700.277" svg_rhmargin="427.474" style="fill:#171615;font-family:IDJLIB+AdvP4C4E74;font-size:7.97px;font-style:NORMAL;font-weight:normal;">?</text>
  <text x="427.46,431.278,433.183,437.0,440.818,467.882,471.699,473.604,477.422,481.24,519.472,523.29,525.195,529.012,532.8299999999999,562.388,564.293,568.111,571.929" y="700.277" svg_rhmargin="575.747" style="fill:#171615;font-family:IDJLGL+AdvOTcb6dfb9e;font-size:7.97px;font-style:NORMAL;font-weight:normal;">0.24 1.00 0.60 .592</text>
  <text svg_rhmargin="79.224" x="71.887,75.737,79.22399999999999" y="715.981" style="fill:#171615;font-family:IDJLGL+AdvOTcb6dfb9e;font-size:6.97px;font-style:NORMAL;font-weight:normal;">OR </text>
  <text x="80.107" y="715.981" svg_rhmargin="84.828" style="fill:#171615;font-family:IDJKGC+AdvOTb0c9bf5d;font-size:6.97px;font-style:NORMAL;font-weight:normal;">=</text>
  <text svg_rhmargin="137.791" x="85.72,88.621,91.668,94.716,97.401,99.722,101.605,104.506,106.173,107.407,110.308,111.97500000000001,114.347,117.834,121.321,124.722,128.062,130.963,134.304,137.791" y="715.981" style="fill:#171615;font-family:IDJLGL+AdvOTcb6dfb9e;font-size:6.97px;font-style:NORMAL;font-weight:normal;">odds ratio, RASSF1A </text>
  <text x="138.671" y="715.981" svg_rhmargin="143.392" style="fill:#171615;font-family:IDJKGC+AdvOTb0c9bf5d;font-size:6.97px;font-style:NORMAL;font-weight:normal;">=</text>
  <text x="144.284,147.771,151.257,154.598,156.926,159.827,162.512,165.197,168.098,170.929,172.164,175.065,176.731,177.966,180.962,184.01,186.291,189.339,192.24,196.961,199.862,201.096,204.144,206.529,208.196,211.097,215.818,217.053,218.287,220.826,223.196,226.243,228.126,231.027,232.694,235.595,236.83,239.87800000000001,242.243,245.584,248.485" y="715.981" svg_rhmargin="250.152" style="fill:#171615;font-family:IDJLGL+AdvOTcb6dfb9e;font-size:6.97px;font-style:NORMAL;font-weight:normal;">RAS association domain family protein 1a.</text>
  <text svg_rhmargin="186.028" x="71.887,79.108,83.172,87.404,90.028,94.092,96.411,99.042,103.107,104.517,106.669,109.303,115.854,119.919,124.478,125.889,129.954,131.364,135.596,139.661,142.297,144.202,148.601,153.001,157.4,161.8,163.705,166.277,170.676,175.076,177.228,181.628,186.027" y="9.870999999999981" style="fill:#171615;font-family:IDJKEN+AdvOT6e5d2ec0;font-size:7.97px;font-style:NORMAL;font-weight:normal;">Wen et al. Medicine (2018) 97:11 </text>
  <text x="542.723,549.944,554.503,559.317,561.31,565.869,567.861,572.508" y="9.870999999999981" svg_rhmargin="577.067" style="fill:#171615;font-family:IDJKEM+AdvOT34fe1490.B;font-size:7.97px;font-style:NORMAL;font-weight:normal;">Medicine</text>
  <text x="322.243" y="739.625" svg_rhmargin="326.643" style="fill:#171615;font-family:IDJKMK+AdvOTf94803d4;font-size:7.97px;font-style:NORMAL;font-weight:normal;">6</text>
 </g>
</svg>
