<?xml version="1.0" encoding="UTF-8"?>
<svg height="777.932" width="563.459309" xmlns="http://www.w3.org/2000/svg">
 <g style="fill:none;">
  <text x="44.829,48.573,52.317,56.195,58.14,61.758,63.822,65.763,69.381,70.668,72.607,426.996,431.172,432.459,434.52,438.138,443.943,445.23,448.975,450.936,455.71299999999997,457.65,461.394,465.012,468.243,471.861,473.148,476.502,478.44,479.727,483.472,485.415,489.807,494.586,497.943,499.882,502.146,506.54,508.473,514.278,517.896,519.957,523.575,526.158,530.55,534.294,537.912,539.199,542.43,545.787,547.074" y="55.428999999999974" svg_rhmargin="550.428" style="fill:#6d6d6c;font-family:FFCUJS+HelveticaNeueLTStd-Lt;font-size:6.97px;font-style:NORMAL;font-weight:normal;">Luo et al. Vitamin D Levels in PDs: A Meta-Analysis</text>
  <text x="44.829" y="90.20500000000004" svg_rhmargin="52.211" style="fill:#171615;font-family:OBAZBH+RMTMI;font-size:9.46px;font-style:NORMAL;font-weight:normal;">&gt;</text>
  <text x="52.209,56.752,60.201,62.739,67.914,72.909,75.447,79.479,83.637,86.526,90.549,95.546,98.991,102.465,106.57,110.953,114.976,118.486,122.50800000000001,125.955,129.429,132.373,136.477,140.905,144.909,148.382,151.821,156.645,159.446,162.891,168.219,175.17499999999998,178.623,181.899,186.444,190.98,194.256,196.414,199.863,205.695,210.753,214.77499999999998,218.214,222.219,227.043,232.218,235.107,238.617,243.441,245.835,249.30800000000002,252.765,259.245,263.268,266.778,270.8,274.248,278.352,282.78,286.803" y="90.20500000000004" svg_rhmargin="290.172" style="fill:#171615;font-family:XZHYCD+MinionPro-Regular;font-size:9.46px;font-style:NORMAL;font-weight:normal;">3 indicated severe stages of PD (10). The controls were age-</text>
  <text x="44.829,52.578,56.736,59.571,63.522,68.58,72.603,77.6,81.063,86.121,90.19,94.348,96.742,99.667,104.724,109.068,112.536,115.074,120.249,125.244,127.782,132.165,134.703,139.698,144.72,148.878,151.272,154.746,156.904,160.399,164.881,168.904,172.414,177.436,185.187,188.668,193.213,197.758,201.124,206.182,210.529,215.524,219.034,223.858,228.322,232.669,237.052,239.59,242.533,246.691,254.44,256.978,262.15500000000003,265.636,272.59200000000004,276.067,282.547,286.695" y="101.66200000000003" svg_rhmargin="290.168" style="fill:#171615;font-family:XZHYCD+MinionPro-Regular;font-size:9.46px;font-style:NORMAL;font-weight:normal;">matched healthy individuals. Serum 25-hydroxyvitamin D was</text>
  <text x="44.829,47.772,51.93,56.628,60.651,65.828,68.724,72.873,76.346,79.254,83.409,86.309,88.847,94.022,99.017,101.555,105.588,109.746,112.635,117.459,120.97,123.875,128.699,131.5,134.406,138.789,141.327,144.27,148.428,156.177,158.715,163.892,166.788,173.744,176.652,180.126,183.069,187.227,190.116,195.138,198.61100000000002,201.51,207.99,212.814,216.324,218.718,223.713,230.193,232.731,237.726,241.748,244.665,247.941,252.486,257.031,260.307,262.46500000000003,265.365,269.847,273.87,277.38,282.402" y="113.11900000000003" svg_rhmargin="290.153" style="fill:#171615;font-family:XZHYCD+MinionPro-Regular;font-size:9.46px;font-style:NORMAL;font-weight:normal;">taken as a indicator of vitamin D status worldwide (11). Serum</text>
  <text svg_rhmargin="137.45" x="44.829,49.374,53.919,57.195,64.269,71.523,74.799,81.75500000000001,84.258,88.263,93.087,98.262,102.267,106.29,111.465,114.354,117.864,122.022,124.911,127.449,132.273,137.45" y="124.57600000000002" style="fill:#171615;font-family:XZHYCD+MinionPro-Regular;font-size:9.46px;font-style:NORMAL;font-weight:normal;">25(OH)D concentration </text>
  <text x="139.968" y="124.57600000000002" svg_rhmargin="147.35" style="fill:#171615;font-family:OBAZBH+RMTMI;font-size:9.46px;font-style:NORMAL;font-weight:normal;">&lt;</text>
  <text x="147.348,151.893,156.436,158.013,163.188,167.616,170.748,178.497,180.89100000000002,183.42,186.696,191.241,195.78400000000002,198.297,203.472,211.221,216.045,218.439,221.571,223.965,227.24,229.77,236.25,240.399,243.872,246.393,249.903,253.935,258.345,262.504,266.013,271.008,275.031,280.028,282.547,286.695" y="124.57600000000002" svg_rhmargin="290.168" style="fill:#171615;font-family:XZHYCD+MinionPro-Regular;font-size:9.46px;font-style:NORMAL;font-weight:normal;">20 ng/ml (50 nmol/l) was regarded as</text>
  <text x="44.829,49.212,51.75,54.693,58.851,66.6,69.138,74.315,76.113,83.069,84.87,89.865,93.879,98.946,102.951,105.489,109.512,114.687,118.692,123.039,125.197,126.999,131.805,135.828,138.717,145.197,149.22,153.243,158.42,160.218,164.763,169.306,170.883,176.058,180.486,183.618,191.367,193.761,195.57,198.846,203.391,207.934,209.736,214.911,222.66,227.484,229.878,233.01,235.404,238.679,240.489,244.647,249.822,254.81900000000002,256.618,261.163,265.706,267.282,272.457,276.885,280.017,287.766" y="136.03300000000002" svg_rhmargin="290.161" style="fill:#171615;font-family:XZHYCD+MinionPro-Regular;font-size:9.46px;font-style:NORMAL;font-weight:normal;">vitamin D deﬁciency, between 20 ng/ml (50 nmol/l) and 30 ng/ml</text>
  <text x="44.829,48.105,52.65,57.193,59.175,64.35,72.099,76.923,79.317,82.449,84.843,88.11800000000001,90.108,96.588,100.737,104.21,106.191,110.196,115.02,120.195,123.669,126.207,131.202,135.225,138.735,142.758,147.755,149.742,153.891,157.364,159.345,163.728,166.266,169.209,173.367,181.116,183.654,188.831,190.809,197.765,199.755,202.293,207.468,210.942,215.964,223.515,227.52,230.058,234.081,239.256,243.261,247.608,249.766,251.748,255.906,261.081,266.07800000000003,268.056,272.133,276.939,281.763,286.146" y="147.49" svg_rhmargin="290.168" style="fill:#171615;font-family:XZHYCD+MinionPro-Regular;font-size:9.46px;font-style:NORMAL;font-weight:normal;">(75 nmol/l) was considered as vitamin D insuﬃciency, and above</text>
  <text x="44.829,49.374,53.917,55.494,60.669,65.097,68.229,75.978,78.372,81.963,85.239,89.784,94.32700000000001,97.911,103.086,110.835,115.659,118.053,121.185,123.579,126.854,130.455,136.935,141.084,144.55700000000002,148.14,152.145,156.969,162.144,165.618,168.156,173.151,177.174,180.684,184.707,189.704,193.293,197.442,200.91500000000002,204.498,207.423,212.481,216.503,220.086,225.261,230.085,233.595,241.344,245.502,247.89600000000002,251.487,253.881,257.986,262.368,266.391,268.785,272.376,275.652,280.197,284.733,288.009" y="158.947" svg_rhmargin="290.167" style="fill:#171615;font-family:XZHYCD+MinionPro-Regular;font-size:9.46px;font-style:NORMAL;font-weight:normal;">30 ng/ml (75 nmol/l) was considered as the normal level (11).</text>
  <text x="44.829,50.661,55.719,59.741,62.928,67.95,73.125,75.663,78.55,81.747,86.571,89.372,92.565,97.74,105.489,110.313,112.707,115.839,118.233,121.437,127.917,132.066,135.53900000000002,138.726,142.731,147.555,152.73,157.113,161.136,164.646,167.535,171.558,176.555,179.748,182.637,187.464,190.647,193.572,198.63,202.652,205.839,210.213,214.371,216.765,221.787,225.809,229.005,233.829,236.63,239.823,244.998,249.426,252.558,260.307,262.701,265.896,268.434,273.61100000000005,276.804,281.628,286.65" y="170.404" svg_rhmargin="290.161" style="fill:#171615;font-family:XZHYCD+MinionPro-Regular;font-size:9.46px;font-style:NORMAL;font-weight:normal;">The unit of nmol/l was converted to the value of ng/ml in our</text>
  <text x="44.829,52.578,56.601,59.544,63.702,67.068,71.226,76.401,80.559,82.953,87.3,90.774,93.312,96.786" y="181.861" svg_rhmargin="98.944" style="fill:#171615;font-family:XZHYCD+MinionPro-Regular;font-size:9.46px;font-style:NORMAL;font-weight:normal;">meta-analysis.</text>
  <text x="44.829,52.587,59.445,62.532,69.39,76.248,80.46,83.547,90.855,97.944,101.268,108.126,115.218,122.523,125.856,133.605,140.022,146.88,149.967,157.058,163.475,166.562,173.87,180.959,184.275,193.13,197.783,200.87,205.082,211.94,216.593,219.68" y="204.67600000000004" svg_rhmargin="226.542" style="fill:#171615;font-family:IUMUOI+HelveticaNeueLTStd-Bd;font-size:11.96px;font-style:NORMAL;font-weight:normal;">Selection and Exclusion Criteria</text>
  <text svg_rhmargin="233.956" x="44.829,54.018,58.04,65.817,70.884,76.059,80.217,82.611,85.005,89.34899999999999,97.128,99.666,104.841,108.846,111.24,116.262,121.257,125.28,130.277,138.051,142.596,147.139,154.917,159.075,162.585,165.474,168.012,172.017,174.411,178.416,181.889,189.657,193.086,198.144,202.968,209.448,213.471,218.46800000000002,226.241,228.779,233.956" y="216.23199999999997" style="fill:#171615;font-family:XZHYCD+MinionPro-Regular;font-size:9.46px;font-style:NORMAL;font-weight:normal;">We ﬁnally included 20 articles showed in </text>
  <text svg_rhmargin="274.678" x="241.731,246.942,251.289,256.347,258.975,263.11100000000005,265.167,269.946,274.67800000000005" y="216.23199999999997" style="fill:#171615;font-family:WNCTVH+MinionPro-Bold;font-size:9.46px;font-style:NORMAL;font-weight:BOLD;">Table S1 </text>
  <text x="282.456,284.994" y="216.23199999999997" svg_rhmargin="290.171" style="fill:#171615;font-family:XZHYCD+MinionPro-Regular;font-size:9.46px;font-style:NORMAL;font-weight:normal;">in</text>
  <text x="44.829,49.311,54.333,59.292,64.252,66.646,70.669,78.418,82.441,87.616,90.559,94.717,98.227,102.571,110.368,118.648,122.806,125.695,129.718,133.228,135.766,139.924,142.318,150.085,154.891,159.23499999999999,167.023,170.56,174.592,178.75,183.925,189.1,191.638,196.813,201.242,209.026,211.951,217.009,221.03099999999998,228.799,231.688,234.226,237.115,239.509,243.514,246.988,249.146,256.924,261.001,265.798,269.272,272.161,275.671,279.811,283.816,286.705" y="227.68899999999996" svg_rhmargin="290.178" style="fill:#171615;font-family:XZHYCD+MinionPro-Regular;font-size:9.46px;font-style:NORMAL;font-weight:normal;">Supplementary Material by scanning the titles, abstracts</text>
  <text x="44.829,48.987,54.162,59.159,62.226,65.025,70.047,73.557,76.482,81.54,85.563,89.074,92.142,95.652,99.756,104.139,106.677,110.7,117.18,119.718,124.893,129.322,132.39,135.315,140.373,144.39499999999998,147.465,150.264,155.286,157.68,160.074,163.143,166.032,170.037,174.501,177.39,180.864,183.022,186.093,191.925,196.983,201.005,204.057,209.106,213.93,220.413,223.479,227.43,232.461,236.619,240.129,243.016,246.069,250.893,253.694,256.77,260.244,264.267,266.661,270.738,274.743,277.632,280.17,284.994" y="239.14599999999996" svg_rhmargin="290.171" style="fill:#171615;font-family:XZHYCD+MinionPro-Regular;font-size:9.46px;font-style:NORMAL;font-weight:normal;">and further reviewing the full texts. The ﬂow chart of selection</text>
  <text svg_rhmargin="131.574" x="44.829,49.788,53.298,58.122,62.127,66.133,69.561,73.034,75.618,78.156,81.629,84.222,89.182,92.692,96.697,100.171,104.194,109.369,112.258,116.281,121.278,123.859,126.397,131.574" y="250.60299999999995" style="fill:#171615;font-family:XZHYCD+MinionPro-Regular;font-size:9.46px;font-style:NORMAL;font-weight:normal;">process is presented in </text>
  <text x="134.154,139.302,142.092,146.745,152.001,155.826,159.962,162.018" y="250.60299999999995" svg_rhmargin="166.75" style="fill:#171615;font-family:WNCTVH+MinionPro-Bold;font-size:9.46px;font-style:NORMAL;font-weight:BOLD;">Figure 1</text>
  <text x="166.752,168.91,171.495,178.038,180.432,182.826,185.418,190.242,193.04299999999998,195.624,198.549,203.607,207.629,210.213,212.751,217.926,221.931,224.325,229.347,234.342,238.365,243.36200000000002,245.952,250.11,253.62,256.509,259.047,263.052,265.446,269.451,272.92400000000004,275.508,283.257,287.28" y="250.60299999999995" svg_rhmargin="290.167" style="fill:#171615;font-family:XZHYCD+MinionPro-Regular;font-size:9.46px;font-style:NORMAL;font-weight:normal;">. All of the included articles met</text>
  <text x="44.829,47.754,52.812,56.833999999999996,59.184,61.983,66.807,69.201,71.595,76.419,82.899,85.437,90.612,95.041,97.407,101.412,104.922,107.46,110.349,114.372,117.882,120.42,124.578,126.736,129.078,132.354,136.899,140.174,142.524,146.529,151.353,156.411,161.235,164.745,167.643,169.801,172.152,176.184,180.333,183.807,187.83,191.196,195.201,200.025,205.2,208.089,211.599,216.423,218.818,220.976,223.336,228.16,231.671,234.019,238.023,241.533,246.357,249.786,253.26,256.626,260.1,264.177,268.182,271.071,273.609,278.433,283.608,287.766" y="262.05999999999995" svg_rhmargin="290.161" style="fill:#171615;font-family:XZHYCD+MinionPro-Regular;font-size:9.46px;font-style:NORMAL;font-weight:normal;">the following criteria: (1) cohort, case-control, or cross-sectional</text>
  <text x="44.829,48.303,51.192,56.214,61.209,65.556,67.714,69.849,73.125,77.67,80.94500000000001,83.07,85.959,90.786,92.916,95.454,100.629,105.012,109.017,112.491,115.38,117.918,122.328,126.486,129.375,133.397,135.522,138.447,143.505,147.527,149.661,153.81,157.239,160.713,165.537,169.542,172.08,176.238,179.127,181.665,186.489,191.666,193.779,198.585,202.608,205.497,211.977,216.0,220.023,225.2,227.34,230.814,234.837,238.347,243.369,251.12,253.251,257.796,262.341,265.617,272.691,279.945,283.221" y="273.51700000000005" svg_rhmargin="290.177" style="fill:#171615;font-family:XZHYCD+MinionPro-Regular;font-size:9.46px;font-style:NORMAL;font-weight:normal;">study; (2) to investigate the association between serum 25(OH)D</text>
  <text x="44.829,47.223,51.327,55.71,59.733,62.127,65.60000000000001,69.237,73.395,78.57,83.567,87.201,92.529,99.486,101.644,105.273,108.549,113.094,116.369,119.997,125.055,127.593,132.075,137.133,141.156,144.667,148.293,153.126,158.148,162.306,164.7,167.238,170.127,174.471,178.101,183.06,187.218,192.178,196.201,199.648,203.122,205.28,208.909,213.067,218.242,223.23899999999998,226.873,230.149,234.694,237.969,241.597,246.556,251.578,256.384,258.778,261.316,264.745,269.803,273.826,278.82300000000004,282.457,284.995" y="284.97400000000005" svg_rhmargin="290.172" style="fill:#171615;font-family:XZHYCD+MinionPro-Regular;font-size:9.46px;font-style:NORMAL;font-weight:normal;">levels and PD; (3) higher quality papers; and (4) published in</text>
  <text x="44.829,50.202,55.377,59.805,62.199,64.737,68.166,73.224,75.382,79.254,85.086,90.144,94.16600000000001,98.028,102.033,106.416,110.421,112.815,117.837,121.311,123.849,128.673,133.85,137.718,141.723,145.233,147.771,150.66,154.683,158.193,160.731,164.886,168.741,175.221,179.244,182.754,186.77599999999998,190.647,193.041,195.579,199.053,201.942,205.965,210.962,214.821,218.97,222.443,226.305,229.104,233.928,236.322,238.716,243.54,250.02,253.494,255.652,259.533,262.809,267.354,270.62899999999996,274.491,278.523,282.672,286.146" y="296.431" svg_rhmargin="290.168" style="fill:#171615;font-family:XZHYCD+MinionPro-Regular;font-size:9.46px;font-style:NORMAL;font-weight:normal;">English. The exclusion criteria were listed as follows: (1) case</text>
  <text x="44.829,48.339,52.362,57.321,62.145,65.655,68.544,72.018,74.176,77.337,80.847,84.951,89.334,91.872,95.895,102.375,105.848,109.008,113.832,117.34299999999999,120.51,124.533,129.528,132.066,134.955,139.779,143.289,145.827,149.985,152.379,154.53699999999998,157.689,160.965,165.51,168.785,171.936,175.941,179.964,182.358,184.752,188.22500000000002,191.385,196.209,199.72,202.878,207.036,212.211,214.749,222.498,226.656,229.05,232.2,235.674,238.563,243.585,248.58,251.118,255.123,258.597,260.755,263.916,267.191,271.736,275.01099999999997,278.162,281.087,286.145" y="307.888" svg_rhmargin="290.167" style="fill:#171615;font-family:XZHYCD+MinionPro-Regular;font-size:9.46px;font-style:NORMAL;font-weight:normal;">reports, reviews or editorial; (2) cells or animal studies; (3) the</text>
  <text x="44.829,48.303,52.326,55.836,60.858,68.609,71.001,73.395,77.499,81.882,85.905,88.299,91.772,94.167,98.991,101.792,104.175,108.558,111.096,114.039,118.197,125.946,128.484,133.661,136.044,143.0,145.386,149.418,153.576,155.97,159.975,164.997,167.391,171.549,174.438,178.461,183.45800000000003,185.841,190.647,194.99099999999999,197.379,202.203,205.128,210.186,214.209,217.72,220.104,222.642,227.817,232.812,235.35,239.382,243.54,246.429,251.253,254.7,258.173,260.559,264.717,269.892,274.889,277.272,282.447,287.271" y="319.345" svg_rhmargin="290.158" style="fill:#171615;font-family:XZHYCD+MinionPro-Regular;font-size:9.46px;font-style:NORMAL;font-weight:normal;">serum levels of vitamin D calculated by other indicators and not</text>
  <text x="44.829,49.635,53.979,56.133,60.678,65.223,68.499,75.573,82.827,86.103,93.06,95.218,97.353,101.511,106.686,111.683,113.832,117.108,121.653,124.92800000000001,127.071,129.609,134.784,138.789,143.613,151.362,156.321,158.715,162.738,165.627,169.649,171.801,176.814,180.972,183.915,188.073" y="330.802" svg_rhmargin="190.231" style="fill:#171615;font-family:XZHYCD+MinionPro-Regular;font-size:9.46px;font-style:NORMAL;font-weight:normal;">by 25(OH)D; and (4) incomplete data.</text>
  <text x="44.829,53.685,60.543,64.755,71.61699999999999,74.943,82.692,89.109,93.321,97.974,104.832,111.69,115.902,118.989,126.297" y="353.617" svg_rhmargin="133.386" style="fill:#171615;font-family:IUMUOI+HelveticaNeueLTStd-Bd;font-size:11.96px;font-style:NORMAL;font-weight:normal;">Data Extraction</text>
  <text x="44.829,50.661,55.719,59.741,67.032,69.831,74.655,77.049,79.443,84.267,90.747,93.285,98.46,102.889,110.205,115.218,119.376,122.319,126.474,133.767,140.247,144.396,147.869,155.169,159.174,163.638,166.527,170.037,174.177,178.182,181.071,185.094,190.091,197.379,199.917,205.092,209.097,211.491,216.513,221.508,224.046,229.221,233.65,240.949,246.016,249.463,252.937,255.824,263.116,267.274,272.296,275.221,280.279,285.103,288.01" y="365.173" svg_rhmargin="290.168" style="fill:#171615;font-family:XZHYCD+MinionPro-Regular;font-size:9.46px;font-style:NORMAL;font-weight:normal;">The following data was extracted including ﬁrst author,</text>
  <text x="44.829,49.788,54.81,59.616,62.01,64.548,68.581,72.739,75.628,78.166,82.99,88.167,92.908,97.255,101.322,105.48,108.387,110.545,115.272,118.746,121.635,126.657,131.652,135.99599999999998,140.733,145.728,149.733,153.207,155.745,160.173,165.348,167.506,172.242,175.77,179.928,187.677,192.637,195.031,199.053,203.788,207.262,209.8,213.778,217.747,219.905,224.632,232.381,236.404,239.329,244.387,249.211,254.179,257.652,262.387,267.211,270.012,274.753,277.642,281.647,285.121,288.019" y="376.63" svg_rhmargin="290.177" style="fill:#171615;font-family:XZHYCD+MinionPro-Regular;font-size:9.46px;font-style:NORMAL;font-weight:normal;">publication year, study design, sample size, methods of test,</text>
  <text x="44.829,47.223,51.381,54.27,56.808,59.697,64.719,69.714,73.683,75.84100000000001,78.498,85.752,92.484,98.484,101.142,104.616,107.559,111.663,116.091,120.096,123.57,125.728,128.385,135.351,140.679,147.636,153.513,157.999,160.659,163.89,167.121,170.348,173.007,176.544,180.549,185.373,188.883,192.888,196.362,198.51999999999998,201.186,204.66,208.683,212.193,217.215,224.966,227.628,232.012,234.549,237.493,241.651,249.4,251.938,257.115,259.777,266.733,269.389,271.783,275.887,280.27,284.293,286.687" y="388.087" svg_rhmargin="290.16" style="fill:#171615;font-family:XZHYCD+MinionPro-Regular;font-size:9.46px;font-style:NORMAL;font-weight:normal;">latitude, H&amp;Y stages, UPDRS III scores, serum vitamin D levels</text>
  <text x="44.829,48.987,54.162,59.159,62.343,65.817,70.64399999999999,73.818,78.642,83.817,85.975,89.163,95.004,99.831,103.014,106.524,110.547,115.542,120.564,124.569,128.591,131.769,139.518,142.056,145.53,148.473,152.631,157.329,161.334,164.80700000000002,167.985,172.143,177.318,182.315,185.49,190.296,192.834,196.983,200.457,202.61499999999998,205.794,208.683,215.163,219.99,223.164,227.322,232.344,235.269,240.327,245.151,248.598,252.07100000000003,255.249,259.254,263.718,266.607,270.117,274.258,278.263,281.151,285.174" y="399.544" svg_rhmargin="290.171" style="fill:#171615;font-family:XZHYCD+MinionPro-Regular;font-size:9.46px;font-style:NORMAL;font-weight:normal;">and so on. To reduce mistakes and bias, two authors extracted</text>
  <text x="44.829,49.842,54.0,56.943,61.098,63.297,66.771,70.794,75.753,79.911,83.421,87.579,90.468,94.491,96.885,101.229,103.419,107.577,112.752,117.749,119.943,122.481,127.476,131.499,136.674,139.563,142.101,147.168,151.191,156.188,158.373,163.179,167.523,169.722,173.877,176.076,179.001,184.059,186.597,190.107,195.10399999999998,197.289,200.799,204.804,208.278,212.346,216.504,219.888,223.839,228.897,232.92,236.43,238.588,240.777,244.008,246.809,249.003,251.928,256.986,261.008,263.205,267.363,270.873,273.762,276.3,280.305,282.699,286.704" y="411.001" svg_rhmargin="290.177" style="fill:#171615;font-family:XZHYCD+MinionPro-Regular;font-size:9.46px;font-style:NORMAL;font-weight:normal;">data separately and identiﬁed by a third researcher. If the articles</text>
  <text x="44.829,49.824,52.362,57.359,59.814,64.989,69.813,72.7,75.159,80.118,83.628,88.452,92.835,95.373,100.368,104.39,106.848,110.871,116.046,120.87,125.892,130.375,135.429,137.898,142.911,147.069,150.013,154.168,156.618,161.442,164.243,166.707,171.531,176.553,180.064,182.52,185.058,190.233,193.122,197.145,200.655,204.66,208.134,211.032,213.19,215.64,222.12,226.142,228.6,231.489,234.999,237.537,241.56,246.55700000000002,249.012,253.836,258.858,262.369,264.825,269.631,273.636,277.11,279.997,282.456,285.345" y="422.458" svg_rhmargin="290.172" style="fill:#171615;font-family:XZHYCD+MinionPro-Regular;font-size:9.46px;font-style:NORMAL;font-weight:normal;">did not provide enough data of our interest, we tried our best to</text>
  <text x="44.829,48.834,53.658,58.833,61.776,65.916,69.921,72.808,74.961,77.886,82.944,86.96600000000001,89.109,93.267,98.289,101.214,106.272,111.096,114.606" y="433.915" svg_rhmargin="116.764" style="fill:#171615;font-family:XZHYCD+MinionPro-Regular;font-size:9.46px;font-style:NORMAL;font-weight:normal;">contact the author.</text>
  <text x="44.829,54.126,61.218,68.076,71.163,74.25,78.462,84.667,87.993,95.742,101.961,108.819,111.906,118.998,125.856,130.068,133.155,140.463" y="456.73" svg_rhmargin="147.552" style="fill:#171615;font-family:IUMUOI+HelveticaNeueLTStd-Bd;font-size:11.96px;font-style:NORMAL;font-weight:normal;">Quality Evaluation</text>
  <text x="44.829,54.018,58.04,59.958,64.98,68.454,72.477,77.474,79.389,86.418,90.441,96.921,100.953,105.102,108.576,111.465,113.859,117.882,121.248,128.322,131.211,134.154,138.312,144.792,148.947,150.848,155.475,159.507,163.665,166.059,170.081,171.999,175.275,182.304,189.378,193.86,197.13500000000002,199.044,202.32,206.865,211.401,214.67600000000002,216.594,219.483,224.31,226.215,230.364,233.793,237.267,241.272,244.701,248.174,250.074,252.999,258.057,262.079,263.988,268.821,273.843,278.001,280.395,282.933,285.822" y="468.286" svg_rhmargin="290.166" style="fill:#171615;font-family:XZHYCD+MinionPro-Regular;font-size:9.46px;font-style:NORMAL;font-weight:normal;">We used Newcastle-Ottawa Scale (NOS) (12) to assess the quality</text>
  <text x="44.829,49.653,52.454,57.123,61.227,65.61,68.148,73.143,77.166,82.341,86.346,90.369,92.527,97.2,100.431,103.318,107.973,111.978,116.802,121.977,124.92,129.078,131.616,136.791,140.264,144.927,147.852,152.91,156.42,160.443,164.465,169.119,174.079,178.237,181.747,184.636,188.109,192.763,199.243,204.301,206.839,210.79,215.844,220.491,223.029,228.204,232.209,234.603,239.626,244.621,248.626,252.09900000000002,256.77,260.244,264.267,266.661,270.738,274.743,277.632,280.17,284.994" y="479.743" svg_rhmargin="290.171" style="fill:#171615;font-family:XZHYCD+MinionPro-Regular;font-size:9.46px;font-style:NORMAL;font-weight:normal;">of evidence. It contains three parts which includes selection</text>
  <text x="44.829,48.105,52.65,57.573,62.116,66.987,70.461,73.404,77.562,81.009,84.483,87.759,89.917,94.788,98.793,103.617,111.366,116.325,120.483,123.993,128.07,132.876,135.414,137.808,140.346,143.235,147.579,152.451,155.727,160.272,165.195,169.738,174.609,178.083,181.026,185.184,188.631,192.105,195.38,200.25,204.408,209.583,214.57999999999998,219.456,223.461,227.925,232.885,237.709,241.183,246.205,249.715,253.738,256.87,261.694,266.716,269.551,273.556,278.38,286.129" y="491.2" svg_rhmargin="290.151" style="fill:#171615;font-family:XZHYCD+MinionPro-Regular;font-size:9.46px;font-style:NORMAL;font-weight:normal;">(0–4 stars), comparability (0–2 stars) and exposure/outcome</text>
  <text x="44.829,48.105,52.65,57.573,62.116,66.573,70.047,72.99,77.148,80.595,84.069,87.345,89.503,93.978,99.81,104.868,108.89,113.346,120.375,127.449,131.935,136.395,139.932,143.937,148.761,152.271,156.276,159.74900000000002,164.214,169.038,171.839,176.301,180.846,185.769,190.314,192.47199999999998,196.938,201.483,206.406,210.951,213.10899999999998,217.566,221.724,226.899,231.89600000000002,236.359,240.904,245.827,250.37,254.827,257.365,262.54,267.535,270.073,274.105,278.263,281.152,285.175" y="502.657" svg_rhmargin="290.172" style="fill:#171615;font-family:XZHYCD+MinionPro-Regular;font-size:9.46px;font-style:NORMAL;font-weight:normal;">(0–3 stars). The NOS scores of 1–3, 4–6, and 7–9 indicated</text>
  <text x="44.829,47.223,52.047,58.527,60.685,64.17,71.919,75.942,80.937,83.475,88.497,96.248,99.738,103.896,109.071,114.068,117.54,122.598,125.136,129.618,134.672,138.15,142.983,148.005,152.163,154.557,157.095,159.984,164.328,167.814,172.638,175.439,178.92,182.394,185.283,190.305,195.3,197.838,201.843,205.317,207.475,210.951,214.461,218.466,221.94,226.899,230.976,234.981,237.87,240.408,244.791,248.814,251.209,255.553,259.03,262.305,266.85,271.386,274.662,276.82,280.305,286.695" y="514.114" svg_rhmargin="290.168" style="fill:#171615;font-family:XZHYCD+MinionPro-Regular;font-size:9.46px;font-style:NORMAL;font-weight:normal;">low, medium and high quality of studies, respectively (13). As</text>
  <text svg_rhmargin="93.143" x="44.829,49.824,52.362,55.836,60.795,63.189,67.347,71.694,75.717,80.714,85.428,87.966,93.143" y="525.571" style="fill:#171615;font-family:XZHYCD+MinionPro-Regular;font-size:9.46px;font-style:NORMAL;font-weight:normal;">displayed in </text>
  <text svg_rhmargin="130.795" x="97.857,103.068,107.415,112.473,115.101,119.237,121.284,126.063,130.79500000000002" y="525.571" style="fill:#171615;font-family:WNCTVH+MinionPro-Bold;font-size:9.46px;font-style:NORMAL;font-weight:BOLD;">Table S2 </text>
  <text x="135.513,138.051,143.22799999999998,147.942,152.424,157.446,162.405,167.365,169.759,173.782,181.531,185.554,190.729,193.672,197.83,201.34,205.684,210.402,218.682,222.84,225.729,229.752,233.262,235.8,239.958,242.352,244.51,249.219,252.145,257.203,259.741,263.214,267.921,275.67,279.693,282.636,286.794" y="525.571" svg_rhmargin="290.163" style="fill:#171615;font-family:XZHYCD+MinionPro-Regular;font-size:9.46px;font-style:NORMAL;font-weight:normal;">in Supplementary Material, this meta-</text>
  <text svg_rhmargin="209.609" x="44.829,48.987,54.162,58.32,60.714,65.061,68.535,71.073,74.54599999999999,80.658,84.663,89.487,94.662,98.136,100.674,104.148,107.037,111.06,116.057,122.175,126.999,129.79999999999998,135.918,140.076,143.586,146.475,149.013,153.018,155.412,159.417,162.89000000000001,169.002,175.482,178.02,180.945,185.999,192.114,195.588,198.531,202.689,206.136,209.609" y="537.028" style="fill:#171615;font-family:XZHYCD+MinionPro-Regular;font-size:9.46px;font-style:NORMAL;font-weight:normal;">analysis consisted of articles with stars </text>
  <text x="215.731" y="537.028" svg_rhmargin="222.867" style="fill:#171615;font-family:YEJVYS+MTSY;font-size:9.46px;font-style:NORMAL;font-weight:normal;">≥</text>
  <text x="222.859,227.40200000000002,233.524,237.682,242.857,247.85399999999998,253.972,257.977,262.801,267.823,270.217,275.214,281.332,286.138" y="537.028" svg_rhmargin="290.16" style="fill:#171615;font-family:XZHYCD+MinionPro-Regular;font-size:9.46px;font-style:NORMAL;font-weight:normal;">6 and could be</text>
  <text x="44.829,48.834,53.658,58.833,62.307,64.845,69.84,73.863,77.373,81.396,86.393,91.107,95.256,98.729,103.437,108.495,111.033,115.515,120.573,124.596,128.107,132.813,140.562,144.585,147.51,152.568,157.392,162.387,167.211,169.605,174.429,178.857,181.395,185.427,189.585,191.979,196.686,201.519,206.541,210.699,213.094,215.632,218.521,222.868,225.02599999999998,229.753,236.296,241.471,245.815,250.515,255.51,258.048,261.478,264.952,268.975,274.15,277.624,280.162,284.985" y="548.485" svg_rhmargin="290.162" style="fill:#171615;font-family:XZHYCD+MinionPro-Regular;font-size:9.46px;font-style:NORMAL;font-weight:normal;">considered as higher methodological quality. Any dissension</text>
  <text x="44.829,48.987,56.736,61.56,66.735,71.164,74.799,78.309,82.314,85.788,89.856,94.014,97.398,101.349,106.407,110.43,113.877,117.35,120.979,127.459,131.608,135.08100000000002,138.709,142.219,146.224,149.698,154.522,156.916,161.299,165.322,170.31900000000002,173.944,178.75,183.094,186.733,191.8,196.975,201.133,203.52700000000002,207.145,212.14,214.678,218.215,222.22,227.242,230.671,234.145,236.683,241.507,246.684,250.317,253.206,258.033,261.666,265.176,269.244,273.384,277.335,282.38899999999995,286.012" y="559.942" svg_rhmargin="290.167" style="fill:#171615;font-family:XZHYCD+MinionPro-Regular;font-size:9.46px;font-style:NORMAL;font-weight:normal;">among researchers was resolved by ﬁnal discussion to reach a</text>
  <text x="44.829,48.834,53.658,58.833,62.307,66.33,71.505,74.979,80.001,83.475" y="571.399" svg_rhmargin="85.633" style="fill:#171615;font-family:XZHYCD+MinionPro-Regular;font-size:9.46px;font-style:NORMAL;font-weight:normal;">consensus.</text>
  <text x="44.829,52.587,56.799,63.657,67.869,70.956,77.373,81.585,84.672,91.53,98.388,101.47200000000001,104.796,112.986,120.078,126.936,130.023,136.223,142.64,149.498" y="594.2139999999999" svg_rhmargin="155.918" style="fill:#171615;font-family:IUMUOI+HelveticaNeueLTStd-Bd;font-size:11.96px;font-style:NORMAL;font-weight:normal;">Statistical Analyses</text>
  <text x="44.829,49.833,54.657,58.168,61.938,66.933,69.471,73.422,78.48,83.304,86.193,91.017,98.766,103.59,108.612,112.085,115.848,120.861,125.019,127.962,132.12,134.278,138.042,140.967,146.025,150.047,153.801,158.625,163.62,168.588,172.061,175.824,179.334,183.492,186.381,188.919,193.746,197.505,200.781,207.855,213.733,217.008,220.762,224.92,230.095,235.09199999999998,238.842,243.387,247.932,255.087,258.85,265.141,268.368,272.125,278.605,282.628,286.138" y="605.77" svg_rhmargin="290.16" style="fill:#171615;font-family:XZHYCD+MinionPro-Regular;font-size:9.46px;font-style:NORMAL;font-weight:normal;">For dichotomous data, the odds ratio (OR) and 95% CI were</text>
  <text x="44.829,49.788,54.612,59.436,61.83,65.853,70.848,73.006,78.21,83.214,88.038,91.54899999999999,96.723,100.728,105.552,110.727,113.616,116.154,121.329,126.351,131.175,136.197,139.67000000000002,144.855,149.868,154.026,156.969,161.127,163.285,168.453,171.378,176.436,180.458,185.625,193.374,197.442,201.6,206.777,211.95,216.945,219.483,224.793,228.816,232.326,236.349,241.524,245.529,249.551,254.718,257.994,266.427,273.384,276.659,281.825,286.649" y="617.227" svg_rhmargin="290.16" style="fill:#171615;font-family:XZHYCD+MinionPro-Regular;font-size:9.46px;font-style:NORMAL;font-weight:normal;">pooled. For continuous data, the mean diﬀerence (MD) or</text>
  <text x="44.829,47.754,52.812,56.833999999999996,61.983,65.457,68.4,72.558,77.733,82.746,86.904,90.414,95.409,97.947,101.925,105.948,110.945,116.082,123.831,127.899,132.057,137.23399999999998,142.389,147.384,149.922,155.232,159.255,162.765,166.788,171.963,175.968,179.98999999999998,185.13,188.406,192.78,201.213,208.17,211.445,216.594,220.752,225.927,230.92399999999998,236.07,240.615,245.16,252.315,257.463,263.754,266.981,272.124,278.604,282.627,286.137" y="628.684" svg_rhmargin="290.159" style="fill:#171615;font-family:XZHYCD+MinionPro-Regular;font-size:9.46px;font-style:NORMAL;font-weight:normal;">the standardized mean diﬀerence (SMD) and 95% CI were</text>
  <text x="44.829,48.861,53.019,55.413,59.418,64.44,66.834,70.992,73.881,77.904,82.899,85.057,87.642,90.873,96.05000000000001,98.631,102.789,107.784,112.779,115.317,118.206,120.744,125.568,130.743,132.90099999999998,135.486,141.966,145.988,148.572,152.73,155.124,158.598,163.425,166.005,170.01,174.834,182.583,187.389,189.927,195.102,199.125,204.122,206.712,210.717,215.541,219.051,222.561,226.584,228.978,233.136,236.025,238.563,243.387,248.564,251.145,255.15,259.974,263.988,271.539,275.544,278.082,282.105,287.28" y="640.141" svg_rhmargin="290.167" style="fill:#171615;font-family:XZHYCD+MinionPro-Regular;font-size:9.46px;font-style:NORMAL;font-weight:normal;">calculated. In addition, we also combined correlation coeﬃcient</text>
  <text x="44.829,48.105,51.615,54.89,60.381,65.403,68.877,71.415,76.59,81.019,86.517,89.055,94.23,98.613,102.636,106.083,109.557,113.57900000000001,119.07,123.444,127.602,131.112,133.65,137.808,142.983,146.988,151.01,156.492,164.241,168.264,171.189,176.247,181.071,186.06799999999998,191.556,195.705,199.17800000000003,204.669,208.179,212.202,217.161,221.985,225.495,228.384,232.407,237.404,242.901,247.707,251.721,254.52,259.344,262.854,266.876,272.376,275.652,280.197,284.733,288.009" y="651.598" svg_rhmargin="290.167" style="fill:#171615;font-family:XZHYCD+MinionPro-Regular;font-size:9.46px;font-style:NORMAL;font-weight:normal;">(r) using inverse variance method as reported before (14).</text>
  <text x="44.829,52.083,56.106,58.995,63.018,66.528,71.352,75.78,79.803,84.978,89.001,91.539,94.428,98.77199999999999,104.625,111.105,115.254,118.727,124.578,128.682,133.056,137.214,139.608,144.63,148.788,151.677,155.7,160.697,166.554,171.36,175.704,181.557,187.893,192.951" y="663.0550000000001" svg_rhmargin="195.487" style="fill:#171615;font-family:XZHYCD+MinionPro-Regular;font-size:9.46px;font-style:NORMAL;font-weight:normal;">Heterogeneity was evaluated by Chi</text>
  <text svg_rhmargin="198.942" x="195.489,198.942" y="663.0550000000001" style="fill:#171615;font-family:XZHYCD+MinionPro-Regular;font-size:7.19px;font-style:NORMAL;font-weight:normal;">2 </text>
  <text svg_rhmargin="238.727" x="205.299,208.188,212.193,215.667,218.554,224.397,228.555,233.73,238.72699999999998" y="663.0550000000001" style="fill:#171615;font-family:XZHYCD+MinionPro-Regular;font-size:9.46px;font-style:NORMAL;font-weight:normal;">test and </text>
  <text x="244.584" y="663.0550000000001" svg_rhmargin="247.755" style="fill:#171615;font-family:JUPOUJ+MinionPro-It;font-size:9.46px;font-style:NORMAL;font-weight:normal;">I</text>
  <text svg_rhmargin="251.628" x="248.175,251.62800000000001" y="663.0550000000001" style="fill:#171615;font-family:XZHYCD+MinionPro-Regular;font-size:7.19px;font-style:NORMAL;font-weight:normal;">2 </text>
  <text x="257.985,261.459,266.292,271.314,275.472,278.982,283.005,288.0" y="663.0550000000001" svg_rhmargin="290.158" style="fill:#171615;font-family:XZHYCD+MinionPro-Regular;font-size:9.46px;font-style:NORMAL;font-weight:normal;">squared.</text>
  <text x="44.829" y="674.512" svg_rhmargin="48.0" style="fill:#171615;font-family:JUPOUJ+MinionPro-It;font-size:9.46px;font-style:NORMAL;font-weight:normal;">I</text>
  <text svg_rhmargin="51.873" x="48.42,51.873000000000005" y="674.512" style="fill:#171615;font-family:XZHYCD+MinionPro-Regular;font-size:7.19px;font-style:NORMAL;font-weight:normal;">2 </text>
  <text svg_rhmargin="62.777" x="55.395,62.777" y="674.512" style="fill:#171615;font-family:OBAZBH+RMTMI;font-size:9.46px;font-style:NORMAL;font-weight:normal;">&gt; </text>
  <text svg_rhmargin="93.376" x="65.79,70.335,74.88,82.035,85.041,89.865,93.37599999999999" y="674.512" style="fill:#171615;font-family:XZHYCD+MinionPro-Regular;font-size:9.46px;font-style:NORMAL;font-weight:normal;">50% or </text>
  <text svg_rhmargin="101.633" x="96.39,101.633" y="674.512" style="fill:#171615;font-family:JUPOUJ+MinionPro-It;font-size:9.46px;font-style:NORMAL;font-weight:normal;">P </text>
  <text svg_rhmargin="112.178" x="104.796,112.17800000000001" y="674.512" style="fill:#171615;font-family:OBAZBH+RMTMI;font-size:9.46px;font-style:NORMAL;font-weight:normal;">&lt; </text>
  <text x="115.191,119.736,121.896,126.43900000000001,129.447,132.957,136.98,141.939,145.449,149.454,152.928,156.951,162.126,165.015,169.038,174.03500000000003,177.048,180.522,185.544,190.341,193.815,196.758,200.916,206.091,208.98,211.518,215.676,218.07,221.086,226.144,230.167,233.056,237.079,240.589,245.413,249.841,253.864,259.039,263.062,265.6,268.489,272.83299999999997,275.842,280.0,285.175" y="674.512" svg_rhmargin="290.172" style="fill:#171615;font-family:XZHYCD+MinionPro-Regular;font-size:9.46px;font-style:NORMAL;font-weight:normal;">0.1 represented substantial heterogeneity and</text>
  <text x="44.829,48.339,52.497,57.672,62.667,67.491,75.242,79.875,83.889,89.199,93.276,97.281,100.17,103.643,108.261,116.01,120.834,125.829,129.852,132.246,136.881,143.361,147.51,150.983,155.601,159.552,164.61,169.434,174.258,177.732,181.755,186.932,191.556,196.578,201.753,206.748,210.771,214.28199999999998,218.916,221.841,226.899,229.437,232.91000000000003,237.528,241.533,244.071,247.455,251.46,256.482,264.231,267.705,270.648,274.806,279.981,283.986,288.009" y="685.969" svg_rhmargin="290.167" style="fill:#171615;font-family:XZHYCD+MinionPro-Regular;font-size:9.46px;font-style:NORMAL;font-weight:normal;">random eﬀects model was choosen under this circumstance.</text>
  <text x="44.829,51.903,54.828,59.886,63.909,67.419,73.899,76.437,79.911,83.88,86.038,88.317,93.384,97.848,101.871,106.868,109.152,113.166,118.476,122.553,126.558,129.447,132.92000000000002,135.207,142.956,147.78,152.775,156.798,159.192,161.487,167.967,172.116,175.58900000000003,177.876,182.898,185.787,188.325,190.719,193.257,197.235,201.258,206.253,208.41099999999997,210.69,213.921,216.72199999999998,219.006,224.064,226.602,231.084,236.138,238.419,243.477,247.5,250.389,254.412,257.922,262.746,267.174,271.197,276.373,280.396,282.934,285.823" y="697.426" svg_rhmargin="290.167" style="fill:#171615;font-family:XZHYCD+MinionPro-Regular;font-size:9.46px;font-style:NORMAL;font-weight:normal;">Otherwise, ﬁxed eﬀects model was utilized. If high heterogeneity</text>
  <text x="44.829,48.834,53.298,55.836,59.31,62.199,66.222,71.163,73.321,76.221,79.695,84.717,89.514,93.942,97.452,102.276,107.298,112.257,115.173,119.331,124.506,129.503,132.399,140.148,144.171,147.114,151.269,154.17,157.68,161.712,166.14,169.65,173.655,177.084,180.558,183.096,187.92,193.09699999999998,195.993,200.151,205.326,209.484,211.879,216.226,219.7,222.238,225.711,228.601,235.081,239.23,242.703,245.601,249.633,253.792,257.301,260.811,263.349,267.372,272.369,275.266,280.089,285.111,288.0" y="708.883" svg_rhmargin="290.158" style="fill:#171615;font-family:XZHYCD+MinionPro-Regular;font-size:9.46px;font-style:NORMAL;font-weight:normal;">existed, subgroup and meta regression analysis was carried out.</text>
  <text x="44.829,49.311,53.334,58.509,61.983,64.521,67.41,69.948,74.331,76.869,79.758,84.10199999999999,86.769,90.927,96.102,100.26,102.654,107.001,110.475,113.013,116.486,119.142,125.622,129.771,133.244,135.918,140.076,142.47,145.944,150.771,153.432,158.427,163.251,168.426,172.44799999999998,175.131,179.937,184.281,186.948,190.458,194.481,202.23,207.054,211.437,213.975,219.15,223.579,226.251,229.176,234.234,238.256,240.921,244.395,247.284,252.306,257.301,261.645,264.321,269.145,274.32,278.342,281.016,285.822" y="720.34" svg_rhmargin="290.166" style="fill:#171615;font-family:XZHYCD+MinionPro-Regular;font-size:9.46px;font-style:NORMAL;font-weight:normal;">Sensitivity analysis was also done by removing the study one by</text>
  <text svg_rhmargin="290.167" x="44.829,49.653,54.828,58.797,60.955,63.297,66.771,73.251,75.789,78.624,82.575,87.633,90.171,95.346,99.775,102.105,106.119,111.429,115.506,119.511,122.4,125.873,128.205,135.954,140.778,145.773,149.796,152.19,154.539,158.697,163.872,168.86900000000003,171.207,175.212,179.595,183.546,188.577,192.735,197.91,202.338,204.876,210.051,214.48,216.801,221.625,224.426,226.772,230.246,233.19,237.348,240.237,242.775,246.249,249.138,251.676,255.708,259.866,262.26,264.581,268.955,273.114,275.508,280.53,284.535,288.009,290.16700000000003" y="90.20500000000004" style="fill:#171615;font-family:XZHYCD+MinionPro-Regular;font-size:9.46px;font-style:NORMAL;font-weight:normal;">one, switching eﬀects model and exchanging of statistical values. </text>
  <text x="305.11,310.942,316.0,320.022,323.236,328.195,333.217,338.023,340.417,342.955,346.987,351.145,354.034,356.572,361.396,366.57300000000004,369.793,374.599,377.137,381.286,384.759,387.973,394.453,398.602,402.075,405.298,409.303,412.777,415.666,418.204,425.953,430.111,433.0,437.023,442.02000000000004,445.222,450.028,454.372,457.597,462.899,467.381,471.809,475.832,479.198,480.431,483.904,487.127,490.016,494.021,497.495,500.382,503.597,507.755,512.93,517.9269999999999,521.147,523.946,528.968,534.143,539.318,543.341,545.735,546.968" y="90.20500000000004" svg_rhmargin="550.441" style="fill:#171615;font-family:XZHYCD+MinionPro-Regular;font-size:9.46px;font-style:NORMAL;font-weight:normal;">The publication bias was estimated by Egger’s test and funnel’s</text>
  <text svg_rhmargin="394.03" x="305.11,310.069,312.463,317.287,320.174,323.623,326.161,328.962,332.416,334.954,340.129,344.134,346.528,351.55,356.545,360.568,365.565,369.01,373.969,378.127,383.087,387.11,390.557,394.03000000000003" y="101.66200000000003" style="fill:#171615;font-family:XZHYCD+MinionPro-Regular;font-size:9.46px;font-style:NORMAL;font-weight:normal;">plot if included papers </text>
  <text x="397.477" y="101.66200000000003" svg_rhmargin="404.613" style="fill:#171615;font-family:YEJVYS+MTSY;font-size:9.46px;font-style:NORMAL;font-weight:normal;">≥</text>
  <text x="404.614,409.159,413.702,417.151,421.291,425.305,429.31,434.134,437.644,442.639,445.177,450.352,454.78099999999995,458.227,461.116,465.943,469.387,475.678,480.502,484.453,489.511,493.021,497.179,502.354,506.376,509.824,514.855,519.013,524.188,529.138,533.944,538.768,543.592,548.29" y="101.66200000000003" svg_rhmargin="550.448" style="fill:#171615;font-family:XZHYCD+MinionPro-Regular;font-size:9.46px;font-style:NORMAL;font-weight:normal;">10 according to Cochrane handbook.</text>
  <text x="305.11,311.653,314.047,316.44100000000003,320.383,323.857,326.8,330.958,333.847,336.385,339.859,342.748,345.286,349.318,353.476,355.87,359.803,363.961,369.136,373.294,375.689,380.036,383.51,386.048,389.521,393.455,398.279,401.08,405.029,407.954,413.012,415.55,419.023,422.966,430.715,434.738,437.681,441.839,445.205,449.363,454.538,458.696,461.09,465.437,468.91,471.448,474.921,478.855,485.335,489.484,492.957,496.909,501.868,505.891,509.437,512.236,517.06,520.57,528.319,532.342,537.3389999999999,541.297,546.104" y="113.11900000000003" svg_rhmargin="550.448" style="fill:#171615;font-family:XZHYCD+MinionPro-Regular;font-size:9.46px;font-style:NORMAL;font-weight:normal;">All statistical analysis of this meta-analysis was performed by</text>
  <text x="305.11,309.592,312.535,316.693,319.636,323.791,326.305,330.688,334.711,338.158,341.632,344.17,348.994,354.17100000000005,356.68,361.225,365.77,367.93,372.473,374.977,378.253,382.735,385.678,389.836,392.779,396.937,403.228,408.052,411.562,416.521,419.033,424.127,428.141,430.29900000000004,432.812,439.103,443.927,446.321,448.715,452.747,457.175,461.197,463.718,468.2,471.143,475.301,478.19,480.728,485.552,490.727,492.885,495.398,501.482,507.674,509.832,512.336,519.302,523.784,530.327,533.602,536.114,540.272,545.447" y="124.57600000000002" svg_rhmargin="550.444" style="fill:#171615;font-family:XZHYCD+MinionPro-Regular;font-size:9.46px;font-style:NORMAL;font-weight:normal;">Stata version 12.0 (StataCorp LP, College Station, TX, USA) and</text>
  <text x="305.11,310.987,313.138,316.612,321.436,324.235,327.124,333.604,337.762,341.272,345.294,347.446,350.722,355.78,358.669,361.558,366.517,369.991,372.151,375.283,378.415,384.895,391.375,397.855,400.015,403.31,407.171,412.13,415.64,420.464,422.885,426.962,430.967,433.856,436.016,440.84,444.278,448.706,451.838,455.114" y="136.03200000000004" svg_rhmargin="457.272" style="fill:#171615;font-family:XZHYCD+MinionPro-Regular;font-size:9.46px;font-style:NORMAL;font-weight:normal;">R software (https://www.r-project.org/).</text>
  <text x="305.11,313.741,321.49,329.247,338.103,343.872,351.18" y="163.66200000000003" svg_rhmargin="358.939" style="fill:#171615;font-family:IUMUOI+HelveticaNeueLTStd-Bd;font-size:11.96px;font-style:NORMAL;font-weight:normal;">RESULTS</text>
  <text x="305.11,312.868,319.726,326.583,331.02,337.878,344.967,348.3,356.931,363.789,370.206,377.298,380.385,384.597,391.017,394.344,401.202,408.294,415.599,418.923,426.681,430.893,437.985,445.293,451.498,454.815,463.671,470.763,477.621,482.274,489.132,495.99,500.202,507.06,511.713,514.8,521.217,525.429,528.516,535.374" y="182.09400000000005" svg_rhmargin="541.794" style="fill:#171615;font-family:IUMUOI+HelveticaNeueLTStd-Bd;font-size:11.96px;font-style:NORMAL;font-weight:normal;">Search Results and Study Characteristics</text>
  <text x="305.11,311.65000000000003,316.054,318.943,323.767,326.71,330.868,333.262,337.654,342.478,345.279,349.687,354.232,358.777,363.32,367.723,371.881,375.391,378.28,380.818,384.823,387.217,391.221,394.694,399.087,405.567,409.59,413.1,417.122,421.525,424.999,429.022,431.416,435.492,439.497,442.386,446.409,451.406,455.805,459.945,463.959,467.964,472.788,476.298,481.293,483.831,489.006,493.43499999999995,497.835,500.724,505.551,509.958,512.883,517.941,521.9630000000001,526.356,529.83,533.899,538.057,541.441,545.392" y="193.65099999999995" svg_rhmargin="550.446" style="fill:#171615;font-family:XZHYCD+MinionPro-Regular;font-size:9.46px;font-style:NORMAL;font-weight:normal;">A total of 760 articles were selected according to the search</text>
  <text x="305.11,308.584,311.473,314.983,319.141,322.03,326.062,330.49,334.834,339.49,347.239,351.262,356.437,359.326,361.864,366.688,371.863,375.886,380.88300000000004,385.543,390.349,394.363,397.162,401.986,405.496,409.518,414.19" y="205.10699999999997" svg_rhmargin="417.465" style="fill:#171615;font-family:XZHYCD+MinionPro-Regular;font-size:9.46px;font-style:NORMAL;font-weight:normal;">strategy mentioned before (</text>
  <text x="417.466,422.614,425.404,430.057,435.313,439.138,443.274,445.33" y="205.10699999999997" svg_rhmargin="450.062" style="fill:#171615;font-family:WNCTVH+MinionPro-Bold;font-size:9.46px;font-style:NORMAL;font-weight:BOLD;">Figure 1</text>
  <text x="450.055,453.331,455.48900000000003,460.162,466.678,469.477,472.366,476.389,479.90000000000003,484.561,491.041,495.063,499.725,503.235,507.34,511.722,514.26,518.284,524.764,528.787,533.784,538.443,541.368,546.426" y="205.10699999999997" svg_rhmargin="550.448" style="fill:#171615;font-family:XZHYCD+MinionPro-Regular;font-size:9.46px;font-style:NORMAL;font-weight:normal;">). After we reviewed the</text>
  <text x="305.11,307.999,310.537,313.426,315.82,319.825,323.299,325.457,328.024,332.101,336.898,340.372,343.261,346.771,350.911,354.916,357.805,361.278,363.843,368.001,373.176,378.173,380.754,383.553,388.575,390.969,393.363,395.947,398.836,402.841,407.305,410.194,413.668,415.826,418.402,422.947,427.49,430.066,433.54,436.429,441.451,446.446,448.984,452.989,456.462,459.037,462.312,466.857,471.402,476.325,480.87,485.406,488.681,491.256,493.794,498.969,502.974,505.368,510.39,515.385,517.923,523.098,527.5269999999999,530.118,534.663,536.823,541.368,545.913" y="216.56500000000005" svg_rhmargin="550.456" style="fill:#171615;font-family:XZHYCD+MinionPro-Regular;font-size:9.46px;font-style:NORMAL;font-weight:normal;">titles, abstracts and full texts, 20 studies (15–34) including 2,866</text>
  <text x="305.109,310.437,317.39300000000003,319.419,324.379,328.537,331.426,333.964,337.987,343.161,346.051,349.524,351.55,355.708,360.883,365.88,367.903,372.448,374.608,379.153,383.698,388.241,390.259,394.264,399.088,404.263,407.152,410.662,415.486,417.88,421.353,423.388,431.137,435.16,438.047,440.073,444.898,449.919,453.43,455.463,458.001,463.176,467.181,469.575,474.597,478.071,480.609,485.433,490.61,492.642,496.647,500.157,502.695,505.584,509.607,513.117,515.655,519.813,521.971,523.989,528.993,531.531,534.33,537.219,541.242,545.265" y="228.02200000000005" svg_rhmargin="550.442" style="fill:#171615;font-family:XZHYCD+MinionPro-Regular;font-size:9.46px;font-style:NORMAL;font-weight:normal;">PD patients and 2,734 controls met our inclusion criteria. Fifteen</text>
  <text x="305.109,309.267,312.777,315.666,318.204,322.209,324.603,328.608,332.081,335.988,339.264,343.809,348.345,350.50300000000004,354.42,358.965,363.51,368.433,372.978,377.514,379.672,383.589,388.134,392.67,394.82800000000003,398.745,403.29,407.835,412.758,417.303,421.839,423.997,427.914,432.459,436.995,439.153,443.07,447.615,452.16,454.31800000000004,458.226,462.771,467.316,472.239,476.784,481.32,484.59499999999997,488.511,493.47,496.98,501.804,506.187,508.725,513.72,517.743,522.74,526.663,530.137,534.16,537.67,542.692" y="239.47900000000004" svg_rhmargin="550.443" style="fill:#171615;font-family:XZHYCD+MinionPro-Regular;font-size:9.46px;font-style:NORMAL;font-weight:normal;">articles (15, 17–19, 21, 23–26, 28, 29, 31–34) provided serum</text>
  <text x="305.109,309.654,314.199,317.475,324.549,331.803,335.079,342.035,344.376,346.77,350.874,355.257,359.28,361.674,365.147,367.515,372.339,375.14,377.496,382.824,389.78000000000003,392.139,397.098,401.256,404.145,406.683,410.706,415.881,418.77,422.243,424.593,428.598,433.422,441.171,446.13,450.288,453.798,457.821,462.81800000000004,465.183,471.663,474.201,477.126,482.17999999999995,484.542,487.467,492.525,497.349,500.823,504.84499999999997,507.195,512.019,514.82,517.185,521.19,526.014,531.189,534.078,537.588,542.412,544.806,548.28" y="250.93600000000004" svg_rhmargin="550.438" style="fill:#171615;font-family:XZHYCD+MinionPro-Regular;font-size:9.46px;font-style:NORMAL;font-weight:normal;">25(OH)D levels of PD patients compared with those of controls.</text>
  <text x="305.109,309.591,313.695,318.078,322.101,327.278,329.157,331.695,336.87,340.875,343.269,348.291,353.286,357.309,362.30600000000004,364.194,368.352,371.862,374.751,377.289,381.294,383.688,387.693,391.166,393.03,396.306,400.851,405.396,407.55400000000003,409.428,413.973,418.509,420.66700000000003,422.55,427.095,431.631,433.789,435.672,440.217,444.753,446.911,448.785,453.33,457.875,462.798,467.343,471.879,475.154,477.036,481.194,486.369,490.527,492.921,497.268,501.246,505.269,510.266,512.127,516.51,519.048,521.991,526.149,533.898,536.436,541.613,543.483" y="262.39300000000003" svg_rhmargin="550.439" style="fill:#171615;font-family:XZHYCD+MinionPro-Regular;font-size:9.46px;font-style:NORMAL;font-weight:normal;">Seven included articles (17, 18, 21, 29, 31–33) analyzed vitamin D</text>
  <text x="305.109,307.647,312.822,316.296,321.318,328.869,332.874,335.412,339.435,344.61,348.615,352.959,355.41,360.216,364.239,367.128,373.608,377.631,381.654,386.831,389.268,394.596,401.552,404.001,408.96,413.118,416.007,418.545,422.568,427.743,430.632,434.105,436.545,440.703,445.878,450.875,453.312,457.317,462.141,467.316,470.205,473.715,478.539,480.933,484.407,486.565,489.015,495.495,500.553,503.091,505.485,509.507,511.947,516.492,521.035,523.476,527.634,531.144,534.033,536.571,540.576,542.97,546.975" y="273.85" svg_rhmargin="550.448" style="fill:#171615;font-family:XZHYCD+MinionPro-Regular;font-size:9.46px;font-style:NORMAL;font-weight:normal;">insuﬃciency between PD patients and controls, while 10 articles</text>
  <text x="305.109,308.385,312.93,317.466,322.389,326.934,331.479,333.637,336.717,341.262,345.807,347.96500000000003,351.045,355.59,360.126,362.284,365.373,369.918,374.454,376.612,379.701,384.246,388.782,390.94,394.02,398.565,403.11,406.385,409.464,413.613,417.042,420.516,424.521,427.949,431.423,435.446,440.44300000000004,443.519,447.902,450.44,453.383,457.541,465.29,467.828,473.005,476.081,483.03700000000003,486.116,491.111,495.125,500.192,504.197,506.735,510.758,515.933,519.938,524.282,527.363,529.901,535.078,538.154,543.482" y="285.307" svg_rhmargin="550.438" style="fill:#171615;font-family:XZHYCD+MinionPro-Regular;font-size:9.46px;font-style:NORMAL;font-weight:normal;">(17–21, 28, 29, 31, 33, 34) assessed vitamin D deﬁciency in PD</text>
  <text x="305.109,310.068,314.226,317.115,319.653,323.676,328.851,331.74,335.213,337.437,341.442,346.266,354.015,358.975,363.133,366.643,370.666,375.663,377.902,384.382,386.92,389.845,394.899,397.126,401.131,405.955,411.13,414.019,417.529,422.353,424.747,428.221,430.379,432.622,437.104,439.642,444.109,446.338,448.876,454.051,458.056,460.45,465.472,470.467,474.49,479.487,481.725,486.685,490.843,495.802,499.825,503.272,506.745,508.978,512.253,516.798,521.334,523.492,525.726,530.271,534.807,536.965,539.199,543.744,548.289" y="296.764" svg_rhmargin="550.447" style="fill:#171615;font-family:XZHYCD+MinionPro-Regular;font-size:9.46px;font-style:NORMAL;font-weight:normal;">patients compared with controls. Six included papers (16, 17, 19,</text>
  <text x="305.109,309.654,314.199,316.357,319.545,324.09,328.635,330.793,333.981,338.526,343.071,346.346,349.533,353.637,358.011,362.169,364.563,369.585,373.743,376.632,380.655,385.652,388.845,391.77,396.828,400.84999999999997,404.037,408.186,411.615,415.089,419.913,423.918,426.456,430.614,433.503,436.041,440.865,446.04200000000003,449.226,454.032,458.055,460.944,467.424,471.447,475.47,480.64700000000005,483.84,487.314,491.337,494.847,499.869,507.62,510.813,515.196,517.734,520.677,524.835,532.584,535.122,540.299,543.482" y="308.221" svg_rhmargin="550.438" style="fill:#6d6d6c;font-family:XZHYCD+MinionPro-Regular;font-size:9.46px;font-style:NORMAL;font-weight:normal;">25, 26, 30) evaluated the association between serum vitamin D</text>
  <text x="305.109,307.503,311.607,315.99,320.013,322.407,325.88,329.454,333.612,338.787,343.784,347.346,350.271,355.329,359.351,362.916,366.39,370.494,374.877,378.9,382.41,384.948,387.837,392.181,395.739,400.563,403.364,406.935,412.263,419.22,421.37800000000004,424.944,431.487,434.374,437.94,440.334,444.483,447.957,450.855,453.01300000000003,456.57,461.113,464.679,468.684,472.113,475.641,479.799,484.146,487.619,491.184,494.46,499.005,503.541,505.699,509.265,513.81,518.355,520.513,524.079,528.624,533.16,538.083,542.628,547.173" y="319.678" svg_rhmargin="550.448" style="fill:#171615;font-family:XZHYCD+MinionPro-Regular;font-size:9.46px;font-style:NORMAL;font-weight:normal;">levels and the severity of PD. At last, 6 essays (19, 22, 25–28)</text>
  <text x="305.109,311.589,315.612,319.122,323.144,326.736,329.274,334.269,338.292,343.467,346.356,348.894,353.961,357.984,362.981,366.552,369.351,374.175,377.68600000000004,381.276,385.281,389.745,394.704,397.098,401.922,405.432,407.97,413.145,417.57399999999996,421.164,424.089,429.147,433.169,436.752,440.757,445.581,449.091,452.601,456.624,459.018,463.176,466.065,468.603,472.986,477.008,480.582,483.39,487.529,491.534,494.423,499.247,502.694,506.16700000000003,509.75,514.574,517.375,520.964,525.347,527.885,530.828,534.986,542.735,545.273" y="331.135" svg_rhmargin="550.45" style="fill:#171615;font-family:XZHYCD+MinionPro-Regular;font-size:9.46px;font-style:NORMAL;font-weight:normal;">were identiﬁed for exploring the correlative factors of vitamin</text>
  <text x="305.109,311.688,313.846,316.476,319.014,324.189,328.194,330.588,335.61,340.605,343.143,348.318,352.74699999999996,355.392,362.646,369.378,375.378,378.009,381.483,384.426,388.53,392.958,396.963,400.437,402.595,405.216,412.182,417.51,424.467,430.344,434.83,437.472,440.703,443.934,447.161,449.784,453.321,457.326,462.15,465.66,469.665,473.139,475.297,477.937,482.04,486.468,490.49,493.119,497.943,500.74399999999997,503.379,508.339,512.497,515.386,517.924,521.947,527.122,530.011,533.4839999999999,536.112,540.27,545.445" y="342.592" svg_rhmargin="550.442" style="fill:#171615;font-family:XZHYCD+MinionPro-Regular;font-size:9.46px;font-style:NORMAL;font-weight:normal;">D, including H&amp;Y stages, UPDRS III scores, age of patients and</text>
  <text x="305.109,310.104,312.642,316.116,320.184,324.333,327.807,331.829,333.972,338.967,343.989,347.499,351.657,354.546,357.084,361.908,367.083" y="354.049" svg_rhmargin="369.241" style="fill:#171615;font-family:XZHYCD+MinionPro-Regular;font-size:9.46px;font-style:NORMAL;font-weight:normal;">disease duration.</text>
  <text x="305.109,312.867,319.725,324.378,331.47,342.30100000000004,345.627,353.16,356.247,360.459,367.317,378.144,381.231,388.32,391.644,400.503,403.821,410.913,417.771,423.99,430.848,433.935,440.355,443.681,446.768,453.85699999999997,457.181,465.155,474.01399999999995,477.333,485.307,492.165,496.377,499.464,506.322,513.414,517.625" y="376.693" svg_rhmargin="524.045" style="fill:#171615;font-family:IUMUOI+HelveticaNeueLTStd-Bd;font-size:11.96px;font-style:NORMAL;font-weight:normal;">Serum Vitamin D Levels in PD Patients</text>
  <text x="305.109,310.113,312.651,315.45,318.339,322.362,326.385,331.562,335.241,338.715,341.604,346.626,351.621,354.159,358.164,361.637,365.319,368.595,373.14,377.685,379.843,383.526,388.071,392.607,397.53,402.075,406.611,408.769,412.452,416.997,421.542,423.7,427.383,431.928,436.464,441.387,445.932,450.468,452.62600000000003,456.309,460.854,465.399,467.557,471.24,475.785,480.321,482.47900000000004,486.162,490.707,495.243,500.166,504.711,509.256,512.531,516.213,521.172,524.682,529.506,533.889,536.427,541.422,545.445" y="388.249" svg_rhmargin="550.442" style="fill:#171615;font-family:XZHYCD+MinionPro-Regular;font-size:9.46px;font-style:NORMAL;font-weight:normal;">Fifteen studies (15, 17–19, 21, 23–26, 28, 29, 31–34) provided</text>
  <text x="305.109,310.122,314.28,317.223,321.378,323.865,328.689,331.49,333.981,337.455,341.478,344.988,350.01,357.76099999999997,360.252,364.635,367.173,370.116,374.274,382.023,384.561,389.738,392.211,399.16700000000003,401.661,404.055,408.159,412.542,416.565,418.959,422.432,424.917,429.723,433.746,436.635,443.115,447.138,451.161,456.338,458.82,464.148,471.10400000000004,473.598,478.558,482.716,485.605,488.143,492.166,497.34,500.229,503.702,506.178" y="399.706" svg_rhmargin="509.453" style="fill:#171615;font-family:XZHYCD+MinionPro-Regular;font-size:9.46px;font-style:NORMAL;font-weight:normal;">data of serum vitamin D levels between PD patients (</text>
  <text svg_rhmargin="514.49" x="509.455,514.49" y="399.706" style="fill:#171615;font-family:JUPOUJ+MinionPro-It;font-size:9.46px;font-style:NORMAL;font-weight:normal;">n </text>
  <text svg_rhmargin="524.352" x="516.97,524.352" y="399.706" style="fill:#171615;font-family:YEJVYS+MTSY;font-size:9.46px;font-style:NORMAL;font-weight:normal;">= </text>
  <text x="526.843,531.388,533.548,538.093,542.638,547.183" y="399.706" svg_rhmargin="550.458" style="fill:#171615;font-family:XZHYCD+MinionPro-Regular;font-size:9.46px;font-style:NORMAL;font-weight:normal;">2,436)</text>
  <text x="305.109,309.267,314.442,319.439,323.244,327.348,331.776,335.798,339.597,347.346,351.504,354.339,358.29,363.348,367.371,372.368,376.155,380.16,384.984,390.159,393.048,396.558,401.382,403.776,407.249,411.057" y="411.163" svg_rhmargin="414.332" style="fill:#171615;font-family:XZHYCD+MinionPro-Regular;font-size:9.46px;font-style:NORMAL;font-weight:normal;">and age matched controls (</text>
  <text svg_rhmargin="419.368" x="414.333,419.36800000000005" y="411.163" style="fill:#171615;font-family:JUPOUJ+MinionPro-It;font-size:9.46px;font-style:NORMAL;font-weight:normal;">n </text>
  <text svg_rhmargin="430.553" x="423.171,430.553" y="411.163" style="fill:#171615;font-family:YEJVYS+MTSY;font-size:9.46px;font-style:NORMAL;font-weight:normal;">= </text>
  <text x="434.349,438.894,441.054,445.599,450.144,454.689,457.965,460.123,463.923,473.112,477.134,480.942,485.766,490.941,493.335,497.679,501.489,504.027,509.202,513.207,515.601,520.623,525.618,529.641,534.6379999999999,538.442,541.367,546.425" y="411.163" svg_rhmargin="550.447" style="fill:#171615;font-family:XZHYCD+MinionPro-Regular;font-size:9.46px;font-style:NORMAL;font-weight:normal;">2,567). We only included the</text>
  <text x="305.109,310.068,314.226,319.186,323.209,326.72,331.074,337.554,340.092,343.017,348.07099999999997,352.423,355.348,360.406,364.428,368.785,376.534,381.358,384.832,387.719,392.077,396.082,400.906,408.655,413.614,416.008,420.031,422.92,426.942,431.299,436.294,440.299,443.836,447.841,451.351,453.889,458.849,461.737,464.275,469.099,474.276,478.631,483.455,486.256,490.618,495.631,499.789,502.733,506.888,511.238,514.512,519.057,523.602,526.877,531.234,534.708,537.246,542.421,546.426" y="422.62" svg_rhmargin="550.448" style="fill:#171615;font-family:XZHYCD+MinionPro-Regular;font-size:9.46px;font-style:NORMAL;font-weight:normal;">paper with the most complete description of data (23) since</text>
  <text x="305.109,307.908,312.732,317.754,321.26500000000004,325.899,330.858,335.016,339.976,343.999,347.446,350.91900000000004,355.537,360.568,364.726,369.723,374.347,377.272,382.33,386.352,390.97,394.498,398.656,406.405,410.42699999999996,415.054,420.121,423.568,427.042,429.929,434.548,438.706,443.728,446.653,451.711,456.535,459.901,461.134,464.607,469.234,474.409,478.567,486.315,490.337,494.964,498.24,502.75,506.908,509.797,514.624,519.246,525.267,528.542,533.16,536.436,540.981,545.526" y="434.077" svg_rhmargin="550.448" style="fill:#171615;font-family:XZHYCD+MinionPro-Regular;font-size:9.46px;font-style:NORMAL;font-weight:normal;">four papers had the same ﬁrst author’s name (Sato Y) (23–</text>
  <text x="305.109,309.654,314.199,317.475,319.63300000000004,322.695,329.769,334.791,338.302,341.361,344.871,348.876,352.35,357.372,359.766,362.655,366.128,369.18,372.609,377.667,382.491,388.971,392.994,397.99100000000004,401.049,403.974,409.005,413.163,416.05,419.103,422.028,427.086,431.108,434.16,437.634,441.657,445.167,450.189,457.94,460.997,465.38,467.918,470.861,475.019,482.768,485.306,490.483,493.541,500.497,503.559,505.953,510.057,514.44,518.463,520.857,524.3299999999999,527.391,529.929,535.106,538.155,543.482" y="445.534" svg_rhmargin="550.438" style="fill:#6d6d6c;font-family:XZHYCD+MinionPro-Regular;font-size:9.46px;font-style:NORMAL;font-weight:normal;">26). Our results showed that the serum vitamin D levels in PD</text>
  <text x="305.109,310.069,314.227,317.116,319.654,323.677,328.852,331.741,335.214,338.392,344.872,348.895,352.405,356.42699999999996,359.622,363.096,365.634,370.062,375.237,377.775,382.842,386.874,391.032,396.207,399.096,401.49,405.834,409.014,411.408,416.232,422.712,426.735,430.24600000000004,433.44,436.365,441.396,445.554,450.731,453.915,456.84,461.898,466.722,470.196,474.218,477.396,479.934,485.11100000000005,488.304,492.309,497.133,502.308,505.197,508.707,513.531,515.925,519.3979999999999,522.594,525.87,535.059,543.491" y="456.991" svg_rhmargin="550.447" style="fill:#171615;font-family:XZHYCD+MinionPro-Regular;font-size:9.46px;font-style:NORMAL;font-weight:normal;">patients were signiﬁcantly lower than those in controls (WMD</text>
  <text x="305.109" y="468.448" svg_rhmargin="312.491" style="fill:#171615;font-family:YEJVYS+MTSY;font-size:9.46px;font-style:NORMAL;font-weight:normal;">−</text>
  <text svg_rhmargin="359.366" x="312.489,317.034,319.194,323.739,328.284,330.442,333.603,338.148,342.693,349.849,356.139,359.366" y="468.448" style="fill:#171615;font-family:XZHYCD+MinionPro-Regular;font-size:9.46px;font-style:NORMAL;font-weight:normal;">5.64, 95%CI </text>
  <text x="362.538" y="468.448" svg_rhmargin="369.92" style="fill:#171615;font-family:YEJVYS+MTSY;font-size:9.46px;font-style:NORMAL;font-weight:normal;">−</text>
  <text svg_rhmargin="387.872" x="369.918,374.464,376.624,381.169,385.714,387.872" y="468.448" style="fill:#171615;font-family:XZHYCD+MinionPro-Regular;font-size:9.46px;font-style:NORMAL;font-weight:normal;">8.65, </text>
  <text x="391.033" y="468.448" svg_rhmargin="398.415" style="fill:#171615;font-family:YEJVYS+MTSY;font-size:9.46px;font-style:NORMAL;font-weight:normal;">−</text>
  <text x="398.413,402.958,405.118,409.663,414.208,417.484,419.642,422.812,429.292,434.35,436.888,440.839,445.893,449.056,454.087,458.245,463.242,466.399,474.148,478.306,481.816,486.514,490.537,495.534,498.7,503.758,507.781,510.67,514.693,518.203,523.027,527.455,531.478,536.653,540.676,543.214,546.103" y="468.448" svg_rhmargin="550.447" style="fill:#171615;font-family:XZHYCD+MinionPro-Regular;font-size:9.46px;font-style:NORMAL;font-weight:normal;">2.62), which had marked heterogeneity</text>
  <text x="305.109" y="479.905" svg_rhmargin="308.384" style="fill:#171615;font-family:XZHYCD+MinionPro-Regular;font-size:9.46px;font-style:NORMAL;font-weight:normal;">(</text>
  <text x="308.385" y="479.905" svg_rhmargin="311.556" style="fill:#171615;font-family:JUPOUJ+MinionPro-It;font-size:9.46px;font-style:NORMAL;font-weight:normal;">I</text>
  <text svg_rhmargin="315.429" x="311.976,315.429" y="479.905" style="fill:#171615;font-family:XZHYCD+MinionPro-Regular;font-size:7.19px;font-style:NORMAL;font-weight:normal;">2 </text>
  <text svg_rhmargin="327.224" x="319.842,327.224" y="479.905" style="fill:#171615;font-family:YEJVYS+MTSY;font-size:9.46px;font-style:NORMAL;font-weight:normal;">= </text>
  <text x="331.137,335.682,340.227,342.387,346.932,354.087,357.363,359.521,363.43,368.434,373.456,376.966,379.891,384.949,388.972,392.483,396.396,404.145,408.168,411.111,415.26599999999996,419.175,421.974,426.996,432.171,437.346,441.369,443.76300000000003,447.687,451.197,455.202,458.676,462.744,466.902,470.286,474.238,479.292,483.193,485.992,490.816,495.838,501.013,506.01,509.932,512.857,517.915,521.937,525.844,528.643,533.665,538.84,544.015,548.038" y="479.905" svg_rhmargin="550.433" style="fill:#171615;font-family:XZHYCD+MinionPro-Regular;font-size:9.46px;font-style:NORMAL;font-weight:normal;">98.6%). Further meta funnel research found the funnel</text>
  <text x="305.109,310.069,312.463,317.287,320.174,323.569,330.049,334.197,337.67,341.065,345.214,348.688,353.035,360.784,368.533,372.556,375.445,378.955,381.493,385.496,388.881,393.039,398.214,403.211,406.612,409.537,414.595,418.617,422.001,425.475,428.364,433.386,438.381,442.72499999999997,446.121,450.945,453.746,457.146,461.655,465.813,468.702,473.529,476.919,480.942,483.829,487.224,491.382,493.776,495.934,499.329,502.605,507.15,511.695,514.97,518.355,523.35,527.454,531.837,534.375,538.533,541.422,545.445" y="491.362" svg_rhmargin="550.442" style="fill:#171615;font-family:XZHYCD+MinionPro-Regular;font-size:9.46px;font-style:NORMAL;font-weight:normal;">plot was asymmetric and the study of Sato et al. (23) deviated</text>
  <text x="305.109,312.858,317.88,321.831,326.885,329.805,332.604,336.114,340.938,348.68899999999996,351.621,354.159,357.048,359.206,362.133,368.649,371.448,374.337,378.36,381.87100000000004,384.786,391.266,395.288,398.214,401.724,405.747,413.496,418.32,422.703,426.726,431.723,434.646,437.571,442.629,445.167,448.64,451.557,455.031,457.92,462.942,467.937,472.284,474.442,477.36,482.418,487.242,493.722,497.826,502.209,506.232,509.139,511.297,514.224,517.149,522.207,526.229,529.146,532.656,536.661,540.135,545.157,547.551" y="502.819" svg_rhmargin="550.438" style="fill:#171615;font-family:XZHYCD+MinionPro-Regular;font-size:9.46px;font-style:NORMAL;font-weight:normal;">much from it. After we removed this study, however, the result</text>
  <text svg_rhmargin="392.201" x="305.109,310.104,312.642,317.639,319.995,325.17,329.994,332.88100000000003,335.241,339.192,344.223,348.381,353.556,357.984,362.006,364.347,367.623,376.812,385.245,392.201" y="514.2760000000001" style="fill:#171615;font-family:XZHYCD+MinionPro-Regular;font-size:9.46px;font-style:NORMAL;font-weight:normal;">did not change (WMD </text>
  <text x="394.551" y="514.2760000000001" svg_rhmargin="401.933" style="fill:#171615;font-family:YEJVYS+MTSY;font-size:9.46px;font-style:NORMAL;font-weight:normal;">−</text>
  <text svg_rhmargin="447.998" x="401.931,406.476,408.636,413.181,417.726,419.884,422.235,426.78,431.325,438.48,444.771,447.998" y="514.2760000000001" style="fill:#171615;font-family:XZHYCD+MinionPro-Regular;font-size:9.46px;font-style:NORMAL;font-weight:normal;">3.96, 95%CI </text>
  <text x="450.351" y="514.2760000000001" svg_rhmargin="457.733" style="fill:#171615;font-family:YEJVYS+MTSY;font-size:9.46px;font-style:NORMAL;font-weight:normal;">−</text>
  <text svg_rhmargin="475.684" x="457.731,462.276,464.436,468.981,473.526,475.684" y="514.2760000000001" style="fill:#171615;font-family:XZHYCD+MinionPro-Regular;font-size:9.46px;font-style:NORMAL;font-weight:normal;">5.00, </text>
  <text x="478.026" y="514.2760000000001" svg_rhmargin="485.408" style="fill:#171615;font-family:YEJVYS+MTSY;font-size:9.46px;font-style:NORMAL;font-weight:normal;">−</text>
  <text svg_rhmargin="503.359" x="485.406,489.951,492.111,496.656,501.201,503.35900000000004" y="514.2760000000001" style="fill:#171615;font-family:XZHYCD+MinionPro-Regular;font-size:9.46px;font-style:NORMAL;font-weight:normal;">2.92, </text>
  <text x="505.71" y="514.2760000000001" svg_rhmargin="508.881" style="fill:#171615;font-family:JUPOUJ+MinionPro-It;font-size:9.46px;font-style:NORMAL;font-weight:normal;">I</text>
  <text svg_rhmargin="512.754" x="509.301,512.754" y="514.2760000000001" style="fill:#171615;font-family:XZHYCD+MinionPro-Regular;font-size:7.19px;font-style:NORMAL;font-weight:normal;">2 </text>
  <text svg_rhmargin="522.992" x="515.61,522.992" y="514.2760000000001" style="fill:#171615;font-family:YEJVYS+MTSY;font-size:9.46px;font-style:NORMAL;font-weight:normal;">= </text>
  <text x="525.348,529.893,534.438,536.598,541.143,548.298" y="514.2760000000001" svg_rhmargin="550.456" style="fill:#171615;font-family:XZHYCD+MinionPro-Regular;font-size:9.46px;font-style:NORMAL;font-weight:normal;">82.6%,</text>
  <text x="305.109,310.257,313.047,317.7,322.956,326.781,330.91700000000003,332.973" y="525.733" svg_rhmargin="337.705" style="fill:#171615;font-family:WNCTVH+MinionPro-Bold;font-size:9.46px;font-style:NORMAL;font-weight:BOLD;">Figure 2</text>
  <text x="337.707,340.983,343.141,348.489,354.33,359.157,364.491,368.496,372.96,377.919,380.313,385.137,388.647,392.669,398.016,400.941,405.999,410.021,415.35,420.408,422.946,427.428,432.48199999999997,437.814,442.872,446.895,449.784,453.807,457.317,462.141,466.569,470.592,475.767,479.79,482.328,485.217,489.564,491.72200000000004,497.061,499.986,505.044,509.066,514.395,517.869,522.891,527.688,532.116,535.626,540.45,545.472" y="525.733" svg_rhmargin="550.431" style="fill:#171615;font-family:XZHYCD+MinionPro-Regular;font-size:9.46px;font-style:NORMAL;font-weight:normal;">). To explore the high heterogeneity, the subgroup</text>
  <text x="305.109,309.267,314.442,318.6,320.994,325.341,328.815,331.353,334.826,339.12,343.944,346.745,351.045,355.194,358.623,362.151,366.309,370.653,374.949,382.698,386.721,389.646,394.704,399.528,404.496,407.969,412.264,418.744,422.892,426.365,430.669,434.674,439.498,444.673,449.668,454.69,458.695,461.584,465.607,470.602,472.76,477.081,480.312,483.199,487.494,491.499,496.323,501.345,503.74,508.737,513.037,517.042,521.506,524.395,527.905,531.928,539.677,543.7,546.094" y="537.19" svg_rhmargin="550.438" style="fill:#171615;font-family:XZHYCD+MinionPro-Regular;font-size:9.46px;font-style:NORMAL;font-weight:normal;">analysis of assay methods was conducted. It could extremely</text>
  <text x="305.109,309.114,313.578,318.537,320.931,325.089,327.627,332.80400000000003,334.503,337.428,342.486,346.508,348.21,351.684,356.509,361.531,364.914,368.919,372.941,374.652,379.476,382.277,383.976,389.034,393.057,395.946,399.969,403.479,408.303,412.731,416.754,421.929,425.952,428.49,431.379,435.726,437.884,439.587,448.776,452.798,454.5,458.658,461.052,464.525,469.352,471.051,474.525,477.413,482.436,487.43,489.969,493.991,498.988,500.688,503.613,508.671,512.693,514.395,517.869,522.891,527.688,532.116,535.626,540.45,545.472" y="548.6469999999999" svg_rhmargin="550.431" style="fill:#171615;font-family:XZHYCD+MinionPro-Regular;font-size:9.46px;font-style:NORMAL;font-weight:normal;">explain the source of heterogeneity. We also studied the subgroup</text>
  <text x="305.109,309.267,314.442,318.6,320.994,325.341,328.816,331.354,334.827,338.41,343.234,346.03499999999997,349.633,354.628,357.166,362.475,366.498,370.008,374.031,379.206,382.093,385.686,388.08,392.238,395.127,397.665,400.554,405.576,410.571,414.54,416.69800000000004,420.291,426.771,431.829,434.367,438.318,443.37199999999996,446.958,449.496,454.671,459.666,462.204,466.236,470.394,473.283,477.306,482.303,485.883,488.808,493.839,497.997,500.884,504.467,509.795,516.751,520.344,525.303,529.461,532.35,534.888,538.911,544.086,546.975" y="560.104" svg_rhmargin="550.448" style="fill:#171615;font-family:XZHYCD+MinionPro-Regular;font-size:9.46px;font-style:NORMAL;font-weight:normal;">analysis of diﬀerent latitude, which indicated that PD patients</text>
  <text svg_rhmargin="428.858" x="305.109,307.647,312.824,317.502,322.56,325.098,329.58,334.638,338.661,342.172,346.851,349.245,353.403,356.292,358.83,361.719,366.741,371.736,375.758,380.439,384.597,388.107,392.175,396.33,401.004,404.28,413.469,421.902,428.858" y="571.561" style="fill:#171615;font-family:XZHYCD+MinionPro-Regular;font-size:9.46px;font-style:NORMAL;font-weight:normal;">in higher latitude area (WMD </text>
  <text x="433.539" y="571.561" svg_rhmargin="440.921" style="fill:#171615;font-family:YEJVYS+MTSY;font-size:9.46px;font-style:NORMAL;font-weight:normal;">−</text>
  <text svg_rhmargin="489.308" x="440.919,445.464,447.624,452.169,456.714,458.872,463.545,468.09,472.635,479.79,486.081,489.308" y="571.561" style="fill:#171615;font-family:XZHYCD+MinionPro-Regular;font-size:9.46px;font-style:NORMAL;font-weight:normal;">4.20, 95%CI </text>
  <text x="493.992" y="571.561" svg_rhmargin="501.374" style="fill:#171615;font-family:YEJVYS+MTSY;font-size:9.46px;font-style:NORMAL;font-weight:normal;">−</text>
  <text svg_rhmargin="519.325" x="501.372,505.917,508.077,512.622,517.167,519.325" y="571.561" style="fill:#171615;font-family:XZHYCD+MinionPro-Regular;font-size:9.46px;font-style:NORMAL;font-weight:normal;">5.66, </text>
  <text x="523.998" y="571.561" svg_rhmargin="531.38" style="fill:#171615;font-family:YEJVYS+MTSY;font-size:9.46px;font-style:NORMAL;font-weight:normal;">−</text>
  <text x="531.378,535.923,538.083,542.628,547.173" y="571.561" svg_rhmargin="550.448" style="fill:#171615;font-family:XZHYCD+MinionPro-Regular;font-size:9.46px;font-style:NORMAL;font-weight:normal;">2.75)</text>
  <text x="305.108,310.139,314.297,319.29400000000004,322.235,324.629,329.453,335.933,339.956,343.46700000000004,346.409,349.883,353.906,357.416,362.438,370.18899999999996,373.139,377.522,380.06,383.003,387.161,394.91,397.448,402.625,405.566,412.522,415.466,419.471,424.295,429.47,433.475,437.498,442.673,445.562,449.072,453.23,456.119,458.657,463.481,468.656,472.129,475.073,477.998,483.029,487.187,492.36400000000003,495.305,498.23,503.288,508.112,511.586,515.6080000000001,518.543,521.081,526.258,529.208,531.602,536.426,542.906,546.929" y="583.018" svg_rhmargin="550.44" style="fill:#171615;font-family:XZHYCD+MinionPro-Regular;font-size:9.46px;font-style:NORMAL;font-weight:normal;">had lower serum vitamin D concentrations than those in lower</text>
  <text svg_rhmargin="388.294" x="305.108,307.502,311.66,314.549,317.087,319.976,324.998,329.993,334.015,338.489,343.313,348.488,352.493,355.966,360.44,363.716,372.905,381.338,388.29400000000004" y="594.475" style="fill:#171615;font-family:XZHYCD+MinionPro-Regular;font-size:9.46px;font-style:NORMAL;font-weight:normal;">latitude ones (WMD </text>
  <text x="392.768" y="594.475" svg_rhmargin="400.15" style="fill:#171615;font-family:YEJVYS+MTSY;font-size:9.46px;font-style:NORMAL;font-weight:normal;">−</text>
  <text svg_rhmargin="448.339" x="400.148,404.693,406.853,411.398,415.943,418.101,422.576,427.121,431.666,438.821,445.112,448.339" y="594.475" style="fill:#171615;font-family:XZHYCD+MinionPro-Regular;font-size:9.46px;font-style:NORMAL;font-weight:normal;">3.45, 95%CI </text>
  <text x="452.807" y="594.475" svg_rhmargin="460.189" style="fill:#171615;font-family:YEJVYS+MTSY;font-size:9.46px;font-style:NORMAL;font-weight:normal;">−</text>
  <text svg_rhmargin="478.14" x="460.187,464.732,466.892,471.437,475.982,478.14000000000004" y="594.475" style="fill:#171615;font-family:XZHYCD+MinionPro-Regular;font-size:9.46px;font-style:NORMAL;font-weight:normal;">5.75, </text>
  <text x="482.615" y="594.475" svg_rhmargin="489.997" style="fill:#171615;font-family:YEJVYS+MTSY;font-size:9.46px;font-style:NORMAL;font-weight:normal;">−</text>
  <text svg_rhmargin="507.948" x="489.995,494.54,496.7,501.245,505.79,507.94800000000004" y="594.475" style="fill:#171615;font-family:XZHYCD+MinionPro-Regular;font-size:9.46px;font-style:NORMAL;font-weight:normal;">1.15, </text>
  <text x="512.414,517.562,520.352,525.005,530.261,534.086,538.222,540.278" y="594.475" svg_rhmargin="545.01" style="fill:#171615;font-family:WNCTVH+MinionPro-Bold;font-size:9.46px;font-style:NORMAL;font-weight:BOLD;">Figure 3</text>
  <text x="545.012,548.288" y="594.475" svg_rhmargin="550.446" style="fill:#171615;font-family:XZHYCD+MinionPro-Regular;font-size:9.46px;font-style:NORMAL;font-weight:normal;">).</text>
  <text x="305.108,311.651,314.045,316.97,322.028,326.852,331.874,336.356,341.40999999999997,343.277,348.335,350.873,355.355,360.409,362.277,367.335,371.358,374.247,378.27,381.78,386.604,391.032,395.055,400.23,404.253,406.791,409.68,414.024,415.88,419.886,424.35,426.888,430.361,433.25,437.273,442.214,444.372,446.237,449.162,454.22,458.242,460.106,467.855,471.878,474.821,478.976,480.842,484.352,488.384,492.812,496.322,500.327,503.756,507.23,509.768,514.592,519.769,521.63,525.059,530.117,534.941,541.421,545.444" y="605.932" svg_rhmargin="550.441" style="fill:#171615;font-family:XZHYCD+MinionPro-Regular;font-size:9.46px;font-style:NORMAL;font-weight:normal;">Although high heterogeneity existed, the meta regression showed</text>
  <text x="305.108,308.033,313.064,317.222,320.109,322.271,325.196,330.254,334.276,336.437,338.831,342.989,345.878,348.416,351.305,356.327,361.322,365.344,367.514,372.509,376.541,380.969,384.479,388.502,392.524,394.703,401.183,405.332,408.805,410.975,416.15,420.974,423.861,426.032,428.957,434.015,438.037,440.207,447.956,452.114,454.652,459.829,461.996,465.47,470.294,475.316,478.7,482.705,486.727,488.906,493.73,496.531,498.698,503.756,507.779,510.668,514.691,518.201,523.025,527.453,531.476,536.651,540.674,543.212,546.101" y="617.389" svg_rhmargin="550.445" style="fill:#171615;font-family:XZHYCD+MinionPro-Regular;font-size:9.46px;font-style:NORMAL;font-weight:normal;">that the latitude degree was not the main source of heterogeneity</text>
  <text x="305.108,308.384,312.542,317.42,319.841,324.863,328.337,331.226,334.592" y="628.846" svg_rhmargin="340.469" style="fill:#171615;font-family:XZHYCD+MinionPro-Regular;font-size:9.46px;font-style:NORMAL;font-weight:normal;">(adjust-R</text>
  <text svg_rhmargin="343.922" x="340.469,343.92199999999997" y="628.846" style="fill:#171615;font-family:XZHYCD+MinionPro-Regular;font-size:7.19px;font-style:NORMAL;font-weight:normal;">2 </text>
  <text svg_rhmargin="356.104" x="348.722,356.104" y="628.846" style="fill:#171615;font-family:YEJVYS+MTSY;font-size:9.46px;font-style:NORMAL;font-weight:normal;">= </text>
  <text svg_rhmargin="390.048" x="360.395,364.94,369.485,371.645,376.19,380.735,387.89,390.048" y="628.846" style="fill:#171615;font-family:XZHYCD+MinionPro-Regular;font-size:9.46px;font-style:NORMAL;font-weight:normal;">16.26%, </text>
  <text svg_rhmargin="399.577" x="394.334,399.577" y="628.846" style="fill:#171615;font-family:JUPOUJ+MinionPro-It;font-size:9.46px;font-style:NORMAL;font-weight:normal;">P </text>
  <text svg_rhmargin="411.4" x="404.018,411.4" y="628.846" style="fill:#171615;font-family:YEJVYS+MTSY;font-size:9.46px;font-style:NORMAL;font-weight:normal;">= </text>
  <text x="415.7,420.245,422.405,426.95,431.495,436.04,439.316,441.474,445.769,452.312,454.706,458.18,463.004,465.16200000000003,469.457,474.416,479.438,484.244,486.638,489.176,493.208,497.366,500.255,502.793,507.617,512.794,517.085,521.891,524.429,528.578,532.0509999999999,536.345,542.825,546.974" y="628.846" svg_rhmargin="550.447" style="fill:#171615;font-family:XZHYCD+MinionPro-Regular;font-size:9.46px;font-style:NORMAL;font-weight:normal;">0.636). Also, publication bias was</text>
  <text x="305.108,310.103,314.126,317.015,321.092,325.097,327.986,332.009,337.00600000000003,339.983,344.789,349.133,352.115,357.416,361.899,366.327,370.35,373.716,374.949,378.422,381.411,384.3,388.305,391.779,394.666,397.638,401.796,406.971,411.968,414.954,417.879,422.937,426.959,429.93,434.754,439.776,442.611,446.616,451.44,459.189,463.211,466.2,469.629,474.687,479.511,485.991,490.014,495.011,497.988,503.163,507.99,510.975,514.449,516.987,521.415,526.59,529.128,534.195,538.227,542.385,547.559" y="640.303" svg_rhmargin="550.446" style="fill:#171615;font-family:XZHYCD+MinionPro-Regular;font-size:9.46px;font-style:NORMAL;font-weight:normal;">detected by Egger’s test and the outcome showed no signiﬁcant</text>
  <text x="305.108,309.914,312.452,316.601,320.074,323.315" y="651.759" svg_rhmargin="326.59" style="fill:#171615;font-family:XZHYCD+MinionPro-Regular;font-size:9.46px;font-style:NORMAL;font-weight:normal;">bias (</text>
  <text svg_rhmargin="331.835" x="326.592,331.835" y="651.759" style="fill:#171615;font-family:JUPOUJ+MinionPro-It;font-size:9.46px;font-style:NORMAL;font-weight:normal;">P </text>
  <text svg_rhmargin="342.613" x="335.231,342.613" y="651.759" style="fill:#171615;font-family:YEJVYS+MTSY;font-size:9.46px;font-style:NORMAL;font-weight:normal;">= </text>
  <text x="345.86,350.405,352.565,357.11,361.655,364.931,367.089,370.331,374.813,378.836,384.011,387.485,390.023,392.912,395.45,399.833,402.371,405.26,409.604,412.847,417.005,422.18,426.338,428.732,433.079,436.553,440.558,444.031,447.272,450.782,454.886,459.269,463.337,467.495,469.889,473.912,478.909,482.157,485.082,490.14,494.162,497.403,502.362,507.186,512.01,514.404,518.427,523.424,526.68,530.694,536.004,540.081,544.086,546.975" y="651.759" svg_rhmargin="550.448" style="fill:#171615;font-family:XZHYCD+MinionPro-Regular;font-size:9.46px;font-style:NORMAL;font-weight:normal;">0.30). Sensitivity analyses revealed the pooled eﬀects</text>
  <text x="305.108,311.588,315.611,319.121,323.143,325.295,328.805,333.629,338.435,343.457,346.931,349.829,351.987,354.14,358.298,363.473,368.47,370.619,374.093,378.92,381.068,386.063,388.601,393.598,395.747,398.672,403.73,407.752,409.904,412.793,416.303,418.841,426.592,428.732,432.89,438.065,443.062,445.211,450.278,452.672,455.06600000000003,457.217,464.966,468.989,471.914,476.972,481.796,486.79" y="663.216" svg_rhmargin="488.948" style="fill:#171615;font-family:XZHYCD+MinionPro-Regular;font-size:9.46px;font-style:NORMAL;font-weight:normal;">were robust, and so did the trim and ﬁll method.</text>
  <text x="305.108,312.641,315.728,319.94,326.798,337.625,340.712,347.801,351.125,359.984,363.311,366.839,373.931,380.348,387.44,391.202,398.51,405.368,408.455,415.313,422.405,429.263,435.46799999999996,438.794,445.652,452.744,460.04900000000004,463.373,471.347,480.20599999999996,483.524,492.155,495.242,501.659" y="685.869" svg_rhmargin="508.521" style="fill:#171615;font-family:IUMUOI+HelveticaNeueLTStd-Bd;font-size:11.96px;font-style:NORMAL;font-weight:normal;">Vitamin D Insufﬁciency and PD Risk</text>
  <text x="305.108,309.59,313.694,318.077,322.1,327.27700000000004,333.134,337.292,340.802,343.691,346.229,350.234,352.628,356.633,360.106,365.957,369.234,373.779,378.315,380.473,386.325,390.87,395.415,397.57300000000004,403.425,407.97,412.515,414.673,420.525,425.07,429.606,431.764,437.625,442.17,446.706,451.629,456.174,460.719,463.99399999999997,469.845,472.383,477.558,481.563,483.957,488.979,493.974,496.512,501.687,506.116,511.974,516.519,518.679,523.224,527.769,532.312,538.155,543.483" y="697.426" svg_rhmargin="550.439" style="fill:#171615;font-family:XZHYCD+MinionPro-Regular;font-size:9.46px;font-style:NORMAL;font-weight:normal;">Seven articles (17, 18, 21, 29, 31–33) including 1,613 PD</text>
  <text x="305.109,310.068,314.226,317.115,319.653,323.676,328.851,331.74,335.213,337.68,341.838,347.013,352.01,354.493,359.038,361.198,365.743,370.288,374.831,377.299,381.304,386.128,391.303,394.192,397.702,402.526,404.92,408.39300000000003,410.868,414.972,419.346,423.504,425.898,430.92,435.078,437.967,441.99,446.987,449.46,452.385,457.443,461.465,463.941,466.479,471.654,476.703,481.725,485.748,490.923,494.928,498.95,501.426,506.25,509.051,511.533,515.916,518.454,521.397,525.555,533.304,535.842,541.019,543.483" y="708.883" svg_rhmargin="550.439" style="fill:#171615;font-family:XZHYCD+MinionPro-Regular;font-size:9.46px;font-style:NORMAL;font-weight:normal;">patients and 2,026 controls evaluated the inﬂuence of vitamin D</text>
  <text x="305.109,307.647,312.822,316.296,321.318,328.869,332.874,335.412,339.435,344.61,348.615,352.959,356.103,360.927,366.10400000000004,369.243,372.168,377.226,381.248,384.39,387.9,390.438,393.912,398.606,401.742,406.566,409.36699999999996,412.506,417.834,424.791,426.949,430.092,437.049,442.071,446.093,449.235,452.124,456.951,460.089,463.563,466.506,470.664,473.553,476.091,479.564,482.453,484.991,489.023,493.181,495.575,498.698,503.756,507.779,510.668,514.691,518.201,523.025,527.453,531.476,536.651,540.674,543.213,546.102" y="720.34" svg_rhmargin="550.446" style="fill:#171615;font-family:XZHYCD+MinionPro-Regular;font-size:9.46px;font-style:NORMAL;font-weight:normal;">insuﬃciency on the risk of PD. Due to statistical heterogeneity</text>
  <text x="305.109" y="731.797" svg_rhmargin="308.384" style="fill:#171615;font-family:XZHYCD+MinionPro-Regular;font-size:9.46px;font-style:NORMAL;font-weight:normal;">(</text>
  <text x="308.385" y="731.797" svg_rhmargin="311.556" style="fill:#171615;font-family:JUPOUJ+MinionPro-It;font-size:9.46px;font-style:NORMAL;font-weight:normal;">I</text>
  <text svg_rhmargin="315.429" x="311.976,315.429" y="731.797" style="fill:#171615;font-family:XZHYCD+MinionPro-Regular;font-size:7.19px;font-style:NORMAL;font-weight:normal;">2 </text>
  <text svg_rhmargin="325.586" x="318.204,325.586" y="731.797" style="fill:#171615;font-family:YEJVYS+MTSY;font-size:9.46px;font-style:NORMAL;font-weight:normal;">= </text>
  <text x="327.87,332.415,336.96,339.12,343.665,350.82,354.096,356.254,358.515,361.44,366.498,370.52,372.798,376.308,380.466,385.641,390.636,395.46,403.21099999999996,405.486,409.5,414.809,418.886,422.891,425.78,429.253,431.531,439.28,444.104,449.099,453.122,455.516,457.802,464.282,468.431,471.904,474.173,477.648,481.671,484.064,488.141,492.146,495.035,499.058,504.053,506.211,508.49,514.322,519.38,523.402,525.671,529.181,533.186,536.66,541.682,544.076,546.965" y="731.797" svg_rhmargin="550.438" style="fill:#171615;font-family:XZHYCD+MinionPro-Regular;font-size:9.46px;font-style:NORMAL;font-weight:normal;">70.9%), the random eﬀects model was selected. The results</text>
  <text svg_rhmargin="173.617" x="44.829,48.573,50.643,54.522,58.266,60.327,61.614,65.232,67.428,70.782,72.738,74.025,77.77000000000001,79.704,84.618,88.236,91.98,94.05,97.929,99.216,103.095,106.974,110.203,112.14,113.688,115.632,120.798,125.964,130.743,132.678,134.487,136.557,140.436,144.18,146.241,147.528,151.146,153.342,156.699,157.986,161.73,163.665,167.544,169.74,173.618" y="767.932" style="fill:#6d6d6c;font-family:FFCUJS+HelveticaNeueLTStd-Lt;font-size:6.97px;font-style:NORMAL;font-weight:normal;">Frontiers in Neurology | www.frontiersin.org </text>
  <text svg_rhmargin="299.572" x="295.695,299.573" y="767.932" style="fill:#6d6d6c;font-family:IUMUOI+HelveticaNeueLTStd-Bd;font-size:6.97px;font-style:NORMAL;font-weight:normal;">3 </text>
  <text x="430.929,435.843,439.722,442.953,446.571,452.376,456.381,459.999,462.196,464.13,468.009,471.888,475.767,479.645,481.581,483.129,485.064,488.809,492.688,493.975,497.719,503.523,507.14300000000003,509.094,512.972,514.909,516.457,518.401,522.793,524.989,527.05,528.337,531.955,533.242,536.862,538.813,542.692,546.571" y="767.932" svg_rhmargin="550.448" style="fill:#6d6d6c;font-family:FFCUJS+HelveticaNeueLTStd-Lt;font-size:6.97px;font-style:NORMAL;font-weight:normal;">November 2018 | Volume 9 | Article 909</text>
 </g>
</svg>
