<?xml version="1.0" encoding="UTF-8"?>
<svg height="777.932" width="562.3324003313846" xmlns="http://www.w3.org/2000/svg">
 <g style="fill:none;">
  <text x="44.829,48.573,52.317,56.195,58.14,61.758,63.822,65.763,69.381,70.668,72.607,426.996,431.172,432.459,434.52,438.138,443.943,445.23,448.975,450.936,455.71299999999997,457.65,461.394,465.012,468.243,471.861,473.148,476.502,478.44,479.727,483.472,485.415,489.807,494.586,497.943,499.882,502.146,506.54,508.473,514.278,517.896,519.957,523.575,526.158,530.55,534.294,537.912,539.199,542.43,545.787,547.074" y="55.428999999999974" svg_rhmargin="550.428" style="fill:#6d6d6c;font-family:FFCUJS+HelveticaNeueLTStd-Lt;font-size:6.97px;font-style:NORMAL;font-weight:normal;">Luo et al. Vitamin D Levels in PDs: A Meta-Analysis</text>
  <rect style="stroke:blue;stroke-width:0.3;" x="113.634" y="90.433" height="240.72" width="368.4" title="6"/>
  <text x="113.634" y="90.433" class="image" id="image.6.1" width="368" height="240">image.6.1.114_482.90_331</text>
  <text svg_rhmargin="85.993" x="50.265,54.396,56.457,61.749,66.915,71.946,76.465,78.408,82.286,84.438,85.99300000000001" y="350.584" style="fill:#171615;font-family:IUMUOI+HelveticaNeueLTStd-Bd;font-size:6.97px;font-style:NORMAL;font-weight:normal;">FIGURE 4 | </text>
  <text x="88.137,91.881,95.76,97.83,101.448,104.805,106.869,108.81,112.815,114.102,117.981,120.04499999999999,121.977,125.856,127.66199999999999,129.6,130.887,134.631,137.988,141.732,143.415,146.511,150.129,151.416,155.034,158.778,160.84199999999998,162.792,166.023,167.31,169.371,172.989,178.794,180.081,183.826,185.778,190.55499999999998,192.492,193.779,197.397,200.628,204.246,205.533,208.887,210.834,214.452,218.196,222.199,224.145,226.341,227.628,230.985,234.472,236.413,240.292,242.098,244.036,248.428,253.207" y="350.584" svg_rhmargin="255.146" style="fill:#171615;font-family:FFCUJS+HelveticaNeueLTStd-Lt;font-size:6.97px;font-style:NORMAL;font-weight:normal;">Forest plot of insufﬁcient vitamin D levels and risk of PD.</text>
  <rect style="stroke:blue;stroke-width:0.3;" x="113.634" y="379.075" height="256.8" width="368.4" title="6"/>
  <text x="113.634" y="379.075" class="image" id="image.6.2" width="368" height="256">image.6.2.114_482.379_636</text>
  <text svg_rhmargin="85.993" x="50.265,54.396,56.457,61.749,66.915,71.946,76.465,78.408,82.286,84.438,85.99300000000001" y="655.297" style="fill:#171615;font-family:IUMUOI+HelveticaNeueLTStd-Bd;font-size:6.97px;font-style:NORMAL;font-weight:normal;">FIGURE 5 | </text>
  <text x="88.137,91.881,95.76,97.83,101.448,104.805,106.869,108.81,112.815,114.102,117.981,120.04499999999999,121.977,125.856,127.66199999999999,129.6,133.605,137.223,140.319,143.937,145.224,148.842,152.586,154.65,156.6,159.831,161.118,163.179,166.797,172.602,173.889,177.63400000000001,179.586,184.363,186.3,187.587,191.205,194.436,198.054,199.341,202.69500000000002,204.643,208.261,212.005,216.00799999999998,217.945,220.141,221.428,224.785,228.272,230.212,234.091,235.89700000000002,237.835,242.227,247.006" y="655.297" svg_rhmargin="248.945" style="fill:#171615;font-family:FFCUJS+HelveticaNeueLTStd-Lt;font-size:6.97px;font-style:NORMAL;font-weight:normal;">Forest plot of deﬁcient vitamin D levels and risk of PD.</text>
  <text x="44.829,48.834,53.298,58.257,63.081,66.555,71.577,75.087,79.10900000000001,82.179,84.717,89.894,92.952,98.28,105.236,108.297,113.257,117.415,120.304,122.842,126.865,132.04,134.929,138.403,140.56099999999998,143.614,150.868,155.692,162.172,166.276,170.659,174.682,177.589,179.74699999999999,182.809,187.867,190.405,194.887,199.941,202.996,207.955,211.465,215.569,219.943,224.101,226.495,230.518,235.693,239.698,243.72,246.781,251.605,254.40599999999998,257.464,262.459,266.473,271.54,275.545,278.083,282.106,287.281" y="692.107" svg_rhmargin="290.168" style="fill:#171615;font-family:XZHYCD+MinionPro-Regular;font-size:9.46px;font-style:NORMAL;font-weight:normal;">exposure in PD patients. However, high prevalence of deﬁcient</text>
  <text x="44.829,49.212,51.75,54.693,58.851,66.6,69.138,74.315,77.625,84.581,87.885,91.89,96.714,101.889,105.894,109.917,115.092,117.981,121.491,125.649,128.538,131.076,135.9,141.075,144.548,147.861,152.019,154.413,157.887,162.714,166.014,170.019,174.483,177.021,180.495,183.382,186.696,189.234,194.411,197.712,202.887,207.711,212.886,216.252,221.247,223.785,227.314,231.391,236.197,238.591,241.129,246.304,250.733,254.053,258.211,263.386,268.38300000000004,271.693,275.761,279.919,283.429,285.823" y="703.564" svg_rhmargin="290.167" style="fill:#171615;font-family:XZHYCD+MinionPro-Regular;font-size:9.46px;font-style:NORMAL;font-weight:normal;">vitamin D concentrations also exist in non-disabling and early</text>
  <text x="44.829,50.157,57.113,61.245,64.719,69.741,74.439,76.86,80.937,84.942,87.831,91.304,95.436,99.54,103.923,107.946,113.12299999999999,117.252,119.79,122.59100000000001,126.72,129.645,134.703,138.726,143.07,147.195,152.226,156.384,161.38099999999997,165.492,170.667,175.491,179.001,186.75,190.908,193.302,197.442,201.6,209.349,214.155,219.177,221.571,225.729,228.618,231.156,235.98,241.15699999999998,245.286,248.562,253.107,257.643,260.919,263.077,267.21,276.399,280.557,285.732" y="715.021" svg_rhmargin="290.161" style="fill:#171615;font-family:XZHYCD+MinionPro-Regular;font-size:9.46px;font-style:NORMAL;font-weight:normal;">PD subjects even if they had normal ambulation (36). Wang</text>
  <text svg_rhmargin="290.166" x="44.829,48.852,51.739,55.737,59.895,62.289,64.447,68.454,71.73,76.275,80.811,84.08600000000001,88.083,91.593,95.616,100.575,105.399,108.909,111.798,115.821,120.818,124.821,128.295,132.318,135.828,140.85,148.601,152.595,156.978,159.516,162.459,166.617,174.366,176.904,182.081,186.075,193.032,197.57500000000002,201.573,203.967,208.071,212.454,216.477,218.871,222.34400000000002,226.341,231.165,235.971,238.914,243.072,245.61,250.785,254.808,259.805,263.808,271.557,275.715,278.253,283.428,285.822,290.166" y="692.107" style="fill:#171615;font-family:XZHYCD+MinionPro-Regular;font-size:9.46px;font-style:NORMAL;font-weight:normal;">et al. (33) reported serum vitamin D2 levels obtained mainly </text>
  <text x="305.109,307.908,311.418,316.242,323.993,329.373,334.368,336.906,340.929,343.816,349.191,352.701,356.859,359.784,364.842,368.865,372.37600000000003,377.748,380.673,385.704,389.862,395.03900000000004,400.401,403.875,408.897,414.072,416.466,419.004,423.486,428.544,431.433,433.591,438.993,445.77,449.919,453.393,456.282,459.792,464.616,467.154,472.329,475.218,479.222,482.696,485.585,488.123,493.298,497.456,499.85,505.215,510.21,514.557,518.013,520.812,525.834,531.009,535.014,537.903,540.441,545.265" y="692.107" svg_rhmargin="550.442" style="fill:#171615;font-family:XZHYCD+MinionPro-Regular;font-size:9.46px;font-style:NORMAL;font-weight:normal;">from diet rather than sunlight. Gastrointestinal dysfunction</text>
  <text x="305.109,307.647,312.822,316.827,319.221,324.243,329.238,331.776,336.951,341.38,344.241,349.236,353.583,357.057,362.016,367.047,371.151,375.579,378.117,382.275,384.433,387.261,392.256,396.279,398.674,402.832,407.179,411.202,416.199,419.05,423.46,427.609,431.083,433.972,437.482,440.02,444.02299999999997,446.86,450.883,458.632,463.591,466.48,470.827,473.365,478.54,482.969,485.821,489.979,495.154,500.151,503.002,507.007,511.831,517.006,520.479,523.368,525.906,530.866,535.024,537.913,540.451,545.275" y="703.564" svg_rhmargin="550.452" style="fill:#171615;font-family:XZHYCD+MinionPro-Regular;font-size:9.46px;font-style:NORMAL;font-weight:normal;">including dysphagia, delayed gastric emptying and constipation</text>
  <text x="305.109,309.114,313.938,318.96,321.354,326.351,329.733,333.243,337.248,340.722,345.744,348.138,351.025,354.401,356.939,362.11600000000004,365.48,370.44,375.264,380.088,383.59900000000005,386.982,391.977,394.515,398.943,402.948,406.422,409.311,411.849,416.673,421.85,425.223,429.381,434.556,439.553,442.926,447.003,451.8,455.274,460.098,463.608,468.567,471.456,473.994,478.818,483.993,486.151,489.519,495.999,501.057,503.595,507.546,512.6,515.97,523.719,527.877,532.221,535.59,539.748,542.142,545.615" y="715.021" svg_rhmargin="550.442" style="fill:#171615;font-family:XZHYCD+MinionPro-Regular;font-size:9.46px;font-style:NORMAL;font-weight:normal;">could result in poor digestion and absorption, which may also</text>
  <text x="305.109,309.114,313.938,319.113,322.002,325.512,328.05,332.856,337.878,340.767,344.789,346.914,349.803,354.63,356.751,359.676,364.734,368.756,370.872,373.266,378.09,384.573,386.703,390.177,394.2,397.71,402.732,410.483,412.605,416.988,419.526,422.469,426.627,434.376,436.914,442.091,444.213,451.16900000000004,453.294,455.688,459.792,464.175,468.198,470.592,474.065,476.19,478.728,483.90500000000003,486.027,491.355,498.31100000000004,500.427,505.386,509.544,512.433,514.971,518.994,524.169,527.058,530.531,532.647,535.923,540.468,545.013,548.289" y="726.478" svg_rhmargin="550.447" style="fill:#171615;font-family:XZHYCD+MinionPro-Regular;font-size:9.46px;font-style:NORMAL;font-weight:normal;">contribute to the low serum vitamin D levels in PD patients (38).</text>
  <text svg_rhmargin="173.617" x="44.829,48.573,50.643,54.522,58.266,60.327,61.614,65.232,67.428,70.782,72.738,74.025,77.77000000000001,79.704,84.618,88.236,91.98,94.05,97.929,99.216,103.095,106.974,110.203,112.14,113.688,115.632,120.798,125.964,130.743,132.678,134.487,136.557,140.436,144.18,146.241,147.528,151.146,153.342,156.699,157.986,161.73,163.665,167.544,169.74,173.618" y="767.932" style="fill:#6d6d6c;font-family:FFCUJS+HelveticaNeueLTStd-Lt;font-size:6.97px;font-style:NORMAL;font-weight:normal;">Frontiers in Neurology | www.frontiersin.org </text>
  <text svg_rhmargin="299.572" x="295.695,299.573" y="767.932" style="fill:#6d6d6c;font-family:IUMUOI+HelveticaNeueLTStd-Bd;font-size:6.97px;font-style:NORMAL;font-weight:normal;">6 </text>
  <text x="430.929,435.843,439.722,442.953,446.571,452.376,456.381,459.999,462.196,464.13,468.009,471.888,475.767,479.645,481.581,483.129,485.064,488.809,492.688,493.975,497.719,503.523,507.14300000000003,509.094,512.972,514.909,516.457,518.401,522.793,524.989,527.05,528.337,531.955,533.242,536.862,538.813,542.692,546.571" y="767.932" svg_rhmargin="550.448" style="fill:#6d6d6c;font-family:FFCUJS+HelveticaNeueLTStd-Lt;font-size:6.97px;font-style:NORMAL;font-weight:normal;">November 2018 | Volume 9 | Article 909</text>
 </g>
</svg>
