<?xml version="1.0" encoding="UTF-8"?>
<svg height="870.031005859375" width="672.0029907226562" xmlns="http://www.w3.org/2000/svg">
 <g style="fill:none;">
  <path d=" M 0.05999799817800522 826.072021484375 L 22.619997024536133 826.072021484375 L 22.619997024536133 826.35546875 L 0.05999799817800522 826.35546875 Z " style="fill:none;stroke:#000000;stroke-width:1.0;"/>
  <path d=" M 33.67599868774414 837.4110107421875 L 33.959449768066406 837.4110107421875 L 33.959449768066406 860.031005859375 L 33.67599868774414 860.031005859375 Z " style="fill:none;stroke:#000000;stroke-width:1.0;"/>
  <path d=" M 627.9869995117188 837.4110107421875 L 628.2703857421875 837.4110107421875 L 628.2703857421875 860.031005859375 L 627.9869995117188 860.031005859375 Z " style="fill:none;stroke:#000000;stroke-width:1.0;"/>
  <path d=" M 639.3259887695312 826.072021484375 L 662.0029907226562 826.072021484375 L 662.0029907226562 826.35546875 L 639.3259887695312 826.35546875 Z " style="fill:none;stroke:#000000;stroke-width:1.0;"/>
  <path d=" M 639.3259887695312 33.731998443603516 L 662.0029907226562 33.731998443603516 L 662.0029907226562 34.015480041503906 L 639.3259887695312 34.015480041503906 Z " style="fill:none;stroke:#000000;stroke-width:1.0;"/>
  <path d=" M 627.9869995117188 0.0 L 628.2703857421875 0.0 L 628.2703857421875 22.677000045776367 L 627.9869995117188 22.677000045776367 Z " style="fill:none;stroke:#000000;stroke-width:1.0;"/>
  <path d=" M 33.67599868774414 0.0 L 33.959449768066406 0.0 L 33.959449768066406 22.677000045776367 L 33.67599868774414 22.677000045776367 Z " style="fill:none;stroke:#000000;stroke-width:1.0;"/>
  <path d=" M 0.05999799817800522 33.731998443603516 L 22.619997024536133 33.731998443603516 L 22.619997024536133 34.015480041503906 L 0.05999799817800522 34.015480041503906 Z " style="fill:none;stroke:#000000;stroke-width:1.0;"/>
  <text x="85.039,89.989,92.41,96.893,99.31400000000001,103.011,107.96,110.847,113.268,117.013,121.496,126.446,131.395,134.847,137.734,142.217,147.167,150.054,152.475,156.958,159.379,163.103,167.021,171.504,173.925,178.874,182.793,187.742,191.66,195.578,199.328,204.278,208.761,212.213,215.939,220.889,224.807,232.177,237.127,242.076,245.528,248.415,251.867,256.35,259.238,263.156,268.105,271.837,274.724,279.674,284.157,287.044,290.772,293.659,298.609,302.527,306.249,311.198,314.65,318.568,322.292,327.242" y="390.451" svg_rhmargin="330.129" style="fill:#171615;font-family:IJFBOG+AdvOTbc475f09;font-size:8.97px;font-style:NORMAL;font-weight:normal;">Fig. 5). Substantial evidence has demonstrated that the use of</text>
  <text x="85.039,90.921,97.825,104.263,110.55,117.454,121.938,125.39,131.64,136.123,139.575,143.027,147.977,151.895,154.316,158.799,161.686,165.604,170.55300000000003,176.823,183.727,186.148,189.035,193.984,200.293,204.211,209.161,213.079,216.997,219.418,221.839,225.757,230.707,233.594,239.921,244.87,249.819,252.707,256.625,261.574,268.945,272.863,276.315,282.553,285.44,290.389,293.841,300.128,305.077,309.56,312.447,314.868,318.786,323.736,326.623" y="401.392" svg_rhmargin="330.075" style="fill:#171615;font-family:IJFBOG+AdvOTbc475f09;font-size:8.97px;font-style:NORMAL;font-weight:normal;">TXA was associated with excellent outcomes for patients</text>
  <text x="85.039,89.989,94.938,99.888,103.806,107.258,111.741,116.69,119.111,124.061,128.544,133.396,139.278,145.716,152.154" y="412.334" svg_rhmargin="154.575" style="fill:#171615;font-family:IJFBOG+AdvOTbc475f09;font-size:8.97px;font-style:NORMAL;font-weight:normal;">undergoing TKA.</text>
  <text svg_rhmargin="175.599" x="154.602,156.768,160.48,164.193,166.009,169.722,173.434,175.599" y="412.334" style="fill:#171615;font-family:IJFBOG+AdvOTbc475f09;font-size:5.98px;font-style:NORMAL;font-weight:normal;">[19,20] </text>
  <text x="180.454,186.335,191.285,195.203,200.069,205.018,208.471,212.954,215.375,220.195,223.082,228.031,231.483,238.853,243.722,246.142,249.594,254.436,258.355,263.304,267.222,271.705,276.655,279.07599999999996,283.916,287.834,292.317,295.769,300.252,305.118,308.005,312.954,317.761,322.71,326.162" y="412.334" svg_rhmargin="330.08" style="fill:#171615;font-family:IJFBOG+AdvOTbc475f09;font-size:8.97px;font-style:NORMAL;font-weight:normal;">The oral form is cheap, easy to use</text>
  <text x="85.039,89.522,94.471,99.42,101.423,106.372,111.322,115.24,118.692,120.698,125.647,130.596,133.483,135.551,139.003,142.921,147.871,152.82,155.241,158.693,162.61100000000002,164.633,168.085,173.035,176.953,180.871" y="423.275" svg_rhmargin="183.292" style="fill:#171615;font-family:IJFBOG+AdvOTbc475f09;font-size:8.97px;font-style:NORMAL;font-weight:normal;">and does not require speci</text>
  <text x="183.288" y="423.275" svg_rhmargin="188.237" style="fill:#171615;font-family:IJFBOH+AdvOTbc475f09+fb;font-size:8.97px;font-style:NORMAL;font-weight:normal;">ﬁ</text>
  <text x="188.277,192.195,194.173,198.091,203.041,207.99,210.411,215.36,222.731,226.649,231.598,234.485,236.521,239.408,244.357,247.809,249.843,254.326,259.275,266.646,269.067,274.016,276.437,279.889,282.776,286.228,290.711,293.598,296.019,300.969,305.918,308.339,310.389,314.872,317.293,322.242,326.16" y="423.275" svg_rhmargin="330.078" style="fill:#171615;font-family:IJFBOG+AdvOTbc475f09;font-size:8.97px;font-style:NORMAL;font-weight:normal;">c equipment for administration. Since</text>
  <text x="85.039,87.926,92.875,96.793,98.701,103.651,107.103,111.586,114.007,115.936,118.823,123.772,127.224,134.594,136.572,141.521,144.408,146.322,152.204,159.108,165.546,167.468,169.889,173.341,175.292,179.775,184.258,188.741,191.162,193.583,198.066,203.015,205.436,209.354,211.29,215.774,220.723,225.67200000000003,227.561,229.982,233.434,235.384,240.333,245.283,247.703,251.622,256.571,258.457,262.94,266.858,269.745,272.166,277.116,281.599,284.02,286.008,288.429,291.881,293.775,297.693,301.145,304.032,306.453,313.824,318.307,321.194,325.112" y="434.274" svg_rhmargin="330.061" style="fill:#171615;font-family:IJFBOG+AdvOTbc475f09;font-size:8.97px;font-style:NORMAL;font-weight:normal;">the oral form of TXA is available and is quick acting, is estimated</text>
  <text x="85.039,87.926,92.875,97.358,100.245,101.989,104.41,107.297,109.075,114.025,118.508,121.96,123.702,126.589,131.539,135.457,137.195,141.113,146.062,153.433,158.382,162.865,166.317,170.8,173.688,176.108,180.592,184.51000000000002,186.289,190.207,193.094,195.981,199.9,203.818,206.705,208.455,210.876,215.82500000000002,217.583,222.532,224.953,229.903,234.852,239.80100000000002,241.507,248.877,253.36,258.31,262.793,267.276,271.194,278.565,282.483,287.432,290.319,292.132,296.05,300.999,308.369,313.319,317.802,321.254,325.172" y="445.215" svg_rhmargin="330.121" style="fill:#171615;font-family:IJFBOG+AdvOTbc475f09;font-size:8.97px;font-style:NORMAL;font-weight:normal;">that it has the comparative effect in blood management compared</text>
  <text x="85.039,91.943,94.364,97.251,102.2,105.675,108.562,113.511,117.429,120.868,123.755,128.704,133.654,136.075,139.993,144.476,146.897,150.404,155.353,158.805,162.253,164.674,169.623,172.51,175.962,180.445,184.929,188.847,193.796,198.746,203.695,207.147,210.61,213.497,218.446,221.898,229.269,231.69,235.157,242.061,245.979,249.431,254.381,256.802,259.689,263.607,267.074,272.024,275.476,279.394,283.877,286.298,291.247,296.197,299.649,303.13,307.048,309.469,311.89,316.839,319.26,323.178,327.661" y="456.157" svg_rhmargin="330.082" style="fill:#171615;font-family:IJFBOG+AdvOTbc475f09;font-size:8.97px;font-style:NORMAL;font-weight:normal;">with the topical or intravenous form. Despite previous clinical</text>
  <text x="85.039,88.491,92.409,95.861,99.779,104.262,107.714,111.633,116.582,119.003,122.058,124.945,129.894,133.812,136.854,140.772" y="467.155" svg_rhmargin="143.659" style="fill:#171615;font-family:IJFBOG+AdvOTbc475f09;font-size:8.97px;font-style:NORMAL;font-weight:normal;">research, the ef</text>
  <text x="143.659" y="467.155" svg_rhmargin="148.608" style="fill:#171615;font-family:IJFBOH+AdvOTbc475f09+fb;font-size:8.97px;font-style:NORMAL;font-weight:normal;">ﬁ</text>
  <text x="148.592,152.51,156.993,160.911,165.394,168.434,173.384,176.271,179.319,182.206,187.156,191.074,194.115,199.065,202.517,207.0,209.421,212.426,215.314,220.263,223.715,231.085,234.139,239.089,241.976,245.024,250.906,257.81,264.248,267.304,269.725,274.67400000000004,277.679,282.628,286.08,288.501,295.871,300.354,303.807,308.29,311.353,317.235,323.673" y="467.155" svg_rhmargin="330.111" style="fill:#171615;font-family:IJFBOG+AdvOTbc475f09;font-size:8.97px;font-style:NORMAL;font-weight:normal;">cacy of the oral form of TXA in primary TKA</text>
  <text x="85.039,91.943,96.426,99.878,102.273,105.725,109.643,112.064,117.013,121.963,129.333,131.696,135.148,139.066,144.015,148.965,152.417,155.304,159.222,164.172,166.593,168.998,174.88,179.829,183.748,187.2,191.118,194.005,198.955,202.407,206.325,208.74599999999998,211.177,216.126,221.07500000000002,223.422,226.874,230.792,233.213,235.634,240.117,245.066,247.487,251.405,253.809,257.727,262.676,267.626,271.544,273.965,278.914,282.366,284.787,289.737,294.68600000000004,297.12,302.07,306.553,310.005,312.37,317.32,321.238,325.156" y="478.096" svg_rhmargin="330.105" style="fill:#171615;font-family:IJFBOG+AdvOTbc475f09;font-size:8.97px;font-style:NORMAL;font-weight:normal;">was seldom reported. Therefore, no reliable conclusion has been</text>
  <text x="85.039,88.491,92.409,96.892,100.81,105.76,109.678,114.627,118.826,122.278,126.197,130.68,135.163,138.615,143.564,145.985,150.935,155.418,159.644,162.531,167.48,171.398,175.574,179.492,182.379,185.267,189.185,193.103,195.99,198.411,202.894,206.813,211.762,215.68,219.132,222.584,226.879,229.766,234.716,238.168,242.356,247.305,249.726,254.676,259.625,264.574,268.774,272.226,277.176,281.659,285.111,287.532,292.481,296.964,301.145,306.095,310.57800000000003,314.808,319.758,323.21,327.693" y="489.038" svg_rhmargin="330.114" style="fill:#171615;font-family:IJFBOG+AdvOTbc475f09;font-size:8.97px;font-style:NORMAL;font-weight:normal;">reached regarding the effectiveness for blood sparing by oral</text>
  <text x="85.039,88.491,93.44,98.389,101.277,103.697,108.647,112.56500000000001,118.884,123.833,126.72,133.057,138.939,145.843,152.28,154.701,161.006,169.972,173.89,176.777,181.26,184.148,188.631,193.58,198.063,200.484,204.967,208.419,210.84,214.292,220.644,223.065,226.517,232.833,236.751,241.7,246.65,251.599,256.549,260.467,263.354,267.272,272.221,278.526,283.009,286.461,292.812,295.699,300.649,304.567,310.897,318.267,322.75,325.171" y="500.036" svg_rhmargin="330.12" style="fill:#171615;font-family:IJFBOG+AdvOTbc475f09;font-size:8.97px;font-style:NORMAL;font-weight:normal;">routine of TXA. Meta-analysis is conducted as the main</text>
  <text x="85.039,88.491,91.378,95.861,98.748,101.169,104.621,107.508,109.929,113.847,118.33,120.751,125.006,132.376,136.294,139.182,144.131,149.08,154.02900000000002,158.283,160.704,165.65300000000002,169.906,174.855,179.804,183.256,187.48,190.932,193.82,198.769,203.718,208.202,210.623,214.805,217.692,220.579,224.839,228.758,233.707,238.656,241.077,246.026,250.237,253.689,256.577,260.029,263.947,268.896,273.379,276.267,281.216,285.134,290.083,294.343,297.795,300.682,305.165,308.052,310.473,313.925,316.812,319.233,323.151,327.634" y="510.978" svg_rhmargin="330.055" style="fill:#171615;font-family:IJFBOG+AdvOTbc475f09;font-size:8.97px;font-style:NORMAL;font-weight:normal;">statistical method in our study. It could strengthen statistical</text>
  <text x="85.039,89.988,94.937,101.841,105.76,109.212,111.853,118.757,123.707,126.128,128.548,132.466,135.097,139.58,142.001,145.453,150.40200000000002,153.068,156.986,161.935,164.356,168.839,172.291,176.775,179.196,184.145,188.62800000000001,191.278,194.165,199.114,203.032,205.678,209.13,213.613,220.983,225.932,228.353,232.27100000000002,234.93,238.382,240.803,244.721,248.639,251.257,256.206,260.689,263.333,268.282,273.231,278.181,280.602,283.023,287.972,292.455,295.08,298.532,302.45,305.902,310.851,313.272,316.159,319.611,322.291,327.241" y="521.919" svg_rhmargin="330.128" style="fill:#171615;font-family:IJFBOG+AdvOTbc475f09;font-size:8.97px;font-style:NORMAL;font-weight:normal;">power while also enlarging the sample size by pooling results of</text>
  <text x="85.039,89.988,94.937,99.887,102.308,104.729,108.181,113.13,117.048,121.997,127.047,130.499,133.386,138.335,143.285,145.705,149.624,153.076,158.113,161.0,165.95,170.433,173.32,178.408,182.327,187.276,192.225,194.646,199.595,204.656,209.606,213.058,218.007,222.49,224.911,229.861,233.779,238.785,242.237,245.124,248.576,253.525,258.475,262.958,266.876,270.328,275.408,279.326,283.809,286.23,291.179,295.098,300.047,303.965,307.883,310.304,315.375,321.257,326.206" y="532.9169999999999" svg_rhmargin="330.124" style="fill:#171615;font-family:IJFBOG+AdvOTbc475f09;font-size:8.97px;font-style:NORMAL;font-weight:normal;">published studies that could provide stronger evidence. The</text>
  <text x="85.039,89.988,93.44,97.358,100.81,104.729,109.678,112.565,115.936,123.306,127.224,130.111,134.594,137.482,141.965,146.914,151.397,153.818,158.301,161.753,164.174,167.626,170.982,173.403,178.353,183.302,185.723,189.641,194.124,197.012,200.93,204.382,207.775,210.662,215.611,220.094,222.981,226.313,231.262,234.714,239.197,241.618,244.964,250.846,257.75,264.188,267.584,271.503,275.986,280.935,284.252,287.704,290.125,294.608,299.557" y="543.8589999999999" svg_rhmargin="301.978" style="fill:#171615;font-family:IJFBOG+AdvOTbc475f09;font-size:8.97px;font-style:NORMAL;font-weight:normal;">present meta-analysis indicates that oral TXA can signi</text>
  <text x="302.003" y="543.8589999999999" svg_rhmargin="306.952" style="fill:#171615;font-family:IJFBOH+AdvOTbc475f09+fb;font-size:8.97px;font-style:NORMAL;font-weight:normal;">ﬁ</text>
  <text x="306.936,310.854,315.337,320.287,323.174,325.595" y="543.8589999999999" svg_rhmargin="330.078" style="fill:#171615;font-family:IJFBOG+AdvOTbc475f09;font-size:8.97px;font-style:NORMAL;font-weight:normal;">cantly</text>
  <text x="85.039,88.491,92.409,97.358,102.308,106.226,110.144,113.837,116.725,121.674,125.59200000000001,129.258,133.176,137.659,140.08,143.998,148.948,151.369,155.852,158.739,162.657,167.60600000000002,171.322,174.209,179.159,182.046,186.529,188.95,192.638,197.587,200.008,204.958,209.907,214.85600000000002,218.546,220.967,225.916,229.368,232.82,236.461,240.944,245.893,250.842,254.546,259.495,263.413,270.784,275.733,280.216,282.637,287.587,292.536,294.957,299.906,303.583,308.533,312.451,316.369,318.79,321.211,326.16" y="554.8" svg_rhmargin="330.078" style="fill:#171615;font-family:IJFBOG+AdvOTbc475f09;font-size:8.97px;font-style:NORMAL;font-weight:normal;">reduce the calculated total blood loss and hemoglobin decline</text>
  <text x="85.039,89.522,92.409,95.296,99.214,102.666,105.788,111.669,118.107,124.545,126.96600000000001,130.108,139.074,141.495,146.444,148.865,156.236,160.719,163.14,165.56,170.043,173.193,175.613,180.563,185.046,189.529,192.981,195.402,199.885,203.803,206.98,210.432,215.382,218.834,223.317,227.235,230.687,235.17,237.59099999999998,240.712,245.661,248.082,252.565,255.452,260.402,264.32,267.772,275.142,279.625,282.776,286.694,291.644,296.127,300.61,305.559,307.98,312.464,315.351,317.772,322.721,327.67" y="565.742" svg_rhmargin="330.091" style="fill:#171615;font-family:IJFBOG+AdvOTbc475f09;font-size:8.97px;font-style:NORMAL;font-weight:normal;">after TKA. Minimally invasive surgery, diathermy coagulation,</text>
  <text x="85.039,87.926,92.875,96.793,100.176,105.125,110.074,113.526,115.947,118.834,121.255,126.205,131.154,134.587,139.537,142.424,145.869,148.756,153.705,157.62300000000002,161.006,165.955,170.904,174.823,178.741,181.162,184.589,188.041,191.959,196.442,198.863,201.284,206.233,210.716,214.125,219.074,221.961,225.35,228.237,233.186,237.104,240.543,242.964,247.913,250.8,254.252,258.736,266.106,270.024,274.974,279.923,282.344,284.765,289.248,292.7,297.183,300.579,303.466,307.384,314.754,319.704,323.156,327.639" y="576.74" svg_rhmargin="330.06" style="fill:#171615;font-family:IJFBOG+AdvOTbc475f09;font-size:8.97px;font-style:NORMAL;font-weight:normal;">the position of the knee, sealing of the intramedullary femoral</text>
  <text x="85.039,88.957,93.44,98.389,102.873,105.293,107.71400000000001,111.116,115.599,120.549,125.498,128.917,131.804,136.754,140.672,144.11,149.06,152.512,156.43,159.814,164.763,167.65,171.039,173.926,178.875,183.825,187.277,192.226,194.647,199.597,204.546,208.464,211.351,214.804,221.708,225.627,229.079,232.997,236.404,240.887,243.308,246.76,251.709,255.112,259.031,261.918,264.805,268.723,272.641,275.529,277.949,282.433,286.351,289.807,297.178,301.096,303.983,308.933,313.882,318.831,322.291,327.241" y="587.682" svg_rhmargin="330.128" style="fill:#171615;font-family:IJFBOG+AdvOTbc475f09;font-size:8.97px;font-style:NORMAL;font-weight:normal;">canal, and the use of tourniquet were also effective method of</text>
  <text x="85.039,88.491,92.409,97.358,102.308,106.226,108.647,113.596,118.07900000000001,120.244,123.131,128.08,131.99800000000002,134.19,137.642,141.56,146.51,151.459,153.88,157.332,161.25,168.621,172.539,177.488,180.375,182.547,185.434,190.384,193.83599999999998,195.983,200.933,203.353,208.303,213.252,218.20100000000002,220.361,223.248,226.7,231.183,236.132,239.584,242.472,247.421,250.873,253.294,258.243,263.193" y="598.623" svg_rhmargin="265.614" style="fill:#171615;font-family:IJFBOG+AdvOTbc475f09;font-size:8.97px;font-style:NORMAL;font-weight:normal;">reducing the requirement for blood transfusion.</text>
  <text x="265.663,267.829,271.542" y="594.658" svg_rhmargin="275.254" style="fill:#171615;font-family:IJFBOG+AdvOTbc475f09;font-size:5.98px;font-style:NORMAL;font-weight:normal;">[21</text>
  <text x="275.301" y="594.658" svg_rhmargin="278.663" style="fill:#171615;font-family:IJFBOI+AdvOTbc475f09+20;font-size:5.98px;font-style:NORMAL;font-weight:normal;">–</text>
  <text svg_rhmargin="288.236" x="278.645,282.358,286.071,288.23600000000005" y="598.627" style="fill:#171615;font-family:IJFBOG+AdvOTbc475f09;font-size:5.98px;font-style:NORMAL;font-weight:normal;">24] </text>
  <text x="290.438,297.342,302.291,306.209,308.352,311.24,316.189,318.33,321.217,326.167" y="598.627" svg_rhmargin="330.085" style="fill:#171615;font-family:IJFBOG+AdvOTbc475f09;font-size:8.97px;font-style:NORMAL;font-weight:normal;">Due to the</text>
  <text x="85.039,87.46,89.88,97.251,99.672,102.559,106.477,111.426,115.142,120.091,125.041,132.411,137.361,141.279,144.731,148.476,153.425,156.312,160.041,162.928,167.877,171.79500000000002,175.461,177.882,182.831,186.75,189.171,194.12,199.069,202.988,207.937,211.687,215.139,218.026,222.975,227.925,230.346,234.264,237.716,240.137,243.887,250.791,254.709,258.4,263.35,265.771,270.72,274.444,279.393,284.342,287.229,290.941,295.89,299.808,303.26,306.148,311.097,314.549,321.919,325.636" y="609.625" svg_rhmargin="330.119" style="fill:#171615;font-family:IJFBOG+AdvOTbc475f09;font-size:8.97px;font-style:NORMAL;font-weight:normal;">limited number of the included studies, we did not perform a</text>
  <text x="85.039,92.409,96.327,99.214,103.697,106.585,111.068,116.017,120.5,122.921,127.404,130.856,133.277,136.72899999999998,139.575,143.027,146.945,151.429,155.912,159.364,164.313,166.734,171.684,176.167,179.032,181.919,186.869,190.787,194.239,198.157,200.972,203.859,208.342,212.261,215.148,220.097,223.549,227.001,229.422,232.322,237.271,242.221,245.673,248.56,253.509,257.427,260.879,263.672,266.092,271.042,275.525,279.443,282.895,285.782,288.203,292.686,297.17,300.057,302.478,307.427,312.37600000000003,315.26,322.164,326.647" y="620.566" svg_rhmargin="330.099" style="fill:#171615;font-family:IJFBOG+AdvOTbc475f09;font-size:8.97px;font-style:NORMAL;font-weight:normal;">meta-analysis regarding these factors. Further investigation was</text>
  <text x="85.039,88.491,91.378,93.799,96.22,98.641,101.65,105.102,109.02,113.969,118.919,121.34,124.792,128.71,133.659" y="631.508" svg_rhmargin="136.08" style="fill:#171615;font-family:IJFBOG+AdvOTbc475f09;font-size:8.97px;font-style:NORMAL;font-weight:normal;">still required.</text>
  <text x="93.996,99.412,101.832,106.782,111.731,116.67999999999999,120.698,124.15,129.099,133.582,137.034,139.455,144.404,148.887,152.898,155.319,158.771,162.763,167.712,172.662,175.549,179.543,182.431,187.38,191.298,195.303,200.253,205.202,207.623,212.106,216.109,220.027,224.977,229.926,233.844,237.763,241.215,246.16400000000002,250.123,257.027,261.977,265.895,270.844,274.841,278.759,283.242,287.725,290.146,295.096,299.579,302.466,304.887,309.836,314.319,318.323,321.21,326.159" y="642.506" svg_rhmargin="330.077" style="fill:#171615;font-family:IJFBOG+AdvOTbc475f09;font-size:8.97px;font-style:NORMAL;font-weight:normal;">Blood sparing is not the only concern when evaluating the</text>
  <text x="85.039,88.957,91.844,94.731,98.649,102.568,105.455,107.876,112.359,116.277,121.227,125.145,128.597,132.049,137.251,142.201,145.088,150.233,153.121,158.07,161.988,167.128,172.077,175.529,180.012,182.433,187.593,190.481,195.43,198.882,206.252,211.404,216.354,219.241,224.387,230.268,237.173,243.61,246.031,251.201,257.083,263.987,270.425,275.579,278.0,281.452,286.577,291.06,296.215,299.667,304.15,309.099,311.986,316.936,320.854,323.741,326.162" y="653.448" svg_rhmargin="330.08" style="fill:#171615;font-family:IJFBOG+AdvOTbc475f09;font-size:8.97px;font-style:NORMAL;font-weight:normal;">effectiveness of the oral form of TXA. TXA is a synthetic</text>
  <text x="85.039" y="664.389" svg_rhmargin="89.988" style="fill:#171615;font-family:IJFBOH+AdvOTbc475f09+fb;font-size:8.97px;font-style:NORMAL;font-weight:normal;">ﬁ</text>
  <text x="89.971,94.92,98.372,100.793,105.743,110.692,113.113,117.596,120.483,122.904,126.822,130.902,133.323,138.272,143.222,145.643,150.592,153.013,155.9,160.85,164.302,168.431,171.319,176.268,180.751,183.638,187.706,191.625,196.574,203.944,208.894,212.812,215.699,218.12,221.007,223.428,227.911,231.829,234.25,238.733,242.81,245.231,250.18,255.129,257.55,262.5,264.921,267.808,271.26,275.35,280.3,282.72,287.204,290.656,298.026,300.447,305.396,307.817,311.916,316.865,319.286,323.769,327.221" y="664.389" svg_rhmargin="330.108" style="fill:#171615;font-family:IJFBOG+AdvOTbc475f09;font-size:8.97px;font-style:NORMAL;font-weight:normal;">brinolytic inhibitor that competitively inhibits plasmin, plas-</text>
  <text svg_rhmargin="139.331" x="85.039,92.409,94.83,99.779,104.729,109.212,113.13,118.079,120.5,124.949,129.433,134.382,139.33100000000002" y="675.387" style="fill:#171615;font-family:IJFBOG+AdvOTbc475f09;font-size:8.97px;font-style:NORMAL;font-weight:normal;">minogen, and </text>
  <text x="143.716" y="675.387" svg_rhmargin="148.665" style="fill:#171615;font-family:IJFBOH+AdvOTbc475f09+fb;font-size:8.97px;font-style:NORMAL;font-weight:normal;">ﬁ</text>
  <text x="148.648,153.598,157.05,159.471,164.42000000000002,168.887,171.774,175.226,180.176,187.546,191.961,195.879,200.829,208.199,213.148,215.569,220.519,222.939,227.889,232.372,234.793,239.241,245.123,250.072,253.991,258.94,262.392,266.31,269.197,271.618,275.537,280.02,282.441,284.862,289.345,291.766,296.216,298.637,301.524,305.91,312.814,317.763,322.713,325.134" y="675.387" svg_rhmargin="330.083" style="fill:#171615;font-family:IJFBOG+AdvOTbc475f09;font-size:8.97px;font-style:NORMAL;font-weight:normal;">brin from combining. Theoretically, it would</text>
  <text x="85.039,87.46,92.409,96.327,99.779,103.697,108.181,111.633,115.551,118.997,121.884,126.833,130.751,134.247,139.196,142.648,146.566,151.049,155.533,157.953,161.872,166.821,170.739,174.657,178.125,183.074,185.961,189.406,192.293,197.243,200.695,205.644,213.015,217.964,222.913,226.832,234.202,239.151,244.101,246.522,248.943,252.86100000000002,256.359,260.277,265.226,272.597,277.546,279.967,282.388,286.306,290.789,293.676,296.097,301.047,305.996,309.448,311.86899999999997,315.374,321.256,326.205" y="686.329" svg_rhmargin="330.123" style="fill:#171615;font-family:IJFBOG+AdvOTbc475f09;font-size:8.97px;font-style:NORMAL;font-weight:normal;">increase the prevalence of thromboembolic complications. The</text>
  <text x="85.039,92.409,97.358,100.81,103.697,105.958,109.876,114.826,122.196,129.566,134.516,139.465,141.673,144.561,149.51,152.962,157.911,165.282,170.231,175.18,178.068,180.488,184.406,186.63,190.548,195.031,198.949,203.899,206.786,210.238,212.48,219.384,223.303,226.755,230.673,232.889,239.793,246.231,252.113,254.375,258.858,263.808,268.757,270.986,275.936,281.351,283.515,290.419,295.368,297.789,301.708,306.65700000000004,308.913,312.831,317.781,322.73,325.151" y="697.27" svg_rhmargin="330.1" style="fill:#171615;font-family:IJFBOG+AdvOTbc475f09;font-size:8.97px;font-style:NORMAL;font-weight:normal;">most common thrombotic events were DVT and PE which could</text>
  <text x="85.039,87.46,92.409,97.358,102.308,106.226,110.144,114.858,118.31,122.228,126.711,130.63,134.082,138.0,142.75,146.202,150.12,153.573,158.522,160.943,163.83,167.282,172.003,176.486,181.435,186.38400000000001,191.108,195.026,199.51,203.428,208.377,213.104,218.054,221.972,226.455,229.342,234.29100000000003,239.012,243.496,246.383,249.27,253.188,256.64,261.349,268.72,273.203,275.624,280.573,284.025,288.731,293.681,297.133,300.02,304.969,309.919,314.868,318.787,323.736,326.157" y="708.212" svg_rhmargin="330.075" style="fill:#171615;font-family:IJFBOG+AdvOTbc475f09;font-size:8.97px;font-style:NORMAL;font-weight:normal;">induce severe results and even death after major orthopedic</text>
  <text svg_rhmargin="330.087" x="85.039,88.491,93.44,96.892,101.375,105.293,108.745,113.229,115.65,118.656,123.605,128.555,133.504,135.925,138.346,141.798,146.747,150.666,155.615,158.567,162.019,164.906,169.855,174.805,177.226,181.144,184.596,187.592,192.542,197.025,201.508,205.42600000000002,208.398,213.347,217.266,224.636,229.585,234.535,237.987,240.874,244.326,248.809,251.696,255.614,260.563,263.559,266.446,271.395,275.878,278.765,281.757,286.706,291.65500000000003,294.626,297.047,301.996,305.914,309.366,313.285,317.768,321.22,325.138,330.087" y="390.446" style="fill:#171615;font-family:IJFBOG+AdvOTbc475f09;font-size:8.97px;font-style:NORMAL;font-weight:normal;">surgery. Published studies have demonstrated that no increased </text>
  <text x="345.09,348.542,350.963,354.415,359.36400000000003,361.87,366.82,369.707,372.245,379.149,385.587,391.469,393.958,398.908,402.36,404.9,409.849,415.264,417.769,424.673,429.156,432.608,435.174,440.123,445.072,448.524,452.443,455.895,460.378,464.296,469.245,471.739,478.643,481.064,483.951,488.90000000000003,491.468,494.355,499.304,503.222,505.754,508.641,513.59,518.539,520.96,524.879,529.362,531.783,534.326,539.275,542.727,545.211,547.632,552.581,555.468,558.92,563.403,567.886,571.805,576.754,581.703,586.653" y="390.446" svg_rhmargin="590.105" style="fill:#171615;font-family:IJFBOG+AdvOTbc475f09;font-size:8.97px;font-style:NORMAL;font-weight:normal;">risk of DVT or PE was observed with the topical or intravenous</text>
  <text x="345.09,349.573,354.523,361.893,364.314,369.263,371.684,375.136,378.023,381.475,385.958,388.846,391.266,396.216,401.165,405.579,410.529,413.416,417.768,423.65,430.554,436.992,439.413,443.846,448.329,450.75,458.12,460.541,462.962,467.445,470.897,473.318,477.801,480.222,484.663,489.146,491.567,493.988,498.382,500.803,505.753,509.671,512.092,517.041,521.991,525.909,530.858,535.232,539.715,543.167,546.054,548.475,552.394,554.815,558.733,562.185,566.583,569.004,573.953,578.375,581.262,586.212" y="401.388" svg_rhmargin="590.13" style="fill:#171615;font-family:IJFBOG+AdvOTbc475f09;font-size:8.97px;font-style:NORMAL;font-weight:normal;">administration of TXA. Similarly, all included articles in the</text>
  <text x="345.09,350.039,353.491,357.41,360.862,364.78,369.729,372.616,376.724,384.094,388.013,390.9,395.383,398.27,402.753,407.703,412.186,414.607,419.09,422.542,424.963,428.415,432.508,435.96" y="412.33" svg_rhmargin="439.878" style="fill:#171615;font-family:IJFBOG+AdvOTbc475f09;font-size:8.97px;font-style:NORMAL;font-weight:normal;">present meta-analysis re</text>
  <text x="439.881" y="412.33" svg_rhmargin="444.83" style="fill:#171615;font-family:IJFBOH+AdvOTbc475f09+fb;font-size:8.97px;font-style:NORMAL;font-weight:normal;">ﬂ</text>
  <text x="444.87,448.788,452.706,455.593,459.512,464.461,468.567,473.516,478.46500000000003,482.513,485.965,488.386,492.869,497.818" y="412.33" svg_rhmargin="500.239" style="fill:#171615;font-family:IJFBOG+AdvOTbc475f09;font-size:8.97px;font-style:NORMAL;font-weight:normal;">ected no signi</text>
  <text x="500.259" y="412.33" svg_rhmargin="505.208" style="fill:#171615;font-family:IJFBOH+AdvOTbc475f09+fb;font-size:8.97px;font-style:NORMAL;font-weight:normal;">ﬁ</text>
  <text x="505.248,509.166,513.649,518.599,521.486,525.543,530.492,532.913,535.801,538.688,542.606,546.058,549.976,554.926,558.844,562.7620000000001,566.928,569.349,574.298,578.38,581.267,586.216" y="412.33" svg_rhmargin="590.134" style="fill:#171615;font-family:IJFBOG+AdvOTbc475f09;font-size:8.97px;font-style:NORMAL;font-weight:normal;">cant difference in the</text>
  <text x="345.09,347.511,352.46,356.379,358.799,363.749,367.667,372.617,376.535,380.45300000000003,382.28,385.732,390.215,393.102,397.02,398.891,403.84,406.727,408.528,415.432,421.87,427.752,429.618,434.567,438.019,439.823,444.772,450.187,452.011,454.432,459.38100000000003,461.252,464.139,469.089,473.007,474.801,479.75,483.202,487.686,490.10699999999997,491.979,497.861,504.765,511.203,513.011,517.494,520.946,525.896,530.845,535.794,539.246,541.13,548.034,552.984,555.405,559.323,564.2719999999999,566.074,572.979,577.462,580.914,582.742,585.163" y="423.271" svg_rhmargin="590.112" style="fill:#171615;font-family:IJFBOG+AdvOTbc475f09;font-size:8.97px;font-style:NORMAL;font-weight:normal;">incidence rate of DVT or PE in the oral TXA groups which was in</text>
  <text x="345.09,349.573,353.491,357.41,362.359,365.811,370.761,375.244,380.193,384.111,388.029,390.33,397.234,399.654,402.542,407.491,409.831,412.718,417.668,421.586,423.948,428.897,432.349,436.267,440.751,443.172,448.121,453.07,456.522,458.87,462.322,465.209,470.158,475.108,477.529,481.447,484.899,487.32,489.709,497.178,502.128,509.032,512.95,517.433,521.351,524.803,527.224,529.563,534.512,539.462,543.38,545.72,548.607,553.5559999999999,555.868,558.755,563.705,567.623,569.985,573.437,580.807,585.29,587.711" y="434.269" svg_rhmargin="590.132" style="fill:#171615;font-family:IJFBOG+AdvOTbc475f09;font-size:8.97px;font-style:NORMAL;font-weight:normal;">accordance with the previous studies. However, due to the small</text>
  <text x="345.09,349.573,356.943,361.893,366.842,371.792,374.679,377.46,382.41,385.297,388.175,390.596,395.545,399.463,401.884,406.834,411.783,415.701,420.65000000000003,423.437,426.889,429.776,434.725,439.675,442.096,446.014,449.466,451.887,454.786,462.157,467.106,470.558,474.476,477.293,483.731,490.168,496.05,499.502,502.35,509.254,511.675,514.562,519.511,522.305,524.726,529.676,534.625,539.108,543.026,546.478,549.347,552.234,557.183,559.604,562.025,566.975,573.879,576.766,581.715,586.665" y="445.211" svg_rhmargin="590.117" style="fill:#171615;font-family:IJFBOG+AdvOTbc475f09;font-size:8.97px;font-style:NORMAL;font-weight:normal;">amount of included studies, more RCTs with longer follow-ups</text>
  <text x="345.09,349.573,353.025,356.943,360.737,364.189,368.107,373.057,378.006,380.427,383.879,387.797,392.74600000000004,396.566,399.453,404.402,408.188,412.106,417.055" y="456.152" svg_rhmargin="422.004" style="fill:#171615;font-family:IJFBOG+AdvOTbc475f09;font-size:8.97px;font-style:NORMAL;font-weight:normal;">are required to con</text>
  <text x="422.023" y="456.152" svg_rhmargin="426.972" style="fill:#171615;font-family:IJFBOH+AdvOTbc475f09+fb;font-size:8.97px;font-style:NORMAL;font-weight:normal;">ﬁ</text>
  <text x="426.955,430.407,437.777,441.582,446.531,451.481,454.933,458.759,462.678,467.627,472.577,476.495,478.916,483.865,487.317,489.738,494.687,499.637,502.058,505.869,510.352,515.302,518.754,523.237,525.658,529.576,534.059,536.48,540.281,543.733,546.154,549.041,552.9590000000001,556.778,559.199,564.148,567.036,570.954,574.872,577.759,580.18,585.13" y="456.152" svg_rhmargin="590.079" style="fill:#171615;font-family:IJFBOG+AdvOTbc475f09;font-size:8.97px;font-style:NORMAL;font-weight:normal;">rm our conclusion. Surgical site infection</text>
  <text x="345.09,348.542,352.46,359.831,364.314,366.735,371.684,375.136,378.765,383.248,386.872,391.822,395.74,400.223,404.706,408.158,411.045,415.528,418.416,420.836,425.786,430.269,433.925,437.844,442.793,450.163,455.113,457.534,459.955,463.873,468.356,471.243,473.664,478.614,483.563,487.271,490.159,495.108,499.591,502.478,506.093,508.513,511.965,515.617,520.0999999999999,523.78,528.73,532.648,536.566,541.515,545.153,549.072,554.021,558.97,562.889,566.807,570.259,575.208,578.828,581.715,586.665" y="467.15" svg_rhmargin="590.117" style="fill:#171615;font-family:IJFBOG+AdvOTbc475f09;font-size:8.97px;font-style:NORMAL;font-weight:normal;">remains a devastating complication that is a deep concern for</text>
  <text x="345.09,352.46,356.943,361.893,366.376,369.354,374.303,378.786,381.673,384.094,388.013,392.962,395.849,399.301,402.291,406.775,411.724,416.673,419.639,423.092,428.041,431.493,435.976,439.894,444.844,449.793,453.245,456.261,460.745,463.166,465.586,470.536,474.454,476.875,479.902,482.789,485.676,488.632,496.003,500.486,504.969,507.965,510.386,514.304,518.787,523.736,526.729,529.617,534.5659999999999,537.558,542.507,546.426,549.878,552.299,557.248,560.7,565.649,569.102,571.989,576.938,580.856,583.743,586.164" y="478.092" svg_rhmargin="590.082" style="fill:#171615;font-family:IJFBOG+AdvOTbc475f09;font-size:8.97px;font-style:NORMAL;font-weight:normal;">many patients and surgeons alike. It may lead to periprosthetic</text>
  <text x="345.09,347.511,352.46,354.881,359.831,362.718,365.782,368.203,373.153,376.04,379.958,383.876,386.764,389.184,394.134,399.083,402.178,409.082,414.032,416.453,420.371,425.32,428.426,433.376,436.828,441.777,444.198,449.148,454.097,458.58,462.032,465.106,470.055,475.005,478.457,483.406,485.827,488.714,493.197,495.618,498.723,502.175,505.062,509.545,514.029,517.481,519.902,522.987,527.936,531.854,534.275,538.759,543.242,546.694,549.801,553.253,557.172,561.09,566.039,570.523,574.441,577.893,580.314,584.232,587.684" y="489.034" svg_rhmargin="590.105" style="fill:#171615;font-family:IJFBOG+AdvOTbc475f09;font-size:8.97px;font-style:NORMAL;font-weight:normal;">joint infection which prolongs hospital stays, delays recoveries,</text>
  <text x="345.09,349.573,354.523,359.47200000000004,361.984,365.436,370.386,375.335,378.787,382.705,387.655,392.604,396.523,401.472,404.359,406.94,410.393,414.311,418.794,421.215,424.667,427.088,432.037,436.986,439.537,442.99,447.939,451.391,455.874,459.792,463.244,465.665,469.584,473.036,475.457,478.031,480.452,484.37,488.853,493.802,496.223,501.173,505.656,508.191,511.078,516.0269999999999,518.565,523.049,526.501,530.419,534.902,537.789,541.708,545.16,547.762,551.214,556.163,561.112,564.564,568.483,573.432,578.382,582.3,587.249" y="500.032" svg_rhmargin="590.136" style="fill:#171615;font-family:IJFBOG+AdvOTbc475f09;font-size:8.97px;font-style:NORMAL;font-weight:normal;">and subsequent revision surgeries, leading to greater subsequent</text>
  <text svg_rhmargin="467.434" x="345.09,348.542,352.46,356.943,359.364,362.816,365.237,370.187,375.136,379.956,383.408,388.357,391.809,396.292,400.21,403.662,406.083,410.002,413.454,418.278,425.182,430.132,432.553,436.471,441.42,446.284,450.767,454.219,458.137,462.951,467.434" y="510.973" style="fill:#171615;font-family:IJFBOG+AdvOTbc475f09;font-size:8.97px;font-style:NORMAL;font-weight:normal;">revision surgeries which are a </text>
  <text x="472.253" y="510.973" svg_rhmargin="477.202" style="fill:#171615;font-family:IJFBOH+AdvOTbc475f09+fb;font-size:8.97px;font-style:NORMAL;font-weight:normal;">ﬁ</text>
  <text x="477.185,482.135,486.618,491.567,495.485,497.906,502.389,504.81,509.669,514.619,519.568,523.02,527.969,531.888,536.837,539.258,544.081,546.968,549.8549999999999,554.683,559.632,564.115,567.567,572.37,577.32,581.238,585.156" y="510.973" svg_rhmargin="590.105" style="fill:#171615;font-family:IJFBOG+AdvOTbc475f09;font-size:8.97px;font-style:NORMAL;font-weight:normal;">nancial burden. It has been</text>
  <text x="345.09,348.542,352.46,357.41,362.359,365.811,368.698,372.617,377.56600000000003,380.295,383.182,388.132,392.615,395.502,398.266,401.154,406.103,410.021,412.779,415.2,420.15,423.037,426.955,430.873,433.76,436.181,441.131,446.08,448.892,452.344,456.827,459.714,463.632,466.409,471.359,474.246,476.954,482.836,489.274,495.712,498.496,500.917,504.36899999999997,507.114,511.597,516.546,521.496,524.948,529.897,534.847,537.267,544.638,549.121,552.008,555.926,558.347,562.8299999999999,565.619,570.568,579.534,582.286,585.174" y="521.915" svg_rhmargin="590.123" style="fill:#171615;font-family:IJFBOG+AdvOTbc475f09;font-size:8.97px;font-style:NORMAL;font-weight:normal;">reported that the infection rate of TKA is approximately 1% to</text>
  <text x="345.09,350.039,359.006" y="532.913" svg_rhmargin="361.427" style="fill:#171615;font-family:IJFBOG+AdvOTbc475f09;font-size:8.97px;font-style:NORMAL;font-weight:normal;">3%.</text>
  <text svg_rhmargin="373.173" x="361.417,363.583,367.296,371.008,373.173" y="532.9200000000001" style="fill:#171615;font-family:IJFBOG+AdvOTbc475f09;font-size:5.98px;font-style:NORMAL;font-weight:normal;">[25] </text>
  <text x="379.332,385.214,390.164,394.082,400.195,405.144,408.596,412.515,415.967,419.885,424.834,427.721,433.87,441.24,445.158,448.045,452.529,455.416,459.899,464.848,469.331,471.752,476.236,479.688,482.108,485.56,491.751,495.203,500.152,505.102,512.006,515.458,521.571,524.458,529.407,533.891,536.7779999999999,542.944,545.831,550.78,554.699,558.151,562.069,568.228,570.649,574.101,580.246,585.196" y="532.9200000000001" svg_rhmargin="590.145" style="fill:#171615;font-family:IJFBOG+AdvOTbc475f09;font-size:8.97px;font-style:NORMAL;font-weight:normal;">The present meta-analysis shows that there is no</text>
  <text x="345.09,348.542,350.963,355.446,360.395" y="543.861" svg_rhmargin="362.816" style="fill:#171615;font-family:IJFBOG+AdvOTbc475f09;font-size:8.97px;font-style:NORMAL;font-weight:normal;">signi</text>
  <text x="362.835" y="543.861" svg_rhmargin="367.784" style="fill:#171615;font-family:IJFBOH+AdvOTbc475f09+fb;font-size:8.97px;font-style:NORMAL;font-weight:normal;">ﬁ</text>
  <text x="367.767,371.686,376.169,381.118,384.005,387.383,392.332,394.753,397.641,400.528,404.446,407.898,411.816,416.766,420.684,424.60200000000003,428.087,430.508,435.457,438.859,441.746,446.695,450.613,453.995,456.416,461.366,465.284,467.705,472.654,476.573,481.522,485.44,489.358,492.829,497.778,500.665,504.053,506.474,511.424,514.311,518.229,522.147,525.035,527.456,532.405,537.354,539.7750000000001,543.227,552.194,557.143,560.595,564.513,567.888,574.326,580.764,586.646" y="543.861" svg_rhmargin="590.098" style="fill:#171615;font-family:IJFBOG+AdvOTbc475f09;font-size:8.97px;font-style:NORMAL;font-weight:normal;">cant difference in the incidence of infection. More RCTs</text>
  <text x="345.09,351.994,354.415,357.302,362.25100000000003,365.216,367.637,372.586,377.535,382.019,384.906,387.793,391.711,395.163,402.533,405.58,408.467,413.417,415.838,418.259,423.208,430.112,432.999,437.949,442.898,446.35,449.346,453.829,457.281,461.199,464.199,469.149,473.067,476.985,481.935,485.853,490.802,493.792,496.679,501.628,505.08,508.078,510.965,515.914,519.366,522.253,527.203,531.121,534.573,537.613,540.034,544.984,549.467,553.385,556.837,559.724,562.145,566.628,571.112,573.999,576.42,581.369,586.318" y="554.803" svg_rhmargin="588.739" style="fill:#171615;font-family:IJFBOG+AdvOTbc475f09;font-size:8.97px;font-style:NORMAL;font-weight:normal;">with long-term follow-ups are needed for further investigation.</text>
  <text x="354.047,359.463,361.884,369.254,371.675,374.562,379.045,381.932,384.353,389.303,394.252,397.704,400.93,404.849,409.798,412.219,415.671,418.558,422.476,427.425,430.693,433.114,438.063,441.295,444.182,449.131,453.049,456.261,460.18,465.129,468.581,472.033,475.951,480.901,483.788,487.044,490.496,494.415,498.898,501.319,505.237,512.1410000000001,515.333,518.22,523.17,527.653,530.54,533.814,538.764,542.682,546.6,551.55,555.468,560.4169999999999,563.634,566.521,571.47,574.922,577.809,582.759,586.677" y="565.744" svg_rhmargin="590.129" style="fill:#171615;font-family:IJFBOG+AdvOTbc475f09;font-size:8.97px;font-style:NORMAL;font-weight:normal;">Limitations existed in the current review that needed further</text>
  <text x="345.09,349.573,352.46,355.347,359.266,364.215,367.102,369.523,374.472,379.422,381.843,383.527,388.476,392.394,395.846,399.765,403.217,405.638,410.587,413.008,417.957,422.44,424.117,428.6,432.052,433.698,436.586,441.535,443.956,446.377,451.326,458.23,461.682,464.103,465.785,468.672,473.622,477.54,479.221,481.642,484.063,491.433,493.854,496.741,500.66,505.60900000000004,507.283,512.232,517.182,524.552,529.502,533.42,536.872,538.576,543.526,546.4129999999999,548.044,551.496,554.383,559.332,564.282,566.703,570.621,574.073,575.766,580.249,585.198" y="576.7429999999999" svg_rhmargin="590.147" style="fill:#171615;font-family:IJFBOG+AdvOTbc475f09;font-size:8.97px;font-style:NORMAL;font-weight:normal;">attention, describing as follows: the limited number of studies and</text>
  <text x="345.09,347.977,352.926,356.844,359.263,362.715,370.085,374.568,376.989,379.40999999999997,381.94,386.889,391.838,399.209,404.158,408.076,411.528,413.97,418.919,421.806,424.288,427.74,432.224,439.594,444.543,446.964,450.882,454.334,456.829,464.199,468.682,473.165,475.594,480.543,485.026,489.509,493.427,495.889,502.793,506.711,511.194,516.144,520.062,525.011,527.523,532.472,537.422,540.874,543.339,547.823,552.772,557.255,559.676,564.159,567.611,570.032,573.484,575.9050000000001,578.374,581.261,586.211" y="587.684" svg_rhmargin="590.129" style="fill:#171615;font-family:IJFBOG+AdvOTbc475f09;font-size:8.97px;font-style:NORMAL;font-weight:normal;">the small number of samples may have weaken our analysis; the</text>
  <text x="345.09,349.573,354.522,359.006,361.427,365.91,369.362,371.783,375.235,377.801,382.75,385.637,388.176,391.628,396.577,403.947,407.865,410.455,415.405,420.354,423.241,427.159,432.109,439.479,443.397,446.0,453.371,457.289,461.772,465.224,470.173,473.625,477.544,480.996,483.586,487.038,491.988,495.906,500.855,503.429,507.912,511.364,513.916,516.804,521.753,524.64,529.123,531.5440000000001,534.099,539.048,541.469,546.418,551.368,556.317,558.929,561.35,566.299,569.751,573.203,575.767,580.25,585.199" y="598.626" svg_rhmargin="590.148" style="fill:#171615;font-family:IJFBOG+AdvOTbc475f09;font-size:8.97px;font-style:NORMAL;font-weight:normal;">analysis of some outcome measures such as total blood loss and</text>
  <text x="345.09,350.039,353.958,361.328,366.277,370.76,373.181,378.131,383.08,385.501,390.45,393.051,398.0,401.918,405.837,408.258,410.678,415.628,419.546,422.19,429.094,433.013,436.465,440.383,443.053,448.002,452.486,455.938,459.856,464.805,467.431,472.38,477.329,479.959,484.442,487.046,491.996,494.417,498.9,503.849,506.491,511.441,515.359,518.246,522.165,525.617,530.566,535.049,538.967,543.917,547.835,550.256,553.143,557.626,560.047,562.672,565.559,570.508,572.929,575.35,580.299,587.203" y="609.624" svg_rhmargin="590.09" style="fill:#171615;font-family:IJFBOG+AdvOTbc475f09;font-size:8.97px;font-style:NORMAL;font-weight:normal;">hemoglobin decline were based on a high heterogeneity; follow-</text>
  <text x="345.09,350.039,354.988,360.113,365.062,370.012,373.464,377.947,380.834,383.255,388.204,393.153,398.266,405.17,409.654,413.106,418.278,421.73,425.649,428.069,432.553,435.44,437.861,442.344,446.262,448.683,453.166,458.302,461.754,466.703,471.653,475.105,477.992,480.413,485.57,490.52,495.469,497.89,502.373,507.51,512.926,517.875,522.358,524.779,527.2,530.652,535.601,540.731,544.183,547.07,552.02,556.969,559.39,563.308,566.76,571.911,578.815,582.734,586.186" y="620.565" svg_rhmargin="590.104" style="fill:#171615;font-family:IJFBOG+AdvOTbc475f09;font-size:8.97px;font-style:NORMAL;font-weight:normal;">up duration was relatively short; only English studies were</text>
  <text x="345.09,347.511,352.46,356.378,358.799,363.749,368.698,372.616,377.566,379.98699999999997,382.959,387.908,392.858,397.807,400.228,402.649,406.567,411.051,413.938,416.359,421.308,426.257,429.275,434.225,436.646,441.129,444.581,447.586,450.007,453.459,456.487,461.437,466.386,470.869,475.352,480.302,482.723,487.672,492.155,497.105,499.526,503.444" y="631.5070000000001" svg_rhmargin="505.865" style="fill:#171615;font-family:IJFBOG+AdvOTbc475f09;font-size:8.97px;font-style:NORMAL;font-weight:normal;">included, publication bias is unavoidable.</text>
  <text x="354.047,356.934,364.305,369.254,371.675,374.096,378.014,382.497,385.384,387.805,392.755,397.704,401.156,407.11,409.997,414.946,418.398,424.287,429.237,432.689,437.172,441.09,443.977,446.398,450.317,454.235,456.656,462.61,469.981,473.433,477.916,480.337,486.251,489.138,494.087,497.539,504.909,510.799,515.748,518.635,524.575,530.457,537.361,543.799,549.689,553.141,558.091,563.04,567.99,570.41,575.3589999999999,581.266,586.215" y="642.505" svg_rhmargin="590.133" style="fill:#171615;font-family:IJFBOG+AdvOTbc475f09;font-size:8.97px;font-style:NORMAL;font-weight:normal;">Implications for practice: Oral form of TXA should be</text>
  <text x="345.09,349.008,353.958,358.907,362.359,364.78,369.729,373.648,377.1,381.018,385.967,387.891,390.779,395.728,399.18,401.044,405.994,410.477,413.364,415.785,419.703,424.652,427.54,430.992,432.961,437.911,442.86,447.81,451.728,455.18,459.663,464.613,467.033,471.983,476.466,478.371,484.253,490.691,497.129,499.55,501.444,507.882,510.303,513.19,518.14,523.089,528.038,532.522,537.471,539.427,544.377,549.3259999999999,551.219,554.671,557.092,561.575,566.524" y="653.447" svg_rhmargin="568.945" style="fill:#171615;font-family:IJFBOG+AdvOTbc475f09;font-size:8.97px;font-style:NORMAL;font-weight:normal;">considered for patients undergoing TKA. Although no signi</text>
  <text x="568.971" y="653.447" svg_rhmargin="573.92" style="fill:#171615;font-family:IJFBOH+AdvOTbc475f09+fb;font-size:8.97px;font-style:NORMAL;font-weight:normal;">ﬁ</text>
  <text x="573.904,577.822,582.305,587.254" y="653.447" svg_rhmargin="590.141" style="fill:#171615;font-family:IJFBOG+AdvOTbc475f09;font-size:8.97px;font-style:NORMAL;font-weight:normal;">cant</text>
  <text x="345.09,350.039,352.46,355.347,358.234,362.153,365.605,369.523,374.472,378.391,382.309,384.264,386.685,391.634,393.561,396.448,401.397,405.315,407.28,409.701,414.65,418.569,420.99,425.939,429.857,434.807,438.725,442.64300000000003,444.639,448.091,452.574,455.461,459.379,461.307,466.256,469.143,471.114,478.018,484.456,490.338,492.26,497.209,500.661,502.635,507.584,512.999,514.937,521.841,525.759,529.211,533.129,535.062,537.95,542.899,547.848,552.798,557.747,560.168,562.16,565.048,569.997,573.915,575.88,579.332,581.753,585.205" y="664.388" svg_rhmargin="590.154" style="fill:#171615;font-family:IJFBOG+AdvOTbc475f09;font-size:8.97px;font-style:NORMAL;font-weight:normal;">difference in the incidence rate of DVT or PE were found, the risk</text>
  <text x="345.09,350.039,352.926,358.98,362.432,367.381,371.299,376.248,382.28,386.199,391.148,398.518,403.468,405.889,408.31,412.228,416.711,419.598,422.019,426.968,431.918,435.37,441.466,444.918,449.867,454.817,459.766,462.187,467.136,473.213,476.665,479.552,481.973,484.394,486.815,492.885,497.834,501.752,507.795,511.713,516.197,519.649,523.567,526.454,531.403,533.824,536.245,540.728,546.799,550.717,555.666,560.616,564.068,566.489,571.438,575.356,578.808,582.727,587.676" y="675.386" svg_rhmargin="590.097" style="fill:#171615;font-family:IJFBOG+AdvOTbc475f09;font-size:8.97px;font-style:NORMAL;font-weight:normal;">of such complications should still be carefully considered.</text>
  <text x="345.09,347.977,355.347,360.297,362.718,365.139,369.057,373.54,376.427,378.848,383.797,388.747,392.199,396.792,399.679,404.629,408.081,412.61,416.062,419.98,423.432,427.35,431.833,435.286,439.204,444.153,446.574,451.159,455.643,460.592,465.162,469.645,474.595,478.513,483.462,488.412,492.895,495.782,499.7,502.121,506.604,511.195,514.647,517.068,520.986,524.905,529.854,532.2750000000001,536.82,543.724,547.642,550.063,552.484,557.059,562.008,565.926,569.378,571.799,576.282,581.232,585.15" y="686.328" svg_rhmargin="590.099" style="fill:#171615;font-family:IJFBOG+AdvOTbc475f09;font-size:8.97px;font-style:NORMAL;font-weight:normal;">Implications for research: an adequately sized, well designed</text>
  <text x="345.09,351.528,357.966,363.848,366.632,369.52,374.469,377.921,380.692,385.175,388.627,392.079,395.997,399.449,402.901,405.322,410.271,414.754,417.54,423.422,430.326,436.764,439.651,443.103,447.022,449.442,453.926,456.813,460.731,465.68,468.506,471.958,474.379,479.328,483.246,486.133,490.052,492.939,495.826,499.744,503.663,506.55,510.002,512.838,517.321,520.773,524.691,527.464,530.917,534.835,539.784,544.734,547.154,550.607,554.525,559.4739999999999,562.273,565.16,570.1089999999999,572.874,576.326,581.276,585.194" y="697.269" svg_rhmargin="590.143" style="fill:#171615;font-family:IJFBOG+AdvOTbc475f09;font-size:8.97px;font-style:NORMAL;font-weight:normal;">RCT for assessing TXA-related side-effects are required to shed</text>
  <text x="345.09,352.46,357.41,360.862,364.78000000000003,369.07,371.491,373.912,378.395,383.345,386.232,390.556,395.506,400.455,404.786,407.673,412.622,416.54,420.829,424.747" y="708.211" svg_rhmargin="427.634" style="fill:#171615;font-family:IJFBOG+AdvOTbc475f09;font-size:8.97px;font-style:NORMAL;font-weight:normal;">more light on the ef</text>
  <text x="427.692" y="708.211" svg_rhmargin="432.641" style="fill:#171615;font-family:IJFBOH+AdvOTbc475f09+fb;font-size:8.97px;font-style:NORMAL;font-weight:normal;">ﬁ</text>
  <text x="432.624,436.543,438.964,442.882,447.831,451.749,456.232,460.573,465.523,468.41,472.705,478.587,485.491,491.929,496.29,500.773,503.194,507.677,511.595,516.544,520.837,525.786,529.704,533.156,535.577,540.527,545.476,549.394,552.846,557.329,560.217,562.638,567.121,571.039,573.46,577.943,582.29,585.177" y="708.211" svg_rhmargin="590.126" style="fill:#171615;font-family:IJFBOG+AdvOTbc475f09;font-size:8.97px;font-style:NORMAL;font-weight:normal;">ciency of TXA given perioperatively to</text>
  <text x="345.09,350.039,353.958,357.876,361.328,365.246,369.729,373.181,377.099,380.068,385.018,387.439,392.388,397.337,402.286,405.296,407.717,412.666,416.118,419.57,422.587,427.536,432.485,435.937,438.358,443.308,447.791,450.762,456.644,463.082,469.52" y="719.2090000000001" svg_rhmargin="471.941" style="fill:#171615;font-family:IJFBOG+AdvOTbc475f09;font-size:8.97px;font-style:NORMAL;font-weight:normal;">decrease blood loss during TKA.</text>
  <path d=" M 85.03900146484375 766.885009765625 L 590.115966796875 766.885009765625 L 590.115966796875 767.6220092773438 L 85.03900146484375 767.6220092773438 Z " style="fill:none;stroke:#000000;stroke-width:1.0;"/>
  <path d=" M 85.03900146484375 446.2300109863281 L 590.115966796875 446.2300109863281 L 590.115966796875 447.0237121582031 L 85.03900146484375 447.0237121582031 Z " style="fill:none;stroke:#000000;stroke-width:1.0;"/>
  <path d="M111.797 40.202 L563.356 40.202 L563.356 334.665 L111.797 334.665 " style="fill:none;stroke:#000000;stroke-width:1.0;"/>
  <rect style="stroke:blue;stroke-width:0.3;" x="111.798" y="40.202" height="294.463" width="451.775" title="7"/>
  <text x="111.798" y="40.202" class="image" id="image.7.1" width="451" height="294">image.7.1.112_564.40_335</text>
  <text svg_rhmargin="123.951" x="93.827,98.184,99.97,104.327,108.602,111.165,115.29,117.81,121.934,123.951" y="345.663" style="fill:#171615;font-family:IJFCFN+AdvOTf94803d4;font-size:7.47px;font-style:NORMAL;font-weight:normal;">Figure 8. </text>
  <text svg_rhmargin="440.63" x="127.673,131.64,135.765,138.096,141.906,145.485,147.65900000000002,150.178,154.452,155.774,159.898,162.072,164.633,168.907,170.23,174.04,178.165,180.496,184.307,190.44899999999998,192.978,196.557,200.524,204.649,210.17,211.493,215.46,219.585,222.115,225.926,227.794,229.662,233.473,237.283,239.457,241.957,246.081,247.94899999999998,250.46,254.585,256.916,260.727,262.04999999999995,264.576,266.75,269.082,272.892,276.86,280.67,284.249,288.06,294.202,295.524,299.335,301.877,305.687,309.498,310.821,315.095,317.58,321.704,325.672,328.181,330.355,334.322,338.133,340.652,342.984,344.306,347.885,351.621,354.144,358.269,360.137,362.591,366.865,370.833,372.155,378.297,382.421,386.389,390.199,392.636,396.05800000000005,398.532,402.343,408.484,412.758,416.883,418.205,419.528,423.107,429.249,431.266,433.792,439.001,440.63" y="345.663" style="fill:#171615;font-family:IJFBOA+AdvOT6e5d2ec0;font-size:7.47px;font-style:NORMAL;font-weight:normal;">Forest plot diagram showing effect of oral tranexamic acid on the risk of pulmonary embolism. CI </text>
  <text svg_rhmargin="448.225" x="443.167,448.226" y="345.663" style="fill:#171615;font-family:IJFBOF+AdvOTb0c9bf5d;font-size:7.47px;font-style:NORMAL;font-weight:normal;">= </text>
  <text x="450.764,454.575,458.7" y="345.663" svg_rhmargin="462.668" style="fill:#171615;font-family:IJFBOA+AdvOT6e5d2ec0;font-size:7.47px;font-style:NORMAL;font-weight:normal;">con</text>
  <text x="462.669" y="345.663" svg_rhmargin="465.934" style="fill:#171615;font-family:IJFBOD+AdvOT6e5d2ec0+fb;font-size:7.47px;font-style:NORMAL;font-weight:normal;">ﬁ</text>
  <text svg_rhmargin="524.857" x="465.958,470.231,474.042,478.01,481.82,485.631,488.123,489.445,493.413,495.587,499.398,501.729,505.151,508.961,510.284,512.301,514.823,519.799,524.858" y="345.663" style="fill:#171615;font-family:IJFBOA+AdvOT6e5d2ec0;font-size:7.47px;font-style:NORMAL;font-weight:normal;">dence interval, RD </text>
  <text svg_rhmargin="532.47" x="527.412,532.471" y="345.663" style="fill:#171615;font-family:IJFBOF+AdvOTb0c9bf5d;font-size:7.47px;font-style:NORMAL;font-weight:normal;">= </text>
  <text x="534.952,537.283,538.606,542.185,545.9209999999999,548.445,552.719,554.041,555.909,557.777,561.588,563.919,567.729,571.697,575.507,579.318" y="345.663" svg_rhmargin="581.335" style="fill:#171615;font-family:IJFBOA+AdvOT6e5d2ec0;font-size:7.47px;font-style:NORMAL;font-weight:normal;">risk difference.</text>
  <text x="85.039,89.272,90.683,93.316,97.381,99.7,102.331,106.396,107.806,109.958,112.649,119.2,123.265,127.824,129.235,133.3,134.71,138.943,143.008,145.587,147.492,151.891,156.291,160.69,165.09,166.995,169.623,174.023,178.422,180.574,184.974,189.373,517.041,522.931,528.821,534.711,536.863,543.414,547.973,550.874,552.285,556.685,560.917,563.3,567.532,571.597,573.008,575.16,579.224,583.624" y="9.870999999999981" svg_rhmargin="590.176" style="fill:#171615;font-family:IJFBOA+AdvOT6e5d2ec0;font-size:7.97px;font-style:NORMAL;font-weight:normal;">Li et al. Medicine (2018) 97:45 www.md-journal.com</text>
  <text x="335.396" y="739.625" svg_rhmargin="339.796" style="fill:#171615;font-family:IJFCFN+AdvOTf94803d4;font-size:7.97px;font-style:NORMAL;font-weight:normal;">7</text>
 </g>
</svg>
