<?xml version="1.0" encoding="UTF-8"?>
<svg height="870.031005859375" width="672.0029907226562" xmlns="http://www.w3.org/2000/svg">
 <g style="fill:none;">
  <path d=" M 0.05999799817800522 826.072021484375 L 22.619997024536133 826.072021484375 L 22.619997024536133 826.35546875 L 0.05999799817800522 826.35546875 Z " style="fill:none;stroke:#000000;stroke-width:1.0;"/>
  <path d=" M 33.67599868774414 837.4110107421875 L 33.959449768066406 837.4110107421875 L 33.959449768066406 860.031005859375 L 33.67599868774414 860.031005859375 Z " style="fill:none;stroke:#000000;stroke-width:1.0;"/>
  <path d=" M 627.9869995117188 837.4110107421875 L 628.2703857421875 837.4110107421875 L 628.2703857421875 860.031005859375 L 627.9869995117188 860.031005859375 Z " style="fill:none;stroke:#000000;stroke-width:1.0;"/>
  <path d=" M 639.3259887695312 826.072021484375 L 662.0029907226562 826.072021484375 L 662.0029907226562 826.35546875 L 639.3259887695312 826.35546875 Z " style="fill:none;stroke:#000000;stroke-width:1.0;"/>
  <path d=" M 639.3259887695312 33.731998443603516 L 662.0029907226562 33.731998443603516 L 662.0029907226562 34.015480041503906 L 639.3259887695312 34.015480041503906 Z " style="fill:none;stroke:#000000;stroke-width:1.0;"/>
  <path d=" M 627.9869995117188 0.0 L 628.2703857421875 0.0 L 628.2703857421875 22.677000045776367 L 627.9869995117188 22.677000045776367 Z " style="fill:none;stroke:#000000;stroke-width:1.0;"/>
  <path d=" M 33.67599868774414 0.0 L 33.959449768066406 0.0 L 33.959449768066406 22.677000045776367 L 33.67599868774414 22.677000045776367 Z " style="fill:none;stroke:#000000;stroke-width:1.0;"/>
  <path d=" M 0.05999799817800522 33.731998443603516 L 22.619997024536133 33.731998443603516 L 22.619997024536133 34.015480041503906 L 0.05999799817800522 34.015480041503906 Z " style="fill:none;stroke:#000000;stroke-width:1.0;"/>
  <path d=" M 85.03900146484375 671.583984375 L 566.248046875 671.583984375 C 579.43896484375 671.5999755859375 590.1749877929688 660.8809814453125 590.115966796875 647.6599731445312 L 590.115966796875 418.5069885253906 L 85.03900146484375 418.5069885253906" style="fill:none;stroke:#000000;stroke-width:1.0;"/>
  <path d=" M 85.03900146484375 671.583984375 L 566.248046875 671.583984375 L 566.248046875 671.3569946289062 L 85.26599884033203 671.3569946289062" style="fill:none;stroke:#000000;stroke-width:1.0;"/>
  <path d=" M 566.2490234375 671.583984375 L 569.9910278320312 671.3009643554688 C 580.1929931640625 669.6740112304688 588.2780151367188 661.6510009765625 589.8330078125 651.4010009765625 L 590.1170043945312 647.6599731445312 L 589.8900146484375 647.6599731445312 L 589.6069946289062 651.4010009765625 C 588.0450439453125 661.56201171875 580.02001953125 669.3839721679688 569.9340209960938 671.073974609375 L 566.2490234375 671.3569946289062" style="fill:none;stroke:#000000;stroke-width:1.0;"/>
  <path d=" M 590.1160278320312 647.6599731445312 L 590.1160278320312 418.5069580078125 L 589.8890380859375 418.7339782714844 L 589.8890380859375 647.6599731445312" style="fill:none;stroke:#000000;stroke-width:1.0;"/>
  <path d=" M 590.1160278320312 418.5069885253906 L 85.03903198242188 418.5069885253906 L 85.26602172851562 418.7339782714844 L 589.8890380859375 418.7339782714844" style="fill:none;stroke:#000000;stroke-width:1.0;"/>
  <path d=" M 85.03900146484375 418.5069885253906 L 85.03900146484375 671.583984375 L 85.26599884033203 671.3569946289062 L 85.26599884033203 418.7339782714844" style="fill:none;stroke:#000000;stroke-width:1.0;"/>
  <text x="85.039,103.291,115.326,122.997,134.614,142.703,154.32,166.773,178.389,184.307,194.888,205.886,211.685,222.684,229.378,241.413,248.666,255.343,263.014,275.467,287.502,294.177,306.631,314.92,326.954,338.989,351.443,363.478,374.476,382.148,387.946,399.562,406.315,416.895,428.512,434.31,446.763,458.798,465.445,477.48,484.733,491.41,497.208,509.243,521.696" y="81.077" svg_rhmargin="533.731" style="fill:#171615;font-family:NCNDPH+AdvOTfbba3ace.B;font-size:19.93px;font-style:NORMAL;font-weight:normal;">Meta-analysis of the prognostic value of long</text>
  <text x="85.039,97.495,109.532,121.987,130.079,141.697,153.734,166.189,171.989,184.445,196.48,203.115,217.423,232.15,246.038,252.781,266.272,279.126,291.98,304.433,311.124,318.379,330.415,338.704,345.369,356.988,368.606,381.062,392.68,404.717,413.006,419.761,432.216,443.834,451.508,457.308,469.345,481.8,489.473" y="101.03200000000004" svg_rhmargin="500.472" style="fill:#171615;font-family:NCNDPH+AdvOTfbba3ace.B;font-size:19.93px;font-style:NORMAL;font-weight:normal;">non-coding RNA PVT1 for cancer patients</text>
  <text x="85.039,92.331,97.885,103.22,108.994,112.479,121.078,126.413,129.237,132.718,141.317" y="118.83500000000004" svg_rhmargin="148.399" style="fill:#171615;font-family:NCNEAI+AdvOT6e5d2ec0;font-size:10.46px;font-style:NORMAL;font-weight:normal;">Chao Ma, MD</text>
  <text x="148.422" y="114.18600000000004" svg_rhmargin="152.423" style="fill:#171615;font-family:NCNEAI+AdvOT6e5d2ec0;font-size:6.97px;font-style:NORMAL;font-weight:normal;">a</text>
  <text x="152.391,155.215,158.74,164.724,166.575,172.13,177.904,181.712,189.442,194.997,200.77100000000002,204.208,211.499,213.35,218.685,221.50900000000001,225.014,233.613" y="118.83500000000004" svg_rhmargin="240.695" style="fill:#171615;font-family:NCNEAI+AdvOT6e5d2ec0;font-size:10.46px;font-style:NORMAL;font-weight:normal;">, Xing-Guo Nie, MD</text>
  <text x="240.661" y="114.18600000000004" svg_rhmargin="244.662" style="fill:#171615;font-family:NCNEAI+AdvOT6e5d2ec0;font-size:6.97px;font-style:NORMAL;font-weight:normal;">a</text>
  <text x="244.687,247.51100000000002,250.98,257.298,262.633,268.188,271.995,277.55,279.402,282.897,292.375,297.71,303.264,309.039,311.863,315.326,323.924" y="118.83500000000004" svg_rhmargin="331.006" style="fill:#171615;font-family:NCNEAI+AdvOT6e5d2ec0;font-size:10.46px;font-style:NORMAL;font-weight:normal;">, Yan-Li Wang, MD</text>
  <text x="331.03" y="114.18600000000004" svg_rhmargin="335.518" style="fill:#171615;font-family:NCNEAI+AdvOT6e5d2ec0;font-size:6.97px;font-style:NORMAL;font-weight:normal;">b</text>
  <text x="335.509,338.333,341.802,348.884,354.219,358.026,364.564,369.899,375.454,381.228,384.718,394.195,399.75,402.574,406.035,414.633" y="118.83500000000004" svg_rhmargin="421.715" style="fill:#171615;font-family:NCNEAI+AdvOT6e5d2ec0;font-size:10.46px;font-style:NORMAL;font-weight:normal;">, Da-Peng Wu, MD</text>
  <text x="421.738,425.74" y="114.18600000000004" svg_rhmargin="427.858" style="fill:#171615;font-family:NCNEAI+AdvOT6e5d2ec0;font-size:6.97px;font-style:NORMAL;font-weight:normal;">a,</text>
  <text x="427.861" y="112.20100000000002" svg_rhmargin="431.941" style="fill:#171615;font-family:NCNEAJ+AdvOTb0c9bf5d+22;font-size:6.97px;font-style:NORMAL;font-weight:normal;">∗</text>
  <text x="431.943,434.767,438.236,445.967,447.818,453.373,457.181,463.164,468.939,474.493,480.267,483.76,489.315,491.166,496.501,502.056,507.83,510.654,514.091,522.69" y="118.83500000000004" svg_rhmargin="529.772" style="fill:#171615;font-family:NCNEAI+AdvOT6e5d2ec0;font-size:10.46px;font-style:NORMAL;font-weight:normal;">, Qiu-dong Liang, MD</text>
  <text x="529.795,533.796" y="114.18600000000004" svg_rhmargin="535.914" style="fill:#171615;font-family:NCNEAI+AdvOT6e5d2ec0;font-size:6.97px;font-style:NORMAL;font-weight:normal;">a,</text>
  <text x="535.918" y="112.20100000000002" svg_rhmargin="539.998" style="fill:#171615;font-family:NCNEAJ+AdvOTb0c9bf5d+22;font-size:6.97px;font-style:NORMAL;font-weight:normal;">∗</text>
  <text x="91.276,97.915,104.052,109.607,113.09,117.155,123.045,128.935" y="140.60500000000002" svg_rhmargin="132.418" style="fill:#171615;font-family:NCNEAK+AdvOT91f5f621.B;font-size:7.97px;font-style:NORMAL;font-weight:normal;">Abstract</text>
  <text svg_rhmargin="152.86" x="91.276,98.329,104.219,110.109,115.832,121.969,126.034,132.171,137.932,143.822,149.959,152.86" y="150.58299999999997" style="fill:#171615;font-family:NCNEAK+AdvOT91f5f621.B;font-size:7.97px;font-style:NORMAL;font-weight:normal;">Background: </text>
  <text x="154.148,159.752,161.339,165.912,170.207,177.577,182.15,186.723,190.829,193.438,198.388,205.758,210.33100000000002,212.029,216.136,220.708,223.506,225.093,229.666,234.427,237.036,238.674,241.283,244.081,248.654,253.415,257.71,259.297,264.246,268.819,273.392,276.001,277.588,282.537,287.298,289.016,293.96500000000003,295.592,297.735,303.339,308.567,313.516,318.465,320.60799999999995,322.237,323.825,328.12,329.777,332.575,337.148,342.276,347.226,350.023,352.632,357.205,362.334,364.019,366.628,371.577,373.203,378.332,382.905,384.598,389.727,393.833,398.128,400.926,405.499,410.448,415.209,416.796,421.369,423.978,428.551,433.68,435.337,436.924,441.685,443.33,447.437,452.009,454.807,456.394,461.343,466.104,470.399,472.072,476.645,481.218,485.979,490.552,495.125,497.922,502.217,504.638,506.314,511.263,516.024,520.597,523.395,527.968,530.209,535.159,537.956,542.529,544.95,546.565,549.174,553.935,555.522,559.817,561.475,568.845,573.418,576.027,580.6" y="150.58299999999997" svg_rhmargin="583.864" style="fill:#171615;font-family:NCNEAI+AdvOT6e5d2ec0;font-size:8.97px;font-style:NORMAL;font-weight:normal;">Plasmacytoma variant translocation 1 (PVT1) is reported to be dysregulated in various cancers. Therefore, this meta-</text>
  <text x="91.275,95.848,100.609,105.182,106.769,110.876,115.171,116.758,121.053,124.043,130.669,135.242,139.53699999999998,142.524,147.653,152.226,155.023,157.265,162.214,165.012,172.382,176.955,182.084,185.099,187.708,192.657,195.643,200.216,201.803,206.376,209.173,210.76,213.002,217.108,220.134,221.721,224.33,228.625,231.585,236.347,238.956,240.543,242.13,243.717,246.326,250.432,253.469,258.041,262.336,265.318,269.89099999999996,272.915,278.043,280.841,285.79,290.74,295.501,300.45,304.745,306.332,310.627,313.619,320.989,325.562,328.36,332.843,337.416,340.213,343.211,344.799,349.56,352.566,359.936,364.509,366.096,367.683,372.633,377.394,381.967,386.728,389.337,392.306,394.916,399.677,407.047,411.996,414.794,419.089" y="161.524" svg_rhmargin="421.51" style="fill:#171615;font-family:NCNEAI+AdvOT6e5d2ec0;font-size:8.97px;font-style:NORMAL;font-weight:normal;">analysis was performed to clarify its utility as a prognosis marker in malignant tumors.</text>
  <text svg_rhmargin="136.323" x="91.276,100.242,106.22,109.703,115.593,121.73,127.867,133.422,136.323" y="175.755" style="fill:#171615;font-family:NCNEAK+AdvOT91f5f621.B;font-size:7.97px;font-style:NORMAL;font-weight:normal;">Methods: </text>
  <text x="137.99,143.218,144.805,149.378,153.951,156.56,159.357,164.307,169.068,170.655,175.228,177.334,182.462,187.035,189.644,194.217,199.346,203.919,208.214,212.786,217.081,219.50199999999998,221.609,223.196,227.957,232.53,234.117,238.878,244.007,245.594,250.355,255.304,257.438,263.042,267.803,272.932,280.302,284.875,290.003,292.424,294.513,301.14,306.367,308.322,314.392,316.813,318.948,325.197,330.146,334.719,339.48,342.278,346.851,351.612,356.185,358.291,363.052,364.639,369.768,372.565,377.138,379.935,384.042,386.46299999999997,388.564,393.137,397.898,403.02700000000004,405.117,413.241,417.814,422.94300000000004,425.073,430.022,432.264,434.37,439.974,444.547,446.134,450.706,455.468,460.04,464.613,466.684,471.812,476.385,478.994,483.567,488.696,493.269,497.563,502.136,506.431,508.852,511.016,517.642,522.214,525.012,529.5849999999999,531.651,534.449,539.022,541.631,544.428,546.016,550.588,554.695,559.268,564.397,566.517,568.759,571.556,576.505" y="175.755" svg_rhmargin="583.875" style="fill:#171615;font-family:NCNEAI+AdvOT6e5d2ec0;font-size:8.97px;font-style:NORMAL;font-weight:normal;">Electronic databases, including PubMed, OVID, Cochrane Library, and Web of Science databases, were retrieved from</text>
  <text x="91.275,92.862,97.623,102.196,106.769,111.898,114.507,116.094,121.043,125.804,127.444,130.054,135.00300000000001,136.685,142.755,147.328,151.901,156.474,163.844,168.973,173.546,176.343,178.013,182.962,187.911,190.332,192.015,196.965,201.914,206.863,211.813,214.23399999999998,215.882,220.831,224.938,230.066,231.653,236.226,240.799,242.386,243.973,248.08,250.501,252.164,256.925,261.498,265.604,270.177,272.975,278.10400000000004,279.772,282.569,287.142,289.751,291.339,296.288,300.583,302.278,304.421,310.671,316.642,320.937,323.08,324.728,329.301,334.062,339.19100000000003,340.829,345.402,350.351,353.149,355.946,360.519,364.814,369.943,374.892,379.653,384.782,386.369,391.13,396.079,397.804,402.753,407.702,415.637,417.249,421.822,426.771" y="186.69600000000003" svg_rhmargin="431.532" style="fill:#171615;font-family:NCNEAI+AdvOT6e5d2ec0;font-size:8.97px;font-style:NORMAL;font-weight:normal;">inception to December 16, 2017. Typically, hazard ratios (HRs) and corresponding 95% con</text>
  <text x="431.547" y="186.69600000000003" svg_rhmargin="435.465" style="fill:#171615;font-family:NCNEAL+AdvOT6e5d2ec0+fb;font-size:8.97px;font-style:NORMAL;font-weight:normal;">ﬁ</text>
  <text x="435.516,440.644,445.217,449.978,454.551,459.12399999999997,460.743,462.33,467.091,469.701,474.273,477.071,481.177,485.75,487.337,491.632,493.34,495.483,501.733,503.687,507.982,510.125,511.765,518.391,522.964,525.761,530.334,532.004,536.577,541.149,542.736,547.309,552.07,553.657,558.23,560.839,565.412,570.541,572.9620000000001,574.692,578.987" y="186.69600000000003" svg_rhmargin="583.936" style="fill:#171615;font-family:NCNEAI+AdvOT6e5d2ec0;font-size:8.97px;font-style:NORMAL;font-weight:normal;">dence intervals (CIs) were calculated, so</text>
  <text x="91.275,95.848,100.143,102.217,104.826,109.77499999999999,111.911,116.484,120.779,125.907,127.495,132.444,135.241,139.81400000000002,141.901,144.51,149.271,153.844,155.96,158.757,163.33,164.917,169.49,172.099,173.686,178.636,183.397,187.692,192.453,194.04,199.16899999999998,201.312,206.441,211.014,213.623,220.249,224.822,229.395,234.156,236.234,241.838,247.066,252.015,256.964,259.081,263.654,267.949,273.078,275.875,280.448,284.743,289.038,290.625,295.574,300.33500000000004,302.45,307.022,311.783,316.91200000000003,319.003,324.132,328.705,331.314,332.901,337.474,342.235,344.844,347.008,351.303,356.064,358.862,362.968,364.556,368.662,373.235,374.822,377.243,379.322,381.277,386.038,388.166,392.739,397.868,402.997,404.584,407.193,408.78,413.729,418.491,420.912,423.031,427.98,433.109,438.238,442.533,444.631,447.428,452.001,454.61,456.197,461.147,465.442,467.591,469.734,476.36,482.331,484.474,486.582,493.208,497.781,500.579,505.152,507.275,511.848,516.42,518.008,522.58,527.341,528.928,533.501,536.11,540.683,545.812,547.923,550.532,555.481,557.561,562.133,566.428,570.723,575.296,579.591" y="197.63800000000003" svg_rhmargin="583.886" style="fill:#171615;font-family:NCNEAI+AdvOT6e5d2ec0;font-size:8.97px;font-style:NORMAL;font-weight:normal;">as to explore the relationship between PVT1 expression and patient survival. In addition, odds ratios (OR) were calculated to assess</text>
  <text x="91.275,93.884,98.645,103.21799999999999,106.185,110.758,115.053,119.348,124.297,128.87,130.457,135.03,137.639,139.226,144.175,148.936,151.935,156.884,159.12599999999998,162.139,167.743,172.971,177.92,182.869,185.836,190.409,194.704,199.833,202.63,207.203,211.498,215.793,217.38,222.329,227.09,230.112,236.738,238.325,240.934,245.695,248.707,253.836,258.409,261.018,265.779,270.729,272.316,277.265,282.214,283.801,288.374,292.947,294.534,297.518,302.647,307.22,310.017,314.59,321.96,326.533,329.142,333.715,336.513,340.807" y="208.57899999999995" svg_rhmargin="343.228" style="fill:#171615;font-family:NCNEAI+AdvOT6e5d2ec0;font-size:8.97px;font-style:NORMAL;font-weight:normal;">the association of PVT1 expression with pathological parameters.</text>
  <text svg_rhmargin="129.676" x="91.276,97.994,103.972,109.527,115.417,117.737,121.22,126.775,129.67600000000002" y="222.80999999999995" style="fill:#171615;font-family:NCNEAK+AdvOT91f5f621.B;font-size:7.97px;font-style:NORMAL;font-weight:normal;">Results: </text>
  <text x="131.074,136.67800000000003,138.557,141.166,146.116,148.725,153.298,154.885,156.699,161.648,163.89,165.713,170.662,175.61100000000002,177.448,181.743,184.352,189.113,194.242,195.829,200.401,204.696,206.587,208.174,212.935,217.042,221.991,223.578,227.685,229.272,234.033,238.982,240.829,245.778,250.728,255.677,260.626,262.429,267.557,272.13,274.739,276.326,280.899,285.66,288.269,292.564,294.402,301.029,305.601,308.399,312.972,314.868,316.455,321.216,325.789,327.376,332.137,337.266,341.839,346.968,348.826,350.413,355.17400000000004,356.99,359.599,364.36,365.947,370.242,372.07,379.441,384.013,386.623,391.195,394.459,399.032,403.793,408.366,409.953,414.059,418.354,419.941,424.236,426.657,428.535,433.484,438.245,442.818,444.635,449.764,454.714,459.663,461.25,465.823,470.952,472.811,479.061,485.032,486.871,491.166,495.927,500.877,505.826,510.399,514.694,517.303,521.876,527.005,528.879,531.488,536.25,540.822,543.431,545.263,550.024,551.612,556.561,561.322,563.178,568.782,574.009,578.959" y="222.80999999999995" svg_rhmargin="583.908" style="fill:#171615;font-family:NCNEAI+AdvOT6e5d2ec0;font-size:8.97px;font-style:NORMAL;font-weight:normal;">A total of 23 studies involving 2350 patients were included in this meta-analysis. The pooled HR suggested that high PVT1</text>
  <text x="91.275,95.848,100.143,105.272,108.069,112.642,116.937,121.232,122.819,127.768,132.529,135.268,136.855,141.427,145.534,150.107,151.694,155.98899999999998,158.681,165.307,169.88,172.678,177.251,179.997,184.57,189.519,192.317,195.114,199.687,201.274,205.847,208.456,213.029,218.158,220.872,227.498,229.085,231.694,236.45499999999998,239.183,244.311,249.261,254.21,257.007,259.761,264.71,268.817,273.39,276.187,280.76,282.347,283.93399999999997,286.632,290.927,295.688,298.486,302.592,304.179,308.286,312.859,314.44599999999997,317.188,319.331,325.958,331.561,333.98199999999997,336.69,342.94" y="233.75099999999998" svg_rhmargin="348.912" style="fill:#171615;font-family:NCNEAI+AdvOT6e5d2ec0;font-size:8.97px;font-style:NORMAL;font-weight:normal;">expression levels were correlated with poor overall survival (OS, HR</text>
  <text x="350.079" y="233.75099999999998" svg_rhmargin="356.149" style="fill:#171615;font-family:NCNEAM+AdvOTb0c9bf5d;font-size:8.97px;font-style:NORMAL;font-weight:normal;">=</text>
  <text x="357.279,362.229,364.65,369.599,374.549,376.96999999999997,379.673,384.622,389.572,397.507,400.195,406.444,408.399,410.82,413.574,418.524,420.945,425.894" y="233.75099999999998" svg_rhmargin="430.843" style="fill:#171615;font-family:NCNEAI+AdvOT6e5d2ec0;font-size:8.97px;font-style:NORMAL;font-weight:normal;">1.99, 95% CI: 1.73</text>
  <text x="430.867" y="233.75099999999998" svg_rhmargin="435.35" style="fill:#171615;font-family:NCNEAN+AdvOT6e5d2ec0+20;font-size:8.97px;font-style:NORMAL;font-weight:normal;">–</text>
  <text x="435.345,440.295,442.716,447.665,452.615,454.757,457.178,459.892,465.021,466.608,470.903,475.476,480.049,484.344,488.916,492.18,494.422,497.219,501.792,506.36499999999995,509.1,513.395,518.156,520.954,525.06,526.647,530.754,535.327,536.914,539.657,541.8,547.87,552.631,558.235,560.6560000000001,563.354,569.603" y="233.75099999999998" svg_rhmargin="575.575" style="fill:#171615;font-family:NCNEAI+AdvOT6e5d2ec0;font-size:8.97px;font-style:NORMAL;font-weight:normal;">2.28), disease-free survival (DFS, HR</text>
  <text x="576.738" y="233.75099999999998" svg_rhmargin="582.808" style="fill:#171615;font-family:NCNEAM+AdvOTb0c9bf5d;font-size:8.97px;font-style:NORMAL;font-weight:normal;">=</text>
  <text x="91.274,96.224,98.645,103.594,108.543,110.96400000000001,114.064,119.013,123.963,131.898,134.983,141.233,143.187,145.608,148.703,153.652,156.073,161.022" y="244.69299999999998" svg_rhmargin="165.971" style="fill:#171615;font-family:NCNEAI+AdvOT6e5d2ec0;font-size:8.97px;font-style:NORMAL;font-weight:normal;">1.76, 95% CI: 1.45</text>
  <text x="165.996" y="244.69299999999998" svg_rhmargin="170.479" style="fill:#171615;font-family:NCNEAN+AdvOT6e5d2ec0+20;font-size:8.97px;font-style:NORMAL;font-weight:normal;">–</text>
  <text x="170.475,175.424,177.845,182.794,187.744,189.887,192.308,195.419,199.992,204.753,209.88199999999998,212.936,215.734,220.307,224.879,229.641,232.438,235.236,239.808,244.569,249.142,253.715,256.979,259.22,262.018,266.591,271.164,274.332,278.627,283.388,286.186,290.292,291.879,295.986,300.559,302.146,305.229,307.372,313.344,318.105,323.709,326.13,329.21,335.459" y="244.69299999999998" svg_rhmargin="341.431" style="fill:#171615;font-family:NCNEAI+AdvOT6e5d2ec0;font-size:8.97px;font-style:NORMAL;font-weight:normal;">2.14), and recurrence-free survival (RFS, HR</text>
  <text x="342.595" y="244.69299999999998" svg_rhmargin="348.665" style="fill:#171615;font-family:NCNEAM+AdvOTb0c9bf5d;font-size:8.97px;font-style:NORMAL;font-weight:normal;">=</text>
  <text x="349.795,354.745,357.166,362.115,367.064,369.485,372.585,377.534,382.484,390.419,393.504,399.754,401.708,404.129,407.223,412.173,414.594,419.543" y="244.69299999999998" svg_rhmargin="424.492" style="fill:#171615;font-family:NCNEAI+AdvOT6e5d2ec0;font-size:8.97px;font-style:NORMAL;font-weight:normal;">1.74, 95% CI: 1.26</text>
  <text x="424.517" y="244.69299999999998" svg_rhmargin="429.0" style="fill:#171615;font-family:NCNEAN+AdvOT6e5d2ec0+20;font-size:8.97px;font-style:NORMAL;font-weight:normal;">–</text>
  <text x="428.995,433.945,436.366,441.315,446.265,448.40799999999996,451.502,453.089,457.85,460.913,465.486,470.058,474.82,479.392,483.965,486.762,489.882,495.011,499.584,502.193,503.78,508.353,513.114,515.723,520.0179999999999,523.103,529.729,531.316,533.925,538.687,543.636,548.397,551.0060000000001,554.113,559.062,564.191,568.298,569.885,574.834,579.595" y="244.69299999999998" svg_rhmargin="583.89" style="fill:#171615;font-family:NCNEAI+AdvOT6e5d2ec0;font-size:8.97px;font-style:NORMAL;font-weight:normal;">2.39) in cancer patients without obvious</text>
  <text x="91.274,96.035,100.608,103.217,107.79,110.588,115.537,120.487,125.059,129.821,134.393,135.98,138.59,142.696,145.117,147.681,155.052,160.001,162.799,167.371,172.321,176.427,181.0,183.798,186.219,188.782,193.543,195.13,200.08,204.841,207.32,212.924,218.151,223.101,228.05,230.62,235.193,239.487,244.616,247.414,251.986,256.281,260.576,262.163,267.113,271.874,274.385,275.972,280.545,284.652,289.224,290.811,295.106,297.628,304.255,308.827,311.625,316.198,318.775,323.347,324.934,329.229,334.178,336.689,341.262,346.211,349.009,351.806,356.379,357.966,362.539,365.148,369.721,374.85,377.394,384.02,385.607,388.216,392.97700000000003,395.535,397.122,401.695,404.492,409.442,414.015,416.812,419.345,421.954,426.715,434.086,439.035,441.83200000000005,444.402,448.697,450.284,454.391,458.964,461.466,463.609,470.235" y="255.69100000000003" svg_rhmargin="476.207" style="fill:#171615;font-family:NCNEAI+AdvOT6e5d2ec0;font-size:8.97px;font-style:NORMAL;font-weight:normal;">heterogeneity. Moreover, high PVT1 expression levels were also correlated with larger tumor size (OR</text>
  <text x="477.354" y="255.69100000000003" svg_rhmargin="483.424" style="fill:#171615;font-family:NCNEAM+AdvOTb0c9bf5d;font-size:8.97px;font-style:NORMAL;font-weight:normal;">=</text>
  <text x="484.554,489.504,491.925,496.874,501.823,504.24399999999997,506.777,511.727,516.676,524.611,527.13,533.379,535.334,537.755,540.282,545.232,547.653,552.602" y="255.69100000000003" svg_rhmargin="557.551" style="fill:#171615;font-family:NCNEAI+AdvOT6e5d2ec0;font-size:8.97px;font-style:NORMAL;font-weight:normal;">1.47, 95% CI: 1.02</text>
  <text x="557.575" y="255.69100000000003" svg_rhmargin="562.058" style="fill:#171615;font-family:NCNEAN+AdvOT6e5d2ec0+20;font-size:8.97px;font-style:NORMAL;font-weight:normal;">–</text>
  <text x="562.054,567.003,569.424,574.373,579.323,581.466" y="255.69100000000003" svg_rhmargin="583.887" style="fill:#171615;font-family:NCNEAI+AdvOT6e5d2ec0;font-size:8.97px;font-style:NORMAL;font-weight:normal;">2.11),</text>
  <text x="91.273,96.402,101.352,106.301,109.098,111.909,117.038,118.625,120.867,123.108,127.681,130.479,135.051,139.813,142.422,144.009,148.582,151.191,152.778,157.727,162.488,165.312,170.261,173.059,177.632,182.76,187.333,190.2,192.343,198.969" y="266.63199999999995" svg_rhmargin="204.941" style="fill:#171615;font-family:NCNEAI+AdvOT6e5d2ec0;font-size:8.97px;font-style:NORMAL;font-weight:normal;">poor differentiation grade (OR</text>
  <text x="206.077" y="266.63199999999995" svg_rhmargin="212.147" style="fill:#171615;font-family:NCNEAM+AdvOTb0c9bf5d;font-size:8.97px;font-style:NORMAL;font-weight:normal;">=</text>
  <text x="213.277,218.226,220.647,225.597,230.546,232.96699999999998,235.783,240.733,245.682,253.617,256.419,262.669,264.623,267.044,269.855,274.805,277.226,282.175" y="266.63199999999995" svg_rhmargin="287.124" style="fill:#171615;font-family:NCNEAI+AdvOT6e5d2ec0;font-size:8.97px;font-style:NORMAL;font-weight:normal;">1.79, 95% CI: 1.39</text>
  <text x="287.149" y="266.63199999999995" svg_rhmargin="291.632" style="fill:#171615;font-family:NCNEAN+AdvOT6e5d2ec0+20;font-size:8.97px;font-style:NORMAL;font-weight:normal;">–</text>
  <text x="291.627,296.577,298.998,303.947,308.896,311.039,313.46,316.288,320.861,325.99,330.096,334.669,339.43,344.003,348.576,353.70500000000004,356.539,359.148,363.909,371.279,376.229,379.026,381.879,386.174,388.783,393.356,398.306,402.87899999999996,405.689,407.832,412.961,417.91,422.86,424.447,429.02,434.149,436.983,443.609" y="266.63199999999995" svg_rhmargin="449.581" style="fill:#171615;font-family:NCNEAI+AdvOT6e5d2ec0;font-size:8.97px;font-style:NORMAL;font-weight:normal;">2.30), advanced tumor stage (pooled OR</text>
  <text x="450.708" y="266.63199999999995" svg_rhmargin="456.778" style="fill:#171615;font-family:NCNEAM+AdvOTb0c9bf5d;font-size:8.97px;font-style:NORMAL;font-weight:normal;">=</text>
  <text x="457.908,462.858,465.278,470.228,475.177,477.598,480.414,485.364,490.313,498.248,501.05,507.3,509.255,511.676,514.543,519.492,521.913,526.863" y="266.63199999999995" svg_rhmargin="531.812" style="fill:#171615;font-family:NCNEAI+AdvOT6e5d2ec0;font-size:8.97px;font-style:NORMAL;font-weight:normal;">3.28, 95% CI: 2.46</text>
  <text x="531.78" y="266.63199999999995" svg_rhmargin="536.263" style="fill:#171615;font-family:NCNEAN+AdvOT6e5d2ec0+20;font-size:8.97px;font-style:NORMAL;font-weight:normal;">–</text>
  <text x="536.258,541.208,543.629,548.578,553.527,555.67,558.091,560.919,562.506,566.613,573.983,579.112" y="266.63199999999995" svg_rhmargin="583.873" style="fill:#171615;font-family:NCNEAI+AdvOT6e5d2ec0;font-size:8.97px;font-style:NORMAL;font-weight:normal;">4.38), lymph</text>
  <text x="91.274,96.035,100.985,106.114,110.68700000000001,113.668,121.038,125.611,128.22,132.793,137.088,139.697,144.27,148.565,150.152,154.44699999999997,157.49,159.633,166.259" y="277.57399999999996" svg_rhmargin="172.231" style="fill:#171615;font-family:NCNEAI+AdvOT6e5d2ec0;font-size:8.97px;font-style:NORMAL;font-weight:normal;">node metastasis (OR</text>
  <text x="173.366" y="277.57399999999996" svg_rhmargin="179.436" style="fill:#171615;font-family:NCNEAM+AdvOTb0c9bf5d;font-size:8.97px;font-style:NORMAL;font-weight:normal;">=</text>
  <text x="180.566,185.516,187.936,192.886,197.835,200.256,203.243,208.192,213.142,221.077,224.049,230.299,232.253,234.67399999999998,237.712,242.661,245.082,250.032" y="277.57399999999996" svg_rhmargin="254.981" style="fill:#171615;font-family:NCNEAI+AdvOT6e5d2ec0;font-size:8.97px;font-style:NORMAL;font-weight:normal;">2.67, 95% CI: 1.66</text>
  <text x="254.948" y="277.57399999999996" svg_rhmargin="259.431" style="fill:#171615;font-family:NCNEAN+AdvOT6e5d2ec0+20;font-size:8.97px;font-style:NORMAL;font-weight:normal;">–</text>
  <text x="259.427,264.376,266.797,271.746,276.696,278.839,281.876,286.449,291.21,296.339,299.337,304.466,306.053,310.348,312.957,317.53,322.291,324.9,327.909,335.28,339.852,342.462,347.034,351.329,353.939,358.511,362.806,364.393,368.688,371.675,373.818,380.444" y="277.57399999999996" svg_rhmargin="386.416" style="fill:#171615;font-family:NCNEAI+AdvOT6e5d2ec0;font-size:8.97px;font-style:NORMAL;font-weight:normal;">4.29) and distant metastasis (OR</text>
  <text x="387.553" y="277.57399999999996" svg_rhmargin="393.623" style="fill:#171615;font-family:NCNEAM+AdvOTb0c9bf5d;font-size:8.97px;font-style:NORMAL;font-weight:normal;">=</text>
  <text x="394.753,399.703,402.123,407.073,412.022,414.443,417.43,422.379,427.329,435.264,438.293,444.542,446.497,448.918,451.899,456.848,459.269,464.219" y="277.57399999999996" svg_rhmargin="469.168" style="fill:#171615;font-family:NCNEAI+AdvOT6e5d2ec0;font-size:8.97px;font-style:NORMAL;font-weight:normal;">4.00, 95% CI: 1.39</text>
  <text x="469.191" y="277.57399999999996" svg_rhmargin="473.674" style="fill:#171615;font-family:NCNEAN+AdvOT6e5d2ec0+20;font-size:8.97px;font-style:NORMAL;font-weight:normal;">–</text>
  <text x="473.67,478.619,483.569,485.99,490.939,495.889,498.032,501.051,502.638,507.399,510.349,514.922,519.495,524.256,528.829,533.402,536.1990000000001,539.205,544.333,548.906,551.515,553.102,557.675,562.436,565.046,569.34" y="277.57399999999996" svg_rhmargin="571.761" style="fill:#171615;font-family:NCNEAI+AdvOT6e5d2ec0;font-size:8.97px;font-style:NORMAL;font-weight:normal;">11.50) in cancer patients.</text>
  <text svg_rhmargin="152.902" x="91.276,98.497,104.634,110.524,116.414,118.733,124.623,130.178,132.497,138.556,144.446,150.001,152.90200000000002" y="291.805" style="fill:#171615;font-family:NCNEAK+AdvOT91f5f621.B;font-size:7.97px;font-style:NORMAL;font-weight:normal;">Conclusions: </text>
  <text x="155.112,159.873,161.46,166.221,171.35,172.937,177.698,182.647,186.94199999999998,189.58,194.529,196.771,199.387,201.997,206.758,208.345,212.64,215.261,222.632,227.204,229.814,234.386,237.65,242.223,246.984,251.557,253.144,257.251,261.545,263.132,267.427,270.081,274.376,279.137,284.087,289.036,293.609,297.904,300.513,303.132,305.741,310.502,315.075,317.68399999999997,320.31,324.883,327.51,332.271,333.858,338.807,343.56800000000004,346.161,351.765,356.993,361.942,366.891,369.519,374.091,378.386,383.515,386.312,390.885,395.18,399.475,401.062,406.011,410.77200000000005,413.398,414.985,419.558,423.664,428.237,429.824,432.446,439.816,444.389,448.495,451.154,455.449,460.022,462.819,466.926,471.49899999999997,474.114,478.687,482.982,485.566,490.13899999999995,492.766,497.527,502.476,506.583,511.156,512.743,515.386,520.515,522.102,527.051,534.421,538.994,541.792,546.275,550.848,553.645,556.26,561.209,563.4509999999999,566.067,571.196,576.145,581.095" y="291.805" svg_rhmargin="583.892" style="fill:#171615;font-family:NCNEAI+AdvOT6e5d2ec0;font-size:8.97px;font-style:NORMAL;font-weight:normal;">Findings of this meta-analysis suggest that a high PVT1 expression level may serve as a novel biomarker of poor</text>
  <text x="91.275,96.404,99.202,104.151,109.1,113.861,118.811,123.106,124.693,128.988,131.98,133.567,138.328,141.334,145.907,150.48,155.241,159.814,164.387,167.184,171.479" y="302.746" svg_rhmargin="173.9" style="fill:#171615;font-family:NCNEAI+AdvOT6e5d2ec0;font-size:8.97px;font-style:NORMAL;font-weight:normal;">prognosis in cancers.</text>
  <text svg_rhmargin="159.934" x="91.276,97.915,104.052,110.189,114.254,120.131,125.439,127.758,133.648,137.131,139.451,145.588,151.478,157.033,159.934" y="317.997" style="fill:#171615;font-family:NCNEAK+AdvOT91f5f621.B;font-size:7.97px;font-style:NORMAL;font-weight:normal;">Abbreviations: </text>
  <text svg_rhmargin="180.815" x="164.013,169.617,175.866,180.81500000000003" y="317.997" style="fill:#171615;font-family:NCNEAI+AdvOT6e5d2ec0;font-size:8.97px;font-style:NORMAL;font-weight:normal;">ANT </text>
  <text svg_rhmargin="189.075" x="183.005,189.075" y="317.997" style="fill:#171615;font-family:NCNEAM+AdvOTb0c9bf5d;font-size:8.97px;font-style:NORMAL;font-weight:normal;">= </text>
  <text svg_rhmargin="321.477" x="191.282,195.855,200.983,202.57,207.143,211.716,216.289,221.05,223.65900000000002,225.92,230.681,235.63,240.391,244.964,249.537,254.298,258.871,263.444,266.241,271.19,275.952,280.247,282.44,285.05,286.637,290.932,295.226,299.987,304.56,306.981,309.255,315.227,321.476" y="317.997" style="fill:#171615;font-family:NCNEAI+AdvOT6e5d2ec0;font-size:8.97px;font-style:NORMAL;font-weight:normal;">adjacent noncancerous tissue, BC </text>
  <text svg_rhmargin="329.73" x="323.66,329.73" y="317.997" style="fill:#171615;font-family:NCNEAM+AdvOTb0c9bf5d;font-size:8.97px;font-style:NORMAL;font-weight:normal;">= </text>
  <text svg_rhmargin="401.822" x="331.937,337.066,338.653,343.226,348.354,353.483,358.056,360.853,363.117,367.69,372.263,377.024,381.597,386.17,388.967,391.388,393.617,399.867,401.822" y="317.997" style="fill:#171615;font-family:NCNEAI+AdvOT6e5d2ec0;font-size:8.97px;font-style:NORMAL;font-weight:normal;">bladder cancer, CI </text>
  <text svg_rhmargin="410.12" x="404.05,410.12" y="317.997" style="fill:#171615;font-family:NCNEAM+AdvOTb0c9bf5d;font-size:8.97px;font-style:NORMAL;font-weight:normal;">= </text>
  <text x="412.327,416.9,421.849" y="317.997" svg_rhmargin="426.61" style="fill:#171615;font-family:NCNEAI+AdvOT6e5d2ec0;font-size:8.97px;font-style:NORMAL;font-weight:normal;">con</text>
  <text x="426.614" y="317.997" svg_rhmargin="430.532" style="fill:#171615;font-family:NCNEAL+AdvOT6e5d2ec0+fb;font-size:8.97px;font-style:NORMAL;font-weight:normal;">ﬁ</text>
  <text svg_rhmargin="506.086" x="430.526,435.655,440.228,444.989,449.561,454.13399999999996,456.378,457.965,462.726,465.335,469.908,472.705,476.812,481.385,482.972,485.393,487.614,493.864,499.836,506.08500000000004" y="317.997" style="fill:#171615;font-family:NCNEAI+AdvOT6e5d2ec0;font-size:8.97px;font-style:NORMAL;font-weight:normal;">dence interval, CRC </text>
  <text svg_rhmargin="514.436" x="508.366,514.436" y="317.997" style="fill:#171615;font-family:NCNEAM+AdvOTb0c9bf5d;font-size:8.97px;font-style:NORMAL;font-weight:normal;">= </text>
  <text x="516.643,521.216,526.165,527.752,532.701,535.499,540.072,544.645,547.254,551.827,553.414,555.646,560.219,564.792,569.553,574.126,578.699,581.496" y="317.997" svg_rhmargin="583.917" style="fill:#171615;font-family:NCNEAI+AdvOT6e5d2ec0;font-size:8.97px;font-style:NORMAL;font-weight:normal;">colorectal cancer,</text>
  <text svg_rhmargin="109.001" x="91.274,97.524,102.751,109.0" y="327.918" style="fill:#171615;font-family:NCNEAI+AdvOT6e5d2ec0;font-size:8.97px;font-style:NORMAL;font-weight:normal;">CVC </text>
  <text svg_rhmargin="117.074" x="111.004,117.07400000000001" y="327.918" style="fill:#171615;font-family:NCNEAM+AdvOTb0c9bf5d;font-size:8.97px;font-style:NORMAL;font-weight:normal;">= </text>
  <text svg_rhmargin="196.092" x="119.055,123.627,128.2,130.998,135.104,136.691,141.264,145.837,147.42399999999998,149.384,153.957,158.53,163.291,167.864,172.436,175.234,177.655,179.657,185.727,190.488,196.092" y="327.918" style="fill:#171615;font-family:NCNEAI+AdvOT6e5d2ec0;font-size:8.97px;font-style:NORMAL;font-weight:normal;">cervical cancer, DFS </text>
  <text svg_rhmargin="204.155" x="198.085,204.155" y="327.918" style="fill:#171615;font-family:NCNEAM+AdvOTb0c9bf5d;font-size:8.97px;font-style:NORMAL;font-weight:normal;">= </text>
  <text svg_rhmargin="300.247" x="206.135,211.264,212.851,217.146,221.719,226.292,230.586,235.159,238.423,240.665,243.462,248.035,252.608,254.606,258.901,263.662,266.46,270.566,272.153,276.26,280.833,282.42,284.841,286.807,292.877,300.247" y="327.918" style="fill:#171615;font-family:NCNEAI+AdvOT6e5d2ec0;font-size:8.97px;font-style:NORMAL;font-weight:normal;">disease-free survival, DM </text>
  <text svg_rhmargin="308.3" x="302.23,308.3" y="327.918" style="fill:#171615;font-family:NCNEAM+AdvOTb0c9bf5d;font-size:8.97px;font-style:NORMAL;font-weight:normal;">= </text>
  <text svg_rhmargin="406.403" x="310.281,315.409,316.997,321.291,323.901,328.473,333.234,335.84299999999996,337.832,345.203,349.776,352.385,356.958,361.252,363.862,368.434,372.729,374.316,378.611,381.032,383.072,388.299,393.903,400.153,406.40200000000004" y="327.918" style="fill:#171615;font-family:NCNEAI+AdvOT6e5d2ec0;font-size:8.97px;font-style:NORMAL;font-weight:normal;">distant metastasis, ESCC </text>
  <text svg_rhmargin="414.43" x="408.36,414.43" y="327.918" style="fill:#171615;font-family:NCNEAM+AdvOTb0c9bf5d;font-size:8.97px;font-style:NORMAL;font-weight:normal;">= </text>
  <text svg_rhmargin="575.888" x="416.409,420.982,425.277,430.227,435.355,440.116,444.689,449.639,454.211,458.784,460.371,462.386,466.681,471.81,476.571,481.144,488.514,493.463,498.224,502.519,504.507,509.08,513.653,515.24,516.827,518.793,523.366,527.939,530.736,535.309,536.896,541.657,546.607,553.977,558.55,560.971,563.012,569.638,575.8870000000001" y="327.918" style="fill:#171615;font-family:NCNEAI+AdvOT6e5d2ec0;font-size:8.97px;font-style:NORMAL;font-weight:normal;">esophageal squamous cell carcinoma, GC </text>
  <text x="577.872" y="327.918" svg_rhmargin="583.942" style="fill:#171615;font-family:NCNEAM+AdvOTb0c9bf5d;font-size:8.97px;font-style:NORMAL;font-weight:normal;">=</text>
  <text svg_rhmargin="168.473" x="91.275,96.225,100.798,105.092,107.702,110.499,112.086,116.65899999999999,119.054,123.627,128.199,132.961,137.533,142.106,144.904,147.325,149.724,155.973,162.223,168.472" y="337.896" style="fill:#171615;font-family:NCNEAI+AdvOT6e5d2ec0;font-size:8.97px;font-style:NORMAL;font-weight:normal;">gastric cancer, HCC </text>
  <text svg_rhmargin="176.943" x="170.873,176.94299999999998" y="337.896" style="fill:#171615;font-family:NCNEAM+AdvOTb0c9bf5d;font-size:8.97px;font-style:NORMAL;font-weight:normal;">= </text>
  <text svg_rhmargin="291.147" x="179.32,184.081,188.654,193.783,198.355,200.965,205.914,210.487,215.06,216.647,218.234,222.995,224.582,229.155,231.952,234.367,238.94,243.512,246.31,250.883,252.47,257.231,262.18,269.551,274.123,276.544,278.926,285.175,291.146" y="337.896" style="fill:#171615;font-family:NCNEAI+AdvOT6e5d2ec0;font-size:8.97px;font-style:NORMAL;font-weight:normal;">hepatocellular carcinoma, HR </text>
  <text svg_rhmargin="299.627" x="293.557,299.627" y="337.896" style="fill:#171615;font-family:NCNEAM+AdvOTb0c9bf5d;font-size:8.97px;font-style:NORMAL;font-weight:normal;">= </text>
  <text svg_rhmargin="370.045" x="302.004,306.765,311.338,315.444,320.017,322.815,327.944,330.349,333.147,337.719,340.329,341.916,346.865,349.286,351.665,356.426,362.675,370.045" y="337.896" style="fill:#171615;font-family:NCNEAI+AdvOT6e5d2ec0;font-size:8.97px;font-style:NORMAL;font-weight:normal;">hazard ratio, LNM </text>
  <text svg_rhmargin="378.487" x="372.417,378.48699999999997" y="337.896" style="fill:#171615;font-family:NCNEAM+AdvOTb0c9bf5d;font-size:8.97px;font-style:NORMAL;font-weight:normal;">= </text>
  <text svg_rhmargin="502.781" x="380.864,382.451,386.558,393.928,399.057,403.81800000000004,406.262,411.023,415.973,421.102,425.67499999999995,428.032,435.402,439.975,442.584,447.157,451.452,454.061,458.634,462.928,464.516,468.81,471.231,473.667,479.917,485.521,491.77,496.531,502.78000000000003" y="337.896" style="fill:#171615;font-family:NCNEAI+AdvOT6e5d2ec0;font-size:8.97px;font-style:NORMAL;font-weight:normal;">lymph node metastasis, NSCLC </text>
  <text svg_rhmargin="511.262" x="505.192,511.262" y="337.896" style="fill:#171615;font-family:NCNEAM+AdvOTb0c9bf5d;font-size:8.97px;font-style:NORMAL;font-weight:normal;">= </text>
  <text x="513.639,518.4,523.35,528.111,531.375,535.669,543.04,547.612,549.2,550.787,553.153,557.726,562.298,563.885,565.472,567.836,569.423,574.184,578.945" y="337.896" svg_rhmargin="583.894" style="fill:#171615;font-family:NCNEAI+AdvOT6e5d2ec0;font-size:8.97px;font-style:NORMAL;font-weight:normal;">non-small cell lung</text>
  <text svg_rhmargin="133.919" x="91.275,95.848,100.421,105.182,109.755,114.328,117.125,119.546,121.321,127.947,133.918" y="347.873" style="fill:#171615;font-family:NCNEAI+AdvOT6e5d2ec0;font-size:8.97px;font-style:NORMAL;font-weight:normal;">cancer, OR </text>
  <text svg_rhmargin="141.793" x="135.723,141.793" y="347.873" style="fill:#171615;font-family:NCNEAM+AdvOTb0c9bf5d;font-size:8.97px;font-style:NORMAL;font-weight:normal;">= </text>
  <text svg_rhmargin="197.842" x="143.547,148.496,153.625,158.754,163.04899999999998,164.863,167.66,172.233,174.842,176.429,181.379,183.79999999999998,185.612,192.238,197.842" y="347.873" style="fill:#171615;font-family:NCNEAI+AdvOT6e5d2ec0;font-size:8.97px;font-style:NORMAL;font-weight:normal;">odds ratio, OS </text>
  <text svg_rhmargin="205.687" x="199.617,205.68699999999998" y="347.873" style="fill:#171615;font-family:NCNEAM+AdvOTb0c9bf5d;font-size:8.97px;font-style:NORMAL;font-weight:normal;">= </text>
  <text svg_rhmargin="283.916" x="207.441,212.39,216.497,221.07,223.867,228.44,230.027,231.61399999999998,233.406,237.7,242.461,245.259,249.366,250.953,255.059,259.632,261.219,263.64,265.436,272.062,277.666,283.915" y="347.873" style="fill:#171615;font-family:NCNEAI+AdvOT6e5d2ec0;font-size:8.97px;font-style:NORMAL;font-weight:normal;">overall survival, OSC </text>
  <text svg_rhmargin="291.804" x="285.734,291.804" y="347.873" style="fill:#171615;font-family:NCNEAM+AdvOTb0c9bf5d;font-size:8.97px;font-style:NORMAL;font-weight:normal;">= </text>
  <text svg_rhmargin="364.144" x="293.558,298.507,302.802,305.411,309.984,314.933,319.228,323.801,326.599,331.171,336.121,343.491,348.064,350.485,352.29,357.894,364.14300000000003" y="347.873" style="fill:#171615;font-family:NCNEAI+AdvOT6e5d2ec0;font-size:8.97px;font-style:NORMAL;font-weight:normal;">osteosarcoma, PC </text>
  <text svg_rhmargin="372.025" x="365.955,372.025" y="347.873" style="fill:#171615;font-family:NCNEAM+AdvOTb0c9bf5d;font-size:8.97px;font-style:NORMAL;font-weight:normal;">= </text>
  <text svg_rhmargin="463.916" x="373.779,378.908,383.481,388.242,392.815,395.612,400.185,404.758,407.367,408.954,413.527,415.334,419.906,424.479,429.24,433.813,438.386,441.183,443.604,445.436,451.04,457.29,463.916" y="347.873" style="fill:#171615;font-family:NCNEAI+AdvOT6e5d2ec0;font-size:8.97px;font-style:NORMAL;font-weight:normal;">pancreatic cancer, PHG </text>
  <text svg_rhmargin="471.748" x="465.678,471.748" y="347.873" style="fill:#171615;font-family:NCNEAM+AdvOTb0c9bf5d;font-size:8.97px;font-style:NORMAL;font-weight:normal;">= </text>
  <text x="473.559,478.688,483.637,488.586,491.38300000000004,493.174,497.936,499.523,503.817,506.427,511.376,512.963,517.912,522.862,524.449,529.022,533.595,535.182,536.94,541.889,544.687,549.26,554.388,558.961,561.3820000000001,563.188,568.792,574.019,578.969" y="347.873" svg_rhmargin="583.918" style="fill:#171615;font-family:NCNEAI+AdvOT6e5d2ec0;font-size:8.97px;font-style:NORMAL;font-weight:normal;">poor histological grade, PVT1</text>
  <text svg_rhmargin="97.347" x="91.277,97.34700000000001" y="357.795" style="fill:#171615;font-family:NCNEAM+AdvOTb0c9bf5d;font-size:8.97px;font-style:NORMAL;font-weight:normal;">= </text>
  <text svg_rhmargin="265.328" x="100.234,105.838,107.425,111.998,116.293,123.663,128.236,132.809,136.916,139.525,144.474,151.844,156.417,159.306,163.413,167.986,170.783,172.37,176.943,181.704,184.31300000000002,187.199,189.808,192.605,197.178,201.939,206.234,207.821,212.771,217.343,221.916,224.525,226.112,231.062,235.823,238.731,243.68,246.101,248.992,254.963,259.724,265.328" y="357.795" style="fill:#171615;font-family:NCNEAI+AdvOT6e5d2ec0;font-size:8.97px;font-style:NORMAL;font-weight:normal;">Plasmacytoma variant translocation 1, RFS </text>
  <text svg_rhmargin="274.286" x="268.216,274.286" y="357.795" style="fill:#171615;font-family:NCNEAM+AdvOTb0c9bf5d;font-size:8.97px;font-style:NORMAL;font-weight:normal;">= </text>
  <text svg_rhmargin="394.314" x="277.174,279.971,284.544,289.117,293.878,296.675,299.473,304.046,308.807,313.38,317.952,321.216,323.458,326.255,330.828,335.40099999999995,338.343,342.638,347.399,350.196,354.303,355.89,359.996,364.569,366.156,368.577,371.45,377.054,383.303,388.064,394.31300000000005" y="357.795" style="fill:#171615;font-family:NCNEAI+AdvOT6e5d2ec0;font-size:8.97px;font-style:NORMAL;font-weight:normal;">recurrence-free survival, SCLC </text>
  <text svg_rhmargin="403.263" x="397.193,403.263" y="357.795" style="fill:#171615;font-family:NCNEAM+AdvOTb0c9bf5d;font-size:8.97px;font-style:NORMAL;font-weight:normal;">= </text>
  <text svg_rhmargin="504.348" x="406.15,410.445,417.815,422.388,423.975,425.562,428.486,433.059,437.632,439.219,440.806,443.68,445.267,450.028,454.789,459.738,462.615,467.188,471.76,476.521,481.094,485.667,488.465,490.88599999999997,493.795,498.744,504.348" y="357.795" style="fill:#171615;font-family:NCNEAI+AdvOT6e5d2ec0;font-size:8.97px;font-style:NORMAL;font-weight:normal;">small cell lung cancer, TS </text>
  <text svg_rhmargin="513.305" x="507.235,513.3050000000001" y="357.795" style="fill:#171615;font-family:NCNEAM+AdvOTb0c9bf5d;font-size:8.97px;font-style:NORMAL;font-weight:normal;">= </text>
  <text x="516.135,520.896,522.484,527.433,532.194,535.127,537.736,542.497,549.867,554.817,557.614,560.467,564.762,567.372,571.944,576.894,581.467" y="357.795" svg_rhmargin="583.888" style="fill:#171615;font-family:NCNEAI+AdvOT6e5d2ec0;font-size:8.97px;font-style:NORMAL;font-weight:normal;">high tumor stage.</text>
  <text svg_rhmargin="142.36" x="91.276,98.162,104.14,109.28,117.665,123.702,127.767,133.904,139.459,142.36" y="372.762" style="fill:#171615;font-family:NCNEAK+AdvOT91f5f621.B;font-size:7.97px;font-style:NORMAL;font-weight:normal;">Keywords: </text>
  <text x="145.02,152.391,156.964,159.573,164.146,167.409,171.982,176.743,181.316,182.903,187.01,191.304,192.891,197.186,199.607,202.618,209.988,214.561,217.17,221.743,226.038,228.647,233.22,237.515,239.102,243.397,245.81799999999998,248.821,253.583,258.155,263.105,268.234,269.821,274.393,278.688,286.059,290.353,292.774,295.818,300.947,303.745,308.694,313.643,318.404,323.354,327.649,329.236,333.531,335.952,338.96,344.564,349.791,354.74" y="372.762" svg_rhmargin="359.689" style="fill:#171615;font-family:NCNEAI+AdvOT6e5d2ec0;font-size:8.97px;font-style:NORMAL;font-weight:normal;">meta-analysis, metastasis, neoplasms, prognosis, PVT1</text>
  <text x="85.039,90.955,93.908,98.646,101.599,107.514,111.158,115.095,120.812,126.727,132.643,138.16,141.804,144.558,150.275" y="403.433" svg_rhmargin="156.19" style="fill:#171615;font-family:NCNDPH+AdvOTfbba3ace.B;font-size:9.46px;font-style:NORMAL;font-weight:normal;">1. Introduction</text>
  <text x="85.039,91.477,95.395,99.156,104.105,107.433,112.382,114.689,119.639,124.122,128.749,131.636,136.585,141.165,144.617,147.401,151.884,154.657,157.078,160.53,163.275,165.696,169.511,172.963,175.384,179.999,182.886,187.709,191.627,196.326,202.764,205.057,209.54,211.96099999999998,216.565,221.515,225.862,229.314,234.026,240.93,243.21,246.097,251.047,254.832,258.284,261.579,265.497,270.446,275.071,279.554,284.368,289.318,292.77,297.577,302.527,304.834,312.204,316.569,319.456,323.259,325.68" y="419.364" svg_rhmargin="330.163" style="fill:#171615;font-family:NCNEAO+AdvOTbc475f09;font-size:8.97px;font-style:NORMAL;font-weight:normal;">According to statistics, the U.S. has witnessed approximately</text>
  <text x="85.039,89.989,92.296,97.245,99.099,106.469,108.89,111.173,113.594,115.879,120.828,125.777,127.614,132.563,136.345,143.249,145.132,149.051,153.409,158.359,162.14,166.058,169.51,171.324,175.242,179.601,183.053,186.857,190.309,192.187,196.67,201.484,206.43300000000002,208.287,213.236,218.185,222.97,225.391,230.226,235.176,240.125,241.905,245.823,250.182,255.131,259.049,262.824,266.276,269.06,272.512,276.317,278.737,283.063,285.95,289.868,294.817,296.612,301.561,305.342,309.825,312.599,317.548,321.0,322.803,325.224" y="430.305" svg_rhmargin="330.173" style="fill:#171615;font-family:NCNEAO+AdvOTbc475f09;font-size:8.97px;font-style:NORMAL;font-weight:normal;">1.7 million new cancer cases and 600,000 cancer-related deaths in</text>
  <text x="85.039,89.989,94.79,99.74,104.689" y="441.304" svg_rhmargin="107.11" style="fill:#171615;font-family:NCNEAO+AdvOTbc475f09;font-size:8.97px;font-style:NORMAL;font-weight:normal;">2017.</text>
  <text svg_rhmargin="115.023" x="106.979,109.145,112.858,115.02300000000001" y="441.304" style="fill:#171615;font-family:NCNEAO+AdvOTbc475f09;font-size:5.98px;font-style:NORMAL;font-weight:normal;">[1] </text>
  <text x="117.298,123.735,128.685,131.413,136.363,139.69,142.577,147.527,152.333,156.816,159.589,163.507,165.825,170.308,172.72899999999998,175.066,177.953,182.776,186.69400000000002,189.126,194.075,196.836,201.319,205.113,209.596,213.048,215.374,218.826,223.65,227.103,231.474,233.894,238.378,242.699,245.12,247.517,250.969,255.34,258.227,262.03,265.48199999999997,267.87,270.757,275.706,279.158,281.476,288.846,293.665,297.117,300.004,302.395,306.314,310.672,315.621,319.403,323.321,326.659" y="441.304" svg_rhmargin="330.111" style="fill:#171615;font-family:NCNEAO+AdvOTbc475f09;font-size:8.97px;font-style:NORMAL;font-weight:normal;">Unfortunately, the 5-year survival rates for most cancers</text>
  <text x="85.04,88.492,92.296,99.666,104.031,106.452,111.401,112.762,117.711,120.018,123.47,130.733,135.216,137.637,140.058,141.391,145.874,150.688,155.637,157.038,164.408,168.773,173.723,178.20600000000002,179.544,182.996,186.801,189.222,193.037,197.986,200.747,203.168,206.62,209.364,212.816,214.24,218.723,222.063,225.981,227.393,229.814,234.649,239.599,244.4,246.821,251.657,256.14,257.553,260.44,265.389,268.841,270.138,275.087,279.006,287.259,292.209,294.516,299.465,306.704,311.188,314.528,319.477,323.258,326.71" y="452.246" svg_rhmargin="330.162" style="fill:#171615;font-family:NCNEAO+AdvOTbc475f09;font-size:8.97px;font-style:NORMAL;font-weight:normal;">remain dismal, and many scientists are looking for newbiomarkers</text>
  <text x="85.04,87.927,92.876,94.224,96.645,104.015,108.85,112.302,117.127,121.61,125.528,126.878,129.765,134.588,138.506,139.974,144.924,147.231,151.714,156.074,161.024,165.825,169.277,171.698,175.15,176.483,180.966,185.78,190.729,192.13,197.08,200.532,205.34,209.823,214.637,219.586,222.913,225.334,228.786,230.17,232.591,237.54000000000002,238.9,242.819,247.177,252.127,256.045,259.82,263.272,266.724,269.145,270.478,276.36,281.193,285.111,288.449,292.367,295.139,300.088,303.416,307.334,309.755,311.126,315.609,318.949,322.867,327.226" y="463.187" svg_rhmargin="330.113" style="fill:#171615;font-family:NCNEAO+AdvOTbc475f09;font-size:8.97px;font-style:NORMAL;font-weight:normal;">to improve the diagnosis and prognosis in cancers. Therefore, great</text>
  <text x="85.04,88.958,91.729,94.616,99.439,102.891,105.675,109.127,112.932,117.881,122.229,126.712,130.63,134.361,139.311,143.229,147.004,151.953,155.734,163.105,167.469,172.419,176.33700000000002,180.055,182.943,187.89200000000002,191.621,196.57,200.489,204.83,208.748,211.066,216.016,220.965,224.673,229.622,233.403,240.307,244.118,249.067,252.395,257.344,261.692,266.641,271.591,274.901,277.788,280.209,284.127,287.827,295.197,299.562,303.014,307.839,311.757,315.095,318.547,322.352,325.239" y="474.185" svg_rhmargin="330.188" style="fill:#171615;font-family:NCNEAO+AdvOTbc475f09;font-size:8.97px;font-style:NORMAL;font-weight:normal;">efforts have been made to develop new prognostic markers to</text>
  <text svg_rhmargin="254.127" x="85.04,87.927,92.296,96.214,98.532,100.953,103.238,106.125,110.494,113.381,117.299,119.905,122.792,127.615,131.533,133.851,137.303,139.974,143.893,146.154,148.575,153.41,155.831,159.646,164.129,166.54999999999998,169.17,173.653,178.467,183.417,185.724,188.145,191.96,196.443,199.216,201.637,206.473,211.42200000000003,214.013,216.433,221.382,223.99,227.909,232.267,237.216,240.998,244.916,248.254,251.706,254.12699999999998" y="402.695" style="fill:#171615;font-family:NCNEAO+AdvOTbc475f09;font-size:8.97px;font-style:NORMAL;font-weight:normal;">facilitate their clinical application in cancers. </text>
  <text x="354.048,359.464,364.413,369.363,373.846,377.348,382.298,387.247,392.196,396.115,401.064,406.013,408.434,413.384,417.867,421.34,427.778,435.148,441.586,445.038,448.552,451.439,453.86,458.81,462.728,469.166,476.536,482.974,486.426,489.313,492.884,497.367,500.819,504.737,508.248,511.135,516.085,520.003,523.498,526.385,529.837,534.32,539.27,542.722,546.64,550.092,552.513,557.462,561.381,566.3299999999999,569.871,576.309,583.679" y="402.695" svg_rhmargin="590.117" style="fill:#171615;font-family:NCNEAO+AdvOTbc475f09;font-size:8.97px;font-style:NORMAL;font-weight:normal;">Long noncoding RNAs (lncRNAs) are the transcribed RNA</text>
  <text x="345.091,352.461,357.411,359.832,363.75,367.668,372.617,375.038,378.957,382.409,386.645,391.128,394.58,398.499,402.982,405.869,409.787,413.239,417.485,420.372,425.321,429.805,434.754,438.971,443.92,448.87,453.819,458.076,463.026,467.975,471.893,474.314,478.232,483.182,486.069,488.49,493.439,497.358,500.81,505.073,507.494,512.443,516.695,519.116,523.034,527.984,532.467,535.354,540.304,542.725,546.968,553.872,558.822,561.243,565.161,570.1099999999999,574.35,576.771,581.254,585.173" y="413.637" svg_rhmargin="590.122" style="fill:#171615;font-family:NCNEAO+AdvOTbc475f09;font-size:8.97px;font-style:NORMAL;font-weight:normal;">molecules greater than 200 nucleotides in length, which lack</text>
  <text x="345.091,349.574,354.523,360.228,365.177,370.127,374.045,378.994,384.718,388.17,392.089,396.572,401.521,403.942,408.892,413.375,419.13,422.017,425.469,429.953,437.323,441.241" y="424.578" svg_rhmargin="443.662" style="fill:#171615;font-family:NCNEAO+AdvOTbc475f09;font-size:8.97px;font-style:NORMAL;font-weight:normal;">an open reading frame.</text>
  <text svg_rhmargin="451.722" x="443.679,445.845,449.557,451.72200000000004" y="424.58" style="fill:#171615;font-family:NCNEAO+AdvOTbc475f09;font-size:5.98px;font-style:NORMAL;font-weight:normal;">[2] </text>
  <text x="457.455,462.871,467.82,471.738,478.176,485.546,491.984,495.436,501.164,506.113,510.596,515.08,518.998,524.748,532.118,536.601,541.551,546.034,551.733,554.154,561.524,566.474,571.423,574.875,577.762,582.245,587.195" y="424.58" svg_rhmargin="590.082" style="fill:#171615;font-family:NCNEAO+AdvOTbc475f09;font-size:8.97px;font-style:NORMAL;font-weight:normal;">LncRNAs have many important</text>
  <text x="345.089,347.976,352.926,357.875,361.794,364.681,367.102,372.051,377.0,380.452,384.83,387.251,392.2,396.565,401.514,403.935,407.387,411.305,415.789,419.241,423.159,426.611,429.032,433.414,435.835,440.784,444.702,447.123,452.073,457.022,459.443,464.392,468.875,473.267,476.154,481.104,485.022,489.424,493.343,498.292,500.713,505.196,509.114,514.064,517.982,520.869,523.29,527.208,529.629,534.04,536.927,540.379,544.862,549.812,553.264,557.182,560.634,563.055,568.004,570.891,573.312,578.262,583.211,587.694" y="435.579" svg_rhmargin="590.115" style="fill:#171615;font-family:NCNEAO+AdvOTbc475f09;font-size:8.97px;font-style:NORMAL;font-weight:normal;">functions in diseases, including the epigenetic, transcriptional</text>
  <text x="345.089,349.572,354.522,359.471,364.195,369.144,374.094,377.546,380.433,383.32,386.772,391.255,396.204,399.656,403.575,407.027,409.448,414.397,417.284,419.705,424.655,429.604,434.087,436.508,441.294,445.212,448.1,450.987,454.905,458.823,461.71,465.162" y="446.52" svg_rhmargin="467.583" style="fill:#171615;font-family:NCNEAO+AdvOTbc475f09;font-size:8.97px;font-style:NORMAL;font-weight:normal;">and posttranscriptional effects.</text>
  <text svg_rhmargin="475.703" x="467.66,469.826,473.538,475.70300000000003" y="446.52" style="fill:#171615;font-family:NCNEAO+AdvOTbc475f09;font-size:5.98px;font-style:NORMAL;font-weight:normal;">[3] </text>
  <text x="480.472,489.439,494.388,497.84,501.758,506.708,511.191,515.109,518.561,520.9820000000001,525.712,530.661,535.144,538.596,542.048,545.967,550.45,555.399,557.82,562.303,565.19,567.611,572.561,577.51,582.289,587.239" y="446.52" svg_rhmargin="590.126" style="fill:#171615;font-family:NCNEAO+AdvOTbc475f09;font-size:8.97px;font-style:NORMAL;font-weight:normal;">Moreover, dysregulation of</text>
  <text x="345.089,347.51,352.46,356.378,362.816,370.186,376.624,380.076,382.675,387.624,392.108,395.56,398.152,403.101,407.02,410.938,415.887,418.504,423.454,425.875,429.327,433.245,438.194,442.678,446.596,450.048,453.966,458.915,461.533,463.954,468.903,471.51,475.994,480.477,483.929,486.35,491.299,496.249,499.701,502.294,506.212,510.695,515.644,519.563,523.481,526.933,529.505,532.393,536.876,541.825,545.743,549.195" y="457.461" svg_rhmargin="551.616" style="fill:#171615;font-family:NCNEAO+AdvOTbc475f09;font-size:8.97px;font-style:NORMAL;font-weight:normal;">lncRNAs has been discovered in various cancer types.</text>
  <text x="551.679,553.844" y="453.493" svg_rhmargin="557.556" style="fill:#171615;font-family:NCNEAO+AdvOTbc475f09;font-size:5.98px;font-style:NORMAL;font-weight:normal;">[4</text>
  <text x="557.575" y="453.493" svg_rhmargin="560.937" style="fill:#171615;font-family:NCNEBO+AdvOTbc475f09+20;font-size:5.98px;font-style:NORMAL;font-weight:normal;">–</text>
  <text svg_rhmargin="566.797" x="560.919,564.632,566.7969999999999" y="457.461" style="fill:#171615;font-family:NCNEAO+AdvOTbc475f09;font-size:5.98px;font-style:NORMAL;font-weight:normal;">7] </text>
  <text x="569.424,573.907,578.856,586.226" y="457.461" svg_rhmargin="590.144" style="fill:#171615;font-family:NCNEAO+AdvOTbc475f09;font-size:8.97px;font-style:NORMAL;font-weight:normal;">Some</text>
  <text x="345.089,347.509,352.459,356.377,362.815,370.185,376.623,380.075,383.752,388.702,391.122,395.606,400.089,403.708,408.191,410.612,413.499,417.982,420.403,424.117,427.569,432.518,434.939,438.857,442.309,445.942,448.363,453.312,456.997,460.915,465.398,470.348,474.266,478.184,481.636,485.286,490.235,493.687,498.636,503.12,506.572,510.49,513.942,517.394,519.815,524.764,529.714,532.1350000000001,535.854,540.337,543.789,547.419,554.323,558.242,560.663,563.0840000000001,566.751,571.234,574.686,578.373,581.26,586.209" y="468.403" svg_rhmargin="590.127" style="fill:#171615;font-family:NCNEAO+AdvOTbc475f09;font-size:8.97px;font-style:NORMAL;font-weight:normal;">lncRNAs play vital roles in cancer progression, as well as the</text>
  <text x="345.089,350.038,353.49,358.439,360.86,363.281,366.168,370.087,373.539,378.022,380.909,383.33,388.279,393.229,395.65,402.686,405.107,410.057,414.54,419.023,422.475,424.896,429.845,434.795,437.216,444.241,448.724,453.673,458.622,465.614,472.984,476.902,479.789,484.272,487.724,490.612,495.095,498.547,500.968,504.42,511.42,516.369,519.256,526.273,530.192,534.675,539.624,543.542,547.461,550.913,557.907,561.826,565.744,568.165,570.586,574.038" y="479.401" svg_rhmargin="576.459" style="fill:#171615;font-family:NCNEAO+AdvOTbc475f09;font-size:8.97px;font-style:NORMAL;font-weight:normal;">proliferation, invasion, and metastasis of cancer cells.</text>
  <text x="576.51,578.676,582.389,584.205,587.918" y="475.433" svg_rhmargin="590.083" style="fill:#171615;font-family:NCNEAO+AdvOTbc475f09;font-size:5.98px;font-style:NORMAL;font-weight:normal;">[8,9]</text>
  <text x="345.09,351.527,356.477,361.426,364.878,368.797,373.746,378.695,382.614,387.563,390.45,392.871,397.354,399.775,402.801,405.222,410.172,414.09,420.528,427.898,434.336,437.788,440.841,445.324,448.776,452.694,455.694,459.146,463.065,467.548,472.031,475.483,480.432,484.351,489.3,492.316,496.8,500.252,503.258,508.207,511.659,516.609,523.979,526.4,529.852,532.273,537.222,541.7049999999999,544.756,552.126,556.609,560.061,565.011,568.929,572.381,575.833,578.827,581.714,586.663" y="490.343" svg_rhmargin="590.115" style="fill:#171615;font-family:NCNEAO+AdvOTbc475f09;font-size:8.97px;font-style:NORMAL;font-weight:normal;">Consequently, lncRNAs are regarded as promising markers for</text>
  <text x="345.09,349.008,353.491,358.441,362.359,366.277,369.729,372.699,377.648,381.1,386.05,390.533,395.482,400.432,403.884,406.304,409.756" y="501.285" svg_rhmargin="412.177" style="fill:#171615;font-family:NCNEAO+AdvOTbc475f09;font-size:8.97px;font-style:NORMAL;font-weight:normal;">cancer prognosis.</text>
  <text x="412.214,414.38,418.093,421.805" y="497.317" svg_rhmargin="423.97" style="fill:#171615;font-family:NCNEAO+AdvOTbc475f09;font-size:5.98px;font-style:NORMAL;font-weight:normal;">[10]</text>
  <text x="354.047,358.996,361.53,366.014,369.58,376.951,381.542,385.567,390.05,393.051,398.0,405.466,409.949,414.197,418.68,423.267,426.782,429.276,433.759,438.857,441.744,446.0,448.887,452.463,456.946,461.987,465.502,467.996,472.946,477.01,481.493,484.493,486.988,491.937,496.886,501.161,506.11,510.345,513.232,518.339,524.776,530.754,535.799,538.6859999999999,542.886,545.381,548.833,553.091,558.04,561.595,564.089,568.572,571.119,576.164,580.647,583.194,585.615" y="512.284" svg_rhmargin="590.098" style="fill:#171615;font-family:NCNEAO+AdvOTbc475f09;font-size:8.97px;font-style:NORMAL;font-weight:normal;">Plasmacytoma variant translocation 1 (PVT1) is originally</text>
  <text x="345.09,347.511,352.573,356.491,361.53,364.418" y="523.225" svg_rhmargin="366.839" style="fill:#171615;font-family:NCNEAO+AdvOTbc475f09;font-size:8.97px;font-style:NORMAL;font-weight:normal;">identi</text>
  <text x="366.973" y="523.225" svg_rhmargin="371.922" style="fill:#171615;font-family:NCNEBP+AdvOTbc475f09+fb;font-size:8.97px;font-style:NORMAL;font-weight:normal;">ﬁ</text>
  <text x="372.018,375.937,380.886,385.341,389.824,393.276,397.757,402.24,406.601,410.116,414.141,417.028,420.604,425.553,430.128,432.622,436.137,440.62,443.041,447.532,450.027,454.976,457.964,461.882,466.467,469.982,474.574,477.461,480.016,484.966,489.915,494.36,497.875,500.369,503.256,507.174,511.65,514.145,519.0939999999999,523.5,530.87,535.915,539.43,541.924,546.874,550.792,555.247,557.742,561.66,566.756,571.705,575.713,583.196,585.617" y="523.225" svg_rhmargin="590.1" style="fill:#171615;font-family:NCNEAO+AdvOTbc475f09;font-size:8.97px;font-style:NORMAL;font-weight:normal;">ed as a retroviral integration site in murine leukemia</text>
  <text x="345.089,349.572,352.118,355.633,360.583,364.035,368.162,371.049,380.18,385.596,392.142,395.029,398.038,400.533,405.482,410.567,415.516,419.524,423.549,428.498,432.563,438.445,442.598,445.019,449.628,456.998,462.044,466.993,472.078,479.448,484.04,487.554" y="534.1669999999999" svg_rhmargin="489.975" style="fill:#171615;font-family:NCNEAO+AdvOTbc475f09;font-size:8.97px;font-style:NORMAL;font-weight:normal;">virus (MLV)-induced T lymphomas.</text>
  <text svg_rhmargin="502.026" x="490.053,492.219,496.063,499.861,502.026" y="534.1669999999999" style="fill:#171615;font-family:NCNEAO+AdvOTbc475f09;font-size:5.98px;font-style:NORMAL;font-weight:normal;">[11] </text>
  <text x="506.154,511.104,517.662,523.544,528.4929999999999,532.629,537.112,541.189,546.138,550.146,552.567,556.666,563.639,568.684,571.179,575.097,580.0459999999999,584.218,586.712" y="534.1669999999999" svg_rhmargin="590.164" style="fill:#171615;font-family:NCNEAO+AdvOTbc475f09;font-size:8.97px;font-style:NORMAL;font-weight:normal;">PVT1 gene, which is</text>
  <text x="345.089,347.51,352.572,356.491,361.076,363.963,367.992,372.94100000000003,377.404,381.996,386.945,389.479,393.962,397.983,401.901,406.997,409.884,414.367,417.254,422.20300000000003,426.726,429.613,434.663,438.581,443.054,452.02,458.587,465.025,469.472,471.967,476.916,480.98,485.93,489.382,493.906,498.856,503.805,508.306,512.224,517.32,520.835,525.784,533.25,538.2,541.754,546.799,554.17,558.761,561.182,565.678,569.193,573.111,577.696,580.191,585.14" y="545.165" svg_rhmargin="590.089" style="fill:#171615;font-family:NCNEAO+AdvOTbc475f09;font-size:8.97px;font-style:NORMAL;font-weight:normal;">located adjacent to the MYC locus on chromosomal region</text>
  <text x="345.089,350.038,355.067,360.112,365.061,367.48199999999997,369.636,372.13,375.582,377.743,381.258,385.176,390.216,395.261,398.776,401.663,405.692,410.641,412.779,415.666,420.615,422.813,427.859,431.777,433.868,438.461,441.975,445.49,450.44,454.447,456.942,461.425,464.425,468.343,473.29200000000003,475.48,482.453,484.947,487.834,492.783,494.981,499.465,504.109,507.624,510.045,515.107,520.057,523.509,525.709,528.596,533.646,541.016,546.118,549.57,551.674,556.719,560.234,565.183,569.191,573.109,576.674,580.189,584.214,587.729" y="556.107" svg_rhmargin="590.15" style="fill:#171615;font-family:NCNEAO+AdvOTbc475f09;font-size:8.97px;font-style:NORMAL;font-weight:normal;">8q24, is reported to be associated with various tumor processes,</text>
  <text x="345.089,349.572,354.613,359.562,363.287,367.77,370.77,373.657,377.743,381.662,384.549,388.345,391.232,396.282,400.2,403.936,408.981,413.464,417.485,421.0,425.483,428.029,430.45,434.209,437.723,442.673,446.227,450.71,453.257,457.74,462.327,464.748,468.507,471.394,478.881,483.365,486.365,488.786,492.544,497.494,500.028,503.542,506.43,511.082,516.031,518.9179999999999,522.704,530.075,534.099,536.987,541.583,545.098,548.102,552.585,556.152,558.646,562.098,565.79,568.677,575.711,584.782,587.669" y="567.048" svg_rhmargin="590.09" style="fill:#171615;font-family:NCNEAO+AdvOTbc475f09;font-size:8.97px;font-style:NORMAL;font-weight:normal;">and affect the overall survival (OS), distant metastasis (DM),</text>
  <text x="345.089,347.51,352.119,359.489,364.534,369.483,373.322,378.271,383.356,388.306,392.224,396.112,403.482,407.507,410.394,414.99,418.505,421.392,426.045,429.56,431.981,435.433,439.31,442.198,447.758,455.128,464.198,467.085,469.506,473.382,477.974,482.923,487.872,491.75,494.637,499.687,507.057,512.159,515.611,519.415,522.93,525.817,530.413,535.006,538.924" y="578.046" svg_rhmargin="541.345" style="fill:#171615;font-family:NCNEAO+AdvOTbc475f09;font-size:8.97px;font-style:NORMAL;font-weight:normal;">lymph node metastasis (LNM), and tumor stage.</text>
  <text x="541.474,543.64,547.484" y="574.0219999999999" svg_rhmargin="551.196" style="fill:#171615;font-family:NCNEAO+AdvOTbc475f09;font-size:5.98px;font-style:NORMAL;font-weight:normal;">[12</text>
  <text x="551.225" y="574.0219999999999" svg_rhmargin="554.587" style="fill:#171615;font-family:NCNEBO+AdvOTbc475f09+20;font-size:5.98px;font-style:NORMAL;font-weight:normal;">–</text>
  <text svg_rhmargin="564.36" x="554.684,558.482,562.195,564.36" y="578.047" style="fill:#171615;font-family:NCNEAO+AdvOTbc475f09;font-size:5.98px;font-style:NORMAL;font-weight:normal;">14] </text>
  <text x="568.233,574.186,579.135,584.22,587.735" y="578.047" svg_rhmargin="590.156" style="fill:#171615;font-family:NCNEAO+AdvOTbc475f09;font-size:8.97px;font-style:NORMAL;font-weight:normal;">Thus,</text>
  <text x="345.089,350.038,356.597,362.479,367.428,373.548,377.466,382.505,387.55,391.065,394.983,398.548,402.063,404.558,409.507,414.456,420.602,427.972,432.564,437.047,443.109,448.155,452.073,458.132,461.647,465.565,468.11,472.593,475.593,479.512,484.461,490.616,497.589,500.084,502.971,507.92,514.03,516.917,522.023,525.941,532.001,536.951,540.505,545.55,550.033,555.074,560.12,563.634,566.055,569.507,575.596,580.189,585.138" y="588.989" svg_rhmargin="590.087" style="fill:#171615;font-family:NCNEAO+AdvOTbc475f09;font-size:8.97px;font-style:NORMAL;font-weight:normal;">PVT1 expression may be related with the prognosis and</text>
  <text x="345.089,352.459,356.484,359.371,363.967,367.482,370.369,374.965,378.48,380.975,384.427,387.891,390.386,395.33500000000004,398.776,403.822,408.771,416.237,420.72,425.66900000000004,429.219,433.138,437.723,442.768,446.687,450.705,454.22,457.735,460.156,463.631,471.171,476.12,483.133,487.051,491.637,495.662,499.176,501.597,505.016,512.499,517.449,521.003,523.89,527.353,530.868,533.755,538.805,543.85,546.344,550.263,553.715,557.23,560.744,564.663,569.702,574.747,578.262,581.149,585.178" y="599.9300000000001" svg_rhmargin="590.127" style="fill:#171615;font-family:NCNEAO+AdvOTbc475f09;font-size:8.97px;font-style:NORMAL;font-weight:normal;">metastasis in human cancers. However, most studies reported</text>
  <text x="345.089,348.603,353.552,358.695,361.582,366.178,369.63,374.796,379.279,382.846,386.764,391.917,394.411,396.906,404.276,406.827,409.714,413.8,418.749,423.892,426.386,431.33500000000004,436.478,439.365,443.451,446.966,454.336,457.788,463.009,467.958,470.845,476.048,478.935,484.041,487.96,490.504,493.956,499.122,504.071,506.605,510.12,514.038,517.603,521.628,524.515,528.433,533.646,538.596,543.681,546.568,550.597,555.547,563.013,567.038,570.49,575.655,580.138,585.179" y="610.8720000000001" svg_rhmargin="590.128" style="fill:#171615;font-family:NCNEAO+AdvOTbc475f09;font-size:8.97px;font-style:NORMAL;font-weight:normal;">so far are limited in terms of their discrete outcomes and</text>
  <text x="345.089,348.603,355.974,360.565,363.06,365.481,369.523,373.038,377.521,385.0,389.949,392.483,396.401,400.476,403.991,406.485,410.404,414.422,416.843,420.885,426.838,431.788,435.852,439.367,443.285,446.283,451.233,454.787,458.705,461.126,465.275,468.162,473.212,475.706,479.158,483.19,488.139,493.224,498.173,502.748,505.635,509.721,514.67,518.678,526.048,530.073,533.078,537.561,540.561,545.044,550.085,554.568,557.115,561.598,565.165,567.659,571.111,575.142,582.116,586.708" y="621.87" svg_rhmargin="590.16" style="fill:#171615;font-family:NCNEAO+AdvOTbc475f09;font-size:8.97px;font-style:NORMAL;font-weight:normal;">small sample size. Therefore, this updated meta-analysis was</text>
  <text x="345.089,349.007,353.592,357.107,360.622,363.116,367.035,371.98400000000004,374.341,379.291,384.319,387.206,389.535,392.422,397.37100000000004,399.739,404.689,408.697,411.701,415.619,419.184,426.555,429.106,434.055,437.973,440.331,443.218,448.268,452.186,454.504,459.453,463.007,468.053,472.536,477.577,482.622,486.137,489.024,491.523,495.44100000000003,497.759,502.242,506.829,509.324,514.369,518.287,520.548,525.594,528.481,530.753,535.702,542.261,548.214,553.163,555.47,557.965,562.914,565.165,569.19,573.673,578.714,582.632,586.707" y="632.812" svg_rhmargin="590.159" style="fill:#171615;font-family:NCNEAO+AdvOTbc475f09;font-size:8.97px;font-style:NORMAL;font-weight:normal;">carried out to determine the prognostic value of PVT1 in cancer</text>
  <text x="345.089,350.038,354.613,357.5,360.055,363.974,369.069,371.956,375.532" y="643.7529999999999" svg_rhmargin="377.953" style="fill:#171615;font-family:NCNEAO+AdvOTbc475f09;font-size:8.97px;font-style:NORMAL;font-weight:normal;">patients.</text>
  <text x="345.09,351.005,353.95799999999997,358.639,367.309,372.827,376.47,382.187,386.124,388.879,394.396,397.151,402.37600000000003,405.581,411.099,417.014,422.93,426.047,434.717,440.433,444.077,449.992,455.709,461.624" y="673.405" svg_rhmargin="466.848" style="fill:#171615;font-family:NCNDPH+AdvOTfbba3ace.B;font-size:9.46px;font-style:NORMAL;font-weight:normal;">2. Materials and methods</text>
  <text x="345.09,350.039,352.46,357.409,359.83,364.308,369.437,371.58,374.467,379.416,382.68,387.629,390.517,395.645,398.909,403.858,406.883,411.832,417.06,419.202,421.345,426.295,431.244,434.131,436.274,441.502" y="691.3199999999999" svg_rhmargin="446.631" style="fill:#171615;font-family:NCNECA+AdvOT01861455.I;font-size:8.97px;font-style:NORMAL;font-weight:normal;">2.1. Literature collection</text>
  <text x="345.09,351.527,355.446,359.364,364.313,367.765,372.715,375.136,380.085,384.568,389.819,392.706,397.65500000000003,402.859,405.746,410.695,414.613,419.866,423.318,426.205,430.688,435.638,440.587,445.07,448.522,453.471,458.699,463.182,468.132,470.553,475.502,479.42,481.841,484.262,489.211,493.13,496.582,501.841,506.791,509.678,514.938,522.308,526.226,529.113,533.596,536.484,540.967,545.916,550.399,552.82,557.303,560.755,563.176,566.628" y="707.308" svg_rhmargin="569.049" style="fill:#171615;font-family:NCNEAO+AdvOTbc475f09;font-size:8.97px;font-style:NORMAL;font-weight:normal;">According to the standard guidelines of meta-analysis,</text>
  <text x="569.083,571.249,574.962,578.675,580.491,584.278,587.991" y="703.282" svg_rhmargin="590.156" style="fill:#171615;font-family:NCNEAO+AdvOTbc475f09;font-size:5.98px;font-style:NORMAL;font-weight:normal;">[15,16]</text>
  <text x="345.09,347.977,352.926,356.844,360.85,363.737,368.686,371.107,373.528,378.478,385.382,387.802,392.752,397.235,401.214,405.133,407.553,411.472,415.39,418.277,421.729,426.679,431.628,434.049,437.967,442.032,446.981,451.464,454.351,458.834,463.784,468.267,471.719,475.637,479.089,481.51,485.514,487.935,492.884,496.802,499.223,504.173,509.122,511.543,516.492,520.9749999999999,524.971,529.92,534.87,539.819,548.785,552.703,557.653,560.0740000000001,564.087,571.457,577.895,580.782,587.686" y="718.249" svg_rhmargin="590.107" style="fill:#171615;font-family:NCNEAO+AdvOTbc475f09;font-size:8.97px;font-style:NORMAL;font-weight:normal;">the following electronic databases, including PubMed, OVID,</text>
  <path d="M85.039 128.416 L566.248 128.416 C579.438 128.4 590.175 139.119 590.115 152.34 L590.115 381.493 L85.039 381.493 M85.039 128.416 L566.248 128.416 L566.248 128.643 L85.265 128.643 M566.249 128.416 L569.991 128.699 C580.193 130.325 588.278 138.348 589.833 148.598 L590.117 152.34 L589.89 152.34 L589.606 148.598 C588.045 138.437 580.02 130.616 569.934 128.926 L566.249 128.643 M590.116 152.34 L590.116 381.493 L589.889 381.266 L589.889 152.34 M590.116 381.493 L85.039 381.493 L85.266 381.266 L589.889 381.266 M85.039 381.493 L85.039 128.416 L85.265 128.643 L85.265 381.266 M85.039 498.734 L330.122 498.734 L330.122 719.212 L85.039 719.212 " style="fill:none;stroke:#000000;stroke-width:1.0;"/>
  <path d=" M 85.03900146484375 301.54998779296875 L 330.06597900390625 301.54998779296875 L 330.06597900390625 301.03997802734375 L 85.03900146484375 301.03997802734375 L 84.81200408935547 301.1529846191406 L 84.81200408935547 301.4369812011719" style="fill:none;stroke:#000000;stroke-width:1.0;"/>
  <text x="85.039,89.029,93.019,94.254,96.284,100.134,102.311,104.194,106.585,110.944,114.502,116.532,118.708,119.943,123.501,124.736,128.293,130.682,135.042,138.599,141.794,145.351,147.527,148.763,152.466,156.317" y="507.011" svg_rhmargin="158.2" style="fill:#171615;font-family:NCNECB+AdvOT1deab444.I;font-size:6.97px;font-style:NORMAL;font-weight:normal;">Editor: Patricia Severino.</text>
  <text x="85.039,88.89,92.593,93.828,97.169,99.497,102.839,104.869,108.573,112.562,115.756,118.151,123.305,126.863,130.204,132.551,135.892,139.596,143.586,147.576,151.426,153.602,155.632,159.19,163.179,165.549,169.539,172.73299999999998,175.074,177.104,180.808,184.36499999999998,186.754,190.457,194.161,197.865,201.854,204.216,208.066,209.81,212.096,218.415,222.118,224.513,228.0,229.235,232.793,236.782,238.017,241.721,245.571,247.929,253.809,257.366,261.356,262.591,266.148,269.706,270.94,273.273,276.977,280.827,284.531,288.297,292.287,295.844,297.874,299.109,302.959,306.662,309.049,313.91,315.146,316.381,320.084,321.319,324.877,328.434" y="518.973" svg_rhmargin="329.668" style="fill:#171615;font-family:NCNECB+AdvOT1deab444.I;font-size:6.97px;font-style:NORMAL;font-weight:normal;">This study was supported by the Fund of Wu Jieping Medical Foundation Clinical</text>
  <text x="85.039,88.597,92.301,96.29,98.647,103.145,106.703,110.044,113.601,117.159,119.335,122.97,126.673,128.979,130.723,135.585,139.435,141.318,143.664,147.514,151.364,155.215,159.065,162.915,166.765,170.616,174.466,178.316,182.166,186.017,189.929,191.673" y="527.9300000000001" svg_rhmargin="193.556" style="fill:#171615;font-family:NCNECB+AdvOT1deab444.I;font-size:6.97px;font-style:NORMAL;font-weight:normal;">and Research (No. 320274516224).</text>
  <text x="85.039,88.89,92.593,96.15,98.477,102.034,105.738,107.768,111.472,115.322,117.584,120.925,123.253,125.429,128.986,132.976,136.826,139.003,141.03199999999998,143.38,147.084,150.934,153.245,156.802,160.652" y="539.893" svg_rhmargin="164.355" style="fill:#171615;font-family:NCNECB+AdvOT1deab444.I;font-size:6.97px;font-style:NORMAL;font-weight:normal;">The authors report no con</text>
  <text x="164.41" y="539.893" svg_rhmargin="167.458" style="fill:#171615;font-family:NCNECC+AdvOT1deab444.I+fb;font-size:6.97px;font-style:NORMAL;font-weight:normal;">ﬂ</text>
  <text x="167.471,168.705,172.262,174.291,177.632,179.943,183.793,185.537,187.88,189.114,192.817,194.847,198.403,200.579,204.136,207.551,209.57999999999998,211.917,213.151,216.854,219.173,221.202,224.905,226.14,229.481,231.815,236.969,240.818,242.994,246.188" y="539.893" svg_rhmargin="248.071" style="fill:#171615;font-family:NCNECB+AdvOT1deab444.I;font-size:6.97px;font-style:NORMAL;font-weight:normal;">icts of interest in this work.</text>
  <text svg_rhmargin="87.706" x="85.039,87.706" y="551.855" style="fill:#171615;font-family:NCNECB+AdvOT1deab444.I;font-size:4.65px;font-style:NORMAL;font-weight:normal;">a </text>
  <text svg_rhmargin="172.808" x="88.895,93.616,97.174,101.164,104.721,106.897,108.927,114.661,118.218,121.922,123.951,126.315,130.165,131.909,134.252,139.406,141.583,143.613,147.317,151.167,155.157,158.802,162.792,164.027,167.584,170.925,172.80800000000002" y="548.737" style="fill:#171615;font-family:NCNECB+AdvOT1deab444.I;font-size:6.97px;font-style:NORMAL;font-weight:normal;">Department of Orthopedics, </text>
  <text svg_rhmargin="178.116" x="175.124,178.11599999999999" y="551.855" style="fill:#171615;font-family:NCNECB+AdvOT1deab444.I;font-size:4.65px;font-style:NORMAL;font-weight:normal;">b </text>
  <text x="179.32,184.042,187.599,191.589,195.146,197.323,199.353,205.086,208.643,212.347,214.376,216.797,220.647,222.391,224.677,229.893,233.883,237.44,239.617,243.174,245.204,246.439,250.143,253.993,256.371,258.547,262.397,266.247,271.981,273.864,276.214,280.065,283.768,287.325,289.652,293.355,294.59,296.767,300.108,302.137,304.507,308.866" y="551.855" svg_rhmargin="310.609" style="fill:#171615;font-family:NCNECB+AdvOT1deab444.I;font-size:6.97px;font-style:NORMAL;font-weight:normal;">Department of Operating room, The First Af</text>
  <text x="310.62" y="551.855" svg_rhmargin="313.668" style="fill:#171615;font-family:NCNECC+AdvOT1deab444.I+fb;font-size:6.97px;font-style:NORMAL;font-weight:normal;">ﬁ</text>
  <text x="313.682,314.916,316.151,319.707,321.737,325.293" y="551.855" svg_rhmargin="329.282" style="fill:#171615;font-family:NCNECB+AdvOT1deab444.I;font-size:6.97px;font-style:NORMAL;font-weight:normal;">liated</text>
  <text x="85.039,89.901,93.751,97.092,101.082,102.317,104.347,107.904,109.13799999999999,111.518,115.368,117.112,119.455,123.445,124.68,128.384,131.578,132.814,136.371,140.075,143.92499999999998,146.274,152.153,155.711,159.7,161.015,164.572,168.13,169.364,171.674,176.535,180.239,181.474,184.669,188.226,190.402,193.744,194.979,197.009,200.307,202.19,204.503,208.493,209.728,213.431,216.626,217.861,221.418,225.122,228.972,231.321,235.171,239.022,242.872,246.722,250.572,254.423,256.306,258.706,263.567,267.125,270.829,274.386,278.089,280.42,284.41,286.657,290.507,293.702,294.937,298.641,302.198,305.755" y="560.812" svg_rhmargin="307.638" style="fill:#171615;font-family:NCNECB+AdvOT1deab444.I;font-size:6.97px;font-style:NORMAL;font-weight:normal;">Hospital of Xinxiang Medical University, Xinxiang 453000, Henan province,</text>
  <text x="85.039,89.399,92.956,96.806,100.796,102.031" y="569.77" svg_rhmargin="105.588" style="fill:#171615;font-family:NCNECB+AdvOT1deab444.I;font-size:6.97px;font-style:NORMAL;font-weight:normal;">People</text>
  <text x="105.619" y="569.77" svg_rhmargin="107.502" style="fill:#171615;font-family:NCNECD+AdvOT1deab444.I+20;font-size:6.97px;font-style:NORMAL;font-weight:normal;">’</text>
  <text x="107.547,110.88799999999999,113.216,117.715,121.272,125.262,128.965,132.955,134.19,135.425,138.982,141.338,145.189,146.933,149.276,154.137,157.841,159.076,162.78,166.337" y="569.77" svg_rhmargin="168.22" style="fill:#171615;font-family:NCNECB+AdvOT1deab444.I;font-size:6.97px;font-style:NORMAL;font-weight:normal;">s Republic of China.</text>
  <text svg_rhmargin="87.759" x="85.039,87.759" y="581.732" style="fill:#171615;font-family:NCNEAJ+AdvOTb0c9bf5d+22;font-size:4.65px;font-style:NORMAL;font-weight:normal;">∗ </text>
  <text x="88.951,93.813,97.663,99.839,102.016,105.573,108.914,112.904,116.754,120.458,124.448,128.005,131.709,135.266,138.824,140.70700000000002,143.154,148.309,149.544,153.248,155.787,159.776,163.627,167.33,171.18,173.544,177.248,178.483,182.04,185.744,189.594,191.477,193.842,198.564,202.121,206.111,209.668,211.845,213.875,219.608,223.165,226.869,228.898,231.319,235.169,236.913,239.257,244.411,246.588,248.618,252.322,256.172,260.162,263.719,267.709,268.944,272.501,275.842,277.72499999999997,280.137,283.987,287.691,291.248,293.574,297.278,298.513,300.689,304.03" y="581.732" svg_rhmargin="306.059" style="fill:#171615;font-family:NCNECB+AdvOT1deab444.I;font-size:6.97px;font-style:NORMAL;font-weight:normal;">Correspondence: Qiu-dong Liang, Department of Orthopedics, The First</text>
  <text x="85.04,89.399" y="590.69" svg_rhmargin="91.142" style="fill:#171615;font-family:NCNECB+AdvOT1deab444.I;font-size:6.97px;font-style:NORMAL;font-weight:normal;">Af</text>
  <text x="91.163" y="590.69" svg_rhmargin="94.211" style="fill:#171615;font-family:NCNECC+AdvOT1deab444.I+fb;font-size:6.97px;font-style:NORMAL;font-weight:normal;">ﬁ</text>
  <text x="94.224,95.459,96.694,100.252,102.282,105.839,109.828,112.198,117.06,120.91,124.251,128.241,129.476,131.506,135.063,136.297,138.676,142.527,144.271,146.557,150.547,151.782,155.485,158.747,159.981,163.539,167.243,171.093,173.431,179.311,182.868,186.858,188.093,191.65,195.208,196.442,198.832,203.693,207.397,208.632,211.827,215.384,217.561,220.902,222.137,224.167,227.362,229.245,231.605,236.466,240.316,242.199,244.588,248.438,252.28799999999998,254.623,260.942,264.499,265.734,269.438,273.142,274.376,276.735,280.439,283.996,287.553,288.788,290.818,294.52099999999996,296.863,301.361,305.212,308.769,312.759" y="590.69" svg_rhmargin="314.642" style="fill:#171615;font-family:NCNECB+AdvOT1deab444.I;font-size:6.97px;font-style:NORMAL;font-weight:normal;">liated Hospital of Xinxiang Medical University, No. 88 Weihui health Road,</text>
  <text x="85.04,89.029,90.264,93.968,97.163,98.398,101.955,105.659,109.509,111.392,113.786,118.648,122.205,125.909,129.466,133.17,135.053,137.429,141.279,145.129,148.98,152.83,156.68,160.53,162.413,164.757,169.619,173.322,174.622,178.326,181.88299999999998,184.204,185.948,189.505,192.044,197.777,201.335,202.57,203.805,205.68800000000002,208.074,209.309,210.544,214.102,217.805,221.656,225.645,229.635,233.485,237.336,241.186,245.036,250.553,253.999,255.234,258.938,262.496,264.379,267.937,271.787,277.52,279.264,281.147,283.483,288.205,291.762,294.368,298.727,302.285,305.988,309.838,312.171,318.49,322.194" y="599.6469999999999" svg_rhmargin="324.077" style="fill:#171615;font-family:NCNECB+AdvOT1deab444.I;font-size:6.97px;font-style:NORMAL;font-weight:normal;">Xinxiang, Henan, 453100, China (e-mail: liangqd2015@sina.com); Da-Peng Wu,</text>
  <text x="85.04,89.762,93.319,97.309,100.866,103.042,105.073,110.894,114.451,118.155,120.184,122.516,126.366,128.11,130.454,135.608,137.785,139.815,143.518,147.369,151.358,154.916,158.905,160.14,163.698,167.039,168.922,171.333,175.184,178.887,182.444,184.771,188.474,189.709,191.886,195.227,197.256,199.626,203.985" y="608.604" svg_rhmargin="205.728" style="fill:#171615;font-family:NCNECB+AdvOT1deab444.I;font-size:6.97px;font-style:NORMAL;font-weight:normal;">Department of Orthopedics, The First Af</text>
  <text x="205.739" y="608.604" svg_rhmargin="208.787" style="fill:#171615;font-family:NCNECC+AdvOT1deab444.I+fb;font-size:6.97px;font-style:NORMAL;font-weight:normal;">ﬁ</text>
  <text x="208.8,210.035,211.269,214.826,216.855,220.412,224.401,226.771,231.632,235.481,238.822,242.811,244.045,246.074,249.631,250.865,253.244,257.094,258.838,261.125,265.114,266.349,270.052,273.313,274.548,278.104,281.807,285.65700000000004,287.996,293.876,297.432,301.421,302.656,306.212,309.769" y="608.604" svg_rhmargin="311.003" style="fill:#171615;font-family:NCNECB+AdvOT1deab444.I;font-size:6.97px;font-style:NORMAL;font-weight:normal;">liated Hospital of Xinxiang Medical</text>
  <text x="85.04,89.901,93.605,94.84,98.035,101.592,103.768,107.11,108.345,110.375,113.569,115.452,117.869,122.73,126.58,128.463,130.795,134.646,138.49599999999998,140.831,147.15,150.707,151.942,155.646,159.35,160.584,162.943,166.646,170.204,173.761,174.996,177.026,180.729,183.128,187.626,191.477,195.034,199.024,200.907,203.255,207.244,208.479,212.183,215.378,216.613,220.17,223.874,227.724,229.607,232.001,236.863,240.42,244.124,247.681,251.385,253.268,255.644,259.494,263.344,267.195,271.045,274.895,278.745,280.628,282.972,287.834,291.537,292.837,296.541" y="617.562" svg_rhmargin="300.098" style="fill:#171615;font-family:NCNECB+AdvOT1deab444.I;font-size:6.97px;font-style:NORMAL;font-weight:normal;">University, No. 88 Weihui health Road, Xinxiang, Henan, 453100, China</text>
  <text x="85.04,86.784,90.341,92.88,98.613,102.171,103.406,104.714,106.597,108.91,114.064,117.768,121.757,125.315,129.304,132.862,136.566,140.416,144.266,148.201,152.051,155.901,161.418,165.268,169.119,172.969,174.852,178.41,182.332,188.066,189.81" y="626.577" svg_rhmargin="191.693" style="fill:#171615;font-family:NCNECB+AdvOT1deab444.I;font-size:6.97px;font-style:NORMAL;font-weight:normal;">(e-mail: wudapeng2016@163.com).</text>
  <text svg_rhmargin="113.93" x="85.04,89.901,93.751,97.741,100.936,103.112,104.347,108.197,111.901,113.92999999999999" y="638.482" style="fill:#171615;font-family:NCNECB+AdvOT1deab444.I;font-size:6.97px;font-style:NORMAL;font-weight:normal;">Copyright </text>
  <text svg_rhmargin="121.564" x="116.334,121.565" y="638.482" style="fill:#171615;font-family:NCNEAM+AdvOTb0c9bf5d;font-size:6.97px;font-style:NORMAL;font-weight:normal;">© </text>
  <text x="123.874,127.724,131.574,135.425,139.275,141.619,143.65,147.353,150.91,153.242,157.601,161.305,163.335,167.039,170.889,173.143,174.887,178.228,179.973,181.85600000000002,184.199,188.559,192.262,196.252,197.487,198.722,202.063,205.767,209.325,213.314,215.667,219.657,222.851,225.192,231.511,235.361,236.596,238.626,242.258,244.435,247.776,250.082,254.581,255.816,259.52,264.674,268.232,270.408,272.818,277.679,281.236,284.794,286.029,288.059,291.763,293.64599999999996,296.008,297.528,301.232,304.789" y="638.482" svg_rhmargin="306.672" style="fill:#171615;font-family:NCNECB+AdvOT1deab444.I;font-size:6.97px;font-style:NORMAL;font-weight:normal;">2018 the Author(s). Published by Wolters Kluwer Health, Inc.</text>
  <text x="85.039,88.888,92.592,93.826,97.16699999999999,99.495,100.729,104.07,106.412,109.969,113.672,115.993,119.904,123.893,127.45,131.153,133.453,137.01,140.566,144.123,147.68,151.02,154.36100000000002,156.752,160.309,162.485,164.514,165.749,169.305,170.54,174.09699999999998,176.48,180.469,181.703,185.044,187.073,189.249,190.483,194.472,198.176,200.205,203.762,207.751,210.153,213.856,217.559,221.548,225.105,227.28099999999998,229.654,231.683,235.386,238.94299999999998,241.276,243.305,246.862,249.038,254.77,258.111,260.493,264.344,266.088,268.431,270.46,274.164,277.721,280.052,284.913,287.089,290.645,294.202,296.231,297.466,300.66" y="647.4970000000001" svg_rhmargin="304.217" style="fill:#171615;font-family:NCNECB+AdvOT1deab444.I;font-size:6.97px;font-style:NORMAL;font-weight:normal;">This is an open access article distributed under the terms of the Creative</text>
  <text x="85.039,89.9,93.751,99.484,105.217,109.067,112.771,116.112,118.489,122.849,124.879,126.909,129.085,130.32,134.31,138.014,140.044,141.279,145.129,148.938,151.476,156.338,160.188,163.891,166.229,171.091,174.941,180.674,186.407,189.965,192.141,195.698,196.934,200.588,201.823,204.362,209.223,213.073,215.443,220.165,223.722,225.899,227.134,230.328,233.886,235.916,237.151,240.345,243.903,247.244,249.632,253.336,254.571,258.129,261.686,265.39,268.731,272.288,274.636,278.487,280.37,284.22,286.543,288.286,293.148,298.009,302.654,306.726,309.265,314.126,318.988" y="656.454" svg_rhmargin="321.526" style="fill:#171615;font-family:NCNECB+AdvOT1deab444.I;font-size:6.97px;font-style:NORMAL;font-weight:normal;">Commons Attribution-Non Commercial-No Derivatives License 4.0 (CCBY-NC-</text>
  <text x="85.039,89.9,94.621,96.364,98.247,100.628,105.782,109.485,113.041,115.217,118.774,121.093,122.327,124.356,126.705,127.94,131.281,133.622,137.611,141.168,143.343,149.076,150.31,153.651,156.991,158.225,162.306,163.54,167.09699999999998,169.393,171.422,175.272,177.613,181.602,185.451,190.605,194.308,195.542,199.392,202.948,206.937,209.358,212.915,216.618,220.607,222.964,226.304,230.007,233.564,235.74,239.297,241.615,243.644,247.347,250.904,253.293,258.447,262.296,264.472,267.666,270.016,274.006,276.182,280.031,283.225,284.46,288.449,292.005,295.99399999999997,298.361,299.596,301.625,303.974,305.208" y="665.4110000000001" svg_rhmargin="308.548" style="fill:#171615;font-family:NCNECB+AdvOT1deab444.I;font-size:6.97px;font-style:NORMAL;font-weight:normal;">ND), where it is permissible to download and share the work provided it is</text>
  <text x="85.039,89.029,91.205,95.055,99.045,102.602,104.779,106.014,109.208,111.574,115.132,116.367,118.397,121.954,125.944,127.827,130.228,134.079,137.782,141.339,143.666,148.82,152.67,154.847,158.041,160.391,163.948,167.506,171.209,174.913,178.763,180.792,183.183,187.173,190.73,193.048,196.606,200.31,203.934,207.637,211.487,215.045,219.034,221.339,222.573,226.276,228.652,232.21,235.914,239.10799999999998,241.465,246.62,250.177,253.37099999999998,255.696,259.546,261.722,264.087,267.791,271.132,274.689,278.678,280.983,284.54,288.39,294.193,299.926,303.483,305.66,309.217,310.452,314.01,315.245,316.48" y="674.3679999999999" svg_rhmargin="319.674" style="fill:#171615;font-family:NCNECB+AdvOT1deab444.I;font-size:6.97px;font-style:NORMAL;font-weight:normal;">properly cited. The work cannot be changed in any way or used commercially</text>
  <text x="85.039,90.193,91.428,93.458,97.162,101.012,104.716,106.74499999999999,109.135,113.125,116.683,118.859,124.592,125.827,129.168,132.51,133.745,137.595,141.298,143.665,145.409,147.586,151.436,157.169,159.54,161.569,165.273,168.82999999999998,171.162,172.397,176.247,179.951,182.127,185.831,189.389,190.624" y="683.325" svg_rhmargin="192.507" style="fill:#171615;font-family:NCNECB+AdvOT1deab444.I;font-size:6.97px;font-style:NORMAL;font-weight:normal;">without permission from the journal.</text>
  <text x="85.039,90.919,94.476,98.466,99.701,103.258,104.493,108.197,111.754,114.125,115.869,119.719,123.569,127.419,131.27,133.014,135.386,139.236,143.087,144.97,148.821,152.671,154.415,157.972,161.823,165.673,169.523,173.373,177.223" y="695.287" svg_rhmargin="178.966" style="fill:#171615;font-family:NCNECB+AdvOT1deab444.I;font-size:6.97px;font-style:NORMAL;font-weight:normal;">Medicine (2018) 97:49(e13548)</text>
  <text x="85.039,89.538,93.095,96.652,100.21,101.445,104.713,108.271,112.26,114.143,116.45,120.3,124.14999999999999,126.485,129.972,133.676,137.38,140.93699999999998,143.324,147.174,151.024,154.875,158.725,161.069,163.315,165.662,170.021,173.578,177.136,180.693,184.683,186.713,190.27,194.26,196.143,198.547,202.397,206.24699999999999,208.582,213.443,217.294,220.488,224.046,229.779,233.768,237.326,239.50199999999998,241.863,245.713,249.563,253.414" y="707.25" svg_rhmargin="257.264" style="fill:#171615;font-family:NCNECB+AdvOT1deab444.I;font-size:6.97px;font-style:NORMAL;font-weight:normal;">Received: 17 June 2018 / Accepted: 13 November 2018</text>
  <text x="85.039,88.743,90.773,92.803,96.793,98.676,100.922,103.169,107.158,110.353,112.237,116.338,120.188,121.423,123.307,127.157,129.334,133.184,135.43,139.28,143.131,145.014,148.865,152.796,156.647,160.497,162.743,168.623,173.345,175.228,179.078,182.929,186.779,190.629,194.479,198.33,202.18,206.03,209.88,213.731,217.658,221.57,225.42,229.27,233.121" y="719.212" svg_rhmargin="236.971" style="fill:#171615;font-family:NCNECB+AdvOT1deab444.I;font-size:6.97px;font-style:NORMAL;font-weight:normal;">http://dx.doi.org/10.1097/MD.0000000000013548</text>
  <path d=" M 85.03900146484375 759.968017578125 L 590.1729736328125 759.968017578125 L 590.1729736328125 760.9884033203125 L 85.03900146484375 760.9884033203125 Z " style="fill:none;stroke:#000000;stroke-width:1.0;"/>
  <path d=" M 85.03900146484375 761.0460205078125 L 89.00749969482422 761.0460205078125 L 89.00749969482422 775.9559936523438 L 85.03900146484375 775.9559936523438 Z " style="fill:none;stroke:#000000;stroke-width:1.0;"/>
  <text svg_rhmargin="304.422" x="91.389,98.751,104.769,111.195,115.239,122.393,133.171,140.115,144.16,146.651,153.39600000000002,156.756,164.845,171.998,178.299,180.789,187.943,197.697,201.032,207.976,214.721,221.874,225.24,235.919,243.073,247.117,254.153,258.925,266.805,273.55,280.572,283.062,289.08,295.506,297.996,304.42199999999997" y="31.899" style="fill:#73828a;font-family:NCNEDE+AdvOTbed05995;font-size:9.96px;font-style:NORMAL;font-weight:normal;">Systematic Review and Meta-Analysis </text>
  <text x="437.272,469.714,489.657,511.847,519.123,537.736,545.012,564.991" y="31.899" svg_rhmargin="587.342" style="fill:#de000f;font-family:NCNEFE+Avenir-Roman;font-size:40.2px;font-style:NORMAL;font-weight:normal;">Medicine</text>
  <text x="584.326" y="14.110000000000014" svg_rhmargin="590.154" style="fill:#979699;font-family:NCNEFF+AkzidenzGroteskBE-Md;font-size:7.0px;font-style:NORMAL;font-weight:bold;">®</text>
  <path d="M85.039 498.45 L330.065 498.45 L330.065 498.96 L85.039 498.96 L84.812 498.847 L84.812 498.563 M443.709 35.651 L582.507 35.651 M584.0 35.651 L584.0 35.651 M440.722 35.651 L440.722 35.651 " style="fill:none;stroke:#979699;stroke-width:1.5;"/>
  <rect style="stroke:blue;stroke-width:0.3;" x="550.368" y="44.108" height="15.384" width="39.988" title="1"/>
  <text x="550.368" y="44.108" class="image" id="image.1.1" width="39" height="15">image.1.1.550_590.44_59</text>
  <text x="555.412,563.566,570.568,577.237" y="54.660999999999945" svg_rhmargin="585.238" style="fill:#ffffff;font-family:NCNEIF+HelveticaNeue-MediumExt;font-size:9.0px;font-style:NORMAL;font-weight:normal;">OPEN</text>
  <text x="335.395" y="739.622" svg_rhmargin="339.795" style="fill:#171615;font-family:NCNEJG+AdvOTf94803d4;font-size:7.97px;font-style:NORMAL;font-weight:normal;">1</text>
 </g>
</svg>
