<?xml version="1.0" encoding="UTF-8"?>
<svg height="870.031005859375" width="672.0029907226562" xmlns="http://www.w3.org/2000/svg">
 <g style="fill:none;">
  <path d=" M 0.05999799817800522 826.072021484375 L 22.619997024536133 826.072021484375 L 22.619997024536133 826.35546875 L 0.05999799817800522 826.35546875 Z " style="fill:none;stroke:#000000;stroke-width:1.0;"/>
  <path d=" M 33.67599868774414 837.4110107421875 L 33.959449768066406 837.4110107421875 L 33.959449768066406 860.031005859375 L 33.67599868774414 860.031005859375 Z " style="fill:none;stroke:#000000;stroke-width:1.0;"/>
  <path d=" M 627.9869995117188 837.4110107421875 L 628.2703857421875 837.4110107421875 L 628.2703857421875 860.031005859375 L 627.9869995117188 860.031005859375 Z " style="fill:none;stroke:#000000;stroke-width:1.0;"/>
  <path d=" M 639.3259887695312 826.072021484375 L 662.0029907226562 826.072021484375 L 662.0029907226562 826.35546875 L 639.3259887695312 826.35546875 Z " style="fill:none;stroke:#000000;stroke-width:1.0;"/>
  <path d=" M 639.3259887695312 33.731998443603516 L 662.0029907226562 33.731998443603516 L 662.0029907226562 34.015480041503906 L 639.3259887695312 34.015480041503906 Z " style="fill:none;stroke:#000000;stroke-width:1.0;"/>
  <path d=" M 627.9869995117188 0.0 L 628.2703857421875 0.0 L 628.2703857421875 22.677000045776367 L 627.9869995117188 22.677000045776367 Z " style="fill:none;stroke:#000000;stroke-width:1.0;"/>
  <path d=" M 33.67599868774414 0.0 L 33.959449768066406 0.0 L 33.959449768066406 22.677000045776367 L 33.67599868774414 22.677000045776367 Z " style="fill:none;stroke:#000000;stroke-width:1.0;"/>
  <path d=" M 0.05999799817800522 33.731998443603516 L 22.619997024536133 33.731998443603516 L 22.619997024536133 34.015480041503906 L 0.05999799817800522 34.015480041503906 Z " style="fill:none;stroke:#000000;stroke-width:1.0;"/>
  <text x="85.039,87.927,92.876,96.79400000000001,101.253,105.171,109.655,112.075,117.025,120.943,125.893,129.811,133.729,138.159,142.078,147.027,149.914,153.832,158.782,162.234,164.655,169.138,173.056,175.477,179.96,184.419,188.902,192.821,196.739,201.688,209.059,214.008,216.429,220.912,223.799,227.717,232.66600000000003,237.085,239.973,244.922,248.84,252.292,256.211,263.115,265.536,268.423,273.372,277.846,282.796,287.279,290.731,295.137,300.086,305.036,307.923,312.371,317.32,321.239,325.157" y="686.331" svg_rhmargin="330.106" style="fill:#171615;font-family:MMHCMN+AdvOTbc475f09;font-size:8.97px;font-style:NORMAL;font-weight:normal;">the evidence extensively accumulated therewith has not been</text>
  <text svg_rhmargin="226.844" x="85.039,88.958,93.907,97.359,102.308,104.729,107.15,111.069,116.018,118.43900000000001,122.229,129.599,134.549,138.001,141.787,146.736,150.189,154.107,157.559,161.477,166.426,169.313,173.08,176.532,179.42,184.369,189.318,193.802,196.22299999999998,200.009,202.896,207.845,211.297,215.089,217.976,222.926,226.844" y="697.272" style="fill:#171615;font-family:MMHCMN+AdvOTbc475f09;font-size:8.97px;font-style:NORMAL;font-weight:normal;">enrolled. Our present study, for the </text>
  <text x="230.627" y="697.272" svg_rhmargin="235.576" style="fill:#171615;font-family:MMHCMO+AdvOTbc475f09+fb;font-size:8.97px;font-style:NORMAL;font-weight:normal;">ﬁ</text>
  <text x="235.559,239.011,242.463,245.35,249.166,252.053,254.474,261.844,265.762,268.183,271.955,276.905,280.357,284.275,289.224,292.988,295.875,300.824,304.742,308.521,315.891,319.809,322.697,327.18" y="697.272" svg_rhmargin="330.067" style="fill:#171615;font-family:MMHCMN+AdvOTbc475f09;font-size:8.97px;font-style:NORMAL;font-weight:normal;">rst time, used the meta-</text>
  <text x="85.039,89.523,94.472,98.955,101.376,105.859,109.311,111.732,115.184,117.126,120.013,124.962,126.877,130.329,135.278,139.197,143.115" y="708.2139999999999" svg_rhmargin="145.536" style="fill:#171615;font-family:MMHCMN+AdvOTbc475f09;font-size:8.97px;font-style:NORMAL;font-weight:normal;">analysis to speci</text>
  <text x="145.588" y="708.2139999999999" svg_rhmargin="150.537" style="fill:#171615;font-family:MMHCMO+AdvOTbc475f09+fb;font-size:8.97px;font-style:NORMAL;font-weight:normal;">ﬁ</text>
  <text x="150.52,154.439,158.922,161.343,163.763,168.246,170.192,174.675,178.128,181.58,185.498,188.95,192.402,194.343,197.23,202.18,206.098,208.006,212.955,216.407,221.357,225.84,230.789,235.739,239.191,242.078,244.499,248.417,250.354,254.837,259.32,261.741,266.69,270.608,272.52,277.47,280.357,282.328,287.277,290.729,294.647,299.597,304.546,308.464,311.916,316.4,319.287,321.708,326.191" y="708.2139999999999" svg_rhmargin="330.109" style="fill:#171615;font-family:MMHCMN+AdvOTbc475f09;font-size:8.97px;font-style:NORMAL;font-weight:normal;">cally assess the prognostic value of preoperative</text>
  <text svg_rhmargin="330.08" x="85.039,92.41,97.825,104.263,106.979,111.462,116.412,121.361,124.1,129.05,132.502,137.451,141.934,146.884,151.833,155.285,157.706,161.158,163.897,166.318,171.26700000000002,173.989,179.404,185.84199999999998,188.559,193.508,197.991,200.879,203.299,207.218,212.167,215.054,218.506,221.27,226.219,231.169,236.118,240.036,243.488,247.971,252.921,255.342,260.291,264.774,267.53,270.982,275.931,279.383,283.866,287.784,291.237,295.72,298.427,305.331,307.752,310.639,315.588,318.326,321.213,326.162,330.08" y="686.33" style="fill:#171615;font-family:MMHCMN+AdvOTbc475f09;font-size:8.97px;font-style:NORMAL;font-weight:normal;">NLR and prognosis in BC patients undergoing surgery with the </text>
  <text x="345.091,347.512,349.933,352.82,356.738,360.19,364.673,367.56,372.51,375.962,379.88,384.831,389.781,394.73,399.679,404.163,407.05,410.968,415.91700000000003,420.83,423.717,428.666,433.585,438.069,441.987,446.936,449.823,453.742,461.112,466.061,469.98,473.432,478.315,483.264,488.214,493.163,498.112,500.533,505.47,511.352,516.301,520.219,525.142,528.594,533.077,540.448,545.397,547.818,551.736,556.662,560.114,562.535,566.454,570.372,575.314,582.218,586.701" y="686.33" svg_rhmargin="590.153" style="fill:#171615;font-family:MMHCMN+AdvOTbc475f09;font-size:8.97px;font-style:NORMAL;font-weight:normal;">literature updated to September 2018. The sample size was</text>
  <text x="345.091,347.978,352.927,356.379,359.266,364.216,368.134,371.586,377.802,381.72,386.669,391.619,396.102,401.051,406.001,409.919,414.868,421.057,425.54,430.489,435.438,441.636,449.007,453.956,457.408,461.326,467.544,472.494,476.412,478.833,481.254,485.172,489.655,494.139,499.088,501.509,505.427,511.651,515.569,520.518,525.468,529.386,531.807,536.756,540.208,542.629,547.579,552.5279999999999,558.704,566.074,570.557,575.04,581.268,586.217" y="697.271" svg_rhmargin="590.135" style="fill:#171615;font-family:MMHCMN+AdvOTbc475f09;font-size:8.97px;font-style:NORMAL;font-weight:normal;">further expanded and more believable conclusion may be</text>
  <text x="345.091,349.574,353.492,358.442,360.862,364.781,369.264,373.182,378.132,380.553,383.584,390.954,395.904,399.356,402.405,405.857,408.744,413.694,418.643,423.126,426.215,428.636,433.585,437.504,442.453,445.34" y="708.213" svg_rhmargin="447.761" style="fill:#171615;font-family:MMHCMN+AdvOTbc475f09;font-size:8.97px;font-style:NORMAL;font-weight:normal;">achieved. Our study identi</text>
  <text x="447.762" y="708.213" svg_rhmargin="452.711" style="fill:#171615;font-family:MMHCMO+AdvOTbc475f09+fb;font-size:8.97px;font-style:NORMAL;font-weight:normal;">ﬁ</text>
  <text x="452.694,456.613,461.562,464.656,469.606,474.555,477.582,481.034,483.921,488.871,493.82,496.241,500.159,503.611,506.664,511.148,516.097,521.0459999999999,524.125,527.013,531.962,535.88,538.922,541.343,546.292,548.713,551.6,554.021,558.504,560.9250000000001,563.979,568.928,573.878,578.827,581.248,585.166" y="708.213" svg_rhmargin="590.115" style="fill:#171615;font-family:MMHCMN+AdvOTbc475f09;font-size:8.97px;font-style:NORMAL;font-weight:normal;">ed 20 studies and the initial pooled</text>
  <text x="345.091,352.461,356.379,359.267,363.75,366.637,371.12,376.069,380.553,382.973,387.457,390.909,393.329,396.781,404.673,408.125,412.043,415.495,420.444,422.865,425.753,429.205,437.1,439.521,444.471,449.42,451.841,455.759,460.242,463.129,467.048,471.997,479.902,482.789,487.738,492.222,495.109,503.032,507.982,512.465,515.352,517.773,521.691,526.64,529.528,532.98,540.902,547.806,550.227,553.114,558.063,565.96,570.91,573.331,577.814,582.763,586.681" y="719.211" svg_rhmargin="590.133" style="fill:#171615;font-family:MMHCMN+AdvOTbc475f09;font-size:8.97px;font-style:NORMAL;font-weight:normal;">meta-analysis results indicated that patients with higher</text>
  <path d=" M 85.03900146484375 766.885009765625 L 590.115966796875 766.885009765625 L 590.115966796875 767.6220092773438 L 85.03900146484375 767.6220092773438 Z " style="fill:none;stroke:#000000;stroke-width:1.0;"/>
  <path d=" M 85.03900146484375 151.82400512695312 L 590.115966796875 151.82400512695312 L 590.115966796875 152.56103515625 L 85.03900146484375 152.56103515625 Z " style="fill:none;stroke:#000000;stroke-width:1.0;"/>
  <path d="M197.574 40.202 L477.58 40.202 L477.58 629.128 L197.574 629.128 " style="fill:none;stroke:#000000;stroke-width:1.0;"/>
  <rect style="stroke:blue;stroke-width:0.3;" x="197.575" y="40.202" height="588.926" width="280.019" title="5"/>
  <text x="197.575" y="40.202" class="image" id="image.5.1" width="280" height="588">image.5.1.198_478.40_629</text>
  <text svg_rhmargin="114.881" x="85.039,89.396,91.183,95.54,99.814,102.378,106.503,108.739,112.864,114.881" y="640.126" style="fill:#171615;font-family:MMHDEE+AdvOTf94803d4;font-size:7.47px;font-style:NORMAL;font-weight:normal;">Figure 2. </text>
  <text x="118.658,122.626,126.75,129.081,132.892,136.471,138.645,140.88,145.154,146.476,150.601,152.775,156.354,158.624,162.749,164.617,166.788,168.963,172.93,176.741,178.976,182.787,186.911,189.243,191.574,195.385,196.707,200.518,202.692,204.014,208.228,212.196,214.407,218.532,220.4,222.627,226.595,230.406,234.373,236.547,238.879,243.003,247.277,251.244,252.567,253.89000000000001,256.13,258.305,262.43,264.634,265.956,269.379,275.52,279.794,283.762,287.886,291.787,295.209,297.384,301.195,303.409,305.74,309.551,311.725,313.047,317.172,319.395,324.917,326.24,328.414,332.382,334.645,338.224,342.191,344.522,347.944,349.267,352.689,356.5,357.822,359.839,362.082,363.868,368.537,370.323,372.569,378.092,381.514,385.324,387.656,391.466,392.789,394.11199999999997,396.322,399.901,403.869,406.2,409.622,410.944,414.367,418.177,419.5,421.517,423.816,425.602,430.578,432.364,434.587,438.862,440.185,443.764,447.574,451.385,454.964,458.774,461.494,463.362,465.693,469.504,473.315,475.574,479.153,483.12,485.452,488.874,490.196,493.618,497.429,498.751,500.768,503.011,504.797,510.005,511.791,514.066,516.397,520.207,524.018,527.986,530.317,532.648,536.459,540.426,544.237,548.047,550.767,552.662,554.993,558.804,562.615,564.885,568.464,572.432,574.763,578.185,579.507,582.929,586.74,588.063" y="640.126" svg_rhmargin="590.08" style="fill:#171615;font-family:MMHCLI+AdvOT6e5d2ec0;font-size:7.47px;font-style:NORMAL;font-weight:normal;">Forest plots of the correlation of neutrophil to lymphocyte ratio with survival. (A) Overall survival; (B) disease-free survival; (C) recurrence-free survival.</text>
  <text x="85.039,90.435,94.667,98.732,102.964,105.562,109.627,111.946,114.633,118.698,120.108,122.26,124.894,131.445,135.51,140.069,141.48,145.544,146.955,151.187,155.252,157.831,159.736,164.136,168.535,172.935,177.334,179.239,181.868,186.267,190.667,192.819,197.218,201.617,517.041,522.931,528.821,534.711,536.863,543.414,547.973,550.874,552.285,556.685,560.917,563.3,567.532,571.597,573.008,575.16,579.224,583.624" y="9.870999999999981" svg_rhmargin="590.176" style="fill:#171615;font-family:MMHCLI+AdvOT6e5d2ec0;font-size:7.97px;font-style:NORMAL;font-weight:normal;">Duan et al. Medicine (2018) 97:49 www.md-journal.com</text>
  <text x="335.396" y="739.625" svg_rhmargin="339.796" style="fill:#171615;font-family:MMHDEE+AdvOTf94803d4;font-size:7.97px;font-style:NORMAL;font-weight:normal;">5</text>
 </g>
</svg>
