<?xml version="1.0" encoding="UTF-8"?>
<svg height="870.031005859375" width="672.0029907226562" xmlns="http://www.w3.org/2000/svg">
 <g style="fill:none;">
  <path d=" M 0.05999799817800522 826.072021484375 L 22.619997024536133 826.072021484375 L 22.619997024536133 826.35546875 L 0.05999799817800522 826.35546875 Z " style="fill:none;stroke:#000000;stroke-width:1.0;"/>
  <path d=" M 33.67599868774414 837.4110107421875 L 33.959449768066406 837.4110107421875 L 33.959449768066406 860.031005859375 L 33.67599868774414 860.031005859375 Z " style="fill:none;stroke:#000000;stroke-width:1.0;"/>
  <path d=" M 627.9869995117188 837.4110107421875 L 628.2703857421875 837.4110107421875 L 628.2703857421875 860.031005859375 L 627.9869995117188 860.031005859375 Z " style="fill:none;stroke:#000000;stroke-width:1.0;"/>
  <path d=" M 639.3259887695312 826.072021484375 L 662.0029907226562 826.072021484375 L 662.0029907226562 826.35546875 L 639.3259887695312 826.35546875 Z " style="fill:none;stroke:#000000;stroke-width:1.0;"/>
  <path d=" M 639.3259887695312 33.731998443603516 L 662.0029907226562 33.731998443603516 L 662.0029907226562 34.015480041503906 L 639.3259887695312 34.015480041503906 Z " style="fill:none;stroke:#000000;stroke-width:1.0;"/>
  <path d=" M 627.9869995117188 0.0 L 628.2703857421875 0.0 L 628.2703857421875 22.677000045776367 L 627.9869995117188 22.677000045776367 Z " style="fill:none;stroke:#000000;stroke-width:1.0;"/>
  <path d=" M 33.67599868774414 0.0 L 33.959449768066406 0.0 L 33.959449768066406 22.677000045776367 L 33.67599868774414 22.677000045776367 Z " style="fill:none;stroke:#000000;stroke-width:1.0;"/>
  <path d=" M 0.05999799817800522 33.731998443603516 L 22.619997024536133 33.731998443603516 L 22.619997024536133 34.015480041503906 L 0.05999799817800522 34.015480041503906 Z " style="fill:none;stroke:#000000;stroke-width:1.0;"/>
  <path d=" M 71.88700103759766 766.885009765625 L 576.9639892578125 766.885009765625 L 576.9639892578125 767.6220092773438 L 71.88700103759766 767.6220092773438 Z " style="fill:none;stroke:#000000;stroke-width:1.0;"/>
  <path d=" M 71.88700103759766 435.9119873046875 L 576.9639892578125 435.9119873046875 L 576.9639892578125 436.7056884765625 L 71.88700103759766 436.7056884765625 Z " style="fill:none;stroke:#000000;stroke-width:1.0;"/>
  <rect style="stroke:blue;stroke-width:0.3;" x="96.094" y="40.202" height="304.781" width="456.797" title="8"/>
  <text x="96.094" y="40.202" class="image" id="image.8.1" width="456" height="304">image.8.1.96_553.40_345</text>
  <text svg_rhmargin="307.354" x="277.172,281.528,283.315,287.672,291.946,294.51,298.635,301.211,305.337,307.354" y="355.981" style="fill:#171615;font-family:MMHDEE+AdvOTf94803d4;font-size:7.47px;font-style:NORMAL;font-weight:normal;">Figure 5. </text>
  <text x="311.073,315.743,319.554,323.521,327.1,328.423,330.597,331.92,335.342,336.664,338.839,342.261,344.803,348.613,352.581,356.391,357.714,361.136,364.715,366.037,369.616" y="355.981" svg_rhmargin="371.633" style="fill:#171615;font-family:MMHCLI+AdvOT6e5d2ec0;font-size:7.47px;font-style:NORMAL;font-weight:normal;">Sensitivity analysis.</text>
  <path d=" M 71.88700103759766 358.1289978027344 L 576.9639892578125 358.1289978027344 L 576.9639892578125 358.63922119140625 L 71.88700103759766 358.63922119140625 Z " style="fill:none;stroke:#000000;stroke-width:1.0;"/>
  <path d=" M 71.88700103759766 92.23899841308594 L 576.9639892578125 92.23899841308594 L 576.9639892578125 92.74922180175781 L 71.88700103759766 92.74922180175781 Z " style="fill:none;stroke:#000000;stroke-width:1.0;"/>
  <path d=" M 126.25499725341797 347.697998046875 L 330.8599853515625 347.697998046875 L 330.8599853515625 348.15155029296875 L 126.25499725341797 348.15155029296875 Z " style="fill:none;stroke:#000000;stroke-width:1.0;"/>
  <path d=" M 350.1919860839844 347.697998046875 L 554.7969970703125 347.697998046875 L 554.7969970703125 348.15155029296875 L 350.1919860839844 348.15155029296875 Z " style="fill:none;stroke:#000000;stroke-width:1.0;"/>
  <path d=" M 71.88700103759766 336.81298828125 L 126.2550048828125 336.81298828125 L 126.2550048828125 337.26654052734375 L 71.88700103759766 337.26654052734375 Z " style="fill:none;stroke:#000000;stroke-width:1.0;"/>
  <path d=" M 106.86599731445312 336.81298828125 L 154.65798950195312 336.81298828125 L 154.65798950195312 337.26654052734375 L 106.86599731445312 337.26654052734375 Z " style="fill:none;stroke:#000000;stroke-width:1.0;"/>
  <path d=" M 135.2689971923828 336.81298828125 L 189.0709991455078 336.81298828125 L 189.0709991455078 337.26654052734375 L 135.2689971923828 337.26654052734375 Z " style="fill:none;stroke:#000000;stroke-width:1.0;"/>
  <path d=" M 169.6820068359375 336.81298828125 L 242.02200317382812 336.81298828125 L 242.02200317382812 337.26654052734375 L 169.6820068359375 337.26654052734375 Z " style="fill:none;stroke:#000000;stroke-width:1.0;"/>
  <path d=" M 273.14599609375 336.81298828125 L 222.68899536132812 336.81298828125 L 222.68899536132812 337.2669982910156 L 273.14599609375 337.2669982910156" style="fill:none;stroke:#000000;stroke-width:1.0;"/>
  <path d=" M 253.7570037841797 336.81298828125 L 319.1239929199219 336.81298828125 L 319.1239929199219 337.26654052734375 L 253.7570037841797 337.26654052734375 Z " style="fill:none;stroke:#000000;stroke-width:1.0;"/>
  <path d=" M 299.7349853515625 336.81298828125 L 350.1919860839844 336.81298828125 L 350.1919860839844 337.26654052734375 L 299.7349853515625 337.26654052734375 Z " style="fill:none;stroke:#000000;stroke-width:1.0;"/>
  <path d=" M 330.8599853515625 336.81298828125 L 378.594970703125 336.81298828125 L 378.594970703125 337.26654052734375 L 330.8599853515625 337.26654052734375 Z " style="fill:none;stroke:#000000;stroke-width:1.0;"/>
  <path d=" M 359.20599365234375 336.81298828125 L 413.00799560546875 336.81298828125 L 413.00799560546875 337.26654052734375 L 359.20599365234375 337.26654052734375 Z " style="fill:none;stroke:#000000;stroke-width:1.0;"/>
  <path d=" M 393.67498779296875 336.81298828125 L 466.0149841308594 336.81298828125 L 466.0149841308594 337.26654052734375 L 393.67498779296875 337.26654052734375 Z " style="fill:none;stroke:#000000;stroke-width:1.0;"/>
  <path d=" M 446.62701416015625 336.81298828125 L 497.0840148925781 336.81298828125 L 497.0840148925781 337.26654052734375 L 446.62701416015625 337.26654052734375 Z " style="fill:none;stroke:#000000;stroke-width:1.0;"/>
  <path d=" M 477.6940002441406 336.81298828125 L 543.0609741210938 336.81298828125 L 543.0609741210938 337.26654052734375 L 477.6940002441406 337.26654052734375 Z " style="fill:none;stroke:#000000;stroke-width:1.0;"/>
  <path d=" M 523.72900390625 336.81298828125 L 574.1290283203125 336.81298828125 L 574.1290283203125 337.26654052734375 L 523.72900390625 337.26654052734375 Z " style="fill:none;stroke:#000000;stroke-width:1.0;"/>
  <path d=" M 71.88700103759766 371.2820129394531 L 112.98899841308594 371.2820129394531 L 112.98899841308594 383.2440185546875 L 71.88700103759766 383.2440185546875 Z " style="fill:none;stroke:#000000;stroke-width:1.0;"/>
  <path d=" M 71.88700103759766 383.1310119628906 L 576.9639892578125 383.1310119628906 L 576.9639892578125 383.5845642089844 L 71.88700103759766 383.5845642089844 Z " style="fill:none;stroke:#000000;stroke-width:1.0;"/>
  <text x="74.891,80.614,86.504,92.641,94.96,100.93799999999999,103.52" y="425.713" svg_rhmargin="109.992" style="fill:#ffffff;font-family:MMHCMJ+AdvOT91f5f621.B;font-size:7.97px;font-style:NORMAL;font-weight:normal;">Table 2</text>
  <text svg_rhmargin="143.661" x="71.887,77.027,81.674,86.488,91.302,94.37,99.184,103.831,108.64500000000001,111.23,115.789,120.435,124.994,126.987,131.052,135.284,137.276,141.509,143.66099999999997" y="449.354" style="fill:#171615;font-family:MMHCLH+AdvOT34fe1490.B;font-size:7.97px;font-style:NORMAL;font-weight:normal;">Subgroup analysis. </text>
  <text x="224.844,228.694,232.25099999999998,447.137,451.127,454.322" y="449.354" svg_rhmargin="457.879" style="fill:#171615;font-family:MMHHJO+AdvOT9d0303c0.B;font-size:6.97px;font-style:NORMAL;font-weight:normal;">OS DFS</text>
  <text svg_rhmargin="214.621" x="126.255,130.244,133.586,135.25300000000001,158.287,162.137,165.987,197.122,200.463,203.804,209.175,212.878,214.62199999999999" y="459.275" style="fill:#171615;font-family:MMHHJO+AdvOT9d0303c0.B;font-size:6.97px;font-style:NORMAL;font-weight:normal;">No. HR 95%CI </text>
  <text x="246.104,249.661,273.146" y="459.275" svg_rhmargin="274.889" style="fill:#171615;font-family:MMNFCE+AdvOT1ae6bdaa.BI;font-size:6.97px;font-style:NORMAL;font-weight:normal;">P I</text>
  <text svg_rhmargin="299.762" x="274.847,277.385,280.433,283.92,287.407,290.747,292.993,296.275,299.762" y="459.275" style="fill:#171615;font-family:MMHHJO+AdvOT9d0303c0.B;font-size:6.97px;font-style:NORMAL;font-weight:normal;">-squared </text>
  <text x="321.732" y="459.275" svg_rhmargin="325.289" style="fill:#171615;font-family:MMNFCE+AdvOT1ae6bdaa.BI;font-size:6.97px;font-style:NORMAL;font-weight:normal;">P</text>
  <text svg_rhmargin="328.191" x="325.304,328.191" y="459.276" style="fill:#171615;font-family:MMHHJO+AdvOT9d0303c0.B;font-size:4.65px;font-style:NORMAL;font-weight:normal;">H </text>
  <text svg_rhmargin="438.559" x="350.192,354.182,357.523,359.19,382.281,386.131,389.981,421.06,424.401,427.742,433.113,436.816,438.56" y="459.276" style="fill:#171615;font-family:MMHHJO+AdvOT9d0303c0.B;font-size:6.97px;font-style:NORMAL;font-weight:normal;">No. HR 95%CI </text>
  <text x="470.097,473.654,497.083" y="459.276" svg_rhmargin="498.826" style="fill:#171615;font-family:MMNFCE+AdvOT1ae6bdaa.BI;font-size:6.97px;font-style:NORMAL;font-weight:normal;">P I</text>
  <text svg_rhmargin="523.667" x="498.841,501.379,504.427,507.914,511.4,514.741,516.986,520.18,523.6669999999999" y="459.276" style="fill:#171615;font-family:MMHHJO+AdvOT9d0303c0.B;font-size:6.97px;font-style:NORMAL;font-weight:normal;">-squared </text>
  <text x="545.725" y="459.276" svg_rhmargin="549.282" style="fill:#171615;font-family:MMNFCE+AdvOT1ae6bdaa.BI;font-size:6.97px;font-style:NORMAL;font-weight:normal;">P</text>
  <text x="549.297" y="460.466" svg_rhmargin="552.184" style="fill:#171615;font-family:MMHHJO+AdvOT9d0303c0.B;font-size:4.65px;font-style:NORMAL;font-weight:normal;">H</text>
  <text x="71.887,75.443,78.344,81.392,84.439,86.106,87.989" y="471.635" svg_rhmargin="90.527" style="fill:#171615;font-family:MMHHJP+AdvOTcb6dfb9e;font-size:6.97px;font-style:NORMAL;font-weight:normal;">Country</text>
  <text x="78.86,81.907,84.808,87.493,89.16,92.061,93.944,96.992,129.089,132.43,154.657,157.998,159.664,163.005,166.345,169.686,189.069,192.409,194.076,197.416,200.757" y="479.629" svg_rhmargin="204.097" style="fill:#171615;font-family:MMHHJP+AdvOTcb6dfb9e;font-size:6.97px;font-style:NORMAL;font-weight:normal;">Eastern 5 3.083 2.195</text>
  <text x="204.151" y="479.629" svg_rhmargin="207.638" style="fill:#171615;font-family:MMHHKA+AdvOTcb6dfb9e+20;font-size:6.97px;font-style:NORMAL;font-weight:normal;">–</text>
  <text x="207.609,210.95,212.616,215.957,219.297,222.638,242.021,243.688,247.028,250.368,253.709,278.077,281.417,284.758,286.424,289.765,294.772,319.121,320.788,324.128,327.469,330.81,353.023,356.36400000000003,378.592,381.932,383.599,386.939,390.28,393.621,413.003,416.344,418.01,421.351,424.691" y="479.629" svg_rhmargin="428.031" style="fill:#171615;font-family:MMHHJP+AdvOTcb6dfb9e;font-size:6.97px;font-style:NORMAL;font-weight:normal;">4.330 .000 12.5% .334 9 1.844 1.378</text>
  <text x="428.088" y="479.629" svg_rhmargin="431.575" style="fill:#171615;font-family:MMHHKA+AdvOTcb6dfb9e+20;font-size:6.97px;font-style:NORMAL;font-weight:normal;">–</text>
  <text x="431.546,434.887,436.554,439.894,443.234,446.575,466.014,467.681,471.022,474.362,477.70300000000003,502.014,505.354,508.695,510.362,513.702,518.709,543.058,544.725,548.065,551.406" y="479.629" svg_rhmargin="554.746" style="fill:#171615;font-family:MMHHJP+AdvOTcb6dfb9e;font-size:6.97px;font-style:NORMAL;font-weight:normal;">2.467 .000 77.5% .000</text>
  <text x="78.86,83.867,86.768,89.453,91.12,94.021,95.904,98.952,129.088,132.429,154.657,157.997,159.664,163.004,166.345,169.686,189.068,192.409,194.075,197.416,200.756" y="487.622" svg_rhmargin="204.096" style="fill:#171615;font-family:MMHHJP+AdvOTcb6dfb9e;font-size:6.97px;font-style:NORMAL;font-weight:normal;">Western 7 1.909 1.110</text>
  <text x="204.151" y="487.622" svg_rhmargin="207.638" style="fill:#171615;font-family:MMHHKA+AdvOTcb6dfb9e+20;font-size:6.97px;font-style:NORMAL;font-weight:normal;">–</text>
  <text x="207.609,210.95,212.616,215.957,219.297,222.638,242.021,243.688,247.028,250.368,253.709,278.077,281.417,284.758,286.424,289.765,294.772,319.121,320.788,324.128,327.469,330.81,353.023,356.36400000000003,378.592,381.932,383.599,386.939,390.28,393.621,413.003,416.344,418.01,421.351,424.691" y="487.622" svg_rhmargin="428.031" style="fill:#171615;font-family:MMHHJP+AdvOTcb6dfb9e;font-size:6.97px;font-style:NORMAL;font-weight:normal;">3.084 .019 62.9% .013 6 1.256 0.874</text>
  <text x="428.088" y="487.622" svg_rhmargin="431.575" style="fill:#171615;font-family:MMHHKA+AdvOTcb6dfb9e+20;font-size:6.97px;font-style:NORMAL;font-weight:normal;">–</text>
  <text x="431.546,434.887,436.554,439.894,443.234,446.575,466.014,467.681,471.022,474.362,477.70300000000003,502.014,505.354,508.695,510.362,513.702,518.709,543.058,544.725,548.065,551.406" y="487.622" svg_rhmargin="554.746" style="fill:#171615;font-family:MMHHJP+AdvOTcb6dfb9e;font-size:6.97px;font-style:NORMAL;font-weight:normal;">1.805 .219 76.0% .001</text>
  <text x="71.887,75.227,78.128,82.849,85.897,87.131,90.032,92.408,95.093,96.327,98.719" y="495.559" svg_rhmargin="101.62" style="fill:#171615;font-family:MMHHJP+AdvOTcb6dfb9e;font-size:6.97px;font-style:NORMAL;font-weight:normal;">Sample size</text>
  <text x="78.86" y="503.553" svg_rhmargin="84.23" style="fill:#171615;font-family:MMHDGH+AdvP4C4E51;font-size:6.97px;font-style:NORMAL;font-weight:normal;">&lt;</text>
  <text x="84.246,87.586,90.926,94.267,129.089,132.43,154.658,157.998,159.665,163.006,166.346,169.687,189.069,192.41,194.077,197.417,200.758" y="503.553" svg_rhmargin="204.098" style="fill:#171615;font-family:MMHHJP+AdvOTcb6dfb9e;font-size:6.97px;font-style:NORMAL;font-weight:normal;">400 6 3.491 1.757</text>
  <text x="204.151" y="503.553" svg_rhmargin="207.638" style="fill:#171615;font-family:MMHHKA+AdvOTcb6dfb9e+20;font-size:6.97px;font-style:NORMAL;font-weight:normal;">–</text>
  <text x="207.609,210.95,212.616,215.957,219.297,222.638,242.021,243.688,247.028,250.368,253.709,278.077,281.417,284.758,286.424,289.765,294.772,319.121,320.788,324.128,327.469,330.81,353.023,356.36400000000003,378.592,381.932,383.599,386.939,390.28,393.621,413.003,416.344,418.01,421.351,424.691" y="503.553" svg_rhmargin="428.031" style="fill:#171615;font-family:MMHHJP+AdvOTcb6dfb9e;font-size:6.97px;font-style:NORMAL;font-weight:normal;">6.936 .000 41.2% .130 7 1.726 1.013</text>
  <text x="428.088" y="503.553" svg_rhmargin="431.575" style="fill:#171615;font-family:MMHHKA+AdvOTcb6dfb9e+20;font-size:6.97px;font-style:NORMAL;font-weight:normal;">–</text>
  <text x="431.546,434.887,436.554,439.894,443.234,446.575,466.014,467.681,471.022,474.362,477.70300000000003,502.014,505.354,508.695,510.362,513.702,518.709,543.058,544.725,548.065,551.406" y="503.553" svg_rhmargin="554.746" style="fill:#171615;font-family:MMHHJP+AdvOTcb6dfb9e;font-size:6.97px;font-style:NORMAL;font-weight:normal;">2.941 .045 73.3% .001</text>
  <text x="78.86" y="511.49" svg_rhmargin="83.581" style="fill:#171615;font-family:MMHCMI+AdvOTb0c9bf5d+22;font-size:6.97px;font-style:NORMAL;font-weight:normal;">≥</text>
  <text x="83.622,86.963,90.303,93.64399999999999,129.089,132.43,154.658,157.998,159.665,163.006,166.346,169.687,189.069,192.41,194.077,197.417,200.758" y="511.49" svg_rhmargin="204.098" style="fill:#171615;font-family:MMHHJP+AdvOTcb6dfb9e;font-size:6.97px;font-style:NORMAL;font-weight:normal;">400 6 2.052 1.329</text>
  <text x="204.152" y="511.49" svg_rhmargin="207.639" style="fill:#171615;font-family:MMHHKA+AdvOTcb6dfb9e+20;font-size:6.97px;font-style:NORMAL;font-weight:normal;">–</text>
  <text x="207.61,210.95,212.617,215.958,219.298,222.639,242.022,243.688,247.029,250.369,253.71,278.077,281.418,284.758,286.425,289.766,294.773,319.122,320.789,324.129,327.469,330.81,353.024,356.365,378.592,381.933,383.6,386.94,390.28,393.621,413.004,416.344,418.011,421.352,424.692" y="511.49" svg_rhmargin="428.032" style="fill:#171615;font-family:MMHHJP+AdvOTcb6dfb9e;font-size:6.97px;font-style:NORMAL;font-weight:normal;">3.169 .001 69.8% .005 8 1.565 1.208</text>
  <text x="428.089" y="511.49" svg_rhmargin="431.576" style="fill:#171615;font-family:MMHHKA+AdvOTcb6dfb9e+20;font-size:6.97px;font-style:NORMAL;font-weight:normal;">–</text>
  <text x="431.547,434.888,436.554,439.895,443.235,446.576,466.015,467.682,471.022,474.363,477.704,502.015,505.355,508.695,510.362,513.703,518.7099999999999,543.059,544.726,548.066,551.406" y="511.49" svg_rhmargin="554.746" style="fill:#171615;font-family:MMHHJP+AdvOTcb6dfb9e;font-size:6.97px;font-style:NORMAL;font-weight:normal;">2.027 .001 80.6% .000</text>
  <text x="71.887,75.228,78.275,81.323,82.557,83.792,86.623,89.524,91.191,92.425,95.413,98.461,100.742,103.28,106.182,109.083" y="519.4839999999999" svg_rhmargin="110.966" style="fill:#171615;font-family:MMHHJP+AdvOTcb6dfb9e;font-size:6.97px;font-style:NORMAL;font-weight:normal;">Publication year</text>
  <text x="78.86" y="527.477" svg_rhmargin="84.23" style="fill:#171615;font-family:MMHDGF+AdvP4C4E74;font-size:6.97px;font-style:NORMAL;font-weight:normal;">?</text>
  <text x="84.246,87.587,90.927,94.268,97.609,129.089,132.43,154.658,157.998,159.665,163.006,166.346,169.687,189.069,192.41,194.077,197.417,200.758" y="527.477" svg_rhmargin="204.098" style="fill:#171615;font-family:MMHHJP+AdvOTcb6dfb9e;font-size:6.97px;font-style:NORMAL;font-weight:normal;">2016 9 2.633 1.594</text>
  <text x="204.152" y="527.477" svg_rhmargin="207.639" style="fill:#171615;font-family:MMHHKA+AdvOTcb6dfb9e+20;font-size:6.97px;font-style:NORMAL;font-weight:normal;">–</text>
  <text x="207.61,210.95,212.617,215.958,219.298,222.639,242.021,243.688,247.029,250.369,253.71,278.077,281.418,284.758,286.425,289.766,294.773,319.122,320.789,324.129,327.469,330.81,353.024,356.365,378.592,381.933,383.599,386.94,390.28,393.621,413.004,416.344,418.011,421.351,424.692" y="527.477" svg_rhmargin="428.032" style="fill:#171615;font-family:MMHHJP+AdvOTcb6dfb9e;font-size:6.97px;font-style:NORMAL;font-weight:normal;">4.351 .000 65.7% .003 7 1.525 1.077</text>
  <text x="428.089" y="527.477" svg_rhmargin="431.576" style="fill:#171615;font-family:MMHHKA+AdvOTcb6dfb9e+20;font-size:6.97px;font-style:NORMAL;font-weight:normal;">–</text>
  <text x="431.547,434.888,436.554,439.895,443.235,446.576,466.015,467.682,471.022,474.363,477.704,502.015,505.355,508.695,510.362,513.703,518.7099999999999,543.059,544.726,548.066,551.406" y="527.477" svg_rhmargin="554.746" style="fill:#171615;font-family:MMHHJP+AdvOTcb6dfb9e;font-size:6.97px;font-style:NORMAL;font-weight:normal;">2.160 .018 78.2% .000</text>
  <text x="78.86" y="535.414" svg_rhmargin="84.23" style="fill:#171615;font-family:MMHDGH+AdvP4C4E51;font-size:6.97px;font-style:NORMAL;font-weight:normal;">&gt;</text>
  <text x="84.246,87.587,90.927,94.268,97.609,129.089,132.43,154.658,157.998,159.665,163.006,166.346,169.687,189.069,192.41,194.077,197.417,200.758" y="535.414" svg_rhmargin="204.098" style="fill:#171615;font-family:MMHHJP+AdvOTcb6dfb9e;font-size:6.97px;font-style:NORMAL;font-weight:normal;">2016 3 2.419 1.371</text>
  <text x="204.152" y="535.414" svg_rhmargin="207.639" style="fill:#171615;font-family:MMHHKA+AdvOTcb6dfb9e+20;font-size:6.97px;font-style:NORMAL;font-weight:normal;">–</text>
  <text x="207.61,210.95,212.617,215.958,219.298,222.639,242.021,243.688,247.029,250.369,253.71,278.077,281.418,284.758,286.425,289.766,294.773,319.122,320.789,324.129,327.469,330.81,353.024,356.365,378.592,381.933,383.599,386.94,390.28,393.621,413.004,416.344,418.011,421.351,424.692" y="535.414" svg_rhmargin="428.032" style="fill:#171615;font-family:MMHHJP+AdvOTcb6dfb9e;font-size:6.97px;font-style:NORMAL;font-weight:normal;">4.267 .002 37.1% .204 9 1.661 1.203</text>
  <text x="428.089" y="535.414" svg_rhmargin="431.576" style="fill:#171615;font-family:MMHHKA+AdvOTcb6dfb9e+20;font-size:6.97px;font-style:NORMAL;font-weight:normal;">–</text>
  <text x="431.547,434.888,436.554,439.895,443.235,446.576,466.015,467.682,471.022,474.363,477.704,502.015,505.355,508.695,510.362,513.703,518.7099999999999,543.059,544.726,548.066,551.406" y="535.414" svg_rhmargin="554.746" style="fill:#171615;font-family:MMHHJP+AdvOTcb6dfb9e;font-size:6.97px;font-style:NORMAL;font-weight:normal;">2.293 .002 79.8% .000</text>
  <text x="71.887,75.59,78.491,81.978,84.303,87.134,90.182,91.848,94.166,97.068,98.734" y="543.408" svg_rhmargin="100.401" style="fill:#171615;font-family:MMHHJP+AdvOTcb6dfb9e;font-size:6.97px;font-style:NORMAL;font-weight:normal;">NLR cut-off</text>
  <text x="78.86,82.563,85.464,129.09,132.431,154.659,157.999,159.666,163.006,166.347,169.68800000000002,189.07,192.411,194.077,197.418,200.758" y="551.345" svg_rhmargin="204.098" style="fill:#171615;font-family:MMHHJP+AdvOTcb6dfb9e;font-size:6.97px;font-style:NORMAL;font-weight:normal;">No 2 1.711 0.296</text>
  <text x="204.152" y="551.345" svg_rhmargin="207.639" style="fill:#171615;font-family:MMHHKA+AdvOTcb6dfb9e+20;font-size:6.97px;font-style:NORMAL;font-weight:normal;">–</text>
  <text x="207.61,210.95,212.617,215.958,219.298,222.639,242.021,243.688,247.029,250.369,253.71,278.077,281.418,284.758,286.425,289.766,294.773,319.122,320.789,324.129,327.469,330.81,353.024,356.365,378.592,381.933,383.599,386.94,390.28,393.621,413.004,416.344,418.011,421.351,424.692" y="551.345" svg_rhmargin="428.032" style="fill:#171615;font-family:MMHHJP+AdvOTcb6dfb9e;font-size:6.97px;font-style:NORMAL;font-weight:normal;">9.879 .548 72.1% .058 4 1.135 0.947</text>
  <text x="428.089" y="551.345" svg_rhmargin="431.576" style="fill:#171615;font-family:MMHHKA+AdvOTcb6dfb9e+20;font-size:6.97px;font-style:NORMAL;font-weight:normal;">–</text>
  <text x="431.547,434.887,436.554,439.895,443.235,446.576,466.015,467.682,471.022,474.363,477.704,502.015,505.355,508.695,510.362,513.703,518.7099999999999,543.059,544.726,548.066,551.406" y="551.345" svg_rhmargin="554.746" style="fill:#171615;font-family:MMHHJP+AdvOTcb6dfb9e;font-size:6.97px;font-style:NORMAL;font-weight:normal;">1.359 .170 82.1% .001</text>
  <text x="78.86" y="559.338" svg_rhmargin="84.23" style="fill:#171615;font-family:MMHDGH+AdvP4C4E51;font-size:6.97px;font-style:NORMAL;font-weight:normal;">&lt;</text>
  <text x="84.246,87.58699999999999,129.091,132.43200000000002,154.659,158.0,159.666,163.007,166.347,169.68800000000002,189.071,192.411,194.078,197.418,200.759" y="559.338" svg_rhmargin="204.099" style="fill:#171615;font-family:MMHHJP+AdvOTcb6dfb9e;font-size:6.97px;font-style:NORMAL;font-weight:normal;">3 4 3.143 1.893</text>
  <text x="204.152" y="559.338" svg_rhmargin="207.639" style="fill:#171615;font-family:MMHHKA+AdvOTcb6dfb9e+20;font-size:6.97px;font-style:NORMAL;font-weight:normal;">–</text>
  <text x="207.61,210.95,212.617,215.958,219.298,222.639,242.021,243.688,247.029,250.369,253.71,278.077,281.418,284.758,286.425,289.766,294.773,319.122,320.788,324.129,327.469,330.81,353.023,356.36400000000003,378.592,381.933,383.599,386.94,390.28,393.621,413.004,416.344,418.011,421.351,424.692" y="559.338" svg_rhmargin="428.032" style="fill:#171615;font-family:MMHHJP+AdvOTcb6dfb9e;font-size:6.97px;font-style:NORMAL;font-weight:normal;">5.216 .000 29.6% .235 6 2.085 1.739</text>
  <text x="428.089" y="559.338" svg_rhmargin="431.576" style="fill:#171615;font-family:MMHHKA+AdvOTcb6dfb9e+20;font-size:6.97px;font-style:NORMAL;font-weight:normal;">–</text>
  <text x="431.547,434.887,436.554,439.895,443.235,446.576,466.015,467.682,471.022,474.363,477.704,503.715,507.056,508.723,512.063,517.0699999999999,543.06,544.726,548.067,551.407" y="559.338" svg_rhmargin="554.747" style="fill:#171615;font-family:MMHHJP+AdvOTcb6dfb9e;font-size:6.97px;font-style:NORMAL;font-weight:normal;">2.501 .000 0.0% .551</text>
  <text x="78.86" y="567.275" svg_rhmargin="83.581" style="fill:#171615;font-family:MMHCMI+AdvOTb0c9bf5d+22;font-size:6.97px;font-style:NORMAL;font-weight:normal;">≥</text>
  <text x="83.623,86.964,129.09,132.431,154.659,158.0,159.666,163.007,166.347,169.68800000000002,189.071,192.411,194.078,197.418,200.759" y="567.275" svg_rhmargin="204.099" style="fill:#171615;font-family:MMHHJP+AdvOTcb6dfb9e;font-size:6.97px;font-style:NORMAL;font-weight:normal;">3 6 2.146 1.224</text>
  <text x="204.152" y="567.275" svg_rhmargin="207.639" style="fill:#171615;font-family:MMHHKA+AdvOTcb6dfb9e+20;font-size:6.97px;font-style:NORMAL;font-weight:normal;">–</text>
  <text x="207.611,210.951,212.618,215.958,219.299,222.64000000000001,242.022,243.689,247.029,250.37,253.711,278.078,281.419,284.759,286.426,289.766,294.773,319.122,320.789,324.13,327.47,330.81100000000004,353.024,356.365,378.593,381.933,383.6,386.941,390.281,393.622,413.004,416.345,418.012,421.352,424.693" y="567.275" svg_rhmargin="428.033" style="fill:#171615;font-family:MMHHJP+AdvOTcb6dfb9e;font-size:6.97px;font-style:NORMAL;font-weight:normal;">3.764 .008 67.3% .009 5 1.532 1.016</text>
  <text x="428.089" y="567.275" svg_rhmargin="431.576" style="fill:#171615;font-family:MMHHKA+AdvOTcb6dfb9e+20;font-size:6.97px;font-style:NORMAL;font-weight:normal;">–</text>
  <text x="431.548,434.888,436.555,439.895,443.236,446.577,466.016,467.682,471.023,474.363,477.704,502.015,505.356,508.696,510.363,513.703,518.7099999999999,543.059,544.726,548.067,551.407" y="567.275" svg_rhmargin="554.747" style="fill:#171615;font-family:MMHHJP+AdvOTcb6dfb9e;font-size:6.97px;font-style:NORMAL;font-weight:normal;">2.311 .042 61.9% .033</text>
  <text x="71.888,75.228,76.895,79.796,82.844" y="575.269" svg_rhmargin="85.745" style="fill:#171615;font-family:MMHHJP+AdvOTcb6dfb9e;font-size:6.97px;font-style:NORMAL;font-weight:normal;">Stage</text>
  <text x="78.861" y="583.262" svg_rhmargin="84.231" style="fill:#171615;font-family:MMHDGF+AdvP4C4E74;font-size:6.97px;font-style:NORMAL;font-weight:normal;">?</text>
  <text x="84.247,85.481,86.716,87.94999999999999,129.09,132.431,154.659,158.0,159.666,163.007,166.347,169.68800000000002,189.071,192.411,194.078,197.418,200.759" y="583.262" svg_rhmargin="204.099" style="fill:#171615;font-family:MMHHJP+AdvOTcb6dfb9e;font-size:6.97px;font-style:NORMAL;font-weight:normal;">III 8 2.262 1.329</text>
  <text x="204.152" y="583.262" svg_rhmargin="207.639" style="fill:#171615;font-family:MMHHKA+AdvOTcb6dfb9e+20;font-size:6.97px;font-style:NORMAL;font-weight:normal;">–</text>
  <text x="207.611,210.951,212.618,215.958,219.299,222.64000000000001,242.022,243.689,247.029,250.37,253.711,278.078,281.418,284.759,286.426,289.766,294.773,319.122,320.789,324.13,327.47,330.81100000000004,353.024,356.365,378.593,381.933,383.6,386.941,390.281,393.622,413.004,416.345,418.012,421.352,424.693" y="583.262" svg_rhmargin="428.033" style="fill:#171615;font-family:MMHHJP+AdvOTcb6dfb9e;font-size:6.97px;font-style:NORMAL;font-weight:normal;">3.848 .003 66.4% .004 9 1.698 1.232</text>
  <text x="428.089" y="583.262" svg_rhmargin="431.576" style="fill:#171615;font-family:MMHHKA+AdvOTcb6dfb9e+20;font-size:6.97px;font-style:NORMAL;font-weight:normal;">–</text>
  <text x="431.548,434.888,436.555,439.895,443.236,446.577,466.016,467.682,471.023,474.363,477.704,502.015,505.356,508.696,510.363,513.703,518.7099999999999,543.059,544.726,548.067,551.407" y="583.262" svg_rhmargin="554.747" style="fill:#171615;font-family:MMHHJP+AdvOTcb6dfb9e;font-size:6.97px;font-style:NORMAL;font-weight:normal;">2.341 .001 64.5% .004</text>
  <text x="78.861,82.348,83.582,84.81599999999999,129.09,132.431,154.659,158.0,159.666,163.007,166.347,169.68800000000002,189.071,192.411,194.078,197.418,200.759" y="591.1990000000001" svg_rhmargin="204.099" style="fill:#171615;font-family:MMHHJP+AdvOTcb6dfb9e;font-size:6.97px;font-style:NORMAL;font-weight:normal;">All 3 3.568 1.363</text>
  <text x="204.152" y="591.1990000000001" svg_rhmargin="207.639" style="fill:#171615;font-family:MMHHKA+AdvOTcb6dfb9e+20;font-size:6.97px;font-style:NORMAL;font-weight:normal;">–</text>
  <text x="207.611,210.951,212.618,215.958,219.299,222.64000000000001,242.022,243.689,247.029,250.37,253.711,278.078,281.418,284.759,286.426,289.766,294.773,319.122,320.789,324.13,327.47,330.81100000000004,353.024,356.365,378.593,381.933,383.6,386.941,390.281,393.622,413.004,416.345,418.012,421.352,424.693" y="591.1990000000001" svg_rhmargin="428.033" style="fill:#171615;font-family:MMHHJP+AdvOTcb6dfb9e;font-size:6.97px;font-style:NORMAL;font-weight:normal;">9.342 .010 71.8% .029 2 1.230 1.042</text>
  <text x="428.089" y="591.1990000000001" svg_rhmargin="431.576" style="fill:#171615;font-family:MMHHKA+AdvOTcb6dfb9e+20;font-size:6.97px;font-style:NORMAL;font-weight:normal;">–</text>
  <text x="431.548,434.888,436.555,439.895,443.236,446.577,466.016,467.682,471.023,474.363,477.704,502.015,505.356,508.696,510.363,513.703,518.7099999999999,543.059,544.726,548.067,551.407" y="591.1990000000001" svg_rhmargin="554.747" style="fill:#171615;font-family:MMHHJP+AdvOTcb6dfb9e;font-size:6.97px;font-style:NORMAL;font-weight:normal;">1.452 .014 30.5% .230</text>
  <text x="78.861,82.348,85.395,88.227,89.461,92.362,95.263,97.146,129.089,132.43,154.658,157.998,159.665,163.005,166.346,169.687,189.069,192.41,194.077,197.417,200.757" y="599.193" svg_rhmargin="204.097" style="fill:#171615;font-family:MMHHJP+AdvOTcb6dfb9e;font-size:6.97px;font-style:NORMAL;font-weight:normal;">Unclear 1 2.350 1.019</text>
  <text x="204.152" y="599.193" svg_rhmargin="207.639" style="fill:#171615;font-family:MMHHKA+AdvOTcb6dfb9e+20;font-size:6.97px;font-style:NORMAL;font-weight:normal;">–</text>
  <text svg_rhmargin="253.71" x="207.611,210.951,212.618,215.958,219.299,222.64000000000001,242.022,243.689,247.029,250.37,253.711" y="599.193" style="fill:#171615;font-family:MMHHJP+AdvOTcb6dfb9e;font-size:6.97px;font-style:NORMAL;font-weight:normal;">5.422 .045 </text>
  <text svg_rhmargin="328.481" x="282.956,289.93,321.507,328.481" y="599.193" style="fill:#171615;font-family:MMHHKA+AdvOTcb6dfb9e+20;font-size:6.97px;font-style:NORMAL;font-weight:normal;">— — </text>
  <text x="353.028,356.369,378.597,381.937,383.604,386.945,390.285,393.62600000000003,413.009,416.349,418.016,421.356,424.697" y="599.193" svg_rhmargin="428.037" style="fill:#171615;font-family:MMHHJP+AdvOTcb6dfb9e;font-size:6.97px;font-style:NORMAL;font-weight:normal;">4 1.745 0.958</text>
  <text x="428.09" y="599.193" svg_rhmargin="431.577" style="fill:#171615;font-family:MMHHKA+AdvOTcb6dfb9e+20;font-size:6.97px;font-style:NORMAL;font-weight:normal;">–</text>
  <text x="431.548,434.889,436.556,439.896,443.236,446.577,466.016,467.683,471.024,474.364,477.705,502.016,505.356,508.697,510.364,513.704,518.7109999999999,543.06,544.727,548.067,551.408" y="599.193" svg_rhmargin="554.748" style="fill:#171615;font-family:MMHHJP+AdvOTcb6dfb9e;font-size:6.97px;font-style:NORMAL;font-weight:normal;">3.178 .069 78.5% .003</text>
  <text x="71.889,74.79,77.691,78.925,80.159,83.061,87.126,89.372,92.419" y="607.129" svg_rhmargin="95.467" style="fill:#171615;font-family:MMHHJP+AdvOTcb6dfb9e;font-size:6.97px;font-style:NORMAL;font-weight:normal;">Follow-up</text>
  <text x="78.862" y="615.123" svg_rhmargin="84.232" style="fill:#171615;font-family:MMHDGH+AdvP4C4E51;font-size:6.97px;font-style:NORMAL;font-weight:normal;">&lt;</text>
  <text x="84.248,87.588,90.92899999999999,129.091,132.43200000000002,154.66,158.0,159.667,163.008,166.348,169.68900000000002,189.071,192.412,194.079,197.419,200.76" y="615.123" svg_rhmargin="204.1" style="fill:#171615;font-family:MMHHJP+AdvOTcb6dfb9e;font-size:6.97px;font-style:NORMAL;font-weight:normal;">50 5 2.818 1.344</text>
  <text x="204.153" y="615.123" svg_rhmargin="207.64" style="fill:#171615;font-family:MMHHKA+AdvOTcb6dfb9e+20;font-size:6.97px;font-style:NORMAL;font-weight:normal;">–</text>
  <text x="207.611,210.952,212.618,215.959,219.299,222.64000000000001,242.023,243.69,247.03,250.37,253.711,278.079,281.419,284.76,286.426,289.767,294.774,319.123,320.79,324.13,327.471,330.812,353.025,356.366,378.594,381.934,383.601,386.941,390.282,393.623,413.005,416.346,418.012,421.353,424.693" y="615.123" svg_rhmargin="428.033" style="fill:#171615;font-family:MMHHJP+AdvOTcb6dfb9e;font-size:6.97px;font-style:NORMAL;font-weight:normal;">5.908 .006 61.1% .036 3 1.280 0.648</text>
  <text x="428.09" y="615.123" svg_rhmargin="431.577" style="fill:#171615;font-family:MMHHKA+AdvOTcb6dfb9e+20;font-size:6.97px;font-style:NORMAL;font-weight:normal;">–</text>
  <text x="431.548,434.889,436.556,439.896,443.236,446.577,466.016,467.683,471.024,474.364,477.705,502.016,505.356,508.697,510.363,513.704,518.7109999999999,543.06,544.727,548.067,551.408" y="615.123" svg_rhmargin="554.748" style="fill:#171615;font-family:MMHHJP+AdvOTcb6dfb9e;font-size:6.97px;font-style:NORMAL;font-weight:normal;">2.528 .477 53.8% .115</text>
  <text x="78.862" y="623.117" svg_rhmargin="84.232" style="fill:#171615;font-family:MMHDGH+AdvP4C4E51;font-size:6.97px;font-style:NORMAL;font-weight:normal;">&gt;</text>
  <text x="84.247,87.588,90.92899999999999,129.091,132.43200000000002,154.66,158.0,159.667,163.008,166.348,169.68900000000002,189.071,192.412,194.079,197.419,200.759" y="623.117" svg_rhmargin="204.099" style="fill:#171615;font-family:MMHHJP+AdvOTcb6dfb9e;font-size:6.97px;font-style:NORMAL;font-weight:normal;">50 5 2.183 1.116</text>
  <text x="204.153" y="623.117" svg_rhmargin="207.64" style="fill:#171615;font-family:MMHHKA+AdvOTcb6dfb9e+20;font-size:6.97px;font-style:NORMAL;font-weight:normal;">–</text>
  <text x="207.611,210.952,212.618,215.959,219.299,222.64000000000001,242.023,243.689,247.03,250.37,253.711,278.079,281.419,284.76,286.426,289.767,294.774,319.123,320.79,324.13,327.471,330.812,351.38,354.721,358.062,378.593,381.933,383.6,386.94,390.281,393.622,413.004,416.345,418.012,421.352,424.692" y="623.117" svg_rhmargin="428.032" style="fill:#171615;font-family:MMHHJP+AdvOTcb6dfb9e;font-size:6.97px;font-style:NORMAL;font-weight:normal;">4.270 .023 76.2% .002 10 1.511 1.226</text>
  <text x="428.09" y="623.117" svg_rhmargin="431.577" style="fill:#171615;font-family:MMHHKA+AdvOTcb6dfb9e+20;font-size:6.97px;font-style:NORMAL;font-weight:normal;">–</text>
  <text x="431.548,434.889,436.556,439.896,443.236,446.577,466.016,467.683,471.024,474.364,477.705,502.016,505.356,508.697,510.363,513.704,518.7109999999999,543.06,544.727,548.067,551.408" y="623.117" svg_rhmargin="554.748" style="fill:#171615;font-family:MMHHJP+AdvOTcb6dfb9e;font-size:6.97px;font-style:NORMAL;font-weight:normal;">1.862 .000 87.5% .000</text>
  <text x="78.862,82.349,85.396,88.227,89.462,92.363,95.264,97.14699999999999,129.09,132.431,154.658,157.999,159.666,163.006,166.347,169.68800000000002,189.07,192.41,194.077,197.418,200.758" y="631.054" svg_rhmargin="204.098" style="fill:#171615;font-family:MMHHJP+AdvOTcb6dfb9e;font-size:6.97px;font-style:NORMAL;font-weight:normal;">Unclear 2 3.022 1.559</text>
  <text x="204.153" y="631.054" svg_rhmargin="207.64" style="fill:#171615;font-family:MMHHKA+AdvOTcb6dfb9e+20;font-size:6.97px;font-style:NORMAL;font-weight:normal;">–</text>
  <text x="207.611,210.952,212.618,215.959,219.299,222.64000000000001,242.023,243.689,247.03,250.37,253.711,279.722,283.063,284.73,288.07,293.077,319.123,320.79,324.13,327.471,330.812,353.025,356.366,378.594,381.934,383.601,386.941,390.282,393.623,413.005,416.346,418.012,421.353,424.693" y="631.054" svg_rhmargin="428.033" style="fill:#171615;font-family:MMHHJP+AdvOTcb6dfb9e;font-size:6.97px;font-style:NORMAL;font-weight:normal;">5.860 .001 0.0% .888 2 2.759 0.913</text>
  <text x="428.09" y="631.054" svg_rhmargin="431.577" style="fill:#171615;font-family:MMHHKA+AdvOTcb6dfb9e+20;font-size:6.97px;font-style:NORMAL;font-weight:normal;">–</text>
  <text x="431.548,434.889,436.556,439.896,443.236,446.577,466.016,467.683,471.024,474.364,477.705,502.016,505.356,508.697,510.363,513.704,518.7109999999999,543.06,544.727,548.067,551.408" y="631.054" svg_rhmargin="554.748" style="fill:#171615;font-family:MMHHJP+AdvOTcb6dfb9e;font-size:6.97px;font-style:NORMAL;font-weight:normal;">8.342 .072 60.0% .114</text>
  <text x="71.889,75.375,78.423,81.324,82.558,85.097,87.782,89.016" y="639.047" svg_rhmargin="91.701" style="fill:#171615;font-family:MMHHJP+AdvOTcb6dfb9e;font-size:6.97px;font-style:NORMAL;font-weight:normal;">Analysis</text>
  <text x="78.862,82.349,85.396,86.63,89.169,92.07,93.953,95.187,98.088,99.755,102.65599999999999,129.09,132.431,154.658,157.999,159.666,163.006,166.347,169.68800000000002,189.07,192.41,194.077,197.418,200.758" y="646.984" svg_rhmargin="204.098" style="fill:#171615;font-family:MMHHJP+AdvOTcb6dfb9e;font-size:6.97px;font-style:NORMAL;font-weight:normal;">Univariate 2 1.527 0.279</text>
  <text x="204.153" y="646.984" svg_rhmargin="207.64" style="fill:#171615;font-family:MMHHKA+AdvOTcb6dfb9e+20;font-size:6.97px;font-style:NORMAL;font-weight:normal;">–</text>
  <text x="207.611,210.952,212.618,215.959,219.299,222.64000000000001,242.023,243.689,247.03,250.37,253.711,278.079,281.419,284.76,286.426,289.767,294.774,319.123,320.79,324.13,327.471,330.812,353.025,356.366,378.594,381.934,383.601,386.941,390.282,393.623,413.005,416.346,418.012,421.353,424.693" y="646.984" svg_rhmargin="428.033" style="fill:#171615;font-family:MMHHJP+AdvOTcb6dfb9e;font-size:6.97px;font-style:NORMAL;font-weight:normal;">8.344 .625 82.7% .016 3 1.131 0.807</text>
  <text x="428.09" y="646.984" svg_rhmargin="431.577" style="fill:#171615;font-family:MMHHKA+AdvOTcb6dfb9e+20;font-size:6.97px;font-style:NORMAL;font-weight:normal;">–</text>
  <text x="431.548,434.889,436.556,439.896,443.236,446.577,466.016,467.683,471.024,474.364,477.705,502.016,505.356,508.697,510.363,513.704,518.7109999999999,543.06,544.727,548.067,551.408" y="646.984" svg_rhmargin="554.748" style="fill:#171615;font-family:MMHHJP+AdvOTcb6dfb9e;font-size:6.97px;font-style:NORMAL;font-weight:normal;">1.586 .474 50.1% .135</text>
  <text x="78.862,83.583,86.63,87.865,89.532,90.766,93.374,96.275,98.158,99.392,102.294,103.96,106.86099999999999,127.389,130.729,134.07000000000002,154.658,157.998,159.665,163.005,166.346,169.687,189.069,192.41,194.076,197.417,200.757" y="654.977" svg_rhmargin="204.097" style="fill:#171615;font-family:MMHHJP+AdvOTcb6dfb9e;font-size:6.97px;font-style:NORMAL;font-weight:normal;">Multivariate 10 2.664 1.690</text>
  <text x="204.153" y="654.977" svg_rhmargin="207.64" style="fill:#171615;font-family:MMHHKA+AdvOTcb6dfb9e+20;font-size:6.97px;font-style:NORMAL;font-weight:normal;">–</text>
  <text x="207.611,210.952,212.618,215.959,219.299,222.64000000000001,242.023,243.689,247.03,250.37,253.711,278.079,281.419,284.76,286.426,289.767,294.774,319.123,320.79,324.13,327.471,330.812,351.38,354.721,358.062,378.593,381.933,383.6,386.94,390.281,393.622,413.004,416.345,418.012,421.352,424.692" y="654.977" svg_rhmargin="428.032" style="fill:#171615;font-family:MMHHJP+AdvOTcb6dfb9e;font-size:6.97px;font-style:NORMAL;font-weight:normal;">3.542 .000 27.8% .188 12 1.778 1.299</text>
  <text x="428.088" y="654.98" svg_rhmargin="431.575" style="fill:#171615;font-family:MMHHKA+AdvOTcb6dfb9e+20;font-size:6.97px;font-style:NORMAL;font-weight:normal;">–</text>
  <text x="431.546,434.887,436.554,439.894,443.235,446.576,466.014,467.681,471.022,474.362,477.70300000000003,502.014,505.354,508.695,510.362,513.702,518.709,543.058,544.725,548.065,551.406" y="654.98" svg_rhmargin="554.746" style="fill:#171615;font-family:MMHHJP+AdvOTcb6dfb9e;font-size:6.97px;font-style:NORMAL;font-weight:normal;">2.433 .000 86.4% .000</text>
  <text x="71.887,75.59,78.492" y="662.9159999999999" svg_rhmargin="81.393" style="fill:#171615;font-family:MMHHJP+AdvOTcb6dfb9e;font-size:6.97px;font-style:NORMAL;font-weight:normal;">Neo</text>
  <text x="78.86,81.907,84.808,87.49300000000001,129.089,132.43,154.658,157.998,159.665,163.006,166.346,169.687,189.069,192.41,194.077,197.417,200.758" y="670.91" svg_rhmargin="204.098" style="fill:#171615;font-family:MMHHJP+AdvOTcb6dfb9e;font-size:6.97px;font-style:NORMAL;font-weight:normal;">Yes 4 2.874 1.285</text>
  <text x="204.151" y="670.91" svg_rhmargin="207.638" style="fill:#171615;font-family:MMHHKA+AdvOTcb6dfb9e+20;font-size:6.97px;font-style:NORMAL;font-weight:normal;">–</text>
  <text x="207.609,210.95,212.616,215.957,219.297,222.638,242.021,243.688,247.028,250.368,253.709,278.077,281.417,284.758,286.424,289.765,294.772,319.121,320.788,324.128,327.469,330.81,353.023,356.36400000000003,378.592,381.932,383.599,386.939,390.28,393.621,413.003,416.344,418.01,421.351,424.691" y="670.91" svg_rhmargin="428.031" style="fill:#171615;font-family:MMHHJP+AdvOTcb6dfb9e;font-size:6.97px;font-style:NORMAL;font-weight:normal;">6.428 .010 60.3% .056 6 1.349 1.056</text>
  <text x="428.088" y="670.91" svg_rhmargin="431.575" style="fill:#171615;font-family:MMHHKA+AdvOTcb6dfb9e+20;font-size:6.97px;font-style:NORMAL;font-weight:normal;">–</text>
  <text x="431.546,434.887,436.554,439.894,443.234,446.575,466.014,467.681,471.022,474.362,477.70300000000003,502.014,505.354,508.695,510.362,513.702,518.709,543.058,544.725,548.065,551.406" y="670.91" svg_rhmargin="554.746" style="fill:#171615;font-family:MMHHJP+AdvOTcb6dfb9e;font-size:6.97px;font-style:NORMAL;font-weight:normal;">1.723 .017 90.2% .000</text>
  <text x="78.86,82.563,85.464,129.089,132.43,154.658,157.998,159.665,163.006,166.346,169.687,189.069,192.41,194.077,197.417,200.758" y="678.904" svg_rhmargin="204.098" style="fill:#171615;font-family:MMHHJP+AdvOTcb6dfb9e;font-size:6.97px;font-style:NORMAL;font-weight:normal;">No 8 2.320 1.460</text>
  <text x="204.151" y="678.904" svg_rhmargin="207.638" style="fill:#171615;font-family:MMHHKA+AdvOTcb6dfb9e+20;font-size:6.97px;font-style:NORMAL;font-weight:normal;">–</text>
  <text x="207.609,210.95,212.616,215.957,219.297,222.638,242.021,243.688,247.028,250.368,253.709,278.077,281.417,284.758,286.424,289.765,294.772,319.121,320.788,324.128,327.469,330.81,353.023,356.36400000000003,378.592,381.932,383.599,386.939,390.28,393.621,413.003,416.344,418.01,421.351,424.691" y="678.904" svg_rhmargin="428.031" style="fill:#171615;font-family:MMHHJP+AdvOTcb6dfb9e;font-size:6.97px;font-style:NORMAL;font-weight:normal;">3.689 .000 60.6% .013 9 1.774 1.326</text>
  <text x="428.088" y="678.904" svg_rhmargin="431.575" style="fill:#171615;font-family:MMHHKA+AdvOTcb6dfb9e+20;font-size:6.97px;font-style:NORMAL;font-weight:normal;">–</text>
  <text x="431.546,434.887,436.554,439.894,443.234,446.575,466.014,467.681,471.022,474.362,477.70300000000003,502.014,505.354,508.695,510.362,513.702,518.709,543.058,544.725,548.065,551.406" y="678.904" svg_rhmargin="554.746" style="fill:#171615;font-family:MMHHJP+AdvOTcb6dfb9e;font-size:6.97px;font-style:NORMAL;font-weight:normal;">2.373 .000 54.5% .024</text>
  <text x="71.887,75.373,78.421,79.655,82.703,85.241,88.142,91.19" y="686.841" svg_rhmargin="92.857" style="fill:#171615;font-family:MMHHJP+AdvOTcb6dfb9e;font-size:6.97px;font-style:NORMAL;font-weight:normal;">Adjuvant</text>
  <text x="78.86,81.907,84.808,87.49300000000001,127.388,130.729,134.07000000000002,154.657,157.998,159.664,163.005,166.345,169.686,189.069,192.409,194.076,197.416,200.757" y="694.835" svg_rhmargin="204.097" style="fill:#171615;font-family:MMHHJP+AdvOTcb6dfb9e;font-size:6.97px;font-style:NORMAL;font-weight:normal;">Yes 11 2.359 1.587</text>
  <text x="204.151" y="694.835" svg_rhmargin="207.638" style="fill:#171615;font-family:MMHHKA+AdvOTcb6dfb9e+20;font-size:6.97px;font-style:NORMAL;font-weight:normal;">–</text>
  <text x="207.609,210.95,212.616,215.957,219.297,222.638,242.021,243.688,247.028,250.368,253.709,278.077,281.417,284.758,286.424,289.765,294.772,319.121,320.788,324.128,327.469,330.81,351.378,354.719" y="694.835" svg_rhmargin="358.059" style="fill:#171615;font-family:MMHHJP+AdvOTcb6dfb9e;font-size:6.97px;font-style:NORMAL;font-weight:normal;">3.506 .000 62.4% .003 16</text>
  <text x="78.86,82.563,85.464,129.089,132.43,154.658,157.998,159.665,163.006,166.346,169.687,189.069,192.41,194.077,197.417,200.758" y="702.772" svg_rhmargin="204.098" style="fill:#171615;font-family:MMHHJP+AdvOTcb6dfb9e;font-size:6.97px;font-style:NORMAL;font-weight:normal;">No 1 3.628 1.594</text>
  <text x="204.151" y="702.772" svg_rhmargin="207.638" style="fill:#171615;font-family:MMHHKA+AdvOTcb6dfb9e+20;font-size:6.97px;font-style:NORMAL;font-weight:normal;">–</text>
  <text svg_rhmargin="253.708" x="207.609,210.95,212.616,215.957,219.297,222.638,242.021,243.688,247.028,250.368,253.709" y="702.772" style="fill:#171615;font-family:MMHHJP+AdvOTcb6dfb9e;font-size:6.97px;font-style:NORMAL;font-weight:normal;">3.542 .002 </text>
  <text x="282.954,289.928,321.505" y="702.772" svg_rhmargin="328.479" style="fill:#171615;font-family:MMHHKA+AdvOTcb6dfb9e+20;font-size:6.97px;font-style:NORMAL;font-weight:normal;">— —</text>
  <text svg_rhmargin="76.678" x="71.887,75.444,76.678" y="717.965" style="fill:#171615;font-family:MMHHJP+AdvOTcb6dfb9e;font-size:6.97px;font-style:NORMAL;font-weight:normal;">CI </text>
  <text x="77.556" y="717.965" svg_rhmargin="82.277" style="fill:#171615;font-family:MMHCML+AdvOTb0c9bf5d;font-size:6.97px;font-style:NORMAL;font-weight:normal;">=</text>
  <text x="83.168,85.999,88.901" y="717.965" svg_rhmargin="91.949" style="fill:#171615;font-family:MMHHJP+AdvOTcb6dfb9e;font-size:6.97px;font-style:NORMAL;font-weight:normal;">con</text>
  <text x="91.956" y="717.965" svg_rhmargin="94.857" style="fill:#171615;font-family:MMHHLB+AdvOTcb6dfb9e+fb;font-size:6.97px;font-style:NORMAL;font-weight:normal;">ﬁ</text>
  <text svg_rhmargin="146.062" x="94.904,97.951,100.852,103.9,106.731,109.63199999999999,111.967,113.201,116.249,117.916,120.817,122.7,125.238,128.139,129.374,132.148,133.815,136.117,139.82,142.722,146.06300000000002" y="717.965" style="fill:#171615;font-family:MMHHJP+AdvOTcb6dfb9e;font-size:6.97px;font-style:NORMAL;font-weight:normal;">dence intervals, DFS </text>
  <text x="146.948" y="717.965" svg_rhmargin="151.669" style="fill:#171615;font-family:MMHCML+AdvOTb0c9bf5d;font-size:6.97px;font-style:NORMAL;font-weight:normal;">=</text>
  <text svg_rhmargin="214.082" x="152.56,155.608,156.842,159.527,162.428,165.329,168.014,170.915,173.251,174.918,176.801,179.702,182.603,184.93,187.615,190.662,192.545,195.084,196.318,198.856,201.758,202.992,204.659,207.038,210.595,214.082" y="717.965" style="fill:#171615;font-family:MMHHJP+AdvOTcb6dfb9e;font-size:6.97px;font-style:NORMAL;font-weight:normal;">disease-free survival, HR </text>
  <text x="214.979" y="717.965" svg_rhmargin="219.7" style="fill:#171615;font-family:MMHCML+AdvOTb0c9bf5d;font-size:6.97px;font-style:NORMAL;font-weight:normal;">=</text>
  <text svg_rhmargin="260.944" x="220.592,223.639,226.54,228.932,231.833,233.716,236.764,239.129,241.012,243.913,245.58,246.814,249.715,251.382,253.754,257.604,260.945" y="717.965" style="fill:#171615;font-family:MMHHJP+AdvOTcb6dfb9e;font-size:6.97px;font-style:NORMAL;font-weight:normal;">hazard ratio, OS </text>
  <text x="261.808" y="717.965" svg_rhmargin="266.529" style="fill:#171615;font-family:MMHCML+AdvOTb0c9bf5d;font-size:6.97px;font-style:NORMAL;font-weight:normal;">=</text>
  <text svg_rhmargin="305.119" x="267.42,270.321,272.86,275.761,277.644,280.545,281.779,283.013,285.39,288.075,291.123,293.006,295.544,296.778,299.317,302.218,303.452,305.11899999999997" y="717.965" style="fill:#171615;font-family:MMHHJP+AdvOTcb6dfb9e;font-size:6.97px;font-style:NORMAL;font-weight:normal;">overall survival, </text>
  <text x="307.502" y="717.965" svg_rhmargin="310.842" style="fill:#171615;font-family:MMNFDE+AdvOT0c671030.I;font-size:6.97px;font-style:NORMAL;font-weight:normal;">P</text>
  <text svg_rhmargin="313.514" x="310.847,313.51399999999995" y="717.965" style="fill:#171615;font-family:MMHHJP+AdvOTcb6dfb9e;font-size:4.65px;font-style:NORMAL;font-weight:normal;">H </text>
  <text x="314.419" y="717.965" svg_rhmargin="319.14" style="fill:#171615;font-family:MMHCML+AdvOTb0c9bf5d;font-size:6.97px;font-style:NORMAL;font-weight:normal;">=</text>
  <text x="319.975" y="717.965" svg_rhmargin="323.315" style="fill:#171615;font-family:MMNFDE+AdvOT0c671030.I;font-size:6.97px;font-style:NORMAL;font-weight:normal;">P</text>
  <text x="323.319,325.565,328.103,331.005,332.239,335.286,338.187,340.61,342.276,345.177,347.06,349.397,352.444,355.345,357.012,359.913,361.796,364.697,367.745,370.646,373.693,376.594,377.829,379.495,382.034" y="717.965" svg_rhmargin="383.701" style="fill:#171615;font-family:MMHHJP+AdvOTcb6dfb9e;font-size:6.97px;font-style:NORMAL;font-weight:normal;">-value for heterogeneity.</text>
  <text svg_rhmargin="188.466" x="71.887,77.282,81.515,85.579,89.81099999999999,92.409,96.474,98.793,101.48,105.545,106.955,109.107,111.741,118.292,122.357,126.916,128.327,132.392,133.802,138.034,142.099,144.678,146.583,150.983,155.382,159.782,164.182,166.087,168.715,173.115,177.514,179.666,184.066,188.465" y="9.870999999999981" style="fill:#171615;font-family:MMHCLI+AdvOT6e5d2ec0;font-size:7.97px;font-style:NORMAL;font-weight:normal;">Duan et al. Medicine (2018) 97:49 </text>
  <text x="542.723,549.944,554.503,559.317,561.31,565.869,567.861,572.508" y="9.870999999999981" svg_rhmargin="577.067" style="fill:#171615;font-family:MMHCLH+AdvOT34fe1490.B;font-size:7.97px;font-style:NORMAL;font-weight:normal;">Medicine</text>
  <text x="322.243" y="739.625" svg_rhmargin="326.643" style="fill:#171615;font-family:MMHDEE+AdvOTf94803d4;font-size:7.97px;font-style:NORMAL;font-weight:normal;">8</text>
 </g>
</svg>
