<?xml version="1.0" encoding="UTF-8"?>
<svg height="870.031005859375" width="672.0029907226562" xmlns="http://www.w3.org/2000/svg">
 <g style="fill:none;">
  <path d=" M 0.05999799817800522 826.072021484375 L 22.619997024536133 826.072021484375 L 22.619997024536133 826.35546875 L 0.05999799817800522 826.35546875 Z " style="fill:none;stroke:#000000;stroke-width:1.0;"/>
  <path d=" M 33.67599868774414 837.4110107421875 L 33.959449768066406 837.4110107421875 L 33.959449768066406 860.031005859375 L 33.67599868774414 860.031005859375 Z " style="fill:none;stroke:#000000;stroke-width:1.0;"/>
  <path d=" M 627.9869995117188 837.4110107421875 L 628.2703857421875 837.4110107421875 L 628.2703857421875 860.031005859375 L 627.9869995117188 860.031005859375 Z " style="fill:none;stroke:#000000;stroke-width:1.0;"/>
  <path d=" M 639.3259887695312 826.072021484375 L 662.0029907226562 826.072021484375 L 662.0029907226562 826.35546875 L 639.3259887695312 826.35546875 Z " style="fill:none;stroke:#000000;stroke-width:1.0;"/>
  <path d=" M 639.3259887695312 33.731998443603516 L 662.0029907226562 33.731998443603516 L 662.0029907226562 34.015480041503906 L 639.3259887695312 34.015480041503906 Z " style="fill:none;stroke:#000000;stroke-width:1.0;"/>
  <path d=" M 627.9869995117188 0.0 L 628.2703857421875 0.0 L 628.2703857421875 22.677000045776367 L 627.9869995117188 22.677000045776367 Z " style="fill:none;stroke:#000000;stroke-width:1.0;"/>
  <path d=" M 33.67599868774414 0.0 L 33.959449768066406 0.0 L 33.959449768066406 22.677000045776367 L 33.67599868774414 22.677000045776367 Z " style="fill:none;stroke:#000000;stroke-width:1.0;"/>
  <path d=" M 0.05999799817800522 33.731998443603516 L 22.619997024536133 33.731998443603516 L 22.619997024536133 34.015480041503906 L 0.05999799817800522 34.015480041503906 Z " style="fill:none;stroke:#000000;stroke-width:1.0;"/>
  <path d=" M 85.03900146484375 630.594970703125 L 566.248046875 630.594970703125 C 579.416015625 630.636962890625 590.1820068359375 619.8469848632812 590.115966796875 606.6709594726562 L 590.115966796875 364.53497314453125 L 85.03900146484375 364.53497314453125" style="fill:none;stroke:#000000;stroke-width:1.0;"/>
  <path d=" M 85.03900146484375 630.594970703125 L 566.248046875 630.594970703125 L 566.248046875 630.3679809570312 L 85.26599884033203 630.3679809570312" style="fill:none;stroke:#000000;stroke-width:1.0;"/>
  <path d=" M 566.2490234375 630.594970703125 L 569.9910278320312 630.3119506835938 C 580.1680297851562 628.719970703125 588.2870483398438 620.6019897460938 589.8330078125 610.4119873046875 L 590.1170043945312 606.6709594726562 L 589.8900146484375 606.6709594726562 L 589.6069946289062 610.4119873046875 C 587.9960327148438 620.6119995117188 580.0670166015625 628.365966796875 569.9340209960938 630.0849609375 L 566.2490234375 630.3679809570312" style="fill:none;stroke:#000000;stroke-width:1.0;"/>
  <path d=" M 590.1160278320312 606.6710205078125 L 590.1160278320312 364.5360107421875 L 589.8890380859375 364.81903076171875 L 589.8890380859375 606.6710205078125" style="fill:none;stroke:#000000;stroke-width:1.0;"/>
  <path d=" M 590.1160278320312 364.5350036621094 L 85.03903198242188 364.5350036621094 L 85.26602172851562 364.8179931640625 L 589.8890380859375 364.8179931640625" style="fill:none;stroke:#000000;stroke-width:1.0;"/>
  <path d=" M 85.03900146484375 364.5350036621094 L 85.03900146484375 630.594970703125 L 85.26599884033203 630.3680419921875 L 85.26599884033203 364.8179931640625" style="fill:none;stroke:#000000;stroke-width:1.0;"/>
  <text svg_rhmargin="210.854" x="85.039,97.891,110.345,122.38,129.09,141.544,149.215,155.013,160.811,166.61,174.281,184.86100000000002,191.566,203.601,210.85399999999998" y="72.23299999999995" style="fill:#171615;font-family:HPMFED+AdvOTfbba3ace.B;font-size:19.93px;font-style:NORMAL;font-weight:normal;">The utility of </text>
  <text x="217.531,226.871" y="72.23299999999995" svg_rhmargin="236.211" style="fill:#171615;font-family:HPMFED+AdvOTfbba3ace.B;font-size:13.28px;font-style:NORMAL;font-weight:normal;">18</text>
  <text svg_rhmargin="341.871" x="236.239,248.274,256.364,268.399,283.343,298.685,305.348,316.965,329.418,341.871" y="72.23299999999995" style="fill:#171615;font-family:HPMFED+AdvOTfbba3ace.B;font-size:19.93px;font-style:NORMAL;font-weight:normal;">F-FDG and </text>
  <text x="348.548,357.888" y="72.23299999999995" svg_rhmargin="367.228" style="fill:#171615;font-family:HPMFED+AdvOTfbba3ace.B;font-size:13.28px;font-style:NORMAL;font-weight:normal;">68</text>
  <text x="367.257,382.599,394.216,402.305,417.249,432.592,445.443,459.495,467.584,481.074,493.109,505.562,513.233,519.032,531.485" y="81.077" svg_rhmargin="543.52" style="fill:#171615;font-family:HPMFED+AdvOTfbba3ace.B;font-size:19.93px;font-style:NORMAL;font-weight:normal;">Ga-DOTA-Peptide</text>
  <text x="85.039,98.528,112.017,124.869,132.959,147.903,160.755,167.47,173.268,185.721,192.414,200.085,212.539,224.57399999999998,231.248,243.283,253.864,265.48,271.278,283.732,295.348,303.019,308.818,320.852,333.30499999999995,340.041,352.075,359.328,366.005,378.458,386.747,392.546,410.797,422.414,430.703,441.28299999999996,448.04,460.493,472.946,478.745,496.996,509.031,521.484,533.101,541.39" y="101.03200000000004" svg_rhmargin="551.97" style="fill:#171615;font-family:HPMFED+AdvOTfbba3ace.B;font-size:19.93px;font-style:NORMAL;font-weight:normal;">PET/CT in the evaluation of primary pulmonary</text>
  <text x="85.039,96.655,108.271,116.56,128.177,133.975,146.428,158.463,164.262" y="120.93200000000002" svg_rhmargin="176.715" style="fill:#171615;font-family:HPMFED+AdvOTfbba3ace.B;font-size:19.93px;font-style:NORMAL;font-weight:normal;">carcinoid</text>
  <text x="85.039,95.83,101.141,109.603,117.731,126.194,131.66,140.776,155.041,164.157,169.623,173.607,182.725,188.033,194.168,203.285,211.412,215.396,224.512,237.455,242.732,251.848,261.14,270.768,276.121,290.385,299.502,304.968,314.084,320.554,329.67,338.962,348.078,352.062,360.19,368.652,372.636" y="142.02200000000005" svg_rhmargin="381.1" style="fill:#171615;font-family:HPMFEE+AdvOT34fe1490.B;font-size:15.94px;font-style:NORMAL;font-weight:normal;">A systematic review and meta-analysis</text>
  <text x="85.039,91.358,96.912,102.247,107.802,112.593,118.148,123.482,129.037,132.491,137.722,139.573,144.908,150.463,156.237,159.061,162.539,171.137" y="159.82399999999996" svg_rhmargin="178.219" style="fill:#171615;font-family:HPMFEF+AdvOT6e5d2ec0;font-size:10.46px;font-style:NORMAL;font-weight:normal;">Yuanyuan Jiang, MD</text>
  <text x="178.242,182.244,184.362" y="155.17499999999995" svg_rhmargin="188.85" style="fill:#171615;font-family:HPMFEF+AdvOT6e5d2ec0;font-size:6.97px;font-style:NORMAL;font-weight:normal;">a,b</text>
  <text x="188.844,191.668,195.137,202.868,208.422,214.197,218.988,224.542,230.097,233.575,240.866,246.64,252.195,255.019,258.52,267.118" y="159.82399999999996" svg_rhmargin="274.2" style="fill:#171615;font-family:HPMFEF+AdvOT6e5d2ec0;font-size:10.46px;font-style:NORMAL;font-weight:normal;">, Guozhu Hou, MD</text>
  <text x="274.167,278.168,280.286" y="155.17499999999995" svg_rhmargin="284.774" style="fill:#171615;font-family:HPMFEF+AdvOT6e5d2ec0;font-size:6.97px;font-style:NORMAL;font-weight:normal;">a,b</text>
  <text x="284.768,287.592,291.118,300.595,306.15,310.941,312.793,318.347,324.121,327.572,334.863,340.417,345.752,351.307,357.081,359.90500000000003,363.401,372.0" y="159.82399999999996" svg_rhmargin="379.082" style="fill:#171615;font-family:HPMFEF+AdvOT6e5d2ec0;font-size:10.46px;font-style:NORMAL;font-weight:normal;">, Wuying Cheng, MD</text>
  <text x="379.049,383.05,385.168,389.656" y="155.17499999999995" svg_rhmargin="391.774" style="fill:#171615;font-family:HPMFEF+AdvOT6e5d2ec0;font-size:6.97px;font-style:NORMAL;font-weight:normal;">a,b,</text>
  <text x="391.805" y="153.19000000000005" svg_rhmargin="395.885" style="fill:#171615;font-family:HPMFEG+AdvOTb0c9bf5d+22;font-size:6.97px;font-style:NORMAL;font-weight:normal;">∗</text>
  <text x="91.276,97.915,104.052,109.607,113.09,117.155,123.045,128.935" y="181.59400000000005" svg_rhmargin="132.418" style="fill:#171615;font-family:HPMFEH+AdvOT91f5f621.B;font-size:7.97px;font-style:NORMAL;font-weight:normal;">Abstract</text>
  <text svg_rhmargin="152.86" x="91.276,98.329,104.219,110.109,115.832,121.969,126.034,132.171,137.932,143.822,149.959,152.86" y="191.572" style="fill:#171615;font-family:HPMFEH+AdvOT91f5f621.B;font-size:7.97px;font-style:NORMAL;font-weight:normal;">Background: </text>
  <text x="155.395,160.999,165.76,167.347,174.718,179.667,184.428,189.001,191.798,195.904,198.763,203.336,207.909,210.707,215.279,216.866,221.628,226.577,228.164,233.293,237.588,240.488,242.631,248.235,254.485,256.628,259.48,264.052,266.85,271.423,274.276,279.037,280.624,284.919,287.528,292.477,294.064,299.014,303.963,305.55,310.123,314.696,316.283,317.87,321.976,324.844,329.417,331.004,335.577,339.872,344.166" y="191.572" svg_rhmargin="345.753" style="fill:#171615;font-family:HPMFEF+AdvOT6e5d2ec0;font-size:8.97px;font-style:NORMAL;font-weight:normal;">Pulmonary carcinoids (PC) are histologically classi</text>
  <text x="345.77" y="191.572" svg_rhmargin="349.688" style="fill:#171615;font-family:HPMFEI+AdvOT6e5d2ec0+fb;font-size:8.97px;font-style:NORMAL;font-weight:normal;">ﬁ</text>
  <text x="349.682,354.255,359.384,362.268,363.855,368.617,371.226,376.175,379.049,381.658,385.765,390.893,392.48,397.053,401.626,403.21299999999997,406.09,410.663,415.236,418.033,422.606,424.193,428.954,433.904,435.491,440.62,443.507,445.65,450.599,456.849,458.99199999999996,461.818,466.39,471.152,476.281,479.166,483.738,486.348,490.454,495.583,497.17,501.743,506.316,507.90299999999996,510.799,515.372,519.944,522.742,527.315,528.902,533.663,538.612,540.199,545.328,548.215,550.358,555.962,562.211,564.354,566.7750000000001,569.645,574.594,579.355" y="191.572" svg_rhmargin="583.928" style="fill:#171615;font-family:HPMFEF+AdvOT6e5d2ec0;font-size:8.97px;font-style:NORMAL;font-weight:normal;">ed into typical carcinoid (TC) and atypical carcinoid (AC). The</text>
  <text x="91.275,96.404,97.991,102.564,107.513,112.274,117.224,121.519,123.106,127.401,129.145,134.094,136.33599999999998,138.045,143.174,147.935,149.522,156.893,161.842,166.603,171.176,173.973,178.079,179.827,184.399,188.972,191.77,196.343,197.93,202.691,207.64,209.227,214.356,216.109,220.682,225.443,230.572,232.322,237.451,242.401,246.695,250.99,252.577,257.706,259.293,263.399,265.146,267.756,272.517,277.09,278.866,283.994,285.581,287.823,290.065,294.637,297.435,302.008,306.769,309.378,310.965,315.538,318.147,319.734,324.684,329.44500000000005,331.191,336.32,340.893,343.502,350.128,354.701,359.274,364.035,365.83,370.779,377.028,378.756,383.328,388.09,393.219,394.969,400.573,406.822,408.518,413.091,418.041,422.802,424.389,429.51800000000003,431.308,438.678,443.251,447.734,452.30699999999996,454.041,458.614,460.334,464.629,466.216,471.165,475.926" y="202.51300000000003" svg_rhmargin="477.513" style="fill:#171615;font-family:HPMFEF+AdvOT6e5d2ec0;font-size:8.97px;font-style:NORMAL;font-weight:normal;">diagnosis of pulmonary carcinoid and possibly the differentiation between TC and AC could make a signi</text>
  <text x="477.526" y="202.51300000000003" svg_rhmargin="481.444" style="fill:#171615;font-family:HPMFEI+AdvOT6e5d2ec0+fb;font-size:8.97px;font-style:NORMAL;font-weight:normal;">ﬁ</text>
  <text x="481.438,486.01,490.583,495.344,497.953,499.749,504.321,506.563,508.805,513.377,517.95,520.5590000000001,522.255,527.204,531.9649999999999,533.707,536.316,541.077,545.65,547.426,550.035,552.833,557.406,561.978,564.588,571.958,576.531,581.292" y="202.51300000000003" svg_rhmargin="583.901" style="fill:#171615;font-family:HPMFEF+AdvOT6e5d2ec0;font-size:8.97px;font-style:NORMAL;font-weight:normal;">cant effect on the treatment</text>
  <text x="91.275,96.404,97.991,102.564,107.325,112.086,113.673,118.434,123.383,128.351,132.924,137.219,142.127,148.753,153.326,154.913,156.5,161.458,166.031,170.326,175.291,180.42,183.218,188.167,193.116,197.878,202.827,207.122,208.709,213.004" y="213.45500000000004" svg_rhmargin="215.425" style="fill:#171615;font-family:HPMFEF+AdvOT6e5d2ec0;font-size:8.97px;font-style:NORMAL;font-weight:normal;">planning as well as prognosis.</text>
  <text svg_rhmargin="222.36" x="215.433,217.041,220.753,222.35999999999999" y="213.45500000000004" style="fill:#171615;font-family:HPMFEF+AdvOT6e5d2ec0;font-size:5.98px;font-style:NORMAL;font-weight:normal;">[1] </text>
  <text svg_rhmargin="401.145" x="227.339,232.942,237.515,241.622,246.195,248.992,253.565,255.152,260.106,264.401,267.01,271.771,276.9,278.487,283.06,287.355,292.307,297.068,301.64,305.747,310.32,315.267,319.839,324.134,329.263,330.85,335.799,338.597,343.17,348.29900000000004,353.25,355.859,360.62,365.193,370.144,374.905,377.514,379.101,380.688,382.275,384.885,388.991,393.954,398.903,401.14500000000004" y="209.48699999999997" style="fill:#171615;font-family:HPMFEF+AdvOT6e5d2ec0;font-size:8.97px;font-style:NORMAL;font-weight:normal;">Several studies have explored the utility of </text>
  <text x="406.091,409.804" y="209.48699999999997" svg_rhmargin="413.516" style="fill:#171615;font-family:HPMFEF+AdvOT6e5d2ec0;font-size:5.98px;font-style:NORMAL;font-weight:normal;">68</text>
  <text x="413.518,420.144,424.717,427.981,434.051,440.677,445.626,451.23,454.494,460.098,464.671,469.799,472.409,473.996,479.124,483.697,488.691" y="213.45500000000004" svg_rhmargin="490.834" style="fill:#171615;font-family:HPMFEF+AdvOT6e5d2ec0;font-size:8.97px;font-style:NORMAL;font-weight:normal;">Ga-DOTA-Peptide (</text>
  <text x="490.847,494.56" y="209.48699999999997" svg_rhmargin="498.272" style="fill:#171615;font-family:HPMFEF+AdvOT6e5d2ec0;font-size:5.98px;font-style:NORMAL;font-weight:normal;">68</text>
  <text x="498.274,504.9,509.473,512.737,514.324,518.896,524.025,528.598,530.185,531.772,536.345,541.474,546.462,548.604,553.554,555.975,560.924,563.345,568.294,570.715,575.665,580.614" y="213.45500000000004" svg_rhmargin="583.878" style="fill:#171615;font-family:HPMFEF+AdvOT6e5d2ec0;font-size:8.97px;font-style:NORMAL;font-weight:normal;">Ga-labelled [1,4,7,10-</text>
  <text svg_rhmargin="329.438" x="91.274,93.883,98.456,101.065,103.862,108.435,113.008,117.115,121.688,126.26,130.367,134.94,136.527,141.476,146.605,151.554,156.683,161.256,165.829,170.401,175.163,179.735,182.999,187.948,190.369,195.319,197.74,202.689,205.11,210.059,215.009,218.273,220.882,225.455,228.064,230.861,235.434,240.007,244.58,249.152,251.762,253.349,257.92199999999997,260.438,265.011,269.584,271.171,276.3,278.443,281.706,286.835,291.408,296.537,299.146,300.733,305.862,310.434,312.577,314.975,319.548,324.309,329.43800000000005" y="220.485" style="fill:#171615;font-family:HPMFEF+AdvOT6e5d2ec0;font-size:8.97px;font-style:NORMAL;font-weight:normal;">tetraazacyclododecane-1,4,7,10-tetraacetic acid]-peptide) and </text>
  <text x="331.88,335.593" y="220.485" svg_rhmargin="339.305" style="fill:#171615;font-family:HPMFEF+AdvOT6e5d2ec0;font-size:5.98px;font-style:NORMAL;font-weight:normal;">18</text>
  <text x="339.307,344.068" y="224.45399999999995" svg_rhmargin="347.332" style="fill:#171615;font-family:HPMFEF+AdvOT6e5d2ec0;font-size:8.97px;font-style:NORMAL;font-weight:normal;">F-</text>
  <text x="347.358" y="224.45399999999995" svg_rhmargin="351.276" style="fill:#171615;font-family:HPMFEI+AdvOT6e5d2ec0+fb;font-size:8.97px;font-style:NORMAL;font-weight:normal;">ﬂ</text>
  <text x="351.27,356.031,358.828,363.778,368.907,373.479,378.429,382.724,386.83,391.78,393.367,398.128,402.701,407.65,411.945,416.518,418.902,421.045,425.806,431.876,438.502,440.645,443.052,448.181,453.131,457.425,459.013,461.622,464.419,469.369,474.13000000000005,476.5,481.073,488.444,490.031,494.325,498.62,500.207,505.157,509.918,512.329,514.938,519.887,527.258,532.207,537.157,539.954,544.527,549.656,554.417,558.523,560.913,563.056,568.66,573.887,578.836,580.979" y="224.45399999999995" svg_rhmargin="583.866" style="fill:#171615;font-family:HPMFEF+AdvOT6e5d2ec0;font-size:8.97px;font-style:NORMAL;font-weight:normal;">urodeoxyglucose (FDG) positron emission tomography (PET)/</text>
  <text x="91.275,95.848,100.797,108.167,113.296,118.057,120.666,125.239,130.368,132.489,135.099,140.048,147.418,152.368,157.317,160.115,164.687,169.816,174.577,178.683,180.79,182.933,189.182,194.132,196.275,198.364,199.951,204.712,206.811,209.42,214.181,218.75400000000002,220.814,225.387,229.493,234.066,235.653,240.414,244.987,247.596,249.183,254.133,258.894,261.008,265.957,268.199,270.305,275.434,278.231,279.818,287.189,291.761,294.559,298.665,300.748,305.877,310.638,312.225,319.596,324.545,329.306,333.879,336.676,340.782,342.869,347.442,352.015,354.813,359.385,360.972,365.733,370.683,372.27,377.399,381.693,384.114,386.238,391.187,395.948,400.521,403.318,407.891,410.133,415.082,417.88,422.453,424.87399999999997,426.998,433.625,438.198,440.264,445.393,449.966,452.763,455.005,459.954,462.752,470.122,474.695,479.824,481.932,486.505,488.622,495.992,500.565,503.174,507.747,511.011,515.584,520.345,524.918,526.505,530.611,534.906,536.493,540.788,542.875,545.484,550.433,552.513,557.086,561.193,565.765,567.352,572.114,576.686,579.296" y="235.39499999999998" svg_rhmargin="583.869" style="fill:#171615;font-family:HPMFEF+AdvOT6e5d2ec0;font-size:8.97px;font-style:NORMAL;font-weight:normal;">computed tomography (CT) in the evaluation of primary pulmonary carcinoids. Therefore, we performed a meta-analysis to evaluate</text>
  <text x="91.275,93.884,98.645,103.21799999999999,106.185,111.314,112.901,117.474,122.423,127.184,132.133,136.428,139.038,140.625,145.198,148.249,152.822,157.395,161.968,166.729,169.527,174.099,178.672,182.778,185.779,190.352,195.113,200.242,203.24,208.369,211.166,215.739,220.868,222.455,227.027,229.637,231.224,236.173,240.934,243.944,248.517" y="246.337" svg_rhmargin="250.759" style="fill:#171615;font-family:HPMFEF+AdvOT6e5d2ec0;font-size:8.97px;font-style:NORMAL;font-weight:normal;">the diagnostic accuracy and prediction ef</text>
  <text x="250.753" y="246.337" svg_rhmargin="254.671" style="fill:#171615;font-family:HPMFEI+AdvOT6e5d2ec0+fb;font-size:8.97px;font-style:NORMAL;font-weight:normal;">ﬁ</text>
  <text x="254.665,259.238,260.825,265.398,270.159,274.732,278.838,281.877,286.826,289.06800000000004,292.025,296.786,298.373,302.668,305.277,310.227,311.814,316.763,321.712,323.299,327.872,332.445,334.032,337.038,341.333,346.094,351.222,353.832,357.938,363.067,367.64,371.935,374.964,379.914,382.156,385.112,387.721,392.483,397.055,401.35,405.923,408.922,411.532,418.158,423.107,426.156,427.743,435.114,439.687,444.636,446.223,450.984,455.933,458.924,466.294,471.244,476.372,480.945,482.532,484.119,486.728,488.315,492.888,497.183,500.195,501.782,506.543,509.492,514.621,517.418,519.005,526.376,530.948,533.746,537.852,540.899,546.503,552.753" y="246.337" svg_rhmargin="555.174" style="fill:#171615;font-family:HPMFEF+AdvOT6e5d2ec0;font-size:8.97px;font-style:NORMAL;font-weight:normal;">ciency of histological subtypes of these two imaging modalities in primary PC.</text>
  <text svg_rhmargin="136.323" x="91.276,100.242,106.22,109.703,115.593,121.73,127.867,133.422,136.323" y="260.567" style="fill:#171615;font-family:HPMFEH+AdvOT91f5f621.B;font-size:7.97px;font-style:NORMAL;font-weight:normal;">Methods: </text>
  <text x="138.444,144.416,148.988,150.576,155.148,159.255,163.828,168.589,171.198,173.762,178.057,180.666,185.428,190.556,192.143,196.716,201.011,203.582,210.208,214.781,217.578,222.151,224.671,226.258,231.387,235.96,240.721,243.33" y="260.567" svg_rhmargin="244.917" style="fill:#171615;font-family:HPMFEF+AdvOT6e5d2ec0;font-size:8.97px;font-style:NORMAL;font-weight:normal;">Relevant studies were identi</text>
  <text x="244.971" y="260.567" svg_rhmargin="248.889" style="fill:#171615;font-family:HPMFEI+AdvOT6e5d2ec0+fb;font-size:8.97px;font-style:NORMAL;font-weight:normal;">ﬁ</text>
  <text x="248.883,253.456,258.585,261.128,266.257,270.363,272.92,277.215,281.787,286.36,289.158,293.731,298.492,300.079,304.84,309.789,312.32,317.924,322.685,327.814,335.185,339.757,344.886,347.307,349.906,358.03,362.603,367.732,370.259,375.208,377.45000000000005,380.01,385.614,390.186,391.774,396.346,401.107,405.68,410.253,412.674,415.215,419.788,424.549,429.678,432.279,437.506,444.876,450.848,456.452,462.056,467.28299999999996,469.808,474.937,479.698,484.827,486.414,488.001,492.296,497.057,501.63,506.759,509.322,511.563,514.361,519.31,526.68,529.221,534.17,539.12,544.069,549.0179999999999,551.557,554.166,559.115,561.705,566.654,571.604,576.553,581.502" y="260.567" svg_rhmargin="583.923" style="fill:#171615;font-family:HPMFEF+AdvOT6e5d2ec0;font-size:8.97px;font-style:NORMAL;font-weight:normal;">ed by searching PubMed, Web of Science, and EMBASE published from 2006 to 2016.</text>
  <text x="91.276,96.225,102.851,107.8,110.778,115.351,120.112,122.721,127.482,132.431,135.229,139.524,142.525,147.097,151.392,154.002,156.799,161.372,165.945,168.554,173.127,178.256,181.301,185.874,190.635,195.208,198.005,202.578,207.151,209.76,214.333,217.131,218.718,223.012,225.622,227.209,231.782,236.077,239.069,244.019,246.261,249.274,254.403,258.975,261.585,263.172,267.744,272.506,275.115,279.41,282.438,287.011,291.772,296.901,299.899,302.509,307.27,311.843,313.43,316.22700000000003,319.231,320.818,325.391,329.685,331.273,336.222,340.983,345.278,348.257,353.018,357.312,358.9,363.661,368.61,371.614,376.742,379.54,384.113,389.241" y="271.509" svg_rhmargin="393.814" style="fill:#171615;font-family:HPMFEF+AdvOT6e5d2ec0;font-size:8.97px;font-style:NORMAL;font-weight:normal;">Two authors extracted characteristics of patients and their lesions using prede</text>
  <text x="393.847" y="271.509" svg_rhmargin="397.765" style="fill:#171615;font-family:HPMFEI+AdvOT6e5d2ec0+fb;font-size:8.97px;font-style:NORMAL;font-weight:normal;">ﬁ</text>
  <text x="397.759,402.52,407.093,412.22200000000004,415.22,419.793,422.591,424.178,426.787,431.36,434.157,435.744,440.317" y="271.509" svg_rhmargin="442.738" style="fill:#171615;font-family:HPMFEF+AdvOT6e5d2ec0;font-size:8.97px;font-style:NORMAL;font-weight:normal;">ned criteria.</text>
  <text svg_rhmargin="129.676" x="91.276,97.994,103.972,109.527,115.417,117.737,121.22,126.775,129.67600000000002" y="285.73900000000003" style="fill:#171615;font-family:HPMFEH+AdvOT91f5f621.B;font-size:7.97px;font-style:NORMAL;font-weight:normal;">Results: </text>
  <text svg_rhmargin="532.213" x="132.548,137.309,142.259,147.02,149.817,152.426,156.999,161.572,166.333,169.624,173.919,176.528,181.289,186.418,188.005,192.577,196.87199999999999,200.18,204.753,209.702,217.072,222.201,224.999,226.586,230.881,232.468,237.229,242.17800000000003,245.476,250.425,255.375,260.324,263.617,268.746,273.319,275.928,277.515,282.088,286.849,289.458,293.75300000000004,297.065,303.691,308.264,311.062,315.635,318.892,320.479,325.24,329.813,331.4,336.161,341.29,345.863,350.992,354.324,355.911,360.672,363.962,366.571,371.332,372.919,377.214,380.516,387.886,392.459,395.068,399.641,402.904,407.477,412.238,416.811,418.398,422.505,426.8,428.387,432.682,435.103,438.397,443.346,448.107,452.68,455.972,461.1,466.05,470.999,472.586,477.159,482.288,485.565,489.86,494.432,499.194,503.488,505.076,507.685,509.272,513.378,514.965,517.575,521.681,525.022,529.971,532.213" y="281.71400000000006" style="fill:#171615;font-family:HPMFEF+AdvOT6e5d2ec0;font-size:8.97px;font-style:NORMAL;font-weight:normal;">Fourteen studies comprising 352 patients were included in this meta-analysis. The pooled sensitivity of </text>
  <text x="535.464,539.177" y="281.71400000000006" svg_rhmargin="542.889" style="fill:#171615;font-family:HPMFEF+AdvOT6e5d2ec0;font-size:5.98px;font-style:NORMAL;font-weight:normal;">68</text>
  <text x="542.948,549.574,554.147,557.411,563.481,570.107,575.056,580.66" y="285.73900000000003" svg_rhmargin="583.924" style="fill:#171615;font-family:HPMFEF+AdvOT6e5d2ec0;font-size:8.97px;font-style:NORMAL;font-weight:normal;">Ga-DOTA-</text>
  <text svg_rhmargin="136.974" x="91.274,96.878,101.451,106.58,109.189,110.776,115.905,120.47800000000001,122.511,127.084,131.845,136.974" y="292.712" style="fill:#171615;font-family:HPMFEF+AdvOT6e5d2ec0;font-size:8.97px;font-style:NORMAL;font-weight:normal;">Peptide and </text>
  <text x="139.011,142.724" y="292.712" svg_rhmargin="146.436" style="fill:#171615;font-family:HPMFEF+AdvOT6e5d2ec0;font-size:5.98px;font-style:NORMAL;font-weight:normal;">18</text>
  <text svg_rhmargin="408.392" x="146.438,151.199,154.463,159.224,165.294,171.92000000000002,173.989,179.593,184.821,189.77,192.657,198.907,203.85600000000002,205.907,207.494,212.255,214.241,219.37,223.943,226.552,231.125,235.697,238.307,239.894,244.655,249.604,251.657,256.786,261.547,263.134,270.505,275.454,280.215,284.788,287.585,291.691,293.778,298.351,302.924,305.722,310.294,311.881,316.642,321.592,323.179,328.308,330.344,336.97,341.543,344.34,348.91299999999995,350.923,355.873,360.822,363.243,368.192,376.127,378.192,380.335,385.284,390.233,398.168,400.188,406.437,408.392" y="296.68" style="fill:#171615;font-family:HPMFEF+AdvOT6e5d2ec0;font-size:8.97px;font-style:NORMAL;font-weight:normal;">F-FDG PET/CT in detecting pulmonary carcinoid were 90.0% (95% CI </text>
  <text x="409.55" y="296.68" svg_rhmargin="415.62" style="fill:#171615;font-family:HPMFFI+AdvOTb0c9bf5d;font-size:8.97px;font-style:NORMAL;font-weight:normal;">=</text>
  <text x="416.694,421.643,426.593,429.013" y="296.68" svg_rhmargin="433.962" style="fill:#171615;font-family:HPMFEF+AdvOT6e5d2ec0;font-size:8.97px;font-style:NORMAL;font-weight:normal;">82.0</text>
  <text x="433.985" y="296.68" svg_rhmargin="438.468" style="fill:#171615;font-family:HPMFFJ+AdvOT6e5d2ec0+20;font-size:8.97px;font-style:NORMAL;font-weight:normal;">–</text>
  <text svg_rhmargin="466.089" x="438.464,443.413,448.363,450.784,455.733,463.668,466.089" y="296.68" style="fill:#171615;font-family:HPMFEF+AdvOT6e5d2ec0;font-size:8.97px;font-style:NORMAL;font-weight:normal;">95.0%; </text>
  <text svg_rhmargin="473.719" x="468.115,473.719" y="296.68" style="fill:#171615;font-family:HPMFFK+AdvOT1deab444.I;font-size:8.97px;font-style:NORMAL;font-weight:normal;">P </text>
  <text x="474.861" y="296.68" svg_rhmargin="480.931" style="fill:#171615;font-family:HPMFFI+AdvOTb0c9bf5d;font-size:8.97px;font-style:NORMAL;font-weight:normal;">=</text>
  <text svg_rhmargin="496.801" x="482.061,484.482,489.431,494.38,496.801" y="296.68" style="fill:#171615;font-family:HPMFEF+AdvOT6e5d2ec0;font-size:8.97px;font-style:NORMAL;font-weight:normal;">.07; </text>
  <text x="498.842" y="296.68" svg_rhmargin="500.797" style="fill:#171615;font-family:HPMFFK+AdvOT1deab444.I;font-size:8.97px;font-style:NORMAL;font-weight:normal;">I</text>
  <text svg_rhmargin="504.48" x="500.768,504.47999999999996" y="296.68" style="fill:#171615;font-family:HPMFEF+AdvOT6e5d2ec0;font-size:5.98px;font-style:NORMAL;font-weight:normal;">2 </text>
  <text x="505.644" y="296.68" svg_rhmargin="511.714" style="fill:#171615;font-family:HPMFFI+AdvOTb0c9bf5d;font-size:8.97px;font-style:NORMAL;font-weight:normal;">=</text>
  <text x="512.844,517.793,522.743,525.164,530.113,538.048,540.191,542.209,546.782,551.543,556.672,558.707,563.656,568.605,571.026,575.976" y="296.68" svg_rhmargin="583.911" style="fill:#171615;font-family:HPMFEF+AdvOT6e5d2ec0;font-size:8.97px;font-style:NORMAL;font-weight:normal;">49.6%) and 71.0%</text>
  <text svg_rhmargin="121.247" x="91.274,93.417,98.366,103.315,111.25,113.043,119.292,121.247" y="307.622" style="fill:#171615;font-family:HPMFEF+AdvOT6e5d2ec0;font-size:8.97px;font-style:NORMAL;font-weight:normal;">(95% CI </text>
  <text x="122.398" y="307.622" svg_rhmargin="128.468" style="fill:#171615;font-family:HPMFFI+AdvOTb0c9bf5d;font-size:8.97px;font-style:NORMAL;font-weight:normal;">=</text>
  <text x="129.598,134.548,139.497,141.918" y="307.622" svg_rhmargin="146.867" style="fill:#171615;font-family:HPMFEF+AdvOT6e5d2ec0;font-size:8.97px;font-style:NORMAL;font-weight:normal;">66.0</text>
  <text x="146.833" y="307.622" svg_rhmargin="151.316" style="fill:#171615;font-family:HPMFFJ+AdvOT6e5d2ec0+20;font-size:8.97px;font-style:NORMAL;font-weight:normal;">–</text>
  <text svg_rhmargin="178.937" x="151.312,156.261,161.211,163.632,168.581,176.516,178.93699999999998" y="307.622" style="fill:#171615;font-family:HPMFEF+AdvOT6e5d2ec0;font-size:8.97px;font-style:NORMAL;font-weight:normal;">76.0%; </text>
  <text x="180.792" y="307.622" svg_rhmargin="186.396" style="fill:#171615;font-family:HPMFFK+AdvOT1deab444.I;font-size:8.97px;font-style:NORMAL;font-weight:normal;">P</text>
  <text x="187.482" y="307.622" svg_rhmargin="194.386" style="fill:#171615;font-family:HPMFFL+AdvP4C4E51;font-size:8.97px;font-style:NORMAL;font-weight:normal;">&lt;</text>
  <text svg_rhmargin="215.223" x="195.533,197.954,202.903,207.853,212.802,215.22299999999998" y="307.622" style="fill:#171615;font-family:HPMFEF+AdvOT6e5d2ec0;font-size:8.97px;font-style:NORMAL;font-weight:normal;">.001; </text>
  <text x="217.02" y="307.622" svg_rhmargin="218.975" style="fill:#171615;font-family:HPMFFK+AdvOT1deab444.I;font-size:8.97px;font-style:NORMAL;font-weight:normal;">I</text>
  <text svg_rhmargin="222.717" x="219.005,222.71699999999998" y="307.622" style="fill:#171615;font-family:HPMFEF+AdvOT6e5d2ec0;font-size:5.98px;font-style:NORMAL;font-weight:normal;">2 </text>
  <text x="223.824" y="307.622" svg_rhmargin="229.894" style="fill:#171615;font-family:HPMFFI+AdvOTb0c9bf5d;font-size:8.97px;font-style:NORMAL;font-weight:normal;">=</text>
  <text svg_rhmargin="409.676" x="231.024,235.973,240.922,243.343,248.293,256.228,258.371,260.792,262.6,265.398,269.97,274.265,279.394,283.967,288.54,291.149,292.736,296.842,301.415,303.002,307.109,309.53,311.354,316.958,321.71900000000005,323.543,329.147,335.217,340.445,347.815,352.388,356.683,358.522,361.319,365.892,368.501,370.088,375.03700000000003,376.833,381.961,386.534,389.143,395.769,400.342,404.915,409.67600000000004" y="303.654" style="fill:#171615;font-family:HPMFEF+AdvOT6e5d2ec0;font-size:8.97px;font-style:NORMAL;font-weight:normal;">59.3%), respectively. An SUVmax ratio between </text>
  <text x="411.477,415.19" y="303.654" svg_rhmargin="418.902" style="fill:#171615;font-family:HPMFEF+AdvOT6e5d2ec0;font-size:5.98px;font-style:NORMAL;font-weight:normal;">68</text>
  <text svg_rhmargin="505.421" x="418.961,425.587,430.159,433.423,439.493,446.119,451.069,456.673,459.937,465.54,470.113,475.242,477.851,479.438,484.567,489.14,490.958,495.531,500.292,505.421" y="303.654" style="fill:#171615;font-family:HPMFEF+AdvOT6e5d2ec0;font-size:8.97px;font-style:NORMAL;font-weight:normal;">Ga-DOTA-Peptide and </text>
  <text x="507.231,510.944" y="303.654" svg_rhmargin="514.656" style="fill:#171615;font-family:HPMFEF+AdvOT6e5d2ec0;font-size:5.98px;font-style:NORMAL;font-weight:normal;">18</text>
  <text x="514.658,519.419,522.683,527.444,533.514,540.14,541.983,546.744,548.331,553.281,558.042,562.615,565.412,567.211,569.82,574.581,579.154" y="307.622" svg_rhmargin="583.915" style="fill:#171615;font-family:HPMFEF+AdvOT6e5d2ec0;font-size:8.97px;font-style:NORMAL;font-weight:normal;">F-FDG higher than</text>
  <text x="91.274,93.883,98.644,103.21700000000001,104.88,109.453,114.214,116.823,121.773,124.014,126.256,127.897,132.003,136.576,138.163,142.924,147.497,149.212,154.162,156.404,158.056,163.005,165.426,170.376,175.32500000000002,176.991,183.617,188.19,192.48499999999999,194.169,199.297,202.095,206.668,211.796,213.383,217.956,220.565,222.152,226.259,230.832,232.491,237.441,239.683,241.335,246.284,252.533,254.204,260.83,262.417,265.027,269.788,271.495,276.444,281.394,283.815,288.764,296.699,298.367,302.662,307.235,311.996,316.291,317.878,320.487,322.074,326.18,327.767,330.377,334.483,336.18,340.752,345.514,350.64300000000003,352.28,357.23,362.179,367.129,375.064,376.714,381.009,386.138,390.711,395.284" y="318.564" svg_rhmargin="396.871" style="fill:#171615;font-family:HPMFEF+AdvOT6e5d2ec0;font-size:8.97px;font-style:NORMAL;font-weight:normal;">the cutoff value of 4.28 was predictive of TC with 89.3% sensitivity and 100% speci</text>
  <text x="396.906" y="318.564" svg_rhmargin="400.824" style="fill:#171615;font-family:HPMFEI+AdvOT6e5d2ec0+fb;font-size:8.97px;font-style:NORMAL;font-weight:normal;">ﬁ</text>
  <text x="400.818,405.391,406.978,409.587,413.693,415.388,417.531,423.135,429.205,435.454,437.875,439.539,444.488,449.437,451.858,456.808,464.743,467.164,468.848,473.797,478.746,486.681,488.349,494.599,496.553,498.974,500.651,505.6,510.55,512.971" y="318.564" svg_rhmargin="517.92" style="fill:#171615;font-family:HPMFEF+AdvOT6e5d2ec0;font-size:8.97px;font-style:NORMAL;font-weight:normal;">city (AUC, 96.4%; 95% CI, 91.1</text>
  <text x="517.946" y="318.564" svg_rhmargin="522.429" style="fill:#171615;font-family:HPMFFJ+AdvOT6e5d2ec0+20;font-size:8.97px;font-style:NORMAL;font-weight:normal;">–</text>
  <text x="522.425,527.374,532.324,537.273,545.208,547.351,549.772,551.45,556.4,561.161,565.7339999999999,567.381,570.178,574.751,577.36,578.947" y="318.564" svg_rhmargin="583.896" style="fill:#171615;font-family:HPMFEF+AdvOT6e5d2ec0;font-size:8.97px;font-style:NORMAL;font-weight:normal;">100%). The ratio</text>
  <text x="91.274,96.223,98.465,100.741,103.351,108.112,115.482,120.431,123.228,125.572,130.333,135.462,138.071,142.644,147.127,151.70000000000002,154.031,156.64,161.589,163.952,168.525,171.134,175.707,177.294,181.867,186.44,189.049,193.622,196.231,197.818,202.39100000000002,204.713,206.3,211.061,215.822,220.77100000000002,223.081,227.842,232.971,235.58,240.153,244.636,249.209,251.54,258.166,262.739,267.034,269.341,273.636,275.223,280.172,284.934" y="329.562" svg_rhmargin="286.521" style="fill:#171615;font-family:HPMFEF+AdvOT6e5d2ec0;font-size:8.97px;font-style:NORMAL;font-weight:normal;">of tumor uptake to atelectatic lung uptake was signi</text>
  <text x="286.581" y="329.562" svg_rhmargin="290.499" style="fill:#171615;font-family:HPMFEI+AdvOT6e5d2ec0+fb;font-size:8.97px;font-style:NORMAL;font-weight:normal;">ﬁ</text>
  <text svg_rhmargin="350.766" x="290.493,295.066,299.639,304.4,307.009,308.596,312.702,315.041,319.802,321.389,326.338,331.099,335.672,338.46900000000005,340.778,343.02,347.969,350.766" y="325.537" style="fill:#171615;font-family:HPMFEF+AdvOT6e5d2ec0;font-size:8.97px;font-style:NORMAL;font-weight:normal;">cantly higher for </text>
  <text x="353.083,356.796" y="325.537" svg_rhmargin="360.508" style="fill:#171615;font-family:HPMFEF+AdvOT6e5d2ec0;font-size:5.98px;font-style:NORMAL;font-weight:normal;">68</text>
  <text x="360.51,367.136,371.709,374.973,381.043,387.669,392.619,398.222,401.486,406.615,411.188,416.316,418.926,420.513,425.641,430.214,432.564,434.707,439.657,442.078" y="329.562" svg_rhmargin="447.027" style="fill:#171615;font-family:HPMFEF+AdvOT6e5d2ec0;font-size:8.97px;font-style:NORMAL;font-weight:normal;">Ga-DOTA-peptide (2.5</text>
  <text x="447.081" y="329.562" svg_rhmargin="451.564" style="fill:#171615;font-family:HPMFFJ+AdvOT6e5d2ec0+20;font-size:8.97px;font-style:NORMAL;font-weight:normal;">–</text>
  <text svg_rhmargin="507.038" x="451.559,456.509,461.458,463.879,466.186,473.556,478.129,482.702,487.463,489.769,494.719,499.668,502.089,507.038" y="329.562" style="fill:#171615;font-family:HPMFEF+AdvOT6e5d2ec0;font-size:8.97px;font-style:NORMAL;font-weight:normal;">91, mean 30.5 </text>
  <text x="508.196" y="329.562" svg_rhmargin="514.266" style="fill:#171615;font-family:HPMFFI+AdvOTb0c9bf5d;font-size:8.97px;font-style:NORMAL;font-weight:normal;">±</text>
  <text svg_rhmargin="566.145" x="515.396,520.345,525.295,527.716,532.665,534.808,537.109,539.718,544.479,549.052,553.813,556.157,558.398,563.348,566.145" y="325.537" style="fill:#171615;font-family:HPMFEF+AdvOT6e5d2ec0;font-size:8.97px;font-style:NORMAL;font-weight:normal;">28.1) than for </text>
  <text x="568.46,572.172" y="325.537" svg_rhmargin="575.884" style="fill:#171615;font-family:HPMFEF+AdvOT6e5d2ec0;font-size:5.98px;font-style:NORMAL;font-weight:normal;">18</text>
  <text x="575.886,580.648" y="329.562" svg_rhmargin="583.912" style="fill:#171615;font-family:HPMFEF+AdvOT6e5d2ec0;font-size:8.97px;font-style:NORMAL;font-weight:normal;">F-</text>
  <text x="91.274,96.035,102.105,108.73100000000001,111.74,113.883,118.832,121.253" y="340.504" svg_rhmargin="126.202" style="fill:#171615;font-family:HPMFEF+AdvOT6e5d2ec0;font-size:8.97px;font-style:NORMAL;font-weight:normal;">FDG (0.3</text>
  <text x="126.197" y="340.504" svg_rhmargin="130.68" style="fill:#171615;font-family:HPMFFJ+AdvOT6e5d2ec0+20;font-size:8.97px;font-style:NORMAL;font-weight:normal;">–</text>
  <text svg_rhmargin="189.935" x="130.676,135.625,140.574,142.995,147.945,150.36599999999999,153.352,160.723,165.295,169.868,174.629,177.616,182.565,184.986,189.935" y="340.504" style="fill:#171615;font-family:HPMFEF+AdvOT6e5d2ec0;font-size:8.97px;font-style:NORMAL;font-weight:normal;">10.3, mean 2.1 </text>
  <text x="191.11" y="340.504" svg_rhmargin="197.18" style="fill:#171615;font-family:HPMFFI+AdvOTb0c9bf5d;font-size:8.97px;font-style:NORMAL;font-weight:normal;">±</text>
  <text x="198.254,203.203,205.624,210.573,212.716,215.715" y="340.504" svg_rhmargin="217.858" style="fill:#171615;font-family:HPMFEF+AdvOT6e5d2ec0;font-size:8.97px;font-style:NORMAL;font-weight:normal;">2.3) (</text>
  <text svg_rhmargin="223.473" x="217.869,223.473" y="340.504" style="fill:#171615;font-family:HPMFFK+AdvOT1deab444.I;font-size:8.97px;font-style:NORMAL;font-weight:normal;">P </text>
  <text x="224.616" y="340.504" svg_rhmargin="231.52" style="fill:#171615;font-family:HPMFFL+AdvP4C4E51;font-size:8.97px;font-style:NORMAL;font-weight:normal;">&lt;</text>
  <text x="232.666,235.087,240.037,244.986,249.935,252.078" y="340.504" svg_rhmargin="254.499" style="fill:#171615;font-family:HPMFEF+AdvOT6e5d2ec0;font-size:8.97px;font-style:NORMAL;font-weight:normal;">.001).</text>
  <text svg_rhmargin="152.902" x="91.276,98.497,104.634,110.524,116.414,118.733,124.623,130.178,132.497,138.556,144.446,150.001,152.90200000000002" y="354.677" style="fill:#171615;font-family:HPMFEH+AdvOT91f5f621.B;font-size:7.97px;font-style:NORMAL;font-weight:normal;">Conclusions: </text>
  <text svg_rhmargin="173.573" x="155.282,161.253,166.203,168.812,173.573" y="350.709" style="fill:#171615;font-family:HPMFEF+AdvOT6e5d2ec0;font-size:8.97px;font-style:NORMAL;font-weight:normal;">Both </text>
  <text x="176.372,180.084" y="350.709" svg_rhmargin="183.796" style="fill:#171615;font-family:HPMFEF+AdvOT6e5d2ec0;font-size:5.98px;font-style:NORMAL;font-weight:normal;">68</text>
  <text svg_rhmargin="270.769" x="183.798,190.424,194.997,198.261,204.331,210.957,215.907,221.511,224.774,229.903,234.476,239.605,242.214,243.801,248.93,253.50300000000001,256.306,260.879,265.64,270.769" y="350.709" style="fill:#171615;font-family:HPMFEF+AdvOT6e5d2ec0;font-size:8.97px;font-style:NORMAL;font-weight:normal;">Ga-DOTA-peptide and </text>
  <text x="273.6,277.313" y="350.709" svg_rhmargin="281.025" style="fill:#171615;font-family:HPMFEF+AdvOT6e5d2ec0;font-size:5.98px;font-style:NORMAL;font-weight:normal;">18</text>
  <text svg_rhmargin="532.708" x="281.027,285.788,289.052,293.813,299.883,306.50899999999996,309.259,313.832,316.629,321.202,323.999,328.76,330.347,335.296,340.057,341.644,345.75,348.546,352.841,357.413,362.174,366.469,368.056,370.666,372.253,376.359,380.93199999999996,383.694,385.282,390.043,392.822,397.951,402.524,405.133,409.706,414.279,416.888,418.475,423.236,428.185,430.976,436.104,440.865,442.452,449.823,454.772,459.533,464.106,466.904,471.01,473.834,478.406,482.979,485.777,490.35,491.937,496.698,501.647,503.234,508.363,510.784,513.574,520.2,524.961,526.548,528.135,532.708" y="350.709" style="fill:#171615;font-family:HPMFEF+AdvOT6e5d2ec0;font-size:8.97px;font-style:NORMAL;font-weight:normal;">F-FDG are highly sensitive in detecting pulmonary carcinoid, while </text>
  <text x="535.464,539.177" y="350.709" svg_rhmargin="542.889" style="fill:#171615;font-family:HPMFEF+AdvOT6e5d2ec0;font-size:5.98px;font-style:NORMAL;font-weight:normal;">68</text>
  <text x="542.948,549.574,554.147,557.411,563.481,570.107,575.056,580.66" y="354.677" svg_rhmargin="583.924" style="fill:#171615;font-family:HPMFEF+AdvOT6e5d2ec0;font-size:8.97px;font-style:NORMAL;font-weight:normal;">Ga-DOTA-</text>
  <text svg_rhmargin="201.689" x="91.274,96.403,100.976,106.104,108.714,110.301,115.429,120.00200000000001,121.774,123.361,127.656,129.428,136.798,141.747,144.545,149.118,150.857,155.152,159.725,164.486,168.781,170.368,172.977,174.564,178.67,183.243,184.985,187.594,192.355,196.928,201.689" y="361.707" style="fill:#171615;font-family:HPMFEF+AdvOT6e5d2ec0;font-size:8.97px;font-style:NORMAL;font-weight:normal;">peptide is more sensitive than </text>
  <text x="203.471,207.183" y="361.707" svg_rhmargin="210.895" style="fill:#171615;font-family:HPMFEF+AdvOT6e5d2ec0;font-size:5.98px;font-style:NORMAL;font-weight:normal;">18</text>
  <text x="210.898,215.659,218.922,223.684,229.754,236.38,238.166,240.309,245.258,250.208,252.629,257.578,265.513,267.249,271.356,275.651,277.454,282.403,287.352,289.773,294.723,302.658,304.801,307.222,308.974,313.923,318.684,323.257,325.017,330.621,336.691,341.919,349.289,353.862,358.15700000000004,359.882,362.679,367.252,369.861,371.448,376.397,378.193,384.819,389.392,393.687,395.427,400.0,404.761,406.539,411.112,415.684,420.257,425.018,427.816,432.389,434.998,439.57099999999997,441.347,446.476,449.273,453.846,458.975,460.562,465.134,467.744,472.693,475.49,477.232,482.181,484.423,486.189,488.798,493.559,498.132,499.908,504.67,506.257,510.551,513.161,518.11,523.239,527.812,530.421,535.182,540.131,541.718,546.668,551.617,553.204,557.7769999999999,559.547,563.654,568.226,571.024,572.611,577.184,579.793" y="365.676" svg_rhmargin="583.9" style="fill:#171615;font-family:HPMFEF+AdvOT6e5d2ec0;font-size:8.97px;font-style:NORMAL;font-weight:normal;">F-FDG (90.0% vs 71.0%). The SUVmax ratio was an accurate predictor of the histopathologic variety</text>
  <text svg_rhmargin="196.331" x="91.275,96.225,98.467,101.424,104.033,108.794,113.36699999999999,116.39,120.963,125.536,128.333,132.906,134.493,139.254,144.204,145.791,150.92,153.919,156.529,161.29,168.66,173.609,176.407,178.828,181.868,186.441,191.202,196.331" y="372.649" style="fill:#171615;font-family:HPMFEF+AdvOT6e5d2ec0;font-size:8.97px;font-style:NORMAL;font-weight:normal;">of the carcinoid tumor, and </text>
  <text x="199.332,203.045" y="372.649" svg_rhmargin="206.757" style="fill:#171615;font-family:HPMFEF+AdvOT6e5d2ec0;font-size:5.98px;font-style:NORMAL;font-weight:normal;">68</text>
  <text svg_rhmargin="339.963" x="206.759,213.385,217.958,221.222,227.292,233.918,238.867,244.471,247.735,252.864,257.437,262.565,265.174,266.762,271.89,276.46299999999997,279.494,286.12,290.693,294.988,297.975,303.104,307.677,310.286,312.895,317.468,320.26500000000004,323.259,325.868,330.629,335.202,339.963" y="372.649" style="fill:#171615;font-family:HPMFEF+AdvOT6e5d2ec0;font-size:8.97px;font-style:NORMAL;font-weight:normal;">Ga-DOTA-peptide was better than </text>
  <text x="342.992,346.705" y="372.649" svg_rhmargin="350.417" style="fill:#171615;font-family:HPMFEF+AdvOT6e5d2ec0;font-size:5.98px;font-style:NORMAL;font-weight:normal;">18</text>
  <text x="350.419,355.18,358.444,363.205,369.275,375.90099999999995,378.934,380.521,385.28200000000004,388.231,392.804,397.377,401.672,406.245,410.54,413.572,420.198,421.785,424.394,429.15500000000003,432.11,436.683,439.292,443.865,445.452,450.025,454.597,457.207,461.779,466.074,467.661,471.956" y="376.617" svg_rhmargin="474.377" style="fill:#171615;font-family:HPMFEF+AdvOT6e5d2ec0;font-size:8.97px;font-style:NORMAL;font-weight:normal;">F-FDG in cases with atelectasis.</text>
  <text svg_rhmargin="159.934" x="91.276,97.915,104.052,110.189,114.254,120.131,125.439,127.758,133.648,137.131,139.451,145.588,151.478,157.033,159.934" y="387.843" style="fill:#171615;font-family:HPMFEH+AdvOT91f5f621.B;font-size:7.97px;font-style:NORMAL;font-weight:normal;">Abbreviations: </text>
  <text x="166.961,170.673" y="387.843" svg_rhmargin="174.385" style="fill:#171615;font-family:HPMFEF+AdvOT6e5d2ec0;font-size:5.98px;font-style:NORMAL;font-weight:normal;">18</text>
  <text svg_rhmargin="199.926" x="174.444,179.205,182.469,187.23,193.3,199.92600000000002" y="391.868" style="fill:#171615;font-family:HPMFEF+AdvOT6e5d2ec0;font-size:8.97px;font-style:NORMAL;font-weight:normal;">F-FDG </text>
  <text svg_rhmargin="209.711" x="203.641,209.71099999999998" y="387.843" style="fill:#171615;font-family:HPMFFI+AdvOTb0c9bf5d;font-size:8.97px;font-style:NORMAL;font-weight:normal;">= </text>
  <text x="213.392,217.105" y="387.843" svg_rhmargin="220.817" style="fill:#171615;font-family:HPMFEF+AdvOT6e5d2ec0;font-size:5.98px;font-style:NORMAL;font-weight:normal;">18</text>
  <text x="220.819,225.58" y="391.868" svg_rhmargin="228.844" style="fill:#171615;font-family:HPMFEF+AdvOT6e5d2ec0;font-size:8.97px;font-style:NORMAL;font-weight:normal;">F-</text>
  <text x="228.87" y="391.868" svg_rhmargin="232.788" style="fill:#171615;font-family:HPMFEI+AdvOT6e5d2ec0+fb;font-size:8.97px;font-style:NORMAL;font-weight:normal;">ﬂ</text>
  <text svg_rhmargin="305.4" x="232.782,237.543,242.492,245.29,250.239,255.368,259.941,264.89,269.185,273.291,278.241,279.828,284.589,289.162,294.111,298.406,302.979,305.4" y="387.843" style="fill:#171615;font-family:HPMFEF+AdvOT6e5d2ec0;font-size:8.97px;font-style:NORMAL;font-weight:normal;">uorodeoxyglucose, </text>
  <text x="309.146,312.859" y="387.843" svg_rhmargin="316.571" style="fill:#171615;font-family:HPMFEF+AdvOT6e5d2ec0;font-size:5.98px;font-style:NORMAL;font-weight:normal;">68</text>
  <text svg_rhmargin="386.753" x="316.573,323.199,327.772,331.036,337.106,343.732,348.682,354.285,357.549,363.153,367.726,372.855,375.464,377.051,382.18,386.753" y="391.868" style="fill:#171615;font-family:HPMFEF+AdvOT6e5d2ec0;font-size:8.97px;font-style:NORMAL;font-weight:normal;">Ga-DOTA-Peptide </text>
  <text svg_rhmargin="396.571" x="390.501,396.57099999999997" y="387.843" style="fill:#171615;font-family:HPMFFI+AdvOTb0c9bf5d;font-size:8.97px;font-style:NORMAL;font-weight:normal;">= </text>
  <text x="400.309,404.021" y="387.843" svg_rhmargin="407.733" style="fill:#171615;font-family:HPMFEF+AdvOT6e5d2ec0;font-size:5.98px;font-style:NORMAL;font-weight:normal;">68</text>
  <text x="407.735,414.361,418.934,422.198,423.785,428.358,433.487,438.059,439.646,441.233,445.806,450.935,454.676,456.819,461.768,464.189,469.138,471.559,476.509,478.93,483.879,488.828,492.092,494.701,499.274,501.883,504.681,509.254,513.826,517.933,522.506,527.079,531.185,535.758,537.345,542.294,547.423,552.372,557.501,562.074,566.647,571.22,575.981,580.554" y="391.868" svg_rhmargin="583.818" style="fill:#171615;font-family:HPMFEF+AdvOT6e5d2ec0;font-size:8.97px;font-style:NORMAL;font-weight:normal;">Ga-labelled [1,4,7,10-tetraazacyclododecane-</text>
  <text svg_rhmargin="234.764" x="91.274,96.224,98.645,103.594,106.015,110.964,113.385,118.335,123.284,126.548,129.157,133.73,136.339,139.136,143.709,148.282,152.855,157.428,160.037,161.624,166.197,168.317,172.89,177.463,179.05,184.179,186.321,189.585,194.714,199.287,204.415,207.025,208.612,213.74,218.313,220.73399999999998,222.91,228.514,234.763" y="401.789" style="fill:#171615;font-family:HPMFEF+AdvOT6e5d2ec0;font-size:8.97px;font-style:NORMAL;font-weight:normal;">1,4,7,10-tetraacetic acid]-peptide, AC </text>
  <text svg_rhmargin="242.932" x="236.862,242.932" y="401.789" style="fill:#171615;font-family:HPMFFI+AdvOTb0c9bf5d;font-size:8.97px;font-style:NORMAL;font-weight:normal;">= </text>
  <text svg_rhmargin="323.073" x="244.969,249.542,252.151,256.258,261.386,262.973,267.546,272.119,273.706,275.809,280.382,284.954,287.752,292.325,293.912,298.673,303.622,305.209,310.338,312.759,314.869,321.118,323.073" y="401.789" style="fill:#171615;font-family:HPMFEF+AdvOT6e5d2ec0;font-size:8.97px;font-style:NORMAL;font-weight:normal;">atypical carcinoid, CI </text>
  <text svg_rhmargin="331.26" x="325.19,331.26" y="401.789" style="fill:#171615;font-family:HPMFFI+AdvOTb0c9bf5d;font-size:8.97px;font-style:NORMAL;font-weight:normal;">= </text>
  <text x="333.354,337.926,342.876" y="401.789" svg_rhmargin="347.637" style="fill:#171615;font-family:HPMFEF+AdvOT6e5d2ec0;font-size:8.97px;font-style:NORMAL;font-weight:normal;">con</text>
  <text x="347.64" y="401.789" svg_rhmargin="351.558" style="fill:#171615;font-family:HPMFEI+AdvOT6e5d2ec0+fb;font-size:8.97px;font-style:NORMAL;font-weight:normal;">ﬁ</text>
  <text svg_rhmargin="419.555" x="351.552,356.681,361.254,366.015,370.588,375.161,377.234,378.821,383.582,386.191,390.764,393.561,397.668,402.241,403.828,406.24899999999997,408.357,414.606,419.555" y="401.789" style="fill:#171615;font-family:HPMFEF+AdvOT6e5d2ec0;font-size:8.97px;font-style:NORMAL;font-weight:normal;">dence interval, CT </text>
  <text svg_rhmargin="427.751" x="421.681,427.751" y="401.789" style="fill:#171615;font-family:HPMFFI+AdvOTb0c9bf5d;font-size:8.97px;font-style:NORMAL;font-weight:normal;">= </text>
  <text svg_rhmargin="533.595" x="429.845,434.418,439.368,446.738,451.867,456.628,459.237,463.81,468.939,471.06,473.669,478.618,485.989,490.938,495.888,498.685,503.258,508.387,513.148,517.254,519.6750000000001,521.741,527.345,533.594" y="401.789" style="fill:#171615;font-family:HPMFEF+AdvOT6e5d2ec0;font-size:8.97px;font-style:NORMAL;font-weight:normal;">computed tomography, PC </text>
  <text svg_rhmargin="541.762" x="535.692,541.7620000000001" y="401.789" style="fill:#171615;font-family:HPMFFI+AdvOTb0c9bf5d;font-size:8.97px;font-style:NORMAL;font-weight:normal;">= </text>
  <text x="543.855,548.984,553.745,555.332,562.703,567.652,572.413,576.986,579.783" y="401.789" svg_rhmargin="583.89" style="fill:#171615;font-family:HPMFEF+AdvOT6e5d2ec0;font-size:8.97px;font-style:NORMAL;font-weight:normal;">pulmonary</text>
  <text svg_rhmargin="151.33" x="91.274,95.847,100.42,103.217,107.79,109.377,114.138,119.088,120.675,125.803,130.098,132.519,135.55,141.154,146.381,151.33" y="411.767" style="fill:#171615;font-family:HPMFEF+AdvOT6e5d2ec0;font-size:8.97px;font-style:NORMAL;font-weight:normal;">carcinoids, PET </text>
  <text svg_rhmargin="160.387" x="154.317,160.387" y="411.767" style="fill:#171615;font-family:HPMFFI+AdvOTb0c9bf5d;font-size:8.97px;font-style:NORMAL;font-weight:normal;">= </text>
  <text svg_rhmargin="302.402" x="163.331,168.46,173.409,177.704,179.291,181.9,184.698,189.647,194.408,197.459,202.032,209.403,210.99,215.284,219.579,221.166,226.116,230.877,233.855,236.465,241.414,248.784,253.734,258.683,261.481,266.053,271.182,275.943,280.05,282.471,285.5,291.104,297.175,302.402" y="411.767" style="fill:#171615;font-family:HPMFEF+AdvOT6e5d2ec0;font-size:8.97px;font-style:NORMAL;font-weight:normal;">positron emission tomography, SUV </text>
  <text svg_rhmargin="311.474" x="305.404,311.474" y="411.767" style="fill:#171615;font-family:HPMFFI+AdvOTb0c9bf5d;font-size:8.97px;font-style:NORMAL;font-weight:normal;">= </text>
  <text svg_rhmargin="432.084" x="314.475,318.77,321.379,325.952,330.713,335.842,340.415,343.212,348.341,349.928,354.034,358.607,363.73600000000005,366.744,371.505,376.634,379.243,383.816,388.299,392.87199999999996,395.884,399.99,404.563,406.15,410.911,415.484,417.905,420.884,425.834,432.083" y="411.767" style="fill:#171615;font-family:HPMFEF+AdvOT6e5d2ec0;font-size:8.97px;font-style:NORMAL;font-weight:normal;">standardized uptake value, TC </text>
  <text svg_rhmargin="441.188" x="435.118,441.188" y="411.767" style="fill:#171615;font-family:HPMFFI+AdvOTb0c9bf5d;font-size:8.97px;font-style:NORMAL;font-weight:normal;">= </text>
  <text x="444.132,446.741,450.848,455.977,457.564,462.137,466.709,468.296,471.344,475.917,480.49,483.287,487.86,489.447,494.208,499.158,500.745,505.873" y="411.767" svg_rhmargin="508.294" style="fill:#171615;font-family:HPMFEF+AdvOT6e5d2ec0;font-size:8.97px;font-style:NORMAL;font-weight:normal;">typical carcinoid.</text>
  <text svg_rhmargin="142.36" x="91.276,98.162,104.14,109.28,117.665,123.702,127.767,133.904,139.459,142.36" y="422.765" style="fill:#171615;font-family:HPMFEH+AdvOT91f5f621.B;font-size:7.97px;font-style:NORMAL;font-weight:normal;">Keywords: </text>
  <text x="145.02,148.733" y="422.765" svg_rhmargin="152.445" style="fill:#171615;font-family:HPMFEF+AdvOT6e5d2ec0;font-size:5.98px;font-style:NORMAL;font-weight:normal;">18</text>
  <text svg_rhmargin="180.35" x="152.447,157.208,160.472,165.233,171.303,177.929,180.35" y="422.765" style="fill:#171615;font-family:HPMFEF+AdvOT6e5d2ec0;font-size:8.97px;font-style:NORMAL;font-weight:normal;">F-FDG, </text>
  <text x="183.345,187.057" y="422.765" svg_rhmargin="190.769" style="fill:#171615;font-family:HPMFEF+AdvOT6e5d2ec0;font-size:5.98px;font-style:NORMAL;font-weight:normal;">68</text>
  <text x="190.772,197.398,201.971,205.234,211.304,217.931,222.88,228.484,231.748,236.876,241.449,246.578,249.187,250.774,255.903,260.476,262.897,265.943,271.547,276.775,281.724,284.611,290.861,295.81,298.231,301.262,306.39,311.151,312.738,320.109,325.058,329.819,334.392,337.19,341.296,344.29,348.863,353.436,356.233,360.806,362.393,367.154,372.103,373.69" y="426.734" svg_rhmargin="378.819" style="fill:#171615;font-family:HPMFEF+AdvOT6e5d2ec0;font-size:8.97px;font-style:NORMAL;font-weight:normal;">Ga-DOTA-peptide, PET/CT, pulmonary carcinoid</text>
  <text x="345.09,351.005,353.95799999999997,358.639,361.592,367.508,371.151,375.089,380.805,386.721,392.636,398.154,401.798,404.552,410.269" y="483.257" svg_rhmargin="416.184" style="fill:#171615;font-family:HPMFED+AdvOTfbba3ace.B;font-size:9.46px;font-style:NORMAL;font-weight:normal;">1. Introduction</text>
  <text x="345.09,350.039,354.988,357.409,364.78,369.729,374.678,379.162,382.614,387.097,393.561,397.479,401.962,405.414,409.332,411.753,416.703,421.652,424.073,429.022,432.474,438.97,441.858,446.807,453.245,456.132,462.668,467.151,470.603,474.521,480.979,484.431,488.915,492.367,496.285,502.806,510.176,514.659,517.08,519.501,523.984,528.934,533.417,538.366,541.2529999999999,547.762,552.712,556.63,561.579,566.529,568.95,573.433,576.885,584.255,587.707" y="499.187" svg_rhmargin="590.128" style="fill:#171615;font-family:HPMFFM+AdvOTbc475f09;font-size:8.97px;font-style:NORMAL;font-weight:normal;">Pulmonary carcinoids (PC) are rare malignant neoplasms,</text>
  <text x="345.09,349.573,353.491,357.409,362.359,367.308,372.258,375.145,377.566,382.515,386.998,390.273,393.16,398.109,401.561,404.843" y="510.186" svg_rhmargin="409.792" style="fill:#171615;font-family:HPMFFM+AdvOTbc475f09;font-size:8.97px;font-style:NORMAL;font-weight:normal;">accounting for 2</text>
  <text x="409.834" y="510.186" svg_rhmargin="414.317" style="fill:#171615;font-family:HPMFFN+AdvOTbc475f09+20;font-size:8.97px;font-style:NORMAL;font-weight:normal;">–</text>
  <text x="414.312,419.262,428.228,431.49,436.439,439.326,442.602,447.085,449.506,451.92699999999996,455.244,457.665,462.615,467.564,472.047,475.314,478.201,483.15,490.52,495.47,498.922,502.374,504.795,508.137,515.041,517.462,520.349,525.298,528.603,533.086,538.035,541.302,545.785,550.734,555.684,559.136,564.085,569.035,571.456,578.826,583.309,586.196" y="510.186" svg_rhmargin="590.114" style="fill:#171615;font-family:HPMFFM+AdvOTbc475f09;font-size:8.97px;font-style:NORMAL;font-weight:normal;">5% of all lung tumors, with an approximate</text>
  <text x="345.09,349.573,354.522,359.472,364.421,368.904,371.325,373.095,375.516,380.465,384.384,386.805,391.754,395.672,400.622,404.54,408.458,410.227,415.177,418.064,419.808,424.757,427.178" y="521.127" svg_rhmargin="432.127" style="fill:#171615;font-family:HPMFFM+AdvOTbc475f09;font-size:8.97px;font-style:NORMAL;font-weight:normal;">annual incidence of 2.3</text>
  <text x="432.17" y="521.127" svg_rhmargin="436.653" style="fill:#171615;font-family:HPMFFN+AdvOTbc475f09+20;font-size:8.97px;font-style:NORMAL;font-weight:normal;">–</text>
  <text x="436.649,441.598,444.019,448.968,450.708,454.627,459.11,462.562,466.48,469.932,471.741,476.69,480.608,484.06,485.8,493.17,495.591,498.012,500.433,502.854,507.803,512.752,514.599,519.548,522.435,524.179,527.066,532.016,535.934,537.728,542.677,547.627,552.576,557.526,559.947,564.43,567.317,569.738,574.687,579.637" y="521.127" svg_rhmargin="582.058" style="fill:#171615;font-family:HPMFFM+AdvOTbc475f09;font-size:8.97px;font-style:NORMAL;font-weight:normal;">2.8 cases per million of the population.</text>
  <text x="582.066,584.232,587.945" y="517.159" svg_rhmargin="590.11" style="fill:#171615;font-family:HPMFFM+AdvOTbc475f09;font-size:5.98px;font-style:NORMAL;font-weight:normal;">[2]</text>
  <text x="345.09,350.039,354.988,358.44,362.153,365.041,369.99,373.908,377.687,382.636,387.586,391.038,395.987,400.936,404.388,408.306,412.041,416.991,419.878,423.607,427.525,429.946,432.367,437.316,439.737,443.655,448.139,450.56,454.333,459.283,463.201,467.119,469.54,472.992,475.413,480.363,485.312,489.085,496.455,500.938,505.888,508.309,513.258,517.741,520.162,523.95,526.837,531.786,535.704,539.426,544.376,547.828,551.746,554.633,559.583,564.532,568.45,571.902,576.385,579.273,581.693,586.177" y="532.069" svg_rhmargin="590.095" style="fill:#171615;font-family:HPMFFM+AdvOTbc475f09;font-size:8.97px;font-style:NORMAL;font-weight:normal;">For the purpose of clinical decision making, the pre-operative</text>
  <text x="345.09,348.542,351.429,355.912,360.395,362.816,367.765,372.248,374.966,377.853,382.803,386.255,389.025,391.913,396.862,400.78,404.232,408.15000000000003,410.909,413.796,418.745,426.115,431.065,434.517,437.969,440.785,443.206,446.658,449.403,453.321,456.773,461.722,465.641,468.062,472.545,474.966,477.387,480.129,484.613,489.562,493.014,497.497,499.918,503.836,508.319,510.74,513.52,516.972,520.89,524.342,528.26,532.179,535.066,537.487,542.436,547.385,550.199,552.62,556.072,558.817,561.704,566.653,570.571,573.33,577.813,582.762,585.183" y="543.067" svg_rhmargin="590.132" style="fill:#171615;font-family:HPMFFM+AdvOTbc475f09;font-size:8.97px;font-style:NORMAL;font-weight:normal;">staging for these tumors is crucial. Surgical resection is the gold</text>
  <text x="345.09,348.542,351.429,355.912,360.861,365.811,370.294,373.746,378.695,380.522,385.471,388.358,390.16,393.047,396.499,400.417,404.9,407.787,415.158,419.076,424.025,426.912,428.823,431.71,436.66,440.112,441.919,446.869,451.818,454.239,461.609,466.559,471.508,475.991,479.443,483.926,485.798,489.716,494.199,497.651,501.57,503.991,508.94,513.889,516.31,521.26,523.681,525.538,528.425,533.375,537.293,539.145,542.597,547.08,552.029,556.512,560.43,562.275,567.224,570.111,571.913,574.334,579.283,583.202,587.685" y="554.009" svg_rhmargin="590.106" style="fill:#171615;font-family:HPMFFM+AdvOTbc475f09;font-size:8.97px;font-style:NORMAL;font-weight:normal;">standard of treatment for pulmonary carcinoid, the range of local</text>
  <text x="345.09,348.542,352.46,355.912,359.83,363.749,366.636,369.057,374.006,378.955,382.279,386.762,391.712,396.661,400.024,403.476,407.959,411.411,414.298,418.216,425.586,430.07,432.957,435.378,439.296,442.656,445.077,449.56,456.93,461.879,466.82800000000003,470.207,475.157,480.106,485.056,488.974,492.426,495.775,499.227,503.145,506.597,510.515,514.434,517.321,519.742,524.691,529.64,533.021,537.97,541.888,546.838,550.756,555.706,560.655,563.974,571.345,575.828,578.249,583.198,585.619" y="564.951" svg_rhmargin="590.102" style="fill:#171615;font-family:HPMFFM+AdvOTbc475f09;font-size:8.97px;font-style:NORMAL;font-weight:normal;">resection and systematic lymph nodes resection depend mainly</text>
  <text x="345.09,350.039,354.988,359.938,364.887,366.859,370.777,375.26,378.148,383.097,385.518,390.467,392.888,396.34,399.227,404.177,406.598,411.547,416.03,420.513,422.529,426.447,431.397,435.88,439.332,443.815,447.733,450.62,454.539,457.991,460.412,463.864,466.751,469.172,473.09,476.542,478.596,483.546,485.966,490.45,494.933,499.882,504.832,508.284,510.704,515.654,520.137,522.135,525.022,529.505,534.454,536.875,540.794,545.277,547.6980000000001,549.686,554.636,558.088,560.061,564.544,567.432,571.915,576.864,579.285,583.203,587.686" y="575.9490000000001" svg_rhmargin="590.107" style="fill:#171615;font-family:HPMFFM+AdvOTbc475f09;font-size:8.97px;font-style:NORMAL;font-weight:normal;">upon cyto/histology characteristics diagnosing typical or atypical</text>
  <text x="345.09,349.008,353.491,356.943,360.861,363.282,368.232,373.181,375.602,380.551" y="586.89" svg_rhmargin="382.972" style="fill:#171615;font-family:HPMFFM+AdvOTbc475f09;font-size:8.97px;font-style:NORMAL;font-weight:normal;">carcinoid.</text>
  <text svg_rhmargin="391.004" x="382.961,385.126,388.839,391.004" y="586.891" style="fill:#171615;font-family:HPMFFM+AdvOTbc475f09;font-size:5.98px;font-style:NORMAL;font-weight:normal;">[3] </text>
  <text x="398.041,407.007,409.428,412.315,417.264,424.289,427.176,432.125,436.043,443.053,448.003,451.921,456.404,460.323,462.743,467.693,472.642,480.013,483.931,488.88,491.767,498.781,503.73,506.617,513.634,516.521,521.471,526.42,530.339,533.226,535.647,540.596,545.545,550.029,552.45,559.497,561.918,569.288,573.771,578.254,580.675,585.625" y="586.891" svg_rhmargin="590.108" style="fill:#171615;font-family:HPMFFM+AdvOTbc475f09;font-size:8.97px;font-style:NORMAL;font-weight:normal;">With the development of functional imaging</text>
  <text x="345.089,349.008,353.491,357.974,360.395,365.344,369.827,372.715,375.135,380.085,385.034,389.195,394.144,397.596,400.017,404.966,409.449,413.629,418.578,423.528,427.446,429.867,433.785,438.268,441.71999999999997,445.942,453.313,457.231,462.18,464.601,468.52,470.94,475.89,479.808,484.038,486.926,490.844,494.762,499.712,504.661,507.082,512.031,516.981,520.899,524.351,528.541,533.49,538.44,541.892,544.313,549.262,553.7449999999999,557.964,560.385,564.868,568.32,571.207,575.368,578.255,585.159" y="597.833" svg_rhmargin="590.108" style="fill:#171615;font-family:HPMFFM+AdvOTbc475f09;font-size:8.97px;font-style:NORMAL;font-weight:normal;">evaluation using nuclear medicine techniques during last two</text>
  <text x="345.089,350.039,353.957,357.875,362.359,367.308,371.226,374.678,377.099,381.825,386.775,391.724,396.207,399.659,402.08,405.998,408.419,412.902,417.852,421.304,426.044,430.994,435.477,439.96,443.878,448.551,455.921,460.87,464.322,468.24,472.985,476.903,481.852" y="608.775" svg_rhmargin="486.801" style="fill:#171615;font-family:HPMFFM+AdvOTbc475f09;font-size:8.97px;font-style:NORMAL;font-weight:normal;">decades, physicians have more con</text>
  <text x="486.822" y="608.775" svg_rhmargin="491.771" style="fill:#171615;font-family:HPMFFO+AdvOTbc475f09+fb;font-size:8.97px;font-style:NORMAL;font-weight:normal;">ﬁ</text>
  <text x="491.755,496.704,500.622,505.572,509.49,513.408,518.173,520.594,525.543,530.249,533.136,538.085,542.003,546.746,550.664,555.614,560.097,562.518,564.939,568.857,573.806,578.289,580.71,585.66" y="608.775" svg_rhmargin="590.143" style="fill:#171615;font-family:HPMFFM+AdvOTbc475f09;font-size:8.97px;font-style:NORMAL;font-weight:normal;">dence in the challenging</text>
  <text x="345.089,349.008,351.429,353.849,358.799,361.22,365.138,369.621,372.042,378.537,383.487,387.405,391.323,393.744,397.196,399.617,404.566,409.516,412.403,419.773,424.256,429.206,431.627,436.576,441.059,447.643,452.593,456.045,460.994,464.912,468.831,472.283,475.735,482.225,485.113,490.062,493.514,500.027,503.479,508.429,512.347,517.2959999999999,523.838,527.29,531.773,535.225,539.143,545.665,549.583,554.532,557.419,559.84,562.728,565.148,569.067,572.519" y="619.773" svg_rhmargin="574.94" style="fill:#171615;font-family:HPMFFM+AdvOTbc475f09;font-size:8.97px;font-style:NORMAL;font-weight:normal;">clinical decision-making process for such rare entities.</text>
  <text x="574.979,577.145" y="615.748" svg_rhmargin="580.857" style="fill:#171615;font-family:HPMFFM+AdvOTbc475f09;font-size:5.98px;font-style:NORMAL;font-weight:normal;">[4</text>
  <text x="580.875" y="615.748" svg_rhmargin="584.237" style="fill:#171615;font-family:HPMFFN+AdvOTbc475f09+20;font-size:5.98px;font-style:NORMAL;font-weight:normal;">–</text>
  <text x="584.22,587.933" y="615.748" svg_rhmargin="590.098" style="fill:#171615;font-family:HPMFFM+AdvOTbc475f09;font-size:5.98px;font-style:NORMAL;font-weight:normal;">6]</text>
  <text x="345.09,350.039,354.988,358.441,360.861,363.749,367.201,372.15,377.099,381.769,385.687,393.058,395.479,398.931,402.383,404.803,409.753,414.702,419.412,422.299,427.249,434.619,439.569,444.052,447.504,451.987,456.936,461.886,466.369,471.058,473.945,478.895,484.31,490.192,493.079,495.5,500.198,505.147,508.599,511.02,515.969,520.452,525.142,530.091,532.512,535.399,538.287,542.205,545.657,549.575,554.525,557.4119999999999,562.105,564.992,568.444,572.927,576.845,580.764,584.216,587.668" y="630.715" svg_rhmargin="590.089" style="fill:#171615;font-family:HPMFFM+AdvOTbc475f09;font-size:8.97px;font-style:NORMAL;font-weight:normal;">Positron emission tomography (PET), using different tracers,</text>
  <text x="345.09,350.039,354.522,357.974,360.113,365.062,370.012,372.899,376.817,381.766,384.654,387.074,391.558,393.979,396.225,398.645,403.594,405.806,408.693,413.642,417.56,419.752,426.656,431.606,435.058,440.007,442.894,447.844,452.793,454.957,459.907,463.359,468.308,472.227,476.145,479.597,483.049,485.287,490.236,493.123,495.321,500.27,505.22,507.641,515.011,519.96,524.91,529.393,532.845,537.328,539.484,543.402,547.885,551.337,555.255,557.676,562.626,567.575,569.996,574.945,578.397" y="641.657" svg_rhmargin="580.818" style="fill:#171615;font-family:HPMFFM+AdvOTbc475f09;font-size:8.97px;font-style:NORMAL;font-weight:normal;">has potential in the work-up process of pulmonary carcinoids.</text>
  <text x="580.875,583.041" y="637.688" svg_rhmargin="586.753" style="fill:#171615;font-family:HPMFFM+AdvOTbc475f09;font-size:5.98px;font-style:NORMAL;font-weight:normal;">[7</text>
  <text x="586.772" y="637.688" svg_rhmargin="590.134" style="fill:#171615;font-family:HPMFFN+AdvOTbc475f09+20;font-size:5.98px;font-style:NORMAL;font-weight:normal;">–</text>
  <text svg_rhmargin="350.968" x="345.091,348.803,350.968" y="652.655" style="fill:#171615;font-family:HPMFFM+AdvOTbc475f09;font-size:5.98px;font-style:NORMAL;font-weight:normal;">9] </text>
  <text x="354.16,359.11,364.059,366.946,371.896,374.317,379.266,384.216,387.668,392.617,395.504,400.454,404.372,409.321,414.271,418.754,423.237,425.658,430.607,434.525,439.475,442.927,446.845,450.138" y="652.655" svg_rhmargin="453.025" style="fill:#171615;font-family:HPMFFM+AdvOTbc475f09;font-size:8.97px;font-style:NORMAL;font-weight:normal;">18-Fluoro-deoxyglucose (</text>
  <text x="453.033,456.746" y="648.63" svg_rhmargin="460.458" style="fill:#171615;font-family:HPMFFM+AdvOTbc475f09;font-size:5.98px;font-style:NORMAL;font-weight:normal;">18</text>
  <text svg_rhmargin="543.305" x="460.46,465.409,472.313,479.217,482.104,485.347,492.251,496.735,500.187,503.432,508.382,513.331,517.249,520.496,525.446,528.333,531.551,534.438,539.387,543.305" y="652.655" style="fill:#171615;font-family:HPMFFM+AdvOTbc475f09;font-size:8.97px;font-style:NORMAL;font-weight:normal;">FDG) was one of the </text>
  <text x="546.577" y="652.655" svg_rhmargin="551.526" style="fill:#171615;font-family:HPMFFO+AdvOTbc475f09+fb;font-size:8.97px;font-style:NORMAL;font-weight:normal;">ﬁ</text>
  <text x="551.509,554.961,558.413,561.3,564.548,567.435,570.887,575.37,579.288,583.207,586.659" y="652.655" svg_rhmargin="590.111" style="fill:#171615;font-family:HPMFFM+AdvOTbc475f09;font-size:8.97px;font-style:NORMAL;font-weight:normal;">rst tracers</text>
  <text x="345.089,350.039,353.957,358.44,362.359,364.779,369.729,374.678,378.597,383.546,388.232,390.653,395.60200000000003,400.308,405.257,410.206,414.125,419.074,421.495,426.444,430.927,435.411" y="663.597" svg_rhmargin="437.832" style="fill:#171615;font-family:HPMFFM+AdvOTbc475f09;font-size:8.97px;font-style:NORMAL;font-weight:normal;">developed in oncology.</text>
  <text svg_rhmargin="458.837" x="437.839,440.005,443.718,447.431,449.247,452.96,456.672,458.83700000000005" y="663.597" style="fill:#171615;font-family:HPMFFM+AdvOTbc475f09;font-size:5.98px;font-style:NORMAL;font-weight:normal;">[10,11] </text>
  <text x="463.578,466.465,469.352,472.804,477.467,480.919,485.869,488.29,492.208,496.913,499.334,504.283,508.988,511.409,516.359,521.308,525.7909999999999,530.474,535.424,539.342,544.292,547.744,552.693,556.611,561.561,566.51,571.459,575.378,578.83,581.251,586.2" y="663.597" svg_rhmargin="590.118" style="fill:#171615;font-family:HPMFFM+AdvOTbc475f09;font-size:8.97px;font-style:NORMAL;font-weight:normal;">Its role in lung neuroendocrine</text>
  <text x="345.089,352.459,356.942,359.363,361.784,366.267,371.217,375.7,380.649,384.568,386.989,390.907,394.359,396.734,399.155,402.60699999999997,405.011,408.929,413.879,418.828,422.28,424.701,429.65,433.569,437.021,440.939,445.88800000000003,448.323,455.693,460.642,464.094,468.012,470.433,475.382,480.331,487.235,491.154,494.606,497.493,502.442,504.863,507.281,509.702,514.651,517.032,521.982,526.931,531.88,535.332,537.753,542.237,545.124,550.073,552.494,555.381,558.268,562.187,565.639,569.557,574.506,577.393,579.814,584.297,587.185" y="674.538" svg_rhmargin="590.072" style="fill:#171615;font-family:HPMFFM+AdvOTbc475f09;font-size:8.97px;font-style:NORMAL;font-weight:normal;">malignancies is considered more powerful in poorly-differentiat-</text>
  <text x="345.089,349.007,353.956,358.752,361.173,366.122,371.072,375.555,380.352,387.722,393.138,399.02,402.472,407.28,411.198,416.148,423.518,428.468,432.951,436.403,440.321,445.27000000000004,450.138,453.025,457.974,462.781,465.668,470.617,474.535,479.334,484.284,489.233,491.654,499.024,503.974,508.923,513.406,516.858,521.3409999999999,526.161,530.079,534.562,538.014,541.933,544.353,549.303,554.252,556.673,561.623,565.075" y="685.537" svg_rhmargin="567.496" style="fill:#171615;font-family:HPMFFM+AdvOTbc475f09;font-size:8.97px;font-style:NORMAL;font-weight:normal;">ed lung NETs compared to the pulmonary carcinoids.</text>
  <text x="567.553,569.719,573.431" y="681.512" svg_rhmargin="577.143" style="fill:#171615;font-family:HPMFFM+AdvOTbc475f09;font-size:5.98px;font-style:NORMAL;font-weight:normal;">[12</text>
  <text x="577.134" y="681.512" svg_rhmargin="580.496" style="fill:#171615;font-family:HPMFFN+AdvOTbc475f09+20;font-size:5.98px;font-style:NORMAL;font-weight:normal;">–</text>
  <text x="580.535,584.248,587.96" y="681.512" svg_rhmargin="590.125" style="fill:#171615;font-family:HPMFFM+AdvOTbc475f09;font-size:5.98px;font-style:NORMAL;font-weight:normal;">15]</text>
  <text x="345.09,351.527,356.477,361.426,364.878,369.828,374.777,377.198,384.568,389.051,391.939,395.857,398.278,402.761,405.182,409.263,414.213,419.162,428.128,432.223,437.173,440.06,444.129,449.078,454.028,456.448,463.819,468.768,473.718,478.201,481.653,486.136,490.218,494.137,498.62,502.072,505.99,508.411,513.36,518.31,520.731,525.68,529.132,533.247,540.151,544.069,547.521,551.439,555.526,558.413,563.363,568.312,573.261,578.2099999999999,582.284,585.171" y="696.479" svg_rhmargin="590.12" style="fill:#171615;font-family:HPMFFM+AdvOTbc475f09;font-size:8.97px;font-style:NORMAL;font-weight:normal;">Approximately, 80% of pulmonary carcinoids were found to</text>
  <text x="345.09,349.008,353.957,358.907,362.359,366.277,369.729,373.181,376.27,379.722,384.671,392.042,396.525,399.412,404.361,407.813,410.701,415.184,418.071,420.492,425.44100000000003,428.539,431.991,435.909,439.828,443.746,448.695,451.582,456.532,459.984,463.436,466.579,471.528,476.011,479.051,481.472,488.842,496.212,501.162,506.111,511.06,516.01,518.431,521.883,524.77,529.719,533.638,538.587,542.505,549.876,552.297,555.749,558.636,562.088,566.571" y="707.42" svg_rhmargin="568.992" style="fill:#171615;font-family:HPMFFM+AdvOTbc475f09;font-size:8.97px;font-style:NORMAL;font-weight:normal;">express somatostatin receptors by immunohistochemistry.</text>
  <text x="569.083,571.249,574.962,578.675,580.491,584.278,587.991" y="703.452" svg_rhmargin="590.156" style="fill:#171615;font-family:HPMFFM+AdvOTbc475f09;font-size:5.98px;font-style:NORMAL;font-weight:normal;">[16,17]</text>
  <text x="345.09,350.505,354.988,358.441,362.359,367.308,369.92,374.869,379.81800000000004,382.506,385.393,390.343,392.764,396.216,398.637,401.271,406.22,411.17,414.057,418.54,423.023,425.444,427.865,430.286,435.235,442.605,445.493,448.945,453.428,458.377,460.798,465.747,468.168,472.651,477.601,481.519,483.94,486.361,490.279,495.228,497.985,502.934,508.35,514.232,516.863" y="718.419" svg_rhmargin="519.75" style="fill:#171615;font-family:HPMFFM+AdvOTbc475f09;font-size:8.97px;font-style:NORMAL;font-weight:normal;">Based on this, 68-gallium-radiolabelled PET (</text>
  <text x="519.76,523.473" y="714.394" svg_rhmargin="527.185" style="fill:#171615;font-family:HPMFFM+AdvOTbc475f09;font-size:5.98px;font-style:NORMAL;font-weight:normal;">68</text>
  <text x="527.187,534.091,538.575,541.462,548.366,555.736,561.618,568.056,570.943,575.892,581.308,587.19" y="718.419" svg_rhmargin="590.077" style="fill:#171615;font-family:HPMFFM+AdvOTbc475f09;font-size:8.97px;font-style:NORMAL;font-weight:normal;">Ga-DOTA-PET)</text>
  <path d="M85.039 169.405 L566.248 169.405 C579.416 169.363 590.182 180.153 590.115 193.329 L590.115 435.465 L85.039 435.465 M85.039 169.405 L566.248 169.405 L566.248 169.632 L85.265 169.632 M566.249 169.405 L569.991 169.688 C580.168 171.28 588.287 179.398 589.833 189.588 L590.117 193.329 L589.89 193.329 L589.606 189.588 C587.996 179.388 580.067 171.634 569.934 169.915 L566.249 169.632 M590.116 193.328 L590.116 435.463 L589.889 435.18 L589.889 193.328 M590.116 435.464 L85.039 435.464 L85.266 435.182 L589.889 435.182 M85.039 435.464 L85.039 169.405 L85.265 169.631 L85.265 435.182 M85.039 486.772 L330.122 486.772 L330.122 719.212 L85.039 719.212 " style="fill:none;stroke:#000000;stroke-width:1.0;"/>
  <path d=" M 85.03900146484375 313.5119934082031 L 330.06597900390625 313.5119934082031 L 330.06597900390625 313.0019836425781 L 85.03900146484375 313.0019836425781 L 84.81200408935547 313.114990234375 L 84.81200408935547 313.39898681640625" style="fill:none;stroke:#000000;stroke-width:1.0;"/>
  <text x="85.039,89.029,93.019,94.254,96.284,100.134,102.311,104.194,106.585,112.465,113.7,117.257,120.961,124.518,128.075,129.309,131.645,137.525,141.082,144.423,148.274,152.124,157.953,159.188" y="495.049" svg_rhmargin="161.071" style="fill:#171615;font-family:HPMFFK+AdvOT1deab444.I;font-size:6.97px;font-style:NORMAL;font-weight:normal;">Editor: Michael Masoomi.</text>
  <text x="85.039,89.029,92.51599999999999,94.847,98.405,102.108,106.09700000000001,108.455,113.609,118.47,120.814,124.371,128.221,131.925,133.955,136.132,137.367,141.356,145.138,147.167,150.724,154.713,157.043,160.601,164.59,168.294,171.851,173.086,174.393,177.587,179.893,181.922,185.772,188.113,190.142,193.846,195.081,198.422,200.756,205.911,209.761,211.937,215.132" y="507.011" svg_rhmargin="217.015" style="fill:#171615;font-family:HPMFFK+AdvOT1deab444.I;font-size:6.97px;font-style:NORMAL;font-weight:normal;">YJ and GH contributed equally to this work.</text>
  <text x="85.039,88.89,92.593,93.828,97.169,99.497,101.673,105.231,109.22,113.071,115.247,117.276,119.681,124.835,128.393,131.734,134.082,137.423,141.127,145.117,149.106,152.957,155.133,157.163,160.72,164.709,167.08,171.07,174.26399999999998,176.605,178.635,182.339,185.896,188.284,193.146,196.703,198.733,199.968,203.819,207.522,211.08,212.31400000000002,214.65,219.511,223.068,225.098,228.88,231.057,234.614,235.848,238.179,242.538,246.095,247.33,250.888,254.591,258.149,261.706,265.047,267.434,271.138,274.988,278.692,282.396,286.386,289.943,291.973,293.208,297.058,300.76099999999997,303.154,307.004,308.74800000000005,311.092,315.953,319.657,320.892,324.596" y="518.973" svg_rhmargin="328.153" style="fill:#171615;font-family:HPMFFK+AdvOT1deab444.I;font-size:6.97px;font-style:NORMAL;font-weight:normal;">This report was supported by the National Natural Sciences Foundation of China</text>
  <text x="85.039,86.784,91.645,95.495,97.378,99.724,103.574,107.425,111.275,115.125,118.975,122.826,126.676,130.526,132.40900000000002,134.82,139.681,143.531,145.41400000000002,147.746,151.597,155.447,159.297,163.147,166.998,170.848,174.698,178.548,180.292" y="527.9300000000001" svg_rhmargin="182.175" style="fill:#171615;font-family:HPMFFK+AdvOT1deab444.I;font-size:6.97px;font-style:NORMAL;font-weight:normal;">(No. 81371588; No. 81101074).</text>
  <text x="85.039,89.399,90.634,91.868,94.225,97.782,101.486,103.516,107.22,111.07,113.246,116.58699999999999,118.945,121.122,124.679,128.669,132.519,134.696,136.725,139.073,142.777,146.62699999999998,148.995,152.552,156.402" y="539.893" svg_rhmargin="160.105" style="fill:#171615;font-family:HPMFFK+AdvOT1deab444.I;font-size:6.97px;font-style:NORMAL;font-weight:normal;">All authors report no con</text>
  <text x="160.101" y="539.893" svg_rhmargin="163.149" style="fill:#171615;font-family:HPMFFP+AdvOT1deab444.I+fb;font-size:6.97px;font-style:NORMAL;font-weight:normal;">ﬂ</text>
  <text x="163.163,164.397,167.954,169.983,173.324,175.691,179.541,181.285,183.571,184.805,188.508,190.538,194.172,196.348,199.904,203.245,205.274,207.607,208.841,212.544,214.863,216.892,220.595,221.83,225.17100000000002,227.505,230.846,232.875,236.578,240.567,243.761" y="539.893" svg_rhmargin="245.644" style="fill:#171615;font-family:HPMFFK+AdvOT1deab444.I;font-size:6.97px;font-style:NORMAL;font-weight:normal;">icts of interest in this study.</text>
  <text svg_rhmargin="87.706" x="85.039,87.706" y="551.855" style="fill:#171615;font-family:HPMFFK+AdvOT1deab444.I;font-size:4.65px;font-style:NORMAL;font-weight:normal;">a </text>
  <text x="88.895,93.616,97.174,101.164,104.721,106.897,108.927,114.661,118.218,121.922,123.951,126.315,130.165,131.909,134.252,139.114,142.817,146.442,147.677,151.234,154.791,156.96699999999998,159.312,165.192,168.749,172.739,173.974,177.532,178.767,182.47,186.028,187.911,190.27,194.629,198.187,201.381,202.616,206.32,210.17,212.552,217.413,221.117,222.352,226.202,229.905,232.282,238.162,241.719,245.709,246.944,250.501,254.059,255.293,257.626,262.487,266.337,267.572,268.807,272.365,276.215,279.772,282.176,287.038,290.888,294.229,298.219,299.454,301.484,305.041,306.276" y="551.855" svg_rhmargin="308.159" style="fill:#171615;font-family:HPMFFK+AdvOT1deab444.I;font-size:6.97px;font-style:NORMAL;font-weight:normal;">Department of Nuclear Medicine, Peking Union Medical College Hospital,</text>
  <text x="85.039,89.901,93.605,94.84,98.543,102.101,105.442,108.999,111.404,115.763,119.32,122.878,126.868,130.425,136.158,139.35199999999998,141.736,145.587,147.331,149.617,155.496,159.054,163.043,164.358,167.915,171.473,172.70700000000002,175.017,179.376,182.933,184.169,187.726,191.43,194.987,198.544,201.88500000000002,204.273,207.829,211.533,215.522,217.879,222.238,225.796,228.991,230.226,233.929,237.779,240.161,245.023,248.726,249.961,253.812,257.515,259.835,265.715,269.272,273.262,274.576,278.134,281.691,282.92499999999995,285.235,290.096,293.947,295.182,296.417,299.974,303.824,307.461" y="560.812" svg_rhmargin="309.344" style="fill:#171615;font-family:HPMFFK+AdvOT1deab444.I;font-size:6.97px;font-style:NORMAL;font-weight:normal;">Chinese Academy of Medical Sciences and Peking Union Medical College,</text>
  <text svg_rhmargin="88.031" x="85.039,88.031" y="569.77" style="fill:#171615;font-family:HPMFFK+AdvOT1deab444.I;font-size:4.65px;font-style:NORMAL;font-weight:normal;">b </text>
  <text x="89.178,93.823,97.38,98.616,99.851,101.086,104.789,108.639,111.007,115.506,119.063,122.257,124.614,128.318,131.875,135.865,139.715,141.963,145.521,147.551,151.401,153.577,156.771,159.086,162.936,164.68,167.024,172.903,176.754,177.989,181.546,185.103,188.807,190.042,193.672,195.84799999999998,198.151,202.001,205.558,207.735,211.585,215.217,217.247,220.804,224.793,227.123,231.845,233.08,236.638,240.488,244.192,248.042,251.446,252.682,256.02299999999997,258.364,261.921,265.625,269.614,271.914,275.825,279.529,283.087,285.263,288.82,292.81,296.004,298.334,299.569,303.272,305.648,310.51,314.214,317.771,319.006,322.563,326.121" y="569.77" svg_rhmargin="328.297" style="fill:#171615;font-family:HPMFFK+AdvOT1deab444.I;font-size:6.97px;font-style:NORMAL;font-weight:normal;">Beijing Key Laboratory of Molecular Targeted Diagnosis and Therapy in Nuclear</text>
  <text x="85.04,90.919,94.477,98.466,99.701,103.259,104.494,108.198,111.755,113.63799999999999,116.054,120.699,124.256,125.491,126.726,127.961,131.665,135.515,137.883,141.733,145.583,149.434,153.284,157.134,160.984,162.86700000000002,165.211,170.073,173.776,175.011,178.715,182.273" y="578.7280000000001" svg_rhmargin="184.156" style="fill:#171615;font-family:HPMFFK+AdvOT1deab444.I;font-size:6.97px;font-style:NORMAL;font-weight:normal;">Medicine, Beijing 100730, China.</text>
  <text svg_rhmargin="87.759" x="85.039,87.759" y="590.69" style="fill:#171615;font-family:HPMFEG+AdvOTb0c9bf5d+22;font-size:4.65px;font-style:NORMAL;font-weight:normal;">∗ </text>
  <text x="88.951,93.813,97.663,99.839,102.016,105.573,108.914,112.904,116.754,120.458,124.448,128.005,131.709,135.266,138.824,140.70700000000002,143.154,149.473,153.177,156.372,157.607,161.311,165.161,167.478,172.339,176.043,179.667,183.371,187.221,189.104,191.46,196.182,199.739,203.729,207.286,209.463,211.493,217.226,220.783,224.487,226.516,228.88,232.73,234.474,236.817,241.679,245.383,249.007,250.242,253.799,257.357,259.533,261.878,267.757,271.315,275.304,276.539,280.097,281.332,285.036,288.593,290.476,292.835,297.195,300.752,303.947,305.182,308.885" y="590.69" svg_rhmargin="312.735" style="fill:#171615;font-family:HPMFFK+AdvOT1deab444.I;font-size:6.97px;font-style:NORMAL;font-weight:normal;">Correspondence: Wuying Cheng, Department of Nuclear Medicine, Peking</text>
  <text x="85.04,89.901,93.605,94.84,98.69,102.393,104.77,110.649,114.207,118.197,119.432,122.989,126.546,127.78,130.171,135.032,138.882,140.117,141.352,144.91,148.76,152.31699999999998,154.664,159.525,163.376,166.717,170.706,171.942,173.972,177.529,178.764,180.64700000000002,183.014,187.875,191.579,192.879,196.583,200.14,203.481,207.03799999999998,209.378,213.737,217.294,220.852,224.841,228.399,234.132,237.326,239.71,243.56,245.304,247.648,253.527,257.085,261.074,262.309,265.867,269.424,270.65799999999996,273.048,277.408,280.965,282.2,285.757,289.461,293.019,296.576,299.91700000000003,302.248,305.805,309.509" y="599.6469999999999" svg_rhmargin="313.498" style="fill:#171615;font-family:HPMFFK+AdvOT1deab444.I;font-size:6.97px;font-style:NORMAL;font-weight:normal;">Union Medical College Hospital, Chinese Academy of Medical Sciences and</text>
  <text x="85.04,89.399,92.956,96.151,97.386,101.09,104.94,107.322,112.183,115.887,117.122,120.972,124.675,126.995,132.875,136.432,140.422,141.737,145.294,148.851,150.085,152.395,157.257,161.107,162.342,163.577,167.135,170.985,174.622,176.50500000000002,178.817,183.678,187.529,189.412,191.744,195.594,197.477,199.851,204.211,207.915,211.618,215.176,216.411,218.155,221.859,225.053,228.757,232.314,236.018,237.901,240.278,245.0,248.85,252.554,256.404,259.961,263.665,267.223,271.008,274.858,277.187,281.909,283.144,286.486,288.516,290.692,291.927,295.485,297.515,299.39799999999997,301.739,306.385,309.942,311.177,312.412,313.647,317.351,321.201" y="608.604" svg_rhmargin="323.084" style="fill:#171615;font-family:HPMFFK+AdvOT1deab444.I;font-size:6.97px;font-style:NORMAL;font-weight:normal;">Peking Union Medical College, No. 1, Shuaifuyuan, Dongcheng District, Beijing,</text>
  <text x="85.04,88.89,92.74,96.59,100.441,104.291,108.141,110.024,112.368,117.229,120.933,122.233,125.937,129.494,131.814,133.558,137.116,139.655,145.388,148.945,150.18,151.489,153.372,155.684,159.242,164.396,167.591,171.58,175.284,181.017,184.656,188.36,193.877,197.727,201.577,205.428,207.311,210.869,214.719,220.452,222.196" y="617.561" svg_rhmargin="224.079" style="fill:#171615;font-family:HPMFFK+AdvOT1deab444.I;font-size:6.97px;font-style:NORMAL;font-weight:normal;">100730, China (e-mail: cwypumch@126.com).</text>
  <text svg_rhmargin="113.93" x="85.04,89.901,93.751,97.741,100.936,103.112,104.347,108.197,111.901,113.92999999999999" y="629.523" style="fill:#171615;font-family:HPMFFK+AdvOT1deab444.I;font-size:6.97px;font-style:NORMAL;font-weight:normal;">Copyright </text>
  <text svg_rhmargin="121.564" x="116.334,121.565" y="629.523" style="fill:#171615;font-family:HPMFFI+AdvOTb0c9bf5d;font-size:6.97px;font-style:NORMAL;font-weight:normal;">© </text>
  <text x="123.874,127.724,131.574,135.425,139.275,141.619,143.65,147.353,150.91,153.242,157.601,161.305,163.335,167.039,170.889,173.143,174.887,178.228,179.973,181.85600000000002,184.199,188.559,192.262,196.252,197.487,198.722,202.063,205.767,209.325,213.314,215.667,219.657,222.851,225.192,231.511,235.361,236.596,238.626,242.258,244.435,247.776,250.082,254.581,255.816,259.52,264.674,268.232,270.408,272.818,277.679,281.236,284.794,286.029,288.059,291.763,293.64599999999996,296.008,297.528,301.232,304.789" y="629.523" svg_rhmargin="306.672" style="fill:#171615;font-family:HPMFFK+AdvOT1deab444.I;font-size:6.97px;font-style:NORMAL;font-weight:normal;">2019 the Author(s). Published by Wolters Kluwer Health, Inc.</text>
  <text x="85.039,88.888,92.592,93.826,97.16699999999999,99.495,100.729,104.07,106.412,109.969,113.672,115.993,119.904,123.893,127.45,131.153,133.453,137.01,140.566,144.123,147.68,151.02,154.36100000000002,156.752,160.309,162.485,164.514,165.749,169.305,170.54,174.09699999999998,176.48,180.469,181.703,185.044,187.073,189.249,190.483,194.472,198.176,200.205,203.762,207.751,210.153,213.856,217.559,221.548,225.105,227.28099999999998,229.654,231.683,235.386,238.94299999999998,241.276,243.305,246.862,249.038,254.77,258.111,260.493,264.344,266.088,268.431,270.46,274.164,277.721,280.052,284.913,287.089,290.645,294.202,296.231,297.466,300.66" y="638.481" svg_rhmargin="304.217" style="fill:#171615;font-family:HPMFFK+AdvOT1deab444.I;font-size:6.97px;font-style:NORMAL;font-weight:normal;">This is an open access article distributed under the terms of the Creative</text>
  <text x="85.039,89.9,93.751,99.484,105.217,109.067,112.771,116.112,118.489,122.849,124.879,126.909,129.085,130.32,134.31,138.014,140.044,141.279,145.129,148.938,151.476,156.338,160.188,163.891,166.229,171.091,174.941,180.674,186.407,189.965,192.141,195.698,196.934,200.588,201.822,204.16,207.864,209.099,212.656,216.213,219.917,223.258,226.815,229.164,233.014,234.898,238.748,241.07,242.814,247.676,252.537,257.182,261.254,263.793,268.654,273.516,275.26,277.143,279.51,284.665,288.368,291.926,294.102,297.659,300.034,301.269,303.298,305.647,306.881" y="647.496" svg_rhmargin="310.221" style="fill:#171615;font-family:HPMFFK+AdvOT1deab444.I;font-size:6.97px;font-style:NORMAL;font-weight:normal;">Commons Attribution-Non Commercial License 4.0 (CCBY-NC), where it is</text>
  <text x="85.039,89.029,92.586,94.762,100.496,101.731,105.072,108.413,109.648,113.728,114.963,118.52,120.816,122.846,126.696,129.037,133.026,136.877,142.031,145.735,146.97,150.82,154.377,158.463,160.346,162.658,165.998,169.702,173.26,175.436,178.993,180.876,183.238,185.415,188.972,194.705,195.94,199.135,201.018,203.423,205.453,207.629,211.187,214.89,218.232,219.976,223.826,226.002,231.736,233.619,235.968,239.525,243.228,247.217,249.575,253.564,257.268,258.503,259.738,263.806,267.51,271.49899999999997,273.841,275.871,279.575,283.132,285.464,290.618,294.468,296.645,299.839,302.189,306.179,308.355,312.206,315.4,316.635,320.625,324.182" y="656.453" svg_rhmargin="328.171" style="fill:#171615;font-family:HPMFFK+AdvOT1deab444.I;font-size:6.97px;font-style:NORMAL;font-weight:normal;">permissible to download, share, remix, transform, and buildup the work provided</text>
  <text x="85.039,86.274,88.303,90.652,91.887,95.228,97.569,101.559,103.736,107.586,111.576,115.133,117.309,118.545,121.739,124.105,127.662,128.897,130.927,134.485,138.474,140.357,142.702,146.552,150.256,153.813,156.195,161.35,165.2,167.376,170.57,172.921,176.478,180.035,183.739,187.443,191.293,193.322,195.656,199.646,203.20299999999997,205.578,209.281,212.622,216.18,220.169,222.529,226.087,229.937,235.67,241.403,244.961,247.137,250.695,252.012,255.569,256.804,258.039,261.233,263.579,268.733,269.968,271.998,275.702,279.552,283.256,285.28499999999997,287.619,291.608,295.166,297.342,303.154,304.389,307.73,311.071,312.306,316.156" y="665.41" svg_rhmargin="319.859" style="fill:#171615;font-family:HPMFFK+AdvOT1deab444.I;font-size:6.97px;font-style:NORMAL;font-weight:normal;">it is properly cited. The work cannot be used commercially without permission</text>
  <text x="85.039,86.783,88.96,92.81,98.543,100.914,102.943,106.647,110.20400000000001,112.536,113.771,117.621,121.325,123.502,127.205,130.763,131.998" y="674.367" svg_rhmargin="133.881" style="fill:#171615;font-family:HPMFFK+AdvOT1deab444.I;font-size:6.97px;font-style:NORMAL;font-weight:normal;">from the journal.</text>
  <text x="85.039,90.919,94.476,98.466,99.701,103.258,104.493,108.197,111.754,114.125,115.869,119.719,123.569,127.419,131.27,133.014,135.386,139.236,143.087,144.97,148.821,152.671,154.415,157.972,161.823,165.673,169.523,173.373,177.223" y="686.329" svg_rhmargin="178.966" style="fill:#171615;font-family:HPMFFK+AdvOT1deab444.I;font-size:6.97px;font-style:NORMAL;font-weight:normal;">Medicine (2019) 98:10(e14769)</text>
  <text svg_rhmargin="216.637" x="85.039,89.538,93.095,96.652,100.21,101.445,104.713,108.271,112.26,114.143,116.45,120.3,124.14999999999999,126.485,131.346,135.197,138.391,142.02,147.753,151.743,155.3,157.476,159.822,163.672,167.522,171.372,175.222,177.567,179.81300000000002,182.16,186.658,190.216,193.773,197.33,198.565,201.76,205.317,209.306,211.699,212.934,216.637" y="698.2909999999999" style="fill:#171615;font-family:HPMFFK+AdvOT1deab444.I;font-size:6.97px;font-style:NORMAL;font-weight:normal;">Received: 26 November 2018 / Received in </text>
  <text x="218.948" y="698.2909999999999" svg_rhmargin="221.996" style="fill:#171615;font-family:HPMFFP+AdvOT1deab444.I+fb;font-size:6.97px;font-style:NORMAL;font-weight:normal;">ﬁ</text>
  <text x="222.009,225.713,229.27,230.50400000000002,232.838,234.582,238.433,240.609,246.342,248.22500000000002,250.584,254.435,258.285,260.62,264.107,267.664,271.368,275.134,278.691,280.867,284.06100000000004,286.359,290.21,294.127,297.977,301.827,304.162" y="698.2909999999999" svg_rhmargin="306.408" style="fill:#171615;font-family:HPMFFK+AdvOT1deab444.I;font-size:6.97px;font-style:NORMAL;font-weight:normal;">nal form: 24 January 2019 /</text>
  <text x="85.039,89.398,92.956,96.513,100.07,104.06,106.09,109.647,113.728,115.61099999999999,117.923,121.773,124.103,127.806,131.364,135.353,137.53,141.234,144.791,146.968,150.16199999999998,152.565,156.415,160.265,164.116" y="707.249" svg_rhmargin="167.966" style="fill:#171615;font-family:HPMFFK+AdvOT1deab444.I;font-size:6.97px;font-style:NORMAL;font-weight:normal;">Accepted: 7 February 2019</text>
  <text x="85.039,88.743,90.773,92.803,96.793,98.676,100.922,103.169,107.158,110.353,112.237,116.338,120.188,121.423,123.307,127.157,129.334,133.184,135.43,139.28,143.131,145.014,148.865,152.796,156.647,160.497,162.743,168.623,173.345,175.228,179.078,182.929,186.779,190.629,194.479,198.33,202.18,206.03,209.88,213.731,217.658,221.57,225.42,229.27,233.121" y="719.211" svg_rhmargin="236.971" style="fill:#171615;font-family:HPMFFK+AdvOT1deab444.I;font-size:6.97px;font-style:NORMAL;font-weight:normal;">http://dx.doi.org/10.1097/MD.0000000000014769</text>
  <path d=" M 85.03900146484375 759.968017578125 L 590.1729736328125 759.968017578125 L 590.1729736328125 760.9884033203125 L 85.03900146484375 760.9884033203125 Z " style="fill:none;stroke:#000000;stroke-width:1.0;"/>
  <path d=" M 85.03900146484375 761.0460205078125 L 89.00749969482422 761.0460205078125 L 89.00749969482422 775.9559936523438 L 85.03900146484375 775.9559936523438 Z " style="fill:none;stroke:#000000;stroke-width:1.0;"/>
  <text svg_rhmargin="304.422" x="91.389,98.751,104.769,111.195,115.239,122.393,133.171,140.115,144.16,146.651,153.39600000000002,156.756,164.845,171.998,178.299,180.789,187.943,197.697,201.032,207.976,214.721,221.874,225.24,235.919,243.073,247.117,254.153,258.925,266.805,273.55,280.572,283.062,289.08,295.506,297.996,304.42199999999997" y="31.899" style="fill:#73828a;font-family:HPMFHA+AdvOTbed05995;font-size:9.96px;font-style:NORMAL;font-weight:normal;">Systematic Review and Meta-Analysis </text>
  <text x="437.272,469.714,489.657,511.847,519.123,537.736,545.012,564.991" y="31.899" svg_rhmargin="587.342" style="fill:#de000f;font-family:HPMFJA+Avenir-Roman;font-size:40.2px;font-style:NORMAL;font-weight:normal;">Medicine</text>
  <text x="584.326" y="14.110000000000014" svg_rhmargin="590.154" style="fill:#979699;font-family:HPMFJB+AkzidenzGroteskBE-Md;font-size:7.0px;font-style:NORMAL;font-weight:bold;">®</text>
  <path d="M85.039 486.488 L330.065 486.488 L330.065 486.998 L85.039 486.998 L84.812 486.885 L84.812 486.601 M443.709 35.651 L582.507 35.651 M584.0 35.651 L584.0 35.651 M440.722 35.651 L440.722 35.651 " style="fill:none;stroke:#979699;stroke-width:1.5;"/>
  <rect style="stroke:blue;stroke-width:0.3;" x="550.368" y="44.108" height="15.384" width="39.988" title="1"/>
  <text x="550.368" y="44.108" class="image" id="image.1.1" width="39" height="15">image.1.1.550_590.44_59</text>
  <text x="555.412,563.566,570.568,577.237" y="54.660999999999945" svg_rhmargin="585.238" style="fill:#ffffff;font-family:HPMFOA+HelveticaNeue-MediumExt;font-size:9.0px;font-style:NORMAL;font-weight:normal;">OPEN</text>
  <text x="335.395" y="739.622" svg_rhmargin="339.795" style="fill:#171615;font-family:HPMFPB+AdvOTf94803d4;font-size:7.97px;font-style:NORMAL;font-weight:normal;">1</text>
 </g>
</svg>
