<?xml version="1.0" encoding="UTF-8"?>
<svg height="870.031005859375" width="672.0029907226562" xmlns="http://www.w3.org/2000/svg">
 <g style="fill:none;">
  <path d=" M 0.05999799817800522 826.072021484375 L 22.619997024536133 826.072021484375 L 22.619997024536133 826.35546875 L 0.05999799817800522 826.35546875 Z " style="fill:none;stroke:#000000;stroke-width:1.0;"/>
  <path d=" M 33.67599868774414 837.4110107421875 L 33.959449768066406 837.4110107421875 L 33.959449768066406 860.031005859375 L 33.67599868774414 860.031005859375 Z " style="fill:none;stroke:#000000;stroke-width:1.0;"/>
  <path d=" M 627.9869995117188 837.4110107421875 L 628.2703857421875 837.4110107421875 L 628.2703857421875 860.031005859375 L 627.9869995117188 860.031005859375 Z " style="fill:none;stroke:#000000;stroke-width:1.0;"/>
  <path d=" M 639.3259887695312 826.072021484375 L 662.0029907226562 826.072021484375 L 662.0029907226562 826.35546875 L 639.3259887695312 826.35546875 Z " style="fill:none;stroke:#000000;stroke-width:1.0;"/>
  <path d=" M 639.3259887695312 33.731998443603516 L 662.0029907226562 33.731998443603516 L 662.0029907226562 34.015480041503906 L 639.3259887695312 34.015480041503906 Z " style="fill:none;stroke:#000000;stroke-width:1.0;"/>
  <path d=" M 627.9869995117188 0.0 L 628.2703857421875 0.0 L 628.2703857421875 22.677000045776367 L 627.9869995117188 22.677000045776367 Z " style="fill:none;stroke:#000000;stroke-width:1.0;"/>
  <path d=" M 33.67599868774414 0.0 L 33.959449768066406 0.0 L 33.959449768066406 22.677000045776367 L 33.67599868774414 22.677000045776367 Z " style="fill:none;stroke:#000000;stroke-width:1.0;"/>
  <path d=" M 0.05999799817800522 33.731998443603516 L 22.619997024536133 33.731998443603516 L 22.619997024536133 34.015480041503906 L 0.05999799817800522 34.015480041503906 Z " style="fill:none;stroke:#000000;stroke-width:1.0;"/>
  <text x="85.039,88.958,93.907" y="521.921" svg_rhmargin="98.856" style="fill:#171615;font-family:HPMFFM+AdvOTbc475f09;font-size:8.97px;font-style:NORMAL;font-weight:normal;">con</text>
  <text x="98.873" y="521.921" svg_rhmargin="103.822" style="fill:#171615;font-family:HPMFFO+AdvOTbc475f09+fb;font-size:8.97px;font-style:NORMAL;font-weight:normal;">ﬁ</text>
  <text x="103.805,107.257,114.627,119.11,121.998,124.418,129.368,134.317,137.769,140.19,143.262,149.7,152.121,154.542,157.605,161.057,163.945,168.894,173.843,176.264,180.183,183.635,186.688,191.637,195.089,199.007,203.95600000000002,206.983,211.932,214.353,217.805,220.692,225.642,230.591,235.074,237.961,242.911,247.86,250.281,255.231,259.714,262.135,266.053,270.536,272.957,276.032,280.982,283.403,287.886,292.369,297.318,302.268,305.72,308.141,311.593,314.639,319.122,322.574,325.637" y="521.921" svg_rhmargin="330.12" style="fill:#171615;font-family:HPMFFM+AdvOTbc475f09;font-size:8.97px;font-style:NORMAL;font-weight:normal;">rmations. All studies used histopathological diagnosis as a</text>
  <text x="85.039,88.491,92.41,95.297,99.215,102.667,106.585,111.535,115.453,119.37100000000001,121.832,125.284,128.171,132.654,137.603,142.553,147.036,150.488,155.437,157.858,160.381,166.263,171.213,175.131,177.559,182.042,186.992,191.941,194.362,196.783,200.701,205.184,210.134,212.555,214.975,217.396,220.284,224.767,227.277,232.227,235.114,237.595,240.482,245.431,249.34900000000002,251.824,254.245,259.195,263.113,265.534,270.483,275.433,279.351,284.3,286.746,290.198,293.085,298.035,302.984,305.405,309.323,312.775,315.262,322.166,326.649" y="532.919" svg_rhmargin="330.101" style="fill:#171615;font-family:HPMFFM+AdvOTbc475f09;font-size:8.97px;font-style:NORMAL;font-weight:normal;">reference standard. The applicability of the included studies was</text>
  <text x="85.039,89.523,94.472,98.39,103.34,108.289,112.772,115.659,119.57700000000001,122.569,127.052,132.001,136.95000000000002,139.973,144.456,146.877,149.298,152.275,156.193,158.614,163.097,166.549,170.001" y="543.861" svg_rhmargin="172.422" style="fill:#171615;font-family:HPMFFM+AdvOTbc475f09;font-size:8.97px;font-style:NORMAL;font-weight:normal;">adequate and all classi</text>
  <text x="172.46" y="543.861" svg_rhmargin="177.409" style="fill:#171615;font-family:HPMFFO+AdvOTbc475f09+fb;font-size:8.97px;font-style:NORMAL;font-weight:normal;">ﬁ</text>
  <text x="177.392,181.311,186.26000000000002,189.241,193.724,197.176,200.183,202.604,207.553,214.457" y="543.861" svg_rhmargin="216.878" style="fill:#171615;font-family:HPMFFM+AdvOTbc475f09;font-size:8.97px;font-style:NORMAL;font-weight:normal;">ed as low.</text>
  <text svg_rhmargin="245.619" x="85.039,89.989,92.41,97.359,99.78,104.258,110.229,115.457,120.684,122.827,127.776,133.191,136.232,141.647,143.79,148.74,153.967,159.096,164.323,168.806,171.693,173.836,178.78500000000003,181.754,187.17,192.119,195.383,198.181,203.408,206.672,214.607,219.556,224.685,229.634,234.583,237.595,242.822,245.619" y="566.539" style="fill:#171615;font-family:HPMGAC+AdvOT01861455.I;font-size:8.97px;font-style:NORMAL;font-weight:normal;">3.3. Pooled diagnostic performance of </text>
  <text x="248.655,252.368" y="566.539" svg_rhmargin="256.08" style="fill:#171615;font-family:HPMGAC+AdvOT01861455.I;font-size:5.98px;font-style:NORMAL;font-weight:normal;">68</text>
  <text x="256.082,262.807,267.756,271.208,277.646,284.37,289.598,295.668" y="570.5070000000001" svg_rhmargin="299.12" style="fill:#171615;font-family:HPMGAC+AdvOT01861455.I;font-size:8.97px;font-style:NORMAL;font-weight:normal;">Ga-DOTA-</text>
  <text svg_rhmargin="134.718" x="85.039,90.454,95.404,100.82,103.707,105.85,111.265,116.214,119.224,124.173,129.302,134.71699999999998" y="578.501" style="fill:#171615;font-family:HPMGAC+AdvOT01861455.I;font-size:8.97px;font-style:NORMAL;font-weight:normal;">peptide and </text>
  <text x="137.707,141.42" y="578.501" svg_rhmargin="145.132" style="fill:#171615;font-family:HPMGAC+AdvOT01861455.I;font-size:5.98px;font-style:NORMAL;font-weight:normal;">18</text>
  <text x="145.134,150.361,153.813,159.041,165.478,172.202,175.237,181.209,186.813,192.04,195.116,201.553" y="582.469" svg_rhmargin="206.78" style="fill:#171615;font-family:HPMGAC+AdvOT01861455.I;font-size:8.97px;font-style:NORMAL;font-weight:normal;">F-FDG PET/CT</text>
  <text svg_rhmargin="157.9" x="85.039,90.921,95.87,99.78800000000001,106.015,109.467,113.385,118.334,121.786,124.207,127.094,129.515,133.999,136.419,139.307,143.79,150.063,155.013,157.9" y="594.432" style="fill:#171615;font-family:HPMFFM+AdvOTbc475f09;font-size:8.97px;font-style:NORMAL;font-weight:normal;">The sensitivity of </text>
  <text x="164.126,167.839" y="594.432" svg_rhmargin="171.551" style="fill:#171615;font-family:HPMFFM+AdvOTbc475f09;font-size:5.98px;font-style:NORMAL;font-weight:normal;">68</text>
  <text x="171.553,178.457,182.94,185.827,192.731,200.101,205.983,212.421,215.308,220.258,224.176,229.125,232.012,234.433,239.383,243.30100000000002,249.616,252.037,256.986,263.222,266.11,271.059,274.97700000000003,281.194,286.143,290.061,292.948,296.867,300.785,303.672,306.093,311.042,315.991,322.238,327.187" y="598.4" svg_rhmargin="330.074" style="fill:#171615;font-family:HPMFFM+AdvOTbc475f09;font-size:8.97px;font-style:NORMAL;font-weight:normal;">Ga-DOTA-peptide in the detection of</text>
  <text x="85.039,89.988,94.937,97.358,104.729,109.678,114.627,119.111,122.563,127.046,130.335,134.253,138.736,142.188,146.106,148.527,153.477,158.426,160.847,165.79600000000002,169.111,172.563,177.046,181.996,186.479,190.397,195.346,198.647,201.534,204.986,209.936,217.306,220.643,225.593,230.542,239.508,242.81,245.697,250.64600000000002,253.922,258.871,263.82,268.77,277.736,280.157,283.458,290.362,292.782,295.67,300.619,303.98,308.929,313.878,318.828,321.249,325.167" y="609.342" svg_rhmargin="330.116" style="fill:#171615;font-family:HPMFFM+AdvOTbc475f09;font-size:8.97px;font-style:NORMAL;font-weight:normal;">pulmonary carcinoid ranged from 79% to 100%, with pooled</text>
  <text svg_rhmargin="194.99" x="85.039,88.957,92.409,95.296,97.717,105.087,109.57,112.458,116.376,119.828,122.341,127.291,130.178,132.659,137.608,142.557,144.978,149.928,158.894,161.401,164.288,169.238,174.187,183.15300000000002,185.665,192.103,194.99" y="620.341" style="fill:#171615;font-family:HPMFFM+AdvOTbc475f09;font-size:8.97px;font-style:NORMAL;font-weight:normal;">estimates of 90.0% (95% CI </text>
  <text x="196.101" y="620.341" svg_rhmargin="202.171" style="fill:#171615;font-family:HPMFFI+AdvOTb0c9bf5d;font-size:8.97px;font-style:NORMAL;font-weight:normal;">=</text>
  <text x="203.301,208.25,213.199,215.62" y="620.341" svg_rhmargin="220.569" style="fill:#171615;font-family:HPMFFM+AdvOTbc475f09;font-size:8.97px;font-style:NORMAL;font-weight:normal;">82.0</text>
  <text x="220.592" y="620.341" svg_rhmargin="225.075" style="fill:#171615;font-family:HPMFFN+AdvOTbc475f09+20;font-size:8.97px;font-style:NORMAL;font-weight:normal;">–</text>
  <text svg_rhmargin="253.727" x="225.071,230.02,234.97,237.39,242.34,251.306,253.727" y="620.341" style="fill:#171615;font-family:HPMFFM+AdvOTbc475f09;font-size:8.97px;font-style:NORMAL;font-weight:normal;">95.0%; </text>
  <text svg_rhmargin="261.611" x="256.195,261.61" y="620.341" style="fill:#171615;font-family:HPMGBC+AdvOT638a931c.I;font-size:8.97px;font-style:NORMAL;font-weight:normal;">P </text>
  <text x="262.772" y="620.341" svg_rhmargin="269.676" style="fill:#171615;font-family:HPMFFL+AdvP4C4E51;font-size:8.97px;font-style:NORMAL;font-weight:normal;">&lt;</text>
  <text svg_rhmargin="280.557" x="270.766,273.187,278.136,280.557" y="620.341" style="fill:#171615;font-family:HPMFFM+AdvOTbc475f09;font-size:8.97px;font-style:NORMAL;font-weight:normal;">.1; </text>
  <text x="283.068" y="620.341" svg_rhmargin="286.52" style="fill:#171615;font-family:HPMGBC+AdvOT638a931c.I;font-size:8.97px;font-style:NORMAL;font-weight:normal;">I</text>
  <text svg_rhmargin="290.238" x="286.526,290.238" y="620.34" style="fill:#171615;font-family:HPMFFM+AdvOTbc475f09;font-size:5.98px;font-style:NORMAL;font-weight:normal;">2 </text>
  <text x="291.345" y="620.34" svg_rhmargin="297.415" style="fill:#171615;font-family:HPMFFI+AdvOTb0c9bf5d;font-size:8.97px;font-style:NORMAL;font-weight:normal;">=</text>
  <text x="298.545,303.494,308.444,310.864,315.814,324.78,327.667" y="620.34" svg_rhmargin="330.088" style="fill:#171615;font-family:HPMFFM+AdvOTbc475f09;font-size:8.97px;font-style:NORMAL;font-weight:normal;">49.6%).</text>
  <text svg_rhmargin="148.942" x="85.038,90.92,95.87,99.78800000000001,101.535,104.987,108.906,113.855,117.307,119.728,122.615,125.036,129.519,131.94,134.827,139.31,141.105,146.055,148.942" y="627.313" style="fill:#171615;font-family:HPMFFM+AdvOTbc475f09;font-size:8.97px;font-style:NORMAL;font-weight:normal;">The sensitivity of </text>
  <text x="150.69,154.402" y="627.313" svg_rhmargin="158.114" style="fill:#171615;font-family:HPMFFM+AdvOTbc475f09;font-size:5.98px;font-style:NORMAL;font-weight:normal;">18</text>
  <text x="158.173,163.123,166.01,170.959,177.863,184.767,186.519,191.469,196.884,202.766,205.187,211.625,217.507,219.287,221.708,226.657,228.414,231.301,236.251,240.169,241.907,246.856,250.775,253.662,257.58,261.498,264.385,266.806,271.756,276.705,278.472,283.422,286.309,288.11,293.06,298.009,300.43,307.8,312.75,317.699,322.182,325.634" y="631.282" svg_rhmargin="330.117" style="fill:#171615;font-family:HPMFFM+AdvOTbc475f09;font-size:8.97px;font-style:NORMAL;font-weight:normal;">F-FDG PET/CT in the detection of pulmonary</text>
  <text x="85.039,88.957,93.44,96.892,100.81,103.231,108.181,113.13,115.551,120.5,122.341,129.245,133.728,137.18,139.009,142.461,146.379,151.328,156.278,159.73,162.617,166.535,171.484,173.307,176.194,181.143,183.001,186.453,190.936,195.885,200.369,204.287,206.074,208.961,212.413,217.362,224.732,226.596,231.545,236.495,247.232,250.119,255.068,256.926,261.876,266.825,271.774,280.741,283.162,284.988,291.892,294.313,297.2,302.149,303.98,308.929,313.878,318.828,321.249,325.167" y="642.223" svg_rhmargin="330.116" style="fill:#171615;font-family:HPMFFM+AdvOTbc475f09;font-size:8.97px;font-style:NORMAL;font-weight:normal;">carcinoid was reported to range from 52%to 100%, with pooled</text>
  <text svg_rhmargin="209.391" x="85.039,88.957,92.409,95.296,97.717,105.087,109.57,112.458,116.376,119.828,125.97,130.919,133.806,139.916,144.865,149.815,152.236,157.185,166.151,172.231,175.118,180.067,185.017,193.983,200.066,206.504,209.391" y="653.165" style="fill:#171615;font-family:HPMFFM+AdvOTbc475f09;font-size:8.97px;font-style:NORMAL;font-weight:normal;">estimates of 71.0% (95% CI </text>
  <text x="210.557" y="653.165" svg_rhmargin="216.627" style="fill:#171615;font-family:HPMFFI+AdvOTb0c9bf5d;font-size:8.97px;font-style:NORMAL;font-weight:normal;">=</text>
  <text x="217.757,222.706,227.656,230.077" y="653.165" svg_rhmargin="235.026" style="fill:#171615;font-family:HPMFFM+AdvOTbc475f09;font-size:8.97px;font-style:NORMAL;font-weight:normal;">66.0</text>
  <text x="234.992" y="653.165" svg_rhmargin="239.475" style="fill:#171615;font-family:HPMFFN+AdvOTbc475f09+20;font-size:8.97px;font-style:NORMAL;font-weight:normal;">–</text>
  <text svg_rhmargin="268.127" x="239.471,244.42,249.369,251.79,256.74,265.706,268.127" y="653.165" style="fill:#171615;font-family:HPMFFM+AdvOTbc475f09;font-size:8.97px;font-style:NORMAL;font-weight:normal;">76.0%; </text>
  <text svg_rhmargin="279.697" x="274.281,279.696" y="653.165" style="fill:#171615;font-family:HPMGBC+AdvOT638a931c.I;font-size:8.97px;font-style:NORMAL;font-weight:normal;">P </text>
  <text x="280.8" y="653.165" svg_rhmargin="287.704" style="fill:#171615;font-family:HPMFFL+AdvP4C4E51;font-size:8.97px;font-style:NORMAL;font-weight:normal;">&lt;</text>
  <text svg_rhmargin="308.541" x="288.851,291.272,296.221,301.17,306.12,308.541" y="653.165" style="fill:#171615;font-family:HPMFFM+AdvOTbc475f09;font-size:8.97px;font-style:NORMAL;font-weight:normal;">.001; </text>
  <text x="314.646" y="653.165" svg_rhmargin="318.098" style="fill:#171615;font-family:HPMGBC+AdvOT638a931c.I;font-size:8.97px;font-style:NORMAL;font-weight:normal;">I</text>
  <text svg_rhmargin="321.816" x="318.104,321.816" y="653.165" style="fill:#171615;font-family:HPMFFM+AdvOTbc475f09;font-size:5.98px;font-style:NORMAL;font-weight:normal;">2 </text>
  <text x="322.923" y="653.165" svg_rhmargin="328.993" style="fill:#171615;font-family:HPMFFI+AdvOTb0c9bf5d;font-size:8.97px;font-style:NORMAL;font-weight:normal;">=</text>
  <text x="85.039,89.988,94.938,97.358,102.308,111.274,114.161,117.183,120.07,125.02,127.44,131.924,135.376,137.797,140.766,145.715,148.703,153.186,158.136,163.085,166.108,171.057,173.944" y="664.164" svg_rhmargin="176.365" style="fill:#171615;font-family:HPMFFM+AdvOTbc475f09;font-size:8.97px;font-style:NORMAL;font-weight:normal;">59.3%) (Figs. 2 and 3).</text>
  <text x="85.039,89.988,92.409,97.358,99.77900000000001,104.257,110.04,115.169,120.585,125.812,129.076,134.303,139.432,144.84699999999998,147.91,152.859,157.988,162.937,165.08,169.563,174.046,176.189,180.672,183.625,188.852,191.649,194.68,199.907,206.345,209.306,213.79,218.739,222.003,226.486,231.615,236.098,239.126,245.196" y="691.774" svg_rhmargin="251.634" style="fill:#171615;font-family:HPMGAC+AdvOT01861455.I;font-size:8.97px;font-style:NORMAL;font-weight:normal;">3.4. Subgroup analysis of TC versus AC</text>
  <text x="85.039,89.522,93.44,97.923,101.842,106.791,110.493,113.945,116.832,121.782,126.731,129.152,133.07,136.522,140.199,142.62,147.56900000000002,151.255,156.204,161.154,164.606,168.262,175.632,179.551,182.438,186.921,189.808,194.291,199.241,203.724,206.145,210.628,214.08,216.501,219.953,222.374,226.087,230.005,234.954,239.904,243.356,245.777,249.229,252.116,254.537,259.486,263.969,267.698,272.647,275.534,279.206,284.155,289.105,294.05400000000003,297.687,301.139,306.089,311.038,313.459,317.377,321.295,324.183,327.635" y="707.762" svg_rhmargin="330.056" style="fill:#171615;font-family:HPMFFM+AdvOTbc475f09;font-size:8.97px;font-style:NORMAL;font-weight:normal;">Seven studies in our meta-analysis, consisting of 104 subjects,</text>
  <text svg_rhmargin="238.231" x="85.039,89.988,94.471,99.42,101.536,106.485,110.404,113.291,117.774,120.195,122.616,126.534,131.483,133.566,138.516,142.999,145.886,150.369,152.501,154.922,157.343,162.292,166.21,168.318,172.801,179.239,185.677,193.047,197.53,202.479,204.6,209.083,213.566,215.987,220.937,224.855,228.307,230.394,235.344,238.231" y="714.734" style="fill:#171615;font-family:HPMFFM+AdvOTbc475f09;font-size:8.97px;font-style:NORMAL;font-weight:normal;">had detailed data like SUVmax values of </text>
  <text x="240.378,244.091" y="714.734" svg_rhmargin="247.803" style="fill:#171615;font-family:HPMFFM+AdvOTbc475f09;font-size:5.98px;font-style:NORMAL;font-weight:normal;">68</text>
  <text svg_rhmargin="330.131" x="247.805,254.709,259.192,262.079,268.983,276.353,282.235,288.673,291.56,296.51,300.428,305.377,308.264,310.685,315.635,319.553,321.729,326.679,330.131" y="517.953" style="fill:#171615;font-family:HPMFFM+AdvOTbc475f09;font-size:8.97px;font-style:NORMAL;font-weight:normal;">Ga-DOTA-peptide or </text>
  <text x="345.09,348.802" y="517.953" svg_rhmargin="352.514" style="fill:#171615;font-family:HPMFFM+AdvOTbc475f09;font-size:5.98px;font-style:NORMAL;font-weight:normal;">18</text>
  <text x="352.516,357.466,360.353,365.302,372.206,379.11,381.032,385.981,391.397,397.279,399.7,406.138,412.019,414.44,416.407,425.373,429.291,431.203,435.686,438.107,441.559,446.50800000000004,448.437,452.355,456.838,459.259,463.178,468.127,470.548,475.031,477.918,481.836,486.785,488.744,491.631,496.581,500.499,502.463,505.915,510.399,513.286,515.707,520.656,522.589,527.539,531.457,534.344,541.248,545.166,549.085,554.034,555.981,560.464,566.902,573.339,580.71,585.193" y="521.921" svg_rhmargin="590.142" style="fill:#171615;font-family:HPMFFM+AdvOTbc475f09;font-size:8.97px;font-style:NORMAL;font-weight:normal;">F-FDG PET/CT. We also calculated the ratio between SUVmax</text>
  <text svg_rhmargin="352.926" x="345.09,350.039,352.926" y="528.895" style="fill:#171615;font-family:HPMFFM+AdvOTbc475f09;font-size:8.97px;font-style:NORMAL;font-weight:normal;">of </text>
  <text x="355.465,359.177" y="528.895" svg_rhmargin="362.889" style="fill:#171615;font-family:HPMFFM+AdvOTbc475f09;font-size:5.98px;font-style:NORMAL;font-weight:normal;">68</text>
  <text svg_rhmargin="532.297" x="362.891,369.795,374.278,377.166,384.07,391.44,397.322,403.76,406.647,411.596,415.514,420.464,423.351,425.772,430.721,434.639,437.269,442.219,447.634,453.516,455.937,462.375,468.257,470.83,475.313,480.263,485.212,487.725,492.208,498.646,505.083,512.454,516.937,521.886,524.46,529.41,532.2969999999999" y="528.895" style="fill:#171615;font-family:HPMFFM+AdvOTbc475f09;font-size:8.97px;font-style:NORMAL;font-weight:normal;">Ga-DOTA-peptide PET/CT and SUVmax of </text>
  <text x="534.841,538.553" y="528.895" svg_rhmargin="542.265" style="fill:#171615;font-family:HPMFFM+AdvOTbc475f09;font-size:5.98px;font-style:NORMAL;font-weight:normal;">18</text>
  <text x="542.324,547.274,550.161,555.11,562.014,568.918,571.464,576.413,581.829,587.711" y="532.9200000000001" svg_rhmargin="590.132" style="fill:#171615;font-family:HPMFFM+AdvOTbc475f09;font-size:8.97px;font-style:NORMAL;font-weight:normal;">F-FDG PET/</text>
  <text x="345.089,351.527,357.409,361.417,364.304,368.787,375.225,381.663,389.033,393.516,398.46500000000003,402.575,406.027,410.51,413.397,415.818,420.767,423.654,426.075,430.126,435.542,440.025,444.072,451.443,455.926,458.813,462.731,467.681,470.102,475.051,479.534,483.643,486.53,491.479,495.397,499.46,503.943,510.381,516.819,524.189,528.672,533.621,537.67,541.122,545.605,548.492,550.913,555.862,559.949,564.433,569.382,574.3309999999999,578.374,581.261,586.211" y="543.861" svg_rhmargin="590.129" style="fill:#171615;font-family:HPMFFM+AdvOTbc475f09;font-size:8.97px;font-style:NORMAL;font-weight:normal;">CT (SUVmax ratio). By matching the SUVmax ratio and the</text>
  <text svg_rhmargin="414.265" x="345.089,349.572,356.01,362.448,369.818,374.301,379.25,380.974,385.457,389.94,392.361,397.311,401.229,404.681,406.428,411.378,414.265" y="550.835" style="fill:#171615;font-family:HPMFFM+AdvOTbc475f09;font-size:8.97px;font-style:NORMAL;font-weight:normal;">SUVmax values of </text>
  <text x="416.013,419.725" y="550.835" svg_rhmargin="423.437" style="fill:#171615;font-family:HPMFFM+AdvOTbc475f09;font-size:5.98px;font-style:NORMAL;font-weight:normal;">18</text>
  <text x="423.439,428.389,431.276,436.225,443.129,450.033,451.785,456.735,462.15,468.032,470.453,476.891,482.773,484.553,491.457,493.878,496.765,501.714,503.488,508.437,510.858,514.31,517.197,522.147,524.568,529.517,534.0,536.421,540.339,542.094,545.546,550.495,555.445,558.332,562.815,567.764,571.683,575.135,577.556,579.283,586.188" y="554.803" svg_rhmargin="590.106" style="fill:#171615;font-family:HPMFFM+AdvOTbc475f09;font-size:8.97px;font-style:NORMAL;font-weight:normal;">F-FDG PET/CT with histologic subtypes, we</text>
  <text x="345.089,350.038,353.957,357.409,360.296,365.245,368.697,376.068,379.986,384.935,387.041,391.524,393.674,397.126,402.075,407.025,411.508,414.96,419.909,424.859,429.808,431.884,436.367,441.316,445.799,448.22,452.704,456.156,458.576,462.028,464.197,469.147,472.034,474.119,480.001,486.43899999999996,488.575,493.058,496.976,500.428,503.88,508.83,512.282,514.426,520.864,527.301,529.7220000000001,531.83,534.717,539.6659999999999,541.808,544.695,549.645,554.594,558.046,561.964,564.087,567.539,570.427,575.376,580.325,582.746,586.665" y="565.745" svg_rhmargin="590.117" style="fill:#171615;font-family:HPMFFM+AdvOTbc475f09;font-size:8.97px;font-style:NORMAL;font-weight:normal;">performed a subgroup analysis of TC versus AC. In those studies</text>
  <text svg_rhmargin="467.555" x="345.089,349.007,353.957,361.327,366.276,370.76,374.212,376.633,381.582,386.065,390.612,393.499,398.448,402.366,406.94,411.889,415.807,419.259,422.146,427.096,430.548,437.918,442.401,447.351,451.269,455.187,459.719,464.668,467.555" y="572.718" style="fill:#171615;font-family:HPMFFM+AdvOTbc475f09;font-size:8.97px;font-style:NORMAL;font-weight:normal;">comparing the performance of </text>
  <text x="472.138,475.851" y="572.718" svg_rhmargin="479.563" style="fill:#171615;font-family:HPMFFM+AdvOTbc475f09;font-size:5.98px;font-style:NORMAL;font-weight:normal;">68</text>
  <text svg_rhmargin="570.309" x="479.565,486.469,490.952,493.84,500.744,508.114,513.996,520.434,523.321,528.27,532.188,537.138,540.025,542.446,547.395,551.313,555.928,560.411,565.36,570.309" y="572.718" style="fill:#171615;font-family:HPMFFM+AdvOTbc475f09;font-size:8.97px;font-style:NORMAL;font-weight:normal;">Ga-DOTA-peptide and </text>
  <text x="574.866,578.579" y="572.718" svg_rhmargin="582.291" style="fill:#171615;font-family:HPMFFM+AdvOTbc475f09;font-size:5.98px;font-style:NORMAL;font-weight:normal;">18</text>
  <text x="582.293,587.242" y="576.7429999999999" svg_rhmargin="590.129" style="fill:#171615;font-family:HPMFFM+AdvOTbc475f09;font-size:8.97px;font-style:NORMAL;font-weight:normal;">F-</text>
  <text x="345.088,350.038,356.942,363.846,366.267,368.898,371.786,376.269,381.218,383.639,387.557,392.04,394.461,397.131,401.049,405.532,408.984,412.902,415.323,420.273,425.222,427.643,432.592,436.044,438.741,442.194,446.112,450.595,454.513,458.996,461.417,465.336,470.285,472.926,477.41,482.359,487.308,491.792,495.244,499.162,504.111,506.998,509.419,513.9019999999999,516.579,521.528,523.949,528.432,533.382,537.3,540.752,543.393,547.877,554.314,560.752,568.123,572.606,577.555,580.242,585.192" y="587.685" svg_rhmargin="590.141" style="fill:#171615;font-family:HPMFFM+AdvOTbc475f09;font-size:8.97px;font-style:NORMAL;font-weight:normal;">FDG, typical carcinoids revealed apparently higher SUVmax on</text>
  <text x="345.09,348.802" y="594.658" svg_rhmargin="352.514" style="fill:#171615;font-family:HPMFFM+AdvOTbc475f09;font-size:5.98px;font-style:NORMAL;font-weight:normal;">68</text>
  <text x="352.516,359.42,363.904,366.791,373.695,381.065,386.947,393.385,396.272,401.221,405.14,410.089,412.976,415.397,420.346,424.264,428.652,433.601,439.017,444.899,447.32,453.758,459.64,463.97,466.857,471.341,477.778,484.216,491.586,496.07,501.019,505.355,508.807,513.29,518.24,522.723,526.641,530.98,535.929,538.35" y="598.627" svg_rhmargin="543.299" style="fill:#171615;font-family:HPMFFM+AdvOTbc475f09;font-size:8.97px;font-style:NORMAL;font-weight:normal;">Ga-DOTA-peptide PET/CT (SUVmax range 8.2</text>
  <text x="543.345" y="598.627" svg_rhmargin="547.828" style="fill:#171615;font-family:HPMFFN+AdvOTbc475f09+20;font-size:8.97px;font-style:NORMAL;font-weight:normal;">–</text>
  <text x="547.824,552.773,557.723,562.672,565.0930000000001,569.423,576.793,580.711,585.195" y="598.627" svg_rhmargin="590.144" style="fill:#171615;font-family:HPMFFM+AdvOTbc475f09;font-size:8.97px;font-style:NORMAL;font-weight:normal;">118, mean</text>
  <text svg_rhmargin="399.491" x="345.09,349.573,356.011,362.448,369.819,374.302,379.25100000000003,382.223,387.172,392.121,394.542,399.491" y="609.625" style="fill:#171615;font-family:HPMFFM+AdvOTbc475f09;font-size:8.97px;font-style:NORMAL;font-weight:normal;">SUVmax 36.5 </text>
  <text x="400.592" y="609.625" svg_rhmargin="406.662" style="fill:#171615;font-family:HPMFFI+AdvOTb0c9bf5d;font-size:8.97px;font-style:NORMAL;font-weight:normal;">±</text>
  <text x="407.792,412.741,417.691,420.112,425.061,427.948,430.922,434.84,439.79,447.16,452.11,456.593,460.045,463.963,468.91200000000003,471.91,478.814,481.235,484.122,489.071,492.036,496.519,499.406,503.889,508.839,511.259,515.178,519.661,522.082,525.086,529.005,533.488,536.94,540.858,543.279,548.228,553.178,555.599,560.548,564.0,566.981,569.869,574.352,580.789,587.227" y="609.625" svg_rhmargin="590.114" style="fill:#171615;font-family:HPMFFM+AdvOTbc475f09;font-size:8.97px;font-style:NORMAL;font-weight:normal;">21.6) compared with atypical carcinoids (SUV-</text>
  <text x="345.09,352.46,356.943,361.892,363.627,367.079,371.563,376.512,380.995,384.913,386.644,391.593,394.014" y="620.566" svg_rhmargin="398.963" style="fill:#171615;font-family:HPMFFM+AdvOTbc475f09;font-size:8.97px;font-style:NORMAL;font-weight:normal;">max range 1.1</text>
  <text x="399.005" y="620.566" svg_rhmargin="403.488" style="fill:#171615;font-family:HPMFFN+AdvOTbc475f09+20;font-size:8.97px;font-style:NORMAL;font-weight:normal;">–</text>
  <text svg_rhmargin="488.254" x="403.484,408.433,413.382,415.803,420.753,423.174,424.913,432.283,436.202,440.685,445.634,447.363,451.846,458.284,464.722,472.092,476.575,481.524,483.305,488.254" y="620.566" style="fill:#171615;font-family:HPMFFM+AdvOTbc475f09;font-size:8.97px;font-style:NORMAL;font-weight:normal;">18.5, mean SUVmax 9 </text>
  <text x="489.374" y="620.566" svg_rhmargin="495.444" style="fill:#171615;font-family:HPMFFI+AdvOTb0c9bf5d;font-size:8.97px;font-style:NORMAL;font-weight:normal;">±</text>
  <text svg_rhmargin="511.314" x="496.573,501.523,503.944,508.893,511.31399999999996" y="620.566" style="fill:#171615;font-family:HPMFFM+AdvOTbc475f09;font-size:8.97px;font-style:NORMAL;font-weight:normal;">5.6, </text>
  <text svg_rhmargin="518.487" x="513.071,518.486" y="620.566" style="fill:#171615;font-family:HPMGBC+AdvOT638a931c.I;font-size:8.97px;font-style:NORMAL;font-weight:normal;">P </text>
  <text x="519.591" y="620.566" svg_rhmargin="526.495" style="fill:#171615;font-family:HPMFFL+AdvP4C4E51;font-size:8.97px;font-style:NORMAL;font-weight:normal;">&lt;</text>
  <text x="527.642,530.063,535.012,539.961,544.911,547.798,550.219,551.962,557.844,562.793,566.711,568.459,571.911,576.394,579.281,581.702,586.652" y="620.566" svg_rhmargin="590.104" style="fill:#171615;font-family:HPMFFM+AdvOTbc475f09;font-size:8.97px;font-style:NORMAL;font-weight:normal;">.002). The ratios</text>
  <text svg_rhmargin="400.965" x="345.09,350.039,352.926,354.897,359.38,365.818,372.256,379.626,384.109,389.058,391.066,396.016,400.96500000000003" y="627.54" style="fill:#171615;font-family:HPMFFM+AdvOTbc475f09;font-size:8.97px;font-style:NORMAL;font-weight:normal;">of SUVmax on </text>
  <text x="402.916,406.629" y="627.54" svg_rhmargin="410.341" style="fill:#171615;font-family:HPMFFM+AdvOTbc475f09;font-size:5.98px;font-style:NORMAL;font-weight:normal;">68</text>
  <text svg_rhmargin="554.09" x="410.4,417.304,421.787,424.674,431.578,438.949,444.831,451.268,454.155,459.105,463.023,467.973,470.86,473.281,478.23,482.148,484.155,489.104,494.52,500.402,502.823,509.261,515.143,517.149,520.036,524.9849999999999,527.014,529.901,534.85,539.334,542.2209999999999,544.191,549.141,554.0899999999999" y="627.54" style="fill:#171615;font-family:HPMFFM+AdvOTbc475f09;font-size:8.97px;font-style:NORMAL;font-weight:normal;">Ga-DOTA-peptide PET/CT to that on </text>
  <text x="556.101,559.813" y="627.54" svg_rhmargin="563.525" style="fill:#171615;font-family:HPMFFM+AdvOTbc475f09;font-size:5.98px;font-style:NORMAL;font-weight:normal;">18</text>
  <text x="563.527,568.477,571.364,576.313,583.217" y="631.509" svg_rhmargin="590.121" style="fill:#171615;font-family:HPMFFM+AdvOTbc475f09;font-size:8.97px;font-style:NORMAL;font-weight:normal;">F-FDG</text>
  <text x="345.089,350.038,355.454,361.336,363.756,370.194,376.076,378.48,385.384,389.302,392.754,396.672,399.116,402.568,404.989,409.472,414.421" y="642.5070000000001" svg_rhmargin="416.842" style="fill:#171615;font-family:HPMFFM+AdvOTbc475f09;font-size:8.97px;font-style:NORMAL;font-weight:normal;">PET/CT were signi</text>
  <text x="416.862" y="642.5070000000001" svg_rhmargin="421.811" style="fill:#171615;font-family:HPMFFO+AdvOTbc475f09+fb;font-size:8.97px;font-style:NORMAL;font-weight:normal;">ﬁ</text>
  <text x="421.794,425.713,430.196,435.145,438.032,440.453,444.936,447.362,452.311,454.732,459.215,464.165,468.083,471.535,474.007,476.428,481.377,483.815,486.702,491.186,496.135,498.556,502.474,506.957,509.378,511.821,515.739,520.222,523.674,527.592,530.013,534.963,539.912,542.333,547.282,550.734,553.148,556.035,560.985,563.406,568.355" y="642.5070000000001" svg_rhmargin="573.304" style="fill:#171615;font-family:HPMFFM+AdvOTbc475f09;font-size:8.97px;font-style:NORMAL;font-weight:normal;">cantly higher in typical carcinoids (1.22</text>
  <text x="573.335" y="642.5070000000001" svg_rhmargin="577.818" style="fill:#171615;font-family:HPMFFN+AdvOTbc475f09+20;font-size:8.97px;font-style:NORMAL;font-weight:normal;">–</text>
  <text x="577.813,582.763,587.712" y="642.5070000000001" svg_rhmargin="590.133" style="fill:#171615;font-family:HPMFFM+AdvOTbc475f09;font-size:8.97px;font-style:NORMAL;font-weight:normal;">30,</text>
  <text svg_rhmargin="384.693" x="345.089,352.459,356.377,360.86,365.809,367.425,372.374,377.323,379.744,384.69300000000004" y="653.448" style="fill:#171615;font-family:HPMFFM+AdvOTbc475f09;font-size:8.97px;font-style:NORMAL;font-weight:normal;">mean 13.1 </text>
  <text x="385.851" y="653.448" svg_rhmargin="391.921" style="fill:#171615;font-family:HPMFFI+AdvOTb0c9bf5d;font-size:8.97px;font-style:NORMAL;font-weight:normal;">±</text>
  <text x="393.051,398.001,400.421,405.371,408.258,409.888,412.775,417.725,422.208,427.15700000000004,428.823,433.306,436.193,440.677,445.626,448.047,451.965,456.448,458.86899999999997,460.514,464.432,468.915,472.367,476.285,478.706,483.656,488.605,491.026,495.975,499.427,501.104,503.991,508.941,511.362,516.311" y="653.448" svg_rhmargin="521.26" style="fill:#171615;font-family:HPMFFM+AdvOTbc475f09;font-size:8.97px;font-style:NORMAL;font-weight:normal;">7.3) than atypical carcinoids (0.19</text>
  <text x="521.291" y="653.448" svg_rhmargin="525.774" style="fill:#171615;font-family:HPMFFN+AdvOTbc475f09+20;font-size:8.97px;font-style:NORMAL;font-weight:normal;">–</text>
  <text svg_rhmargin="581.797" x="525.769,530.719,533.14,538.089,543.039,545.46,547.141,554.512,558.43,562.913,567.862,569.477,574.427,576.848,581.7969999999999" y="653.448" style="fill:#171615;font-family:HPMFFM+AdvOTbc475f09;font-size:8.97px;font-style:NORMAL;font-weight:normal;">3.97, mean 1.7 </text>
  <text x="582.973" y="653.448" svg_rhmargin="589.043" style="fill:#171615;font-family:HPMFFI+AdvOTb0c9bf5d;font-size:8.97px;font-style:NORMAL;font-weight:normal;">±</text>
  <text x="345.089,350.038,352.459,357.408,360.295,362.493" y="664.39" svg_rhmargin="365.38" style="fill:#171615;font-family:HPMFFM+AdvOTbc475f09;font-size:8.97px;font-style:NORMAL;font-weight:normal;">1.5) (</text>
  <text svg_rhmargin="370.801" x="365.385,370.8" y="664.39" style="fill:#171615;font-family:HPMGBC+AdvOT638a931c.I;font-size:8.97px;font-style:NORMAL;font-weight:normal;">P </text>
  <text x="371.961" y="664.39" svg_rhmargin="378.865" style="fill:#171615;font-family:HPMFFL+AdvP4C4E51;font-size:8.97px;font-style:NORMAL;font-weight:normal;">&lt;</text>
  <text x="379.955,382.376,387.325,392.275,397.224,400.111,402.532,404.785,411.223,416.172,418.392,422.875,429.313,435.75,443.121,447.604,452.553,454.788,458.24,462.723,465.61,468.031,472.98,475.197,480.146,482.567,487.05,492.0,495.918,499.37,501.615,504.502,509.452,513.935,518.8839999999999,521.117,524.004,528.953,532.871,535.12,539.038,543.987,546.874,551.824,554.711,557.598,559.837,564.32,568.803,571.224,576.174,580.092,582.287,587.236" y="664.39" svg_rhmargin="590.123" style="fill:#171615;font-family:HPMFFM+AdvOTbc475f09;font-size:8.97px;font-style:NORMAL;font-weight:normal;">.001). An SUVmax ratio higher than the cutoff value of</text>
  <text x="345.089,350.038,352.459,357.408,362.357,366.348,373.252,377.735,381.187,385.169,390.118,393.57,397.489,402.438,404.859,408.777,411.664,414.085,418.568,422.486,426.554,431.503,434.39,438.403,444.285,450.723,454.73,461.634,464.055,466.942,471.891,475.876,480.826,485.775,488.196,493.146,502.112,506.149,509.601,513.52,518.469,521.921,524.342,527.229,529.65,534.133,536.554,539.441,543.924,547.931,552.414,557.363,562.312,566.299,571.248,576.198,581.147" y="675.388" svg_rhmargin="590.113" style="fill:#171615;font-family:HPMFFM+AdvOTbc475f09;font-size:8.97px;font-style:NORMAL;font-weight:normal;">4.28 was predictive of TC with 89.3% sensitivity and 100%</text>
  <text x="345.089,348.541,353.49,357.408,361.327" y="686.33" svg_rhmargin="363.748" style="fill:#171615;font-family:HPMFFM+AdvOTbc475f09;font-size:8.97px;font-style:NORMAL;font-weight:normal;">speci</text>
  <text x="363.74" y="686.33" svg_rhmargin="368.689" style="fill:#171615;font-family:HPMFFO+AdvOTbc475f09+fb;font-size:8.97px;font-style:NORMAL;font-weight:normal;">ﬁ</text>
  <text x="368.673,372.591,375.012,377.899,382.382,385.17,388.057,394.495,400.933,407.37,409.791,412.552,417.501,422.451,424.872,429.821,438.787,441.20799999999997,443.959,448.909,453.858,462.824,465.615,472.053,474.94,477.361,480.128,485.078,490.027,492.448" y="686.33" svg_rhmargin="497.397" style="fill:#171615;font-family:HPMFFM+AdvOTbc475f09;font-size:8.97px;font-style:NORMAL;font-weight:normal;">city (AUC, 96.4%; 95% CI, 91.1</text>
  <text x="497.366" y="686.33" svg_rhmargin="501.849" style="fill:#171615;font-family:HPMFFN+AdvOTbc475f09+20;font-size:8.97px;font-style:NORMAL;font-weight:normal;">–</text>
  <text svg_rhmargin="572.093" x="501.845,506.794,511.743,516.693,525.659,528.5459999999999,531.324,534.211,539.161,541.581,546.065,548.4860000000001,551.218,556.168,559.055,561.476,564.257,567.144,572.093" y="682.362" style="fill:#171615;font-family:HPMFFM+AdvOTbc475f09;font-size:8.97px;font-style:NORMAL;font-weight:normal;">100%) (Fig. 4). In </text>
  <text x="574.866,578.579" y="682.362" svg_rhmargin="582.291" style="fill:#171615;font-family:HPMFFM+AdvOTbc475f09;font-size:5.98px;font-style:NORMAL;font-weight:normal;">18</text>
  <text x="582.293,587.242" y="686.331" svg_rhmargin="590.129" style="fill:#171615;font-family:HPMFFM+AdvOTbc475f09;font-size:8.97px;font-style:NORMAL;font-weight:normal;">F-</text>
  <text x="345.088,350.038,356.942,363.846,367.425,370.877,373.764,378.714,383.663,386.084,390.002,393.454,395.875,399.456,402.343,407.292,411.21,414.819,419.303,425.74,432.178,439.548,444.032,448.981,452.576,457.059,461.542,463.963,468.912,472.83,476.282,479.9,484.85,487.737,491.352,497.79,504.228,507.793,510.68,515.163,521.601,528.039,535.409,539.892,544.841,548.441,551.893,556.376,561.325,565.808,569.726,573.328,578.278,580.699" y="697.272" svg_rhmargin="585.648" style="fill:#171615;font-family:HPMFFM+AdvOTbc475f09;font-size:8.97px;font-style:NORMAL;font-weight:normal;">FDG studies, the SUVmax values of AC (SUVmax range 1.7</text>
  <text x="585.637" y="697.272" svg_rhmargin="590.12" style="fill:#171615;font-family:HPMFFN+AdvOTbc475f09+20;font-size:8.97px;font-style:NORMAL;font-weight:normal;">–</text>
  <text svg_rhmargin="446.3" x="345.088,350.038,354.987,357.408,362.358,364.779,369.522,376.893,380.811,385.294,390.243,395.033,399.517,405.954,412.392,419.762,424.246,429.195,433.98,438.93,441.351,446.3" y="708.2139999999999" style="fill:#171615;font-family:HPMFFM+AdvOTbc475f09;font-size:8.97px;font-style:NORMAL;font-weight:normal;">14.5, mean SUVmax 6.0 </text>
  <text x="447.42" y="708.2139999999999" svg_rhmargin="453.49" style="fill:#171615;font-family:HPMFFI+AdvOTb0c9bf5d;font-size:8.97px;font-style:NORMAL;font-weight:normal;">±</text>
  <text x="454.62,459.569,461.99,466.94,469.827,474.632,481.536,486.019,489.471,494.247,499.197,501.618,506.101,511.05,514.968,518.42,523.16,526.047,530.997,535.48,540.429,545.214,548.101,553.05,557.533,560.42,565.225,570.175,573.0619999999999,577.811,583.693" y="708.2139999999999" svg_rhmargin="590.131" style="fill:#171615;font-family:HPMFFM+AdvOTbc475f09;font-size:8.97px;font-style:NORMAL;font-weight:normal;">3.4) was higher than that of TC</text>
  <text x="345.088,347.976,352.459,358.897,365.334,372.705,377.188,382.137,384.489,387.941,392.424,397.374,401.857,405.77500000000003,408.072,413.022,415.443" y="719.212" svg_rhmargin="420.392" style="fill:#171615;font-family:HPMFFM+AdvOTbc475f09;font-size:8.97px;font-style:NORMAL;font-weight:normal;">(SUVmax range 0.8</text>
  <text x="420.433" y="719.212" svg_rhmargin="424.916" style="fill:#171615;font-family:HPMFFN+AdvOTbc475f09+20;font-size:8.97px;font-style:NORMAL;font-weight:normal;">–</text>
  <text svg_rhmargin="518.809" x="424.912,429.861,434.811,437.232,442.181,444.602,446.908,454.278,458.197,462.68,467.629,469.981,474.464,480.902,487.34,494.71,499.193,504.142,506.49,511.439,513.86,518.809" y="719.212" style="fill:#171615;font-family:HPMFFM+AdvOTbc475f09;font-size:8.97px;font-style:NORMAL;font-weight:normal;">16.0, mean SUVmax 3.7 </text>
  <text x="519.93" y="719.212" svg_rhmargin="526.0" style="fill:#171615;font-family:HPMFFI+AdvOTb0c9bf5d;font-size:8.97px;font-style:NORMAL;font-weight:normal;">±</text>
  <text svg_rhmargin="541.87" x="527.129,532.079,534.5,539.449,541.87" y="719.212" style="fill:#171615;font-family:HPMFFM+AdvOTbc475f09;font-size:8.97px;font-style:NORMAL;font-weight:normal;">2.6, </text>
  <text svg_rhmargin="549.61" x="544.194,549.6089999999999" y="719.212" style="fill:#171615;font-family:HPMGBC+AdvOT638a931c.I;font-size:8.97px;font-style:NORMAL;font-weight:normal;">P </text>
  <text x="550.771" y="719.212" svg_rhmargin="557.675" style="fill:#171615;font-family:HPMFFL+AdvP4C4E51;font-size:8.97px;font-style:NORMAL;font-weight:normal;">&lt;</text>
  <text x="558.764,561.185,566.135,571.084,573.971,576.392,578.776,585.214" y="719.212" svg_rhmargin="590.163" style="fill:#171615;font-family:HPMFFM+AdvOTbc475f09;font-size:8.97px;font-style:NORMAL;font-weight:normal;">.05). An</text>
  <path d=" M 85.03900146484375 766.885009765625 L 590.115966796875 766.885009765625 L 590.115966796875 767.6220092773438 L 85.03900146484375 767.6220092773438 Z " style="fill:none;stroke:#000000;stroke-width:1.0;"/>
  <path d=" M 85.03900146484375 329.0459899902344 L 590.115966796875 329.0459899902344 L 590.115966796875 329.7829895019531 L 85.03900146484375 329.7829895019531 Z " style="fill:none;stroke:#000000;stroke-width:1.0;"/>
  <path d="M121.606 40.202 L553.606 40.202 L553.606 451.848 L121.606 451.848 " style="fill:none;stroke:#000000;stroke-width:1.0;"/>
  <rect style="stroke:blue;stroke-width:0.3;" x="121.606" y="40.202" height="411.647" width="432.0" title="3"/>
  <text x="121.606" y="40.202" class="image" id="image.3.1" width="432" height="411">image.3.1.122_554.40_452</text>
  <text svg_rhmargin="263.019" x="232.894,237.251,239.038,243.395,247.669,250.233,254.358,256.877,261.002,263.019" y="462.847" style="fill:#171615;font-family:HPMFPB+AdvOTf94803d4;font-size:7.47px;font-style:NORMAL;font-weight:normal;">Figure 1. </text>
  <text x="266.796,270.921,274.888,278.69899999999996,281.195,285.469,287.8,291.925,295.735,299.546,303.125,306.704,309.256,313.381,315.24899999999997,317.703,321.282,325.093,326.415,330.226,334.036,336.211,337.533,341.501,345.626,348.201,351.78,353.955,357.922,362.196,363.518,367.329,370.908,373.428,375.296,379.42,381.75100000000003,384.255,386.429,390.397,394.20799999999997,396.727,402.869,406.679,408.854,412.664,415.384,419.195,423.162,426.973,428.295,431.717,435.296,436.619,440.198" y="462.847" svg_rhmargin="442.215" style="fill:#171615;font-family:HPMFEF+AdvOT6e5d2ec0;font-size:7.47px;font-style:NORMAL;font-weight:normal;">The process of selecting studies for the meta-analysis.</text>
  <text x="85.039,89.024,90.435,94.5,98.732,103.131,105.732,109.796,112.11500000000001,114.746,118.811,120.221,122.373,125.064,131.616,135.68,140.239,141.65,145.715,147.126,151.358,155.423,158.002,159.907,164.306,168.706,173.105,177.505,179.41,182.038,186.438,190.837,192.989,197.389,201.788,517.041,522.931,528.821,534.711,536.863,543.414,547.973,550.874,552.285,556.685,560.917,563.3,567.532,571.597,573.008,575.16,579.224,583.624" y="9.870999999999981" svg_rhmargin="590.176" style="fill:#171615;font-family:HPMFEF+AdvOT6e5d2ec0;font-size:7.97px;font-style:NORMAL;font-weight:normal;">Jiang et al. Medicine (2019) 98:10 www.md-journal.com</text>
  <text x="335.396" y="739.625" svg_rhmargin="339.796" style="fill:#171615;font-family:HPMFPB+AdvOTf94803d4;font-size:7.97px;font-style:NORMAL;font-weight:normal;">3</text>
 </g>
</svg>
