<?xml version="1.0" encoding="UTF-8"?>
<svg height="870.031005859375" width="672.0029907226562" xmlns="http://www.w3.org/2000/svg">
 <g style="fill:none;">
  <path d=" M 0.05999799817800522 826.072021484375 L 22.619997024536133 826.072021484375 L 22.619997024536133 826.35546875 L 0.05999799817800522 826.35546875 Z " style="fill:none;stroke:#000000;stroke-width:1.0;"/>
  <path d=" M 33.67599868774414 837.4110107421875 L 33.959449768066406 837.4110107421875 L 33.959449768066406 860.031005859375 L 33.67599868774414 860.031005859375 Z " style="fill:none;stroke:#000000;stroke-width:1.0;"/>
  <path d=" M 627.9869995117188 837.4110107421875 L 628.2703857421875 837.4110107421875 L 628.2703857421875 860.031005859375 L 627.9869995117188 860.031005859375 Z " style="fill:none;stroke:#000000;stroke-width:1.0;"/>
  <path d=" M 639.3259887695312 826.072021484375 L 662.0029907226562 826.072021484375 L 662.0029907226562 826.35546875 L 639.3259887695312 826.35546875 Z " style="fill:none;stroke:#000000;stroke-width:1.0;"/>
  <path d=" M 639.3259887695312 33.731998443603516 L 662.0029907226562 33.731998443603516 L 662.0029907226562 34.015480041503906 L 639.3259887695312 34.015480041503906 Z " style="fill:none;stroke:#000000;stroke-width:1.0;"/>
  <path d=" M 627.9869995117188 0.0 L 628.2703857421875 0.0 L 628.2703857421875 22.677000045776367 L 627.9869995117188 22.677000045776367 Z " style="fill:none;stroke:#000000;stroke-width:1.0;"/>
  <path d=" M 33.67599868774414 0.0 L 33.959449768066406 0.0 L 33.959449768066406 22.677000045776367 L 33.67599868774414 22.677000045776367 Z " style="fill:none;stroke:#000000;stroke-width:1.0;"/>
  <path d=" M 0.05999799817800522 33.731998443603516 L 22.619997024536133 33.731998443603516 L 22.619997024536133 34.015480041503906 L 0.05999799817800522 34.015480041503906 Z " style="fill:none;stroke:#000000;stroke-width:1.0;"/>
  <text x="85.039,89.989,93.77,97.222,99.643,103.974,107.89200000000001,111.741,119.111,123.93,127.382,131.3,135.098,138.55,143.375,148.324,153.274,156.528,159.415,163.274,167.192,170.53,173.418,175.838,183.059,187.542,190.315,194.234,197.686,201.484,206.433,209.32,213.106,215.993,220.816,224.734,228.583,233.532,235.839,240.322,244.683,249.632,254.433,257.885,260.67,263.09,267.008,270.818,275.767,279.548,283.0,285.784,290.734,294.061,301.431,305.796,310.745,314.664,318.582,322.35,327.299" y="324.687" svg_rhmargin="330.186" style="fill:#171615;font-family:HPMFFM+AdvOTbc475f09;font-size:8.97px;font-style:NORMAL;font-weight:normal;">derive more robust estimates of the diagnostic performance of</text>
  <text x="85.039,88.752" y="331.66" svg_rhmargin="92.464" style="fill:#171615;font-family:HPMFFM+AdvOTbc475f09;font-size:5.98px;font-style:NORMAL;font-weight:normal;">68</text>
  <text svg_rhmargin="183.302" x="92.353,99.257,103.74,106.468,113.372,120.641,126.523,132.83,135.717,140.54,144.459,149.408,152.162,154.582,159.418,163.336,169.056,173.539,178.353,183.30200000000002" y="331.66" style="fill:#171615;font-family:HPMFFM+AdvOTbc475f09;font-size:8.97px;font-style:NORMAL;font-weight:normal;">Ga-DOTA-peptide and </text>
  <text x="189.014,192.727" y="331.66" svg_rhmargin="196.439" style="fill:#171615;font-family:HPMFFM+AdvOTbc475f09;font-size:5.98px;font-style:NORMAL;font-weight:normal;">18</text>
  <text x="196.327,201.277,204.038,208.987,215.773,222.677,228.415,233.365,238.78,244.459,246.88,253.317,259.199,264.811,267.232,272.18100000000004,277.851,282.8,287.148,290.035,292.456,296.218,301.168,303.929,307.381,313.113,320.017,322.297,325.184" y="335.628" svg_rhmargin="330.133" style="fill:#171615;font-family:HPMFFM+AdvOTbc475f09;font-size:8.97px;font-style:NORMAL;font-weight:normal;">F-FDG PET/CT in patients with</text>
  <text x="85.039,89.988,94.79,97.21,104.581,109.416,114.366,118.713,122.165,126.64800000000001,129.372,133.29,137.648,141.1,144.905,147.326,152.161,157.111,159.418,164.367,166.78799999999998,169.509,176.413,180.33100000000002,183.116,188.065,192.867,197.816,200.123,204.041,208.99,211.745,216.694,221.496,226.445,228.752,231.173,234.625,239.411,243.329,248.27800000000002,251.033,254.485,257.269,262.218,267.02,269.44,273.256,276.708,279.129,281.873,284.76,289.709,292.475,295.362,300.185,302.606,306.058,308.803,316.173,319.971,322.858,327.227" y="346.57" svg_rhmargin="330.114" style="fill:#171615;font-family:HPMFFM+AdvOTbc475f09;font-size:8.97px;font-style:NORMAL;font-weight:normal;">pulmonary carcinoid, we pooled published studies. In this meta-</text>
  <text x="85.039,89.522,94.336,98.819,101.24,105.561,109.013,111.434,114.745,117.16600000000001,119.337,126.242,130.16,132.32,136.238,141.05,146.0,149.327,153.245,155.45,158.337,163.286,165.428,169.346,173.705,176.126,179.941,184.89,187.197,191.68,194.454,198.372,200.577,205.526,210.327,215.277,217.584,221.502,226.45100000000002,228.582,232.034,235.838,240.788,244.24,246.497,249.384,251.805,256.135,258.555,261.443,265.926,268.04,272.989,277.938,280.058,284.541,286.748,291.698,295.479,298.931,301.148,306.097,310.445,313.332,315.753,319.516,324.465,327.226" y="357.568" svg_rhmargin="330.113" style="fill:#171615;font-family:HPMFFM+AdvOTbc475f09;font-size:8.97px;font-style:NORMAL;font-weight:normal;">analysis, we chose to calculate pooled sensitivity on a per patient-</text>
  <text x="85.039,89.988,94.336,97.788,101.592,106.541,108.622,113.105,117.919,122.402,124.823,129.144,132.596,134.87,138.322,140.369,143.256,145.677,150.46,153.912,156.696,160.615,164.973,169.92200000000003,172.003,176.952,179.839,181.81,186.293,188.33,193.279,197.197,200.649,202.616,205.036,208.852,212.304,214.577,219.527,224.476,227.22,232.169,236.517,239.969,243.774,248.723,250.747,255.696,259.148,261.178,265.661,267.697,272.647,276.428,279.88,281.927,285.379,289.183,293.667,296.087,300.862,305.811,308.572,313.522,318.005,321.328,325.246" y="368.51" svg_rhmargin="330.195" style="fill:#171615;font-family:HPMFFM+AdvOTbc475f09;font-size:8.97px;font-style:NORMAL;font-weight:normal;">based analysis (instead of a per lesion-based or a per region-based</text>
  <text x="85.039,89.522,94.336,98.819,101.24,105.561,109.013,111.434,114.745,117.632,119.848,124.797,128.715,132.49,136.973,141.787,145.239,149.157,151.369,158.739,163.557,167.009,169.896,172.118,177.067,179.954,182.152,185.039,189.988,193.906,196.098,200.581,205.395,208.282,213.105,218.055,221.382,224.834,227.108,232.057,236.405,240.888,244.806,247.007,251.49,256.439,261.236,266.186,268.946,272.865,277.814,280.001,282.888,287.838,290.092,293.544,295.818,299.736,303.074,305.495,308.382,312.144,315.596,318.017,322.803,327.752" y="379.451" svg_rhmargin="330.173" style="fill:#171615;font-family:HPMFFM+AdvOTbc475f09;font-size:8.97px;font-style:NORMAL;font-weight:normal;">analysis) because most of the authors have adopted this criterion.</text>
  <text x="93.996,102.962,107.912,111.83,116.779,120.414,123.301,128.251,132.169,135.835,140.784,144.702,147.589,151.508,155.426,158.313,160.734,165.683,170.632,174.271,177.723,182.206,185.094,189.012,192.696,197.646,200.533,204.148,209.097,214.047,216.468,223.838,228.787,233.737,238.22,241.672,246.155,249.841,253.759,258.243,261.695,265.613,268.034,272.983,277.933,280.353,285.302,288.958,295.862,298.283,301.17,306.119,309.764,312.651,317.6,321.51800000000003,325.184" y="390.449" svg_rhmargin="330.133" style="fill:#171615;font-family:HPMFFM+AdvOTbc475f09;font-size:8.97px;font-style:NORMAL;font-weight:normal;">When the detection rate of pulmonary carcinoid with the 2</text>
  <text svg_rhmargin="178.516" x="85.039,92.409,96.327,99.214,104.164,109.113,114.063,117.515,123.872,130.776,135.259,138.71099999999998,145.018,149.501,152.953,156.405,160.323,163.775,167.227,171.146,176.095,178.516" y="397.424" style="fill:#171615;font-family:HPMFFM+AdvOTbc475f09;font-size:8.97px;font-style:NORMAL;font-weight:normal;">methods was assessed, </text>
  <text x="184.876,188.588" y="397.424" svg_rhmargin="192.3" style="fill:#171615;font-family:HPMFFM+AdvOTbc475f09;font-size:5.98px;font-style:NORMAL;font-weight:normal;">68</text>
  <text x="192.302,199.206,203.69,206.577,213.481,220.851,226.733,233.171,236.058,241.007,244.926,249.875,252.762,255.183,260.132,264.05,270.479,277.384,281.867,285.319,291.626,295.544,300.493" y="401.392" svg_rhmargin="305.442" style="fill:#171615;font-family:HPMFFM+AdvOTbc475f09;font-size:8.97px;font-style:NORMAL;font-weight:normal;">Ga-DOTA-peptide was con</text>
  <text x="305.461" y="401.392" svg_rhmargin="310.41" style="fill:#171615;font-family:HPMFFO+AdvOTbc475f09+fb;font-size:8.97px;font-style:NORMAL;font-weight:normal;">ﬁ</text>
  <text x="310.394,313.846,321.216,325.134" y="401.392" svg_rhmargin="330.083" style="fill:#171615;font-family:HPMFFM+AdvOTbc475f09;font-size:8.97px;font-style:NORMAL;font-weight:normal;">rmed</text>
  <text svg_rhmargin="251.802" x="85.038,89.988,93.44,98.389,102.872,105.293,110.243,112.664,117.613,122.096,128.747,133.697,137.615,140.502,143.389,147.308,150.76,157.377,162.326,166.809,170.728,174.18,178.663,181.084,183.505,190.144,193.596,197.514,202.464,205.916,208.337,211.224,213.645,218.128,220.549,223.436,227.919,234.534,237.421,242.37,246.853,251.80200000000002" y="408.365" style="fill:#171615;font-family:HPMFFM+AdvOTbc475f09;font-size:8.97px;font-style:NORMAL;font-weight:normal;">providing better overall sensitivity than </text>
  <text x="258.463,262.176" y="408.365" svg_rhmargin="265.888" style="fill:#171615;font-family:HPMFFM+AdvOTbc475f09;font-size:5.98px;font-style:NORMAL;font-weight:normal;">18</text>
  <text x="265.89,270.839,273.726,278.676,285.58,292.484,299.111,304.06,309.476,315.358,317.779,324.216" y="412.334" svg_rhmargin="330.098" style="fill:#171615;font-family:HPMFFM+AdvOTbc475f09;font-size:8.97px;font-style:NORMAL;font-weight:normal;">F-FDG PET/CT</text>
  <text svg_rhmargin="330.06" x="85.039,87.926,92.875,97.824,100.245,105.195,114.16099999999999,117.41,121.893,125.345,128.634,133.584,138.533,140.954,145.904,154.87,158.114,165.018,171.456,173.87699999999998,177.162,180.614,184.532,187.984,192.934,196.852,200.77,203.657,206.078,210.561,214.48,216.901,221.384,224.271,226.69199999999998,230.054,235.003,239.953,244.902,248.35399999999998,251.597,255.049,257.936,262.885,267.835,270.255,274.174,277.626,280.906,283.327,288.276,291.564,294.451,299.4,301.821,305.273,308.515,315.885,319.803,322.69,327.173,330.06" y="324.687" style="fill:#171615;font-family:HPMFFM+AdvOTbc475f09;font-size:8.97px;font-style:NORMAL;font-weight:normal;">(90.0% vs 71.0% DR, respectively). Four studies in this meta- </text>
  <text x="345.09,349.573,354.522,359.006,361.427,365.91,369.362,371.783,375.235,378.197,382.115,387.065,394.435,399.384,403.868,407.32,409.741,414.69,419.173,422.189,425.077,430.026,433.944,436.986,441.935,445.853,449.305,452.192,457.142,460.594,467.964,472.447,477.397,481.315,485.233,488.234,493.184,496.071,499.063,501.95,508.854,513.803,516.807,519.694,523.146,527.63,531.548,535.466,538.918,542.37,545.379,547.8,552.7489999999999,555.754,560.703,564.622,567.509,571.427,575.345,578.233,580.654,585.603" y="324.687" svg_rhmargin="590.086" style="fill:#171615;font-family:HPMFFM+AdvOTbc475f09;font-size:8.97px;font-style:NORMAL;font-weight:normal;">analysis comparing the performance of two tracers in detecting</text>
  <text svg_rhmargin="563.081" x="345.09,350.039,354.989,357.41,364.78,369.729,374.679,379.162,382.614,387.097,392.37,396.288,400.772,404.224,408.142,410.563,415.512,420.462,422.882,427.832,431.284,436.646,441.129,443.55,445.971,451.272,453.693,458.643,463.592,466.013,469.931,474.414,477.302,481.22,486.16900000000004,491.523,494.41,499.36,503.278,508.588,512.04,516.989,521.939,525.857,529.309,531.73,536.679,540.131,542.552,545.439,549.9219999999999,555.245,560.194,563.0809999999999" y="331.66" style="fill:#171615;font-family:HPMFFM+AdvOTbc475f09;font-size:8.97px;font-style:NORMAL;font-weight:normal;">pulmonary carcinoids all indicated the superiority of </text>
  <text x="568.403,572.116" y="331.66" svg_rhmargin="575.828" style="fill:#171615;font-family:HPMFFM+AdvOTbc475f09;font-size:5.98px;font-style:NORMAL;font-weight:normal;">68</text>
  <text x="575.83,582.734,587.217" y="335.628" svg_rhmargin="590.104" style="fill:#171615;font-family:HPMFFM+AdvOTbc475f09;font-size:8.97px;font-style:NORMAL;font-weight:normal;">Ga-</text>
  <text svg_rhmargin="421.418" x="345.089,351.993,359.364,365.245,371.683,374.57,379.52,383.438,388.388,391.275,393.696,398.645,402.563,404.615,409.564,414.047,417.966,421.418" y="342.602" style="fill:#171615;font-family:HPMFFM+AdvOTbc475f09;font-size:8.97px;font-style:NORMAL;font-weight:normal;">DOTA-peptide over </text>
  <text x="423.496,427.209" y="342.602" svg_rhmargin="430.921" style="fill:#171615;font-family:HPMFFM+AdvOTbc475f09;font-size:5.98px;font-style:NORMAL;font-weight:normal;">18</text>
  <text x="430.923,435.872,438.759,443.709,450.613,457.517,459.938,462.046,468.95,473.899,476.32,480.238,485.187,487.217,494.121,498.604,502.056,504.168,506.588,511.53700000000003,513.579,515.999,518.42,523.37,527.288,529.339,536.243,538.664,541.551,546.5,548.613,553.563,558.512,561.9639999999999,563.977,568.927,573.876,578.825,581.246,585.165" y="346.57" svg_rhmargin="590.114" style="fill:#171615;font-family:HPMFFM+AdvOTbc475f09;font-size:8.97px;font-style:NORMAL;font-weight:normal;">F-FDG, which was in line with our pooled</text>
  <text x="345.089,348.541,352.46,355.912,360.861,363.282,366.169,368.59,375.589,381.471,386.42,390.339,392.759,396.211,403.198,408.147,410.568,413.455,416.343,420.261,423.713,427.631,432.581,435.468,442.485,447.434,452.384,455.271,459.754,464.703,468.621,475.593,482.963,486.881,490.8,495.749,500.232,505.182,507.603,511.055,518.425,521.877,528.882,533.832,537.75,542.233,545.685,549.137,556.151,561.1,564.552,566.973,571.922,575.841,578.261,583.211,587.694" y="357.568" svg_rhmargin="590.115" style="fill:#171615;font-family:HPMFFM+AdvOTbc475f09;font-size:8.97px;font-style:NORMAL;font-weight:normal;">result. Their different uptake mechanisms bears principal</text>
  <text svg_rhmargin="504.971" x="345.089,348.541,352.46,355.912,360.861,365.81,370.76,374.212,376.633,381.582,384.003,386.424,388.845,391.732,396.21500000000003,402.177,405.064,410.013,413.465,419.354,424.304,426.725,429.612,432.499,436.417,439.869,443.788,448.737,451.624,457.621,462.57,466.488,471.438,475.921,480.404,482.825,487.774,491.226,497.134,502.084,504.971" y="364.542" style="fill:#171615;font-family:HPMFFM+AdvOTbc475f09;font-size:8.97px;font-style:NORMAL;font-weight:normal;">responsibility for different behavior of </text>
  <text x="510.916,514.629" y="364.542" svg_rhmargin="518.341" style="fill:#171615;font-family:HPMFFM+AdvOTbc475f09;font-size:5.98px;font-style:NORMAL;font-weight:normal;">68</text>
  <text x="518.343,525.247,529.73,532.618,539.522,546.892,552.774,559.212,562.099,567.048,570.966,575.916,578.803,581.224,586.173" y="368.51" svg_rhmargin="590.091" style="fill:#171615;font-family:HPMFFM+AdvOTbc475f09;font-size:8.97px;font-style:NORMAL;font-weight:normal;">Ga-DOTA-peptide</text>
  <text svg_rhmargin="359.471" x="345.089,349.572,354.522,359.471" y="375.484" style="fill:#171615;font-family:HPMFFM+AdvOTbc475f09;font-size:8.97px;font-style:NORMAL;font-weight:normal;">and </text>
  <text x="361.361,365.073" y="375.484" svg_rhmargin="368.785" style="fill:#171615;font-family:HPMFFM+AdvOTbc475f09;font-size:5.98px;font-style:NORMAL;font-weight:normal;">18</text>
  <text x="368.844,373.793,376.681,381.63,388.534,395.438" y="379.452" svg_rhmargin="397.859" style="fill:#171615;font-family:HPMFFM+AdvOTbc475f09;font-size:8.97px;font-style:NORMAL;font-weight:normal;">F-FDG.</text>
  <text svg_rhmargin="409.627" x="397.871,400.037,403.749,407.462,409.627" y="379.452" style="fill:#171615;font-family:HPMFFM+AdvOTbc475f09;font-size:5.98px;font-style:NORMAL;font-weight:normal;">[22] </text>
  <text x="411.591,416.54,421.489,423.91,431.281,436.23,441.179,445.662,449.115,453.598,455.526,460.476,463.928,466.349,473.719,478.202,481.654,486.137,488.123,492.042,496.525,499.977,503.895,506.316,511.265,516.215,518.636,523.585,527.037,528.997,533.48,536.932,540.85,542.773,546.225,551.174,556.124,560.042,562.463,566.946,570.398,573.85" y="379.452" svg_rhmargin="576.271" style="fill:#171615;font-family:HPMFFM+AdvOTbc475f09;font-size:8.97px;font-style:NORMAL;font-weight:normal;">Pulmonary primary carcinoids are subclassi</text>
  <text x="576.341" y="379.452" svg_rhmargin="581.29" style="fill:#171615;font-family:HPMFFO+AdvOTbc475f09+fb;font-size:8.97px;font-style:NORMAL;font-weight:normal;">ﬁ</text>
  <text x="581.273,585.192" y="379.452" svg_rhmargin="590.141" style="fill:#171615;font-family:HPMFFM+AdvOTbc475f09;font-size:8.97px;font-style:NORMAL;font-weight:normal;">ed</text>
  <text x="345.09,349.573,353.025,356.656,359.543,364.026,368.975,371.396,375.315,379.798,382.219,385.852,390.335,395.284,400.233,403.88,408.363,411.25,415.733,420.682,423.103,427.022,431.505,433.926,437.554,441.473,445.956,449.408,453.326,455.747,460.696,465.646,468.067,473.016,476.468" y="390.45" svg_rhmargin="478.889" style="fill:#171615;font-family:HPMFFM+AdvOTbc475f09;font-size:8.97px;font-style:NORMAL;font-weight:normal;">as typical and atypical carcinoids.</text>
  <text svg_rhmargin="490.698" x="478.942,481.108,484.82,488.533,490.69800000000004" y="390.451" style="fill:#171615;font-family:HPMFFM+AdvOTbc475f09;font-size:5.98px;font-style:NORMAL;font-weight:normal;">[22] </text>
  <text x="494.362,500.8,505.749,510.699,514.617,518.535,521.987,526.937,529.358,534.307,538.79,542.436,545.323,550.272,554.19,557.856,562.805,565.226,568.113,571.001,574.919,578.371,582.289,587.239" y="390.451" svg_rhmargin="590.126" style="fill:#171615;font-family:HPMFFM+AdvOTbc475f09;font-size:8.97px;font-style:NORMAL;font-weight:normal;">Concerning the different</text>
  <text x="345.089,350.039,352.46,355.912,358.799,363.748,368.698,373.181,376.068,381.017,385.967,388.388,393.337,397.82,400.241,404.159,408.643,411.06399999999996,414.025,416.912,420.83,425.314,428.201,433.15,436.602,440.52,443.972,446.906,451.389,456.339,461.288,464.197,469.146,472.598,477.548,482.031,486.98,491.93,495.382,497.803,501.255,504.164,509.114,512.001,514.935,517.823,522.772,526.69,530.142,534.0600000000001,536.988,539.875,546.779,551.728,554.676,558.128,563.077,568.027,570.914,575.397,580.346,584.265,587.717" y="401.392" svg_rhmargin="590.138" style="fill:#171615;font-family:HPMFFM+AdvOTbc475f09;font-size:8.97px;font-style:NORMAL;font-weight:normal;">histopathological features and prognosis of these two subtypes,</text>
  <text x="345.089,347.977,352.926,356.844,359.206,364.155,366.576,370.028,372.915,375.336,380.286,384.204,387.091,389.512,394.461,399.41,401.837,406.786,410.705,413.592,420.496,424.414,428.332,433.281,435.681,441.563,448.001,450.365,454.848,459.797,464.74600000000004,467.088,473.526,479.964,482.338,487.288,491.206,494.093,499.043,502.495,506.413,508.813,511.7,515.152,519.071,523.554,526.441,533.811,537.729,542.679,545.5659999999999,547.987,550.408,553.86,556.264,560.182,562.603,565.024,569.973,572.394,576.312,580.795,583.216,585.637" y="412.334" svg_rhmargin="590.12" style="fill:#171615;font-family:HPMFFM+AdvOTbc475f09;font-size:8.97px;font-style:NORMAL;font-weight:normal;">the distinction between TC and AC before treatment is clinically</text>
  <text x="345.089,349.573,351.993,354.881,359.364,361.785,364.206,369.184,375.065,380.015,383.933,388.912,392.364,397.314,400.766,405.249,407.67,411.588,416.071,418.492,423.493,430.864,435.347,440.296,444.779,449.263,453.181,460.551,464.469,469.419,472.306,477.293,484.197,488.68,492.132,497.078,501.561,504.448,507.335,511.254,515.172,518.059,521.977,526.9259999999999,531.943,536.893,541.376,546.343,551.293,553.714,557.166,560.053,565.002,567.423,572.373,576.856,579.277,583.195,587.678" y="423.275" svg_rhmargin="590.099" style="fill:#171615;font-family:HPMFFM+AdvOTbc475f09;font-size:8.97px;font-style:NORMAL;font-weight:normal;">vital. The surgical management was affected by histological</text>
  <text x="345.089,348.541,353.491,358.44,361.327,365.81,370.76,374.678,377.347,382.296,385.183,387.891,392.84,397.79,400.211,407.581,412.53,417.48,421.963,425.415,429.898,432.62,436.538,441.022,444.474,448.392,450.813,455.762,460.712,463.133,468.082,470.503,473.267,479.705,483.623,487.542,492.491,495.943,500.892,503.313,508.263,512.746,515.446,518.333,523.2819999999999,525.99,529.442,533.36,537.279,541.197,546.146,549.0329999999999,551.784,555.702,560.186,562.607,567.556,571.474,576.424,580.342,584.26,587.712" y="434.273" svg_rhmargin="590.133" style="fill:#171615;font-family:HPMFFM+AdvOTbc475f09;font-size:8.97px;font-style:NORMAL;font-weight:normal;">subtype of pulmonary carcinoid. According to recent evidences,</text>
  <text x="345.089,347.977,352.926,356.844,359.262,362.714,367.664,371.116,375.599,378.02,381.938,386.421,388.842,391.293,394.745,397.632,401.084,405.567,408.454,412.372,416.856,421.339,423.777,428.726,431.613,434.038,439.92,446.358,448.777,452.23,457.179,462.128,467.078,469.499,474.44800000000004,476.897,481.846,484.267,488.75,493.699,496.115,499.002,503.951,506.376,511.326,515.244,518.696,521.583,526.532,529.984,537.354,539.824,544.773,549.723,554.672,559.155,564.105,568.588,571.475,576.424,583.795,586.216" y="445.215" svg_rhmargin="590.134" style="fill:#171615;font-family:HPMFFM+AdvOTbc475f09;font-size:8.97px;font-style:NORMAL;font-weight:normal;">the surgical strategy of TC should plan to perform nonanatomic</text>
  <text x="345.089,348.541,352.46,355.912,359.83,363.748,366.635,369.056,374.006,378.955,381.769,388.673,391.094,393.981,398.93,401.781,404.201,408.685,416.055,421.004,425.95300000000003,428.822,433.771,438.721,443.67,447.588,450.422,453.874,458.357,465.727,470.677,473.098,475.519,480.468,484.951,487.372,490.219,497.123,502.072,504.493,506.914,510.832,513.689,516.576,521.526,524.978,527.806,534.243,540.681,543.1020000000001,545.947,548.834,553.784,557.702,560.516,563.968,568.918,572.37,576.853,579.274,583.192,587.675" y="456.157" svg_rhmargin="590.096" style="fill:#171615;font-family:HPMFFM+AdvOTbc475f09;font-size:8.97px;font-style:NORMAL;font-weight:normal;">resection with lymph node sampling, while for AC, the surgical</text>
  <text x="345.089,350.039,352.46,356.943,361.892,366.842,369.263,374.212,378.695,382.506,389.41,393.893,397.34499999999997,401.157,405.641,410.59,415.073,417.96,422.91,430.28,432.701,436.619,440.444,443.896,447.814,451.267,455.185,459.103,461.99,464.411,469.361,474.31,478.144,485.048,487.469,490.356,495.305,499.12,502.572,507.055,512.004,514.425,518.343,522.827,525.248,529.053,531.474,535.957,543.327,548.276,553.226,557.709,562.658,566.577,571.526,575.444,579.363,582.25,587.199" y="467.155" svg_rhmargin="590.086" style="fill:#171615;font-family:HPMFFM+AdvOTbc475f09;font-size:8.97px;font-style:NORMAL;font-weight:normal;">planning was anatomic resection with radical lymphadenecto-</text>
  <text x="345.089,352.46,356.943" y="478.096" svg_rhmargin="359.364" style="fill:#171615;font-family:HPMFFM+AdvOTbc475f09;font-size:8.97px;font-style:NORMAL;font-weight:normal;">my.</text>
  <text svg_rhmargin="371.133" x="359.376,361.542,365.255,368.968,371.13300000000004" y="478.098" style="fill:#171615;font-family:HPMFFM+AdvOTbc475f09;font-size:5.98px;font-style:NORMAL;font-weight:normal;">[24] </text>
  <text x="375.704,381.586,386.069,391.018,393.439,397.358,401.841,404.262,408.811,412.729,417.212,420.665,424.583,427.004,431.953,436.902,439.323,444.273,447.725,452.35,457.299,461.782,466.265,470.183,474.743,479.692,483.611,487.529,492.478,497.022,499.91,504.859,509.808,514.758,519.707,524.291,527.178,532.127,536.65,541.599,546.082,550.566,554.484,559.043,563.526,568.115,573.064,576.982,579.869,582.756,586.675" y="478.098" svg_rhmargin="590.127" style="fill:#171615;font-family:HPMFFM+AdvOTbc475f09;font-size:8.97px;font-style:NORMAL;font-weight:normal;">Typical carcinoids have been found to have a better</text>
  <text x="345.089,350.039,353.491,358.44,362.923,367.873,372.822,376.274,378.695,382.147,385.453,388.34,393.29,397.773,402.72200000000004,405.975,410.458,413.345,417.828,422.778,425.199,429.117,433.6,436.021,439.366,443.285,447.768,451.22,455.138,457.559,462.508,467.458,469.879,474.828,478.28,480.70099999999996,484.039,489.921,496.825,501.774,505.072,508.524,511.411,516.36,521.31,523.73,527.649,531.101,534.381,539.33,543.813,547.136,550.588,553.009,557.958,562.908,567.391,569.812,573.101,577.019,579.906,583.249,587.732" y="489.039" svg_rhmargin="590.153" style="fill:#171615;font-family:HPMFFM+AdvOTbc475f09;font-size:8.97px;font-style:NORMAL;font-weight:normal;">prognosis than atypical carcinoids. Two studies by Jindal et al</text>
  <text x="345.089,349.573,354.522,359.471,361.7,367.116,372.065,375.984,380.933,384.851,389.8,392.087,396.005,398.892,401.157,405.641,408.062,410.342,414.26,419.209,422.096,425.548,429.467,431.888,436.371,439.258,443.176,445.49,448.378,453.327,457.245,459.493,464.443,466.863,470.315,473.203,478.152,480.573,485.522,490.005,494.488,496.796,501.745,504.632,506.887,511.837,516.786,519.207,526.577,531.527,536.476,540.959,544.411,548.8939999999999,551.219,555.138,559.621,563.073,566.991,569.412,574.361,579.311,581.732,586.681" y="500.037" svg_rhmargin="590.133" style="fill:#171615;font-family:HPMFFM+AdvOTbc475f09;font-size:8.97px;font-style:NORMAL;font-weight:normal;">and Lococo et al co-relate the histology of pulmonary carcinoids</text>
  <text svg_rhmargin="452.418" x="345.089,351.993,354.414,357.301,362.25,365.611,368.499,373.448,377.366,380.691,385.64,390.59,393.477,397.96,402.909,406.827,410.227,415.176,419.659,422.547,425.434,429.352,432.804,437.753,441.205,444.581,449.531,452.418" y="507.011" style="fill:#171615;font-family:HPMFFM+AdvOTbc475f09;font-size:8.97px;font-style:NORMAL;font-weight:normal;">with the uptake patterns of </text>
  <text x="455.754,459.467" y="507.011" svg_rhmargin="463.179" style="fill:#171615;font-family:HPMFFM+AdvOTbc475f09;font-size:5.98px;font-style:NORMAL;font-weight:normal;">68</text>
  <text svg_rhmargin="552.734" x="463.181,470.085,474.568,477.455,484.359,491.73,497.612,504.049,506.937,511.886,515.804,520.754,523.641,526.062,531.011,534.929,538.353,542.836,547.785,552.7339999999999" y="507.011" style="fill:#171615;font-family:HPMFFM+AdvOTbc475f09;font-size:8.97px;font-style:NORMAL;font-weight:normal;">Ga-DOTA-peptide and </text>
  <text x="556.101,559.813" y="507.011" svg_rhmargin="563.525" style="fill:#171615;font-family:HPMFFM+AdvOTbc475f09;font-size:5.98px;font-style:NORMAL;font-weight:normal;">18</text>
  <text x="563.527,568.477,571.364,576.313,583.217" y="510.98" svg_rhmargin="590.121" style="fill:#171615;font-family:HPMFFM+AdvOTbc475f09;font-size:8.97px;font-style:NORMAL;font-weight:normal;">F-FDG</text>
  <text x="345.089,350.038,355.454,361.336,363.756,370.194,376.076,379.047,383.53,388.479,393.428,396.395,399.282,404.231,408.15,410.57,414.022,417.087,421.57,428.008,434.44599999999997,437.44,440.892,445.375,448.262,450.683,455.632,459.084" y="521.921" svg_rhmargin="461.505" style="fill:#171615;font-family:HPMFFM+AdvOTbc475f09;font-size:8.97px;font-style:NORMAL;font-weight:normal;">PET/CT and their SUV ratios.</text>
  <text svg_rhmargin="482.535" x="461.537,463.703,467.416,471.128,472.944,476.657,480.37,482.535" y="521.921" style="fill:#171615;font-family:HPMFFM+AdvOTbc475f09;font-size:5.98px;font-style:NORMAL;font-weight:normal;">[19,22] </text>
  <text x="485.575,491.457,496.406,500.324,503.319,508.268,513.218,516.105,520.588,525.538,529.456,532.459,537.408,541.891,544.778,547.665,551.584,555.036,559.985,563.437,566.417,571.366,574.2529999999999,577.244,583.682" y="521.921" svg_rhmargin="590.12" style="fill:#171615;font-family:HPMFFM+AdvOTbc475f09;font-size:8.97px;font-style:NORMAL;font-weight:normal;">The uptake patterns of AC</text>
  <text svg_rhmargin="392.517" x="345.089,349.572,354.521,359.47,364.874,370.756,377.19399999999996,382.618,387.568,392.517" y="528.895" style="fill:#171615;font-family:HPMFFM+AdvOTbc475f09;font-size:8.97px;font-style:NORMAL;font-weight:normal;">and TC on </text>
  <text x="397.927,401.64" y="528.895" svg_rhmargin="405.352" style="fill:#171615;font-family:HPMFFM+AdvOTbc475f09;font-size:5.98px;font-style:NORMAL;font-weight:normal;">68</text>
  <text svg_rhmargin="496.949" x="405.354,412.258,416.741,419.629,426.533,433.903,439.785,446.223,449.11,454.059,457.977,462.927,465.814,468.235,473.184,477.10200000000003,482.568,487.051,492.0,496.949" y="528.895" style="fill:#171615;font-family:HPMFFM+AdvOTbc475f09;font-size:8.97px;font-style:NORMAL;font-weight:normal;">Ga-DOTA-peptide and </text>
  <text x="502.413,506.125" y="528.895" svg_rhmargin="509.837" style="fill:#171615;font-family:HPMFFM+AdvOTbc475f09;font-size:5.98px;font-style:NORMAL;font-weight:normal;">18</text>
  <text x="509.839,514.789,517.676,522.625,529.529,536.433,541.87,546.819,552.235,558.116,560.537,566.975,572.857,578.266,582.749,586.201" y="532.9200000000001" svg_rhmargin="590.119" style="fill:#171615;font-family:HPMFFM+AdvOTbc475f09;font-size:8.97px;font-style:NORMAL;font-weight:normal;">F-FDG PET/CT are</text>
  <text x="345.089,350.038,352.459,355.346,358.233,362.152,365.604,369.522,374.471,377.359,379.78,383.695,390.599,395.548,397.969,401.888,406.837,410.794,414.712,419.195,424.144,428.028,432.977,436.895,440.783,444.702,449.651,454.601,457.021,461.505,463.925,468.875,472.793,477.742,481.658,486.608,491.091,495.038,497.925,502.874,506.792,509.213,512.6650000000001,516.58,521.529,523.95,526.838,529.725,533.643,537.095,541.013,545.963,548.8499999999999,552.806,560.176,564.094,566.981,571.465,576.414,581.363,583.784,586.205" y="543.861" svg_rhmargin="590.123" style="fill:#171615;font-family:HPMFFM+AdvOTbc475f09;font-size:8.97px;font-style:NORMAL;font-weight:normal;">different, which can be explained by their different metabolic</text>
  <text x="345.089,352.459,356.377,360.296,365.245,369.728,374.678,377.099,380.551,387.921,391.373,393.794,395.6,401.482,406.432,410.35,412.098,414.518,419.468,423.386,426.838,430.756,435.24,438.692,442.61,447.559,449.344,452.796,457.745,465.115,469.598,472.486,477.435,480.887,483.774,488.257,491.145,493.565,498.514,500.309,503.761,507.679,511.598,515.516,520.465,523.352,528.302,531.754,533.53,537.448,542.398,547.347,550.799,554.717,558.169,561.621,564.042,568.992,573.9409999999999,575.765,580.248,585.197" y="554.803" svg_rhmargin="590.146" style="fill:#171615;font-family:HPMFFM+AdvOTbc475f09;font-size:8.97px;font-style:NORMAL;font-weight:normal;">mechanisms. The increased somatostatin receptor expression and</text>
  <text x="345.089,348.541,350.962,355.911,362.815,367.426,374.796,378.714,381.601,386.085,391.034,395.983,398.404,400.825,404.277,411.647,416.294,421.243,424.13,428.709,434.591,441.029,445.66,453.031,457.514,461.997,466.58,470.498,475.447,480.397,483.284,486.736,489.157,494.106,499.055,501.943,505.861,510.515,513.402,518.351,522.931,525.818,530.768,534.686,539.315,546.685,551.635,555.087,559.005,563.635,566.056,571.006,573.893,577.811,582.76,586.212" y="565.744" svg_rhmargin="590.13" style="fill:#171615;font-family:HPMFFM+AdvOTbc475f09;font-size:8.97px;font-style:NORMAL;font-weight:normal;">slow metabolism of TC may contribute to the more intense</text>
  <text svg_rhmargin="382.993" x="345.089,350.038,354.988,357.875,362.358,367.307,371.225,373.094,378.044,382.993" y="572.718" style="fill:#171615;font-family:HPMFFM+AdvOTbc475f09;font-size:8.97px;font-style:NORMAL;font-weight:normal;">uptake on </text>
  <text x="384.831,388.544" y="572.718" svg_rhmargin="392.256" style="fill:#171615;font-family:HPMFFM+AdvOTbc475f09;font-size:5.98px;font-style:NORMAL;font-weight:normal;">68</text>
  <text svg_rhmargin="573.023" x="392.258,399.162,403.645,406.533,413.437,420.807,426.689,433.127,436.014,440.963,444.881,449.831,452.718,455.139,460.088,464.00600000000003,465.956,470.439,475.388,480.337,482.17,485.622,489.54,491.961,496.444,499.331,501.752,506.235,510.153,512.574,517.0569999999999,518.962,521.383,526.332,533.236,535.119,540.069,545.018,547.905,552.388,557.338,561.256,563.125,568.074,573.0229999999999" y="572.718" style="fill:#171615;font-family:HPMFFM+AdvOTbc475f09;font-size:8.97px;font-style:NORMAL;font-weight:normal;">Ga-DOTA-peptide and relatively low uptake on </text>
  <text x="574.866,578.579" y="572.718" svg_rhmargin="582.291" style="fill:#171615;font-family:HPMFFM+AdvOTbc475f09;font-size:5.98px;font-style:NORMAL;font-weight:normal;">18</text>
  <text x="582.293,587.242" y="576.7429999999999" svg_rhmargin="590.129" style="fill:#171615;font-family:HPMFFM+AdvOTbc475f09;font-size:8.97px;font-style:NORMAL;font-weight:normal;">F-</text>
  <text x="345.088,350.038,356.942,363.846,368.105,373.054,378.47,384.352,386.773,393.211,399.092,401.513,405.861,412.765,417.715,421.633,425.085,429.003,433.486,436.938,441.237,445.72,448.607,453.09,458.04,460.461,464.379,468.862,471.283,475.591,479.509,483.993,487.445,491.363,493.784,498.733,503.683,506.104,511.053,515.332,518.784,522.702,527.185,531.103,535.587,538.007,541.926,546.875,551.218,554.67,557.09,561.574,566.523" y="587.685" svg_rhmargin="568.944" style="fill:#171615;font-family:HPMFFM+AdvOTbc475f09;font-size:8.97px;font-style:NORMAL;font-weight:normal;">FDG PET/CT, whereas atypical carcinoid revealed signi</text>
  <text x="568.97" y="587.685" svg_rhmargin="573.919" style="fill:#171615;font-family:HPMFFO+AdvOTbc475f09+fb;font-size:8.97px;font-style:NORMAL;font-weight:normal;">ﬁ</text>
  <text x="573.902,577.82,582.304,587.253" y="587.685" svg_rhmargin="590.14" style="fill:#171615;font-family:HPMFFM+AdvOTbc475f09;font-size:8.97px;font-style:NORMAL;font-weight:normal;">cant</text>
  <text svg_rhmargin="384.296" x="345.088,350.038,354.987,357.874,362.358,367.307,371.225,374.397,379.347,384.296" y="594.658" style="fill:#171615;font-family:HPMFFM+AdvOTbc475f09;font-size:8.97px;font-style:NORMAL;font-weight:normal;">uptake on </text>
  <text x="387.496,391.209" y="594.658" svg_rhmargin="394.921" style="fill:#171615;font-family:HPMFFM+AdvOTbc475f09;font-size:5.98px;font-style:NORMAL;font-weight:normal;">18</text>
  <text svg_rhmargin="535.722" x="394.923,399.872,402.759,407.709,414.613,421.517,424.743,429.692,435.108,440.99,443.411,449.849,455.731,458.984,463.934,468.883,471.77,474.971,479.921,484.87,489.819,493.271,496.457,501.407,506.356,509.243,513.726,518.676,522.594,525.824,530.773,535.722" y="594.658" style="fill:#171615;font-family:HPMFFM+AdvOTbc475f09;font-size:8.97px;font-style:NORMAL;font-weight:normal;">F-FDG PET/CT but poor uptake on </text>
  <text x="538.923,542.635" y="594.658" svg_rhmargin="546.347" style="fill:#171615;font-family:HPMFFM+AdvOTbc475f09;font-size:5.98px;font-style:NORMAL;font-weight:normal;">68</text>
  <text x="546.349,553.254,557.737,560.624,567.528,574.898,580.78,587.218" y="598.627" svg_rhmargin="590.105" style="fill:#171615;font-family:HPMFFM+AdvOTbc475f09;font-size:8.97px;font-style:NORMAL;font-weight:normal;">Ga-DOTA-</text>
  <text x="345.089,350.039,353.957,358.906,361.793,364.214,369.164,373.082,375.476,380.425,385.841,391.723,394.144,400.582,406.464,408.81,413.759,418.709,422.627,425.024,427.911,432.86,435.228,437.649,440.536,443.988,446.397,453.767,458.717,462.169,466.087,468.449,472.933,477.416,481.899,485.351,489.269,492.721,496.173,498.594,503.077,506.995,509.381,514.33,518.813,521.7,526.65,530.102,534.02,536.422,540.905,545.855,550.804,553.146,558.095,562.014,565.932,569.384,573.302,577.785,581.237,585.156" y="609.625" svg_rhmargin="590.105" style="fill:#171615;font-family:HPMFFM+AdvOTbc475f09;font-size:8.97px;font-style:NORMAL;font-weight:normal;">peptide PET/CT due to its more aggressive nature and decreased</text>
  <text x="345.089,348.541,353.491,360.861,365.344,368.231,373.181,376.633,379.52,384.003,386.89,389.311,394.26,397.245,400.697,404.616,408.534,412.452,417.402,420.289,425.238,428.69,431.714,435.632,440.581,445.531,448.983,452.901,456.353,459.805,462.226,467.175,472.125" y="620.566" svg_rhmargin="474.546" style="fill:#171615;font-family:HPMFFM+AdvOTbc475f09;font-size:8.97px;font-style:NORMAL;font-weight:normal;">somatostatin receptor expression.</text>
  <text x="354.047,358.53,362.448,366.931,370.849,375.798,377.97,381.422,384.31,389.259,394.208,396.629,400.548,404.0,406.203,408.624,413.57300000000004,415.784,420.733,425.683,429.135,431.317,438.688,442.606,445.493,449.976,452.863,457.346,462.296,466.779,469.2,473.683,477.135,479.556,483.008,485.23,490.179,493.631,497.55,501.002,504.92,509.869,512.756,516.675,521.6239999999999,523.78,528.729,532.647,535.534,540.018,542.439,544.859,548.778,553.727,555.98,560.464,566.901,573.339,580.709,585.193" y="631.508" svg_rhmargin="590.142" style="fill:#171615;font-family:HPMFFM+AdvOTbc475f09;font-size:8.97px;font-style:NORMAL;font-weight:normal;">Seven studies in our meta-analysis presented detailed SUVmax</text>
  <text svg_rhmargin="372.427" x="345.089,350.039,354.522,357.409,361.892,364.591,369.54,372.427" y="638.482" style="fill:#171615;font-family:HPMFFM+AdvOTbc475f09;font-size:8.97px;font-style:NORMAL;font-weight:normal;">data of </text>
  <text x="375.137,378.85" y="638.482" svg_rhmargin="382.562" style="fill:#171615;font-family:HPMFFM+AdvOTbc475f09;font-size:5.98px;font-style:NORMAL;font-weight:normal;">18</text>
  <text svg_rhmargin="420.332" x="382.564,387.513,390.4,395.35,402.254,409.158,411.93,416.88,420.332" y="638.482" style="fill:#171615;font-family:HPMFFM+AdvOTbc475f09;font-size:8.97px;font-style:NORMAL;font-weight:normal;">F-FDG or </text>
  <text x="423.042,426.755" y="638.482" svg_rhmargin="430.467" style="fill:#171615;font-family:HPMFFM+AdvOTbc475f09;font-size:5.98px;font-style:NORMAL;font-weight:normal;">68</text>
  <text x="430.469,437.373,441.856,444.744,451.648,459.018,464.9,471.338,474.225,479.174,483.092,488.042,490.929,493.35,498.299,502.218" y="642.5070000000001" svg_rhmargin="504.639" style="fill:#171615;font-family:HPMFFM+AdvOTbc475f09;font-size:8.97px;font-style:NORMAL;font-weight:normal;">Ga-DOTA-peptide.</text>
  <text svg_rhmargin="564.62" x="504.737,506.903,510.616,512.432,516.144,517.961,521.673,525.386,527.202,530.915,534.628,536.444,540.157,543.972,545.788,549.501,553.214,555.03,558.743,562.455,564.62" y="642.5070000000001" style="fill:#171615;font-family:HPMFFM+AdvOTbc475f09;font-size:5.98px;font-style:NORMAL;font-weight:normal;">[6,9,10,16,17,19,23] </text>
  <text x="567.383,576.349,581.298,585.216" y="642.5070000000001" svg_rhmargin="590.165" style="fill:#171615;font-family:HPMFFM+AdvOTbc475f09;font-size:8.97px;font-style:NORMAL;font-weight:normal;">When</text>
  <text svg_rhmargin="428.573" x="345.089,351.993,355.911,360.509,367.88,372.363,375.25,379.168,384.118,388.036,392.985,397.585,402.534,407.95,413.832,416.253,422.691,428.573" y="653.4490000000001" style="fill:#171615;font-family:HPMFFM+AdvOTbc475f09;font-size:8.97px;font-style:NORMAL;font-weight:normal;">we matched PET/CT </text>
  <text x="433.19" y="653.4490000000001" svg_rhmargin="438.139" style="fill:#171615;font-family:HPMFFO+AdvOTbc475f09+fb;font-size:8.97px;font-style:NORMAL;font-weight:normal;">ﬁ</text>
  <text x="438.123,443.072,448.021,450.442,455.392,459.875,463.327,467.942,474.846,477.267,480.154,485.103,489.711,494.66,497.081,500.533,503.421,508.37,510.791,515.74,520.223,522.644,526.563,531.046,533.4670000000001,538.125,541.578,546.527,551.476,554.363,558.847,563.796,567.714,571.166,575.769,580.252,585.201" y="653.4490000000001" svg_rhmargin="590.15" style="fill:#171615;font-family:HPMFFM+AdvOTbc475f09;font-size:8.97px;font-style:NORMAL;font-weight:normal;">ndings with histological subtypes and</text>
  <text x="345.089,350.039,353.957,357.409,360.296,365.245,368.697,376.068,379.986,384.935,387.607,392.09000000000003,394.694,398.146,403.096,408.045,412.528,415.98,420.93,425.879,430.82800000000003,433.527,438.011,442.96,447.443,449.864,454.347,457.799,460.22,463.672,466.295,471.244,474.13100000000003,476.783,482.665,489.103,491.749,496.232,500.151,503.603,507.055,512.004,515.456,518.111,524.549,530.987,533.408,536.082,542.986,546.904,549.575,552.462,557.411,562.361,567.31,572.2589999999999,574.915,577.802,582.752,587.235" y="664.39" svg_rhmargin="590.122" style="fill:#171615;font-family:HPMFFM+AdvOTbc475f09;font-size:8.97px;font-style:NORMAL;font-weight:normal;">performed a subgroup analysis of TC versus AC, we found that</text>
  <text svg_rhmargin="451.537" x="345.089,347.976,352.926,356.844,360.453,364.936,371.374,377.812,385.182,389.665,394.61400000000003,398.266,401.718,406.201,409.088,411.509,416.458,420.092,425.042,428.96,431.847,438.751,442.669,446.588,451.53700000000003" y="671.364" style="fill:#171615;font-family:HPMFFM+AdvOTbc475f09;font-size:8.97px;font-style:NORMAL;font-weight:normal;">the SUVmax ratio between </text>
  <text x="455.187,458.9" y="671.364" svg_rhmargin="462.612" style="fill:#171615;font-family:HPMFFM+AdvOTbc475f09;font-size:5.98px;font-style:NORMAL;font-weight:normal;">68</text>
  <text svg_rhmargin="552.451" x="462.614,469.518,474.001,476.888,483.793,491.163,497.045,503.483,506.37,511.319,515.237,520.187,523.074,525.495,530.444,534.362,538.069,542.552,547.502,552.4509999999999" y="671.364" style="fill:#171615;font-family:HPMFFM+AdvOTbc475f09;font-size:8.97px;font-style:NORMAL;font-weight:normal;">Ga-DOTA-peptide and </text>
  <text x="556.101,559.813" y="671.364" svg_rhmargin="563.525" style="fill:#171615;font-family:HPMFFM+AdvOTbc475f09;font-size:5.98px;font-style:NORMAL;font-weight:normal;">18</text>
  <text x="563.527,568.477,571.364,576.313,583.217" y="675.389" svg_rhmargin="590.121" style="fill:#171615;font-family:HPMFFM+AdvOTbc475f09;font-size:8.97px;font-style:NORMAL;font-weight:normal;">F-FDG</text>
  <text x="345.089,350.038,355.454,361.336,363.756,370.194,376.076,379.444,386.348,390.831,394.283,397.642,402.125,405.466,409.949,414.432,416.853,421.803,426.286,431.235,433.656,437.574,440.955,443.375,448.325,453.274,455.695,459.613,464.097,466.984,471.933,475.385,478.767,481.188,486.137,489.482,494.431,497.883,501.802,506.751,509.172,513.09,515.977,518.398,523.348,527.8309999999999,531.207,534.094,539.043,542.961,546.344,551.293,553.714,557.166,560.053,565.002,567.423,572.373,576.856,579.277,583.195,587.678" y="686.33" svg_rhmargin="590.099" style="fill:#171615;font-family:HPMFFM+AdvOTbc475f09;font-size:8.97px;font-style:NORMAL;font-weight:normal;">PET/CT was a valuable indicator in predicting the histological</text>
  <text x="345.089,347.976,352.459,357.408,361.327,363.748,366.064,371.946,376.896,380.814,383.128,386.015,390.498,395.448,397.869,401.787,406.27,408.691,411.021,414.939,419.422,422.874,426.792,429.213,434.163,439.112,441.533,446.482,449.934,452.292,455.744,459.662,464.145,468.063,472.546,474.967,478.886,483.83500000000004,486.136,490.619,495.568,500.518,505.001,508.453,512.371,517.321,520.208,522.629,527.112,529.447,534.397,536.818,541.301,546.25,550.169,553.621,555.979,560.462,566.9,573.338,580.708,585.191" y="697.272" svg_rhmargin="590.14" style="fill:#171615;font-family:HPMFFM+AdvOTbc475f09;font-size:8.97px;font-style:NORMAL;font-weight:normal;">type. The typical carcinoids revealed apparently higher SUVmax</text>
  <text svg_rhmargin="354.987" x="345.089,350.038,354.987" y="704.246" style="fill:#171615;font-family:HPMFFM+AdvOTbc475f09;font-size:8.97px;font-style:NORMAL;font-weight:normal;">on </text>
  <text x="356.939,360.651" y="704.246" svg_rhmargin="364.363" style="fill:#171615;font-family:HPMFFM+AdvOTbc475f09;font-size:5.98px;font-style:NORMAL;font-weight:normal;">68</text>
  <text x="364.365,371.269,375.753,378.64,385.544,392.914,398.796,405.234,408.121,413.07,416.989,421.938,424.825,427.246,432.195,436.113,438.12,443.07,448.485,454.367,456.788,463.226,469.108,471.115,474.002,478.485,484.923,491.36,498.731,503.214,508.163,510.118,513.57,518.053,523.003,527.486,531.404,533.361,538.311,540.732" y="708.2139999999999" svg_rhmargin="545.681" style="fill:#171615;font-family:HPMFFM+AdvOTbc475f09;font-size:8.97px;font-style:NORMAL;font-weight:normal;">Ga-DOTA-peptide PET/CT (SUVmax range 8.2</text>
  <text x="545.727" y="708.2139999999999" svg_rhmargin="550.21" style="fill:#171615;font-family:HPMFFN+AdvOTbc475f09+20;font-size:8.97px;font-style:NORMAL;font-weight:normal;">–</text>
  <text x="550.205,555.155,560.104,565.053,567.474,569.424,576.794,580.712,585.195" y="708.2139999999999" svg_rhmargin="590.144" style="fill:#171615;font-family:HPMFFM+AdvOTbc475f09;font-size:8.97px;font-style:NORMAL;font-weight:normal;">118, mean</text>
  <text svg_rhmargin="399.491" x="345.089,349.573,356.01,362.448,369.819,374.302,379.25100000000003,382.223,387.172,392.121,394.542,399.491" y="719.212" style="fill:#171615;font-family:HPMFFM+AdvOTbc475f09;font-size:8.97px;font-style:NORMAL;font-weight:normal;">SUVmax 36.5 </text>
  <text x="400.592" y="719.212" svg_rhmargin="406.662" style="fill:#171615;font-family:HPMFFI+AdvOTb0c9bf5d;font-size:8.97px;font-style:NORMAL;font-weight:normal;">±</text>
  <text x="407.792,412.741,417.691,420.111,425.061,427.948,430.922,434.84,439.79,447.16,452.109,456.593,460.045,463.963,468.91200000000003,471.91,478.814,481.235,484.122,489.071,492.036,496.519,499.406,503.889,508.838,511.259,515.178,519.661,522.082,525.086,529.004,533.488,536.94,540.858,543.279,548.228,553.178,555.599,560.548,564.0,566.981,569.868,574.352,580.789,587.227" y="719.212" svg_rhmargin="590.114" style="fill:#171615;font-family:HPMFFM+AdvOTbc475f09;font-size:8.97px;font-style:NORMAL;font-weight:normal;">21.6) compared with atypical carcinoids (SUV-</text>
  <path d=" M 85.03900146484375 350.41900634765625 L 330.12200927734375 350.41900634765625 L 330.12200927734375 351.156005859375 L 85.03900146484375 351.156005859375 Z " style="fill:none;stroke:#000000;stroke-width:1.0;"/>
  <path d=" M 85.03900146484375 81.52400207519531 L 330.12200927734375 81.52400207519531 L 330.12200927734375 82.31770324707031 L 85.03900146484375 82.31770324707031 Z " style="fill:none;stroke:#000000;stroke-width:1.0;"/>
  <path d="M94.903 456.667 L320.257 456.667 L320.257 690.808 L94.903 690.808 " style="fill:none;stroke:#000000;stroke-width:1.0;"/>
  <rect style="stroke:blue;stroke-width:0.3;" x="94.904" y="456.667" height="234.142" width="225.354" title="5"/>
  <text x="94.904" y="456.667" class="image" id="image.5.1" width="225" height="234">image.5.1.95_320.457_691</text>
  <text svg_rhmargin="115.108" x="85.039,89.396,91.183,95.54,99.814,102.378,106.503,108.966,113.091,115.10799999999999" y="701.751" style="fill:#171615;font-family:HPMFPB+AdvOTf94803d4;font-size:7.47px;font-style:NORMAL;font-weight:normal;">Figure 4. </text>
  <text x="118.885,123.555,127.366,131.176,135.144,137.475,141.286,145.096,148.518,150.971,155.095,156.963,159.417,164.087,169.146,173.502,179.644,183.454,187.03300000000002,189.462,191.794,195.604,197.778,199.101,203.226,205.675,206.998,210.96599999999998,213.442,217.716,219.039,222.618,224.792,226.115,230.082,234.206,238.174,239.497,243.076,247.043,248.366,252.333,256.45799999999997,258.906,263.031,268.23900000000003,270.699,272.567,274.898,279.022,285.164,287.649,292.319,297.527,299.544,301.991,304.166,308.133,311.94399999999996,314.35,319.326,324.848" y="701.751" svg_rhmargin="330.056" style="fill:#171615;font-family:HPMFEF+AdvOT6e5d2ec0;font-size:7.47px;font-style:NORMAL;font-weight:normal;">Accuracy of SUVmax ratio in distinguishing TC from AC, the ROC</text>
  <text svg_rhmargin="135.339" x="85.039,88.85,92.818,95.149,98.571,102.381,105.96,108.508,112.319,116.286,120.097,121.42,124.842,128.421,129.743,133.322,135.339" y="275.25" style="fill:#171615;font-family:HPMFEF+AdvOT6e5d2ec0;font-size:7.47px;font-style:NORMAL;font-weight:normal;">curves analysis. </text>
  <path d=" M 85.03900146484375 766.885009765625 L 590.115966796875 766.885009765625 L 590.115966796875 767.6220092773438 L 85.03900146484375 767.6220092773438 Z " style="fill:none;stroke:#000000;stroke-width:1.0;"/>
  <path d=" M 85.03900146484375 516.6420288085938 L 590.115966796875 516.6420288085938 L 590.115966796875 517.4357299804688 L 85.03900146484375 517.4357299804688 Z " style="fill:none;stroke:#000000;stroke-width:1.0;"/>
  <rect style="stroke:blue;stroke-width:0.3;" x="144.567" y="40.202" height="224.05" width="386.238" title="5"/>
  <text x="144.567" y="40.202" class="image" id="image.5.2" width="386" height="224">image.5.2.145_531.40_264</text>
  <text svg_rhmargin="222.598" x="192.472,196.829,198.616,202.973,207.247,209.811,213.936,216.455,220.581,222.59799999999998" y="275.25" style="fill:#171615;font-family:HPMFPB+AdvOTf94803d4;font-size:7.47px;font-style:NORMAL;font-weight:normal;">Figure 3. </text>
  <text svg_rhmargin="316.324" x="226.318,230.286,234.41,236.806,240.617,244.196,246.37,248.882,253.155,254.478,258.602,260.777,264.356,266.852,268.72,272.844,275.175,277.679,281.258,285.069,289.036,292.615,293.938,296.112,297.435,300.857,302.179,304.354,307.776,310.332,314.456,316.324" y="271.90599999999995" style="fill:#171615;font-family:HPMFEF+AdvOT6e5d2ec0;font-size:7.47px;font-style:NORMAL;font-weight:normal;">Forest plots for sensitivity of </text>
  <text x="318.784,321.877" y="271.90599999999995" svg_rhmargin="324.97" style="fill:#171615;font-family:HPMFEF+AdvOT6e5d2ec0;font-size:4.98px;font-style:NORMAL;font-weight:normal;">18</text>
  <text x="324.964,328.931,331.651,335.618,340.677,346.199,348.717,353.386,357.742,361.867,364.273,369.481,373.606,376.154,377.476,381.444,383.921,388.195,392.006,394.18,397.991,401.801,403.976,405.298,409.266,413.391,415.95,420.225,424.192,425.515,431.656,435.781,439.748,443.559,445.89,449.312,451.891,455.701,459.512,461.843,465.654,466.976,470.944,475.068,476.391,480.665" y="275.25" svg_rhmargin="482.682" style="fill:#171615;font-family:HPMFEF+AdvOT6e5d2ec0;font-size:7.47px;font-style:NORMAL;font-weight:normal;">F-FDG PET/CT in detecting pulmonary carcinoid.</text>
  <text x="85.039,89.024,90.435,94.5,98.732,103.131,105.732,109.796,112.11500000000001,114.746,118.811,120.221,122.373,125.064,131.616,135.68,140.239,141.65,145.715,147.126,151.358,155.423,158.002,159.907,164.306,168.706,173.105,177.505,179.41,182.038,186.438,190.837,192.989,197.389,201.788,517.041,522.931,528.821,534.711,536.863,543.414,547.973,550.874,552.285,556.685,560.917,563.3,567.532,571.597,573.008,575.16,579.224,583.624" y="9.870999999999981" svg_rhmargin="590.176" style="fill:#171615;font-family:HPMFEF+AdvOT6e5d2ec0;font-size:7.97px;font-style:NORMAL;font-weight:normal;">Jiang et al. Medicine (2019) 98:10 www.md-journal.com</text>
  <text x="335.396" y="739.625" svg_rhmargin="339.796" style="fill:#171615;font-family:HPMFPB+AdvOTf94803d4;font-size:7.97px;font-style:NORMAL;font-weight:normal;">5</text>
 </g>
</svg>
