<?xml version="1.0" encoding="UTF-8"?>
<svg height="870.031005859375" width="672.0029907226562" xmlns="http://www.w3.org/2000/svg">
 <g style="fill:none;">
  <path d=" M 0.05999799817800522 826.072021484375 L 22.619997024536133 826.072021484375 L 22.619997024536133 826.35546875 L 0.05999799817800522 826.35546875 Z " style="fill:none;stroke:#000000;stroke-width:1.0;"/>
  <path d=" M 33.67599868774414 837.4110107421875 L 33.959449768066406 837.4110107421875 L 33.959449768066406 860.031005859375 L 33.67599868774414 860.031005859375 Z " style="fill:none;stroke:#000000;stroke-width:1.0;"/>
  <path d=" M 627.9869995117188 837.4110107421875 L 628.2703857421875 837.4110107421875 L 628.2703857421875 860.031005859375 L 627.9869995117188 860.031005859375 Z " style="fill:none;stroke:#000000;stroke-width:1.0;"/>
  <path d=" M 639.3259887695312 826.072021484375 L 662.0029907226562 826.072021484375 L 662.0029907226562 826.35546875 L 639.3259887695312 826.35546875 Z " style="fill:none;stroke:#000000;stroke-width:1.0;"/>
  <path d=" M 639.3259887695312 33.731998443603516 L 662.0029907226562 33.731998443603516 L 662.0029907226562 34.015480041503906 L 639.3259887695312 34.015480041503906 Z " style="fill:none;stroke:#000000;stroke-width:1.0;"/>
  <path d=" M 627.9869995117188 0.0 L 628.2703857421875 0.0 L 628.2703857421875 22.677000045776367 L 627.9869995117188 22.677000045776367 Z " style="fill:none;stroke:#000000;stroke-width:1.0;"/>
  <path d=" M 33.67599868774414 0.0 L 33.959449768066406 0.0 L 33.959449768066406 22.677000045776367 L 33.67599868774414 22.677000045776367 Z " style="fill:none;stroke:#000000;stroke-width:1.0;"/>
  <path d=" M 0.05999799817800522 33.731998443603516 L 22.619997024536133 33.731998443603516 L 22.619997024536133 34.015480041503906 L 0.05999799817800522 34.015480041503906 Z " style="fill:none;stroke:#000000;stroke-width:1.0;"/>
  <path d=" M 85.03900146484375 766.885009765625 L 590.115966796875 766.885009765625 L 590.115966796875 767.6220092773438 L 85.03900146484375 767.6220092773438 Z " style="fill:none;stroke:#000000;stroke-width:1.0;"/>
  <path d=" M 85.03900146484375 284.37200927734375 L 590.115966796875 284.37200927734375 L 590.115966796875 285.1090087890625 L 85.03900146484375 285.1090087890625 Z " style="fill:none;stroke:#000000;stroke-width:1.0;"/>
  <path d="M109.247 40.202 L565.965 40.202 L565.965 496.523 L109.247 496.523 " style="fill:none;stroke:#000000;stroke-width:1.0;"/>
  <rect style="stroke:blue;stroke-width:0.3;" x="109.247" y="40.202" height="456.321" width="456.797" title="3"/>
  <text x="109.247" y="40.202" class="image" id="image.3.1" width="456" height="456">image.3.1.109_566.40_497</text>
  <text svg_rhmargin="155.076" x="124.895,129.251,131.038,135.395,139.669,142.233,146.358,148.934,153.059,155.076" y="507.521" style="fill:#171615;font-family:NEAGIH+AdvOTf94803d4;font-size:7.47px;font-style:NORMAL;font-weight:normal;">Figure 1. </text>
  <text svg_rhmargin="325.199" x="158.796,162.764,164.086,168.211,173.733,176.256,180.53,181.853,185.663,189.788,192.119,195.93,202.072,204.601,208.725,210.593,213.104,216.683,218.858,222.825,227.099,230.521,233.059,236.638,240.448,241.771,245.581,249.392,251.566,252.889,257.013,260.981,263.5,265.286,269.956,274.932,276.561,281.231,287.373,292.042,293.828,295.84499999999997,298.364,303.033,308.01,309.639,314.308,320.529,325.199" y="507.521" style="fill:#171615;font-family:NEAFPK+AdvOT6e5d2ec0;font-size:7.47px;font-style:NORMAL;font-weight:normal;">Flow diagram of study selection (PRISMA). PRISMA </text>
  <text x="326.153" y="507.521" svg_rhmargin="331.211" style="fill:#171615;font-family:NEAGAP+AdvOTb0c9bf5d;font-size:7.47px;font-style:NORMAL;font-weight:normal;">=</text>
  <text x="332.162,336.436,338.767,342.578,344.446,348.256,350.588,352.919,356.729,361.003,363.511,365.842,369.653,373.927,378.051,380.461,382.635,383.957,387.925,392.05,394.52,395.842,398.016,401.827,407.969,411.548,414.077,415.945,420.069,422.40000000000003,424.904,428.483,431.905,435.484,437.659,441.469,447.611,451.422,453.596,455.005,458.816,461.298,463.629,467.44,470.862,472.184,475.995,481.517,485.096,487.602,491.412,495.38,499.654,502.171,508.313,512.123,514.298,518.108,520.828,524.639,528.606,532.417,533.739,537.261,540.84,544.65,548.229" y="507.521" svg_rhmargin="550.246" style="fill:#171615;font-family:NEAFPK+AdvOT6e5d2ec0;font-size:7.47px;font-style:NORMAL;font-weight:normal;">preferred reporting items for systematic reviews and Meta-analyses.</text>
  <path d=" M 85.03900146484375 226.6020050048828 L 590.115966796875 226.6020050048828 L 590.115966796875 227.11224365234375 L 85.03900146484375 227.11224365234375 Z " style="fill:none;stroke:#000000;stroke-width:1.0;"/>
  <path d=" M 85.03900146484375 98.19200134277344 L 590.115966796875 98.19200134277344 L 590.115966796875 98.7022476196289 L 85.03900146484375 98.7022476196289 Z " style="fill:none;stroke:#000000;stroke-width:1.0;"/>
  <path d=" M 166.11000061035156 213.2790069580078 L 85.03900146484375 213.2790069580078 L 85.03900146484375 213.73300170898438 L 166.11000061035156 213.73300170898438" style="fill:none;stroke:#000000;stroke-width:1.0;"/>
  <path d=" M 231.0800018310547 213.2790069580078 L 147.2310028076172 213.2790069580078 L 147.2310028076172 213.73300170898438 L 231.0800018310547 213.73300170898438" style="fill:none;stroke:#000000;stroke-width:1.0;"/>
  <path d=" M 212.14500427246094 213.2790069580078 L 276.718017578125 213.2790069580078 L 276.718017578125 213.7325439453125 L 212.14500427246094 213.7325439453125 Z " style="fill:none;stroke:#000000;stroke-width:1.0;"/>
  <path d=" M 257.7829895019531 213.2790069580078 L 303.47698974609375 213.2790069580078 L 303.47698974609375 213.7325439453125 L 257.7829895019531 213.7325439453125 Z " style="fill:none;stroke:#000000;stroke-width:1.0;"/>
  <path d=" M 284.5419921875 213.2790069580078 L 330.06597900390625 213.2790069580078 L 330.06597900390625 213.7325439453125 L 284.5419921875 213.7325439453125 Z " style="fill:none;stroke:#000000;stroke-width:1.0;"/>
  <path d=" M 311.18701171875 213.2790069580078 L 357.1650085449219 213.2790069580078 L 357.1650085449219 213.7325439453125 L 311.18701171875 213.7325439453125 Z " style="fill:none;stroke:#000000;stroke-width:1.0;"/>
  <path d=" M 338.2869873046875 213.2790069580078 L 384.43499755859375 213.2790069580078 L 384.43499755859375 213.7325439453125 L 338.2869873046875 213.7325439453125 Z " style="fill:none;stroke:#000000;stroke-width:1.0;"/>
  <path d=" M 365.5559997558594 213.2790069580078 L 454.05401611328125 213.2790069580078 L 454.05401611328125 213.7325439453125 L 365.5559997558594 213.7325439453125 Z " style="fill:none;stroke:#000000;stroke-width:1.0;"/>
  <path d=" M 435.1180114746094 213.2790069580078 L 523.6160278320312 213.2790069580078 L 523.6160278320312 213.7325439453125 L 435.1180114746094 213.7325439453125 Z " style="fill:none;stroke:#000000;stroke-width:1.0;"/>
  <path d=" M 504.73699951171875 213.2790069580078 L 566.3060302734375 213.2790069580078 L 566.3060302734375 213.7325439453125 L 504.73699951171875 213.7325439453125 Z " style="fill:none;stroke:#000000;stroke-width:1.0;"/>
  <path d=" M 547.427001953125 213.2790069580078 L 590.1170043945312 213.2790069580078 L 590.1170043945312 213.7325439453125 L 547.427001953125 213.7325439453125 Z " style="fill:none;stroke:#000000;stroke-width:1.0;"/>
  <path d=" M 85.03900146484375 239.75399780273438 L 124.04400634765625 239.75399780273438 L 124.04400634765625 251.71600341796875 L 85.03900146484375 251.71600341796875 Z " style="fill:none;stroke:#000000;stroke-width:1.0;"/>
  <path d=" M 85.03900146484375 251.60299682617188 L 590.115966796875 251.60299682617188 L 590.115966796875 252.1132354736328 L 85.03900146484375 252.1132354736328 Z " style="fill:none;stroke:#000000;stroke-width:1.0;"/>
  <text x="88.044,93.767,99.657,105.794,108.113,114.091,116.673" y="557.241" svg_rhmargin="121.073" style="fill:#ffffff;font-family:NEAFPM+AdvOT91f5f621.B;font-size:7.97px;font-style:NORMAL;font-weight:normal;">Table 1</text>
  <text x="85.039,89.853,94.5,99.059,101.707,106.521,111.08,115.312,117.304,121.863,124.44,127.006,131.565,136.124,138.858,143.505,146.573,151.132,155.364,158.001,162.815,165.381,168.035,170.769,175.416,179.975,182.605,184.598,189.244,193.803,195.796,200.442,204.674,206.667,211.481,216.128,218.717,223.531,226.097,228.695,231.429,236.075,240.634,243.265,247.497,250.231,254.877,259.691,261.684,266.243,270.475" y="569.317" svg_rhmargin="272.627" style="fill:#171615;font-family:NEAFPJ+AdvOT34fe1490.B;font-size:7.97px;font-style:NORMAL;font-weight:normal;">The basic features of the inclusion of the studies.</text>
  <text svg_rhmargin="500.18" x="85.039,89.439,93.424,95.743,99.728,103.546,106.113,108.679,112.744,116.394,120.212,122.778,176.937,181.17,184.987,188.972,192.957,195.277,197.843,201.326,231.078,235.637,237.63,241.28,243.273,245.839,250.071,253.889,257.874,276.715,280.532,284.597,303.474,307.124,311.189,330.062,333.713,338.27200000000005,357.162,360.98,365.53900000000004,389.024,393.088,396.739,400.724,403.31,405.629,409.447,413.265,419.402,422.019,426.251,428.243,430.562,458.585,462.65,466.635,470.28499999999997,472.928,475.248,479.065,482.883,489.02,491.637,495.869,497.861,500.18" y="582.356" style="fill:#171615;font-family:NEAOJJ+AdvOT9d0303c0.B;font-size:7.97px;font-style:NORMAL;font-weight:normal;">Author/Year Country DILI/Con TP FP FN TN Sen (95% CI) Spe (95% CI) </text>
  <text x="523.617" y="582.356" svg_rhmargin="525.61" style="fill:#171615;font-family:NEAOJK+AdvOT1ae6bdaa.BI;font-size:7.97px;font-style:NORMAL;font-weight:normal;">I</text>
  <text svg_rhmargin="528.463" x="525.6,528.4630000000001" y="582.356" style="fill:#171615;font-family:NEAOJJ+AdvOT9d0303c0.B;font-size:5.31px;font-style:NORMAL;font-weight:normal;">2 </text>
  <text svg_rhmargin="547.438" x="531.099,533.418,537.483,541.134,545.119,547.438" y="582.356" style="fill:#171615;font-family:NEAOJJ+AdvOT9d0303c0.B;font-size:7.97px;font-style:NORMAL;font-weight:normal;">(Sen) </text>
  <text x="566.306" y="582.356" svg_rhmargin="568.299" style="fill:#171615;font-family:NEAOJK+AdvOT1ae6bdaa.BI;font-size:7.97px;font-style:NORMAL;font-weight:normal;">I</text>
  <text svg_rhmargin="571.209" x="568.346,571.2090000000001" y="582.356" style="fill:#171615;font-family:NEAOJJ+AdvOT9d0303c0.B;font-size:5.31px;font-style:NORMAL;font-weight:normal;">2 </text>
  <text x="573.846,576.165,580.23,584.215,587.865" y="582.356" svg_rhmargin="590.184" style="fill:#171615;font-family:NEAOJJ+AdvOT9d0303c0.B;font-size:7.97px;font-style:NORMAL;font-weight:normal;">(Spe)</text>
  <text x="85.038,88.856,90.761,94.076,96.228,99.464,102.78,105.681,108.281,111.597,114.913,117.065,120.882,124.7,128.518,132.336,166.108,170.093,173.911,235.727,239.544,243.362,245.514,249.332,253.15,276.828,280.646,284.464,305.401,309.219,332.273,336.091,357.559,361.377,365.195,384.431,388.249,390.154,393.972,397.78999999999996,400.418,402.155,405.973,407.878,411.696,415.513,417.41799999999995,420.033,423.85,425.755,429.573,433.391,435.12800000000004,454.048,457.865,459.77,463.588,467.406,470.034,471.772,475.59,477.494,481.312,485.13,487.03499999999997,489.649,493.467,495.372,499.189,503.007,504.744,526.953,530.77,534.588,536.493,540.311,544.129,569.642,573.46,577.278,579.182,583.0" y="596.6990000000001" svg_rhmargin="586.818" style="fill:#171615;font-family:NEAOJL+AdvOTcb6dfb9e;font-size:7.97px;font-style:NORMAL;font-weight:normal;">Starkey Le/2011 UK 53/31 49 0 4 31 0.92 (0.82, 0.98) 1.00 (0.89, 1.00) 44.55 53.89</text>
  <text x="85.038,89.27,90.681,94.164,97.647,99.552,103.202,105.354,109.172,112.989,116.807,120.625,166.108,170.172,173.655,175.066,178.549,181.865,239.524,243.342,245.494,249.312,278.756,282.57399999999996,305.402,309.21999999999997,332.274,336.092,359.43,363.248,384.432,388.25,390.155,393.972,397.78999999999996,400.419,402.156,405.974,407.879,411.697,415.514,417.419,420.033,423.851,425.756,429.574,433.391,435.12800000000004,454.049,457.866,459.771,463.589,467.407,470.035,471.773,475.59,477.495,481.313,485.131,487.03599999999994,489.65,493.467,495.372,499.19,503.008,504.745,526.953,530.771,534.589,536.494,540.312,544.13,569.643,573.461,577.278,579.183,583.001" y="606.677" svg_rhmargin="586.819" style="fill:#171615;font-family:NEAOJL+AdvOTcb6dfb9e;font-size:7.97px;font-style:NORMAL;font-weight:normal;">Ding.X/2012 China 8/8 7 0 1 8 0.88 (0.47, 1.00) 1.00 (0.63, 1.00) 57.73 65.97</text>
  <text x="85.038,89.103,92.418,94.57,96.722,98.133,99.544,100.954,102.859,106.844,108.749,112.814,114.966,118.712,122.53,126.347,130.165,166.107,170.092,173.91,177.895,235.726,239.543,243.361,245.513,249.331,253.149,276.827,280.645,284.46299999999997,305.4,309.21799999999996,332.273,336.091,357.558,361.376,365.19399999999996,384.43,388.248,390.153,393.971,397.789,400.417,402.155,405.972,407.877,411.695,415.513,417.41799999999995,420.032,423.849,425.754,429.572,433.39,435.127,454.047,457.865,459.77,463.587,467.405,470.034,471.771,475.589,477.494,481.311,485.129,487.034,489.648,493.466,495.371,499.189,503.006,504.743,526.952,530.77,534.587,536.492,540.31,544.1279999999999,569.641,573.459,577.277,579.182,582.999" y="616.598" svg_rhmargin="586.817" style="fill:#171615;font-family:NEAOJL+AdvOTcb6dfb9e;font-size:7.97px;font-style:NORMAL;font-weight:normal;">Harrill.A.H/2012 USA 26/22 25 1 1 21 0.96 (0.80, 1.00) 0.95 (0.77, 1.00) 44.73 62.58</text>
  <text x="85.038,89.023,92.506,94.411,97.726,99.137,102.62,105.936,107.841,112.073,113.978,117.214,119.366,123.183,126.933,130.75,134.568,166.108,170.093,173.911,235.727,239.544,243.362,245.514,249.332,253.15,276.828,280.646,284.464,305.401,309.219,332.273,336.091,357.559,361.377,365.195,384.431,388.249,390.154,393.972,397.78999999999996,400.418,402.155,405.973,407.878,411.696,415.513,417.41799999999995,420.033,423.85,425.755,429.573,433.391,435.12800000000004,454.048,457.865,459.77,463.588,467.406,470.034,471.772,475.59,477.494,481.312,485.13,487.03499999999997,489.649,493.467,495.372,499.189,503.007,504.744,526.953,530.77,534.588,536.493,540.311,544.129,569.642,573.46,577.278,579.182,583.0" y="626.576" svg_rhmargin="586.818" style="fill:#171615;font-family:NEAOJL+AdvOTcb6dfb9e;font-size:7.97px;font-style:NORMAL;font-weight:normal;">Antoine.D.J/2013 UK 15/83 12 5 3 78 0.80 (0.52, 0.96) 0.94 (0.86, 0.98) 53.13 62.59</text>
  <text x="85.038,88.856,90.266,93.749,97.232,100.715,104.031,105.442,107.347,111.332,113.484,117.301,121.036,124.854,128.672,166.107,170.092,173.91,177.895,239.524,243.342,245.494,249.312,278.756,282.57399999999996,305.402,309.21999999999997,332.274,336.092,359.43,363.248,384.432,388.25,390.155,393.972,397.78999999999996,400.419,402.156,405.974,407.879,411.697,415.514,417.419,420.033,423.851,425.756,429.574,433.391,435.12800000000004,454.049,457.866,459.771,463.589,467.407,470.035,471.773,475.59,477.495,481.313,485.131,487.03599999999994,489.65,493.468,495.372,499.19,503.008,504.745,526.954,530.771,534.589,536.494,540.312,544.13,569.643,573.461,577.278,579.183,583.001" y="636.554" svg_rhmargin="586.819" style="fill:#171615;font-family:NEAOJL+AdvOTcb6dfb9e;font-size:7.97px;font-style:NORMAL;font-weight:normal;">Singhai.R/2014 USA 5/6 3 2 2 4 0.60 (0.15, 0.95) 0.67 (0.22, 0.96) 49.31 60.52</text>
  <text x="85.038,90.761,94.076,96.228,99.711,101.616,104.852,107.004,110.822,114.639,118.372,122.19,166.108,170.093,173.91,177.895,235.727,239.544,243.362,245.514,249.332,253.15,276.828,280.646,284.464,305.401,309.219,332.273,336.091,357.559,361.377,365.195,384.431,388.249,390.154,393.972,397.78999999999996,400.418,402.155,405.973,407.878,411.696,415.513,417.41799999999995,420.033,423.85,425.755,429.573,433.391,435.12800000000004,454.048,457.865,459.77,463.588,467.406,470.034,471.772,475.59,477.494,481.312,485.13,487.03499999999997,489.649,493.467,495.372,499.189,503.007,504.744,526.953,530.77,534.588,536.493,540.311,544.129,569.642,573.46,577.278,579.182,583.0" y="646.532" svg_rhmargin="586.818" style="fill:#171615;font-family:NEAOJL+AdvOTcb6dfb9e;font-size:7.97px;font-style:NORMAL;font-weight:normal;">Ward.J/2014 USA 49/12 45 0 4 12 0.92 (0.80, 0.98) 1.00 (0.74, 1.00) 51.58 64.06</text>
  <text x="85.038,88.856,91.008,94.323,97.806,100.875,104.111,107.426,110.909,112.814,114.719,117.955,120.107,123.925,127.669,131.487,135.305,166.107,169.59,173.073,176.389,179.032,183.264,186.58,188.485,191.968,195.283,197.435,198.846,202.162,205.645,209.128,212.196,239.522,243.34,245.492,249.31,278.754,282.572,305.4,309.21799999999996,332.272,336.09,359.428,363.246,384.43,388.247,390.152,393.97,397.788,400.416,402.154,405.971,407.876,411.694,415.512,417.417,420.031,423.849,425.753,429.571,433.389,435.12600000000003,454.046,457.864,459.769,463.586,467.404,470.033,471.77,475.588,477.493,481.311,485.128,487.03299999999996,489.647,493.465,495.37,499.188,503.005,504.742,526.951,530.769,534.587,536.491,540.309,544.127,569.64,573.458,577.276,579.181,582.999" y="656.453" svg_rhmargin="586.817" style="fill:#171615;font-family:NEAOJL+AdvOTcb6dfb9e;font-size:7.97px;font-style:NORMAL;font-weight:normal;">Krauskopf.J/2015 The Netherlands 6/6 4 0 2 6 0.67 (0.22, 0.96) 1.00 (0.54, 1.00) 50.56 63.78</text>
  <text x="85.038,88.688,90.099,91.51,94.825,98.308,101.624,105.107,107.012,110.495,113.81,115.962,117.867,119.772,123.757,125.662,129.823,131.975,135.793,139.611,143.428,147.246,166.106,170.091,173.90900000000002,235.725,239.543,243.36,245.512,249.33,253.14800000000002,278.754,282.572,305.4,309.21799999999996,332.273,336.091,357.558,361.376,365.19399999999996,384.43,388.248,390.153,393.971,397.789,400.417,402.155,405.972,407.877,411.695,415.513,417.41799999999995,420.032,423.849,425.754,429.572,433.39,435.127,454.047,457.865,459.769,463.587,467.405,470.033,471.771,475.589,477.494,481.311,485.129,487.034,489.648,493.466,495.371,499.188,503.006,504.743,526.952,530.77,534.587,536.492,540.31,544.1279999999999,569.641,573.459,577.277,579.182,582.999" y="666.431" svg_rhmargin="586.817" style="fill:#171615;font-family:NEAOJL+AdvOTcb6dfb9e;font-size:7.97px;font-style:NORMAL;font-weight:normal;">Vliegenthart.A.D/2015 UK 13/55 8 5 5 50 0.62 (0.32, 0.86) 0.91 (0.80, 0.97) 44.33 66.94</text>
  <text x="85.038,88.688,90.099,91.51,94.825,98.308,101.624,105.107,107.012,110.495,113.81,115.962,117.867,119.772,123.757,125.662,129.823,131.975,135.793,139.611,143.428,147.246,166.106,170.091,173.90900000000002,237.652,241.47,243.622,247.439,251.257,278.754,282.572,305.4,309.21799999999996,332.273,336.091,357.558,361.376,365.19399999999996,384.43,388.248,390.153,393.971,397.789,400.417,402.155,405.972,407.877,411.695,415.513,417.41799999999995,420.032,423.849,425.754,429.572,433.39,435.127,454.047,457.865,459.769,463.587,467.405,470.033,471.771,475.589,477.494,481.311,485.129,487.034,489.648,493.466,495.371,499.188,503.006,504.743,526.952,530.77,534.587,536.492,540.31,544.1279999999999,569.641,573.459,577.277,579.182,582.999" y="676.409" svg_rhmargin="586.817" style="fill:#171615;font-family:NEAOJL+AdvOTcb6dfb9e;font-size:7.97px;font-style:NORMAL;font-weight:normal;">Vliegenthart.A.D/2017 UK 8/20 7 4 1 16 0.88 (0.47, 1.00) 0.80 (0.56, 0.94) 57.92 68.62</text>
  <text x="85.038,89.023,90.434,93.502,96.571,97.982,101.465,103.369,107.602,109.506,114.902,117.054,120.872,124.69,128.406,132.22400000000002,166.107,170.092,173.91,177.895,239.524,243.342,245.494,249.312,278.756,282.57399999999996,305.402,309.21999999999997,332.274,336.092,359.43,363.248,384.432,388.25,390.155,393.972,397.78999999999996,400.419,402.156,405.974,407.879,411.697,415.514,417.419,420.033,423.851,425.756,429.574,433.391,435.12800000000004,454.049,457.866,459.771,463.589,467.407,470.035,471.773,475.59,477.495,481.313,485.131,487.03599999999994,489.65,493.468,495.372,499.19,503.008,504.745,526.954,530.771,534.589,536.494,540.312,544.13,569.643,573.461,577.278,579.183,583.001" y="686.33" svg_rhmargin="586.819" style="fill:#171615;font-family:NEAOJL+AdvOTcb6dfb9e;font-size:7.97px;font-style:NORMAL;font-weight:normal;">Rissin.D.M/2017 USA 4/4 2 0 2 4 0.50 (0.07, 0.93) 1.00 (0.40, 1.00) 44.63 64.65</text>
  <text x="85.038,88.521,91.837,97.232,100.548,104.031,106.183,109.498,111.403,114.886,117.038,120.856,124.674,128.406,132.22400000000002,166.107,169.343,172.658,176.141,179.457,182.94,239.523,243.341,245.493,249.311,278.755,282.573,305.401,309.219,332.273,336.091,359.43,363.248,384.431,388.249,390.154,393.972,397.78999999999996,400.418,402.155,405.973,407.878,411.696,415.513,417.41799999999995,420.033,423.85,425.755,429.573,433.391,435.12800000000004,454.048,457.865,459.77,463.588,467.406,470.034,471.772,475.59,477.494,481.312,485.13,487.03499999999997,489.649,493.467,495.372,499.189,503.007,504.744,526.953,530.77,534.588,536.493,540.311,544.129,569.642,573.46,577.278,579.182,583.0" y="696.308" svg_rhmargin="586.818" style="fill:#171615;font-family:NEAOJL+AdvOTcb6dfb9e;font-size:7.97px;font-style:NORMAL;font-weight:normal;">Yamaura.Y/2017 Japan 7/4 7 2 0 2 1.00 (0.59, 1.00) 0.50 (0.07, 0.93) 54.86 55.24</text>
  <text svg_rhmargin="89.831" x="85.039,88.597,89.83099999999999" y="712.013" style="fill:#171615;font-family:NEAOJL+AdvOTcb6dfb9e;font-size:6.97px;font-style:NORMAL;font-weight:normal;">CI </text>
  <text x="90.708" y="712.013" svg_rhmargin="95.429" style="fill:#171615;font-family:NEAGAP+AdvOTb0c9bf5d;font-size:6.97px;font-style:NORMAL;font-weight:normal;">=</text>
  <text x="96.321,99.152,102.053" y="712.013" svg_rhmargin="105.101" style="fill:#171615;font-family:NEAOJL+AdvOTcb6dfb9e;font-size:6.97px;font-style:NORMAL;font-weight:normal;">con</text>
  <text x="105.109" y="712.013" svg_rhmargin="108.01" style="fill:#171615;font-family:NEAOJM+AdvOTcb6dfb9e+fb;font-size:6.97px;font-style:NORMAL;font-weight:normal;">ﬁ</text>
  <text svg_rhmargin="155.677" x="108.056,111.104,114.005,117.053,119.884,122.785,125.12,126.354,129.402,131.069,133.97,135.853,138.391,141.292,142.527,144.194,146.605,150.308,151.542,154.443,155.67700000000002" y="712.013" style="fill:#171615;font-family:NEAOJL+AdvOTcb6dfb9e;font-size:6.97px;font-style:NORMAL;font-weight:normal;">dence interval, DILI </text>
  <text x="156.529" y="712.013" svg_rhmargin="161.25" style="fill:#171615;font-family:NEAGAP+AdvOTb0c9bf5d;font-size:6.97px;font-style:NORMAL;font-weight:normal;">=</text>
  <text x="162.142,165.189,167.072,170.12,173.167,175.413,176.647,179.695,182.833,185.88,188.712,191.613,194.661,197.005,198.239,199.474,202.012,204.913,206.79600000000002,209.137,210.371,213.419,214.653,217.701,219.583,222.122" y="712.013" svg_rhmargin="223.789" style="fill:#171615;font-family:NEAOJL+AdvOTcb6dfb9e;font-size:6.97px;font-style:NORMAL;font-weight:normal;">drug-induced liver injury.</text>
  <text x="85.039,89.272,90.682,94.914,97.569,101.633,103.952,106.583,110.648,112.058,114.21000000000001,116.844,123.395,127.46,132.019,133.43,137.494,138.905,143.137,147.202,149.781,151.686,156.086,160.485,164.885,169.284,171.189,173.818,178.217,182.617,184.769,189.168,193.567,517.041,522.931,528.821,534.711,536.863,543.414,547.973,550.874,552.285,556.685,560.917,563.3,567.532,571.597,573.008,575.16,579.224,583.624" y="9.870999999999981" svg_rhmargin="590.176" style="fill:#171615;font-family:NEAFPK+AdvOT6e5d2ec0;font-size:7.97px;font-style:NORMAL;font-weight:normal;">Liu et al. Medicine (2018) 97:49 www.md-journal.com</text>
  <text x="335.396" y="739.625" svg_rhmargin="339.796" style="fill:#171615;font-family:NEAGIH+AdvOTf94803d4;font-size:7.97px;font-style:NORMAL;font-weight:normal;">3</text>
 </g>
</svg>
