<?xml version="1.0" encoding="UTF-8"?>
<svg height="870.031005859375" width="672.0029907226562" xmlns="http://www.w3.org/2000/svg">
 <g style="fill:none;">
  <path d=" M 0.05999799817800522 826.072021484375 L 22.619997024536133 826.072021484375 L 22.619997024536133 826.35546875 L 0.05999799817800522 826.35546875 Z " style="fill:none;stroke:#000000;stroke-width:1.0;"/>
  <path d=" M 33.67599868774414 837.4110107421875 L 33.959449768066406 837.4110107421875 L 33.959449768066406 860.031005859375 L 33.67599868774414 860.031005859375 Z " style="fill:none;stroke:#000000;stroke-width:1.0;"/>
  <path d=" M 627.9869995117188 837.4110107421875 L 628.2703857421875 837.4110107421875 L 628.2703857421875 860.031005859375 L 627.9869995117188 860.031005859375 Z " style="fill:none;stroke:#000000;stroke-width:1.0;"/>
  <path d=" M 639.3259887695312 826.072021484375 L 662.0029907226562 826.072021484375 L 662.0029907226562 826.35546875 L 639.3259887695312 826.35546875 Z " style="fill:none;stroke:#000000;stroke-width:1.0;"/>
  <path d=" M 639.3259887695312 33.731998443603516 L 662.0029907226562 33.731998443603516 L 662.0029907226562 34.015480041503906 L 639.3259887695312 34.015480041503906 Z " style="fill:none;stroke:#000000;stroke-width:1.0;"/>
  <path d=" M 627.9869995117188 0.0 L 628.2703857421875 0.0 L 628.2703857421875 22.677000045776367 L 627.9869995117188 22.677000045776367 Z " style="fill:none;stroke:#000000;stroke-width:1.0;"/>
  <path d=" M 33.67599868774414 0.0 L 33.959449768066406 0.0 L 33.959449768066406 22.677000045776367 L 33.67599868774414 22.677000045776367 Z " style="fill:none;stroke:#000000;stroke-width:1.0;"/>
  <path d=" M 0.05999799817800522 33.731998443603516 L 22.619997024536133 33.731998443603516 L 22.619997024536133 34.015480041503906 L 0.05999799817800522 34.015480041503906 Z " style="fill:none;stroke:#000000;stroke-width:1.0;"/>
  <text x="71.887,77.768,82.252,87.201,89.622,93.54,96.831,101.78,104.20100000000001,107.489,110.376,115.326,119.244,122.512,125.964,128.851,133.334,136.222,138.642,142.095,144.982,147.403,151.321,155.804,158.225,161.572,166.521,171.471,178.375,182.293,185.745,189.011,192.463,196.946,201.895,206.378,210.297,215.246,218.547,221.434,224.886,229.835,237.205,240.486,245.436,247.857,252.806,261.772,265.034,267.921,272.87,276.146,281.096,286.045,288.466,293.415,302.38100000000003,305.682,308.569,313.519" y="302.747" svg_rhmargin="316.971" style="fill:#171615;font-family:NDDHDM+AdvOTbc475f09;font-size:8.97px;font-style:NORMAL;font-weight:normal;">Table 2, the statistical power ranged from 9.3% to 54.0% for</text>
  <text x="71.887,80.853,87.757,96.723,101.672,104.087,107.539,110.991,115.941,120.89,125.84,130.789,135.738,140.688,145.637,148.08,152.563,157.512,161.995,164.416,168.899,172.351,174.772,178.224,180.64499999999998,183.114,188.064,193.013,196.465,198.931,207.897,214.801,223.768,228.717,231.132,234.584,238.036,242.985,247.935,252.884,257.833,262.783,267.732,270.192,274.675,279.624,284.107,286.528,291.011,294.463,296.884,300.336,302.757,305.17,308.057,313.007" y="313.688" svg_rhmargin="316.925" style="fill:#171615;font-family:NDDHDM+AdvOTbc475f09;font-size:8.97px;font-style:NORMAL;font-weight:normal;">MDM2 rs2279744 analysis. For MDM2 rs937283 analysis, the</text>
  <text x="71.887,75.339,78.226,82.709,85.596,88.017,91.469,94.356,96.777,100.695,105.178,107.599,111.06,116.01,120.959,127.863,131.781,135.233,138.669,142.121,146.605,151.554,156.037,159.955,164.90400000000002,168.319,171.206,174.658,179.608,186.978,190.373,195.322,200.271,202.692,207.642,216.608,220.022,222.91,227.859,231.304,236.253,241.203,243.624,248.573,257.539,259.96,263.334,269.216,274.165,278.083,281.532,286.482,291.431,298.335,302.253,305.705,309.141,314.091" y="324.686" svg_rhmargin="316.978" style="fill:#171615;font-family:NDDHDM+AdvOTbc475f09;font-size:8.97px;font-style:NORMAL;font-weight:normal;">statistical power ranged from 14.4% to 78.2%. The power of</text>
  <text svg_rhmargin="282.069" x="71.887,76.836,81.785,86.734,89.745,93.197,96.649,101.598,106.548,111.497,116.446,121.396,126.345,131.294,134.247,138.73,143.68,148.163,150.584,155.067,158.519,160.94,164.392,167.412,170.864,175.347,180.296,184.779,188.698,193.64700000000002,196.664,199.551,203.004,207.953,215.323,218.321,223.27,225.691,230.64,239.606,242.584,245.471,250.42000000000002,253.413,258.362,263.312,265.733,270.682,279.648,282.069" y="302.18" style="fill:#171615;font-family:NDDHDM+AdvOTbc475f09;font-size:8.97px;font-style:NORMAL;font-weight:normal;">P21 rs1801270 analysis ranged from 4.5% to 15.5%. </text>
  <text x="331.937,337.852,340.80499999999995,345.486,352.585,355.339,360.564,366.081,371.997,377.221,382.446,385.2,390.916" y="302.18" svg_rhmargin="396.831" style="fill:#171615;font-family:NDDHCE+AdvOTfbba3ace.B;font-size:9.46px;font-style:NORMAL;font-weight:normal;">4. Discussion</text>
  <text svg_rhmargin="423.084" x="331.937,337.353,341.836,345.288,347.709,352.192,355.804,358.225,363.17400000000004,366.86,371.809,376.759,381.708,386.657,389.078,392.711,399.148,404.56300000000005,408.245,415.149,419.632,423.084" y="314.425" style="fill:#171615;font-family:NDDHDM+AdvOTbc475f09;font-size:8.97px;font-style:NORMAL;font-weight:normal;">Early in 1809, RB was </text>
  <text x="426.728" y="314.425" svg_rhmargin="431.677" style="fill:#171615;font-family:NDDHDN+AdvOTbc475f09+fb;font-size:8.97px;font-style:NORMAL;font-weight:normal;">ﬁ</text>
  <text x="431.66,435.112,438.564,441.451,445.096,450.046,453.964,457.416,461.334,464.786,467.207,472.156,476.075,481.024,484.724,489.673,494.156,497.82,500.707,505.656,509.574,513.184,517.667,521.585,526.534,529.422,532.309,534.73,538.182,543.131,546.802,550.254,555.203,558.655,563.138,567.057,572.006" y="314.425" svg_rhmargin="576.955" style="fill:#171615;font-family:NDDHDM+AdvOTbc475f09;font-size:8.97px;font-style:NORMAL;font-weight:normal;">rst described by the Scottish surgeon</text>
  <text x="331.937,335.389,339.872,347.242,351.161,354.613,356.711,365.677,370.16,373.612,378.562,382.014,386.963,391.913,394.334,396.451,400.934,404.386,406.543,413.447,418.396,420.817,423.704,427.622,429.73,434.679,438.131,442.614,445.035,449.985,452.872,455.293,457.714,462.663,466.581,468.733,471.154,476.103,478.991,482.443,486.926,491.875,495.793,500.743,503.164,507.647,511.099,513.292,516.179,521.129,528.499,533.448,536.9,540.352,542.488,547.438,550.3249999999999,552.409,555.861,559.78,562.667,565.088,570.037,574.52" y="325.367" svg_rhmargin="576.941" style="fill:#171615;font-family:NDDHDM+AdvOTbc475f09;font-size:8.97px;font-style:NORMAL;font-weight:normal;">James Wardrop, as white brain-like intraocular tumors of retinal</text>
  <text x="331.937,336.886,340.338,342.759,347.242,349.663,354.613" y="336.308" svg_rhmargin="357.034" style="fill:#171615;font-family:NDDHDM+AdvOTbc475f09;font-size:8.97px;font-style:NORMAL;font-weight:normal;">origin.</text>
  <text svg_rhmargin="368.808" x="357.052,359.218,362.931,366.643,368.808" y="336.309" style="fill:#171615;font-family:NDDHDM+AdvOTbc475f09;font-size:5.98px;font-style:NORMAL;font-weight:normal;">[22] </text>
  <text x="372.869,381.836,384.256,387.144,392.093,396.169,399.621,404.57,408.489,410.91,415.393,417.81399999999996,421.907,426.39,431.339,436.288,440.332,444.25,448.168,453.118,458.067,463.016,470.387,472.808,476.726,480.809,485.759,489.677,494.16,498.078,500.499,505.449,510.398,517.768,521.687,526.636,529.523,531.9440000000001,536.026,538.913,543.863,547.7810000000001,551.844,556.793,561.743,566.692,570.61,574.062" y="336.309" svg_rhmargin="576.949" style="fill:#171615;font-family:NDDHDM+AdvOTbc475f09;font-size:8.97px;font-style:NORMAL;font-weight:normal;">With social and economic development, the under-</text>
  <path d=" M 71.88700103759766 741.7130126953125 L 577.02099609375 741.7130126953125 L 577.02099609375 742.2232666015625 L 71.88700103759766 742.2232666015625 Z " style="fill:none;stroke:#000000;stroke-width:1.0;"/>
  <path d=" M 71.88700103759766 659.1119995117188 L 577.02099609375 659.1119995117188 L 577.02099609375 659.6221923828125 L 71.88700103759766 659.6221923828125 Z " style="fill:none;stroke:#000000;stroke-width:1.0;"/>
  <path d=" M 390.614013671875 729.2410278320312 L 521.8580322265625 729.2410278320312 L 521.8580322265625 729.7512817382812 L 390.614013671875 729.7512817382812 Z " style="fill:none;stroke:#000000;stroke-width:1.0;"/>
  <path d=" M 390.614013671875 717.2789916992188 L 445.2090148925781 717.2789916992188 L 445.2090148925781 717.7892456054688 L 390.614013671875 717.7892456054688 Z " style="fill:none;stroke:#000000;stroke-width:1.0;"/>
  <path d=" M 460.1759948730469 717.2789916992188 L 521.8579711914062 717.2789916992188 L 521.8579711914062 717.7892456054688 L 460.1759948730469 717.7892456054688 Z " style="fill:none;stroke:#000000;stroke-width:1.0;"/>
  <path d=" M 71.88700103759766 704.4089965820312 L 141.73300170898438 704.4089965820312 L 141.73300170898438 704.9192504882812 L 71.88700103759766 704.9192504882812 Z " style="fill:none;stroke:#000000;stroke-width:1.0;"/>
  <path d=" M 171.9499969482422 704.4089965820312 L 126.70899963378906 704.4089965820312 L 126.70899963378906 704.9190063476562 L 171.9499969482422 704.9190063476562" style="fill:none;stroke:#000000;stroke-width:1.0;"/>
  <path d=" M 211.29400634765625 704.4089965820312 L 156.92601013183594 704.4089965820312 L 156.92601013183594 704.9190063476562 L 211.29400634765625 704.9190063476562" style="fill:none;stroke:#000000;stroke-width:1.0;"/>
  <path d=" M 305.6310119628906 704.4089965820312 L 196.27001953125 704.4089965820312 L 196.27001953125 704.9190063476562 L 305.6310119628906 704.9190063476562" style="fill:none;stroke:#000000;stroke-width:1.0;"/>
  <path d=" M 290.6080017089844 704.4089965820312 L 390.614013671875 704.4089965820312 L 390.614013671875 704.9192504882812 L 290.6080017089844 704.9192504882812 Z " style="fill:none;stroke:#000000;stroke-width:1.0;"/>
  <path d=" M 375.5899963378906 704.4089965820312 L 413.2340087890625 704.4089965820312 L 413.2340087890625 704.9192504882812 L 375.5899963378906 704.9192504882812 Z " style="fill:none;stroke:#000000;stroke-width:1.0;"/>
  <path d=" M 398.21099853515625 704.4089965820312 L 436.4219970703125 704.4089965820312 L 436.4219970703125 704.9192504882812 L 398.21099853515625 704.9192504882812 Z " style="fill:none;stroke:#000000;stroke-width:1.0;"/>
  <path d=" M 421.39801025390625 704.4089965820312 L 460.176025390625 704.4089965820312 L 460.176025390625 704.9192504882812 L 421.39801025390625 704.9192504882812 Z " style="fill:none;stroke:#000000;stroke-width:1.0;"/>
  <path d=" M 445.2090148925781 704.4089965820312 L 486.6520080566406 704.4089965820312 L 486.6520080566406 704.9192504882812 L 445.2090148925781 704.9192504882812 Z " style="fill:none;stroke:#000000;stroke-width:1.0;"/>
  <path d=" M 471.62799072265625 704.4089965820312 L 513.0709838867188 704.4089965820312 L 513.0709838867188 704.9192504882812 L 471.62799072265625 704.9192504882812 Z " style="fill:none;stroke:#000000;stroke-width:1.0;"/>
  <path d=" M 498.0469970703125 704.4089965820312 L 536.8250122070312 704.4089965820312 L 536.8250122070312 704.9192504882812 L 498.0469970703125 704.9192504882812 Z " style="fill:none;stroke:#000000;stroke-width:1.0;"/>
  <path d=" M 521.8579711914062 704.4089965820312 L 576.9639892578125 704.4089965820312 L 576.9639892578125 704.9192504882812 L 521.8579711914062 704.9192504882812 Z " style="fill:none;stroke:#000000;stroke-width:1.0;"/>
  <path d=" M 71.88700103759766 596.9199829101562 L 577.02099609375 596.9199829101562 L 577.02099609375 597.4302368164062 L 71.88700103759766 597.4302368164062 Z " style="fill:none;stroke:#000000;stroke-width:1.0;"/>
  <path d=" M 392.20098876953125 644.655029296875 L 521.5169677734375 644.655029296875 L 521.5169677734375 645.165283203125 L 392.20098876953125 645.165283203125 Z " style="fill:none;stroke:#000000;stroke-width:1.0;"/>
  <path d=" M 392.20098876953125 633.2030029296875 L 449.177001953125 633.2030029296875 L 449.177001953125 632.6929931640625 L 392.20098876953125 632.6929931640625" style="fill:none;stroke:#000000;stroke-width:1.0;"/>
  <path d=" M 464.5419921875 632.6929931640625 L 521.5180053710938 632.6929931640625 L 521.5180053710938 633.2032470703125 L 464.5419921875 633.2032470703125 Z " style="fill:none;stroke:#000000;stroke-width:1.0;"/>
  <path d=" M 71.88700103759766 619.822998046875 L 142.0159912109375 619.822998046875 L 142.0159912109375 620.333251953125 L 71.88700103759766 620.333251953125 Z " style="fill:none;stroke:#000000;stroke-width:1.0;"/>
  <path d=" M 126.70899963378906 619.822998046875 L 172.57400512695312 619.822998046875 L 172.57400512695312 620.333251953125 L 126.70899963378906 620.333251953125 Z " style="fill:none;stroke:#000000;stroke-width:1.0;"/>
  <path d=" M 157.26600646972656 619.822998046875 L 212.2580108642578 619.822998046875 L 212.2580108642578 620.333251953125 L 157.26600646972656 620.333251953125 Z " style="fill:none;stroke:#000000;stroke-width:1.0;"/>
  <path d=" M 196.9510040283203 619.822998046875 L 306.93499755859375 619.822998046875 L 306.93499755859375 620.333251953125 L 196.9510040283203 620.333251953125 Z " style="fill:none;stroke:#000000;stroke-width:1.0;"/>
  <path d=" M 291.5719909667969 619.822998046875 L 392.2019958496094 619.822998046875 L 392.2019958496094 620.333251953125 L 291.5719909667969 620.333251953125 Z " style="fill:none;stroke:#000000;stroke-width:1.0;"/>
  <path d=" M 376.8940124511719 619.822998046875 L 416.2960205078125 619.822998046875 L 416.2960205078125 620.333251953125 L 376.8940124511719 620.333251953125 Z " style="fill:none;stroke:#000000;stroke-width:1.0;"/>
  <path d=" M 400.989013671875 619.822998046875 L 440.447021484375 619.822998046875 L 440.447021484375 620.333251953125 L 400.989013671875 620.333251953125 Z " style="fill:none;stroke:#000000;stroke-width:1.0;"/>
  <path d=" M 425.0830078125 619.822998046875 L 464.541015625 619.822998046875 L 464.541015625 620.333251953125 L 425.0830078125 620.333251953125 Z " style="fill:none;stroke:#000000;stroke-width:1.0;"/>
  <path d=" M 449.1780090332031 619.822998046875 L 488.6360168457031 619.822998046875 L 488.6360168457031 620.333251953125 L 449.1780090332031 620.333251953125 Z " style="fill:none;stroke:#000000;stroke-width:1.0;"/>
  <path d=" M 473.2720031738281 619.822998046875 L 512.72998046875 619.822998046875 L 512.72998046875 620.333251953125 L 473.2720031738281 620.333251953125 Z " style="fill:none;stroke:#000000;stroke-width:1.0;"/>
  <path d=" M 497.4230041503906 619.822998046875 L 536.8250122070312 619.822998046875 L 536.8250122070312 620.333251953125 L 497.4230041503906 620.333251953125 Z " style="fill:none;stroke:#000000;stroke-width:1.0;"/>
  <path d=" M 521.5180053710938 619.822998046875 L 576.9639892578125 619.822998046875 L 576.9639892578125 620.333251953125 L 521.5180053710938 620.333251953125 Z " style="fill:none;stroke:#000000;stroke-width:1.0;"/>
  <path d=" M 71.88700103759766 534.2739868164062 L 577.02099609375 534.2739868164062 L 577.02099609375 534.7842407226562 L 71.88700103759766 534.7842407226562 Z " style="fill:none;stroke:#000000;stroke-width:1.0;"/>
  <path d=" M 359.6029968261719 582.0089721679688 L 515.905029296875 582.0089721679688 L 515.905029296875 582.4625854492188 L 359.6029968261719 582.4625854492188 Z " style="fill:none;stroke:#000000;stroke-width:1.0;"/>
  <path d=" M 359.6029968261719 570.0469970703125 L 427.29400634765625 570.0469970703125 L 427.29400634765625 570.5572509765625 L 359.6029968261719 570.5572509765625 Z " style="fill:none;stroke:#000000;stroke-width:1.0;"/>
  <path d=" M 448.2139892578125 570.5570068359375 L 515.9049682617188 570.5570068359375 L 515.9049682617188 570.0469970703125 L 448.2139892578125 570.0469970703125" style="fill:none;stroke:#000000;stroke-width:1.0;"/>
  <path d=" M 71.88700103759766 557.177978515625 L 130.3939971923828 557.177978515625 L 130.3939971923828 557.6314697265625 L 71.88700103759766 557.6314697265625 Z " style="fill:none;stroke:#000000;stroke-width:1.0;"/>
  <path d=" M 109.4739990234375 557.177978515625 L 166.56399536132812 557.177978515625 L 166.56399536132812 557.6314697265625 L 109.4739990234375 557.6314697265625 Z " style="fill:none;stroke:#000000;stroke-width:1.0;"/>
  <path d=" M 211.86099243164062 557.177978515625 L 145.64398193359375 557.177978515625 L 145.64398193359375 557.6309814453125 L 211.86099243164062 557.6309814453125" style="fill:none;stroke:#000000;stroke-width:1.0;"/>
  <path d=" M 190.88499450683594 557.177978515625 L 268.7239990234375 557.177978515625 L 268.7239990234375 557.6314697265625 L 190.88499450683594 557.6314697265625 Z " style="fill:none;stroke:#000000;stroke-width:1.0;"/>
  <path d=" M 247.7480010986328 557.177978515625 L 359.6029968261719 557.177978515625 L 359.6029968261719 557.6314697265625 L 247.7480010986328 557.6314697265625 Z " style="fill:none;stroke:#000000;stroke-width:1.0;"/>
  <path d=" M 338.6830139160156 557.177978515625 L 388.9700012207031 557.177978515625 L 388.9700012207031 557.6314697265625 L 338.6830139160156 557.6314697265625 Z " style="fill:none;stroke:#000000;stroke-width:1.0;"/>
  <path d=" M 368.04998779296875 557.177978515625 L 418.5069885253906 557.177978515625 L 418.5069885253906 557.6314697265625 L 368.04998779296875 557.6314697265625 Z " style="fill:none;stroke:#000000;stroke-width:1.0;"/>
  <path d=" M 397.5870056152344 557.177978515625 L 448.2139892578125 557.177978515625 L 448.2139892578125 557.6314697265625 L 397.5870056152344 557.6314697265625 Z " style="fill:none;stroke:#000000;stroke-width:1.0;"/>
  <path d=" M 427.29400634765625 557.177978515625 L 477.58099365234375 557.177978515625 L 477.58099365234375 557.6314697265625 L 427.29400634765625 557.6314697265625 Z " style="fill:none;stroke:#000000;stroke-width:1.0;"/>
  <path d=" M 456.6610107421875 557.177978515625 L 507.1180114746094 557.177978515625 L 507.1180114746094 557.6314697265625 L 456.6610107421875 557.6314697265625 Z " style="fill:none;stroke:#000000;stroke-width:1.0;"/>
  <path d=" M 486.197998046875 557.177978515625 L 536.8250122070312 557.177978515625 L 536.8250122070312 557.6314697265625 L 486.197998046875 557.6314697265625 Z " style="fill:none;stroke:#000000;stroke-width:1.0;"/>
  <path d=" M 515.905029296875 557.177978515625 L 577.02001953125 557.177978515625 L 577.02001953125 557.6314697265625 L 515.905029296875 557.6314697265625 Z " style="fill:none;stroke:#000000;stroke-width:1.0;"/>
  <path d=" M 71.88700103759766 754.8660278320312 L 110.89199829101562 754.8660278320312 L 110.89199829101562 766.8280029296875 L 71.88700103759766 766.8280029296875 Z " style="fill:none;stroke:#000000;stroke-width:1.0;"/>
  <path d=" M 71.88700103759766 766.6580200195312 L 577.02099609375 766.6580200195312 L 577.02099609375 767.1682739257812 L 71.88700103759766 767.1682739257812 Z " style="fill:none;stroke:#000000;stroke-width:1.0;"/>
  <text x="74.891,80.614,86.504,92.641,94.96,100.93799999999999,103.52" y="42.186000000000035" svg_rhmargin="107.92" style="fill:#ffffff;font-family:NDDHDH+AdvOT91f5f621.B;font-size:7.97px;font-style:NORMAL;font-weight:normal;">Table 1</text>
  <text svg_rhmargin="202.84" x="71.887,77.777,82.423,86.982,90.051,94.61,99.169,101.902,106.461,109.53,111.522,115.652,118.385,120.378,124.937,127.613,132.427,134.993,137.648,139.967,144.614,149.173,151.165,155.812,160.626,165.086,169.9,172.569,177.71,180.444,185.09,189.904,191.897,196.456,200.688,202.83999999999997" y="67.24400000000003" style="fill:#171615;font-family:NDDHOE+AdvOT34fe1490.B;font-size:7.97px;font-style:NORMAL;font-weight:normal;">Characteristic of Included Studies. </text>
  <text x="428.486,434.376,438.935,444.825,448.643,451.276,453.842,457.325,461.143,464.961,468.779,472.596,476.414,480.131" y="67.24400000000003" svg_rhmargin="483.949" style="fill:#171615;font-family:NDDOCO+AdvOT9d0303c0.B;font-size:7.97px;font-style:NORMAL;font-weight:normal;">MDM2 rs2279744</text>
  <text x="410.344,414.576,418.394,421.877,425.527,479.736,483.968,487.786,491.771,494.09,496.657,500.475" y="79.207" svg_rhmargin="502.38" style="fill:#171615;font-family:NDDOCO+AdvOT9d0303c0.B;font-size:7.97px;font-style:NORMAL;font-weight:normal;">Case Control</text>
  <text x="71.887,75.537,77.442,80.008,83.491,85.81,88.441,92.84,96.825,99.145,103.13,106.947,109.513,142.299,146.363,150.014,153.831,156.397,171.948,176.181,179.998,183.983,187.969,190.288,192.854,196.33700000000002,237.314,241.132,243.451,247.437,251.422,253.327,256.977,258.882,261.201,264.684,312.772,316.836,320.654,324.639,327.206,330.856,334.506,337.092,340.91,343.22900000000004,345.879,350.111,353.929,357.914,360.233,362.8,366.617,368.522,390.608,394.426,398.24399999999997,413.229,417.046,421.445,436.416,440.815,445.214,462.097,465.915,469.733,488.232,492.05,496.449,513.063,517.463,521.862,537.101,541.5,544.983,548.466,552.284,555.934,557.839,561.657,563.976,565.881,569.699" y="91.16899999999998" svg_rhmargin="573.684" style="fill:#171615;font-family:NDDOCO+AdvOT9d0303c0.B;font-size:7.97px;font-style:NORMAL;font-weight:normal;">First Author Year Country Ethnicity Source of Control TT TG GG TT TG GG Association</text>
  <text x="573.619" y="85.61300000000006" svg_rhmargin="576.727" style="fill:#171615;font-family:NDDHDG+AdvOTb0c9bf5d+22;font-size:5.31px;font-style:NORMAL;font-weight:normal;">∗</text>
  <text x="71.887,75.37,78.853,80.263,83.332,85.237,88.552,89.963,93.279,95.184,98.5,101.139,106.535,110.6,141.731,145.549,149.367,153.184,157.002,171.948,173.358,175.263,178.579,179.99,182.89100000000002,211.293,215.525,218.84,220.745,223.367,226.683,229.584,232.9,234.31,235.721,239.037,242.52,243.93,247.246,305.628,309.613,313.096,315.248,318.563,319.974,323.29,325.195,328.51,331.993,334.597,336.008,339.491,342.974,344.385,347.286,348.696,352.179,355.662,358.978,360.389,363.457,390.608,394.426,398.24399999999997,413.512,417.33,421.14799999999997,436.983,440.801,444.61899999999997,460.171,463.988,467.806,471.62399999999997,486.646,490.464,494.282,498.09999999999997,513.632,517.449,521.2669999999999,536.819,540.134,543.45,548.096,551.412,553.5640000000001,556.207,560.192,561.603,564.671" y="105.51199999999994" svg_rhmargin="567.907" style="fill:#171615;font-family:NDDODP+AdvOTcb6dfb9e;font-size:7.97px;font-style:NORMAL;font-weight:normal;">Epistolato MC 2011 Italy Not available Unrelated individuals 49 49 13 100 165 42 Lower Risk</text>
  <text x="71.887,75.37,78.686,81.354,85.754,87.165,88.575,91.477,94.792,96.203,98.355,101.671,104.258,108.243,111.558,112.969,116.03699999999999,118.657,122.642,126.707,141.731,145.549,149.367,153.184,157.002,171.948,175.933,178.085,181.4,184.134,185.545,186.956,211.292,215.357,218.672,222.155,225.391,228.707,231.775,233.186,236.501,239.984,241.889,244.512,249.908,253.391,254.802,256.213,259.528,261.433,264.74899999999997,267.359,270.674,272.82599999999996,275.466,279.451,280.862,284.178,287.414,290.65,305.626,309.611,313.094,315.246,318.562,319.973,323.288,325.193,328.509,331.992,333.897,336.523,340.006,343.321,346.637,348.048,349.953,353.436,356.337,358.972,362.288,365.771,369.254,370.665,372.57,375.638,390.606,394.424,398.24199999999996,413.51,417.328,421.14599999999996,440.779,444.597,464.024,467.841,471.659,490.442,494.26,498.078,513.629,517.447,521.265,536.816,540.132,543.448,548.094,551.41,553.562,556.205,560.19,561.6,564.669" y="115.49000000000001" svg_rhmargin="567.905" style="fill:#171615;font-family:NDDODP+AdvOTcb6dfb9e;font-size:7.97px;font-style:NORMAL;font-weight:normal;">de Oliveira Reis AH 2012 Brazil Caucasian, Mullato or Black Unrelated, healthy adults 53 44 7 37 53 14 Lower Risk</text>
  <text x="71.887,75.951,79.434,82.75,86.233,88.838,92.823,141.733,145.55,149.368,153.186,157.00400000000002,171.949,176.014,179.497,180.908,184.391,187.707,211.293,215.358,218.674,222.157,224.786,228.851,232.334,233.745,237.228,240.543,243.612,246.928,305.629,309.694,313.01,316.325,317.736,319.641,323.124,326.02500000000003,328.646,331.961,335.444,338.927,340.338,342.243,345.311,390.611,394.429,398.24699999999996,413.515,417.333,421.151,436.985,440.803,444.621,464.028,467.845,471.663,490.446,494.264,498.082,513.633,517.451,521.269,536.82,541.052,544.368,546.273,548.896,551.964,553.375,556.858,560.341" y="125.46799999999996" svg_rhmargin="561.752" style="fill:#171615;font-family:NDDODP+AdvOTcb6dfb9e;font-size:7.97px;font-style:NORMAL;font-weight:normal;">Chen R 2015 China Han Chinese Healthy adults 34 75 59 36 88 60 Not signi</text>
  <text x="561.772" y="125.46799999999996" svg_rhmargin="565.088" style="fill:#171615;font-family:NDDOEA+AdvOTcb6dfb9e+fb;font-size:7.97px;font-style:NORMAL;font-weight:normal;">ﬁ</text>
  <text x="565.06,568.296,571.612,575.095" y="125.46799999999996" svg_rhmargin="577.0" style="fill:#171615;font-family:NDDODP+AdvOTcb6dfb9e;font-size:7.97px;font-style:NORMAL;font-weight:normal;">cant</text>
  <text x="71.887,75.122,76.533,79.849,83.165,85.776,89.259,141.733,145.55,149.368,153.186,157.00400000000002,171.949,176.014,179.497,180.908,184.391,187.707,211.293,215.358,218.674,222.157,224.786,228.851,232.334,233.745,237.227,240.543,243.612,246.928,305.629,309.862,313.177,315.329,320.725,324.04,325.451,328.079,331.315,334.631,338.113,340.018,342.17,345.486,346.897,390.611,394.429,398.24699999999996,413.515,417.333,421.151,436.985,440.803,444.621,464.028,467.845,471.663,490.446,494.264,498.082,513.633,517.451,521.269,536.82,541.052,544.368,546.273,548.896,551.964,553.375,556.858,560.341" y="135.389" svg_rhmargin="561.752" style="fill:#171615;font-family:NDDODP+AdvOTcb6dfb9e;font-size:7.97px;font-style:NORMAL;font-weight:normal;">Jiao Y 2016 China Han Chinese Normal control 37 59 41 34 73 43 Not signi</text>
  <text x="561.772" y="135.389" svg_rhmargin="565.088" style="fill:#171615;font-family:NDDOEA+AdvOTcb6dfb9e+fb;font-size:7.97px;font-style:NORMAL;font-weight:normal;">ﬁ</text>
  <text x="565.06,568.296,571.612,575.095" y="135.389" svg_rhmargin="577.0" style="fill:#171615;font-family:NDDODP+AdvOTcb6dfb9e;font-size:7.97px;font-style:NORMAL;font-weight:normal;">cant</text>
  <text x="431.038,436.928,441.487,447.377,451.195,453.828,456.395,459.878,463.695,467.513,471.331,475.148,478.966" y="151.83000000000004" svg_rhmargin="482.784" style="fill:#171615;font-family:NDDOCO+AdvOT9d0303c0.B;font-size:7.97px;font-style:NORMAL;font-weight:normal;">MDM2 rs937283</text>
  <text x="413.124,417.356,421.173,424.656,428.306,481.721,485.954,489.771,493.756,496.076,498.642,502.46" y="163.793" svg_rhmargin="504.365" style="fill:#171615;font-family:NDDOCO+AdvOT9d0303c0.B;font-size:7.97px;font-style:NORMAL;font-weight:normal;">Case Control</text>
  <text x="71.887,75.538,77.443,80.009,83.492,85.811,88.441,92.841,96.826,99.145,103.131,106.948,109.514,142.639,146.704,150.354,154.172,156.738,172.573,176.805,180.622,184.608,188.593,190.912,193.478,196.961,238.279,242.097,244.416,248.401,252.386,254.291,257.941,259.846,262.166,265.649,314.02,318.084,321.902,325.887,328.454,332.104,335.75399999999996,338.397,342.214,344.533,347.184,351.416,355.234,359.219,361.538,364.104,367.922,369.827,392.197,396.597,400.996,416.292,420.691,425.09,440.443,444.842,449.241,464.538,468.937,473.336,488.632,493.032,497.431,512.727,517.127,521.526,537.105,541.504,544.987,548.47,552.288,555.938,557.843,561.661,563.98,565.885,569.703" y="175.755" svg_rhmargin="573.688" style="fill:#171615;font-family:NDDOCO+AdvOT9d0303c0.B;font-size:7.97px;font-style:NORMAL;font-weight:normal;">First Author Year Country Ethnicity Source of Control AA AG GG AA AG GG Association</text>
  <text x="573.619" y="170.255" svg_rhmargin="576.727" style="fill:#171615;font-family:NDDHDG+AdvOTb0c9bf5d+22;font-size:5.31px;font-style:NORMAL;font-weight:normal;">∗</text>
  <text x="71.887,75.37,78.686,81.354,85.754,87.165,88.575,91.477,94.792,96.203,98.355,101.671,104.258,108.243,111.558,112.969,116.03699999999999,118.657,122.642,126.707,142.015,145.833,149.65,153.468,157.286,172.572,176.557,178.709,182.024,184.758,186.169,187.58,212.256,216.321,219.637,223.12,226.355,229.671,232.74,234.15,237.466,240.949,242.854,245.477,250.873,254.355,255.766,257.177,260.493,262.397,265.71299999999997,268.323,271.639,273.791,276.431,280.416,281.826,285.142,288.378,291.614,306.931,310.916,314.399,316.551,319.867,321.277,324.593,326.498,329.813,333.296,335.20099999999996,337.827,341.31,344.626,347.942,349.352,351.257,354.74,357.641,360.221,363.536,367.019,370.502,371.913,373.818,376.88599999999997,392.819,396.636,400.454,416.913,420.731,424.549,441.008,444.826,448.644,465.103,468.921,472.739,489.197,493.015,496.83299999999997,513.292,517.11,520.928,536.819,541.052,544.367,546.2719999999999,548.895,551.964,553.374,556.857,560.34" y="190.09799999999996" svg_rhmargin="561.751" style="fill:#171615;font-family:NDDODP+AdvOTcb6dfb9e;font-size:7.97px;font-style:NORMAL;font-weight:normal;">de Oliveira Reis AH 2012 Brazil Caucasian, Mullato or Black Unrelated, healthy adults 37 51 16 45 48 11 Not signi</text>
  <text x="561.772" y="190.09799999999996" svg_rhmargin="565.088" style="fill:#171615;font-family:NDDOEA+AdvOTcb6dfb9e+fb;font-size:7.97px;font-style:NORMAL;font-weight:normal;">ﬁ</text>
  <text x="565.06,568.296,571.612,575.095" y="190.09799999999996" svg_rhmargin="577.0" style="fill:#171615;font-family:NDDODP+AdvOTcb6dfb9e;font-size:7.97px;font-style:NORMAL;font-weight:normal;">cant</text>
  <text x="71.887,75.122,76.533,79.849,83.165,85.776,89.259,142.016,145.833,149.651,153.469,157.287,172.572,176.637,180.12,181.531,185.014,188.33,212.257,216.322,219.637,223.12,225.75,229.814,233.297,234.708,238.191,241.507,244.575,247.891,306.933,311.165,314.481,316.633,322.029,325.344,326.755,329.383,332.619,335.934,339.417,341.322,343.474,346.79,348.201,392.822,396.639,400.457,416.916,420.734,424.55199999999996,441.011,444.829,448.647,465.106,468.924,472.74199999999996,489.201,493.018,496.83599999999996,513.295,517.113,520.931,536.823,540.887,542.298,545.781,549.264,552.58,554.7320000000001,557.345,561.33,562.741,565.809" y="200.07600000000002" svg_rhmargin="569.045" style="fill:#171615;font-family:NDDODP+AdvOTcb6dfb9e;font-size:7.97px;font-style:NORMAL;font-weight:normal;">Jiao Y 2016 China Han Chinese Normal control 60 59 18 91 48 11 Higher Risk</text>
  <text x="414.256,418.241,422.059,425.877,428.543,431.109,434.592,438.41,442.227,446.045,449.863,453.681,457.398" y="214.53300000000002" svg_rhmargin="461.216" style="fill:#171615;font-family:NDDOCO+AdvOT9d0303c0.B;font-size:7.97px;font-style:NORMAL;font-weight:normal;">p21 rs1801270</text>
  <text x="385.853,390.085,393.903,397.386,401.036,470.778,475.01,478.828,482.813,485.133,487.699,491.517" y="226.495" svg_rhmargin="493.422" style="fill:#171615;font-family:NDDOCO+AdvOT9d0303c0.B;font-size:7.97px;font-style:NORMAL;font-weight:normal;">Case Control</text>
  <text x="71.887,75.537,77.442,80.008,83.491,85.81,88.441,92.84,96.825,99.145,103.13,106.947,109.513,130.959,135.024,138.674,142.492,145.058,166.562,170.794,174.612,178.597,182.582,184.902,187.468,190.951,216.168,219.986,222.305,226.29,230.275,232.18,235.83,237.735,240.055,243.538,275.808,279.873,283.691,287.676,290.242,293.892,297.542,300.185,304.003,306.322,308.972,313.204,317.022,321.007,323.326,325.893,329.711,331.616,359.598,363.83,368.062,388.965,393.197,397.596,418.502,422.901,427.3,448.209,452.441,456.673,477.576,481.808,486.207,507.113,511.512,515.911,537.103,541.503,544.986,548.469,552.286,555.937,557.841,561.659,563.979,565.883,569.701" y="238.45799999999997" svg_rhmargin="573.686" style="fill:#171615;font-family:NDDOCO+AdvOT9d0303c0.B;font-size:7.97px;font-style:NORMAL;font-weight:normal;">First Author Year Country Ethnicity Source of Control CC CA AA CC CA AA Association</text>
  <text x="573.619" y="232.90099999999995" svg_rhmargin="576.727" style="fill:#171615;font-family:NDDHDG+AdvOTb0c9bf5d+22;font-size:5.31px;font-style:NORMAL;font-weight:normal;">∗</text>
  <text x="71.887,75.951,79.267,81.419,84.32,87.636,89.046,92.529,95.845,98.474,99.885,104.117,130.393,134.21,138.028,141.846,145.66400000000002,166.562,170.547,172.699,176.015,178.749,180.159,181.57,211.859,216.091,219.407,221.312,223.935,227.25,230.152,233.467,234.878,236.289,239.604,243.087,244.498,247.814,268.721,272.706,276.189,278.341,281.657,283.067,286.383,288.288,291.603,295.086,296.991,299.561,303.044,306.359,309.675,311.086,312.991,316.474,319.375,322.011,325.326,328.809,332.292,333.703,335.608,338.676,359.994,363.812,367.63,389.474,393.292,397.10999999999996,422.866,426.68399999999997,448.605,452.423,456.241,478.085,481.903,485.721,511.534,515.352,536.819,540.884,542.295,545.778,549.261,552.576,554.7280000000001,557.342,561.327,562.738,565.806" y="252.79999999999995" svg_rhmargin="569.042" style="fill:#171615;font-family:NDDODP+AdvOTcb6dfb9e;font-size:7.97px;font-style:NORMAL;font-weight:normal;">Carvalho IN 2013 Brazil Not available Unrelated, healthy adults 85 52 4 90 27 3 Higher Risk</text>
  <text x="71.887,75.951,79.434,82.75,86.233,88.838,92.823,130.393,134.211,138.029,141.847,145.66500000000002,166.563,170.628,174.111,175.521,179.004,182.32,211.86,215.925,219.24,222.723,225.353,229.418,232.901,234.311,237.794,241.11,244.178,247.494,268.722,272.787,276.102,279.418,280.829,282.733,286.216,289.117,291.738,295.054,298.537,302.02,303.43,305.335,308.40299999999996,359.996,363.813,367.631,389.476,393.294,397.11199999999997,419.069,422.887,426.705,448.606,452.424,456.24199999999996,478.086,481.904,485.722,507.68,511.497,515.315,536.819,541.052,544.367,546.2719999999999,548.895,551.964,553.374,556.857,560.34" y="262.721" svg_rhmargin="561.751" style="fill:#171615;font-family:NDDODP+AdvOTcb6dfb9e;font-size:7.97px;font-style:NORMAL;font-weight:normal;">Chen R 2015 China Han Chinese Healthy adults 51 81 36 46 95 44 Not signi</text>
  <text x="561.772" y="262.721" svg_rhmargin="565.088" style="fill:#171615;font-family:NDDOEA+AdvOTcb6dfb9e+fb;font-size:7.97px;font-style:NORMAL;font-weight:normal;">ﬁ</text>
  <text x="565.06,568.296,571.612,575.095" y="262.721" svg_rhmargin="577.0" style="fill:#171615;font-family:NDDODP+AdvOTcb6dfb9e;font-size:7.97px;font-style:NORMAL;font-weight:normal;">cant</text>
  <text svg_rhmargin="74.607" x="71.887,74.607" y="276.44100000000003" style="fill:#171615;font-family:NDDHDG+AdvOTb0c9bf5d+22;font-size:4.65px;font-style:NORMAL;font-weight:normal;">∗ </text>
  <text x="75.798,78.846,81.894,84.795,87.136,90.038,92.722,95.407,98.308,101.14,102.374,105.275,106.942,108.176,111.077,114.125,116.501,119.549,122.45,124.116,128.182,131.083,133.984,137.032,139.403,141.07,144.117,147.018,149.38,152.721,155.049,158.39,162.093,165.433,168.118,170.469,171.989,176.711,180.414,185.135,188.476,190.821,192.704,195.389,198.729,202.07,205.41,208.75,212.091,215.431,218.772,220.439,222.849,227.571,231.274,235.995,239.336,241.67,243.553,246.238,249.579,252.919,256.259,259.6,262.94,266.281,268.654,271.555,274.603,277.651,279.992,283.04,286.38,289.721,292.067,293.95,296.635,299.975,303.316,306.656,309.997,313.337,316.678,320.018,321.53799999999995,323.926,326.827,329.874,332.922,335.32,336.987,340.034,342.935,345.241,347.124,348.358,351.043,353.874,356.239,359.14,360.80699999999996,363.155,366.642,370.129" y="276.44100000000003" svg_rhmargin="371.796" style="fill:#171615;font-family:NDDODP+AdvOTcb6dfb9e;font-size:6.97px;font-style:NORMAL;font-weight:normal;">The association between the 3 SNPs (MDM2 rs2279744, MDM2 rs937283 and p21 rs1801270) and the risk of RB.</text>
  <path d=" M 71.88700103759766 438.0660095214844 L 576.9639892578125 438.0660095214844 L 576.9639892578125 438.8597106933594 L 71.88700103759766 438.8597106933594 Z " style="fill:none;stroke:#000000;stroke-width:1.0;"/>
  <path d=" M 71.88700103759766 81.52400207519531 L 576.9639892578125 81.52400207519531 L 576.9639892578125 82.31770324707031 L 71.88700103759766 82.31770324707031 Z " style="fill:none;stroke:#000000;stroke-width:1.0;"/>
  <path d="M171.949 95.591 L126.708 95.591 L126.708 95.08 L171.949 95.08 M211.294 95.591 L156.926 95.591 L156.926 95.08 L211.294 95.08 M305.631 95.591 L196.27 95.591 L196.27 95.08 L305.631 95.08 M392.2 166.796 L449.177 166.796 L449.177 167.307 L392.2 167.307 M448.213 229.442 L515.904 229.442 L515.904 229.953 L448.213 229.953 M211.86 242.822 L145.643 242.822 L145.643 242.369 L211.86 242.369 M84.075 369.02 L564.83 369.02 L564.83 681.851 L84.075 681.851 " style="fill:none;stroke:#000000;stroke-width:1.0;"/>
  <rect style="stroke:blue;stroke-width:0.3;" x="84.076" y="369.021" height="312.831" width="480.914" title="4"/>
  <text x="84.076" y="369.021" class="image" id="image.4.1" width="480" height="312">image.4.1.84_565.369_682</text>
  <text svg_rhmargin="102.352" x="71.887,76.243,78.03,82.387,86.661,89.225,93.35,96.21,100.335,102.35199999999999" y="692.794" style="fill:#171615;font-family:NDDHKB+AdvOTf94803d4;font-size:7.47px;font-style:NORMAL;font-weight:normal;">Figure 2. </text>
  <text x="106.129,107.915,112.585,114.371,117.24,121.365,125.332,129.143,131.98,133.848,137.972,140.304,144.114,147.693,149.86700000000002,152.728,157.002,158.324,162.449,164.62300000000002,167.467,171.591,173.459,176.31,182.452,187.51,193.652,197.777,200.686,203.017,206.596,210.721,214.845,218.97,223.094,227.219,231.343,235.468,238.327,242.294,246.419,252.561,256.685,260.107,263.529,267.654,271.778,274.04,277.851,280.673,284.483,288.608,294.749,299.023,302.834,305.165,306.488,310.067,314.191,318.159,321.034,322.82,326.945,331.07,333.96,337.382,340.961,343.767,349.289,354.879,356.665,359.471,363.281,367.249,371.523,374.38,379.356,384.332,387.192,389.523,390.846,394.425,398.161,400.178,403.065,404.851,409.827,411.613,414.46,418.585,422.552,426.363,429.257,431.125,435.249,437.58,441.391,444.97,447.144,450.004,454.278,455.601,459.725,461.899,464.743,468.868,470.736,473.587,479.729,484.787,490.929,495.054,497.906,500.237,503.816,507.941,512.065,516.19,520.314,524.438,528.631,532.756,535.604,539.572,543.382,545.557,549.367,551.699,555.823,559.245,562.667,566.792,570.916,573.09" y="692.794" svg_rhmargin="576.901" style="fill:#171615;font-family:NDDHCF+AdvOT6e5d2ec0;font-size:7.47px;font-style:NORMAL;font-weight:normal;">(A) The forest plot of MDM2 rs2279744 homozygote comparison (TT vs GG) and RB risk; (B) The forest plot of MDM2 rs2279744 heterozygote</text>
  <text x="71.887,75.697,79.822,85.963,90.237,94.048,96.379,97.702,101.281,105.405,109.373,112.588,114.374,118.499,124.021,127.158,130.58,134.15900000000002,137.305,142.827,148.417,150.203,153.349,157.159,161.127,165.401,168.542,173.518,178.494,181.638,183.969,185.291,188.87,192.606,194.623,197.794,199.58,204.788,206.574,209.756,213.881,217.848,221.65900000000002,224.836,226.704,230.828,233.159,236.97,240.549,242.723,245.868,250.141,251.464,255.588,257.762,260.947,265.072,266.94,270.074,276.216,281.274,287.416,291.541,294.734,297.065,300.644,304.768,308.893,313.017,317.142,321.266,325.459,329.583,333.857,337.981,344.123,345.446,349.413,353.224,357.191,359.36499999999995,362.533,368.675,372.799,377.073,380.957,382.28,385.379,387.164,391.289,395.413,399.844,403.968,409.49,412.703,416.125,419.704,422.85,428.372,433.894,435.68,438.837,442.648,446.615,450.889,454.087,459.063,464.039,467.183,469.514,470.836,474.415,478.151,480.168,483.339,485.125,490.183,491.969,495.13,499.255,503.222,507.03299999999996,510.21,512.078,516.202,518.533,522.344,525.923,528.097,531.241,535.515,536.838,540.962,543.136,546.321,550.446,552.3140000000001,555.448,561.59,566.648,572.79" y="701.751" svg_rhmargin="576.914" style="fill:#171615;font-family:NDDHCF+AdvOT6e5d2ec0;font-size:7.47px;font-style:NORMAL;font-weight:normal;">comparison (TG vs GG) and RB risk; (C) The forest plot of MDM2 rs2279744dominant model (TT+TG vs GG) and RB risk; (D) The forest plot of MDM2</text>
  <text svg_rhmargin="264.212" x="71.887,74.219,77.798,81.923,86.049,90.174,94.299,98.424,102.549,106.675,109.08,112.892,116.703,120.515,124.094,127.674,128.997,132.42,136.231,138.734,144.876,149.002,153.276,157.088,158.411,160.959,162.744,166.87,170.995,173.488,176.911,180.49,183.013,187.138,192.661,197.092,202.615,208.137,209.923,212.438,216.249,220.218,224.492,227.009,231.986,236.962,239.481,241.813,243.137,246.716,250.453,252.47,254.961,259.938,264.212" y="710.708" style="fill:#171615;font-family:NDDHCF+AdvOT6e5d2ec0;font-size:7.47px;font-style:NORMAL;font-weight:normal;">rs2279744recessive model (TT vs TG+GG) and RB risk. Rb </text>
  <text svg_rhmargin="271.797" x="266.739,271.798" y="710.708" style="fill:#171615;font-family:NDDHDJ+AdvOTb0c9bf5d;font-size:7.47px;font-style:NORMAL;font-weight:normal;">= </text>
  <text x="274.279,279.255,283.066,285.24,286.563,290.53,294.655,298.928,300.251,304.062,307.641,309.815,313.939,320.081,323.994" y="710.708" svg_rhmargin="326.011" style="fill:#171615;font-family:NDDHCF+AdvOT6e5d2ec0;font-size:7.47px;font-style:NORMAL;font-weight:normal;">Retinoblastoma.</text>
  <text svg_rhmargin="184.554" x="71.887,77.442,81.507,85.906,88.554,92.619,94.938,97.568,101.633,103.044,105.196,107.829,114.381,118.445,123.004,124.415,128.48,129.891,134.123,138.188,140.767,142.672,147.071,151.471,155.87,160.27,162.175,164.803,169.203,173.602,175.754,180.154,184.553" y="9.870999999999981" style="fill:#171615;font-family:NDDHCF+AdvOT6e5d2ec0;font-size:7.97px;font-style:NORMAL;font-weight:normal;">Cao et al. Medicine (2018) 97:49 </text>
  <text x="542.723,549.944,554.503,559.317,561.31,565.869,567.861,572.508" y="9.870999999999981" svg_rhmargin="577.067" style="fill:#171615;font-family:NDDHOE+AdvOT34fe1490.B;font-size:7.97px;font-style:NORMAL;font-weight:normal;">Medicine</text>
  <text x="322.243" y="739.625" svg_rhmargin="326.643" style="fill:#171615;font-family:NDDHKB+AdvOTf94803d4;font-size:7.97px;font-style:NORMAL;font-weight:normal;">4</text>
 </g>
</svg>
