<?xml version="1.0" encoding="UTF-8"?>
<svg height="870.031005859375" width="672.0029907226562" xmlns="http://www.w3.org/2000/svg">
 <g style="fill:none;">
  <path d=" M 0.05999799817800522 826.072021484375 L 22.619997024536133 826.072021484375 L 22.619997024536133 826.35546875 L 0.05999799817800522 826.35546875 Z " style="fill:none;stroke:#000000;stroke-width:1.0;"/>
  <path d=" M 33.67599868774414 837.4110107421875 L 33.959449768066406 837.4110107421875 L 33.959449768066406 860.031005859375 L 33.67599868774414 860.031005859375 Z " style="fill:none;stroke:#000000;stroke-width:1.0;"/>
  <path d=" M 627.9869995117188 837.4110107421875 L 628.2703857421875 837.4110107421875 L 628.2703857421875 860.031005859375 L 627.9869995117188 860.031005859375 Z " style="fill:none;stroke:#000000;stroke-width:1.0;"/>
  <path d=" M 639.3259887695312 826.072021484375 L 662.0029907226562 826.072021484375 L 662.0029907226562 826.35546875 L 639.3259887695312 826.35546875 Z " style="fill:none;stroke:#000000;stroke-width:1.0;"/>
  <path d=" M 639.3259887695312 33.731998443603516 L 662.0029907226562 33.731998443603516 L 662.0029907226562 34.015480041503906 L 639.3259887695312 34.015480041503906 Z " style="fill:none;stroke:#000000;stroke-width:1.0;"/>
  <path d=" M 627.9869995117188 0.0 L 628.2703857421875 0.0 L 628.2703857421875 22.677000045776367 L 627.9869995117188 22.677000045776367 Z " style="fill:none;stroke:#000000;stroke-width:1.0;"/>
  <path d=" M 33.67599868774414 0.0 L 33.959449768066406 0.0 L 33.959449768066406 22.677000045776367 L 33.67599868774414 22.677000045776367 Z " style="fill:none;stroke:#000000;stroke-width:1.0;"/>
  <path d=" M 0.05999799817800522 33.731998443603516 L 22.619997024536133 33.731998443603516 L 22.619997024536133 34.015480041503906 L 0.05999799817800522 34.015480041503906 Z " style="fill:none;stroke:#000000;stroke-width:1.0;"/>
  <text x="85.039,89.989,94.938,102.308,104.729,109.679,114.162,119.111,121.998,124.043,131.413,136.362,141.312,145.23,147.65099999999998,149.667,152.554,158.436,164.318,169.267,175.149,182.053,184.078,188.562,192.014,194.0,200.904,207.808,210.695,212.708,215.595,222.965,229.403,231.416" y="500.038" svg_rhmargin="234.303" style="fill:#171615;font-family:NDDHDM+AdvOTbc475f09;font-size:8.97px;font-style:NORMAL;font-weight:normal;">dominant model (TT+TG vs GG) (OR (</text>
  <text x="234.312,239.262,244.211,253.177,259.615" y="500.038" svg_rhmargin="263.067" style="fill:#171615;font-family:NDDHNC+AdvOT638a931c.I;font-size:8.97px;font-style:NORMAL;font-weight:normal;">95%CI</text>
  <text svg_rhmargin="265.999" x="263.112,265.999" y="500.038" style="fill:#171615;font-family:NDDHDM+AdvOTbc475f09;font-size:8.97px;font-style:NORMAL;font-weight:normal;">) </text>
  <text svg_rhmargin="273.15" x="267.08,273.15" y="500.038" style="fill:#171615;font-family:NDDHDJ+AdvOTb0c9bf5d;font-size:8.97px;font-style:NORMAL;font-weight:normal;">= </text>
  <text x="276.265,281.214,283.635,288.584,293.534,298.483,300.528,303.415,308.365,310.786,315.735,320.685" y="500.038" svg_rhmargin="325.634" style="fill:#171615;font-family:NDDHDM+AdvOTbc475f09;font-size:8.97px;font-style:NORMAL;font-weight:normal;">1.042 (0.786</text>
  <text x="325.645" y="500.038" svg_rhmargin="330.128" style="fill:#171615;font-family:NDDHMC+AdvOTbc475f09+20;font-size:8.97px;font-style:NORMAL;font-weight:normal;">–</text>
  <text svg_rhmargin="112.566" x="85.039,89.989,92.41,97.359,102.308,107.258,110.145,112.566" y="510.979" style="fill:#171615;font-family:NDDHDM+AdvOTbc475f09;font-size:8.97px;font-style:NORMAL;font-weight:normal;">1.382), </text>
  <text svg_rhmargin="120.163" x="114.747,120.162" y="510.979" style="fill:#171615;font-family:NDDHNC+AdvOT638a931c.I;font-size:8.97px;font-style:NORMAL;font-weight:normal;">P </text>
  <text x="121.266" y="510.979" svg_rhmargin="127.336" style="fill:#171615;font-family:NDDHDJ+AdvOTb0c9bf5d;font-size:8.97px;font-style:NORMAL;font-weight:normal;">=</text>
  <text x="128.466,130.887,135.836,140.786,145.735,148.156,150.292,155.241,157.662,162.145,167.094,170.547,174.465,176.653,181.603,188.041,190.462,192.584,197.533,202.483,211.449,213.616,218.566,222.018,225.936,230.885,233.306,237.224,240.112,242.532,247.482,252.431,254.604,257.025,261.974,264.861,268.78,272.232,276.715,281.198,283.619,286.04,288.165,293.114,295.535,300.484" y="510.979" svg_rhmargin="305.433" style="fill:#171615;font-family:NDDHDM+AdvOTbc475f09;font-size:8.97px;font-style:NORMAL;font-weight:normal;">.774, Figure 2C, 95% prediction interval: 0.55</text>
  <text x="305.462" y="510.979" svg_rhmargin="309.945" style="fill:#171615;font-family:NDDHMC+AdvOTbc475f09+20;font-size:8.97px;font-style:NORMAL;font-weight:normal;">–</text>
  <text x="309.94,314.89,317.31,322.26,327.209" y="510.979" svg_rhmargin="330.096" style="fill:#171615;font-family:NDDHDM+AdvOTbc475f09;font-size:8.97px;font-style:NORMAL;font-weight:normal;">1.96)</text>
  <text svg_rhmargin="118.222" x="85.038,91.943,94.363,97.251,102.2,106.468,109.355,114.304,118.22200000000001" y="521.921" style="fill:#171615;font-family:NDDHDM+AdvOTbc475f09;font-size:8.97px;font-style:NORMAL;font-weight:normal;">with the </text>
  <text x="122.512" y="521.921" svg_rhmargin="127.461" style="fill:#171615;font-family:NDDHDN+AdvOTbc475f09+fb;font-size:8.97px;font-style:NORMAL;font-weight:normal;">ﬁ</text>
  <text x="127.445,132.394,136.312,141.262,144.149,148.067,150.954,153.841,157.76,161.678,164.565,168.017,172.287,179.657,184.607,189.556,193.474,195.89499999999998,200.179" y="521.921" svg_rhmargin="203.066" style="fill:#171615;font-family:NDDHDM+AdvOTbc475f09;font-size:8.97px;font-style:NORMAL;font-weight:normal;">xed-effects model (</text>
  <text svg_rhmargin="208.49" x="203.074,208.489" y="521.921" style="fill:#171615;font-family:NDDHNC+AdvOT638a931c.I;font-size:8.97px;font-style:NORMAL;font-weight:normal;">P </text>
  <text x="209.593" y="521.921" svg_rhmargin="215.663" style="fill:#171615;font-family:NDDHDJ+AdvOTb0c9bf5d;font-size:8.97px;font-style:NORMAL;font-weight:normal;">=</text>
  <text x="216.793,219.214,224.163,229.113,234.062,236.483,240.773" y="521.921" svg_rhmargin="243.66" style="fill:#171615;font-family:NDDHDM+AdvOTbc475f09;font-size:8.97px;font-style:NORMAL;font-weight:normal;">.388, I</text>
  <text svg_rhmargin="247.378" x="243.666,247.378" y="521.921" style="fill:#171615;font-family:NDDHDM+AdvOTbc475f09;font-size:5.98px;font-style:NORMAL;font-weight:normal;">2 </text>
  <text x="248.485" y="521.921" svg_rhmargin="254.555" style="fill:#171615;font-family:NDDHDJ+AdvOTb0c9bf5d;font-size:8.97px;font-style:NORMAL;font-weight:normal;">=</text>
  <text x="255.685,260.634,263.055,268.005,276.971,279.858,282.279,286.525,292.406,297.356,301.274,305.573,309.025,312.943,316.395,321.344,323.765,326.652" y="521.921" svg_rhmargin="330.104" style="fill:#171615;font-family:NDDHDM+AdvOTbc475f09;font-size:8.97px;font-style:NORMAL;font-weight:normal;">0.7%). The results</text>
  <text x="85.038,87.459,92.409,97.358,99.779,103.697,108.18,111.067,114.986,119.935,125.686,128.573,133.523,138.006,140.893,146.662,149.549,154.498,158.416,164.179,173.146,180.05,189.016,193.965,199.668,203.12,206.572,211.521,216.471,221.42,226.37,231.319,236.268,241.217,246.948,251.898,256.847,259.268,263.751,271.121,276.071,279.523,284.472,289.422,291.842,295.294,302.665,306.117,311.916,318.82,322.739,326.191" y="532.919" svg_rhmargin="330.109" style="fill:#171615;font-family:NDDHDM+AdvOTbc475f09;font-size:8.97px;font-style:NORMAL;font-weight:normal;">indicated that the MDM2 rs2279744 polymorphisms were</text>
  <text x="85.038,88.49,90.911,95.394,100.344" y="543.861" svg_rhmargin="102.765" style="fill:#171615;font-family:NDDHDM+AdvOTbc475f09;font-size:8.97px;font-style:NORMAL;font-weight:normal;">signi</text>
  <text x="102.784" y="543.861" svg_rhmargin="107.733" style="fill:#171615;font-family:NDDHDN+AdvOTbc475f09+fb;font-size:8.97px;font-style:NORMAL;font-weight:normal;">ﬁ</text>
  <text x="107.716,111.634,116.117,121.067,123.954,126.375,130.858,133.851,138.334,141.786,145.238,150.187,154.106,156.527,161.01,163.897,167.815,172.764,175.802,182.706,185.127,188.014,192.96300000000002,195.985,199.437,204.386,207.838,211.756,215.675,220.624,223.511,225.932,230.881,233.302,235.723,238.144,241.031,245.514,248.537,251.424,256.373,259.366,265.803,271.219" y="543.861" svg_rhmargin="273.64" style="fill:#171615;font-family:NDDHDM+AdvOTbc475f09;font-size:8.97px;font-style:NORMAL;font-weight:normal;">cantly associated with susceptibility to RB.</text>
  <text svg_rhmargin="135.902" x="93.997,99.878,106.783,111.732,116.786,119.673,123.125,125.546,130.029,132.45,135.902" y="550.835" style="fill:#171615;font-family:NDDHDM+AdvOTbc475f09;font-size:8.97px;font-style:NORMAL;font-weight:normal;">Two trials </text>
  <text svg_rhmargin="161.993" x="140.995,143.161,146.874,150.587,152.403,156.116,159.828,161.993" y="554.803" style="fill:#171615;font-family:NDDHDM+AdvOTbc475f09;font-size:5.98px;font-style:NORMAL;font-weight:normal;">[10,19] </text>
  <text x="167.131,174.035,177.953,181.405,185.323,190.374,195.323,200.273,205.222,207.643,211.561,216.51000000000002,221.554,224.442,229.39100000000002,234.48,238.398,241.85,244.738,247.159,254.529,259.012,261.899,265.817,270.876,273.763,278.713,282.63100000000003,287.714,292.197,295.649,299.101,304.051,307.969,310.39,314.873,317.76,320.181,325.13" y="554.803" svg_rhmargin="330.079" style="fill:#171615;font-family:NDDHDM+AdvOTbc475f09;font-size:8.97px;font-style:NORMAL;font-weight:normal;">were pooled to estimate the association</text>
  <text x="85.039,89.988,93.907,96.794,103.698,107.616,111.534,116.483,122.285,128.723,134.138,139.973,143.425,145.846,149.298,154.247,160.042,164.525,169.475,174.424,180.224,189.19,196.095,205.061,210.01000000000002,215.827,219.279,222.731,227.68,232.63,237.579,242.528,247.478,252.42700000000002,258.175,263.124,268.073,270.494,274.977,282.348,287.297,290.749,295.699,300.648,303.069,306.521,313.891,317.343,319.764,325.637" y="565.745" svg_rhmargin="330.12" style="fill:#171615;font-family:NDDHDM+AdvOTbc475f09;font-size:8.97px;font-style:NORMAL;font-weight:normal;">between RB risk and MDM2 rs937283 polymorphisms, a</text>
  <text x="85.039,88.491,90.912,95.395,100.344" y="576.7429999999999" svg_rhmargin="102.765" style="fill:#171615;font-family:NDDHDM+AdvOTbc475f09;font-size:8.97px;font-style:NORMAL;font-weight:normal;">signi</text>
  <text x="102.784" y="576.7429999999999" svg_rhmargin="107.733" style="fill:#171615;font-family:NDDHDN+AdvOTbc475f09+fb;font-size:8.97px;font-style:NORMAL;font-weight:normal;">ﬁ</text>
  <text x="107.716,111.635,116.118,121.067,123.954,125.971,129.423,132.31,136.793,139.68,142.101,145.553,148.44,150.861,154.78,159.263,161.684,163.784,168.267,171.719,175.171,180.12,184.038,186.459,190.943,193.83,196.251,201.2,206.149,208.173,215.077,219.56,223.012,225.01,229.959,234.909,238.361,242.279,245.731,250.214,254.133,259.082,261.122,266.071,269.989,272.877,279.781,283.699,287.617,292.56600000000003,294.57,296.991,301.94,308.844,312.762,316.214,318.267,324.705" y="576.7429999999999" svg_rhmargin="330.121" style="fill:#171615;font-family:NDDHDM+AdvOTbc475f09;font-size:8.97px;font-style:NORMAL;font-weight:normal;">cant statistical association was observed between lower RB</text>
  <text x="85.039,88.491,90.912,94.364,99.313,101.536,106.019,110.968,115.917,118.147,127.113,134.017,142.984,147.93300000000002,150.177,153.629,157.081,162.031,166.98,171.929,176.879,181.828,186.77700000000002,189.01,193.96,198.909,206.279,211.229,215.147,219.63,224.113,229.063,231.95,235.868,238.104,242.023,246.972,254.342,259.292,263.775,267.227,269.648,273.1,278.049,282.998,285.214,288.101,294.539,300.977,303.242,307.725,311.177,313.39,320.294,327.198" y="587.684" svg_rhmargin="330.085" style="fill:#171615;font-family:NDDHDM+AdvOTbc475f09;font-size:8.97px;font-style:NORMAL;font-weight:normal;">risk and MDM2 rs937283 homozygote comparison (AA vs GG)</text>
  <text x="85.039,87.926,95.296,101.73400000000001,103.634" y="598.626" svg_rhmargin="106.521" style="fill:#171615;font-family:NDDHDM+AdvOTbc475f09;font-size:8.97px;font-style:NORMAL;font-weight:normal;">(OR (</text>
  <text x="106.526,111.475,116.424,125.391,131.829" y="598.626" svg_rhmargin="135.281" style="fill:#171615;font-family:NDDHNC+AdvOT638a931c.I;font-size:8.97px;font-style:NORMAL;font-weight:normal;">95%CI</text>
  <text svg_rhmargin="138.212" x="135.325,138.212" y="598.626" style="fill:#171615;font-family:NDDHDM+AdvOTbc475f09;font-size:8.97px;font-style:NORMAL;font-weight:normal;">) </text>
  <text svg_rhmargin="145.42" x="139.35,145.42" y="598.626" style="fill:#171615;font-family:NDDHDJ+AdvOTb0c9bf5d;font-size:8.97px;font-style:NORMAL;font-weight:normal;">= </text>
  <text x="148.422,153.371,155.792,160.741,165.691,170.64000000000001,172.515,175.402,180.352,182.772,187.722,192.671" y="598.626" svg_rhmargin="197.62" style="fill:#171615;font-family:NDDHDM+AdvOTbc475f09;font-size:8.97px;font-style:NORMAL;font-weight:normal;">0.471 (0.259</text>
  <text x="197.631" y="598.626" svg_rhmargin="202.114" style="fill:#171615;font-family:NDDHMC+AdvOTbc475f09+20;font-size:8.97px;font-style:NORMAL;font-weight:normal;">–</text>
  <text svg_rhmargin="229.637" x="202.11,207.059,209.48,214.43,219.379,224.329,227.216,229.637" y="598.626" style="fill:#171615;font-family:NDDHDM+AdvOTbc475f09;font-size:8.97px;font-style:NORMAL;font-weight:normal;">0.858), </text>
  <text svg_rhmargin="237.006" x="231.59,237.005" y="598.626" style="fill:#171615;font-family:NDDHNC+AdvOT638a931c.I;font-size:8.97px;font-style:NORMAL;font-weight:normal;">P </text>
  <text x="238.11" y="598.626" svg_rhmargin="244.18" style="fill:#171615;font-family:NDDHDJ+AdvOTb0c9bf5d;font-size:8.97px;font-style:NORMAL;font-weight:normal;">=</text>
  <text x="245.31,247.731,252.68,257.629,262.579,265.0,266.909,271.858,274.279,278.762,281.183,283.066,288.015,294.453,297.34,299.28,306.184,308.605,311.492,316.44100000000003,318.328,321.215,326.164" y="598.626" svg_rhmargin="330.082" style="fill:#171615;font-family:NDDHDM+AdvOTbc475f09;font-size:8.97px;font-style:NORMAL;font-weight:normal;">.014, Fig. 3A) with the</text>
  <text x="85.038" y="609.624" svg_rhmargin="89.987" style="fill:#171615;font-family:NDDHDN+AdvOTbc475f09+fb;font-size:8.97px;font-style:NORMAL;font-weight:normal;">ﬁ</text>
  <text x="89.97,94.92,98.838,103.787,106.675,110.593,113.48,116.367,120.285,124.204,127.091,130.543,133.623,140.993,145.942,150.892,154.81,157.231,160.268" y="609.624" svg_rhmargin="163.155" style="fill:#171615;font-family:NDDHDM+AdvOTbc475f09;font-size:8.97px;font-style:NORMAL;font-weight:normal;">xed-effects model (</text>
  <text svg_rhmargin="168.577" x="163.161,168.576" y="609.624" style="fill:#171615;font-family:NDDHNC+AdvOT638a931c.I;font-size:8.97px;font-style:NORMAL;font-weight:normal;">P </text>
  <text x="169.681" y="609.624" svg_rhmargin="175.751" style="fill:#171615;font-family:NDDHDJ+AdvOTb0c9bf5d;font-size:8.97px;font-style:NORMAL;font-weight:normal;">=</text>
  <text x="176.881,179.302,184.251,189.2,194.15,196.571,199.614" y="609.624" svg_rhmargin="202.501" style="fill:#171615;font-family:NDDHDM+AdvOTbc475f09;font-size:8.97px;font-style:NORMAL;font-weight:normal;">.581, I</text>
  <text svg_rhmargin="206.219" x="202.507,206.219" y="609.625" style="fill:#171615;font-family:NDDHDM+AdvOTbc475f09;font-size:5.98px;font-style:NORMAL;font-weight:normal;">2 </text>
  <text x="207.326" y="609.625" svg_rhmargin="213.396" style="fill:#171615;font-family:NDDHDJ+AdvOTb0c9bf5d;font-size:8.97px;font-style:NORMAL;font-weight:normal;">=</text>
  <text x="214.526,219.475,228.442,231.329,234.311,238.794,243.743,248.692,251.715,255.167,259.086,263.004,266.922,270.374,273.826,276.247,280.73,284.648,287.714,295.084,300.034,304.983,308.902,311.323,314.359,317.246,323.684" y="609.625" svg_rhmargin="330.122" style="fill:#171615;font-family:NDDHDM+AdvOTbc475f09;font-size:8.97px;font-style:NORMAL;font-weight:normal;">0%) and recessive model (AA</text>
  <text x="85.039,89.522,92.974,97.908,104.346,111.25,116.2,123.104,130.008,132.895,137.932,140.819,148.19,154.628,159.588" y="620.567" svg_rhmargin="162.475" style="fill:#171615;font-family:NDDHDM+AdvOTbc475f09;font-size:8.97px;font-style:NORMAL;font-weight:normal;">vs AG+GG) (OR (</text>
  <text x="162.482,167.431,172.381,181.347,187.785" y="620.567" svg_rhmargin="191.237" style="fill:#171615;font-family:NDDHNC+AdvOT638a931c.I;font-size:8.97px;font-style:NORMAL;font-weight:normal;">95%CI</text>
  <text svg_rhmargin="194.112" x="191.225,194.112" y="620.567" style="fill:#171615;font-family:NDDHDM+AdvOTbc475f09;font-size:8.97px;font-style:NORMAL;font-weight:normal;">) </text>
  <text svg_rhmargin="201.32" x="195.25,201.32" y="620.567" style="fill:#171615;font-family:NDDHDJ+AdvOTb0c9bf5d;font-size:8.97px;font-style:NORMAL;font-weight:normal;">= </text>
  <text x="207.382,212.332,214.753,219.702,224.651,229.60000000000002,234.594,237.481,242.431,244.852,249.801,254.75" y="620.567" svg_rhmargin="259.699" style="fill:#171615;font-family:NDDHDM+AdvOTbc475f09;font-size:8.97px;font-style:NORMAL;font-weight:normal;">0.587 (0.410</text>
  <text x="259.711" y="620.567" svg_rhmargin="264.194" style="fill:#171615;font-family:NDDHMC+AdvOTbc475f09+20;font-size:8.97px;font-style:NORMAL;font-weight:normal;">–</text>
  <text svg_rhmargin="291.716" x="264.189,269.139,271.56,276.509,281.458,286.408,289.295,291.716" y="620.567" style="fill:#171615;font-family:NDDHDM+AdvOTbc475f09;font-size:8.97px;font-style:NORMAL;font-weight:normal;">0.840), </text>
  <text svg_rhmargin="302.09" x="296.674,302.089" y="620.567" style="fill:#171615;font-family:NDDHNC+AdvOT638a931c.I;font-size:8.97px;font-style:NORMAL;font-weight:normal;">P </text>
  <text x="303.251" y="620.567" svg_rhmargin="309.321" style="fill:#171615;font-family:NDDHDJ+AdvOTb0c9bf5d;font-size:8.97px;font-style:NORMAL;font-weight:normal;">=</text>
  <text x="310.394,312.815,317.765,322.714,327.664" y="620.567" svg_rhmargin="330.085" style="fill:#171615;font-family:NDDHDM+AdvOTbc475f09;font-size:8.97px;font-style:NORMAL;font-weight:normal;">.004,</text>
  <text svg_rhmargin="163.349" x="85.039,89.988,92.409,96.892,99.313,106.071,111.021,117.925,120.812,127.614,134.518,136.939,139.826,144.775,151.594,154.481,159.431,163.34900000000002" y="631.508" style="fill:#171615;font-family:NDDHDM+AdvOTbc475f09;font-size:8.97px;font-style:NORMAL;font-weight:normal;">Fig. 2D) with the </text>
  <text x="170.135" y="631.508" svg_rhmargin="175.084" style="fill:#171615;font-family:NDDHDN+AdvOTbc475f09+fb;font-size:8.97px;font-style:NORMAL;font-weight:normal;">ﬁ</text>
  <text x="175.068,180.017,183.936,188.885,191.772,195.69,198.577,201.465,205.383,209.301,212.188,215.64,222.462,229.832,234.782,239.731,243.649,246.07,252.849" y="631.508" svg_rhmargin="255.736" style="fill:#171615;font-family:NDDHDM+AdvOTbc475f09;font-size:8.97px;font-style:NORMAL;font-weight:normal;">xed-effects model (</text>
  <text svg_rhmargin="261.158" x="255.742,261.157" y="631.508" style="fill:#171615;font-family:NDDHNC+AdvOT638a931c.I;font-size:8.97px;font-style:NORMAL;font-weight:normal;">P </text>
  <text x="262.319" y="631.508" svg_rhmargin="268.389" style="fill:#171615;font-family:NDDHDJ+AdvOTb0c9bf5d;font-size:8.97px;font-style:NORMAL;font-weight:normal;">=</text>
  <text x="269.462,271.883,276.833,281.782,286.731,289.152,295.937" y="631.508" svg_rhmargin="298.824" style="fill:#171615;font-family:NDDHDM+AdvOTbc475f09;font-size:8.97px;font-style:NORMAL;font-weight:normal;">.334, I</text>
  <text svg_rhmargin="302.54" x="298.828,302.53999999999996" y="631.509" style="fill:#171615;font-family:NDDHDM+AdvOTbc475f09;font-size:5.98px;font-style:NORMAL;font-weight:normal;">2 </text>
  <text x="303.704" y="631.509" svg_rhmargin="309.774" style="fill:#171615;font-family:NDDHDJ+AdvOTb0c9bf5d;font-size:8.97px;font-style:NORMAL;font-weight:normal;">=</text>
  <text x="310.904,315.853,324.82,327.707" y="631.509" svg_rhmargin="330.128" style="fill:#171615;font-family:NDDHDM+AdvOTbc475f09;font-size:8.97px;font-style:NORMAL;font-weight:normal;">0%).</text>
  <text x="85.038,92.507,97.457,104.361,108.279,112.762,116.68,120.132,122.55300000000001,127.727,132.676,137.625,142.807,146.259,148.68,153.163,158.113" y="642.5070000000001" svg_rhmargin="160.534" style="fill:#171615;font-family:NDDHDM+AdvOTbc475f09;font-size:8.97px;font-style:NORMAL;font-weight:normal;">However, no signi</text>
  <text x="160.553" y="642.5070000000001" svg_rhmargin="165.502" style="fill:#171615;font-family:NDDHDN+AdvOTbc475f09+fb;font-size:8.97px;font-style:NORMAL;font-weight:normal;">ﬁ</text>
  <text x="165.486,169.404,173.887,178.837,181.724,186.915,190.367,193.254,197.737,200.625,203.046,206.498,209.385,211.806,215.724,220.207,222.628,227.846,230.267,232.688,237.637,242.586,247.802,254.706,259.189,262.641,267.814,270.701,275.65,280.6,285.549,290.498,295.65,298.07,303.019,308.236,311.123,316.072,319.99,325.186" y="642.5070000000001" svg_rhmargin="330.135" style="fill:#171615;font-family:NDDHDM+AdvOTbc475f09;font-size:8.97px;font-style:NORMAL;font-weight:normal;">cant statistical link was found in the 2</text>
  <text x="85.038,89.521,93.44,98.389,103.338,106.226,110.709,115.658,119.576,123.02799999999999,126.309,131.259,134.146,137.421,142.371,146.289,149.176,153.094,156.546,161.496,165.414,169.897,174.38,179.33,182.217,186.13500000000002,189.463,193.382,198.331,205.701,210.651,215.134,218.586,221.007,224.459,229.408,234.357,237.651,240.538,246.976,253.88,257.153,261.636,265.088,268.378,275.282,282.186,285.073,288.389,291.277,298.647,305.085,308.345" y="653.448" svg_rhmargin="311.232" style="fill:#171615;font-family:NDDHDM+AdvOTbc475f09;font-size:8.97px;font-style:NORMAL;font-weight:normal;">genotypes of heterozygote comparison (AG vs GG) (OR (</text>
  <text x="311.244,316.193,321.142" y="653.448" svg_rhmargin="330.108" style="fill:#171615;font-family:NDDHNC+AdvOT638a931c.I;font-size:8.97px;font-style:NORMAL;font-weight:normal;">95%</text>
  <text x="85.038,91.476" y="664.39" svg_rhmargin="94.928" style="fill:#171615;font-family:NDDHNC+AdvOT638a931c.I;font-size:8.97px;font-style:NORMAL;font-weight:normal;">CI</text>
  <text svg_rhmargin="97.846" x="94.959,97.846" y="664.39" style="fill:#171615;font-family:NDDHDM+AdvOTbc475f09;font-size:8.97px;font-style:NORMAL;font-weight:normal;">) </text>
  <text svg_rhmargin="104.998" x="98.928,104.99799999999999" y="664.39" style="fill:#171615;font-family:NDDHDJ+AdvOTb0c9bf5d;font-size:8.97px;font-style:NORMAL;font-weight:normal;">= </text>
  <text x="109.7,114.649,117.07,122.02,126.969,131.918,135.494,138.381,143.331,145.752,150.701,155.651" y="664.39" svg_rhmargin="160.6" style="fill:#171615;font-family:NDDHDM+AdvOTbc475f09;font-size:8.97px;font-style:NORMAL;font-weight:normal;">0.741 (0.406</text>
  <text x="160.611" y="664.39" svg_rhmargin="165.094" style="fill:#171615;font-family:NDDHMC+AdvOTbc475f09+20;font-size:8.97px;font-style:NORMAL;font-weight:normal;">–</text>
  <text svg_rhmargin="192.616" x="165.089,170.039,172.46,177.409,182.358,187.308,190.195,192.61599999999999" y="664.39" style="fill:#171615;font-family:NDDHDM+AdvOTbc475f09;font-size:8.97px;font-style:NORMAL;font-weight:normal;">1.354), </text>
  <text svg_rhmargin="201.163" x="196.214,201.163" y="664.39" style="fill:#171615;font-family:NDDHNC+AdvOT638a931c.I;font-size:8.97px;font-style:NORMAL;font-weight:normal;">p </text>
  <text x="202.28" y="664.39" svg_rhmargin="208.35" style="fill:#171615;font-family:NDDHDJ+AdvOTb0c9bf5d;font-size:8.97px;font-style:NORMAL;font-weight:normal;">=</text>
  <text svg_rhmargin="304.854" x="209.48,214.429,216.85,221.799,226.749,231.698,234.119,237.712,242.661,245.082,249.565,251.986,255.57,260.52,265.935,268.822,272.351,279.255,281.676,284.563,289.512,293.099,295.987,300.936,304.854" y="664.39" style="fill:#171615;font-family:NDDHDM+AdvOTbc475f09;font-size:8.97px;font-style:NORMAL;font-weight:normal;">0.330, Fig. 3B) with the </text>
  <text x="308.466" y="664.39" svg_rhmargin="313.415" style="fill:#171615;font-family:NDDHDN+AdvOTbc475f09+fb;font-size:8.97px;font-style:NORMAL;font-weight:normal;">ﬁ</text>
  <text x="313.398,318.348,322.266,327.215" y="664.39" svg_rhmargin="330.102" style="fill:#171615;font-family:NDDHDM+AdvOTbc475f09;font-size:8.97px;font-style:NORMAL;font-weight:normal;">xed-</text>
  <text x="85.038,88.957,91.844,94.731,98.649,102.567,105.454,108.90599999999999,111.853,119.223,124.173,129.122,133.04,135.46099999999998,138.384" y="675.388" svg_rhmargin="141.271" style="fill:#171615;font-family:NDDHDM+AdvOTbc475f09;font-size:8.97px;font-style:NORMAL;font-weight:normal;">effects model (</text>
  <text svg_rhmargin="146.694" x="141.278,146.69299999999998" y="675.388" style="fill:#171615;font-family:NDDHNC+AdvOT638a931c.I;font-size:8.97px;font-style:NORMAL;font-weight:normal;">P </text>
  <text x="147.854" y="675.388" svg_rhmargin="153.924" style="fill:#171615;font-family:NDDHDJ+AdvOTb0c9bf5d;font-size:8.97px;font-style:NORMAL;font-weight:normal;">=</text>
  <text x="155.054,157.475,162.425,167.374,172.323,174.744,177.674" y="675.388" svg_rhmargin="180.561" style="fill:#171615;font-family:NDDHDM+AdvOTbc475f09;font-size:8.97px;font-style:NORMAL;font-weight:normal;">.964, I</text>
  <text svg_rhmargin="184.279" x="180.567,184.279" y="675.389" style="fill:#171615;font-family:NDDHDM+AdvOTbc475f09;font-size:5.98px;font-style:NORMAL;font-weight:normal;">2 </text>
  <text x="185.386" y="675.389" svg_rhmargin="191.456" style="fill:#171615;font-family:NDDHDJ+AdvOTb0c9bf5d;font-size:8.97px;font-style:NORMAL;font-weight:normal;">=</text>
  <text x="192.586,197.535,206.501,209.388,212.314,216.797,221.747,226.69600000000003,229.605,234.554,239.504,246.874,249.295,254.244,258.727,263.677,266.564,269.516,276.886,281.835,286.785,290.703,293.12399999999997,296.047,298.934,305.372,311.81,316.759,323.197" y="675.389" svg_rhmargin="330.101" style="fill:#171615;font-family:NDDHDM+AdvOTbc475f09;font-size:8.97px;font-style:NORMAL;font-weight:normal;">0%) and dominant model (AA+AG</text>
  <text x="85.039,89.522,92.974,95.413,102.318,109.222,112.109,114.575,117.462,124.833,131.271,133.681" y="686.33" svg_rhmargin="136.568" style="fill:#171615;font-family:NDDHDM+AdvOTbc475f09;font-size:8.97px;font-style:NORMAL;font-weight:normal;">vs GG) (OR (</text>
  <text x="136.629,141.578,146.528,155.494,161.932" y="686.33" svg_rhmargin="165.384" style="fill:#171615;font-family:NDDHNC+AdvOT638a931c.I;font-size:8.97px;font-style:NORMAL;font-weight:normal;">95%CI</text>
  <text svg_rhmargin="168.259" x="165.372,168.25900000000001" y="686.33" style="fill:#171615;font-family:NDDHDM+AdvOTbc475f09;font-size:8.97px;font-style:NORMAL;font-weight:normal;">) </text>
  <text svg_rhmargin="175.467" x="169.397,175.46699999999998" y="686.33" style="fill:#171615;font-family:NDDHDJ+AdvOTb0c9bf5d;font-size:8.97px;font-style:NORMAL;font-weight:normal;">= </text>
  <text x="178.978,183.928,186.349,191.298,196.248,201.197,203.639,206.527,211.476,213.897,218.846,223.796" y="686.33" svg_rhmargin="228.745" style="fill:#171615;font-family:NDDHDM+AdvOTbc475f09;font-size:8.97px;font-style:NORMAL;font-weight:normal;">0.581 (0.329</text>
  <text x="228.755" y="686.33" svg_rhmargin="233.238" style="fill:#171615;font-family:NDDHMC+AdvOTbc475f09+20;font-size:8.97px;font-style:NORMAL;font-weight:normal;">–</text>
  <text svg_rhmargin="260.817" x="233.29,238.239,240.66,245.61,250.559,255.509,258.396,260.817" y="686.33" style="fill:#171615;font-family:NDDHDM+AdvOTbc475f09;font-size:8.97px;font-style:NORMAL;font-weight:normal;">1.025), </text>
  <text svg_rhmargin="268.64" x="263.224,268.639" y="686.33" style="fill:#171615;font-family:NDDHNC+AdvOT638a931c.I;font-size:8.97px;font-style:NORMAL;font-weight:normal;">P </text>
  <text x="269.801" y="686.33" svg_rhmargin="275.871" style="fill:#171615;font-family:NDDHDJ+AdvOTb0c9bf5d;font-size:8.97px;font-style:NORMAL;font-weight:normal;">=</text>
  <text x="277.001,279.422,284.371,289.32,294.27,296.691,299.11,304.059,306.48,310.963,313.384,315.834,320.783,327.221" y="686.33" svg_rhmargin="330.108" style="fill:#171615;font-family:NDDHDM+AdvOTbc475f09;font-size:8.97px;font-style:NORMAL;font-weight:normal;">.061, Fig. 3C)</text>
  <text svg_rhmargin="119.696" x="85.038,91.942,94.363,97.25,102.199,107.941,110.828,115.778,119.69600000000001" y="697.272" style="fill:#171615;font-family:NDDHDM+AdvOTbc475f09;font-size:8.97px;font-style:NORMAL;font-weight:normal;">with the </text>
  <text x="125.46" y="697.272" svg_rhmargin="130.409" style="fill:#171615;font-family:NDDHDN+AdvOTbc475f09+fb;font-size:8.97px;font-style:NORMAL;font-weight:normal;">ﬁ</text>
  <text x="130.392,135.341,139.26,144.209,147.096,151.014,153.902,156.789,160.707,164.625,167.512,170.964,176.766,184.136,189.085,194.035,197.953,200.374,206.132" y="697.272" svg_rhmargin="209.019" style="fill:#171615;font-family:NDDHDM+AdvOTbc475f09;font-size:8.97px;font-style:NORMAL;font-weight:normal;">xed-effects model (</text>
  <text svg_rhmargin="214.441" x="209.025,214.44" y="697.272" style="fill:#171615;font-family:NDDHNC+AdvOT638a931c.I;font-size:8.97px;font-style:NORMAL;font-weight:normal;">P </text>
  <text x="215.545" y="697.272" svg_rhmargin="221.615" style="fill:#171615;font-family:NDDHDJ+AdvOTb0c9bf5d;font-size:8.97px;font-style:NORMAL;font-weight:normal;">=</text>
  <text x="222.745,225.166,230.115,235.065,240.014,242.435,248.143" y="697.272" svg_rhmargin="251.03" style="fill:#171615;font-family:NDDHDM+AdvOTbc475f09;font-size:8.97px;font-style:NORMAL;font-weight:normal;">.708, I</text>
  <text svg_rhmargin="254.748" x="251.036,254.748" y="697.272" style="fill:#171615;font-family:NDDHDM+AdvOTbc475f09;font-size:5.98px;font-style:NORMAL;font-weight:normal;">2 </text>
  <text x="255.912" y="697.272" svg_rhmargin="261.982" style="fill:#171615;font-family:NDDHDJ+AdvOTb0c9bf5d;font-size:8.97px;font-style:NORMAL;font-weight:normal;">=</text>
  <text x="263.112,268.061,277.027,279.915,282.336,288.056,293.938,298.887,302.805,308.522,315.892,319.81,322.697,327.18" y="697.272" svg_rhmargin="330.067" style="fill:#171615;font-family:NDDHDM+AdvOTbc475f09;font-size:8.97px;font-style:NORMAL;font-weight:normal;">0%). The meta-</text>
  <text x="85.038,89.521,94.471,98.954,101.375,105.858,109.31,111.731,115.18299999999999,117.976,121.428,126.377,131.327,138.231,142.149,147.098,149.95,154.433,157.206,160.658,163.545,168.029,170.916,173.337,176.789,179.676,182.097,186.015,190.498,192.91899999999998,195.756,199.208,201.629,206.112,211.061" y="708.2139999999999" svg_rhmargin="213.482" style="fill:#171615;font-family:NDDHDM+AdvOTbc475f09;font-size:8.97px;font-style:NORMAL;font-weight:normal;">analysis showed a statistical signi</text>
  <text x="213.505" y="708.2139999999999" svg_rhmargin="218.454" style="fill:#171615;font-family:NDDHDN+AdvOTbc475f09+fb;font-size:8.97px;font-style:NORMAL;font-weight:normal;">ﬁ</text>
  <text x="218.437,222.355,226.839,231.788,235.706,239.624,242.474,247.423,251.342,254.229,261.133,265.051,268.969,273.918,276.715,279.136,284.086,290.99,294.908,298.36,301.15,307.587,313.002,315.833,319.285,321.706,325.158" y="708.2139999999999" svg_rhmargin="330.107" style="fill:#171615;font-family:NDDHDM+AdvOTbc475f09;font-size:8.97px;font-style:NORMAL;font-weight:normal;">cance between lower RB risk</text>
  <text svg_rhmargin="236.37" x="85.038,89.521,94.471,99.42,102.386,111.353,118.257,127.223,132.172,135.21,138.662,142.114,147.064,152.013,156.962,161.912,166.861,171.81,174.78,179.73,184.679,187.1,191.583,198.953,203.903,207.355,212.304,217.254,219.675,223.127,230.497,233.949,236.37" y="500.036" style="fill:#171615;font-family:NDDHDM+AdvOTbc475f09;font-size:8.97px;font-style:NORMAL;font-weight:normal;">and MDM2 rs937283 polymorphisms. </text>
  <text x="354.047,359.929,364.878,371.508,373.929,378.878,383.361,387.28,390.732,393.619,396.04,400.523,405.006,407.893,411.811,418.561,421.449,426.398,430.31600000000003,436.986,440.438,444.357,446.777,451.261,454.148,456.569,461.518,466.467,469.919,474.869,477.29,482.23900000000003,488.915,493.865,497.783,500.67,507.574,511.493,515.411,520.3599999999999,527.069,532.018,536.968,541.9169999999999,548.555,552.007,555.459,560.408,565.358,570.307,575.256,580.206,585.155" y="500.036" svg_rhmargin="590.104" style="fill:#171615;font-family:NDDHDM+AdvOTbc475f09;font-size:8.97px;font-style:NORMAL;font-weight:normal;">To investigate the relationship between p21 rs1801270</text>
  <text x="345.09,350.039,354.989,357.409,361.893,369.263,374.212,377.664,382.614,387.563,389.984,393.436,400.806,404.258,407.676,412.159,417.109,422.058,425.477,428.929,433.879,437.331,441.249,445.167,450.117,453.004,455.425,460.374,462.795,465.216,467.637,470.524,475.007,478.483,481.37,486.319,489.765,496.202,501.618,504.039,507.509,514.413,518.331,521.738,525.657,530.606,537.976,542.926,545.347,550.296,554.214,559.163,562.613,567.562,571.004,573.891,577.343,579.764,584.247,586.668" y="510.978" svg_rhmargin="590.12" style="fill:#171615;font-family:NDDHDM+AdvOTbc475f09;font-size:8.97px;font-style:NORMAL;font-weight:normal;">polymorphisms and susceptibility to RB, we combined 2 trials</text>
  <text svg_rhmargin="366.088" x="345.09,347.256,350.968,354.681,356.497,360.21,363.923,366.088" y="521.921" style="fill:#171615;font-family:NDDHDM+AdvOTbc475f09;font-size:5.98px;font-style:NORMAL;font-weight:normal;">[20,21] </text>
  <text x="369.014,373.964,378.447,381.899,385.817,390.766,393.675,398.624,403.57300000000004,406.488,411.437,416.387,423.757,428.706,432.625,437.108,441.591,446.54,449.428,453.346,456.263,460.181,465.13,472.501,477.45,481.933,485.385,487.806,491.258,496.207,501.156,504.109,506.997,513.434,519.872,522.761,527.244,530.696,533.646,540.084,546.522,549.409,551.83,554.735,559.684,563.603,566.49,570.408,573.86,578.809,582.728,587.211" y="521.921" svg_rhmargin="590.098" style="fill:#171615;font-family:NDDHDM+AdvOTbc475f09;font-size:8.97px;font-style:NORMAL;font-weight:normal;">based on homozygote comparison (CC vs AA), heterozy-</text>
  <text x="345.089,349.572,354.522,357.409,361.327,363.968,367.886,372.836,380.206,385.155,389.638,393.09,395.511,398.963,403.913,408.862,411.588,414.475,420.913,427.351,430.013,434.496,437.948,440.615,447.052,453.49,456.377,458.798,461.534,466.483,471.433,478.803,481.224,486.173,490.656,495.606,498.493,501.161,508.532,513.481,518.43,522.349,524.7700000000001,527.466,530.353,536.791,543.228,548.178,554.616,561.054,563.748,568.231,571.683,574.35,580.787,587.225" y="532.919" svg_rhmargin="590.112" style="fill:#171615;font-family:NDDHDM+AdvOTbc475f09;font-size:8.97px;font-style:NORMAL;font-weight:normal;">gote comparison (CA vs AA), dominant model (CC+CA vs AA)</text>
  <text x="345.089,349.572,354.522,359.471,361.813,365.265,369.184,373.102,377.02,380.472,383.924,386.345,390.828,394.746,397.132,404.502,409.451,414.401,418.319,420.74,423.096,425.983,432.421,438.859,441.238,445.721,449.173,451.499,457.937,464.374,469.324,475.762,482.199,485.087,487.508,489.878,492.765,497.715,501.633,503.995,508.944,513.893,518.843,521.264,525.182,530.131,532.51,539.88,546.318,549.77,552.126" y="543.861" svg_rhmargin="555.013" style="fill:#171615;font-family:NDDHDM+AdvOTbc475f09;font-size:8.97px;font-style:NORMAL;font-weight:normal;">and recessive model (CC vs CA+AA), the pooled ORs (</text>
  <text x="555.024,559.973,564.922,573.889,580.326,583.779" y="543.861" svg_rhmargin="587.231" style="fill:#171615;font-family:NDDHNC+AdvOT638a931c.I;font-size:8.97px;font-style:NORMAL;font-weight:normal;">95%CIs</text>
  <text x="587.225" y="543.861" svg_rhmargin="590.112" style="fill:#171615;font-family:NDDHDM+AdvOTbc475f09;font-size:8.97px;font-style:NORMAL;font-weight:normal;">)</text>
  <text svg_rhmargin="452.31" x="345.088,351.992,355.911,359.363,363.281,367.482,370.369,375.318,377.739,382.689,387.638,392.587,396.791,399.678,404.627,407.048,411.998,416.947,421.896,424.784,429.733,432.154,437.103,442.053,447.002,449.889,452.31" y="554.803" style="fill:#171615;font-family:NDDHDM+AdvOTbc475f09;font-size:8.97px;font-style:NORMAL;font-weight:normal;">were (1.242 (0.716-2.156), </text>
  <text svg_rhmargin="461.963" x="456.547,461.96200000000005" y="554.803" style="fill:#171615;font-family:NDDHNC+AdvOT638a931c.I;font-size:8.97px;font-style:NORMAL;font-weight:normal;">P </text>
  <text x="463.066" y="554.803" svg_rhmargin="469.136" style="fill:#171615;font-family:NDDHDJ+AdvOTb0c9bf5d;font-size:8.97px;font-style:NORMAL;font-weight:normal;">=</text>
  <text svg_rhmargin="564.28" x="470.266,472.687,477.636,482.586,487.535,489.956,494.19,499.139,501.56,506.043,508.464,512.671,517.621,524.058,526.9449999999999,531.153,538.057,540.478,543.365,548.314,552.526,555.413,560.362,564.28" y="554.803" style="fill:#171615;font-family:NDDHDM+AdvOTbc475f09;font-size:8.97px;font-style:NORMAL;font-weight:normal;">.441, Fig. 4A) with the </text>
  <text x="568.459" y="554.803" svg_rhmargin="573.408" style="fill:#171615;font-family:NDDHDN+AdvOTbc475f09+fb;font-size:8.97px;font-style:NORMAL;font-weight:normal;">ﬁ</text>
  <text x="573.448,578.397,582.315,587.265" y="554.803" svg_rhmargin="590.152" style="fill:#171615;font-family:NDDHDM+AdvOTbc475f09;font-size:8.97px;font-style:NORMAL;font-weight:normal;">xed-</text>
  <text x="345.087,349.006,351.893,354.78,358.698,362.617,365.504,368.956,370.882,378.252,383.201,388.151,392.069,394.49,396.393" y="565.744" svg_rhmargin="399.28" style="fill:#171615;font-family:NDDHDM+AdvOTbc475f09;font-size:8.97px;font-style:NORMAL;font-weight:normal;">effects model (</text>
  <text svg_rhmargin="404.702" x="399.286,404.701" y="565.744" style="fill:#171615;font-family:NDDHNC+AdvOT638a931c.I;font-size:8.97px;font-style:NORMAL;font-weight:normal;">P </text>
  <text x="405.805" y="565.744" svg_rhmargin="411.875" style="fill:#171615;font-family:NDDHDJ+AdvOTb0c9bf5d;font-size:8.97px;font-style:NORMAL;font-weight:normal;">=</text>
  <text x="413.005,415.426,420.376,425.325,430.275,432.69599999999997,434.604" y="565.744" svg_rhmargin="437.491" style="fill:#171615;font-family:NDDHDM+AdvOTbc475f09;font-size:8.97px;font-style:NORMAL;font-weight:normal;">.437, I</text>
  <text svg_rhmargin="441.211" x="437.499,441.211" y="565.745" style="fill:#171615;font-family:NDDHDM+AdvOTbc475f09;font-size:5.98px;font-style:NORMAL;font-weight:normal;">2 </text>
  <text x="442.318" y="565.745" svg_rhmargin="448.388" style="fill:#171615;font-family:NDDHDJ+AdvOTb0c9bf5d;font-size:8.97px;font-style:NORMAL;font-weight:normal;">=</text>
  <text x="449.518,454.467,463.434,466.321,468.742,470.664,473.551,478.501,480.922,485.871,490.82,495.769,497.649,500.536,505.486,507.906,512.856,517.805" y="565.745" svg_rhmargin="522.754" style="fill:#171615;font-family:NDDHDM+AdvOTbc475f09;font-size:8.97px;font-style:NORMAL;font-weight:normal;">0%), (1.077 (0.651</text>
  <text x="522.765" y="565.745" svg_rhmargin="527.248" style="fill:#171615;font-family:NDDHMC+AdvOTbc475f09+20;font-size:8.97px;font-style:NORMAL;font-weight:normal;">–</text>
  <text svg_rhmargin="554.827" x="527.301,532.25,534.671,539.62,544.57,549.519,552.406,554.827" y="565.745" style="fill:#171615;font-family:NDDHDM+AdvOTbc475f09;font-size:8.97px;font-style:NORMAL;font-weight:normal;">1.781), </text>
  <text svg_rhmargin="562.14" x="556.724,562.139" y="565.745" style="fill:#171615;font-family:NDDHNC+AdvOT638a931c.I;font-size:8.97px;font-style:NORMAL;font-weight:normal;">P </text>
  <text x="563.244" y="565.745" svg_rhmargin="569.314" style="fill:#171615;font-family:NDDHDJ+AdvOTb0c9bf5d;font-size:8.97px;font-style:NORMAL;font-weight:normal;">=</text>
  <text x="570.444,572.865,577.814,582.763,587.713" y="565.745" svg_rhmargin="590.134" style="fill:#171615;font-family:NDDHDM+AdvOTbc475f09;font-size:8.97px;font-style:NORMAL;font-weight:normal;">.774,</text>
  <text svg_rhmargin="410.019" x="345.088,350.038,352.459,356.942,359.363,362.152,367.102,372.517,375.404,378.253,385.157,387.578,390.465,395.414,398.265,401.152,406.101,410.019" y="576.7429999999999" style="fill:#171615;font-family:NDDHDM+AdvOTbc475f09;font-size:8.97px;font-style:NORMAL;font-weight:normal;">Fig. 4B) with the </text>
  <text x="412.837" y="576.7429999999999" svg_rhmargin="417.786" style="fill:#171615;font-family:NDDHDN+AdvOTbc475f09+fb;font-size:8.97px;font-style:NORMAL;font-weight:normal;">ﬁ</text>
  <text x="417.769,422.719,426.637,431.586,434.473,438.392,441.279,444.166,448.084,452.003,454.89,458.342,461.251,468.622,473.571,478.52,482.439,484.86,487.67" y="576.7429999999999" svg_rhmargin="490.557" style="fill:#171615;font-family:NDDHDM+AdvOTbc475f09;font-size:8.97px;font-style:NORMAL;font-weight:normal;">xed-effects model (</text>
  <text svg_rhmargin="495.979" x="490.563,495.978" y="576.7429999999999" style="fill:#171615;font-family:NDDHNC+AdvOT638a931c.I;font-size:8.97px;font-style:NORMAL;font-weight:normal;">P </text>
  <text x="497.082" y="576.7429999999999" svg_rhmargin="503.152" style="fill:#171615;font-family:NDDHDJ+AdvOTb0c9bf5d;font-size:8.97px;font-style:NORMAL;font-weight:normal;">=</text>
  <text svg_rhmargin="534.625" x="504.282,506.703,511.653,516.602,521.551,523.9720000000001,526.789,529.676,534.625" y="576.7429999999999" style="fill:#171615;font-family:NDDHDM+AdvOTbc475f09;font-size:8.97px;font-style:NORMAL;font-weight:normal;">.699, I2 </text>
  <text x="535.803" y="576.7429999999999" svg_rhmargin="541.873" style="fill:#171615;font-family:NDDHDJ+AdvOTb0c9bf5d;font-size:8.97px;font-style:NORMAL;font-weight:normal;">=</text>
  <text x="542.947,547.896,556.863,559.75,562.171,564.999,567.887,572.836,575.257,580.206,585.156" y="576.7429999999999" svg_rhmargin="590.105" style="fill:#171615;font-family:NDDHDM+AdvOTbc475f09;font-size:8.97px;font-style:NORMAL;font-weight:normal;">0%), (1.115</text>
  <text x="345.087,347.975,352.924,355.345,360.294,365.244" y="587.685" svg_rhmargin="370.193" style="fill:#171615;font-family:NDDHDM+AdvOTbc475f09;font-size:8.97px;font-style:NORMAL;font-weight:normal;">(0.694</text>
  <text x="370.202" y="587.685" svg_rhmargin="374.685" style="fill:#171615;font-family:NDDHMC+AdvOTbc475f09+20;font-size:8.97px;font-style:NORMAL;font-weight:normal;">–</text>
  <text svg_rhmargin="402.207" x="374.681,379.63,382.051,387.0,391.95,396.899,399.786,402.207" y="587.685" style="fill:#171615;font-family:NDDHDM+AdvOTbc475f09;font-size:8.97px;font-style:NORMAL;font-weight:normal;">1.792), </text>
  <text svg_rhmargin="411.618" x="406.202,411.617" y="587.685" style="fill:#171615;font-family:NDDHNC+AdvOT638a931c.I;font-size:8.97px;font-style:NORMAL;font-weight:normal;">P </text>
  <text x="412.721" y="587.685" svg_rhmargin="418.791" style="fill:#171615;font-family:NDDHDJ+AdvOTb0c9bf5d;font-size:8.97px;font-style:NORMAL;font-weight:normal;">=</text>
  <text svg_rhmargin="512.971" x="419.921,422.342,427.291,432.241,437.19,439.611,443.562,448.511,450.932,455.415,457.836,461.816,466.766,473.203,476.09,480.071,486.975,489.396,492.283,497.232,501.217,504.104,509.053,512.971" y="587.685" style="fill:#171615;font-family:NDDHDM+AdvOTbc475f09;font-size:8.97px;font-style:NORMAL;font-weight:normal;">.654, Fig. 4C) with the </text>
  <text x="516.98" y="587.685" svg_rhmargin="521.929" style="fill:#171615;font-family:NDDHDN+AdvOTbc475f09+fb;font-size:8.97px;font-style:NORMAL;font-weight:normal;">ﬁ</text>
  <text x="521.912,526.861,530.78,535.729,538.616,542.534,545.422,548.309,552.227,556.145,559.032,562.484,566.527,573.898,578.847,583.796,587.715" y="587.685" svg_rhmargin="590.136" style="fill:#171615;font-family:NDDHDM+AdvOTbc475f09;font-size:8.97px;font-style:NORMAL;font-weight:normal;">xed-effects model</text>
  <text x="345.086" y="598.626" svg_rhmargin="347.973" style="fill:#171615;font-family:NDDHDM+AdvOTbc475f09;font-size:8.97px;font-style:NORMAL;font-weight:normal;">(</text>
  <text svg_rhmargin="353.393" x="347.977,353.392" y="598.626" style="fill:#171615;font-family:NDDHNC+AdvOT638a931c.I;font-size:8.97px;font-style:NORMAL;font-weight:normal;">P </text>
  <text x="354.497" y="598.626" svg_rhmargin="360.567" style="fill:#171615;font-family:NDDHDJ+AdvOTb0c9bf5d;font-size:8.97px;font-style:NORMAL;font-weight:normal;">=</text>
  <text x="361.697,364.118,369.067,374.016,378.966,381.387,383.92" y="598.626" svg_rhmargin="386.807" style="fill:#171615;font-family:NDDHDM+AdvOTbc475f09;font-size:8.97px;font-style:NORMAL;font-weight:normal;">.745, I</text>
  <text svg_rhmargin="390.528" x="386.816,390.52799999999996" y="598.627" style="fill:#171615;font-family:NDDHDM+AdvOTbc475f09;font-size:5.98px;font-style:NORMAL;font-weight:normal;">2 </text>
  <text x="391.691" y="598.627" svg_rhmargin="397.761" style="fill:#171615;font-family:NDDHDJ+AdvOTb0c9bf5d;font-size:8.97px;font-style:NORMAL;font-weight:normal;">=</text>
  <text x="398.891,403.841,412.807,415.694,418.223,422.706,427.655,432.604,435.173,438.061,443.01,445.431,450.38,455.33,460.279,462.839,465.726,470.676,473.096,478.046,482.995" y="598.627" svg_rhmargin="487.944" style="fill:#171615;font-family:NDDHDM+AdvOTbc475f09;font-size:8.97px;font-style:NORMAL;font-weight:normal;">0%) and (0.824 (0.323</text>
  <text x="487.956" y="598.627" svg_rhmargin="492.439" style="fill:#171615;font-family:NDDHMC+AdvOTbc475f09+20;font-size:8.97px;font-style:NORMAL;font-weight:normal;">–</text>
  <text svg_rhmargin="519.962" x="492.435,497.384,499.805,504.755,509.704,514.653,517.541,519.9620000000001" y="598.627" style="fill:#171615;font-family:NDDHDM+AdvOTbc475f09;font-size:8.97px;font-style:NORMAL;font-weight:normal;">2.103), </text>
  <text svg_rhmargin="527.955" x="522.539,527.954" y="598.627" style="fill:#171615;font-family:NDDHNC+AdvOT638a931c.I;font-size:8.97px;font-style:NORMAL;font-weight:normal;">P </text>
  <text x="529.116" y="598.627" svg_rhmargin="535.186" style="fill:#171615;font-family:NDDHDJ+AdvOTb0c9bf5d;font-size:8.97px;font-style:NORMAL;font-weight:normal;">=</text>
  <text x="536.259,538.68,543.63,548.579,553.529,555.95,558.539,563.488,565.909,570.392,572.8130000000001,575.376,580.325,587.229" y="598.627" svg_rhmargin="590.116" style="fill:#171615;font-family:NDDHDM+AdvOTbc475f09;font-size:8.97px;font-style:NORMAL;font-weight:normal;">.685, Fig. 4D)</text>
  <text x="345.09,351.994,354.415,357.302,362.25100000000003,364.308,367.195,372.145,376.063,378.198,381.65,386.133,391.083,396.032,400.981,408.352,411.239,415.157,418.044,420.931,424.85,428.768,431.655,435.10699999999997,437.213,444.584,449.533,454.482,458.401,460.822,462.895" y="609.625" svg_rhmargin="465.782" style="fill:#171615;font-family:NDDHDM+AdvOTbc475f09;font-size:8.97px;font-style:NORMAL;font-weight:normal;">with the random-effects model (</text>
  <text svg_rhmargin="471.262" x="465.846,471.261" y="609.625" style="fill:#171615;font-family:NDDHNC+AdvOT638a931c.I;font-size:8.97px;font-style:NORMAL;font-weight:normal;">P </text>
  <text x="472.366" y="609.625" svg_rhmargin="478.436" style="fill:#171615;font-family:NDDHDJ+AdvOTb0c9bf5d;font-size:8.97px;font-style:NORMAL;font-weight:normal;">=</text>
  <text x="479.566,481.986,486.936,491.885,496.835,499.256,501.335" y="609.625" svg_rhmargin="504.222" style="fill:#171615;font-family:NDDHDM+AdvOTbc475f09;font-size:8.97px;font-style:NORMAL;font-weight:normal;">.008, I</text>
  <text svg_rhmargin="507.939" x="504.227,507.93899999999996" y="609.625" style="fill:#171615;font-family:NDDHDM+AdvOTbc475f09;font-size:5.98px;font-style:NORMAL;font-weight:normal;">2 </text>
  <text x="509.046" y="609.625" svg_rhmargin="515.116" style="fill:#171615;font-family:NDDHDJ+AdvOTb0c9bf5d;font-size:8.97px;font-style:NORMAL;font-weight:normal;">=</text>
  <text x="516.245,521.195,526.144,528.565,533.515,542.481,545.368,547.7890000000001,549.92,553.372,557.29,560.742,565.692,569.61,573.528,576.416,578.836,583.32,587.238" y="609.625" svg_rhmargin="590.125" style="fill:#171615;font-family:NDDHDM+AdvOTbc475f09;font-size:8.97px;font-style:NORMAL;font-weight:normal;">85.7%), respective-</text>
  <text x="345.089,347.51,351.993,354.414,360.849,368.219,373.168,379.671,383.123,385.544,390.027,394.976" y="620.567" svg_rhmargin="397.397" style="fill:#171615;font-family:NDDHDM+AdvOTbc475f09;font-size:8.97px;font-style:NORMAL;font-weight:normal;">ly. No signi</text>
  <text x="397.416" y="620.567" svg_rhmargin="402.365" style="fill:#171615;font-family:NDDHDN+AdvOTbc475f09+fb;font-size:8.97px;font-style:NORMAL;font-weight:normal;">ﬁ</text>
  <text x="402.348,406.267,410.75,415.699,418.586,425.081,428.534,431.421,435.904,438.791,441.212,444.664,447.551,449.972,453.89,458.373,460.794,467.316,470.768,474.687,477.108,481.591,484.478,486.899,491.848,496.798,500.25,505.199,507.62,512.569,519.075,524.025,527.943,530.83,537.734,541.652,545.571,550.52,557.058,559.945,564.895,568.813,575.256,580.206,585.155" y="620.567" svg_rhmargin="590.104" style="fill:#171615;font-family:NDDHDM+AdvOTbc475f09;font-size:8.97px;font-style:NORMAL;font-weight:normal;">cant statistical relationship between the p21</text>
  <text x="345.089,348.541,351.993,356.942,361.892,366.841,371.79,376.74,381.689,386.63800000000003,390.214,395.164,400.113,402.534,407.017,414.387,419.337,422.789,427.738,432.688,435.109,438.561,445.931,449.627,452.048,456.997,460.625,467.063,472.478,476.102,479.554,484.503,487.955,491.873,495.792,500.741,503.628,506.049,510.999,513.419,515.84,518.261,521.148,525.631,529.278,536.182,540.665,544.117,547.759,552.709,556.627,559.514,563.433,567.351,570.238,574.156,579.1049999999999,582.738,585.159" y="631.508" svg_rhmargin="590.108" style="fill:#171615;font-family:NDDHDM+AdvOTbc475f09;font-size:8.97px;font-style:NORMAL;font-weight:normal;">rs1801270 polymorphism in RB susceptibility was detected in</text>
  <text x="345.089,349.572,354.521,359.004,364.251,369.2,372.087,377.347,380.234,385.183,389.101,394.411,399.36,404.616,411.986,416.936,421.885,425.803,428.224,431.676,434.097,439.368,446.272,451.221,453.642,457.56,462.509,467.77,470.191,475.14,480.09,482.511,486.429,490.912,493.799,497.718,502.66700000000003,507.964,510.851,515.801,520.284,523.1709999999999,528.486,533.436,538.385,543.334,548.556,552.008,555.46,560.409,565.358,570.308,575.257,580.207,585.156" y="642.506" svg_rhmargin="590.105" style="fill:#171615;font-family:NDDHDM+AdvOTbc475f09;font-size:8.97px;font-style:NORMAL;font-weight:normal;">any of the 4 models, which indicated that p21 rs1801270</text>
  <text x="345.089,350.038,354.987,357.408,361.892,369.262,374.211,377.663,382.613,387.562,389.983,393.435,400.805,402.97,409.874,414.357,417.809,420.034,424.983,429.932,432.819,435.0,437.421,439.842,444.791,449.74,451.894,458.798,461.219,464.106,469.055,471.283,474.17,479.12,483.038,485.229,488.681,491.102,494.554,499.503,501.67,506.619,509.50600000000003,511.704,518.142,523.558,525.979,528.145,534.583,537.003,539.4240000000001,541.637,545.089,549.008,552.46,557.409,559.83,562.717,566.169,568.339,573.288,576.175,578.373,581.26,586.21" y="653.448" svg_rhmargin="590.128" style="fill:#171615;font-family:NDDHDM+AdvOTbc475f09;font-size:8.97px;font-style:NORMAL;font-weight:normal;">polymorphism was not link with the risk of RB. All results of the</text>
  <text x="345.089,349.572,354.521,359.004,361.425,365.908,369.36,371.781,375.233,378.196,385.1,389.018,392.47,396.38800000000003,399.398,402.85,407.8,412.749,419.653,424.60200000000003,427.631,430.052,435.00100000000003,437.949,443.831,448.314,453.264,455.684,459.60200000000003,462.61,467.559" y="664.39" svg_rhmargin="469.98" style="fill:#171615;font-family:NDDHDM+AdvOTbc475f09;font-size:8.97px;font-style:NORMAL;font-weight:normal;">analysis were shown in Table 2.</text>
  <text x="345.089,350.038,352.459,357.408,359.829,364.307,370.279,375.506,382.41,387.359,390.623,393.616,398.565,403.694,408.644,410.787,415.27,419.753,421.896" y="692.056" svg_rhmargin="426.379" style="fill:#171615;font-family:NDDHMB+AdvOT01861455.I;font-size:8.97px;font-style:NORMAL;font-weight:normal;">3.3. Power analysis</text>
  <text x="345.089,354.055,357.973,363.287,367.205,371.688,374.109,378.027,382.977,385.398,389.881,392.768,396.686,401.635,406.996,409.883,414.832,418.75,424.117,427.569,430.456,434.939,437.826,440.247,443.699,446.586,449.007,452.925,457.409,459.83,465.217,470.167,475.116,482.02,485.938,489.39,494.753,499.236,504.186,508.669,511.09,515.573,519.025,521.446,524.898,530.242,533.129,538.078,543.451,546.903,550.821,555.305,558.757,562.209,566.127,569.579,573.031,578.373,581.26,586.21" y="707.986" svg_rhmargin="590.128" style="fill:#171615;font-family:NDDHDM+AdvOTbc475f09;font-size:8.97px;font-style:NORMAL;font-weight:normal;">We calculated the statistical power analysis to reassess the</text>
  <text x="345.089,349.572,354.055,358.538,360.959,363.38,367.863,372.812,375.233,379.151,381.485,386.434,390.917,393.804,398.287,400.647,407.551,412.5,416.418,421.367,423.72,428.203,433.152,435.455,439.938,442.359,447.308,452.258,456.741,459.095,464.045,466.932,469.3,474.249,476.67,481.62,486.569,488.915,495.819,500.303,503.755,506.093,510.576,514.028,517.48,519.901,524.384,529.334,533.252,538.201,540.6220000000001,542.999,549.437,552.889,555.188,558.64,563.589,568.539,575.443,580.3919999999999,582.74,585.161" y="718.928" svg_rhmargin="590.11" style="fill:#171615;font-family:NDDHDM+AdvOTbc475f09;font-size:8.97px;font-style:NORMAL;font-weight:normal;">available data when an alpha of 0.05 was assigned. As shown in</text>
  <path d=" M 85.03900146484375 766.885009765625 L 590.115966796875 766.885009765625 L 590.115966796875 767.6220092773438 L 85.03900146484375 767.6220092773438 Z " style="fill:none;stroke:#000000;stroke-width:1.0;"/>
  <path d=" M 85.03900146484375 328.0249938964844 L 590.115966796875 328.0249938964844 L 590.115966796875 328.7619934082031 L 85.03900146484375 328.7619934082031 Z " style="fill:none;stroke:#000000;stroke-width:1.0;"/>
  <path d="M108.567 40.202 L566.588 40.202 L566.588 452.868 L108.567 452.868 " style="fill:none;stroke:#000000;stroke-width:1.0;"/>
  <rect style="stroke:blue;stroke-width:0.3;" x="108.567" y="40.201" height="412.668" width="458.238" title="3"/>
  <text x="108.567" y="40.201" class="image" id="image.3.1" width="458" height="412">image.3.1.109_567.40_453</text>
  <text svg_rhmargin="281.217" x="251.093,255.45,257.236,261.593,265.868,268.431,272.556,275.076,279.2,281.217" y="463.868" style="fill:#171615;font-family:NDDHKB+AdvOTf94803d4;font-size:7.47px;font-style:NORMAL;font-weight:normal;">Figure 1. </text>
  <text x="284.995,289.119,293.087,296.89799999999997,299.394,303.668,305.999,310.124,313.934,317.745,321.324,324.903,327.399,331.523,333.391,335.902,337.225,341.499,345.309,349.277,351.451,352.773,354.641,358.064,359.386,363.354,367.479,370.029,371.351,375.319,379.13,380.452,384.42,388.693,392.504,396.778,399.337,402.916,405.09,409.058,413.332,414.654,418.465,422.044" y="463.868" svg_rhmargin="424.061" style="fill:#171615;font-family:NDDHCF+AdvOT6e5d2ec0;font-size:7.47px;font-style:NORMAL;font-weight:normal;">The process of identifying included studies.</text>
  <text x="85.039,90.595,94.659,99.058,101.707,105.771,108.09,110.721,114.786,116.197,118.349,120.982,127.533,131.598,136.157,137.568,141.633,143.043,147.276,151.341,153.919,155.824,160.224,164.623,169.023,173.423,175.328,177.956,182.356,186.755,188.907,193.307,197.706,517.041,522.931,528.821,534.711,536.863,543.414,547.973,550.874,552.285,556.685,560.917,563.3,567.532,571.597,573.008,575.16,579.224,583.624" y="9.870999999999981" svg_rhmargin="590.176" style="fill:#171615;font-family:NDDHCF+AdvOT6e5d2ec0;font-size:7.97px;font-style:NORMAL;font-weight:normal;">Cao et al. Medicine (2018) 97:49 www.md-journal.com</text>
  <text x="335.396" y="739.625" svg_rhmargin="339.796" style="fill:#171615;font-family:NDDHKB+AdvOTf94803d4;font-size:7.97px;font-style:NORMAL;font-weight:normal;">3</text>
 </g>
</svg>
