<?xml version="1.0" encoding="UTF-8"?>
<svg height="870.031005859375" width="672.0029907226562" xmlns="http://www.w3.org/2000/svg">
 <g style="fill:none;">
  <path d=" M 0.05999799817800522 826.072021484375 L 22.619997024536133 826.072021484375 L 22.619997024536133 826.35546875 L 0.05999799817800522 826.35546875 Z " style="fill:none;stroke:#000000;stroke-width:1.0;"/>
  <path d=" M 33.67599868774414 837.4110107421875 L 33.959449768066406 837.4110107421875 L 33.959449768066406 860.031005859375 L 33.67599868774414 860.031005859375 Z " style="fill:none;stroke:#000000;stroke-width:1.0;"/>
  <path d=" M 627.9869995117188 837.4110107421875 L 628.2703857421875 837.4110107421875 L 628.2703857421875 860.031005859375 L 627.9869995117188 860.031005859375 Z " style="fill:none;stroke:#000000;stroke-width:1.0;"/>
  <path d=" M 639.3259887695312 826.072021484375 L 662.0029907226562 826.072021484375 L 662.0029907226562 826.35546875 L 639.3259887695312 826.35546875 Z " style="fill:none;stroke:#000000;stroke-width:1.0;"/>
  <path d=" M 639.3259887695312 33.731998443603516 L 662.0029907226562 33.731998443603516 L 662.0029907226562 34.015480041503906 L 639.3259887695312 34.015480041503906 Z " style="fill:none;stroke:#000000;stroke-width:1.0;"/>
  <path d=" M 627.9869995117188 0.0 L 628.2703857421875 0.0 L 628.2703857421875 22.677000045776367 L 627.9869995117188 22.677000045776367 Z " style="fill:none;stroke:#000000;stroke-width:1.0;"/>
  <path d=" M 33.67599868774414 0.0 L 33.959449768066406 0.0 L 33.959449768066406 22.677000045776367 L 33.67599868774414 22.677000045776367 Z " style="fill:none;stroke:#000000;stroke-width:1.0;"/>
  <path d=" M 0.05999799817800522 33.731998443603516 L 22.619997024536133 33.731998443603516 L 22.619997024536133 34.015480041503906 L 0.05999799817800522 34.015480041503906 Z " style="fill:none;stroke:#000000;stroke-width:1.0;"/>
  <path d=" M 71.88700103759766 741.7130126953125 L 576.9639892578125 741.7130126953125 L 576.9639892578125 742.2232666015625 L 71.88700103759766 742.2232666015625 Z " style="fill:none;stroke:#000000;stroke-width:1.0;"/>
  <path d=" M 71.88700103759766 392.0880126953125 L 576.9639892578125 392.0880126953125 L 576.9639892578125 392.5982360839844 L 71.88700103759766 392.5982360839844 Z " style="fill:none;stroke:#000000;stroke-width:1.0;"/>
  <path d=" M 302.8529968261719 729.2410278320312 L 330.9729919433594 729.2410278320312 L 330.9729919433594 729.7512817382812 L 302.8529968261719 729.7512817382812 Z " style="fill:none;stroke:#000000;stroke-width:1.0;"/>
  <path d=" M 336.47198486328125 729.2410278320312 L 378.594970703125 729.2410278320312 L 378.594970703125 729.7512817382812 L 336.47198486328125 729.7512817382812 Z " style="fill:none;stroke:#000000;stroke-width:1.0;"/>
  <path d=" M 71.88700103759766 716.3709716796875 L 144.22698974609375 716.3709716796875 L 144.22698974609375 716.8812255859375 L 71.88700103759766 716.8812255859375 Z " style="fill:none;stroke:#000000;stroke-width:1.0;"/>
  <path d=" M 138.67100524902344 716.3709716796875 L 201.14700317382812 716.3709716796875 L 201.14700317382812 716.8812255859375 L 138.67100524902344 716.8812255859375 Z " style="fill:none;stroke:#000000;stroke-width:1.0;"/>
  <path d=" M 195.64700317382812 716.3709716796875 L 231.02301025390625 716.3709716796875 L 231.02301025390625 716.8812255859375 L 195.64700317382812 716.8812255859375 Z " style="fill:none;stroke:#000000;stroke-width:1.0;"/>
  <path d=" M 225.46800231933594 716.3709716796875 L 268.27099609375 716.3709716796875 L 268.27099609375 716.8812255859375 L 225.46800231933594 716.8812255859375 Z " style="fill:none;stroke:#000000;stroke-width:1.0;"/>
  <path d=" M 262.7149963378906 716.3709716796875 L 302.85400390625 716.3709716796875 L 302.85400390625 716.8812255859375 L 262.7149963378906 716.8812255859375 Z " style="fill:none;stroke:#000000;stroke-width:1.0;"/>
  <path d=" M 319.635009765625 716.3709716796875 L 297.2980041503906 716.3709716796875 L 297.2980041503906 716.8809814453125 L 319.635009765625 716.8809814453125" style="fill:none;stroke:#000000;stroke-width:1.0;"/>
  <path d=" M 314.135009765625 716.3709716796875 L 336.4720153808594 716.3709716796875 L 336.4720153808594 716.8812255859375 L 314.135009765625 716.8812255859375 Z " style="fill:none;stroke:#000000;stroke-width:1.0;"/>
  <path d=" M 330.9729919433594 716.3709716796875 L 360.2829895019531 716.3709716796875 L 360.2829895019531 716.8812255859375 L 330.9729919433594 716.8812255859375 Z " style="fill:none;stroke:#000000;stroke-width:1.0;"/>
  <path d=" M 354.78399658203125 716.3709716796875 L 384.1510009765625 716.3709716796875 L 384.1510009765625 716.8812255859375 L 354.78399658203125 716.8812255859375 Z " style="fill:none;stroke:#000000;stroke-width:1.0;"/>
  <path d=" M 378.5950012207031 716.3709716796875 L 423.4960021972656 716.3709716796875 L 423.4960021972656 716.8812255859375 L 378.5950012207031 716.8812255859375 Z " style="fill:none;stroke:#000000;stroke-width:1.0;"/>
  <path d=" M 417.99700927734375 716.3709716796875 L 483.7040100097656 716.3709716796875 L 483.7040100097656 716.8812255859375 L 417.99700927734375 716.8812255859375 Z " style="fill:none;stroke:#000000;stroke-width:1.0;"/>
  <path d=" M 478.14801025390625 716.3709716796875 L 563.9810180664062 716.3709716796875 L 563.9810180664062 716.8812255859375 L 478.14801025390625 716.8812255859375 Z " style="fill:none;stroke:#000000;stroke-width:1.0;"/>
  <path d=" M 558.4819946289062 716.3709716796875 L 576.9639892578125 716.3709716796875 L 576.9639892578125 716.8812255859375 L 558.4819946289062 716.8812255859375 Z " style="fill:none;stroke:#000000;stroke-width:1.0;"/>
  <path d=" M 71.88700103759766 754.8660278320312 L 110.89199829101562 754.8660278320312 L 110.89199829101562 766.8280029296875 L 71.88700103759766 766.8280029296875 Z " style="fill:none;stroke:#000000;stroke-width:1.0;"/>
  <path d=" M 71.88700103759766 766.6580200195312 L 576.9639892578125 766.6580200195312 L 576.9639892578125 767.1682739257812 L 71.88700103759766 767.1682739257812 Z " style="fill:none;stroke:#000000;stroke-width:1.0;"/>
  <text x="74.891,80.614,86.504,92.641,94.96,100.93799999999999,103.52" y="42.186000000000035" svg_rhmargin="107.92" style="fill:#ffffff;font-family:IDJKEP+AdvOT91f5f621.B;font-size:7.97px;font-style:NORMAL;font-weight:normal;">Table 1</text>
  <text svg_rhmargin="233.054" x="71.887,77.442,82.001,86.233,88.225,92.78399999999999,95.413,99.972,104.619,109.177,112.246,116.805,121.364,124.098,128.577,131.645,133.638,137.87,140.604,142.597,147.156,149.779,154.593,157.159,159.814,162.548,167.194,171.753,174.383,178.942,180.935,182.927,187.741,189.734,194.548,196.54,201.099,203.692,207.924,210.658,215.305,220.119,222.111,226.67,230.902,233.05399999999997" y="67.24400000000003" style="fill:#171615;font-family:IDJKEM+AdvOT34fe1490.B;font-size:7.97px;font-style:NORMAL;font-weight:normal;">Basic characteristic of the eligible studies. </text>
  <text x="305.575,309.807,313.625,317.61,319.93,322.496,326.314,328.219,339.25,343.65,346.216,350.034,351.93899999999996,354.557,358.207,362.025,366.01,369.66,373.311" y="67.24400000000003" svg_rhmargin="375.877" style="fill:#171615;font-family:IDJLFL+AdvOT9d0303c0.B;font-size:7.97px;font-style:NORMAL;font-weight:normal;">Control Oral cancer</text>
  <text x="71.887,75.537,77.442,80.008,83.491,85.81,88.441,92.258,96.243,98.563,102.548,106.366,108.932,144.226,148.29,152.276,156.261,158.166,160.07,163.721,167.538,169.858,171.664,175.482,179.467,182.095,185.578,189.229,193.046,195.612,201.143,205.375,209.193,213.178,217.163,219.483,222.049,225.532,233.174,236.992,239.311,243.296,247.281,249.186,252.836,254.741,257.061,260.544,268.266,272.665,274.57,278.053,280.373,284.19,286.095,289.913,293.898,297.38100000000003,306.363,310.595,322.35,328.24,343.497,347.72900000000004,366.514,372.404,387.547,393.437,397.087,399.407,403.392,407.21,411.195,414.678,423.49,427.722,431.539,435.525,437.844,440.41,444.228,446.133,448.773,454.751,458.569,460.888,464.538,467.105,469.01,472.827,474.732,478.21500000000003,497.471,501.703,505.521,509.004,512.654,515.273,521.25,525.068,527.388,531.038,533.604,535.509,539.327,541.232,544.7149999999999,563.971,568.53,572.929" y="79.207" svg_rhmargin="576.994" style="fill:#171615;font-family:IDJLFL+AdvOT9d0303c0.B;font-size:7.97px;font-style:NORMAL;font-weight:normal;">First author Publication year Country Ethnicity Histology U M U M Methods Control materials Case materials NOS</text>
  <text x="71.887,75.872,79.857,83.674,87.492,90.808,94.626" y="93.54999999999995" svg_rhmargin="98.611" style="fill:#171615;font-family:IDJLGL+AdvOTcb6dfb9e;font-size:7.97px;font-style:NORMAL;font-weight:normal;">RASSF1A</text>
  <text x="79.823,83.474,86.957,90.272,93.755,97.238,99.892,103.208,105.113,107.772,111.088" y="103.52800000000002" svg_rhmargin="112.499" style="fill:#171615;font-family:IDJLGL+AdvOTcb6dfb9e;font-size:7.97px;font-style:NORMAL;font-weight:normal;">Zhang et al</text>
  <text svg_rhmargin="121.061" x="112.479,113.907,116.769,119.632,121.061" y="103.52800000000002" style="fill:#171615;font-family:IDJLGL+AdvOTcb6dfb9e;font-size:5.31px;font-style:NORMAL;font-weight:normal;">[24] </text>
  <text x="162.312,166.13,169.947,173.765,177.583,205.454,209.519,213.002,214.413,217.896,221.212,237.712,241.697,244.766,246.177,249.492,252.975,256.043,274.845,278.663,282.648,286.713,290.778,304.665,308.483,312.301,323.373,327.191,339.928,343.745,347.563,351.381,365.666,369.483,373.301,394.579,399.975,403.793,407.611,429.332,433.317,436.8,438.21,441.526,444.762,448.078,451.561,453.46599999999995,456.09,457.995,459.406,462.474,465.543,469.026,472.342,502.748,506.231,509.714,515.109,518.425,520.577,523.213,525.118,526.528,529.597,532.665,536.148,539.464,568.566" y="103.52800000000002" svg_rhmargin="572.384" style="fill:#171615;font-family:IDJLGL+AdvOTcb6dfb9e;font-size:7.97px;font-style:NORMAL;font-weight:normal;">2014 China Asians SACC 50 0 108 59 MSP Adjacent tissue Tumor tissue 8</text>
  <text x="79.823,83.139,84.55,88.033,90.708,94.024,95.929,98.532,101.847" y="113.50599999999997" svg_rhmargin="103.258" style="fill:#171615;font-family:IDJLGL+AdvOTcb6dfb9e;font-size:7.97px;font-style:NORMAL;font-weight:normal;">Lin et al</text>
  <text svg_rhmargin="111.877" x="103.295,104.723,107.585,110.448,111.877" y="113.50599999999997" style="fill:#171615;font-family:IDJLGL+AdvOTcb6dfb9e;font-size:5.31px;font-style:NORMAL;font-weight:normal;">[25] </text>
  <text x="162.312,166.13,169.947,173.765,177.583,205.454,209.519,213.002,214.413,217.896,221.212,237.712,241.697,244.766,246.177,249.492,252.975,256.043,278.757,282.742,286.807,306.593,310.411,323.374,327.192,341.8,345.618,349.436,365.667,369.485,373.303,394.581,399.977,403.794,407.61199999999997,431.488,435.72,439.035,441.187,446.583,449.899,451.31,453.937,455.842,457.253,460.321,463.39,466.873,470.18899999999996,502.749,506.232,509.715,515.111,518.427,520.5790000000001,523.214,525.119,526.53,529.598,532.667,536.15,539.466,568.568" y="113.50599999999997" svg_rhmargin="572.386" style="fill:#171615;font-family:IDJLGL+AdvOTcb6dfb9e;font-size:7.97px;font-style:NORMAL;font-weight:normal;">2013 China Asians BC 9 0 34 10 MSP Normal tissue Tumor tissue 8</text>
  <text x="79.823,83.641,87.124,90.607,92.018,95.254,97.908,101.223,103.128,105.731,109.047" y="123.48400000000004" svg_rhmargin="110.458" style="fill:#171615;font-family:IDJLGL+AdvOTcb6dfb9e;font-size:7.97px;font-style:NORMAL;font-weight:normal;">Supic et al</text>
  <text svg_rhmargin="119.077" x="110.494,111.923,114.785,117.648,119.077" y="123.48400000000004" style="fill:#171615;font-family:IDJLGL+AdvOTcb6dfb9e;font-size:5.31px;font-style:NORMAL;font-weight:normal;">[26] </text>
  <text x="162.312,166.13,169.947,173.765,177.583,204.604,208.422,211.737,213.889,217.372,218.783,222.099,231.022,235.087,238.402,241.885,245.121,248.437,251.505,252.916,256.232,259.715,262.78299999999996,274.617,279.017,282.835,286.899,290.964,304.664,308.482,312.3,321.502,325.32,329.138,341.798,345.616,349.43399999999997,365.666,369.483,373.301,392.822,396.305,401.701,405.518,409.33599999999996,429.332,433.317,436.8,438.21,441.526,444.762,448.078,451.561,453.46599999999995,456.09,457.995,459.406,462.474,465.543,469.026,472.342,502.747,506.23,509.713,515.109,518.425,520.577,523.213,525.117,526.528,529.597,532.665,536.148,539.464,568.566" y="123.48400000000004" svg_rhmargin="572.384" style="fill:#171615;font-family:IDJLGL+AdvOTcb6dfb9e;font-size:7.97px;font-style:NORMAL;font-weight:normal;">2011 Serbia Caucasians OSCC 82 12 29 18 qMSP Adjacent tissue Tumor tissue 8</text>
  <text x="79.823,83.641,87.12400000000001,89.801,93.117,95.022,97.625,100.94" y="133.40499999999997" svg_rhmargin="102.351" style="fill:#171615;font-family:IDJLGL+AdvOTcb6dfb9e;font-size:7.97px;font-style:NORMAL;font-weight:normal;">Su et al</text>
  <text svg_rhmargin="110.97" x="102.387,103.815,106.678,109.541,110.97" y="133.40499999999997" style="fill:#171615;font-family:IDJLGL+AdvOTcb6dfb9e;font-size:5.31px;font-style:NORMAL;font-weight:normal;">[27] </text>
  <text x="162.312,166.13,169.947,173.765,177.583,205.454,209.519,213.002,214.413,217.896,221.212,237.712,241.697,244.766,246.177,249.492,252.975,256.043,274.619,279.019,282.836,286.901,290.966,304.666,308.484,312.30199999999996,323.374,327.192,341.8,345.617,349.435,365.667,369.485,373.303,392.823,396.306,401.702,405.52,409.33799999999997,429.333,433.318,436.801,438.212,441.528,444.764,448.079,451.562,453.467,456.092,457.996,459.407,462.476,465.544,469.027,472.34299999999996,502.749,506.232,509.715,515.111,518.427,520.5790000000001,523.214,525.119,526.53,529.598,532.667,536.15,539.466,568.568" y="133.40499999999997" svg_rhmargin="572.386" style="fill:#171615;font-family:IDJLGL+AdvOTcb6dfb9e;font-size:7.97px;font-style:NORMAL;font-weight:normal;">2010 China Asians OSCC 33 0 22 11 qMSP Adjacent tissue Tumor tissue 8</text>
  <text x="79.823,84.056,87.539,89.691,91.843,94.506,97.822,99.727,102.386,105.702" y="143.38300000000004" svg_rhmargin="107.113" style="fill:#171615;font-family:IDJLGL+AdvOTcb6dfb9e;font-size:7.97px;font-style:NORMAL;font-weight:normal;">Durr et al</text>
  <text svg_rhmargin="115.675" x="107.093,108.521,111.383,114.246,115.675" y="143.38300000000004" style="fill:#171615;font-family:IDJLGL+AdvOTcb6dfb9e;font-size:5.31px;font-style:NORMAL;font-weight:normal;">[28] </text>
  <text x="162.312,166.13,169.947,173.765,177.583,207.439,211.424,215.242,219.227,231.023,235.088,238.403,241.886,245.122,248.438,251.506,252.917,256.233,259.716,262.784,276.716,280.534,284.766,288.831,304.665,308.483,312.301,323.374,327.192,341.799,345.617,349.435,365.667,369.484,373.30199999999996,392.823,396.306,401.701,405.519,409.337,431.487,435.719,439.035,441.187,446.582,449.898,451.309,453.937,455.841,457.252,460.321,463.389,466.872,470.188,502.748,506.231,509.714,515.11,518.426,520.5780000000001,523.214,525.118,526.529,529.598,532.666,536.149,539.465,568.567" y="143.38300000000004" svg_rhmargin="572.385" style="fill:#171615;font-family:IDJLGL+AdvOTcb6dfb9e;font-size:7.97px;font-style:NORMAL;font-weight:normal;">2010 USA Caucasians SGC 17 0 45 33 qMSP Normal tissue Tumor tissue 6</text>
  <text x="79.823,83.139,86.455,89.771,92.409,95.725,97.63,100.289,103.605" y="153.361" svg_rhmargin="105.016" style="fill:#171615;font-family:IDJLGL+AdvOTcb6dfb9e;font-size:7.97px;font-style:NORMAL;font-weight:normal;">Lee et al</text>
  <text svg_rhmargin="113.577" x="104.995,106.423,109.286,112.148,113.577" y="153.361" style="fill:#171615;font-family:IDJLGL+AdvOTcb6dfb9e;font-size:5.31px;font-style:NORMAL;font-weight:normal;">[29] </text>
  <text x="162.312,166.13,169.947,173.765,177.583,205.341,209.159,212.475,214.627,217.942,221.258,237.712,241.697,244.766,246.177,249.492,252.975,256.043,276.716,280.534,284.766,288.831,304.665,308.483,312.301,323.373,327.191,341.799,345.617,349.435,365.667,369.484,373.30199999999996,394.58,399.976,403.794,407.61199999999997,431.487,435.719,439.035,441.187,446.582,449.898,451.309,453.936,455.841,457.252,460.321,463.389,466.872,470.188,502.748,506.231,509.714,515.11,518.426,520.5780000000001,523.213,525.118,526.529,529.598,532.666,536.149,539.465,568.567" y="153.361" svg_rhmargin="572.385" style="fill:#171615;font-family:IDJLGL+AdvOTcb6dfb9e;font-size:7.97px;font-style:NORMAL;font-weight:normal;">2008 Korea Asians SGC 12 0 45 24 MSP Normal tissue Tumor tissue 8</text>
  <text x="79.823,85.546,88.862,92.345,95.017,98.333,100.238,102.841,106.156" y="163.33900000000006" svg_rhmargin="107.567" style="fill:#171615;font-family:IDJLGL+AdvOTcb6dfb9e;font-size:7.97px;font-style:NORMAL;font-weight:normal;">Wan et al</text>
  <text svg_rhmargin="116.185" x="107.603,109.031,111.894,114.756,116.185" y="163.33900000000006" style="fill:#171615;font-family:IDJLGL+AdvOTcb6dfb9e;font-size:5.31px;font-style:NORMAL;font-weight:normal;">[30] </text>
  <text x="162.312,166.13,169.947,173.765,177.583,205.454,209.519,213.002,214.413,217.896,221.212,237.712,241.697,244.766,246.177,249.492,252.975,256.043,274.619,279.019,282.836,286.901,290.966,304.666,308.484,312.30199999999996,323.374,327.192,341.8,345.617,349.435,365.667,369.485,373.303,394.581,399.977,403.794,407.61199999999997,431.488,435.72,439.035,441.187,446.583,449.899,451.31,453.937,455.842,457.253,460.321,463.39,466.873,470.18899999999996,502.749,506.232,509.715,515.111,518.427,520.5790000000001,523.214,525.119,526.53,529.598,532.667,536.15,539.466,568.568" y="163.33900000000006" svg_rhmargin="572.386" style="fill:#171615;font-family:IDJLGL+AdvOTcb6dfb9e;font-size:7.97px;font-style:NORMAL;font-weight:normal;">2007 China Asians OSCC 10 0 19 13 MSP Normal tissue Tumor tissue 7</text>
  <text x="79.823,85.546,86.957,88.367,89.778,91.189,94.505,99.9,102.968,105.561,108.876,110.781,113.441,116.757" y="173.26" svg_rhmargin="118.168" style="fill:#171615;font-family:IDJLGL+AdvOTcb6dfb9e;font-size:7.97px;font-style:NORMAL;font-weight:normal;">Williams et al</text>
  <text svg_rhmargin="126.787" x="118.205,119.633,122.495,125.358,126.787" y="173.26" style="fill:#171615;font-family:IDJLGL+AdvOTcb6dfb9e;font-size:5.31px;font-style:NORMAL;font-weight:normal;">[31] </text>
  <text x="162.312,166.13,169.947,173.765,177.583,207.439,211.424,215.242,219.227,231.023,235.088,238.403,241.886,245.122,248.438,251.506,252.917,256.233,259.716,262.784,276.716,280.534,284.766,288.831,304.665,308.483,312.301,323.374,327.192,341.799,345.617,349.435,365.667,369.484,373.30199999999996,394.58,399.976,403.794,407.61199999999997,431.487,435.719,439.035,441.187,446.582,449.898,451.309,453.937,455.841,457.252,460.321,463.389,466.872,470.188,502.748,506.231,509.714,515.11,518.426,520.5780000000001,523.214,525.118,526.529,529.598,532.666,536.149,539.465,568.567" y="173.26" svg_rhmargin="572.385" style="fill:#171615;font-family:IDJLGL+AdvOTcb6dfb9e;font-size:7.97px;font-style:NORMAL;font-weight:normal;">2006 USA Caucasians SGC 29 0 79 23 MSP Normal tissue Tumor tissue 6</text>
  <text x="79.823,83.888,87.371,90.687,94.17,97.653,100.289,103.604,105.509,108.169,111.484" y="183.23800000000006" svg_rhmargin="112.895" style="fill:#171615;font-family:IDJLGL+AdvOTcb6dfb9e;font-size:7.97px;font-style:NORMAL;font-weight:normal;">Huang et al</text>
  <text svg_rhmargin="121.458" x="112.876,114.304,117.166,120.029,121.458" y="183.23800000000006" style="fill:#171615;font-family:IDJLGL+AdvOTcb6dfb9e;font-size:5.31px;font-style:NORMAL;font-weight:normal;">[11] </text>
  <text svg_rhmargin="290.966" x="162.312,166.13,169.947,173.765,177.583,205.454,209.519,213.002,214.413,217.896,221.212,237.712,241.697,244.766,246.177,249.492,252.975,256.043,274.619,279.019,282.836,286.901,290.966" y="183.23800000000006" style="fill:#171615;font-family:IDJLGL+AdvOTcb6dfb9e;font-size:7.97px;font-style:NORMAL;font-weight:normal;">2009 China Asians OSCC </text>
  <text svg_rhmargin="327.305" x="306.482,310.46700000000004,323.32,327.305" y="183.23800000000006" style="fill:#171615;font-family:IDJLGM+AdvOTcb6dfb9e+20;font-size:7.97px;font-style:NORMAL;font-weight:normal;">– – </text>
  <text svg_rhmargin="417.979" x="339.932,343.749,347.567,351.385,363.743,367.56,371.378,375.19599999999997,384.152,387.97,392.034,396.02,398.586,402.818,406.883,410.701,413.914,417.979" y="183.23800000000006" style="fill:#171615;font-family:IDJLGL+AdvOTcb6dfb9e;font-size:7.97px;font-style:NORMAL;font-weight:normal;">374 108 PCR-DHPLC </text>
  <text svg_rhmargin="452.824" x="448.839,452.824" y="183.23800000000006" style="fill:#171615;font-family:IDJLGM+AdvOTcb6dfb9e+20;font-size:7.97px;font-style:NORMAL;font-weight:normal;">– </text>
  <text svg_rhmargin="539.471" x="502.754,506.237,509.72,515.116,518.432,520.5840000000001,523.219,525.124,526.535,529.603,532.672,536.155,539.471" y="183.23800000000006" style="fill:#171615;font-family:IDJLGL+AdvOTcb6dfb9e;font-size:7.97px;font-style:NORMAL;font-weight:normal;">Tumor tissue </text>
  <text x="568.518" y="183.23800000000006" svg_rhmargin="572.503" style="fill:#171615;font-family:IDJLGM+AdvOTcb6dfb9e+20;font-size:7.97px;font-style:NORMAL;font-weight:normal;">–</text>
  <text x="79.823,83.306,86.622,88.033,91.348,92.759,94.17,96.831,100.147,102.052,104.711,108.027" y="193.216" svg_rhmargin="109.438" style="fill:#171615;font-family:IDJLGL+AdvOTcb6dfb9e;font-size:7.97px;font-style:NORMAL;font-weight:normal;">Taioli et al</text>
  <text svg_rhmargin="117.999" x="109.417,110.845,113.708,116.57,117.999" y="193.216" style="fill:#171615;font-family:IDJLGL+AdvOTcb6dfb9e;font-size:5.31px;font-style:NORMAL;font-weight:normal;">[12] </text>
  <text svg_rhmargin="288.942" x="162.312,166.13,169.947,173.765,177.583,207.439,211.424,215.242,219.227,231.023,235.088,238.403,241.886,245.122,248.438,251.506,252.917,256.233,259.716,262.784,276.659,281.059,284.877,288.942" y="193.216" style="fill:#171615;font-family:IDJLGL+AdvOTcb6dfb9e;font-size:7.97px;font-style:NORMAL;font-weight:normal;">2009 USA Caucasians OPC </text>
  <text svg_rhmargin="327.305" x="306.482,310.46700000000004,323.32,327.305" y="193.216" style="fill:#171615;font-family:IDJLGM+AdvOTcb6dfb9e+20;font-size:7.97px;font-style:NORMAL;font-weight:normal;">– – </text>
  <text svg_rhmargin="407.615" x="341.802,345.62,349.438,367.54,371.358,394.583,399.979,403.797,407.615" y="193.216" style="fill:#171615;font-family:IDJLGL+AdvOTcb6dfb9e;font-size:7.97px;font-style:NORMAL;font-weight:normal;">48 8 MSP </text>
  <text svg_rhmargin="452.824" x="448.839,452.824" y="193.216" style="fill:#171615;font-family:IDJLGM+AdvOTcb6dfb9e+20;font-size:7.97px;font-style:NORMAL;font-weight:normal;">– </text>
  <text svg_rhmargin="539.471" x="502.754,506.237,509.72,515.116,518.432,520.5840000000001,523.219,525.124,526.535,529.603,532.672,536.155,539.471" y="193.216" style="fill:#171615;font-family:IDJLGL+AdvOTcb6dfb9e;font-size:7.97px;font-style:NORMAL;font-weight:normal;">Tumor tissue </text>
  <text x="568.518" y="193.216" svg_rhmargin="572.503" style="fill:#171615;font-family:IDJLGM+AdvOTcb6dfb9e+20;font-size:7.97px;font-style:NORMAL;font-weight:normal;">–</text>
  <text x="79.823,83.139,84.55,87.193,90.509,92.414,95.074,98.389" y="203.13699999999994" svg_rhmargin="99.8" style="fill:#171615;font-family:IDJLGL+AdvOTcb6dfb9e;font-size:7.97px;font-style:NORMAL;font-weight:normal;">Li et al</text>
  <text svg_rhmargin="108.362" x="99.78,101.208,104.07,106.933,108.36200000000001" y="203.13699999999994" style="fill:#171615;font-family:IDJLGL+AdvOTcb6dfb9e;font-size:5.31px;font-style:NORMAL;font-weight:normal;">[13] </text>
  <text svg_rhmargin="290.778" x="162.312,166.13,169.947,173.765,177.583,205.454,209.519,213.002,214.413,217.896,221.212,237.712,241.697,244.766,246.177,249.492,252.975,256.043,274.845,278.663,282.648,286.713,290.778" y="203.13699999999994" style="fill:#171615;font-family:IDJLGL+AdvOTcb6dfb9e;font-size:7.97px;font-style:NORMAL;font-weight:normal;">2005 China Asians SACC </text>
  <text svg_rhmargin="327.305" x="306.482,310.46700000000004,323.32,327.305" y="203.13699999999994" style="fill:#171615;font-family:IDJLGM+AdvOTcb6dfb9e+20;font-size:7.97px;font-style:NORMAL;font-weight:normal;">– – </text>
  <text svg_rhmargin="407.615" x="341.802,345.62,349.438,365.67,369.488,373.306,394.583,399.979,403.797,407.615" y="203.13699999999994" style="fill:#171615;font-family:IDJLGL+AdvOTcb6dfb9e;font-size:7.97px;font-style:NORMAL;font-weight:normal;">35 25 MSP </text>
  <text svg_rhmargin="452.824" x="448.839,452.824" y="203.13699999999994" style="fill:#171615;font-family:IDJLGM+AdvOTcb6dfb9e+20;font-size:7.97px;font-style:NORMAL;font-weight:normal;">– </text>
  <text svg_rhmargin="539.471" x="502.754,506.237,509.72,515.116,518.432,520.5840000000001,523.219,525.124,526.535,529.603,532.672,536.155,539.471" y="203.13699999999994" style="fill:#171615;font-family:IDJLGL+AdvOTcb6dfb9e;font-size:7.97px;font-style:NORMAL;font-weight:normal;">Tumor tissue </text>
  <text x="568.518" y="203.13699999999994" svg_rhmargin="572.503" style="fill:#171615;font-family:IDJLGM+AdvOTcb6dfb9e+20;font-size:7.97px;font-style:NORMAL;font-weight:normal;">–</text>
  <text x="79.823,83.306,85.458,88.774,92.257,94.903,98.219,100.124,102.783,106.099" y="213.115" svg_rhmargin="107.51" style="fill:#171615;font-family:IDJLGL+AdvOTcb6dfb9e;font-size:7.97px;font-style:NORMAL;font-weight:normal;">Tran et al</text>
  <text svg_rhmargin="116.072" x="107.49,108.918,111.78,114.643,116.072" y="213.115" style="fill:#171615;font-family:IDJLGL+AdvOTcb6dfb9e;font-size:5.31px;font-style:NORMAL;font-weight:normal;">[32] </text>
  <text svg_rhmargin="290.966" x="162.312,166.13,169.947,173.765,177.583,204.888,208.124,211.439,214.922,218.238,221.721,237.712,241.697,244.766,246.177,249.492,252.975,256.043,274.619,279.019,282.836,286.901,290.966" y="213.115" style="fill:#171615;font-family:IDJLGL+AdvOTcb6dfb9e;font-size:7.97px;font-style:NORMAL;font-weight:normal;">2005 Japan Asians OSCC </text>
  <text svg_rhmargin="327.305" x="306.482,310.46700000000004,323.32,327.305" y="213.115" style="fill:#171615;font-family:IDJLGM+AdvOTcb6dfb9e+20;font-size:7.97px;font-style:NORMAL;font-weight:normal;">– – </text>
  <text svg_rhmargin="407.615" x="343.729,347.54699999999997,365.67,369.488,373.306,394.583,399.979,403.797,407.615" y="213.115" style="fill:#171615;font-family:IDJLGL+AdvOTcb6dfb9e;font-size:7.97px;font-style:NORMAL;font-weight:normal;">2 34 MSP </text>
  <text svg_rhmargin="452.824" x="448.839,452.824" y="213.115" style="fill:#171615;font-family:IDJLGM+AdvOTcb6dfb9e+20;font-size:7.97px;font-style:NORMAL;font-weight:normal;">– </text>
  <text svg_rhmargin="539.471" x="502.754,506.237,509.72,515.116,518.432,520.5840000000001,523.219,525.124,526.535,529.603,532.672,536.155,539.471" y="213.115" style="fill:#171615;font-family:IDJLGL+AdvOTcb6dfb9e;font-size:7.97px;font-style:NORMAL;font-weight:normal;">Tumor tissue </text>
  <text x="568.518" y="213.115" svg_rhmargin="572.503" style="fill:#171615;font-family:IDJLGM+AdvOTcb6dfb9e+20;font-size:7.97px;font-style:NORMAL;font-weight:normal;">–</text>
  <text x="71.886,75.871,79.856" y="223.09299999999996" svg_rhmargin="83.841" style="fill:#171615;font-family:IDJLGL+AdvOTcb6dfb9e;font-size:7.97px;font-style:NORMAL;font-weight:normal;">RAR</text>
  <text x="83.792" y="223.09299999999996" svg_rhmargin="88.686" style="fill:#171615;font-family:IDJKFA+AdvP7DA6;font-size:7.97px;font-style:NORMAL;font-weight:normal;">b</text>
  <text x="79.823,84.056,87.371,90.854,94.17,96.075,99.391,102.046,105.362,107.267,109.926,113.242" y="233.07100000000003" svg_rhmargin="114.653" style="fill:#171615;font-family:IDJLGL+AdvOTcb6dfb9e;font-size:7.97px;font-style:NORMAL;font-weight:normal;">Nagata et al</text>
  <text svg_rhmargin="123.215" x="114.633,116.061,118.924,121.786,123.215" y="233.07100000000003" style="fill:#171615;font-family:IDJLGL+AdvOTcb6dfb9e;font-size:5.31px;font-style:NORMAL;font-weight:normal;">[33] </text>
  <text x="162.312,166.13,169.947,173.765,177.583,204.888,208.124,211.439,214.922,218.238,221.721,237.712,241.697,244.766,246.177,249.492,252.975,256.043,274.619,279.019,282.836,286.901,290.966,304.666,308.484,312.30199999999996,323.374,327.192,343.727,347.54499999999996,365.667,369.485,373.303,394.581,399.977,403.794,407.61199999999997,427.632,431.697,435.013,438.328,439.739,441.644,445.127,447.758,451.074,453.226,456.541,457.952,460.627,462.779,464.189,467.672,470.741,474.05699999999996,484.607,488.672,491.988,495.471,498.707,502.022,504.174,506.773,510.256,513.572,515.477,516.888,520.203,523.686,525.591,528.659,531.321,534.636,536.788,540.104,541.515,544.133,546.285,547.696,551.179,554.247,557.563,568.567" y="233.07100000000003" svg_rhmargin="572.385" style="fill:#171615;font-family:IDJLGL+AdvOTcb6dfb9e;font-size:7.97px;font-style:NORMAL;font-weight:normal;">2012 Japan Asians OSCC 22 2 6 28 MSP Health oral rinse Cancer patients oral rinse 7</text>
  <text x="79.823,84.056,87.539,89.691,91.843,94.506,97.822,99.727,102.386,105.702" y="242.99199999999996" svg_rhmargin="107.113" style="fill:#171615;font-family:IDJLGL+AdvOTcb6dfb9e;font-size:7.97px;font-style:NORMAL;font-weight:normal;">Durr et al</text>
  <text svg_rhmargin="115.675" x="107.093,108.521,111.383,114.246,115.675" y="242.99199999999996" style="fill:#171615;font-family:IDJLGL+AdvOTcb6dfb9e;font-size:5.31px;font-style:NORMAL;font-weight:normal;">[28] </text>
  <text x="162.312,166.13,169.947,173.765,177.583,207.439,211.424,215.242,219.227,231.023,235.088,238.403,241.886,245.122,248.438,251.506,252.917,256.233,259.716,262.784,276.716,280.534,284.766,288.831,304.665,308.483,312.301,323.374,327.192,341.799,345.617,349.435,365.667,369.484,373.30199999999996,392.823,396.306,401.701,405.519,409.337,431.487,435.719,439.035,441.187,446.582,449.898,451.309,453.937,455.841,457.252,460.321,463.389,466.872,470.188,502.748,506.231,509.714,515.11,518.426,520.5780000000001,523.214,525.118,526.529,529.598,532.666,536.149,539.465,568.567" y="242.99199999999996" svg_rhmargin="572.385" style="fill:#171615;font-family:IDJLGL+AdvOTcb6dfb9e;font-size:7.97px;font-style:NORMAL;font-weight:normal;">2010 USA Caucasians SGC 17 0 55 23 qMSP Normal tissue Tumor tissue 6</text>
  <text x="79.823,83.139,86.455,89.771,92.409,95.725,97.63,100.289,103.605" y="252.97000000000003" svg_rhmargin="105.016" style="fill:#171615;font-family:IDJLGL+AdvOTcb6dfb9e;font-size:7.97px;font-style:NORMAL;font-weight:normal;">Lee et al</text>
  <text svg_rhmargin="113.577" x="104.995,106.423,109.286,112.148,113.577" y="252.97000000000003" style="fill:#171615;font-family:IDJLGL+AdvOTcb6dfb9e;font-size:5.31px;font-style:NORMAL;font-weight:normal;">[29] </text>
  <text x="162.312,166.13,169.947,173.765,177.583,205.341,209.159,212.475,214.627,217.942,221.258,237.712,241.697,244.766,246.177,249.492,252.975,256.043,276.716,280.534,284.766,288.831,304.665,308.483,312.301,323.373,327.191,341.799,345.617,349.435,365.667,369.484,373.30199999999996,394.58,399.976,403.794,407.61199999999997,431.487,435.719,439.035,441.187,446.582,449.898,451.309,453.936,455.841,457.252,460.321,463.389,466.872,470.188,502.748,506.231,509.714,515.11,518.426,520.5780000000001,523.213,525.118,526.529,529.598,532.666,536.149,539.465,568.567" y="252.97000000000003" svg_rhmargin="572.385" style="fill:#171615;font-family:IDJLGL+AdvOTcb6dfb9e;font-size:7.97px;font-style:NORMAL;font-weight:normal;">2008 Korea Asians SGC 12 0 37 32 MSP Normal tissue Tumor tissue 8</text>
  <text x="79.823,85.546,86.957,88.367,89.778,91.189,94.505,99.9,102.968,105.561,108.876,110.781,113.441,116.757" y="262.948" svg_rhmargin="118.168" style="fill:#171615;font-family:IDJLGL+AdvOTcb6dfb9e;font-size:7.97px;font-style:NORMAL;font-weight:normal;">Williams et al</text>
  <text svg_rhmargin="126.787" x="118.205,119.633,122.495,125.358,126.787" y="262.948" style="fill:#171615;font-family:IDJLGL+AdvOTcb6dfb9e;font-size:5.31px;font-style:NORMAL;font-weight:normal;">[31] </text>
  <text x="162.312,166.13,169.947,173.765,177.583,207.439,211.424,215.242,219.227,231.023,235.088,238.403,241.886,245.122,248.438,251.506,252.917,256.233,259.716,262.784,276.716,280.534,284.766,288.831,304.665,308.483,312.301,323.374,327.192,339.928,343.745,347.563,351.381,365.666,369.484,373.30199999999996,394.579,399.975,403.793,407.611,431.486,435.718,439.034,441.186,446.582,449.897,451.308,453.936,455.841,457.251,460.32,463.388,466.871,470.18699999999995,502.748,506.231,509.714,515.109,518.425,520.577,523.213,525.118,526.528,529.597,532.665,536.148,539.464,568.566" y="262.948" svg_rhmargin="572.384" style="fill:#171615;font-family:IDJLGL+AdvOTcb6dfb9e;font-size:7.97px;font-style:NORMAL;font-weight:normal;">2006 USA Caucasians SGC 29 0 102 10 MSP Normal tissue Tumor tissue 6</text>
  <text x="71.886,75.951,80.183,84.248" y="272.92600000000004" svg_rhmargin="88.066" style="fill:#171615;font-family:IDJLGL+AdvOTcb6dfb9e;font-size:7.97px;font-style:NORMAL;font-weight:normal;">CDH1</text>
  <text x="79.823,85.218,88.534,90.686,94.002,97.485,100.968,102.379,104.993,108.309,110.214,112.873,116.189" y="282.847" svg_rhmargin="117.6" style="fill:#171615;font-family:IDJLGL+AdvOTcb6dfb9e;font-size:7.97px;font-style:NORMAL;font-weight:normal;">Morandi et al</text>
  <text svg_rhmargin="126.163" x="117.581,119.009,121.872,124.734,126.163" y="282.847" style="fill:#171615;font-family:IDJLGL+AdvOTcb6dfb9e;font-size:5.31px;font-style:NORMAL;font-weight:normal;">[34] </text>
  <text x="162.312,166.13,169.947,173.765,177.583,207.836,209.247,211.152,214.467,215.878,218.779,231.023,235.088,238.403,241.886,245.122,248.438,251.506,252.917,256.233,259.716,262.784,274.618,279.018,282.835,286.9,290.965,306.592,310.40999999999997,323.373,327.191,343.726,347.544,367.537,371.35499999999996,394.58,399.976,403.794,407.61199999999997,431.487,435.719,439.035,441.187,446.582,449.898,451.309,453.936,455.841,457.252,460.321,463.389,466.872,470.188,502.748,506.231,509.714,515.11,518.426,520.5780000000001,523.213,525.118,526.529,529.598,532.666,536.149,539.465,568.567" y="282.847" svg_rhmargin="572.385" style="fill:#171615;font-family:IDJLGL+AdvOTcb6dfb9e;font-size:7.97px;font-style:NORMAL;font-weight:normal;">2015 Italy Caucasians OSCC 8 0 7 0 MSP Normal tissue Tumor tissue 6</text>
  <text x="79.823,83.809,86.877,90.193,93.429,96.744,100.227,102.84,106.155,108.06,110.72,114.036" y="292.825" svg_rhmargin="115.447" style="fill:#171615;font-family:IDJLGL+AdvOTcb6dfb9e;font-size:7.97px;font-style:NORMAL;font-weight:normal;">Asokan et al</text>
  <text svg_rhmargin="124.009" x="115.427,116.855,119.717,122.58,124.009" y="292.825" style="fill:#171615;font-family:IDJLGL+AdvOTcb6dfb9e;font-size:5.31px;font-style:NORMAL;font-weight:normal;">[35] </text>
  <text x="162.312,166.13,169.947,173.765,177.583,206.758,208.169,211.652,215.135,216.546,219.862,237.712,241.697,244.766,246.177,249.492,252.975,256.043,274.619,279.019,282.836,286.901,290.966,306.593,310.411,323.374,327.192,343.727,347.54499999999996,367.538,371.356,394.581,399.977,403.794,407.61199999999997,431.488,435.72,439.035,441.187,446.583,449.899,451.31,453.937,455.842,457.253,460.321,463.39,466.873,470.18899999999996,502.749,506.232,509.715,515.111,518.427,520.5790000000001,523.214,525.119,526.53,529.598,532.667,536.15,539.466,568.568" y="292.825" svg_rhmargin="572.386" style="fill:#171615;font-family:IDJLGL+AdvOTcb6dfb9e;font-size:7.97px;font-style:NORMAL;font-weight:normal;">2014 India Asians OSCC 5 0 4 6 MSP Normal tissue Tumor tissue 6</text>
  <text x="79.823,84.056,87.372,90.028,93.343,95.248,97.908,101.223" y="302.803" svg_rhmargin="102.634" style="fill:#171615;font-family:IDJLGL+AdvOTcb6dfb9e;font-size:7.97px;font-style:NORMAL;font-weight:normal;">Ge et al</text>
  <text svg_rhmargin="111.196" x="102.614,104.042,106.905,109.767,111.196" y="302.803" style="fill:#171615;font-family:IDJLGL+AdvOTcb6dfb9e;font-size:5.31px;font-style:NORMAL;font-weight:normal;">[36] </text>
  <text x="162.312,166.13,169.947,173.765,177.583,205.454,209.519,213.002,214.413,217.896,221.212,237.712,241.697,244.766,246.177,249.492,252.975,256.043,274.845,278.663,282.648,286.713,290.778,304.665,308.483,312.301,323.373,327.191,341.799,345.617,349.435,365.667,369.484,373.30199999999996,394.58,399.976,403.794,407.61199999999997,431.487,435.719,439.035,441.187,446.582,449.898,451.309,453.936,455.841,457.252,460.321,463.389,466.872,470.188,502.748,506.231,509.714,515.11,518.426,520.5780000000001,523.213,525.118,526.529,529.598,532.666,536.149,539.465,568.567" y="302.803" svg_rhmargin="572.385" style="fill:#171615;font-family:IDJLGL+AdvOTcb6dfb9e;font-size:7.97px;font-style:NORMAL;font-weight:normal;">2012 China Asians SACC 20 0 28 26 MSP Normal tissue Tumor tissue 8</text>
  <text x="79.823,84.056,87.371,90.854,94.17,96.075,99.391,102.046,105.362,107.267,109.926,113.242" y="312.725" svg_rhmargin="114.653" style="fill:#171615;font-family:IDJLGL+AdvOTcb6dfb9e;font-size:7.97px;font-style:NORMAL;font-weight:normal;">Nagata et al</text>
  <text svg_rhmargin="123.215" x="114.633,116.061,118.924,121.786,123.215" y="312.724" style="fill:#171615;font-family:IDJLGL+AdvOTcb6dfb9e;font-size:5.31px;font-style:NORMAL;font-weight:normal;">[33] </text>
  <text x="162.312,166.13,169.947,173.765,177.583,204.888,208.124,211.439,214.922,218.238,221.721,237.712,241.697,244.766,246.177,249.492,252.975,256.043,274.619,279.019,282.836,286.901,290.966,304.666,308.484,312.30199999999996,323.374,327.192,343.727,347.54499999999996,365.667,369.485,373.303,394.581,399.977,403.794,407.61199999999997,432.622,436.687,440.002,443.318,444.729,446.633,450.116,453.017,455.638,457.79,459.201,462.684,465.752,469.068,484.494,488.894,491.046,494.361,495.772,498.384,501.62,504.935,508.418,511.654,514.97,517.1220000000001,519.757,523.24,526.555,528.46,529.871,533.187,536.67,538.575,541.643,544.248,546.4,547.81,551.293,554.362,557.678,568.569" y="312.724" svg_rhmargin="572.387" style="fill:#171615;font-family:IDJLGL+AdvOTcb6dfb9e;font-size:7.97px;font-style:NORMAL;font-weight:normal;">2012 Japan Asians OSCC 19 5 2 32 MSP Healthy rinse Oral cancer patients rinse 7</text>
  <text x="79.823,83.474,86.95700000000001,89.631,92.946,94.851,97.454,100.77" y="322.702" svg_rhmargin="102.181" style="fill:#171615;font-family:IDJLGL+AdvOTcb6dfb9e;font-size:7.97px;font-style:NORMAL;font-weight:normal;">Xu et al</text>
  <text svg_rhmargin="110.799" x="102.217,103.645,106.508,109.37,110.799" y="322.703" style="fill:#171615;font-family:IDJLGL+AdvOTcb6dfb9e;font-size:5.31px;font-style:NORMAL;font-weight:normal;">[37] </text>
  <text x="162.312,166.13,169.947,173.765,177.583,205.454,209.519,213.002,214.413,217.896,221.212,237.712,241.697,244.766,246.177,249.492,252.975,256.043,278.531,282.93,286.995,304.666,308.484,312.30199999999996,323.374,327.192,341.8,345.618,349.436,365.667,369.485,373.303,394.581,399.977,403.794,407.61199999999997,431.828,435.893,439.208,442.524,443.935,445.84,449.323,452.224,454.844,458.327,459.738,463.054,466.369,469.85200000000003,483.7,488.1,490.252,493.568,494.979,497.59,500.826,504.142,507.625,510.861,514.176,516.3280000000001,518.962,522.445,525.761,527.666,529.076,532.392,535.875,537.78,540.848,543.453,546.936,548.347,551.662,554.978,558.4609999999999,568.568" y="322.703" svg_rhmargin="572.386" style="fill:#171615;font-family:IDJLGL+AdvOTcb6dfb9e;font-size:7.97px;font-style:NORMAL;font-weight:normal;">2012 China Asians OC 48 2 38 22 MSP Healthy blood Oral cancer patients blood 6</text>
  <text x="79.823,83.641,87.124,90.607,92.018,95.254,97.908,101.223,103.128,105.731,109.047" y="332.68" svg_rhmargin="110.458" style="fill:#171615;font-family:IDJLGL+AdvOTcb6dfb9e;font-size:7.97px;font-style:NORMAL;font-weight:normal;">Supic et al</text>
  <text svg_rhmargin="119.077" x="110.494,111.923,114.785,117.648,119.077" y="332.68" style="fill:#171615;font-family:IDJLGL+AdvOTcb6dfb9e;font-size:5.31px;font-style:NORMAL;font-weight:normal;">[26] </text>
  <text x="162.312,166.13,169.947,173.765,177.583,204.604,208.422,211.737,213.889,217.372,218.783,222.099,231.022,235.087,238.402,241.885,245.121,248.437,251.505,252.916,256.232,259.715,262.78299999999996,274.617,279.017,282.835,286.899,290.964,304.664,308.482,312.3,321.502,325.32,329.138,341.798,345.616,349.43399999999997,365.666,369.483,373.301,392.822,396.305,401.701,405.518,409.33599999999996,429.332,433.317,436.8,438.21,441.526,444.762,448.078,451.561,453.46599999999995,456.09,457.995,459.406,462.474,465.543,469.026,472.342,502.747,506.23,509.713,515.109,518.425,520.577,523.213,525.117,526.528,529.597,532.665,536.148,539.464,568.566" y="332.68" svg_rhmargin="572.384" style="fill:#171615;font-family:IDJLGL+AdvOTcb6dfb9e;font-size:7.97px;font-style:NORMAL;font-weight:normal;">2011 Serbia Caucasians OSCC 82 12 27 20 qMSP Adjacent tissue Tumor tissue 8</text>
  <text x="79.823,83.306,86.622,92.018,95.333,98.816,102.299,105.615,109.098,110.509,113.101,116.416,118.321,120.981,124.296" y="342.658" svg_rhmargin="125.707" style="fill:#171615;font-family:IDJLGL+AdvOTcb6dfb9e;font-size:7.97px;font-style:NORMAL;font-weight:normal;">Tamandani et al</text>
  <text svg_rhmargin="134.27" x="125.688,127.116,129.979,132.841,134.27" y="342.658" style="fill:#171615;font-family:IDJLGL+AdvOTcb6dfb9e;font-size:5.31px;font-style:NORMAL;font-weight:normal;">[38] </text>
  <text x="162.312,166.13,169.947,173.765,177.583,208.119,209.53,211.682,214.997,218.48000000000002,231.023,235.088,238.403,241.886,245.122,248.438,251.506,252.917,256.233,259.716,262.784,274.618,279.018,282.835,286.9,290.965,304.665,308.483,312.301,321.503,325.321,329.139,341.799,345.617,349.435,365.667,369.484,373.30199999999996,394.58,399.976,403.794,407.61199999999997,431.487,435.719,439.035,441.187,446.582,449.898,451.309,453.936,455.841,457.252,460.321,463.389,466.872,470.188,502.748,506.231,509.714,515.11,518.426,520.5780000000001,523.213,525.118,526.529,529.598,532.666,536.149,539.465,568.567" y="342.658" svg_rhmargin="572.385" style="fill:#171615;font-family:IDJLGL+AdvOTcb6dfb9e;font-size:7.97px;font-style:NORMAL;font-weight:normal;">2010 Iran Caucasians OSCC 26 31 29 47 MSP Normal tissue Tumor tissue 7</text>
  <text x="79.823,83.641,87.12400000000001,89.801,93.117,95.022,97.625,100.94" y="352.58" svg_rhmargin="102.351" style="fill:#171615;font-family:IDJLGL+AdvOTcb6dfb9e;font-size:7.97px;font-style:NORMAL;font-weight:normal;">Su et al</text>
  <text svg_rhmargin="110.97" x="102.387,103.815,106.678,109.541,110.97" y="352.58" style="fill:#171615;font-family:IDJLGL+AdvOTcb6dfb9e;font-size:5.31px;font-style:NORMAL;font-weight:normal;">[27] </text>
  <text x="162.312,166.13,169.947,173.765,177.583,205.454,209.519,213.002,214.413,217.896,221.212,237.712,241.697,244.766,246.177,249.492,252.975,256.043,274.619,279.019,282.836,286.901,290.966,304.666,308.484,312.30199999999996,323.374,327.192,341.8,345.617,349.435,365.667,369.485,373.303,392.823,396.306,401.702,405.52,409.33799999999997,429.333,433.318,436.801,438.212,441.528,444.764,448.079,451.562,453.467,456.092,457.996,459.407,462.476,465.544,469.027,472.34299999999996,502.749,506.232,509.715,515.111,518.427,520.5790000000001,523.214,525.119,526.53,529.598,532.667,536.15,539.466,568.568" y="352.58" svg_rhmargin="572.386" style="fill:#171615;font-family:IDJLGL+AdvOTcb6dfb9e;font-size:7.97px;font-style:NORMAL;font-weight:normal;">2010 China Asians OSCC 33 0 11 22 qMSP Adjacent tissue Tumor tissue 8</text>
  <text x="79.823,83.474,84.884,87.953,92.6,95.915,99.398,102.714,104.619,108.102,111.417,114.9,117.522,120.838,122.743,125.403,128.718" y="362.557" svg_rhmargin="130.129" style="fill:#171615;font-family:IDJLGL+AdvOTcb6dfb9e;font-size:7.97px;font-style:NORMAL;font-weight:normal;">Viswanathan et al</text>
  <text svg_rhmargin="138.692" x="130.11,131.538,134.401,137.263,138.692" y="362.558" style="fill:#171615;font-family:IDJLGL+AdvOTcb6dfb9e;font-size:5.31px;font-style:NORMAL;font-weight:normal;">[39] </text>
  <text x="162.312,166.13,169.947,173.765,177.583,204.888,208.124,211.439,214.922,218.238,221.721,237.712,241.697,244.766,246.177,249.492,252.975,256.043,274.619,279.019,282.836,286.901,290.966,304.666,308.484,312.30199999999996,323.374,327.192,341.8,345.617,349.435,365.667,369.485,373.303,390.839,394.657,400.052,403.87,407.855,411.338,431.487,435.719,439.035,441.187,446.582,449.898,451.309,453.936,455.841,457.252,460.321,463.389,466.872,470.188,502.748,506.231,509.714,515.11,518.426,520.5780000000001,523.214,525.118,526.529,529.598,532.666,536.149,539.465,568.567" y="362.558" svg_rhmargin="572.385" style="fill:#171615;font-family:IDJLGL+AdvOTcb6dfb9e;font-size:7.97px;font-style:NORMAL;font-weight:normal;">2003 Japan Asians OSCC 25 0 65 34 PMSRE Normal tissue Tumor tissue 6</text>
  <text x="79.823,83.888,87.371,90.687,94.17,97.653,100.289,103.604,105.509,108.169,111.484" y="372.535" svg_rhmargin="112.895" style="fill:#171615;font-family:IDJLGL+AdvOTcb6dfb9e;font-size:7.97px;font-style:NORMAL;font-weight:normal;">Chang et al</text>
  <text svg_rhmargin="121.458" x="112.876,114.304,117.166,120.029,121.458" y="372.535" style="fill:#171615;font-family:IDJLGL+AdvOTcb6dfb9e;font-size:5.31px;font-style:NORMAL;font-weight:normal;">[40] </text>
  <text x="162.312,166.13,169.947,173.765,177.583,205.454,209.519,213.002,214.413,217.896,221.212,237.712,241.697,244.766,246.177,249.492,252.975,256.043,276.83,281.229,284.712,288.777,304.666,308.484,312.30199999999996,323.374,327.192,341.8,345.617,349.435,365.667,369.485,373.303,394.581,399.977,403.794,407.61199999999997,429.333,433.318,436.801,438.212,441.528,444.764,448.079,451.562,453.467,456.092,457.996,459.407,462.476,465.544,469.027,472.34299999999996,502.749,506.232,509.715,515.111,518.427,520.5790000000001,523.214,525.119,526.53,529.598,532.667,536.15,539.466,568.568" y="372.535" svg_rhmargin="572.386" style="fill:#171615;font-family:IDJLGL+AdvOTcb6dfb9e;font-size:7.97px;font-style:NORMAL;font-weight:normal;">2002 China Asians OTC 11 0 25 45 MSP Adjacent tissue Tumor tissue 7</text>
  <text x="79.823,83.888,87.371,90.687,94.17,97.653,100.289,103.604,105.509,108.169,111.484" y="382.513" svg_rhmargin="112.895" style="fill:#171615;font-family:IDJLGL+AdvOTcb6dfb9e;font-size:7.97px;font-style:NORMAL;font-weight:normal;">Huang et al</text>
  <text svg_rhmargin="121.458" x="112.876,114.304,117.166,120.029,121.458" y="382.513" style="fill:#171615;font-family:IDJLGL+AdvOTcb6dfb9e;font-size:5.31px;font-style:NORMAL;font-weight:normal;">[41] </text>
  <text x="162.312,166.13,169.947,173.765,177.583,205.454,209.519,213.002,214.413,217.896,221.212,237.712,241.697,244.766,246.177,249.492,252.975,256.043,274.619,279.019,282.836,286.901,290.966,304.666,308.484,312.30199999999996,323.374,327.192,341.8,345.617,349.435,365.667,369.485,373.303,394.581,399.977,403.794,407.61199999999997,429.333,433.318,436.801,438.212,441.528,444.764,448.079,451.562,453.467,456.092,457.996,459.407,462.476,465.544,469.027,472.34299999999996,502.749,506.232,509.715,515.111,518.427,520.5790000000001,523.214,525.119,526.53,529.598,532.667,536.15,539.466,568.568" y="382.513" svg_rhmargin="572.386" style="fill:#171615;font-family:IDJLGL+AdvOTcb6dfb9e;font-size:7.97px;font-style:NORMAL;font-weight:normal;">2002 China Asians OSCC 40 8 28 20 MSP Adjacent tissue Tumor tissue 7</text>
  <text x="79.823,84.056,87.371,90.607,93.923,96.824,100.139,105.535,108.851,111.457,114.773,116.678,119.337,122.653" y="392.435" svg_rhmargin="124.064" style="fill:#171615;font-family:IDJLGL+AdvOTcb6dfb9e;font-size:7.97px;font-style:NORMAL;font-weight:normal;">Nakayama et al</text>
  <text svg_rhmargin="132.626" x="124.044,125.472,128.335,131.197,132.626" y="392.435" style="fill:#171615;font-family:IDJLGL+AdvOTcb6dfb9e;font-size:5.31px;font-style:NORMAL;font-weight:normal;">[42] </text>
  <text x="162.312,166.13,169.947,173.765,177.583,204.888,208.124,211.439,214.922,218.238,221.721,237.712,241.697,244.766,246.177,249.492,252.975,256.043,274.619,279.019,282.836,286.901,290.966,306.593,310.411,323.374,327.192,343.727,347.54499999999996,365.667,369.485,373.303,394.581,399.977,403.794,407.61199999999997,431.488,435.72,439.035,441.187,446.583,449.899,451.31,453.937,455.842,457.253,460.321,463.39,466.873,470.18899999999996,502.749,506.232,509.715,515.111,518.427,520.5790000000001,523.214,525.119,526.53,529.598,532.667,536.15,539.466,568.568" y="392.435" svg_rhmargin="572.386" style="fill:#171615;font-family:IDJLGL+AdvOTcb6dfb9e;font-size:7.97px;font-style:NORMAL;font-weight:normal;">2001 Japan Asians OSCC 4 1 1 17 MSP Normal tissue Tumor tissue 6</text>
  <text x="79.823,83.641,86.957,88.367,90.272,93.58800000000001,96.207,99.523,101.428,104.087,107.403" y="402.413" svg_rhmargin="108.814" style="fill:#171615;font-family:IDJLGL+AdvOTcb6dfb9e;font-size:7.97px;font-style:NORMAL;font-weight:normal;">Saito et al</text>
  <text svg_rhmargin="117.433" x="108.85,110.278,113.141,116.004,117.433" y="402.413" style="fill:#171615;font-family:IDJLGL+AdvOTcb6dfb9e;font-size:5.31px;font-style:NORMAL;font-weight:normal;">[43] </text>
  <text x="162.312,166.13,169.947,173.765,177.583,204.888,208.124,211.439,214.922,218.238,221.721,237.712,241.697,244.766,246.177,249.492,252.975,256.043,274.619,279.019,282.836,286.901,290.966,304.666,308.484,312.30199999999996,323.374,327.192,341.8,345.617,349.435,367.538,371.356,394.581,399.977,403.794,407.61199999999997,429.333,433.318,436.801,438.212,441.528,444.764,448.079,451.562,453.467,456.092,457.996,459.407,462.476,465.544,469.027,472.34299999999996,502.749,506.232,509.715,515.111,518.427,520.5790000000001,523.214,525.119,526.53,529.598,532.667,536.15,539.466,568.568" y="402.413" svg_rhmargin="572.386" style="fill:#171615;font-family:IDJLGL+AdvOTcb6dfb9e;font-size:7.97px;font-style:NORMAL;font-weight:normal;">1998 Japan Asians OSCC 52 0 43 9 MSP Adjacent tissue Tumor tissue 8</text>
  <text svg_rhmargin="78.93" x="71.887,75.373,78.93" y="418.117" style="fill:#171615;font-family:IDJLGL+AdvOTcb6dfb9e;font-size:6.97px;font-style:NORMAL;font-weight:normal;">BC </text>
  <text x="79.823" y="418.117" svg_rhmargin="84.544" style="fill:#171615;font-family:IDJKGC+AdvOTb0c9bf5d;font-size:6.97px;font-style:NORMAL;font-weight:normal;">=</text>
  <text svg_rhmargin="146.474" x="85.436,88.484,91.531,94.362,97.194,100.095,101.329,103.35,106.181,109.082,110.965,113.796,115.031,118.078,120.979,125.701,128.602,130.269,132.317,135.874,139.577,143.134,146.475" y="418.117" style="fill:#171615;font-family:IDJLGL+AdvOTcb6dfb9e;font-size:6.97px;font-style:NORMAL;font-weight:normal;">buccal carcinoma, CDH1 </text>
  <text x="147.345" y="418.117" svg_rhmargin="152.066" style="fill:#171615;font-family:IDJKGC+AdvOTb0c9bf5d;font-size:6.97px;font-style:NORMAL;font-weight:normal;">=</text>
  <text svg_rhmargin="194.29" x="152.957,156.005,158.25,161.081,163.983,167.03,170.078,172.979,174.952,176.186,179.234,180.901,182.889,187.61,190.95,194.291" y="418.117" style="fill:#171615;font-family:IDJLGL+AdvOTcb6dfb9e;font-size:6.97px;font-style:NORMAL;font-weight:normal;">E-cadherin, MSP </text>
  <text x="195.193" y="418.117" svg_rhmargin="199.914" style="fill:#171615;font-family:IDJKGC+AdvOTb0c9bf5d;font-size:6.97px;font-style:NORMAL;font-weight:normal;">=</text>
  <text x="200.749,205.47,208.372,210.038,213.164,215.702,216.937,219.838,221.505,222.739,225.64,228.688,230.933,233.618,236.666,239.567,242.398" y="418.117" svg_rhmargin="243.632" style="fill:#171615;font-family:IDJLGL+AdvOTcb6dfb9e;font-size:6.97px;font-style:NORMAL;font-weight:normal;">methylation-speci</text>
  <text x="243.722" y="418.117" svg_rhmargin="246.623" style="fill:#171615;font-family:IDJLGN+AdvOTcb6dfb9e+fb;font-size:6.97px;font-style:NORMAL;font-weight:normal;">ﬁ</text>
  <text svg_rhmargin="276.387" x="246.614,249.445,251.433,254.773,258.33,261.818,263.48499999999996,265.493,269.196,273.047,276.38800000000003" y="418.117" style="fill:#171615;font-family:IDJLGL+AdvOTcb6dfb9e;font-size:6.97px;font-style:NORMAL;font-weight:normal;">c PCR, NOS </text>
  <text x="277.285" y="418.117" svg_rhmargin="282.006" style="fill:#171615;font-family:IDJKGC+AdvOTb0c9bf5d;font-size:6.97px;font-style:NORMAL;font-weight:normal;">=</text>
  <text x="282.841,286.544,289.445,293.51,296.342,299.243,302.001,303.668,304.902" y="418.117" svg_rhmargin="307.803" style="fill:#171615;font-family:IDJLGL+AdvOTcb6dfb9e;font-size:6.97px;font-style:NORMAL;font-weight:normal;">Newcastle</text>
  <text x="307.842" y="418.117" svg_rhmargin="311.329" style="fill:#171615;font-family:IDJLGM+AdvOTcb6dfb9e+20;font-size:6.97px;font-style:NORMAL;font-weight:normal;">–</text>
  <text svg_rhmargin="357.364" x="311.301,315.15,316.817,318.484,321.385,325.451,328.35200000000003,330.405,333.09,335.921,338.822,340.056,342.958,344.625,346.617,350.467,353.807,357.36400000000003" y="418.117" style="fill:#171615;font-family:IDJLGL+AdvOTcb6dfb9e;font-size:6.97px;font-style:NORMAL;font-weight:normal;">Ottawa scale, OPC </text>
  <text x="358.243" y="418.117" svg_rhmargin="362.964" style="fill:#171615;font-family:IDJKGC+AdvOTb0c9bf5d;font-size:6.97px;font-style:NORMAL;font-weight:normal;">=</text>
  <text svg_rhmargin="448.793" x="363.855,366.756,368.639,371.54,372.774,374.796,377.698,380.745,383.793,385.794,388.842,391.889,394.79,396.673,399.212,402.259,405.307,408.208,411.109,412.34299999999996,414.365,417.196,420.097,423.145,425.976,428.877,430.76,432.42699999999996,434.489,438.339,441.679,445.236,448.793" y="418.117" style="fill:#171615;font-family:IDJLGL+AdvOTcb6dfb9e;font-size:6.97px;font-style:NORMAL;font-weight:normal;">oral and pharyngeal cancer, OSCC </text>
  <text x="449.688" y="418.117" svg_rhmargin="454.409" style="fill:#171615;font-family:IDJKGC+AdvOTb0c9bf5d;font-size:6.97px;font-style:NORMAL;font-weight:normal;">=</text>
  <text svg_rhmargin="542.908" x="455.301,458.202,460.085,462.986,464.21999999999997,466.242,468.927,471.974,475.022,477.923,482.644,485.545,488.593,491.278,493.282,496.113,499.014,500.249,501.483,503.486,506.317,509.218,511.101,513.933,515.167,518.215,521.116,525.837,528.825,530.4920000000001,532.454,536.303,539.351,542.908" y="418.117" style="fill:#171615;font-family:IDJLGL+AdvOTcb6dfb9e;font-size:6.97px;font-style:NORMAL;font-weight:normal;">oral squamous cell carcinoma, OTC </text>
  <text x="543.798" y="418.117" svg_rhmargin="548.519" style="fill:#171615;font-family:IDJKGC+AdvOTb0c9bf5d;font-size:6.97px;font-style:NORMAL;font-weight:normal;">=</text>
  <text x="549.411,552.312,554.195,557.096,558.33,560.352,562.019,564.92,567.967,571.015,574.062" y="418.117" svg_rhmargin="576.963" style="fill:#171615;font-family:IDJLGL+AdvOTcb6dfb9e;font-size:6.97px;font-style:NORMAL;font-weight:normal;">oral tongue</text>
  <text svg_rhmargin="131.063" x="71.886,74.717,77.618,79.501,82.333,83.567,86.615,89.516,94.237,97.225,98.892,101.307,104.647,108.204,111.691,114.005,117.708,121.265,124.605,127.506,131.063" y="427.074" style="fill:#171615;font-family:IDJLGL+AdvOTcb6dfb9e;font-size:6.97px;font-style:NORMAL;font-weight:normal;">carcinoma, PCR-DHPLC </text>
  <text x="131.981" y="427.074" svg_rhmargin="136.702" style="fill:#171615;font-family:IDJKGC+AdvOTb0c9bf5d;font-size:6.97px;font-style:NORMAL;font-weight:normal;">=</text>
  <text svg_rhmargin="356.265" x="137.537,140.584,143.485,144.793,147.331,152.053,154.954,156.837,159.738,162.423,165.324,167.808,170.64,173.687,176.588,177.823,180.871,183.341,185.224,188.125,191.026,193.858,195.524,196.759,199.66,202.707,205.053,208.1,211.001,214.049,216.95,218.617,221.664,223.547,224.782,227.829,230.877,233.397,236.445,237.679,240.726,243.774,246.266,249.313,252.214,254.097,255.764,258.665,260.548,265.269,268.17,271.218,274.049,276.95,279.485,280.719,281.953,285.001,288.049,289.283,292.331,294.791,297.622,300.67,302.553,305.454,310.175,313.076,314.743,317.644,320.691,322.681,325.582,328.63,331.677,334.216,335.883,338.328,341.668,346.389,349.73,353.217,356.265" y="427.074" style="fill:#171615;font-family:IDJLGL+AdvOTcb6dfb9e;font-size:6.97px;font-style:NORMAL;font-weight:normal;">polymerase chain reaction-denaturing high performance liquid chromatography, PMSRE </text>
  <text x="357.222" y="427.074" svg_rhmargin="361.943" style="fill:#171615;font-family:IDJKGC+AdvOTb0c9bf5d;font-size:6.97px;font-style:NORMAL;font-weight:normal;">=</text>
  <text svg_rhmargin="518.324" x="362.834,366.175,369.731,373.218,375.646,378.693,381.594,384.279,387.18,390.228,392.709,395.61,398.658,401.156,405.877,408.778,410.445,413.493,416.031,417.265,420.167,421.833,423.151,426.052,429.099,431.345,434.03,436.931,439.978,442.663,443.898,445.564,446.799,449.337,452.238,454.726,456.609,459.51,462.265,463.932,465.815,467.049,469.881,471.547,472.782,475.683,478.731,481.199,484.1,487.148,489.54,492.078,496.799,499.701,501.368,503.874,506.922,511.643,514.984,518.325" y="427.074" style="fill:#171615;font-family:IDJLGL+AdvOTcb6dfb9e;font-size:6.97px;font-style:NORMAL;font-weight:normal;">PCR based on methylation-sensitive restriction enzyme, qMSP </text>
  <text x="519.25" y="427.074" svg_rhmargin="523.971" style="fill:#171615;font-family:IDJKGC+AdvOTb0c9bf5d;font-size:6.97px;font-style:NORMAL;font-weight:normal;">=</text>
  <text x="524.863,527.91,530.958,533.859,536.907,538.573,539.808,541.474,544.376,546.042,547.277,549.815,552.716,555.248,557.131,560.032,562.933,564.167,566.413,568.08,569.314,574.035" y="427.074" svg_rhmargin="576.936" style="fill:#171615;font-family:IDJLGL+AdvOTcb6dfb9e;font-size:6.97px;font-style:NORMAL;font-weight:normal;">quantitative real-time</text>
  <text x="71.886,76.607,79.508,81.175,84.223,86.761,87.995,90.896,92.563,93.881,96.782,99.829,102.075,104.76,107.807,110.708,113.54" y="436.031" svg_rhmargin="114.774" style="fill:#171615;font-family:IDJLGL+AdvOTcb6dfb9e;font-size:6.97px;font-style:NORMAL;font-weight:normal;">methylation-speci</text>
  <text x="114.803" y="436.031" svg_rhmargin="117.704" style="fill:#171615;font-family:IDJLGN+AdvOTcb6dfb9e+fb;font-size:6.97px;font-style:NORMAL;font-weight:normal;">ﬁ</text>
  <text x="117.75,120.581,122.92,126.261,129.818,133.305,134.972,137.31,140.797,144.284" y="436.031" svg_rhmargin="147.771" style="fill:#171615;font-family:IDJLGL+AdvOTcb6dfb9e;font-size:6.97px;font-style:NORMAL;font-weight:normal;">c PCR, RAR</text>
  <text svg_rhmargin="152.023" x="147.741,152.02300000000002" y="436.031" style="fill:#171615;font-family:IDJKFA+AdvP7DA6;font-size:6.97px;font-style:NORMAL;font-weight:normal;">b </text>
  <text x="152.9" y="436.031" svg_rhmargin="157.621" style="fill:#171615;font-family:IDJKGC+AdvOTb0c9bf5d;font-size:6.97px;font-style:NORMAL;font-weight:normal;">=</text>
  <text svg_rhmargin="241.842" x="158.513,160.396,163.297,164.964,166.198,169.246,172.232,173.466,176.297,178.581,181.483,184.314,185.548,188.596,190.996,192.879,195.78,198.612,201.513,204.56,206.227,209.128,211.011,213.388,216.436,219.337,221.004,223.905,225.572,227.901,231.241,234.728,238.285,241.84199999999998" y="436.031" style="fill:#171615;font-family:IDJLGL+AdvOTcb6dfb9e;font-size:6.97px;font-style:NORMAL;font-weight:normal;">retinoic acid receptor beta, SACC </text>
  <text x="242.759" y="436.031" svg_rhmargin="247.48" style="fill:#171615;font-family:IDJKGC+AdvOTb0c9bf5d;font-size:6.97px;font-style:NORMAL;font-weight:normal;">=</text>
  <text svg_rhmargin="346.159" x="248.371,251.056,253.957,255.191,256.426,258.964,261.865,263.748,266.287,268.666,271.567,274.614,277.515,280.563,283.464,284.698,287.746,290.094,292.925,295.464,298.149,299.815,301.05,303.88100000000003,306.25,309.081,311.983,313.866,316.697,317.931,320.979,323.88,328.699,331.6,333.267,335.558,338.899,342.602,346.159" y="436.031" style="fill:#171615;font-family:IDJLGL+AdvOTcb6dfb9e;font-size:6.97px;font-style:NORMAL;font-weight:normal;">salivary adenoid cystic carcinoma, SGC </text>
  <text x="347.073" y="436.031" svg_rhmargin="351.794" style="fill:#171615;font-family:IDJKGC+AdvOTb0c9bf5d;font-size:6.97px;font-style:NORMAL;font-weight:normal;">=</text>
  <text x="352.686,355.371,358.272,359.506,360.741,363.279,366.18,368.063,370.602,372.98,376.028,377.262,380.163,383.211,386.259,388.627,391.458,394.359,396.242,399.074,400.308,403.355,406.257,410.978,413.879" y="436.031" svg_rhmargin="415.546" style="fill:#171615;font-family:IDJLGL+AdvOTcb6dfb9e;font-size:6.97px;font-style:NORMAL;font-weight:normal;">salivary gland carcinoma.</text>
  <path d=" M 71.88700103759766 292.364990234375 L 576.9639892578125 292.364990234375 L 576.9639892578125 292.875244140625 L 71.88700103759766 292.875244140625 Z " style="fill:none;stroke:#000000;stroke-width:1.0;"/>
  <path d=" M 71.88700103759766 92.23899841308594 L 576.9639892578125 92.23899841308594 L 576.9639892578125 92.74922180175781 L 71.88700103759766 92.74922180175781 Z " style="fill:none;stroke:#000000;stroke-width:1.0;"/>
  <path d=" M 191.73500061035156 279.95001220703125 L 286.468994140625 279.95001220703125 L 286.468994140625 280.4035339355469 L 191.73500061035156 280.4035339355469 Z " style="fill:none;stroke:#000000;stroke-width:1.0;"/>
  <path d=" M 317.1400146484375 279.95001220703125 L 391.1240234375 279.95001220703125 L 391.1240234375 280.4035339355469 L 317.1400146484375 280.4035339355469 Z " style="fill:none;stroke:#000000;stroke-width:1.0;"/>
  <path d=" M 421.7380065917969 279.95001220703125 L 482.9100036621094 279.95001220703125 L 482.9100036621094 280.4035339355469 L 421.7380065917969 280.4035339355469 Z " style="fill:none;stroke:#000000;stroke-width:1.0;"/>
  <path d=" M 513.5239868164062 280.40301513671875 L 576.9630126953125 280.40301513671875 L 576.9630126953125 279.9490051269531 L 513.5239868164062 279.9490051269531" style="fill:none;stroke:#000000;stroke-width:1.0;"/>
  <path d=" M 71.88700103759766 267.02398681640625 L 153.46800231933594 267.02398681640625 L 153.46800231933594 267.53424072265625 L 71.88700103759766 267.53424072265625 Z " style="fill:none;stroke:#000000;stroke-width:1.0;"/>
  <path d=" M 122.7969970703125 267.02398681640625 L 191.73599243164062 267.02398681640625 L 191.73599243164062 267.53424072265625 L 122.7969970703125 267.53424072265625 Z " style="fill:none;stroke:#000000;stroke-width:1.0;"/>
  <path d=" M 245.82000732421875 267.02398681640625 L 161.0640106201172 267.02398681640625 L 161.0640106201172 267.53399658203125 L 245.82000732421875 267.53399658203125" style="fill:none;stroke:#000000;stroke-width:1.0;"/>
  <path d=" M 215.14999389648438 267.02398681640625 L 317.1409912109375 267.02398681640625 L 317.1409912109375 267.53424072265625 L 215.14999389648438 267.53424072265625 Z " style="fill:none;stroke:#000000;stroke-width:1.0;"/>
  <path d=" M 286.468994140625 267.02398681640625 L 372.302001953125 267.02398681640625 L 372.302001953125 267.53424072265625 L 286.468994140625 267.53424072265625 Z " style="fill:none;stroke:#000000;stroke-width:1.0;"/>
  <path d=" M 341.6310119628906 267.02398681640625 L 421.7380065917969 267.02398681640625 L 421.7380065917969 267.53424072265625 L 341.6310119628906 267.53424072265625 Z " style="fill:none;stroke:#000000;stroke-width:1.0;"/>
  <path d=" M 391.1239929199219 267.02398681640625 L 465.73199462890625 267.02398681640625 L 465.73199462890625 267.53424072265625 L 391.1239929199219 267.53424072265625 Z " style="fill:none;stroke:#000000;stroke-width:1.0;"/>
  <path d=" M 435.1180114746094 267.02398681640625 L 513.5239868164062 267.02398681640625 L 513.5239868164062 267.53424072265625 L 435.1180114746094 267.53424072265625 Z " style="fill:none;stroke:#000000;stroke-width:1.0;"/>
  <path d=" M 482.9100036621094 267.02398681640625 L 563.6409912109375 267.02398681640625 L 563.6409912109375 267.53424072265625 L 482.9100036621094 267.53424072265625 Z " style="fill:none;stroke:#000000;stroke-width:1.0;"/>
  <path d=" M 533.0269775390625 267.02398681640625 L 576.9639892578125 267.02398681640625 L 576.9639892578125 267.53424072265625 L 533.0269775390625 267.53424072265625 Z " style="fill:none;stroke:#000000;stroke-width:1.0;"/>
  <path d=" M 71.88700103759766 305.51800537109375 L 112.98899841308594 305.51800537109375 L 112.98899841308594 317.4800109863281 L 71.88700103759766 317.4800109863281 Z " style="fill:none;stroke:#000000;stroke-width:1.0;"/>
  <path d=" M 71.88700103759766 317.36700439453125 L 576.9639892578125 317.36700439453125 L 576.9639892578125 317.8772277832031 L 71.88700103759766 317.8772277832031 Z " style="fill:none;stroke:#000000;stroke-width:1.0;"/>
  <text x="74.891,80.614,86.504,92.641,94.96,100.93799999999999,103.52" y="491.477" svg_rhmargin="109.992" style="fill:#ffffff;font-family:IDJKEP+AdvOT91f5f621.B;font-size:7.97px;font-style:NORMAL;font-weight:normal;">Table 2</text>
  <text svg_rhmargin="246.662" x="71.887,77.027,81.674,86.488,91.302,94.37,99.184,103.831,108.64500000000001,111.23,115.789,120.435,124.994,126.987,131.052,135.284,137.276,141.508,144.11,148.924,151.49,154.088,156.822,161.468,166.027,168.658,173.216,177.449,181.681,186.495,191.054,193.046,197.605,200.339,202.332,207.146,211.79299999999998,214.407,219.221,223.78,226.514,232.986,237.545,242.015,246.66199999999998" y="503.553" style="fill:#171615;font-family:IDJKEM+AdvOT34fe1490.B;font-size:7.97px;font-style:NORMAL;font-weight:normal;">Subgroup analysis of the association between </text>
  <text x="249.336,255.058,260.454,265.595,270.736,275.382,279.782" y="503.553" svg_rhmargin="285.178" style="fill:#171615;font-family:IDJLGO+AdvOT6601a1b9.BI;font-size:7.97px;font-style:NORMAL;font-weight:normal;">RASSF1A</text>
  <text svg_rhmargin="287.261" x="285.109,287.26099999999997" y="503.553" style="fill:#171615;font-family:IDJKEM+AdvOT34fe1490.B;font-size:7.97px;font-style:NORMAL;font-weight:normal;">, </text>
  <text x="289.928,295.651,301.046" y="503.553" svg_rhmargin="306.769" style="fill:#171615;font-family:IDJLGO+AdvOT6601a1b9.BI;font-size:7.97px;font-style:NORMAL;font-weight:normal;">RAR</text>
  <text x="306.709" y="503.553" svg_rhmargin="311.356" style="fill:#171615;font-family:IDJLHP+AdvP45BFC3;font-size:7.97px;font-style:NORMAL;font-weight:normal;">b</text>
  <text svg_rhmargin="330.197" x="311.358,313.51,316.177,320.736,325.383,330.197" y="503.553" style="fill:#171615;font-family:IDJKEM+AdvOT34fe1490.B;font-size:7.97px;font-style:NORMAL;font-weight:normal;">, and </text>
  <text svg_rhmargin="354.859" x="332.789,338.679,344.569,350.459,354.858" y="503.553" style="fill:#171615;font-family:IDJLGO+AdvOT6601a1b9.BI;font-size:7.97px;font-style:NORMAL;font-weight:normal;">CDH1 </text>
  <text x="357.45,362.264,365.333,370.147,377.28,382.094,384.828,389.387,392.455,395.092,402.226,406.785,409.518,414.165,418.23,420.222,424.685,427.419,429.411,434.225,438.872,441.522,446.081,450.728,455.54200000000003,458.133,462.947,466.015,470.574,472.567,475.197,479.756,484.315,488.961,493.52,498.079,501.148" y="503.553" svg_rhmargin="503.3" style="fill:#171615;font-family:IDJKEM+AdvOT34fe1490.B;font-size:7.97px;font-style:NORMAL;font-weight:normal;">promoter methylation and oral cancer.</text>
  <text x="207.1,210.918,214.568,218.051,220.36999999999998,222.974,226.791,229.10999999999999,231.761,235.578,239.061,242.544,246.362,250.012,251.917,255.735,258.054,259.959,263.777,267.762,271.245,332.502,336.902,340.552,342.872,346.522,349.088,352.906,356.891,360.542,364.419,368.069,369.974,372.294,375.777,437.156,441.555,445.206,449.191,453.176,455.75,458.07,461.72,465.203,467.522,529.054,532.872,536.857,540.842,544.492,547.058,549.69,552.009,555.659,559.142" y="516.592" svg_rhmargin="561.461" style="fill:#171615;font-family:IDJLFL+AdvOT9d0303c0.B;font-size:7.97px;font-style:NORMAL;font-weight:normal;">Test of associations Heterogeneity Begg test Egger test</text>
  <text svg_rhmargin="276.193" x="71.887,75.952,79.77,82.336,84.241,88.059,92.044,93.949,97.599,101.08200000000001,154.998,159.557,199.049,203.448,207.847,256.195,260.013,263.83,269.967,274.2,276.193" y="528.5550000000001" style="fill:#171615;font-family:IDJLFL+AdvOT9d0303c0.B;font-size:7.97px;font-style:NORMAL;font-weight:normal;">Variables N OR 95%CI </text>
  <text x="327.006" y="528.5550000000001" svg_rhmargin="328.999" style="fill:#171615;font-family:IDJLIA+AdvOT1ae6bdaa.BI;font-size:7.97px;font-style:NORMAL;font-weight:normal;">I</text>
  <text svg_rhmargin="331.852" x="328.989,331.852" y="528.554" style="fill:#171615;font-family:IDJLFL+AdvOT9d0303c0.B;font-size:5.31px;font-style:NORMAL;font-weight:normal;">2 </text>
  <text x="379.672,383.737,426.501,430.31899999999996,472.309,476.374,522.143,524.462,568.291" y="528.554" svg_rhmargin="572.356" style="fill:#171615;font-family:IDJLIA+AdvOT1ae6bdaa.BI;font-size:7.97px;font-style:NORMAL;font-weight:normal;">P Z P t P</text>
  <text x="71.885,75.871,79.856,83.673,87.491,90.807,94.624" y="542.898" svg_rhmargin="98.609" style="fill:#171615;font-family:IDJLGL+AdvOTcb6dfb9e;font-size:7.97px;font-style:NORMAL;font-weight:normal;">RASSF1A</text>
  <text x="79.822,83.305,86.621,88.526,91.841,93.252,157.265,161.083,194.852,198.67,202.488,204.392,208.21,212.02800000000002,245.818,249.636,251.541,255.359" y="552.875" svg_rhmargin="259.177" style="fill:#171615;font-family:IDJLGL+AdvOTcb6dfb9e;font-size:7.97px;font-style:NORMAL;font-weight:normal;">Total 7 11.80 6.14</text>
  <text x="259.142" y="552.875" svg_rhmargin="263.127" style="fill:#171615;font-family:IDJLGM+AdvOTcb6dfb9e+20;font-size:7.97px;font-style:NORMAL;font-weight:normal;">–</text>
  <text x="263.111,266.928,270.746,272.651,276.469,280.287,317.988,321.806,325.624,327.529,331.347,337.06899999999996,373.15,376.968,378.873,382.691,386.508,390.32599999999996,421.736,425.553,427.458,431.276,435.094,465.729,469.547,471.451,475.269,479.087,482.905,519.643,523.461,525.366,529.184,533.002,563.636,565.541,569.359,573.177" y="552.875" svg_rhmargin="576.995" style="fill:#171615;font-family:IDJLGL+AdvOTcb6dfb9e;font-size:7.97px;font-style:NORMAL;font-weight:normal;">22.66 12.0% 0.337 0.37 0.711 4.17 .006</text>
  <text x="79.821,83.807,86.875,88.286,91.601,95.084,98.152,157.263,161.08100000000002,194.851,198.668,202.486,204.391,208.209,212.02700000000002,245.817,249.634,251.539,255.357" y="562.797" svg_rhmargin="259.175" style="fill:#171615;font-family:IDJLGL+AdvOTcb6dfb9e;font-size:7.97px;font-style:NORMAL;font-weight:normal;">Asians 5 22.99 6.41</text>
  <text x="259.141" y="562.797" svg_rhmargin="263.126" style="fill:#171615;font-family:IDJLGM+AdvOTcb6dfb9e+20;font-size:7.97px;font-style:NORMAL;font-weight:normal;">–</text>
  <text svg_rhmargin="482.904" x="263.11,266.927,270.745,272.65,276.468,280.286,321.786,325.604,327.509,331.327,335.144,340.866,373.149,376.967,378.872,382.69,386.507,390.325,421.735,425.553,427.458,431.275,435.09299999999996,465.728,469.546,471.451,475.268,479.086,482.904" y="562.797" style="fill:#171615;font-family:IDJLGL+AdvOTcb6dfb9e;font-size:7.97px;font-style:NORMAL;font-weight:normal;">82.43 0.00% 0.821 1.22 0.221 </text>
  <text x="513.523" y="562.797" svg_rhmargin="519.66" style="fill:#171615;font-family:IDJLIB+AdvP4C4E74;font-size:7.97px;font-style:NORMAL;font-weight:normal;">?</text>
  <text x="519.646,523.463,525.368,529.186,533.004,563.639,565.544,569.362,573.179" y="562.797" svg_rhmargin="576.997" style="fill:#171615;font-family:IDJLGL+AdvOTcb6dfb9e;font-size:7.97px;font-style:NORMAL;font-weight:normal;">2.55 .084</text>
  <text x="79.821,83.885,87.201,90.684,93.92,97.235,100.304,101.715,105.03,108.513,111.581,157.262,161.08,198.648,202.466,204.371,208.189,212.007,245.817,249.634,251.539,255.357" y="572.775" svg_rhmargin="259.175" style="fill:#171615;font-family:IDJLGL+AdvOTcb6dfb9e;font-size:7.97px;font-style:NORMAL;font-weight:normal;">Caucasians 2 7.24 3.35</text>
  <text x="259.141" y="572.775" svg_rhmargin="263.126" style="fill:#171615;font-family:IDJLGM+AdvOTcb6dfb9e+20;font-size:7.97px;font-style:NORMAL;font-weight:normal;">–</text>
  <text x="263.109,266.927,270.744,272.649,276.467,280.28499999999997,317.987,321.805,325.622,327.527,331.345,337.067,373.149,376.966,378.871,382.689,386.507,390.325,421.734,425.552,427.457,431.274,435.092,465.727,469.545,471.45,475.267,479.085,482.90299999999996,519.642,523.459,525.364,529.182,533.0,563.635,565.54,569.357,573.175" y="572.775" svg_rhmargin="576.993" style="fill:#171615;font-family:IDJLGL+AdvOTcb6dfb9e;font-size:7.97px;font-style:NORMAL;font-weight:normal;">15.62 25.2% 0.263 1.04 0.296 7.82 .081</text>
  <text x="79.82,84.052,87.368,89.52,94.915,98.231,99.642,102.269,104.174,105.585,108.654,111.722,115.205,118.521,157.261,161.079,194.849,198.667,202.484,204.389,208.207,212.025,245.815,249.633,251.538,255.355" y="582.7529999999999" svg_rhmargin="259.173" style="fill:#171615;font-family:IDJLGL+AdvOTcb6dfb9e;font-size:7.97px;font-style:NORMAL;font-weight:normal;">Normal tissue 5 22.80 6.43</text>
  <text x="259.14" y="582.7529999999999" svg_rhmargin="263.125" style="fill:#171615;font-family:IDJLGM+AdvOTcb6dfb9e+20;font-size:7.97px;font-style:NORMAL;font-weight:normal;">–</text>
  <text svg_rhmargin="482.902" x="263.108,266.926,270.743,272.648,276.466,280.284,321.785,325.602,327.507,331.325,335.143,340.86499999999995,373.148,376.965,378.87,382.688,386.506,390.32399999999996,421.733,425.551,427.456,431.274,435.092,465.726,469.544,471.449,475.267,479.084,482.902" y="582.7529999999999" style="fill:#171615;font-family:IDJLGL+AdvOTcb6dfb9e;font-size:7.97px;font-style:NORMAL;font-weight:normal;">80.88 0.00% 0.851 1.22 0.221 </text>
  <text x="513.521" y="582.7529999999999" svg_rhmargin="519.658" style="fill:#171615;font-family:IDJLIB+AdvP4C4E74;font-size:7.97px;font-style:NORMAL;font-weight:normal;">?</text>
  <text x="519.644,523.462,525.367,529.184,533.002,563.637,565.542,569.36,573.178" y="582.7529999999999" svg_rhmargin="576.996" style="fill:#171615;font-family:IDJLGL+AdvOTcb6dfb9e;font-size:7.97px;font-style:NORMAL;font-weight:normal;">1.96 .145</text>
  <text x="79.819,83.804,87.287,88.698,92.013,95.249,98.565,102.048,103.953,106.577,108.482,109.893,112.961,116.03,119.513,122.82900000000001,157.261,161.079,198.647,202.464,204.369,208.187,212.00500000000002,245.815,249.633,251.538,255.355" y="592.73" svg_rhmargin="259.173" style="fill:#171615;font-family:IDJLGL+AdvOTcb6dfb9e;font-size:7.97px;font-style:NORMAL;font-weight:normal;">Adjacent tissue 2 6.82 3.20</text>
  <text x="259.139" y="592.73" svg_rhmargin="263.124" style="fill:#171615;font-family:IDJLGM+AdvOTcb6dfb9e+20;font-size:7.97px;font-style:NORMAL;font-weight:normal;">–</text>
  <text x="263.107,266.925,270.743,272.648,276.465,280.28299999999996,317.985,321.803,325.621,327.526,331.343,337.065,373.147,376.965,378.87,382.687,386.505,390.323,421.732,425.55,427.455,431.273,435.091,465.726,469.543,471.448,475.266,479.084,519.64,523.458,525.363,529.18,532.9979999999999,563.633,565.538,569.356,573.174" y="592.73" svg_rhmargin="576.992" style="fill:#171615;font-family:IDJLGL+AdvOTcb6dfb9e;font-size:7.97px;font-style:NORMAL;font-weight:normal;">14.53 24.1% 0.268 0.00 1.00 7.51 .084</text>
  <text x="79.818,84.218,88.035,92.1,96.16499999999999,157.261,161.079,198.647,202.464,204.369,208.187,212.00500000000002,245.815,249.633,251.538,255.355" y="602.652" svg_rhmargin="259.173" style="fill:#171615;font-family:IDJLGL+AdvOTcb6dfb9e;font-size:7.97px;font-style:NORMAL;font-weight:normal;">OSCC 2 6.78 3.20</text>
  <text x="259.138" y="602.652" svg_rhmargin="263.123" style="fill:#171615;font-family:IDJLGM+AdvOTcb6dfb9e+20;font-size:7.97px;font-style:NORMAL;font-weight:normal;">–</text>
  <text x="263.106,266.924,270.742,272.647,276.464,280.282,317.984,321.802,325.62,327.525,331.342,337.06399999999996,373.146,376.964,378.869,382.686,386.504,390.322,421.732,425.549,427.454,431.272,435.09,465.725,469.542,471.447,475.265,479.08299999999997,519.639,523.457,525.362,529.18,532.9979999999999,563.632,565.537,569.355,573.173" y="602.652" svg_rhmargin="576.991" style="fill:#171615;font-family:IDJLGL+AdvOTcb6dfb9e;font-size:7.97px;font-style:NORMAL;font-weight:normal;">14.37 24.8% 0.264 0.00 1.00 3.46 .179</text>
  <text x="79.817,83.635,87.867,91.932,157.26,161.078,194.847,198.665,202.483,204.388,208.205,212.02300000000002,245.813,249.631,251.536,255.354" y="612.63" svg_rhmargin="259.172" style="fill:#171615;font-family:IDJLGL+AdvOTcb6dfb9e;font-size:7.97px;font-style:NORMAL;font-weight:normal;">SGC 3 18.51 3.58</text>
  <text x="259.137" y="612.63" svg_rhmargin="263.122" style="fill:#171615;font-family:IDJLGM+AdvOTcb6dfb9e+20;font-size:7.97px;font-style:NORMAL;font-weight:normal;">–</text>
  <text svg_rhmargin="479.082" x="263.106,266.923,270.741,272.646,276.464,280.282,321.782,325.6,327.505,331.323,335.14,340.86199999999997,373.145,376.963,378.868,382.686,386.503,390.32099999999997,421.731,425.549,427.453,431.271,435.089,465.724,469.542,471.447,475.264,479.082" y="612.63" style="fill:#171615;font-family:IDJLGL+AdvOTcb6dfb9e;font-size:7.97px;font-style:NORMAL;font-weight:normal;">95.79 0.00% 0.951 0.00 1.00 </text>
  <text x="513.519" y="612.63" svg_rhmargin="519.656" style="fill:#171615;font-family:IDJLIB+AdvP4C4E74;font-size:7.97px;font-style:NORMAL;font-weight:normal;">?</text>
  <text x="519.642,523.459,525.364,529.182,533.0,563.635,565.54,569.357,573.175" y="612.63" svg_rhmargin="576.993" style="fill:#171615;font-family:IDJLGL+AdvOTcb6dfb9e;font-size:7.97px;font-style:NORMAL;font-weight:normal;">0.61 .652</text>
  <text x="71.88,75.865,79.85" y="622.608" svg_rhmargin="83.835" style="fill:#171615;font-family:IDJLGL+AdvOTcb6dfb9e;font-size:7.97px;font-style:NORMAL;font-weight:normal;">RAR</text>
  <text x="83.786" y="622.608" svg_rhmargin="88.68" style="fill:#171615;font-family:IDJKFA+AdvP7DA6;font-size:7.97px;font-style:NORMAL;font-weight:normal;">b</text>
  <text x="79.817,83.3,86.616,88.521,91.836,93.247,157.26,161.078,194.847,198.665,202.483,204.387,208.205,212.02300000000002,245.813,249.631,251.536,255.354" y="632.585" svg_rhmargin="259.172" style="fill:#171615;font-family:IDJLGL+AdvOTcb6dfb9e;font-size:7.97px;font-style:NORMAL;font-weight:normal;">Total 4 20.35 5.64</text>
  <text x="259.137" y="632.585" svg_rhmargin="263.122" style="fill:#171615;font-family:IDJLGM+AdvOTcb6dfb9e+20;font-size:7.97px;font-style:NORMAL;font-weight:normal;">–</text>
  <text svg_rhmargin="482.9" x="263.106,266.923,270.741,272.646,276.464,280.282,321.782,325.6,327.505,331.322,335.14,340.86199999999997,373.145,376.963,378.868,382.686,386.503,390.32099999999997,421.731,425.548,427.453,431.271,435.089,465.724,469.542,471.446,475.264,479.082,482.9" y="632.585" style="fill:#171615;font-family:IDJLGL+AdvOTcb6dfb9e;font-size:7.97px;font-style:NORMAL;font-weight:normal;">73.39 0.00% 0.597 1.02 0.308 </text>
  <text x="513.519" y="632.585" svg_rhmargin="519.656" style="fill:#171615;font-family:IDJLIB+AdvP4C4E74;font-size:7.97px;font-style:NORMAL;font-weight:normal;">?</text>
  <text x="519.642,523.459,525.364,529.182,533.0,563.635,565.54,569.357" y="632.585" svg_rhmargin="573.175" style="fill:#171615;font-family:IDJLGL+AdvOTcb6dfb9e;font-size:7.97px;font-style:NORMAL;font-weight:normal;">2.63 .12</text>
  <text x="71.88,75.944,80.177,84.241" y="642.5070000000001" svg_rhmargin="88.059" style="fill:#171615;font-family:IDJLGL+AdvOTcb6dfb9e;font-size:7.97px;font-style:NORMAL;font-weight:normal;">CDH1</text>
  <text x="79.816,83.299,86.615,88.52,91.835,93.246,153.46,157.278,161.096,198.644,202.462,204.367,208.184,212.002,245.813,249.63,251.535,255.353" y="652.485" svg_rhmargin="259.171" style="fill:#171615;font-family:IDJLGL+AdvOTcb6dfb9e;font-size:7.97px;font-style:NORMAL;font-weight:normal;">Total 13 6.80 4.47</text>
  <text x="259.136" y="652.485" svg_rhmargin="263.121" style="fill:#171615;font-family:IDJLGM+AdvOTcb6dfb9e+20;font-size:7.97px;font-style:NORMAL;font-weight:normal;">–</text>
  <text x="263.105,266.922,268.827,272.645,276.46299999999997,317.983,321.8,325.618,327.523,331.341,335.158,340.88,373.144,376.962,378.867,382.685,386.503,421.73,425.548,427.453,431.27,435.08799999999997,465.723,469.541,471.446,475.263,479.081,482.899,519.637,523.455,525.36,529.178,532.996,563.631,565.536,569.353" y="652.485" svg_rhmargin="573.171" style="fill:#171615;font-family:IDJLGL+AdvOTcb6dfb9e;font-size:7.97px;font-style:NORMAL;font-weight:normal;">9.74 73.10% 0.00 1.71 0.086 5.13 .00</text>
  <text x="79.816,83.801,86.869,88.28,91.596,95.079,98.14699999999999,153.459,157.277,161.095,194.846,198.663,202.481,204.386,208.204,212.02200000000002,245.812,249.629,251.534,255.352" y="662.463" svg_rhmargin="259.17" style="fill:#171615;font-family:IDJLGL+AdvOTcb6dfb9e;font-size:7.97px;font-style:NORMAL;font-weight:normal;">Asians 10 16.35 9.16</text>
  <text x="259.136" y="662.463" svg_rhmargin="263.121" style="fill:#171615;font-family:IDJLGM+AdvOTcb6dfb9e+20;font-size:7.97px;font-style:NORMAL;font-weight:normal;">–</text>
  <text x="263.104,266.922,270.739,272.644,276.462,280.28,317.982,321.8,325.617,327.522,331.34,335.158,340.88,373.144,376.961,378.866,382.684,386.502,421.729,425.547,427.452,431.269,435.087,465.722,469.54,471.445,475.263,479.08,482.89799999999997,519.637,523.454,525.359,529.177,532.995,563.63,565.535,569.352,573.17" y="662.463" svg_rhmargin="576.988" style="fill:#171615;font-family:IDJLGL+AdvOTcb6dfb9e;font-size:7.97px;font-style:NORMAL;font-weight:normal;">29.19 43.20% 0.07 1.07 0.283 3.77 .005</text>
  <text x="79.815,83.88,87.195,90.678,93.914,97.23,100.298,101.709,105.025,108.508,111.576,157.256,161.074,198.643,202.46,204.365,208.183,212.001,245.811,249.629,251.534,255.351" y="672.384" svg_rhmargin="259.169" style="fill:#171615;font-family:IDJLGL+AdvOTcb6dfb9e;font-size:7.97px;font-style:NORMAL;font-weight:normal;">Caucasians 3 2.30 1.36</text>
  <text x="259.135" y="672.384" svg_rhmargin="263.12" style="fill:#171615;font-family:IDJLGM+AdvOTcb6dfb9e+20;font-size:7.97px;font-style:NORMAL;font-weight:normal;">–</text>
  <text svg_rhmargin="479.08" x="263.103,266.921,268.826,272.643,276.46099999999996,317.981,321.799,325.617,327.521,331.339,335.157,340.87899999999996,373.143,376.961,378.865,382.683,386.501,390.31899999999996,421.728,425.546,427.451,431.269,435.087,465.721,469.539,471.444,475.262,479.08" y="672.384" style="fill:#171615;font-family:IDJLGL+AdvOTcb6dfb9e;font-size:7.97px;font-style:NORMAL;font-weight:normal;">3.89 82.10% 0.018 0.00 1.00 </text>
  <text x="521.283,525.268,568.339" y="672.384" svg_rhmargin="572.324" style="fill:#171615;font-family:IDJLGM+AdvOTcb6dfb9e+20;font-size:7.97px;font-style:NORMAL;font-weight:normal;">– –</text>
  <text x="79.814,84.046,87.362,89.514,94.91,98.225,99.636,102.264,104.169,105.579,108.648,111.716,115.199,118.515,157.256,161.074,198.642,202.46,204.364,208.182,212.0,245.81,249.628,251.533,255.351" y="682.362" svg_rhmargin="259.169" style="fill:#171615;font-family:IDJLGL+AdvOTcb6dfb9e;font-size:7.97px;font-style:NORMAL;font-weight:normal;">Normal tissue 6 3.84 2.23</text>
  <text x="259.134" y="682.362" svg_rhmargin="263.119" style="fill:#171615;font-family:IDJLGM+AdvOTcb6dfb9e+20;font-size:7.97px;font-style:NORMAL;font-weight:normal;">–</text>
  <text x="263.102,266.92,268.825,272.643,276.46099999999996,317.98,321.798,325.616,327.521,331.338,335.156,340.878,373.142,376.96,378.865,382.682,386.5,390.318,421.728,425.545,427.45,431.268,435.08599999999996,465.721,469.538,471.443,475.261,479.079,482.897,519.635,523.453,525.358,529.175,532.9929999999999,563.628,565.533,569.351,573.169" y="682.362" svg_rhmargin="576.987" style="fill:#171615;font-family:IDJLGL+AdvOTcb6dfb9e;font-size:7.97px;font-style:NORMAL;font-weight:normal;">6.64 76.70% 0.002 0.73 0.462 8.37 .004</text>
  <text x="79.813,83.798,87.281,88.692,92.008,95.244,98.559,102.042,103.947,106.572,108.477,109.887,112.956,116.024,119.507,122.82300000000001,157.255,161.073,198.641,202.459,204.364,208.181,211.99900000000002,245.809,249.627,251.532,255.35" y="692.34" svg_rhmargin="259.168" style="fill:#171615;font-family:IDJLGL+AdvOTcb6dfb9e;font-size:7.97px;font-style:NORMAL;font-weight:normal;">Adjacent tissue 5 8.29 4.81</text>
  <text x="259.133" y="692.34" svg_rhmargin="263.118" style="fill:#171615;font-family:IDJLGM+AdvOTcb6dfb9e+20;font-size:7.97px;font-style:NORMAL;font-weight:normal;">–</text>
  <text x="263.102,266.919,270.737,272.642,276.46,280.27799999999996,317.98,321.797,325.615,327.52,331.338,335.155,340.87699999999995,373.141,376.959,378.864,382.682,386.499,390.317,421.727,425.544,427.449,431.267,435.085,465.72,469.538,471.442,475.26,479.078,482.89599999999996,519.634,523.452,525.357,529.175,532.9929999999999,563.628,565.532,569.35,573.168" y="692.34" svg_rhmargin="576.986" style="fill:#171615;font-family:IDJLGL+AdvOTcb6dfb9e;font-size:7.97px;font-style:NORMAL;font-weight:normal;">14.29 58.10% 0.049 1.71 0.086 4.03 .027</text>
  <text x="79.812,84.212,88.03,92.095,96.16,153.456,157.274,161.092,198.64,202.458,204.363,208.18,211.99800000000002,245.809,249.626,251.531,255.349" y="702.317" svg_rhmargin="259.167" style="fill:#171615;font-family:IDJLGL+AdvOTcb6dfb9e;font-size:7.97px;font-style:NORMAL;font-weight:normal;">OSCC 10 5.49 3.75</text>
  <text x="259.132" y="702.317" svg_rhmargin="263.117" style="fill:#171615;font-family:IDJLGM+AdvOTcb6dfb9e+20;font-size:7.97px;font-style:NORMAL;font-weight:normal;">–</text>
  <text x="263.101,266.918,268.823,272.641,276.459,317.979,321.796,325.614,327.519,331.337,335.155,340.87699999999995,373.14,376.958,378.863,382.681,386.49899999999997,421.726,425.544,427.449,431.266,435.084,465.719,469.537,471.442,475.259,479.077,482.895,519.633,523.451,525.356,529.174,532.992,563.627,565.532,569.349,573.167" y="702.317" svg_rhmargin="576.985" style="fill:#171615;font-family:IDJLGL+AdvOTcb6dfb9e;font-size:7.97px;font-style:NORMAL;font-weight:normal;">8.04 76.20% 0.00 1.15 0.251 3.95 .006</text>
  <text svg_rhmargin="78.93" x="71.887,75.373,78.93" y="717.965" style="fill:#171615;font-family:IDJLGL+AdvOTcb6dfb9e;font-size:6.97px;font-style:NORMAL;font-weight:normal;">BC </text>
  <text x="79.823" y="717.965" svg_rhmargin="84.544" style="fill:#171615;font-family:IDJKGC+AdvOTb0c9bf5d;font-size:6.97px;font-style:NORMAL;font-weight:normal;">=</text>
  <text svg_rhmargin="147.154" x="85.436,88.484,91.531,94.362,97.194,100.095,101.329,103.69,106.521,109.422,111.305,114.137,115.371,118.419,121.32,126.041,128.942,130.609,132.998,136.555,140.258,143.814,147.155" y="717.965" style="fill:#171615;font-family:IDJLGL+AdvOTcb6dfb9e;font-size:6.97px;font-style:NORMAL;font-weight:normal;">buccal carcinoma, CDH1 </text>
  <text x="148.082" y="717.965" svg_rhmargin="152.803" style="fill:#171615;font-family:IDJKGC+AdvOTb0c9bf5d;font-size:6.97px;font-style:NORMAL;font-weight:normal;">=</text>
  <text svg_rhmargin="188.7" x="153.638,156.685,158.931,161.762,164.663,167.711,170.758,173.762,175.645,176.879,179.927,181.594,183.91,187.466,188.70000000000002" y="717.965" style="fill:#171615;font-family:IDJLGL+AdvOTcb6dfb9e;font-size:6.97px;font-style:NORMAL;font-weight:normal;">E-cadherin, CI </text>
  <text x="189.581" y="717.965" svg_rhmargin="194.302" style="fill:#171615;font-family:IDJKGC+AdvOTb0c9bf5d;font-size:6.97px;font-style:NORMAL;font-weight:normal;">=</text>
  <text x="195.194,198.025,200.926" y="717.965" svg_rhmargin="203.974" style="fill:#171615;font-family:IDJLGL+AdvOTcb6dfb9e;font-size:6.97px;font-style:NORMAL;font-weight:normal;">con</text>
  <text x="203.982" y="717.965" svg_rhmargin="206.883" style="fill:#171615;font-family:IDJLGN+AdvOTcb6dfb9e+fb;font-size:6.97px;font-style:NORMAL;font-weight:normal;">ﬁ</text>
  <text svg_rhmargin="252.814" x="206.929,209.977,212.878,215.926,218.757,221.65800000000002,223.993,225.227,228.275,229.941,232.843,234.726,237.264,240.165,241.399,243.066,245.478,249.327,252.814" y="717.965" style="fill:#171615;font-family:IDJLGL+AdvOTcb6dfb9e;font-size:6.97px;font-style:NORMAL;font-weight:normal;">dence interval, OR </text>
  <text x="253.701" y="717.965" svg_rhmargin="258.422" style="fill:#171615;font-family:IDJKGC+AdvOTb0c9bf5d;font-size:6.97px;font-style:NORMAL;font-weight:normal;">=</text>
  <text svg_rhmargin="302.245" x="259.314,262.215,265.262,268.31,270.995,273.316,275.199,278.1,279.767,281.001,283.902,285.56899999999996,287.941,291.791,295.131,298.688,302.245" y="717.965" style="fill:#171615;font-family:IDJLGL+AdvOTcb6dfb9e;font-size:6.97px;font-style:NORMAL;font-weight:normal;">odds ratio, OSCC </text>
  <text x="303.137" y="717.965" svg_rhmargin="307.858" style="fill:#171615;font-family:IDJKGC+AdvOTb0c9bf5d;font-size:6.97px;font-style:NORMAL;font-weight:normal;">=</text>
  <text svg_rhmargin="397.92" x="308.75,311.651,313.534,316.435,317.669,320.03,322.715,325.763,328.81,331.712,336.433,339.334,342.381,345.066,347.467,350.299,353.2,354.434,355.668,358.012,360.843,363.744,365.627,368.459,369.693,372.741,375.642,380.363,383.264,384.931,387.32,390.66,394.363,397.92" y="717.965" style="fill:#171615;font-family:IDJLGL+AdvOTcb6dfb9e;font-size:6.97px;font-style:NORMAL;font-weight:normal;">oral squamous cell carcinoma, SGC </text>
  <text x="398.835" y="717.965" svg_rhmargin="403.556" style="fill:#171615;font-family:IDJKGC+AdvOTb0c9bf5d;font-size:6.97px;font-style:NORMAL;font-weight:normal;">=</text>
  <text x="404.391,407.076,409.977,411.211,412.446,414.984,417.885,419.768,422.30699999999996,424.686,427.733,428.967,431.869,434.916,437.964,440.332,443.163,446.064,447.947,450.779,452.013,455.061,457.962,462.683,465.671" y="717.965" svg_rhmargin="467.338" style="fill:#171615;font-family:IDJLGL+AdvOTcb6dfb9e;font-size:6.97px;font-style:NORMAL;font-weight:normal;">salivary gland carcinoma.</text>
  <text svg_rhmargin="186.028" x="71.887,79.108,83.172,87.404,90.028,94.092,96.411,99.042,103.107,104.517,106.669,109.303,115.854,119.919,124.478,125.889,129.954,131.364,135.596,139.661,142.297,144.202,148.601,153.001,157.4,161.8,163.705,166.277,170.676,175.076,177.228,181.628,186.027" y="9.870999999999981" style="fill:#171615;font-family:IDJKEN+AdvOT6e5d2ec0;font-size:7.97px;font-style:NORMAL;font-weight:normal;">Wen et al. Medicine (2018) 97:11 </text>
  <text x="542.723,549.944,554.503,559.317,561.31,565.869,567.861,572.508" y="9.870999999999981" svg_rhmargin="577.067" style="fill:#171615;font-family:IDJKEM+AdvOT34fe1490.B;font-size:7.97px;font-style:NORMAL;font-weight:normal;">Medicine</text>
  <text x="322.243" y="739.625" svg_rhmargin="326.643" style="fill:#171615;font-family:IDJKMK+AdvOTf94803d4;font-size:7.97px;font-style:NORMAL;font-weight:normal;">4</text>
 </g>
</svg>
