<?xml version="1.0" encoding="UTF-8"?>
<svg height="870.031005859375" width="672.0029907226562" xmlns="http://www.w3.org/2000/svg">
 <g style="fill:none;">
  <path d=" M 0.05999799817800522 826.072021484375 L 22.619997024536133 826.072021484375 L 22.619997024536133 826.35546875 L 0.05999799817800522 826.35546875 Z " style="fill:none;stroke:#000000;stroke-width:1.0;"/>
  <path d=" M 33.67599868774414 837.4110107421875 L 33.959449768066406 837.4110107421875 L 33.959449768066406 860.031005859375 L 33.67599868774414 860.031005859375 Z " style="fill:none;stroke:#000000;stroke-width:1.0;"/>
  <path d=" M 627.9869995117188 837.4110107421875 L 628.2703857421875 837.4110107421875 L 628.2703857421875 860.031005859375 L 627.9869995117188 860.031005859375 Z " style="fill:none;stroke:#000000;stroke-width:1.0;"/>
  <path d=" M 639.3259887695312 826.072021484375 L 662.0029907226562 826.072021484375 L 662.0029907226562 826.35546875 L 639.3259887695312 826.35546875 Z " style="fill:none;stroke:#000000;stroke-width:1.0;"/>
  <path d=" M 639.3259887695312 33.731998443603516 L 662.0029907226562 33.731998443603516 L 662.0029907226562 34.015480041503906 L 639.3259887695312 34.015480041503906 Z " style="fill:none;stroke:#000000;stroke-width:1.0;"/>
  <path d=" M 627.9869995117188 0.0 L 628.2703857421875 0.0 L 628.2703857421875 22.677000045776367 L 627.9869995117188 22.677000045776367 Z " style="fill:none;stroke:#000000;stroke-width:1.0;"/>
  <path d=" M 33.67599868774414 0.0 L 33.959449768066406 0.0 L 33.959449768066406 22.677000045776367 L 33.67599868774414 22.677000045776367 Z " style="fill:none;stroke:#000000;stroke-width:1.0;"/>
  <path d=" M 0.05999799817800522 33.731998443603516 L 22.619997024536133 33.731998443603516 L 22.619997024536133 34.015480041503906 L 0.05999799817800522 34.015480041503906 Z " style="fill:none;stroke:#000000;stroke-width:1.0;"/>
  <path d=" M 85.03900146484375 741.7130126953125 L 590.115966796875 741.7130126953125 L 590.115966796875 742.2232666015625 L 85.03900146484375 742.2232666015625 Z " style="fill:none;stroke:#000000;stroke-width:1.0;"/>
  <path d=" M 85.03900146484375 372.1889953613281 L 590.115966796875 372.1889953613281 L 590.115966796875 372.69921875 L 85.03900146484375 372.69921875 Z " style="fill:none;stroke:#000000;stroke-width:1.0;"/>
  <path d=" M 171.21299743652344 729.2410278320312 L 284.2590026855469 729.2410278320312 L 284.2590026855469 729.7512817382812 L 171.21299743652344 729.7512817382812 Z " style="fill:none;stroke:#000000;stroke-width:1.0;"/>
  <path d=" M 292.0820007324219 729.2410278320312 L 405.12799072265625 729.2410278320312 L 405.12799072265625 729.7512817382812 L 292.0820007324219 729.7512817382812 Z " style="fill:none;stroke:#000000;stroke-width:1.0;"/>
  <path d=" M 85.03900146484375 706.3939819335938 L 139.01100158691406 706.3939819335938 L 139.01100158691406 706.9042358398438 L 85.03900146484375 706.9042358398438 Z " style="fill:none;stroke:#000000;stroke-width:1.0;"/>
  <path d=" M 131.13099670410156 706.3939819335938 L 171.21299743652344 706.3939819335938 L 171.21299743652344 706.9042358398438 L 131.13099670410156 706.9042358398438 Z " style="fill:none;stroke:#000000;stroke-width:1.0;"/>
  <path d=" M 163.38900756835938 706.3939819335938 L 204.54800415039062 706.3939819335938 L 204.54800415039062 706.9042358398438 L 163.38900756835938 706.9042358398438 Z " style="fill:none;stroke:#000000;stroke-width:1.0;"/>
  <path d=" M 292.0820007324219 706.3939819335938 L 196.66799926757812 706.3939819335938 L 196.66799926757812 706.9039916992188 L 292.0820007324219 706.9039916992188" style="fill:none;stroke:#000000;stroke-width:1.0;"/>
  <path d=" M 284.25799560546875 706.3939819335938 L 325.4169921875 706.3939819335938 L 325.4169921875 706.9042358398438 L 284.25799560546875 706.9042358398438 Z " style="fill:none;stroke:#000000;stroke-width:1.0;"/>
  <path d=" M 317.5369873046875 706.3939819335938 L 412.95098876953125 706.3939819335938 L 412.95098876953125 706.9042358398438 L 317.5369873046875 706.9042358398438 Z " style="fill:none;stroke:#000000;stroke-width:1.0;"/>
  <path d=" M 405.12701416015625 706.3939819335938 L 500.541015625 706.3939819335938 L 500.541015625 706.9042358398438 L 405.12701416015625 706.9042358398438 Z " style="fill:none;stroke:#000000;stroke-width:1.0;"/>
  <path d=" M 492.6610107421875 706.3939819335938 L 558.7080078125 706.3939819335938 L 558.7080078125 706.9042358398438 L 492.6610107421875 706.9042358398438 Z " style="fill:none;stroke:#000000;stroke-width:1.0;"/>
  <path d=" M 550.8280029296875 706.3939819335938 L 590.1160278320312 706.3939819335938 L 590.1160278320312 706.9042358398438 L 550.8280029296875 706.9042358398438 Z " style="fill:none;stroke:#000000;stroke-width:1.0;"/>
  <path d=" M 85.03900146484375 754.8660278320312 L 124.04400634765625 754.8660278320312 L 124.04400634765625 766.8280029296875 L 85.03900146484375 766.8280029296875 Z " style="fill:none;stroke:#000000;stroke-width:1.0;"/>
  <path d=" M 85.03900146484375 766.6580200195312 L 590.115966796875 766.6580200195312 L 590.115966796875 767.1682739257812 L 85.03900146484375 767.1682739257812 Z " style="fill:none;stroke:#000000;stroke-width:1.0;"/>
  <text x="88.044,93.767,99.657,105.794,108.113,114.091,116.673" y="42.186000000000035" svg_rhmargin="121.073" style="fill:#ffffff;font-family:NENOCF+AdvOT91f5f621.B;font-size:7.97px;font-style:NORMAL;font-weight:normal;">Table 1</text>
  <text x="85.039,89.853,94.5,99.059,101.707,106.521,111.08,115.726,120.285,123.354,127.913,129.906,132.49,137.049,141.695,146.254,149.323,153.882,158.441,161.175,165.654,168.722,170.715,174.947,177.681,179.674,184.233,186.856,191.67,194.236,196.891,199.625,204.271,208.82999999999998,211.46,213.453,218.099,222.658,224.651,229.298,234.112,238.671,243.48499999999999,246.098,250.33,253.064,257.711,262.525,264.517,269.076,273.308" y="54.20500000000004" svg_rhmargin="275.46" style="fill:#171615;font-family:NENOCC+AdvOT34fe1490.B;font-size:7.97px;font-style:NORMAL;font-weight:normal;">The general characteristic of the included studies.</text>
  <text x="205.966,210.198,214.016,218.001,220.32,222.886,226.704,228.609,231.193,235.178,237.744,241.562,245.547,249.532,319.35,321.342,325.327,327.647,331.297,333.863,337.346,340.997,344.982,347.301,349.112,352.93,356.915,359.6,363.585,366.152,369.969,373.954" y="67.24400000000003" svg_rhmargin="377.939" style="fill:#171615;font-family:NEOHJI+AdvOT9d0303c0.B;font-size:7.97px;font-style:NORMAL;font-weight:normal;">Control group Intervention group</text>
  <text svg_rhmargin="163.399" x="85.039,89.104,91.423,95.409,99.394,102.87700000000001,139.01,143.243,147.06,151.045,155.03,157.35,159.916,163.399" y="79.207" style="fill:#171615;font-family:NEOHJI+AdvOT9d0303c0.B;font-size:7.97px;font-style:NORMAL;font-weight:normal;">Study Country </text>
  <text x="171.213,175.772,179.59,182.268,186.086" y="79.207" svg_rhmargin="188.405" style="fill:#171615;font-family:NEOHJI+AdvOT9d0303c0.B;font-size:7.97px;font-style:NORMAL;font-weight:normal;">No of</text>
  <text svg_rhmargin="255.086" x="171.213,175.198,179.016,181.335,183.24,186.891,190.876,193.195,196.678,204.548,209.107,211.673,215.658,219.643,223.126,225.75,229.568,233.553,237.538,240.15,244.135,247.953,251.436,255.086" y="79.207" style="fill:#171615;font-family:NEOHJI+AdvOT9d0303c0.B;font-size:7.97px;font-style:NORMAL;font-weight:normal;">patients Drugs and dose </text>
  <text x="292.083,296.642,300.46,303.137,306.955" y="79.207" svg_rhmargin="309.274" style="fill:#171615;font-family:NEOHJI+AdvOT9d0303c0.B;font-size:7.97px;font-style:NORMAL;font-weight:normal;">No of</text>
  <text svg_rhmargin="364.807" x="292.083,296.068,299.886,302.205,304.11,307.76,311.745,314.065,317.548,325.417,329.482,332.049,335.699,339.517,343.502,347.152,349.719,353.536,355.856,357.674,361.157,364.80699999999996" y="79.207" style="fill:#171615;font-family:NEOHJI+AdvOT9d0303c0.B;font-size:7.97px;font-style:NORMAL;font-weight:normal;">patients Preoperative </text>
  <text x="412.953,417.185,421.002,424.988,428.638,432.456,438.433,440.338,442.657,446.475,450.46,452.779,455.357,459.342,463.16,465.065" y="79.207" svg_rhmargin="469.05" style="fill:#171615;font-family:NEOHJI+AdvOT9d0303c0.B;font-size:7.97px;font-style:NORMAL;font-weight:normal;">Concomitant pain</text>
  <text x="412.953,418.93,422.748,426.733,430.551,434.536,438.186,444.164,447.814,451.799,454.118,500.541,504.941,508.926,511.245,514.895,518.713,524.691,528.341,531.824,558.707,562.357,566.175,568.08,569.985,573.802,579.358,582.259,586.145" y="89.18499999999995" svg_rhmargin="590.13" style="fill:#171615;font-family:NEOHJI+AdvOT9d0303c0.B;font-size:7.97px;font-style:NORMAL;font-weight:normal;">management Outcomes Follow-up</text>
  <text x="85.039,89.272,92.755,96.238,101.633,105.116,108.599,112.082,115.151,118.544,121.859,123.764,125.669,127.08,129.232" y="103.52800000000002" svg_rhmargin="131.137" style="fill:#171615;font-family:NEOHJJ+AdvOTcb6dfb9e;font-size:7.97px;font-style:NORMAL;font-weight:normal;">Gudmundsdottir,</text>
  <text svg_rhmargin="108.305" x="93.033,96.851,100.669,104.487,108.30499999999999" y="103.52800000000002" style="fill:#171615;font-family:NEOHJJ+AdvOTcb6dfb9e;font-size:7.97px;font-style:NORMAL;font-weight:normal;">2017 </text>
  <text x="139.012,140.423,143.906,147.389,148.799,152.115,180.114,183.932,187.75,204.548,208.366,212.184,216.002,218.608,224.004,225.415,228.076,231.391,233.296,235.956,239.774,243.591,247.40900000000002,248.371,253.767" y="103.52800000000002" svg_rhmargin="257.25" style="fill:#171615;font-family:NEOHJJ+AdvOTcb6dfb9e;font-size:7.97px;font-style:NORMAL;font-weight:normal;">India 34 102 ml of 200 mg</text>
  <text x="212.486,214.638,217.954,221.437,222.847,225.748,229.064,232.3,235.616,237.026,240.509,243.825,245.73,248.371,252.189,256.007,256.988,262.384" y="113.50599999999997" svg_rhmargin="265.867" style="fill:#171615;font-family:NEOHJJ+AdvOTcb6dfb9e;font-size:7.97px;font-style:NORMAL;font-weight:normal;">ropivacaine, 30 mg</text>
  <text x="212.486,215.722,219.038,220.942,224.258,226.41,229.726,231.136,234.452,237.688,240.321,243.637,247.12,250.603,253.247,257.065,258.97,262.788,263.735,269.131" y="123.48400000000004" svg_rhmargin="272.614" style="fill:#171615;font-family:NEOHJJ+AdvOTcb6dfb9e;font-size:7.97px;font-style:NORMAL;font-weight:normal;">ketorolac and 0.5 mg</text>
  <text svg_rhmargin="241.171" x="212.486,215.802,219.285,221.437,224.752,228.235,231.551,232.961,234.372,237.855,241.171" y="103.52800000000002" style="fill:#171615;font-family:NEOHJJ+AdvOTcb6dfb9e;font-size:7.97px;font-style:NORMAL;font-weight:normal;">adrenaline </text>
  <text x="302.911,306.729,310.54699999999997,325.418,329.403,332.886,335.509,339.494,343.559,347.54400000000004,350.192,354.839,356.249,358.154,361.637,364.251,368.069,371.887,374.513,379.909,381.32,383.981,387.296,389.20099999999996,391.861,395.679,399.496" y="103.52800000000002" svg_rhmargin="403.314" style="fill:#171615;font-family:NEOHJJ+AdvOTcb6dfb9e;font-size:7.97px;font-style:NORMAL;font-weight:normal;">35 An ACB with 20 ml of 200</text>
  <text x="333.356,338.752,342.235,344.864,347.016,350.331,353.814,355.225,358.126,361.442,364.678,367.993,369.404,372.887,376.203,378.10799999999995,380.749,384.567,388.385,389.366,394.762" y="113.50599999999997" svg_rhmargin="398.245" style="fill:#171615;font-family:NEOHJJ+AdvOTcb6dfb9e;font-size:7.97px;font-style:NORMAL;font-weight:normal;">mg ropivacaine, 30 mg</text>
  <text x="333.356,336.592,339.907,341.812,345.128,347.28,350.595,352.006,355.322,358.558,361.191,364.507,367.99,371.473,374.116,377.934,379.839,383.657,384.604,390.0" y="123.48400000000004" svg_rhmargin="393.483" style="fill:#171615;font-family:NEOHJJ+AdvOTcb6dfb9e;font-size:7.97px;font-style:NORMAL;font-weight:normal;">ketorolac and 0.5 mg</text>
  <text svg_rhmargin="362.041" x="333.356,336.671,340.154,342.306,345.622,349.105,352.42,353.831,355.242,358.725,362.041" y="103.52800000000002" style="fill:#171615;font-family:NEOHJJ+AdvOTcb6dfb9e;font-size:7.97px;font-style:NORMAL;font-weight:normal;">adrenaline </text>
  <text x="412.953,416.268,419.504,422.82,424.725,428.04,433.436,434.847,438.33,441.645,445.128,448.611,451.927,455.41,457.315,459.949,463.264,466.166,469.067,472.303,475.618,479.101,482.417,485.9" y="103.52800000000002" svg_rhmargin="489.216" style="fill:#171615;font-family:NEOHJJ+AdvOTcb6dfb9e;font-size:7.97px;font-style:NORMAL;font-weight:normal;">acetaminophen, oxycodone</text>
  <text x="420.947,424.262,427.745,431.228,433.873,435.283,438.766,440.671,442.823,446.139,449.04,452.356,455.839,459.154,462.637" y="113.50599999999997" svg_rhmargin="465.706" style="fill:#171615;font-family:NEOHJJ+AdvOTcb6dfb9e;font-size:7.97px;font-style:NORMAL;font-weight:normal;">and intravenous</text>
  <text svg_rhmargin="447.559" x="420.947,424.43,427.745,429.897,433.213,436.449,439.764,442.665,444.076,447.559" y="103.52800000000002" style="fill:#171615;font-family:NEOHJJ+AdvOTcb6dfb9e;font-size:7.97px;font-style:NORMAL;font-weight:normal;">parecoxib </text>
  <text x="508.934,512.752,514.657,518.475,520.38,524.198,526.102,529.92,531.825,535.643,537.548,541.365,543.176,546.993,550.811,558.709,562.5269999999999,565.173,570.568,573.884,577.367,579.272" y="103.52800000000002" svg_rhmargin="582.755" style="fill:#171615;font-family:NEOHJJ+AdvOTcb6dfb9e;font-size:7.97px;font-style:NORMAL;font-weight:normal;">1,2,3,4,5,6,11 6 month</text>
  <text x="85.04,89.272,93.919,97.235,102.63,104.535,107.15,110.967,114.785,118.603,122.42099999999999,139.01,140.421,143.904,147.387,148.798,152.114,180.113,183.93,187.74800000000002,204.547,208.365,212.18300000000002,214.809,220.204,223.52,226.147,229.463,231.368,234.027,237.845,239.75,243.567,247.385" y="143.38300000000004" svg_rhmargin="253.108" style="fill:#171615;font-family:NEOHJJ+AdvOTcb6dfb9e;font-size:7.97px;font-style:NORMAL;font-weight:normal;">Gwam, 2017 India 45 30 mL of 0.25%</text>
  <text x="212.486,215.969,219.452,222.935,224.346,227.247,230.562,233.798,237.114,238.525,242.008,245.323,247.228,249.845,254.491,255.902,257.807" y="153.361" svg_rhmargin="261.29" style="fill:#171615;font-family:NEOHJJ+AdvOTcb6dfb9e;font-size:7.97px;font-style:NORMAL;font-weight:normal;">bupivacaine, with</text>
  <text x="212.486,216.304,218.209,222.026,225.844,229.662,231.567,235.384,239.202,243.02,245.65,249.133,252.449,254.601,256.505" y="163.33900000000006" svg_rhmargin="259.574" style="fill:#171615;font-family:NEOHJJ+AdvOTcb6dfb9e;font-size:7.97px;font-style:NORMAL;font-weight:normal;">1:200,000 parts</text>
  <text x="212.486,215.802,219.285,220.695,224.178,227.494,230.977,234.46,236.612,238.023,241.506,244.821,246.726,249.335,253.15300000000002,254.153,259.549,263.032,265.662,268.977" y="173.26" svg_rhmargin="270.882" style="fill:#171615;font-family:NEOHJJ+AdvOTcb6dfb9e;font-size:7.97px;font-style:NORMAL;font-weight:normal;">epinephrine, 8 mg of</text>
  <text x="212.486,215.969,219.285,222.186,225.501,230.897,234.213,236.118,239.601,242.916,245.985,249.3,252.783,256.024,257.929,260.616,264.43399999999997,265.435,270.831,274.314,276.943,280.259" y="183.23800000000006" svg_rhmargin="282.164" style="fill:#171615;font-family:NEOHJJ+AdvOTcb6dfb9e;font-size:7.97px;font-style:NORMAL;font-weight:normal;">dexamethasone, 2 mg of</text>
  <text x="212.486,217.882,221.198,223.349,226.832,230.315,231.726,235.209,238.525,240.43,243.042,246.358,249.841,253.324,255.968,259.786,263.604,264.586,269.981,273.464,276.094,279.409" y="193.216" svg_rhmargin="281.314" style="fill:#171615;font-family:NEOHJJ+AdvOTcb6dfb9e;font-size:7.97px;font-style:NORMAL;font-weight:normal;">morphine, and 30 mg of</text>
  <text x="212.486,215.722,219.038,220.942,224.258,226.41,229.726,231.136,234.452,237.688,240.321,244.968,248.283,250.435,253.751,256.365,261.761,263.172,266.073,269.388,272.871,275.527,276.938" y="203.13699999999994" svg_rhmargin="280.421" style="fill:#171615;font-family:NEOHJJ+AdvOTcb6dfb9e;font-size:7.97px;font-style:NORMAL;font-weight:normal;">ketorolac were mixed in</text>
  <text svg_rhmargin="231.46" x="212.486,216.304,220.122,222.748,228.144,231.46" y="143.38199999999995" style="fill:#171615;font-family:NEOHJJ+AdvOTcb6dfb9e;font-size:7.97px;font-style:NORMAL;font-weight:normal;">50 mL </text>
  <text x="302.911,306.729,310.54699999999997,325.418,329.236,331.881,333.786,337.102,339.761,343.579,347.397,350.023,355.419,358.73499999999996,361.361,364.677,366.582,369.242,373.059,374.964,378.782" y="143.38199999999995" svg_rhmargin="384.505" style="fill:#171615;font-family:NEOHJJ+AdvOTcb6dfb9e;font-size:7.97px;font-style:NORMAL;font-weight:normal;">65 5 to 10 mL of 0.5%</text>
  <text x="333.356,336.839,340.322,343.805,345.215,348.117,351.432,354.668,357.984,359.394,362.877,366.193,368.787,372.103,374.255,376.951,380.769,382.674,386.492,390.309" y="153.36" svg_rhmargin="396.032" style="fill:#171615;font-family:NEOHJJ+AdvOTcb6dfb9e;font-size:7.97px;font-style:NORMAL;font-weight:normal;">bupivacaine or 0.75%</text>
  <text svg_rhmargin="364.695" x="333.356,335.508,338.823,342.306,343.717,346.618,349.934,353.17,356.485,357.896,361.379,364.695" y="143.38199999999995" style="fill:#171615;font-family:NEOHJJ+AdvOTcb6dfb9e;font-size:7.97px;font-style:NORMAL;font-weight:normal;">ropivacaine </text>
  <text x="412.953,417.185,421.003,510.804,514.622,516.527,520.345,522.25,526.067,527.972,531.79,533.695,537.513,541.33,543.235,547.053,550.871,558.709,562.526,566.3439999999999,568.97" y="143.38199999999995" svg_rhmargin="572.453" style="fill:#171615;font-family:NEOHJJ+AdvOTcb6dfb9e;font-size:7.97px;font-style:NORMAL;font-weight:normal;">NS 1,2,3,9,10,11 48 h</text>
  <text x="85.039,88.69,92.173,95.488,98.971,100.876,103.521,107.338,111.156,114.974,118.792,139.01,143.074,146.557,147.968,151.451,154.767,180.111,183.929,187.747,204.545,208.363,212.181,215.99900000000002,218.605,224.001,225.412,228.073,230.225,233.54,237.023,238.434,241.335,244.651,247.886,251.202,252.613,256.096,259.412,261.974,265.792,268.493,273.889,277.372" y="223.09299999999996" svg_rhmargin="279.524" style="fill:#171615;font-family:NEOHJJ+AdvOTcb6dfb9e;font-size:7.97px;font-style:NORMAL;font-weight:normal;">Zhou, 2017 China 20 100 ml ropivacaine 2 mg/</text>
  <text x="212.485,217.881,219.292,221.953,226.6,228.01,229.915,233.398,236.013,239.328,242.811,244.222,247.705,251.02,254.503,257.986,260.138,261.549,265.032,268.34799999999996,270.991,274.808,276.713" y="233.07100000000003" svg_rhmargin="280.531" style="fill:#171615;font-family:NEOHJJ+AdvOTcb6dfb9e;font-size:7.97px;font-style:NORMAL;font-weight:normal;">ml with epinephrine 0.5</text>
  <text svg_rhmargin="246.254" x="212.485,217.881,219.292,221.953,225.77100000000002,228.416,233.812,237.295,239.447,244.843,246.254" y="223.09299999999996" style="fill:#171615;font-family:NEOHJJ+AdvOTcb6dfb9e;font-size:7.97px;font-style:NORMAL;font-weight:normal;">ml 1 mg/ml </text>
  <text x="302.91,306.728,310.546,325.417,329.235,333.053,335.679,341.075,342.486,345.09,348.406,350.311,352.97,356.788,358.693,362.511,366.328,370.146,375.868,378.481,381.797" y="223.09299999999996" svg_rhmargin="383.702" style="fill:#171615;font-family:NEOHJJ+AdvOTcb6dfb9e;font-size:7.97px;font-style:NORMAL;font-weight:normal;">20 30 ml of 0.375% of</text>
  <text svg_rhmargin="385.19" x="333.355,335.507,338.823,342.306,343.716,346.617,349.933,353.169,356.485,357.895,361.378,364.69399999999996,367.313,371.96,373.37,375.275,378.758,381.372,385.19" y="233.07100000000003" style="fill:#171615;font-family:NEOHJJ+AdvOTcb6dfb9e;font-size:7.97px;font-style:NORMAL;font-weight:normal;">ropivacaine with 5 </text>
  <text x="386.193" y="233.07100000000003" svg_rhmargin="391.501" style="fill:#171615;font-family:NEOHJK+AdvP7DA6;font-size:7.97px;font-style:NORMAL;font-weight:normal;">m</text>
  <text x="391.522,395.005,397.156,402.552" y="233.07100000000003" svg_rhmargin="403.963" style="fill:#171615;font-family:NEOHJJ+AdvOTcb6dfb9e;font-size:7.97px;font-style:NORMAL;font-weight:normal;">g/ml</text>
  <text svg_rhmargin="365.69" x="333.354,336.67,340.153,341.564,345.047,348.362,351.845,355.328,357.48,358.891,362.374,365.69" y="223.09299999999996" style="fill:#171615;font-family:NEOHJJ+AdvOTcb6dfb9e;font-size:7.97px;font-style:NORMAL;font-weight:normal;">epinephrine </text>
  <text x="412.951,416.267,419.168,422.069,425.305,428.62,432.103,435.419,438.902,442.21799999999996,444.868,448.183,451.666" y="223.09299999999996" svg_rhmargin="455.149" style="fill:#171615;font-family:NEOHJJ+AdvOTcb6dfb9e;font-size:7.97px;font-style:NORMAL;font-weight:normal;">oxycodone and</text>
  <text svg_rhmargin="463.318" x="420.945,424.261,427.497,430.812,432.717,436.033,441.429,442.839,446.322,449.638,453.121,456.604,459.835,463.318" y="223.09299999999996" style="fill:#171615;font-family:NEOHJJ+AdvOTcb6dfb9e;font-size:7.97px;font-style:NORMAL;font-weight:normal;">acetaminophen </text>
  <text x="518.457,522.275,524.18,527.998,529.903,533.72,535.625,539.443,541.348,545.166,548.983,550.8879999999999,558.708,562.526,565.171,570.567,573.882,577.365,579.27" y="223.09299999999996" svg_rhmargin="582.753" style="fill:#171615;font-family:NEOHJJ+AdvOTcb6dfb9e;font-size:7.97px;font-style:NORMAL;font-weight:normal;">2,3,5,6,11, 3 month</text>
  <text x="85.039,89.271,92.586,96.069,99.385,101.537,103.44200000000001,106.071,109.889,113.707,117.524,121.342,139.01,140.42,142.572,145.888,149.371,180.112,183.93,187.74800000000002,204.546,206.698,210.014,213.497,214.907,217.809,221.124,224.36,227.676,229.086,232.569,235.885,238.504,242.322,246.139,249.95700000000002,250.919,256.315,259.798" y="252.97000000000003" svg_rhmargin="261.703" style="fill:#171615;font-family:NEOHJJ+AdvOTcb6dfb9e;font-size:7.97px;font-style:NORMAL;font-weight:normal;">Nader, 2016 Iran 20 ropivacaine 200 mg,</text>
  <text x="212.485,217.88,221.196,223.348,226.831,230.314,231.725,235.208,238.524,241.17,244.988,245.932,251.328,254.811" y="262.948" svg_rhmargin="256.716" style="fill:#171615;font-family:NEOHJJ+AdvOTcb6dfb9e;font-size:7.97px;font-style:NORMAL;font-weight:normal;">morphine 4 mg,</text>
  <text x="212.485,215.72,219.036,220.941,224.257,226.408,229.724,231.135,234.45,237.68599999999998,240.32,244.137,247.955,248.937,254.333,257.816" y="272.92600000000004" svg_rhmargin="259.721" style="fill:#171615;font-family:NEOHJJ+AdvOTcb6dfb9e;font-size:7.97px;font-style:NORMAL;font-weight:normal;">ketorolac 30 mg,</text>
  <text svg_rhmargin="251.093" x="212.485,215.72,217.131,220.447,223.93,225.34,228.823,230.234,233.717,237.03300000000002,239.64,243.457,247.275,251.09300000000002" y="282.847" style="fill:#171615;font-family:NEOHJJ+AdvOTcb6dfb9e;font-size:7.97px;font-style:NORMAL;font-weight:normal;">clonidine 100 </text>
  <text x="252.057" y="282.847" svg_rhmargin="257.365" style="fill:#171615;font-family:NEOHJK+AdvP7DA6;font-size:7.97px;font-style:NORMAL;font-weight:normal;">m</text>
  <text x="257.385,260.868,262.77299999999997,265.435,268.751,272.234" y="282.847" svg_rhmargin="275.717" style="fill:#171615;font-family:NEOHJJ+AdvOTcb6dfb9e;font-size:7.97px;font-style:NORMAL;font-weight:normal;">g, and</text>
  <text svg_rhmargin="268.474" x="212.485,215.8,219.283,220.694,224.177,227.492,230.975,234.458,236.61,238.021,241.504,244.82,247.462,251.28,253.185,257.003,259.595,264.991,268.474" y="252.97000000000003" style="fill:#171615;font-family:NEOHJJ+AdvOTcb6dfb9e;font-size:7.97px;font-style:NORMAL;font-weight:normal;">epinephrine 0.5 mg </text>
  <text x="302.91,306.727,310.54499999999996,325.417,329.234,333.05199999999996,335.678,341.074,344.39,347.017,350.332,352.23699999999997,354.897,358.38,361.863,365.346,366.757,369.658,372.973,376.209,379.525,380.936,384.419" y="252.97000000000003" svg_rhmargin="387.735" style="fill:#171615;font-family:NEOHJJ+AdvOTcb6dfb9e;font-size:7.97px;font-style:NORMAL;font-weight:normal;">20 10 mL of bupivacaine</text>
  <text x="333.354,337.172,339.077,342.895,346.712,352.43399999999997,355.067,359.713,361.124,363.029,366.512,369.126,372.442,375.925,377.335,380.818,384.134,387.617,391.1,393.252,394.663,398.146" y="262.948" svg_rhmargin="401.462" style="fill:#171615;font-family:NEOHJJ+AdvOTcb6dfb9e;font-size:7.97px;font-style:NORMAL;font-weight:normal;">0.25% with epinephrine</text>
  <text svg_rhmargin="363.888" x="333.354,337.172,339.077,342.895,346.712,350.53,352.435,356.253,360.07,363.888" y="252.97000000000003" style="fill:#171615;font-family:NEOHJJ+AdvOTcb6dfb9e;font-size:7.97px;font-style:NORMAL;font-weight:normal;">1:300,000 </text>
  <text x="412.951,416.187,419.503,421.407,424.723,426.875,430.191,431.601,434.917,438.15299999999996,440.786,444.102,447.585,451.068,453.711,457.194,460.096,463.579,465.731,469.046,472.282,475.598,479.081,482.396,485.879,489.195,500.538,504.356,506.261,510.078,511.983,515.801,517.706,521.524,523.429,527.246,529.151,532.969,534.874,537.501,541.319,543.223,547.041,550.859,558.704,562.5219999999999,565.167,568.068,571.384,574.699" y="252.97000000000003" svg_rhmargin="576.851" style="fill:#171615;font-family:NEOHJJ+AdvOTcb6dfb9e;font-size:7.97px;font-style:NORMAL;font-weight:normal;">ketorolac and hydrocodone 2,3,4,6,7,8, 9,10 1 year</text>
  <text x="85.038,89.023,92.506,95.989,99.305,101.457,104.525,107.841,111.324,113.229,115.821,119.639,123.457,127.274,131.092,139.008,140.419,142.571,145.886,149.369,180.11,183.928,187.746,204.545,208.362,212.18,215.99800000000002,218.604,224.0,225.411,228.072,231.387,233.292,235.952,238.104,241.42,244.903,246.313,249.214,252.53,255.766,259.081,260.492,263.975,267.291,269.853,271.591" y="302.803" svg_rhmargin="275.409" style="fill:#171615;font-family:NEOHJJ+AdvOTcb6dfb9e;font-size:7.97px;font-style:NORMAL;font-weight:normal;">Andersen, 2013 Iran 20 100 ml of ropivacaine (2</text>
  <text x="212.484,217.88,221.363,223.515,228.91,230.321,232.058,234.706,238.022,241.505,244.988,247.632,250.948,254.431,255.842,259.325,262.64,266.123,269.606,271.758,273.086,276.569" y="312.724" svg_rhmargin="279.885" style="fill:#171615;font-family:NEOHJJ+AdvOTcb6dfb9e;font-size:7.97px;font-style:NORMAL;font-weight:normal;">mg/ml) and epinephrine</text>
  <text svg_rhmargin="221.857" x="212.484,214.221,218.039,221.857" y="322.702" style="fill:#171615;font-family:NEOHJJ+AdvOTcb6dfb9e;font-size:7.97px;font-style:NORMAL;font-weight:normal;">(10 </text>
  <text x="222.859" y="322.702" svg_rhmargin="228.167" style="fill:#171615;font-family:NEOHJK+AdvP7DA6;font-size:7.97px;font-style:NORMAL;font-weight:normal;">m</text>
  <text svg_rhmargin="242.31" x="228.131,231.614,233.766,239.162,240.572,242.309" y="302.803" style="fill:#171615;font-family:NEOHJJ+AdvOTcb6dfb9e;font-size:7.97px;font-style:NORMAL;font-weight:normal;">g/ml) </text>
  <text x="302.909,306.727,310.54499999999996,325.416,329.401,332.884,335.507,339.492,343.557,347.54200000000003,350.19,354.836,356.247,358.152,361.635,364.249,368.067,371.885,374.511,379.907" y="302.803" svg_rhmargin="383.223" style="fill:#171615;font-family:NEOHJJ+AdvOTcb6dfb9e;font-size:7.97px;font-style:NORMAL;font-weight:normal;">20 An ACB with 15 mL</text>
  <text x="333.354,336.836,340.152,341.563,345.046,348.114,351.43,354.498,357.107,360.423,362.328,364.987,367.139,370.455,373.938,375.349,378.25,381.565,384.801,388.117,389.528,393.01" y="312.724" svg_rhmargin="396.326" style="fill:#171615;font-family:NEOHJJ+AdvOTcb6dfb9e;font-size:7.97px;font-style:NORMAL;font-weight:normal;">boluses of ropivacaine</text>
  <text svg_rhmargin="401.036" x="333.354,335.091,338.909,340.814,344.632,347.3,352.696,356.179,358.331,363.726,367.042,368.779,371.394,373.299,377.945,379.356,382.592,385.90799999999996,388.514,391.997,395.313,396.724,398.135,401.036" y="302.803" style="fill:#171615;font-family:NEOHJJ+AdvOTcb6dfb9e;font-size:7.97px;font-style:NORMAL;font-weight:normal;">(7.5 mg/mL) twice daily </text>
  <text x="412.95,416.935,420.171,423.487,425.392,428.707,434.103,435.514,438.997,442.313,445.796,449.279,452.594,456.077,457.98199999999997,460.571,465.966,469.282,471.434,474.917,478.4,479.811,483.294,486.609" y="302.803" svg_rhmargin="488.514" style="fill:#171615;font-family:NEOHJJ+AdvOTcb6dfb9e;font-size:7.97px;font-style:NORMAL;font-weight:normal;">Acetaminophen, morphine,</text>
  <text svg_rhmargin="461.496" x="420.944,424.762,428.827,432.812,435.457,440.853,444.169,446.321,449.804,453.287,454.697,458.18,461.496" y="302.803" style="fill:#171615;font-family:NEOHJJ+AdvOTcb6dfb9e;font-size:7.97px;font-style:NORMAL;font-weight:normal;">PCA morphine </text>
  <text x="516.529,520.346,522.251,526.069,527.974,531.792,533.697,537.514,541.332,543.237,547.055,550.8729999999999,558.707,562.525,566.343,568.969" y="302.803" svg_rhmargin="572.452" style="fill:#171615;font-family:NEOHJJ+AdvOTcb6dfb9e;font-size:7.97px;font-style:NORMAL;font-weight:normal;">5,6,9,10,11 48 h</text>
  <text x="85.037,88.855,92.17,94.322,95.733,99.049,102.117,104.022,106.636,110.454,114.272,118.09,121.908,139.007,142.992,146.81,150.79500000000002,180.11,183.927,187.745,204.544,208.362,212.179,215.997,216.959,222.355,225.838,228.467,231.783,233.688,236.347,238.499,241.815,245.298,246.709,249.61,252.925,256.161,259.477,260.888,264.371,267.68699999999995,270.305,272.043,275.86,279.678" y="332.68" svg_rhmargin="283.496" style="fill:#171615;font-family:NEOHJJ+AdvOTcb6dfb9e;font-size:7.97px;font-style:NORMAL;font-weight:normal;">Perlas, 2013 USA 97 300 mg of ropivacaine (150</text>
  <text x="212.483,217.879,221.195,223.821,227.137,229.042,231.702,235.519,237.424,241.242" y="342.658" svg_rhmargin="246.965" style="fill:#171615;font-family:NEOHJJ+AdvOTcb6dfb9e;font-size:7.97px;font-style:NORMAL;font-weight:normal;">mL of 0.2%</text>
  <text x="212.483,214.635,217.951,221.434,222.844,225.745,229.061,232.297,235.613,237.023,240.506,243.822,245.559,247.464,250.069,253.887,257.705,258.686,264.082,267.565,270.194,273.51" y="352.579" svg_rhmargin="275.415" style="fill:#171615;font-family:NEOHJJ+AdvOTcb6dfb9e;font-size:7.97px;font-style:NORMAL;font-weight:normal;">ropivacaine), 30 mg of</text>
  <text x="212.483,215.719,219.035,220.939,224.255,226.407,229.723,231.133,234.449,237.685,239.59,242.245,245.561,249.044,252.52700000000002,255.171,258.989,260.894,264.712,265.659,271.055,274.538,277.168,280.483" y="362.557" svg_rhmargin="282.388" style="fill:#171615;font-family:NEOHJJ+AdvOTcb6dfb9e;font-size:7.97px;font-style:NORMAL;font-weight:normal;">ketorolac, and 0.6 mg of</text>
  <text svg_rhmargin="244.818" x="212.483,215.799,219.282,220.692,224.175,227.491,230.974,234.457,236.609,238.02,241.502,244.818" y="332.68" style="fill:#171615;font-family:NEOHJJ+AdvOTcb6dfb9e;font-size:7.97px;font-style:NORMAL;font-weight:normal;">epinephrine </text>
  <text x="299.11,302.928,306.746,310.56399999999996,325.415,329.4,332.883,335.506,339.491,343.556,347.541,350.189,354.836,356.246,358.151,361.634,364.248,368.066,371.88399999999996,374.51,379.906,383.222,385.848,389.164" y="332.68" svg_rhmargin="391.069" style="fill:#171615;font-family:NEOHJJ+AdvOTcb6dfb9e;font-size:7.97px;font-style:NORMAL;font-weight:normal;">101 An ACB with 20 mL of</text>
  <text x="333.353,337.17,339.075,342.893,348.61499999999995,351.267,353.419,356.735,360.218,361.629,364.53,367.845,371.081,374.397,375.808,379.291,382.60699999999997,385.225,386.636" y="342.658" svg_rhmargin="390.119" style="fill:#171615;font-family:NEOHJJ+AdvOTcb6dfb9e;font-size:7.97px;font-style:NORMAL;font-weight:normal;">0.5% ropivacaine in</text>
  <text svg_rhmargin="370.895" x="333.353,336.668,340.151,343.634,345.045,346.95,348.361,351.676,355.159,357.786,359.691,363.00699999999995,365.666,369.484,370.895" y="332.68" style="fill:#171615;font-family:NEOHJJ+AdvOTcb6dfb9e;font-size:7.97px;font-style:NORMAL;font-weight:normal;">addition to PI </text>
  <text x="412.95,416.935,420.171,423.486,425.391,428.707,434.102,435.513,438.996,442.312,445.795,449.278,452.593,456.076,457.981,460.57,463.806,467.121,468.532,471.848,475.084,478.399,481.3,482.711,486.194" y="332.68" svg_rhmargin="488.099" style="fill:#171615;font-family:NEOHJJ+AdvOTcb6dfb9e;font-size:7.97px;font-style:NORMAL;font-weight:normal;">Acetaminophen, celecoxib,</text>
  <text svg_rhmargin="456.848" x="420.944,424.259,427.742,429.153,432.469,433.879,437.362,440.431,442.33599999999996,444.98,448.798,452.863,456.848" y="332.68" style="fill:#171615;font-family:NEOHJJ+AdvOTcb6dfb9e;font-size:7.97px;font-style:NORMAL;font-weight:normal;">opioids, PCA </text>
  <text x="520.326,524.144,526.049,529.867,531.772,535.59,537.494,541.312,543.217,547.035,550.853,558.706,562.524,565.169,568.652,571.968,574.869" y="332.68" svg_rhmargin="577.938" style="fill:#171615;font-family:NEOHJJ+AdvOTcb6dfb9e;font-size:7.97px;font-style:NORMAL;font-weight:normal;">1,3,5,6,11 7 days</text>
  <text x="85.037,88.855,92.171,96.817,100.3,103.783,107.099,110.0,111.905,114.517,118.334,122.152,125.97,129.788,139.007,142.992,146.81,150.79500000000002,180.11,183.927,187.745,204.544,208.362,212.179,215.997,218.603,223.999,227.315,229.942,233.425,236.74,238.892,244.288,247.604,249.01500000000001,251.654,254.723,258.038,259.449,260.86,264.343" y="382.514" svg_rhmargin="267.659" style="fill:#171615;font-family:NEOHJJ+AdvOTcb6dfb9e;font-size:7.97px;font-style:NORMAL;font-weight:normal;">Sawhney, 2016 USA 49 110 mL normal saline</text>
  <text x="212.483,215.552,218.867,220.278,223.761,225.666,227.076,230.392,233.875,236.52,239.756,243.072,246.555,248.46,251.775,253.186,256.669,258.08,261.563,265.046,267.643,271.461,275.279" y="392.435" svg_rhmargin="279.097" style="fill:#171615;font-family:NEOHJJ+AdvOTcb6dfb9e;font-size:7.97px;font-style:NORMAL;font-weight:normal;">solution containing 300</text>
  <text x="212.483,217.879,221.362,223.991,226.143,229.459,232.942,234.352,237.254,240.569,243.805,247.121,248.531,252.014,255.33,257.235,259.876,263.694,267.512,268.494,273.889" y="402.413" svg_rhmargin="277.372" style="fill:#171615;font-family:NEOHJJ+AdvOTcb6dfb9e;font-size:7.97px;font-style:NORMAL;font-weight:normal;">mg ropivacaine, 10 mg</text>
  <text x="212.483,217.879,221.194,223.346,226.829,230.312,231.723,235.206,238.522,240.427,243.039,246.355,249.838,253.321,255.965,259.783,263.601,264.583,269.978" y="412.391" svg_rhmargin="273.461" style="fill:#171615;font-family:NEOHJJ+AdvOTcb6dfb9e;font-size:7.97px;font-style:NORMAL;font-weight:normal;">morphine, and 30 mg</text>
  <text svg_rhmargin="237.685" x="212.483,215.719,219.035,220.939,224.255,226.407,229.723,231.133,234.449,237.685" y="382.514" style="fill:#171615;font-family:NEOHJJ+AdvOTcb6dfb9e;font-size:7.97px;font-style:NORMAL;font-weight:normal;">ketorolac </text>
  <text x="302.908,306.726,310.544,325.415,329.4,332.883,335.506,339.491,343.556,347.541,350.189,354.836,356.246,358.151,361.634,364.248,368.066,371.88399999999996,374.51,379.906,383.222,385.848,389.164" y="382.514" svg_rhmargin="391.069" style="fill:#171615;font-family:NEOHJJ+AdvOTcb6dfb9e;font-size:7.97px;font-style:NORMAL;font-weight:normal;">50 An ACB with 30 mL of</text>
  <text x="333.353,337.17,339.075,342.893,348.61499999999995,351.267,353.419,356.735,360.218,361.629,364.53,367.845,371.081,374.397,375.808,379.291,382.60699999999997,385.225,386.636" y="392.435" svg_rhmargin="390.119" style="fill:#171615;font-family:NEOHJJ+AdvOTcb6dfb9e;font-size:7.97px;font-style:NORMAL;font-weight:normal;">0.5% ropivacaine in</text>
  <text x="333.353,336.668,340.151,343.634,345.045,346.95,348.361,351.676,355.159,357.786,359.691,363.00699999999995,365.666,367.077,370.56,372.465,374.617,377.933,381.248,384.731,388.047,390.199,393.514,395.419,396.83,399.731" y="402.413" svg_rhmargin="403.047" style="fill:#171615;font-family:NEOHJJ+AdvOTcb6dfb9e;font-size:7.97px;font-style:NORMAL;font-weight:normal;">addition to intraoperative</text>
  <text svg_rhmargin="338.581" x="333.353,337.17,338.581" y="382.514" style="fill:#171615;font-family:NEOHJJ+AdvOTcb6dfb9e;font-size:7.97px;font-style:NORMAL;font-weight:normal;">PI </text>
  <text x="412.95,416.935,420.171,423.486,425.391,428.707,434.102,435.513,438.996,442.312,445.795,449.278,452.593,456.076,457.981,460.57,463.806,467.121,468.532,471.848,475.084,478.399,481.3,482.711,486.194" y="382.514" svg_rhmargin="488.099" style="fill:#171615;font-family:NEOHJJ+AdvOTcb6dfb9e;font-size:7.97px;font-style:NORMAL;font-weight:normal;">Acetaminophen, celecoxib,</text>
  <text x="420.944,424.427,427.742,431.225,434.541,438.024,441.339,444.822,446.727,448.138,451.621" y="392.435" svg_rhmargin="453.526" style="fill:#171615;font-family:NEOHJJ+AdvOTcb6dfb9e;font-size:7.97px;font-style:NORMAL;font-weight:normal;">gabapentin,</text>
  <text x="420.944,424.427,427.328,430.811,432.963,436.278,441.674,444.99,447.142,450.625,454.108,457.423,460.906,464.222,466.807,470.624,474.689" y="402.413" svg_rhmargin="478.674" style="fill:#171615;font-family:NEOHJJ+AdvOTcb6dfb9e;font-size:7.97px;font-style:NORMAL;font-weight:normal;">hydromorphone PCA</text>
  <text svg_rhmargin="464.222" x="420.944,424.427,427.328,430.811,432.963,436.278,441.674,444.99,447.142,450.625,454.108,457.423,460.906,464.222" y="382.514" style="fill:#171615;font-family:NEOHJJ+AdvOTcb6dfb9e;font-size:7.97px;font-style:NORMAL;font-weight:normal;">hydromorphone </text>
  <text x="514.657,518.475,520.38,524.198,526.103,529.92,531.825,535.643,537.548,541.366,543.173,546.99,550.808,558.707,562.524,566.342,568.968" y="382.514" svg_rhmargin="572.451" style="fill:#171615;font-family:NEOHJJ+AdvOTcb6dfb9e;font-size:7.97px;font-style:NORMAL;font-weight:normal;">1,2,3,5,8,11 48 h</text>
  <text svg_rhmargin="95.571" x="85.039,88.527,92.084,95.571" y="438.016" style="fill:#171615;font-family:NEOHJJ+AdvOTcb6dfb9e;font-size:6.97px;font-style:NORMAL;font-weight:normal;">ACB </text>
  <text x="96.435" y="438.016" svg_rhmargin="101.156" style="fill:#171615;font-family:NENOCH+AdvOTb0c9bf5d;font-size:6.97px;font-style:NORMAL;font-weight:normal;">=</text>
  <text svg_rhmargin="162.546" x="102.047,104.948,107.996,111.043,114.091,116.922,118.589,121.49,123.37299999999999,125.006,127.837,130.738,133.786,136.687,137.92100000000002,139.461,142.508,143.743,146.644,149.475,152.307,153.974,155.503,159.206,162.547" y="438.016" style="fill:#171615;font-family:NEOHJJ+AdvOTcb6dfb9e;font-size:6.97px;font-style:NORMAL;font-weight:normal;">adductor canal block, NS </text>
  <text x="163.446" y="438.016" svg_rhmargin="168.167" style="fill:#171615;font-family:NENOCH+AdvOTb0c9bf5d;font-size:6.97px;font-style:NORMAL;font-weight:normal;">=</text>
  <text svg_rhmargin="206.71" x="169.058,172.106,175.007,176.674,178.242,180.927,182.594,185.495,187.162,190.063,193.11,194.77700000000002,196.326,199.666,203.223,206.71" y="438.016" style="fill:#171615;font-family:NEOHJJ+AdvOTcb6dfb9e;font-size:6.97px;font-style:NORMAL;font-weight:normal;">not stated, PCA </text>
  <text x="207.61" y="438.016" svg_rhmargin="212.331" style="fill:#171615;font-family:NENOCH+AdvOTb0c9bf5d;font-size:6.97px;font-style:NORMAL;font-weight:normal;">=</text>
  <text svg_rhmargin="290.357" x="213.222,216.27,219.171,220.837,222.072,224.973,228.02,229.687,231.249,234.08,236.981,240.029,241.695,243.663,246.564,247.799,249.033,251.934,254.982,256.532,259.433,262.481,265.382,268.067,269.733,272.781,275.682,278.367,279.601,282.503,284.16999999999996,285.783,289.123,290.35699999999997" y="438.016" style="fill:#171615;font-family:NEOHJJ+AdvOTcb6dfb9e;font-size:6.97px;font-style:NORMAL;font-weight:normal;">patient controlled anesthesia, PI </text>
  <text x="291.232" y="438.016" svg_rhmargin="295.953" style="fill:#171615;font-family:NENOCH+AdvOTb0c9bf5d;font-size:6.97px;font-style:NORMAL;font-weight:normal;">=</text>
  <text x="296.844,299.892,302.793,304.676,305.91,308.156,311.057,312.94,314.606,315.841,318.672,321.72,322.954,325.855,327.738,329.326,330.56" y="438.016" svg_rhmargin="333.608" style="fill:#171615;font-family:NEOHJJ+AdvOTcb6dfb9e;font-size:6.97px;font-style:NORMAL;font-weight:normal;">peri-articular in</text>
  <text x="333.638" y="438.016" svg_rhmargin="336.539" style="fill:#171615;font-family:NEOHKK+AdvOTcb6dfb9e+fb;font-size:6.97px;font-style:NORMAL;font-weight:normal;">ﬁ</text>
  <text svg_rhmargin="393.941" x="336.529,337.764,339.43,341.313,344.214,345.881,347.116,350.017,353.065,354.67,357.571,360.618,363.519,366.204,367.871,370.918,373.82,376.504,377.739,380.64,382.30699999999996,383.92,387.114,390.601,393.942" y="438.016" style="fill:#171615;font-family:NEOHJJ+AdvOTcb6dfb9e;font-size:6.97px;font-style:NORMAL;font-weight:normal;">ltration anesthesia, VAS </text>
  <text svg_rhmargin="400.211" x="395.49,400.211" y="438.016" style="fill:#171615;font-family:NENOCH+AdvOTb0c9bf5d;font-size:6.97px;font-style:NORMAL;font-weight:normal;">= </text>
  <text x="401.726,404.264,405.499,408.184,411.231,414.132,415.366,416.918,419.819,422.867,425.768,427.002,429.904,432.951,436.079,438.98,440.501,443.186,446.017,448.918,450.153,453.054,454.72099999999995,456.317,459.657,461.32399999999996,462.836,466.03,469.517,472.858,474.401,478.466,479.701,481.367,484.415,485.965,487.848,490.749,493.434,495.101,496.679,499.58,501.24699999999996,502.745,506.086,506.997,510.045,511.712,513.234,516.575,518.2420000000001,519.811,523.005,526.491,529.832,531.375,535.441,536.675,538.342,541.39,542.94,544.823,547.724,550.409,552.076,553.597,556.498,558.1650000000001,559.72,563.06,566.401,567.316,570.364,572.0310000000001,573.552,576.893,578.5600000000001,580.071,583.265,586.818" y="438.016" svg_rhmargin="590.158" style="fill:#171615;font-family:NEOHJJ+AdvOTcb6dfb9e;font-size:6.97px;font-style:NORMAL;font-weight:normal;">visual analogue scale; 1, VAS with rest at 8 h; 2, VAS with rest at 24 h; 3, VAS</text>
  <text x="85.039,89.105,90.339,92.006,95.054,96.774,98.657,101.558,104.243,105.91,107.658,110.559,112.226,113.951,117.291,120.63199999999999,121.491,124.538,126.205,127.953,131.294,132.961,134.7,137.894,141.381,144.722,146.435,150.501,151.735,153.402,156.45,158.17,162.891,165.792,168.84,170.074,171.309,172.543,175.006,177.907,179.574,180.808,183.71,186.758,188.498,191.4,193.067,194.791,198.132,198.986,202.034,203.701,205.449,208.789,210.456,212.138,215.332,218.819,222.16,223.873,227.939,229.173,230.84,233.888,235.664,240.386,243.287,246.334,247.569,248.803,250.037,252.429,255.33,256.997,258.232,261.133,264.181,265.936,268.837,270.50399999999996,272.228,275.568,278.909,279.825,282.872,284.539,286.231,289.571,291.238,292.977,296.171,299.658,302.999,304.712,308.778,310.012,311.679,314.727,316.447,321.168,324.069,327.117,328.351,329.655,330.89,333.282,336.183,337.849,339.084,341.985,345.033,346.775,349.676,351.34299999999996,353.068,356.408,359.749,360.608,363.655,365.32199999999995,367.07,370.411,372.078,373.76,376.807,379.708,381.375,384.276,385.51,387.252,391.973,394.874,396.832,399.88,402.927,404.162,407.209,410.11,411.855,414.686,417.587,420.635,423.32,426.367,431.088,434.136,435.803,437.037,439.938,442.986,444.734,447.635,449.30199999999996,451.026,454.367,457.708,458.623,461.671,463.33799999999997,465.029,468.393,470.05999999999995,471.799,474.847,477.748,479.415,482.316,483.54999999999995,485.291,490.012,492.913,494.796,497.844,500.891,502.126,505.173,508.074,509.837,512.669,515.57,518.617,521.302,524.35,529.071,532.119,533.785,535.02,538.011,541.059,542.774,545.675,547.342,549.066,552.407,555.748,556.607,559.655,561.322,563.07,566.41,568.077,569.759,572.807,574.042,576.727,578.393,581.294,584.342,587.173" y="446.974" svg_rhmargin="590.074" style="fill:#171615;font-family:NEOHJJ+AdvOTcb6dfb9e;font-size:6.97px;font-style:NORMAL;font-weight:normal;">with rest at 48 h; 4, VAS with mobilization at 8 h; 5, VAS with mobilization at 24 h; 6, VAS with mobilization at 48 h; 7, Total morphine consumption at 24 h; 8, Total morphine consumption at 72 h; 9, distance</text>
  <text x="85.039,89.105,92.006,93.241,96.072,98.973,102.021,104.37,107.271,108.938,111.286,114.626,117.967,118.883,121.93,123.59700000000001,125.912,129.253,132.593,134.26,136.627,139.674,140.909,143.593,145.26,148.161,151.209,154.04,156.941,159.302,163.368,166.269,167.503,170.335,173.236,176.284,178.633,181.534,183.201,185.549,188.889,192.23000000000002,193.145,196.193,197.86,200.175,203.515,206.856,208.523,210.889,212.124,215.025,218.072,221.12,222.787,225.835,228.179,231.081,232.748,235.096,238.144,241.045,243.73,246.777,248.011,249.678,252.579,253.81300000000002,256.184,258.869,260.536,263.437,265.975" y="455.988" svg_rhmargin="267.642" style="fill:#171615;font-family:NEOHJJ+AdvOTcb6dfb9e;font-size:6.97px;font-style:NORMAL;font-weight:normal;">walked at 24 h; 10, distance walked at 48 h; 11, length of hospital stay.</text>
  <path d=" M 85.03900146484375 317.5369873046875 L 590.115966796875 317.5369873046875 L 590.115966796875 318.27398681640625 L 85.03900146484375 318.27398681640625 Z " style="fill:none;stroke:#000000;stroke-width:1.0;"/>
  <path d=" M 85.03900146484375 93.48699951171875 L 590.115966796875 93.48699951171875 L 590.115966796875 94.2239990234375 L 85.03900146484375 94.2239990234375 Z " style="fill:none;stroke:#000000;stroke-width:1.0;"/>
  <path d="M292.082 93.606 L196.667 93.606 L196.667 93.096 L292.082 93.096 M103.237 489.549 L571.974 489.549 L571.974 687.464 L103.237 687.464 " style="fill:none;stroke:#000000;stroke-width:1.0;"/>
  <rect style="stroke:blue;stroke-width:0.3;" x="103.238" y="489.55" height="197.915" width="469.036" title="3"/>
  <text x="103.238" y="489.55" class="image" id="image.3.1" width="469" height="197">image.3.1.103_572.490_687</text>
  <text svg_rhmargin="275.661" x="245.537,249.894,251.68,256.037,260.312,262.875,267.0,269.52,273.644,275.661" y="698.463" style="fill:#171615;font-family:NENOIN+AdvOTf94803d4;font-size:7.47px;font-style:NORMAL;font-weight:normal;">Figure 2. </text>
  <text x="279.383,283.507,287.475,291.286,293.838,296.17,297.492,301.071,304.807,307.274,311.399,313.267,315.778,320.052,321.374,325.185,328.764,331.254,335.379,337.71,341.52,345.794,349.762,352.286,354.154,358.278,360.60900000000004,363.113,365.287,369.255,373.066,375.585,376.908,380.875,384.686,386.008,389.976,394.25,398.06,402.334,404.893,408.472,410.646,414.614,418.888,420.21,424.021,427.6" y="698.463" svg_rhmargin="429.617" style="fill:#171615;font-family:NENOCD+AdvOT6e5d2ec0;font-size:7.47px;font-style:NORMAL;font-weight:normal;">The risk of bias graph for the included studies.</text>
  <text x="85.039,89.272,90.683,93.316,97.381,99.7,102.331,106.396,107.806,109.958,112.649,119.2,123.265,127.824,129.235,133.3,134.71,138.943,143.008,145.587,147.492,151.891,156.291,160.69,165.09,166.995,169.623,174.023,178.422,180.574,184.974,189.373,517.041,522.931,528.821,534.711,536.863,543.414,547.973,550.874,552.285,556.685,560.917,563.3,567.532,571.597,573.008,575.16,579.224,583.624" y="9.870999999999981" svg_rhmargin="590.176" style="fill:#171615;font-family:NENOCD+AdvOT6e5d2ec0;font-size:7.97px;font-style:NORMAL;font-weight:normal;">Li et al. Medicine (2018) 97:49 www.md-journal.com</text>
  <text x="335.396" y="739.625" svg_rhmargin="339.796" style="fill:#171615;font-family:NENOIN+AdvOTf94803d4;font-size:7.97px;font-style:NORMAL;font-weight:normal;">3</text>
 </g>
</svg>
