<?xml version="1.0" encoding="UTF-8"?>
<svg height="701.203" width="775.3217471675" xmlns="http://www.w3.org/2000/svg">
 <g style="fill:none;">
  <text svg_rhmargin="102.103" x="76.272,81.588,85.127,89.558,92.802,95.902,99.003,102.103" y="267.703" style="fill:#000000;font-family:AKYTAJ+URWPalladioL-Ital;font-size:7.97px;font-style:italic;font-weight:normal;">Cancers </text>
  <text x="104.096,108.081,112.066,116.051" y="267.703" svg_rhmargin="120.036" style="fill:#000000;font-family:DPYECX+URWPalladioL-Bold;font-size:7.97px;font-style:NORMAL;font-weight:BOLD;">2019</text>
  <text svg_rhmargin="122.029" x="120.036,122.029" y="267.703" style="fill:#000000;font-family:MSSLTZ+URWPalladioL-Roma;font-size:7.97px;font-style:NORMAL;font-weight:normal;">, </text>
  <text x="124.021,128.006" y="267.703" svg_rhmargin="131.991" style="fill:#000000;font-family:AKYTAJ+URWPalladioL-Ital;font-size:7.97px;font-style:italic;font-weight:normal;">11</text>
  <text x="131.991,133.984,135.976,139.961,143.94600000000003,742.409,746.394,748.387,752.738,755.392,757.385,761.37" y="267.703" svg_rhmargin="765.355" style="fill:#000000;font-family:MSSLTZ+URWPalladioL-Roma;font-size:7.97px;font-style:NORMAL;font-weight:normal;">, 47 9 of 27</text>
  <text svg_rhmargin="425.012" x="393.629,398.614,403.098,408.576,411.562,416.045,418.287,422.77,425.012" y="301.585" style="fill:#000000;font-family:DPYECX+URWPalladioL-Bold;font-size:8.97px;font-style:NORMAL;font-weight:BOLD;">Table 2. </text>
  <text x="427.791,433.772,437.753,442.738" y="301.585" svg_rhmargin="445.724" style="fill:#000000;font-family:AKYTAJ+URWPalladioL-Ital;font-size:8.97px;font-style:italic;font-weight:normal;">Cont</text>
  <text x="445.723" y="301.585" svg_rhmargin="447.965" style="fill:#000000;font-family:MSSLTZ+URWPalladioL-Roma;font-size:8.97px;font-style:NORMAL;font-weight:normal;">.</text>
  <text svg_rhmargin="91.316" x="83.254,88.089,91.316" y="320.134" style="fill:#000000;font-family:DPYECX+URWPalladioL-Bold;font-size:8.97px;font-style:NORMAL;font-weight:BOLD;">No </text>
  <text svg_rhmargin="95.024" x="92.767,95.024" y="322.241" style="fill:#000000;font-family:DPYECX+URWPalladioL-Bold;font-size:6.97px;font-style:NORMAL;font-weight:BOLD;">a </text>
  <text svg_rhmargin="190.711" x="110.352,114.542,119.058,123.248,124.699,128.57,130.021,133.37,136.597,140.143,143.045,173.944,177.815,180.717,183.294,185.226,188.453,190.711" y="318.694" style="fill:#000000;font-family:DPYECX+URWPalladioL-Bold;font-size:8.97px;font-style:NORMAL;font-weight:BOLD;">CAR T Type Vector </text>
  <text x="224.27,228.14100000000002,229.592,233.782,236.684,238.617" y="318.694" svg_rhmargin="240.55" style="fill:#000000;font-family:DPYECX+URWPalladioL-Bold;font-size:8.97px;font-style:NORMAL;font-weight:BOLD;">T Cell</text>
  <text svg_rhmargin="241.275" x="223.544,228.379,230.637,232.569,235.796,237.729,241.275" y="322.241" style="fill:#000000;font-family:DPYECX+URWPalladioL-Bold;font-size:8.97px;font-style:NORMAL;font-weight:BOLD;">Origin </text>
  <text svg_rhmargin="289.936" x="257.22,261.41,264.312,266.245,268.178,269.628,273.819,277.365,279.298,281.23,284.776,287.034,289.936" y="318.694" style="fill:#000000;font-family:DPYECX+URWPalladioL-Bold;font-size:8.97px;font-style:NORMAL;font-weight:BOLD;">Cell Culture </text>
  <text x="301.1,304.327,306.584,309.486,313.032,315.609,317.867,320.769,323.346,325.278,327.211,330.438" y="318.694" svg_rhmargin="333.984" style="fill:#000000;font-family:DPYECX+URWPalladioL-Bold;font-size:8.97px;font-style:NORMAL;font-weight:BOLD;">Transfection</text>
  <text svg_rhmargin="328.02" x="307.063,312.867,315.769,317.701,321.248,324.474,328.02" y="322.241" style="fill:#000000;font-family:DPYECX+URWPalladioL-Bold;font-size:8.97px;font-style:NORMAL;font-weight:BOLD;">Method </text>
  <text svg_rhmargin="392.706" x="348.213,352.084,353.535,357.726,360.628,362.56,364.493,365.944,369.171,371.429,374.33,377.232,379.165,384.325,387.226,390.773,392.706" y="318.694" style="fill:#000000;font-family:DPYECX+URWPalladioL-Bold;font-size:8.97px;font-style:NORMAL;font-weight:BOLD;">T Cell Treatment </text>
  <text x="405.266,409.456,413.972,418.162,419.613,423.484,424.935,429.125,432.027,433.96" y="318.694" svg_rhmargin="435.893" style="fill:#000000;font-family:DPYECX+URWPalladioL-Bold;font-size:8.97px;font-style:NORMAL;font-weight:BOLD;">CAR T Cell</text>
  <text svg_rhmargin="435.406" x="405.754,409.3,412.202,414.46,417.037,418.969,421.546,423.479,426.381,429.927,432.504,435.406" y="322.241" style="fill:#000000;font-family:DPYECX+URWPalladioL-Bold;font-size:8.97px;font-style:NORMAL;font-weight:BOLD;">Persistence </text>
  <text svg_rhmargin="535.421" x="448.37,453.204,455.137,458.039,461.266,464.812,468.039,470.616,472.548,475.125,486.199,489.315,492.542,497.702,501.248,504.794,508.021,509.954,513.5,516.402,519.948,521.88,524.782,526.715,528.648,531.875,535.421" y="322.442" style="fill:#000000;font-family:DPYECX+URWPalladioL-Bold;font-size:8.97px;font-style:NORMAL;font-weight:BOLD;">Diagnosis Lympho-depletion </text>
  <text svg_rhmargin="567.602" x="554.062,558.896,562.123,564.7,567.6020000000001" y="320.335" style="fill:#000000;font-family:DPYECX+URWPalladioL-Bold;font-size:8.97px;font-style:NORMAL;font-weight:BOLD;">Dose </text>
  <text svg_rhmargin="571.811" x="569.053,571.811" y="322.241" style="fill:#000000;font-family:DPYECX+URWPalladioL-Bold;font-size:6.97px;font-style:NORMAL;font-weight:BOLD;">b </text>
  <text svg_rhmargin="626.956" x="598.912,603.102,606.004,608.581,612.127,615.354,618.9,621.477,624.379,626.956" y="322.442" style="fill:#000000;font-family:DPYECX+URWPalladioL-Bold;font-size:8.97px;font-style:NORMAL;font-weight:BOLD;">Responses </text>
  <text svg_rhmargin="701.053" x="669.73,673.276,675.208,678.754,681.6560000000001,683.107,686.653,688.807,691.064,693.966,696.543,698.476,701.053" y="320.335" style="fill:#000000;font-family:DPYECX+URWPalladioL-Bold;font-size:8.97px;font-style:NORMAL;font-weight:BOLD;">Side Effects </text>
  <text svg_rhmargin="705.261" x="702.503,705.2610000000001" y="322.241" style="fill:#000000;font-family:DPYECX+URWPalladioL-Bold;font-size:6.97px;font-style:NORMAL;font-weight:BOLD;">d </text>
  <text x="746.753,750.944,753.846" y="322.241" svg_rhmargin="756.104" style="fill:#000000;font-family:DPYECX+URWPalladioL-Bold;font-size:8.97px;font-style:NORMAL;font-weight:BOLD;">Ref</text>
  <text svg_rhmargin="143.386" x="84.947,87.849,90.751,93.653,110.008,114.123,118.615,121.517,124.419,125.87,129.985,134.5,138.377,139.828,143.386" y="339.67" style="fill:#000000;font-family:MSSLTZ+URWPalladioL-Roma;font-size:8.97px;font-style:NORMAL;font-weight:normal;">133 CD19 CAR T </text>
  <text x="156.702,158.618,161.781,164.943,167.787,171.234,175.266,179.669,182.513,185.356,188.803,191.647,193.541,196.385,199.86,203.335,206.782,210.815,215.217" y="339.67" svg_rhmargin="218.061" style="fill:#000000;font-family:MSSLTZ+URWPalladioL-Roma;font-size:8.97px;font-style:NORMAL;font-weight:normal;">Igg4+CD28+4-1BB+CD3</text>
  <text svg_rhmargin="423.967" x="217.265,221.781,225.28,227.172,230.341,232.03,235.199,238.426,241.595,245.094,247.555,263.881,266.783,269.685,271.136,274.682,277.584,280.811,283.272,304.972,308.518,311.298,314.676,316.568,318.257,321.536,323.225,325.517,328.419,330.108,347.566,351.681,356.173,359.075,362.592,366.707,371.199,374.101,377.003,378.454,381.663,384.443,387.345,390.891,393.35200000000003,417.188,422.011,423.96700000000004" y="336.124" style="fill:#000000;font-family:MSSLTZ+URWPalladioL-Roma;font-size:8.97px;font-style:NORMAL;font-weight:normal;">Autologous 15 days Lentiviral CD3/CD28 beads NI </text>
  <text x="445.787,449.333,451.266,455.781,459.327,462.873,464.324,465.775,469.89,473.436,476.982" y="336.124" svg_rhmargin="478.433" style="fill:#000000;font-family:MSSLTZ+URWPalladioL-Roma;font-size:8.97px;font-style:NORMAL;font-weight:normal;">B-ALL, CLL,</text>
  <text svg_rhmargin="468.346" x="455.148,459.971,464.8,468.346" y="339.67" style="fill:#000000;font-family:MSSLTZ+URWPalladioL-Roma;font-size:8.97px;font-style:NORMAL;font-weight:normal;">NHL </text>
  <text svg_rhmargin="520.882" x="498.091,501.318,504.864,509.379,512.896,517.011,520.882" y="336.258" style="fill:#000000;font-family:MSSLTZ+URWPalladioL-Roma;font-size:8.97px;font-style:NORMAL;font-weight:normal;">FLU+CY </text>
  <text svg_rhmargin="545.515" x="542.613,545.5150000000001" y="336.258" style="fill:#000000;font-family:MSSLTZ+URWPalladioL-Roma;font-size:8.97px;font-style:NORMAL;font-weight:normal;">2 </text>
  <text svg_rhmargin="551.743" x="547.039,551.7429999999999" y="336.258" style="fill:#000000;font-family:AMYXWN+CMSY10;font-size:9.34px;font-style:NORMAL;font-weight:normal;">× </text>
  <text x="553.263,556.165" y="336.258" svg_rhmargin="559.067" style="fill:#000000;font-family:MSSLTZ+URWPalladioL-Roma;font-size:8.97px;font-style:NORMAL;font-weight:normal;">10</text>
  <text x="559.067" y="334.151" svg_rhmargin="561.324" style="fill:#000000;font-family:MSSLTZ+URWPalladioL-Roma;font-size:6.97px;font-style:NORMAL;font-weight:normal;">5</text>
  <text svg_rhmargin="567.45" x="561.646,564.548,567.45" y="336.258" style="fill:#000000;font-family:MSSLTZ+URWPalladioL-Roma;font-size:8.97px;font-style:NORMAL;font-weight:normal;">–2 </text>
  <text svg_rhmargin="573.678" x="568.974,573.678" y="336.258" style="fill:#000000;font-family:AMYXWN+CMSY10;font-size:9.34px;font-style:NORMAL;font-weight:normal;">× </text>
  <text x="575.198,578.1" y="336.258" svg_rhmargin="581.002" style="fill:#000000;font-family:MSSLTZ+URWPalladioL-Roma;font-size:8.97px;font-style:NORMAL;font-weight:normal;">10</text>
  <text x="581.002" y="334.151" svg_rhmargin="583.259" style="fill:#000000;font-family:MSSLTZ+URWPalladioL-Roma;font-size:6.97px;font-style:NORMAL;font-weight:normal;">6</text>
  <text svg_rhmargin="573.681" x="552.514,555.091,557.871,559.56,561.249,563.71,567.227,570.454,573.6809999999999" y="339.67" style="fill:#000000;font-family:MSSLTZ+URWPalladioL-Roma;font-size:8.97px;font-style:NORMAL;font-weight:normal;">cells/kg </text>
  <text x="609.544,614.367,616.323,674.157,678.272,682.143,685.19,686.6410000000001,688.092,690.025,692.805,696.084,698.864,701.157,746.595,748.527,751.429,754.331" y="339.67" svg_rhmargin="756.264" style="fill:#000000;font-family:MSSLTZ+URWPalladioL-Roma;font-size:8.97px;font-style:NORMAL;font-weight:normal;">NI CRS, fever [56]</text>
  <text svg_rhmargin="528.751" x="86.398,89.3,92.202,110.008,114.123,118.615,121.517,124.419,125.869,129.984,134.5,138.377,139.828,143.386,167.61,171.725,176.217,179.119,182.021,185.538,189.653,194.145,197.047,217.267,221.783,225.282,227.174,230.343,232.032,235.201,238.428,241.597,245.096,247.55700000000002,270.186,275.009,276.96500000000003,304.005,307.882,310.662,312.554,314.742,317.911,321.19,322.879,325.125,328.619,331.08000000000004,347.568,351.683,356.175,359.077,362.594,366.709,371.201,374.103,377.005,378.456,381.665,384.445,387.347,390.893,393.354,406.534,409.436,412.338,415.24,418.142,421.044,422.495,426.041,428.943,432.17,434.63100000000003,453.203,456.749,458.681,463.197,466.743,470.289,490.225,494.34,497.718,500.498,505.622,508.791,510.683,514.061,516.841,519.134,522.035,525.524,528.751" y="357.674" style="fill:#000000;font-family:MSSLTZ+URWPalladioL-Roma;font-size:8.97px;font-style:NORMAL;font-weight:normal;">53 CD19 CAR T CD28+CD3 Autologous NI Retrovirus CD3/CD28 beads 7–138 days B-ALL Chemotherapy </text>
  <text svg_rhmargin="545.174" x="542.272,545.1740000000001" y="357.674" style="fill:#000000;font-family:MSSLTZ+URWPalladioL-Roma;font-size:8.97px;font-style:NORMAL;font-weight:normal;">1 </text>
  <text svg_rhmargin="551.402" x="546.698,551.4019999999999" y="357.674" style="fill:#000000;font-family:AMYXWN+CMSY10;font-size:9.34px;font-style:NORMAL;font-weight:normal;">× </text>
  <text x="552.922,555.824" y="357.674" svg_rhmargin="558.726" style="fill:#000000;font-family:MSSLTZ+URWPalladioL-Roma;font-size:8.97px;font-style:NORMAL;font-weight:normal;">10</text>
  <text svg_rhmargin="560.983" x="558.726,560.983" y="357.674" style="fill:#000000;font-family:MSSLTZ+URWPalladioL-Roma;font-size:6.97px;font-style:NORMAL;font-weight:normal;">6 </text>
  <text svg_rhmargin="583.922" x="562.756,565.333,568.113,569.802,571.491,573.952,577.469,580.695,583.922" y="350.445" style="fill:#000000;font-family:MSSLTZ+URWPalladioL-Roma;font-size:8.97px;font-style:NORMAL;font-weight:normal;">cells/kg </text>
  <text x="596.971,599.872,602.774,604.225,608.34,612.217,613.668,615.119,618.0210000000001,619.472,624.295,628.172" y="350.445" svg_rhmargin="629.623" style="fill:#000000;font-family:MSSLTZ+URWPalladioL-Roma;font-size:8.97px;font-style:NORMAL;font-weight:normal;">44 CR, 8 NR,</text>
  <text x="603.996,606.898,608.349,612.841,614.53,617.31,620.856" y="357.539" svg_rhmargin="622.307" style="fill:#000000;font-family:MSSLTZ+URWPalladioL-Roma;font-size:8.97px;font-style:NORMAL;font-weight:normal;">1 Died,</text>
  <text svg_rhmargin="626.55" x="599.318,602.22,605.1220000000001,606.573,610.45,613.23,614.919,617.821,621.309,623.77,626.55" y="357.539" style="fill:#000000;font-family:MSSLTZ+URWPalladioL-Roma;font-size:8.97px;font-style:NORMAL;font-weight:normal;">25 Relapse </text>
  <text x="649.967,654.082,657.959,661.006,662.457,663.908,666.369,670.484,674.361,677.408,678.859,680.31,683.687,686.467,689.967,692.155,695.324,697.216,700.385,703.38,705.068,707.645,709.096,711.876,713.705,715.637,718.417,720.994,722.886,725.347,746.595,748.527,751.429,754.331" y="357.539" svg_rhmargin="756.264" style="fill:#000000;font-family:MSSLTZ+URWPalladioL-Roma;font-size:8.97px;font-style:NORMAL;font-weight:normal;">CRS, sCRS, neurotoxic effects [57]</text>
  <text svg_rhmargin="470.289" x="87.849,90.751,110.008,114.123,118.615,121.517,124.419,125.87,129.985,134.5,138.377,139.828,143.386,161.128,164.03,167.256,170.158,173.675,176.577,178.51,181.412,184.958,188.504,192.021,196.136,200.628,203.52999999999997,217.268,221.783,225.283,227.175,230.344,232.033,235.201,238.428,241.597,245.097,247.55800000000002,263.884,266.786,269.688,271.138,274.685,277.586,280.813,283.274,304.974,308.521,311.301,314.678,316.57,318.259,321.538,323.227,325.52,328.422,330.11100000000005,347.568,351.683,356.175,359.077,362.594,366.709,371.201,374.103,377.005,378.456,381.666,384.446,387.348,390.894,393.355,410.36,413.262,414.712,419.553,422.333,425.113,428.34,430.801,453.203,456.749,458.682,463.197,466.743,470.289" y="371.861" style="fill:#000000;font-family:MSSLTZ+URWPalladioL-Roma;font-size:8.97px;font-style:NORMAL;font-weight:normal;">2 CD19 CAR T 4g7+4-1BB+CD3 Autologous 18 days Lentiviral CD3/CD28 beads 9 weeks B-ALL </text>
  <text x="498.05,501.277,504.823,509.338,512.855,516.97,520.197" y="371.861" svg_rhmargin="521.648" style="fill:#000000;font-family:MSSLTZ+URWPalladioL-Roma;font-size:8.97px;font-style:NORMAL;font-weight:normal;">FLU+CY,</text>
  <text x="495.97,499.196,502.743,507.258,510.775,514.89,518.761,522.278" y="378.954" svg_rhmargin="523.729" style="fill:#000000;font-family:MSSLTZ+URWPalladioL-Roma;font-size:8.97px;font-style:NORMAL;font-weight:normal;">FLU+CY+,</text>
  <text svg_rhmargin="527.249" x="491.724,494.626,496.315,499.095,504.22,506.112,509.611,512.513,516.013,521.138,524.04,527.25" y="371.995" style="fill:#000000;font-family:MSSLTZ+URWPalladioL-Roma;font-size:8.97px;font-style:NORMAL;font-weight:normal;">alemtuzumab </text>
  <text svg_rhmargin="558.66" x="551.405,554.307,555.758,558.6600000000001" y="371.995" style="fill:#000000;font-family:MSSLTZ+URWPalladioL-Roma;font-size:8.97px;font-style:NORMAL;font-weight:normal;">4.6 </text>
  <text svg_rhmargin="564.886" x="560.182,564.886" y="371.995" style="fill:#000000;font-family:AMYXWN+CMSY10;font-size:9.34px;font-style:NORMAL;font-weight:normal;">× </text>
  <text x="566.407,569.309" y="371.995" svg_rhmargin="572.211" style="fill:#000000;font-family:MSSLTZ+URWPalladioL-Roma;font-size:8.97px;font-style:NORMAL;font-weight:normal;">10</text>
  <text x="572.211" y="369.888" svg_rhmargin="574.468" style="fill:#000000;font-family:MSSLTZ+URWPalladioL-Roma;font-size:6.97px;font-style:NORMAL;font-weight:normal;">6</text>
  <text x="552.152,554.728,557.508,559.197,560.886,563.347,566.864,570.091,573.318" y="379.089" svg_rhmargin="574.769" style="fill:#000000;font-family:MSSLTZ+URWPalladioL-Roma;font-size:8.97px;font-style:NORMAL;font-weight:normal;">cells/kg,</text>
  <text svg_rhmargin="547.62" x="540.51,543.354,544.776,547.62" y="386.182" style="fill:#000000;font-family:MSSLTZ+URWPalladioL-Roma;font-size:8.97px;font-style:NORMAL;font-weight:normal;">4.0 </text>
  <text svg_rhmargin="553.799" x="549.095,553.799" y="386.182" style="fill:#000000;font-family:AMYXWN+CMSY10;font-size:9.34px;font-style:NORMAL;font-weight:normal;">× </text>
  <text x="555.271,558.115" y="386.182" svg_rhmargin="560.959" style="fill:#000000;font-family:MSSLTZ+URWPalladioL-Roma;font-size:8.97px;font-style:NORMAL;font-weight:normal;">10</text>
  <text svg_rhmargin="563.216" x="560.959,563.2159999999999" y="386.182" style="fill:#000000;font-family:MSSLTZ+URWPalladioL-Roma;font-size:6.97px;font-style:NORMAL;font-weight:normal;">6 </text>
  <text svg_rhmargin="585.684" x="564.941,567.467,570.191,571.846,573.501,575.913,579.36,582.522,585.6850000000001" y="371.861" style="fill:#000000;font-family:MSSLTZ+URWPalladioL-Roma;font-size:8.97px;font-style:NORMAL;font-weight:normal;">cells/kg </text>
  <text x="606.399,609.301,610.752,614.867,618.744" y="371.861" svg_rhmargin="620.195" style="fill:#000000;font-family:MSSLTZ+URWPalladioL-Roma;font-size:8.97px;font-style:NORMAL;font-weight:normal;">1 CR,</text>
  <text x="599.507,602.409,603.859,607.736,610.516,615.641,618.543,620.232,623.61" y="378.954" svg_rhmargin="626.071" style="fill:#000000;font-family:MSSLTZ+URWPalladioL-Roma;font-size:8.97px;font-style:NORMAL;font-weight:normal;">1 Remains</text>
  <text svg_rhmargin="630.711" x="595.157,597.734,599.423,601.112,604.489,606.178,608.755,611.657,613.346,615.035,618.262,619.713,624.553,627.333,629.022,630.711" y="378.954" style="fill:#000000;font-family:MSSLTZ+URWPalladioL-Roma;font-size:8.97px;font-style:NORMAL;font-weight:normal;">clinically well </text>
  <text x="651.088,654.123,656.416,659.318,662.695,665.156,666.845,669.625,673.003,674.8950000000001,676.346,679.126,681.418,684.645,686.537,689.915,692.695,697.82,700.722,702.614,705.783,709.282,711.743,713.194,715.487,718.388,720.849,724.2270000000001,746.595,748.528,751.429,754.331" y="378.954" svg_rhmargin="756.264" style="fill:#000000;font-family:MSSLTZ+URWPalladioL-Roma;font-size:8.97px;font-style:NORMAL;font-weight:normal;">Transient erythematous rash [58]</text>
  <text x="87.849,90.751,112.115,115.661,118.441,122.312,123.763,127.878,132.393,136.27,137.721,141.279,160.1,164.215,168.707,171.609,175.126,179.241,183.733,186.635,189.537,193.054,197.169,201.661,204.563,217.268,221.783,225.283,227.175,230.344,232.032,235.201,238.428,241.597,245.097,247.55800000000002,263.884,266.785,269.687,271.138,274.684,277.586,280.813,283.274,304.667,308.544,311.324,313.21,315.398,318.567,321.846,323.535,325.827,328.729,330.418,355.107,359.669,363.883,367.121,369.054,371.956,375.473,377.429,380.975,382.908,385.81,407.254,410.156,413.058,414.509,419.634,422.803,426.181,428.073,431.45,433.911,454.973,459.488,464.979,468.525,498.322,501.548,505.095" y="407.462" svg_rhmargin="509.61" style="fill:#000000;font-family:MSSLTZ+URWPalladioL-Roma;font-size:8.97px;font-style:NORMAL;font-weight:normal;">4 LeY CAR T CD8+CD28+CD3 Autologous 12 days Retroviral OKT-3+IL-2 10 months AML FLU</text>
  <text x="509.608" y="408.333" svg_rhmargin="512.343" style="fill:#000000;font-family:MSSLTZ+URWPalladioL-Roma;font-size:6.97px;font-style:NORMAL;font-weight:normal;">+</text>
  <text svg_rhmargin="520.652" x="512.666,516.781,520.6519999999999" y="404.051" style="fill:#000000;font-family:MSSLTZ+URWPalladioL-Roma;font-size:8.97px;font-style:NORMAL;font-weight:normal;">CY </text>
  <text svg_rhmargin="543.395" x="540.511,543.396" y="404.051" style="fill:#000000;font-family:MSSLTZ+URWPalladioL-Roma;font-size:8.97px;font-style:NORMAL;font-weight:normal;">5 </text>
  <text svg_rhmargin="549.623" x="544.919,549.6229999999999" y="404.051" style="fill:#000000;font-family:AMYXWN+CMSY10;font-size:9.34px;font-style:NORMAL;font-weight:normal;">× </text>
  <text x="551.143,554.028" y="404.051" svg_rhmargin="556.912" style="fill:#000000;font-family:MSSLTZ+URWPalladioL-Roma;font-size:8.97px;font-style:NORMAL;font-weight:normal;">10</text>
  <text x="556.912" y="401.944" svg_rhmargin="559.169" style="fill:#000000;font-family:MSSLTZ+URWPalladioL-Roma;font-size:6.97px;font-style:NORMAL;font-weight:normal;">8</text>
  <text svg_rhmargin="569.587" x="559.492,562.376,565.261,566.703,569.588" y="404.051" style="fill:#000000;font-family:MSSLTZ+URWPalladioL-Roma;font-size:8.97px;font-style:NORMAL;font-weight:normal;">–1.3 </text>
  <text svg_rhmargin="575.815" x="571.111,575.8149999999999" y="404.051" style="fill:#000000;font-family:AMYXWN+CMSY10;font-size:9.34px;font-style:NORMAL;font-weight:normal;">× </text>
  <text x="577.335,580.22" y="404.051" svg_rhmargin="583.104" style="fill:#000000;font-family:MSSLTZ+URWPalladioL-Roma;font-size:8.97px;font-style:NORMAL;font-weight:normal;">10</text>
  <text x="583.104" y="401.944" svg_rhmargin="585.361" style="fill:#000000;font-family:MSSLTZ+URWPalladioL-Roma;font-size:6.97px;font-style:NORMAL;font-weight:normal;">9</text>
  <text svg_rhmargin="568.695" x="557.499,560.076,562.856,564.545,566.234,568.695" y="393.276" style="fill:#000000;font-family:MSSLTZ+URWPalladioL-Roma;font-size:8.97px;font-style:NORMAL;font-weight:normal;">cells </text>
  <text x="595.395,598.297,599.748,603.863,607.09,608.982,612.151,615.378,618.158,621.535,624.315,626.207,627.896" y="393.276" svg_rhmargin="630.473" style="fill:#000000;font-family:MSSLTZ+URWPalladioL-Roma;font-size:8.97px;font-style:NORMAL;font-weight:normal;">1 Cytogenetic</text>
  <text x="600.102,602.29,605.07,610.194,611.883,614.344,616.805,618.494,621.663,625.04" y="400.37" svg_rhmargin="626.491" style="fill:#000000;font-family:MSSLTZ+URWPalladioL-Roma;font-size:8.97px;font-style:NORMAL;font-weight:normal;">remission,</text>
  <text x="597.386,600.288,601.738,605.244,607.432,610.601,612.493,614.785,617.687,620.264,622.156,624.936" y="407.462" svg_rhmargin="628.482" style="fill:#000000;font-family:MSSLTZ+URWPalladioL-Roma;font-size:8.97px;font-style:NORMAL;font-weight:normal;">3 Protracted</text>
  <text x="600.102,602.29,605.07,610.194,611.883,614.344,616.805,618.494,621.663,625.04" y="414.556" svg_rhmargin="626.491" style="fill:#000000;font-family:MSSLTZ+URWPalladioL-Roma;font-size:8.97px;font-style:NORMAL;font-weight:normal;">remission,</text>
  <text svg_rhmargin="624.953" x="600.624,603.5260000000001,604.977,608.854,611.634,613.323,616.224,619.713,622.173,624.953" y="407.462" style="fill:#000000;font-family:MSSLTZ+URWPalladioL-Roma;font-size:8.97px;font-style:NORMAL;font-weight:normal;">1 Relapse </text>
  <text x="659.457,662.492,664.784,667.686,671.064,673.525,675.214,677.994,681.372,683.264,684.715,688.092,690.872,694.372,696.264,698.452,701.621,705.109,707.889,711.267,712.956,715.8580000000001,746.595,748.527,751.429,754.331" y="407.462" svg_rhmargin="756.264" style="fill:#000000;font-family:MSSLTZ+URWPalladioL-Roma;font-size:8.97px;font-style:NORMAL;font-weight:normal;">Transient neutropenia [59]</text>
  <text svg_rhmargin="520.881" x="87.849,90.751,110.008,114.123,118.615,121.517,124.419,125.87,129.985,134.5,138.377,139.828,143.386,167.61,171.725,176.217,179.119,182.636,186.751,191.243,194.145,197.047,217.268,221.783,225.283,227.175,230.344,232.032,235.201,238.428,241.597,245.097,247.55800000000002,262.433,265.335,268.236,271.138,272.589,276.135,279.037,282.264,284.725,304.667,308.544,311.324,313.21,315.398,318.567,321.846,323.535,325.827,328.729,330.418,357.777,361.892,366.384,369.286,372.803,374.759,378.305,380.238,383.14,407.254,410.156,413.058,414.509,419.634,422.803,426.181,428.073,431.45,433.911,452.123,456.616,460.162,463.708,467.823,471.36899999999997,498.089,501.316,504.862,509.378,512.895,517.01,520.881" y="474.985" style="fill:#000000;font-family:MSSLTZ+URWPalladioL-Roma;font-size:8.97px;font-style:NORMAL;font-weight:normal;">7 CD19 CAR T CD3+CD28 Autologous 8–9 days Retroviral CD3+IL-2 12 months DLBCL FLU+CY </text>
  <text svg_rhmargin="545.174" x="542.272,545.1740000000001" y="474.985" style="fill:#000000;font-family:MSSLTZ+URWPalladioL-Roma;font-size:8.97px;font-style:NORMAL;font-weight:normal;">2 </text>
  <text svg_rhmargin="551.402" x="546.698,551.4019999999999" y="474.985" style="fill:#000000;font-family:AMYXWN+CMSY10;font-size:9.34px;font-style:NORMAL;font-weight:normal;">× </text>
  <text x="552.922,555.824" y="474.985" svg_rhmargin="558.726" style="fill:#000000;font-family:MSSLTZ+URWPalladioL-Roma;font-size:8.97px;font-style:NORMAL;font-weight:normal;">10</text>
  <text svg_rhmargin="560.983" x="558.726,560.983" y="474.985" style="fill:#000000;font-family:MSSLTZ+URWPalladioL-Roma;font-size:6.97px;font-style:NORMAL;font-weight:normal;">6 </text>
  <text svg_rhmargin="583.922" x="562.756,565.333,568.113,569.802,571.491,573.952,577.469,580.695,583.922" y="471.304" style="fill:#000000;font-family:MSSLTZ+URWPalladioL-Roma;font-size:8.97px;font-style:NORMAL;font-weight:normal;">cells/kg </text>
  <text x="598.421,601.3230000000001,602.774,606.889,610.766,612.217,613.668,616.57,618.02,622.843,626.72" y="471.304" svg_rhmargin="628.171" style="fill:#000000;font-family:MSSLTZ+URWPalladioL-Roma;font-size:8.97px;font-style:NORMAL;font-weight:normal;">4 CR, 2 NR,</text>
  <text svg_rhmargin="625.098" x="600.769,603.671,605.122,608.999,611.779,613.467,616.369,619.857,622.318,625.098" y="428.743" style="fill:#000000;font-family:MSSLTZ+URWPalladioL-Roma;font-size:8.97px;font-style:NORMAL;font-weight:normal;">4 Relapse </text>
  <text x="654.3,658.415,662.292,665.339,666.7900000000001,668.241,671.619,674.399,677.898,680.086,683.255,685.147,688.316,691.311,693.0,695.577,697.266,699.158,701.74,703.191,704.642,706.575,709.355,712.564,714.857,716.546,718.235" y="428.743" svg_rhmargin="721.015" style="fill:#000000;font-family:MSSLTZ+URWPalladioL-Roma;font-size:8.97px;font-style:NORMAL;font-weight:normal;">CRS, neurotoxicity, febrile</text>
  <text x="650.081,653.458,656.238,659.738,661.63,663.818,666.987,670.475,673.255,676.633,678.322,681.224,682.6750000000001,684.126,686.906,690.283,692.86,695.64,699.128,702.506,705.408,707.097,710.266,713.754,716.656,718.548,721.926,724.508" y="435.837" svg_rhmargin="725.959" style="fill:#000000;font-family:MSSLTZ+URWPalladioL-Roma;font-size:8.97px;font-style:NORMAL;font-weight:normal;">neutropenia, encephalopathy,</text>
  <text x="649.01,652.388,655.168,658.668,660.56,662.748,665.917,669.405,672.185,675.562,677.251,680.153,681.604,683.055,685.957,689.335,692.115,697.24,698.928,701.83,703.2810000000001,704.732,708.11,711.337,714.825,717.994,720.989,722.677,725.579" y="442.93" svg_rhmargin="727.03" style="fill:#000000;font-family:MSSLTZ+URWPalladioL-Roma;font-size:8.97px;font-style:NORMAL;font-weight:normal;">neutropenia, anemia, hypoxia,</text>
  <text x="656.25,658.711,661.88,667.004,670.382,673.551,675.24,678.02,681.398,683.975,686.755,688.206,689.656,692.825,695.118,698.02,699.709,701.16,704.537,707.317,709.61,713.098,715.878,718.339" y="450.024" svg_rhmargin="719.79" style="fill:#000000;font-family:MSSLTZ+URWPalladioL-Roma;font-size:8.97px;font-style:NORMAL;font-weight:normal;">somnolence, oral herpes,</text>
  <text x="646.23,648.122,651.5,653.688,656.857,661.982,665.191,668.36,670.937,674.164,676.056,679.224,682.713,685.493,688.87,690.559,693.461,694.912,696.363,699.265,701.842,705.341,707.233,710.0129999999999,711.464,714.691,716.38,719.926,723.304,726.084" y="457.117" svg_rhmargin="729.311" style="fill:#000000;font-family:MSSLTZ+URWPalladioL-Roma;font-size:8.97px;font-style:NORMAL;font-weight:normal;">thrombocytopenia, acute kidney</text>
  <text x="644.005,645.694,649.071,650.429,653.929,656.222,658.804,660.255,661.706,664.608,667.835,669.524,671.416,674.318,676.21,677.899,681.068,684.445,685.8960000000001,687.347,690.249,692.71,695.287,696.976,698.868,701.648,704.109,705.5600000000001,707.01,708.699,712.077,714.654,716.842,719.622,722.524,724.985,727.765" y="464.211" svg_rhmargin="731.311" style="fill:#000000;font-family:MSSLTZ+URWPalladioL-Roma;font-size:8.97px;font-style:NORMAL;font-weight:normal;">injury, agitation, ascites, increased</text>
  <text x="642.194,645.096,647.556,651.044,653.946,656.239,658.131,661.033,662.925,665.7049999999999,667.156,670.058,675.182,676.871,680.249,683.418,685.31,687.602,690.504,693.882,696.343,698.276,701.056,703.348,706.25,708.711,711.491,712.942,714.741,717.318,720.22,722.408,725.954,727.643,730.545" y="471.304" svg_rhmargin="733.122" style="fill:#000000;font-family:MSSLTZ+URWPalladioL-Roma;font-size:8.97px;font-style:NORMAL;font-weight:normal;">aspartate aminotransferase. cardiac</text>
  <text x="640.183,642.077,644.921,646.576,648.231,651.661,653.805,656.53,657.952,659.391,662.866,665.59,667.245,668.9,671.147,672.802,676.232,681.254,682.676,684.115,686.009,688.853,690.707,692.362,695.524,698.954,701.679,703.101,704.539,707.85,710.574,715.596,718.702,720.949,723.093,726.403,729.247,732.409" y="478.397" svg_rhmargin="735.133" style="fill:#000000;font-family:MSSLTZ+URWPalladioL-Roma;font-size:8.97px;font-style:NORMAL;font-weight:normal;">failure, delirium, fatigue, hemorrhage</text>
  <text x="653.302,654.991,658.369,660.261,662.553,665.455,668.032,670.325,673.227,676.604,678.293,681.195,682.884,684.335,685.786,689.164,692.391,695.879,699.047,701.624,704.526,706.215,708.792,711.572,716.697,718.386,721.288" y="485.491" svg_rhmargin="722.739" style="fill:#000000;font-family:MSSLTZ+URWPalladioL-Roma;font-size:8.97px;font-style:NORMAL;font-weight:normal;">intracranial, hypocalcemia,</text>
  <text x="644.297,647.675,650.902,654.39,657.559,660.937,663.839,665.731,667.919,670.699,675.823,677.512,680.414,681.865,683.316,688.441,691.221,693.113,696.015,699.224,702.393,704.082,705.771,708.348,709.799,712.701,715.277,716.966,720.512,723.681,726.142,727.831,730.292" y="492.584" svg_rhmargin="731.743" style="fill:#000000;font-family:MSSLTZ+URWPalladioL-Roma;font-size:8.97px;font-style:NORMAL;font-weight:normal;">hyponatremia, metabolic acidosis,</text>
  <text x="642.951,646.329,649.556,653.044,656.212,658.145,661.633,665.011,668.18,670.641,674.129,677.507,680.408,682.3,685.08,690.205,691.894,694.796,696.2470000000001,697.698,701.076,704.303,707.791,710.96,712.892,714.784,717.564,720.942,723.403,725.092,728.261,731.639" y="499.678" svg_rhmargin="733.09" style="fill:#000000;font-family:MSSLTZ+URWPalladioL-Roma;font-size:8.97px;font-style:NORMAL;font-weight:normal;">hypo-phosphatemia, hypo-tension,</text>
  <text x="650.125,653.613,656.074,658.854,662.353,665.899,669.068,674.193,677.362,680.74,683.641,685.3299999999999,686.781,689.242,692.022,695.51,697.971,699.66,702.121,703.572,705.023,708.511,711.738,713.926,716.706,719.7,721.389,724.291" y="506.771" svg_rhmargin="725.742" style="fill:#000000;font-family:MSSLTZ+URWPalladioL-Roma;font-size:8.97px;font-style:NORMAL;font-weight:normal;">pseudomonal sepsis, pyrexia,</text>
  <text x="645.209,647.397,650.177,652.637,654.529,656.218,658.998,661.459,663.92,667.298,670.078,672.539,674.999,676.45,677.901,679.793,681.981,684.761,689.886,693.055,694.918,696.369,697.82,701.32,703.612,705.301,708.679,711.581,713.873,717.1,718.551,720.443,722.736,725.637,728.214" y="513.865" svg_rhmargin="730.106" style="fill:#000000;font-family:MSSLTZ+URWPalladioL-Roma;font-size:8.97px;font-style:NORMAL;font-weight:normal;">restlessness, tremor, urinary tract</text>
  <text svg_rhmargin="698.899" x="676.415,678.104,681.482,683.415,686.195,688.772,690.664,692.352,695.521,698.899" y="474.851" style="fill:#000000;font-family:MSSLTZ+URWPalladioL-Roma;font-size:8.97px;font-style:NORMAL;font-weight:normal;">infection </text>
  <text x="746.594,748.526,751.428,754.33" y="474.851" svg_rhmargin="756.263" style="fill:#000000;font-family:MSSLTZ+URWPalladioL-Roma;font-size:8.97px;font-style:NORMAL;font-weight:normal;">[60]</text>
  <text svg_rhmargin="393.354" x="86.398,89.3,92.202,110.008,114.123,118.615,121.517,124.419,125.869,129.984,134.5,138.377,139.828,143.386,158.15,163.64,166.687,170.878,175.306,177.239,180.466,185.956,190.071,192.973,195.875,197.807,200.709,203.611,206.51299999999998,217.267,221.783,225.282,227.174,230.343,232.032,235.201,238.428,241.597,245.096,247.55700000000002,270.186,275.009,276.96500000000003,304.667,308.543,311.323,313.215,315.403,318.572,321.851,323.54,325.833,328.735,330.42400000000004,347.568,351.683,356.175,359.077,362.594,366.709,371.201,374.103,377.005,378.456,381.665,384.445,387.347,390.893,393.354" y="563.519" style="fill:#000000;font-family:MSSLTZ+URWPalladioL-Roma;font-size:8.97px;font-style:NORMAL;font-weight:normal;">21 CD19 CAR T MSVG-FMC63-28z Autologous NI Retroviral CD3/CD28 beads </text>
  <text x="408.688,414.178,417.347,419.808,421.7,423.151,426.668,429.57" y="563.519" svg_rhmargin="432.472" style="fill:#000000;font-family:MSSLTZ+URWPalladioL-Roma;font-size:8.97px;font-style:NORMAL;font-weight:normal;">Most &lt;28</text>
  <text svg_rhmargin="426.648" x="414.512,418.058,420.96,424.187,426.648" y="567.066" style="fill:#000000;font-family:MSSLTZ+URWPalladioL-Roma;font-size:8.97px;font-style:NORMAL;font-weight:normal;">days </text>
  <text svg_rhmargin="520.882" x="453.204,456.75,458.683,463.198,466.744,470.29,498.091,501.318,504.864,509.379,512.896,517.011,520.882" y="567.201" style="fill:#000000;font-family:MSSLTZ+URWPalladioL-Roma;font-size:8.97px;font-style:NORMAL;font-weight:normal;">B-ALL FLU+CY </text>
  <text svg_rhmargin="545.174" x="542.272,545.1740000000001" y="567.201" style="fill:#000000;font-family:MSSLTZ+URWPalladioL-Roma;font-size:8.97px;font-style:NORMAL;font-weight:normal;">1 </text>
  <text svg_rhmargin="551.402" x="546.698,551.4019999999999" y="567.201" style="fill:#000000;font-family:AMYXWN+CMSY10;font-size:9.34px;font-style:NORMAL;font-weight:normal;">× </text>
  <text x="552.922,555.824" y="567.201" svg_rhmargin="558.726" style="fill:#000000;font-family:MSSLTZ+URWPalladioL-Roma;font-size:8.97px;font-style:NORMAL;font-weight:normal;">10</text>
  <text svg_rhmargin="560.983" x="558.726,560.983" y="567.201" style="fill:#000000;font-family:MSSLTZ+URWPalladioL-Roma;font-size:6.97px;font-style:NORMAL;font-weight:normal;">6 </text>
  <text svg_rhmargin="583.922" x="562.756,565.333,568.113,569.802,571.491,573.951,577.469,580.695,583.922" y="563.519" style="fill:#000000;font-family:MSSLTZ+URWPalladioL-Roma;font-size:8.97px;font-style:NORMAL;font-weight:normal;">cells/kg </text>
  <text x="596.48,599.382,602.284,603.735,607.849,611.726,613.177,614.628,617.5300000000001,618.981,623.096,626.973,628.662" y="563.519" svg_rhmargin="630.113" style="fill:#000000;font-family:MSSLTZ+URWPalladioL-Roma;font-size:8.97px;font-style:NORMAL;font-weight:normal;">13 CR, 1 CRi,</text>
  <text svg_rhmargin="626.506" x="599.362,602.264,603.714,607.22,611.712,613.163,614.614,617.5160000000001,618.967,622.014,626.506" y="528.052" style="fill:#000000;font-family:MSSLTZ+URWPalladioL-Roma;font-size:8.97px;font-style:NORMAL;font-weight:normal;">4 PD, 3 SD </text>
  <text x="643.264,647.779,650.356,653.856,655.748,658.528,659.979,663.206,664.895,668.441,671.819,674.599,677.826,679.276,680.965,684.343,685.701,689.201,691.493,694.076,695.527,696.978,699.555,702.457,704.645,708.191,709.88,712.782,715.359,716.809,719.711,722.004,724.192,726.972,729.433,731.325" y="528.052" svg_rhmargin="732.776" style="fill:#000000;font-family:MSSLTZ+URWPalladioL-Roma;font-size:8.97px;font-style:NORMAL;font-weight:normal;">Acute kidney injury, cardiac arrest,</text>
  <text x="649.796,653.911,657.788,660.835,662.2860000000001,663.737,666.987,668.879,671.456,672.907,676.395,678.583,681.752,683.441,686.61,689.987,693.214,696.116,698.008,699.697,702.866,706.244,707.695,709.146,711.078,713.858,717.068,719.36,721.049,722.738" y="535.146" svg_rhmargin="725.518" style="fill:#000000;font-family:MSSLTZ+URWPalladioL-Roma;font-size:8.97px;font-style:NORMAL;font-weight:normal;">CRS, qtc prolongation, febrile</text>
  <text x="645.548,648.926,651.706,655.206,657.098,659.286,662.455,665.943,668.723,672.101,673.79,676.691,678.142,679.593,681.526,684.306,687.585,690.365,692.228,693.679,695.13,698.508,701.735,705.223,708.003,710.295,712.187,714.967,718.345,720.806,722.495,725.664,729.042" y="542.239" svg_rhmargin="730.493" style="fill:#000000;font-family:MSSLTZ+URWPalladioL-Roma;font-size:8.97px;font-style:NORMAL;font-weight:normal;">neutropenia, fever, hypertension,</text>
  <text x="642.591,645.969,649.196,652.684,655.852,657.745,660.525,663.902,666.363,668.052,671.221,674.599,676.0500000000001,677.501,680.878,684.105,687.593,690.762,693.757,695.446,698.348,699.799,701.25,704.796,708.023,710.483,712.416,715.916,719.294,721.87,723.763,725.451,728.62,731.998" y="549.333" svg_rhmargin="733.449" style="fill:#000000;font-family:MSSLTZ+URWPalladioL-Roma;font-size:8.97px;font-style:NORMAL;font-weight:normal;">hypotension, hypoxia, dysfunction,</text>
  <text x="647.524,652.649,656.149,657.838,659.73,661.419,663.351,666.52,668.708,671.935,674.837,678.215,679.666,681.599,684.5,686.189,687.878,691.378,693.566,696.346,697.797,699.248,702.736,706.236,707.925,713.049,716.218,719.596,722.498,724.79" y="556.4259999999999" svg_rhmargin="728.017" style="fill:#000000;font-family:MSSLTZ+URWPalladioL-Roma;font-size:8.97px;font-style:NORMAL;font-weight:normal;">multi-organ failure, pulmonary</text>
  <text x="652.437,655.606,658.386,661.932,664.712,669.837,672.739,674.19,675.641,677.829,680.609,683.07,686.558,688.247,690.539,693.441,695.333,698.502,700.794,704.021,705.472,707.405,710.307,711.996,713.685,717.184,719.372,722.152" y="563.519" svg_rhmargin="723.603" style="fill:#000000;font-family:MSSLTZ+URWPalladioL-Roma;font-size:8.97px;font-style:NORMAL;font-weight:normal;">oedema, respiratory failure,</text>
  <text x="652.646,656.134,658.322,661.491,663.18,666.349,669.726,672.953,675.733,679.279,680.73,683.632,686.209,688.101,689.79,693.069,695.971,697.863,700.643,704.1890000000001,705.64,709.128,712.03,714.323,716.215,717.904,720.805" y="570.613" svg_rhmargin="722.494" style="fill:#000000;font-family:MSSLTZ+URWPalladioL-Roma;font-size:8.97px;font-style:NORMAL;font-weight:normal;">prolonged activated partial</text>
  <text x="640.183,642.071,645.442,647.626,650.789,655.903,659.106,662.269,665.75,667.435,670.331,672.787,674.675,676.361,679.732,681.18,683.068,684.754,689.868,692.643,694.091,695.539,698.435,701.806,704.702,707.476,712.591,714.276,717.173,718.621,720.074,724.581,727.691" y="577.706" svg_rhmargin="731.242" style="fill:#000000;font-family:MSSLTZ+URWPalladioL-Roma;font-size:8.97px;font-style:NORMAL;font-weight:normal;">thromboplastin time, anaemia, ALT</text>
  <text x="731.312" y="577.706" svg_rhmargin="734.336" style="fill:#000000;font-family:AMYXWN+CMSY10;font-size:9.34px;font-style:NORMAL;font-weight:normal;">↑</text>
  <text x="734.408" y="577.706" svg_rhmargin="735.856" style="fill:#000000;font-family:MSSLTZ+URWPalladioL-Roma;font-size:8.97px;font-style:NORMAL;font-weight:normal;">,</text>
  <text x="650.055,654.57,657.617" y="584.8" svg_rhmargin="661.175" style="fill:#000000;font-family:MSSLTZ+URWPalladioL-Roma;font-size:8.97px;font-style:NORMAL;font-weight:normal;">AST</text>
  <text x="661.248" y="584.8" svg_rhmargin="664.272" style="fill:#000000;font-family:AMYXWN+CMSY10;font-size:9.34px;font-style:NORMAL;font-weight:normal;">↓</text>
  <text x="664.344,665.7950000000001,667.245,670.455,672.144,675.313,678.481,682.027,683.479,686.688,688.377,690.066,691.755,694.001,697.5,700.71,702.399" y="584.8" svg_rhmargin="705.777" style="fill:#000000;font-family:MSSLTZ+URWPalladioL-Roma;font-size:8.97px;font-style:NORMAL;font-weight:normal;">, blood bilirubin</text>
  <text x="705.848" y="584.8" svg_rhmargin="708.872" style="fill:#000000;font-family:AMYXWN+CMSY10;font-size:9.34px;font-style:NORMAL;font-weight:normal;">↑</text>
  <text x="708.945,710.3960000000001,711.847,714.424,717.912" y="584.8" svg_rhmargin="721.139" style="fill:#000000;font-family:MSSLTZ+URWPalladioL-Roma;font-size:8.97px;font-style:NORMAL;font-weight:normal;">, cpk</text>
  <text x="721.211" y="584.8" svg_rhmargin="724.235" style="fill:#000000;font-family:AMYXWN+CMSY10;font-size:9.34px;font-style:NORMAL;font-weight:normal;">↑</text>
  <text x="724.307" y="584.8" svg_rhmargin="725.758" style="fill:#000000;font-family:MSSLTZ+URWPalladioL-Roma;font-size:8.97px;font-style:NORMAL;font-weight:normal;">,</text>
  <text x="646.05,649.428,652.655,656.143,658.923,661.111,664.338,666.027,669.253,671.83,674.732,677.512,682.637,684.326,687.228,688.679,690.13,693.508,696.734,700.223,703.391,705.324,708.551,711.453,713.142,716.044,718.824,723.948,725.637,728.539" y="591.893" svg_rhmargin="729.99" style="fill:#000000;font-family:MSSLTZ+URWPalladioL-Roma;font-size:8.97px;font-style:NORMAL;font-weight:normal;">hyperglycaemia, hypo-kalaemia,</text>
  <text x="640.207,643.561,646.766,650.229,653.376,656.73,659.612,661.49,663.767,666.648,669.409,674.498,676.175,679.057,680.498,681.95,685.304,688.508,691.972,695.118,698.582,701.936,705.083,707.526,710.99,714.344,717.226,719.105,721.986,724.747,729.836,731.513,734.394" y="598.987" svg_rhmargin="735.835" style="fill:#000000;font-family:MSSLTZ+URWPalladioL-Roma;font-size:8.97px;font-style:NORMAL;font-weight:normal;">hyponatraemia, hypophosphataemia,</text>
  <text svg_rhmargin="733.521" x="641.793,644.695,646.587,649.489,652.483,654.172,657.074,658.525,659.976,663.522,666.749,669.21,672.698,676.076,678.978,681.438,683.127,686.029,687.48,688.931,692.309,695.089,697.991,701.537,704.439,707.016,710.393,713.174,714.625,716.075,717.967,720.155,722.935,728.06,731.229,733.522" y="567.066" style="fill:#000000;font-family:MSSLTZ+URWPalladioL-Roma;font-size:8.97px;font-style:NORMAL;font-weight:normal;">ataxia, dysphasia, headache, tremor </text>
  <text x="746.594,748.526,751.428,754.33" y="567.066" svg_rhmargin="756.263" style="fill:#000000;font-family:MSSLTZ+URWPalladioL-Roma;font-size:8.97px;font-style:NORMAL;font-weight:normal;">[61]</text>
  <text svg_rhmargin="467.352" x="87.849,90.751,110.008,114.123,118.615,121.517,124.419,125.87,129.985,134.5,138.377,139.828,143.386,167.402,170.303,172.236,175.138,178.684,182.23,185.747,189.862,194.354,197.256,217.268,221.783,225.283,227.175,230.344,232.032,235.201,238.428,241.597,245.097,247.55800000000002,263.355,266.257,267.708,272.549,275.329,278.109,281.336,283.797,304.974,308.521,311.301,314.678,316.57,318.259,321.538,323.227,325.52,328.422,330.11100000000005,347.568,351.683,356.175,359.077,362.594,366.709,371.201,374.103,377.005,378.456,381.666,384.446,387.347,390.894,393.355,406.947,410.464,413.366,414.817,419.942,423.11,426.488,428.38,431.758,434.219,456.146,460.26,463.806,467.352" y="613.174" style="fill:#000000;font-family:MSSLTZ+URWPalladioL-Roma;font-size:8.97px;font-style:NORMAL;font-weight:normal;">3 CD19 CAR T 4-1BB+CD3 Autologous 4 weeks Lentiviral CD3/CD28 beads &gt;6 months CLL </text>
  <text x="490.636,494.182,496.962,500.34,503.886,506.788,511.913,515.412,517.873,519.765,521.454,524.832,527.612" y="613.174" svg_rhmargin="529.063" style="fill:#000000;font-family:MSSLTZ+URWPalladioL-Roma;font-size:8.97px;font-style:NORMAL;font-weight:normal;">Bendamustine,</text>
  <text x="489.846,493.056,495.836,499.214,502.76,505.662,510.786,514.286,516.747,518.639,520.328,523.706,526.486" y="620.268" svg_rhmargin="530.003" style="fill:#000000;font-family:MSSLTZ+URWPalladioL-Roma;font-size:8.97px;font-style:NORMAL;font-weight:normal;">bendamustine+</text>
  <text x="496.477,498.77,500.458,502.35,505.85,508.845,510.534,515.659,518.56,521.77" y="627.361" svg_rhmargin="523.221" style="fill:#000000;font-family:MSSLTZ+URWPalladioL-Roma;font-size:8.97px;font-style:NORMAL;font-weight:normal;">rituximab,</text>
  <text svg_rhmargin="529.611" x="489.188,492.676,495.456,498.834,500.726,503.895,506.356,508.248,511.15,513.042,514.73,518.108,521.625,525.74,529.611" y="620.402" style="fill:#000000;font-family:MSSLTZ+URWPalladioL-Roma;font-size:8.97px;font-style:NORMAL;font-weight:normal;">pentostatin+CY </text>
  <text svg_rhmargin="550.464" x="540.51,543.354,544.776,547.62,550.464" y="620.402" style="fill:#000000;font-family:MSSLTZ+URWPalladioL-Roma;font-size:8.97px;font-style:NORMAL;font-weight:normal;">1.46 </text>
  <text svg_rhmargin="556.343" x="551.639,556.343" y="620.402" style="fill:#000000;font-family:AMYXWN+CMSY10;font-size:9.34px;font-style:NORMAL;font-weight:normal;">× </text>
  <text x="557.516,560.359" y="620.402" svg_rhmargin="563.203" style="fill:#000000;font-family:MSSLTZ+URWPalladioL-Roma;font-size:8.97px;font-style:NORMAL;font-weight:normal;">10</text>
  <text x="563.203" y="618.295" svg_rhmargin="565.46" style="fill:#000000;font-family:MSSLTZ+URWPalladioL-Roma;font-size:6.97px;font-style:NORMAL;font-weight:normal;">5</text>
  <text svg_rhmargin="575.736" x="565.783,568.627,571.47,572.892,575.7360000000001" y="620.402" style="fill:#000000;font-family:MSSLTZ+URWPalladioL-Roma;font-size:8.97px;font-style:NORMAL;font-weight:normal;">–1.1 </text>
  <text svg_rhmargin="581.615" x="576.911,581.6149999999999" y="620.402" style="fill:#000000;font-family:AMYXWN+CMSY10;font-size:9.34px;font-style:NORMAL;font-weight:normal;">× </text>
  <text x="582.787,585.631" y="620.402" svg_rhmargin="588.475" style="fill:#000000;font-family:MSSLTZ+URWPalladioL-Roma;font-size:8.97px;font-style:NORMAL;font-weight:normal;">10</text>
  <text x="588.475" y="618.295" svg_rhmargin="590.732" style="fill:#000000;font-family:MSSLTZ+URWPalladioL-Roma;font-size:6.97px;font-style:NORMAL;font-weight:normal;">9</text>
  <text svg_rhmargin="573.681" x="552.514,555.091,557.871,559.56,561.249,563.71,567.227,570.454,573.6809999999999" y="623.814" style="fill:#000000;font-family:MSSLTZ+URWPalladioL-Roma;font-size:8.97px;font-style:NORMAL;font-weight:normal;">cells/kg </text>
  <text svg_rhmargin="626.424" x="599.443,602.345,603.795,607.91,611.787,613.238,614.689,617.591,619.042,622.547,626.424" y="616.721" style="fill:#000000;font-family:MSSLTZ+URWPalladioL-Roma;font-size:8.97px;font-style:NORMAL;font-weight:normal;">2 CR, 1 PR </text>
  <text x="646.451,649.486,651.779,654.68,658.058,660.519,662.208,664.988,668.366,670.258,671.709,673.641,676.422,679.631,681.924,683.612,685.301,688.081,689.532,691.72,694.5,697.402,699.979,701.871,703.56,706.729,710.107,711.558,713.009,715.301,716.99,720.217,723.386,725.678,728.139" y="616.721" svg_rhmargin="729.59" style="fill:#000000;font-family:MSSLTZ+URWPalladioL-Roma;font-size:8.97px;font-style:NORMAL;font-weight:normal;">Transient febrile reaction, rigors,</text>
  <text x="654.068,657.614,660.841,663.302,666.79,670.168,672.948,675.849,677.3000000000001,678.751,680.643,682.936,685.838,689.216,691.676,693.365,696.145,699.523,701.4150000000001,702.866,705.443,708.345,710.533,714.079,715.768,718.67" y="623.814" svg_rhmargin="721.247" style="fill:#000000;font-family:MSSLTZ+URWPalladioL-Roma;font-size:8.97px;font-style:NORMAL;font-weight:normal;">dyspnea, transient cardiac</text>
  <text svg_rhmargin="732.544" x="642.771,646.317,649.544,652.005,653.937,657.437,660.815,663.392,665.284,666.973,670.141,673.519,674.97,676.421,678.313,680.606,683.508,686.885,689.346,691.035,693.815,697.193,699.085,700.536,703.914,707.141,710.629,713.798,715.69,718.47,721.847,724.308,725.997,729.166,732.5440000000001" y="623.814" style="fill:#000000;font-family:MSSLTZ+URWPalladioL-Roma;font-size:8.97px;font-style:NORMAL;font-weight:normal;">dysfunction, transient hypotension </text>
  <text x="746.594,748.526,751.428,754.33" y="623.814" svg_rhmargin="756.263" style="fill:#000000;font-family:MSSLTZ+URWPalladioL-Roma;font-size:8.97px;font-style:NORMAL;font-weight:normal;">[62]</text>
  <text svg_rhmargin="528.751" x="86.398,89.3,92.202,110.008,114.123,118.615,121.517,124.419,125.869,129.984,134.5,138.377,139.828,143.386,167.401,170.303,172.236,175.138,178.684,182.23,185.747,189.862,194.354,197.256,217.267,221.783,225.282,227.174,230.343,232.032,235.201,238.428,241.597,245.096,247.55700000000002,270.186,275.009,276.96500000000003,304.974,308.52,311.3,314.678,316.57,318.259,321.538,323.227,325.519,328.421,330.11,367.069,371.892,373.848,405.083,407.985,410.887,413.789,416.691,419.593,422.495,423.946,427.492,430.394,433.621,436.082,456.145,460.26,463.806,467.352,490.225,494.34,497.718,500.498,505.622,508.791,510.683,514.061,516.841,519.134,522.035,525.524,528.751" y="666.51" style="fill:#000000;font-family:MSSLTZ+URWPalladioL-Roma;font-size:8.97px;font-style:NORMAL;font-weight:normal;">75 CD19 CAR T 4-1BB+CD3 Autologous NI Lentiviral NI 20–617 days CLL Chemotherapy </text>
  <text svg_rhmargin="543.395" x="540.511,543.396" y="666.51" style="fill:#000000;font-family:MSSLTZ+URWPalladioL-Roma;font-size:8.97px;font-style:NORMAL;font-weight:normal;">2 </text>
  <text svg_rhmargin="549.623" x="544.919,549.6229999999999" y="666.51" style="fill:#000000;font-family:AMYXWN+CMSY10;font-size:9.34px;font-style:NORMAL;font-weight:normal;">× </text>
  <text x="551.143,554.028" y="666.51" svg_rhmargin="556.912" style="fill:#000000;font-family:MSSLTZ+URWPalladioL-Roma;font-size:8.97px;font-style:NORMAL;font-weight:normal;">10</text>
  <text x="556.912" y="664.403" svg_rhmargin="559.169" style="fill:#000000;font-family:MSSLTZ+URWPalladioL-Roma;font-size:6.97px;font-style:NORMAL;font-weight:normal;">5</text>
  <text svg_rhmargin="569.587" x="559.492,562.376,565.261,566.703,569.588" y="666.51" style="fill:#000000;font-family:MSSLTZ+URWPalladioL-Roma;font-size:8.97px;font-style:NORMAL;font-weight:normal;">–5.4 </text>
  <text svg_rhmargin="575.815" x="571.111,575.8149999999999" y="666.51" style="fill:#000000;font-family:AMYXWN+CMSY10;font-size:9.34px;font-style:NORMAL;font-weight:normal;">× </text>
  <text x="577.335,580.22" y="666.51" svg_rhmargin="583.104" style="fill:#000000;font-family:MSSLTZ+URWPalladioL-Roma;font-size:8.97px;font-style:NORMAL;font-weight:normal;">10</text>
  <text x="583.104" y="664.403" svg_rhmargin="585.361" style="fill:#000000;font-family:MSSLTZ+URWPalladioL-Roma;font-size:6.97px;font-style:NORMAL;font-weight:normal;">6</text>
  <text svg_rhmargin="573.681" x="552.514,555.091,557.871,559.56,561.249,563.71,567.227,570.454,573.6809999999999" y="666.375" style="fill:#000000;font-family:MSSLTZ+URWPalladioL-Roma;font-size:8.97px;font-style:NORMAL;font-weight:normal;">cells/kg </text>
  <text x="595.029,597.931,600.8330000000001,602.284,606.399,610.276,611.727,613.178,616.08,618.9820000000001,620.433,624.547,628.424,630.113" y="666.375" svg_rhmargin="631.564" style="fill:#000000;font-family:MSSLTZ+URWPalladioL-Roma;font-size:8.97px;font-style:NORMAL;font-weight:normal;">45 CR, 16 CRi,</text>
  <text svg_rhmargin="626.55" x="599.318,602.22,605.1220000000001,606.573,610.45,613.23,614.919,617.821,621.309,623.77,626.55" y="641.548" style="fill:#000000;font-family:MSSLTZ+URWPalladioL-Roma;font-size:8.97px;font-style:NORMAL;font-weight:normal;">20 Relapse </text>
  <text x="647.957,652.072,655.949,658.996,660.447,661.898,665.275,668.502,671.99,675.159,677.051,679.831,683.209,685.67,687.359,690.528,693.905,695.356,696.807,698.496,701.723,706.848,710.336,713.714,716.883,719.459,722.686,724.578" y="641.548" svg_rhmargin="727.358" style="fill:#000000;font-family:MSSLTZ+URWPalladioL-Roma;font-size:8.97px;font-style:NORMAL;font-weight:normal;">CRS, hypotension, lymphocyte</text>
  <text x="643.737,646.314,649.483,652.983,656.361" y="648.641" svg_rhmargin="658.253" style="fill:#000000;font-family:MSSLTZ+URWPalladioL-Roma;font-size:8.97px;font-style:NORMAL;font-weight:normal;">count</text>
  <text x="658.325" y="648.641" svg_rhmargin="661.349" style="fill:#000000;font-family:AMYXWN+CMSY10;font-size:9.34px;font-style:NORMAL;font-weight:normal;">↓</text>
  <text x="661.421,662.8720000000001,664.323,667.701,670.928,674.416,677.584,680.579,682.268,685.17,686.621,688.072,689.761,693.139,695.715,697.904,700.684,703.585,706.046,708.826,710.277,711.966,715.344,716.795,720.004,721.693,724.862,728.031" y="648.641" svg_rhmargin="731.577" style="fill:#000000;font-family:MSSLTZ+URWPalladioL-Roma;font-size:8.97px;font-style:NORMAL;font-weight:normal;">, hypoxia, increase in blood</text>
  <text x="648.941,652.15,653.839,655.528,657.217,659.463,662.963,666.172,667.861,671.239,672.69,674.141,675.83,679.208,681.784,683.972,686.753,689.654,692.115,694.895,696.346,698.035,701.413,702.864,705.766,708.227,711.715,714.616,716.909,718.801,721.703,723.595" y="655.735" svg_rhmargin="726.375" style="fill:#000000;font-family:MSSLTZ+URWPalladioL-Roma;font-size:8.97px;font-style:NORMAL;font-weight:normal;">bilirubin, increase in aspartate</text>
  <text x="646.128,649.03,654.155,655.844,659.222,662.391,664.283,666.575,669.477,672.855,675.316,677.248,680.028,682.321,685.223,687.684,690.464,691.9150000000001,693.365,696.853,700.08,702.268,705.048,708.043,709.732,712.634,714.085,715.536,718.438,721.015,724.514,726.406" y="662.828" svg_rhmargin="729.186" style="fill:#000000;font-family:MSSLTZ+URWPalladioL-Roma;font-size:8.97px;font-style:NORMAL;font-weight:normal;">aminotransferase, pyrexia, acute</text>
  <text x="643.839,647.066,648.755,652.301,655.679,658.459,661.6859999999999,663.136,664.825,668.203,669.561,673.061,675.353,677.936,679.3870000000001,680.838,684.216,687.443,690.931,694.1,697.588,700.965,704.134,706.595,710.083,713.461,716.363,718.255,721.035,726.16,727.849,730.75" y="669.922" svg_rhmargin="732.201" style="fill:#000000;font-family:MSSLTZ+URWPalladioL-Roma;font-size:8.97px;font-style:NORMAL;font-weight:normal;">kidney injury, hypophosphatemia,</text>
  <text x="645.38,648.758,651.985,655.473,658.642,661.869,664.771,666.459,669.239,674.364,676.053,678.955,680.4060000000001,681.857,685.345,688.845,690.534,695.658,698.827,702.205,705.107,707.399,710.626,712.077,714.857,718.403,721.183,726.308,729.21" y="677.015" svg_rhmargin="730.661" style="fill:#000000;font-family:MSSLTZ+URWPalladioL-Roma;font-size:8.97px;font-style:NORMAL;font-weight:normal;">hypokalemia, pulmonary edema,</text>
  <text x="642.037,643.929,647.307,649.495,652.664,657.788,660.998,664.167,666.744,669.971,671.863,675.031,678.519,681.299,684.677,686.366,689.268,690.719,692.17,694.95,698.328,700.905,703.685,707.173,710.551,713.452,715.141,718.31,721.798,724.7,726.592,729.97,732.553" y="684.109" svg_rhmargin="734.004" style="fill:#000000;font-family:MSSLTZ+URWPalladioL-Roma;font-size:8.97px;font-style:NORMAL;font-weight:normal;">thrombocytopenia, encephalopathy,</text>
  <text x="646.239,649.141,650.83,653.732,657.11,658.799,662.176,664.956,666.407,669.309,674.434,676.123,679.501,682.669,684.562,686.854,689.756,693.134,695.594,697.527,700.307,702.6,705.502,707.962" y="691.203" svg_rhmargin="710.742" style="fill:#000000;font-family:MSSLTZ+URWPalladioL-Roma;font-size:8.97px;font-style:NORMAL;font-weight:normal;">alanine aminotransferase</text>
  <text x="710.814" y="691.203" svg_rhmargin="713.838" style="fill:#000000;font-family:AMYXWN+CMSY10;font-size:9.34px;font-style:NORMAL;font-weight:normal;">↑</text>
  <text x="713.91,715.361,716.812,720.34,723.84,725.529" y="691.203" svg_rhmargin="729.075" style="fill:#000000;font-family:MSSLTZ+URWPalladioL-Roma;font-size:8.97px;font-style:NORMAL;font-weight:normal;">, ﬂuid</text>
  <text svg_rhmargin="699.07" x="676.244,679.413,682.692,685.472,687.764,689.453,692.622,695.524,699.07" y="669.922" style="fill:#000000;font-family:MSSLTZ+URWPalladioL-Roma;font-size:8.97px;font-style:NORMAL;font-weight:normal;">overload </text>
  <text x="746.594,748.526,751.428,754.33" y="669.922" svg_rhmargin="756.263" style="fill:#000000;font-family:MSSLTZ+URWPalladioL-Roma;font-size:8.97px;font-style:NORMAL;font-weight:normal;">[63]</text>
 </g>
</svg>
