<?xml version="1.0" encoding="UTF-8"?>
<svg height="724.45" width="532.48230826" xmlns="http://www.w3.org/2000/svg">
 <g style="fill:none;">
  <text svg_rhmargin="102.103" x="76.272,81.588,85.127,89.558,92.802,95.902,99.003,102.103" y="21.089000000000055" style="fill:#000000;font-family:AKYTAJ+URWPalladioL-Ital;font-size:7.97px;font-style:italic;font-weight:normal;">Cancers </text>
  <text x="104.096,108.081,112.066,116.051" y="21.089000000000055" svg_rhmargin="120.036" style="fill:#000000;font-family:DPYECX+URWPalladioL-Bold;font-size:7.97px;font-style:NORMAL;font-weight:BOLD;">2019</text>
  <text svg_rhmargin="122.029" x="120.036,122.029" y="21.089000000000055" style="fill:#000000;font-family:MSSLTZ+URWPalladioL-Roma;font-size:7.97px;font-style:NORMAL;font-weight:normal;">, </text>
  <text x="124.021,128.006" y="21.089000000000055" svg_rhmargin="131.991" style="fill:#000000;font-family:AKYTAJ+URWPalladioL-Ital;font-size:7.97px;font-style:italic;font-weight:normal;">11</text>
  <text x="131.991,133.984,135.976,139.961,143.94600000000003,491.809,495.794,499.779,501.772,506.123,508.777,510.77,514.755" y="21.089000000000055" svg_rhmargin="518.74" style="fill:#000000;font-family:MSSLTZ+URWPalladioL-Roma;font-size:7.97px;font-style:NORMAL;font-weight:normal;">, 47 26 of 27</text>
  <text svg_rhmargin="87.743" x="76.535,81.018,85.501,87.74300000000001" y="55.95799999999997" style="fill:#000000;font-family:MSSLTZ+URWPalladioL-Roma;font-size:8.97px;font-style:NORMAL;font-weight:normal;">47. </text>
  <text x="98.05,104.534,109.857,114.238,119.561,121.84800000000001,125.597,130.7,132.987,135.274,139.773,146.257,151.58,155.952,161.274,166.359,168.64600000000002,172.396,177.499,179.785,182.072,186.572,191.373,196.888,201.881,204.168,207.918,212.28,214.567,216.854,221.353,226.63,231.203,236.526,238.81300000000002,242.553,249.037,251.323,253.61,258.109,266.432,271.005,276.328,281.413,283.7,287.44,292.543,294.83,297.11699999999996,301.616,308.1,313.423,317.804,323.126,325.41299999999995,329.163,334.266,336.552,338.839,343.338,350.948,355.521,360.843,363.13,366.87,375.193,377.479,379.76599999999996,384.266,390.366,395.881,398.16799999999995,401.908,407.496,409.782,412.06899999999996,416.568,422.669,427.991,432.564,437.887,442.972,445.25899999999996,449.008,455.108,457.395,459.68199999999996,464.172,469.76,472.421,477.936,480.22299999999996,483.972,490.612,492.899,495.186,499.685,504.066,507.048,510.788,515.36,518.022" y="55.95799999999997" svg_rhmargin="520.308" style="fill:#000000;font-family:MSSLTZ+URWPalladioL-Roma;font-size:8.97px;font-style:NORMAL;font-weight:normal;">Chen, Y.; Cheng, Y.; Suo, P.; Yan, C.; Wang, Y.; Chen, Y.; Han, W.; Xu, L.; Zhang, X.; Liu, K.; et al.</text>
  <text x="98.05,105.129,110.122,115.445,120.439,123.887,126.932,132.52,136.901,140.514,143.175,148.342,152.723,158.311,161.924,168.408,175.487,180.06,184.633,187.678,190.66,195.233,198.69,203.775,208.155,211.128,215.509,221.09699999999998,224.709,230.315,233.928,237.989,242.37,245.031,247.692,251.305,253.966,259.289,262.335,267.85,271.727,274.389,279.382,284.705,288.318,290.979,296.302,301.89,307.405,311.466,315.846,319.724,323.337,331.412,334.074,339.397,342.058,350.134,354.707,357.368,360.971,364.428,368.809,372.687,375.348,380.936,386.451,391.024,393.685,397.298,402.886,405.548,409.425,413.806,418.379,422.257,426.638,429.683,435.006,439.387,444.472,449.045,452.026,454.688,459.855,464.236,467.839,471.296,475.677,483.753,486.414,490.292,494.17,496.831,501.825,507.14799999999997,510.76,513.421" y="68.87" svg_rhmargin="518.744" style="fill:#000000;font-family:MSSLTZ+URWPalladioL-Roma;font-size:8.97px;font-style:NORMAL;font-weight:normal;">Donor-derived CD19-targeted T cell infusion induces minimal residual disease-negative remission in</text>
  <text x="98.05,101.498,105.879,108.54,113.113,118.61,122.487,126.868,132.456,135.959,141.547,144.593,148.653,153.034,155.696,158.357,161.851,166.423,170.484,175.999,178.981,183.362,186.855,189.516,194.601,202.677,208.174,213.497,218.49,223.548,226.209,230.782,234.66,237.641,240.303,244.364,247.857,250.518,254.899,260.414,265.499,270.072,274.453,282.528,285.19,289.763,293.256,300.884,303.545,306.527,311.84999999999997,315.353,320.675,325.669,329.163,332.611,336.991,340.869,346.366,351.359,356.682,360.56,364.94100000000003,368.434,371.416,376.40999999999997,379.912,385.5,390.494,395.817,400.81,404.423,407.916,410.578,415.663,423.738,429.235,434.558,439.551,443.612,448.697,451.679,456.05999999999995,459.553,462.215,467.537,470.583,476.098,479.976,482.637,487.631,492.953,496.83099999999996,500.325,504.898,507.943,510.925,515.306" y="81.78200000000004" svg_rhmargin="518.919" style="fill:#000000;font-family:MSSLTZ+URWPalladioL-Roma;font-size:8.97px;font-style:NORMAL;font-weight:normal;">relapsed B-cell acute lymphoblastic leukaemia with no response to donor lymphocyte infusions after</text>
  <text svg_rhmargin="320.13" x="98.05,103.268,107.752,113.14,115.75,120.645,123.255,128.733,133.028,138.246,141.169,143.779,147.76,152.243,154.852,157.094,162.312,166.795,171.09,179.008,183.491,186.414,191.31,196.698,201.594,204.203,208.498,211.421,214.03,218.011,220.253,224.055,226.978,231.273,239.19,241.432,245.413,249.708,252.317,254.92600000000002,257.168,260.091,263.633,268.116,273.334,277.136,282.525,285.134,289.617,294.836,297.759,302.242,305.165,307.774,312.67,317.888,320.13" y="94.69299999999998" style="fill:#000000;font-family:MSSLTZ+URWPalladioL-Roma;font-size:8.97px;font-style:NORMAL;font-weight:normal;">haploidentical haematopoietic stem cell transplantation. </text>
  <text svg_rhmargin="380.802" x="322.906,328.384,331.209,333.451,336.23,339.216,341.458,343.699,350.675,354.656,358.144,365.12,369.101,372.087,376.068,378.56,380.802" y="94.69299999999998" style="fill:#000000;font-family:AKYTAJ+URWPalladioL-Ital;font-size:8.97px;font-style:italic;font-weight:normal;">Br. J. Haematol. </text>
  <text x="383.581,388.064,392.547,397.031" y="94.69299999999998" svg_rhmargin="401.514" style="fill:#000000;font-family:DPYECX+URWPalladioL-Bold;font-size:8.97px;font-style:NORMAL;font-weight:BOLD;">2017</text>
  <text svg_rhmargin="403.756" x="401.514,403.75600000000003" y="94.69299999999998" style="fill:#000000;font-family:MSSLTZ+URWPalladioL-Roma;font-size:8.97px;font-style:NORMAL;font-weight:normal;">, </text>
  <text x="405.997,410.48,414.963" y="94.69299999999998" svg_rhmargin="419.446" style="fill:#000000;font-family:AKYTAJ+URWPalladioL-Ital;font-size:8.97px;font-style:italic;font-weight:normal;">179</text>
  <text x="419.446,421.68800000000005,423.929,428.412,432.896,437.379,441.862,446.345,450.828,455.312,457.55400000000003,460.333,463.319,469.676,473.056,477.952,481.754,485.555,491.545,495.84,498.826" y="94.69299999999998" svg_rhmargin="501.812" style="fill:#000000;font-family:MSSLTZ+URWPalladioL-Roma;font-size:8.97px;font-style:NORMAL;font-weight:normal;">, 598–605. [CrossRef]</text>
  <text svg_rhmargin="87.743" x="76.535,81.018,85.501,87.74300000000001" y="107.60500000000002" style="fill:#000000;font-family:MSSLTZ+URWPalladioL-Roma;font-size:8.97px;font-style:NORMAL;font-weight:normal;">48. </text>
  <text x="98.05,104.69,109.683,113.744,119.067,123.448,128.771,134.359,138.739,142.352,145.397,149.778,152.723,155.01000000000002,158.339,161.384,163.671,171.271,173.557,175.844,179.712,186.791,192.306,197.894,200.546,204.927,209.024,211.311,214.631,223.283,225.569,231.157,233.443,235.73000000000002,239.598,246.083,250.656,254.268,259.765,264.146,269.468,272.45,276.831,279.776,282.063,285.391,291.5,293.787,300.975,303.262,305.549,309.408,316.048,320.621,324.498,328.376,331.037,339.113,341.4,344.729,349.53,351.817,359.426,361.712,363.99899999999997,367.858,373.968,378.961,382.839,387.22,389.507,392.835,395.881,398.167,401.213,403.499,405.786,409.645,414.428,418.809,421.47,424.516,429.51,432.967,438.555,440.842,444.161,452.484,454.77,461.748,464.035,466.322,470.181,477.79,482.363,487.448,490.109,498.185,500.472,503.8,508.062,510.349,515.287,517.574" y="107.60500000000002" svg_rhmargin="519.86" style="fill:#000000;font-family:MSSLTZ+URWPalladioL-Roma;font-size:8.97px;font-style:NORMAL;font-weight:normal;">Kochenderfer, J.N.; Dudley, M.E.; Carpenter, R.O.; Kassim, S.H.; Rose, J.J.; Telford, W.G.; Hakim, F.T.;</text>
  <text x="98.05,105.473,109.934,112.53,117.57,121.844,125.368,129.151,134.022,139.214,141.445,143.684,150.589,152.82,159.145,161.375,163.606,165.845,170.805,175.677,183.117,185.713,189.987,192.842,195.073,197.311,204.217,206.447,213.87,216.1,218.331,220.57,227.993,232.453,235.817,241.268,245.238,247.469,249.708,257.122,259.352,267.783,270.013,272.24399999999997,274.492,278.756,281.66499999999996,283.904,288.365,290.961,293.192,295.975,302.88,307.751,312.944,317.815,321.178,324.149,329.6,333.874,337.398,339.994,345.035,349.308,354.759,356.99,363.315,370.22,374.681,379.142,382.113,385.021,389.482,392.845,397.806,402.079,404.988,409.261,414.71200000000005,416.951,422.42,424.66,428.621,432.894,435.491,438.087,441.87,444.109,448.07,452.531,457.91,461.693,465.967,468.206,471.569,475.843,480.803,484.167,488.44,492.223,496.006,498.593,503.464,508.657,510.896,515.767" y="120.51599999999996" svg_rhmargin="518.738" style="fill:#000000;font-family:MSSLTZ+URWPalladioL-Roma;font-size:8.97px;font-style:NORMAL;font-weight:normal;">Halverson, D.C.; Fowler, D.H.; Hardy, N.M.; et al. Donor-derived CD19-targeted T cells cause regression of</text>
  <text svg_rhmargin="411.407" x="98.05,106.023,110.537,113.165,115.792,120.813,126.068,130.582,135.837,139.846,144.866,147.096,152.523,156.848,160.414,164.243,166.87,170.699,173.642,176.27,181.525,186.54500000000002,188.766,193.281,196.287,199.231,203.556,207.122,209.353,213.867,216.495,219.122,224.052,229.072,233.397,238.652,242.977,245.605,249.61399999999998,251.835,257.09,261.415,269.387,273.902,276.846,281.775,287.202,292.132,294.759,299.084,302.028,304.655,308.664,310.895,314.723,317.666,321.991,329.964,332.194,336.203,340.528,343.156,345.783,348.004,350.948,354.514,359.029,364.284,368.112,373.539,376.166,380.681,385.936,388.879,393.394,396.337,398.965,403.895,409.15,411.407" y="133.428" style="fill:#000000;font-family:MSSLTZ+URWPalladioL-Roma;font-size:8.97px;font-style:NORMAL;font-weight:normal;">malignancy persisting after allogeneic hematopoietic stem cell transplantation. </text>
  <text svg_rhmargin="434.743" x="414.183,419.7,422.21,426.219,430.228,434.743" y="133.428" style="fill:#000000;font-family:AKYTAJ+URWPalladioL-Ital;font-size:8.97px;font-style:italic;font-weight:normal;">Blood </text>
  <text x="436.97,441.453,445.936,450.42" y="133.428" svg_rhmargin="454.903" style="fill:#000000;font-family:DPYECX+URWPalladioL-Bold;font-size:8.97px;font-style:NORMAL;font-weight:BOLD;">2013</text>
  <text svg_rhmargin="457.16" x="454.903,457.16" y="133.428" style="fill:#000000;font-family:MSSLTZ+URWPalladioL-Roma;font-size:8.97px;font-style:NORMAL;font-weight:normal;">, </text>
  <text x="459.39,463.905,468.419" y="133.428" svg_rhmargin="472.934" style="fill:#000000;font-family:AKYTAJ+URWPalladioL-Ital;font-size:8.97px;font-style:italic;font-weight:normal;">122</text>
  <text x="472.934,475.19100000000003,477.421,481.936,486.451,490.965,495.48,499.994,504.509,509.024,513.538,518.053" y="133.428" svg_rhmargin="520.31" style="fill:#000000;font-family:MSSLTZ+URWPalladioL-Roma;font-size:8.97px;font-style:NORMAL;font-weight:normal;">, 4129–4139.</text>
  <text x="98.05,101.036,107.393,110.773,115.669,119.471,123.272,129.262,133.557,136.543" y="146.34000000000003" svg_rhmargin="139.529" style="fill:#000000;font-family:MSSLTZ+URWPalladioL-Roma;font-size:8.97px;font-style:NORMAL;font-weight:normal;">[CrossRef]</text>
  <text svg_rhmargin="87.743" x="76.535,81.018,85.501,87.74300000000001" y="159.25099999999998" style="fill:#000000;font-family:MSSLTZ+URWPalladioL-Roma;font-size:8.97px;font-style:NORMAL;font-weight:normal;">49. </text>
  <text x="98.05,106.373,110.945,116.268,121.353,123.64,125.862,130.965,133.252,135.53900000000002,137.77,143.87,149.193,153.766,159.089,164.174,166.461,168.682,177.005,179.292,184.395,186.681,188.96800000000002,191.199,198.809,203.381,208.704,210.991,213.213,220.402,222.688,231.001,233.288,235.57500000000002,237.806,243.394,246.055,251.57,253.857,256.079,261.182,263.469,265.756,267.987,275.066,279.638,282.3,284.587,286.809,294.418,296.704,302.814,305.1,307.387,309.618,316.596,322.111,327.105,329.392,331.614,336.717,339.003,344.591,346.878,349.16499999999996,351.396,356.984,361.978,364.265,366.486,369.532,371.818,374.10499999999996,376.336,381.421,385.994,391.317,393.604,395.826,403.435,405.722,408.00899999999996,410.23,416.331,421.653,426.226,431.549,436.634,438.921,441.143,446.255,448.542,450.82899999999995,453.051,459.151,464.474,469.047,474.369,479.454,481.741,483.963,489.067,491.353,494.399,496.685,498.972,501.203,505.584,508.56600000000003,510.788,515.361,518.022" y="159.25099999999998" svg_rhmargin="520.308" style="fill:#000000;font-family:MSSLTZ+URWPalladioL-Roma;font-size:8.97px;font-style:NORMAL;font-weight:normal;">Wang, Y.; Zhang, W.Y.; Han, Q.W.; Liu, Y.; Dai, H.R.; Guo, Y.L.; Bo, J.; Fan, H.; Zhang, Y.; Zhang, Y.J.; et al.</text>
  <text x="98.05,103.594,106.453,109.474,113.821,117.849,120.808,123.448,128.575,132.921,135.163,138.584,142.93,146.777,152.231,157.185,162.466,166.314,170.66,172.901,177.438,182.719,188.263,190.505,196.049,200.396,203.036,207.573,212.618,216.965,222.50900000000001,224.759,227.717,232.672,237.354,239.995,244.014,246.655,249.613,252.254,256.6,260.447,262.698,267.652,270.674,272.915,276.336,280.682,283.704,287.288,291.825,295.854,298.812,303.767,307.351,312.396,314.637,319.174,324.718,329.845,334.382,339.663,343.692,348.039,353.58299999999997,355.824,361.368,364.009,366.867,369.889,375.36,379.208,383.55400000000003,385.795,388.436,392.973,396.394,401.439,405.785,408.027,413.571,416.593,420.621,424.968,427.608,430.249,432.49,435.131,440.176,448.188,453.642,458.923,463.877,471.889,476.426,478.668,481.626,485.056,489.402,493.939,496.897,501.244,506.788,509.029,514.047" y="172.163" svg_rhmargin="519.092" style="fill:#000000;font-family:MSSLTZ+URWPalladioL-Roma;font-size:8.97px;font-style:NORMAL;font-weight:normal;">Effective response and delayed toxicities of refractory advanced diffuse large B-cell lymphoma treated by</text>
  <text svg_rhmargin="327.492" x="98.05,104.407,111.347,115.83,120.314,123.299,128.778,131.387,134.767,139.062,143.043,145.966,150.261,155.739,157.981,161.963,167.181,169.79,177.708,182.002,185.544,188.153,192.134,194.376,198.859,204.078,207.001,209.61,214.595,218.89,224.10799999999998,226.35,229.731,234.025,238.007,242.301,247.69,250.613,255.509,258.889,261.875,269.792,274.688,280.167,282.776,288.201,292.495,297.973,300.215,305.71099999999996,307.953,311.935,316.229,318.839,321.448,325.25,327.492" y="185.07399999999996" style="fill:#000000;font-family:MSSLTZ+URWPalladioL-Roma;font-size:8.97px;font-style:NORMAL;font-weight:normal;">CD20-directed chimeric antigen receptor-modiﬁed T cells. </text>
  <text svg_rhmargin="386.864" x="330.268,336.249,338.741,341.234,346.219,348.461,351.24,354.226,361.202,368.178,373.163,378.149,382.13,384.622,386.86400000000003" y="185.07399999999996" style="fill:#000000;font-family:AKYTAJ+URWPalladioL-Ital;font-size:8.97px;font-style:italic;font-weight:normal;">Clin. Immunol. </text>
  <text x="389.642,394.125,398.608,403.092" y="185.07399999999996" svg_rhmargin="407.575" style="fill:#000000;font-family:DPYECX+URWPalladioL-Bold;font-size:8.97px;font-style:NORMAL;font-weight:BOLD;">2014</text>
  <text svg_rhmargin="409.817" x="407.575,409.817" y="185.07399999999996" style="fill:#000000;font-family:MSSLTZ+URWPalladioL-Roma;font-size:8.97px;font-style:NORMAL;font-weight:normal;">, </text>
  <text x="412.058,416.541,421.024" y="185.07399999999996" svg_rhmargin="425.507" style="fill:#000000;font-family:AKYTAJ+URWPalladioL-Ital;font-size:8.97px;font-style:italic;font-weight:normal;">155</text>
  <text x="425.508,427.75,429.991,434.474,438.958,443.441,447.924,452.407,456.891,461.374,463.61600000000004,466.395,469.381,475.738,479.118,484.014,487.816,491.617,497.607,501.902,504.888" y="185.07399999999996" svg_rhmargin="507.874" style="fill:#000000;font-family:MSSLTZ+URWPalladioL-Roma;font-size:8.97px;font-style:NORMAL;font-weight:normal;">, 160–175. [CrossRef]</text>
  <text svg_rhmargin="87.743" x="76.535,81.018,85.501,87.74300000000001" y="197.986" style="fill:#000000;font-family:MSSLTZ+URWPalladioL-Roma;font-size:8.97px;font-style:NORMAL;font-weight:normal;">50. </text>
  <text x="98.05,104.851,109.245,114.209,116.766,119.324,123.717,125.914,127.724,136.037,138.233,143.602,145.799,147.996,149.955,155.825,158.382,163.347,165.904,170.113,173.426,177.635,179.832,181.641,184.603,186.799,188.996,190.956,198.917,203.31,208.424,213.31,215.507,217.317,223.178,225.375,227.572,229.531,234.9,239.293,242.764,245.629,248.186,253.555,258.353,260.55,262.368,266.981,269.178,271.375,273.326,278.633,283.027,286.498,291.383,293.58,295.399,298.325,300.522,302.719,304.669,310.899,316.198,319.669,323.14,327.533,332.647,334.844,336.663,343.042,345.239,347.436,349.387,355.617,360.731,366.03,371.144,376.029,378.226,380.045,384.658,386.855,391.468,393.665,395.862,397.821,402.434,405.299,409.508,412.434,416.828,421.933,425.659,430.544,433.101,435.298,437.117,440.043,442.24,444.437,446.396,451.765,456.563,459.867,464.787,470.086,474.295,478.689,481.615,488.521,490.578,494.787,500.155,504.549,506.746,508.565,515.471,517.668" y="197.986" svg_rhmargin="519.865" style="fill:#000000;font-family:MSSLTZ+URWPalladioL-Roma;font-size:8.97px;font-style:NORMAL;font-weight:normal;">Davila, M.L.; Riviere, I.; Wang, X.; Bartido, S.; Park, J.; Curran, K.; Chung, S.S.; Stefanski, J.; Borquez-Ojeda, O.;</text>
  <text x="98.05,105.239,107.9,111.778,116.351,120.731,128.359,132.237,137.322,141.895,144.18200000000002,147.565,156.217,158.503,160.79,164.75,169.131,172.113,175.496,180.069,182.73,185.017,191.227,196.815,199.705,205.229,209.29,213.862,217.923,223.008,226.392,230.965,236.288,241.876,245.26,248.241,253.235,257.954,260.615,264.676,267.337,270.319,275.404,278.797,286.873,291.446,296.768,301.341,306.426,310.807,318.883,323.264,328.586,331.56800000000004,334.952,339.945,342.991,346.375,350.948,355.521,358.566,363.139,367.712,372.28499999999997,375.669,382.153,389.268,395.378,398.762,404.368,407.752,411.813,416.193,418.855,421.516,424.9,427.882,433.204,437.585,441.198,445.771,451.267,456.352,459.736,462.398,467.721,471.104,476.692,480.076,484.137,488.518,491.179,493.84,497.234,501.806,505.867,511.382,514.364" y="210.89800000000002" svg_rhmargin="518.745" style="fill:#000000;font-family:MSSLTZ+URWPalladioL-Roma;font-size:8.97px;font-style:NORMAL;font-weight:normal;">Olszewska, M.; et al. Efﬁcacy and toxicity management of 19-28z CAR T cell therapy in B cell acute</text>
  <text svg_rhmargin="195.515" x="98.05,100.659,105.645,113.562,118.951,124.169,129.065,134.023,136.632,141.116,144.917,147.84,150.45,154.43099999999998,156.672,159.282,163.576,168.983,173.969,178.263,186.181,188.79,193.273,195.515" y="223.80899999999997" style="fill:#000000;font-family:MSSLTZ+URWPalladioL-Roma;font-size:8.97px;font-style:NORMAL;font-weight:normal;">lymphoblastic leukemia. </text>
  <text svg_rhmargin="261.058" x="198.293,203.278,206.928,209.42,211.66199999999998,214.441,218.925,222.413,226.394,231.379,234.867,237.36,239.602,242.381,250.845,254.333,258.816,261.058" y="223.80899999999997" style="fill:#000000;font-family:AKYTAJ+URWPalladioL-Ital;font-size:8.97px;font-style:italic;font-weight:normal;">Sci. Transl. Med. </text>
  <text x="263.837,268.32,272.803,277.287" y="223.80899999999997" svg_rhmargin="281.77" style="fill:#000000;font-family:DPYECX+URWPalladioL-Bold;font-size:8.97px;font-style:NORMAL;font-weight:BOLD;">2014</text>
  <text svg_rhmargin="284.011" x="281.769,284.011" y="223.80899999999997" style="fill:#000000;font-family:MSSLTZ+URWPalladioL-Roma;font-size:8.97px;font-style:NORMAL;font-weight:normal;">, </text>
  <text x="286.252" y="223.80899999999997" svg_rhmargin="290.735" style="fill:#000000;font-family:AKYTAJ+URWPalladioL-Ital;font-size:8.97px;font-style:italic;font-weight:normal;">6</text>
  <text x="290.736,292.978,295.219,299.702,304.186,308.669,312.211,316.694,321.177,325.66,327.90200000000004,330.681,333.667,340.024,343.405,348.3,352.102,355.904,361.893,366.188,369.174" y="223.80899999999997" svg_rhmargin="372.16" style="fill:#000000;font-family:MSSLTZ+URWPalladioL-Roma;font-size:8.97px;font-style:NORMAL;font-weight:normal;">, 224ra25. [CrossRef]</text>
  <text svg_rhmargin="87.743" x="76.535,81.018,85.501,87.74300000000001" y="236.721" style="fill:#000000;font-family:MSSLTZ+URWPalladioL-Roma;font-size:8.97px;font-style:NORMAL;font-weight:normal;">51. </text>
  <text x="98.05,103.574,108.147,113.47,115.757,118.079,121.125,123.411,125.69800000000001,128.048,133.325,137.898,143.221,148.306,150.59300000000002,152.915,155.961,158.247,162.509,164.796,167.083,169.432,176.511,180.892,186.215,191.3,193.58700000000002,195.909,201.497,203.784,208.146,210.433,212.72,215.079,221.179,226.502,231.075,236.068,238.35500000000002,240.678,246.778,249.064,252.11,254.396,256.683,259.042,265.142,270.456,275.029,280.352,285.437,287.724,290.046,296.146,298.433,300.71999999999997,303.079,308.667,311.328,316.651,318.938,321.252,326.364,328.65,336.26,338.546,340.83299999999997,343.183,351.881,357.395,359.68199999999996,362.005,367.108,369.395,376.995,379.281,381.568,383.927,391.006,395.387,400.71,405.795,408.082,410.395,416.495,418.782,424.37,426.656,428.943,431.302,437.402,442.725,447.298,452.621,457.706,459.993,462.315,467.419,469.705,475.293,477.579,479.866,482.226,487.814,490.475,495.99,498.277,500.59,505.392,507.678,515.287,517.574" y="236.721" svg_rhmargin="519.86" style="fill:#000000;font-family:MSSLTZ+URWPalladioL-Roma;font-size:8.97px;font-style:NORMAL;font-weight:normal;">Pan, J.; Yang, J.F.; Deng, B.P.; Zhao, X.J.; Zhang, X.; Lin, Y.H.; Wu, Y.N.; Deng, Z.L.; Zhang, Y.L.; Liu, S.H.;</text>
  <text x="98.05,102.332,105.246,107.499,111.969,114.57,116.80499999999999,119.603,127.041,129.642,134.613,139.816,142.068,146.35,149.166,154.574,158.544,163.013,166.983,171.954,174.197,178.666,183.869,189.331,191.584,195.374,199.844,202.821,207.103,210.017,214.988,217.24,222.121,225.098,227.342,229.943,234.824,242.28,245.257,250.719,255.6,259.39,263.67199999999997,265.925,272.263,279.182,283.652,288.122,291.099,296.561,299.162,302.532,306.814,310.783,313.698,317.98,323.442,325.685,332.024,338.978,344.95,347.927,353.40700000000004,355.66,359.629,363.911,366.512,369.114,371.357,374.272,379.474,383.756,387.288,391.757,397.13,402.101,404.353,406.954,412.157,414.41,418.88,423.35,425.593,428.963,433.245,436.222,439.753,444.223,448.192,451.107,455.988,459.519,464.49,466.742,471.623,475.154,477.398,480.768,485.05,487.651,492.121,497.494,501.284,505.566,511.02799999999996,513.281" y="249.63199999999995" svg_rhmargin="518.743" style="fill:#000000;font-family:MSSLTZ+URWPalladioL-Roma;font-size:8.97px;font-style:NORMAL;font-weight:normal;">et al. High efﬁcacy and safety of low-dose CD19-directed CAR-T cell therapy in 51 refractory or relapsed B</text>
  <text svg_rhmargin="252.73" x="98.05,102.533,106.514,111.921,114.844,119.139,121.381,123.99,128.975,136.892,142.281,147.5,152.395,157.354,159.963,164.446,168.248,171.171,173.78,177.761,180.003,182.612,186.907,192.314,197.299,201.594,209.511,212.121,216.604,218.845,224.234,228.717,231.64,234.25,238.545,243.763,246.686,250.488,252.73" y="262.544" style="fill:#000000;font-family:MSSLTZ+URWPalladioL-Roma;font-size:8.97px;font-style:NORMAL;font-weight:normal;">acute lymphoblastic leukemia patients. </text>
  <text svg_rhmargin="289.884" x="255.507,260.492,263.98,268.966,272.947,276.435,283.41,285.903,289.884" y="262.544" style="fill:#000000;font-family:AKYTAJ+URWPalladioL-Ital;font-size:8.97px;font-style:italic;font-weight:normal;">Leukemia </text>
  <text x="292.125,296.608,301.091,305.575" y="262.544" svg_rhmargin="310.058" style="fill:#000000;font-family:DPYECX+URWPalladioL-Bold;font-size:8.97px;font-style:NORMAL;font-weight:BOLD;">2017</text>
  <text svg_rhmargin="312.3" x="310.058,312.3" y="262.544" style="fill:#000000;font-family:MSSLTZ+URWPalladioL-Roma;font-size:8.97px;font-style:NORMAL;font-weight:normal;">, </text>
  <text x="314.541,319.024" y="262.544" svg_rhmargin="323.507" style="fill:#000000;font-family:AKYTAJ+URWPalladioL-Ital;font-size:8.97px;font-style:italic;font-weight:normal;">31</text>
  <text x="323.507,325.749,327.99,332.473,336.957,341.44,345.923,350.406,354.89,359.373,363.856,368.339,370.581,373.36,376.346,382.703,386.084,390.979,394.781,398.583,404.572,408.867,411.853,414.839,417.081,420.066,425.482,430.889,435.847,444.329,448.624,454.103" y="262.544" svg_rhmargin="457.089" style="fill:#000000;font-family:MSSLTZ+URWPalladioL-Roma;font-size:8.97px;font-style:NORMAL;font-weight:normal;">, 2587–2593. [CrossRef] [PubMed]</text>
  <text svg_rhmargin="87.743" x="76.535,81.018,85.501,87.74300000000001" y="275.456" style="fill:#000000;font-family:MSSLTZ+URWPalladioL-Roma;font-size:8.97px;font-style:NORMAL;font-weight:normal;">52. </text>
  <text x="98.05,103.135,106.748,111.32,113.982,118.363,121.344,124.326,128.899,131.186,133.554,136.599,138.886,146.001,148.288,150.57500000000002,153.007,158.595,162.976,167.036,172.121,179.749,182.41,185.392,190.715,193.002,195.37,202.0,204.287,211.402,213.689,215.976,218.408,223.932,228.505,231.486,235.867,238.528,240.815,243.184,247.555,249.842,255.951,258.237,260.524,262.948,269.057,274.572,278.953,281.614,284.275,288.848,291.135,293.503,302.155,304.442,306.729,309.161,315.261,320.584,324.965,330.288,335.373,337.65999999999997,340.028,346.128,348.414,350.70099999999996,353.134,358.722,363.294,366.907,370.355,374.736,377.717,380.699,382.986,385.354,392.433,394.719,403.371,405.658,407.945,410.377,415.965,420.538,424.598,428.979,433.067,435.354,437.722,442.524,444.81,449.072,451.359,453.64599999999996,456.069,464.721,469.101,471.763,476.144,481.466,486.789,491.783,495.395,499.273,502.255,504.542,506.91,509.955,512.242,515.287,517.574" y="275.456" svg_rhmargin="519.86" style="fill:#000000;font-family:MSSLTZ+URWPalladioL-Roma;font-size:8.97px;font-style:NORMAL;font-weight:normal;">Fraietta, J.A.; Beckwith, K.A.; Patel, P.R.; Ruella, M.; Zheng, Z.; Barrett, D.M.; Lacey, S.F.; Melenhorst, J.J.;</text>
  <text x="98.05,106.702,110.763,117.741,122.122,125.103,128.085,130.746,135.831,140.404,145.727,148.014,150.519,155.321,157.607,163.195,165.481,167.768,170.402,176.886,181.88,186.873,191.958,194.245,196.751,203.83,206.116,212.225,214.512,216.799,219.441,223.822,226.804,229.3,233.873,236.535,238.822,242.397,245.479,250.537,254.076,259.591,262.573,265.234,270.557,273.218,278.276,280.782,285.162,290.485,295.808,300.381,305.704,309.764,314.145,318.02299999999997,320.529,324.59,329.912,332.574,340.65,345.03,348.643,351.304,355.36499999999995,357.871,362.444,367.767,370.748,373.41,378.495,382.875,388.198,390.704,394.152,398.533,402.594,406.974,412.471,415.452,420.446,424.059,426.564,431.677,434.722,438.783,443.164,445.825,448.486,450.993,455.373,460.696,465.781,469.394,473.967,477.012,479.994,488.069,492.45,497.773,500.75500000000005,503.26,507.833,513.156" y="288.367" svg_rhmargin="518.744" style="fill:#000000;font-family:MSSLTZ+URWPalladioL-Roma;font-size:8.97px;font-style:NORMAL;font-weight:normal;">McGettigan, S.E.; Cook, D.R.; et al. Ibrutinib enhances chimeric antigen receptor T-cell engraftment and</text>
  <text svg_rhmargin="179.178" x="98.05,102.345,105.169,110.594,114.575,119.058,123.039,128.024,130.266,132.875,138.093,140.336,142.945,147.24,152.646,157.632,161.927,169.844,172.453,176.936,179.178" y="301.279" style="fill:#000000;font-family:MSSLTZ+URWPalladioL-Roma;font-size:8.97px;font-style:NORMAL;font-weight:normal;">efﬁcacy in leukemia. </text>
  <text svg_rhmargin="202.373" x="181.957,187.435,189.928,193.909,197.89,202.373" y="301.279" style="fill:#000000;font-family:AKYTAJ+URWPalladioL-Ital;font-size:8.97px;font-style:italic;font-weight:normal;">Blood </text>
  <text x="204.615,209.098,213.581,218.065" y="301.279" svg_rhmargin="222.548" style="fill:#000000;font-family:DPYECX+URWPalladioL-Bold;font-size:8.97px;font-style:NORMAL;font-weight:BOLD;">2016</text>
  <text svg_rhmargin="224.789" x="222.547,224.789" y="301.279" style="fill:#000000;font-family:MSSLTZ+URWPalladioL-Roma;font-size:8.97px;font-style:NORMAL;font-weight:normal;">, </text>
  <text x="227.031,231.514,235.997" y="301.279" svg_rhmargin="240.48" style="fill:#000000;font-family:AKYTAJ+URWPalladioL-Ital;font-size:8.97px;font-style:italic;font-weight:normal;">127</text>
  <text x="240.48,242.72199999999998,244.963,249.446,253.93,258.413,262.896,267.379,271.862,276.346,280.829,285.312,287.55400000000003,290.333,293.319,299.676,303.057,307.952,311.754,315.556,321.545,325.84,328.826,331.812,334.053,337.039,342.455,347.862,352.82,361.302,365.597,371.076" y="301.279" svg_rhmargin="374.062" style="fill:#000000;font-family:MSSLTZ+URWPalladioL-Roma;font-size:8.97px;font-style:NORMAL;font-weight:normal;">, 1117–1127. [CrossRef] [PubMed]</text>
  <text svg_rhmargin="87.743" x="76.535,81.018,85.501,87.74300000000001" y="314.19" style="fill:#000000;font-family:MSSLTZ+URWPalladioL-Roma;font-size:8.97px;font-style:NORMAL;font-weight:normal;">53. </text>
  <text x="98.05,102.852,108.366,111.979,114.96,117.622,122.003,124.29,127.618,134.102,136.389,139.434,141.721,144.008,147.885,155.494,160.067,165.39,169.963,175.496,177.78300000000002,181.112,186.7,188.986,196.101,198.388,200.675,204.552,210.14,214.521,217.978,223.063,227.444,230.389,232.67600000000002,236.004,242.489,244.775,247.062,250.939,258.548,264.063,269.651,274.032,278.093,282.474,287.559,289.846,293.183,301.835,304.122,306.409,310.286,315.81,320.191,325.513,331.102,335.482,338.427,340.714,344.043,349.631,351.917,354.20399999999995,358.081,364.191,369.184,374.242,376.903,382.226,386.104,391.097,396.42,398.707,402.045,407.624,409.91,412.197,416.074,423.684,428.257,435.884,440.969,443.631,448.953,452.831,455.118,458.456,464.565,466.852,469.13899999999995,473.016,479.5,484.823,489.396,494.719,499.099,503.188,505.47499999999997,508.803,515.287,517.574" y="314.19" svg_rhmargin="519.86" style="fill:#000000;font-family:MSSLTZ+URWPalladioL-Roma;font-size:8.97px;font-style:NORMAL;font-weight:normal;">Turtle, C.J.; Hanaﬁ, L.A.; Berger, C.; Hudecek, M.; Pender, B.; Robinson, E.; Hawkins, R.; Chaney, C.;</text>
  <text x="98.05,104.534,109.857,114.238,117.851,120.512,125.085,130.408,132.695,135.365,140.166,142.453,144.74,147.629,154.113,159.436,163.817,169.131,171.418,174.097,180.197,182.483,184.77,187.651,192.032,195.014,197.684,202.256,204.918,207.205,211.274,214.356,222.432,230.508,236.023,241.345,246.339,249.32,254.643,259.024,262.637,267.209,272.706,277.791,280.462,285.455,288.501,291.171,296.494,301.488,306.81,309.856,317.465,322.459,328.047,333.132,338.217,340.878,346.201,348.744,352.622,355.292,357.953,363.038,371.114,376.611,381.933,386.927,395.003,399.57599999999996,402.246,409.874,412.535,415.517,420.84,423.51,428.08299999999997,430.753,436.341,440.722,446.255,451.578,455.959,461.547,464.218,467.83,472.403,475.385,478.046,483.03999999999996,485.71,490.704,493.75,496.42,502.904,509.983,514.556" y="327.102" svg_rhmargin="520.098" style="fill:#000000;font-family:MSSLTZ+URWPalladioL-Roma;font-size:8.97px;font-style:NORMAL;font-weight:normal;">Cherian, S.; Chen, X.; et al. Immunotherapy of non-Hodgkin’s lymphoma with a deﬁned ratio of CD8+</text>
  <text svg_rhmargin="375.375" x="98.05,102.623,107.946,113.53399999999999,116.186,122.67,129.749,134.322,139.864,142.517,149.001,156.08,160.653,165.225,168.271,172.149,177.645,182.026,186.087,188.748,194.281,198.342,201.003,205.055,210.378,213.039,221.115,225.496,229.108,231.77,235.83100000000002,238.492,243.065,248.387,251.369,254.03,259.115,263.496,268.81899999999996,271.471,274.919,279.3,283.361,287.742,293.238,296.22,301.213,304.661,307.707,315.782,320.776,326.364,329.025,334.559,338.939,344.52700000000004,347.189,352.795,355.447,359.508,363.889,366.55,369.212,373.089,375.376" y="340.014" style="fill:#000000;font-family:MSSLTZ+URWPalladioL-Roma;font-size:8.97px;font-style:NORMAL;font-weight:normal;">and CD4+ CD19-speciﬁc chimeric antigen receptor-modiﬁed T cells. </text>
  <text svg_rhmargin="445.787" x="379.389,384.474,388.196,390.739,393.02599999999995,397.04,401.631,405.189,409.25,414.335,417.893,420.435,422.722,426.736,435.37,438.928,443.501,445.78799999999995" y="340.014" style="fill:#000000;font-family:AKYTAJ+URWPalladioL-Ital;font-size:8.97px;font-style:italic;font-weight:normal;">Sci. Transl. Med. </text>
  <text x="449.808,454.291,458.774,463.258" y="340.014" svg_rhmargin="467.741" style="fill:#000000;font-family:DPYECX+URWPalladioL-Bold;font-size:8.97px;font-style:NORMAL;font-weight:BOLD;">2016</text>
  <text svg_rhmargin="470.027" x="467.741,470.02799999999996" y="340.014" style="fill:#000000;font-family:MSSLTZ+URWPalladioL-Roma;font-size:8.97px;font-style:NORMAL;font-weight:normal;">, </text>
  <text x="472.784" y="340.014" svg_rhmargin="477.357" style="fill:#000000;font-family:AKYTAJ+URWPalladioL-Ital;font-size:8.97px;font-style:italic;font-weight:normal;">8</text>
  <text x="477.357,479.644,482.396,486.969,491.542,496.115,499.727,504.3,508.873,513.446,518.019" y="340.014" svg_rhmargin="520.305" style="fill:#000000;font-family:MSSLTZ+URWPalladioL-Roma;font-size:8.97px;font-style:NORMAL;font-weight:normal;">, 355ra116.</text>
  <text x="98.05,101.036,107.393,110.773,115.669,119.471,123.272,129.262,133.557,136.543,139.529,141.77,144.756,150.172,155.578,160.537,169.019,173.314,178.792" y="352.925" svg_rhmargin="181.778" style="fill:#000000;font-family:MSSLTZ+URWPalladioL-Roma;font-size:8.97px;font-style:NORMAL;font-weight:normal;">[CrossRef] [PubMed]</text>
  <text svg_rhmargin="87.743" x="76.535,81.018,85.501,87.74300000000001" y="365.837" style="fill:#000000;font-family:MSSLTZ+URWPalladioL-Roma;font-size:8.97px;font-style:NORMAL;font-weight:normal;">54. </text>
  <text x="98.05,104.534,108.074,113.589,118.161,120.44800000000001,122.881,129.365,131.651,137.761,140.047,142.334,144.858,153.51,156.171,160.232,165.317,167.969,172.35,175.331,180.654,188.282,192.855,195.516,198.498,202.878,205.165,207.598,214.237,216.524,220.895,223.182,225.469,227.983,232.785,237.358,242.525,247.519,250.18,255.768,260.762,263.049,265.481,271.069,273.355,275.642,278.166,284.275,288.848,296.924,301.918,305.795,308.082,310.505,316.99,319.276,326.391,328.678,330.965,333.489,339.077,343.65,351.725,354.012,356.444,361.246,363.532,365.81899999999996,368.334,374.974,380.489,382.77599999999995,385.208,390.009,392.296,394.58299999999997,397.106,404.185,406.847,411.84,417.355,420.401,422.688,425.111,432.299,434.586,436.873,439.396,444.984,447.646,453.161,455.448,457.88,463.468,465.754,468.041,470.556,476.144,480.717,484.329,487.786,492.167,495.149,498.13,500.417,502.84,509.956,512.242,515.287,517.574" y="365.837" svg_rhmargin="519.86" style="fill:#000000;font-family:MSSLTZ+URWPalladioL-Roma;font-size:8.97px;font-style:NORMAL;font-weight:normal;">Cruz, C.R.; Micklethwaite, K.P.; Savoldo, B.; Ramos, C.A.; Lam, S.; Ku, S.; Diouf, O.; Liu, E.; Barrett, A.J.;</text>
  <text x="98.05,101.011,103.876,108.674,110.87100000000001,113.032,117.645,119.842,122.039,124.227,128.436,131.30100000000002,133.462,137.855,140.412,142.609,145.36,148.321,153.435,156.361,161.66,165.385,167.942,172.74,177.854,180.016,184.814,187.73999999999998,189.901,195.27,200.068,205.182,209.98,213.292,216.219,221.587,225.796,229.267,231.824,236.789,240.998,246.367,248.529,254.759,261.56,265.953,270.347,273.273,276.577,280.786,286.155,288.712,292.025,296.234,300.135,303.0,307.209,312.578,314.739,319.704,322.261,325.662,330.96,334.686,337.612,341.338,346.619,350.828,354.729,357.286,362.602,366.503,368.665,374.05100000000004,376.214,380.115,384.324,386.881,389.438,393.164,395.325,398.252,403.049,406.52,408.682,414.051,416.977,420.878,425.087,427.644,430.201,432.363,440.122,444.515,447.072,449.63,454.515,459.629,464.023,469.137,473.038,475.595,479.804,483.53,485.692,488.996,493.205,495.762,500.155,505.436,509.162,513.371" y="378.748" svg_rhmargin="518.74" style="fill:#000000;font-family:MSSLTZ+URWPalladioL-Roma;font-size:8.97px;font-style:NORMAL;font-weight:normal;">Ito, S.; et al. Infusion of donor-derived CD19-redirected virus-speciﬁc T cells for B-cell malignancies relapsed</text>
  <text svg_rhmargin="308.483" x="98.05,102.533,105.519,108.442,112.737,116.279,118.52,123.003,125.613,128.222,133.118,138.103,142.398,147.616,151.911,154.52,158.501,160.743,164.545,167.468,171.763,179.68,181.922,185.903,190.198,192.807,195.416,197.658,200.581,204.123,208.606,213.824,217.626,223.015,225.624,230.107,235.326,238.249,240.49099999999999,243.27,250.246,252.487,257.876,263.095,267.578,271.38,275.675,277.916,282.399,284.641,288.443,291.366,296.772,302.251,306.241,308.483" y="391.66" style="fill:#000000;font-family:MSSLTZ+URWPalladioL-Roma;font-size:8.97px;font-style:NORMAL;font-weight:normal;">after allogeneic stem cell transplant: A phase 1 study. </text>
  <text svg_rhmargin="331.675" x="311.259,316.737,319.23,323.211,327.192,331.675" y="391.66" style="fill:#000000;font-family:AKYTAJ+URWPalladioL-Ital;font-size:8.97px;font-style:italic;font-weight:normal;">Blood </text>
  <text x="333.917,338.4,342.883,347.367" y="391.66" svg_rhmargin="351.85" style="fill:#000000;font-family:DPYECX+URWPalladioL-Bold;font-size:8.97px;font-style:NORMAL;font-weight:BOLD;">2013</text>
  <text svg_rhmargin="354.092" x="351.85,354.09200000000004" y="391.66" style="fill:#000000;font-family:MSSLTZ+URWPalladioL-Roma;font-size:8.97px;font-style:NORMAL;font-weight:normal;">, </text>
  <text x="356.333,360.816,365.299" y="391.66" svg_rhmargin="369.782" style="fill:#000000;font-family:AKYTAJ+URWPalladioL-Ital;font-size:8.97px;font-style:italic;font-weight:normal;">122</text>
  <text x="369.783,372.02500000000003,374.266,378.749,383.233,387.716,392.199,396.682,401.166,405.649,410.132,414.615,416.857,419.636,422.622,428.979,432.36,437.255,441.057,444.859,450.848,455.143,458.129,461.115,463.357,466.342,471.758,477.165,482.123,490.605,494.9,500.379" y="391.66" svg_rhmargin="503.365" style="fill:#000000;font-family:MSSLTZ+URWPalladioL-Roma;font-size:8.97px;font-style:NORMAL;font-weight:normal;">, 2965–2973. [CrossRef] [PubMed]</text>
  <text svg_rhmargin="87.743" x="76.535,81.018,85.501,87.74300000000001" y="404.572" style="fill:#000000;font-family:MSSLTZ+URWPalladioL-Roma;font-size:8.97px;font-style:NORMAL;font-weight:normal;">55. </text>
  <text x="98.05,105.028,109.601,113.049,118.637,123.96,128.341,131.295,133.582,136.983,143.093,145.379,152.495,154.781,157.068,161.055,166.14,168.801,174.124,179.447,183.828,187.925,190.21200000000002,193.614,200.802,203.089,205.376,209.363,216.478,221.801,227.124,231.504,235.382,238.044,242.424,246.513,248.8,252.21,258.695,260.981,263.268,267.255,272.843,276.456,281.029,286.114,291.199,295.579,297.866,301.277,308.887,311.173,313.46,317.447,322.248,327.763,335.839,343.915,348.295,351.908,355.786,358.073,361.474,367.959,370.245,372.532,376.519,382.107,386.488,391.573,395.954,398.908,401.195,404.597,411.236,413.523,415.81,419.806,425.394,428.046,432.427,437.0,442.085,444.746,449.127,453.224,455.51099999999997,458.913,467.565,469.851,472.138,476.125,481.713,485.17,490.164,497.792,503.114,505.40099999999995,508.803,515.287,517.574" y="404.572" svg_rhmargin="519.86" style="fill:#000000;font-family:MSSLTZ+URWPalladioL-Roma;font-size:8.97px;font-style:NORMAL;font-weight:normal;">Gardner, R.A.; Finney, O.; Annesley, C.; Brakke, H.; Summers, C.; Leger, K.; Bleakley, M.; Brown, C.;</text>
  <text x="98.05,106.702,111.787,116.168,121.225,124.673,129.667,132.557,135.593,137.88,140.303,145.105,147.391,149.678,152.174,158.814,163.195,165.856,168.518,173.603,176.648,181.45,186.947,190.559,195.132,198.113,201.095,203.382,205.805,212.445,214.731,219.533,221.819,224.106,226.602,230.983,233.965,236.388,240.961,243.623,245.91,249.211,252.293,257.616,260.597,264.978,270.301,273.282,276.328,279.309,284.303,287.348,290.33,293.778,298.159,302.731,305.713,308.137,310.798,315.17,320.684,325.77,330.15,338.226,340.887,345.46,347.884,351.332,355.713,363.788,366.45,370.327,374.205,376.867,381.86,387.183,389.598,394.655,399.73999999999995,402.155,408.639,415.718,420.291,424.864,427.287,433.771,440.887,446.997,449.411,455.017,457.431,461.492,465.873,468.534,471.196,475.074,477.488,482.481,485.527,487.951,493.539,497.919,503.453,508.775,513.156" y="417.483" svg_rhmargin="518.744" style="fill:#000000;font-family:MSSLTZ+URWPalladioL-Roma;font-size:8.97px;font-style:NORMAL;font-weight:normal;">Mgebroff, S.; Kelly-Spratt, K.S.; et al. Intent-to-treat leukemia remission by CD19 CAR T cells of deﬁned</text>
  <text svg_rhmargin="303.112" x="98.05,101.036,105.931,109.473,117.391,122.797,125.406,129.89,132.813,135.422,140.318,145.536,147.778,152.261,157.479,162.95700000000002,165.199,170.678,175.574,179.375,183.67,185.912,188.521,193.73899999999998,195.981,199.962,205.181,207.79,210.399,215.877,219.258,223.553,228.771,231.013,235.496,240.714,246.192,248.435,253.42,258.315,263.722,268.941,273.926,276.168,280.651,286.129,291.536,294.145,297.068,300.87,303.112" y="430.395" style="fill:#000000;font-family:MSSLTZ+URWPalladioL-Roma;font-size:8.97px;font-style:NORMAL;font-weight:normal;">formulation and dose in children and young adults. </text>
  <text svg_rhmargin="326.305" x="305.889,311.367,313.86,317.841,321.822,326.305" y="430.395" style="fill:#000000;font-family:AKYTAJ+URWPalladioL-Ital;font-size:8.97px;font-style:italic;font-weight:normal;">Blood </text>
  <text x="328.547,333.03,337.513,341.997" y="430.395" svg_rhmargin="346.48" style="fill:#000000;font-family:DPYECX+URWPalladioL-Bold;font-size:8.97px;font-style:NORMAL;font-weight:BOLD;">2017</text>
  <text svg_rhmargin="348.721" x="346.479,348.721" y="430.395" style="fill:#000000;font-family:MSSLTZ+URWPalladioL-Roma;font-size:8.97px;font-style:NORMAL;font-weight:normal;">, </text>
  <text x="350.963,355.446,359.929" y="430.395" svg_rhmargin="364.412" style="fill:#000000;font-family:AKYTAJ+URWPalladioL-Ital;font-size:8.97px;font-style:italic;font-weight:normal;">129</text>
  <text x="364.412,366.654,368.895,373.378,377.862,382.345,386.828,391.311,395.794,400.278,404.761,409.244,411.48600000000005,414.265,417.251,423.608,426.989,431.884,435.686,439.488,445.477,449.772,452.758,455.74399999999997,457.985,460.971,466.387,471.794,476.752,485.234,489.529,495.008" y="430.395" svg_rhmargin="497.994" style="fill:#000000;font-family:MSSLTZ+URWPalladioL-Roma;font-size:8.97px;font-style:NORMAL;font-weight:normal;">, 3322–3331. [CrossRef] [PubMed]</text>
  <text svg_rhmargin="87.743" x="76.535,81.018,85.501,87.74300000000001" y="443.306" style="fill:#000000;font-family:MSSLTZ+URWPalladioL-Roma;font-size:8.97px;font-style:NORMAL;font-weight:normal;">56. </text>
  <text x="98.05,105.659,110.232,114.32,116.607,120.219,126.859,129.145,136.261,138.547,140.834,145.123,152.732,157.305,162.628,167.201,172.734,175.02100000000002,178.633,184.221,186.508,193.623,195.909,198.196,202.485,208.073,210.735,213.02200000000002,216.634,223.712,225.999,228.286,232.575,239.553,245.068,248.945,251.927,254.214,257.826,260.871,263.158,265.445,269.743,275.322,277.983,280.645,285.025,288.903,291.19,294.802,303.125,305.411,311.895,314.182,316.469,320.758,329.455,334.97,338.583,341.628,346.009,348.67,350.957,354.569,363.221,365.508,374.16,376.446,378.733,383.022" y="443.306" svg_rhmargin="388.61" style="fill:#000000;font-family:MSSLTZ+URWPalladioL-Roma;font-size:8.97px;font-style:NORMAL;font-weight:normal;">Hay, K.A.; Hanaﬁ, L.A.; Li, D.; Gust, J.; Liles, W.C.; Wurfel, M.M.; L</text>
  <text x="388.613" y="443.306" svg_rhmargin="393.607" style="fill:#000000;font-family:LIYZGY+VnURWPalladioL;font-size:8.97px;font-style:NORMAL;font-weight:normal;">ó</text>
  <text x="393.607,399.104,403.484,408.057,410.344,413.956,417.002,419.288,426.404,428.69,430.977,435.266,441.75,447.073,451.454,456.777,459.06399999999996,462.676,465.721,468.008,470.29499999999996,474.583,481.068,486.39,491.905,497.228,502.313,504.59999999999997,508.212,515.291,517.577" y="443.306" svg_rhmargin="519.863" style="fill:#000000;font-family:MSSLTZ+URWPalladioL-Roma;font-size:8.97px;font-style:NORMAL;font-weight:normal;">pez, J.A.; Chen, J.; Chung, D.;</text>
  <text x="98.05,105.659,110.232,113.845,115.985,121.5,124.545,130.133,134.706,139.791,144.172,147.117,149.404,151.909,156.711,158.997,161.28400000000002,163.918,168.298,171.28,173.777,178.35,181.011,183.298,186.864,193.504,196.165,201.479,205.86,208.841,211.503,215.563,219.44099999999997,221.947,226.52,231.843,237.43099999999998,239.937,244.994,247.656,252.649,260.725,265.298,268.901,273.986,278.367,281.98,285.858,288.363,293.357,296.403,298.908,302.786,307.167,312.334,316.715,320.163,324.544,327.041,331.101,336.186,339.168,344.161,349.246,351.908,357.231,361.61199999999997,364.117,367.565,371.946,374.608,378.988,383.561,387.439,391.82000000000005,394.326,398.204,403.289,408.611,414.199,417.647,422.641,430.717,435.09799999999996,437.603,442.176,445.222,448.203,452.584,456.197,458.693,465.178,472.256,476.829,481.402,483.908,487.969,493.292,495.953,504.029,508.41,512.022,514.683" y="456.218" svg_rhmargin="518.744" style="fill:#000000;font-family:MSSLTZ+URWPalladioL-Roma;font-size:8.97px;font-style:NORMAL;font-weight:normal;">Harju-Baker, S.; et al. Kinetics and biomarkers of severe cytokine release syndrome after CD19 chimeric</text>
  <text svg_rhmargin="259.697" x="98.05,102.533,107.752,110.675,113.284,118.269,122.564,127.782,130.024,133.405,137.699,141.681,145.975,151.364,154.287,159.183,162.563,165.549,173.466,178.362,183.841,186.45,191.874,196.169,201.64700000000002,203.889,208.893,211.878,215.86,220.154,222.764,225.37300000000002,227.615,230.538,235.756,240.051,243.593,248.076,253.465,257.455,259.697" y="469.13" style="fill:#000000;font-family:MSSLTZ+URWPalladioL-Roma;font-size:8.97px;font-style:NORMAL;font-weight:normal;">antigen receptor-modiﬁed T-cell therapy. </text>
  <text svg_rhmargin="282.89" x="262.474,267.952,270.445,274.426,278.407,282.89" y="469.13" style="fill:#000000;font-family:AKYTAJ+URWPalladioL-Ital;font-size:8.97px;font-style:italic;font-weight:normal;">Blood </text>
  <text x="285.132,289.615,294.098,298.582" y="469.13" svg_rhmargin="303.065" style="fill:#000000;font-family:DPYECX+URWPalladioL-Bold;font-size:8.97px;font-style:NORMAL;font-weight:BOLD;">2017</text>
  <text svg_rhmargin="305.306" x="303.064,305.30600000000004" y="469.13" style="fill:#000000;font-family:MSSLTZ+URWPalladioL-Roma;font-size:8.97px;font-style:NORMAL;font-weight:normal;">, </text>
  <text x="307.548,312.031,316.514" y="469.13" svg_rhmargin="320.997" style="fill:#000000;font-family:AKYTAJ+URWPalladioL-Ital;font-size:8.97px;font-style:italic;font-weight:normal;">130</text>
  <text x="320.997,323.23900000000003,325.48,329.963,334.447,338.93,343.413,347.896,352.38,356.863,361.346,365.829,368.071,370.85,373.836,380.193,383.574,388.469,392.271,396.073,402.062,406.357,409.343,412.329,414.57,417.556,422.972,428.379,433.337,441.819,446.114,451.593" y="469.13" svg_rhmargin="454.579" style="fill:#000000;font-family:MSSLTZ+URWPalladioL-Roma;font-size:8.97px;font-style:NORMAL;font-weight:normal;">, 2295–2306. [CrossRef] [PubMed]</text>
  <text svg_rhmargin="87.743" x="76.535,81.018,85.501,87.74300000000001" y="482.041" style="fill:#000000;font-family:MSSLTZ+URWPalladioL-Roma;font-size:8.97px;font-style:NORMAL;font-weight:normal;">57. </text>
  <text x="98.05,103.536,108.078,111.665,116.715,118.986,121.23,124.254,126.525,134.082,136.353,138.624,140.867,146.934,149.578,154.71" y="482.041" svg_rhmargin="157.353" style="fill:#000000;font-family:MSSLTZ+URWPalladioL-Roma;font-size:8.97px;font-style:NORMAL;font-weight:normal;">Park, J.H.; Rivi</text>
  <text x="157.353" y="482.041" svg_rhmargin="161.704" style="fill:#000000;font-family:LIYZGY+VnURWPalladioL;font-size:8.97px;font-style:NORMAL;font-weight:normal;">è</text>
  <text x="161.703,165.127,169.478,171.749,173.992,177.053,179.324,181.595,183.838,190.768,195.728,201.014,205.365,210.651,212.922,215.165,223.758,226.029,228.29999999999998,230.543,238.799,243.341,248.627,253.677,255.94799999999998,258.191,264.25,266.52,268.791,271.035" y="482.041" svg_rhmargin="275.804" style="fill:#000000;font-family:MSSLTZ+URWPalladioL-Roma;font-size:8.97px;font-style:NORMAL;font-weight:normal;">re, I.; Gonen, M.; Wang, X.; S</text>
  <text x="275.807" y="482.041" svg_rhmargin="280.158" style="fill:#000000;font-family:LIYZGY+VnURWPalladioL;font-size:8.97px;font-style:NORMAL;font-weight:normal;">é</text>
  <text x="280.158" y="482.041" svg_rhmargin="285.444" style="fill:#000000;font-family:MSSLTZ+URWPalladioL-Roma;font-size:8.97px;font-style:NORMAL;font-weight:normal;">n</text>
  <text x="285.444" y="482.041" svg_rhmargin="289.795" style="fill:#000000;font-family:LIYZGY+VnURWPalladioL;font-size:8.97px;font-style:NORMAL;font-weight:normal;">é</text>
  <text x="289.795,293.828,299.114,303.656,306.299,308.57,310.813,316.363,318.633,320.904,323.148,329.587,335.065,338.652,342.24,346.782,352.068,354.339,356.582,363.176,365.447,368.472,370.742,373.01300000000003,375.257,380.025,384.567,390.044,393.005,397.356,400.28,402.551,404.794,411.234,413.505,415.776,418.019,426.276,430.817,436.104,441.154,443.425,445.668,450.727,452.998,455.269,457.521,462.281,466.822,472.108,475.069,480.029,488.049,492.591,496.442,500.293,505.252,507.523,509.766,515.316,517.587" y="482.041" svg_rhmargin="519.858" style="fill:#000000;font-family:MSSLTZ+URWPalladioL-Roma;font-size:8.97px;font-style:NORMAL;font-weight:normal;">chal, B.; Curran, K.J.; Sauter, C.; Wang, Y.; Santomasso, B.;</text>
  <text svg_rhmargin="485.434" x="98.05,106.685,111.057,115.621,121.198,123.47999999999999,125.707,131.284,133.566,135.848,138.085,142.457,145.433,147.669,152.233,154.889,157.17100000000002,159.946,165.523,170.506,175.819,180.894,183.933,188.698,193.07,196.676,204.736,206.972,212.047,217.031,219.687,222.343,227.327,234.94,237.979,243.483,248.969,251.196,256.18,259.22,261.447,267.918,274.983,279.547,284.11100000000005,286.347,292.819,299.92,306.01800000000003,308.245,313.84,319.153,323.525,327.13,331.694,337.18,342.255,344.482,347.138,352.45,354.687,361.789,365.841,371.345,374.321,378.69300000000004,380.92,386.005,391.08,399.139,404.625,409.938,414.921,419.969,422.625,427.189,431.059,434.035,436.691,440.74399999999997,442.971,448.548,452.92,458.424,463.499,467.872,475.932,478.588,483.152,485.43399999999997" y="494.953" style="fill:#000000;font-family:MSSLTZ+URWPalladioL-Roma;font-size:8.97px;font-style:NORMAL;font-weight:normal;">Mead, E.; et al. Long-Term Follow-up of CD19 CAR Therapy in Acute Lymphoblastic Leukemia. </text>
  <text x="488.212,495.313,497.59499999999997,499.823,505.4,510.475,515.039,517.576" y="494.953" svg_rhmargin="519.858" style="fill:#000000;font-family:AKYTAJ+URWPalladioL-Ital;font-size:8.97px;font-style:italic;font-weight:normal;">N. Engl.</text>
  <text svg_rhmargin="124.196" x="98.05,101.036,103.278,105.519,113.983,117.471,121.954,124.196" y="507.864" style="fill:#000000;font-family:AKYTAJ+URWPalladioL-Ital;font-size:8.97px;font-style:italic;font-weight:normal;">J. Med. </text>
  <text x="126.976,131.459,135.942,140.426" y="507.864" svg_rhmargin="144.909" style="fill:#000000;font-family:DPYECX+URWPalladioL-Bold;font-size:8.97px;font-style:NORMAL;font-weight:BOLD;">2018</text>
  <text svg_rhmargin="147.151" x="144.909,147.15099999999998" y="507.864" style="fill:#000000;font-family:MSSLTZ+URWPalladioL-Roma;font-size:8.97px;font-style:NORMAL;font-weight:normal;">, </text>
  <text x="149.392,153.875,158.358" y="507.864" svg_rhmargin="162.841" style="fill:#000000;font-family:AKYTAJ+URWPalladioL-Ital;font-size:8.97px;font-style:italic;font-weight:normal;">378</text>
  <text x="162.841,165.083,167.324,171.807,176.291,180.774,185.257,189.74,194.223,198.707,200.94899999999998,203.728,206.714,213.071,216.451,221.347,225.149,228.95,234.94,239.235,242.221" y="507.864" svg_rhmargin="245.207" style="fill:#000000;font-family:MSSLTZ+URWPalladioL-Roma;font-size:8.97px;font-style:NORMAL;font-weight:normal;">, 449–459. [CrossRef]</text>
  <text x="76.535,81.018,85.501,87.74300000000001,98.05,105.126,109.627,113.444,116.064,124.013,126.26400000000001,128.505,136.679,138.929,141.18,143.421,149.426,154.665,159.166,164.406,166.657,168.898,176.388,178.638,180.889,183.13,187.857,192.358,200.307,204.808,208.364,212.865,216.682,219.301,224.541,229.546,234.785,239.097,241.348,243.59,248.316,250.566,252.817,255.059,262.062,267.563,272.064,280.013,283.83,286.08099999999996,288.322,293.048,295.299,297.54999999999995,299.791,306.795,314.744,318.137,323.053,325.672,328.292,332.793,335.044,337.285,341.57,343.821,346.072,348.313,353.039,355.974,360.475,363.311,366.309,371.224,374.618,380.118,382.36899999999997,384.61,389.336,391.587,393.83799999999997,396.079,401.58,407.008,409.943,412.562,416.874,419.764,422.015,424.256,430.792,433.043,435.294,437.535,443.548,446.168,451.254,455.755,458.69,460.941,463.182,469.565,471.815,474.066,476.308,484.644,488.2,490.819,495.824,501.064,503.999,506.25,508.491,515.359,517.61" y="520.7760000000001" svg_rhmargin="519.861" style="fill:#000000;font-family:MSSLTZ+URWPalladioL-Roma;font-size:8.97px;font-style:NORMAL;font-weight:normal;">58. Qasim, W.; Zhan, H.; Samarasinghe, S.; Adams, S.; Amrolia, P.; Stafford, S.; Butler, K.; Rivat, C.; Wright, G.;</text>
  <text x="98.05,102.71,107.557,115.395,119.834,125.0,129.438,131.65699999999998,133.903,140.348,142.567,144.786,147.041,151.293,154.187,156.432,160.871,163.454,165.673,168.478,176.875,181.722,184.305,188.557,192.498,197.851,200.434,204.873,208.379,210.625,213.971,218.223,226.061,228.645,232.408,236.172,238.755,243.602,248.768,251.014,255.861,258.817,261.062,263.646,268.812,271.768,276.206,281.372,284.266,286.521,291.945,294.901,301.798,307.221,312.645,314.9,319.338,322.294,325.188,329.44,332.94599999999997,335.192,337.775,342.941,345.897,351.25,355.014,357.597,362.444,367.61,369.856,374.702,377.658,379.913,385.266,390.432,393.015,398.03,402.282,405.789,409.552,413.991,416.574,418.82,423.595,430.502,435.925,441.349,448.726,450.971,455.907,460.159,465.325,469.577,472.533,476.785,482.208,484.792,487.685,491.937,497.361,499.616,505.909,512.807" y="533.688" svg_rhmargin="518.737" style="fill:#000000;font-family:MSSLTZ+URWPalladioL-Roma;font-size:8.97px;font-style:NORMAL;font-weight:normal;">Somana, K.; et al. Molecular remission of infant B-ALL after infusion of universal TALEN gene-edited CAR</text>
  <text svg_rhmargin="125.049" x="97.773,103.26899999999999,105.511,109.492,113.787,116.396,119.005,122.807,125.049" y="546.5989999999999" style="fill:#000000;font-family:MSSLTZ+URWPalladioL-Roma;font-size:8.97px;font-style:NORMAL;font-weight:normal;">T cells. </text>
  <text svg_rhmargin="190.592" x="127.827,132.812,136.462,138.954,141.196,143.975,148.459,151.947,155.928,160.913,164.401,166.894,169.136,171.915,180.379,183.867,188.35,190.59199999999998" y="546.5989999999999" style="fill:#000000;font-family:AKYTAJ+URWPalladioL-Ital;font-size:8.97px;font-style:italic;font-weight:normal;">Sci. Transl. Med. </text>
  <text x="193.371,197.854,202.337,206.821" y="546.5989999999999" svg_rhmargin="211.304" style="fill:#000000;font-family:DPYECX+URWPalladioL-Bold;font-size:8.97px;font-style:NORMAL;font-weight:BOLD;">2017</text>
  <text svg_rhmargin="213.545" x="211.303,213.545" y="546.5989999999999" style="fill:#000000;font-family:MSSLTZ+URWPalladioL-Roma;font-size:8.97px;font-style:NORMAL;font-weight:normal;">, </text>
  <text x="215.787" y="546.5989999999999" svg_rhmargin="220.27" style="fill:#000000;font-family:AKYTAJ+URWPalladioL-Ital;font-size:8.97px;font-style:italic;font-weight:normal;">9</text>
  <text x="220.27,222.512,225.291,228.277,234.634,238.015,242.91,246.712,250.514,256.503,260.798,263.784" y="546.5989999999999" svg_rhmargin="266.77" style="fill:#000000;font-family:MSSLTZ+URWPalladioL-Roma;font-size:8.97px;font-style:NORMAL;font-weight:normal;">. [CrossRef]</text>
  <text svg_rhmargin="87.743" x="76.535,81.018,85.501,87.74300000000001" y="559.511" style="fill:#000000;font-family:MSSLTZ+URWPalladioL-Roma;font-size:8.97px;font-style:NORMAL;font-weight:normal;">59. </text>
  <text x="98.05,104.159,106.821,109.802,113.863,119.186,121.847,126.228,128.515,132.337,139.416,141.703,146.504,148.791,151.078,155.696,163.296,167.676,172.057,175.935,180.929,186.251,188.538,192.37,196.732,199.019,202.064,204.351,206.638,211.256,217.896,223.218,228.212,231.194,233.481,237.303,244.418,246.705,248.99200000000002,253.61,259.134,263.515,266.176,271.499,275.88,279.492,282.474,284.76099999999997,288.592,293.394,295.68,297.967,302.585,307.368,311.941,314.603,316.89,320.712,325.651,327.937,330.224,334.842,339.625,344.198,346.86,352.182,355.164,360.157,365.48,367.767,371.59,378.229,380.516,382.803,387.421,393.905,399.228,403.609,408.932,411.219,415.05,421.69,423.976,426.263,430.881,435.683,441.006,443.667,448.99,451.277,455.099,463.751,466.038,468.325,472.943,481.265,485.838,488.5,491.161,493.448,497.27,504.349,506.635,515.287,517.574" y="559.511" svg_rhmargin="519.86" style="fill:#000000;font-family:MSSLTZ+URWPalladioL-Roma;font-size:8.97px;font-style:NORMAL;font-weight:normal;">Ritchie, D.S.; Neeson, P.J.; Khot, A.; Peinert, S.; Tai, T.; Tainton, K.; Chen, K.; Shin, M.; Wall, D.M.;</text>
  <text x="98.05,105.652,110.64,115.958,120.335,128.402,132.971,138.288,143.606,145.89,148.138,155.21,157.494,159.778,162.026,166.402,169.381,171.628,176.197,178.856,181.14,183.926,189.445,193.822,197.431,201.305,203.963,207.837,210.816,215.192,220.51,224.567,228.94400000000002,231.191,235.759,241.077,246.66,248.907,253.284,256.162,261.689,265.746,270.315,274.371,279.45099999999996,281.699,286.688,289.731,291.978,295.852,300.228,304.285,309.274,314.591,320.17400000000004,322.412,327.492,331.869,337.187,341.563,345.172,349.74,352.719,355.378,360.367,365.685,367.932,374.41,381.518,387.62199999999996,389.869,395.47,397.718,401.774,406.151,408.81,411.469,413.716,418.284,423.365,427.933,430.592,435.909,439.783,442.762,445.0,447.979,453.297,457.67400000000004,459.921,465.503,469.88,475.974,478.222,482.79,488.108,491.086,493.745,498.825,503.201,508.519,510.767,513.425" y="572.422" svg_rhmargin="518.743" style="fill:#000000;font-family:MSSLTZ+URWPalladioL-Roma;font-size:8.97px;font-style:NORMAL;font-weight:normal;">Hönemann, D.; et al. Persistence and efﬁcacy of second generation CAR T cell against the LeY antigen in</text>
  <text svg_rhmargin="195.255" x="98.05,102.533,106.514,111.921,114.844,119.139,121.381,129.298,134.283,138.578,141.187,146.083,148.692,154.17000000000002,156.412,159.022,163.316,168.723,173.709,178.003,185.921,188.53,193.013,195.255" y="585.3340000000001" style="fill:#000000;font-family:MSSLTZ+URWPalladioL-Roma;font-size:8.97px;font-style:NORMAL;font-weight:normal;">acute myeloid leukemia. </text>
  <text svg_rhmargin="236.508" x="198.033,206.497,210.478,212.971,215.213,217.992,223.471,227.954,231.442,234.266,236.50799999999998" y="585.3340000000001" style="fill:#000000;font-family:AKYTAJ+URWPalladioL-Ital;font-size:8.97px;font-style:italic;font-weight:normal;">Mol. Ther. </text>
  <text x="239.287,243.77,248.253,252.737" y="585.3340000000001" svg_rhmargin="257.22" style="fill:#000000;font-family:DPYECX+URWPalladioL-Bold;font-size:8.97px;font-style:NORMAL;font-weight:BOLD;">2013</text>
  <text svg_rhmargin="259.462" x="257.22,259.46200000000005" y="585.3340000000001" style="fill:#000000;font-family:MSSLTZ+URWPalladioL-Roma;font-size:8.97px;font-style:NORMAL;font-weight:normal;">, </text>
  <text x="261.703,266.186" y="585.3340000000001" svg_rhmargin="270.669" style="fill:#000000;font-family:AKYTAJ+URWPalladioL-Ital;font-size:8.97px;font-style:italic;font-weight:normal;">21</text>
  <text x="270.669,272.911,275.152,279.635,284.119,288.602,293.085,297.568,302.052,306.535,311.018,315.501,317.743,320.522,323.508,329.865,333.246,338.141,341.943,345.745,351.734,356.029,359.015" y="585.3340000000001" svg_rhmargin="362.001" style="fill:#000000;font-family:MSSLTZ+URWPalladioL-Roma;font-size:8.97px;font-style:NORMAL;font-weight:normal;">, 2122–2129. [CrossRef]</text>
  <text svg_rhmargin="87.743" x="76.535,81.018,85.501,87.74300000000001" y="598.246" style="fill:#000000;font-family:MSSLTZ+URWPalladioL-Roma;font-size:8.97px;font-style:NORMAL;font-weight:normal;">60. </text>
  <text x="98.05,103.633,108.621,112.678,117.758,122.135,124.41900000000001,126.657,130.915,133.199,138.782,141.066,143.35,145.589,153.181,157.558,161.934,164.593,169.161,174.653,180.162,182.446,184.694,189.491,191.775,196.572,198.856,201.14,203.379,208.961,213.53,217.139,220.117,222.776,227.152,230.131,233.11,235.394,237.632,245.225,247.509,253.092,255.376,257.66,259.899,264.695,267.354,272.937,278.519,281.178,286.295,288.954,291.238,293.485,298.419,300.703,302.98699999999997,305.226,311.704,317.022,321.59,326.752,331.129,335.697,337.981,340.229,343.272,345.556,352.034,354.318,356.602,358.841,366.442,371.431,375.305,377.964,383.281,388.361,390.645,392.884,399.362,401.646,410.29,412.574,414.858,417.106,424.077,429.395,434.383,439.436,444.004,449.587,452.246,454.53,456.768,463.877,466.161,468.445,470.684,476.266,481.776,487.358,492.941,497.317,499.601,501.84,507.422,509.707,515.289,517.573" y="598.246" svg_rhmargin="519.857" style="fill:#000000;font-family:MSSLTZ+URWPalladioL-Roma;font-size:8.97px;font-style:NORMAL;font-weight:normal;">Locke, F.L.; Neelapu, S.S.; Bartlett, N.L.; Siddiqi, T.; Chavez, J.C.; Hosing, C.M.; Ghobadi, A.; Budde, L.E.;</text>
  <text x="98.05,103.583,108.528,111.48,113.744,115.981,123.027,125.291,127.55499999999999,129.792,135.841,140.786,144.625,148.465,151.1,153.364,155.61,158.626,160.89,169.457,171.721,173.985,176.222,180.56,183.512,185.749,190.277,192.912,195.17600000000002,197.957,203.426,208.697,213.225,217.065,221.403,223.64,228.16799999999998,230.404,236.454,240.792,244.631,250.092,252.728,255.68,259.52,261.757,266.701,269.71700000000004,271.954,277.994,285.04,293.607,300.652,303.668,308.196,310.46000000000004,313.24,320.286,322.523,331.09,336.551,339.186,342.138,344.773,348.794,353.132,358.403,361.355,365.693,369.27,371.507,376.261,379.214,384.674,390.208,395.24300000000005,397.48,402.424,405.44,407.677,414.252,419.803,425.336,428.352,434.773,439.301,443.829,446.075,453.111,458.382,461.334,463.969,466.985,473.406,480.415,484.943,489.471,491.717,498.138,505.184,511.233,513.47" y="611.157" svg_rhmargin="519.021" style="fill:#000000;font-family:MSSLTZ+URWPalladioL-Roma;font-size:8.97px;font-style:NORMAL;font-weight:normal;">Bot, A.; Rossi, J.M.; et al. Phase 1 Results of ZUMA-1: A Multicenter Study of KTE-C19 Anti-CD19 CAR T</text>
  <text svg_rhmargin="300.216" x="98.05,104.407,108.702,111.311,113.92,116.162,121.659,126.877,131.172,134.714,139.197,144.586,149.57100000000003,151.813,154.422,159.64,161.882,167.871,172.166,175.152,178.694,183.177,187.158,190.081,194.977,198.519,203.50400000000002,205.745,212.721,217.707,222.692,226.072,230.367,234.169,237.971,240.58,245.646,249.94099999999997,252.182,257.168,262.153,270.07,275.459,280.678,285.573,293.491,297.974,300.216" y="624.069" style="fill:#000000;font-family:MSSLTZ+URWPalladioL-Roma;font-size:8.97px;font-style:NORMAL;font-weight:normal;">Cell Therapy in Refractory Aggressive Lymphoma. </text>
  <text svg_rhmargin="341.468" x="302.993,311.457,315.438,317.931,320.173,322.952,328.431,332.914,336.402,339.226,341.468" y="624.069" style="fill:#000000;font-family:AKYTAJ+URWPalladioL-Ital;font-size:8.97px;font-style:italic;font-weight:normal;">Mol. Ther. </text>
  <text x="344.246,348.729,353.212,357.696" y="624.069" svg_rhmargin="362.179" style="fill:#000000;font-family:DPYECX+URWPalladioL-Bold;font-size:8.97px;font-style:NORMAL;font-weight:BOLD;">2017</text>
  <text svg_rhmargin="364.421" x="362.179,364.421" y="624.069" style="fill:#000000;font-family:MSSLTZ+URWPalladioL-Roma;font-size:8.97px;font-style:NORMAL;font-weight:normal;">, </text>
  <text x="366.662,371.145" y="624.069" svg_rhmargin="375.628" style="fill:#000000;font-family:AKYTAJ+URWPalladioL-Ital;font-size:8.97px;font-style:italic;font-weight:normal;">25</text>
  <text x="375.629,377.87100000000004,380.112,384.595,389.079,393.562,398.045,402.528,407.011,411.495,413.737,416.516,419.502,425.859,429.239,434.135,437.937,441.738,447.728,452.023,455.009" y="624.069" svg_rhmargin="457.995" style="fill:#000000;font-family:MSSLTZ+URWPalladioL-Roma;font-size:8.97px;font-style:NORMAL;font-weight:normal;">, 285–295. [CrossRef]</text>
  <text svg_rhmargin="87.743" x="76.535,81.018,85.501,87.74300000000001" y="636.981" style="fill:#000000;font-family:MSSLTZ+URWPalladioL-Roma;font-size:8.97px;font-style:NORMAL;font-weight:normal;">61. </text>
  <text x="98.05,103.638,108.019,112.4,114.68700000000001,118.216,125.295,127.582,135.904,138.191,140.478,144.648,151.287,156.281,160.342,165.664,170.045,175.368,180.956,185.337,188.949,191.995,196.376,199.33,201.61700000000002,205.146,208.192,210.478,218.079,220.365,222.65200000000002,226.822,231.623,234.605,238.986,241.967,244.629,249.009,252.457,255.503,260.304,263.286,267.667,272.834,277.215,282.538,286.415,291.409,296.732,299.019,302.548,311.2,313.487,315.774,319.953,326.437,331.952,334.613,336.9,340.43,345.533,347.82,354.46,356.746,359.03299999999996,363.203,370.282,374.663,377.324,382.382,385.839,390.832,395.826,400.911,403.198,406.727,413.212,415.498,417.78499999999997,421.955,427.04,431.421,434.082,439.67,447.746,452.319,457.642,459.929,463.458,468.26,470.546,477.662,479.948,482.23499999999996,486.414,491.499,495.112,499.2,501.48699999999997,505.017,509.955,512.242,515.287,517.574" y="636.981" svg_rhmargin="519.86" style="fill:#000000;font-family:MSSLTZ+URWPalladioL-Roma;font-size:8.97px;font-style:NORMAL;font-weight:normal;">Lee, D.W.; Kochenderfer, J.N.; Stetler-Stevenson, M.; Cui, Y.K.; Delbrook, C.; Feldman, S.A.; Fry, T.J.;</text>
  <text x="98.05,105.239,108.686,113.067,118.39,121.372,125.944,129.822,132.109,134.514,140.623,142.91,145.197,147.666,152.467,157.04,162.098,166.67,169.652,172.313,177.636,182.63,184.917,187.312,195.964,198.251,200.538,203.016,207.817,213.14,217.713,223.036,225.323,227.718,235.318,237.605,245.205,247.491,249.77800000000002,252.256,256.637,259.619,262.015,266.588,269.249,271.536,274.791,280.397,282.794,286.854,291.235,293.897,296.558,300.436,302.832,307.213,311.932,317.429,320.877,325.257,329.135,333.013,335.674,340.997,346.082,348.478,354.963,362.041,366.614,371.18699999999995,373.593,377.653,382.976,385.637,393.713,398.094,401.706,404.368,408.429,410.825,415.398,420.72,423.702,426.363,431.448,435.829,441.152,443.548,446.996,451.377,455.438,459.818,465.315,468.297,473.29,476.903,480.781,483.177,486.222,491.216,494.829,497.234,501.806,505.867,511.382,514.364" y="649.892" svg_rhmargin="518.745" style="fill:#000000;font-family:MSSLTZ+URWPalladioL-Roma;font-size:8.97px;font-style:NORMAL;font-weight:normal;">Orentas, R.; Sabatino, M.; Shah, N.N.; et al. T cells expressing CD19 chimeric antigen receptors for acute</text>
  <text svg_rhmargin="451.001" x="98.05,100.711,105.796,113.872,119.369,124.692,129.685,134.743,137.404,141.977,145.855,148.836,151.498,155.559,157.955,160.616,164.997,170.512,175.597,180.169,184.55,192.626,195.287,199.86,202.256,204.918,210.241,212.637,216.698,222.02,224.682,227.343,232.931,236.379,240.76,246.083,248.479,253.052,258.375,263.963,266.359,271.444,276.437,281.952,287.275,292.35999999999996,294.756,299.329,304.917,310.432,313.093,316.075,319.953,322.23999999999995,325.33,332.44599999999997,334.842,340.339,345.661,350.234,354.112,358.49300000000005,360.889,365.462,367.858,373.446,378.44,382.317,386.698,389.744,394.125,398.002,402.063,406.636,409.297,413.87,416.852,419.513,424.507,429.83,432.226,435.207,438.82,441.481,446.054,448.715,451.00199999999995" y="662.804" style="fill:#000000;font-family:MSSLTZ+URWPalladioL-Roma;font-size:8.97px;font-style:NORMAL;font-weight:normal;">lymphoblastic leukaemia in children and young adults: A phase 1 dose-escalation trial. </text>
  <text svg_rhmargin="478.806" x="454.249,459.334,463.395,468.48,472.202,475.76,478.806" y="662.804" style="fill:#000000;font-family:AKYTAJ+URWPalladioL-Ital;font-size:8.97px;font-style:italic;font-weight:normal;">Lancet </text>
  <text x="481.201,485.684,490.167,494.651" y="662.804" svg_rhmargin="499.134" style="fill:#000000;font-family:DPYECX+URWPalladioL-Bold;font-size:8.97px;font-style:NORMAL;font-weight:BOLD;">2015</text>
  <text svg_rhmargin="501.42" x="499.134,501.421" y="662.804" style="fill:#000000;font-family:MSSLTZ+URWPalladioL-Roma;font-size:8.97px;font-style:NORMAL;font-weight:normal;">, </text>
  <text x="503.856,508.429,513.002" y="662.804" svg_rhmargin="517.575" style="fill:#000000;font-family:AKYTAJ+URWPalladioL-Ital;font-size:8.97px;font-style:italic;font-weight:normal;">385</text>
  <text x="517.575" y="662.804" svg_rhmargin="519.861" style="fill:#000000;font-family:MSSLTZ+URWPalladioL-Roma;font-size:8.97px;font-style:NORMAL;font-weight:normal;">,</text>
  <text x="98.05,102.533,107.016,111.5,115.983,120.466,124.949,129.432,131.67399999999998,134.454,137.439,143.797,147.177,152.073,155.874,159.676,165.666,169.961,172.946" y="675.715" svg_rhmargin="175.932" style="fill:#000000;font-family:MSSLTZ+URWPalladioL-Roma;font-size:8.97px;font-style:NORMAL;font-weight:normal;">517–528. [CrossRef]</text>
  <text x="76.535,81.018,85.501,87.74300000000001,98.05,104.501,108.944,111.53,116.381,120.149,122.371,124.618,133.024,135.246,137.46800000000002,139.715,145.144,149.4,154.421,157.007,162.178,166.434,168.656,170.904,176.333,178.554,183.984,186.205,188.42700000000002,190.675,196.041,200.893,204.403,207.3,211.556,214.399,216.621,218.869,225.746,227.968,233.397,235.618,237.84,240.097,246.539,250.982,253.879,258.321,260.543,262.791,267.456,269.677,271.899,274.156,280.936,284.365,289.723,295.064,300.404,302.626,304.874,309.539,311.76,318.673,320.895,323.11699999999996,325.373,330.802,335.245,340.185,345.117,347.339,349.587,356.5,358.721,360.943,363.199,366.158,371.516,376.688,380.944,383.166,385.405,391.705,393.926,401.319,403.541,405.789,411.236,413.484,417.429,421.685,424.271,426.857,430.625,432.872,440.283,442.869,445.765,450.937,453.185,457.13,462.302,464.888,472.734,476.99,480.5,483.085,487.03,489.279,493.722,498.893,501.79,504.376,509.316,513.572" y="688.627" svg_rhmargin="518.743" style="fill:#000000;font-family:MSSLTZ+URWPalladioL-Roma;font-size:8.97px;font-style:NORMAL;font-weight:normal;">62. Kalos, M.; Levine, B.L.; Porter, D.L.; Katz, S.; Grupp, S.A.; Bagg, A.; June, C.H. T cells with chimeric antigen</text>
  <text svg_rhmargin="503.758" x="98.05,101.413,105.687,109.648,113.921,119.283,122.192,127.063,130.587,134.36999999999998,136.618,141.81,146.271,151.312,155.586,157.833,163.195,168.066,170.975,175.248,180.441,183.35,185.597,190.058,195.25,198.159,200.755,203.664,209.043,216.921,221.792,225.316,227.564,231.838,234.648,237.619,241.892,245.854,248.762,252.545,254.793,259.254,264.446,269.89700000000005,272.145,276.107,280.567,285.76,288.008,292.281,296.064,298.973,303.433,308.367,310.963,313.559,317.342,322.53499999999997,324.783,332.66,336.934,344.812,349.683,353.207,358.168,360.415,363.012,368.205,370.452,375.814,380.275,383.183,385.78,390.053,395.245,398.154,401.937,404.185,411.625,414.221,417.13,422.323,424.57,429.031,434.482,439.523,443.984,449.176,453.137,457.411,462.862,465.11,467.706,471.98,477.359,482.32,486.593,494.471,497.067,501.528,503.759" y="701.539" style="fill:#000000;font-family:MSSLTZ+URWPalladioL-Roma;font-size:8.97px;font-style:NORMAL;font-weight:normal;">receptors have potent antitumor effects and can establish memory in patients with advanced leukemia. </text>
  <text x="506.559,511.519,515.15,517.631" y="701.539" svg_rhmargin="519.861" style="fill:#000000;font-family:AKYTAJ+URWPalladioL-Ital;font-size:8.97px;font-style:italic;font-weight:normal;">Sci.</text>
  <text svg_rhmargin="144.121" x="97.504,101.987,105.475,109.456,114.442,117.929,120.422,122.664,125.443,133.908,137.396,141.879,144.12099999999998" y="714.45" style="fill:#000000;font-family:AKYTAJ+URWPalladioL-Ital;font-size:8.97px;font-style:italic;font-weight:normal;">Transl. Med. </text>
  <text x="146.899,151.382,155.865,160.349" y="714.45" svg_rhmargin="164.832" style="fill:#000000;font-family:DPYECX+URWPalladioL-Bold;font-size:8.97px;font-style:NORMAL;font-weight:BOLD;">2011</text>
  <text svg_rhmargin="167.073" x="164.831,167.07299999999998" y="714.45" style="fill:#000000;font-family:MSSLTZ+URWPalladioL-Roma;font-size:8.97px;font-style:NORMAL;font-weight:normal;">, </text>
  <text x="169.315" y="714.45" svg_rhmargin="173.798" style="fill:#000000;font-family:AKYTAJ+URWPalladioL-Ital;font-size:8.97px;font-style:italic;font-weight:normal;">3</text>
  <text x="173.798,176.04,178.281,182.764,187.248,190.789,195.273,199.756,204.239,206.481,209.26,212.246,218.603,221.983,226.879,230.681,234.483,240.472,244.767,247.753,250.73899999999998,252.98,255.966,261.382,266.789,271.747,280.229,284.524,290.003" y="714.45" svg_rhmargin="292.989" style="fill:#000000;font-family:MSSLTZ+URWPalladioL-Roma;font-size:8.97px;font-style:NORMAL;font-weight:normal;">, 95ra73. [CrossRef] [PubMed]</text>
 </g>
</svg>
