<?xml version="1.0" encoding="UTF-8"?>
<svg height="690.261" width="582.4727362169231" xmlns="http://www.w3.org/2000/svg">
 <g style="fill:none;">
  <text svg_rhmargin="102.103" x="76.272,81.588,85.127,89.558,92.802,95.902,99.003,102.103" y="21.089000000000055" style="fill:#000000;font-family:AKYTAJ+URWPalladioL-Ital;font-size:7.97px;font-style:italic;font-weight:normal;">Cancers </text>
  <text x="104.096,108.081,112.066,116.051" y="21.089000000000055" svg_rhmargin="120.036" style="fill:#000000;font-family:DPYECX+URWPalladioL-Bold;font-size:7.97px;font-style:NORMAL;font-weight:BOLD;">2019</text>
  <text svg_rhmargin="122.029" x="120.036,122.029" y="21.089000000000055" style="fill:#000000;font-family:MSSLTZ+URWPalladioL-Roma;font-size:7.97px;font-style:NORMAL;font-weight:normal;">, </text>
  <text x="124.021,128.006" y="21.089000000000055" svg_rhmargin="131.991" style="fill:#000000;font-family:AKYTAJ+URWPalladioL-Ital;font-size:7.97px;font-style:italic;font-weight:normal;">11</text>
  <text x="131.991,133.984,135.976,139.961,143.94600000000003,491.809,495.794,499.779,501.772,506.123,508.777,510.77,514.755" y="21.089000000000055" svg_rhmargin="518.74" style="fill:#000000;font-family:MSSLTZ+URWPalladioL-Roma;font-size:7.97px;font-style:NORMAL;font-weight:normal;">, 47 15 of 27</text>
  <text x="76.535,80.87,85.752,88.593,92.928,98.815,101.656,106.538,109.721,114.397,116.799,119.982,125.664,130.341,138.962,141.403,144.459,150.444,156.126,160.802,163.214,166.885,171.562,175.701,181.589,184.43,187.613,190.014,194.349,199.68,205.362,211.269,215.126,223.747,228.423,234.388,236.791,239.973,245.656,250.537,253.72,256.122,259.305,264.987,269.663,272.075,280.189,285.315,287.716,291.573,296.454,299.637,304.313,306.716,314.858,319.74,323.88,326.282,330.421,333.262,336.103,341.532,347.214,350.397,353.238,358.666,361.068,366.751,369.592,375.02,380.703,385.379,389.235,391.637,394.889,400.219,404.075,406.478,412.346,417.227,420.41,423.251,427.928,433.61,436.793,440.933,443.334,451.477,454.318,457.501,463.183,465.585,471.267,475.944,484.565,489.447,492.63,497.96,500.802,506.132,511.561,514.402" y="55.95799999999997" svg_rhmargin="518.737" style="fill:#000000;font-family:MSSLTZ+URWPalladioL-Roma;font-size:9.96px;font-style:NORMAL;font-weight:normal;">calculate them. The result conﬁrmed that the NS rate was slightly higher for patients with hematologic</text>
  <text x="76.535,85.262,90.203,93.079,95.955,101.45,107.202,112.143,117.895,122.283,125.159,129.893,134.083,136.574,139.865,144.806,153.108,155.579,158.059,163.0,167.942,176.244,178.734,185.741,189.072,191.543,194.033,198.974,203.916,208.857,213.799,222.1,225.391,227.872,232.26,237.656,246.382,252.322,257.264,260.989,265.723,271.762,274.252,277.474,282.87,285.351,291.29,296.232,299.454,302.33,307.064,312.815,316.037,320.227,322.718,330.96,333.836,337.058,342.81,345.3,349.491,354.887,357.763,360.639,366.678,369.158,377.884,382.826,385.702,388.578,394.073,399.824,404.766,410.518,414.906,417.782,422.516,426.706,429.196,432.487,437.429,445.73,448.201,450.692,455.633,460.574,468.87600000000003,471.357,478.364,481.694,484.165,486.655,491.597,496.538,501.48,506.421,514.723,518.014" y="69.46799999999996" svg_rhmargin="520.485" style="fill:#000000;font-family:MSSLTZ+URWPalladioL-Roma;font-size:9.96px;font-style:NORMAL;font-weight:normal;">malignancies (9%, 95% CI: 4–17%) compared to patients with solid malignancies (6%, 95% CI: 3–12%).</text>
  <text x="76.535,82.622,87.394,91.618,94.518,100.605,105.377,107.868,110.358,115.798,121.596,124.495,130.034,132.525,137.964,143.763,148.535,151.025,157.013,161.994,165.242,168.141,172.913,178.711,181.959,184.45,190.248,195.229,201.316,203.807,209.914,216.001,221.232,223.723,226.213,229.461,235.259,241.267,245.49099999999999,247.981,250.88,254.128,256.619,264.928,269.909,274.133,276.624,282.422,287.862,291.11,293.6,298.372,301.271,304.17,309.71,312.609,318.118,321.017,325.789,328.28,331.597,337.037,340.972,343.463,348.444,354.242,359.224,362.123,367.662,371.886,374.785,379.009,381.5,384.399,390.197,392.688,395.936,401.734,404.633,408.85699999999997,411.348,415.572,418.82,424.827,430.915,435.348" y="82.97699999999998" svg_rhmargin="437.839" style="fill:#000000;font-family:MSSLTZ+URWPalladioL-Roma;font-size:9.96px;font-style:NORMAL;font-weight:normal;">Beside, only one patient had TLS, thus it was not eligible for analysis in this study.</text>
  <text x="38.152,44.55,48.812,54.147,58.055,61.791,65.526,69.262" y="78.90200000000004" svg_rhmargin="71.656" style="fill:#000000;font-family:IKLPOI+PalatinoLinotype,Italic;font-size:9.58px;font-style:ITALIC;font-weight:normal;">Cancers </text>
  <text x="71.632,76.456,81.281,86.105" y="78.90200000000004" svg_rhmargin="90.893" style="fill:#000000;font-family:IKLPOK+PalatinoLinotype,Bold;font-size:9.58px;font-style:NORMAL;font-weight:bold;">2018</text>
  <text x="90.928,93.303" y="78.90200000000004" svg_rhmargin="95.697" style="fill:#000000;font-family:IKLPLH+PalatinoLinotype;font-size:9.58px;font-style:NORMAL;font-weight:normal;">, </text>
  <text x="95.679,100.504" y="78.90200000000004" svg_rhmargin="105.292" style="fill:#000000;font-family:IKLPOI+PalatinoLinotype,Italic;font-size:9.58px;font-style:ITALIC;font-weight:normal;">10</text>
  <text x="105.327,107.725,110.101,115.046,117.44000000000001,541.143,545.966,548.342,553.605,556.772,559.148,563.971,568.793" y="78.90200000000004" svg_rhmargin="571.187" style="fill:#000000;font-family:IKLPLH+PalatinoLinotype;font-size:9.58px;font-style:NORMAL;font-weight:normal;">, x 6 of 29 </text>
  <text style="fill:#000000;font-family:IKMAII+TimesNewRoman;font-size:10.8px;font-style:NORMAL;font-weight:normal;" svg_rhmargin="40.852" y="661.3820000000001" x=""/>
  <text y="661.3820000000001" style="fill:#000000;font-family:IKLPLH+PalatinoLinotype;font-size:12.02px;font-style:NORMAL;font-weight:normal;" svg_rhmargin="503.038" x=""/>
  <rect style="stroke:blue;stroke-width:0.3;" x="106.912" y="96.183" height="564.696" width="393.12" title="15"/>
  <text x="106.912" y="96.183" class="image" id="image.15.1" width="393" height="564">image.15.1.107_500.96_661</text>
  <text svg_rhmargin="303.848" x="268.475,273.46,276.446,281.431,286.91,290.398,294.88100000000003,297.123,301.606,303.848" y="680.261" style="fill:#000000;font-family:DPYECX+URWPalladioL-Bold;font-size:8.97px;font-style:NORMAL;font-weight:BOLD;">Figure 4. </text>
  <text x="306.627,312.608,316.589,321.574" y="680.261" svg_rhmargin="324.56" style="fill:#000000;font-family:AKYTAJ+URWPalladioL-Ital;font-size:8.97px;font-style:italic;font-weight:normal;">Cont</text>
  <text x="324.559" y="680.261" svg_rhmargin="326.801" style="fill:#000000;font-family:MSSLTZ+URWPalladioL-Roma;font-size:8.97px;font-style:NORMAL;font-weight:normal;">.</text>
 </g>
</svg>
