<?xml version="1.0" encoding="UTF-8"?>
<svg height="709.2149047851562" width="527.56019293" xmlns="http://www.w3.org/2000/svg">
 <g style="fill:none;">
  <text svg_rhmargin="102.103" x="76.272,81.588,85.127,89.558,92.802,95.902,99.003,102.103" y="21.089000000000055" style="fill:#000000;font-family:AKYTAJ+URWPalladioL-Ital;font-size:7.97px;font-style:italic;font-weight:normal;">Cancers </text>
  <text x="104.096,108.081,112.066,116.051" y="21.089000000000055" svg_rhmargin="120.036" style="fill:#000000;font-family:DPYECX+URWPalladioL-Bold;font-size:7.97px;font-style:NORMAL;font-weight:BOLD;">2019</text>
  <text svg_rhmargin="122.029" x="120.036,122.029" y="21.089000000000055" style="fill:#000000;font-family:MSSLTZ+URWPalladioL-Roma;font-size:7.97px;font-style:NORMAL;font-weight:normal;">, </text>
  <text x="124.021,128.006" y="21.089000000000055" svg_rhmargin="131.991" style="fill:#000000;font-family:AKYTAJ+URWPalladioL-Ital;font-size:7.97px;font-style:italic;font-weight:normal;">11</text>
  <text x="131.991,133.984,135.976,139.961,143.94600000000003,495.794,499.779,501.772,506.123,508.777,510.77,514.755" y="21.089000000000055" svg_rhmargin="518.74" style="fill:#000000;font-family:MSSLTZ+URWPalladioL-Roma;font-size:7.97px;font-style:NORMAL;font-weight:normal;">, 47 4 of 27</text>
  <text svg_rhmargin="129.205" x="97.499,102.484,106.968,112.446,115.432,119.915,122.479,126.963,129.20499999999998" y="54.971000000000004" style="fill:#000000;font-family:DPYECX+URWPalladioL-Bold;font-size:8.97px;font-style:NORMAL;font-weight:BOLD;">Table 1. </text>
  <text x="132.963,138.551,143.124,147.002,149.663,153.72400000000002,156.294,161.79,166.363,169.345,172.006,176.387,181.71,184.692,187.252,191.313,196.636,201.208,204.821,209.394,213.455,216.436,220.817,224.429,227.091,230.969,233.95,236.612,240.672,244.55,247.12,252.114,255.16,257.72,260.701,266.024,270.405,272.975,276.853,279.834,285.349,290.937,293.599,297.979,301.85699999999997,304.427,307.088,312.411,316.472,319.133,324.648,330.236,334.617,340.20500000000004,342.766,345.427,350.75,353.32,356.302,361.624,366.005,368.575,376.651,381.032,384.013,388.586,391.632,396.204,401.527,406.1,408.762,413.847,417.724,420.386,424.264,426.824,431.397,436.72,442.30800000000005,444.878,447.859,453.182,457.563,460.133,463.581,467.962,471.84,477.354,480.016,482.997,486.875,489.445,494.439" y="54.971000000000004" svg_rhmargin="497.485" style="fill:#000000;font-family:MSSLTZ+URWPalladioL-Roma;font-size:8.97px;font-style:NORMAL;font-weight:normal;">Basic patient characteristics of the studies included in the meta-analysis and the results of</text>
  <text x="97.795,105.712,110.007,112.93,118.149,123.044,128.523,133.419,136.028,140.923,145.909,148.518,152.499,156.982,159.591,161.833,166.854,172.261,176.744,179.353,181.963,184.886,189.871,192.113,196.596,200.398,204.199,208.494,212.296,216.098,224.015,228.31,233.528,236.451,238.693,244.1,247.902,250.511,255.729,260.714,262.956,265.879,271.098,275.39300000000003,277.634,284.682,291.658,298.633,305.573,312.549,317.257,320.242,324.725,326.967,329.89,334.786,339.682,342.291" y="67.793" svg_rhmargin="344.533" style="fill:#000000;font-family:MSSLTZ+URWPalladioL-Roma;font-size:8.97px;font-style:NORMAL;font-weight:normal;">methodological quality assessment using the QUADAS-2 tool.</text>
  <text svg_rhmargin="198.085" x="130.322,136.538,141.419,144.079,148.96,153.402,156.071,158.068,160.065,164.803,168.797,172.792,175.9,177.897,180.557,186.325,190.32,193.428,195.425,198.085" y="92.39599999999996" style="fill:#000000;font-family:DPYECX+URWPalladioL-Bold;font-size:8.97px;font-style:NORMAL;font-weight:BOLD;">Author, Year (Ref.) </text>
  <text svg_rhmargin="293.867" x="230.778,236.993,241.435,245.43,247.427,250.974,252.971,255.632,260.369,264.364,268.358,271.466,275.01300000000003,277.011,283.665,286.326,291.207,293.867" y="93.28300000000002" style="fill:#000000;font-family:DPYECX+URWPalladioL-Bold;font-size:8.97px;font-style:NORMAL;font-weight:BOLD;">Age * (Years Old) </text>
  <text svg_rhmargin="335.298" x="322.427,327.308,331.303,335.298" y="87.64700000000005" style="fill:#000000;font-family:DPYECX+URWPalladioL-Bold;font-size:8.97px;font-style:NORMAL;font-weight:BOLD;">Sex </text>
  <text x="401.961,408.616,414.832,421.047,427.702,433.917" y="87.64700000000005" svg_rhmargin="438.798" style="fill:#000000;font-family:DPYECX+URWPalladioL-Bold;font-size:8.97px;font-style:NORMAL;font-weight:BOLD;">QUADAS</text>
  <text x="364.789,368.784,391.584,395.579,418.379,422.374,445.183,449.178,471.978" y="97.45600000000002" svg_rhmargin="475.973" style="fill:#000000;font-family:DPYECX+URWPalladioL-Bold;font-size:8.97px;font-style:NORMAL;font-weight:BOLD;">1 2 3 4 5</text>
  <text x="113.226,119.506,121.727,127.063,131.425,136.243,139.399,143.84,147.667,149.665,153.491,156.09500000000003,158.093,162.088,164.412,166.40900000000002,168.886,172.881,176.875,180.87,184.865,186.862,189.522,193.516,197.511,200.171,241.443,245.437,249.432,251.429,255.424,257.421,260.081,264.076,268.07,272.065,276.06,280.054,282.714,316.348,320.343,327.901,332.742,336.736" y="107.62" svg_rhmargin="341.178" style="fill:#000000;font-family:MSSLTZ+URWPalladioL-Roma;font-size:8.97px;font-style:NORMAL;font-weight:normal;">O’Rourke et al. 2017 [14] 59.5 (45–76) 5M/5F</text>
  <path d=" M 353.3874206542969 689.4058837890625 L 380.1842346191406 689.4058837890625 L 380.1842346191406 699.2149047851562 L 353.3874206542969 699.2149047851562 Z " style="fill:none;stroke:#f8cbad;stroke-width:1.0;"/>
  <path d=" M 380.1842346191406 689.4058837890625 L 406.9810485839844 689.4058837890625 L 406.9810485839844 699.2149047851562 L 380.1842346191406 699.2149047851562 Z " style="fill:none;stroke:#f8cbad;stroke-width:1.0;"/>
  <path d=" M 406.9810791015625 689.4058837890625 L 433.77789306640625 689.4058837890625 L 433.77789306640625 699.2149047851562 L 406.9810791015625 699.2149047851562 Z " style="fill:none;stroke:#c6e0b4;stroke-width:1.0;"/>
  <path d=" M 433.7787780761719 689.4058837890625 L 460.5755920410156 689.4058837890625 L 460.5755920410156 699.2149047851562 L 433.7787780761719 699.2149047851562 Z " style="fill:none;stroke:#f8cbad;stroke-width:1.0;"/>
  <path d=" M 460.57562255859375 689.4058837890625 L 487.3724365234375 689.4058837890625 L 487.3724365234375 699.2149047851562 L 460.57562255859375 699.2149047851562 Z " style="fill:none;stroke:#f8cbad;stroke-width:1.0;"/>
  <text x="113.226,118.108,122.47,127.287,129.612,132.999,134.997,138.823,141.42700000000002,143.425,147.42,149.744,151.741,154.218,158.213,162.207,166.202,170.197,172.194,174.854,178.849,182.843,185.503,248.433,252.428,254.425,257.085,261.08,265.074,269.069,273.064,275.72400000000005,314.351,318.346,322.34,329.898,334.739,338.734" y="117.42899999999997" svg_rhmargin="343.176" style="fill:#000000;font-family:MSSLTZ+URWPalladioL-Roma;font-size:8.97px;font-style:NORMAL;font-weight:normal;">Louis et al. 2016 [15] 7 (3–20) 10M/9F</text>
  <path d=" M 353.3874206542969 679.5968017578125 L 380.1842346191406 679.5968017578125 L 380.1842346191406 689.4058227539062 L 353.3874206542969 689.4058227539062 Z " style="fill:none;stroke:#f8cbad;stroke-width:1.0;"/>
  <path d=" M 380.1842346191406 679.5968017578125 L 406.9810485839844 679.5968017578125 L 406.9810485839844 689.4058227539062 L 380.1842346191406 689.4058227539062 Z " style="fill:none;stroke:#f8cbad;stroke-width:1.0;"/>
  <path d=" M 406.9810791015625 679.5968017578125 L 433.77789306640625 679.5968017578125 L 433.77789306640625 689.4058227539062 L 406.9810791015625 689.4058227539062 Z " style="fill:none;stroke:#f8cbad;stroke-width:1.0;"/>
  <path d=" M 433.7787780761719 679.5968017578125 L 460.5755920410156 679.5968017578125 L 460.5755920410156 689.4058227539062 L 433.7787780761719 689.4058227539062 Z " style="fill:none;stroke:#f8cbad;stroke-width:1.0;"/>
  <path d=" M 460.57562255859375 679.5968017578125 L 487.3724365234375 679.5968017578125 L 487.3724365234375 689.4058227539062 L 460.57562255859375 689.4058227539062 Z " style="fill:none;stroke:#f8cbad;stroke-width:1.0;"/>
  <text x="113.226,118.108,121.12,125.482,132.144,136.794,138.791,142.618,145.222,147.22,151.214,153.539,155.536,158.013,162.008,166.002,169.997,173.99200000000002,175.988,178.649,182.643,186.638,189.298,244.439,248.433,252.428,254.425,257.085,261.08,265.075,269.069,273.064,277.058,279.718,316.348,320.343,327.901,332.742,336.736" y="127.23800000000006" svg_rhmargin="341.178" style="fill:#000000;font-family:MSSLTZ+URWPalladioL-Roma;font-size:8.97px;font-style:NORMAL;font-weight:normal;">Brown et al. 2015 [16] 50 (36–57) 1M/2F</text>
  <path d=" M 353.3874206542969 669.787841796875 L 380.1842346191406 669.787841796875 L 380.1842346191406 679.5968627929688 L 353.3874206542969 679.5968627929688 Z " style="fill:none;stroke:#f8cbad;stroke-width:1.0;"/>
  <path d=" M 380.1842346191406 669.787841796875 L 406.9810485839844 669.787841796875 L 406.9810485839844 679.5968627929688 L 380.1842346191406 679.5968627929688 Z " style="fill:none;stroke:#c6e0b4;stroke-width:1.0;"/>
  <path d=" M 406.9810791015625 669.787841796875 L 433.77789306640625 669.787841796875 L 433.77789306640625 679.5968627929688 L 406.9810791015625 679.5968627929688 Z " style="fill:none;stroke:#f8cbad;stroke-width:1.0;"/>
  <path d=" M 433.7787780761719 669.787841796875 L 460.5755920410156 669.787841796875 L 460.5755920410156 679.5968627929688 L 433.7787780761719 679.5968627929688 Z " style="fill:none;stroke:#c5e0b3;stroke-width:1.0;"/>
  <path d=" M 460.57562255859375 669.787841796875 L 487.3724365234375 669.787841796875 L 487.3724365234375 679.5968627929688 L 460.57562255859375 679.5968627929688 Z " style="fill:none;stroke:#c6e0b4;stroke-width:1.0;"/>
  <text x="113.226,117.668,121.495,126.145,130.587,132.584,136.411,139.01500000000001,141.012,145.007,147.332,149.329,151.806,155.8,159.795,163.789,167.784,169.781,172.441,176.436,180.43,183.09,244.439,248.433,252.428,254.425,257.085,261.08,265.075,269.069,273.064,277.058,279.718,316.348,320.343,327.901,332.742,336.736" y="137.04700000000003" svg_rhmargin="341.178" style="fill:#000000;font-family:MSSLTZ+URWPalladioL-Roma;font-size:8.97px;font-style:NORMAL;font-weight:normal;">Feng et al. 2016 [17] 58 (40–66) 5M/6F</text>
  <path d=" M 353.3874206542969 659.9796142578125 L 380.1842346191406 659.9796142578125 L 380.1842346191406 669.7886352539062 L 353.3874206542969 669.7886352539062 Z " style="fill:none;stroke:#f8cbad;stroke-width:1.0;"/>
  <path d=" M 380.1842346191406 659.9796142578125 L 406.9810485839844 659.9796142578125 L 406.9810485839844 669.7886352539062 L 380.1842346191406 669.7886352539062 Z " style="fill:none;stroke:#c6e0b4;stroke-width:1.0;"/>
  <path d=" M 406.9810791015625 659.9796142578125 L 433.77789306640625 659.9796142578125 L 433.77789306640625 669.7886352539062 L 406.9810791015625 669.7886352539062 Z " style="fill:none;stroke:#f8cbad;stroke-width:1.0;"/>
  <path d=" M 433.7787780761719 659.9796142578125 L 460.5755920410156 659.9796142578125 L 460.5755920410156 669.7886352539062 L 433.7787780761719 669.7886352539062 Z " style="fill:none;stroke:#f8cbad;stroke-width:1.0;"/>
  <path d=" M 460.57562255859375 659.9796142578125 L 487.3724365234375 659.9796142578125 L 487.3724365234375 669.7886352539062 L 460.57562255859375 669.7886352539062 Z " style="fill:none;stroke:#f8cbad;stroke-width:1.0;"/>
  <text x="113.226,119.322,123.317,126.328,130.77,134.597,137.202,139.806,141.803,145.63,148.234,150.232,154.226,156.551,158.548,161.025,165.02,169.014,173.009,177.004,179.0,181.661,185.655,189.65,192.31,256.662,263.301,267.495,323.347,329.986" y="146.85500000000002" svg_rhmargin="334.18" style="fill:#000000;font-family:MSSLTZ+URWPalladioL-Roma;font-size:8.97px;font-style:NORMAL;font-weight:normal;">Gargett et al. 2016 [18] NS NS</text>
  <path d=" M 353.3874206542969 650.170654296875 L 380.1842346191406 650.170654296875 L 380.1842346191406 659.9796752929688 L 353.3874206542969 659.9796752929688 Z " style="fill:none;stroke:#c6e0b4;stroke-width:1.0;"/>
  <path d=" M 380.1842346191406 650.170654296875 L 406.9810485839844 650.170654296875 L 406.9810485839844 659.9796752929688 L 380.1842346191406 659.9796752929688 Z " style="fill:none;stroke:#f8cbad;stroke-width:1.0;"/>
  <path d=" M 406.9810791015625 650.170654296875 L 433.77789306640625 650.170654296875 L 433.77789306640625 659.9796752929688 L 406.9810791015625 659.9796752929688 Z " style="fill:none;stroke:#c6e0b4;stroke-width:1.0;"/>
  <path d=" M 433.7787780761719 650.170654296875 L 460.5755920410156 650.170654296875 L 460.5755920410156 659.9796752929688 L 433.7787780761719 659.9796752929688 Z " style="fill:none;stroke:#bdd7ee;stroke-width:1.0;"/>
  <path d=" M 460.57562255859375 650.170654296875 L 487.3724365234375 650.170654296875 L 487.3724365234375 659.9796752929688 L 460.57562255859375 659.9796752929688 Z " style="fill:none;stroke:#f8cbad;stroke-width:1.0;"/>
  <text x="113.226,119.442,124.092,131.146,134.973,139.854,141.851,145.678,148.282,150.28,154.274,156.599,158.596,161.073,165.067,169.062,173.056,177.05100000000002,179.048,181.709,185.703,189.698,192.358,246.436,250.431,254.42600000000002,256.422,259.083,263.077,267.072,271.066,275.061,277.721,314.351,318.346,325.903,330.745,334.739,338.734" y="156.664" svg_rhmargin="343.176" style="fill:#000000;font-family:MSSLTZ+URWPalladioL-Roma;font-size:8.97px;font-style:NORMAL;font-weight:normal;">Ahmed et al. 2015 [19] 17 (7–29) 9M/10F</text>
  <path d=" M 353.3874206542969 640.361572265625 L 380.1842346191406 640.361572265625 L 380.1842346191406 650.1705932617188 L 353.3874206542969 650.1705932617188 Z " style="fill:none;stroke:#f8cbad;stroke-width:1.0;"/>
  <path d=" M 380.1842346191406 640.361572265625 L 406.9810485839844 640.361572265625 L 406.9810485839844 650.1705932617188 L 380.1842346191406 650.1705932617188 Z " style="fill:none;stroke:#f8cbad;stroke-width:1.0;"/>
  <path d=" M 406.9810791015625 640.361572265625 L 433.77789306640625 640.361572265625 L 433.77789306640625 650.1705932617188 L 406.9810791015625 650.1705932617188 Z " style="fill:none;stroke:#f8cbad;stroke-width:1.0;"/>
  <path d=" M 433.7787780761719 640.361572265625 L 460.5755920410156 640.361572265625 L 460.5755920410156 650.1705932617188 L 433.7787780761719 650.1705932617188 Z " style="fill:none;stroke:#f8cbad;stroke-width:1.0;"/>
  <path d=" M 460.57562255859375 640.361572265625 L 487.3724365234375 640.361572265625 L 487.3724365234375 650.1705932617188 L 460.57562255859375 650.1705932617188 Z " style="fill:none;stroke:#f8cbad;stroke-width:1.0;"/>
  <text x="113.226,118.108,122.102,129.157,132.983,136.139,139.526,141.524,145.35,147.954,149.952,153.947,156.271,158.268,160.745,164.74,168.734,172.729,176.72400000000002,178.721,181.381,185.376,189.37,192.03,256.662,263.301,267.495,323.347,329.986" y="166.47299999999996" svg_rhmargin="334.18" style="fill:#000000;font-family:MSSLTZ+URWPalladioL-Roma;font-size:8.97px;font-style:NORMAL;font-weight:normal;">Lamers et al. 2018 [20] NS NS</text>
  <path d=" M 353.3874206542969 630.5526123046875 L 380.1842346191406 630.5526123046875 L 380.1842346191406 640.3616333007812 L 353.3874206542969 640.3616333007812 Z " style="fill:none;stroke:#f8cbad;stroke-width:1.0;"/>
  <path d=" M 380.1842346191406 630.5526123046875 L 406.9810485839844 630.5526123046875 L 406.9810485839844 640.3616333007812 L 380.1842346191406 640.3616333007812 Z " style="fill:none;stroke:#c6e0b4;stroke-width:1.0;"/>
  <path d=" M 406.9810791015625 630.5526123046875 L 433.77789306640625 630.5526123046875 L 433.77789306640625 640.3616333007812 L 406.9810791015625 640.3616333007812 Z " style="fill:none;stroke:#f8cbad;stroke-width:1.0;"/>
  <path d=" M 433.7787780761719 630.5526123046875 L 460.5755920410156 630.5526123046875 L 460.5755920410156 640.3616333007812 L 433.7787780761719 640.3616333007812 Z " style="fill:none;stroke:#bdd7ee;stroke-width:1.0;"/>
  <path d=" M 460.57562255859375 630.5526123046875 L 487.3724365234375 630.5526123046875 L 487.3724365234375 640.3616333007812 L 460.57562255859375 640.3616333007812 Z " style="fill:none;stroke:#f8cbad;stroke-width:1.0;"/>
  <text x="113.226,118.108,121.934,125.929,128.533,131.138,135.58,137.577,141.404,144.008,146.006,150.0,152.325,154.322,156.799,160.793,164.788,168.782,172.77700000000002,174.774,177.435,181.429,185.424,188.084,237.68,241.675,245.67000000000002,247.666,250.327,254.321,258.316,260.313,264.308,268.949,273.83000000000004,275.828,279.822,283.817,286.47700000000003,322.987,326.982" y="176.28200000000004" svg_rhmargin="334.54" style="fill:#000000;font-family:MSSLTZ+URWPalladioL-Roma;font-size:8.97px;font-style:NORMAL;font-weight:normal;">Beatty et al. 2013 [21] 78 (81 and 75) 2M</text>
  <path d=" M 353.3874206542969 620.7445068359375 L 380.1842346191406 620.7445068359375 L 380.1842346191406 630.5535278320312 L 353.3874206542969 630.5535278320312 Z " style="fill:none;stroke:#f8cbad;stroke-width:1.0;"/>
  <path d=" M 380.1842346191406 620.7445068359375 L 406.9810485839844 620.7445068359375 L 406.9810485839844 630.5535278320312 L 380.1842346191406 630.5535278320312 Z " style="fill:none;stroke:#c6e0b4;stroke-width:1.0;"/>
  <path d=" M 406.9810791015625 620.7445068359375 L 433.77789306640625 620.7445068359375 L 433.77789306640625 630.5535278320312 L 406.9810791015625 630.5535278320312 Z " style="fill:none;stroke:#c6e0b4;stroke-width:1.0;"/>
  <path d=" M 433.7787780761719 620.7445068359375 L 460.5755920410156 620.7445068359375 L 460.5755920410156 630.5535278320312 L 433.7787780761719 630.5535278320312 Z " style="fill:none;stroke:#f8cbad;stroke-width:1.0;"/>
  <path d=" M 460.57562255859375 620.7445068359375 L 487.3724365234375 620.7445068359375 L 487.3724365234375 630.5535278320312 L 460.57562255859375 630.5535278320312 Z " style="fill:none;stroke:#f8cbad;stroke-width:1.0;"/>
  <text x="113.226,117.82,122.182,126.999,128.997,132.824,135.42800000000003,137.425,141.42,143.745,145.74200000000002,148.218,152.213,156.208,160.202,164.197,166.194,168.854,172.849,176.843,179.503,256.662,263.301,267.495,323.347,329.986" y="186.09000000000003" svg_rhmargin="334.18" style="fill:#000000;font-family:MSSLTZ+URWPalladioL-Roma;font-size:8.97px;font-style:NORMAL;font-weight:normal;">You et al. 2016 [22] NS NS</text>
  <path d=" M 353.3874206542969 610.9354248046875 L 380.1842346191406 610.9354248046875 L 380.1842346191406 620.7444458007812 L 353.3874206542969 620.7444458007812 Z " style="fill:none;stroke:#c6e0b4;stroke-width:1.0;"/>
  <path d=" M 380.1842346191406 610.9354248046875 L 406.9810485839844 610.9354248046875 L 406.9810485839844 620.7444458007812 L 380.1842346191406 620.7444458007812 Z " style="fill:none;stroke:#c6e0b4;stroke-width:1.0;"/>
  <path d=" M 406.9810791015625 610.9354248046875 L 433.77789306640625 610.9354248046875 L 433.77789306640625 620.7444458007812 L 406.9810791015625 620.7444458007812 Z " style="fill:none;stroke:#c6e0b4;stroke-width:1.0;"/>
  <path d=" M 433.7787780761719 610.9354248046875 L 460.5755920410156 610.9354248046875 L 460.5755920410156 620.7444458007812 L 433.7787780761719 620.7444458007812 Z " style="fill:none;stroke:#c5e0b3;stroke-width:1.0;"/>
  <path d=" M 460.57562255859375 610.9354248046875 L 487.3724365234375 610.9354248046875 L 487.3724365234375 620.7444458007812 L 460.57562255859375 620.7444458007812 Z " style="fill:none;stroke:#f8cbad;stroke-width:1.0;"/>
  <text x="113.226,118.555,123.205,127.199,131.849,136.291,138.288,142.115,144.71900000000002,146.717,150.711,153.036,155.03300000000002,157.51,161.504,165.499,169.493,173.488,175.485,178.146,182.14,186.135,188.795,244.439,248.433,252.428,254.425,257.085,261.08,265.075,269.069,273.064,277.058,279.718,316.348,320.343,327.901,332.742,336.736" y="195.899" svg_rhmargin="341.178" style="fill:#000000;font-family:MSSLTZ+URWPalladioL-Roma;font-size:8.97px;font-style:NORMAL;font-weight:normal;">Zhang et al. 2017 [23] 58 (48–67) 7M/3F</text>
  <path d=" M 353.3874206542969 601.12646484375 L 380.1842346191406 601.12646484375 L 380.1842346191406 610.9354858398438 L 353.3874206542969 610.9354858398438 Z " style="fill:none;stroke:#f8cbad;stroke-width:1.0;"/>
  <path d=" M 380.1842346191406 601.12646484375 L 406.9810485839844 601.12646484375 L 406.9810485839844 610.9354858398438 L 380.1842346191406 610.9354858398438 Z " style="fill:none;stroke:#f8cbad;stroke-width:1.0;"/>
  <path d=" M 406.9810791015625 601.12646484375 L 433.77789306640625 601.12646484375 L 433.77789306640625 610.9354858398438 L 406.9810791015625 610.9354858398438 Z " style="fill:none;stroke:#f8cbad;stroke-width:1.0;"/>
  <path d=" M 433.7787780761719 601.12646484375 L 460.5755920410156 601.12646484375 L 460.5755920410156 610.9354858398438 L 433.7787780761719 610.9354858398438 Z " style="fill:none;stroke:#f8cbad;stroke-width:1.0;"/>
  <path d=" M 460.57562255859375 601.12646484375 L 487.3724365234375 601.12646484375 L 487.3724365234375 610.9354858398438 L 460.57562255859375 610.9354858398438 Z " style="fill:none;stroke:#f8cbad;stroke-width:1.0;"/>
  <text x="113.226,119.026,123.021,125.625,129.62,131.617,135.444,138.048,140.046,144.04,146.365,148.36200000000002,150.839,154.833,158.828,162.823,166.818,168.814,171.475,175.469,179.464,182.124,244.439,248.433,252.428,254.425,257.085,261.08,265.075,269.069,273.064,277.058,279.718,316.348,320.343,327.901,332.742,336.736" y="205.70799999999997" svg_rhmargin="341.178" style="fill:#000000;font-family:MSSLTZ+URWPalladioL-Roma;font-size:8.97px;font-style:NORMAL;font-weight:normal;">Katz et al. 2015 [24] 57 (51–66) 6M/2F</text>
  <path d=" M 353.3874206542969 591.3175048828125 L 380.1842346191406 591.3175048828125 L 380.1842346191406 601.1265258789062 L 353.3874206542969 601.1265258789062 Z " style="fill:none;stroke:#f8cbad;stroke-width:1.0;"/>
  <path d=" M 380.1842346191406 591.3175048828125 L 406.9810485839844 591.3175048828125 L 406.9810485839844 601.1265258789062 L 380.1842346191406 601.1265258789062 Z " style="fill:none;stroke:#c6e0b4;stroke-width:1.0;"/>
  <path d=" M 406.9810791015625 591.3175048828125 L 433.77789306640625 591.3175048828125 L 433.77789306640625 601.1265258789062 L 406.9810791015625 601.1265258789062 Z " style="fill:none;stroke:#c6e0b4;stroke-width:1.0;"/>
  <path d=" M 433.7787780761719 591.3175048828125 L 460.5755920410156 591.3175048828125 L 460.5755920410156 601.1265258789062 L 433.7787780761719 601.1265258789062 Z " style="fill:none;stroke:#f8cbad;stroke-width:1.0;"/>
  <path d=" M 460.57562255859375 591.3175048828125 L 487.3724365234375 591.3175048828125 L 487.3724365234375 601.1265258789062 L 460.57562255859375 601.1265258789062 Z " style="fill:none;stroke:#f8cbad;stroke-width:1.0;"/>
  <text x="113.226,115.887,120.704,125.354,129.796,134.445,138.44,143.09,146.477,148.474,152.301,154.905,156.903,160.897,163.222,165.21900000000002,167.696,171.69,175.685,179.679,183.674,185.671,188.332,192.326,196.321,198.981,245.437,249.432,253.426,256.087,260.081,264.076,268.07,272.065,276.06,278.72,322.987,326.982" y="215.51700000000005" svg_rhmargin="334.54" style="fill:#000000;font-family:MSSLTZ+URWPalladioL-Roma;font-size:8.97px;font-style:NORMAL;font-weight:normal;">Junghans et al. 2016 [25] 61(51–75) 5M</text>
  <path d=" M 353.3874206542969 581.50927734375 L 380.1842346191406 581.50927734375 L 380.1842346191406 591.3182983398438 L 353.3874206542969 591.3182983398438 Z " style="fill:none;stroke:#c6e0b4;stroke-width:1.0;"/>
  <path d=" M 380.1842346191406 581.50927734375 L 406.9810485839844 581.50927734375 L 406.9810485839844 591.3182983398438 L 380.1842346191406 591.3182983398438 Z " style="fill:none;stroke:#c6e0b4;stroke-width:1.0;"/>
  <path d=" M 406.9810791015625 581.50927734375 L 433.77789306640625 581.50927734375 L 433.77789306640625 591.3182983398438 L 406.9810791015625 591.3182983398438 Z " style="fill:none;stroke:#c6e0b4;stroke-width:1.0;"/>
  <path d=" M 433.7787780761719 581.50927734375 L 460.5755920410156 581.50927734375 L 460.5755920410156 591.3182983398438 L 433.7787780761719 591.3182983398438 Z " style="fill:none;stroke:#bdd7ee;stroke-width:1.0;"/>
  <path d=" M 460.57562255859375 581.50927734375 L 487.3724365234375 581.50927734375 L 487.3724365234375 591.3182983398438 L 460.57562255859375 591.3182983398438 Z " style="fill:none;stroke:#c6e0b4;stroke-width:1.0;"/>
  <text x="113.226,117.389,121.383,126.033,130.475,132.79999999999998,134.797,138.624,141.228,143.225,147.22,149.545,151.542,154.019,158.013,162.008,166.002,169.997,171.994,174.654,178.649,182.643,185.303,258.084,262.079,266.074,324.545,328.54" y="225.32600000000002" svg_rhmargin="332.982" style="fill:#000000;font-family:MSSLTZ+URWPalladioL-Roma;font-size:8.97px;font-style:NORMAL;font-weight:normal;">Tanyi et al. 2017 [26] 52 1F</text>
  <path d=" M 353.3874206542969 571.7003173828125 L 380.1842346191406 571.7003173828125 L 380.1842346191406 581.5093383789062 L 353.3874206542969 581.5093383789062 Z " style="fill:none;stroke:#c6e0b4;stroke-width:1.0;"/>
  <path d=" M 380.1842346191406 571.7003173828125 L 406.9810485839844 571.7003173828125 L 406.9810485839844 581.5093383789062 L 380.1842346191406 581.5093383789062 Z " style="fill:none;stroke:#c6e0b4;stroke-width:1.0;"/>
  <path d=" M 406.9810791015625 571.7003173828125 L 433.77789306640625 571.7003173828125 L 433.77789306640625 581.5093383789062 L 406.9810791015625 581.5093383789062 Z " style="fill:none;stroke:#f8cbad;stroke-width:1.0;"/>
  <path d=" M 433.7787780761719 571.7003173828125 L 460.5755920410156 571.7003173828125 L 460.5755920410156 581.5093383789062 L 433.7787780761719 581.5093383789062 Z " style="fill:none;stroke:#c5e0b3;stroke-width:1.0;"/>
  <path d=" M 460.57562255859375 571.7003173828125 L 487.3724365234375 571.7003173828125 L 487.3724365234375 581.5093383789062 L 460.57562255859375 581.5093383789062 Z " style="fill:none;stroke:#f8cbad;stroke-width:1.0;"/>
  <text x="113.226,118.108,121.12,125.482,132.144,136.794,138.791,142.618,145.222,147.22,151.214,153.539,155.536,158.013,162.008,166.002,169.997,173.99200000000002,175.988,178.649,182.643,186.638,189.298,258.084,262.079,266.074,322.987,326.982" y="235.135" svg_rhmargin="334.54" style="fill:#000000;font-family:MSSLTZ+URWPalladioL-Roma;font-size:8.97px;font-style:NORMAL;font-weight:normal;">Brown et al. 2016 [27] 50 1M</text>
  <path d=" M 353.3874206542969 561.891357421875 L 380.1842346191406 561.891357421875 L 380.1842346191406 571.7003784179688 L 353.3874206542969 571.7003784179688 Z " style="fill:none;stroke:#c6e0b4;stroke-width:1.0;"/>
  <path d=" M 380.1842346191406 561.891357421875 L 406.9810485839844 561.891357421875 L 406.9810485839844 571.7003784179688 L 380.1842346191406 571.7003784179688 Z " style="fill:none;stroke:#c6e0b4;stroke-width:1.0;"/>
  <path d=" M 406.9810791015625 561.891357421875 L 433.77789306640625 561.891357421875 L 433.77789306640625 571.7003784179688 L 406.9810791015625 571.7003784179688 Z " style="fill:none;stroke:#c6e0b4;stroke-width:1.0;"/>
  <path d=" M 433.7787780761719 561.891357421875 L 460.5755920410156 561.891357421875 L 460.5755920410156 571.7003784179688 L 433.7787780761719 571.7003784179688 Z " style="fill:none;stroke:#bdd7ee;stroke-width:1.0;"/>
  <path d=" M 460.57562255859375 561.891357421875 L 487.3724365234375 561.891357421875 L 487.3724365234375 571.7003784179688 L 460.57562255859375 571.7003784179688 Z " style="fill:none;stroke:#f8cbad;stroke-width:1.0;"/>
  <text x="113.226,117.237,120.784,125.434,129.796,134.613,136.61,140.437,143.04100000000003,145.039,149.033,151.358,153.35500000000002,155.832,159.827,163.821,167.816,171.811,173.807,176.468,180.462,184.457,187.117,241.443,245.437,249.432,251.429,255.424,257.421,260.081,264.076,268.07,272.065,276.06,280.054,282.714,324.545,328.54" y="244.94399999999996" svg_rhmargin="332.982" style="fill:#000000;font-family:MSSLTZ+URWPalladioL-Roma;font-size:8.97px;font-style:NORMAL;font-weight:normal;">Tchou et al. 2017 [28] 55.3 (44–64) 6F</text>
  <path d=" M 353.3874206542969 552.082275390625 L 380.1842346191406 552.082275390625 L 380.1842346191406 561.8912963867188 L 353.3874206542969 561.8912963867188 Z " style="fill:none;stroke:#f8cbad;stroke-width:1.0;"/>
  <path d=" M 380.1842346191406 552.082275390625 L 406.9810485839844 552.082275390625 L 406.9810485839844 561.8912963867188 L 380.1842346191406 561.8912963867188 Z " style="fill:none;stroke:#c6e0b4;stroke-width:1.0;"/>
  <path d=" M 406.9810791015625 552.082275390625 L 433.77789306640625 552.082275390625 L 433.77789306640625 561.8912963867188 L 406.9810791015625 561.8912963867188 Z " style="fill:none;stroke:#f8cbad;stroke-width:1.0;"/>
  <path d=" M 433.7787780761719 552.082275390625 L 460.5755920410156 552.082275390625 L 460.5755920410156 561.8912963867188 L 433.7787780761719 561.8912963867188 Z " style="fill:none;stroke:#bdd7ee;stroke-width:1.0;"/>
  <path d=" M 460.57562255859375 552.082275390625 L 487.3724365234375 552.082275390625 L 487.3724365234375 561.8912963867188 L 460.57562255859375 561.8912963867188 Z " style="fill:none;stroke:#f8cbad;stroke-width:1.0;"/>
  <text x="113.226,119.873,123.7,128.142,131.969,133.966,137.793,140.39700000000002,142.394,146.389,148.714,150.711,153.188,157.182,161.177,165.171,169.166,171.163,173.823,177.818,181.813,184.47299999999998,258.084,262.079,266.074,316.348,320.343,327.901,332.742,336.736" y="254.75300000000004" svg_rhmargin="341.178" style="fill:#000000;font-family:MSSLTZ+URWPalladioL-Roma;font-size:8.97px;font-style:NORMAL;font-weight:normal;">Hege et al. 2017 [29] 56 9M/5F</text>
  <path d=" M 353.3874206542969 542.274169921875 L 380.1842346191406 542.274169921875 L 380.1842346191406 552.0831909179688 L 353.3874206542969 552.0831909179688 Z " style="fill:none;stroke:#f8cbad;stroke-width:1.0;"/>
  <path d=" M 380.1842346191406 542.274169921875 L 406.9810485839844 542.274169921875 L 406.9810485839844 552.0831909179688 L 380.1842346191406 552.0831909179688 Z " style="fill:none;stroke:#f8cbad;stroke-width:1.0;"/>
  <path d=" M 406.9810791015625 542.274169921875 L 433.77789306640625 542.274169921875 L 433.77789306640625 552.0831909179688 L 406.9810791015625 552.0831909179688 Z " style="fill:none;stroke:#f8cbad;stroke-width:1.0;"/>
  <path d=" M 433.7787780761719 542.274169921875 L 460.5755920410156 542.274169921875 L 460.5755920410156 552.0831909179688 L 433.7787780761719 552.0831909179688 Z " style="fill:none;stroke:#f8cbad;stroke-width:1.0;"/>
  <path d=" M 460.57562255859375 542.274169921875 L 487.3724365234375 542.274169921875 L 487.3724365234375 552.0831909179688 L 460.57562255859375 552.0831909179688 Z " style="fill:none;stroke:#c6e0b4;stroke-width:1.0;"/>
  <text x="113.226,119.442,121.767,124.092,126.089,129.916,132.52,134.517,138.512,140.837,142.834,145.31,149.305,153.3,157.294,161.28900000000002,163.286,165.946,169.941,173.935,176.595,256.662,263.301,267.495,323.347,329.986" y="264.56100000000004" svg_rhmargin="334.18" style="fill:#000000;font-family:MSSLTZ+URWPalladioL-Roma;font-size:8.97px;font-style:NORMAL;font-weight:normal;">Ali et al. 2016 [30] NS NS</text>
  <path d=" M 353.3874206542969 532.4651489257812 L 380.1842346191406 532.4651489257812 L 380.1842346191406 542.274169921875 L 353.3874206542969 542.274169921875 Z " style="fill:none;stroke:#f8cbad;stroke-width:1.0;"/>
  <path d=" M 380.1842346191406 532.4651489257812 L 406.9810485839844 532.4651489257812 L 406.9810485839844 542.274169921875 L 380.1842346191406 542.274169921875 Z " style="fill:none;stroke:#f8cbad;stroke-width:1.0;"/>
  <path d=" M 406.9810791015625 532.4651489257812 L 433.77789306640625 532.4651489257812 L 433.77789306640625 542.274169921875 L 406.9810791015625 542.274169921875 Z " style="fill:none;stroke:#f8cbad;stroke-width:1.0;"/>
  <path d=" M 433.7787780761719 532.4651489257812 L 460.5755920410156 532.4651489257812 L 460.5755920410156 542.274169921875 L 433.7787780761719 542.274169921875 Z " style="fill:none;stroke:#bdd7ee;stroke-width:1.0;"/>
  <path d=" M 460.57562255859375 532.4651489257812 L 487.3724365234375 532.4651489257812 L 487.3724365234375 542.274169921875 L 460.57562255859375 542.274169921875 Z " style="fill:none;stroke:#f8cbad;stroke-width:1.0;"/>
  <text x="113.226,120.784,124.779,129.596,132.983,134.981,138.807,141.411,143.409,147.404,149.728,151.72500000000002,154.202,158.197,162.191,166.186,170.181,172.178,174.838,178.833,182.827,185.487,256.662,263.301,267.495,323.347,329.986" y="274.37" svg_rhmargin="334.18" style="fill:#000000;font-family:MSSLTZ+URWPalladioL-Roma;font-size:8.97px;font-style:NORMAL;font-weight:normal;">Maus et al. 2013 [31] NS NS</text>
  <path d=" M 353.3874206542969 522.6561279296875 L 380.1842346191406 522.6561279296875 L 380.1842346191406 532.4651489257812 L 353.3874206542969 532.4651489257812 Z " style="fill:none;stroke:#f8cbad;stroke-width:1.0;"/>
  <path d=" M 380.1842346191406 522.6561279296875 L 406.9810485839844 522.6561279296875 L 406.9810485839844 532.4651489257812 L 380.1842346191406 532.4651489257812 Z " style="fill:none;stroke:#f8cbad;stroke-width:1.0;"/>
  <path d=" M 406.9810791015625 522.6561279296875 L 433.77789306640625 522.6561279296875 L 433.77789306640625 532.4651489257812 L 406.9810791015625 532.4651489257812 Z " style="fill:none;stroke:#c6e0b4;stroke-width:1.0;"/>
  <path d=" M 433.7787780761719 522.6561279296875 L 460.5755920410156 522.6561279296875 L 460.5755920410156 532.4651489257812 L 433.7787780761719 532.4651489257812 Z " style="fill:none;stroke:#f8cbad;stroke-width:1.0;"/>
  <path d=" M 460.57562255859375 522.6561279296875 L 487.3724365234375 522.6561279296875 L 487.3724365234375 532.4651489257812 L 460.57562255859375 532.4651489257812 Z " style="fill:none;stroke:#f8cbad;stroke-width:1.0;"/>
  <text x="113.226,118.026,122.582,124.861,128.18,130.733,133.011,136.761,139.314,143.87,150.4,154.314,156.593,159.145,162.895,164.892,168.642,171.194,173.191,177.105,179.384,181.34099999999998,183.815,187.73,191.644,195.559,199.474,201.47" y="284.179" svg_rhmargin="204.077" style="fill:#000000;font-family:MSSLTZ+URWPalladioL-Roma;font-size:8.97px;font-style:NORMAL;font-weight:normal;">Thistlethwaite et al. 2017 [</text>
  <text x="204.081,208.075" y="284.179" svg_rhmargin="212.07" style="fill:#0875b7;font-family:MSSLTZ+URWPalladioL-Roma;font-size:8.97px;font-style:NORMAL;font-weight:normal;">32</text>
  <text svg_rhmargin="214.677" x="212.07,214.677" y="284.179" style="fill:#000000;font-family:MSSLTZ+URWPalladioL-Roma;font-size:8.97px;font-style:NORMAL;font-weight:normal;">] </text>
  <text x="241.442,245.437,249.431,251.429,255.424,257.42,260.081,264.075,268.07,272.064,276.059,280.053,282.713,316.348,320.342,327.9,332.741,336.736" y="284.179" svg_rhmargin="341.178" style="fill:#000000;font-family:MSSLTZ+URWPalladioL-Roma;font-size:8.97px;font-style:NORMAL;font-weight:normal;">47.4 (36–66) 8M/6F</text>
  <path d=" M 353.3874206542969 512.8471069335938 L 380.1842346191406 512.8471069335938 L 380.1842346191406 522.6561279296875 L 353.3874206542969 522.6561279296875 Z " style="fill:none;stroke:#f8cbad;stroke-width:1.0;"/>
  <path d=" M 380.1842346191406 512.8471069335938 L 406.9810485839844 512.8471069335938 L 406.9810485839844 522.6561279296875 L 380.1842346191406 522.6561279296875 Z " style="fill:none;stroke:#c6e0b4;stroke-width:1.0;"/>
  <path d=" M 406.9810791015625 512.8471069335938 L 433.77789306640625 512.8471069335938 L 433.77789306640625 522.6561279296875 L 406.9810791015625 522.6561279296875 Z " style="fill:none;stroke:#f8cbad;stroke-width:1.0;"/>
  <path d=" M 433.7787780761719 512.8471069335938 L 460.5755920410156 512.8471069335938 L 460.5755920410156 522.6561279296875 L 433.7787780761719 522.6561279296875 Z " style="fill:none;stroke:#f8cbad;stroke-width:1.0;"/>
  <path d=" M 460.57562255859375 512.8471069335938 L 487.3724365234375 512.8471069335938 L 487.3724365234375 522.6561279296875 L 460.57562255859375 522.6561279296875 Z " style="fill:none;stroke:#c6e0b4;stroke-width:1.0;"/>
  <text x="113.226,118.108,122.102,129.157,132.983,136.139,139.526,141.524,145.35,147.954,149.952,153.947,156.271,158.268,160.745,164.74,168.734,172.729,176.72400000000002,178.721,181.381,185.376,189.37,192.03,241.443,245.437,249.432,251.429,255.424,257.421,260.081,264.076,268.07,272.065,276.06,280.054,282.714,316.348,320.343,327.901,332.742,336.736" y="293.988" svg_rhmargin="341.178" style="fill:#000000;font-family:MSSLTZ+URWPalladioL-Roma;font-size:8.97px;font-style:NORMAL;font-weight:normal;">Lamers et al. 2013 [33] 60.8 (46–74) 8M/4F</text>
  <path d=" M 353.3874206542969 503.0389404296875 L 380.1842346191406 503.0389404296875 L 380.1842346191406 512.8479614257812 L 353.3874206542969 512.8479614257812 Z " style="fill:none;stroke:#f8cbad;stroke-width:1.0;"/>
  <path d=" M 380.1842346191406 503.0389404296875 L 406.9810485839844 503.0389404296875 L 406.9810485839844 512.8479614257812 L 380.1842346191406 512.8479614257812 Z " style="fill:none;stroke:#c6e0b4;stroke-width:1.0;"/>
  <path d=" M 406.9810791015625 503.0389404296875 L 433.77789306640625 503.0389404296875 L 433.77789306640625 512.8479614257812 L 406.9810791015625 512.8479614257812 Z " style="fill:none;stroke:#f8cbad;stroke-width:1.0;"/>
  <path d=" M 433.7787780761719 503.0389404296875 L 460.5755920410156 503.0389404296875 L 460.5755920410156 512.8479614257812 L 433.7787780761719 512.8479614257812 Z " style="fill:none;stroke:#c5e0b3;stroke-width:1.0;"/>
  <path d=" M 460.57562255859375 503.0389404296875 L 487.3724365234375 503.0389404296875 L 487.3724365234375 512.8479614257812 L 460.57562255859375 512.8479614257812 Z " style="fill:none;stroke:#f8cbad;stroke-width:1.0;"/>
  <text x="113.226,120.48,124.307,128.957,133.399,135.396,139.223,141.82700000000003,143.825,147.819,150.144,152.14100000000002,154.618,158.612,162.607,166.601,170.596,172.593,175.253,179.248,183.243,185.903,241.443,245.437,249.432,251.429,255.424,257.421,260.081,264.076,268.07,272.065,276.06,280.054,282.714,316.348,320.343,327.901,332.742,336.736" y="303.796" svg_rhmargin="341.178" style="fill:#000000;font-family:MSSLTZ+URWPalladioL-Roma;font-size:8.97px;font-style:NORMAL;font-weight:normal;">Weng et al. 2018 [34] 23.3 (16–34) 2M/1F</text>
  <path d=" M 353.3874206542969 493.22991943359375 L 380.1842346191406 493.22991943359375 L 380.1842346191406 503.0389404296875 L 353.3874206542969 503.0389404296875 Z " style="fill:none;stroke:#f8cbad;stroke-width:1.0;"/>
  <path d=" M 380.1842346191406 493.22991943359375 L 406.9810485839844 493.22991943359375 L 406.9810485839844 503.0389404296875 L 380.1842346191406 503.0389404296875 Z " style="fill:none;stroke:#c6e0b4;stroke-width:1.0;"/>
  <path d=" M 406.9810791015625 493.22991943359375 L 433.77789306640625 493.22991943359375 L 433.77789306640625 503.0389404296875 L 406.9810791015625 503.0389404296875 Z " style="fill:none;stroke:#f8cbad;stroke-width:1.0;"/>
  <path d=" M 433.7787780761719 493.22991943359375 L 460.5755920410156 493.22991943359375 L 460.5755920410156 503.0389404296875 L 433.7787780761719 503.0389404296875 Z " style="fill:none;stroke:#f8cbad;stroke-width:1.0;"/>
  <path d=" M 460.57562255859375 493.22991943359375 L 487.3724365234375 493.22991943359375 L 487.3724365234375 503.0389404296875 L 460.57562255859375 503.0389404296875 Z " style="fill:none;stroke:#f8cbad;stroke-width:1.0;"/>
  <text x="113.226,119.322,123.317,126.328,131.21,135.859,139.686,142.842,144.839,148.666,151.27,153.268,157.262,159.587,161.584,164.061,168.055,172.05,176.044,180.03900000000002,182.036,184.697,188.691,192.686,195.346,256.662,263.301,267.495,323.347,329.986" y="313.605" svg_rhmargin="334.18" style="fill:#000000;font-family:MSSLTZ+URWPalladioL-Roma;font-size:8.97px;font-style:NORMAL;font-weight:normal;">Gardner et al. 2018 [35] NS NS</text>
  <path d=" M 353.3874206542969 483.4208984375 L 380.1842346191406 483.4208984375 L 380.1842346191406 493.22991943359375 L 353.3874206542969 493.22991943359375 Z " style="fill:none;stroke:#c6e0b4;stroke-width:1.0;"/>
  <path d=" M 380.1842346191406 483.4208984375 L 406.9810485839844 483.4208984375 L 406.9810485839844 493.22991943359375 L 380.1842346191406 493.22991943359375 Z " style="fill:none;stroke:#c6e0b4;stroke-width:1.0;"/>
  <path d=" M 406.9810791015625 483.4208984375 L 433.77789306640625 483.4208984375 L 433.77789306640625 493.22991943359375 L 406.9810791015625 493.22991943359375 Z " style="fill:none;stroke:#c6e0b4;stroke-width:1.0;"/>
  <path d=" M 433.7787780761719 483.4208984375 L 460.5755920410156 483.4208984375 L 460.5755920410156 493.22991943359375 L 433.7787780761719 493.22991943359375 Z " style="fill:none;stroke:#f8cbad;stroke-width:1.0;"/>
  <path d=" M 460.57562255859375 483.4208984375 L 487.3724365234375 483.4208984375 L 487.3724365234375 493.22991943359375 L 460.57562255859375 493.22991943359375 Z " style="fill:none;stroke:#f8cbad;stroke-width:1.0;"/>
  <text x="113.226,118.555,123.205,128.022,130.019,133.846,136.45000000000002,138.448,142.442,144.767,146.764,149.241,153.236,157.23,161.225,165.22,167.216,169.877,173.871,177.866,180.526,244.439,248.433,252.428,254.425,257.085,261.08,265.075,269.069,273.064,277.058,279.718,316.348,320.343,327.901,332.742,336.736" y="323.414" svg_rhmargin="341.178" style="fill:#000000;font-family:MSSLTZ+URWPalladioL-Roma;font-size:8.97px;font-style:NORMAL;font-weight:normal;">Zhu et al. 2016 [36] 34 (29–39) 1M/1F</text>
  <path d=" M 353.3874206542969 473.61187744140625 L 380.1842346191406 473.61187744140625 L 380.1842346191406 483.4208984375 L 353.3874206542969 483.4208984375 Z " style="fill:none;stroke:#c6e0b4;stroke-width:1.0;"/>
  <path d=" M 380.1842346191406 473.61187744140625 L 406.9810485839844 473.61187744140625 L 406.9810485839844 483.4208984375 L 380.1842346191406 483.4208984375 Z " style="fill:none;stroke:#c6e0b4;stroke-width:1.0;"/>
  <path d=" M 406.9810791015625 473.61187744140625 L 433.77789306640625 473.61187744140625 L 433.77789306640625 483.4208984375 L 406.9810791015625 483.4208984375 Z " style="fill:none;stroke:#f8cbad;stroke-width:1.0;"/>
  <path d=" M 433.7787780761719 473.61187744140625 L 460.5755920410156 473.61187744140625 L 460.5755920410156 483.4208984375 L 433.7787780761719 483.4208984375 Z " style="fill:none;stroke:#f8cbad;stroke-width:1.0;"/>
  <path d=" M 460.57562255859375 473.61187744140625 L 487.3724365234375 473.61187744140625 L 487.3724365234375 483.4208984375 L 460.57562255859375 483.4208984375 Z " style="fill:none;stroke:#f8cbad;stroke-width:1.0;"/>
  <text x="113.226,120.48,124.475,129.125,133.567,135.564,139.391,141.995,143.992,147.987,150.312,152.30900000000003,154.786,158.78,162.775,166.769,170.764,172.761,175.421,179.416,183.41,186.07,244.439,248.433,252.428,254.425,257.085,261.08,265.075,269.069,273.064,277.058,279.718,314.351,318.346,322.34,329.898,334.739,338.734" y="333.223" svg_rhmargin="343.176" style="fill:#000000;font-family:MSSLTZ+URWPalladioL-Roma;font-size:8.97px;font-style:NORMAL;font-weight:normal;">Wang et al. 2016 [37] 33 (13–77) 13M/5F</text>
  <path d=" M 353.3874206542969 463.80377197265625 L 380.1842346191406 463.80377197265625 L 380.1842346191406 473.61279296875 L 353.3874206542969 473.61279296875 Z " style="fill:none;stroke:#f8cbad;stroke-width:1.0;"/>
  <path d=" M 380.1842346191406 463.80377197265625 L 406.9810485839844 463.80377197265625 L 406.9810485839844 473.61279296875 L 380.1842346191406 473.61279296875 Z " style="fill:none;stroke:#f8cbad;stroke-width:1.0;"/>
  <path d=" M 406.9810791015625 463.80377197265625 L 433.77789306640625 463.80377197265625 L 433.77789306640625 473.61279296875 L 406.9810791015625 473.61279296875 Z " style="fill:none;stroke:#f8cbad;stroke-width:1.0;"/>
  <path d=" M 433.7787780761719 463.80377197265625 L 460.5755920410156 463.80377197265625 L 460.5755920410156 473.61279296875 L 433.7787780761719 473.61279296875 Z " style="fill:none;stroke:#f8cbad;stroke-width:1.0;"/>
  <path d=" M 460.57562255859375 463.80377197265625 L 487.3724365234375 463.80377197265625 L 487.3724365234375 473.61279296875 L 460.57562255859375 473.61279296875 Z " style="fill:none;stroke:#f8cbad;stroke-width:1.0;"/>
  <text x="113.226,118.891,122.885,125.21,127.535,131.529,136.179,140.174,144.824,146.82,150.647,153.251,155.249,159.243,161.568,163.56500000000003,166.042,170.037,174.031,178.026,182.02100000000002,184.017,186.678,190.672,194.667,197.327,251.429,254.09,258.084,262.079,266.073,270.068,272.728,323.347,329.986" y="343.031" svg_rhmargin="334.18" style="fill:#000000;font-family:MSSLTZ+URWPalladioL-Roma;font-size:8.97px;font-style:NORMAL;font-weight:normal;">Callahan et al. 2017 [38] (1–14) NS</text>
  <path d=" M 353.3874206542969 453.9947509765625 L 380.1842346191406 453.9947509765625 L 380.1842346191406 463.80377197265625 L 353.3874206542969 463.80377197265625 Z " style="fill:none;stroke:#f8cbad;stroke-width:1.0;"/>
  <path d=" M 380.1842346191406 453.9947509765625 L 406.9810485839844 453.9947509765625 L 406.9810485839844 463.80377197265625 L 380.1842346191406 463.80377197265625 Z " style="fill:none;stroke:#f8cbad;stroke-width:1.0;"/>
  <path d=" M 406.9810791015625 453.9947509765625 L 433.77789306640625 453.9947509765625 L 433.77789306640625 463.80377197265625 L 406.9810791015625 463.80377197265625 Z " style="fill:none;stroke:#f8cbad;stroke-width:1.0;"/>
  <path d=" M 433.7787780761719 453.9947509765625 L 460.5755920410156 453.9947509765625 L 460.5755920410156 463.80377197265625 L 433.7787780761719 463.80377197265625 Z " style="fill:none;stroke:#f8cbad;stroke-width:1.0;"/>
  <path d=" M 460.57562255859375 453.9947509765625 L 487.3724365234375 453.9947509765625 L 487.3724365234375 463.80377197265625 L 460.57562255859375 463.80377197265625 Z " style="fill:none;stroke:#f8cbad;stroke-width:1.0;"/>
  <text x="113.226,117.405,122.222,125.378,127.982,130.307,134.134,136.131,139.958,142.562,144.56,148.554,150.879,152.876,155.353,159.347,163.342,167.336,171.33100000000002,173.328,175.988,179.983,183.978,186.638,244.439,248.433,252.428,254.425,257.085,261.08,265.075,269.069,273.064,277.058,279.718,323.347,329.986" y="352.84" svg_rhmargin="334.18" style="fill:#000000;font-family:MSSLTZ+URWPalladioL-Roma;font-size:8.97px;font-style:NORMAL;font-weight:normal;">Turtle et al. 2016 [39] 40 (20–73) NS</text>
  <path d=" M 353.3874206542969 444.1857604980469 L 380.1842346191406 444.1857604980469 L 380.1842346191406 453.9947814941406 L 353.3874206542969 453.9947814941406 Z " style="fill:none;stroke:#f8cbad;stroke-width:1.0;"/>
  <path d=" M 380.1842346191406 444.1857604980469 L 406.9810485839844 444.1857604980469 L 406.9810485839844 453.9947814941406 L 380.1842346191406 453.9947814941406 Z " style="fill:none;stroke:#f8cbad;stroke-width:1.0;"/>
  <path d=" M 406.9810791015625 444.1857604980469 L 433.77789306640625 444.1857604980469 L 433.77789306640625 453.9947814941406 L 406.9810791015625 453.9947814941406 Z " style="fill:none;stroke:#f8cbad;stroke-width:1.0;"/>
  <path d=" M 433.7787780761719 444.1857604980469 L 460.5755920410156 444.1857604980469 L 460.5755920410156 453.9947814941406 L 433.7787780761719 453.9947814941406 Z " style="fill:none;stroke:#bdd7ee;stroke-width:1.0;"/>
  <path d=" M 460.57562255859375 444.1857604980469 L 487.3724365234375 444.1857604980469 L 487.3724365234375 453.9947814941406 L 460.57562255859375 453.9947814941406 Z " style="fill:none;stroke:#c6e0b4;stroke-width:1.0;"/>
  <text x="113.226,120.48,124.307,126.632,128.629,132.456,135.06,137.058,141.052,143.377,145.37400000000002,147.851,151.846,155.84,159.835,163.83,165.826,168.487,172.481,176.476,179.136,243.44,247.435,251.429,253.426,257.421,259.418,262.079,266.073,270.068,274.062,278.057,280.71700000000004,312.354,316.348,320.343,327.901,332.742,336.736,340.731" y="362.649" svg_rhmargin="345.173" style="fill:#000000;font-family:MSSLTZ+URWPalladioL-Roma;font-size:8.97px;font-style:NORMAL;font-weight:normal;">Wei et al. 2018 [40] 35.8 (8–57) 10M/13F</text>
  <path d=" M 353.3874206542969 434.3767395019531 L 380.1842346191406 434.3767395019531 L 380.1842346191406 444.1857604980469 L 353.3874206542969 444.1857604980469 Z " style="fill:none;stroke:#f8cbad;stroke-width:1.0;"/>
  <path d=" M 380.1842346191406 434.3767395019531 L 406.9810485839844 434.3767395019531 L 406.9810485839844 444.1857604980469 L 380.1842346191406 444.1857604980469 Z " style="fill:none;stroke:#f8cbad;stroke-width:1.0;"/>
  <path d=" M 406.9810791015625 434.3767395019531 L 433.77789306640625 434.3767395019531 L 433.77789306640625 444.1857604980469 L 406.9810791015625 444.1857604980469 Z " style="fill:none;stroke:#f8cbad;stroke-width:1.0;"/>
  <path d=" M 433.7787780761719 434.3767395019531 L 460.5755920410156 434.3767395019531 L 460.5755920410156 444.1857604980469 L 433.7787780761719 444.1857604980469 Z " style="fill:none;stroke:#f8cbad;stroke-width:1.0;"/>
  <path d=" M 460.57562255859375 434.3767395019531 L 487.3724365234375 434.3767395019531 L 487.3724365234375 444.1857604980469 L 460.57562255859375 444.1857604980469 Z " style="fill:none;stroke:#c6e0b4;stroke-width:1.0;"/>
  <text x="113.226,120.48,124.475,129.125,133.567,135.564,139.391,141.995,143.992,147.987,150.312,152.30900000000003,154.786,158.78,162.775,166.769,170.764,172.761,175.421,179.416,183.41,186.07,250.431,254.42600000000002,256.422,259.083,263.077,267.072,271.066,273.726,316.348,320.343,327.901,332.742,336.736" y="372.458" svg_rhmargin="341.178" style="fill:#000000;font-family:MSSLTZ+URWPalladioL-Roma;font-size:8.97px;font-style:NORMAL;font-weight:normal;">Wang et al. 2017 [41] 7 (5–9) 5M/1F</text>
  <path d=" M 353.3874206542969 424.5685729980469 L 380.1842346191406 424.5685729980469 L 380.1842346191406 434.3775939941406 L 353.3874206542969 434.3775939941406 Z " style="fill:none;stroke:#f8cbad;stroke-width:1.0;"/>
  <path d=" M 380.1842346191406 424.5685729980469 L 406.9810485839844 424.5685729980469 L 406.9810485839844 434.3775939941406 L 380.1842346191406 434.3775939941406 Z " style="fill:none;stroke:#f8cbad;stroke-width:1.0;"/>
  <path d=" M 406.9810791015625 424.5685729980469 L 433.77789306640625 424.5685729980469 L 433.77789306640625 434.3775939941406 L 406.9810791015625 434.3775939941406 Z " style="fill:none;stroke:#f8cbad;stroke-width:1.0;"/>
  <path d=" M 433.7787780761719 424.5685729980469 L 460.5755920410156 424.5685729980469 L 460.5755920410156 434.3775939941406 L 433.7787780761719 434.3775939941406 Z " style="fill:none;stroke:#bdd7ee;stroke-width:1.0;"/>
  <path d=" M 460.57562255859375 424.5685729980469 L 487.3724365234375 424.5685729980469 L 487.3724365234375 434.3775939941406 L 460.57562255859375 434.3775939941406 Z " style="fill:none;stroke:#f8cbad;stroke-width:1.0;"/>
  <text x="113.226,117.668,120.824,125.26599999999999,127.263,131.09,133.69400000000002,135.692,139.686,142.011,144.008,146.485,150.479,154.474,158.468,162.463,164.46,167.121,171.115,175.11,177.77,246.436,250.431,254.42600000000002,256.422,259.083,263.077,267.072,271.066,275.061,277.721,314.351,318.346,322.34,329.898,334.739,338.734" y="382.266" svg_rhmargin="343.176" style="fill:#000000;font-family:MSSLTZ+URWPalladioL-Roma;font-size:8.97px;font-style:NORMAL;font-weight:normal;">Fry et al. 2018 [42] 19 (7–30) 13M/8F</text>
  <path d=" M 353.3874206542969 414.75958251953125 L 380.1842346191406 414.75958251953125 L 380.1842346191406 424.568603515625 L 353.3874206542969 424.568603515625 Z " style="fill:none;stroke:#f8cbad;stroke-width:1.0;"/>
  <path d=" M 380.1842346191406 414.75958251953125 L 406.9810485839844 414.75958251953125 L 406.9810485839844 424.568603515625 L 380.1842346191406 424.568603515625 Z " style="fill:none;stroke:#c6e0b4;stroke-width:1.0;"/>
  <path d=" M 406.9810791015625 414.75958251953125 L 433.77789306640625 414.75958251953125 L 433.77789306640625 424.568603515625 L 406.9810791015625 424.568603515625 Z " style="fill:none;stroke:#f8cbad;stroke-width:1.0;"/>
  <path d=" M 433.7787780761719 414.75958251953125 L 460.5755920410156 414.75958251953125 L 460.5755920410156 424.568603515625 L 433.7787780761719 424.568603515625 Z " style="fill:none;stroke:#bdd7ee;stroke-width:1.0;"/>
  <path d=" M 460.57562255859375 414.75958251953125 L 487.3724365234375 414.75958251953125 L 487.3724365234375 424.568603515625 L 460.57562255859375 424.568603515625 Z " style="fill:none;stroke:#c6e0b4;stroke-width:1.0;"/>
  <text x="113.226,119.026,123.388,126.936,131.585,135.412,140.062,144.943,148.77,151.925,154.586,158.413,161.56900000000002,163.565,167.392,169.996,171.994,175.988,178.313,180.31,182.787,186.782,190.776,194.771,198.766,200.763,203.423,207.417,211.412,214.072,242.441,246.436,250.431,252.428,256.422,259.083,263.077,267.072,271.066,275.061,279.055,281.71500000000003,316.348,320.343,327.901,332.742,336.736" y="392.075" svg_rhmargin="341.178" style="fill:#000000;font-family:MSSLTZ+URWPalladioL-Roma;font-size:8.97px;font-style:NORMAL;font-weight:normal;">Kochenderfer et al. 2015 [43] 51.7(30–68) 8M/7F</text>
  <path d=" M 353.3874206542969 404.9505615234375 L 380.1842346191406 404.9505615234375 L 380.1842346191406 414.75958251953125 L 353.3874206542969 414.75958251953125 Z " style="fill:none;stroke:#c6e0b4;stroke-width:1.0;"/>
  <path d=" M 380.1842346191406 404.9505615234375 L 406.9810485839844 404.9505615234375 L 406.9810485839844 414.75958251953125 L 380.1842346191406 414.75958251953125 Z " style="fill:none;stroke:#f8cbad;stroke-width:1.0;"/>
  <path d=" M 406.9810791015625 404.9505615234375 L 433.77789306640625 404.9505615234375 L 433.77789306640625 414.75958251953125 L 406.9810791015625 414.75958251953125 Z " style="fill:none;stroke:#c6e0b4;stroke-width:1.0;"/>
  <path d=" M 433.7787780761719 404.9505615234375 L 460.5755920410156 404.9505615234375 L 460.5755920410156 414.75958251953125 L 433.7787780761719 414.75958251953125 Z " style="fill:none;stroke:#f8cbad;stroke-width:1.0;"/>
  <path d=" M 460.57562255859375 404.9505615234375 L 487.3724365234375 404.9505615234375 L 487.3724365234375 414.75958251953125 L 460.57562255859375 414.75958251953125 Z " style="fill:none;stroke:#f8cbad;stroke-width:1.0;"/>
  <text x="113.226,120.784,124.779,129.596,134.477,138.304,140.301,144.128,146.732,148.73,152.724,155.049,157.04600000000002,159.523,163.518,167.512,171.507,175.502,177.498,180.159,184.153,188.148,190.808,246.436,250.431,254.42600000000002,256.422,259.083,263.077,267.072,271.066,275.061,277.721,312.354,316.348,320.343,327.901,332.742,336.736,340.731" y="401.884" svg_rhmargin="345.173" style="fill:#000000;font-family:MSSLTZ+URWPalladioL-Roma;font-size:8.97px;font-style:NORMAL;font-weight:normal;">Maude et al. 2014 [44] 14 (5–60) 18M/12F</text>
  <path d=" M 353.3874206542969 395.14154052734375 L 380.1842346191406 395.14154052734375 L 380.1842346191406 404.9505615234375 L 353.3874206542969 404.9505615234375 Z " style="fill:none;stroke:#f8cbad;stroke-width:1.0;"/>
  <path d=" M 380.1842346191406 395.14154052734375 L 406.9810485839844 395.14154052734375 L 406.9810485839844 404.9505615234375 L 380.1842346191406 404.9505615234375 Z " style="fill:none;stroke:#c6e0b4;stroke-width:1.0;"/>
  <path d=" M 406.9810791015625 395.14154052734375 L 433.77789306640625 395.14154052734375 L 433.77789306640625 404.9505615234375 L 406.9810791015625 404.9505615234375 Z " style="fill:none;stroke:#c6e0b4;stroke-width:1.0;"/>
  <path d=" M 433.7787780761719 395.14154052734375 L 460.5755920410156 395.14154052734375 L 460.5755920410156 404.9505615234375 L 433.7787780761719 404.9505615234375 Z " style="fill:none;stroke:#f8cbad;stroke-width:1.0;"/>
  <path d=" M 460.57562255859375 395.14154052734375 L 487.3724365234375 395.14154052734375 L 487.3724365234375 404.9505615234375 L 460.57562255859375 404.9505615234375 Z " style="fill:none;stroke:#c6e0b4;stroke-width:1.0;"/>
  <text x="113.226,118.052,122.414,125.569,128.174,132.001,135.157,137.154,140.98,143.584,145.582,149.577,151.901,153.89800000000002,156.375,160.37,164.364,168.359,172.354,174.351,177.011,181.006,185.0,187.66,244.439,248.433,252.428,254.425,257.085,261.08,265.075,269.069,273.064,277.058,279.718,314.351,318.346,322.34,329.898,334.739,338.734" y="411.693" svg_rhmargin="343.176" style="fill:#000000;font-family:MSSLTZ+URWPalladioL-Roma;font-size:8.97px;font-style:NORMAL;font-weight:normal;">Porter et al. 2015 [45] 66 (51–78) 12M/2F</text>
  <path d=" M 353.3874206542969 385.3334045410156 L 380.1842346191406 385.3334045410156 L 380.1842346191406 395.1424255371094 L 353.3874206542969 395.1424255371094 Z " style="fill:none;stroke:#f8cbad;stroke-width:1.0;"/>
  <path d=" M 380.1842346191406 385.3334045410156 L 406.9810485839844 385.3334045410156 L 406.9810485839844 395.1424255371094 L 380.1842346191406 395.1424255371094 Z " style="fill:none;stroke:#c6e0b4;stroke-width:1.0;"/>
  <path d=" M 406.9810791015625 385.3334045410156 L 433.77789306640625 385.3334045410156 L 433.77789306640625 395.1424255371094 L 406.9810791015625 395.1424255371094 Z " style="fill:none;stroke:#f8cbad;stroke-width:1.0;"/>
  <path d=" M 433.7787780761719 385.3334045410156 L 460.5755920410156 385.3334045410156 L 460.5755920410156 395.1424255371094 L 433.7787780761719 395.1424255371094 Z " style="fill:none;stroke:#f8cbad;stroke-width:1.0;"/>
  <path d=" M 460.57562255859375 385.3334045410156 L 487.3724365234375 385.3334045410156 L 487.3724365234375 395.1424255371094 L 460.57562255859375 395.1424255371094 Z " style="fill:none;stroke:#f8cbad;stroke-width:1.0;"/>
  <text x="113.226,118.563,122.558,129.612,133.974,137.361,139.359,143.185,145.78900000000002,147.787,151.782,154.106,156.103,158.58,162.575,166.569,170.564,174.559,176.556,179.216,183.211,187.205,189.865,241.443,245.437,249.432,251.429,255.424,257.421,260.081,264.076,268.07,272.065,276.06,280.054,282.714,316.348,320.343,327.901,332.742,336.736" y="421.501" svg_rhmargin="341.178" style="fill:#000000;font-family:MSSLTZ+URWPalladioL-Roma;font-size:8.97px;font-style:NORMAL;font-weight:normal;">Ramos et al. 2017 [46] 34.7 (20–65) 6M/3F</text>
  <path d=" M 353.3874206542969 375.5243835449219 L 380.1842346191406 375.5243835449219 L 380.1842346191406 385.3334045410156 L 353.3874206542969 385.3334045410156 Z " style="fill:none;stroke:#f8cbad;stroke-width:1.0;"/>
  <path d=" M 380.1842346191406 375.5243835449219 L 406.9810485839844 375.5243835449219 L 406.9810485839844 385.3334045410156 L 380.1842346191406 385.3334045410156 Z " style="fill:none;stroke:#c6e0b4;stroke-width:1.0;"/>
  <path d=" M 406.9810791015625 375.5243835449219 L 433.77789306640625 375.5243835449219 L 433.77789306640625 385.3334045410156 L 406.9810791015625 385.3334045410156 Z " style="fill:none;stroke:#f8cbad;stroke-width:1.0;"/>
  <path d=" M 433.7787780761719 375.5243835449219 L 460.5755920410156 375.5243835449219 L 460.5755920410156 385.3334045410156 L 433.7787780761719 385.3334045410156 Z " style="fill:none;stroke:#f8cbad;stroke-width:1.0;"/>
  <path d=" M 460.57562255859375 375.5243835449219 L 487.3724365234375 375.5243835449219 L 487.3724365234375 385.3334045410156 L 460.57562255859375 385.3334045410156 Z " style="fill:none;stroke:#f8cbad;stroke-width:1.0;"/>
  <text x="113.226,118.891,123.54,127.367,132.017,134.014,137.841,140.44500000000002,142.442,146.437,148.762,150.75900000000001,153.236,157.23,161.225,165.219,169.214,171.211,173.871,177.866,181.86,184.52,243.44,247.435,251.429,253.426,257.421,259.418,262.079,266.073,270.068,274.062,278.057,280.71700000000004,316.348,320.343,327.901,332.742,336.736" y="431.31" svg_rhmargin="341.178" style="fill:#000000;font-family:MSSLTZ+URWPalladioL-Roma;font-size:8.97px;font-style:NORMAL;font-weight:normal;">Chen et al. 2017 [47] 26.5 (8–44) 1M/5F</text>
  <path d=" M 353.3874206542969 365.7153625488281 L 380.1842346191406 365.7153625488281 L 380.1842346191406 375.5243835449219 L 353.3874206542969 375.5243835449219 Z " style="fill:none;stroke:#f8cbad;stroke-width:1.0;"/>
  <path d=" M 380.1842346191406 365.7153625488281 L 406.9810485839844 365.7153625488281 L 406.9810485839844 375.5243835449219 L 380.1842346191406 375.5243835449219 Z " style="fill:none;stroke:#c6e0b4;stroke-width:1.0;"/>
  <path d=" M 406.9810791015625 365.7153625488281 L 433.77789306640625 365.7153625488281 L 433.77789306640625 375.5243835449219 L 406.9810791015625 375.5243835449219 Z " style="fill:none;stroke:#f8cbad;stroke-width:1.0;"/>
  <path d=" M 433.7787780761719 365.7153625488281 L 460.5755920410156 365.7153625488281 L 460.5755920410156 375.5243835449219 L 433.7787780761719 375.5243835449219 Z " style="fill:none;stroke:#bdd7ee;stroke-width:1.0;"/>
  <path d=" M 460.57562255859375 365.7153625488281 L 487.3724365234375 365.7153625488281 L 487.3724365234375 375.5243835449219 L 460.57562255859375 375.5243835449219 Z " style="fill:none;stroke:#f8cbad;stroke-width:1.0;"/>
  <text x="113.226,119.026,123.388,126.936,131.585,135.412,140.062,144.943,148.77,151.925,154.586,158.413,161.56900000000002,163.565,167.392,169.996,171.994,175.988,178.313,180.31,182.787,186.782,190.776,194.771,198.766,200.763,203.423,207.417,211.412,214.072,241.443,245.437,249.432,251.429,255.424,257.421,260.081,264.076,268.07,272.065,276.06,280.054,282.714,316.348,320.343,327.901,332.742,336.736" y="441.12" svg_rhmargin="341.178" style="fill:#000000;font-family:MSSLTZ+URWPalladioL-Roma;font-size:8.97px;font-style:NORMAL;font-weight:normal;">Kochenderfer et al. 2016 [48] 52.4 (44–66) 8M/2F</text>
  <path d=" M 353.3874206542969 355.9063415527344 L 380.1842346191406 355.9063415527344 L 380.1842346191406 365.7153625488281 L 353.3874206542969 365.7153625488281 Z " style="fill:none;stroke:#f8cbad;stroke-width:1.0;"/>
  <path d=" M 380.1842346191406 355.9063415527344 L 406.9810485839844 355.9063415527344 L 406.9810485839844 365.7153625488281 L 380.1842346191406 365.7153625488281 Z " style="fill:none;stroke:#c6e0b4;stroke-width:1.0;"/>
  <path d=" M 406.9810791015625 355.9063415527344 L 433.77789306640625 355.9063415527344 L 433.77789306640625 365.7153625488281 L 406.9810791015625 365.7153625488281 Z " style="fill:none;stroke:#c6e0b4;stroke-width:1.0;"/>
  <path d=" M 433.7787780761719 355.9063415527344 L 460.5755920410156 355.9063415527344 L 460.5755920410156 365.7153625488281 L 433.7787780761719 365.7153625488281 Z " style="fill:none;stroke:#f8cbad;stroke-width:1.0;"/>
  <path d=" M 460.57562255859375 355.9063415527344 L 487.3724365234375 355.9063415527344 L 487.3724365234375 365.7153625488281 L 460.57562255859375 365.7153625488281 Z " style="fill:none;stroke:#f8cbad;stroke-width:1.0;"/>
  <text x="113.226,120.48,124.475,129.125,133.567,135.564,139.391,141.995,143.992,147.987,150.312,152.30900000000003,154.786,158.78,162.775,166.769,170.764,172.761,175.421,179.416,183.41,186.07,241.443,245.437,249.432,251.429,255.424,257.421,260.081,264.076,268.07,272.065,276.06,280.054,282.714,316.348,320.343,327.901,332.742,336.736" y="450.928" svg_rhmargin="341.178" style="fill:#000000;font-family:MSSLTZ+URWPalladioL-Roma;font-size:8.97px;font-style:NORMAL;font-weight:normal;">Wang et al. 2014 [49] 62.4 (37–85) 6M/1F</text>
  <path d=" M 353.3874206542969 346.0982360839844 L 380.1842346191406 346.0982360839844 L 380.1842346191406 355.9072570800781 L 353.3874206542969 355.9072570800781 Z " style="fill:none;stroke:#f8cbad;stroke-width:1.0;"/>
  <path d=" M 380.1842346191406 346.0982360839844 L 406.9810485839844 346.0982360839844 L 406.9810485839844 355.9072570800781 L 380.1842346191406 355.9072570800781 Z " style="fill:none;stroke:#c6e0b4;stroke-width:1.0;"/>
  <path d=" M 406.9810791015625 346.0982360839844 L 433.77789306640625 346.0982360839844 L 433.77789306640625 355.9072570800781 L 406.9810791015625 355.9072570800781 Z " style="fill:none;stroke:#f8cbad;stroke-width:1.0;"/>
  <path d=" M 433.7787780761719 346.0982360839844 L 460.5755920410156 346.0982360839844 L 460.5755920410156 355.9072570800781 L 433.7787780761719 355.9072570800781 Z " style="fill:none;stroke:#f8cbad;stroke-width:1.0;"/>
  <path d=" M 460.57562255859375 346.0982360839844 L 487.3724365234375 346.0982360839844 L 487.3724365234375 355.9072570800781 L 460.57562255859375 355.9072570800781 Z " style="fill:none;stroke:#f8cbad;stroke-width:1.0;"/>
  <text x="113.226,119.41,123.404,127.918,130.243,132.568,136.56300000000002,138.56,142.386,144.99,146.988,150.983,153.308,155.305,157.781,161.776,165.77,169.765,173.76,175.757,178.417,182.412,186.406,189.066,245.437,249.432,253.426,256.087,260.081,264.076,268.07,272.065,276.06,278.72,314.351,318.346,322.34,329.898,334.739,338.734" y="460.737" svg_rhmargin="343.176" style="fill:#000000;font-family:MSSLTZ+URWPalladioL-Roma;font-size:8.97px;font-style:NORMAL;font-weight:normal;">Davila et al. 2014 [50] 50(18–59) 12M/4F</text>
  <path d=" M 353.3874206542969 336.2892150878906 L 380.1842346191406 336.2892150878906 L 380.1842346191406 346.0982360839844 L 353.3874206542969 346.0982360839844 Z " style="fill:none;stroke:#f8cbad;stroke-width:1.0;"/>
  <path d=" M 380.1842346191406 336.2892150878906 L 406.9810485839844 336.2892150878906 L 406.9810485839844 346.0982360839844 L 380.1842346191406 346.0982360839844 Z " style="fill:none;stroke:#c6e0b4;stroke-width:1.0;"/>
  <path d=" M 406.9810791015625 336.2892150878906 L 433.77789306640625 336.2892150878906 L 433.77789306640625 346.0982360839844 L 406.9810791015625 346.0982360839844 Z " style="fill:none;stroke:#f8cbad;stroke-width:1.0;"/>
  <path d=" M 433.7787780761719 336.2892150878906 L 460.5755920410156 336.2892150878906 L 460.5755920410156 346.0982360839844 L 433.7787780761719 346.0982360839844 Z " style="fill:none;stroke:#f8cbad;stroke-width:1.0;"/>
  <path d=" M 460.57562255859375 336.2892150878906 L 487.3724365234375 336.2892150878906 L 487.3724365234375 346.0982360839844 L 460.57562255859375 346.0982360839844 Z " style="fill:none;stroke:#f8cbad;stroke-width:1.0;"/>
  <text x="113.226,118.052,122.046,126.69600000000001,128.693,132.52,135.12400000000002,137.122,141.116,143.441,145.43800000000002,147.915,151.909,155.904,159.898,163.893,165.89,168.551,172.545,176.54,179.2,243.44,247.435,251.429,253.426,257.421,259.418,262.079,266.073,270.068,274.062,278.057,280.71700000000004,312.354,316.348,320.343,327.901,332.742,336.736,340.731" y="470.546" svg_rhmargin="345.173" style="fill:#000000;font-family:MSSLTZ+URWPalladioL-Roma;font-size:8.97px;font-style:NORMAL;font-weight:normal;">Pan et al. 2017 [51] 13.3 (2–68) 32M/19F</text>
  <path d=" M 353.3874206542969 326.4801940917969 L 380.1842346191406 326.4801940917969 L 380.1842346191406 336.2892150878906 L 353.3874206542969 336.2892150878906 Z " style="fill:none;stroke:#f8cbad;stroke-width:1.0;"/>
  <path d=" M 380.1842346191406 326.4801940917969 L 406.9810485839844 326.4801940917969 L 406.9810485839844 336.2892150878906 L 380.1842346191406 336.2892150878906 Z " style="fill:none;stroke:#f8cbad;stroke-width:1.0;"/>
  <path d=" M 406.9810791015625 326.4801940917969 L 433.77789306640625 326.4801940917969 L 433.77789306640625 336.2892150878906 L 406.9810791015625 336.2892150878906 Z " style="fill:none;stroke:#f8cbad;stroke-width:1.0;"/>
  <path d=" M 433.7787780761719 326.4801940917969 L 460.5755920410156 326.4801940917969 L 460.5755920410156 336.2892150878906 L 433.7787780761719 336.2892150878906 Z " style="fill:none;stroke:#bdd7ee;stroke-width:1.0;"/>
  <path d=" M 460.57562255859375 326.4801940917969 L 487.3724365234375 326.4801940917969 L 487.3724365234375 336.2892150878906 L 460.57562255859375 336.2892150878906 Z " style="fill:none;stroke:#c6e0b4;stroke-width:1.0;"/>
  <text x="113.226,117.668,120.824,124.819,127.143,130.97,133.575,136.179,140.174,142.171,145.998,148.602,150.599,154.594,156.919,158.91600000000003,161.392,165.387,169.382,173.376,177.371,179.368,182.028,186.023,190.017,192.677,244.439,248.433,252.428,254.425,257.085,261.08,265.075,269.069,273.064,277.058,279.718,322.987,326.982" y="480.355" svg_rhmargin="334.54" style="fill:#000000;font-family:MSSLTZ+URWPalladioL-Roma;font-size:8.97px;font-style:NORMAL;font-weight:normal;">Fraietta et al. 2018 [52] 62 (57–68) 3M</text>
  <path d=" M 353.3874206542969 316.6711730957031 L 380.1842346191406 316.6711730957031 L 380.1842346191406 326.4801940917969 L 353.3874206542969 326.4801940917969 Z " style="fill:none;stroke:#c6e0b4;stroke-width:1.0;"/>
  <path d=" M 380.1842346191406 316.6711730957031 L 406.9810485839844 316.6711730957031 L 406.9810485839844 326.4801940917969 L 380.1842346191406 326.4801940917969 Z " style="fill:none;stroke:#c6e0b4;stroke-width:1.0;"/>
  <path d=" M 406.9810791015625 316.6711730957031 L 433.77789306640625 316.6711730957031 L 433.77789306640625 326.4801940917969 L 406.9810791015625 326.4801940917969 Z " style="fill:none;stroke:#c6e0b4;stroke-width:1.0;"/>
  <path d=" M 433.7787780761719 316.6711730957031 L 460.5755920410156 316.6711730957031 L 460.5755920410156 326.4801940917969 L 433.7787780761719 326.4801940917969 Z " style="fill:none;stroke:#f8cbad;stroke-width:1.0;"/>
  <path d=" M 460.57562255859375 316.6711730957031 L 487.3724365234375 316.6711730957031 L 487.3724365234375 326.4801940917969 L 460.57562255859375 326.4801940917969 Z " style="fill:none;stroke:#f8cbad;stroke-width:1.0;"/>
  <text x="113.226,117.405,122.222,125.378,127.982,130.307,134.134,136.131,139.958,142.562,144.56,148.554,150.879,152.876,155.353,159.347,163.342,167.336,171.33100000000002,173.328,175.988,179.983,183.978,186.638,244.439,248.433,252.428,254.425,257.085,261.08,265.075,269.069,273.064,277.058,279.718,314.351,318.346,322.34,329.898,334.739,338.734" y="490.164" svg_rhmargin="343.176" style="fill:#000000;font-family:MSSLTZ+URWPalladioL-Roma;font-size:8.97px;font-style:NORMAL;font-weight:normal;">Turtle et al. 2016 [53] 57 (22–70) 27M/5F</text>
  <path d=" M 353.3874206542969 306.863037109375 L 380.1842346191406 306.863037109375 L 380.1842346191406 316.67205810546875 L 353.3874206542969 316.67205810546875 Z " style="fill:none;stroke:#f8cbad;stroke-width:1.0;"/>
  <path d=" M 380.1842346191406 306.863037109375 L 406.9810485839844 306.863037109375 L 406.9810485839844 316.67205810546875 L 380.1842346191406 316.67205810546875 Z " style="fill:none;stroke:#c6e0b4;stroke-width:1.0;"/>
  <path d=" M 406.9810791015625 306.863037109375 L 433.77789306640625 306.863037109375 L 433.77789306640625 316.67205810546875 L 406.9810791015625 316.67205810546875 Z " style="fill:none;stroke:#f8cbad;stroke-width:1.0;"/>
  <path d=" M 433.7787780761719 306.863037109375 L 460.5755920410156 306.863037109375 L 460.5755920410156 316.67205810546875 L 433.7787780761719 316.67205810546875 Z " style="fill:none;stroke:#c5e0b3;stroke-width:1.0;"/>
  <path d=" M 460.57562255859375 306.863037109375 L 487.3724365234375 306.863037109375 L 487.3724365234375 316.67205810546875 L 460.57562255859375 316.67205810546875 Z " style="fill:none;stroke:#c6e0b4;stroke-width:1.0;"/>
  <text x="113.226,118.891,121.982,126.8,130.795,132.792,136.618,139.222,141.22,145.215,147.539,149.536,152.013,156.008,160.002,163.997,167.99200000000002,169.989,172.649,176.644,180.638,183.298,246.436,250.431,254.42600000000002,256.422,259.083,263.077,267.072,271.066,275.061,277.721,316.348,320.343,327.901,332.742,336.736" y="499.972" svg_rhmargin="341.178" style="fill:#000000;font-family:MSSLTZ+URWPalladioL-Roma;font-size:8.97px;font-style:NORMAL;font-weight:normal;">Cruz et al. 2016 [54] 51 (9–59) 5M/3F</text>
  <path d=" M 353.3874206542969 297.05401611328125 L 380.1842346191406 297.05401611328125 L 380.1842346191406 306.863037109375 L 353.3874206542969 306.863037109375 Z " style="fill:none;stroke:#c6e0b4;stroke-width:1.0;"/>
  <path d=" M 380.1842346191406 297.05401611328125 L 406.9810485839844 297.05401611328125 L 406.9810485839844 306.863037109375 L 380.1842346191406 306.863037109375 Z " style="fill:none;stroke:#c6e0b4;stroke-width:1.0;"/>
  <path d=" M 406.9810791015625 297.05401611328125 L 433.77789306640625 297.05401611328125 L 433.77789306640625 306.863037109375 L 406.9810791015625 306.863037109375 Z " style="fill:none;stroke:#f8cbad;stroke-width:1.0;"/>
  <path d=" M 433.7787780761719 297.05401611328125 L 460.5755920410156 297.05401611328125 L 460.5755920410156 306.863037109375 L 433.7787780761719 306.863037109375 Z " style="fill:none;stroke:#f8cbad;stroke-width:1.0;"/>
  <path d=" M 460.57562255859375 297.05401611328125 L 487.3724365234375 297.05401611328125 L 487.3724365234375 306.863037109375 L 460.57562255859375 306.863037109375 Z " style="fill:none;stroke:#f8cbad;stroke-width:1.0;"/>
  <text x="113.226,119.322,123.317,126.328,131.21,135.859,139.686,142.842,144.839,148.666,151.27,153.268,157.262,159.587,161.584,164.061,168.055,172.05,176.044,180.03900000000002,182.036,184.697,188.691,192.686,195.346,243.44,247.435,251.429,253.426,257.421,259.418,262.079,266.073,270.068,274.062,278.057,280.71700000000004,312.354,316.348,320.343,327.901,332.742,336.736,340.731" y="509.781" svg_rhmargin="345.173" style="fill:#000000;font-family:MSSLTZ+URWPalladioL-Roma;font-size:8.97px;font-style:NORMAL;font-weight:normal;">Gardner et al. 2018 [55] 12.2 (1–25) 23M/22F</text>
  <path d=" M 353.3874206542969 287.2449951171875 L 380.1842346191406 287.2449951171875 L 380.1842346191406 297.05401611328125 L 353.3874206542969 297.05401611328125 Z " style="fill:none;stroke:#f8cbad;stroke-width:1.0;"/>
  <path d=" M 380.1842346191406 287.2449951171875 L 406.9810485839844 287.2449951171875 L 406.9810485839844 297.05401611328125 L 380.1842346191406 297.05401611328125 Z " style="fill:none;stroke:#f8cbad;stroke-width:1.0;"/>
  <path d=" M 406.9810791015625 287.2449951171875 L 433.77789306640625 287.2449951171875 L 433.77789306640625 297.05401611328125 L 406.9810791015625 297.05401611328125 Z " style="fill:none;stroke:#f8cbad;stroke-width:1.0;"/>
  <path d=" M 433.7787780761719 287.2449951171875 L 460.5755920410156 287.2449951171875 L 460.5755920410156 297.05401611328125 L 433.7787780761719 297.05401611328125 Z " style="fill:none;stroke:#c5e0b3;stroke-width:1.0;"/>
  <path d=" M 460.57562255859375 287.2449951171875 L 487.3724365234375 287.2449951171875 L 487.3724365234375 297.05401611328125 L 460.57562255859375 297.05401611328125 Z " style="fill:none;stroke:#c6e0b4;stroke-width:1.0;"/>
  <text x="113.226,119.873,123.868,128.31,130.307,134.134,136.738,138.735,142.73,145.055,147.05200000000002,149.529,153.523,157.518,161.512,165.507,167.504,170.164,174.159,178.154,180.814,244.439,248.433,252.428,254.425,257.085,261.08,265.075,269.069,273.064,277.058,279.718,312.354,316.348,320.343,327.901,332.742,336.736,340.731" y="519.5899999999999" svg_rhmargin="345.173" style="fill:#000000;font-family:MSSLTZ+URWPalladioL-Roma;font-size:8.97px;font-style:NORMAL;font-weight:normal;">Hay et al. 2018 [56] 54 (20–73) 93M/40F</text>
  <path d=" M 353.3874206542969 277.43597412109375 L 380.1842346191406 277.43597412109375 L 380.1842346191406 287.2449951171875 L 353.3874206542969 287.2449951171875 Z " style="fill:none;stroke:#f8cbad;stroke-width:1.0;"/>
  <path d=" M 380.1842346191406 277.43597412109375 L 406.9810485839844 277.43597412109375 L 406.9810485839844 287.2449951171875 L 380.1842346191406 287.2449951171875 Z " style="fill:none;stroke:#c6e0b4;stroke-width:1.0;"/>
  <path d=" M 406.9810791015625 277.43597412109375 L 433.77789306640625 277.43597412109375 L 433.77789306640625 287.2449951171875 L 406.9810791015625 287.2449951171875 Z " style="fill:none;stroke:#f8cbad;stroke-width:1.0;"/>
  <path d=" M 433.7787780761719 277.43597412109375 L 460.5755920410156 277.43597412109375 L 460.5755920410156 287.2449951171875 L 433.7787780761719 287.2449951171875 Z " style="fill:none;stroke:#f8cbad;stroke-width:1.0;"/>
  <path d=" M 460.57562255859375 277.43597412109375 L 487.3724365234375 277.43597412109375 L 487.3724365234375 287.2449951171875 L 460.57562255859375 287.2449951171875 Z " style="fill:none;stroke:#f8cbad;stroke-width:1.0;"/>
  <text x="113.226,118.052,122.046,125.202,129.644,131.641,135.468,138.072,140.07,144.064,146.389,148.38600000000002,150.863,154.857,158.852,162.846,166.841,168.838,171.499,175.493,179.488,182.148,244.439,248.433,252.428,254.425,257.085,261.08,265.074,269.069,273.064,277.058,279.718,323.347,329.986" y="529.399" svg_rhmargin="334.18" style="fill:#000000;font-family:MSSLTZ+URWPalladioL-Roma;font-size:8.97px;font-style:NORMAL;font-weight:normal;">Park et al. 2018 [57] 44 (23–74) NS</text>
  <path d=" M 353.3874206542969 267.62786865234375 L 380.1842346191406 267.62786865234375 L 380.1842346191406 277.4368896484375 L 353.3874206542969 277.4368896484375 Z " style="fill:none;stroke:#f8cbad;stroke-width:1.0;"/>
  <path d=" M 380.1842346191406 267.62786865234375 L 406.9810485839844 267.62786865234375 L 406.9810485839844 277.4368896484375 L 380.1842346191406 277.4368896484375 Z " style="fill:none;stroke:#f8cbad;stroke-width:1.0;"/>
  <path d=" M 406.9810791015625 267.62786865234375 L 433.77789306640625 267.62786865234375 L 433.77789306640625 277.4368896484375 L 406.9810791015625 277.4368896484375 Z " style="fill:none;stroke:#f8cbad;stroke-width:1.0;"/>
  <path d=" M 433.7787780761719 267.62786865234375 L 460.5755920410156 267.62786865234375 L 460.5755920410156 277.4368896484375 L 433.7787780761719 277.4368896484375 Z " style="fill:none;stroke:#f8cbad;stroke-width:1.0;"/>
  <path d=" M 460.57562255859375 267.62786865234375 L 487.3724365234375 267.62786865234375 L 487.3724365234375 277.4368896484375 L 460.57562255859375 277.4368896484375 Z " style="fill:none;stroke:#f8cbad;stroke-width:1.0;"/>
  <text x="113.226,119.506,123.5,126.888,129.213,136.267,138.264,142.091,144.69500000000002,146.693,150.687,153.012,155.00900000000001,157.486,161.48,165.475,169.469,173.464,175.461,178.122,182.116,186.111,188.771,225.393,229.387,233.382,235.379,239.374,241.475,245.47,247.562,250.223,254.217,258.212,260.313,264.308,266.401,270.395,275.045,279.92600000000004,281.923,285.918,289.913,292.006,296.104,298.764,324.545,328.54" y="539.207" svg_rhmargin="332.982" style="fill:#000000;font-family:MSSLTZ+URWPalladioL-Roma;font-size:8.97px;font-style:NORMAL;font-weight:normal;">Qasim et al. 2017 [58] 13.5 † (11 † and 16 †) 2F</text>
  <path d=" M 353.3874206542969 257.81884765625 L 380.1842346191406 257.81884765625 L 380.1842346191406 267.62786865234375 L 353.3874206542969 267.62786865234375 Z " style="fill:none;stroke:#c6e0b4;stroke-width:1.0;"/>
  <path d=" M 380.1842346191406 257.81884765625 L 406.9810485839844 257.81884765625 L 406.9810485839844 267.62786865234375 L 380.1842346191406 267.62786865234375 Z " style="fill:none;stroke:#f8cbad;stroke-width:1.0;"/>
  <path d=" M 406.9810791015625 257.81884765625 L 433.77789306640625 257.81884765625 L 433.77789306640625 267.62786865234375 L 406.9810791015625 267.62786865234375 Z " style="fill:none;stroke:#f8cbad;stroke-width:1.0;"/>
  <path d=" M 433.7787780761719 257.81884765625 L 460.5755920410156 257.81884765625 L 460.5755920410156 267.62786865234375 L 433.7787780761719 267.62786865234375 Z " style="fill:none;stroke:#bdd7ee;stroke-width:1.0;"/>
  <path d=" M 460.57562255859375 257.81884765625 L 487.3724365234375 257.81884765625 L 487.3724365234375 267.62786865234375 L 460.57562255859375 267.62786865234375 Z " style="fill:none;stroke:#f8cbad;stroke-width:1.0;"/>
  <text x="113.226,118.563,120.888,123.492,127.039,131.689,134.014,137.841,139.838,143.665,146.269,148.266,152.261,154.586,156.58300000000003,159.06,163.054,167.049,171.043,175.038,177.035,179.695,183.69,187.684,190.344,241.443,245.437,249.432,251.429,255.424,257.421,260.081,264.076,268.07,272.065,276.06,280.054,282.714,316.348,320.343,327.901,332.742,336.736" y="549.016" svg_rhmargin="341.178" style="fill:#000000;font-family:MSSLTZ+URWPalladioL-Roma;font-size:8.97px;font-style:NORMAL;font-weight:normal;">Ritchie et al. 2013 [59] 70.6 (64–78) 1M/3F</text>
  <path d=" M 353.3874206542969 248.0098114013672 L 380.1842346191406 248.0098114013672 L 380.1842346191406 257.8188171386719 L 353.3874206542969 257.8188171386719 Z " style="fill:none;stroke:#c6e0b4;stroke-width:1.0;"/>
  <path d=" M 380.1842346191406 248.0098114013672 L 406.9810485839844 248.0098114013672 L 406.9810485839844 257.8188171386719 L 380.1842346191406 257.8188171386719 Z " style="fill:none;stroke:#c6e0b4;stroke-width:1.0;"/>
  <path d=" M 406.9810791015625 248.0098114013672 L 433.77789306640625 248.0098114013672 L 433.77789306640625 257.8188171386719 L 406.9810791015625 257.8188171386719 Z " style="fill:none;stroke:#c6e0b4;stroke-width:1.0;"/>
  <path d=" M 433.7787780761719 248.0098114013672 L 460.5755920410156 248.0098114013672 L 460.5755920410156 257.8188171386719 L 433.7787780761719 257.8188171386719 Z " style="fill:none;stroke:#bdd7ee;stroke-width:1.0;"/>
  <path d=" M 460.57562255859375 248.0098114013672 L 487.3724365234375 248.0098114013672 L 487.3724365234375 257.8188171386719 L 460.57562255859375 257.8188171386719 Z " style="fill:none;stroke:#c6e0b4;stroke-width:1.0;"/>
  <text x="113.226,118.108,122.47,126.017,130.459,134.286,136.283,140.11,142.71400000000003,144.711,148.706,151.031,153.02800000000002,155.505,159.499,163.494,167.488,171.483,173.48,176.14,180.135,184.129,186.789,241.443,245.437,249.432,251.429,255.424,257.421,260.081,264.076,268.07,272.065,276.06,280.054,282.714,316.348,320.343,327.901,332.742,336.736" y="558.825" svg_rhmargin="341.178" style="fill:#000000;font-family:MSSLTZ+URWPalladioL-Roma;font-size:8.97px;font-style:NORMAL;font-weight:normal;">Locke et al. 2017 [60] 52.3 (29–69) 5M/2F</text>
  <path d=" M 353.3874206542969 238.20079040527344 L 380.1842346191406 238.20079040527344 L 380.1842346191406 248.0098114013672 L 353.3874206542969 248.0098114013672 Z " style="fill:none;stroke:#c6e0b4;stroke-width:1.0;"/>
  <path d=" M 380.1842346191406 238.20079040527344 L 406.9810485839844 238.20079040527344 L 406.9810485839844 248.0098114013672 L 380.1842346191406 248.0098114013672 Z " style="fill:none;stroke:#c6e0b4;stroke-width:1.0;"/>
  <path d=" M 406.9810791015625 238.20079040527344 L 433.77789306640625 238.20079040527344 L 433.77789306640625 248.0098114013672 L 406.9810791015625 248.0098114013672 Z " style="fill:none;stroke:#f8cbad;stroke-width:1.0;"/>
  <path d=" M 433.7787780761719 238.20079040527344 L 460.5755920410156 238.20079040527344 L 460.5755920410156 248.0098114013672 L 433.7787780761719 248.0098114013672 Z " style="fill:none;stroke:#f8cbad;stroke-width:1.0;"/>
  <path d=" M 460.57562255859375 238.20079040527344 L 487.3724365234375 238.20079040527344 L 487.3724365234375 248.0098114013672 L 460.57562255859375 248.0098114013672 Z " style="fill:none;stroke:#f8cbad;stroke-width:1.0;"/>
  <text x="113.226,118.108,121.934,125.761,127.758,131.585,134.18900000000002,136.187,140.181,142.506,144.50300000000001,146.98,150.975,154.969,158.964,162.959,164.956,167.616,171.61,175.605,178.265,243.44,247.435,251.429,253.426,257.421,259.418,262.079,266.073,270.068,274.062,278.057,280.71700000000004,314.351,318.346,322.34,329.898,334.739,338.734" y="568.634" svg_rhmargin="343.176" style="fill:#000000;font-family:MSSLTZ+URWPalladioL-Roma;font-size:8.97px;font-style:NORMAL;font-weight:normal;">Lee et al. 2015 [61] 14.7 (5–27) 14M/7F</text>
  <path d=" M 353.3874206542969 228.39266967773438 L 380.1842346191406 228.39266967773438 L 380.1842346191406 238.20169067382812 L 353.3874206542969 238.20169067382812 Z " style="fill:none;stroke:#f8cbad;stroke-width:1.0;"/>
  <path d=" M 380.1842346191406 228.39266967773438 L 406.9810485839844 228.39266967773438 L 406.9810485839844 238.20169067382812 L 380.1842346191406 238.20169067382812 Z " style="fill:none;stroke:#c6e0b4;stroke-width:1.0;"/>
  <path d=" M 406.9810791015625 228.39266967773438 L 433.77789306640625 228.39266967773438 L 433.77789306640625 238.20169067382812 L 406.9810791015625 238.20169067382812 Z " style="fill:none;stroke:#c6e0b4;stroke-width:1.0;"/>
  <path d=" M 433.7787780761719 228.39266967773438 L 460.5755920410156 228.39266967773438 L 460.5755920410156 238.20169067382812 L 433.7787780761719 238.20169067382812 Z " style="fill:none;stroke:#f8cbad;stroke-width:1.0;"/>
  <path d=" M 460.57562255859375 228.39266967773438 L 487.3724365234375 228.39266967773438 L 487.3724365234375 238.20169067382812 L 460.57562255859375 238.20169067382812 Z " style="fill:none;stroke:#f8cbad;stroke-width:1.0;"/>
  <text x="113.226,119.026,123.021,125.346,129.708,133.095,135.092,138.919,141.52300000000002,143.521,147.515,149.84,151.83700000000002,154.314,158.309,162.303,166.298,170.293,172.29,174.95,178.944,182.939,185.599,241.443,245.437,249.432,251.429,255.424,257.421,260.081,264.076,268.07,272.065,276.06,280.054,282.714,322.987,326.982" y="578.442" svg_rhmargin="334.54" style="fill:#000000;font-family:MSSLTZ+URWPalladioL-Roma;font-size:8.97px;font-style:NORMAL;font-weight:normal;">Kalos et al. 2018 [62] 68.7 (64–77) 3M</text>
  <path d=" M 353.3874206542969 218.58364868164062 L 380.1842346191406 218.58364868164062 L 380.1842346191406 228.39266967773438 L 353.3874206542969 228.39266967773438 Z " style="fill:none;stroke:#f8cbad;stroke-width:1.0;"/>
  <path d=" M 380.1842346191406 218.58364868164062 L 406.9810485839844 218.58364868164062 L 406.9810485839844 228.39266967773438 L 380.1842346191406 228.39266967773438 Z " style="fill:none;stroke:#c6e0b4;stroke-width:1.0;"/>
  <path d=" M 406.9810791015625 218.58364868164062 L 433.77789306640625 218.58364868164062 L 433.77789306640625 228.39266967773438 L 406.9810791015625 228.39266967773438 Z " style="fill:none;stroke:#c6e0b4;stroke-width:1.0;"/>
  <path d=" M 433.7787780761719 218.58364868164062 L 460.5755920410156 218.58364868164062 L 460.5755920410156 228.39266967773438 L 433.7787780761719 228.39266967773438 Z " style="fill:none;stroke:#f8cbad;stroke-width:1.0;"/>
  <path d=" M 460.57562255859375 218.58364868164062 L 487.3724365234375 218.58364868164062 L 487.3724365234375 228.39266967773438 L 460.57562255859375 228.39266967773438 Z " style="fill:none;stroke:#f8cbad;stroke-width:1.0;"/>
  <text x="113.226,120.784,124.779,129.596,134.477,138.304,140.301,144.128,146.732,148.73,152.724,155.049,157.04600000000002,159.523,163.518,167.512,171.507,175.502,177.498,180.159,184.153,188.148,190.808,246.436,250.431,254.42600000000002,256.422,259.083,263.077,267.072,271.066,275.061,277.721,323.347,329.986" y="588.251" svg_rhmargin="334.18" style="fill:#000000;font-family:MSSLTZ+URWPalladioL-Roma;font-size:8.97px;font-style:NORMAL;font-weight:normal;">Maude et al. 2018 [63] 11 (3–23) NS</text>
  <path d=" M 353.3874206542969 208.77462768554688 L 380.1842346191406 208.77462768554688 L 380.1842346191406 218.58364868164062 L 353.3874206542969 218.58364868164062 Z " style="fill:none;stroke:#f8cbad;stroke-width:1.0;"/>
  <path d=" M 380.1842346191406 208.77462768554688 L 406.9810485839844 208.77462768554688 L 406.9810485839844 218.58364868164062 L 380.1842346191406 218.58364868164062 Z " style="fill:none;stroke:#f8cbad;stroke-width:1.0;"/>
  <path d=" M 406.9810791015625 208.77462768554688 L 433.77789306640625 208.77462768554688 L 433.77789306640625 218.58364868164062 L 406.9810791015625 218.58364868164062 Z " style="fill:none;stroke:#f8cbad;stroke-width:1.0;"/>
  <path d=" M 433.7787780761719 208.77462768554688 L 460.5755920410156 208.77462768554688 L 460.5755920410156 218.58364868164062 L 433.7787780761719 218.58364868164062 Z " style="fill:none;stroke:#bdd7ee;stroke-width:1.0;"/>
  <path d=" M 460.57562255859375 208.77462768554688 L 487.3724365234375 208.77462768554688 L 487.3724365234375 218.58364868164062 L 460.57562255859375 218.58364868164062 Z " style="fill:none;stroke:#f8cbad;stroke-width:1.0;"/>
  <text x="113.226,119.41,123.404,125.729,127.727,131.553,134.157,136.155,140.15,142.474,144.471,146.948,150.943,154.937,158.932,162.927,164.924,167.584,171.578,175.573,178.233,241.443,245.437,249.432,251.429,255.424,257.421,260.081,264.076,268.07,272.065,276.06,280.054,282.714,316.348,320.343,327.901,332.742,336.736" y="598.06" svg_rhmargin="341.178" style="fill:#000000;font-family:MSSLTZ+URWPalladioL-Roma;font-size:8.97px;font-style:NORMAL;font-weight:normal;">Dai et al. 2015 [64] 38.9 (15–65) 4M/5F</text>
  <path d=" M 353.3874206542969 198.9656219482422 L 380.1842346191406 198.9656219482422 L 380.1842346191406 208.77464294433594 L 353.3874206542969 208.77464294433594 Z " style="fill:none;stroke:#f8cbad;stroke-width:1.0;"/>
  <path d=" M 380.1842346191406 198.9656219482422 L 406.9810485839844 198.9656219482422 L 406.9810485839844 208.77464294433594 L 380.1842346191406 208.77464294433594 Z " style="fill:none;stroke:#c6e0b4;stroke-width:1.0;"/>
  <path d=" M 406.9810791015625 198.9656219482422 L 433.77789306640625 198.9656219482422 L 433.77789306640625 208.77464294433594 L 406.9810791015625 208.77464294433594 Z " style="fill:none;stroke:#c6e0b4;stroke-width:1.0;"/>
  <path d=" M 433.7787780761719 198.9656219482422 L 460.5755920410156 198.9656219482422 L 460.5755920410156 208.77464294433594 L 433.7787780761719 208.77464294433594 Z " style="fill:none;stroke:#f8cbad;stroke-width:1.0;"/>
  <path d=" M 460.57562255859375 198.9656219482422 L 487.3724365234375 198.9656219482422 L 487.3724365234375 208.77464294433594 L 460.57562255859375 208.77464294433594 Z " style="fill:none;stroke:#f8cbad;stroke-width:1.0;"/>
  <text x="113.226,119.865,123.692,127.519,129.844,133.838,138.64,143.457,145.454,149.281,151.88500000000002,153.883,157.877,160.202,162.199,164.676,168.671,172.665,176.66,180.655,182.651,185.312,189.306,193.301,195.96099999999998,244.439,248.433,252.428,254.425,257.085,261.08,265.075,269.069,273.064,277.058,279.718,312.354,316.348,320.343,327.901,332.742,336.736,340.731" y="607.869" svg_rhmargin="345.173" style="fill:#000000;font-family:MSSLTZ+URWPalladioL-Roma;font-size:8.97px;font-style:NORMAL;font-weight:normal;">Neelapu et al. 2017 [65] 58 (23–76) 68M/43F</text>
  <path d=" M 353.3874206542969 189.15748596191406 L 380.1842346191406 189.15748596191406 L 380.1842346191406 198.9665069580078 L 353.3874206542969 198.9665069580078 Z " style="fill:none;stroke:#f7caac;stroke-width:1.0;"/>
  <path d=" M 380.1842346191406 189.15748596191406 L 406.9810485839844 189.15748596191406 L 406.9810485839844 198.9665069580078 L 380.1842346191406 198.9665069580078 Z " style="fill:none;stroke:#f7caac;stroke-width:1.0;"/>
  <path d=" M 406.9810791015625 189.15748596191406 L 433.77789306640625 189.15748596191406 L 433.77789306640625 198.9665069580078 L 406.9810791015625 198.9665069580078 Z " style="fill:none;stroke:#f7caac;stroke-width:1.0;"/>
  <path d=" M 433.7787780761719 189.15748596191406 L 460.5755920410156 189.15748596191406 L 460.5755920410156 198.9665069580078 L 433.7787780761719 198.9665069580078 Z " style="fill:none;stroke:#f7caac;stroke-width:1.0;"/>
  <path d=" M 460.57562255859375 189.15748596191406 L 487.3724365234375 189.15748596191406 L 487.3724365234375 198.9665069580078 L 460.57562255859375 198.9665069580078 Z " style="fill:none;stroke:#c5e0b3;stroke-width:1.0;"/>
  <text svg_rhmargin="185.369" x="97.795,104.286,108.55,111.097,114.838,118.15,120.10300000000001,122.555,125.593,127.562,134.458,138.2,142.105,146.65099999999998,148.611,152.517,157.063,161.83599999999998,163.795,166.881,170.786,175.332,179.675,183.416,185.369" y="622.715" style="fill:#000000;font-family:MSSLTZ+URWPalladioL-Roma;font-size:7.97px;font-style:NORMAL;font-weight:normal;">Notes: * mean and range, </text>
  <text svg_rhmargin="191.421" x="187.436,191.42100000000002" y="622.715" style="fill:#000000;font-family:MSSLTZ+URWPalladioL-Roma;font-size:7.97px;font-style:NORMAL;font-weight:normal;">† </text>
  <text x="193.483,200.38,204.645,209.19,211.737,216.282,218.235,220.203,227.592,229.54500000000002,231.505,238.402,242.308,244.581,248.322,250.275,252.243,256.586,258.539,260.499,263.1,266.841,273.738,277.643,279.916,283.657,285.60999999999996,287.578,294.069,298.17,300.123,302.083,306.629,310.893,313.43899999999996,315.408,318.72,323.414,327.155,330.623,332.896,337.622,341.363,346.135,348.08799999999997,350.548,353.181,355.727,359.468,366.365,369.677,371.637,375.902,378.503,380.463,387.36,391.625,396.397,398.67,403.396,407.137,411.91,413.87,420.009,426.086,432.162,438.208,444.285,448.385,450.986,454.892,456.852,459.398,463.663,467.927,470.20000000000005,472.161,476.871,480.182,483.924,488.697,490.664,492.937" y="622.715" svg_rhmargin="497.483" style="fill:#000000;font-family:MSSLTZ+URWPalladioL-Roma;font-size:7.97px;font-style:NORMAL;font-weight:normal;">month, M: male, F: female, NS: not speciﬁed. Items of modiﬁed QUADAS-2 tool used in</text>
  <text x="97.795,100.445,105.177,107.542,110.989,113.111,116.558,119.2,124.102,129.069,133.589,135.62199999999999,138.345,141.052,145.117,147.82399999999998,149.946,157.344,161.408,164.855,166.969,171.034,173.155,176.765,181.204,185.935,189.382,193.276,196.885,201.788,204.438,206.803,211.397,215.291,217.404,221.843,225.054,227.176,230.387,234.452,239.183,244.15,248.589,255.768,257.881,261.328,265.393,272.571,277.457,279.823,283.717,285.838,290.277,292.984,295.098,299.984,304.049,306.699,309.064,312.959,317.69,320.34,323.787,325.901,329.795,334.526,337.599,342.038,344.403,346.769,350.663,355.63,359.24,362.085,364.792,368.857,371.564,373.678,379.97,382.336,387.303,389.425,392.075,396.806,400.7,402.814,406.261,408.911,413.813,418.78,423.29999999999995,425.422,429.487,434.08,438.519,440.884,445.851,447.965,450.331,455.062,459.127,464.013,468.899,471.972,476.41,481.296,484.507,486.873,490.938,493.588" y="632.179" svg_rhmargin="497.482" style="fill:#000000;font-family:MSSLTZ+URWPalladioL-Roma;font-size:7.97px;font-style:NORMAL;font-weight:normal;">this study: (1) Was a consecutive or random sample of patients enrolled? (2) Did the study avoid inappropriate</text>
  <text x="97.795,101.594,105.686,109.207,111.514,116.296,119.659,121.966,126.296,130.912,134.274,137.795,140.261,142.902,146.867,149.50799999999998,151.491,158.691,162.657,166.019,168.001,170.587,175.202,179.0,180.983,187.986,191.784,194.37,198.985,203.315,208.16,210.143,212.784,217.114,220.246,222.229,227.074,230.872,233.458,237.256,240.389,247.391,249.699,254.314,256.622,261.237,265.646,267.629,270.214,274.83,278.628,280.611,284.941,289.723,292.308,295.829,300.159,307.162,310.96,314.322,316.305,320.635,323.276,325.266,330.024,333.99,336.575,338.883,342.681,347.297,349.882,353.244,355.235,359.2,361.841,364.426,368.224,371.356,373.34,377.305,382.15,389.152,391.46,396.076,398.383,401.746,404.331,407.463,411.428,414.014,416.321,420.651,425.266,427.249,432.095,435.893,439.256,442.777,445.909,448.217,452.602,456.401,461.246,464.767,467.234,469.874,473.84,476.481,478.463,481.135,484.497,486.48,489.066,493.681" y="641.644" svg_rhmargin="497.48" style="fill:#000000;font-family:MSSLTZ+URWPalladioL-Roma;font-size:7.97px;font-style:NORMAL;font-weight:normal;">exclusions? (3) Was the method for determining the outcomes of patients after administration described? (4) Is the</text>
  <text x="97.795,100.74,104.481,107.082,110.823,113.76,117.501,122.047,125.515,129.256,131.233,134.544,137.091,140.996,145.542,150.314,154.219,157.164,161.93699999999998,163.913,166.185,168.458,172.801,176.542,178.815,183.158,185.134,187.68,191.945,193.921,197.389,201.654,204.739,207.676,211.417,214.885,217.431,219.704,224.047,226.023,229.491,231.764,235.669,238.981,242.293,244.566,247.167,251.51,253.486,256.032,260.578,264.31899999999996,266.295,268.841,272.747,275.691,280.034,283.776,286.322,288.298,291.766,296.031,300.576,305.349,307.622,310.168,312.441,316.706,321.244,324.71200000000005,327.18,329.781,333.686,336.287,338.263,344.308,346.581,351.35400000000004,353.33,357.235,359.508,361.781,363.757,368.451,372.357,374.903,377.176,380.917,385.463,388.009,391.321,393.297,397.203,400.671,404.138,407.88,412.574,415.12,417.096,419.643,424.189,427.93,429.906,432.452,435.389,439.13,443.036,445.582,452.479,456.22,460.766,463.312,465.289,469.553,472.154,474.13,479.668,485.745,490.963,492.938" y="651.108" svg_rhmargin="497.726" style="fill:#000000;font-family:MSSLTZ+URWPalladioL-Roma;font-size:7.97px;font-style:NORMAL;font-weight:normal;">reference standard likely to correctly classify the target condition? (5) Did all patients accept the treatment of CAR T</text>
  <text x="97.795,101.334,105.151,107.471,109.79,113.169,116.708,119.179,125.38,128.918,132.457,136.809,139.813,144.683,147.002,151.641,156.072,158.065,160.663,165.01500000000001,167.007,169.606,174.244,178.062,180.054,186.319,192.52,198.72,204.889,211.09,215.274,217.928,221.913,223.906,230.943,234.929,239.567,244.373,248.358,250.677,252.67,254.662,258.48,262.465,266.004,270.64300000000003,272.635,274.954,277.553,281.37,288.408,290.4,297.048,301.033,304.41200000000003,306.404,310.389,313.769,317.148,320.966,324.345,327.724,331.542,336.412,338.404,342.389,345.76800000000003,347.761,351.746,356.178,359.995,363.375,367.36,369.353,371.345,375.33,379.969,384.32,388.305,390.298,394.649,397.797,399.79,403.775,408.581,413.22,416.759,419.078,422.896,426.881,430.029,434.014" y="660.573" svg_rhmargin="436.007" style="fill:#000000;font-family:MSSLTZ+URWPalladioL-Roma;font-size:7.97px;font-style:NORMAL;font-weight:normal;">cells? According to the QUADAS-2 manual, each item was assessed as “yes”, “no” or “unclear”:</text>
  <path d=" M 226.8775177001953 125.4863052368164 L 295.5754089355469 125.4863052368164 L 295.5754089355469 135.29531860351562 L 226.8775177001953 135.29531860351562 Z " style="fill:none;stroke:#f8cbad;stroke-width:1.0;"/>
  <text x="301.257,305.851,309.678" y="671.54" svg_rhmargin="313.065" style="fill:#000000;font-family:MSSLTZ+URWPalladioL-Roma;font-size:8.97px;font-style:NORMAL;font-weight:normal;">Yes</text>
  <path d=" M 226.8775177001953 115.32266998291016 L 295.5754089355469 115.32266998291016 L 295.5754089355469 125.1316909790039 L 226.8775177001953 125.1316909790039 Z " style="fill:none;stroke:#c6e0b4;stroke-width:1.0;"/>
  <text x="301.257,307.896" y="681.703" svg_rhmargin="312.258" style="fill:#000000;font-family:MSSLTZ+URWPalladioL-Roma;font-size:8.97px;font-style:NORMAL;font-weight:normal;">No</text>
  <path d=" M 226.8775177001953 105.1590347290039 L 295.5754089355469 105.1590347290039 L 295.5754089355469 114.96805572509766 L 226.8775177001953 114.96805572509766 Z " style="fill:none;stroke:#bdd7ee;stroke-width:1.0;"/>
  <text x="301.257,307.473,312.122,315.67,317.994,321.821,325.816" y="691.8679999999999" svg_rhmargin="328.972" style="fill:#000000;font-family:MSSLTZ+URWPalladioL-Roma;font-size:8.97px;font-style:NORMAL;font-weight:normal;">Unclear</text>
 </g>
</svg>
