<?xml version="1.0" encoding="UTF-8"?>
<svg height="732.8" width="531.3701144691526" xmlns="http://www.w3.org/2000/svg">
 <g style="fill:none;">
  <text svg_rhmargin="102.103" x="76.272,81.588,85.127,89.558,92.802,95.902,99.003,102.103" y="21.089000000000055" style="fill:#000000;font-family:AKYTAJ+URWPalladioL-Ital;font-size:7.97px;font-style:italic;font-weight:normal;">Cancers </text>
  <text x="104.096,108.081,112.066,116.051" y="21.089000000000055" svg_rhmargin="120.036" style="fill:#000000;font-family:DPYECX+URWPalladioL-Bold;font-size:7.97px;font-style:NORMAL;font-weight:BOLD;">2019</text>
  <text svg_rhmargin="122.029" x="120.036,122.029" y="21.089000000000055" style="fill:#000000;font-family:MSSLTZ+URWPalladioL-Roma;font-size:7.97px;font-style:NORMAL;font-weight:normal;">, </text>
  <text x="124.021,128.006" y="21.089000000000055" svg_rhmargin="131.991" style="fill:#000000;font-family:AKYTAJ+URWPalladioL-Ital;font-size:7.97px;font-style:italic;font-weight:normal;">11</text>
  <text x="131.991,133.984,135.976,139.961,143.94600000000003,491.809,495.794,499.779,501.772,506.123,508.777,510.77,514.755" y="21.089000000000055" svg_rhmargin="518.74" style="fill:#000000;font-family:MSSLTZ+URWPalladioL-Roma;font-size:7.97px;font-style:NORMAL;font-weight:normal;">, 47 21 of 27</text>
  <text x="76.535,81.866,85.117,87.392,94.314,101.91,108.432,110.716,116.701,118.976,122.159,127.841,132.518,136.375,141.256,147.124,151.439,153.88,156.907,162.335,168.223,172.079,175.262,180.944,185.621,189.477,198.089,203.419,207.1,211.777,214.218,216.541,222.409,226.08,230.757,236.273,239.114,244.445,250.332,254.47199999999998,256.757,260.896,264.079,269.966,275.932,281.36,283.635" y="55.95799999999997" svg_rhmargin="286.886" style="fill:#000000;font-family:MSSLTZ+URWPalladioL-Roma;font-size:9.96px;font-style:NORMAL;font-weight:normal;">of CAR T therapy. Furthermore, previous study [</text>
  <text x="286.885,291.866" y="55.95799999999997" svg_rhmargin="296.847" style="fill:#0875b7;font-family:MSSLTZ+URWPalladioL-Roma;font-size:9.96px;font-style:NORMAL;font-weight:normal;">39</text>
  <text x="296.848,300.099,302.374,308.056,312.938,318.90299999999996,321.188,325.523,330.854,336.536,342.443,346.299,354.92,359.597,365.56199999999995,367.837,371.02,376.702,381.584,384.767,387.042,390.225,395.556,400.887,403.161,407.301,412.983,418.314,422.17,425.353,427.638,433.506,438.182,442.039,446.179,449.02,453.159,456.342,461.019,466.701,471.036,475.712,477.988,481.239,484.08,488.756,492.896,497.036,499.311,502.493,508.176,513.057" y="55.95799999999997" svg_rhmargin="518.739" style="fill:#000000;font-family:MSSLTZ+URWPalladioL-Roma;font-size:9.96px;font-style:NORMAL;font-weight:normal;">] had conﬁrmed that too short persistence (less than</text>
  <text svg_rhmargin="330.155" x="76.535,79.848,88.323,93.871,96.442,105.415,110.963,116.878,120.19,126.105,130.413,133.797,136.368,140.88,146.428,152.556,155.513,161.722,164.303,173.276,178.357,184.007,188.875,191.445,198.65,206.556,213.34400000000002,215.915,222.144,224.715,229.227,234.095,237.052,240.009,244.31799999999998,246.888,252.802,258.34999999999997,260.922,263.879,269.427,275.341,280.991,285.859,289.873,292.444,297.311,300.523,303.896,308.764,313.276,316.588,319.546,325.287,330.155" y="69.46799999999996" style="fill:#000000;font-family:MSSLTZ+URWPalladioL-Roma;font-size:9.96px;font-style:NORMAL;font-weight:normal;">two months) could make CAR T cells no longer effective </text>
  <text svg_rhmargin="363.517" x="332.732,335.631,341.429,343.92,349.549,352.448,358.077,363.517" y="69.46799999999996" style="fill:#000000;font-family:MSSLTZ+URWPalladioL-Roma;font-size:9.96px;font-style:NORMAL;font-weight:normal;">in vivo </text>
  <text x="366.089,371.17,377.084,383.293,385.864,388.821,393.689,398.77,404.979,407.549,410.862,416.41,418.981,422.823,427.69,430.647,435.728,441.835,446.144,451.012,453.553,456.885,465.34,470.888,479.363,484.231,489.972,494.84,498.112,500.653,503.254,508.802,514.93" y="69.46799999999996" svg_rhmargin="518.944" style="fill:#000000;font-family:MSSLTZ+URWPalladioL-Roma;font-size:9.96px;font-style:NORMAL;font-weight:normal;">and lead to relapse. However, our</text>
  <text x="76.535,80.257,84.986,89.172,95.126,97.999,101.21799999999999,103.705,106.578,112.324,118.357,121.23,125.613,130.55,133.768,138.498,144.53,147.028,150.246,155.992,160.929,164.148,166.645,173.24,179.835,182.324,190.558,195.494,199.68,202.178,207.924,213.315,216.534,219.021,223.958,228.144,232.33,237.721,242.104,244.977,249.914,253.132,257.861,263.893,266.392,274.626,277.499,280.717,286.46299999999997,288.961,293.898,299.821,304.55,308.45,312.636,315.509,319.696,322.914,327.643,333.389,337.773,342.502,347.438,349.906,353.007,359.059,364.805,369.741,372.96,375.458,383.692,388.628,392.81399999999996,395.302,398.521,404.267,408.996,411.494,415.216,419.945,424.882,429.068,434.459,440.205,442.693,450.927,456.673,462.162,464.66,472.894,477.623,480.121,482.994,488.74,493.124,495.997,501.95,507.982,512.711" y="82.97699999999998" svg_rhmargin="518.743" style="fill:#000000;font-family:MSSLTZ+URWPalladioL-Roma;font-size:9.96px;font-style:NORMAL;font-weight:normal;">result indicated that RR was not associated with “persistence”. That was the reason why we included</text>
  <text x="76.535,80.844,86.971,91.483,97.397,100.151,105.893,110.974,114.987,117.945,123.493,129.621,133.93,136.683,143.888,151.794,158.58200000000002,161.336,167.56500000000003,170.319,176.426,180.257,185.805,189.118,194.667,199.178,204.727,207.684,211.993,214.746,217.703,223.617,226.371,229.684,235.598,240.466,243.22,247.528,252.609,261.582,266.45,269.204,278.177,283.044,286.357,291.438,294.822,299.903,305.817,310.898,313.855,319.505,323.813,326.771,331.079,333.62,336.434,342.054,347.135,351.444,356.311,362.52,365.274,370.822,376.736,379.49,382.803,388.717,393.585,396.339,405.312,410.179,413.492,418.573,421.957,425.788,430.655,436.305,440.136,445.004,449.312,453.621,456.578,462.126,468.03999999999996,470.794,475.875,481.79,486.871,489.828,495.478,499.786,502.743,507.052,509.806,515.354" y="96.48699999999997" svg_rhmargin="518.738" style="fill:#000000;font-family:MSSLTZ+URWPalladioL-Roma;font-size:9.96px;font-style:NORMAL;font-weight:normal;">such various CAR T protocols in the same meta-analysis, based on the meta-regression analysis of</text>
  <text x="76.535,79.718,85.4,90.077,94.216,98.892,101.392,107.358,110.199,113.274,116.526,121.202,124.883,129.56,135.242,138.42499999999998,140.924,144.175,149.057,153.392,156.575,161.906,165.762,169.902,172.343,174.842,182.985,187.661,190.161,194.496,199.827,205.714,208.555,214.52,217.02,219.861,225.826,230.503,236.185,239.368,242.209,245.46,250.888,253.398,259.266,264.597,267.78,272.456,278.138,281.321,284.153,289.034,291.875,294.385,297.636,302.518,306.852,310.035,315.366,319.223,323.363,325.862,329.045,334.727,339.609,342.792,345.291,348.132,353.814,359.75,365.638,370.314,375.997,380.331,385.008,390.97299999999996,393.473,396.656,402.338,407.014,409.514,413.849,416.69,419.531,425.214,428.055,432.39,437.271,440.112,442.612,447.943,453.83,457.013,461.348,466.679,475.3,479.976,484.116,486.615,491.946,495.197,497.697,504.619,512.215" y="109.99599999999998" svg_rhmargin="518.737" style="fill:#000000;font-family:MSSLTZ+URWPalladioL-Roma;font-size:9.96px;font-style:NORMAL;font-weight:normal;">these different factors, we could identify potential factors that inﬂuenced the clinical outcomes of CAR</text>
  <text x="76.226,82.333,84.824,89.247,94.019,96.918,99.817,104.041,106.532,111.514,117.312,123.399,125.89,131.329,134.467,137.785,142.557,146.492,148.983,153.965,156.455,160.211,164.983,168.3,173.072,176.828,181.6,187.399,191.822,196.594,199.085,202.402,207.842,211.77700000000002,214.268,217.516,223.314,228.08599999999998,230.577,233.894,239.902,243.149,249.157,252.913,257.685,260.175,263.931,268.703,272.928,277.7,282.681,286.437,290.86,296.658,299.149,304.589,307.907,310.397,317.46,325.211,331.866,334.357,340.46400000000006,342.955,346.203,352.001,356.773,360.708,365.689,371.677,376.11" y="123.505" svg_rhmargin="378.601" style="fill:#000000;font-family:MSSLTZ+URWPalladioL-Roma;font-size:9.96px;font-style:NORMAL;font-weight:normal;">T cells and offer a reference for the future research of CAR T therapy.</text>
  <text x="97.795,105.693,108.647,111.957,117.865,123.408,129.53,135.174,141.082,143.56,146.869,152.778,157.641,160.117,164.422,170.543,176.157,181.802,185.639,191.182,197.304,203.405,205.882,210.958,216.867,221.943,224.897,230.541,234.846,237.8,242.104,244.581,249.657,255.566,261.769,264.245,273.21,278.072,281.382,286.458,289.838,293.676,298.539,304.183,308.01,312.873,317.177,321.482,324.436,329.979,335.887,338.364,343.44,349.349,354.425,357.379,363.023,367.328,370.282,374.58599999999996,377.063,385.53,390.393,394.23,399.093,401.57,407.692,411.996,416.859,423.06199999999995,425.539,428.848,434.391,436.868,443.071,446.025,450.33,454.837,460.959,465.263,469.56699999999995,472.055,475.364,481.273,486.136,488.612,491.993,497.069,501.576,504.886,510.429,514.439" y="137.015" svg_rhmargin="518.743" style="fill:#000000;font-family:MSSLTZ+URWPalladioL-Roma;font-size:9.96px;font-style:NORMAL;font-weight:normal;">Although the subgroup analysis and meta-regression analysis were used to discuss the factors</text>
  <text x="76.535,82.083,85.467,88.556,94.471,99.338,102.651,107.518,111.35,116.898,122.548,127.415,133.33,138.197,141.154,144.467,150.11700000000002,153.206,156.163,162.077,165.156,168.469,174.383,177.341,181.65,184.738,189.047,192.36,198.487,204.696,209.239,211.78,215.011,218.323,224.238,227.195,231.504,234.592,238.423,243.291,247.6,252.467,257.548,261.389,265.901,271.815,274.894,279.203,282.516,285.473,288.43,291.387,294.476,300.39,305.471,311.68,314.769,319.078,324.626,333.599,338.467,341.546,344.503,347.46,356.433,359.39,362.703,367.784,371.097,374.054,379.602,385.516,389.825,392.366,397.243,405.23,411.144,416.012,419.091,424.639,428.023,431.112,434.425,440.339,445.207,448.296,457.269,462.817,467.126,470.43899999999996,473.518,476.475,485.448,491.555,497.104,501.117,504.43,509.511,515.425" y="150.524" svg_rhmargin="518.738" style="fill:#000000;font-family:MSSLTZ+URWPalladioL-Roma;font-size:9.96px;font-style:NORMAL;font-weight:normal;">of heterogeneity in this study, this research still had some limitations. One of the most important</text>
  <text x="76.535,79.492,82.449,91.422,94.379,97.692,102.773,106.086,109.043,114.591,120.505,124.814,127.659,136.134,141.215,145.524,148.369,151.682,157.596,162.677,165.98999999999998,168.835,172.148,178.062,182.93,186.771,191.63899999999998,194.484,199.565,203.396,208.26399999999998,211.108,214.492,219.36,227.835,232.702,236.716,239.572,245.669,250.75,254.063,257.02,261.887,267.801,271.114,275.423,278.278,286.753,289.71,293.023,298.937,301.783,306.091,311.64,314.597,317.554,323.763,326.608,329.921,336.048,345.021,350.57,354.584,358.892,361.433,364.369,369.45,375.365,381.574,384.419,387.732,393.646,398.514,401.359,406.907,410.22,416.134,421.001,425.015,427.861,430.818,433.775,442.748,445.705,449.018,454.099,457.411,460.368,465.917,471.831,476.14000000000004,478.985,481.942,487.856,492.368,495.325,501.453,507.662,512.529" y="164.034" svg_rhmargin="518.738" style="fill:#000000;font-family:MSSLTZ+URWPalladioL-Roma;font-size:9.96px;font-style:NORMAL;font-weight:normal;">limitations was that there are fewer patients with solid tumors, and the other limitations included</text>
  <text x="76.535,81.616,87.266,92.133,96.442,98.98299999999999,102.021,106.035,111.116,115.628,120.495,124.804,127.345,130.393,134.905,140.453,146.581,152.495,155.808,159.822,162.779,167.646,171.955,174.496,177.534,182.401,185.714,190.226,192.767,197.176,203.406,209.32,214.187,218.496,223.364,226.29,229.247,232.204,241.177,244.134,247.447,252.528,255.841,258.798,264.346,270.26,274.569,277.506,282.587,286.418,291.286,294.222,297.179,303.093,307.961,313.702,316.659,319.972,325.053,330.673,333.63,338.498,341.424,346.505,352.419,358.628,361.565,367.692,373.606,379.155,384.896,389.764,393.595,398.107,403.655,412.628,417.709,423.328,426.285,431.153,434.08,437.037,442.95099999999996,445.888,449.2,455.115,459.983,462.909,469.016,472.857,477.725,482.033,486.901,492.815,496.128,499.054,505.263,510.344,513.657" y="177.543" svg_rhmargin="518.738" style="fill:#000000;font-family:MSSLTZ+URWPalladioL-Roma;font-size:9.96px;font-style:NORMAL;font-weight:normal;">ages, races, countries, etc. These limitations are inevitable and unovercomable in the present data</text>
  <text x="76.535,82.04,86.022,88.513,93.554,99.25,104.291,107.225,110.159,115.2,120.775,123.709,128.538,131.029,137.189,142.23,145.517,150.558,153.07899999999998,156.164,164.552,170.057,178.466,183.295,188.991,193.821,197.067,199.588,202.078,205.365,211.233,216.062,218.552,224.612,230.691,236.267,239.2,242.134,246.409,252.277,255.211,261.079,266.685,269.175,272.461,275.395,284.298,289.127,291.617,297.122,300.47900000000004,302.97,306.257,312.125,316.954,319.444,322.378,328.246,332.722,335.656,341.736,347.896,352.725,358.88500000000005,361.376,365.651,368.937,375.017,381.177,384.111,388.94,393.215,395.706,404.114,408.943,412.744,417.57300000000004,420.064,424.54,427.474,432.979,437.254,442.083,444.574,447.931,452.972,458.013,463.054,468.095,473.136,478.178,483.219,488.26,493.301,496.658,499.17900000000003,501.669,506.71,512.578" y="191.05200000000002" svg_rhmargin="518.738" style="fill:#000000;font-family:MSSLTZ+URWPalladioL-Roma;font-size:9.96px;font-style:NORMAL;font-weight:normal;">or available data. However, the publishing time of the included studies were close (2013–2018), and</text>
  <text x="76.535,79.848,85.762,90.63,93.536,102.509,108.057,112.366,115.679,118.585,122.893,126.206,132.334,138.543,141.5,146.367,150.676,153.582,162.057,166.925,170.766,175.634,178.54,184.647,190.775,196.394,199.351,202.308,206.617,212.531,217.399,223.608,226.514,231.595,234.908,237.814,242.895,247.976,253.057,258.138,261.044,264.357,269.90500000000003,272.811,277.892,282.973,288.054,293.135,295.676,298.683,301.996,307.91,312.778,318.692,321.598,328.803,336.709,343.497,346.403,352.632,355.539,360.051,364.918,367.875,370.832,375.141,378.047,386.522,391.39,395.231,400.099,403.005,408.086,411.043,420.016,425.564,429.873,433.186,436.092,441.173,447.3,450.613,456.161,459.118,464.667,470.317,475.865,481.993,486.302,489.208,495.437,498.343,502.855,507.723,510.68,513.637,517.945" y="204.562" svg_rhmargin="520.485" style="fill:#000000;font-family:MSSLTZ+URWPalladioL-Roma;font-size:9.96px;font-style:NORMAL;font-weight:normal;">the most studies were published at 2016 to 2018, then CAR T cells were almost autologous T cells.</text>
  <text x="76.226,81.541,87.089,89.731,94.599,100.34,105.421,108.378,114.506,119.587,122.899,127.767,130.419,133.732,139.646,144.51399999999998,147.156,152.023,155.224,161.372,165.884,170.965,175.477,181.127,183.769,188.85,194.764,200.973,203.625,207.934,213.015,216.399,221.266,224.579,229.121,231.662,234.344,242.819,247.68699999999998,250.329,253.642,257.656,260.613,265.48,271.689,274.341,277.654,283.202,285.845,294.818,299.899,305.549,310.417,313.068,318.149,320.791,325.1,330.75,335.059,338.371,343.239,352.212,357.293,360.605,363.563,368.075,370.717,375.797,381.712,386.793,389.75,395.4,399.708,402.665,406.97400000000005,409.626,413.01,418.559,422.57300000000004,425.215,432.419,440.325,447.113,449.755,455.984,458.637,461.95,467.864,472.731,476.745,481.826,487.934,493.584,496.226,499.183,505.097,507.749,512.83,515.787" y="218.07100000000003" svg_rhmargin="518.744" style="fill:#000000;font-family:MSSLTZ+URWPalladioL-Roma;font-size:9.96px;font-style:NORMAL;font-weight:normal;">To evaluate the efﬁcacy and safety, we tried to make a systematic analysis for CAR T therapy in all</text>
  <text x="76.535,81.003,83.931,86.859,92.715,95.643,100.111,105.142,108.07,110.555,114.822,118.102,124.17,130.318,133.246,138.066,142.332,144.84799999999998,147.926,154.095,159.951,164.771,167.256,173.303,179.371,184.935,187.863,190.792,195.259,200.29,203.571,206.499,211.993,217.849,220.324,225.889,228.817,233.848,238.114,240.6,249.484,254.516,257.444,263.3,265.775,269.126,274.62,279.088,285.155,289.421,291.907,297.401,303.257,305.742,308.671,314.527,320.675,325.495,330.687,333.162,336.442,341.262,346.454,349.734,352.22,357.251,363.107,369.25500000000005,371.73,377.778,382.809,386.089,389.017,393.837,399.693,402.97299999999996,405.459,409.725,414.545,417.473,422.293,426.761,430.041,432.969,438.463,444.319,446.83500000000004,449.924,455.207,458.135,463.981,468.448,473.268,475.754,481.248,487.315,491.289,493.775,498.041,501.322,507.389,513.537" y="231.58100000000002" svg_rhmargin="519.132" style="fill:#000000;font-family:MSSLTZ+URWPalladioL-Roma;font-size:9.96px;font-style:NORMAL;font-weight:normal;">clinical studies. The publication bias main focus on index text and patient selection. Since our study</text>
  <text x="76.535,79.414,85.171,89.564,92.443,98.408,104.453,109.191,115.236,117.719,121.914,127.879,132.271,138.029,140.512,146.102,151.048,154.956,157.835,163.236,169.201,173.396,175.879,179.104,185.07,193.805,199.206,203.114,207.309,209.782,212.265,215.144,218.369,220.852,229.103,234.049,238.244,240.727,246.771,249.65,252.766,258.752,263.144,269.109,271.988,275.213,277.696,280.922,286.324,288.796,293.189,298.59,304.348,308.542,311.421,317.466,322.204,326.112,328.595,331.82,337.578,342.31699999999995,344.8,347.678,353.723,358.462,364.219,367.444,370.323,376.308,381.047,387.09200000000004,389.575,393.304,398.043,401.337,406.076,409.806,414.544,420.302,424.694,429.433,431.916,436.111,439.336,444.282,450.04,456.084,461.031,464.76,470.805,473.288,478.234,482.429,484.902,488.127,493.885,498.62399999999997,501.107,506.578,511.316,515.511" y="245.09000000000003" svg_rhmargin="518.736" style="fill:#000000;font-family:MSSLTZ+URWPalladioL-Roma;font-size:9.96px;font-style:NORMAL;font-weight:normal;">included such various tumors, it was difﬁcult to consider the identiﬁed reference standard as the best</text>
  <text x="76.535,80.25,84.969,88.25,92.97,96.684,101.404,107.138,111.513,116.233,118.716,122.893,126.105,131.032,136.766,142.787,147.713,151.428,157.448,159.941,165.32,169.212,171.705,176.08,181.46,185.352,189.066,193.786,198.161,201.363,204.23,209.708,212.201,216.576,219.443,224.37,228.547,232.725,235.592,238.873,243.248,245.71099999999998,248.795,255.781,263.447,270.029,272.521,278.56100000000004,281.054,284.266,290.0,294.72,298.612,303.538,309.46,314.938,317.431,323.166,327.885,332.605,338.625,342.803,345.286,350.213,352.705,358.627,362.341,367.721,372.096,376.815,380.993,385.171,387.663,393.043,396.324,398.817,404.739,408.443,413.823,419.843,425.785,430.16,433.372,436.239,441.619,447.353,449.846,455.226,458.507,460.999,467.03900000000004,469.532,473.907,478.626,481.494,484.361,488.539,491.002,493.485,498.411,504.146,510.166,512.659,515.526" y="258.59900000000005" svg_rhmargin="518.738" style="fill:#000000;font-family:MSSLTZ+URWPalladioL-Roma;font-size:9.96px;font-style:NORMAL;font-weight:normal;">reference standard or correctly classify. CAR T therapy needs a process of production of T cells, and it</text>
  <text x="76.535,80.291,85.063,89.287,95.295,98.194,101.442,106.214,112.301,114.791,118.039,123.837,128.819,132.06699999999998,134.557,138.781,144.221,153.018,157.79,160.281,166.268,171.249,174.497,177.396,182.168,187.967,191.214,195.438,197.929,203.727,208.709,214.796,217.287,223.085,228.524,231.772,234.263,239.035,244.833,250.273,256.28,261.819,267.617,270.108,277.172,284.923,291.578,294.068,300.175,302.666,307.09,311.862,314.761,317.66,321.884,324.375,327.622,333.062,335.553,339.777,343.025,348.006,351.941,355.18899999999996,357.68,360.927,366.726,371.498,373.988,377.236,380.992,385.764,390.746,393.993,402.79,407.562,413.361,416.608" y="272.10900000000004" svg_rhmargin="419.099" style="fill:#000000;font-family:MSSLTZ+URWPalladioL-Roma;font-size:9.96px;font-style:NORMAL;font-weight:normal;">resulted that some patients had not enough CAR T cells to start the treatment.</text>
  <text x="76.535,81.516,84.007,87.095,97.058,102.039,105.357,110.338,114.214,117.531,122.512,125.83,130.254,132.744,137.725,143.812,149.899,152.39,162.353,167.334,170.652,176.739,182.278,188.365" y="295.322" svg_rhmargin="192.788" style="fill:#000000;font-family:DPYECX+URWPalladioL-Bold;font-size:9.96px;font-style:NORMAL;font-weight:BOLD;">4. Materials and Methods</text>
  <text x="76.535,81.516,84.007,88.988,91.479,94.567,100.107,103.982,108.405,112.101,116.156,121.138,123.628,129.167,132.485,136.36,140.784,144.101,147.977,152.958" y="318.535" svg_rhmargin="157.939" style="fill:#000000;font-family:AKYTAJ+URWPalladioL-Ital;font-size:9.96px;font-style:italic;font-weight:normal;">4.1. Search Strategy</text>
  <text x="97.795,103.401,106.335,110.317,114.592,117.879,120.813,126.419,128.919,137.327,142.156,144.667,148.942,153.771,158.812,162.613,167.09,172.957,177.787,183.947,186.447,189.734,195.602,200.431,202.932,211.834,216.664,219.95,224.991,228.349,233.39,239.258,244.299,247.233,252.838,257.113,260.047,264.322,266.832,270.633,275.463,281.068,286.109,289.91,296.071,299.004,304.872,310.478,312.978,320.127,327.97,334.70500000000004,337.216,343.396,345.896,350.373,355.202,358.136,361.07,365.34499999999997,367.845,371.203,376.708,380.69000000000005,383.2,389.26,394.301,397.588,400.522,405.351,411.219,414.505,418.78,421.281,429.689,432.623,435.91,441.778,444.278,450.146,454.975,463.878,468.919,472.206,477.71,480.644,486.149,491.755,494.689,499.165,501.676,506.717,512.585" y="338.022" svg_rhmargin="518.745" style="fill:#000000;font-family:MSSLTZ+URWPalladioL-Roma;font-size:9.96px;font-style:NORMAL;font-weight:normal;">Firstly we searched the meta-analysis regarding CAR T cells for patients with hematologic and</text>
  <text x="76.535,80.675,86.005,88.847,91.688,97.653,100.153,108.774,113.655,116.496,119.338,124.766,130.448,135.33,141.012,145.347,148.188,152.865,157.005,159.446,162.56,170.673,176.004,178.503,182.643,187.525,196.146,200.82199999999997,203.322,208.204,212.06,215.243,218.084,222.419,225.26,229.937,234.077,236.576,244.718,249.395,253.066,257.742,260.242,263.493,268.824,274.711,280.394,286.359,288.79999999999995,291.914,297.04,301.717,306.052,311.383,317.065,323.03,325.871,330.197,332.638,335.137,343.279,347.955,350.456,354.595,359.272,364.153,367.834,372.169,377.851,382.528,388.493,390.993,395.133,398.315,404.203,410.168,413.009,417.686,421.82599999999996,424.325,429.207,434.889,440.854,443.354,447.689,450.53,453.371,459.053,461.894,466.229,471.111,473.952,476.451,482.417,487.299,490.481,495.363,497.863,501.114,504.785,510.116" y="351.531" svg_rhmargin="518.737" style="fill:#000000;font-family:MSSLTZ+URWPalladioL-Roma;font-size:9.96px;font-style:NORMAL;font-weight:normal;">solid malignancies. No same articles were found. Secondly, we searched studies and clinical data from</text>
  <text x="76.535,79.744,85.472,90.187,92.678,98.692,103.613,106.822,111.744,117.187,122.108,126.282,130.997,135.17000000000002,137.67,143.044,146.322,148.813,154.758,160.693,166.136,175.448,180.163,186.177,188.638,191.138,200.055,204.77,210.21300000000002,212.714,218.088,221.36599999999999,223.856,229.024,233.394,236.258,240.973,246.702,251.072,255.787,258.248,260.748,269.675,274.597,280.325,283.603,288.525,294.253,299.726,302.216,307.138,312.867,318.88100000000003,321.371,328.35,331.214,334.078,339.807,342.671,347.042,351.963,354.828,358.036,361.924,364.789,369.71,372.575,376.748,379.209,384.681,390.056,394.515,396.976,400.076,406.11,411.838,416.553,419.044,423.217,427.932,432.853,436.564,440.934,446.663,449.153,452.362,457.077,460.965,469.656,473.829,476.33,481.252,485.622,491.351,494.215,502.906,507.621,511.509,514.373" y="365.041" svg_rhmargin="518.743" style="fill:#000000;font-family:MSSLTZ+URWPalladioL-Roma;font-size:9.96px;font-style:NORMAL;font-weight:normal;">the databases of PubMed, Web of Science, Wanfang and Clinicaltrials.gov. The search terms “chimeric</text>
  <text x="76.535,81.481,87.239,90.464,93.343,98.843,103.582,109.33999999999999,111.833,115.562,120.301,124.693,129.432,135.378,138.603,144.004,147.912,152.107,157.053,159.526,162.009,166.956,173.97,181.666,188.275,190.768,196.832,201.779,204.272,209.218,214.976,221.021,223.513,228.46,232.852,235.731,238.61,244.367,247.246,251.639,256.586,259.078,267.329,272.067,275.787,280.52599999999995,283.019,288.984,293.179,297.917,303.962,306.455,309.334,315.092,317.584,320.81,326.567,331.306,333.799,339.745,343.474,348.876,353.268,358.007,362.201,366.396,368.879,374.28,377.57399999999996,380.068,384.262,389.001,393.947,397.677,402.07,407.827,410.3,413.387,419.451,425.209,429.948,433.677,438.416,440.909,449.16,453.898,457.628,462.36699999999996,464.86,470.617,476.019,478.502,481.381,486.327,492.085,497.585,503.551,508.497,513.997" y="378.55" svg_rhmargin="518.736" style="fill:#000000;font-family:MSSLTZ+URWPalladioL-Roma;font-size:9.96px;font-style:NORMAL;font-weight:normal;">antigen receptors”, “CAR T” and “clinic” were used in the process of search. There were no language</text>
  <text x="76.535,79.449,82.362,91.203,94.117,97.381,102.387,105.651,108.565,114.031,119.859,124.104,126.607,129.721,134.727,140.294,146.332,149.245,152.15800000000002,154.652,157.916,162.712,167.878,171.142,176.148,178.651,181.155,186.161,191.167,195.122,198.386,201.3,205.745,208.659,213.455,218.461,220.964,223.457,228.463,232.909,235.822,238.736,244.563,247.477,251.922,256.929,259.842,262.345,266.12,270.916,275.161,279.957,284.963,288.738,293.184,299.011,304.01700000000005,306.51,311.516,317.343,323.46000000000004,325.964,330.97,335.416,340.883,349.724,355.741,358.655,363.451,366.715,371.511,377.628,382.634,385.128,393.478,398.274,402.048,406.844,409.348,415.385,419.63,424.426,430.543,433.037,436.301,441.768,444.271,450.328,453.242,456.506,461.302,465.257,467.75,472.756,476.711,479.975,482.889,487.334,490.248,495.044,499.289,501.792,506.798,512.626" y="392.059" svg_rhmargin="518.744" style="fill:#000000;font-family:MSSLTZ+URWPalladioL-Roma;font-size:9.96px;font-style:NORMAL;font-weight:normal;">limitations. “Full text”, “article”, “clinical research” and “completed” were used to ﬁlter articles and</text>
  <text x="76.535,81.003,83.931,86.859,92.715,95.643,100.111,105.142,108.07,110.565,116.713,121.745,125.025,130.056,132.572,135.681,141.275,144.203,150.06,155.091,158.019,160.947,165.435,167.951,170.446,173.726,179.582,184.402,186.898,190.701,195.521,198.872,203.691,207.485,212.305,218.161,222.628,227.44799999999998,229.944,232.872,235.8,240.066,243.347,247.613,250.108,255.602,258.95300000000003,261.449,267.496,271.471,274.399,283.284,288.315,292.289,297.883,300.379,304.646,307.926,313.993,320.142,323.07,327.889,332.15500000000003,334.651,343.043,347.863,351.666,356.486,358.982,362.775,367.595,373.28,376.208,381.028,389.42,394.24,400.38800000000003,402.883,408.448,414.042,416.538,419.818,428.21,433.70399999999995,436.199,441.23,447.298,450.578,456.434,461.928,465.903,470.169,472.685,475.794,481.962,487.818,492.638,495.134,498.062,503.093,506.373,511.193,515.459" y="405.569" svg_rhmargin="518.739" style="fill:#000000;font-family:MSSLTZ+URWPalladioL-Roma;font-size:9.96px;font-style:NORMAL;font-weight:normal;">clinical data. Finally, the reference lists of primary studies were reviewed by two authors. The latest</text>
  <text x="76.535,80.759,85.531,90.513,94.268,98.692,104.49,106.981,112.779,117.76,123.748,129.735,134.507,140.306,145.078,151.165,153.655,159.095,164.893,167.384,175.135,181.122,185.058,187.957,190.856,193.346,198.328,203.309,205.8,208.29,213.272,218.253,223.234,228.216,230.706,234.024,239.005,243.986,247.304" y="419.078" svg_rhmargin="249.795" style="fill:#000000;font-family:MSSLTZ+URWPalladioL-Roma;font-size:9.96px;font-style:NORMAL;font-weight:normal;">search happened on April 19, 2018 [68].</text>
  <text x="76.535,81.516,84.007,88.988,91.479,94.567,100.107,103.982,106.752,110.627,114.682,117.999,120.769,125.192,130.731,133.222,139.867,143.743,146.512,149.83,153.705,157.581,160.35,164.774,167.264,170.034,174.457,178.333,180.824,187.469,191.892,197.431,201.307,204.076,209.058,212.933,216.808,219.578,225.117,230.099,232.589,238.128,241.446,246.985,251.966,254.736,258.612,262.488,264.978,267.747,272.171,276.04699999999997,278.537,284.624,289.605,292.375,296.251,298.741,305.386,309.261,314.243,317.012,320.888" y="442.291" svg_rhmargin="328.081" style="fill:#000000;font-family:AKYTAJ+URWPalladioL-Ital;font-size:9.96px;font-style:italic;font-weight:normal;">4.2. Selection Criteria for Considering Studies for This Review</text>
  <text x="97.795,105.406,108.253,111.1,113.595,119.475,124.366,127.556,130.403,135.089,140.783,143.972,148.12,150.625,153.882,157.561,162.903,171.541,174.036,176.883,182.577,186.921,189.768,195.667,201.644,206.331,212.308,214.813,218.961,222.15,228.049,234.027,236.874,241.56,245.708,248.203,252.351,258.25,261.332,264.59,269.276,272.965,277.651,283.628,286.123,289.381,293.069,298.411,307.049,309.544,315.522,318.369,321.45,324.708,329.394,333.083,337.769,343.463,346.65200000000004,349.147,354.841,359.527,368.166,373.057,376.247,381.588,384.435,389.777,395.216,398.063,402.407,404.902,410.243,414.10699999999997,416.603,420.751,426.092,428.939,431.786,437.763,440.268,448.907,453.799,456.646,459.492,464.932,470.626,475.517,481.211,485.555,488.402,493.088,497.236,499.682,502.177,507.069,512.762" y="461.778" svg_rhmargin="518.74" style="fill:#000000;font-family:MSSLTZ+URWPalladioL-Roma;font-size:9.96px;font-style:NORMAL;font-weight:normal;">All patients from included studies suffered from different hematologic or solid malignancies, and</text>
  <text x="76.535,79.848,85.762,90.63,96.28,98.911,103.992,109.642,113.483,118.351,123.219,129.428,132.059,135.372,140.92000000000002,143.552,149.66,154.741,158.755,162.067,165.024,169.536,172.493,178.601,183.682,186.994,191.862,194.494,197.451,203.36499999999998,206.007,211.088,217.00199999999998,219.634,224.502,229.745,235.852,240.72,244.734,247.691,256.664,261.531,267.446,270.758,275.839,278.796,281.428,285.737,289.05,295.177,301.386,307.036,309.668,314.749,320.369,325.917,332.045,335.358,337.989,341.302,347.216,352.084,354.726,359.593,362.794,368.942,373.454,378.535,383.047,388.697,391.329,396.41,402.324,408.533,411.165,415.473,420.554,423.938,428.806,432.119,437.769,440.4,445.949,449.333,451.975,455.288,459.119,463.986,469.067,472.38,481.353,486.22,492.134,495.447,498.079,506.554,509.511,512.824" y="475.287" svg_rhmargin="518.738" style="fill:#000000;font-family:MSSLTZ+URWPalladioL-Roma;font-size:9.96px;font-style:NORMAL;font-weight:normal;">they agreed to participate in an experimental study about the efﬁcacy and safety of treatment with</text>
  <text x="76.535,83.549,91.246,97.85499999999999,100.337,106.40100000000001,108.885,113.277,118.016,120.895,123.773,127.968,130.441,133.528,142.511,147.25,149.732,154.471,159.576,163.968,166.847,172.812,178.857,183.596,189.641,192.123,195.348,201.106,205.845,208.328,211.622,217.024,219.902,222.781,228.183,236.433,239.312,245.07,250.571,253.063,257.258,260.483,266.448,272.493,275.372,280.11,284.305,286.778,289.855,293.149,298.096,301.39,303.883,309.641,315.042,320.8,324.094,328.486,331.365,334.244,340.002,342.88,347.273,352.219,355.098,357.581,361.311,366.05,370.244,374.983,379.929,383.659,388.051,393.809,396.28200000000004,398.765,402.06,407.006,410.29999999999995,412.783,416.513,421.252,425.446,430.185,435.131,438.861,443.253,449.01099999999997,451.494,459.745,462.624,465.849,471.60699999999997,474.089,479.847,485.24899999999997,487.732,492.124,495.003,497.882,503.639,506.518,510.911,515.857" y="488.797" svg_rhmargin="518.736" style="fill:#000000;font-family:MSSLTZ+URWPalladioL-Roma;font-size:9.96px;font-style:NORMAL;font-weight:normal;">CAR T cells. We excluded the following studies: (1) non-clinical research, (2) research with no clinical</text>
  <text x="76.535,82.083,88.211,91.524,96.036,101.584,110.557,115.424,119.733,122.274,124.844,128.228,133.309,136.69299999999998,139.254,148.227,154.354,157.312,160.624,163.581,169.689,172.646,177.51399999999998,180.064,186.171,192.299,197.918,200.875,203.832,208.344,213.425,216.738,219.695,225.243,231.158,235.46699999999998,238.027,243.575,246.95899999999997,249.51,254.59099999999998,257.152,261.46,266.541,275.514,280.382,282.943,287.251,290.564,296.692,302.9,307.443,309.984,312.554,315.938,321.019,324.403,326.964,332.614,336.628,341.709,347.918,354.045,359.126,362.439,365.396,370.944,376.858,379.409,382.722,388.636,393.504,397.812,402.68,406.988,409.529,412.1,416.967,423.176,426.133,429.446,434.994,439.008,441.965,447.046,450.003,454.312,456.853,459.434,464.515,470.134,474.443,477.756,481.769,486.85,491.362,494.675,498.98400000000004,501.534,506.615,512.529" y="502.306" svg_rhmargin="518.738" style="fill:#000000;font-family:MSSLTZ+URWPalladioL-Roma;font-size:9.96px;font-style:NORMAL;font-weight:normal;">outcomes, (3) multiple publications of a same study, (4) graduation theses, editorials, abstracts and</text>
  <text x="76.535,79.434,84.206,87.454,90.702,95.474,99.409,103.633,106.124,108.615,113.596,119.394,125.48100000000001,127.972,131.289,136.271,139.589,142.079,148.086,153.885,158.308,163.748,172.545,178.532,181.431,186.203,189.451,194.223,200.31,202.801,207.025,210.273,216.28,222.367,225.267,230.039,234.26299999999998,236.753,240.071,245.052,250.034,253.351" y="515.816" svg_rhmargin="255.842" style="fill:#000000;font-family:MSSLTZ+URWPalladioL-Roma;font-size:9.96px;font-style:NORMAL;font-weight:normal;">letters, and (5) uncompleted studies [68].</text>
  <text x="76.535,81.516,84.007,88.988,91.479,94.567,97.885,103.424,106.194,109.511,112.281,116.704,119.47399999999999,121.964,128.609,132.485,137.466,140.236,144.111,151.304,153.795,158.218,160.988,163.479,169.018,172.335,177.875,182.856,185.625,189.501" y="539.029" svg_rhmargin="193.376" style="fill:#000000;font-family:AKYTAJ+URWPalladioL-Ital;font-size:9.96px;font-style:italic;font-weight:normal;">4.3. Initial Review of Studies</text>
  <text x="97.795,103.884,109.665,114.423,116.906,119.796,125.577,128.467,131.705,134.596,139.562,142.453,144.936,151.005,155.971,159.209,164.175,169.668,174.634,178.846,183.604,186.087,194.371,199.337,203.54899999999998,206.032,210.442,215.865,224.636,230.605,233.496,236.386,241.144,247.213,249.696,252.189,257.155,262.936,269.005,271.488,276.455,279.345,282.23600000000005,284.719,290.788,296.777,302.747,305.637,308.527,312.938,317.904,321.142,325.9,328.383,333.349,337.273,340.511,343.401,347.811,350.702,355.46,359.67199999999997,362.154,370.438,375.196,378.941,383.69899999999996,386.181,390.939,393.83,396.72,405.491,408.381,414.162,419.128,422.366,427.124,433.193,435.676,438.765,447.784,452.542,455.025,459.237,463.647,467.391,472.149,476.907,482.688,487.446,493.51500000000004,495.998,499.236,505.016,509.774,513.986" y="558.516" svg_rhmargin="518.744" style="fill:#000000;font-family:MSSLTZ+URWPalladioL-Roma;font-size:9.96px;font-style:NORMAL;font-weight:normal;">The initial database was compiled, and all duplicate articles were eliminated. We screened these</text>
  <text x="76.535,81.047,84.004,87.317,92.398,95.71,98.668,104.216,110.13,114.439,116.928,123.137,128.005,134.112,138.98,144.894,151.103,154.06,159.974,165.624,168.124,173.672,179.58599999999998,182.076,185.389,191.303,196.171,198.66,201.973,204.93,208.243,211.2,216.067,218.608,221.108,226.189,231.808,236.117,239.429,243.443,248.524,253.036,256.349,258.839,263.92,269.834,276.043,278.532,281.845,287.759,292.627,295.127,298.958,303.825,306.782,311.65,317.391,322.472,328.386,331.699,334.189,338.497,341.81,347.938,354.147,357.104,361.971,366.28000000000003,368.78,372.164,377.712,381.726,384.216,387.173,393.087,397.599,400.556,406.683,410.992,413.949,419.497,425.411,427.901,433.521,438.602,442.91,447.778,453.987,456.487,462.035,467.949,470.439,473.752,479.666,484.534,487.023,491.535,495.549,498.506,501.819,506.686,510.7,513.657" y="572.025" svg_rhmargin="518.738" style="fill:#000000;font-family:MSSLTZ+URWPalladioL-Roma;font-size:9.96px;font-style:NORMAL;font-weight:normal;">citations depending on the title, abstract and the relevant studies for inclusion based on the criteria</text>
  <text x="76.535,79.463,85.611,90.431,96.287,99.567,102.496,108.583,113.403,119.551,122.046,128.094,131.887,136.707,142.392,145.32,150.814,156.882,161.148,164.076,168.564,171.07999999999998,174.199,182.108,187.964,190.892,196.486,198.982,204.013,207.364,210.644,215.464,219.438,221.934,226.965,231.232,235.498,240.318,244.584,248.851,257.736,262.555,268.412,271.69199999999995,274.187,279.681,283.032,285.537,288.818,294.674,299.49399999999997,301.989,305.34,311.407,314.336,317.264,320.614,323.895,328.714,333.906,337.186,339.682,344.713,348.688,351.968,354.896,359.364,362.292,367.112,371.37800000000004,373.874,379.438,385.032,387.538,390.818,399.21,404.70399999999995,407.2,412.231,418.298,421.579,427.435,432.929,436.903,441.17,443.68600000000004,446.181,449.461,455.317,460.137,462.643,466.909,470.189,476.257,482.405,485.333,490.153,494.41900000000004,496.914,505.306,510.126,513.92" y="585.534" svg_rhmargin="518.74" style="fill:#000000;font-family:MSSLTZ+URWPalladioL-Roma;font-size:9.96px;font-style:NORMAL;font-weight:normal;">identiﬁed previously. Only after assessment of the full-text articles by two authors, the studies were</text>
  <text x="76.535,82.442,88.124,93.006,95.847,98.688,104.116,106.548,110.687,115.364,118.205,122.882,127.217,130.399,135.076,141.041,143.463,146.714,152.045,155.90099999999998,158.332,161.173,166.856,171.191,174.032,179.919,184.059,186.9,192.231,197.91299999999998,200.344,203.185,208.867,211.289,214.472,220.154,224.82999999999998,227.262,230.933,235.609,241.126,243.967,248.643,255.878,258.31899999999996,261.385,268.98,274.663,280.091,282.512,288.478,291.319,295.459,300.34,305.769,309.449,314.126,318.803,327.424,332.1,337.783,340.966,343.397,351.539,356.421,360.561,362.982,366.663,371.339,375.479,380.81,383.651,389.167,393.844,399.80899999999997,402.23,407.63,413.058,415.489,421.455,424.296,428.435,432.77,438.658,442.797,446.937,449.778,455.109,460.791,463.222,468.621,473.298,476.481,484.623,489.3,493.977,499.659,502.08,505.263,513.406" y="599.044" svg_rhmargin="518.737" style="fill:#000000;font-family:MSSLTZ+URWPalladioL-Roma;font-size:9.96px;font-style:NORMAL;font-weight:normal;">ﬁnally selected for inclusion in the review. Any disagreement was resolved by discussion between two</text>
  <text x="76.535,81.516,87.524,90.772,96.57,102.009,105.945,110.169,112.659,115.977,120.958,125.94,129.257" y="612.553" svg_rhmargin="131.748" style="fill:#000000;font-family:MSSLTZ+URWPalladioL-Roma;font-size:9.96px;font-style:NORMAL;font-weight:normal;">authors [68].</text>
  <text x="76.535,81.516,84.007,88.988,91.479,94.567,102.318,106.742,110.059,114.483,116.973,124.166,128.779,132.654,135.972,139.847,144.271,148.326,151.643,154.413,158.836" y="635.766" svg_rhmargin="164.375" style="fill:#000000;font-family:AKYTAJ+URWPalladioL-Ital;font-size:9.96px;font-style:italic;font-weight:normal;">4.4. Data Abstraction</text>
  <text x="97.795,104.024,109.938,114.806,117.987,124.195,129.276,132.589,137.67,140.851,146.399,149.783,152.954,155.911,161.825,164.782,168.095,171.052,176.133,179.09,182.27,186.112,190.979,196.721,199.678,204.545,213.01999999999998,216.191,224.666,229.533,233.374,238.242,241.423,245.254,250.121,254.633,260.181,264.012,270.221,275.089,281.298,284.478,290.027,295.941,299.122,304.20300000000003,307.383,311.692,315.005,320.086,326.0,332.209,337.29,341.121,347.33,350.51,356.719,361.8,365.113,370.194,373.374,378.242,383.485,386.798,390.812,395.893,400.405,403.718,406.675,412.223,418.137,421.318,424.702,430.25,434.264,443.237,446.408,452.027,457.67699999999996,460.858,466.477,472.026,475.338,481.252,484.433,489.514,495.642,498.955,504.869,510.417,514.431" y="655.2529999999999" svg_rhmargin="518.74" style="fill:#000000;font-family:MSSLTZ+URWPalladioL-Roma;font-size:9.96px;font-style:NORMAL;font-weight:normal;">The data of initial review were recorded on a standard data extraction form by both authors</text>
  <text x="76.535,79.42,85.189,91.246,95.994,101.951,106.7,112.469,118.526,123.274,129.043,132.275,135.159,139.561,142.03900000000002,145.131,151.208,156.977,161.725,164.204,169.973,174.929,183.682,188.42999999999998,190.909,196.321,199.62199999999999,202.1,205.332,211.101,215.849,218.328,224.325,228.24,232.443,235.675,238.153,243.109,249.087,252.318,258.088,263.5,266.682,269.16,271.639,277.596,283.574,289.055,291.94,294.825,299.226,304.182,307.414,310.298,315.711,321.48,323.958,329.47,334.218,339.174,342.356,344.834,347.313,350.544,356.314,361.062,363.55,369.319,375.297,384.05,389.531,394.28,398.19599999999997,400.673,406.086,409.387,411.865,417.823,422.779,426.01,428.895,433.643,439.413,442.644,446.847,449.325,451.804,455.035,460.547,466.504,471.252,475.455,477.934,483.346,486.647,489.135,496.163,503.875,510.497,512.975" y="668.763" svg_rhmargin="519.052" style="fill:#000000;font-family:MSSLTZ+URWPalladioL-Roma;font-size:9.96px;font-style:NORMAL;font-weight:normal;">independently. The name of the ﬁrst author, publication year, the number of patients, types of CAR T</text>
  <text x="76.535,81.016,85.85,88.787,91.724,96.003,98.526,101.029,106.731,111.565,116.046,119.336,124.846,128.096,130.619,133.121,138.632,142.618,145.555,151.166,154.103,159.977,165.023,167.96,170.462,176.648,179.152,183.632,188.467,191.403,194.34,196.843,201.122,206.632,212.718,216.523,221.004,225.838,230.117,232.64,235.143,240.754,245.588,251.462,256.296,258.798,262.089,266.075,271.121,276.995,281.274,287.44,293.525,298.006,301.296,304.233,309.743,315.617,318.11,327.021,331.855,335.145,341.019,346.529,352.695,355.218,357.731,363.917,366.411,370.892,375.726,378.663,381.6,384.102,389.148,393.629,396.919,399.856,405.558,410.604,413.894,418.728,421.231,430.142,434.977,438.267,444.14,449.65,455.817,458.34000000000003,460.843,467.029,469.532,474.013,478.847,481.784,484.721,487.223,491.704,497.79,500.727,504.017,510.102,513.907" y="682.272" svg_rhmargin="518.741" style="fill:#000000;font-family:MSSLTZ+URWPalladioL-Roma;font-size:9.96px;font-style:NORMAL;font-weight:normal;">cells, vector, original T cell sources, gene transduction method, T cell activate method, T cell culture</text>
  <text svg_rhmargin="227.652" x="76.535,79.718,82.559,91.18,95.857,99.996,102.437,104.849,111.771,119.367,125.88900000000001,128.271,134.256,136.648,140.983,145.66,148.501,151.342,153.734,159.602,164.278,168.135,172.274,175.116,179.255,182.438,187.115,192.797,197.132,201.808,204.191,207.374,210.215,218.836,223.512,227.652" y="695.781" style="fill:#000000;font-family:MSSLTZ+URWPalladioL-Roma;font-size:9.96px;font-style:NORMAL;font-weight:normal;">times, CAR T cell persistence times </text>
  <text x="230.042,232.941,238.739,241.23,246.859,249.758,255.387" y="695.781" svg_rhmargin="260.827" style="fill:#000000;font-family:MSSLTZ+URWPalladioL-Roma;font-size:9.96px;font-style:NORMAL;font-weight:normal;">in vivo</text>
  <text x="260.826,263.267,265.678,268.861,274.544,279.21999999999997,281.602,284.785,290.214,296.081,300.758,304.89799999999997,307.29,312.621,315.87199999999996,318.264,326.885,331.767,334.608,337.449,342.877,348.559,353.441,359.123,363.458,366.299,370.976,375.116,377.55699999999996,379.958,383.141,388.824,393.5,395.892,404.513,409.19,412.373,418.055,423.386,429.351,431.743,437.074,440.325,442.707,445.549,450.977,459.598,465.466,471.148,476.479,482.444,487.121,492.989,495.83,500.506,503.689,506.53,511.861,517.543" y="695.781" svg_rhmargin="519.984" style="fill:#000000;font-family:MSSLTZ+URWPalladioL-Roma;font-size:9.96px;font-style:NORMAL;font-weight:normal;">, the types of malignancies, the method of lymphodepletion,</text>
  <text x="76.535,79.776,85.205,88.446,93.418,96.311,98.807,103.778,109.853,118.632,121.526,127.312,130.206,134.421,137.663,141.59,146.561,149.803,152.696,158.125,163.912,166.417,172.492,177.92,182.136,186.899,191.114,193.6,196.096,200.51,203.404,206.297,212.084,214.977,219.391,224.363,227.256,229.762,233.51,238.273,242.488,248.464,253.893,259.679,263.895,268.65799999999996,271.153,276.124,281.911,287.986,290.482,293.723,299.51,304.27299999999997,306.778,310.993,313.887,319.962,324.72499999999997,327.22,331.982,335.114,338.425,343.188,347.602,350.844,355.06,357.565,362.536,366.752,370.968,376.396,380.811,383.704,388.675,391.917,396.679,402.75399999999996,405.25,413.542,416.435,419.677,425.464,427.959,435.008,442.744,449.386,451.891,457.98600000000005,460.481,463.723,469.509,474.272,478.199,483.171,489.146,494.67400000000004,497.17,505.462,510.225,513.973" y="709.2909999999999" svg_rhmargin="518.736" style="fill:#000000;font-family:MSSLTZ+URWPalladioL-Roma;font-size:9.96px;font-style:NORMAL;font-weight:normal;">total administration doses, clinical response and the side effects associated with CAR T therapy were</text>
  <text x="76.535,81.516,84.415,87.31400000000001,89.805,94.229,99.668,102.567,105.466,110.238,114.662,117.91,122.682,128.769,131.26,136.769,142.308,144.799,148.047,156.355,161.795,164.286,169.267,175.274,178.522,184.32,189.76,193.695,197.91899999999998,200.41,203.309,209.107,211.598,216.37,221.351,225.775,231.573,234.064,238.288,241.536,247.543,253.63,258.063" y="722.8" svg_rhmargin="260.554" style="fill:#000000;font-family:MSSLTZ+URWPalladioL-Roma;font-size:9.96px;font-style:NORMAL;font-weight:normal;">all collected by two authors in each study.</text>
 </g>
</svg>
