<?xml version="1.0" encoding="UTF-8"?>
<svg height="870.031005859375" width="672.0029907226562" xmlns="http://www.w3.org/2000/svg">
 <g style="fill:none;">
  <path d=" M 0.05999799817800522 826.072021484375 L 22.619997024536133 826.072021484375 L 22.619997024536133 826.35546875 L 0.05999799817800522 826.35546875 Z " style="fill:none;stroke:#000000;stroke-width:1.0;"/>
  <path d=" M 33.67599868774414 837.4110107421875 L 33.959449768066406 837.4110107421875 L 33.959449768066406 860.031005859375 L 33.67599868774414 860.031005859375 Z " style="fill:none;stroke:#000000;stroke-width:1.0;"/>
  <path d=" M 627.9869995117188 837.4110107421875 L 628.2703857421875 837.4110107421875 L 628.2703857421875 860.031005859375 L 627.9869995117188 860.031005859375 Z " style="fill:none;stroke:#000000;stroke-width:1.0;"/>
  <path d=" M 639.3259887695312 826.072021484375 L 662.0029907226562 826.072021484375 L 662.0029907226562 826.35546875 L 639.3259887695312 826.35546875 Z " style="fill:none;stroke:#000000;stroke-width:1.0;"/>
  <path d=" M 639.3259887695312 33.731998443603516 L 662.0029907226562 33.731998443603516 L 662.0029907226562 34.015480041503906 L 639.3259887695312 34.015480041503906 Z " style="fill:none;stroke:#000000;stroke-width:1.0;"/>
  <path d=" M 627.9869995117188 0.0 L 628.2703857421875 0.0 L 628.2703857421875 22.677000045776367 L 627.9869995117188 22.677000045776367 Z " style="fill:none;stroke:#000000;stroke-width:1.0;"/>
  <path d=" M 33.67599868774414 0.0 L 33.959449768066406 0.0 L 33.959449768066406 22.677000045776367 L 33.67599868774414 22.677000045776367 Z " style="fill:none;stroke:#000000;stroke-width:1.0;"/>
  <path d=" M 0.05999799817800522 33.731998443603516 L 22.619997024536133 33.731998443603516 L 22.619997024536133 34.015480041503906 L 0.05999799817800522 34.015480041503906 Z " style="fill:none;stroke:#000000;stroke-width:1.0;"/>
  <path d=" M 71.88700103759766 766.885009765625 L 577.02099609375 766.885009765625 L 577.02099609375 767.6220092773438 L 71.88700103759766 767.6220092773438 Z " style="fill:none;stroke:#000000;stroke-width:1.0;"/>
  <path d=" M 71.88700103759766 508.5350036621094 L 577.02099609375 508.5350036621094 L 577.02099609375 509.2720031738281 L 71.88700103759766 509.2720031738281 Z " style="fill:none;stroke:#000000;stroke-width:1.0;"/>
  <path d="M96.094 40.202 L552.812 40.202 L552.812 272.359 L96.094 272.359 " style="fill:none;stroke:#000000;stroke-width:1.0;"/>
  <rect style="stroke:blue;stroke-width:0.3;" x="96.094" y="40.202" height="232.157" width="456.797" title="6"/>
  <text x="96.094" y="40.202" class="image" id="image.6.1" width="456" height="232">image.6.1.96_553.40_272</text>
  <text svg_rhmargin="119.53" x="89.405,93.762,95.548,99.905,104.179,106.743,110.868,113.388,117.513,119.53" y="283.35799999999995" style="fill:#171615;font-family:LJLBCM+AdvOTf94803d4;font-size:7.47px;font-style:NORMAL;font-weight:normal;">Figure 3. </text>
  <text x="123.307,127.431,132.101,136.771,139.236,143.361,147.32899999999998,149.837,154.111,158.236,162.36,163.683,167.493,171.767,174.327,176.658,180.469,184.048,188.015,189.338,191.512,195.091,197.626,199.494,203.619,205.95,208.454,212.264,214.132,216.0,219.811,223.621,225.796,229.375,231.866,235.99,237.858,240.37,245.346,250.016" y="283.35799999999995" svg_rhmargin="254.992" style="fill:#171615;font-family:LJLAKP+AdvOT6e5d2ec0;font-size:7.47px;font-style:NORMAL;font-weight:normal;">TSA on pooled results for effects of RAR</text>
  <text x="255.004" y="283.35799999999995" svg_rhmargin="259.592" style="fill:#171615;font-family:LJLAKN+AdvP7DA6;font-size:7.47px;font-style:NORMAL;font-weight:normal;">b</text>
  <text svg_rhmargin="471.947" x="259.596,263.721,266.229,270.503,272.834,276.959,283.101,287.225,289.399,293.21,295.541,298.088,302.056,305.478,309.752,313.562,315.894,322.035,325.846,328.02,331.988,335.503,336.825,340.636,342.81,344.132,348.257,352.225,354.72,358.844,362.812,365.321,369.445,374.653,380.795,383.515,387.094,389.268,393.079,397.293,401.104,403.586,407.711,409.579,412.09,416.364,418.696,422.506,426.317,429.896,432.07,434.596,438.406,442.217,446.184,449.995,453.806,456.137,458.154,460.672,465.648,467.277,471.947" y="283.35799999999995" style="fill:#171615;font-family:LJLAKP+AdvOT6e5d2ec0;font-size:7.47px;font-style:NORMAL;font-weight:normal;">2 promoter hypermethylation on TNM-stage of breast cancer. RIS </text>
  <text x="472.93" y="283.35799999999995" svg_rhmargin="477.988" style="fill:#171615;font-family:LJLALD+AdvOTb0c9bf5d;font-size:7.47px;font-style:NORMAL;font-weight:normal;">=</text>
  <text x="478.94,481.271,485.081,489.355,493.323,494.645,496.977,500.787,505.061,507.567,508.89,512.857,514.725,518.849,521.181,527.322,531.206,533.381,534.703,538.828,542.7959999999999,545.265,548.844,550.167,553.589,557.399" y="283.35799999999995" svg_rhmargin="559.416" style="fill:#171615;font-family:LJLAKP+AdvOT6e5d2ec0;font-size:7.47px;font-style:NORMAL;font-weight:normal;">required information size.</text>
  <path d=" M 71.88700103759766 472.8190002441406 L 577.02099609375 472.8190002441406 L 577.02099609375 473.5560302734375 L 71.88700103759766 473.5560302734375 Z " style="fill:none;stroke:#000000;stroke-width:1.0;"/>
  <path d=" M 71.88700103759766 80.95700073242188 L 577.02099609375 80.95700073242188 L 577.02099609375 81.69403076171875 L 71.88700103759766 81.69403076171875 Z " style="fill:none;stroke:#000000;stroke-width:1.0;"/>
  <rect style="stroke:blue;stroke-width:0.3;" x="96.094" y="334.268" height="348.151" width="456.797" title="6"/>
  <text x="96.094" y="334.268" class="image" id="image.6.2" width="456" height="348">image.6.2.96_553.334_682</text>
  <text svg_rhmargin="101.104" x="71.887,76.243,78.03,82.387,86.661,89.225,93.35,94.963,99.087,101.104" y="693.417" style="fill:#171615;font-family:LJLBCM+AdvOTf94803d4;font-size:7.47px;font-style:NORMAL;font-weight:normal;">Figure 4. </text>
  <text x="104.881,108.849,112.973,115.304,119.115,122.694,124.86800000000001,126.479,130.753,132.076,136.2,138.374,140.028,143.839,147.806,152.08,153.69,155.558,159.526,163.493,167.461,171.271,172.594,174.211,178.485,179.808,183.932,186.106,187.76,189.628,193.752,196.083,197.68,201.491,205.07,208.649,212.773,216.584,217.907,221.717,223.891,225.214,229.338,233.306,236.88500000000002,238.553,242.677,244.545,246.149,251.125,255.795" y="693.417" svg_rhmargin="260.771" style="fill:#171615;font-family:LJLAKP+AdvOT6e5d2ec0;font-size:7.47px;font-style:NORMAL;font-weight:normal;">Forest plot and funnel plot for associations of RAR</text>
  <text x="260.786" y="693.417" svg_rhmargin="265.374" style="fill:#171615;font-family:LJLAKN+AdvP7DA6;font-size:7.47px;font-style:NORMAL;font-weight:normal;">b</text>
  <text x="265.378,269.503,271.103,275.378,277.709,281.834,287.975,292.1,294.274,298.085,300.416,302.056,306.024,309.446,313.72,317.53,319.861,326.092,329.903,332.077,336.044,339.467,340.789,344.6,346.774,348.096,352.221,356.189,357.837,363.359,364.682,366.856,370.824,372.407,374.738,376.06,379.639,383.375,385.392,387.033,391.157,396.365,402.507,405.227,408.806,410.98,414.79,418.915,422.725,424.742,426.431,430.241,434.209,438.483,440.093,441.415,444.838,450.979,455.253,459.221,460.841,464.809,468.933,473.207,477.018,478.641,484.783,488.594,490.768,494.579,498.158,500.332,504.143,507.722,509.139,512.718,514.298,518.423,520.291,521.895,526.169,528.5,532.31,536.121,539.7,541.874,543.493,547.303,551.114,555.081,558.892,562.703,565.034,567.051,568.719,570.505,575.175" y="693.417" svg_rhmargin="576.961" style="fill:#171615;font-family:LJLAKP+AdvOT6e5d2ec0;font-size:7.47px;font-style:NORMAL;font-weight:normal;">2 promoter hypermethylation with risk, TNM-stage, and lymph node metastasis of breast cancer. (A)</text>
  <text svg_rhmargin="428.209" x="71.886,75.853,79.978,82.309,86.12,89.699,91.873,93.427,97.701,99.023,103.148,105.322,106.919,108.787,112.911,115.242,116.783,119.114,120.437,124.016,127.752,129.769,131.352,133.138,138.114,139.9,141.443,143.311,147.435,149.767,153.577,157.156,159.33,160.944,165.218,166.54,170.665,172.839,174.379,176.247,180.371,182.702,184.243,188.368,193.575,199.717,202.437,206.016,208.278,212.089,216.213,220.024,222.041,223.584,225.37,230.578,232.364,233.958,235.826,239.951,242.282,246.092,249.671,251.845,253.402,257.676,258.998,263.123,265.29699999999997,266.837,268.705,272.829,275.16,276.757,278.08,281.502,287.644,291.918,295.886,297.449,301.417,305.541,309.815,313.626,315.193,321.336,325.146,327.321,331.131,334.71,336.884,340.695,344.274,345.596,349.263,351.28,352.834,354.62,359.679,361.465,362.982,364.85,368.817,372.846,376.814,380.624,381.947,383.504,387.778,389.1,393.225,395.399,396.939,398.807,402.931,405.262,406.803,409.134,410.457,414.036,417.772,419.789,421.373,426.58,428.209" y="702.374" style="fill:#171615;font-family:LJLAKP+AdvOT6e5d2ec0;font-size:7.47px;font-style:NORMAL;font-weight:normal;">Forest plot for risk; (B) forest plot for TNM-stage; (C) forest plot for lymph node metastasis; (D) funnel plot for risk. CI </text>
  <text x="429.163" y="702.374" svg_rhmargin="434.221" style="fill:#171615;font-family:LJLALD+AdvOTb0c9bf5d;font-size:7.47px;font-style:NORMAL;font-weight:normal;">=</text>
  <text x="435.172,438.984,443.109" y="702.374" svg_rhmargin="447.077" style="fill:#171615;font-family:LJLAKP+AdvOT6e5d2ec0;font-size:7.47px;font-style:NORMAL;font-weight:normal;">con</text>
  <text x="447.135" y="702.374" svg_rhmargin="450.4" style="fill:#171615;font-family:LJLALC+AdvOT6e5d2ec0+fb;font-size:7.47px;font-style:NORMAL;font-weight:normal;">ﬁ</text>
  <text x="450.366,454.64,458.451,462.418,466.229,470.03999999999996,471.624,472.947,476.914,479.088,482.899,485.23,488.652,492.542,493.865,497.444,499.461,500.989,504.957,509.081,513.206,514.765,520.286" y="702.374" svg_rhmargin="525.262" style="fill:#171615;font-family:LJLAKP+AdvOT6e5d2ec0;font-size:7.47px;font-style:NORMAL;font-weight:normal;">dence intervals, Log OR</text>
  <text x="526.221" y="702.374" svg_rhmargin="531.279" style="fill:#171615;font-family:LJLALD+AdvOTb0c9bf5d;font-size:7.47px;font-style:NORMAL;font-weight:normal;">=</text>
  <text x="532.23,533.553,537.677,541.802,543.341,547.466,551.74,556.014,559.593,561.198,563.53,567.34,569.514,570.837,574.961" y="702.374" svg_rhmargin="576.978" style="fill:#171615;font-family:LJLAKP+AdvOT6e5d2ec0;font-size:7.47px;font-style:NORMAL;font-weight:normal;">log odds ratio,</text>
  <text x="71.887,77.409" y="711.332" svg_rhmargin="82.385" style="fill:#171615;font-family:LJLAKP+AdvOT6e5d2ec0;font-size:7.47px;font-style:NORMAL;font-weight:normal;">OR</text>
  <text x="83.339" y="711.332" svg_rhmargin="88.397" style="fill:#171615;font-family:LJLALD+AdvOTb0c9bf5d;font-size:7.47px;font-style:NORMAL;font-weight:normal;">=</text>
  <text x="89.348,93.473,97.746,102.02,105.59899999999999,108.112,110.443,114.254,116.428,117.751,121.875,123.892,126.423,130.002,132.019,135.83,137.847,140.368,144.492,146.35999999999999,148.872,150.194,154.318,158.443,163.965" y="711.332" svg_rhmargin="168.941" style="fill:#171615;font-family:LJLAKP+AdvOT6e5d2ec0;font-size:7.47px;font-style:NORMAL;font-weight:normal;">odds ratio, s.e. of logOR</text>
  <text x="169.908" y="711.332" svg_rhmargin="174.966" style="fill:#171615;font-family:LJLALD+AdvOTb0c9bf5d;font-size:7.47px;font-style:NORMAL;font-weight:normal;">=</text>
  <text x="175.861,179.44,181.614,185.425,189.467,193.74,197.551,199.882,204.156,206.644,210.454,212.785,215.117,219.241,221.572,224.104,228.229,230.097,232.608,233.931,238.055,242.18,244.683,248.808,253.082,257.355,260.934,263.447,265.778,269.589,271.763,273.086,277.21" y="711.332" svg_rhmargin="279.227" style="fill:#171615;font-family:LJLAKP+AdvOT6e5d2ec0;font-size:7.47px;font-style:NORMAL;font-weight:normal;">standard error of log odds ratio.</text>
  <text svg_rhmargin="195.665" x="71.887,77.777,79.188,81.808,85.873,90.105,94.664,97.341,101.9,103.311,107.71,111.942,116.341,118.94,125.492,129.557,134.116,135.526,139.591,141.002,145.234,149.299,151.878,153.783,158.182,162.582,166.981,171.381,173.286,175.914,180.314,184.714,186.866,191.265,195.664" y="9.870999999999981" style="fill:#171615;font-family:LJLAKP+AdvOT6e5d2ec0;font-size:7.97px;font-style:NORMAL;font-weight:normal;">Qi and Xiong Medicine (2018) 97:51 </text>
  <text x="542.723,549.944,554.503,559.317,561.31,565.869,567.861,572.508" y="9.870999999999981" svg_rhmargin="577.067" style="fill:#171615;font-family:LJLAKO+AdvOT34fe1490.B;font-size:7.97px;font-style:NORMAL;font-weight:normal;">Medicine</text>
  <text x="322.243" y="739.625" svg_rhmargin="326.643" style="fill:#171615;font-family:LJLBCM+AdvOTf94803d4;font-size:7.97px;font-style:NORMAL;font-weight:normal;">6</text>
 </g>
</svg>
