<?xml version="1.0" encoding="UTF-8"?>
<svg height="870.031005859375" width="672.0029907226562" xmlns="http://www.w3.org/2000/svg">
 <g style="fill:none;">
  <path d=" M 0.05999799817800522 826.072021484375 L 22.619997024536133 826.072021484375 L 22.619997024536133 826.35546875 L 0.05999799817800522 826.35546875 Z " style="fill:none;stroke:#000000;stroke-width:1.0;"/>
  <path d=" M 33.67599868774414 837.4110107421875 L 33.959449768066406 837.4110107421875 L 33.959449768066406 860.031005859375 L 33.67599868774414 860.031005859375 Z " style="fill:none;stroke:#000000;stroke-width:1.0;"/>
  <path d=" M 627.9869995117188 837.4110107421875 L 628.2703857421875 837.4110107421875 L 628.2703857421875 860.031005859375 L 627.9869995117188 860.031005859375 Z " style="fill:none;stroke:#000000;stroke-width:1.0;"/>
  <path d=" M 639.3259887695312 826.072021484375 L 662.0029907226562 826.072021484375 L 662.0029907226562 826.35546875 L 639.3259887695312 826.35546875 Z " style="fill:none;stroke:#000000;stroke-width:1.0;"/>
  <path d=" M 639.3259887695312 33.731998443603516 L 662.0029907226562 33.731998443603516 L 662.0029907226562 34.015480041503906 L 639.3259887695312 34.015480041503906 Z " style="fill:none;stroke:#000000;stroke-width:1.0;"/>
  <path d=" M 627.9869995117188 0.0 L 628.2703857421875 0.0 L 628.2703857421875 22.677000045776367 L 627.9869995117188 22.677000045776367 Z " style="fill:none;stroke:#000000;stroke-width:1.0;"/>
  <path d=" M 33.67599868774414 0.0 L 33.959449768066406 0.0 L 33.959449768066406 22.677000045776367 L 33.67599868774414 22.677000045776367 Z " style="fill:none;stroke:#000000;stroke-width:1.0;"/>
  <path d=" M 0.05999799817800522 33.731998443603516 L 22.619997024536133 33.731998443603516 L 22.619997024536133 34.015480041503906 L 0.05999799817800522 34.015480041503906 Z " style="fill:none;stroke:#000000;stroke-width:1.0;"/>
  <text x="85.039,88.958,93.441,98.39,102.308,106.227,109.679,111.911,115.363,117.784,121.236,126.186,128.607,130.846,137.75,141.668,143.943,148.892,152.344,156.827,163.731,167.65,172.59900000000002,174.84,177.727,182.676,186.594,188.842,191.729,196.679,200.131,204.049,207.501,210.388,212.596,217.545,219.966,224.915,227.803,231.255,233.515,236.402,241.351,243.607,248.09,252.008,256.957,261.907,264.328,267.78,271.698,273.936,276.823,281.773,285.69100000000003,287.939,292.888,297.371,301.29,304.742,309.225,311.646,314.067,316.284,323.654" y="412.334" svg_rhmargin="330.092" style="fill:#171615;font-family:LJLAMH+AdvOTbc475f09;font-size:8.97px;font-style:NORMAL;font-weight:normal;">cancer risk, we drawed the forest plots to acquire the overall OR</text>
  <text x="85.039,89.523,94.472,99.42099999999999,103.861,108.811,113.76,122.726,127.219,133.656,136.544,138.965,143.432,149.314,154.264,158.18200000000002,162.651,166.103,170.021,173.473,178.423,180.843,183.731,187.183,191.62,195.072,200.021,204.971,211.875,215.793,220.74200000000002,225.238,228.125,233.075,237.558,240.445,244.91,247.797,252.747,256.665,260.117,264.035,268.494,275.398,279.317,282.769,286.687,291.171,294.623,297.044,301.527,306.477" y="423.275" svg_rhmargin="308.898" style="fill:#171615;font-family:LJLAMH+AdvOTbc475f09;font-size:8.97px;font-style:NORMAL;font-weight:normal;">and 95% CI. The results showed that there were signi</text>
  <text x="308.921" y="423.275" svg_rhmargin="313.87" style="fill:#171615;font-family:LJLAMI+AdvOTbc475f09+fb;font-size:8.97px;font-style:NORMAL;font-weight:normal;">ﬁ</text>
  <text x="313.853,317.771,322.255,327.204" y="423.275" svg_rhmargin="330.091" style="fill:#171615;font-family:LJLAMH+AdvOTbc475f09;font-size:8.97px;font-style:NORMAL;font-weight:normal;">cant</text>
  <text x="85.039,89.523,92.975,96.427,101.376,105.294,107.715,112.198,115.085,117.506,122.456,127.405,130.857,137.706,142.655,145.542,152.332,159.236,165.674,170.624,177.061,179.482,186.29,191.24,200.206,205.622,213.091,218.04,220.46099999999998,227.278,231.761,236.711,241.66000000000003,248.424,253.374,258.323,263.272,270.081,274.564,278.482,283.431,287.349,294.175,299.124,302.576,307.526,314.896,319.845,322.732,326.651" y="434.274" svg_rhmargin="330.103" style="fill:#171615;font-family:LJLAMH+AdvOTbc475f09;font-size:8.97px;font-style:NORMAL;font-weight:normal;">associations of DAPK, hMLH1, and p14 gene promoter</text>
  <text x="85.039,89.989,94.472,99.421,103.34,106.792,114.162,118.08,120.967,125.917,130.4,132.821,137.304,140.191,142.612,147.561,152.51000000000002,157.32,164.224,166.645,169.532,174.48100000000002,179.26,184.209,187.661,191.58,196.063,199.515,202.402,207.209,211.127,215.61,220.56,224.478,228.396,231.84799999999998,236.632,240.084,242.505,245.957,250.906,253.327,258.118,263.067,268.016,270.903,275.635,280.585,285.534,288.421,293.21,298.159,303.109,308.058,312.826,317.309,321.227,326.176" y="445.215" svg_rhmargin="330.094" style="fill:#171615;font-family:LJLAMH+AdvOTbc475f09;font-size:8.97px;font-style:NORMAL;font-weight:normal;">hypermethylation with breast cancer risk, but not p15 gene</text>
  <text x="85.039,89.989,93.441,98.39,105.76,110.71,113.597,117.515,120.967,123.306,128.255,132.738,137.688,141.606,145.058,152.428,156.347,159.234,164.183,168.666,171.087,175.57,178.457,180.878,185.828,190.77700000000002,193.092,195.979,202.883,209.321,214.271,220.708,223.129,225.462,232.833" y="456.157" svg_rhmargin="239.271" style="fill:#171615;font-family:LJLAMH+AdvOTbc475f09;font-size:8.97px;font-style:NORMAL;font-weight:normal;">promoter hypermethylation (DAPK, OR</text>
  <text x="240.379" y="456.157" svg_rhmargin="246.449" style="fill:#171615;font-family:LJLALD+AdvOTb0c9bf5d;font-size:8.97px;font-style:NORMAL;font-weight:normal;">=</text>
  <text svg_rhmargin="300.046" x="247.579,252.528,254.949,259.898,264.848,267.269,269.575,274.524,279.474,288.44,290.721,297.159,300.046" y="456.157" style="fill:#171615;font-family:LJLAMH+AdvOTbc475f09;font-size:8.97px;font-style:NORMAL;font-weight:normal;">4.93, 95% CI </text>
  <text x="301.154" y="456.157" svg_rhmargin="307.224" style="fill:#171615;font-family:LJLALD+AdvOTb0c9bf5d;font-size:8.97px;font-style:NORMAL;font-weight:normal;">=</text>
  <text x="308.354,313.303,315.724,320.674" y="456.157" svg_rhmargin="325.623" style="fill:#171615;font-family:LJLAMH+AdvOTbc475f09;font-size:8.97px;font-style:NORMAL;font-weight:normal;">3.17</text>
  <text x="325.646" y="456.157" svg_rhmargin="330.129" style="fill:#171615;font-family:LJLBEN+AdvOTbc475f09+20;font-size:8.97px;font-style:NORMAL;font-weight:normal;">–</text>
  <text x="85.04,89.99,92.411,97.36,102.309,104.73,109.247,112.135,117.084,120.536,125.065,130.014,138.981,144.396,151.865,156.815,159.236,163.729,171.099" y="467.155" svg_rhmargin="177.537" style="fill:#171615;font-family:LJLAMH+AdvOTbc475f09;font-size:8.97px;font-style:NORMAL;font-weight:normal;">7.65; for hMLH1, OR</text>
  <text x="178.64" y="467.155" svg_rhmargin="184.71" style="fill:#171615;font-family:LJLALD+AdvOTb0c9bf5d;font-size:8.97px;font-style:NORMAL;font-weight:normal;">=</text>
  <text svg_rhmargin="242.73" x="185.84,190.79,193.211,198.16,203.109,205.53,210.048,214.997,219.946,228.912,233.405,239.843,242.73" y="467.155" style="fill:#171615;font-family:LJLAMH+AdvOTbc475f09;font-size:8.97px;font-style:NORMAL;font-weight:normal;">1.84, 95% CI </text>
  <text x="243.894" y="467.155" svg_rhmargin="249.964" style="fill:#171615;font-family:LJLALD+AdvOTb0c9bf5d;font-size:8.97px;font-style:NORMAL;font-weight:normal;">=</text>
  <text x="251.094,256.044,258.465,263.414" y="467.155" svg_rhmargin="268.363" style="fill:#171615;font-family:LJLAMH+AdvOTbc475f09;font-size:8.97px;font-style:NORMAL;font-weight:normal;">1.26</text>
  <text x="268.329" y="467.155" svg_rhmargin="272.812" style="fill:#171615;font-family:LJLBEN+AdvOTbc475f09+20;font-size:8.97px;font-style:NORMAL;font-weight:normal;">–</text>
  <text x="272.865,277.814,280.235,285.184,290.134,292.555,297.015,299.902,304.852,308.304,312.833,317.782,322.732,327.681" y="467.155" svg_rhmargin="330.102" style="fill:#171615;font-family:LJLAMH+AdvOTbc475f09;font-size:8.97px;font-style:NORMAL;font-weight:normal;">1.29; for p14,</text>
  <text x="85.04,92.411" y="478.096" svg_rhmargin="98.849" style="fill:#171615;font-family:LJLAMH+AdvOTbc475f09;font-size:8.97px;font-style:NORMAL;font-weight:normal;">OR</text>
  <text x="100.007" y="478.096" svg_rhmargin="106.077" style="fill:#171615;font-family:LJLALD+AdvOTb0c9bf5d;font-size:8.97px;font-style:NORMAL;font-weight:normal;">=</text>
  <text svg_rhmargin="168.688" x="107.15,112.1,117.049,119.47,124.419,129.369,131.79,136.176,141.125,146.075,155.041,159.363,165.801,168.688" y="478.096" style="fill:#171615;font-family:LJLAMH+AdvOTbc475f09;font-size:8.97px;font-style:NORMAL;font-weight:normal;">22.52, 95% CI </text>
  <text x="169.853" y="478.096" svg_rhmargin="175.923" style="fill:#171615;font-family:LJLALD+AdvOTb0c9bf5d;font-size:8.97px;font-style:NORMAL;font-weight:normal;">=</text>
  <text x="177.052,182.002,184.423,189.372" y="478.096" svg_rhmargin="194.321" style="fill:#171615;font-family:LJLAMH+AdvOTbc475f09;font-size:8.97px;font-style:NORMAL;font-weight:normal;">7.00</text>
  <text x="194.287" y="478.096" svg_rhmargin="198.77" style="fill:#171615;font-family:LJLBEN+AdvOTbc475f09+20;font-size:8.97px;font-style:NORMAL;font-weight:normal;">–</text>
  <text x="198.823,203.772,208.721,211.142,216.092,221.041,223.462,227.792,230.679,235.628,239.07999999999998,243.439,248.388,253.338,258.287,260.70799999999997,265.095,272.466" y="478.096" svg_rhmargin="278.904" style="fill:#171615;font-family:LJLAMH+AdvOTbc475f09;font-size:8.97px;font-style:NORMAL;font-weight:normal;">72.41; for p15, OR</text>
  <text x="280.007" y="478.096" svg_rhmargin="286.077" style="fill:#171615;font-family:LJLALD+AdvOTb0c9bf5d;font-size:8.97px;font-style:NORMAL;font-weight:normal;">=</text>
  <text x="287.207,292.156,294.577,299.527,304.476,306.897,311.244,316.193,321.143" y="478.096" svg_rhmargin="330.109" style="fill:#171615;font-family:LJLAMH+AdvOTbc475f09;font-size:8.97px;font-style:NORMAL;font-weight:normal;">2.13, 95%</text>
  <text svg_rhmargin="94.364" x="85.039,91.477,94.364" y="489.038" style="fill:#171615;font-family:LJLAMH+AdvOTbc475f09;font-size:8.97px;font-style:NORMAL;font-weight:normal;">CI </text>
  <text x="95.471" y="489.038" svg_rhmargin="101.541" style="fill:#171615;font-family:LJLALD+AdvOTb0c9bf5d;font-size:8.97px;font-style:NORMAL;font-weight:normal;">=</text>
  <text x="102.671,107.62,110.041,114.99" y="489.038" svg_rhmargin="119.939" style="fill:#171615;font-family:LJLAMH+AdvOTbc475f09;font-size:8.97px;font-style:NORMAL;font-weight:normal;">0.30</text>
  <text x="119.962" y="489.038" svg_rhmargin="124.445" style="fill:#171615;font-family:LJLBEN+AdvOTbc475f09+20;font-size:8.97px;font-style:NORMAL;font-weight:normal;">–</text>
  <text x="124.441,129.39,134.34,136.761,141.71,146.659,149.547,151.968,156.528,165.494,170.443,173.895,177.814,182.763,187.246,191.165,194.617,197.03799999999998,201.597,206.546,211.495,216.053,219.505,221.926,226.409,231.359" y="489.038" svg_rhmargin="233.78" style="fill:#171615;font-family:LJLAMH+AdvOTbc475f09;font-size:8.97px;font-style:NORMAL;font-weight:normal;">15.07). Moreover, no signi</text>
  <text x="233.802" y="489.038" svg_rhmargin="238.751" style="fill:#171615;font-family:LJLAMI+AdvOTbc475f09+fb;font-size:8.97px;font-style:NORMAL;font-weight:normal;">ﬁ</text>
  <text x="238.734,242.653,247.136,252.085,254.972,259.54,264.489,268.407,271.295,275.213,278.665,283.614,288.097,292.016,296.965,300.883,303.304,306.191,310.674,315.267,322.171,326.654" y="489.038" svg_rhmargin="330.106" style="fill:#171615;font-family:LJLAMH+AdvOTbc475f09;font-size:8.97px;font-style:NORMAL;font-weight:normal;">cant heterogeneity was</text>
  <text x="85.039,87.927,92.876,97.825,102.775,107.724,109.87,112.291,117.24,119.394,122.281,127.23,131.148,133.283,137.767,142.716,147.199,149.62,154.103,157.555,159.976,163.428,165.597,170.546,173.433,175.575,182.479,188.917,193.866,200.304,202.725,204.884,209.833,218.8,224.215,231.684,236.634,239.05499999999998,241.222,245.706,250.655,255.604,257.776,262.725,267.675,272.624,274.727,279.21,283.128,288.078,291.996,294.172,299.121,302.574,307.523,314.893,319.843,322.73,326.648" y="500.036" svg_rhmargin="330.1" style="fill:#171615;font-family:LJLAMH+AdvOTbc475f09;font-size:8.97px;font-style:NORMAL;font-weight:normal;">found in the analysis of DAPK, hMLH1, and p14 gene promoter</text>
  <text x="85.039,89.989,94.472,99.421,103.34,106.792,114.162,118.08,120.967,125.917,130.4,132.821,137.304,140.191,142.612,147.561,152.511,154.932,156.98,164.449,169.398,176.302,180.22,184.703,188.622,192.074,194.495,196.493,199.945,202.366,206.849,211.799" y="510.978" svg_rhmargin="214.22" style="fill:#171615;font-family:LJLAMH+AdvOTbc475f09;font-size:8.97px;font-style:NORMAL;font-weight:normal;">hypermethylation. However, signi</text>
  <text x="214.243" y="510.978" svg_rhmargin="219.192" style="fill:#171615;font-family:LJLAMI+AdvOTbc475f09+fb;font-size:8.97px;font-style:NORMAL;font-weight:normal;">ﬁ</text>
  <text x="219.175,223.094,227.577,232.526,235.413,237.43,242.379,246.297,249.185,253.103,256.555,261.504,265.987,269.906,274.855,278.773,281.194,284.081,288.564,290.605,297.509,301.993,305.445,307.442,310.329,315.279,320.228,325.178" y="510.978" svg_rhmargin="330.127" style="fill:#171615;font-family:LJLAMH+AdvOTbc475f09;font-size:8.97px;font-style:NORMAL;font-weight:normal;">cant heterogeneity was found</text>
  <text x="85.039,87.46,92.40899999999999,94.167,97.054,102.004,105.92200000000001,107.716,112.199,117.149,121.632,124.053,128.536,131.988,134.409,137.861,139.633,144.117,149.066,154.015,158.965,161.852,163.67,168.62,173.569,178.518,180.281,184.764,188.683,193.632,197.55,199.329,204.279,207.731,212.68,220.05,225.0,227.887,231.805,235.257,237.029,241.978,246.462,251.411,255.329,258.781,266.152,270.07,272.957,277.906,282.389,284.81,289.294,292.181,294.602,299.551,304.5,306.921,308.742,311.629,316.57800000000003,318.324,321.211,326.16" y="521.919" svg_rhmargin="330.078" style="fill:#171615;font-family:LJLAMH+AdvOTbc475f09;font-size:8.97px;font-style:NORMAL;font-weight:normal;">in the analysis about p15 gene promoter hypermethylation. In the</text>
  <text x="85.039,88.491,92.41,97.359,100.811,103.232,106.119,108.54,113.023,115.444,118.331,122.81400000000001,124.723,129.206,134.156,138.639,141.06,145.543,148.995,151.416,154.868,157.289,159.192,166.096,170.014,171.891,174.778,179.727,184.677,189.626,194.57500000000002,196.438,199.325,204.274,208.192,210.044,213.496,216.383,221.333,226.282,230.76500000000001,232.664,237.614,240.501,242.359,245.811,250.76,255.709,260.192,262.031,265.949,268.836,270.761,275.244,277.665,279.492,283.41,288.359,293.309,296.196,299.648,302.069,307.018,311.968,314.855,318.773,323.72200000000004,325.638" y="532.9169999999999" svg_rhmargin="330.121" style="fill:#171615;font-family:LJLAMH+AdvOTbc475f09;font-size:8.97px;font-style:NORMAL;font-weight:normal;">sensitivity analysis, we found the study of Jung et al contributed a</text>
  <text x="85.039,87.46,92.41,95.297,101.083,103.97,108.919,114.689,117.576,122.526,126.444,132.207,137.156,141.074,143.961,147.88,151.332,156.281,160.764,164.683,169.632,173.55,175.971,178.858,183.341,185.762,191.562,196.977,201.927,204.814,210.61,213.497,218.446,222.365,225.817,229.735,235.497,242.402,246.885,250.337,256.133,259.585,262.473,264.894,267.314,269.735,275.522,280.472,285.421,291.169,294.621,297.042,301.525,306.475" y="543.8589999999999" svg_rhmargin="308.896" style="fill:#171615;font-family:LJLAMH+AdvOTbc475f09;font-size:8.97px;font-style:NORMAL;font-weight:normal;">lot to the heterogeneity. But there was still no signi</text>
  <text x="308.921" y="543.8589999999999" svg_rhmargin="313.87" style="fill:#171615;font-family:LJLAMI+AdvOTbc475f09+fb;font-size:8.97px;font-style:NORMAL;font-weight:normal;">ﬁ</text>
  <text x="313.853,317.771,322.255,327.204" y="543.8589999999999" svg_rhmargin="330.091" style="fill:#171615;font-family:LJLAMH+AdvOTbc475f09;font-size:8.97px;font-style:NORMAL;font-weight:normal;">cant</text>
  <text x="85.039,89.523,92.975,96.427,101.376,105.294,107.715,112.198,115.085,117.506,122.456,127.405,130.959,135.909,139.827,142.714,149.618,153.537,157.455,162.40400000000002,165.994,170.944,175.893,180.842,184.363,188.846,192.764,197.714,201.632,205.168,210.117,213.57,218.519,225.889,230.839,233.726,237.644,241.096,244.682,249.631,254.114,259.064,262.982,266.434,273.804,277.723,280.61,285.559,290.042,292.463,296.946,299.833,302.254,307.204,312.153,315.715,320.199,325.148" y="554.8" svg_rhmargin="330.097" style="fill:#171615;font-family:LJLAMH+AdvOTbc475f09;font-size:8.97px;font-style:NORMAL;font-weight:normal;">association between p15 gene promoter hypermethylation and</text>
  <text x="85.039,89.989,93.441,97.359,101.842,105.294,108.181,110.948,114.866,119.349,124.298,128.217,132.135,135.587,138.33,141.782,144.203,147.655,152.604,155.393,159.877,162.764,165.651,169.569,173.021,175.803,178.69,183.639,187.55700000000002,190.315,193.767,196.655,201.604,206.553,211.036,213.786,218.735,221.622,224.387,227.839,232.789,237.738,242.221,244.966,251.87,256.353,259.805,262.54,266.458,268.879,271.3,278.67,281.091,286.041,290.524,293.411,297.329,302.278,305.115,308.002,315.372" y="565.742" svg_rhmargin="321.81" style="fill:#171615;font-family:LJLAMH+AdvOTbc475f09;font-size:8.97px;font-style:NORMAL;font-weight:normal;">breast cancer risk after the study of Jung was eliminated (OR</text>
  <text x="322.923" y="565.742" svg_rhmargin="328.993" style="fill:#171615;font-family:LJLALD+AdvOTb0c9bf5d;font-size:8.97px;font-style:NORMAL;font-weight:normal;">=</text>
  <text svg_rhmargin="138.924" x="85.039,89.989,92.41,97.359,102.308,104.72900000000001,107.716,112.665,117.615,126.58099999999999,129.599,136.037,138.924" y="576.74" style="fill:#171615;font-family:LJLAMH+AdvOTbc475f09;font-size:8.97px;font-style:NORMAL;font-weight:normal;">3.67, 95% CI </text>
  <text x="140.032" y="576.74" svg_rhmargin="146.102" style="fill:#171615;font-family:LJLALD+AdvOTb0c9bf5d;font-size:8.97px;font-style:NORMAL;font-weight:normal;">=</text>
  <text x="147.231,152.181,154.602,159.551" y="576.74" svg_rhmargin="164.5" style="fill:#171615;font-family:LJLAMH+AdvOTbc475f09;font-size:8.97px;font-style:NORMAL;font-weight:normal;">0.23</text>
  <text x="164.523" y="576.74" svg_rhmargin="169.006" style="fill:#171615;font-family:LJLBEN+AdvOTbc475f09+20;font-size:8.97px;font-style:NORMAL;font-weight:normal;">–</text>
  <text x="169.002,173.951,178.9,181.321,186.271,191.22,194.107,197.12,200.007,205.889,210.372,215.322,217.742,221.66,224.612,229.561,231.982,234.986,239.936,242.357,246.84,249.261,252.277,257.226,260.114" y="576.74" svg_rhmargin="262.535" style="fill:#171615;font-family:LJLAMH+AdvOTbc475f09;font-size:8.97px;font-style:NORMAL;font-weight:normal;">58.40) (Table 2, Fig. 5).</text>
  <text x="85.039,89.989,92.41,97.359,99.78,104.258,110.229,115.358,120.774,122.917,125.06,130.009,134.958,137.846,139.988,145.216,150.345,153.409,158.825,160.968,165.917,170.4,173.365,178.314,183.443,188.858,191.846,196.329,201.279,206.407,210.89,213.033,215.92,218.063,222.547,224.69,227.577,232.06,235.101,240.051,245.179,250.129,252.272,256.755,261.238,263.381" y="598.3969999999999" svg_rhmargin="267.864" style="fill:#171615;font-family:LJLBEM+AdvOT01861455.I;font-size:8.97px;font-style:NORMAL;font-weight:normal;">3.5. Publication bias and sensitivity analysis</text>
  <text x="85.039,91.305,95.051,98.849,103.611,106.891,111.71,113.958,118.736,123.21900000000001,126.56,129.337,134.286,137.614,140.335,145.154,149.072,152.41,155.69,159.436,162.888,167.544,169.792,172.507,175.959,179.31,184.129,187.016,190.365,195.637,199.383,203.694,208.177,211.518,214.296,218.042,221.322,224.209,227.558,231.923,236.701,241.65,244.978,250.221,254.532,258.898,262.639,266.091,269.443,272.164,275.962,279.25,281.965,284.38599999999997,287.748,292.525,297.474,300.859,305.636,310.456,314.767,317.016,321.793,326.611" y="614.328" svg_rhmargin="330.063" style="fill:#171615;font-family:LJLAMH+AdvOTbc475f09;font-size:8.97px;font-style:NORMAL;font-weight:normal;">According to the results of Begg test and Egger test, no obvious</text>
  <text x="85.039,89.828,94.617,99.406,101.667,104.087,107.732,112.055,114.782,117.042,121.831,126.78,129.031,133.793,136.053,140.419,143.871,146.088,150.454,157.664,162.453,167.242,171.725,173.988,177.279,180.006,184.795,189.584,191.844,195.602,199.054,201.328,208.074,212.397,215.849,218.123,220.849,225.638,230.427,235.216,240.16500000000002,242.416,244.683,249.632,251.883,254.605,259.394,263.312,265.573,269.896,274.685,279.05,281.318,285.641,288.932,291.193,294.645,296.918,299.645,305.367,309.689,314.478,316.739,320.657,322.918,327.707" y="625.269" svg_rhmargin="330.128" style="fill:#171615;font-family:LJLAMH+AdvOTbc475f09;font-size:8.97px;font-style:NORMAL;font-weight:normal;">publication bias among studies was found in the analysis (Table 2,</text>
  <text x="85.039,89.826,92.247,96.46,98.881,100.145,104.932,107.657,110.078,111.399,115.707,119.463,124.25,127.54,129.798,132.523,134.782,139.147,141.415,144.14,148.623,149.922,154.243,159.03,163.396,165.663,169.984,173.274,175.533,178.98499999999999,180.295,183.584,187.34,191.706,195.448,199.769,202.027,205.825,210.774,212.061,214.786,219.573,223.894,226.781,228.09,230.814,235.601,239.519,240.817,245.636,250.423,255.21,257.469,261.224,266.173,267.461,274.717,280.992,284.444,285.698,290.485,292.744,297.69300000000004,298.98,303.742,308.529,311.416,312.724,317.511,321.877,326.198" y="636.268" svg_rhmargin="330.116" style="fill:#171615;font-family:LJLAMH+AdvOTbc475f09;font-size:8.97px;font-style:NORMAL;font-weight:normal;">Fig. 6). Sensitivity analysis revealed that the pooled ORs did not have</text>
  <text x="85.039,89.522,92.976,96.264,98.532,102.84,107.659" y="647.21" svg_rhmargin="110.08" style="fill:#171615;font-family:LJLAMH+AdvOTbc475f09;font-size:8.97px;font-style:NORMAL;font-weight:normal;">a signi</text>
  <text x="109.928" y="647.21" svg_rhmargin="114.877" style="fill:#171615;font-family:LJLAMI+AdvOTbc475f09+fb;font-size:8.97px;font-style:NORMAL;font-weight:normal;">ﬁ</text>
  <text x="114.69,118.446,122.767,127.554,130.441,133.904,137.66,142.447,146.768,151.555,155.876,159.794,163.246,168.033,172.516,175.97,179.726,181.985,184.243,191.451,193.71,198.497,202.818,205.543,207.801,212.589,217.072,220.526,224.391,228.726,232.468,237.417,240.858,244.146,246.886,251.648,256.449,260.932,264.386,266.659,271.608,275.05,277.789,282.551,286.469,289.921,294.229,299.031,303.366,305.639,309.974,313.278,315.551,319.003,322.411,327.23" y="647.21" svg_rhmargin="330.117" style="fill:#171615;font-family:LJLAMH+AdvOTbc475f09;font-size:8.97px;font-style:NORMAL;font-weight:normal;">cant change by eliminating each study in the analysis of</text>
  <text x="85.039,91.332,97.624" y="658.1510000000001" svg_rhmargin="104.062" style="fill:#171615;font-family:LJLAMH+AdvOTbc475f09;font-size:8.97px;font-style:NORMAL;font-weight:normal;">RAR</text>
  <text x="103.918" y="658.1510000000001" svg_rhmargin="109.423" style="fill:#171615;font-family:LJLAKN+AdvP7DA6;font-size:8.97px;font-style:NORMAL;font-weight:normal;">b</text>
  <text x="109.417,114.192,116.613,119.975,126.705,132.969,137.744,144.008,146.429,149.79,154.552,163.397,168.612,175.907,180.726,183.147,186.508,190.817,195.592,200.54100000000003,203.926,208.702,213.52,218.46900000000002,221.797,226.105,229.85,234.668,238.412,241.864,245.215,250.034,253.322,258.097,265.353,270.129,272.842,276.64,280.092,283.387,288.205,292.513,297.333,301.074,304.352,311.609,315.353,318.066,322.885,327.193" y="658.1510000000001" svg_rhmargin="330.08" style="fill:#171615;font-family:LJLAMH+AdvOTbc475f09;font-size:8.97px;font-style:NORMAL;font-weight:normal;">2, DAPK, hMLH1, and p14 genes promoter hypermethy-</text>
  <text x="85.038,87.284,91.591,94.369,96.636,101.41,106.229,108.65,111.161,116.887,121.66,125.459,128.735,132.477,135.255,140.017,143.293,147.092,149.513,152.024,154.292,157.179,159.734,163.022,167.796,172.614,179.342,183.085,188.03400000000002,190.568,195.05100000000002,197.598,200.874,205.693,210.466,215.32,218.616,221.50300000000001,224.002,227.298,231.06,234.356,239.149,241.414,244.301,246.857,251.65,254.537,257.036,259.814,264.576,268.494,271.039,278.239,282.001,284.732,289.06,291.791,296.156,300.918,305.246,307.51,311.876,315.164,317.429,320.725" y="669.149" svg_rhmargin="323.146" style="fill:#171615;font-family:LJLAMH+AdvOTbc475f09;font-size:8.97px;font-style:NORMAL;font-weight:normal;">lation. Therefore, it showed a robust result of the meta-analysis.</text>
  <text x="85.039,90.955,93.908,98.646,105.744,108.498,113.723,119.241,125.156,130.381,135.605,138.359,144.076" y="691.773" svg_rhmargin="149.991" style="fill:#171615;font-family:LJLAKM+AdvOTfbba3ace.B;font-size:9.46px;font-style:NORMAL;font-weight:normal;">4. Discussion</text>
  <text x="85.039,91.477,93.77,96.657,101.606,106.412,111.362,115.71,120.65899999999999,122.626,127.576,129.883,134.366,136.787,139.52,144.004,146.42499999999998,148.365,155.735,160.1,167.47,174.727,179.676,184.024,187.476,191.847,196.796,201.746,206.229,208.117,212.6,217.414,222.363,224.331,231.701,236.066,240.549,245.363,249.281,252.053,254.474,258.392,260.33,263.782,267.586,271.038,275.863,280.812,285.295,290.092,294.011,297.92900000000003,299.843,302.264,309.634,313.959,318.442,320.863,325.638" y="707.761" svg_rhmargin="330.121" style="fill:#171615;font-family:LJLAMH+AdvOTbc475f09;font-size:8.97px;font-style:NORMAL;font-weight:normal;">Although digital mammography and magnetic resonance imaging</text>
  <text svg_rhmargin="330.16" x="85.039,89.989,94.337,98.82,102.738,106.865,110.317,114.122,117.574,121.378,125.296,130.109,134.027,138.976,143.091,148.04,152.842,160.212,164.01,167.462,172.287,177.236,180.688,184.816,189.765,193.092,197.011,201.369,204.821,207.708,211.8,215.719,220.077,225.027,228.945,232.72,236.172,240.317,245.266,249.614,252.501,254.922,258.684,263.634,266.395,269.847,272.268,276.372,279.259,284.082,288.001,291.339,295.257,299.446,304.395,309.197,313.68,317.02,319.441,323.256,327.739,330.15999999999997" y="412.333" style="fill:#171615;font-family:LJLAMH+AdvOTbc475f09;font-size:8.97px;font-style:NORMAL;font-weight:normal;">have screened numerous breast cancer patients, these physical </text>
  <text x="345.091,352.461,356.259,359.146,363.969,368.919,373.72,377.172,383.358,385.779,390.104,394.023,398.972,402.747,407.696,413.802,417.254,422.079,425.997,429.916" y="412.333" svg_rhmargin="432.337" style="fill:#171615;font-family:LJLAMH+AdvOTbc475f09;font-size:8.97px;font-style:NORMAL;font-weight:normal;">methods lacked speci</text>
  <text x="432.172" y="412.333" svg_rhmargin="437.121" style="fill:#171615;font-family:LJLAMI+AdvOTbc475f09+fb;font-size:8.97px;font-style:NORMAL;font-weight:normal;">ﬁ</text>
  <text x="437.104,441.022,443.34,446.227,450.71,456.776,461.259,466.073,471.022,477.185,480.637,484.441,489.391,492.718,495.139,497.878,500.298,504.782,507.062,509.949,514.318" y="412.333" svg_rhmargin="516.739" style="fill:#171615;font-family:LJLAMH+AdvOTbc475f09;font-size:8.97px;font-style:NORMAL;font-weight:normal;">city and sensitivity.</text>
  <text svg_rhmargin="528.276" x="516.699,518.865,522.578,526.111,528.276" y="412.334" style="fill:#171615;font-family:LJLAMH+AdvOTbc475f09;font-size:5.98px;font-style:NORMAL;font-weight:normal;">[61] </text>
  <text x="534.444,540.882,544.334,550.374,554.858,557.278,560.012,563.931,567.269,572.218,576.566,579.453,581.874,586.204" y="412.334" svg_rhmargin="590.122" style="fill:#171615;font-family:LJLAMH+AdvOTbc475f09;font-size:8.97px;font-style:NORMAL;font-weight:normal;">As alternative</text>
  <text x="345.089,350.039,352.346,357.295,364.534,369.018,372.357,377.307,381.088,384.54,387.992,390.413,393.504,400.408,407.677,414.115,417.371,424.741,428.539,431.427,436.25,440.733,443.154,447.474,450.362,452.783,457.566,462.515,465.73,472.634,477.117,480.569,483.645,487.563,492.512,495.266,499.184,503.996,507.448,509.869,514.201,518.119,520.38,524.8629999999999,528.091,531.543,534.327,539.276,544.225,546.459,550.377,555.3259999999999,558.477,560.898,565.847,569.022,576.392,580.757,585.706" y="423.275" svg_rhmargin="590.189" style="fill:#171615;font-family:LJLAMH+AdvOTbc475f09;font-size:8.97px;font-style:NORMAL;font-weight:normal;">biomarkers, DNA methylation was extensively studied in many</text>
  <text x="345.089,347.976,352.799,360.17,364.988,368.44,370.431,373.883,378.707,383.657,388.458,391.91,395.715,399.167,402.619,407.393,410.84499999999997,412.836,417.319,421.113,426.062,429.843,433.295,435.716,437.666,441.585,444.923,449.872,453.653,457.571,459.889,464.372,466.793,469.017,473.5,475.48,477.901,482.85,484.777,489.26,493.054,498.003,501.921,503.825,508.774,512.102,517.051,524.291,529.24,532.127,535.913,539.365,541.299,544.751,548.555,553.038,555.459,560.234,565.183,567.604,569.531,576.435,583.704" y="434.274" svg_rhmargin="590.142" style="fill:#171615;font-family:LJLAMH+AdvOTbc475f09;font-size:8.97px;font-style:NORMAL;font-weight:normal;">tumor suppressor genes, especially in gene promoter region. DNA</text>
  <text x="345.089,352.459,356.258,359.145,363.968,368.451,370.872,375.193,378.08,380.501,385.284,390.233,391.804,396.753,400.08,405.03,409.513,411.759,414.18,418.663,420.206,427.11,431.593,435.045,436.533,441.482,445.401,448.154,452.072,455.864,458.751,462.554,467.503,469.073,471.494,476.44300000000004,478.031,480.918,485.741,489.659,491.24,495.158,499.517,502.969,505.39,509.873,511.366,514.818,517.602,522.085,526.446,530.364,531.945,536.895,539.7819999999999,541.356,546.306,549.633,553.551,557.91,561.362,564.2489999999999,565.79,569.708,574.067,579.016,582.797,586.716" y="445.215" svg_rhmargin="590.168" style="fill:#171615;font-family:LJLAMH+AdvOTbc475f09;font-size:8.97px;font-style:NORMAL;font-weight:normal;">methylation usually was detected in the early stage of breast cancer</text>
  <text x="345.089,349.572,354.386,359.33500000000004,362.721,367.67,372.153,377.10200000000003,380.408,384.891,388.289,391.741,394.162,398.493,403.443" y="456.157" svg_rhmargin="405.864" style="fill:#171615;font-family:LJLAMH+AdvOTbc475f09;font-size:8.97px;font-style:NORMAL;font-weight:normal;">and had a signi</text>
  <text x="405.751" y="456.157" svg_rhmargin="410.7" style="fill:#171615;font-family:LJLAMI+AdvOTbc475f09+fb;font-size:8.97px;font-style:NORMAL;font-weight:normal;">ﬁ</text>
  <text x="410.627,414.545,418.903,423.853,426.74,430.128,434.611,437.951,441.403,446.228,450.146,452.464,456.947,459.721,462.142,466.977,471.926,475.311,482.215,484.636,487.386,492.33500000000004,495.72,499.639,501.956,504.377,509.213,511.634,515.449,519.932,522.3530000000001,525.71,529.628,534.44,538.924,542.264,546.747,550.54,553.427,557.346,560.688,563.109,566.414,569.301,571.722,575.485,578.937,582.345,587.294" y="456.157" svg_rhmargin="590.181" style="fill:#171615;font-family:LJLAMH+AdvOTbc475f09;font-size:8.97px;font-style:NORMAL;font-weight:normal;">cant association with clinical characteristics of</text>
  <text x="345.089,350.039,353.366,357.284,361.643,365.095,367.982,369.807,373.725,378.083,383.033,386.951,390.726,394.178,396.599,398.436,405.34,410.171,412.592,416.407,421.356,423.267,430.171,434.492,437.944,439.878,444.828,448.609,451.03,455.865,458.752,463.575,465.996,467.941,470.828,475.651,479.103,480.981,484.899,489.257,492.709,495.13,499.613,501.446,506.396,510.177,513.064,516.866,520.785,523.556,525.977,530.813,535.762,537.673,542.156,546.97,551.919,553.83,556.717,560.066,563.984,568.343,571.23,578.491,582.409,587.221" y="467.155" svg_rhmargin="590.108" style="fill:#171615;font-family:LJLAMH+AdvOTbc475f09;font-size:8.97px;font-style:NORMAL;font-weight:normal;">breast cancer, which was helpful for early detection and treatment</text>
  <text x="345.089,350.039,352.926,355.804,360.753,364.205,367.993,372.476,375.816,378.703,381.656,385.574,389.932,394.882,398.8,402.575,406.027" y="478.096" svg_rhmargin="408.448" style="fill:#171615;font-family:LJLAMH+AdvOTbc475f09;font-size:8.97px;font-style:NORMAL;font-weight:normal;">of breast cancer.</text>
  <text svg_rhmargin="419.963" x="408.359,410.525,414.086,417.798,419.963" y="478.098" style="fill:#171615;font-family:LJLAMH+AdvOTbc475f09;font-size:5.98px;font-style:NORMAL;font-weight:normal;">[62] </text>
  <text x="422.929,431.895,436.251,441.201,445.684,448.61,453.56,455.867,460.816,468.056,472.539,475.879,480.828,484.746,488.067,491.519,493.94,496.854,501.804,505.585,510.534" y="478.098" svg_rhmargin="514.452" style="fill:#171615;font-family:LJLAMH+AdvOTbc475f09;font-size:8.97px;font-style:NORMAL;font-weight:normal;">Many biomarkers, bene</text>
  <text x="514.375" y="478.098" svg_rhmargin="519.324" style="fill:#171615;font-family:LJLAMI+AdvOTbc475f09+fb;font-size:8.97px;font-style:NORMAL;font-weight:normal;">ﬁ</text>
  <text x="519.251,522.138,524.921,527.341,532.177,536.66,539.66,542.547,547.37,551.288,554.287,558.205,560.467,564.95,568.29,571.742" y="478.098" svg_rhmargin="574.163" style="fill:#171615;font-family:LJLAMH+AdvOTbc475f09;font-size:8.97px;font-style:NORMAL;font-weight:normal;">tting the classi</text>
  <text x="574.074" y="478.098" svg_rhmargin="579.023" style="fill:#171615;font-family:LJLAMI+AdvOTbc475f09+fb;font-size:8.97px;font-style:NORMAL;font-weight:normal;">ﬁ</text>
  <text x="578.95,582.868,587.227" y="478.098" svg_rhmargin="590.114" style="fill:#171615;font-family:LJLAMH+AdvOTbc475f09;font-size:8.97px;font-style:NORMAL;font-weight:normal;">ca-</text>
  <text x="345.091,347.978,350.25,355.199,360.148,363.005,367.955,370.842,373.664,377.582,379.9,382.321,387.156,389.577,393.392,397.875,400.296,403.143,406.03,409.833,414.316,417.089,422.039,425.366,429.284,432.736,435.571,437.991,442.94,445.775,450.724,454.052,457.97,462.329,465.781,468.668,471.513,475.431,479.79,484.739,488.657,492.432,495.884,498.305,501.163,508.067,511.877,515.329,519.247,522.082,524.503,529.338,533.257,538.069,540.956" y="489.039" svg_rhmargin="543.377" style="fill:#171615;font-family:LJLAMH+AdvOTbc475f09;font-size:8.97px;font-style:NORMAL;font-weight:normal;">tion of clinical features in breast cancer, were identi</text>
  <text x="543.29" y="489.039" svg_rhmargin="548.239" style="fill:#171615;font-family:LJLAMI+AdvOTbc475f09+fb;font-size:8.97px;font-style:NORMAL;font-weight:normal;">ﬁ</text>
  <text x="548.166,552.084,557.0329999999999,559.901,562.788,567.611,571.063,575.888,580.837,585.185" y="489.039" svg_rhmargin="590.134" style="fill:#171615;font-family:LJLAMH+AdvOTbc475f09;font-size:8.97px;font-style:NORMAL;font-weight:normal;">ed through</text>
  <text x="345.091,349.574,353.367,358.317,363.118,370.489,374.287,377.174,384.078,386.362,391.311,395.229,397.076,401.56,406.374,411.323,414.65,419.6,423.948,427.866,432.815,435.236,437.043,441.992,445.32,447.741,452.576,457.059,458.982,461.87,464.142,467.594,471.046,475.82,479.738,481.66,485.112,489.483,496.853,501.672,504.093,508.011,509.892,514.375,519.189,524.1379999999999,526.049,530.999,533.306,538.255,543.057,548.006,549.917,553.369,557.74,565.11,569.929,572.35,576.165" y="500.037" svg_rhmargin="578.586" style="fill:#171615;font-family:LJLAMH+AdvOTbc475f09;font-size:8.97px;font-style:NORMAL;font-weight:normal;">genome-wide approach, using tissue sample and blood sample.</text>
  <text x="578.551,580.717,584.43,587.963" y="496.013" svg_rhmargin="590.128" style="fill:#171615;font-family:LJLAMH+AdvOTbc475f09;font-size:5.98px;font-style:NORMAL;font-weight:normal;">[63]</text>
  <text x="345.09,350.039,354.841,358.293,360.51,364.428,369.378,373.719,381.089,385.908,388.329,392.144,394.565,396.793,401.742,406.226,410.569,412.99,417.825,421.277,426.102,431.051,435.853,440.336,442.757,447.532,451.45,456.399,459.664,464.147,471.517,473.779,478.729,481.036,485.985,490.468,493.791,497.709,499.914,504.863,507.114,510.002,517.47,523.725,530.163,535.46,540.41,543.2969999999999,545.495,550.444,554.792,559.741,561.992,566.4749999999999,568.738,571.159,575.994,582.898,586.709" y="510.98" svg_rhmargin="590.161" style="fill:#171615;font-family:LJLAMH+AdvOTbc475f09;font-size:8.97px;font-style:NORMAL;font-weight:normal;">For example, hyaluronoglucosaminidase 2 (HYAL2) had a lower</text>
  <text x="345.09,352.46,356.258,359.145,363.968,368.451,370.872,375.193,378.08,380.501,385.285,390.23400000000004,392.314,395.201,398.55,402.469,407.281,412.23,416.149,420.944,424.862,429.345,431.375,433.796,438.745,440.786,445.736,449.063,452.981,457.34,460.792,463.679,465.73,469.649,474.007,478.957,482.738,486.656,490.108,492.149,496.632,499.972,504.921,509.723,514.672,516.752,519.639,524.589,528.941,533.89,535.971,539.89,544.702,549.651,552.412,555.864,560.689,563.11,565.224,569.707,573.047,577.997,582.798,587.747" y="521.921" svg_rhmargin="590.168" style="fill:#171615;font-family:LJLAMH+AdvOTbc475f09;font-size:8.97px;font-style:NORMAL;font-weight:normal;">methylation frequency in breast cancer group than control group.</text>
  <text x="345.09,351.527,356.315,361.264,366.236,369.123,373.946,377.86400000000003,382.79,387.74,392.087,397.037,401.986,409.209,413.127,415.898,420.848,425.196,427.616,432.1,434.833,437.254,442.09,447.039,452.011,456.96,459.847,464.71,472.179,478.486,484.924,490.221,495.17,500.142,507.046,511.529,514.981,519.814,524.764,527.071,529.958,532.74,536.658,539.996,543.915,548.727,551.6139999999999,556.551,563.455,565.876,568.626,573.5749999999999,578.49,581.378,586.201" y="532.919" svg_rhmargin="590.119" style="fill:#171615;font-family:LJLAMH+AdvOTbc475f09;font-size:8.97px;font-style:NORMAL;font-weight:normal;">And the hypomethylation of HYAL2 was different with the</text>
  <text x="345.09,352.46,356.258,359.145,363.968,368.451,370.872,375.193,378.08,380.501,385.285,390.23400000000004,391.974,394.862,398.211,402.129,406.941,411.89,415.672,420.621,424.539,429.022,430.638,435.587,438.474,440.162,447.631,453.938,460.376,465.673,470.622,473.043,474.743,481.647,486.478,488.899,492.715,497.664,499.404,502.291,507.114,511.032,512.784,520.253,526.56,532.997,538.295,543.2439999999999,544.984,552.355,556.153,559.04,563.863,568.346,570.767,575.088,577.975,580.396,585.179" y="543.861" svg_rhmargin="590.128" style="fill:#171615;font-family:LJLAMH+AdvOTbc475f09;font-size:8.97px;font-style:NORMAL;font-weight:normal;">methylation frequency of HYAL2, which the HYAL2 methylation</text>
  <text x="345.09,351.994,356.315,359.767,361.87,365.322,367.596,372.079,377.029" y="554.802" svg_rhmargin="379.45" style="fill:#171615;font-family:LJLAMH+AdvOTbc475f09;font-size:8.97px;font-style:NORMAL;font-weight:normal;">was signi</text>
  <text x="379.276" y="554.802" svg_rhmargin="384.225" style="fill:#171615;font-family:LJLAMI+AdvOTbc475f09+fb;font-size:8.97px;font-style:NORMAL;font-weight:normal;">ﬁ</text>
  <text x="384.208,388.126,392.485,397.434,400.321,402.349,407.299,409.606,414.089,418.903,422.821,426.273,428.258,431.145,436.094,440.446,445.39500000000004,447.419,451.338,456.287,461.082,463.969,467.318,472.268,474.68899999999996,476.673,481.156,484.496,489.445,494.395,499.179,501.59999999999997,503.658,509.54,514.373,518.291,521.629,525.547,528.319,533.268,536.596,540.514,542.9350000000001,544.986,547.873,552.696,556.615,559.953,563.871,565.962,569.414,573.218,576.67,581.495,583.916,586.803" y="554.802" svg_rhmargin="590.255" style="fill:#171615;font-family:LJLAMH+AdvOTbc475f09;font-size:8.97px;font-style:NORMAL;font-weight:normal;">cant higher than control group. Therefore, these results</text>
  <text x="345.09,350.039,353.82,361.191,366.009,370.958,374.286,377.173,380.522,385.005,387.778,391.697,396.646,399.627,402.514,407.337,411.821,414.708,417.655,422.138,426.952,431.901,436.851,440.161,447.532,449.799,452.686,457.169,460.118,465.067,467.954,470.946,478.415,484.722,491.16,496.457,501.406,504.394,511.764,515.683,518.453,523.403,527.75,530.171,534.654,537.388,539.809,544.645,549.5939999999999,552.582,559.952,562.373,566.698,571.648,574.535,577.469,582.419,587.22" y="565.744" svg_rhmargin="590.107" style="fill:#171615;font-family:LJLAMH+AdvOTbc475f09;font-size:8.97px;font-style:NORMAL;font-weight:normal;">demonstrated that abnormity of HYAL2 methylation might not</text>
  <text x="345.09,350.039,353.367,355.787,360.113,362.534,367.369,371.852,374.626,378.544,380.635,383.522,386.871,391.82,399.19,401.214,404.101,409.051,412.969,414.934,417.821,422.77,430.014,434.963,438.415,440.445,444.364,448.722,452.641,454.958,458.87600000000003,460.911,467.815,475.084,481.522" y="576.742" svg_rhmargin="483.943" style="fill:#171615;font-family:LJLAMH+AdvOTbc475f09;font-size:8.97px;font-style:NORMAL;font-weight:normal;">originate from the tumor cycle DNA.</text>
  <text svg_rhmargin="495.451" x="483.874,486.04,489.753,493.286,495.451" y="576.7429999999999" style="fill:#171615;font-family:LJLAMH+AdvOTbc475f09;font-size:5.98px;font-style:NORMAL;font-weight:normal;">[64] </text>
  <text x="497.537,500.424,505.373,507.402,510.289,515.112,517.533,520.985,523.049,530.419,534.217,537.104,541.474,544.361,548.73,553.679,558.027,560.448,564.931,568.232,570.653,574.105,576.5260000000001,578.493,581.38,586.203" y="576.7429999999999" svg_rhmargin="590.121" style="fill:#171615;font-family:LJLAMH+AdvOTbc475f09;font-size:8.97px;font-style:NORMAL;font-weight:normal;">In this meta-analysis, the</text>
  <text x="345.089,350.039,354.386,357.273,361.75600000000003,364.024,368.974,371.861,374.116,380.554,386.871" y="587.685" svg_rhmargin="393.309" style="fill:#171615;font-family:LJLAMH+AdvOTbc475f09;font-size:8.97px;font-style:NORMAL;font-weight:normal;">data of RAR</text>
  <text x="393.279" y="587.685" svg_rhmargin="398.784" style="fill:#171615;font-family:LJLAKN+AdvP7DA6;font-size:8.97px;font-style:NORMAL;font-weight:normal;">b</text>
  <text x="398.778,403.72700000000003,406.034,410.983,414.311,419.26,426.631,431.432,434.319,438.122,441.574,443.904,448.854,453.201,458.151,462.069,465.334,472.704,476.622,479.393,484.342,488.69,491.111,495.594,498.328,500.749,505.584,510.533,512.841,515.262,520.2109999999999,522.479,527.428,529.735,534.684,539.486,544.435,546.799,550.251,554.622,561.992,566.811,569.232,573.15,575.428,582.332,586.815" y="587.685" svg_rhmargin="590.267" style="fill:#171615;font-family:LJLAMH+AdvOTbc475f09;font-size:8.97px;font-style:NORMAL;font-weight:normal;">2 promoter hypermethylation in blood sample was</text>
  <text x="345.089,349.007,353.82,356.707,360.056,364.539,368.333,371.22,375.022,379.971,382.109,386.592,391.406,396.355,398.493,402.977,407.791,412.274,414.695,419.016,422.934,426.726,431.675,434.096,436.193,443.097,447.928,450.349,454.164,459.113,461.194,463.615,468.45,473.4,475.707,479.625,483.984,486.871,490.789,495.738,497.759,500.647,505.469,509.387,511.536,514.423,517.772,521.69,526.503,531.452,535.37,540.165,544.084,548.5669999999999,550.653,555.603,558.4899999999999,560.518,566.956,573.274" y="598.626" svg_rhmargin="579.712" style="fill:#171615;font-family:LJLAMH+AdvOTbc475f09;font-size:8.97px;font-style:NORMAL;font-weight:normal;">extracted and analyzed, which indicated the frequency of RAR</text>
  <text x="579.685" y="598.626" svg_rhmargin="585.19" style="fill:#171615;font-family:LJLAKN+AdvP7DA6;font-size:8.97px;font-style:NORMAL;font-weight:normal;">b</text>
  <text x="585.184" y="598.626" svg_rhmargin="590.133" style="fill:#171615;font-family:LJLAMH+AdvOTbc475f09;font-size:8.97px;font-style:NORMAL;font-weight:normal;">2</text>
  <text x="345.089,350.039,353.366,358.315,365.555,370.504,373.265,377.183,380.635,385.283,390.233,394.58,399.53,403.448,406.713,414.083,418.001,420.772,425.721,430.069,432.49,436.973,439.707,442.128,446.963,451.91200000000003,456.601,463.505,467.826,471.278,475.99,480.939,483.246,487.73,492.544,496.462,499.914,504.562,507.449,512.272,516.755,521.704,526.332,529.219,534.042,538.992,542.319,546.237,550.937,553.358,558.3069999999999,562.955,566.873,571.686,576.635,579.522,582.797,587.746" y="609.625" svg_rhmargin="590.167" style="fill:#171615;font-family:LJLAMH+AdvOTbc475f09;font-size:8.97px;font-style:NORMAL;font-weight:normal;">promoter hypermethylation was higher than those in control</text>
  <text x="345.089,349.572,352.856,357.805,362.755,367.704,370.544,373.431,380.692" y="620.566" svg_rhmargin="387.13" style="fill:#171615;font-family:LJLAMH+AdvOTbc475f09;font-size:8.97px;font-style:NORMAL;font-weight:normal;">group (OR</text>
  <text x="388.232" y="620.566" svg_rhmargin="394.302" style="fill:#171615;font-family:LJLALD+AdvOTb0c9bf5d;font-size:8.97px;font-style:NORMAL;font-weight:normal;">=</text>
  <text svg_rhmargin="453.683" x="395.376,400.325,405.275,407.565,412.514,417.315,419.736,422.701,427.651,432.452,441.418,444.358,450.796,453.683" y="620.566" style="fill:#171615;font-family:LJLAMH+AdvOTbc475f09;font-size:8.97px;font-style:NORMAL;font-weight:normal;">15.04, 95% CI </text>
  <text x="454.734" y="620.566" svg_rhmargin="460.804" style="fill:#171615;font-family:LJLALD+AdvOTb0c9bf5d;font-size:8.97px;font-style:NORMAL;font-weight:normal;">=</text>
  <text x="461.877,466.826,469.133,474.083" y="620.566" svg_rhmargin="479.032" style="fill:#171615;font-family:LJLAMH+AdvOTbc475f09;font-size:8.97px;font-style:NORMAL;font-weight:normal;">3.59</text>
  <text x="478.942" y="620.566" svg_rhmargin="483.425" style="fill:#171615;font-family:LJLBEN+AdvOTbc475f09+20;font-size:8.97px;font-style:NORMAL;font-weight:normal;">–</text>
  <text svg_rhmargin="507.742" x="483.364,488.313,493.115,495.536,500.371,505.321,507.742" y="620.566" style="fill:#171615;font-family:LJLAMH+AdvOTbc475f09;font-size:8.97px;font-style:NORMAL;font-weight:normal;">63.00, </text>
  <text svg_rhmargin="516.049" x="510.633,516.048" y="620.566" style="fill:#171615;font-family:LJLBFO+AdvOT638a931c.I;font-size:8.97px;font-style:NORMAL;font-weight:normal;">P </text>
  <text x="517.152" y="620.566" svg_rhmargin="524.056" style="fill:#171615;font-family:LJLAMG+AdvP4C4E51;font-size:8.97px;font-style:NORMAL;font-weight:normal;">&lt;</text>
  <text x="525.146,527.567,532.402,537.352,540.239" y="620.566" svg_rhmargin="542.66" style="fill:#171615;font-family:LJLAMH+AdvOTbc475f09;font-size:8.97px;font-style:NORMAL;font-weight:normal;">.05).</text>
  <text x="542.494,544.66,548.373" y="616.598" svg_rhmargin="552.085" style="fill:#171615;font-family:LJLAMH+AdvOTbc475f09;font-size:5.98px;font-style:NORMAL;font-weight:normal;">[32</text>
  <text x="551.962" y="616.598" svg_rhmargin="555.324" style="fill:#171615;font-family:LJLBEN+AdvOTbc475f09+20;font-size:5.98px;font-style:NORMAL;font-weight:normal;">–</text>
  <text svg_rhmargin="564.841" x="555.25,558.963,562.676,564.841" y="620.567" style="fill:#171615;font-family:LJLAMH+AdvOTbc475f09;font-size:5.98px;font-style:NORMAL;font-weight:normal;">35] </text>
  <text x="567.666,574.57,576.991,581.329,585.247" y="620.567" svg_rhmargin="590.196" style="fill:#171615;font-family:LJLAMH+AdvOTbc475f09;font-size:8.97px;font-style:NORMAL;font-weight:normal;">Given</text>
  <text x="345.089,347.976,352.799,356.717,362.608,366.526,371.338,376.288,381.237,383.47,386.357,388.778,393.56,398.509,404.445,409.395,412.282,418.108,425.577,431.884,438.322,443.619,448.568,450.989,456.828,459.715,464.538,468.456,474.347,479.296,483.644,488.593,492.511,495.833,503.203,507.001,509.888,514.711,519.194,521.615,525.936,528.823,531.244,536.028,540.977,546.856,551.806,554.693,560.519,566.957,573.274" y="631.508" svg_rhmargin="579.712" style="fill:#171615;font-family:LJLAMH+AdvOTbc475f09;font-size:8.97px;font-style:NORMAL;font-weight:normal;">the condition of HYAL2, the hypermethylation of RAR</text>
  <text x="579.685" y="631.508" svg_rhmargin="585.19" style="fill:#171615;font-family:LJLAKN+AdvP7DA6;font-size:8.97px;font-style:NORMAL;font-weight:normal;">b</text>
  <text x="585.184" y="631.508" svg_rhmargin="590.133" style="fill:#171615;font-family:LJLAMH+AdvOTbc475f09;font-size:8.97px;font-style:NORMAL;font-weight:normal;">2</text>
  <text x="345.089,350.039,353.366,358.315,365.555,370.504,373.265,377.183,380.635,383.357,388.306,392.654,397.603,401.384,404.836,412.099,416.017,418.789,423.738,428.221,430.524,435.007,437.78,440.201,445.037,449.986,452.69,455.111,460.06,462.782,467.731,470.038,474.988,479.789,484.738,487.499,490.951,495.322,502.693,507.511,509.932,513.85,516.582,523.953,526.374,530.699,535.648,538.535,541.187,546.136,551.086,553.973,556.607,561.556,564.884,567.305,571.788,574.068,579.017,583.365,586.252" y="642.5070000000001" svg_rhmargin="590.17" style="fill:#171615;font-family:LJLAMH+AdvOTbc475f09;font-size:8.97px;font-style:NORMAL;font-weight:normal;">promoter hypermethylation in blood sample might not originate</text>
  <text x="345.089,347.976,351.269,356.218,363.588,366.689,369.576,374.526,381.77,386.719,390.171,393.221,397.14,401.058,403.312,405.733,409.185,412.326,417.275,420.727,423.778,426.665,431.614,438.858,443.807,447.259,450.31,454.228,458.711,462.498,464.919,468.837,471.91,478.814,486.083,492.52,494.941,498.044,503.926,508.759,513.709,517.036,519.457,522.592,525.479,530.428,534.346,537.388,541.871,545.211,548.663,553.488,557.406,559.724,564.207,566.98,569.401,574.237,579.1859999999999,582.344,587.293" y="653.448" svg_rhmargin="590.18" style="fill:#171615;font-family:LJLAMH+AdvOTbc475f09;font-size:8.97px;font-style:NORMAL;font-weight:normal;">from tumor cells or tumor cycle DNA. Thus, the association of</text>
  <text x="345.089,351.527,357.845" y="664.39" svg_rhmargin="364.283" style="fill:#171615;font-family:LJLAMH+AdvOTbc475f09;font-size:8.97px;font-style:NORMAL;font-weight:normal;">RAR</text>
  <text x="364.195" y="664.39" svg_rhmargin="369.7" style="fill:#171615;font-family:LJLAKN+AdvP7DA6;font-size:8.97px;font-style:NORMAL;font-weight:normal;">b</text>
  <text x="369.75,374.699,376.496,381.446,384.898,389.706,397.076,401.894,404.782,408.584,412.036,413.914,418.863,423.211,428.16,432.079,435.343,442.714,446.632,449.402,454.352,458.7,461.12,465.604,468.337,470.758,475.594,480.543,482.397,489.301,491.581,494.468,499.41700000000003,501.219,506.168,509.495,513.414,517.772,521.224,524.111,525.936,529.854,534.213,539.162,543.081,546.855,550.307,552.128,557.077,561.56,564.316,569.266,574.067,578.55,582.344,587.293" y="664.39" svg_rhmargin="590.18" style="fill:#171615;font-family:LJLAMH+AdvOTbc475f09;font-size:8.97px;font-style:NORMAL;font-weight:normal;">2 promoter hypermethylation with breast cancer pathogen-</text>
  <text x="345.088,349.007,352.345,354.766,358.218,360.792,367.696,372.179,375.631,378.14,382.058,386.417,390.9,393.321,398.095,402.579,405.352,409.27,414.219,416.804,421.753,426.702,429.276,432.163,436.986,440.904,443.563,448.512,452.86,456.312,458.733,462.185,464.709,469.658,472.545,475.14,478.027,482.85,486.76800000000003,489.37,492.822,496.626,500.078,505.028,507.284,510.172,513.624,516.242,521.191,524.078,526.617,529.504,531.925,535.234,538.686,543.511,547.429,550.088,553.54,557.911,565.281,570.1,572.52,576.336" y="675.388" svg_rhmargin="578.757" style="fill:#171615;font-family:LJLAMH+AdvOTbc475f09;font-size:8.97px;font-style:NORMAL;font-weight:normal;">esis was evaluated on the basis of the results of tissue sample.</text>
  <text x="354.046,360.484,364.402,368.32,373.27,376.722,381.671,384.092,389.041,393.524,397.131,400.018,404.967,408.526,411.978,415.896,419.348,424.298,426.719,429.606,433.058,436.702,441.651,444.538,448.153,451.04,453.461,456.913,460.365,465.315,469.233,472.814,476.266,480.749,488.12,493.069,495.49,499.408,501.829,505.469,508.356,513.305,517.223,520.832,527.27,533.708" y="686.329" svg_rhmargin="540.146" style="fill:#171615;font-family:LJLAMH+AdvOTbc475f09;font-size:8.97px;font-style:NORMAL;font-weight:normal;">According to results of tissue sample, the RAR</text>
  <text x="540.169" y="686.329" svg_rhmargin="545.674" style="fill:#171615;font-family:LJLAKN+AdvP7DA6;font-size:8.97px;font-style:NORMAL;font-weight:normal;">b</text>
  <text x="545.668,550.617,554.172,559.121,562.573,567.523,574.893,579.842,582.729,586.648" y="686.329" svg_rhmargin="590.1" style="fill:#171615;font-family:LJLAMH+AdvOTbc475f09;font-size:8.97px;font-style:NORMAL;font-weight:normal;">2 promoter</text>
  <text x="345.087,350.037,354.52,359.469,363.388,366.84,374.21,378.128,381.015,385.965,390.448,392.869,397.352,400.239,402.66,407.609,412.558,414.818,419.767,424.25,429.199,431.371,435.854,438.117,441.569,443.99,448.473,453.423" y="697.271" svg_rhmargin="455.844" style="fill:#171615;font-family:LJLAMH+AdvOTbc475f09;font-size:8.97px;font-style:NORMAL;font-weight:normal;">hypermethylation had a signi</text>
  <text x="455.866" y="697.271" svg_rhmargin="460.815" style="fill:#171615;font-family:LJLAMI+AdvOTbc475f09+fb;font-size:8.97px;font-style:NORMAL;font-weight:normal;">ﬁ</text>
  <text x="460.798,464.717,469.2,474.149,477.036,479.28,483.763,487.215,490.667,495.616,499.535,501.956,506.439,509.326,511.747,516.696,521.645,523.895,530.799,533.22,536.107,541.0559999999999,543.284,546.171,551.12,555.038,557.287,560.739,565.688,569.14,573.058,576.977,581.926,584.813,587.234" y="697.271" svg_rhmargin="590.121" style="fill:#171615;font-family:LJLAMH+AdvOTbc475f09;font-size:8.97px;font-style:NORMAL;font-weight:normal;">cant association with the suscepti-</text>
  <text x="345.087,350.037,352.458,354.879,357.3,360.187,364.67,367.934,372.884,375.771,378.989,383.938,387.39,391.309,395.792,399.244,402.13100000000003,405.407,409.326,413.809,418.758,422.676,426.595,430.047,432.468,435.68,438.101,443.05,446.339,453.243,458.192,460.613,464.531,469.48,472.7,475.587,480.537,484.455,487.723,492.673,496.125,500.043,504.526,507.978,510.865,514.142,518.06,522.543,527.492,531.411,535.329,538.781,542.034,546.517,549.969,554.919,559.868,564.817,568.055,573.005,577.488,582.437,585.63" y="708.212" svg_rhmargin="590.113" style="fill:#171615;font-family:LJLAMH+AdvOTbc475f09;font-size:8.97px;font-style:NORMAL;font-weight:normal;">bility of breast cancer, in which the breast cancer group had a</text>
  <text x="345.087,350.037,352.458,356.941,361.89,365.809,369.261,373.434,376.321,379.773,383.691,388.64,393.59,397.508,402.457,406.376,410.859,415.045,419.995,422.882,427.064,433.501,439.939" y="719.211" svg_rhmargin="446.377" style="fill:#171615;font-family:LJLAMH+AdvOTbc475f09;font-size:8.97px;font-style:NORMAL;font-weight:normal;">higher frequency of RAR</text>
  <text x="446.398" y="719.211" svg_rhmargin="451.903" style="fill:#171615;font-family:LJLAKN+AdvP7DA6;font-size:8.97px;font-style:NORMAL;font-weight:normal;">b</text>
  <text x="451.897,456.846,461.024,465.974,469.426,474.375,481.746,486.695,489.582,493.5,496.952,501.162,506.111,510.595,515.544,519.462,522.914,530.285,534.203,537.09,542.039,546.523,548.943,553.427,556.314,558.735,563.684,568.6329999999999,572.876,575.763,580.713,585.196" y="719.211" svg_rhmargin="590.145" style="fill:#171615;font-family:LJLAMH+AdvOTbc475f09;font-size:8.97px;font-style:NORMAL;font-weight:normal;">2 promoter hypermethylation than</text>
  <path d=" M 85.03900146484375 766.885009765625 L 590.1729736328125 766.885009765625 L 590.1729736328125 767.6220092773438 L 85.03900146484375 767.6220092773438 Z " style="fill:none;stroke:#000000;stroke-width:1.0;"/>
  <path d=" M 85.03900146484375 419.0740051269531 L 590.1729736328125 419.0740051269531 L 590.1729736328125 419.8110046386719 L 85.03900146484375 419.8110046386719 Z " style="fill:none;stroke:#000000;stroke-width:1.0;"/>
  <path d="M133.285 40.202 L541.87 40.202 L541.87 353.26 L133.285 353.26 " style="fill:none;stroke:#000000;stroke-width:1.0;"/>
  <rect style="stroke:blue;stroke-width:0.3;" x="133.285" y="40.202" height="313.058" width="408.706" title="7"/>
  <text x="133.285" y="40.202" class="image" id="image.7.1" width="408" height="313">image.7.1.133_542.40_353</text>
  <text svg_rhmargin="114.144" x="85.039,89.396,91.183,95.54,99.814,102.378,106.503,108.002,112.127,114.14399999999999" y="364.258" style="fill:#171615;font-family:LJLBCM+AdvOTf94803d4;font-size:7.47px;font-style:NORMAL;font-weight:normal;">Figure 5. </text>
  <text x="117.921,121.889,126.013,128.344,132.155,135.734,137.90800000000002,139.406,143.68,145.003,149.127,151.30100000000002,152.785,154.653,158.777,161.10799999999998,162.592,166.403,169.982,173.561,177.685,181.496,182.886,186.697,188.871,190.194,194.318,198.286,201.865,203.351,207.475,209.343,210.834,215.892,220.562,225.232,230.051,232.06799999999998,233.566,237.534,243.676,247.643,252.851,256.975,258.992,260.493,264.767,268.891,273.016,275.033,276.536,280.346,284.314,288.588,290.084,294.358,298.483,302.608,304.143,308.418,310.749,314.873,321.015,325.14,327.314,331.125,333.456,334.982,338.95,342.372,346.646,350.456,352.788,358.929,362.74,364.914,368.882,372.304,373.626,377.437,379.611,380.934,385.058,389.026,390.593,396.116,397.438,399.613,403.581,405.05,407.381,408.704,412.283,416.019,417.522,421.646,423.514,425.005,429.279,431.61,435.42,439.231,442.81,444.984,446.49,450.3,454.111,458.079,461.889,465.7,468.031,470.048,471.603,473.388,478.058,479.844,481.296,485.265,489.389,491.72,495.531,499.11,501.284,502.838,507.113,508.435,512.56,514.7339999999999,516.217,518.085,522.21,524.541,526.025,531.083,535.753,540.423,545.242,547.259,548.757,550.543,555.519,557.305,558.791,560.659,564.783,567.114,570.925,574.504,576.678,578.178,582.453,583.805,587.93" y="364.258" svg_rhmargin="590.104" style="fill:#171615;font-family:LJLAKP+AdvOT6e5d2ec0;font-size:7.47px;font-style:NORMAL;font-weight:normal;">Forest plot for associations of DAPK, hMLH1, p14, and p15 promoter hypermethylation with risk of breast cancer. (A) Forest plot for DAPK; (B) forest plot</text>
  <text svg_rhmargin="278.496" x="85.039,86.907,91.032,93.363,95.867,99.834,105.976,109.944,115.152,119.276,121.29299999999999,123.814,125.6,130.808,132.594,135.152,137.02,141.144,143.476,147.286,150.865,153.03900000000002,155.56,159.834,161.156,165.281,167.455,169.959,171.827,175.951,178.28199999999998,180.786,185.061,189.185,193.31,195.327,197.85,199.636,204.694,206.48,208.962,210.829,214.954,217.285,221.096,224.675,226.84900000000002,229.369,233.643,234.966,239.09,241.264,243.768,245.636,249.761,252.09199999999998,254.596,258.87,262.995,267.119,269.136,271.66,276.867,278.49600000000004" y="373.216" style="fill:#171615;font-family:LJLAKP+AdvOT6e5d2ec0;font-size:7.47px;font-style:NORMAL;font-weight:normal;">for hMLH1; (C) forest plot for p14; (D) forest plot for p15. CI </text>
  <text x="279.495" y="373.216" svg_rhmargin="284.553" style="fill:#171615;font-family:LJLALD+AdvOTb0c9bf5d;font-size:7.47px;font-style:NORMAL;font-weight:normal;">=</text>
  <text x="285.448,289.259,293.383" y="373.216" svg_rhmargin="297.351" style="fill:#171615;font-family:LJLAKP+AdvOT6e5d2ec0;font-size:7.47px;font-style:NORMAL;font-weight:normal;">con</text>
  <text x="297.41" y="373.216" svg_rhmargin="300.675" style="fill:#171615;font-family:LJLALC+AdvOT6e5d2ec0+fb;font-size:7.47px;font-style:NORMAL;font-weight:normal;">ﬁ</text>
  <text x="300.642,304.916,308.726,312.694,316.505,320.316,322.864,324.186,328.154,330.328,334.139,336.47,339.892,343.703,345.025,348.604,350.621,353.192,358.714" y="373.216" svg_rhmargin="363.69" style="fill:#171615;font-family:LJLAKP+AdvOT6e5d2ec0;font-size:7.47px;font-style:NORMAL;font-weight:normal;">dence intervals, OR</text>
  <text x="364.648" y="373.216" svg_rhmargin="369.706" style="fill:#171615;font-family:LJLALD+AdvOTb0c9bf5d;font-size:7.47px;font-style:NORMAL;font-weight:normal;">=</text>
  <text x="370.6,374.725,378.999,383.273,386.85200000000003,389.421,391.752,395.563,397.737,399.06,403.184" y="373.216" svg_rhmargin="405.201" style="fill:#171615;font-family:LJLAKP+AdvOT6e5d2ec0;font-size:7.47px;font-style:NORMAL;font-weight:normal;">odds ratio.</text>
  <text x="85.039,90.929,92.34,94.961,99.026,103.258,107.817,110.494,115.053,116.464,120.863,125.095,129.494,132.093,138.645,142.709,147.268,148.679,152.744,154.155,158.387,162.452,165.031,166.936,171.335,175.735,180.134,184.534,186.439,189.067,193.467,197.866,200.018,204.418,208.817,517.041,522.931,528.821,534.711,536.863,543.414,547.973,550.874,552.285,556.685,560.917,563.3,567.532,571.597,573.008,575.16,579.224,583.624" y="9.870999999999981" svg_rhmargin="590.176" style="fill:#171615;font-family:LJLAKP+AdvOT6e5d2ec0;font-size:7.97px;font-style:NORMAL;font-weight:normal;">Qi and Xiong Medicine (2018) 97:51 www.md-journal.com</text>
  <text x="335.396" y="739.625" svg_rhmargin="339.796" style="fill:#171615;font-family:LJLBCM+AdvOTf94803d4;font-size:7.97px;font-style:NORMAL;font-weight:normal;">7</text>
 </g>
</svg>
