<?xml version="1.0" encoding="UTF-8"?>
<svg height="750.472" width="550.5679823416666" xmlns="http://www.w3.org/2000/svg">
 <g style="fill:none;">
  <text x="56.693,60.466,63.621,68.923,74.127,76.763,81.144,84.917,90.993,94.668,99.048,104.458,109.152,113.611,118.815,124.89,127.742,131.417,136.513,144.67600000000002,150.801,155.701,160.601,165.501,170.401,176.487,179.642,184.738,190.834,195.734,200.634,205.534,210.434,212.57,218.666,225.192,230.494,234.875,240.892,244.665,249.045,257.209,262.491,265.039,269.41999999999996,275.534,279.307,281.855,286.138" y="104.49199999999996" svg_rhmargin="290.519" style="fill:#131413;font-family:LFAHAD+SwxqkpAdvTT86d47313;font-size:9.8px;font-style:NORMAL;font-weight:normal;">studies ranged from 2010 to 2017. The sample size</text>
  <text x="56.693,60.368,64.748,70.158,74.852,79.311,84.515,87.533,90.385,94.06,99.156,107.319,110.377,115.277,120.177,123.244,126.4,131.496,134.583,139.482,144.382,146.518,149.547,154.643,159.739,162.287,164.835,169.931,176.869,180.436,185.738,190.942,193.99,199.193,204.495,208.17,212.551,215.706,218.254,223.468,228.878,231.915,235.59,239.971,245.38,250.074,254.455,259.659,262.755,265.607,269.282,274.378,282.541,285.599" y="116.457" svg_rhmargin="290.499" style="fill:#131413;font-family:LFAHAD+SwxqkpAdvTT86d47313;font-size:9.8px;font-style:NORMAL;font-weight:normal;">ranged from 23 to 72. Follow-up duration ranged from 6</text>
  <text x="56.693,59.848,64.944,67.914,72.814,77.714,80.673,88.837,93.933,99.342,102.498,107.888,111.661" y="128.47199999999998" svg_rhmargin="113.797" style="fill:#131413;font-family:LFAHAD+SwxqkpAdvTT86d47313;font-size:9.8px;font-style:NORMAL;font-weight:normal;">to 60 months.</text>
  <text x="56.693,61.863,64.163,67.991,72.591,75.397,80.567,83.437,86.225,91.589,93.889,98.489,102.316,105.104,110.274,113.144,115.877,119.033,124.203,128.895,131.692,133.992,139.163,143.275,145.575,150.745,156.008,160.7,165.962,168.824,172.651,175.807,180.977,186.239,188.539,193.232" y="157.27300000000002" svg_rhmargin="197.059" style="fill:#131413;font-family:LFAGPA+YpcwwnAdvTT99c4c969;font-size:9.2px;font-style:NORMAL;font-weight:normal;">Risk of bias of the included studies</text>
  <text x="56.693,62.811,65.479,69.334,74.23400000000001,79.313,84.53,87.382,92.745,97.844,100.571,105.16,108.93299999999999,114.003,117.857,123.299,131.573,139.739,144.329,148.065,152.446,157.535,162.016,167.517,172.721,177.781,181.576,184.127,188.109,193.00900000000001,198.088,203.187,206.03900000000002,211.471,216.687,219.356,223.945,227.718,232.787,237.553,241.349,245.83,251.154,256.456,261.477,266.007,270.489,275.899,280.977,286.076" y="169.29200000000003" svg_rhmargin="290.457" style="fill:#131413;font-family:LFAHAD+SwxqkpAdvTT86d47313;font-size:9.8px;font-style:NORMAL;font-weight:normal;">Risk of bias summary and risk of bias graph can be</text>
  <text x="56.693,60.575,65.064,69.602,75.012,83.431,86.088,91.49799999999999,99.916,105.121,107.67,112.551,116.404,118.53999999999999,126.988,131.888,140.306,144.78,150.284,155.488,163.943,168.84300000000002,177.261,181.049,185.542,189.428,194.744,199.335,203.809,207.077,209.62,214.221,218.715,221.375,225.869,228.005,236.467,241.686,244.229,248.879,253.26,261.692,265.607,268.875,274.29,279.557,282.218,286.711" y="181.25699999999995" svg_rhmargin="290.484" style="fill:#131413;font-family:LFAHAD+SwxqkpAdvTT86d47313;font-size:9.8px;font-style:NORMAL;font-weight:normal;">seen in Figs. 2 and 3 respectively. Five studies</text>
  <text x="56.673,61.977,66.458,70.232,73.184,78.38,82.155,90.418,94.899,100.103,106.239,111.572,115.347,120.543,125.847,130.386,134.061,140.198,143.943,148.424,153.933,159.237,164.433,172.596,178.772,182.626,187.106,192.41,197.811,202.292,207.801,212.341,216.722,222.829,227.642,232.123,237.632,242.113,245.888,250.368,253.624,256.174,261.448,266.958,269.09400000000005,275.231,279.77,285.27" y="193.27200000000005" svg_rhmargin="290.474" style="fill:#131413;font-family:LFAHAD+SwxqkpAdvTT86d47313;font-size:9.8px;font-style:NORMAL;font-weight:normal;">performed proper random sequence generation, and</text>
  <text x="56.673,59.937,65.346,69.727,74.813,78.556,83.045,86.926,90.08200000000001,95.148,98.382,105.32,110.416,115.463,119.344,122.607,128.017,133.328,135.984,140.472,144.245,149.312,154.584,157.24,162.44400000000002,167.5,173.018,178.221,181.377,186.444,191.775,196.263,200.046,203.005,208.209,211.992,220.155,225.261,230.573,234.355,239.451,244.841,249.33,253.00500000000002,258.061,261.844,266.332,271.85,277.161,282.365" y="205.28700000000003" svg_rhmargin="290.528" style="fill:#131413;font-family:LFAHAD+SwxqkpAdvTT86d47313;font-size:9.8px;font-style:NORMAL;font-weight:normal;">the rest two studies did not perform proper random</text>
  <text x="56.673,60.547,65.029,70.333,75.736,80.267,85.767,90.249,94.63,98.699,103.494,107.976,113.486,117.968,121.744,126.225,129.482,132.131,137.327,142.737,146.797,151.279,156.789,161.993,166.033,173.004,177.485,181.261,185.642,189.712,192.38,194.931,198.903,202.16,206.641,211.845,215.934,220.524,224.297,228.347,233.789,239.299,243.781,246.43,250.911,255.393,259.068,263.157,266.933,269.582,273.456,278.356,282.465,287.564" y="217.25199999999995" svg_rhmargin="290.416" style="fill:#131413;font-family:LFAHAD+SwxqkpAdvTT86d47313;font-size:9.8px;font-style:NORMAL;font-weight:normal;">sequence generation and were listed as unclear risk of</text>
  <text x="56.673,61.882,64.425,69.075,72.99,75.12599999999999,84.608,89.709,92.369,97.892,102.385,106.766,116.276,119.545,124.959,129.452,133.338,137.719,147.229,150.458,157.402,162.498,172.028,177.119,182.514,187.007,190.795,195.288,198.556,201.217,206.426,211.948,215.721,225.212,229.705,234.914,240.328,242.871,248.07500000000002,257.674,263.177,268.385,271.541,280.973,286.065" y="229.26700000000005" svg_rhmargin="290.446" style="fill:#131413;font-family:LFAHAD+SwxqkpAdvTT86d47313;font-size:9.8px;font-style:NORMAL;font-weight:normal;">bias. Since these two operations could not be</text>
  <text x="56.673,62.003,66.51,70.253,73.202,78.424,82.226,90.515,95.022,100.226,106.017,111.112,113.786,116.461,121.957,127.229,131.736,137.007,139.143,144.944,148.177,153.605,158.994,162.767,168.577,171.81,177.239,181.62,187.39,192.613,195.287,197.834,203.39,208.72,211.394,216.891,221.58499999999998,227.376,230.609,235.705,241.496,244.778,250.166,254.547,260.318,265.648,270.155,273.957,277.19,279.854,284.361,287.036" y="241.28200000000004" svg_rhmargin="290.603" style="fill:#131413;font-family:LFAHAD+SwxqkpAdvTT86d47313;font-size:9.8px;font-style:NORMAL;font-weight:normal;">performed blinded, thus the blinding to the partici-</text>
  <text x="56.673,61.979,66.461,71.973,75.319,79.092,83.143,87.625,93.137,98.341,102.382,107.688,112.17,115.947,119.822,125.02,130.531,136.082,140.564,143.112,147.085,154.057,158.647,162.42,166.413,170.895,173.545,176.093,180.125,187.037,189.687,192.945,198.24699999999999,202.239,207.682,213.193,217.676,220.326,224.808,229.291,232.966,236.997,240.774,243.424,247.299,252.199,256.201,261.399,264.251,268.596,273.794,276.346,280.995,284.909" y="253.24699999999996" svg_rhmargin="287.045" style="fill:#131413;font-family:LFAHAD+SwxqkpAdvTT86d47313;font-size:9.8px;font-style:NORMAL;font-weight:normal;">pants and personnel was all with unclear risk of bias.</text>
  <text x="56.693,61.863,66.555,70.383,75.553,77.853,81.009,84.836,87.651,92.822,95.69200000000001,98.48,106.235,110.927,114.083,118.683,121.554,126.154,131.416,136.016,138.316,142.916,146.743,149.043" y="282.054" svg_rhmargin="152.87" style="fill:#131413;font-family:LFAGPA+YpcwwnAdvTT99c4c969;font-size:9.2px;font-style:NORMAL;font-weight:normal;">Results of meta-analysis</text>
  <text x="56.693,61.293,66.27,69.233,74.118,76.317,79.141,84.118,86.317,91.294,96.272,101.24900000000001,104.027,106.226,111.204,114.838" y="294.069" svg_rhmargin="118.472" style="fill:#131413;font-family:LFANAF+XbmmvnAdvTT83913201.I;font-size:9.2px;font-style:NORMAL;font-weight:normal;">Total blood loss</text>
  <text x="56.693,61.827,66.422,71.047,75.564,80.97399999999999,86.107,90.016,93.308,98.746,104.086,106.77,111.287,115.06,120.184,122.869,128.414,132.931,135.615,141.053,146.393,149.078,154.623,159.31699999999998,164.432,169.468,174.504,179.404,184.538,189.878,194.395,197.687,200.371,204.888,210.434,213.833,217.606,222.731,225.415,230.961,235.585,240.102,244.011,247.303,249.987,254.817,259.334,262.626,267.143,272.347,277.461,280.753,286.191" y="306.091" svg_rhmargin="290.572" style="fill:#131413;font-family:LFAHAD+SwxqkpAdvTT86d47313;font-size:9.8px;font-style:NORMAL;font-weight:normal;">Seven studies including 532 patients investigated the</text>
  <text x="56.693,59.982,65.211,68.5,73.014,75.562,83.162,88.431,91.112,96.341,101.571,106.77499999999999,114.385,117.066,122.295,126.202,129.975,137.595,142.824,145.67600000000002,153.316,156.605,163.569,168.665,176.324,180.799,186.136,191.522,195.33,200.559,205.073,209.587,215.022,219.536,223.442,225.578,233.189,242.407,246.921,250.21,254.723,258.424,262.938,268.481,272.994,275.676,280.189,284.096,286.777" y="318.057" svg_rhmargin="290.55" style="fill:#131413;font-family:LFAHAD+SwxqkpAdvTT86d47313;font-size:9.8px;font-style:NORMAL;font-weight:normal;">total blood loss of two approaches. Meta-analysis</text>
  <text x="56.693,60.605,66.046,71.281,78.251,82.77,87.97399999999999,92.063,95.357,100.798,105.318,108.474,112.572,121.796,125.198,128.483,135.12,140.766,144.169,149.26500000000001,153.412,160.382,164.97,168.743,172.851,177.498,181.41,185.322,190.558,195.077,197.764,202.245,205.53,210.05,215.25400000000002,219.401,226.37,229.057,232.352,237.654,241.762,246.143,250.27,254.065,258.585,263.927,269.368,273.888,277.183,279.87,285.105" y="330.072" svg_rhmargin="290.515" style="fill:#131413;font-family:LFAHAD+SwxqkpAdvTT86d47313;font-size:9.8px;font-style:NORMAL;font-weight:normal;">showed that MI-TLIF was associated with a reduction</text>
  <text svg_rhmargin="280.724" x="56.693,61.918,64.77,72.916,76.201,81.632,86.013,94.099,97.384,102.658,105.943,110.453,113.001,121.166,126.392,129.069,134.294,139.569,144.773,152.889,155.556,160.782,164.684,168.457,176.593,179.878,185.309,189.819,195.22899999999998,203.315,211.137,214.422,221.059,226.696,230.088,235.184,243.301,246.586,256.613,265.827,272.971,275.011,280.72400000000005" y="342.087" style="fill:#131413;font-family:LFAHAD+SwxqkpAdvTT86d47313;font-size:9.8px;font-style:NORMAL;font-weight:normal;">of the total blood loss than O-TLIF (WMD = </text>
  <text x="282.894" y="342.087" svg_rhmargin="288.607" style="fill:#131413;font-family:LFAICC+NptskdAdvTT86d47313+22;font-size:9.8px;font-style:NORMAL;font-weight:normal;">−</text>
  <text svg_rhmargin="121.01" x="56.693,61.731,66.72,71.758,74.033,79.071,84.06,86.196,90.127,95.165,100.204,107.035,110.975,117.747,121.01" y="354.052" style="fill:#131413;font-family:LFAHAD+SwxqkpAdvTT86d47313;font-size:9.8px;font-style:NORMAL;font-weight:normal;">291.46; 95% CI </text>
  <text svg_rhmargin="130.662" x="124.949,130.662" y="354.052" style="fill:#131413;font-family:LFAICC+NptskdAdvTT86d47313+22;font-size:9.8px;font-style:NORMAL;font-weight:normal;">− </text>
  <text svg_rhmargin="172.281" x="132.711,137.752,142.744,147.785,150.062,155.103,160.00300000000001,163.888,167.185,172.281" y="354.052" style="fill:#131413;font-family:LFAHAD+SwxqkpAdvTT86d47313;font-size:9.8px;font-style:NORMAL;font-weight:normal;">366.66 to </text>
  <text svg_rhmargin="181.965" x="176.252,181.965" y="354.052" style="fill:#131413;font-family:LFAICC+NptskdAdvTT86d47313+22;font-size:9.8px;font-style:NORMAL;font-weight:normal;">− </text>
  <text svg_rhmargin="213.532" x="184.013,189.057,194.042,199.086,201.367,206.411,211.396,213.53199999999998" y="354.052" style="fill:#131413;font-family:LFAHAD+SwxqkpAdvTT86d47313;font-size:9.8px;font-style:NORMAL;font-weight:normal;">216.47; </text>
  <text svg_rhmargin="222.968" x="217.46,222.96800000000002" y="354.052" style="fill:#131413;font-family:LFAICB+BwjfmlAdvTT8861b38f.I;font-size:9.8px;font-style:NORMAL;font-weight:normal;">P </text>
  <text x="225.055,230.768,232.874,237.86,240.141,245.186,250.231,255.217,257.353,261.281,266.493,269.186,274.025,276.161,280.101" y="354.052" svg_rhmargin="285.001" style="fill:#131413;font-family:LFAHAD+SwxqkpAdvTT86d47313;font-size:9.8px;font-style:NORMAL;font-weight:normal;">= 0.000; Fig. 4</text>
  <text x="285.089" y="354.052" svg_rhmargin="288.245" style="fill:#131413;font-family:LFANAG+WhgnhyAdvTT4fa15320.B;font-size:9.8px;font-style:NORMAL;font-weight:normal;">)</text>
  <text x="288.382" y="354.052" svg_rhmargin="290.518" style="fill:#131413;font-family:LFAHAD+SwxqkpAdvTT86d47313;font-size:9.8px;font-style:NORMAL;font-weight:normal;">.</text>
  <text x="56.683,63.208,68.704,71.387,75.16,81.195,89.493,94.009,97.3,101.816,105.518,110.034,115.579,120.094,122.778,127.293,131.202,133.885,137.658,143.751,146.415,151.96,156.583,161.814,164.498,169.121,173.637,178.841,184.915,189.296,195.35,199.16,203.676,209.221,214.56,219.791,228.089,231.792,236.307,239.255,242.262,246.856,251.391,254.79,258.563,264.598,272.896,278.128,283.467,287.982" y="366.067" svg_rhmargin="290.53" style="fill:#131413;font-family:LFAHAD+SwxqkpAdvTT86d47313;font-size:9.8px;font-style:NORMAL;font-weight:normal;">This meta-analysis involved a random-effects model</text>
  <text x="56.683,61.904,66.557,71.063,75.599,81.026,84.924,89.305,97.28,102.492,105.34400000000001,113.544,118.991,121.664,126.484,131.786,139.751,145.198,149.733,153.024,157.53,161.33,166.601,171.42,175.926,181.461,185.997,188.66,191.941,196.322,204.297,208.832,217.111,222.333,227.868,232.56199999999998,240.508,243.799,249.226,253.607,261.581,265.48,268.761,274.188,279.517,282.191,286.726" y="378.082" svg_rhmargin="290.499" style="fill:#131413;font-family:LFAHAD+SwxqkpAdvTT86d47313;font-size:9.8px;font-style:NORMAL;font-weight:normal;">because of high heterogeneity among the studies</text>
  <text x="56.683" y="390.047" svg_rhmargin="59.839" style="fill:#131413;font-family:LFAHAD+SwxqkpAdvTT86d47313;font-size:9.8px;font-style:NORMAL;font-weight:normal;">(</text>
  <text x="59.976" y="390.047" svg_rhmargin="63.132" style="fill:#131413;font-family:LFAICB+BwjfmlAdvTT8861b38f.I;font-size:9.8px;font-style:NORMAL;font-weight:normal;">I</text>
  <text svg_rhmargin="66.944" x="63.269,66.944" y="390.054" style="fill:#131413;font-family:LFAHAD+SwxqkpAdvTT86d47313;font-size:6.53px;font-style:NORMAL;font-weight:normal;">2 </text>
  <text x="70.979,76.692,78.801,83.79,88.828,91.103,96.141,103.109,106.403" y="390.054" svg_rhmargin="108.539" style="fill:#131413;font-family:LFAHAD+SwxqkpAdvTT86d47313;font-size:9.8px;font-style:NORMAL;font-weight:normal;">= 88.8%).</text>
  <text x="56.693,60.907,65.212,70.189,75.167,78.129,83.10600000000001,85.949,90.926,93.70400000000001,96.493,101.47,106.447,110.081,115.058,117.257,120.22,125.105,127.304,130.11,133.744,136.706,141.591" y="418.854" svg_rhmargin="145.897" style="fill:#131413;font-family:LFANAF+XbmmvnAdvTT83913201.I;font-size:9.2px;font-style:NORMAL;font-weight:normal;">Length of hospital stay</text>
  <text x="56.693,61.691,64.239,69.031,73.245,77.018,80.173,85.475,90.679,93.227,97.607,101.38,105.555,108.103,113.513,117.893,120.441,125.743,130.947,133.495,139.002,143.696,147.734,152.634,157.602,162.502,166.56,171.763,176.144,179.299,181.847,186.228,191.736,194.969,198.742,202.849,206.524,210.904,216.108,221.204,224.957,228.113,232.493,237.697,241.793,246.997,251.378,254.533,258.914,263.049,268.145,273.555,277.671,280.826,286.128" y="430.872" svg_rhmargin="290.509" style="fill:#131413;font-family:LFAHAD+SwxqkpAdvTT86d47313;font-size:9.8px;font-style:NORMAL;font-weight:normal;">Six studies including 522 patients reported data on the</text>
  <text x="56.693,59.241,63.621,69.031,73.725,76.881,82.18299999999999,86.573,91.669,94.521,99.097,104.399,109.495,113.268,118.471,121.019,124.175,128.556,131.104,135.494,139.267,142.422,146.891,151.272,153.408,157.72,164.247,169.549,172.097,175.87,180.172,188.335,192.715,195.871,200.252,203.819,208.199,213.609,217.989,220.537,225.075,228.848,231.396,235.16899999999998,239.471,243.244,248.546,253.641,260.56,264.941,270.145,274.505,277.661,282.963,287.343" y="442.887" svg_rhmargin="290.499" style="fill:#131413;font-family:LFAHAD+SwxqkpAdvTT86d47313;font-size:9.8px;font-style:NORMAL;font-weight:normal;">length of hospital stay. This meta-analysis showed that</text>
  <text x="56.693,59.848,65.15,69.531,73.206,77.587,80.899,87.729,92.237,96.00999999999999,99.264,104.673,109.769,112.984,116.756,119.304,123.999,129.477,132.025,134.877,137.424,141.805,146.186,151.595,154.751,158.053,163.257,165.805,168.657,171.509,175.889,179.564,183.945,189.462,193.843,198.224,201.477,206.573,210.953,214.109,220.939,225.32,229.7,235.10999999999999,238.442,241.597,246.899,251.28,254.543,263.628,266.891,270.076,276.603,282.11,285.374" y="454.853" svg_rhmargin="290.47" style="fill:#131413;font-family:LFAHAD+SwxqkpAdvTT86d47313;font-size:9.8px;font-style:NORMAL;font-weight:normal;">there was no significant difference between the MI-TLIF</text>
  <text x="56.693,61.073,66.483,71.687,77.723,85.377,88.552,95.079,100.587,103.85,108.946,114.973,117.521,122.931,128.977,132.133,136.513,140.188,148.351,152.124,158.171,163.267,166.119,172.116,175.272,180.573,184.954,190.991,193.539,197.919,203.329,208.023,211.179,216.481,222.507,227.603,230.455,236.678,241.98,247.076,250.848,256.052,258.6,261.854,266.234,268.782,274.78,278.553,281.708,286.089" y="466.868" svg_rhmargin="290.47" style="fill:#131413;font-family:LFAHAD+SwxqkpAdvTT86d47313;font-size:9.8px;font-style:NORMAL;font-weight:normal;">and O-TLIF in terms of the length of hospital stay</text>
  <text svg_rhmargin="93.697" x="56.693,59.848,69.746,78.831,85.97500000000001,87.984,93.69699999999999" y="478.882" style="fill:#131413;font-family:LFAHAD+SwxqkpAdvTT86d47313;font-size:9.8px;font-style:NORMAL;font-weight:normal;">(WMD = </text>
  <text svg_rhmargin="101.351" x="95.638,101.351" y="478.882" style="fill:#131413;font-family:LFAICC+NptskdAdvTT86d47313+22;font-size:9.8px;font-style:NORMAL;font-weight:normal;">− </text>
  <text svg_rhmargin="155.378" x="103.35,108.25,110.387,115.286,120.186,122.322,125.576,130.476,135.376,142.207,145.48,152.115,155.37800000000001" y="478.882" style="fill:#131413;font-family:LFAHAD+SwxqkpAdvTT86d47313;font-size:9.8px;font-style:NORMAL;font-weight:normal;">1.63, 95% CI </text>
  <text svg_rhmargin="164.393" x="158.68,164.393" y="478.882" style="fill:#131413;font-family:LFAICC+NptskdAdvTT86d47313+22;font-size:9.8px;font-style:NORMAL;font-weight:normal;">− </text>
  <text svg_rhmargin="216.94" x="166.334,171.234,173.371,178.27,183.17000000000002,186.463,189.619,194.715,197.968,202.868,205.005,209.905,214.804,216.94" y="478.882" style="fill:#131413;font-family:LFAHAD+SwxqkpAdvTT86d47313;font-size:9.8px;font-style:NORMAL;font-weight:normal;">3.76 to 0.49; </text>
  <text svg_rhmargin="225.761" x="220.253,225.761" y="478.882" style="fill:#131413;font-family:LFAICB+BwjfmlAdvTT8861b38f.I;font-size:9.8px;font-style:NORMAL;font-weight:normal;">P </text>
  <text x="227.74,233.453,235.394,240.294,242.43,247.33,252.23,257.13,259.266,262.55,267.646,270.194,274.888,277.024,280.346,285.227,288.382" y="478.882" svg_rhmargin="290.518" style="fill:#131413;font-family:LFAHAD+SwxqkpAdvTT86d47313;font-size:9.8px;font-style:NORMAL;font-weight:normal;">= 0.132; Fig. 5).</text>
  <text x="56.693,65.777,70.158,73.314,77.782,81.349,85.73,91.14,95.52,98.068,102.449,106.222,108.77,112.54299999999999,116.678,119.226,124.636,129.124,134.22,136.768,141.335,145.715,150.919,154.996,159.377,163.443,167.118,171.499,176.908,182.112,187.208,195.371,198.938,203.319,206.171,209.14,213.619,217.999,221.272,225.045,229.152,237.315,242.411,247.615,251.995,254.543,258.63,263.726,268.263,272.643,277.024,282.326,286.099" y="490.848" svg_rhmargin="290.48" style="fill:#131413;font-family:LFAHAD+SwxqkpAdvTT86d47313;font-size:9.8px;font-style:NORMAL;font-weight:normal;">Meta-analysis involved a random-effects model because</text>
  <text x="56.693,61.789,64.641,67.806,73.108,75.656,80.35,85.65199999999999,88.67,93.972,98.352,101.508,105.888,109.563,114.659,119.451,123.832,129.242,133.622,136.17,139.326,143.707,146.725,151.105,159.268,164.364,169.774,174.468,177.447,180.603,185.905,190.286,193.264,197.037,200.193,205.495,210.786,213.334,217.715,221.488,224.448" y="502.863" svg_rhmargin="227.604" style="fill:#131413;font-family:LFAHAD+SwxqkpAdvTT86d47313;font-size:9.8px;font-style:NORMAL;font-weight:normal;">of high heterogeneity among the studies (</text>
  <text x="227.623" y="502.863" svg_rhmargin="230.779" style="fill:#131413;font-family:LFAICB+BwjfmlAdvTT8861b38f.I;font-size:9.8px;font-style:NORMAL;font-weight:normal;">I</text>
  <text svg_rhmargin="234.472" x="230.797,234.472" y="502.872" style="fill:#131413;font-family:LFAHAD+SwxqkpAdvTT86d47313;font-size:6.53px;font-style:NORMAL;font-weight:normal;">2 </text>
  <text x="237.43,243.143,245.084,249.984,254.884,257.02,261.92,268.75,271.906" y="502.872" svg_rhmargin="274.042" style="fill:#131413;font-family:LFAHAD+SwxqkpAdvTT86d47313;font-size:9.8px;font-style:NORMAL;font-weight:normal;">= 99.2%).</text>
  <text x="56.693,63.013,67.991,72.296,75.452,80.337,83.392,85.59,90.568,95.545,98.305,101.267,103.466,110.937" y="531.672" svg_rhmargin="115.243" style="fill:#131413;font-family:LFANAF+XbmmvnAdvTT83913201.I;font-size:9.2px;font-style:NORMAL;font-weight:normal;">Operating time</text>
  <text x="56.693,61.898,64.652,69.444,74.12,78.149,81.511,87.02,92.43,95.185,99.772,103.545,108.103,110.858,116.415,121.003,123.758,129.266,134.677,137.431,143.048,147.742,152.29,157.397,162.503,167.403,171.971,175.853,180.44,185.851,191.153,195.035,198.397,202.985,208.18900000000002,212.795,218.206,222.793,226.156,230.537,235.114,240.416,245.826,250.394,255.696,261.107,265.694,269.576,274.163,277.526,280.281,285.897" y="543.691" svg_rhmargin="290.591" style="fill:#131413;font-family:LFAHAD+SwxqkpAdvTT86d47313;font-size:9.8px;font-style:NORMAL;font-weight:normal;">Six studies including 532 reported data on operating</text>
  <text x="56.693,60.052,62.804,71.171,75.756,77.892,82.78,92.078,96.663,100.022,104.558,108.358,112.942,118.556,123.14,125.892,130.476,134.453,137.205,140.978,145.876,149.755,154.339,158.316,163.822,166.573,169.729,174.793,178.77,184.276,189.576,196.61,201.145,206.34900000000002,211.296,214.656,220.161,224.746,227.90200000000002,232.799,236.159,241.664,246.248,250.127,254.508,259.425,266.45,271.152,274.925,279.823,285.436" y="555.657" svg_rhmargin="290.532" style="fill:#131413;font-family:LFAHAD+SwxqkpAdvTT86d47313;font-size:9.8px;font-style:NORMAL;font-weight:normal;">time. Meta-analysis result showed that there was no</text>
  <text x="56.693,60.67,63.422,68.32,73.933,76.685,79.74,82.492,87.028,91.612,97.225,100.381,105.044,110.49,113.242,116.298,119.353,123.938,127.817,132.401,138.014,142.599,147.183,150.956,155.57,158.626,163.925,167.60000000000002,172.204,177.534,182.941,187.526,191.404,195.94,199.299,202.051,207.664,212.35799999999998,217.021,220.381,223.133,231.5,235.881,240.572,243.324,248.734,253.416,262.705,266.172,269.512,276.262,281.973,285.44" y="567.672" svg_rhmargin="290.536" style="fill:#131413;font-family:LFAHAD+SwxqkpAdvTT86d47313;font-size:9.8px;font-style:NORMAL;font-weight:normal;">significant differences for operating time in MI-TLIF</text>
  <text svg_rhmargin="208.272" x="56.693,61.581,65.489,70.779,76.275,81.479,85.681,90.275,95.879,101.083,105.285,113.132,116.472,123.193,128.895,132.411,137.507,141.484,146.372,150.28,155.57,161.066,166.27,170.472,173.812,183.962,193.26,200.404,202.559,208.272" y="579.686" style="fill:#131413;font-family:LFAHAD+SwxqkpAdvTT86d47313;font-size:9.8px;font-style:NORMAL;font-weight:normal;">group and O-TLIF group (WMD = </text>
  <text svg_rhmargin="216.098" x="210.385,216.09799999999998" y="579.686" style="fill:#131413;font-family:LFAICC+NptskdAdvTT86d47313+22;font-size:9.8px;font-style:NORMAL;font-weight:normal;">− </text>
  <text svg_rhmargin="278.67" x="218.264,223.365,228.466,230.803,235.904,241.005,243.141,247.35,252.451,257.493,264.324,268.552,275.407,278.66999999999996" y="579.686" style="fill:#131413;font-family:LFAHAD+SwxqkpAdvTT86d47313;font-size:9.8px;font-style:NORMAL;font-weight:normal;">12.89, 95% CI </text>
  <text x="282.835" y="579.686" svg_rhmargin="288.548" style="fill:#131413;font-family:LFAICC+NptskdAdvTT86d47313+22;font-size:9.8px;font-style:NORMAL;font-weight:normal;">−</text>
  <text svg_rhmargin="122.848" x="56.693,61.792,66.891,69.226,74.325,79.22500000000001,84.363,87.717,92.813,97.981,103.08,108.179,110.514,115.613,120.712,122.848" y="591.652" style="fill:#131413;font-family:LFAHAD+SwxqkpAdvTT86d47313;font-size:9.8px;font-style:NORMAL;font-weight:normal;">44.53 to 18.76; </text>
  <text svg_rhmargin="133.466" x="127.958,133.466" y="591.652" style="fill:#131413;font-family:LFAICB+BwjfmlAdvTT8861b38f.I;font-size:9.8px;font-style:NORMAL;font-weight:normal;">P </text>
  <text x="135.611,141.32399999999998,143.494,148.592,150.938,156.046,161.155,166.264,168.4,173.518,178.823,181.58,186.483,188.619,193.725,198.831,202.185,204.321,209.499,216.126,221.627,224.374,228.147,233.275,241.638,246.217,249.572,254.151,257.917,262.497,268.105,272.685,275.432,280.011,283.983,286.73" y="591.652" svg_rhmargin="290.503" style="fill:#131413;font-family:LFAHAD+SwxqkpAdvTT86d47313;font-size:9.8px;font-style:NORMAL;font-weight:normal;">= 0.425; Fig. 6). This meta-analysis</text>
  <text x="56.703,59.459,65.078,69.775,75.079,77.836,82.533,87.123,92.327,99.591,103.972,111.266,115.12,119.709,125.327,130.74,136.045,144.417,148.193,152.782,155.842,158.903,163.551,168.14,171.603,175.376,182.66,191.051,196.356,201.769,206.358,208.906,216.161,221.465,226.114,230.703,235.292,240.803,244.784,249.165,256.459,261.764,264.616,272.086,277.596,280.353,285.256" y="603.667" svg_rhmargin="290.558" style="fill:#131413;font-family:LFAHAD+SwxqkpAdvTT86d47313;font-size:9.8px;font-style:NORMAL;font-weight:normal;">involved a random-effects model because of high</text>
  <text x="56.703,62.209,66.795,70.155,74.74,78.62,83.921,88.82,93.405,99.02,103.605,106.358,109.718,114.099,118.224,122.819,131.187,136.488,142.102,146.796,150.891,154.252,159.758,164.139,168.264,172.232,175.592,181.099,186.507,189.26,193.845,197.618,201.724" y="615.681" svg_rhmargin="204.88" style="fill:#131413;font-family:LFAHAD+SwxqkpAdvTT86d47313;font-size:9.8px;font-style:NORMAL;font-weight:normal;">heterogeneity among the studies (</text>
  <text x="205.122" y="615.681" svg_rhmargin="208.278" style="fill:#131413;font-family:LFAICB+BwjfmlAdvTT8861b38f.I;font-size:9.8px;font-style:NORMAL;font-weight:normal;">I</text>
  <text svg_rhmargin="212.135" x="208.46,212.13500000000002" y="615.691" style="fill:#131413;font-family:LFAHAD+SwxqkpAdvTT86d47313;font-size:6.53px;font-style:NORMAL;font-weight:normal;">2 </text>
  <text x="216.227,221.94,224.106,229.202,234.298,236.63,241.726,248.753,252.104" y="615.691" svg_rhmargin="254.24" style="fill:#131413;font-family:LFAHAD+SwxqkpAdvTT86d47313;font-size:9.8px;font-style:NORMAL;font-weight:normal;">= 97.6%).</text>
  <text x="56.693,61.578,66.555,70.189,73.152,78.129,83.106,87.412,90.568,95.582,98.544,100.743,105.15,109.456,112.252,117.515,122.97,127.469,130.22,133.854,137.783,142.76,145.915" y="644.491" svg_rhmargin="150.221" style="fill:#131413;font-family:LFANAF+XbmmvnAdvTT83913201.I;font-size:9.2px;font-style:NORMAL;font-weight:normal;">Postoperative VAS score</text>
  <text x="56.693,61.993,64.744,69.437,73.818,79.872,83.848,87.208,92.713,98.121,100.873,105.457,109.22999999999999,115.265,118.046,123.66,128.352,133.652,136.403,141.096,143.847,149.402,154.09599999999998,160.17,165.274,170.378,175.278,181.322,186.71,191.295,194.654,197.406,201.99,207.604,211.061,214.834,220.869,223.65,229.205,233.907,238.491,242.468,245.827,248.579,253.477,258.061,261.421,266.005,271.209,277.283,280.623,286.128" y="656.454" svg_rhmargin="290.509" style="fill:#131413;font-family:LFAHAD+SwxqkpAdvTT86d47313;font-size:9.8px;font-style:NORMAL;font-weight:normal;">Five studies involving 457 patients investigated the</text>
  <text x="56.693,61.993,67.498,70.858,75.442,80.742,89.109,93.49,100.612,105.941,108.793,115.916,121.304,126.603,130.58,133.94,139.239,144.647,149.231,153.11,157.695,161.054,163.806,168.498,172.879,179.492,185.673,192.933,198.135,200.271,207.374,214.007,219.561,222.313,226.08599999999998,233.199,241.566,246.151,249.51,254.094,257.865,262.45,268.063,272.647,275.399,279.984,283.96,286.712" y="668.468" svg_rhmargin="290.485" style="fill:#131413;font-family:LFAHAD+SwxqkpAdvTT86d47313;font-size:9.8px;font-style:NORMAL;font-weight:normal;">outcome of postoperative VAS. This meta-analysis</text>
  <text x="56.693,60.673,66.181,71.484,78.521,83.109,88.31299999999999,93.821,97.183,102.692,107.279,110.435,115.953,119.315,124.824,129.411,133.293,137.674,143.211,150.239,154.944,158.71699999999998,164.186,169.802,174.898,180.456,184.436,187.19,192.091,197.708,200.462,203.521,206.276,210.863,215.45,221.067,224.223,229.74,235.122,237.876,240.935,243.993,248.532,252.413,257.001,262.617,267.204,271.58500000000004,277.064,282.396,286.984" y="680.483" svg_rhmargin="290.551" style="fill:#131413;font-family:LFAHAD+SwxqkpAdvTT86d47313;font-size:9.8px;font-style:NORMAL;font-weight:normal;">showed that there was no significant difference be-</text>
  <text x="56.693,60.044,67.071,71.648,76.224,81.634,89.826,93.178,98.676,103.057,111.259,116.649,121.941,125.91,129.261,134.553,139.953,144.529,148.4,152.977,156.377,159.102,163.786,168.167,175.801,182.034,189.286,194.284,202.496,207.033,210.081,213.481,218.058,221.733,229.965,239.245,242.764,246.105,252.848,258.551,262.011,267.107,275.103,279.699,285.305" y="692.449" svg_rhmargin="290.509" style="fill:#131413;font-family:LFAHAD+SwxqkpAdvTT86d47313;font-size:9.8px;font-style:NORMAL;font-weight:normal;">tween the postoperative VAS after MI-TLIF and</text>
  <text svg_rhmargin="132.162" x="56.693,64.567,67.914,74.661,80.33,83.814,88.91,94.354,97.73,107.848,117.153,124.29700000000001,126.449,132.162" y="704.463" style="fill:#131413;font-family:LFAHAD+SwxqkpAdvTT86d47313;font-size:9.8px;font-style:NORMAL;font-weight:normal;">O-TLIF (WMD = </text>
  <text svg_rhmargin="139.962" x="134.249,139.962" y="704.463" style="fill:#131413;font-family:LFAICC+NptskdAdvTT86d47313+22;font-size:9.8px;font-style:NORMAL;font-weight:normal;">− </text>
  <text svg_rhmargin="199.947" x="142.128,147.234,149.576,154.682,159.788,161.924,167.383,172.489,177.594,184.42499999999998,189.844,196.684,199.947" y="704.463" style="fill:#131413;font-family:LFAHAD+SwxqkpAdvTT86d47313;font-size:9.8px;font-style:NORMAL;font-weight:normal;">0.19, 95% CI </text>
  <text svg_rhmargin="211.051" x="205.338,211.051" y="704.463" style="fill:#131413;font-family:LFAICC+NptskdAdvTT86d47313+22;font-size:9.8px;font-style:NORMAL;font-weight:normal;">− </text>
  <text svg_rhmargin="269.782" x="213.217,218.314,220.647,225.744,230.644,236.123,239.476,244.572,250.021,255.118,257.452,262.549,267.646,269.78200000000004" y="704.463" style="fill:#131413;font-family:LFAHAD+SwxqkpAdvTT86d47313;font-size:9.8px;font-style:NORMAL;font-weight:normal;">0.63 to 0.25; </text>
  <text svg_rhmargin="280.69" x="275.182,280.69" y="704.463" style="fill:#131413;font-family:LFAICB+BwjfmlAdvTT8861b38f.I;font-size:9.8px;font-style:NORMAL;font-weight:normal;">P </text>
  <text x="282.894" y="704.463" svg_rhmargin="288.607" style="fill:#131413;font-family:LFAHAD+SwxqkpAdvTT86d47313;font-size:9.8px;font-style:NORMAL;font-weight:normal;">=</text>
  <text x="56.693,61.79,64.123,69.22,74.317,79.414,81.55,92.792,98.085,100.83,105.721,107.857,119.108,124.214,127.568,129.704,140.947,147.583,153.083,155.829,159.602,170.854,179.215,183.794,187.147,191.726,195.491,200.069,205.677,210.255,213.001,217.58,221.6,224.316,228.089,239.341,242.058,247.665,252.352,257.646,260.392,265.078,269.656,274.86,286.093" y="716.478" svg_rhmargin="290.474" style="fill:#131413;font-family:LFAHAD+SwxqkpAdvTT86d47313;font-size:9.8px;font-style:NORMAL;font-weight:normal;">0.389; Fig. 7). This meta-analysis involved a</text>
  <text x="56.693,60.575,65.162,70.778,76.189,81.492,89.862,93.636,98.223,101.281,104.34,108.986,113.573,117.034,120.807,126.1,134.431,139.733,145.144,149.731,152.279,157.552,162.855,167.56,172.147,176.735,182.243,186.223,190.604,195.857,201.16,204.012,209.432,214.941,217.695,222.596,227.898,233.142,238.651,243.189,246.551,251.139,255.02,260.323,265.224,269.811,275.428,280.015,282.77,286.132" y="728.444" svg_rhmargin="290.513" style="fill:#131413;font-family:LFAHAD+SwxqkpAdvTT86d47313;font-size:9.8px;font-style:NORMAL;font-weight:normal;">random-effects model because of high heterogeneity</text>
  <text x="56.693,61.275,69.641,74.938,80.55,85.244,89.395,92.743,98.246,102.627,106.749,110.724,114.081,119.585,124.99,127.74,132.323,136.096,140.198" y="740.458" svg_rhmargin="143.354" style="fill:#131413;font-family:LFAHAD+SwxqkpAdvTT86d47313;font-size:9.8px;font-style:NORMAL;font-weight:normal;">among the studies (</text>
  <text x="143.598" y="740.458" svg_rhmargin="146.754" style="fill:#131413;font-family:LFAICB+BwjfmlAdvTT8861b38f.I;font-size:9.8px;font-style:NORMAL;font-weight:normal;">I</text>
  <text svg_rhmargin="150.623" x="146.948,150.62300000000002" y="740.472" style="fill:#131413;font-family:LFAHAD+SwxqkpAdvTT86d47313;font-size:6.53px;font-style:NORMAL;font-weight:normal;">2 </text>
  <text svg_rhmargin="192.825" x="154.715,160.428,162.591,167.704,172.816,175.165,180.278,187.321,190.689,192.825" y="550.154" style="fill:#131413;font-family:LFAHAD+SwxqkpAdvTT86d47313;font-size:9.8px;font-style:NORMAL;font-weight:normal;">= 88.8%). </text>
  <text x="304.724,309.61,314.587,318.221,321.183,326.161,331.138,335.443,338.599,343.613,346.576,348.774,353.181,357.48699999999997,360.284,366.604,372.639" y="550.154" svg_rhmargin="374.939" style="fill:#131413;font-family:LFANAF+XbmmvnAdvTT83913201.I;font-size:9.2px;font-style:NORMAL;font-weight:normal;">Postoperative ODI</text>
  <text x="304.724,310.043,312.764,317.475,321.856,327.399,331.365,334.763,340.287,345.674,348.445,353.048,356.821,362.345,365.125,370.757,375.409,380.012,383.978,387.356,390.078,394.955,399.548,402.926,407.529,412.733,418.296,421.645,427.169,431.54999999999995,437.143,442.412,447.907,451.285,455.888,461.157,469.543,473.924,479.467,484.796,487.64799999999997,493.181,498.627,503.897,507.863,511.241,516.51,521.936,526.471,530.368,534.971" y="562.173" svg_rhmargin="538.538" style="fill:#131413;font-family:LFAHAD+SwxqkpAdvTT86d47313;font-size:9.8px;font-style:NORMAL;font-weight:normal;">Five studies investigated the outcome of postopera-</text>
  <text x="304.724,308.073,310.814,315.495,319.876,325.136,332.982,340.32,343.776,345.91200000000003,351.143,357.774,363.269,366.01,369.783,375.023,383.379,387.953,391.302,395.875,399.635,404.209,409.812,414.385,417.126,421.794,425.766,428.513,432.286,437.522,441.494,446.994,452.289,459.319,463.898,469.10200000000003,474.328,477.673,483.174,487.753,490.909,496.086,499.489,504.99,509.57,513.443,517.824,523.021,530.109,534.757" y="574.188" svg_rhmargin="538.53" style="fill:#131413;font-family:LFAHAD+SwxqkpAdvTT86d47313;font-size:9.8px;font-style:NORMAL;font-weight:normal;">tive ODI. This meta-analysis showed that there was</text>
  <text x="304.724,310.343,315.439,321.459,325.44,328.197,333.1,338.718,341.475,344.535,347.292,351.823,356.412,362.03,365.186,371.216,376.599,379.355,382.416,385.418,390.007,393.891,398.48,404.098,408.629,413.01,419.059,424.334,428.923,432.288,439.327,443.916,448.506,453.916,459.896,463.26,468.771,473.15200000000004,479.201,487.024,494.377,497.64,503.67,508.975,513.564,516.929,523.968,528.557,533.146" y="586.154" svg_rhmargin="538.556" style="fill:#131413;font-family:LFAHAD+SwxqkpAdvTT86d47313;font-size:9.8px;font-style:NORMAL;font-weight:normal;">no significant difference between the ODI between</text>
  <text x="304.724,314.013,317.48,320.82,327.57,333.281,336.748,341.844,347.291,351.885,357.499,362.70300000000003,368.326,376.183,379.523,386.254,391.965,395.432,400.528,405.975,410.873,414.752,420.051,425.557,430.965,434.738,440.371,443.73,453.832,463.12,470.264,472.418,478.13100000000003,480.295,485.399,487.739,492.843,497.947,500.083,505.716,510.82,515.924,522.755,528.456,535.294" y="598.168" svg_rhmargin="538.557" style="fill:#131413;font-family:LFAHAD+SwxqkpAdvTT86d47313;font-size:9.8px;font-style:NORMAL;font-weight:normal;">MI-TLIF and O-TLIF groups (WMD = 0.20, 95% CI</text>
  <text svg_rhmargin="310.437" x="304.724,310.437" y="610.183" style="fill:#131413;font-family:LFAICC+NptskdAdvTT86d47313+22;font-size:9.8px;font-style:NORMAL;font-weight:normal;">− </text>
  <text svg_rhmargin="369.148" x="312.603,317.706,320.045,325.148,330.048,335.523,338.882,343.978,349.424,354.526,356.866,361.968,367.012,369.148" y="610.183" style="fill:#131413;font-family:LFAHAD+SwxqkpAdvTT86d47313;font-size:9.8px;font-style:NORMAL;font-weight:normal;">1.18 to 1.58; </text>
  <text svg_rhmargin="380.194" x="374.686,380.19399999999996" y="610.183" style="fill:#131413;font-family:LFAICB+BwjfmlAdvTT8861b38f.I;font-size:9.8px;font-style:NORMAL;font-weight:normal;">P </text>
  <text x="382.34,388.053,390.163,395.262,397.646,402.696,407.795,412.894,415.03000000000003,420.55,425.826,428.602,433.475,435.61100000000005,441.07,446.176,449.529,451.665,457.124,463.76,469.318,472.063,475.836,481.305,489.665,494.243,497.595,502.173,505.937,510.514,516.121,520.698,523.443,528.021,532.05,534.775" y="610.183" svg_rhmargin="538.548" style="fill:#131413;font-family:LFAHAD+SwxqkpAdvTT86d47313;font-size:9.8px;font-style:NORMAL;font-weight:normal;">= 0.778; Fig. 8). This meta-analysis</text>
  <text x="304.724,307.478,313.093,317.788,323.089,325.843,330.537,335.124,340.32800000000003,348.902,353.283,361.946,365.797,370.384,375.999,381.409,386.71,395.079,398.852,403.439,406.447,409.505,414.209,418.795,422.255,426.028,434.612,443.001,448.303,453.712,458.299,460.847,469.471,474.772,479.476,484.063,488.649,494.156,498.135,502.51599999999996,511.12,516.422,519.274,527.878,533.493" y="622.149" svg_rhmargin="538.589" style="fill:#131413;font-family:LFAHAD+SwxqkpAdvTT86d47313;font-size:9.8px;font-style:NORMAL;font-weight:normal;">involved a random-effects model because of no</text>
  <text x="304.724,308.701,311.453,316.351,321.964,324.716,327.772,330.523,335.059,339.643,345.257,348.413,355.692,361.187,365.772,369.131,373.715,377.594,382.894,387.792,392.376,397.99,402.574,405.326,408.685,413.06600000000003,420.306,424.89,433.258,438.557,444.171,448.865,456.134,459.474,464.98,469.361,476.659,480.636,483.996,489.501,494.909,497.661,502.245,506.01800000000003,513.239" y="634.163" svg_rhmargin="516.395" style="fill:#131413;font-family:LFAHAD+SwxqkpAdvTT86d47313;font-size:9.8px;font-style:NORMAL;font-weight:normal;">significant heterogeneity among the studies (</text>
  <text x="516.637" y="634.163" svg_rhmargin="519.793" style="fill:#131413;font-family:LFAICB+BwjfmlAdvTT8861b38f.I;font-size:9.8px;font-style:NORMAL;font-weight:normal;">I</text>
  <text svg_rhmargin="523.662" x="519.987,523.6619999999999" y="634.173" style="fill:#131413;font-family:LFAHAD+SwxqkpAdvTT86d47313;font-size:6.53px;font-style:NORMAL;font-weight:normal;">2 </text>
  <text x="530.872" y="634.173" svg_rhmargin="536.585" style="fill:#131413;font-family:LFAHAD+SwxqkpAdvTT86d47313;font-size:9.8px;font-style:NORMAL;font-weight:normal;">=</text>
  <text x="304.73,309.826,314.922,317.254,322.35,329.377,332.728" y="646.188" svg_rhmargin="334.864" style="fill:#131413;font-family:LFAHAD+SwxqkpAdvTT86d47313;font-size:9.8px;font-style:NORMAL;font-weight:normal;">50.2%).</text>
  <text x="304.724,309.223,311.422,316.399,319.555,324.532,328.166,332.095,337.072,342.049,344.248,348.176,351.038,354.0,356.199,363.669" y="680.491" svg_rhmargin="367.975" style="fill:#131413;font-family:LFANAF+XbmmvnAdvTT83913201.I;font-size:9.2px;font-style:NORMAL;font-weight:normal;">Fluroscopic time</text>
  <text x="304.724,311.249,316.686,320.467,324.953,329.33399999999995,334.026,337.885,341.147,346.554,351.864,354.518,359.004,362.77700000000004,367.45,369.996,375.609,380.203,384.69,388.568,391.83,394.376,399.254,403.741,407.002,411.537,416.741,421.404,424.665,430.073,434.45399999999995,439.146,444.24,449.745,452.977,457.464,462.665,470.935,475.31600000000003,480.007,485.209,488.061,492.694,495.652,498.306,503.713,507.494,512.696,516.575,521.061,526.263,531.573,534.119" y="692.454" svg_rhmargin="538.5" style="fill:#131413;font-family:LFAHAD+SwxqkpAdvTT86d47313;font-size:9.8px;font-style:NORMAL;font-weight:normal;">Three studies investigated the outcome of fluroscopic</text>
  <text x="304.724,307.984,310.528,318.864,323.338,325.47400000000005,332.066,338.589,343.995,346.646,350.41900000000004,356.962,365.239,369.723,372.983,377.467,381.03,385.623,391.116,395.601,398.253,402.737,406.614,409.266,413.03900000000004,419.581,423.458,428.864,433.956,440.988,445.473,450.677,457.209,460.468,465.874,470.358,473.514,480.105,489.294,492.661,495.95,502.581,508.192,511.559,516.655,523.237,530.152,534.744" y="704.468" svg_rhmargin="538.517" style="fill:#131413;font-family:LFAHAD+SwxqkpAdvTT86d47313;font-size:9.8px;font-style:NORMAL;font-weight:normal;">time. This meta-analysis showed that MI-TLIF was</text>
  <text x="304.724,309.318,313.178,317.057,322.151,326.745,329.291,333.826,337.117,341.603,346.807,353.165,360.102,362.755,366.017,371.319,377.696,382.183,387.593,393.921,396.575,402.09,406.577,410.357,414.844,419.438,423.317,427.698,434.036,439.238,442.09,448.418,451.68,457.087,461.46799999999996,467.806,470.754,473.408,478.816,482.596,487.69,491.667,496.144,501.346,506.655,509.309,513.69,520.028,523.29,525.836,534.173" y="716.483" svg_rhmargin="538.554" style="fill:#131413;font-family:LFAHAD+SwxqkpAdvTT86d47313;font-size:9.8px;font-style:NORMAL;font-weight:normal;">associated with an increase of the fluroscopic time</text>
  <text x="304.724,307.977,313.376,317.853,323.26300000000003,328.681,336.432,339.724,346.347,351.952,355.312,360.408,365.856,369.109,379.104,388.285,395.42900000000003,397.467,403.18,405.237,410.224,415.27,417.484,422.481,427.478,429.61400000000003,435.072,440.069,445.066,451.897,457.364,464.095,467.358,472.767,477.764,482.81,485.043,490.04,494.94,500.359,503.651,508.747,514.194,519.191,524.188,526.422,531.419,536.415" y="728.449" svg_rhmargin="538.551" style="fill:#131413;font-family:LFAHAD+SwxqkpAdvTT86d47313;font-size:9.8px;font-style:NORMAL;font-weight:normal;">than O-TLIF (WMD = 35.79, 95% CI 23.31 to 48.27;</text>
  <text svg_rhmargin="310.232" x="304.724,310.23199999999997" y="740.463" style="fill:#131413;font-family:LFAICB+BwjfmlAdvTT8861b38f.I;font-size:9.8px;font-style:NORMAL;font-weight:normal;">P </text>
  <text x="312.26,317.973,320.022,325.01,327.254,332.262,337.27,342.278,344.41400000000004,353.616,358.82,361.475,366.277,368.413,377.626,382.614,385.848,387.98400000000004,397.245,403.772,409.152,411.818,415.591,424.802,433.083,437.562,440.796,445.333,448.9,453.438,458.994,463.473,466.021,470.617,474.468,477.134,480.90700000000004,490.119,492.667,498.282,502.878,507.974,510.699,515.295,519.773,524.977,534.169" y="740.463" svg_rhmargin="538.55" style="fill:#131413;font-family:LFAHAD+SwxqkpAdvTT86d47313;font-size:9.8px;font-style:NORMAL;font-weight:normal;">= 0.000; Fig. 9). This meta-analysis involved a</text>
  <path d=" M 308.75 702.2550048828125 L 534.5579833984375 702.2550048828125 L 534.5579833984375 702.0280151367188 L 308.75 702.0280151367188" style="fill:none;stroke:#131413;stroke-width:0.0;"/>
  <path d=" M 534.5570068359375 702.2550048828125 L 535.2940063476562 702.197998046875 C 536.8519897460938 702.0260009765625 538.333984375 700.4860229492188 538.5260009765625 698.9669799804688 L 538.58203125 698.2869873046875 L 538.35498046875 698.2869873046875 L 538.2990112304688 698.9100341796875 C 538.083984375 700.3889770507812 536.7509765625 701.7470092773438 535.2369995117188 701.9719848632812 L 534.5570068359375 702.0280151367188" style="fill:none;stroke:#131413;stroke-width:0.0;"/>
  <path d=" M 538.5830078125 698.2860107421875 L 538.5830078125 290.551025390625 L 538.3560180664062 290.551025390625 L 538.3560180664062 698.2860107421875" style="fill:none;stroke:#131413;stroke-width:0.0;"/>
  <path d=" M 538.5830078125 290.5509948730469 L 538.5260009765625 289.8710021972656 C 538.3350219726562 288.3509826660156 536.85302734375 286.8110046386719 535.2949829101562 286.6390075683594 L 534.5579833984375 286.5820007324219 L 534.5579833984375 286.8089904785156 L 535.238037109375 286.8659973144531 C 536.7039794921875 287.083984375 538.0809936523438 288.4620056152344 538.2999877929688 289.927001953125 L 538.3560180664062 290.5509948730469" style="fill:none;stroke:#131413;stroke-width:0.0;"/>
  <path d=" M 534.5570068359375 286.5830078125 L 308.7490234375 286.5830078125 L 308.7490234375 286.80999755859375 L 534.5570068359375 286.80999755859375" style="fill:none;stroke:#131413;stroke-width:0.0;"/>
  <path d=" M 308.75 286.5830078125 L 308.01300048828125 286.6400146484375 C 306.4549865722656 286.81201171875 304.9729919433594 288.35101318359375 304.781005859375 289.8710021972656 L 304.7250061035156 290.552001953125 L 304.9519958496094 290.552001953125 L 305.00799560546875 289.9280090332031 C 305.22698974609375 288.4620056152344 306.60400390625 287.08502197265625 308.07000732421875 286.8659973144531 L 308.75 286.80999755859375" style="fill:none;stroke:#131413;stroke-width:0.0;"/>
  <path d=" M 304.7239990234375 290.5509948730469 L 304.7239990234375 698.2860107421875 L 304.95098876953125 698.2860107421875 L 304.95098876953125 290.5509948730469" style="fill:none;stroke:#131413;stroke-width:0.0;"/>
  <path d=" M 304.7239990234375 698.2860107421875 L 304.781005859375 698.9660034179688 C 304.97198486328125 700.4860229492188 306.4540100097656 702.0250244140625 308.0119934082031 702.197998046875 L 308.7489929199219 702.2540283203125 L 308.7489929199219 702.0280151367188 L 308.0690002441406 701.9710083007812 C 306.55499267578125 701.7470092773438 305.2229919433594 700.3890380859375 305.0069885253906 698.9100341796875 L 304.95098876953125 698.2860107421875" style="fill:none;stroke:#131413;stroke-width:0.0;"/>
  <rect style="stroke:blue;stroke-width:0.3;" x="314.192" y="103.981" height="391.181" width="214.988" title="4"/>
  <text x="314.192" y="103.981" class="image" id="image.4.1" width="214" height="391">image.4.1.314_529.104_495</text>
  <text svg_rhmargin="330.51" x="310.734,314.894,317.054,321.718,323.718,326.094,330.51" y="507.181" style="fill:#131413;font-family:LFAGKP+FdhjmmAdvTTaf7f9f4f.B;font-size:8.0px;font-style:NORMAL;font-weight:normal;">Fig. 2 </text>
  <text svg_rhmargin="449.5" x="332.902,336.565,340.813,344.645,347.021,349.349,351.013,353.925,357.253,359.605,363.853,365.933,368.333,372.661,374.325,377.901,380.813,383.189,386.101,390.261,396.757,403.253,406.829,409.157,412.652,413.97999999999996,416.356,421.1,422.428,424.804,429.052,433.3,435.692,440.02,441.684,445.26,448.172,449.5" y="507.181" style="fill:#131413;font-family:LFAGOP+FlrwhjAdvTTb5929f4c;font-size:8.0px;font-style:NORMAL;font-weight:normal;">The risk of bias summary, +, no bias; </text>
  <text x="451.844" y="507.181" svg_rhmargin="456.588" style="fill:#131413;font-family:LFAHAB+FdcchnAdvTTb5929f4c+22;font-size:8.0px;font-style:NORMAL;font-weight:normal;">−</text>
  <text x="456.604,457.93199999999996,460.292,464.62,466.284,469.86,472.772,474.09999999999997,476.508,479.508,480.83599999999996,483.252,487.58,489.243,492.819,495.731,498.107,502.267,506.515,509.843,514.091,518.339,524.083" y="507.181" svg_rhmargin="528.331" style="fill:#131413;font-family:LFAGOP+FlrwhjAdvTTb5929f4c;font-size:8.0px;font-style:NORMAL;font-weight:normal;">, bias; ?, bias unknown</text>
  <text svg_rhmargin="62.273" x="56.697,60.441,62.273" y="48.13900000000001" style="fill:#131413;font-family:LFAGOO+StdmdpAdvTTe45e47d2;font-size:8.0px;font-style:NORMAL;font-weight:normal;">Li </text>
  <text svg_rhmargin="230.055" x="64.689,68.265,70.761,73.137,77.297,79.041,80.705,83.057,85.889,90.049,94.209,96.705,100.952,105.112,106.856,109.248,113.408,115.656,118.032,123.36,125.856,128.352,132.6,136.76,140.92,145.08,148.656,152.816,154.488,157.816,160.216,163.88,168.04,170.536,174.695,178.271,180.767,184.263,186.631,190.791,195.039,199.19899999999998,201.599,205.759,209.335,212.247,215.823,219.983,222.479,225.807,230.05499999999998" y="48.13900000000001" style="fill:#131413;font-family:LFAHPA+QtcjhyAdvTT7329fd89.I;font-size:8.0px;font-style:NORMAL;font-weight:normal;">et al. Journal of Orthopaedic Surgery and Research </text>
  <text svg_rhmargin="280.606" y="48.13900000000001" x="234.079,236.351,240.455,244.559,248.663,252.767,255.038,256.734,260.838,264.942,266.598,270.702,274.806,278.91,280.60600000000005" style="fill:#131413;font-family:MyriadPro-Regular;font-size:8.0px;font-style:NORMAL;font-weight:normal;">(2018) 13:241 </text>
  <text x="496.059,500.307,504.139,508.555,512.5550000000001,514.939,519.019,521.403,525.731,528.059,530.419,534.499" y="48.13900000000001" svg_rhmargin="538.579" style="fill:#131413;font-family:LFAGOO+StdmdpAdvTTe45e47d2;font-size:8.0px;font-style:NORMAL;font-weight:normal;">Page 4 of 10</text>
 </g>
</svg>
