<?xml version="1.0" encoding="UTF-8"?>
<svg height="870.031005859375" width="672.0029907226562" xmlns="http://www.w3.org/2000/svg">
 <g style="fill:none;">
  <path d=" M 0.05999799817800522 826.072021484375 L 22.619997024536133 826.072021484375 L 22.619997024536133 826.35546875 L 0.05999799817800522 826.35546875 Z " style="fill:none;stroke:#000000;stroke-width:1.0;"/>
  <path d=" M 33.67599868774414 837.4110107421875 L 33.959449768066406 837.4110107421875 L 33.959449768066406 860.031005859375 L 33.67599868774414 860.031005859375 Z " style="fill:none;stroke:#000000;stroke-width:1.0;"/>
  <path d=" M 627.9869995117188 837.4110107421875 L 628.2703857421875 837.4110107421875 L 628.2703857421875 860.031005859375 L 627.9869995117188 860.031005859375 Z " style="fill:none;stroke:#000000;stroke-width:1.0;"/>
  <path d=" M 639.3259887695312 826.072021484375 L 662.0029907226562 826.072021484375 L 662.0029907226562 826.35546875 L 639.3259887695312 826.35546875 Z " style="fill:none;stroke:#000000;stroke-width:1.0;"/>
  <path d=" M 639.3259887695312 33.731998443603516 L 662.0029907226562 33.731998443603516 L 662.0029907226562 34.015480041503906 L 639.3259887695312 34.015480041503906 Z " style="fill:none;stroke:#000000;stroke-width:1.0;"/>
  <path d=" M 627.9869995117188 0.0 L 628.2703857421875 0.0 L 628.2703857421875 22.677000045776367 L 627.9869995117188 22.677000045776367 Z " style="fill:none;stroke:#000000;stroke-width:1.0;"/>
  <path d=" M 33.67599868774414 0.0 L 33.959449768066406 0.0 L 33.959449768066406 22.677000045776367 L 33.67599868774414 22.677000045776367 Z " style="fill:none;stroke:#000000;stroke-width:1.0;"/>
  <path d=" M 0.05999799817800522 33.731998443603516 L 22.619997024536133 33.731998443603516 L 22.619997024536133 34.015480041503906 L 0.05999799817800522 34.015480041503906 Z " style="fill:none;stroke:#000000;stroke-width:1.0;"/>
  <text x="85.039,88.491,93.441,98.39,102.873,106.325,111.275,116.224,121.173,123.986,128.469,133.419,137.902,140.323,144.806,148.258,152.176,155.628,158.398,162.881,165.302,168.754,173.703,176.54,180.458,185.407" y="291.805" svg_rhmargin="190.356" style="fill:#171615;font-family:IHAGJD+AdvOTbc475f09;font-size:8.97px;font-style:NORMAL;font-weight:normal;">subgroup analyses also con</text>
  <text x="190.375" y="291.805" svg_rhmargin="195.324" style="fill:#171615;font-family:IHAGJF+AdvOTbc475f09+fb;font-size:8.97px;font-style:NORMAL;font-weight:normal;">ﬁ</text>
  <text x="195.308,198.76,206.13,210.048,214.997,217.814,220.701,225.651,229.56900000000002,232.383,237.333,240.785,245.734,250.217,255.167,260.116,263.568,266.455,268.876,272.794,275.582,279.034,281.455,285.938,290.888" y="291.805" svg_rhmargin="293.309" style="fill:#171615;font-family:IHAGJD+AdvOTbc475f09;font-size:8.97px;font-style:NORMAL;font-weight:normal;">rmed the prognostic signi</text>
  <text x="293.33" y="291.805" svg_rhmargin="298.279" style="fill:#171615;font-family:IHAGJF+AdvOTbc475f09+fb;font-size:8.97px;font-style:NORMAL;font-weight:normal;">ﬁ</text>
  <text x="298.263,302.181,306.664,311.613,315.532,319.45,322.299,327.249" y="291.805" svg_rhmargin="330.136" style="fill:#171615;font-family:IHAGJD+AdvOTbc475f09;font-size:8.97px;font-style:NORMAL;font-weight:normal;">cance of</text>
  <text x="85.039,89.989,92.876,98.292,101.179,106.128,109.586,112.007,116.956,120.358,127.827,134.264,140.702,144.111,149.061,153.544,156.431,158.852,162.77,167.719,170.607,174.059,176.48,179.94,187.409,189.829,194.313,199.262,202.673,207.622,210.509,215.925,218.812,223.76100000000002,227.22,229.641,234.59,237.991,245.46,251.898,258.336,261.802,266.751,271.234,274.122,276.543,280.461,285.41,288.297,291.749,295.193,297.614,302.564,307.513,309.934,313.852,318.335,321.223,325.141" y="302.746" svg_rhmargin="330.09" style="fill:#171615;font-family:IHAGJD+AdvOTbc475f09;font-size:8.97px;font-style:NORMAL;font-weight:normal;">FIB-4 in HCC patients. High FIB-4 in HCC patients indicated</text>
  <text x="85.039,89.989,94.938,99.888,103.34,107.258,110.71,115.369,118.821,123.77,127.222,131.705,134.126,138.609,143.093,145.51399999999998,150.234,155.184,160.133,163.02,166.939,171.888,179.258,183.176,186.629,189.04999999999998,193.716,199.598,204.548,208.466,213.162,218.111,220.998,226.414,229.301,234.25,238.899,242.351,246.27,251.219,254.671,258.589,263.277,267.195,272.145,277.094,279.515,284.464,289.129,292.581,296.499,299.951,304.434,308.35200000000003,313.052,317.536,320.988,325.638" y="313.688" svg_rhmargin="330.121" style="fill:#171615;font-family:IHAGJD+AdvOTbc475f09;font-size:8.97px;font-style:NORMAL;font-weight:normal;">poorer survival outcomes. The FIB-4 score could serve as a</text>
  <text x="85.039,89.989,94.938,99.888,102.308,107.258,111.741,116.224,119.676,122.097,126.58,130.498,133.51,138.46,141.912,145.83,150.779,153.2,157.119,160.006,162.427,166.91,170.828,173.817,181.188,185.671,189.123,194.072,197.991,201.443,204.488,207.375,212.324,215.776,218.774,226.242,232.68,239.118,242.131,246.049,250.532,255.482,259.4,263.318,266.77,269.739,274.688,278.14,283.09,287.573,292.522,297.472,300.924,303.345,306.797" y="324.686" svg_rhmargin="309.218" style="fill:#171615;font-family:IHAGJD+AdvOTbc475f09;font-size:8.97px;font-style:NORMAL;font-weight:normal;">noninvasive predictive marker for HCC cancer prognosis.</text>
  <text svg_rhmargin="184.198" x="93.997,99.879,104.828,108.74600000000001,114.462,119.412,122.299,127.715,130.602,135.55100000000002,141.22,143.641,148.591,153.54,157.458,162.407,168.149,170.57,174.022,179.715,184.198" y="335.628" style="fill:#171615;font-family:IHAGJD+AdvOTbc475f09;font-size:8.97px;font-style:NORMAL;font-weight:normal;">The FIB-4 index is a </text>
  <text x="189.864" y="335.628" svg_rhmargin="194.813" style="fill:#171615;font-family:IHAGJF+AdvOTbc475f09+fb;font-size:8.97px;font-style:NORMAL;font-weight:normal;">ﬁ</text>
  <text x="194.853,199.803,203.255,208.204,211.656,214.077,217.529,220.416,223.868,227.787,230.207,234.691,237.578,241.496,246.44500000000002,252.168,254.589,259.538,264.487,268.406,273.355,279.04,282.958,287.907,292.857,295.744,300.227,302.648,307.597,310.018,314.968,319.451,325.187" y="335.628" svg_rhmargin="330.136" style="fill:#171615;font-family:IHAGJD+AdvOTbc475f09;font-size:8.97px;font-style:NORMAL;font-weight:normal;">brosis-related index containing 4</text>
  <text x="85.039,88.957,93.906,101.276,108.647,113.596,118.545,120.924,123.811,128.295,132.213,135.1,140.049,143.501,146.954,149.375,151.764,156.247,160.73,164.649,167.07,169.452,173.935,177.387,182.336,186.819,190.272,193.159,197.642,200.529,204.447,206.868,211.351,218.722,221.142,226.092,231.041,233.928,237.38,241.864,246.813,250.265,253.152,257.07,260.522,265.006,268.458,272.37600000000003,274.783,277.671,284.108,288.591,294.473,297.361,299.782,302.166,307.115,309.536,314.019,316.906,320.824,323.245,327.164" y="346.569" svg_rhmargin="330.051" style="fill:#171615;font-family:IHAGJD+AdvOTbc475f09;font-size:8.97px;font-style:NORMAL;font-weight:normal;">common factors: age, aspartate aminotransferase (AST), platelet</text>
  <text x="85.039,88.957,93.906,98.856,103.805,106.69200000000001,109.812,114.296,119.245,124.194,127.273,131.757,134.177,138.661,143.61,146.031,150.98,154.898,157.943,160.831,164.283,168.766,173.715,177.167,181.65,189.021,191.442,196.391,200.874,204.326,208.244,211.403,214.29,220.728,226.144,232.026,234.913" y="357.567" svg_rhmargin="237.334" style="fill:#171615;font-family:IHAGJD+AdvOTbc475f09;font-size:8.97px;font-style:NORMAL;font-weight:normal;">count and alanine transaminase (ALT).</text>
  <text svg_rhmargin="245.417" x="237.373,239.539,243.252,245.417" y="357.569" style="fill:#171615;font-family:IHAGJD+AdvOTbc475f09;font-size:5.98px;font-style:NORMAL;font-weight:normal;">[8] </text>
  <text x="248.485,254.923,258.375,261.467,268.838,272.756,277.705,280.592,283.013,287.963,292.912,296.83,301.779,304.893,309.376,314.325,319.275,323.758,327.676" y="357.569" svg_rhmargin="330.097" style="fill:#171615;font-family:IHAGJD+AdvOTbc475f09;font-size:8.97px;font-style:NORMAL;font-weight:normal;">As mentioned above,</text>
  <text svg_rhmargin="96.793" x="85.038,87.925,92.875,96.793" y="368.51" style="fill:#171615;font-family:IHAGJD+AdvOTbc475f09;font-size:8.97px;font-style:NORMAL;font-weight:normal;">the </text>
  <text x="98.928" y="368.51" svg_rhmargin="103.877" style="fill:#171615;font-family:IHAGJF+AdvOTbc475f09+fb;font-size:8.97px;font-style:NORMAL;font-weight:normal;">ﬁ</text>
  <text x="103.86,108.81,113.759,116.18,121.129,125.61200000000001,127.784,132.734,135.621,137.762,142.711,147.661,151.113,153.239,156.691,159.578,164.527,169.477,173.96,176.086,182.99,187.473,190.925,193.093,195.98,200.93,205.413,208.3,210.44,213.327,218.277,222.195,224.33,229.279,232.166,237.582,240.469,245.418,247.573,249.994,254.943,259.893,263.811,268.76,270.873,274.791,279.741,284.69,287.111,292.06,294.173,297.625,301.543,304.995,309.478,313.396,315.546,320.029,323.481,325.637" y="368.51" svg_rhmargin="330.12" style="fill:#171615;font-family:IHAGJD+AdvOTbc475f09;font-size:8.97px;font-style:NORMAL;font-weight:normal;">nding of our study was that the FIB-4 index could serve as a</text>
  <text x="85.038,89.988,93.44,98.389,105.759,108.18,111.632,114.053,119.003,123.486,128.464,133.413,136.865,141.815,146.298,151.247,156.197,159.649,162.536,164.957,168.875,173.874,176.761,181.244,185.162,188.049,192.999,196.451,201.425,204.313,209.262,212.714,217.696,222.645,227.594,230.482,235.431,240.429,247.799,252.282,257.209,261.692,266.642,271.591,276.598,283.036,287.985,292.468,297.403,299.824,304.773,309.763,317.231,323.669" y="379.452" svg_rhmargin="330.107" style="fill:#171615;font-family:IHAGJD+AdvOTbc475f09;font-size:8.97px;font-style:NORMAL;font-weight:normal;">promising prognostic factor for both OS and RFS in HCC</text>
  <text x="85.038,89.988,94.471,97.358,99.779,103.697,108.647,111.534,114.986,117.40700000000001,120.244,127.713,132.662,139.566,143.484,147.967,151.886,155.338,157.759,160.607,163.494,168.444,172.362,175.176,179.095,184.044,188.527,192.446,195.333,198.193,205.563,209.482,213.4,218.349,222.832,227.782,230.203,233.655,241.025,244.477,247.344,252.293,255.18,258.002,262.951,266.403,271.353,275.836,280.785,285.735,289.187,292.074,294.495,298.413,301.257,304.709,309.659,312.079,315.998,319.45,322.289,327.239" y="390.45" svg_rhmargin="330.126" style="fill:#171615;font-family:IHAGJD+AdvOTbc475f09;font-size:8.97px;font-style:NORMAL;font-weight:normal;">patients. However, the exact mechanisms of prognostic roles of</text>
  <text x="85.038,89.988,92.875,98.29,101.178,106.127,108.735,111.156,116.106,121.055,124.973,129.922,132.545,134.966,139.91500000000002,142.523,149.992,156.43,162.868,165.54,168.992,172.91,180.28,184.763,187.184,192.133,194.736,199.685,204.634,208.553,210.974,214.892,219.375,222.827,225.248,227.9,235.27,239.75300000000001,242.357,247.306,250.758,255.707,260.191,262.611,265.032,269.515,272.119,277.069,280.987,285.936,289.855,294.804,299.753,303.205,305.851,310.8,315.749,318.323,321.21,326.159" y="401.391" svg_rhmargin="330.077" style="fill:#171615;font-family:IHAGJD+AdvOTbc475f09;font-size:8.97px;font-style:NORMAL;font-weight:normal;">FIB-4 index in HCC remain unclear. OS usually depends on the</text>
  <text svg_rhmargin="330.092" x="85.038,87.925,92.409,96.327,99.214,104.163,107.615,111.067,113.668,117.12,121.038,123.459,127.942,130.829,134.747,139.69600000000003,142.24,145.127,150.07600000000002,152.615,155.036,157.456,161.94,165.858,169.31,171.889,174.777,179.726,184.675,188.594,191.481,193.902,198.851,203.8,206.414,210.897,215.847,220.79600000000002,223.309,226.196,231.145,238.515,243.465,246.917,249.804,253.256,257.174,259.595,264.078,266.965,270.884,275.833,278.469,281.356,285.84,289.758,292.645,297.594,301.046,304.498,306.919,309.479,316.383,321.333,323.754,326.174,330.092" y="291.804" style="fill:#171615;font-family:IHAGJD+AdvOTbc475f09;font-size:8.97px;font-style:NORMAL;font-weight:normal;">factors related to liver function and tumor-related factors, while </text>
  <text x="345.09,351.528,356.477,360.96,364.195,371.099,375.582,379.034,382.28,387.23,391.148,395.066,397.487,402.436,406.355,411.30400000000003,414.594,419.543,424.026,427.236,430.123,435.073,442.443,447.393,450.845,453.732,457.184,461.102,463.523,468.006,470.893,474.811,479.76,483.077,485.964,490.447,494.365,497.252,502.202,505.654,509.106" y="291.804" svg_rhmargin="511.527" style="fill:#171615;font-family:IHAGJD+AdvOTbc475f09;font-size:8.97px;font-style:NORMAL;font-weight:normal;">RFS was decided by tumor-related factors.</text>
  <text svg_rhmargin="523.296" x="511.54,513.706,517.419,521.131,523.2959999999999" y="291.805" style="fill:#171615;font-family:IHAGJD+AdvOTbc475f09;font-size:5.98px;font-style:NORMAL;font-weight:normal;">[13] </text>
  <text x="526.564,532.446,537.395,541.313,544.591,549.541,552.428,557.844,560.731,565.68,568.969,571.39,576.339,581.289,585.207" y="291.805" svg_rhmargin="590.156" style="fill:#171615;font-family:IHAGJD+AdvOTbc475f09;font-size:8.97px;font-style:NORMAL;font-weight:normal;">The FIB-4 index</text>
  <text x="345.089,351.993,356.477,359.929,361.7,366.65,370.102,374.02,378.503,380.924,385.874,390.823,394.275,396.696,401.17900000000003,402.971,405.392,410.342,414.26,419.209,422.096" y="302.746" svg_rhmargin="424.517" style="fill:#171615;font-family:IHAGJD+AdvOTbc475f09;font-size:8.97px;font-style:NORMAL;font-weight:normal;">was previously identi</text>
  <text x="424.573" y="302.746" svg_rhmargin="429.522" style="fill:#171615;font-family:IHAGJF+AdvOTbc475f09+fb;font-size:8.97px;font-style:NORMAL;font-weight:normal;">ﬁ</text>
  <text svg_rhmargin="472.846" x="429.505,433.424,438.373,440.164,444.647,448.099,449.914,454.397,456.151,458.571,460.992,465.475,469.394,472.846" y="302.746" style="fill:#171615;font-family:IHAGJD+AdvOTbc475f09;font-size:8.97px;font-style:NORMAL;font-weight:normal;">ed as a liver </text>
  <text x="474.69" y="302.746" svg_rhmargin="479.639" style="fill:#171615;font-family:IHAGJF+AdvOTbc475f09+fb;font-size:8.97px;font-style:NORMAL;font-weight:normal;">ﬁ</text>
  <text x="479.623,484.572,488.024,492.973,496.425,498.846,502.298,504.113,506.534,511.483,516.433,520.351,525.3,527.073,529.96,534.91,539.393,542.28,544.08,547.999,552.948,557.897,560.318,565.2669999999999,567.097,570.549" y="302.746" svg_rhmargin="574.467" style="fill:#171615;font-family:IHAGJD+AdvOTbc475f09;font-size:8.97px;font-style:NORMAL;font-weight:normal;">brosis index that could re</text>
  <text x="574.47" y="302.746" svg_rhmargin="579.419" style="fill:#171615;font-family:IHAGJF+AdvOTbc475f09+fb;font-size:8.97px;font-style:NORMAL;font-weight:normal;">ﬂ</text>
  <text x="579.402,583.32,587.239" y="302.746" svg_rhmargin="590.126" style="fill:#171615;font-family:IHAGJD+AdvOTbc475f09;font-size:8.97px;font-style:NORMAL;font-weight:normal;">ect</text>
  <text svg_rhmargin="419.383" x="345.089,347.977,352.926,356.844,361.303,366.253,370.171,374.654,378.106,382.024,385.942,390.385,395.335,398.222,402.688,405.109,407.53,412.013,415.931,419.383" y="313.688" style="fill:#171615;font-family:IHAGJD+AdvOTbc475f09;font-size:8.97px;font-style:NORMAL;font-weight:normal;">the degree of liver </text>
  <text x="423.892" y="313.688" svg_rhmargin="428.841" style="fill:#171615;font-family:IHAGJF+AdvOTbc475f09+fb;font-size:8.97px;font-style:NORMAL;font-weight:normal;">ﬁ</text>
  <text x="428.825,433.774,437.226,442.176,445.628,448.049,451.501,453.92199999999997,458.417,462.9,467.85,472.79900000000004,477.239,484.61,489.559,493.011,495.898,500.37,505.319,508.206,512.671,520.14,526.578,533.016,537.503,542.452,546.935,549.822,552.243,556.162,561.111,563.998,567.45,571.914,578.819,582.737,586.189" y="313.688" svg_rhmargin="590.107" style="fill:#171615;font-family:IHAGJD+AdvOTbc475f09;font-size:8.97px;font-style:NORMAL;font-weight:normal;">brosis, and most of HCC patients were</text>
  <text svg_rhmargin="500.565" x="345.089,349.573,353.491,357.409,362.359,369.729,374.678,379.161,384.111,386.532,390.45,395.399,397.529,402.478,406.961,409.151,414.1,416.521,419.408,422.296,426.214,429.666,433.584,438.534,441.421,443.619,448.569,452.487,456.97,460.422,464.34,468.259,471.711,473.836,478.785,481.672,483.87,486.291,488.712,493.195,497.113,500.565" y="324.686" style="fill:#171615;font-family:IHAGJD+AdvOTbc475f09;font-size:8.97px;font-style:NORMAL;font-weight:normal;">accompanied by different degrees of liver </text>
  <text x="502.753" y="324.686" svg_rhmargin="507.702" style="fill:#171615;font-family:IHAGJF+AdvOTbc475f09+fb;font-size:8.97px;font-style:NORMAL;font-weight:normal;">ﬁ</text>
  <text x="507.685,512.635,516.087,521.036,524.488,526.909,530.361,532.782,534.954,541.858,546.807,549.228,553.146,558.0949999999999,560.238,564.721,567.608,570.495,574.413,578.332,581.219,585.137" y="324.686" svg_rhmargin="590.086" style="fill:#171615;font-family:IHAGJD+AdvOTbc475f09;font-size:8.97px;font-style:NORMAL;font-weight:normal;">brosis, which affected</text>
  <text x="345.089,347.977,352.926,356.844,359.206,364.155,369.105,372.557,379.927,384.41,386.831,389.196,392.083,397.032,401.982,405.9,408.787,411.208,416.157,421.107,424.559,426.952,431.435,436.384,441.333,443.732,446.153,448.574,453.057,456.975,460.427,462.78,466.232,470.151,473.603,477.521,480.973,485.456,489.374,491.75,496.233,501.182,506.13100000000003,508.53,510.951,514.869,519.352,524.3009999999999,526.672,529.559,534.5079999999999,536.876,541.825,546.775,551.724,555.176,557.568,561.021,565.97,569.422,573.905,576.326,580.809,585.292,587.713" y="335.628" svg_rhmargin="590.134" style="fill:#171615;font-family:IHAGJD+AdvOTbc475f09;font-size:8.97px;font-style:NORMAL;font-weight:normal;">the normal functions and liver reserve and lead to poor survival.</text>
  <text svg_rhmargin="527.834" x="345.089,347.977,352.926,355.748,360.231,365.18,370.13,372.551,375.438,377.859,382.808,387.757,390.178,392.994,396.446,401.395,408.765,412.683,415.557,419.009,421.896,426.845,431.795,434.215,438.134,441.586,444.413,449.362,453.845,458.329,462.247,465.105,468.557,473.507,478.456,485.36,490.309,493.111,495.998,500.947,505.43,508.317,511.138,513.559,515.98,520.463,524.382,527.834" y="346.569" style="fill:#171615;font-family:IHAGJD+AdvOTbc475f09;font-size:8.97px;font-style:NORMAL;font-weight:normal;">In addition, some studies have shown that liver </text>
  <text x="530.703" y="346.569" svg_rhmargin="535.652" style="fill:#171615;font-family:IHAGJF+AdvOTbc475f09+fb;font-size:8.97px;font-style:NORMAL;font-weight:normal;">ﬁ</text>
  <text x="535.635,540.584,544.036,548.986,552.438,554.859,558.311,561.146,565.629,570.578,575.5269999999999,578.38,581.267,586.217" y="346.569" svg_rhmargin="590.135" style="fill:#171615;font-family:IHAGJD+AdvOTbc475f09;font-size:8.97px;font-style:NORMAL;font-weight:normal;">brosis and the</text>
  <text x="345.089,350.039,352.926,358.342,361.229,366.178,367.879,370.3,375.249,380.199,384.117,389.06600000000003,390.783,397.687,401.605,405.057,408.975,410.682,414.134,418.052,420.473,424.956,427.843,431.761,436.71000000000004,438.404,441.291,446.24,447.985,452.934,456.853,461.802,466.285,469.172,474.122,478.04,482.523,485.975,489.893,492.314,497.264,502.213,506.696,510.615,515.564,519.482,522.934,525.355,528.807" y="357.567" svg_rhmargin="531.228" style="fill:#171615;font-family:IHAGJD+AdvOTbc475f09;font-size:8.97px;font-style:NORMAL;font-weight:normal;">FIB-4 index were related to hepatocarcinogenesis,</text>
  <text x="531.269,533.435,537.148" y="353.543" svg_rhmargin="540.86" style="fill:#171615;font-family:IHAGJD+AdvOTbc475f09;font-size:5.98px;font-style:NORMAL;font-weight:normal;">[18</text>
  <text x="540.907" y="353.543" svg_rhmargin="544.269" style="fill:#171615;font-family:IHAGJE+AdvOTbc475f09+20;font-size:5.98px;font-style:NORMAL;font-weight:normal;">–</text>
  <text svg_rhmargin="553.842" x="544.252,547.964,551.677,553.842" y="357.569" style="fill:#171615;font-family:IHAGJD+AdvOTbc475f09;font-size:5.98px;font-style:NORMAL;font-weight:normal;">20] </text>
  <text x="555.591,558.478,563.427,567.345,569.026,573.976,576.863,582.279,585.166" y="357.569" svg_rhmargin="590.115" style="fill:#171615;font-family:IHAGJD+AdvOTbc475f09;font-size:8.97px;font-style:NORMAL;font-weight:normal;">the FIB-4</text>
  <text x="345.089,347.51,352.459,357.408,361.327,366.276,368.446,372.364,377.314,382.263,384.684,389.63300000000004,391.86,396.809,400.72700000000003,402.972,407.455,409.661,413.113,415.534,418.986,423.935,426.158,429.046,433.529,437.447,440.334,445.284,448.736,450.989,453.876,458.825,463.308,466.195,468.393,475.297,479.78,483.23199999999997,485.457,489.94,493.392,496.844,501.794,505.712,508.133,512.616,515.503,519.421,524.37,526.614,533.518,535.939,538.826,543.775,546.003,548.89,553.839,557.7570000000001,560.006,563.458,568.407,571.859,576.342,578.763,583.246,587.729" y="368.51" svg_rhmargin="590.15" style="fill:#171615;font-family:IHAGJD+AdvOTbc475f09;font-size:8.97px;font-style:NORMAL;font-weight:normal;">index could be a risk factor that was associated with the survival</text>
  <text x="345.089,349.572,354.521,359.47,362.664,366.116,370.034,373.952,378.902,382.354,385.806,389.724,394.673,398.592,402.51,405.692,410.175,413.062,415.949,419.868,423.32,426.555,431.504,435.422,440.372,444.855,447.742,451.66,455.579,458.466,463.415,470.785,475.269,477.69,480.921,485.87,490.82,494.272,497.159,502.108,506.027,509.479,516.849,521.798,525.25,529.169,531.59,534.834,541.271,545.755,551.637,554.845,559.329,564.278,569.227,572.42,578.858,584.274" y="379.452" svg_rhmargin="590.156" style="fill:#171615;font-family:IHAGJD+AdvOTbc475f09;font-size:8.97px;font-style:NORMAL;font-weight:normal;">and recurrence after hepatectomy. Furthermore, AST and ALT</text>
  <text x="345.089,349.007,353.956,358.906,361.327,366.276,369.296,372.748" y="390.45" svg_rhmargin="376.666" style="fill:#171615;font-family:IHAGJD+AdvOTbc475f09;font-size:8.97px;font-style:NORMAL;font-weight:normal;">could re</text>
  <text x="376.667" y="390.45" svg_rhmargin="381.616" style="fill:#171615;font-family:IHAGJF+AdvOTbc475f09+fb;font-size:8.97px;font-style:NORMAL;font-weight:normal;">ﬂ</text>
  <text x="381.599,385.518,389.436,392.323,395.375,398.262,403.212,407.13,410.115,415.064,418.983,423.466,426.918,430.836,434.754,437.781,442.73,445.617,448.666,451.087,453.507,457.991,461.909,465.361,468.394,473.344,475.764,479.216,484.166,487.618,492.567,496.486,499.938,502.359,505.357,509.84,514.789,519.7379999999999,522.761,525.648,530.598,534.516,537.557,542.507,544.928,549.411,552.298,556.216,558.637,562.556,565.443,568.454,572.373,577.322,582.272,587.221" y="390.45" svg_rhmargin="590.108" style="fill:#171615;font-family:IHAGJD+AdvOTbc475f09;font-size:8.97px;font-style:NORMAL;font-weight:normal;">ect the degree of liver disorder, and the platelet count</text>
  <text x="345.089,349.007,353.956,358.906,361.327,366.276,369.013,372.465" y="401.391" svg_rhmargin="376.383" style="fill:#171615;font-family:IHAGJD+AdvOTbc475f09;font-size:8.97px;font-style:NORMAL;font-weight:normal;">could re</text>
  <text x="376.383" y="401.391" svg_rhmargin="381.332" style="fill:#171615;font-family:IHAGJF+AdvOTbc475f09+fb;font-size:8.97px;font-style:NORMAL;font-weight:normal;">ﬂ</text>
  <text x="381.372,385.29,389.208,392.095,394.864,397.751,402.701,406.619,409.377,414.326,418.81,421.697,424.118,428.036,432.985" y="401.391" svg_rhmargin="435.872" style="fill:#171615;font-family:IHAGJD+AdvOTbc475f09;font-size:8.97px;font-style:NORMAL;font-weight:normal;">ect the patient</text>
  <text x="435.91" y="401.391" svg_rhmargin="438.331" style="fill:#171615;font-family:IHAGJE+AdvOTbc475f09+20;font-size:8.97px;font-style:NORMAL;font-weight:normal;">’</text>
  <text x="438.348,441.8,444.584,449.534,454.483,457.935,460.822,465.305,467.726,470.492,475.442,479.925,484.874,488.793,492.245,495.132,499.05,503.999,507.451,509.872,514.822,519.771,522.534,525.987,528.874,533.357,536.244,541.193" y="401.391" svg_rhmargin="544.645" style="fill:#171615;font-family:IHAGJD+AdvOTbc475f09;font-size:8.97px;font-style:NORMAL;font-weight:normal;">s portal hypertension status</text>
  <text svg_rhmargin="565.703" x="544.705,546.871,550.584,554.297,556.113,559.826,563.538,565.703" y="401.392" style="fill:#171615;font-family:IHAGJD+AdvOTbc475f09;font-size:5.98px;font-style:NORMAL;font-weight:normal;">[13,21] </text>
  <text x="568.516,573.0,577.949,582.8979999999999,585.638" y="401.392" svg_rhmargin="590.121" style="fill:#171615;font-family:IHAGJD+AdvOTbc475f09;font-size:8.97px;font-style:NORMAL;font-weight:normal;">and a</text>
  <text x="345.089,347.51,352.459,359.363,362.096,367.045,369.466,373.95,376.837,380.755,383.176,387.094,389.981,392.823,396.741,401.69,406.64,411.589,414.476,417.257,419.678,423.596,428.079,431.997,434.418,437.156,444.06,448.543,451.995,454.787,459.736,463.655,471.025,475.974,480.924,484.376,487.263,490.715,495.198,498.085,502.004,506.95300000000003,509.777,512.664,517.6129999999999,520.379,525.328,529.246,532.001,536.484,541.433,544.19,549.139,554.089,556.976,561.459,565.942,570.892,574.344,578.827,583.776,586.197" y="412.334" svg_rhmargin="590.115" style="fill:#171615;font-family:IHAGJD+AdvOTbc475f09;font-size:8.97px;font-style:NORMAL;font-weight:normal;">low platelet count level was demonstrated to be an unfavorable</text>
  <path d=" M 85.03900146484375 356.4280090332031 L 590.115966796875 356.4280090332031 L 590.115966796875 357.2217102050781 L 85.03900146484375 357.2217102050781 Z " style="fill:none;stroke:#000000;stroke-width:1.0;"/>
  <path d=" M 85.03900146484375 84.302001953125 L 590.115966796875 84.302001953125 L 590.115966796875 85.03903198242188 L 85.03900146484375 85.03903198242188 Z " style="fill:none;stroke:#000000;stroke-width:1.0;"/>
  <rect style="stroke:blue;stroke-width:0.3;" x="85.209" y="450.659" height="245.99" width="505.032" title="5"/>
  <text x="85.209" y="450.659" class="image" id="image.5.1" width="505" height="245">image.5.1.85_590.451_697</text>
  <text svg_rhmargin="147.649" x="117.524,121.881,123.668,128.025,132.299,134.863,138.988,141.507,145.632,147.649" y="707.591" style="fill:#171615;font-family:IHAGPM+AdvOTf94803d4;font-size:7.47px;font-style:NORMAL;font-weight:normal;">Figure 5. </text>
  <text x="151.426,155.394,159.361,163.329,167.296,171.107,172.43,174.952,179.226,180.548,184.673,186.847,190.42600000000002,192.922,194.79,198.915,201.24599999999998,203.75,208.024,211.991,216.265,217.588,218.91,222.721,226.531,228.706,230.028,234.153,238.12099999999998,240.654,244.928,246.251,250.061,253.64000000000001,256.188,258.362,262.173,265.751,267.926,269.943,272.457,274.325,278.45,280.781,283.285,288.806,293.476,295.983,297.769,302.439,304.94,308.751,312.718,316.992,319.51,324.487,326.272,328.289,330.791,332.659,336.784,339.115,341.619,346.595,350.562,355.232,357.719,359.505,364.713,367.243,371.055,375.022,379.296,381.813,386.872,388.657,390.674,393.208,398.73" y="707.591" svg_rhmargin="403.4" style="fill:#171615;font-family:IHAGHL+AdvOT6e5d2ec0;font-size:7.47px;font-style:NORMAL;font-weight:normal;">Funnel plots for publication bias test: for OS (A and B); for RFS (C and D). OS</text>
  <text x="404.332" y="707.591" svg_rhmargin="409.39" style="fill:#171615;font-family:IHAGIP+AdvOTb0c9bf5d;font-size:7.47px;font-style:NORMAL;font-weight:normal;">=</text>
  <text svg_rhmargin="474.351" x="410.341,414.466,417.888,421.698,424.03,427.84,429.163,430.486,433.017,436.596,440.563,442.894,446.316,447.639,451.061,454.872,456.194,458.211,460.737,465.713,469.681,474.351" y="707.591" style="fill:#171615;font-family:IHAGHL+AdvOT6e5d2ec0;font-size:7.47px;font-style:NORMAL;font-weight:normal;">overall survival, RFS </text>
  <text x="475.311" y="707.591" svg_rhmargin="480.369" style="fill:#171615;font-family:IHAGIP+AdvOTb0c9bf5d;font-size:7.47px;font-style:NORMAL;font-weight:normal;">=</text>
  <text x="481.32,483.652,487.462,491.273,495.24,497.572,499.903,503.713,507.681,511.491,515.302,518.022,519.89,522.221,526.032,529.8430000000001,532.396,535.975,539.943,542.274,545.696,547.018,550.44,554.251,555.573" y="707.591" svg_rhmargin="557.59" style="fill:#171615;font-family:IHAGHL+AdvOT6e5d2ec0;font-size:7.47px;font-style:NORMAL;font-weight:normal;">recurrence-free survival.</text>
  <path d=" M 85.03900146484375 766.885009765625 L 590.1729736328125 766.885009765625 L 590.1729736328125 767.6220092773438 L 85.03900146484375 767.6220092773438 Z " style="fill:none;stroke:#000000;stroke-width:1.0;"/>
  <path d=" M 85.03900146484375 540.39697265625 L 590.1729736328125 540.39697265625 L 590.1729736328125 541.1339721679688 L 85.03900146484375 541.1339721679688 Z " style="fill:none;stroke:#000000;stroke-width:1.0;"/>
  <path d="M169.341 40.202 L505.871 40.202 L505.871 240.554 L169.341 240.554 " style="fill:none;stroke:#000000;stroke-width:1.0;"/>
  <rect style="stroke:blue;stroke-width:0.3;" x="169.342" y="40.201" height="200.353" width="336.568" title="5"/>
  <text x="169.342" y="40.201" class="image" id="image.5.2" width="336" height="200">image.5.2.169_506.40_241</text>
  <text svg_rhmargin="134.894" x="104.769,109.125,110.912,115.269,119.543,122.107,126.232,128.751,132.877,134.894" y="251.553" style="fill:#171615;font-family:IHAGPM+AdvOTf94803d4;font-size:7.47px;font-style:NORMAL;font-weight:normal;">Figure 4. </text>
  <text svg_rhmargin="390.179" x="138.671,142.639,146.763,149.094,152.905,156.484,158.65800000000002,161.176,165.45,166.773,170.897,173.071,175.575,177.443,181.567,183.898,186.402,188.577,192.544,196.35500000000002,198.874,201.206,205.016,206.339,210.149,212.324,213.646,217.771,221.738,225.317,229.285,230.607,234.881,237.422,241.696,245.507,247.681,253.203,257.093,260.904,264.872,267.354,271.322,272.951,277.928,280.647,284.772,287.309,291.12,295.087,299.361,301.878,306.937,310.904,315.574,318.035,322.16,326.12800000000004,328.636,333.844,339.052,344.26000000000005,346.777,351.051,354.862,357.036,358.358,362.253,366.221,368.395,371.974,373.991,376.483,381.541,385.509,390.17900000000003" y="251.553" style="fill:#171615;font-family:IHAGHL+AdvOT6e5d2ec0;font-size:7.47px;font-style:NORMAL;font-weight:normal;">Forest plot for the relationship between FIB-4 and DFS on HCC patients. DFS </text>
  <text x="391.123" y="251.553" svg_rhmargin="396.181" style="fill:#171615;font-family:IHAGIP+AdvOTb0c9bf5d;font-size:7.47px;font-style:NORMAL;font-weight:normal;">=</text>
  <text x="397.133,401.406,402.729,406.308,410.119,413.929,417.508,421.395,424.115,425.983,428.314,432.124,435.935,438.401,441.98,445.948,448.279,451.701,453.024,456.446,460.34,461.663,463.68,466.179,471.387,476.595" y="251.553" svg_rhmargin="481.803" style="fill:#171615;font-family:IHAGHL+AdvOT6e5d2ec0;font-size:7.47px;font-style:NORMAL;font-weight:normal;">disease-free survival, HCC</text>
  <text x="482.738" y="251.553" svg_rhmargin="487.796" style="fill:#171615;font-family:IHAGIP+AdvOTb0c9bf5d;font-size:7.47px;font-style:NORMAL;font-weight:normal;">=</text>
  <text x="488.748,492.716,496.526,500.8,504.611,506.785,510.909,514.72,518.622,519.945,521.268,525.235,526.558,530.368,532.6990000000001,535.175,538.986,542.797,545.128,548.938,550.261,554.229,558.353,564.495,568.394" y="251.553" svg_rhmargin="570.411" style="fill:#171615;font-family:IHAGHL+AdvOT6e5d2ec0;font-size:7.47px;font-style:NORMAL;font-weight:normal;">hepatocellular carcinoma.</text>
  <text x="85.039,89.598,93.831,97.895,102.128,106.527,109.133,113.198,115.517,118.148,122.212,123.623,125.775,128.466,135.017,139.082,143.641,145.052,149.117,150.527,154.657,158.722,161.403,163.308,167.708,172.107,176.507,180.907,182.812,185.383,189.783,194.183,196.334,200.734,205.133,517.041,522.931,528.821,534.711,536.863,543.414,547.973,550.874,552.285,556.685,560.917,563.3,567.532,571.597,573.008,575.16,579.224,583.624" y="9.870999999999981" svg_rhmargin="590.176" style="fill:#171615;font-family:IHAGHL+AdvOT6e5d2ec0;font-size:7.97px;font-style:NORMAL;font-weight:normal;">Zhang et al. Medicine (2018) 97:51 www.md-journal.com</text>
  <text x="335.396" y="739.625" svg_rhmargin="339.796" style="fill:#171615;font-family:IHAGPM+AdvOTf94803d4;font-size:7.97px;font-style:NORMAL;font-weight:normal;">5</text>
 </g>
</svg>
