<?xml version="1.0" encoding="UTF-8"?>
<svg height="870.031005859375" width="672.0029907226562" xmlns="http://www.w3.org/2000/svg">
 <g style="fill:none;">
  <path d=" M 0.05999799817800522 826.072021484375 L 22.619997024536133 826.072021484375 L 22.619997024536133 826.35546875 L 0.05999799817800522 826.35546875 Z " style="fill:none;stroke:#000000;stroke-width:1.0;"/>
  <path d=" M 33.67599868774414 837.4110107421875 L 33.959449768066406 837.4110107421875 L 33.959449768066406 860.031005859375 L 33.67599868774414 860.031005859375 Z " style="fill:none;stroke:#000000;stroke-width:1.0;"/>
  <path d=" M 627.9869995117188 837.4110107421875 L 628.2703857421875 837.4110107421875 L 628.2703857421875 860.031005859375 L 627.9869995117188 860.031005859375 Z " style="fill:none;stroke:#000000;stroke-width:1.0;"/>
  <path d=" M 639.3259887695312 826.072021484375 L 662.0029907226562 826.072021484375 L 662.0029907226562 826.35546875 L 639.3259887695312 826.35546875 Z " style="fill:none;stroke:#000000;stroke-width:1.0;"/>
  <path d=" M 639.3259887695312 33.731998443603516 L 662.0029907226562 33.731998443603516 L 662.0029907226562 34.015480041503906 L 639.3259887695312 34.015480041503906 Z " style="fill:none;stroke:#000000;stroke-width:1.0;"/>
  <path d=" M 627.9869995117188 0.0 L 628.2703857421875 0.0 L 628.2703857421875 22.677000045776367 L 627.9869995117188 22.677000045776367 Z " style="fill:none;stroke:#000000;stroke-width:1.0;"/>
  <path d=" M 33.67599868774414 0.0 L 33.959449768066406 0.0 L 33.959449768066406 22.677000045776367 L 33.67599868774414 22.677000045776367 Z " style="fill:none;stroke:#000000;stroke-width:1.0;"/>
  <path d=" M 0.05999799817800522 33.731998443603516 L 22.619997024536133 33.731998443603516 L 22.619997024536133 34.015480041503906 L 0.05999799817800522 34.015480041503906 Z " style="fill:none;stroke:#000000;stroke-width:1.0;"/>
  <path d=" M 85.03900146484375 630.594970703125 L 566.248046875 630.594970703125 C 579.416015625 630.636962890625 590.1820068359375 619.8469848632812 590.115966796875 606.6709594726562 L 590.115966796875 430.5259704589844 L 85.03900146484375 430.5259704589844" style="fill:none;stroke:#000000;stroke-width:1.0;"/>
  <path d=" M 85.03900146484375 630.594970703125 L 566.248046875 630.594970703125 L 566.248046875 630.3679809570312 L 85.26599884033203 630.3679809570312" style="fill:none;stroke:#000000;stroke-width:1.0;"/>
  <path d=" M 566.2490234375 630.594970703125 L 569.9910278320312 630.3119506835938 C 580.1680297851562 628.719970703125 588.2870483398438 620.6019897460938 589.8330078125 610.4119873046875 L 590.1170043945312 606.6709594726562 L 589.8900146484375 606.6709594726562 L 589.6069946289062 610.4119873046875 C 587.9960327148438 620.6119995117188 580.0670166015625 628.365966796875 569.9340209960938 630.0849609375 L 566.2490234375 630.3679809570312" style="fill:none;stroke:#000000;stroke-width:1.0;"/>
  <path d=" M 590.1160278320312 606.6710205078125 L 590.1160278320312 430.5260009765625 L 589.8890380859375 430.8100280761719 L 589.8890380859375 606.6710205078125" style="fill:none;stroke:#000000;stroke-width:1.0;"/>
  <path d=" M 590.1160278320312 430.5260009765625 L 85.03903198242188 430.5260009765625 L 85.26602172851562 430.8089904785156 L 589.8890380859375 430.8089904785156" style="fill:none;stroke:#000000;stroke-width:1.0;"/>
  <path d=" M 85.03900146484375 430.5260009765625 L 85.03900146484375 630.594970703125 L 85.26599884033203 630.3679809570312 L 85.26599884033203 430.8089904785156" style="fill:none;stroke:#000000;stroke-width:1.0;"/>
  <text x="85.039,97.078,103.299,117.609,125.703,138.156,144.865,150.667,163.125,175.582,187.621,198.20100000000002,204.862,215.865,227.904,236.197,246.781,258.82,269.819,276.456,288.076,299.07500000000005,305.77,317.38599999999997,324.025,336.483,348.522,360.979,366.781,379.238,389.823,401.443,412.446,418.248,428.942,440.97700000000003,447.594,460.051,468.344,480.383,492.422,504.879,516.918,527.921,535.596,541.399" y="81.077" svg_rhmargin="553.015" style="fill:#171615;font-family:IHAGHJ+AdvOTfbba3ace.B;font-size:19.93px;font-style:NORMAL;font-weight:normal;">FIB-4 index serves as a noninvasive prognostic</text>
  <text x="85.039,97.495,103.295,115.332,133.585,145.204,153.495,165.113,177.15,185.439,192.204,198.004,210.457,217.15,229.605,241.224,248.897,254.697,266.734,279.19,286.863,297.862,304.584,320.965,326.765,334.438,346.89099999999996,353.573,366.028,378.065,390.52,402.138,409.812,421.849,433.467,445.504,451.304,457.104,469.56,475.36,486.978" y="101.03200000000004" svg_rhmargin="495.267" style="fill:#171615;font-family:IHAGHJ+AdvOTfbba3ace.B;font-size:19.93px;font-style:NORMAL;font-weight:normal;">biomarker in patients with hepatocellular</text>
  <text x="85.039,96.656,108.272,116.561,128.178,133.976,146.429,158.464,176.716" y="120.93200000000002" svg_rhmargin="188.332" style="fill:#171615;font-family:IHAGHJ+AdvOTfbba3ace.B;font-size:19.93px;font-style:NORMAL;font-weight:normal;">carcinoma</text>
  <text x="85.039,95.83,101.141,115.404,124.519,129.983,139.098,145.566,154.681,163.971,173.086,177.068,185.194,193.655,197.637" y="142.02200000000005" svg_rhmargin="206.101" style="fill:#171615;font-family:IHAGHK+AdvOT34fe1490.B;font-size:15.94px;font-style:NORMAL;font-weight:normal;">A meta-analysis</text>
  <text x="85.039,91.358,93.21000000000001,96.661,102.645,108.199,113.534,119.089,124.863,127.687,131.187,139.785" y="159.82399999999996" svg_rhmargin="146.867" style="fill:#171615;font-family:IHAGHL+AdvOT6e5d2ec0;font-size:10.46px;font-style:NORMAL;font-weight:normal;">Yi Zhang, MD</text>
  <text x="146.891" y="153.19100000000003" svg_rhmargin="150.971" style="fill:#171615;font-family:IHAGHM+AdvOTb0c9bf5d+22;font-size:6.97px;font-style:NORMAL;font-weight:normal;">∗</text>
  <text x="150.973,153.79700000000003,157.266,164.233,170.007,175.562,181.336,184.819,194.296,199.631,205.186,210.96,213.78400000000002,217.247,225.846,232.928,235.752,239.244,245.227,247.079,252.414,257.968,259.82,261.671,267.226,270.708,277.027,282.362,287.916,293.691,296.515,299.962,308.56" y="159.82399999999996" svg_rhmargin="315.642" style="fill:#171615;font-family:IHAGHL+AdvOT6e5d2ec0;font-size:10.46px;font-style:NORMAL;font-weight:normal;">, Rong Wang, MD, Xianjin Yang, MD</text>
  <text x="315.666" y="153.19100000000003" svg_rhmargin="319.746" style="fill:#171615;font-family:IHAGHM+AdvOTb0c9bf5d+22;font-size:6.97px;font-style:NORMAL;font-weight:normal;">∗</text>
  <text x="91.276,97.915,104.052,109.607,113.09,117.155,123.045,128.935" y="181.59400000000005" svg_rhmargin="132.418" style="fill:#171615;font-family:IHAGHN+AdvOT91f5f621.B;font-size:7.97px;font-style:NORMAL;font-weight:normal;">Abstract</text>
  <text svg_rhmargin="152.86" x="91.276,98.329,104.219,110.109,115.832,121.969,126.034,132.171,137.932,143.822,149.959,152.86" y="191.572" style="fill:#171615;font-family:IHAGHN+AdvOT91f5f621.B;font-size:7.97px;font-style:NORMAL;font-weight:normal;">Background: </text>
  <text svg_rhmargin="172.993" x="155.169,159.93,161.517,165.623,170.196,172.993" y="191.572" style="fill:#171615;font-family:IHAGHL+AdvOT6e5d2ec0;font-size:8.97px;font-style:NORMAL;font-weight:normal;">Liver </text>
  <text x="175.635" y="191.572" svg_rhmargin="179.553" style="fill:#171615;font-family:IHAGHO+AdvOT6e5d2ec0+fb;font-size:8.97px;font-style:NORMAL;font-weight:normal;">ﬁ</text>
  <text x="179.547,184.676,187.473,192.423,196.717,198.304,202.599,205.285,206.872,211.633,216.762,221.334,225.629,228.245,233.006,234.961,240.932,244.196,249.145,251.828,256.589,261.162,265.457,268.098,273.227,277.8,282.373,287.134,289.811,292.608,297.181,302.31,307.259,310.057,312.666,317.239,322.368,325.016,327.625,332.574,335.221,340.35,344.923,347.58,349.167,350.754,355.515,359.998,364.571,369.70000000000005,372.354,378.98,380.567,383.176,387.937,390.552,395.313,399.886,405.015,409.587,412.197,417.146,421.719,426.292,427.879,429.466,434.227,435.814,440.387,443.184,445.882,450.455,455.028,457.825,462.398,463.985,468.746,473.696,481.066,485.63899999999995,488.287,490.43,496.68,502.929,509.179,511.32199999999995,514.025,519.154,521.951,526.901,531.85,536.611,541.561,545.855,547.443,551.737,554.158,556.827,561.955,566.716,569.325,571.964,574.573,579.334" y="191.572" svg_rhmargin="583.907" style="fill:#171615;font-family:IHAGHL+AdvOT6e5d2ec0;font-size:8.97px;font-style:NORMAL;font-weight:normal;">brosis index FIB-4 has been reported to be linked with hepatocellular carcinoma (HCC) prognosis, but the</text>
  <text x="91.276,94.073,98.646,102.941,107.702,109.289,111.898,116.193,118.374,125.0,129.572,132.37,136.943,139.179,143.94,148.889,151.49800000000002,153.692,158.265,163.214,167.975,172.27,173.857,178.152,180.761,185.334,190.095,192.704,195.125,197.343,202.293,207.054,208.641,212.93599999999998,215.144,219.439,222.048,226.809,231.938,236.04399999999998,238.275,242.847,244.434,251.805,256.377,261.50600000000003,263.729,266.338,271.28700000000003,273.48,277.775,281.881,286.642,289.252,294.013,298.585,301.195,302.782,307.354,311.927,313.514,315.101,319.207,321.441,326.013,330.308,335.437,337.024,341.973,344.771,349.344,351.543,354.152,358.913,363.486,365.716,368.514,373.086,374.673,379.246,381.855,383.443,388.392,393.153,397.448,402.209,403.796,408.925,411.126,416.255,420.828,423.437,430.063,434.636,439.208,443.96900000000005,446.217,450.979,452.933,458.905,462.168,467.117,469.29,473.863,478.624,483.75300000000004,485.958,490.531,492.118,493.705,498.466,500.053,504.626,509.199,510.786,512.999,517.949,522.71,525.319,529.892,534.841,542.212,546.784,551.079,553.307,558.256,560.4979999999999,562.718,568.967,575.217,581.466" y="202.51300000000003" svg_rhmargin="583.887" style="fill:#171615;font-family:IHAGHL+AdvOT6e5d2ec0;font-size:8.97px;font-style:NORMAL;font-weight:normal;">results were not consistent. This study aimed to synthetically explore the relationship between FIB-4 and clinical outcomes of HCC.</text>
  <text svg_rhmargin="136.323" x="91.276,100.242,106.22,109.703,115.593,121.73,127.867,133.422,136.323" y="216.74300000000005" style="fill:#171615;font-family:IHAGHN+AdvOT91f5f621.B;font-size:7.97px;font-style:NORMAL;font-weight:normal;">Methods: </text>
  <text x="138.104,143.70800000000003,145.871,150.632,155.393,162.763,167.892,172.465,175.262,177.504,182.453,184.695,186.915,191.864,196.625,198.212,199.799,204.56,209.133,211.349,216.477,221.05,223.659,228.232,233.361,237.934,242.229,246.802,251.09699999999998,253.3,259.926,264.499,267.297,271.87,274.106,278.401,282.973,287.546,290.344,294.917,299.678,304.25,309.379,311.635,313.877,318.826,321.62300000000005,323.824,326.621,331.194,332.781,337.354,341.461,346.033,350.794,353.40299999999996,355.627,360.2,362.998,365.607,367.194,371.767,373.354,377.927,382.22200000000004,384.426,389.555,394.316,399.445,401.032,402.619,406.914,411.675,416.248,421.377,423.6,428.729,433.301,435.543,440.492,443.29,447.863,450.075,457.445,462.018,464.815,469.388,474.149,476.379,481.329,483.75,485.96,490.909,495.858,500.808,505.757,508.178,510.394,516.643,521.216,525.323,529.895,532.693,537.822,540.044,542.841,547.414,550.023,551.61,556.559,560.8539999999999,563.06,565.203,571.452,577.424,581.719" y="216.74300000000005" svg_rhmargin="583.862" style="fill:#171615;font-family:IHAGHL+AdvOT6e5d2ec0;font-size:8.97px;font-style:NORMAL;font-weight:normal;">A number of online databases were searched for relevant articles published before March 1, 2018. Hazard ratios (HRs)</text>
  <text x="91.276,97.902,99.489,102.098,106.859,108.624,113.573,118.522,126.45700000000001,128.239,132.812,137.761" y="227.68499999999995" svg_rhmargin="142.522" style="fill:#171615;font-family:IHAGHL+AdvOT6e5d2ec0;font-size:8.97px;font-style:NORMAL;font-weight:normal;">with 95% con</text>
  <text x="142.526" y="227.68499999999995" svg_rhmargin="146.444" style="fill:#171615;font-family:IHAGHO+AdvOT6e5d2ec0+fb;font-size:8.97px;font-style:NORMAL;font-weight:normal;">ﬁ</text>
  <text x="146.438,151.567,156.14,160.901,165.474,170.047,171.836,173.423,178.184,180.793,185.366,188.164,192.27,196.843,198.43,202.725,204.49,206.633,211.583,216.532,224.467,226.203,232.453,234.407,238.702,240.845,242.644,249.27,253.843,256.64,261.21299999999997,262.996,267.569,272.142,273.729,278.302,283.063,284.65,289.223,291.832,296.405,301.534,303.304,305.913,310.862,312.658,317.231,321.526,325.821,330.393,334.688,338.983,340.72,343.329,348.09,352.66299999999995,354.439,359.568,362.366,367.315,372.264,377.025,381.975,386.27,388.879,390.466,395.039,396.845,400.951,405.524,407.111,411.872,416.445,418.16,423.11,425.35200000000003,427.117,429.727,434.488,439.061,440.837,445.598,447.553,453.524,456.788,461.737,463.513,465.1,469.862,474.99,479.563,483.858,485.623,487.211,491.97200000000004,493.731,498.86,503.432,506.042,507.629,512.201,516.962,519.572,523.867,525.648,532.274,533.861,536.47,541.231,543.053,549.302,555.552,561.801,563.575,568.336,572.631,574.218,578.979" y="227.68499999999995" svg_rhmargin="583.928" style="fill:#171615;font-family:IHAGHL+AdvOT6e5d2ec0;font-size:8.97px;font-style:NORMAL;font-weight:normal;">dence intervals (95% CIs) were calculated to assess the prognostic value of the FIB-4 index in patients with HCC using</text>
  <text x="91.276,96.88,99.489,104.062,106.671,111.244,114.236,119.84,125.06700000000001,128.069,133.018,137.968,140.389,145.338" y="238.62699999999995" svg_rhmargin="147.759" style="fill:#171615;font-family:IHAGHL+AdvOT6e5d2ec0;font-size:8.97px;font-style:NORMAL;font-weight:normal;">Stata SE 12.0.</text>
  <text svg_rhmargin="129.676" x="91.276,97.994,103.972,109.527,115.417,117.737,121.22,126.775,129.67600000000002" y="252.85699999999997" style="fill:#171615;font-family:IHAGHN+AdvOT91f5f621.B;font-size:7.97px;font-style:NORMAL;font-weight:normal;">Results: </text>
  <text svg_rhmargin="405.664" x="131.811,137.038,138.625,143.575,148.336,150.94500000000002,153.467,158.04,160.838,163.447,165.034,169.607,171.194,175.767,180.06199999999998,182.663,184.806,186.393,191.154,195.727,197.314,202.075,207.204,208.791,213.552,218.501,221.044,225.993,230.942,233.459,238.032,242.982,247.743,252.692,255.49,258.099,260.671,264.966,267.575,272.336,277.465,279.052,283.625,287.92,290.063,292.645,299.271,300.858,303.467,308.228,310.786,315.736,320.685,325.635,330.584,333.123,339.373,345.622,351.87100000000004,354.44,359.569,364.141,366.751,368.338,372.91,377.672,380.281,384.576,387.094,393.72,398.293,401.091,405.664" y="252.85699999999997" style="fill:#171615;font-family:IHAGHL+AdvOT6e5d2ec0;font-size:8.97px;font-style:NORMAL;font-weight:normal;">Eight articles (including 10 cohort studies) with 3485 HCC patients were </text>
  <text x="408.247" y="252.85699999999997" svg_rhmargin="412.165" style="fill:#171615;font-family:IHAGHO+AdvOT6e5d2ec0+fb;font-size:8.97px;font-style:NORMAL;font-weight:normal;">ﬁ</text>
  <text x="412.159,416.92,421.492,423.079,424.667,428.77299999999997,431.32,432.907,437.669,442.241,443.828,448.59,453.718,458.291,463.42,466.016,468.257,473.206,476.00300000000004,478.544,483.117,487.878,492.451,494.038,498.144,502.439,504.026,508.321,510.742,513.296,518.245,523.006,527.579,530.134,535.262,540.212,545.161,546.748,551.321,556.45,558.99,561.787,566.36,570.655,575.416,577.003,579.612" y="252.85699999999997" svg_rhmargin="583.907" style="fill:#171615;font-family:IHAGHL+AdvOT6e5d2ec0;font-size:8.97px;font-style:NORMAL;font-weight:normal;">nally included for analysis. The pooled results</text>
  <text x="91.275,95.57,100.331,105.281,111.907,116.48,121.60900000000001,123.589,126.198,130.959,135.532,138.14100000000002,140.142,144.904,146.858,152.83,156.094,161.043,162.99,164.577,169.338,174.466,179.039,183.33399999999997,185.325,191.952,196.524,200.819,202.786,207.081,208.668,213.618,218.379" y="263.798" svg_rhmargin="219.966" style="fill:#171615;font-family:IHAGHL+AdvOT6e5d2ec0;font-size:8.97px;font-style:NORMAL;font-weight:normal;">showed that FIB-4 index was signi</text>
  <text x="219.969" y="263.798" svg_rhmargin="223.887" style="fill:#171615;font-family:IHAGHO+AdvOT6e5d2ec0+fb;font-size:8.97px;font-style:NORMAL;font-weight:normal;">ﬁ</text>
  <text x="223.937,228.51,233.083,237.844,240.453,242.04,246.146,248.088,252.661,256.955,261.25,266.2,270.773,272.36,276.932,279.542,284.114,289.243,291.23,297.856,299.443,302.052,306.81300000000005,308.804,313.753,317.86,322.433,325.23,329.803,331.39,332.977,334.995,339.29,344.051,346.849,350.955,352.543,356.649,361.222,362.80899999999997,364.758,366.901,373.527,379.131,381.27399999999994,383.296,385.538,390.487,393.28400000000005,395.202,400.33,404.903,407.512,409.099,413.672,418.433,421.042,425.337,427.346,433.972,435.559,438.168,442.92900000000003,444.921,451.17,457.42,463.66900000000004,465.669,467.812,474.062" y="263.798" svg_rhmargin="480.034" style="fill:#171615;font-family:IHAGHL+AdvOT6e5d2ec0;font-size:8.97px;font-style:NORMAL;font-weight:normal;">cantly associated with overall survival (OS) for patients with HCC (HR</text>
  <text x="481.153" y="263.798" svg_rhmargin="487.223" style="fill:#171615;font-family:IHAGIP+AdvOTb0c9bf5d;font-size:8.97px;font-style:NORMAL;font-weight:normal;">=</text>
  <text x="488.353,493.303,495.724,500.673,505.622,508.043,510.01,514.959,519.908,527.843,529.852,536.101,538.056,540.4770000000001,542.437,547.386,549.807,554.757" y="263.798" svg_rhmargin="559.706" style="fill:#171615;font-family:IHAGHL+AdvOT6e5d2ec0;font-size:8.97px;font-style:NORMAL;font-weight:normal;">1.74, 95% CI: 1.41</text>
  <text x="559.729" y="263.798" svg_rhmargin="564.212" style="fill:#171615;font-family:IHAGJA+AdvOT6e5d2ec0+20;font-size:8.97px;font-style:NORMAL;font-weight:normal;">–</text>
  <text x="564.208,569.157,571.578,576.528" y="263.798" svg_rhmargin="581.477" style="fill:#171615;font-family:IHAGHL+AdvOT6e5d2ec0;font-size:8.97px;font-style:NORMAL;font-weight:normal;">2.07</text>
  <text x="581.5" y="263.798" svg_rhmargin="583.921" style="fill:#171615;font-family:IHAGJB+AdvOT1deab444.I;font-size:8.97px;font-style:NORMAL;font-weight:normal;">,</text>
  <text x="91.274" y="274.74" svg_rhmargin="96.878" style="fill:#171615;font-family:IHAGJB+AdvOT1deab444.I;font-size:8.97px;font-style:NORMAL;font-weight:normal;">P</text>
  <text x="97.964" y="274.74" svg_rhmargin="104.868" style="fill:#171615;font-family:IHAGJC+AdvP4C4E51;font-size:8.97px;font-style:NORMAL;font-weight:normal;">&lt;</text>
  <text x="104.881,107.302,112.251,117.2,122.15,124.293,126.71400000000001,130.392,135.996,140.757,145.886,149.497,155.746,161.996,168.245,171.89,177.019,181.592,184.201,185.788,190.361,195.122,197.731,202.02599999999998,205.622,212.248,213.835,216.444,221.20499999999998,224.84,229.601,231.188,236.137,240.899,245.471,248.268,251.881,256.642,258.597,264.569,267.832,272.781,276.428,280.723,285.296,290.246,293.043,297.616,301.26,307.886,312.459,315.256,319.82899999999995,323.426,327.999,330.608,334.255,338.55,340.137,345.086,349.847" y="274.74" svg_rhmargin="351.434" style="fill:#171615;font-family:IHAGHL+AdvOT6e5d2ec0;font-size:8.97px;font-style:NORMAL;font-weight:normal;">.001). And HCC patients with higher FIB-4 score were at signi</text>
  <text x="351.439" y="274.74" svg_rhmargin="355.357" style="fill:#171615;font-family:IHAGHO+AdvOT6e5d2ec0+fb;font-size:8.97px;font-style:NORMAL;font-weight:normal;">ﬁ</text>
  <text x="355.351,359.923,364.496,369.257,371.867,373.454,377.56,381.202,386.152,388.949,393.522,398.095,400.704,405.277,408.074,411.702,414.5,416.087,420.382,424.865,428.483,433.432,435.67400000000004,439.311,442.109,446.681,451.254,456.015,458.813,461.61,466.183,470.944,475.517,480.09,483.701,488.65,491.071,496.02,500.969,504.62,506.763,511.712,516.662,524.597,528.204,534.453,536.408,538.8290000000001,542.433,547.383,549.804,554.753" y="274.74" svg_rhmargin="559.702" style="fill:#171615;font-family:IHAGHL+AdvOT6e5d2ec0;font-size:8.97px;font-style:NORMAL;font-weight:normal;">cantly greater risk of recurrence 1.53 (95% CI: 1.29</text>
  <text x="559.729" y="274.74" svg_rhmargin="564.212" style="fill:#171615;font-family:IHAGJA+AdvOT6e5d2ec0+20;font-size:8.97px;font-style:NORMAL;font-weight:normal;">–</text>
  <text x="564.208,569.157,571.578,576.528,581.477" y="274.74" svg_rhmargin="583.898" style="fill:#171615;font-family:IHAGHL+AdvOT6e5d2ec0;font-size:8.97px;font-style:NORMAL;font-weight:normal;">1.78,</text>
  <text x="91.274" y="285.73900000000003" svg_rhmargin="96.878" style="fill:#171615;font-family:IHAGJB+AdvOT1deab444.I;font-size:8.97px;font-style:NORMAL;font-weight:normal;">P</text>
  <text x="97.964" y="285.73900000000003" svg_rhmargin="104.868" style="fill:#171615;font-family:IHAGJC+AdvP4C4E51;font-size:8.97px;font-style:NORMAL;font-weight:normal;">&lt;</text>
  <text x="104.881,107.302,112.251,117.2,122.15,124.293,126.71400000000001,128.407,134.011,138.772,143.901,148.85,151.648,156.597,161.358,166.487,168.204,172.777,177.538,182.111,183.698,187.805,192.099,193.686,197.981,199.668,204.797,209.369,213.664,218.237,223.36599999999999,225.066,230.015,234.77599999999998,236.461,239.07,243.831,248.404,250.124,252.733,255.531,260.103,264.676,267.285,274.656,279.229,283.99,286.599,289.02,290.771,295.066,297.675,302.248,307.197,311.77,313.448,318.02,322.782,327.911,329.605,334.178,338.939,343.512,345.099,349.205,353.5,355.087,359.382,361.069,363.678,367.784,372.913,377.486,379.21,383.783,385.37,389.665,394.61400000000003,396.274,400.847,405.796" y="285.73900000000003" svg_rhmargin="410.557" style="fill:#171615;font-family:IHAGHL+AdvOT6e5d2ec0;font-size:8.97px;font-style:NORMAL;font-weight:normal;">.001). Subgroup analysis based on the treatment, stage and analysis type also con</text>
  <text x="410.57" y="285.73900000000003" svg_rhmargin="414.488" style="fill:#171615;font-family:IHAGHO+AdvOT6e5d2ec0+fb;font-size:8.97px;font-style:NORMAL;font-weight:normal;">ﬁ</text>
  <text x="414.482,417.279,424.649,429.222,434.351,436.081,438.691,443.452,448.025,449.688,454.816,457.614,462.563,467.513,472.274,477.223,481.518,484.127,485.714,490.287,492.036,496.142,500.715,502.302,507.063,511.636,515.931,517.603,522.552,524.794,526.504,529.113,533.874,538.447,540.11,544.871,546.826,552.798,556.061,561.01,562.731,567.025,571.598,576.548,579.345" y="285.73900000000003" svg_rhmargin="583.918" style="fill:#171615;font-family:IHAGHL+AdvOT6e5d2ec0;font-size:8.97px;font-style:NORMAL;font-weight:normal;">rmed the prognostic values of the FIB-4 score</text>
  <text x="91.274,93.516,98.465,101.262,104.257,110.883,116.487,119.45,124.023,128.784,133.91299999999998,136.911,139.708,144.281,148.854,153.615,156.413,159.21,163.783,168.544,173.117,177.69,180.953,183.195,185.992,190.565,195.138,198.194,202.489,207.25,210.047,214.154,215.741,219.847,224.42,226.00699999999998,228.977,231.12,237.091,241.853,247.456,249.599,252.617,254.205,258.966,261.972,268.222,274.471,280.721" y="296.681" svg_rhmargin="283.142" style="fill:#171615;font-family:IHAGHL+AdvOT6e5d2ec0;font-size:8.97px;font-style:NORMAL;font-weight:normal;">for OS and recurrence-free survival (RFS) in HCC.</text>
  <text svg_rhmargin="152.902" x="91.276,98.497,104.634,110.524,116.414,118.733,124.623,130.178,132.497,138.556,144.446,150.001,152.90200000000002" y="310.854" style="fill:#171615;font-family:IHAGHN+AdvOT91f5f621.B;font-size:7.97px;font-style:NORMAL;font-weight:normal;">Conclusions: </text>
  <text x="155.509,160.27,162.224,168.196,171.46,176.40900000000002,179.432,181.02,185.781,190.909,195.482,199.777,202.79,210.16,211.747,216.696,221.458,224.067,227.053,232.182,236.755,239.752,244.32500000000002,247.292,252.053,256.348,260.921,263.163,267.924,269.51099999999997,272.52,277.648,280.446,285.019,290.148,291.735,296.307,298.917,300.504,304.61,309.183,312.204,319.574,324.147,326.944,331.427,336.0,338.797,341.796,343.383,348.144,351.151,356.279,360.852,363.461,365.048,369.621,374.382,376.992,381.28700000000003,384.315,390.941,392.528,395.138,399.899,402.853,409.103,415.352,421.602" y="310.854" svg_rhmargin="424.023" style="fill:#171615;font-family:IHAGHL+AdvOT6e5d2ec0;font-size:8.97px;font-style:NORMAL;font-weight:normal;">FIB-4 index might be a useful predictive marker in patients with HCC.</text>
  <text svg_rhmargin="159.934" x="91.276,97.915,104.052,110.189,114.254,120.131,125.439,127.758,133.648,137.131,139.451,145.588,151.478,157.033,159.934" y="325.821" style="fill:#171615;font-family:IHAGHN+AdvOT91f5f621.B;font-size:7.97px;font-style:NORMAL;font-weight:normal;">Abbreviations: </text>
  <text svg_rhmargin="197.941" x="164.92,169.869,174.818,182.75300000000001,185.442,191.691,193.646,197.94099999999997" y="325.821" style="fill:#171615;font-family:IHAGHL+AdvOT6e5d2ec0;font-size:8.97px;font-style:NORMAL;font-weight:normal;">95% CIs </text>
  <text svg_rhmargin="206.706" x="200.636,206.706" y="325.821" style="fill:#171615;font-family:IHAGIP+AdvOTb0c9bf5d;font-size:8.97px;font-style:NORMAL;font-weight:normal;">= </text>
  <text x="209.366,214.316,219.265,227.2,229.889,234.461,239.411" y="325.821" svg_rhmargin="244.172" style="fill:#171615;font-family:IHAGHL+AdvOT6e5d2ec0;font-size:8.97px;font-style:NORMAL;font-weight:normal;">95% con</text>
  <text x="244.176" y="325.821" svg_rhmargin="248.094" style="fill:#171615;font-family:IHAGHO+AdvOT6e5d2ec0+fb;font-size:8.97px;font-style:NORMAL;font-weight:normal;">ﬁ</text>
  <text svg_rhmargin="325.762" x="248.145,253.274,257.846,262.607,267.18,271.753,274.449,276.036,280.797,283.407,287.979,290.777,294.883,299.456,301.043,305.338,307.759,310.448,316.052,320.813,325.762" y="325.821" style="fill:#171615;font-family:IHAGHL+AdvOT6e5d2ec0;font-size:8.97px;font-style:NORMAL;font-weight:normal;">dence intervals, ALT </text>
  <text svg_rhmargin="334.492" x="328.422,334.492" y="325.821" style="fill:#171615;font-family:IHAGIP+AdvOTb0c9bf5d;font-size:8.97px;font-style:NORMAL;font-weight:normal;">= </text>
  <text svg_rhmargin="438.345" x="337.209,341.782,343.369,347.942,352.703,354.29,359.051,363.62399999999997,366.291,368.9,371.698,376.271,381.032,385.327,389.899,397.27,398.857,403.618,408.191,412.485,417.058,419.479,422.188,427.792,433.396,438.345" y="325.821" style="fill:#171615;font-family:IHAGHL+AdvOT6e5d2ec0;font-size:8.97px;font-style:NORMAL;font-weight:normal;">alanine transaminase, AST </text>
  <text svg_rhmargin="447.141" x="441.071,447.141" y="325.821" style="fill:#171615;font-family:IHAGIP+AdvOTb0c9bf5d;font-size:8.97px;font-style:NORMAL;font-weight:normal;">= </text>
  <text svg_rhmargin="575.141" x="449.801,454.374,458.669,463.798,468.371,471.168,473.777,478.35,480.959,485.532,488.238,492.811,500.181,501.768,506.529,511.479,514.088,516.885,521.458,526.219,530.514,532.756,537.329,540.126,544.699,548.994,553.567,555.988,558.705,564.775,569.537,575.1410000000001" y="325.821" style="fill:#171615;font-family:IHAGHL+AdvOT6e5d2ec0;font-size:8.97px;font-style:NORMAL;font-weight:normal;">aspartate aminotransferase, DFS </text>
  <text x="577.872" y="325.821" svg_rhmargin="583.942" style="fill:#171615;font-family:IHAGIP+AdvOTb0c9bf5d;font-size:8.97px;font-style:NORMAL;font-weight:normal;">=</text>
  <text svg_rhmargin="190.696" x="91.275,96.404,97.991,102.286,106.858,111.431,115.726,120.299,123.563,125.804,128.602,133.174,137.747,139.746,144.041,148.802,151.599,155.706,157.293,161.399,165.972,167.559,169.98,171.947,178.196,184.446,190.695" y="335.798" style="fill:#171615;font-family:IHAGHL+AdvOT6e5d2ec0;font-size:8.97px;font-style:NORMAL;font-weight:normal;">disease-free survival, HCC </text>
  <text svg_rhmargin="198.713" x="192.643,198.713" y="335.798" style="fill:#171615;font-family:IHAGIP+AdvOTb0c9bf5d;font-size:8.97px;font-style:NORMAL;font-weight:normal;">= </text>
  <text svg_rhmargin="315.964" x="200.693,205.454,210.027,215.156,219.729,222.338,227.287,231.86,236.433,238.02,239.607,244.368,245.955,250.528,253.325,255.286,259.859,264.432,267.23,271.802,273.389,278.151,283.1,290.47,295.043,297.464,299.448,305.698,311.669,315.964" y="335.798" style="fill:#171615;font-family:IHAGHL+AdvOT6e5d2ec0;font-size:8.97px;font-style:NORMAL;font-weight:normal;">hepatocellular carcinoma, HRs </text>
  <text svg_rhmargin="324.005" x="317.935,324.005" y="335.798" style="fill:#171615;font-family:IHAGIP+AdvOTb0c9bf5d;font-size:8.97px;font-style:NORMAL;font-weight:normal;">= </text>
  <text svg_rhmargin="397.585" x="325.986,330.747,335.32,339.426,343.999,346.797,351.92600000000004,353.878,356.676,361.248,363.858,365.445,370.394,374.689,377.11,379.106,385.355,391.981,397.585" y="335.798" style="fill:#171615;font-family:IHAGHL+AdvOT6e5d2ec0;font-size:8.97px;font-style:NORMAL;font-weight:normal;">hazard ratios, NOS </text>
  <text svg_rhmargin="405.587" x="399.517,405.587" y="335.798" style="fill:#171615;font-family:IHAGIP+AdvOTb0c9bf5d;font-size:8.97px;font-style:NORMAL;font-weight:normal;">= </text>
  <text x="407.567,413.817,418.39,425.016,429.589,434.161,438.456,441.066,442.653" y="335.798" svg_rhmargin="447.226" style="fill:#171615;font-family:IHAGHL+AdvOT6e5d2ec0;font-size:8.97px;font-style:NORMAL;font-weight:normal;">Newcastle</text>
  <text x="447.252" y="335.798" svg_rhmargin="451.735" style="fill:#171615;font-family:IHAGJA+AdvOT6e5d2ec0+20;font-size:8.97px;font-style:NORMAL;font-weight:normal;">–</text>
  <text svg_rhmargin="517.534" x="451.731,458.357,460.966,463.575,468.148,474.774,479.347,481.323,485.618,490.191,494.764,496.351,500.924,503.34499999999997,505.304,511.93,517.534" y="335.798" style="fill:#171615;font-family:IHAGHL+AdvOT6e5d2ec0;font-size:8.97px;font-style:NORMAL;font-weight:normal;">Ottawa scale, OS </text>
  <text svg_rhmargin="525.549" x="519.479,525.5490000000001" y="335.798" style="fill:#171615;font-family:IHAGIP+AdvOTb0c9bf5d;font-size:8.97px;font-style:NORMAL;font-weight:normal;">= </text>
  <text x="527.53,532.48,536.586,541.159,543.956,548.529,550.116,551.703,553.664,557.959,562.72,565.518,569.624,571.211,575.318,579.891,581.478" y="335.798" svg_rhmargin="583.899" style="fill:#171615;font-family:IHAGHL+AdvOT6e5d2ec0;font-size:8.97px;font-style:NORMAL;font-weight:normal;">overall survival,</text>
  <text svg_rhmargin="107.613" x="91.277,97.248,102.009,107.613" y="345.776" style="fill:#171615;font-family:IHAGHL+AdvOT6e5d2ec0;font-size:8.97px;font-style:NORMAL;font-weight:normal;">RFS </text>
  <text svg_rhmargin="116.679" x="110.609,116.679" y="345.776" style="fill:#171615;font-family:IHAGIP+AdvOTb0c9bf5d;font-size:8.97px;font-style:NORMAL;font-weight:normal;">= </text>
  <text x="119.68,122.478,127.05,131.623,136.384,139.182,141.979,146.552,151.313,155.886,160.459,163.723,165.964,168.762,173.334,177.907,180.907,185.201,189.962,192.76,196.867,198.454,202.56,207.133,208.72" y="345.776" svg_rhmargin="211.141" style="fill:#171615;font-family:IHAGHL+AdvOT6e5d2ec0;font-size:8.97px;font-style:NORMAL;font-weight:normal;">recurrence-free survival.</text>
  <text svg_rhmargin="142.36" x="91.276,98.162,104.14,109.28,117.665,123.702,127.767,133.904,139.459,142.36" y="360.743" style="fill:#171615;font-family:IHAGHN+AdvOT91f5f621.B;font-size:7.97px;font-style:NORMAL;font-weight:normal;">Keywords: </text>
  <text x="145.02,149.782,151.736,157.708,160.971,165.92000000000002,168.888,170.475,175.236,180.365,184.937,189.232,191.653,194.682,199.443,204.016,209.145,213.718,216.327,221.276,225.849,230.422,232.009,233.596,238.357,239.944,244.517,247.314,250.352,254.925,259.498,262.295,266.868,268.455,273.216,278.166,285.536,290.109,292.53,295.535,302.905,307.478,310.087,314.66,317.924,322.497,327.258,331.831,333.418,337.524,341.819,343.406,347.701,350.122,353.133,358.262,361.059,366.008,370.958,375.719,380.668,384.963,386.55" y="360.743" svg_rhmargin="390.845" style="fill:#171615;font-family:IHAGHL+AdvOT6e5d2ec0;font-size:8.97px;font-style:NORMAL;font-weight:normal;">FIB-4 index, hepatocellular carcinoma, meta-analysis, prognosis</text>
  <text x="85.039,90.955,93.908,98.646,101.599,107.514,111.158,115.095,120.812,126.727,132.643,138.16,141.804,144.558,150.275" y="406.948" svg_rhmargin="156.19" style="fill:#171615;font-family:IHAGHJ+AdvOTfbba3ace.B;font-size:9.46px;font-style:NORMAL;font-weight:normal;">1. Introduction</text>
  <text x="85.039,92.508,96.264,101.214,105.505,108.283,113.232,117.013,120.811,123.232,125.517,130.466,132.717,137.082,140.534,144.736,148.654,152.956,156.408,160.156,162.577,167.356,172.306,179.545,184.028,188.219,190.997,198.466,204.773,211.21,214.097,218.209,220.63,224.082,228.186,230.964,235.914,239.832,243.946,246.834,251.657,254.077,257.326,262.27500000000003,266.51,268.931,272.633,277.116,281.93,284.351,289.13,293.613,297.804,301.602,306.086,310.9,314.352,318.27,322.351,327.301" y="422.879" svg_rhmargin="330.188" style="fill:#171615;font-family:IHAGJD+AdvOTbc475f09;font-size:8.97px;font-style:NORMAL;font-weight:normal;">Hepatocellular carcinoma (HCC) is the third leading cause of</text>
  <text x="85.039,88.958,93.26,98.209,101.934,105.852,109.134,112.021,115.313,119.231,121.493,125.976,128.693,132.611,137.56,140.938,145.887,149.668,154.034,156.812,161.76100000000002,165.259,172.163,176.938,180.39,182.664,187.482,194.386,196.666,201.616,205.53400000000002,208.912,213.395,218.152,223.101,226.599,231.549,235.84,239.758,243.21,246.611,251.561,255.852,258.273,261.16,264.582,269.532,272.419,275.807,278.585,283.535,287.45300000000003,290.887,295.705,299.624,306.528,309.935,317.404,323.654" y="433.82" svg_rhmargin="330.092" style="fill:#171615;font-family:IHAGJD+AdvOTbc475f09;font-size:8.97px;font-style:NORMAL;font-weight:normal;">cancer-related death worldwide and over half of the new HCC</text>
  <text x="85.039,88.958,93.26,96.712,100.46,103.91199999999999,105.336,109.819,114.576,119.52499999999999,120.983,125.932,129.657,134.14,136.857,141.806,145.258,146.607,151.557,155.281,159.2,164.012,167.464,170.702,174.62,179.56900000000002,180.906,183.327,188.276,189.637,196.074,200.862,203.282,208.062,212.427" y="444.818" svg_rhmargin="214.848" style="fill:#171615;font-family:IHAGJD+AdvOTbc475f09;font-size:8.97px;font-style:NORMAL;font-weight:normal;">cases and deaths occurred in China.</text>
  <text x="214.809,216.85" y="440.794" svg_rhmargin="220.562" style="fill:#171615;font-family:IHAGJD+AdvOTbc475f09;font-size:5.98px;font-style:NORMAL;font-weight:normal;">[1</text>
  <text x="220.479" y="440.794" svg_rhmargin="223.841" style="fill:#171615;font-family:IHAGJE+AdvOTbc475f09+20;font-size:5.98px;font-style:NORMAL;font-weight:normal;">–</text>
  <text svg_rhmargin="229.645" x="223.767,227.48,229.64499999999998" y="444.819" style="fill:#171615;font-family:IHAGJD+AdvOTbc475f09;font-size:5.98px;font-style:NORMAL;font-weight:normal;">2] </text>
  <text x="231.024,238.493,242.249,247.067,251.55,254.267,258.185,261.921,264.808,269.631,276.887,281.37,282.783,285.204,288.656,290.04,293.838,298.787,303.589,307.041,309.258,314.208,317.989,321.441,325.189" y="444.819" svg_rhmargin="330.138" style="fill:#171615;font-family:IHAGJD+AdvOTbc475f09;font-size:8.97px;font-style:NORMAL;font-weight:normal;">Hepatectomy is considered</text>
  <text x="85.039,87.817,92.766,96.68400000000001,98.304,105.561,110.51,113.781,116.668,118.316,122.235,127.047,134.303,141.674,146.492,151.311,153.731,158.214,159.814,163.612,168.562,171.833,176.316,179.033,181.453,185.779,189.697,191.334,194.221,197.514,201.432,205.734,208.621,215.826,219.744,224.556,227.443,229.091,231.512,236.461,238.049,245.518,251.768,258.206,259.875,264.694,269.177,271.894,274.315,278.073,283.023,285.783,289.236,291.657,293.21,300.679,305.456,312.36,316.114,320.479,324.398,327.679" y="455.761" svg_rhmargin="330.1" style="fill:#171615;font-family:IHAGJD+AdvOTbc475f09;font-size:8.97px;font-style:NORMAL;font-weight:normal;">the most commonly curative treatment in HCC patients. However,</text>
  <text x="85.039,87.817,92.766,96.517,98.937,102.389,106.835,111.784,115.069,120.018,124.334,129.283,134.065,137.517,139.77,143.222,145.643,150.088,154.007,157.291,162.24,165.991,169.789,172.21,176.535,178.956,181.184,185.667,190.198,193.085,197.867,201.785,206.314,208.735,213.514,218.296,222.779,225.499,228.386,232.136,235.588,242.958,247.444,250.896,255.677,259.129,263.445,265.866,270.181,274.664,277.085,281.576,285.029,289.287,292.174,296.092,300.568,304.02,307.771,315.141,319.456,321.877,326.659" y="466.702" svg_rhmargin="330.111" style="fill:#171615;font-family:IHAGJD+AdvOTbc475f09;font-size:8.97px;font-style:NORMAL;font-weight:normal;">their prognosis, especially the long-term survival rate remains</text>
  <text x="85.039,89.988,94.733,98.185,102.5,105.387,107.659,111.111,113.839,118.204,122.122,124.837,129.787,133.114,137.597,142.298,147.117,151.035,154.827,159.193,164.142,167.413,171.33100000000002,176.031,180.98,183.867,188.503,191.39,196.213,200.131,204.83,209.78,212.03,216.396,221.345,226.09,228.868,232.32,236.068,241.017,245.819,249.617,254.566,258.348,262.831,267.532,272.35,275.237,280.004,282.782,287.731,294.914,299.863,303.315,307.953,311.405,315.153,319.071,323.883,327.335" y="477.7" svg_rhmargin="330.222" style="fill:#171615;font-family:IHAGJD+AdvOTbc475f09;font-size:8.97px;font-style:NORMAL;font-weight:normal;">unsatisfactory because of the high frequency of tumor recur-</text>
  <text x="85.039,88.491,92.239,97.188,100.913,104.831" y="488.642" svg_rhmargin="107.252" style="fill:#171615;font-family:IHAGJD+AdvOTbc475f09;font-size:8.97px;font-style:NORMAL;font-weight:normal;">rence.</text>
  <text x="107.093,109.258" y="484.674" svg_rhmargin="112.97" style="fill:#171615;font-family:IHAGJD+AdvOTbc475f09;font-size:5.98px;font-style:NORMAL;font-weight:normal;">[3</text>
  <text x="112.819" y="484.674" svg_rhmargin="116.181" style="fill:#171615;font-family:IHAGJE+AdvOTbc475f09+20;font-size:5.98px;font-style:NORMAL;font-weight:normal;">–</text>
  <text svg_rhmargin="121.985" x="116.107,119.82,121.985" y="488.643" style="fill:#171615;font-family:IHAGJD+AdvOTbc475f09;font-size:5.98px;font-style:NORMAL;font-weight:normal;">4] </text>
  <text x="124.838,130.72,135.496,140.445,143.716,146.137,149.102,154.052,157.323,161.241,166.053,168.474,172.233,175.011,177.431,182.21,186.693,189.637,192.524,197.291,201.209,204.207,207.66,212.428,215.88,220.194,222.615,226.884,231.367,233.78799999999998,236.692,241.057,246.007,250.95600000000002,253.813,257.265,261.013,264.931,269.743,273.195,276.433,280.351,285.163,288.961,292.879,295.878,298.656,303.605,307.057,309.937,317.406,323.657" y="488.643" svg_rhmargin="330.095" style="fill:#171615;font-family:IHAGJD+AdvOTbc475f09;font-size:8.97px;font-style:NORMAL;font-weight:normal;">Thus, predicting the survival and recurrence for HCC</text>
  <text x="85.039,89.988,94.28,97.167,99.439,103.357,108.113,111.0,114.452,117.014,120.812,125.295,130.244,132.774,137.723,141.448,143.869,148.818,151.369,154.147,159.096,161.687,166.17,170.927,173.348,178.127,182.04500000000002,184.647,187.534,192.357,196.155,198.576,202.028,204.546,209.495,214.296,217.748,220.476,223.254,226.031,229.483,233.231,237.715,240.431,247.802,251.6,256.418,259.305,261.917,269.288,273.596,278.545,282.837,287.32,291.113,298.37,302.288,307.044,309.931" y="499.584" svg_rhmargin="312.352" style="fill:#171615;font-family:IHAGJD+AdvOTbc475f09;font-size:8.97px;font-style:NORMAL;font-weight:normal;">patients can help to guide their post-treatment management.</text>
  <text x="93.996,99.878,104.828,108.746,112.198,116.116,118.374,122.857,126.309,130.227,132.491,139.861,144.344,149.293,153.776,156.074,159.526,161.947,165.399,170.348,172.627,175.514,179.998,183.916,186.803,191.752,195.204,198.656,200.916,203.803,208.753,212.20499999999998,214.465,221.934,228.372,234.809,237.23,239.522,241.943,246.892,250.811,253.232,258.181,263.13,265.551,270.501,274.984,277.222,281.705,284.126,287.578,292.061,294.48199999999997,296.78,299.201,304.15,307.038,310.956,314.874,317.761,320.182,325.132" y="510.526" svg_rhmargin="330.081" style="fill:#171615;font-family:IHAGJD+AdvOTbc475f09;font-size:8.97px;font-style:NORMAL;font-weight:normal;">There are many risk factors for HCC, including viral infection</text>
  <text svg_rhmargin="99.421" x="85.039,89.522,94.472,99.42099999999999" y="521.524" style="fill:#171615;font-family:IHAGJD+AdvOTbc475f09;font-size:8.97px;font-style:NORMAL;font-weight:normal;">and </text>
  <text x="104.485" y="521.524" svg_rhmargin="109.434" style="fill:#171615;font-family:IHAGJF+AdvOTbc475f09+fb;font-size:8.97px;font-style:NORMAL;font-weight:normal;">ﬁ</text>
  <text svg_rhmargin="330.11" x="109.474,114.423,117.875,122.825,126.277,128.698,132.15,137.253,142.202,146.12,150.603,154.055,157.974,161.892,164.313,169.397,176.301,181.25,183.671,187.589,192.538,197.629,202.112,205.564,209.482,214.58,219.063,221.484,224.936,229.88500000000002,234.989,238.907,241.328,246.277,249.729,253.648,256.069,260.552,265.659,269.111,273.029,275.45,279.933,282.82,286.739,291.688,296.839,299.726,304.675,309.765,317.234,323.672,330.11" y="406.21" style="fill:#171615;font-family:IHAGJD+AdvOTbc475f09;font-size:8.97px;font-style:NORMAL;font-weight:normal;">brosis degree, which are also closely related to HCC </text>
  <text x="345.09,350.04,353.492,358.441,362.924,367.874,372.823,376.275,378.696,382.148" y="406.21" svg_rhmargin="384.569" style="fill:#171615;font-family:IHAGJD+AdvOTbc475f09;font-size:8.97px;font-style:NORMAL;font-weight:normal;">prognosis.</text>
  <text x="384.548,386.713" y="402.186" svg_rhmargin="390.425" style="fill:#171615;font-family:IHAGJD+AdvOTbc475f09;font-size:5.98px;font-style:NORMAL;font-weight:normal;">[5</text>
  <text x="390.444" y="402.186" svg_rhmargin="393.806" style="fill:#171615;font-family:IHAGJE+AdvOTbc475f09+20;font-size:5.98px;font-style:NORMAL;font-weight:normal;">–</text>
  <text svg_rhmargin="399.723" x="393.845,397.558,399.723" y="406.211" style="fill:#171615;font-family:IHAGJD+AdvOTbc475f09;font-size:5.98px;font-style:NORMAL;font-weight:normal;">7] </text>
  <text x="405.071,410.02,412.907,418.323,421.21,426.159,431.489,433.91,438.859,443.809,447.727,452.676,455.097,460.402,464.885,470.21,475.159,480.109,484.592,488.51,490.931,496.288,499.74,503.658,508.607,512.059,514.48,519.43,523.9129999999999,529.225,532.677,537.161,540.613,543.5,547.418,554.788,557.2090000000001,562.617,566.535,571.018,575.967,581.269,586.218" y="406.211" svg_rhmargin="590.136" style="fill:#171615;font-family:IHAGJD+AdvOTbc475f09;font-size:8.97px;font-style:NORMAL;font-weight:normal;">FIB-4 index, a novel scoring system, can be</text>
  <text x="345.09,349.008,353.491,355.912,359.83,364.78,367.201,371.684,374.571,378.489,383.438,385.851,390.8,395.283,397.7,400.587,405.536,409.454,411.873,414.76,419.709,422.13,424.551,429.5,436.404,438.825,443.775,448.258,450.649,453.536,458.486,461.938,469.308,474.258,476.678,481.162,483.58299999999997,486.024,490.507,494.99,498.908,501.33,506.279,508.644,515.082,519.565,525.447,527.868,532.817,535.238,539.721,542.609,546.527,548.948,552.866,555.7529999999999,558.248,562.167,567.116,572.065,577.015,579.9019999999999,582.285,585.172" y="417.153" svg_rhmargin="590.121" style="fill:#171615;font-family:IHAGJD+AdvOTbc475f09;font-size:8.97px;font-style:NORMAL;font-weight:normal;">calculated by the following formula: age x AST/platelet count [x</text>
  <text x="345.09,350.039,354.989,359.938" y="428.094" svg_rhmargin="362.359" style="fill:#171615;font-family:IHAGJD+AdvOTbc475f09;font-size:8.97px;font-style:NORMAL;font-weight:normal;">103/</text>
  <text x="362.325" y="428.094" svg_rhmargin="368.297" style="fill:#171615;font-family:IHAGJG+AdvP7DA6;font-size:8.97px;font-style:NORMAL;font-weight:normal;">m</text>
  <text x="368.334,373.75,376.637,378.312,383.261,385.002,387.889,394.326,399.742,405.624" y="428.094" svg_rhmargin="408.511" style="fill:#171615;font-family:IHAGJD+AdvOTbc475f09;font-size:8.97px;font-style:NORMAL;font-weight:normal;">L] x [ALT]</text>
  <text x="408.529,412.242,414.058" y="424.126" svg_rhmargin="417.77" style="fill:#171615;font-family:IHAGJD+AdvOTbc475f09;font-size:5.98px;font-style:NORMAL;font-weight:normal;">1/2</text>
  <text x="417.77" y="428.095" svg_rhmargin="420.191" style="fill:#171615;font-family:IHAGJD+AdvOTbc475f09;font-size:8.97px;font-style:NORMAL;font-weight:normal;">.</text>
  <text svg_rhmargin="428.251" x="420.208,422.374,426.086,428.25100000000003" y="428.095" style="fill:#171615;font-family:IHAGJD+AdvOTbc475f09;font-size:5.98px;font-style:NORMAL;font-weight:normal;">[8] </text>
  <text x="429.959,432.846,435.733,437.442,444.346,448.829,452.281,453.996,458.945,462.397,466.316,470.799,473.22,478.169,483.118,486.57,488.991,493.474,495.21,500.16,503.612,507.53,512.4789999999999,514.145,517.033,521.982,523.727,528.21,531.662,535.114,539.032,542.484,545.936,547.651,550.538,555.487,559.405,561.087,564.539,568.457,572.94,576.858,580.31,582.731,585.618" y="428.095" svg_rhmargin="590.101" style="fill:#171615;font-family:IHAGJD+AdvOTbc475f09;font-size:8.97px;font-style:NORMAL;font-weight:normal;">It was previously used to assess the severity</text>
  <text svg_rhmargin="373.463" x="345.089,350.039,352.926,356.768,359.189,361.61,366.093,370.011,373.463" y="439.093" style="fill:#171615;font-family:IHAGJD+AdvOTbc475f09;font-size:8.97px;font-style:NORMAL;font-weight:normal;">of liver </text>
  <text x="377.347" y="439.093" svg_rhmargin="382.296" style="fill:#171615;font-family:IHAGJF+AdvOTbc475f09+fb;font-size:8.97px;font-style:NORMAL;font-weight:normal;">ﬁ</text>
  <text svg_rhmargin="527.14" x="382.28,387.229,390.681,395.631,399.083,401.504,404.956,408.811,413.294,418.244,423.19300000000004,427.066,430.984,435.933,440.883,444.335,446.756,451.705,455.623,459.075,462.994,467.94300000000004,471.795,474.682,479.63100000000003,483.474,488.423,492.341,496.229,500.712,504.563,509.513,512.965,516.883,519.77,524.719,527.1400000000001" y="439.093" style="fill:#171615;font-family:IHAGJD+AdvOTbc475f09;font-size:8.97px;font-style:NORMAL;font-weight:normal;">brosis and considered to be a useful </text>
  <text x="530.986" y="439.093" svg_rhmargin="535.935" style="fill:#171615;font-family:IHAGJF+AdvOTbc475f09+fb;font-size:8.97px;font-style:NORMAL;font-weight:normal;">ﬁ</text>
  <text x="535.975,540.924,544.376,549.326,552.778,555.198,558.65,562.506,565.958,569.876,574.826,578.278,580.699,585.648" y="439.093" svg_rhmargin="590.131" style="fill:#171615;font-family:IHAGJD+AdvOTbc475f09;font-size:8.97px;font-style:NORMAL;font-weight:normal;">brosis scoring</text>
  <text x="345.089,348.541,353.025,356.477,359.364,363.282,370.652,374.104" y="450.034" svg_rhmargin="376.525" style="fill:#171615;font-family:IHAGJD+AdvOTbc475f09;font-size:8.97px;font-style:NORMAL;font-weight:normal;">systems.</text>
  <text x="376.554,378.72" y="446.066" svg_rhmargin="382.432" style="fill:#171615;font-family:IHAGJD+AdvOTbc475f09;font-size:5.98px;font-style:NORMAL;font-weight:normal;">[9</text>
  <text x="382.45" y="446.066" svg_rhmargin="385.812" style="fill:#171615;font-family:IHAGJE+AdvOTbc475f09+20;font-size:5.98px;font-style:NORMAL;font-weight:normal;">–</text>
  <text svg_rhmargin="395.386" x="385.795,389.508,393.221,395.386" y="450.035" style="fill:#171615;font-family:IHAGJD+AdvOTbc475f09;font-size:5.98px;font-style:NORMAL;font-weight:normal;">10] </text>
  <text x="398.098,400.985,405.934,408.821,412.739,416.191,420.11,423.562,426.449,428.87,433.819,438.302,440.723,445.206,447.627,450.367,453.819,458.768,466.138,470.056,472.76,476.212,479.099,484.048,488.998,491.419,495.337,498.789,501.502,504.954,508.873,513.822,518.771,522.223,525.111,529.029,533.978,536.651,539.538,544.488,548.971,551.858,554.566,557.453,562.402,566.32,569.022,573.971,576.859,582.274,585.161" y="450.035" svg_rhmargin="590.11" style="fill:#171615;font-family:IHAGJD+AdvOTbc475f09;font-size:8.97px;font-style:NORMAL;font-weight:normal;">Interestingly, some studies reported that the FIB-4</text>
  <text x="345.09,348.542,352.46,357.409,360.861,364.779,367.313,374.217,378.7,382.152,384.661,388.579,393.528,396.98,400.432,404.351,406.772,411.255,414.142,418.06,423.009,425.592,432.496,434.917,437.804,442.753,445.264,448.151,453.1,457.01800000000003,459.55,464.499,467.951,472.901,477.384,482.333,487.283,490.735,493.156,496.608,499.176,504.126,507.013,509.551,517.02,523.458,529.896,532.398,534.819,539.7679999999999,542.32,545.772,549.69,553.608,557.526,562.476,565.3629999999999,567.944,572.428,576.346,580.829,584.281,587.733" y="460.976" svg_rhmargin="590.154" style="fill:#171615;font-family:IHAGJD+AdvOTbc475f09;font-size:8.97px;font-style:NORMAL;font-weight:normal;">score was correlated with the prognosis of HCC in recent years,</text>
  <text x="345.09,349.573,354.522,359.471,364.705,367.126,370.013,375.25,379.168,384.117,389.067,391.488,396.437,401.724,405.176,409.095,412.547,417.03,420.948,426.215,430.698,434.15,439.368,443.851,449.118,454.068,457.52,462.469,466.952,471.902,476.851,480.303,483.19,485.611,489.529,494.812,497.699,502.182,506.1,508.987,513.937,517.389,522.648,525.535,530.484,533.936,539.202,546.671,553.109,559.547" y="471.918" svg_rhmargin="561.968" style="fill:#171615;font-family:IHAGJD+AdvOTbc475f09;font-size:8.97px;font-style:NORMAL;font-weight:normal;">and it could serve as a prognostic factor for HCC.</text>
  <text x="561.997,564.163,567.875,569.692,573.404" y="467.95" svg_rhmargin="577.116" style="fill:#171615;font-family:IHAGJD+AdvOTbc475f09;font-size:5.98px;font-style:NORMAL;font-weight:normal;">[5,11</text>
  <text x="577.134" y="467.95" svg_rhmargin="580.496" style="fill:#171615;font-family:IHAGJE+AdvOTbc475f09+20;font-size:5.98px;font-style:NORMAL;font-weight:normal;">–</text>
  <text x="580.535,584.248,587.96" y="467.95" svg_rhmargin="590.125" style="fill:#171615;font-family:IHAGJD+AdvOTbc475f09;font-size:5.98px;font-style:NORMAL;font-weight:normal;">13]</text>
  <text x="345.09,352.559,357.508,364.412,368.33,372.814,376.732,380.184,382.605,384.489,387.377,392.326,396.244,398.152,403.102,406.554,411.503,415.986,420.936,425.885,429.337,432.224,434.645,438.563,440.444,444.927,449.41,451.831,456.78,460.698,462.61,467.56,470.447,472.304,475.192,480.141,484.059,485.967,490.917,493.804,499.22,502.107,507.05600000000004,508.927,511.348,516.298,521.247,525.165,530.1139999999999,532.058,534.479,539.428,541.298,548.767,555.205,561.643,563.521,566.973,570.892,578.262,582.745,585.166" y="482.917" svg_rhmargin="590.115" style="fill:#171615;font-family:IHAGJD+AdvOTbc475f09;font-size:8.97px;font-style:NORMAL;font-weight:normal;">However, the prognostic value of the FIB-4 index in HCC remain</text>
  <text x="345.09,347.511,352.46,356.378,361.328,366.277,369.729,372.15,375.602,378.489,382.407,387.357,390.244,394.071,396.958,400.41,405.359,412.729,416.634,420.553,425.502,428.954,432.406,436.324,441.274,444.161,447.984,451.903,454.323,456.744,461.694,464.115,468.033,472.516,474.937,478.824,482.276,486.194,491.144,496.093,499.545,502.432,505.884" y="493.858" svg_rhmargin="508.305" style="fill:#171615;font-family:IHAGJD+AdvOTbc475f09;font-size:8.97px;font-style:NORMAL;font-weight:normal;">inconsistent from current clinical reports.</text>
  <text x="508.309,510.474,514.187" y="489.89" svg_rhmargin="517.899" style="fill:#171615;font-family:IHAGJD+AdvOTbc475f09;font-size:5.98px;font-style:NORMAL;font-weight:normal;">[15</text>
  <text x="517.946" y="489.89" svg_rhmargin="521.308" style="fill:#171615;font-family:IHAGJE+AdvOTbc475f09+20;font-size:5.98px;font-style:NORMAL;font-weight:normal;">–</text>
  <text svg_rhmargin="530.94" x="521.291,525.004,528.775,530.9399999999999" y="493.858" style="fill:#171615;font-family:IHAGJD+AdvOTbc475f09;font-size:5.98px;font-style:NORMAL;font-weight:normal;">18] </text>
  <text x="534.784,540.666,545.615,549.534,552.986,556.904,559.791,564.741,568.193,572.111,574.532,578.379,581.266,586.216" y="493.858" svg_rhmargin="590.134" style="fill:#171615;font-family:IHAGJD+AdvOTbc475f09;font-size:8.97px;font-style:NORMAL;font-weight:normal;">Therefore, the</text>
  <text x="345.089,349.572,351.993,359.363,364.138,369.087,371.974,376.78,379.667,384.617,387.037,390.489,395.318,402.688,406.606,409.494,413.977,416.864,421.347,426.296,430.78,433.2,437.684,441.136,443.557,447.009,451.839,458.743,463.226,466.678,471.454,474.341,479.29,484.097,487.549,492.032,495.484,498.371,502.289,509.66,514.143,517.03,519.451,523.369,527.852,530.273,532.694,537.1769999999999,542.035,545.953,550.437,554.92,557.341,562.29,566.773,569.66,573.578,578.374,581.261,586.21" y="504.8" svg_rhmargin="590.128" style="fill:#171615;font-family:IHAGJD+AdvOTbc475f09;font-size:8.97px;font-style:NORMAL;font-weight:normal;">aim of this meta-analysis was to systematically evaluate the</text>
  <text x="345.089,348.541,352.459,354.88,359.363,362.25,364.671,369.62,374.57,378.022,382.971,385.392,390.341,392.425,397.375,401.293,404.18,411.084,415.002,418.921,423.87,425.986,428.873,433.823,437.741,439.819,444.769,447.656,453.072,455.959,460.908,463.006,465.427,470.377,475.326,479.244,484.19300000000004,486.25,490.733,495.682,500.63100000000003,502.69,510.159,516.597,523.035,525.14,530.089,534.573,537.46,539.881,543.799,548.748,551.635,553.712,558.661,563.611,566.498,570.416,575.366,582.736,586.654" y="515.798" svg_rhmargin="590.106" style="fill:#171615;font-family:IHAGJD+AdvOTbc475f09;font-size:8.97px;font-style:NORMAL;font-weight:normal;">relationship between the FIB-4 index and HCC patient outcomes</text>
  <text x="345.089,349.572,352.459,355.346,359.264,362.716,364.59,367.477,370.929,374.848,379.331,382.218,389.588,393.507,398.456,401.343,404.795,406.655,411.138,416.087,421.036,422.869,427.818,431.27,436.219,440.703,443.123,448.073,451.991,453.879,458.362,460.229,465.178,469.096,471.983,474.87,478.789,482.241,484.096,489.045,493.995,498.944,502.862,506.314,509.766,512.654,517.137,522.086,527.036,529.456,534.406,538.8889999999999,540.787,545.737,548.6239999999999,550.482,553.369,558.318,562.236,564.088,566.509,573.879,578.829,583.312,587.23" y="526.74" svg_rhmargin="590.117" style="fill:#171615;font-family:IHAGJD+AdvOTbc475f09;font-size:8.97px;font-style:NORMAL;font-weight:normal;">after treatments and provide a better understanding of the impact</text>
  <text x="345.089,350.038,352.925,355.916,358.803,363.753,367.671,370.656,375.605,378.493,383.908,386.795,391.744,394.75,397.171,402.121,407.07,410.988,415.937,418.901,423.85,428.79900000000004,431.827,439.296,445.734,452.17199999999997,455.184,460.133,464.617,467.504,469.925,473.843,478.792,481.679,484.663,489.613,493.065,498.014,502.497,507.447,512.396,515.848,518.269,521.721" y="537.681" svg_rhmargin="524.142" style="fill:#171615;font-family:IHAGJD+AdvOTbc475f09;font-size:8.97px;font-style:NORMAL;font-weight:normal;">of the FIB-4 index on HCC patient prognosis.</text>
  <text x="345.09,351.005,353.95799999999997,358.639,367.309,372.827,376.47,382.187,386.124,388.879,394.396,397.151,402.37600000000003,405.581,411.099,417.014,422.93,426.047,434.717,440.433,444.077,449.992,455.709,461.624" y="558.375" svg_rhmargin="466.848" style="fill:#171615;font-family:IHAGHJ+AdvOTfbba3ace.B;font-size:9.46px;font-style:NORMAL;font-weight:normal;">2. Materials and methods</text>
  <text x="345.09,350.039,352.46,357.409,359.83,364.308,370.091,375.041,379.99,383.254,388.203,393.332,396.338,400.822,403.709,406.972,411.922,414.809,419.758,424.986,429.469,432.451,437.4,442.529,447.944,450.932,455.416,458.303,463.431,468.847,473.33,476.33,480.814,485.763,487.906,492.855,497.805,500.692,502.835,508.062" y="576.29" svg_rhmargin="513.191" style="fill:#171615;font-family:IHAGJH+AdvOT01861455.I;font-size:8.97px;font-style:NORMAL;font-weight:normal;">2.1. Search strategy and study selection</text>
  <text x="345.09,351.836,356.785,360.70300000000003,362.891,365.668,370.617,372.925,377.874,382.619,386.071,388.345,395.249,399.967,403.419,408.368,410.569,412.99,416.442,418.676,423.159,425.422,432.679,436.477,439.255,443.62,446.398,450.764,455.582,459.948,462.369,466.638,470.09,472.307,475.759,478.033,482.852,485.739,488.067,490.845,495.664,499.582,501.9,506.718,511.668,516.412,518.833,521.004,524.456,529.168,532.966,537.915,540.222,542.643,544.871,547.649,551.447,554.899,559.157,561.935,566.754,570.206,573.897,576.3180000000001,578.603,581.38,586.2" y="592.22" svg_rhmargin="590.118" style="fill:#171615;font-family:IHAGJD+AdvOTbc475f09;font-size:8.97px;font-style:NORMAL;font-weight:normal;">Due to our work is a meta-analysis of the published literature, the</text>
  <text x="345.09,348.888,351.666,356.484,358.752,362.67,366.915,369.336,372.698,377.064,381.883,386.701,390.153,394.865,399.231,403.597,406.018,409.323,411.743,415.195,418.394,423.212,428.162,431.049,434.267,437.719,441.41,446.229,451.047,453.468,456.717,460.515,465.333,467.754,471.059,476.941,481.661,485.579,488.917,491.695,496.514,498.934,501.105,506.055,512.727,515.148,519.871,524.3539999999999,527.695,532.514,537.333,539.753,541.982,546.8,550.718,554.0,558.949,563.241,566.018,570.327,575.276,579.567,582.855,586.774" y="603.218" svg_rhmargin="590.226" style="fill:#171615;font-family:IHAGJD+AdvOTbc475f09;font-size:8.97px;font-style:NORMAL;font-weight:normal;">ethical approval is not required. The following online databases</text>
  <text x="345.09,351.836,355.634,359.086,363.004,367.993,371.445,375.137,379.502,382.79,386.588,391.538,395.262,400.211,405.24,408.018,412.837,416.289,421.398,425.196,427.464,429.885,434.154,436.575,441.297,443.718,447.636,452.579,456.944,460.396,463.067,465.488,469.191,471.458,475.256,478.708,481.129,486.085,491.034,495.779,500.598,509.442,513.24,518.059,520.48,525.542,534.386,538.184,543.1329999999999,548.219,553.039,555.9259999999999,561.032,565.341,569.259,571.464,575.262,580.211,583.936,587.734" y="614.16" svg_rhmargin="590.155" style="fill:#171615;font-family:IHAGJD+AdvOTbc475f09;font-size:8.97px;font-style:NORMAL;font-weight:normal;">were searched for eligible articles: PubMed, Web of Science,</text>
  <text x="345.09,351.382,356.202,360.0,364.949,368.164,372.529,377.479,381.397,384.435,389.85,392.031,396.849,400.301,404.56,408.012,412.27,414.691,417.825,423.241,430.411,435.23,439.595,443.047,446.739,449.15999999999997,452.294,461.139,465.504,470.324,473.102,477.467,482.286,486.769,489.939,496.843,501.108,503.829,508.195,510.616,513.808,518.173,522.993,527.942,531.1,537.393,542.211,544.632,549.355,553.838,557.008,564.265,568.63,571.408,573.676,578.625,583.37,587.736" y="625.101" svg_rhmargin="590.157" style="fill:#171615;font-family:IHAGJD+AdvOTbc475f09;font-size:8.97px;font-style:NORMAL;font-weight:normal;">Cochrane Library, Embase, Wanfang Data, and China National</text>
  <text x="345.09,351.382,356.202,361.02,367.924,370.148,373.946,378.765,383.131,387.049,389.197,391.974,396.924,399.628,402.916,407.282,410.734,413.405,416.857,421.569,425.367,428.145,432.963,436.415,440.333,442.431,445.152,451.59,458.758,465.196,467.886,470.607,473.028,475.2,481.082,485.801,489.719,491.925,495.212,499.011,501.788,505.24,507.458,511.256,515.622,519.987,522.408,524.579,527.357,529.778,536.938,540.856,543.004,549.908,554.172,557.624,559.785,564.604,569.423,574.242,578.608,581.386,585.184" y="636.0989999999999" svg_rhmargin="590.133" style="fill:#171615;font-family:IHAGJD+AdvOTbc475f09;font-size:8.97px;font-style:NORMAL;font-weight:normal;">Knowledge Infrastructure (CNKI). The retrieval time was updated</text>
  <text x="345.09,349.455,352.907,354.898,359.717,362.604,364.65,373.494,377.86,381.148,385.066,390.015,391.919,396.868,399.289,401.216,406.035,410.853,415.672,420.622,423.043,424.97,430.851,435.57,439.488,441.467,444.919,448.61,452.976,456.428,460.119,465.06800000000004,467.092,469.87,473.668,477.12,484.27,487.722,489.713,496.617,500.313,503.765,507.683,509.611,513.976,517.428,519.419,522.197,527.016,529.437,531.665,536.484,543.231,546.683,549.104,551.054,553.832,558.651,561.429,566.701,569.479,574.428,576.452,583.708" y="647.0409999999999" svg_rhmargin="590.146" style="fill:#171615;font-family:IHAGJD+AdvOTbc475f09;font-size:8.97px;font-style:NORMAL;font-weight:normal;">as of March 1, 2018. The search terms were as follows: (FIB-4 OR</text>
  <text x="345.09,349.908,352.176,357.125,360.34,365.289,368.56,370.827,374.279,376.951,381.769,384.656,389.82,396.112,403.369,410.273,415.388,418.166,423.115,426.84,431.658,436.024,438.802,443.62,447.418,451.217,453.638,455.808,460.758,462.952,467.317,470.769,475.935,483.191,489.62899999999996,494.757,497.025,499.445,503.714,507.512,510.964,516.073,523.33,529.768,534.896,539.845,543.57,548.388,552.754,555.531,557.952,561.655,564.5419999999999,569.648,576.086,583.254" y="657.983" svg_rhmargin="590.158" style="fill:#171615;font-family:IHAGJD+AdvOTbc475f09;font-size:8.97px;font-style:NORMAL;font-weight:normal;">Fibrosis-4) AND (hepatocellular OR liver OR hepatic) AND</text>
  <text x="345.09,347.852,351.77,356.073,359.36,363.154,365.575,370.298,375.247,382.43,386.913,388.212,395.458,403.168,406.962,411.32,416.27,419.994,423.788,427.24,428.55,435.795,443.506,448.455,452.18,457.004,461.829,464.25,468.519,471.971,480.537,487.794,494.23199999999997,495.56,498.338,503.163,510.409,515.233,518.685,521.356,523.777,525.098,533.94,537.8580000000001,539.155,543.514,545.935,549.127,554.0759999999999,555.419,562.665,567.024,571.848,576.673,581.032,583.453,585.623" y="668.981" svg_rhmargin="590.106" style="fill:#171615;font-family:IHAGJD+AdvOTbc475f09;font-size:8.97px;font-style:NORMAL;font-weight:normal;">(carcinoma ORcancer ORneoplasmOR tumor). We also manually</text>
  <text x="345.09,348.378,352.176,356.541,358.962,362.665,369.569,373.265,378.214,380.806,383.584,388.402,392.32,394.865,398.317,402.009,404.786,408.585,412.037,415.728,420.547,424.346,428.144,431.596,434.21,436.478,441.427,444.018,447.47,451.161,453.582,457.284,461.65,466.016,470.835,473.722,476.277,479.729,482.401,487.219,492.038,494.459,498.161,501.613,504.228,506.949,511.899,515.351,517.834,522.653,527.472,530.25,534.048,538.998,541.644,544.065,548.334,550.755,553.323,556.775,559.446,564.266,569.084,571.505,575.207,578.659" y="679.922" svg_rhmargin="581.08" style="fill:#171615;font-family:IHAGJD+AdvOTbc475f09;font-size:8.97px;font-style:NORMAL;font-weight:normal;">reviewed the references in relevant studies for potential studies.</text>
  <text x="354.047,356.934,361.884,365.802,368.223,373.172,376.624,379.045,383.994,388.94300000000004,391.917,395.835,399.287,401.708,404.595,408.514,411.966,414.387,418.87" y="690.864" svg_rhmargin="421.291" style="fill:#171615;font-family:IHAGJD+AdvOTbc475f09;font-size:8.97px;font-style:NORMAL;font-weight:normal;">Inclusion criteria:</text>
  <text x="345.09,347.977,352.926,355.813,359.206,363.689,368.63800000000003,371.849,376.332,379.784,382.671,385.092,389.01,391.431,395.349,398.55,402.469,407.418,412.367,414.788,419.738,423.19,427.108,432.057,435.23,438.117,443.066,446.984,450.196,455.146,458.598,463.547,468.03,472.98,477.929,481.381,484.268,486.689,490.607,493.791,496.212,503.583,508.532,513.015,516.933,519.8199999999999,523.044,527.993,530.88,534.098,539.048,541.935,547.351,550.238,555.187,558.362,560.783,565.732,570.682,574.6,579.549,582.74,585.161" y="707.304" svg_rhmargin="590.11" style="fill:#171615;font-family:IHAGJD+AdvOTbc475f09;font-size:8.97px;font-style:NORMAL;font-weight:normal;">(1) an article explored the prognostic impact of FIB-4 index in</text>
  <text x="359.206,364.156,367.608,370.029,377.399,381.882,385.334,389.817,392.824,400.293,406.731,413.169" y="718.246" svg_rhmargin="415.59" style="fill:#171615;font-family:IHAGJD+AdvOTbc475f09;font-size:8.97px;font-style:NORMAL;font-weight:normal;">primary HCC;</text>
  <path d="M85.039 169.405 L566.248 169.405 C579.416 169.363 590.182 180.153 590.115 193.329 L590.115 369.474 L85.039 369.474 M85.039 169.405 L566.248 169.405 L566.248 169.632 L85.265 169.632 M566.249 169.405 L569.991 169.688 C580.168 171.28 588.287 179.398 589.833 189.588 L590.117 193.329 L589.89 193.329 L589.606 189.588 C587.996 179.388 580.067 171.634 569.934 169.915 L566.249 169.632 M590.116 193.328 L590.116 369.473 L589.889 369.189 L589.889 193.328 M590.116 369.473 L85.039 369.473 L85.266 369.191 L589.889 369.191 M85.039 369.473 L85.039 169.405 L85.265 169.632 L85.265 369.191 M85.039 537.569 L330.122 537.569 L330.122 719.212 L85.039 719.212 " style="fill:none;stroke:#000000;stroke-width:1.0;"/>
  <path d=" M 85.03900146484375 262.7149963378906 L 330.06597900390625 262.7149963378906 L 330.06597900390625 262.2049865722656 L 85.03900146484375 262.2049865722656 L 84.81200408935547 262.3179931640625 L 84.81200408935547 262.60198974609375" style="fill:none;stroke:#000000;stroke-width:1.0;"/>
  <text x="85.039,89.029,93.019,94.254,96.284,100.134,102.311,104.194,106.585,110.944,114.502,116.678,120.528,121.763,125.613,127.96,133.115,136.965,140.669,143.57,147.128,148.363,152.0,154.901,157.216,161.861,165.712,171.445,175.434,178.992,181.168,185.158,186.393,190.044,192.22,195.778" y="545.846" svg_rhmargin="197.661" style="fill:#171615;font-family:IHAGJB+AdvOT1deab444.I;font-size:6.97px;font-style:NORMAL;font-weight:normal;">Editor: Sergio Gonzalez Bombardiere.</text>
  <text x="85.039,88.89,92.593,96.15,98.477,102.034,105.738,107.768,111.472,115.322,117.584,120.925,123.253,127.243,130.8,134.357,135.592,139.15,141.326,144.88299999999998,147.237,150.94,154.79,157.158,160.716,164.566" y="557.808" svg_rhmargin="168.269" style="fill:#171615;font-family:IHAGJB+AdvOT1deab444.I;font-size:6.97px;font-style:NORMAL;font-weight:normal;">The authors declare no con</text>
  <text x="168.265" y="557.808" svg_rhmargin="171.313" style="fill:#171615;font-family:IHAGKI+AdvOT1deab444.I+fb;font-size:6.97px;font-style:NORMAL;font-weight:normal;">ﬂ</text>
  <text x="171.326,172.561,176.119,178.148,180.455,184.305,186.049,188.393,189.627,193.331,195.361,198.918,201.095,204.652,208.067,210.097" y="557.808" svg_rhmargin="211.98" style="fill:#171615;font-family:IHAGJB+AdvOT1deab444.I;font-size:6.97px;font-style:NORMAL;font-weight:normal;">ict of interest.</text>
  <text x="85.039,89.761,93.319,97.308,100.866,103.042,105.072,110.893,114.451,118.154,120.18299999999999,122.516,126.366,128.11,130.453,135.608,139.165,142.869,146.426,148.603,152.16,153.394,155.741,160.1,163.804,165.98,169.83,173.388,175.642,178.836,180.71900000000002,183.012,185.041,188.745,192.302,194.691,198.394,199.629,201.806,205.147,207.176,209.489,213.848,217.406,221.256,225.246,226.555" y="569.77" svg_rhmargin="230.112" style="fill:#171615;font-family:IHAGJB+AdvOT1deab444.I;font-size:6.97px;font-style:NORMAL;font-weight:normal;">Department of General Surgery, the First People</text>
  <text x="230.117" y="569.77" svg_rhmargin="232.0" style="fill:#171615;font-family:IHAGKJ+AdvOT1deab444.I+20;font-size:6.97px;font-style:NORMAL;font-weight:normal;">’</text>
  <text x="231.988,235.329,237.657,242.518,246.368,249.71,253.699,254.934,256.964,260.522,261.756,264.135,267.985,269.72900000000004,272.073,276.934,280.491,281.726,282.961,284.196,287.754,291.458,295.308,297.191,299.572,304.433,307.99,309.225,310.46,311.696,315.253,318.957,322.807" y="569.77" svg_rhmargin="324.69" style="fill:#171615;font-family:IHAGJB+AdvOT1deab444.I;font-size:6.97px;font-style:NORMAL;font-weight:normal;">s Hospital of Neijiang, Neijiang,</text>
  <text x="85.039,89.399,90.634,94.191,97.895,101.599,105.156,108.85900000000001,111.234,115.593,117.77,121.62,124.814,126.05,129.753,133.311,136.868,138.751,141.114,145.473,147.35600000000002,149.731,154.23,156.113,158.462,163.324,167.028,168.263,171.966,175.524" y="578.7280000000001" svg_rhmargin="177.407" style="fill:#171615;font-family:IHAGJB+AdvOT1deab444.I;font-size:6.97px;font-style:NORMAL;font-weight:normal;">Sichuan Province, P. R. China.</text>
  <text svg_rhmargin="87.759" x="85.039,87.759" y="590.69" style="fill:#171615;font-family:IHAGHM+AdvOTb0c9bf5d+22;font-size:4.65px;font-style:NORMAL;font-weight:normal;">∗ </text>
  <text x="88.951,93.813,97.663,99.839,102.016,105.573,108.914,112.904,116.754,120.458,124.448,128.005,131.709,135.266,138.824,140.70700000000002,143.154,147.144,148.37800000000001,150.695,154.685,158.389,161.946,165.65,169.5,171.383,173.771,178.493,182.05,186.04,189.597,191.774,193.804,199.537,203.094,206.798,208.827,211.248,215.098,216.842,219.128,224.283,227.84,231.544,235.173,237.35,240.907,242.14100000000002,244.471,248.831,252.534,254.711,258.561,262.118,264.295,267.49,269.373,271.743,273.773,277.477,281.034,283.366,287.07,288.305,290.482,293.823,295.852,298.222,302.581,306.138,309.989,313.978,315.213" y="590.69" svg_rhmargin="318.77" style="fill:#171615;font-family:IHAGJB+AdvOT1deab444.I;font-size:6.97px;font-style:NORMAL;font-weight:normal;">Correspondence: Yi Zhang, Department of General Surgery, the First People</text>
  <text x="318.785" y="590.69" svg_rhmargin="320.668" style="fill:#171615;font-family:IHAGKJ+AdvOT1deab444.I+20;font-size:6.97px;font-style:NORMAL;font-weight:normal;">’</text>
  <text x="320.712" y="590.69" svg_rhmargin="324.052" style="fill:#171615;font-family:IHAGJB+AdvOT1deab444.I;font-size:6.97px;font-style:NORMAL;font-weight:normal;">s</text>
  <text x="85.04,89.901,93.751,97.092,101.082,102.317,104.347,107.905,109.139,111.518,115.368,117.112,119.455,124.317,127.874,129.109,130.344,131.579,135.137,138.84,142.691,144.574,146.954,151.816,155.373,156.608,157.843,159.078,162.636,166.339,170.189,172.582,176.433,180.283,184.133,187.983,191.834,195.684,197.567,199.911,204.27,205.505,209.062,212.766,216.47,220.027,223.73,226.105,230.464,232.641,236.491,239.686,240.921,244.625,248.182,251.739,253.622,255.985,260.344,262.227,264.602,269.101,270.984,273.334,278.195,281.899,283.134,286.838" y="599.6469999999999" svg_rhmargin="290.395" style="fill:#171615;font-family:IHAGJB+AdvOT1deab444.I;font-size:6.97px;font-style:NORMAL;font-weight:normal;">Hospital of Neijiang, Neijiang 641000, Sichuan Province, P. R. China</text>
  <text x="85.04,86.783,90.34,92.878,98.611,102.167,103.402,104.71,106.59299999999999,108.905,110.935,112.169,117.902,119.136,124.29,125.524,126.758,127.993,133.509,137.498,141.487,143.37,146.926,150.776,156.637,158.38,160.263,162.59,166.579,167.814,171.37,175.073,176.308,177.542,181.245,183.622,187.611,191.168,194.871,198.72,200.603,202.953,207.674,211.231,215.22,218.776,220.952,222.981,228.802,232.359,236.062,238.091,240.424,244.273,246.017,248.36,253.515,257.071,260.775,264.331,266.507,270.064,271.298,273.644,278.003,281.706,283.881,287.731,291.288,293.542,296.736,298.61899999999997,300.911,302.941,306.644,310.201,312.59,316.294,317.528,319.704,323.044" y="608.604" svg_rhmargin="325.073" style="fill:#171615;font-family:IHAGJB+AdvOT1deab444.I;font-size:6.97px;font-style:NORMAL;font-weight:normal;">(e-mail: timiwill@qq.com); Xianjin Yang, Department of General Surgery, the First</text>
  <text x="85.04,89.399,92.956,96.806,100.796,102.031" y="617.561" svg_rhmargin="105.588" style="fill:#171615;font-family:IHAGJB+AdvOT1deab444.I;font-size:6.97px;font-style:NORMAL;font-weight:normal;">People</text>
  <text x="105.619" y="617.561" svg_rhmargin="107.502" style="fill:#171615;font-family:IHAGKJ+AdvOT1deab444.I+20;font-size:6.97px;font-style:NORMAL;font-weight:normal;">’</text>
  <text x="107.547,110.88799999999999,113.216,118.077,121.928,125.269,129.258,130.493,132.524,136.081,137.315,139.694,143.544,145.288,147.574,152.436,155.993,157.228,158.463,159.765,163.323,167.026,170.877,172.76000000000002,175.073,179.935,183.492,184.727,185.962,187.264,190.822,194.526,198.376,200.702,204.552,208.402,212.252,216.102,219.953,223.803,225.686,228.086,232.446,233.681,237.238,240.942,244.646,248.203,251.906,254.281,258.64,260.816,264.667,267.861,269.096,272.8,276.358,279.915,281.798,284.161,288.52,290.40299999999996,292.722,297.22,299.103,301.453,306.314,310.018,311.253,314.957" y="617.561" svg_rhmargin="318.514" style="fill:#171615;font-family:IHAGJB+AdvOT1deab444.I;font-size:6.97px;font-style:NORMAL;font-weight:normal;">s Hospital of Neijiang, Neijiang 641000, Sichuan Province, P. R. China</text>
  <text x="85.04,86.784,90.341,92.88,98.613,102.171,103.406,104.714,106.597,108.91,112.76,116.61,120.46,124.31,128.161,132.011,135.861,139.711,143.562,147.412,153.02,157.009,160.999,162.883,166.44,170.29,176.023,177.767" y="626.576" svg_rhmargin="179.65" style="fill:#171615;font-family:IHAGJB+AdvOT1deab444.I;font-size:6.97px;font-style:NORMAL;font-weight:normal;">(e-mail: 2439015338@qq.com).</text>
  <text svg_rhmargin="113.93" x="85.04,89.901,93.751,97.741,100.936,103.112,104.347,108.197,111.901,113.92999999999999" y="638.481" style="fill:#171615;font-family:IHAGJB+AdvOT1deab444.I;font-size:6.97px;font-style:NORMAL;font-weight:normal;">Copyright </text>
  <text svg_rhmargin="121.564" x="116.334,121.565" y="638.481" style="fill:#171615;font-family:IHAGIP+AdvOTb0c9bf5d;font-size:6.97px;font-style:NORMAL;font-weight:normal;">© </text>
  <text x="123.874,127.724,131.574,135.425,139.275,141.619,143.65,147.353,150.91,153.242,157.601,161.305,163.335,167.039,170.889,173.143,174.887,178.228,179.973,181.85600000000002,184.199,188.559,192.262,196.252,197.487,198.722,202.063,205.767,209.325,213.314,215.667,219.657,222.851,225.192,231.511,235.361,236.596,238.626,242.258,244.435,247.776,250.082,254.581,255.816,259.52,264.674,268.232,270.408,272.818,277.679,281.236,284.794,286.029,288.059,291.763,293.64599999999996,296.008,297.528,301.232,304.789" y="638.481" svg_rhmargin="306.672" style="fill:#171615;font-family:IHAGJB+AdvOT1deab444.I;font-size:6.97px;font-style:NORMAL;font-weight:normal;">2018 the Author(s). Published by Wolters Kluwer Health, Inc.</text>
  <text x="85.039,88.888,92.592,93.826,97.16699999999999,99.495,100.729,104.07,106.412,109.969,113.672,115.993,119.904,123.893,127.45,131.153,133.453,137.01,140.566,144.123,147.68,151.02,154.36100000000002,156.752,160.309,162.485,164.514,165.749,169.305,170.54,174.09699999999998,176.48,180.469,181.703,185.044,187.073,189.249,190.483,194.472,198.176,200.205,203.762,207.751,210.153,213.856,217.559,221.548,225.105,227.28099999999998,229.654,231.683,235.386,238.94299999999998,241.276,243.305,246.862,249.038,254.77,258.111,260.493,264.344,266.088,268.431,270.46,274.164,277.721,280.052,284.913,287.089,290.645,294.202,296.231,297.466,300.66" y="647.496" svg_rhmargin="304.217" style="fill:#171615;font-family:IHAGJB+AdvOT1deab444.I;font-size:6.97px;font-style:NORMAL;font-weight:normal;">This is an open access article distributed under the terms of the Creative</text>
  <text x="85.039,89.9,93.751,99.484,105.217,109.067,112.771,116.112,118.489,122.849,124.879,126.909,129.085,130.32,134.31,138.014,140.044,141.279,145.129,148.938,151.476,156.338,160.188,163.891,166.229,171.091,174.941,180.674,186.407,189.965,192.141,195.698,196.934,200.588,201.822,204.16,207.864,209.099,212.656,216.213,219.917,223.258,226.815,229.164,233.014,234.898,238.748,241.07,242.814,247.676,252.537,257.182,261.254,263.793,268.654,273.516,275.26,277.143,279.51,284.665,288.368,291.926,294.102,297.659,300.034,301.269,303.298,305.647,306.881" y="656.453" svg_rhmargin="310.221" style="fill:#171615;font-family:IHAGJB+AdvOT1deab444.I;font-size:6.97px;font-style:NORMAL;font-weight:normal;">Commons Attribution-Non Commercial License 4.0 (CCBY-NC), where it is</text>
  <text x="85.039,89.029,92.586,94.762,100.496,101.731,105.072,108.413,109.648,113.728,114.963,118.52,120.816,122.846,126.696,129.037,133.026,136.877,142.031,145.735,146.97,150.82,154.377,158.463,160.346,162.658,165.998,169.702,173.26,175.436,178.993,180.876,183.238,185.415,188.972,194.705,195.94,199.135,201.018,203.423,205.453,207.629,211.187,214.89,218.232,219.976,223.826,226.002,231.736,233.619,235.968,239.525,243.228,247.217,249.575,253.564,257.268,258.503,259.738,263.806,267.51,271.49899999999997,273.841,275.871,279.575,283.132,285.464,290.618,294.468,296.645,299.839,302.189,306.179,308.355,312.206,315.4,316.635,320.625,324.182" y="665.41" svg_rhmargin="328.171" style="fill:#171615;font-family:IHAGJB+AdvOT1deab444.I;font-size:6.97px;font-style:NORMAL;font-weight:normal;">permissible to download, share, remix, transform, and buildup the work provided</text>
  <text x="85.039,86.274,88.303,90.652,91.887,95.228,97.569,101.559,103.736,107.586,111.576,115.133,117.309,118.545,121.739,124.105,127.662,128.897,130.927,134.485,138.474,140.357,142.702,146.552,150.256,153.813,156.195,161.35,165.2,167.376,170.57,172.921,176.478,180.035,183.739,187.443,191.293,193.322,195.656,199.646,203.20299999999997,205.578,209.281,212.622,216.18,220.169,222.529,226.087,229.937,235.67,241.403,244.961,247.137,250.695,252.012,255.569,256.804,258.039,261.233,263.579,268.733,269.968,271.998,275.702,279.552,283.256,285.28499999999997,287.619,291.608,295.166,297.342,303.154,304.389,307.73,311.071,312.306,316.156" y="674.367" svg_rhmargin="319.859" style="fill:#171615;font-family:IHAGJB+AdvOT1deab444.I;font-size:6.97px;font-style:NORMAL;font-weight:normal;">it is properly cited. The work cannot be used commercially without permission</text>
  <text x="85.039,86.783,88.96,92.81,98.543,100.914,102.943,106.647,110.20400000000001,112.536,113.771,117.621,121.325,123.502,127.205,130.763,131.998" y="683.324" svg_rhmargin="133.881" style="fill:#171615;font-family:IHAGJB+AdvOT1deab444.I;font-size:6.97px;font-style:NORMAL;font-weight:normal;">from the journal.</text>
  <text x="85.039,90.919,94.476,98.466,99.701,103.258,104.493,108.197,111.754,114.125,115.869,119.719,123.569,127.419,131.27,133.014,135.386,139.236,143.087,144.97,148.821,152.671,154.415,157.972,161.823,165.673,169.523,173.373,177.223" y="695.2860000000001" svg_rhmargin="178.966" style="fill:#171615;font-family:IHAGJB+AdvOT1deab444.I;font-size:6.97px;font-style:NORMAL;font-weight:normal;">Medicine (2018) 97:51(e13696)</text>
  <text x="85.039,89.538,93.095,96.652,100.21,101.445,104.713,108.271,112.26,114.143,116.45,120.3,124.14999999999999,126.485,130.844,134.548,138.398,142.102,145.443,147.472,149.844,153.694,157.544,161.394,165.244,167.589,169.835,172.181,176.541,180.098,183.655,187.213,191.202,193.233,196.79,200.87,202.75300000000001,205.066,208.916,212.766,215.101,219.962,223.813,227.007,230.565,236.298,240.288,243.845,246.021,248.439,252.289,256.139,259.989" y="707.249" svg_rhmargin="263.839" style="fill:#171615;font-family:IHAGJB+AdvOT1deab444.I;font-size:6.97px;font-style:NORMAL;font-weight:normal;">Received: 12 August 2018 / Accepted: 23 November 2018</text>
  <text x="85.039,88.743,90.773,92.803,96.793,98.676,100.922,103.169,107.158,110.353,112.237,116.338,120.188,121.423,123.307,127.157,129.334,133.184,135.43,139.28,143.131,145.014,148.865,152.796,156.647,160.497,162.743,168.623,173.345,175.228,179.078,182.929,186.779,190.629,194.479,198.33,202.18,206.03,209.88,213.731,217.658,221.57,225.42,229.27,233.121" y="719.211" svg_rhmargin="236.971" style="fill:#171615;font-family:IHAGJB+AdvOT1deab444.I;font-size:6.97px;font-style:NORMAL;font-weight:normal;">http://dx.doi.org/10.1097/MD.0000000000013696</text>
  <path d=" M 85.03900146484375 759.968017578125 L 590.1729736328125 759.968017578125 L 590.1729736328125 760.9884033203125 L 85.03900146484375 760.9884033203125 Z " style="fill:none;stroke:#000000;stroke-width:1.0;"/>
  <path d=" M 85.03900146484375 761.0460205078125 L 89.00749969482422 761.0460205078125 L 89.00749969482422 775.9559936523438 L 85.03900146484375 775.9559936523438 Z " style="fill:none;stroke:#000000;stroke-width:1.0;"/>
  <text svg_rhmargin="304.422" x="91.389,98.751,104.769,111.195,115.239,122.393,133.171,140.115,144.16,146.651,153.39600000000002,156.756,164.845,171.998,178.299,180.789,187.943,197.697,201.032,207.976,214.721,221.874,225.24,235.919,243.073,247.117,254.153,258.925,266.805,273.55,280.572,283.062,289.08,295.506,297.996,304.42199999999997" y="31.899" style="fill:#73828a;font-family:IHAGKK+AdvOTbed05995;font-size:9.96px;font-style:NORMAL;font-weight:normal;">Systematic Review and Meta-Analysis </text>
  <text x="437.272,469.714,489.657,511.847,519.123,537.736,545.012,564.991" y="31.899" svg_rhmargin="587.342" style="fill:#de000f;font-family:IHAGMK+Avenir-Roman;font-size:40.2px;font-style:NORMAL;font-weight:normal;">Medicine</text>
  <text x="584.326" y="14.110000000000014" svg_rhmargin="590.154" style="fill:#979699;font-family:IHAGML+AkzidenzGroteskBE-Md;font-size:7.0px;font-style:NORMAL;font-weight:bold;">®</text>
  <path d="M85.039 537.285 L330.065 537.285 L330.065 537.795 L85.039 537.795 L84.812 537.682 L84.812 537.398 M443.709 35.651 L582.507 35.651 M584.0 35.651 L584.0 35.651 M440.722 35.651 L440.722 35.651 " style="fill:none;stroke:#979699;stroke-width:1.5;"/>
  <rect style="stroke:blue;stroke-width:0.3;" x="550.368" y="44.108" height="15.384" width="39.988" title="1"/>
  <text x="550.368" y="44.108" class="image" id="image.1.1" width="39" height="15">image.1.1.550_590.44_59</text>
  <text x="555.412,563.566,570.568,577.237" y="54.660999999999945" svg_rhmargin="585.238" style="fill:#ffffff;font-family:IHAGPL+HelveticaNeue-MediumExt;font-size:9.0px;font-style:NORMAL;font-weight:normal;">OPEN</text>
  <text x="335.395" y="739.622" svg_rhmargin="339.795" style="fill:#171615;font-family:IHAGPM+AdvOTf94803d4;font-size:7.97px;font-style:NORMAL;font-weight:normal;">1</text>
 </g>
</svg>
