<?xml version="1.0" encoding="UTF-8"?>
<svg height="870.031005859375" width="672.0029907226562" xmlns="http://www.w3.org/2000/svg">
 <g style="fill:none;">
  <path d=" M 0.05999799817800522 826.072021484375 L 22.619997024536133 826.072021484375 L 22.619997024536133 826.35546875 L 0.05999799817800522 826.35546875 Z " style="fill:none;stroke:#000000;stroke-width:1.0;"/>
  <path d=" M 33.67599868774414 837.4110107421875 L 33.959449768066406 837.4110107421875 L 33.959449768066406 860.031005859375 L 33.67599868774414 860.031005859375 Z " style="fill:none;stroke:#000000;stroke-width:1.0;"/>
  <path d=" M 627.9869995117188 837.4110107421875 L 628.2703857421875 837.4110107421875 L 628.2703857421875 860.031005859375 L 627.9869995117188 860.031005859375 Z " style="fill:none;stroke:#000000;stroke-width:1.0;"/>
  <path d=" M 639.3259887695312 826.072021484375 L 662.0029907226562 826.072021484375 L 662.0029907226562 826.35546875 L 639.3259887695312 826.35546875 Z " style="fill:none;stroke:#000000;stroke-width:1.0;"/>
  <path d=" M 639.3259887695312 33.731998443603516 L 662.0029907226562 33.731998443603516 L 662.0029907226562 34.015480041503906 L 639.3259887695312 34.015480041503906 Z " style="fill:none;stroke:#000000;stroke-width:1.0;"/>
  <path d=" M 627.9869995117188 0.0 L 628.2703857421875 0.0 L 628.2703857421875 22.677000045776367 L 627.9869995117188 22.677000045776367 Z " style="fill:none;stroke:#000000;stroke-width:1.0;"/>
  <path d=" M 33.67599868774414 0.0 L 33.959449768066406 0.0 L 33.959449768066406 22.677000045776367 L 33.67599868774414 22.677000045776367 Z " style="fill:none;stroke:#000000;stroke-width:1.0;"/>
  <path d=" M 0.05999799817800522 33.731998443603516 L 22.619997024536133 33.731998443603516 L 22.619997024536133 34.015480041503906 L 0.05999799817800522 34.015480041503906 Z " style="fill:none;stroke:#000000;stroke-width:1.0;"/>
  <text x="85.039,89.989,92.523,97.006,102.104,104.525,108.34,113.839,116.334,118.828,123.777,128.806,131.3,136.345,140.828,144.622,151.595,156.078,159.53,163.444,168.394,173.478,176.365,180.225,185.174,189.182,192.069,196.665,199.16,201.654,205.572,210.52100000000002,214.41,216.904,221.853,225.692,228.697,233.646,237.654,241.169,245.08700000000002,248.935,252.45,255.337,260.387,265.432,267.927,271.845,275.41,277.831,281.703,287.585,292.644,296.562,300.411,303.926,306.346,309.878,314.924,318.376,322.237,327.187" y="258.923" svg_rhmargin="330.074" style="fill:#171615;font-family:FAHBDF+AdvOTbc475f09;font-size:8.97px;font-style:NORMAL;font-weight:normal;">high. Blinding was not detailed in these studies. The risks of</text>
  <text x="85.039,88.571,92.489,95.034,98.952,103.028,105.915,108.47,112.953,116.87100000000001,119.185,122.7,126.698,131.647,136.676,140.208,143.213,145.634,150.696,155.179,157.442,164.426,168.424,171.956,175.874,178.136,181.667,185.665,190.149,194.736,198.268,203.217,207.215,212.16400000000002,214.471,217.359,222.30800000000002,224.676,229.705,233.62300000000002,235.885,238.385,243.415,250.319,252.599,255.093,260.042,262.35,265.237,270.266,274.264,277.796,281.714,283.976,287.507,290.395,295.501,300.45,302.984,306.902,310.467,312.888,315.229,321.111,326.171" y="269.865" svg_rhmargin="330.089" style="fill:#171615;font-family:FAHBDF+AdvOTbc475f09;font-size:8.97px;font-style:NORMAL;font-weight:normal;">selective reporting were regarded to be low in these studies. The</text>
  <text x="85.039,89.989,94.053,96.94,101.536,104.031,106.525,110.444,115.393,121.322,123.817,128.766,131.754,136.799,140.314,147.684,152.276,155.163,157.718,162.668,167.61700000000002,173.592,178.542,181.429,187.368,192.413,197.363,201.938,204.432,206.926,209.813,214.296,220.249,224.733,228.299,231.814,235.732,239.297,242.812,250.182,254.264,259.213,262.1,268.04,270.534,273.986,279.889,284.838,288.392,292.417,295.932,299.85,304.889,307.777,311.806,316.755,322.691,325.186" y="280.86300000000006" svg_rhmargin="330.135" style="fill:#171615;font-family:FAHBDF+AdvOTbc475f09;font-size:8.97px;font-style:NORMAL;font-weight:normal;">detailed information of quality assessment is presented in</text>
  <text svg_rhmargin="117.86" x="85.039,90.998,95.482,100.508,103.006,106.924,110.489,115.439,117.86" y="257.845" style="fill:#171615;font-family:FAHBDF+AdvOTbc475f09;font-size:8.97px;font-style:NORMAL;font-weight:normal;">Table 2. </text>
  <text x="345.091,350.04,352.461,357.41,359.831,364.309,370.559,375.508,379.991,385.12,387.263,390.15,394.633,397.643,402.871,405.668,408.641,416.576,421.526,424.413,429.362,432.814,437.764,442.893,447.842,449.985,454.468,458.951,461.094" y="257.845" svg_rhmargin="465.577" style="fill:#171615;font-family:FAHBLN+AdvOT01861455.I;font-size:8.97px;font-style:NORMAL;font-weight:normal;">3.3. Results of meta-analysis</text>
  <text x="345.091,350.04,352.461,357.41,359.831,364.781,367.202,371.679,377.283" y="266.802" svg_rhmargin="380.08" style="fill:#171615;font-family:FAHBLN+AdvOT01861455.I;font-size:8.97px;font-style:NORMAL;font-weight:normal;">3.3.1. Ef</text>
  <text x="380.07" y="266.802" svg_rhmargin="385.019" style="fill:#171615;font-family:FAHHBD+AdvOT01861455.I+fb;font-size:8.97px;font-style:NORMAL;font-weight:normal;">ﬁ</text>
  <text x="385.059,390.008,394.958,399.907,404.39,407.338,412.566,415.363,418.393,423.342,428.57,433.699,436.586,439.849,445.077,447.22,449.363,451.506,456.634,461.861,464.88,472.815,477.764,479.907,482.05,487.278,492.406,497.356,502.484,505.371,508.362,513.777,515.92,520.87,525.999,529.262,534.212,536.355,539.372,544.321,547.119,549.916,555.045,559.528,561.671,566.898,572.027" y="266.802" svg_rhmargin="574.448" style="fill:#171615;font-family:FAHBLN+AdvOT01861455.I;font-size:8.97px;font-style:NORMAL;font-weight:normal;">cacy of controlling malignant pleural effusion.</text>
  <text svg_rhmargin="393.978" x="345.091,350.04,352.461,357.411,359.831,364.781,367.202,372.151,374.572,379.049,385.487,391.557,393.978" y="278.764" style="fill:#171615;font-family:FAHHBE+AdvOT3a037357.I;font-size:8.97px;font-style:NORMAL;font-weight:normal;">3.3.1.1. CR. </text>
  <text x="399.289,404.239,409.188,412.64,415.527,420.011,422.898,426.35,428.771,433.72,439.086,443.005,445.426,447.846,452.796,455.217,459.135,463.618,466.039,471.4,474.852,477.739,482.689,487.638,490.059,493.977,497.429,502.751,506.203,510.121,515.07,520.02,523.472,526.359,530.277,535.226,540.563,545.513,550.462,553.349,557.268,562.217,569.587,573.506,576.958,582.288,587.237" y="278.764" svg_rhmargin="590.124" style="fill:#171615;font-family:FAHBDF+AdvOTbc475f09;font-size:8.97px;font-style:NORMAL;font-weight:normal;">Forty-six clinical studies reported outcomes of</text>
  <text x="345.091,349.009,353.958,361.329,366.278,368.699,372.617,375.505,379.423,383.811,387.263,391.181,394.633,399.583,402.004,406.953,409.84,412.261,417.21,422.159,426.556,431.505,434.392,438.801,441.688,446.638,450.556,454.959,459.908,462.329,466.247,471.197,474.649,479.132,481.553,485.968,489.887,492.774,495.661,500.61,504.062,506.483,511.433,516.382,518.803,523.214,529.652,533.104,537.5,540.388,545.337,549.255,552.707,556.625,561.027,567.931,572.414,575.866,580.246,585.195" y="289.706" svg_rhmargin="590.144" style="fill:#171615;font-family:FAHBDF+AdvOTbc475f09;font-size:8.97px;font-style:NORMAL;font-weight:normal;">complete resolution of the pleural effusion. As there was no</text>
  <path d=" M 85.03900146484375 583.3699951171875 L 590.115966796875 583.3699951171875 L 590.115966796875 583.8802490234375 L 85.03900146484375 583.8802490234375 Z " style="fill:none;stroke:#000000;stroke-width:1.0;"/>
  <path d=" M 159.81700134277344 728.7310180664062 L 191.16799926757812 728.7310180664062 L 191.16799926757812 729.2412109375 L 159.81700134277344 729.2412109375 Z " style="fill:none;stroke:#000000;stroke-width:1.0;"/>
  <path d=" M 201.3159942626953 728.7310180664062 L 225.4099884033203 728.7310180664062 L 225.4099884033203 729.2412109375 L 201.3159942626953 729.2412109375 Z " style="fill:none;stroke:#000000;stroke-width:1.0;"/>
  <path d=" M 235.5019989013672 728.7310180664062 L 316.5159912109375 728.7310180664062 L 316.5159912109375 729.2412109375 L 235.5019989013672 729.2412109375 Z " style="fill:none;stroke:#000000;stroke-width:1.0;"/>
  <path d=" M 326.66400146484375 728.7310180664062 L 462.27301025390625 728.7310180664062 L 462.27301025390625 729.2412109375 L 326.66400146484375 729.2412109375 Z " style="fill:none;stroke:#000000;stroke-width:1.0;"/>
  <path d=" M 159.81700134277344 717.8460083007812 L 85.03900146484375 717.8460083007812 L 85.03900146484375 718.3560180664062 L 159.81700134277344 718.3560180664062" style="fill:none;stroke:#000000;stroke-width:1.0;"/>
  <path d=" M 149.66900634765625 717.8460083007812 L 176.37100219726562 717.8460083007812 L 176.37100219726562 718.356201171875 L 149.66900634765625 718.356201171875 Z " style="fill:none;stroke:#000000;stroke-width:1.0;"/>
  <path d=" M 166.27999877929688 717.8460083007812 L 201.3159942626953 717.8460083007812 L 201.3159942626953 718.356201171875 L 166.27999877929688 718.356201171875 Z " style="fill:none;stroke:#000000;stroke-width:1.0;"/>
  <path d=" M 191.16799926757812 717.8460083007812 L 218.43699645996094 717.8460083007812 L 218.43699645996094 718.356201171875 L 191.16799926757812 718.356201171875 Z " style="fill:none;stroke:#000000;stroke-width:1.0;"/>
  <path d=" M 208.2899932861328 717.8460083007812 L 235.50299072265625 717.8460083007812 L 235.50299072265625 718.356201171875 L 208.2899932861328 718.356201171875 Z " style="fill:none;stroke:#000000;stroke-width:1.0;"/>
  <path d=" M 225.41099548339844 717.8460083007812 L 281.0830078125 717.8460083007812 L 281.0830078125 718.356201171875 L 225.41099548339844 718.356201171875 Z " style="fill:none;stroke:#000000;stroke-width:1.0;"/>
  <path d=" M 270.93499755859375 717.8460083007812 L 326.66400146484375 717.8460083007812 L 326.66400146484375 718.356201171875 L 270.93499755859375 718.356201171875 Z " style="fill:none;stroke:#000000;stroke-width:1.0;"/>
  <path d=" M 316.5159912109375 717.8460083007812 L 402.51898193359375 717.8460083007812 L 402.51898193359375 718.356201171875 L 316.5159912109375 718.356201171875 Z " style="fill:none;stroke:#000000;stroke-width:1.0;"/>
  <path d=" M 392.4280090332031 717.8460083007812 L 472.4219970703125 717.8460083007812 L 472.4219970703125 718.356201171875 L 392.4280090332031 718.356201171875 Z " style="fill:none;stroke:#000000;stroke-width:1.0;"/>
  <path d=" M 462.27398681640625 717.8460083007812 L 554.2869873046875 717.8460083007812 L 554.2869873046875 718.356201171875 L 462.27398681640625 718.356201171875 Z " style="fill:none;stroke:#000000;stroke-width:1.0;"/>
  <path d=" M 544.1380004882812 717.8460083007812 L 590.1160278320312 717.8460083007812 L 590.1160278320312 718.356201171875 L 544.1380004882812 718.356201171875 Z " style="fill:none;stroke:#000000;stroke-width:1.0;"/>
  <path d=" M 85.03900146484375 754.7529907226562 L 124.04400634765625 754.7529907226562 L 124.04400634765625 766.7149658203125 L 85.03900146484375 766.7149658203125 Z " style="fill:none;stroke:#000000;stroke-width:1.0;"/>
  <path d=" M 85.03900146484375 766.7150268554688 L 590.115966796875 766.7150268554688 L 590.115966796875 767.2252197265625 L 85.03900146484375 767.2252197265625 Z " style="fill:none;stroke:#000000;stroke-width:1.0;"/>
  <path d=" M 85.03900146484375 741.7130126953125 L 590.115966796875 741.7130126953125 L 590.115966796875 742.2232666015625 L 85.03900146484375 742.2232666015625 Z " style="fill:none;stroke:#000000;stroke-width:1.0;"/>
  <text x="88.044,93.767,99.657,105.794,108.113,114.091,116.673" y="42.24300000000005" svg_rhmargin="121.073" style="fill:#ffffff;font-family:FAHBBP+AdvOT91f5f621.B;font-size:7.97px;font-style:NORMAL;font-weight:normal;">Table 1</text>
  <text x="85.039,87.359,91.918,96.732,101.378,104.112,106.105,110.751,115.398,119.957,124.666,126.986" y="54.149" svg_rhmargin="129.138" style="fill:#171615;font-family:FAHBBM+AdvOT34fe1490.B;font-size:7.97px;font-style:NORMAL;font-weight:normal;">(continued).</text>
  <text svg_rhmargin="104.922" x="85.039,88.494,90.466,93.853,97.24,98.859,101.962,104.922" y="68.26499999999999" style="fill:#171615;font-family:FAHGNP+AdvOT9d0303c0.B;font-size:6.77px;font-style:NORMAL;font-weight:normal;">Studies </text>
  <text svg_rhmargin="411.976" x="173.537,177.412,208.516,211.971,215.074,218.17600000000002,270.934,274.674,278.061,281.16299999999995,377.006,378.7,382.087,384.058,387.161,389.342,392.303,395.406,398.793,400.764,402.383,405.628,409.016,411.976" y="78.24300000000005" style="fill:#171615;font-family:FAHGNP+AdvOT9d0303c0.B;font-size:6.77px;font-style:NORMAL;font-weight:normal;">N Sex Age Interventions </text>
  <text x="497.479,501.076,504.321,507.709,510.811,513.914,516.095,519.0550000000001,558.933,562.673,566.06,568.031,571.134,574.379,579.46,582.563,161.404,164.649,181.984,185.58100000000002,202.28,207.286,220.365,223.467,251.603,254.848,297.014,300.611,357.901,361.146,430.639" y="78.24300000000005" svg_rhmargin="434.236" style="fill:#171615;font-family:FAHGNP+AdvOT9d0303c0.B;font-size:6.77px;font-style:NORMAL;font-weight:normal;">Cancers OutcomesT C M F T C T C</text>
  <text svg_rhmargin="250.096" x="85.039,88.637,91.597,94.415,97.376,98.575,101.393,104.354,107.314,109.586,112.831,115.792,116.991,118.61,120.868,123.686,125.305,127.558,130.376,131.57500000000002,133.793,137.038,140.283,143.528,146.773,159.815,163.06,166.305,176.369,179.614,182.859,201.314,204.558,207.803,218.435,221.68,224.925,243.606,246.851,250.096" y="92.07600000000002" style="fill:#171615;font-family:FAHGOA+AdvOTcb6dfb9e;font-size:6.77px;font-style:NORMAL;font-weight:normal;">Guoqiang Shi, et al 2007 25 25 30 20 58 </text>
  <text x="250.923" y="92.07600000000002" svg_rhmargin="255.509" style="fill:#171615;font-family:FAHBDB+AdvOTb0c9bf5d;font-size:6.77px;font-style:NORMAL;font-weight:normal;">±</text>
  <text svg_rhmargin="295.68" x="256.365,259.61,262.855,289.19,292.435,295.68" y="92.07600000000002" style="fill:#171615;font-family:FAHGOA+AdvOTcb6dfb9e;font-size:6.77px;font-style:NORMAL;font-weight:normal;">10 59 </text>
  <text x="296.503" y="92.07600000000002" svg_rhmargin="301.089" style="fill:#171615;font-family:FAHBDB+AdvOTb0c9bf5d;font-size:6.77px;font-style:NORMAL;font-weight:normal;">±</text>
  <text x="301.946,305.191,308.436,326.664,329.625,330.824,333.642,338.228,341.046,344.007,346.825,349.057,352.302,355.547,358.79200000000003,359.601,364.188,367.14799999999997,402.518,406.115,409.712,412.957,416.202,419.447,420.261,424.848,427.808,472.418,475.236,478.197,481.157,484.11699999999996,486.364,489.115,491.933,494.893,497.644,500.462,502.291,503.91,506.149,509.11,510.939,513.757,516.575,519.183,520.802,523.1,525.85,528.668,531.629,534.379,537.197" y="92.07600000000002" svg_rhmargin="539.026" style="fill:#171615;font-family:FAHGOA+AdvOTcb6dfb9e;font-size:6.77px;font-style:NORMAL;font-weight:normal;">12 Elemene 300 mg DDP50 mg Lung cancer, breast cancer</text>
  <text svg_rhmargin="524.234" x="480.415,483.233,486.193,489.15299999999996,491.413,494.231,495.851,498.811,501.629,503.458,505.699,508.45,511.268,514.228,516.979,519.797,521.626,524.2339999999999" y="92.07600000000002" style="fill:#171615;font-family:FAHGOA+AdvOTcb6dfb9e;font-size:6.77px;font-style:NORMAL;font-weight:normal;">and other cancers </text>
  <text x="554.285,557.246" y="92.07600000000002" svg_rhmargin="558.865" style="fill:#171615;font-family:FAHGOA+AdvOTcb6dfb9e;font-size:6.77px;font-style:NORMAL;font-weight:normal;">Ef</text>
  <text x="558.877" y="92.07600000000002" svg_rhmargin="561.695" style="fill:#171615;font-family:FAHGPC+AdvOTcb6dfb9e+fb;font-size:6.77px;font-style:NORMAL;font-weight:normal;">ﬁ</text>
  <text x="561.655,564.406,567.224,569.974,572.44,574.0590000000001,576.338,579.726,582.686,585.294" y="92.07600000000002" svg_rhmargin="586.913" style="fill:#171615;font-family:FAHGOA+AdvOTcb6dfb9e;font-size:6.77px;font-style:NORMAL;font-weight:normal;">cacy, AEs,</text>
  <text x="562.222,565.962,569.701" y="100.06899999999996" svg_rhmargin="572.519" style="fill:#171615;font-family:FAHGOA+AdvOTcb6dfb9e;font-size:6.77px;font-style:NORMAL;font-weight:normal;">QOL</text>
  <text x="85.039,89.626,90.825,93.785,96.74499999999999,98.985,101.804,103.003,104.622,106.865,109.684,111.303,113.611,116.43,117.629,119.847,123.092,126.337,129.582,132.827,159.815,163.06,166.305,176.369,179.614,182.859,201.313,204.558,207.803,218.435,221.68,224.925,235.499,238.744" y="108.00599999999997" svg_rhmargin="241.989" style="fill:#171615;font-family:FAHGOA+AdvOTcb6dfb9e;font-size:6.77px;font-style:NORMAL;font-weight:normal;">Ming Li, et al 2008 26 26 30 22 45</text>
  <text x="242.021" y="108.00599999999997" svg_rhmargin="245.408" style="fill:#171615;font-family:FAHGPB+AdvOTcb6dfb9e+20;font-size:6.77px;font-style:NORMAL;font-weight:normal;">–</text>
  <text x="245.366,248.611,251.856,281.083,284.328" y="108.00599999999997" svg_rhmargin="287.573" style="fill:#171615;font-family:FAHGOA+AdvOTcb6dfb9e;font-size:6.77px;font-style:NORMAL;font-weight:normal;">69 43</text>
  <text x="287.545" y="108.00599999999997" svg_rhmargin="290.932" style="fill:#171615;font-family:FAHGPB+AdvOTcb6dfb9e+20;font-size:6.77px;font-style:NORMAL;font-weight:normal;">–</text>
  <text x="290.947,294.192,297.437,326.663,329.624,330.823,333.641,338.228,341.046,344.006,346.82399999999996,349.056,352.301,355.546,358.791,359.6,364.187,367.147,402.517,406.114,409.711,412.956,416.201,419.446,420.261,424.847,427.80699999999996,472.418,475.236,478.196,481.157,484.11699999999996,486.364,489.114,491.932,494.893,497.643,500.461,502.29,503.90900000000005,506.149,509.109,510.938,513.756,516.574,519.183,520.802,523.099,525.849,528.668,531.628,534.378,537.197" y="108.00599999999997" svg_rhmargin="539.026" style="fill:#171615;font-family:FAHGOA+AdvOTcb6dfb9e;font-size:6.77px;font-style:NORMAL;font-weight:normal;">70 Elemene 300 mg DDP60 mg Lung cancer, breast cancer</text>
  <text svg_rhmargin="524.233" x="480.414,483.232,486.193,489.15299999999996,491.413,494.231,495.85,498.81,501.629,503.458,505.699,508.449,511.267,514.228,516.978,519.796,521.625,524.233" y="108.00599999999997" style="fill:#171615;font-family:FAHGOA+AdvOTcb6dfb9e;font-size:6.77px;font-style:NORMAL;font-weight:normal;">and other cancers </text>
  <text x="554.285,557.245" y="108.00599999999997" svg_rhmargin="558.864" style="fill:#171615;font-family:FAHGOA+AdvOTcb6dfb9e;font-size:6.77px;font-style:NORMAL;font-weight:normal;">Ef</text>
  <text x="558.876" y="108.00599999999997" svg_rhmargin="561.694" style="fill:#171615;font-family:FAHGPC+AdvOTcb6dfb9e+fb;font-size:6.77px;font-style:NORMAL;font-weight:normal;">ﬁ</text>
  <text x="561.655,564.405,567.223,569.974,572.44,574.0590000000001,576.338,579.725,582.685" y="108.00599999999997" svg_rhmargin="585.293" style="fill:#171615;font-family:FAHGOA+AdvOTcb6dfb9e;font-size:6.77px;font-style:NORMAL;font-weight:normal;">cacy, AEs</text>
  <text x="85.039,87.999,90.817,93.778,94.977,97.937,100.89699999999999,103.123,107.987,110.805,113.766,116.726,118.345,120.641,123.459,125.078,127.331,130.149,131.348,133.623,136.868,140.113,143.358,146.603,159.815,163.06,166.305,176.369,179.614,182.859,201.313,204.558,207.803,218.435,221.68,224.925,235.499,238.744" y="123.93700000000001" svg_rhmargin="241.989" style="fill:#171615;font-family:FAHGOA+AdvOTcb6dfb9e;font-size:6.77px;font-style:NORMAL;font-weight:normal;">Yanjun Wang, et al 2009 43 32 45 30 34</text>
  <text x="242.021" y="123.93700000000001" svg_rhmargin="245.408" style="fill:#171615;font-family:FAHGPB+AdvOTcb6dfb9e+20;font-size:6.77px;font-style:NORMAL;font-weight:normal;">–</text>
  <text x="245.365,248.61,251.85500000000002,281.082,284.327" y="123.93700000000001" svg_rhmargin="287.572" style="fill:#171615;font-family:FAHGOA+AdvOTcb6dfb9e;font-size:6.77px;font-style:NORMAL;font-weight:normal;">78 38</text>
  <text x="287.545" y="123.93700000000001" svg_rhmargin="290.932" style="fill:#171615;font-family:FAHGPB+AdvOTcb6dfb9e+20;font-size:6.77px;font-style:NORMAL;font-weight:normal;">–</text>
  <text x="290.946,294.191,297.436,326.663,329.623,330.822,333.641,338.227,341.045,344.006,346.82399999999996,349.055,352.3,355.545,358.79,359.6,364.186,367.14599999999996,402.516,405.477,407.943,410.903,413.721,415.55,418.369,420.977,425.563,428.381,430.0,431.199,433.949,436.19,439.151,440.35,443.31,446.061,448.879,451.487" y="123.93700000000001" svg_rhmargin="454.305" style="fill:#171615;font-family:FAHGOA+AdvOTcb6dfb9e;font-size:6.77px;font-style:NORMAL;font-weight:normal;">78 Elemene 400 mg hyperosmotic glucose</text>
  <text svg_rhmargin="423.61" x="410.511,413.756,417.001,417.824,422.411,423.61" y="123.93700000000001" style="fill:#171615;font-family:FAHGOA+AdvOTcb6dfb9e;font-size:6.77px;font-style:NORMAL;font-weight:normal;">40 ml </text>
  <text x="472.42,475.238,478.199,481.159,484.11899999999997,486.366,489.117,491.935,494.895,497.646,500.464,502.293,554.283,557.244" y="123.93700000000001" svg_rhmargin="558.863" style="fill:#171615;font-family:FAHGOA+AdvOTcb6dfb9e;font-size:6.77px;font-style:NORMAL;font-weight:normal;">Lung cancer Ef</text>
  <text x="558.876" y="123.93700000000001" svg_rhmargin="561.694" style="fill:#171615;font-family:FAHGPC+AdvOTcb6dfb9e+fb;font-size:6.77px;font-style:NORMAL;font-weight:normal;">ﬁ</text>
  <text x="561.655,564.405,567.223,569.974,572.44,574.0590000000001,576.338,579.725,582.685" y="123.93700000000001" svg_rhmargin="585.293" style="fill:#171615;font-family:FAHGOA+AdvOTcb6dfb9e;font-size:6.77px;font-style:NORMAL;font-weight:normal;">cacy, AEs</text>
  <text x="85.039,88.426,89.625,92.585,95.40299999999999,97.681,100.641,103.459,105.078,107.318,110.136,111.755,114.008,116.826,118.02499999999999,120.301,123.546,126.791,130.036,133.281,159.815,163.06,166.305,176.369,179.614,182.859,201.313,204.558,207.803,218.435,221.68,224.925,235.499,238.744" y="139.92399999999998" svg_rhmargin="241.989" style="fill:#171615;font-family:FAHGOA+AdvOTcb6dfb9e;font-size:6.77px;font-style:NORMAL;font-weight:normal;">Aihe Ye, et al 2001 46 50 64 32 40</text>
  <text x="242.021" y="139.92399999999998" svg_rhmargin="245.408" style="fill:#171615;font-family:FAHGPB+AdvOTcb6dfb9e+20;font-size:6.77px;font-style:NORMAL;font-weight:normal;">–</text>
  <text x="245.365,248.61,251.85500000000002,281.082,284.327" y="139.92399999999998" svg_rhmargin="287.572" style="fill:#171615;font-family:FAHGOA+AdvOTcb6dfb9e;font-size:6.77px;font-style:NORMAL;font-weight:normal;">70 42</text>
  <text x="287.545" y="139.92399999999998" svg_rhmargin="290.932" style="fill:#171615;font-family:FAHGPB+AdvOTcb6dfb9e+20;font-size:6.77px;font-style:NORMAL;font-weight:normal;">–</text>
  <text x="290.946,294.191,297.436,326.663,329.623,330.822,333.641,338.227,341.045,344.006,346.82399999999996,349.055,352.3,355.545" y="139.92399999999998" svg_rhmargin="358.79" style="fill:#171615;font-family:FAHGOA+AdvOTcb6dfb9e;font-size:6.77px;font-style:NORMAL;font-weight:normal;">68 Elemene 400</text>
  <text svg_rhmargin="363.394" x="358.808,363.394" y="139.92399999999998" style="fill:#171615;font-family:FAHBBO+AdvOTb0c9bf5d+22;font-size:6.77px;font-style:NORMAL;font-weight:normal;">∼ </text>
  <text svg_rhmargin="421.706" x="365.611,368.856,372.101,375.346,376.212,380.798,383.758,402.518,406.115,409.712,412.957,415.216,418.461,421.706" y="139.92399999999998" style="fill:#171615;font-family:FAHGOA+AdvOTcb6dfb9e;font-size:6.77px;font-style:NORMAL;font-weight:normal;">600 mg DDP 60 </text>
  <text svg_rhmargin="428.533" x="423.947,428.533" y="139.92399999999998" style="fill:#171615;font-family:FAHBBO+AdvOTb0c9bf5d+22;font-size:6.77px;font-style:NORMAL;font-weight:normal;">∼ </text>
  <text x="430.807,434.052,437.297,438.12,442.707,445.667,472.419,475.237,478.197,481.158,484.118,486.365,489.115,491.933,494.894,497.644,500.463,502.29200000000003,554.282,557.242" y="139.92399999999998" svg_rhmargin="558.861" style="fill:#171615;font-family:FAHGOA+AdvOTcb6dfb9e;font-size:6.77px;font-style:NORMAL;font-weight:normal;">80 mg Lung cancer Ef</text>
  <text x="558.876" y="139.92399999999998" svg_rhmargin="561.694" style="fill:#171615;font-family:FAHGPC+AdvOTcb6dfb9e+fb;font-size:6.77px;font-style:NORMAL;font-weight:normal;">ﬁ</text>
  <text x="561.655,564.405,567.223,569.974,572.44,574.0590000000001,576.338,579.725,582.685" y="139.92399999999998" svg_rhmargin="585.293" style="fill:#171615;font-family:FAHGOA+AdvOTcb6dfb9e;font-size:6.77px;font-style:NORMAL;font-weight:normal;">cacy, AEs</text>
  <text x="85.039,87.857,89.056,91.522,92.721,95.681,97.908,101.505,104.465,106.084,108.395,111.213,112.832,115.085,117.903,119.102,121.321,124.566,127.811,131.056,134.30100000000002,159.815,163.06,166.305,176.369,179.614,182.859,201.313,204.558,207.803,218.435,221.68,224.925,235.499,238.744" y="147.861" svg_rhmargin="241.989" style="fill:#171615;font-family:FAHGOA+AdvOTcb6dfb9e;font-size:6.77px;font-style:NORMAL;font-weight:normal;">Lixin Gu, et al 2003 20 20 25 15 32</text>
  <text x="242.021" y="147.861" svg_rhmargin="245.408" style="fill:#171615;font-family:FAHGPB+AdvOTcb6dfb9e+20;font-size:6.77px;font-style:NORMAL;font-weight:normal;">–</text>
  <text x="245.365,248.61,251.85500000000002,281.082,284.327" y="147.861" svg_rhmargin="287.572" style="fill:#171615;font-family:FAHGOA+AdvOTcb6dfb9e;font-size:6.77px;font-style:NORMAL;font-weight:normal;">71 34</text>
  <text x="287.545" y="147.861" svg_rhmargin="290.932" style="fill:#171615;font-family:FAHGPB+AdvOTcb6dfb9e+20;font-size:6.77px;font-style:NORMAL;font-weight:normal;">–</text>
  <text x="290.946,294.191,297.436,326.663,329.623,330.822,333.641,338.227,341.045,344.006,346.82399999999996,349.055,352.3,355.545,358.79,359.6,364.186,367.147,368.766,371.051,374.791,379.655,381.274,383.523" y="147.861" svg_rhmargin="386.768" style="fill:#171615;font-family:FAHGOA+AdvOTcb6dfb9e;font-size:6.77px;font-style:NORMAL;font-weight:normal;">70 Elemene 400 mg, QW, 2</text>
  <text svg_rhmargin="339.464" x="334.6,339.464" y="147.861" style="fill:#171615;font-family:FAHGOA+AdvOTcb6dfb9e;font-size:6.77px;font-style:NORMAL;font-weight:normal;">W </text>
  <text x="402.518,406.115,409.712,412.957,415.216,418.461,421.706,422.529,427.116,430.076,431.905" y="147.861" svg_rhmargin="436.491" style="fill:#171615;font-family:FAHGOA+AdvOTcb6dfb9e;font-size:6.77px;font-style:NORMAL;font-weight:normal;">DDP 40 mg/m</text>
  <text x="436.479" y="144.85699999999997" svg_rhmargin="438.913" style="fill:#171615;font-family:FAHGOA+AdvOTcb6dfb9e;font-size:4.52px;font-style:NORMAL;font-weight:normal;">2</text>
  <text x="438.916,440.535,442.828,446.568,451.432,453.05100000000004,455.3" y="147.86199999999997" svg_rhmargin="458.545" style="fill:#171615;font-family:FAHGOA+AdvOTcb6dfb9e;font-size:6.77px;font-style:NORMAL;font-weight:normal;">, QW, 2</text>
  <text svg_rhmargin="415.378" x="410.514,415.378" y="147.86199999999997" style="fill:#171615;font-family:FAHGOA+AdvOTcb6dfb9e;font-size:6.77px;font-style:NORMAL;font-weight:normal;">W </text>
  <text x="472.422,475.241,478.201,481.162,484.12199999999996,486.368,489.119,491.937,494.898,497.648,500.466,502.295,503.91400000000004,506.153,509.114,510.943,513.761,516.579,519.187,520.806,523.104,525.854,528.672,531.633,534.383,537.201" y="147.86199999999997" svg_rhmargin="539.03" style="fill:#171615;font-family:FAHGOA+AdvOTcb6dfb9e;font-size:6.77px;font-style:NORMAL;font-weight:normal;">Lung cancer, breast cancer</text>
  <text svg_rhmargin="524.236" x="480.416,483.235,486.195,489.155,491.415,494.233,495.852,498.813,501.631,503.46,505.701,508.451,511.269,514.23,516.98,519.799,521.628,524.236" y="147.86199999999997" style="fill:#171615;font-family:FAHGOA+AdvOTcb6dfb9e;font-size:6.77px;font-style:NORMAL;font-weight:normal;">and other cancers </text>
  <text x="554.287,557.247" y="147.86199999999997" svg_rhmargin="558.866" style="fill:#171615;font-family:FAHGOA+AdvOTcb6dfb9e;font-size:6.77px;font-style:NORMAL;font-weight:normal;">Ef</text>
  <text x="558.879" y="147.86199999999997" svg_rhmargin="561.697" style="fill:#171615;font-family:FAHGPC+AdvOTcb6dfb9e+fb;font-size:6.77px;font-style:NORMAL;font-weight:normal;">ﬁ</text>
  <text x="561.657,564.407,567.225,569.976,572.442,574.061,576.34,579.727,582.687" y="147.86199999999997" svg_rhmargin="585.295" style="fill:#171615;font-family:FAHGOA+AdvOTcb6dfb9e;font-size:6.77px;font-style:NORMAL;font-weight:normal;">cacy, AEs</text>
  <text x="85.041,88.286,91.246,94.207,97.167,98.786,101.605,104.565,107.52499999999999,109.758,112.576,113.775,116.735,118.354,120.642,123.46,125.079,127.332,130.15,131.34900000000002,133.625,136.87,140.115,143.36,146.60500000000002,159.816,163.061,166.306,176.371,179.616,182.86100000000002,201.315,204.56,207.805,218.436,221.681,224.92600000000002,235.5,238.745" y="163.79200000000003" svg_rhmargin="241.99" style="fill:#171615;font-family:FAHGOA+AdvOTcb6dfb9e;font-size:6.77px;font-style:NORMAL;font-weight:normal;">Shuntong Lin, et al 1996 11 10 11 10 37</text>
  <text x="242.023" y="163.79200000000003" svg_rhmargin="245.41" style="fill:#171615;font-family:FAHGPB+AdvOTcb6dfb9e+20;font-size:6.77px;font-style:NORMAL;font-weight:normal;">–</text>
  <text x="245.368,248.613,251.858,281.084,284.329" y="163.79200000000003" svg_rhmargin="287.574" style="fill:#171615;font-family:FAHGOA+AdvOTcb6dfb9e;font-size:6.77px;font-style:NORMAL;font-weight:normal;">70 37</text>
  <text x="287.547" y="163.79200000000003" svg_rhmargin="290.934" style="fill:#171615;font-family:FAHGPB+AdvOTcb6dfb9e+20;font-size:6.77px;font-style:NORMAL;font-weight:normal;">–</text>
  <text x="290.948,294.193,297.438,326.665,329.625,330.825,333.643,338.229,341.047,344.008,346.82599999999996,349.057,352.302,355.547" y="163.79200000000003" svg_rhmargin="358.792" style="fill:#171615;font-family:FAHGOA+AdvOTcb6dfb9e;font-size:6.77px;font-style:NORMAL;font-weight:normal;">70 Elemene 100</text>
  <text x="358.81" y="163.79200000000003" svg_rhmargin="362.197" style="fill:#171615;font-family:FAHGPB+AdvOTcb6dfb9e+20;font-size:6.77px;font-style:NORMAL;font-weight:normal;">–</text>
  <text x="362.155,365.4,368.645,371.89,372.756,377.342,380.30199999999996,402.519,406.116,409.714,412.959,415.218,418.463,421.708,422.531,427.117,430.077,472.42,475.239,478.199,481.159,484.11899999999997,486.366,489.117,491.935,494.895,497.646,500.464,502.293,554.283,557.244" y="163.79200000000003" svg_rhmargin="558.863" style="fill:#171615;font-family:FAHGOA+AdvOTcb6dfb9e;font-size:6.77px;font-style:NORMAL;font-weight:normal;">300 mg DDP 40 mg Lung cancer Ef</text>
  <text x="558.879" y="163.79200000000003" svg_rhmargin="561.697" style="fill:#171615;font-family:FAHGPC+AdvOTcb6dfb9e+fb;font-size:6.77px;font-style:NORMAL;font-weight:normal;">ﬁ</text>
  <text x="561.657,564.407,567.225,569.976,572.442,574.061,576.34,579.727,582.687" y="163.79200000000003" svg_rhmargin="585.295" style="fill:#171615;font-family:FAHGOA+AdvOTcb6dfb9e;font-size:6.77px;font-style:NORMAL;font-weight:normal;">cacy, AEs</text>
  <text x="85.041,88.001,90.82,93.78,94.979,97.94,100.758,103.71799999999999,105.96,108.71,109.909,112.728,115.688,118.648,120.267,122.513,125.332,126.951,129.203,132.021,133.22,135.496,138.741,141.986,145.231,148.476,159.816,163.061,166.306,176.371,179.616,182.86100000000002,201.315,204.56,207.805,218.436,221.681,235.5,238.745" y="171.78599999999994" svg_rhmargin="241.99" style="fill:#171615;font-family:FAHGOA+AdvOTcb6dfb9e;font-size:6.77px;font-style:NORMAL;font-weight:normal;">Youjuan Jiang, et al 1997 17 17 28 6 40</text>
  <text x="242.023" y="171.78599999999994" svg_rhmargin="245.41" style="fill:#171615;font-family:FAHGPB+AdvOTcb6dfb9e+20;font-size:6.77px;font-style:NORMAL;font-weight:normal;">–</text>
  <text x="245.368,248.613,251.858,281.084,284.329" y="171.78599999999994" svg_rhmargin="287.574" style="fill:#171615;font-family:FAHGOA+AdvOTcb6dfb9e;font-size:6.77px;font-style:NORMAL;font-weight:normal;">72 44</text>
  <text x="287.547" y="171.78599999999994" svg_rhmargin="290.934" style="fill:#171615;font-family:FAHGPB+AdvOTcb6dfb9e+20;font-size:6.77px;font-style:NORMAL;font-weight:normal;">–</text>
  <text x="290.948,294.193,297.438,326.665,329.625,330.825,333.643,338.229,341.047,344.008,346.82599999999996,349.057,352.302,355.547" y="171.78599999999994" svg_rhmargin="358.792" style="fill:#171615;font-family:FAHGOA+AdvOTcb6dfb9e;font-size:6.77px;font-style:NORMAL;font-weight:normal;">71 Elemene 200</text>
  <text x="358.81" y="171.78599999999994" svg_rhmargin="362.197" style="fill:#171615;font-family:FAHGPB+AdvOTcb6dfb9e+20;font-size:6.77px;font-style:NORMAL;font-weight:normal;">–</text>
  <text x="362.155,365.4,368.645,371.89,372.756,377.342,380.30199999999996,402.519,406.116,409.714,412.959,415.218,418.463,421.708,422.531,427.117,430.077,472.42,475.239,478.199,481.159,484.11899999999997,486.366,489.117,491.935,494.895,497.646,500.464,502.293,503.91200000000003,506.151,509.112,510.941,513.759,516.577,519.185,520.804,523.102,525.852,528.67,531.631,534.381,537.199" y="171.78599999999994" svg_rhmargin="539.028" style="fill:#171615;font-family:FAHGOA+AdvOTcb6dfb9e;font-size:6.77px;font-style:NORMAL;font-weight:normal;">300 mg DDP 40 mg Lung cancer, breast cancer</text>
  <text svg_rhmargin="524.235" x="480.416,483.234,486.194,489.154,491.414,494.232,495.851,498.812,501.63,503.459,505.7,508.451,511.269,514.229,516.98,519.798,521.627,524.2349999999999" y="171.78599999999994" style="fill:#171615;font-family:FAHGOA+AdvOTcb6dfb9e;font-size:6.77px;font-style:NORMAL;font-weight:normal;">and other cancers </text>
  <text x="554.286,557.247" y="171.78599999999994" svg_rhmargin="558.866" style="fill:#171615;font-family:FAHGOA+AdvOTcb6dfb9e;font-size:6.77px;font-style:NORMAL;font-weight:normal;">Ef</text>
  <text x="558.878" y="171.78599999999994" svg_rhmargin="561.696" style="fill:#171615;font-family:FAHGPC+AdvOTcb6dfb9e+fb;font-size:6.77px;font-style:NORMAL;font-weight:normal;">ﬁ</text>
  <text x="561.656,564.406,567.225,569.975,572.441,574.0600000000001,576.339,579.726,582.687" y="171.78599999999994" svg_rhmargin="585.295" style="fill:#171615;font-family:FAHGOA+AdvOTcb6dfb9e;font-size:6.77px;font-style:NORMAL;font-weight:normal;">cacy, AEs</text>
  <text x="85.04,88.495,91.313,92.512,95.473,96.672,99.63199999999999,101.877,104.696,105.895,107.514,109.758,112.576,114.195,116.447,119.266,120.465,122.74,125.985,129.23,132.475,135.72,159.816,163.061,166.306,176.371,179.616,182.86100000000002,201.315,204.56,207.805,218.436,221.681,224.92600000000002,235.5,238.745" y="187.71699999999998" svg_rhmargin="241.99" style="fill:#171615;font-family:FAHGOA+AdvOTcb6dfb9e;font-size:6.77px;font-style:NORMAL;font-weight:normal;">Haibin Li, et al 2007 30 29 36 23 48</text>
  <text x="242.022" y="187.71699999999998" svg_rhmargin="245.409" style="fill:#171615;font-family:FAHGPB+AdvOTcb6dfb9e+20;font-size:6.77px;font-style:NORMAL;font-weight:normal;">–</text>
  <text x="245.367,248.612,251.857,281.083,284.328" y="187.71699999999998" svg_rhmargin="287.573" style="fill:#171615;font-family:FAHGOA+AdvOTcb6dfb9e;font-size:6.77px;font-style:NORMAL;font-weight:normal;">69 48</text>
  <text x="287.546" y="187.71699999999998" svg_rhmargin="290.933" style="fill:#171615;font-family:FAHGPB+AdvOTcb6dfb9e+20;font-size:6.77px;font-style:NORMAL;font-weight:normal;">–</text>
  <text x="290.948,294.193,297.438,326.664,329.625,330.824,333.642,338.228,341.047,344.007,346.825,349.057,352.302,355.547,358.79200000000003,359.601,364.188,367.14799999999997,402.518,406.115,409.712,412.957,415.216,418.461,421.706,424.951,425.761,430.347,433.308,435.137" y="187.71699999999998" svg_rhmargin="439.723" style="fill:#171615;font-family:FAHGOA+AdvOTcb6dfb9e;font-size:6.77px;font-style:NORMAL;font-weight:normal;">69 Elemene 200 mg DDP 100 mg/m</text>
  <text svg_rhmargin="442.144" x="439.71,442.144" y="187.71699999999998" style="fill:#171615;font-family:FAHGOA+AdvOTcb6dfb9e;font-size:4.52px;font-style:NORMAL;font-weight:normal;">2 </text>
  <text x="472.422,475.24,478.201,481.161,484.121,486.368,489.118,491.937,494.897,497.647,500.466,502.295,503.91400000000004,506.153,509.113,510.942,513.761,516.579,519.187,520.806,523.103,525.854,528.672,531.632,534.383,537.201" y="187.71699999999998" svg_rhmargin="539.03" style="fill:#171615;font-family:FAHGOA+AdvOTcb6dfb9e;font-size:6.77px;font-style:NORMAL;font-weight:normal;">Lung cancer, breast cancer</text>
  <text svg_rhmargin="524.235" x="480.416,483.234,486.194,489.154,491.414,494.232,495.852,498.812,501.63,503.459,505.7,508.451,511.269,514.229,516.98,519.798,521.627,524.2349999999999" y="187.71699999999998" style="fill:#171615;font-family:FAHGOA+AdvOTcb6dfb9e;font-size:6.77px;font-style:NORMAL;font-weight:normal;">and other cancers </text>
  <text x="554.286,557.247" y="187.71699999999998" svg_rhmargin="558.866" style="fill:#171615;font-family:FAHGOA+AdvOTcb6dfb9e;font-size:6.77px;font-style:NORMAL;font-weight:normal;">Ef</text>
  <text x="558.878" y="187.71699999999998" svg_rhmargin="561.696" style="fill:#171615;font-family:FAHGPC+AdvOTcb6dfb9e+fb;font-size:6.77px;font-style:NORMAL;font-weight:normal;">ﬁ</text>
  <text x="561.656,564.407,567.225,569.975" y="187.71699999999998" svg_rhmargin="572.441" style="fill:#171615;font-family:FAHGOA+AdvOTcb6dfb9e;font-size:6.77px;font-style:NORMAL;font-weight:normal;">cacy</text>
  <text svg_rhmargin="250.098" x="85.04,88.143,89.342,92.16,95.121,96.32,97.51899999999999,99.78,103.167,105.985,107.184,108.803,111.061,113.879,115.498,117.751,120.569,121.768,124.044,127.289,130.534,133.779,137.024,159.817,163.062,166.30700000000002,176.371,179.616,182.86100000000002,201.315,204.56,207.805,218.436,221.681,224.92600000000002,243.608,246.853,250.098" y="203.64800000000002" style="fill:#171615;font-family:FAHGOA+AdvOTcb6dfb9e;font-size:6.77px;font-style:NORMAL;font-weight:normal;">Xianli Bai, et al 2005 24 23 30 17 56 </text>
  <text x="250.923" y="203.64800000000002" svg_rhmargin="255.509" style="fill:#171615;font-family:FAHBDB+AdvOTb0c9bf5d;font-size:6.77px;font-style:NORMAL;font-weight:normal;">±</text>
  <text svg_rhmargin="295.681" x="256.366,259.611,262.856,289.191,292.436,295.681" y="203.64800000000002" style="fill:#171615;font-family:FAHGOA+AdvOTcb6dfb9e;font-size:6.77px;font-style:NORMAL;font-weight:normal;">12 60 </text>
  <text x="296.504" y="203.64800000000002" svg_rhmargin="301.09" style="fill:#171615;font-family:FAHBDB+AdvOTb0c9bf5d;font-size:6.77px;font-style:NORMAL;font-weight:normal;">±</text>
  <text x="301.947,305.192,308.437,326.665,329.626,330.825,333.643,338.229,341.047,344.008,346.82599999999996,349.058,352.303,355.548,358.793,359.602,364.188,367.149,368.978" y="203.64800000000002" svg_rhmargin="373.564" style="fill:#171615;font-family:FAHGOA+AdvOTcb6dfb9e;font-size:6.77px;font-style:NORMAL;font-weight:normal;">13 Elemene 200 mg/m</text>
  <text x="373.606" y="200.64300000000003" svg_rhmargin="376.04" style="fill:#171615;font-family:FAHGOA+AdvOTcb6dfb9e;font-size:4.52px;font-style:NORMAL;font-weight:normal;">2</text>
  <text x="376.044,377.663,379.899,383.639,388.503" y="203.64700000000005" svg_rhmargin="390.122" style="fill:#171615;font-family:FAHGOA+AdvOTcb6dfb9e;font-size:6.77px;font-style:NORMAL;font-weight:normal;">, QW,</text>
  <text svg_rhmargin="343.547" x="334.602,337.847,338.683,343.54699999999997" y="203.64700000000005" style="fill:#171615;font-family:FAHGOA+AdvOTcb6dfb9e;font-size:6.77px;font-style:NORMAL;font-weight:normal;">2 W </text>
  <text x="402.519,406.117,409.714,412.959,415.218,418.463,421.708,422.531,427.118,430.078,431.907" y="203.64700000000005" svg_rhmargin="436.493" style="fill:#171615;font-family:FAHGOA+AdvOTcb6dfb9e;font-size:6.77px;font-style:NORMAL;font-weight:normal;">DDP 40 mg/m</text>
  <text x="436.479" y="200.64300000000003" svg_rhmargin="438.913" style="fill:#171615;font-family:FAHGOA+AdvOTcb6dfb9e;font-size:4.52px;font-style:NORMAL;font-weight:normal;">2</text>
  <text x="438.916,440.535,442.828,446.568,451.432,453.05100000000004,455.3" y="203.64700000000005" svg_rhmargin="458.545" style="fill:#171615;font-family:FAHGOA+AdvOTcb6dfb9e;font-size:6.77px;font-style:NORMAL;font-weight:normal;">, QW, 2</text>
  <text svg_rhmargin="415.378" x="410.514,415.378" y="203.64700000000005" style="fill:#171615;font-family:FAHGOA+AdvOTcb6dfb9e;font-size:6.77px;font-style:NORMAL;font-weight:normal;">W </text>
  <text x="472.422,475.241,478.201,481.162,484.12199999999996,486.368,489.119,491.937,494.898,497.648,500.466,502.295,503.91400000000004,506.153,509.114,510.943,513.761,516.579,519.187,520.806,523.104,525.854,528.672,531.633,534.383,537.201" y="203.64700000000005" svg_rhmargin="539.03" style="fill:#171615;font-family:FAHGOA+AdvOTcb6dfb9e;font-size:6.77px;font-style:NORMAL;font-weight:normal;">Lung cancer, breast cancer</text>
  <text svg_rhmargin="524.236" x="480.416,483.235,486.195,489.155,491.415,494.233,495.852,498.813,501.631,503.46,505.701,508.451,511.269,514.23,516.98,519.799,521.628,524.236" y="203.64700000000005" style="fill:#171615;font-family:FAHGOA+AdvOTcb6dfb9e;font-size:6.77px;font-style:NORMAL;font-weight:normal;">and other cancers </text>
  <text x="554.287,557.247" y="203.64700000000005" svg_rhmargin="558.866" style="fill:#171615;font-family:FAHGOA+AdvOTcb6dfb9e;font-size:6.77px;font-style:NORMAL;font-weight:normal;">Ef</text>
  <text x="558.879" y="203.64700000000005" svg_rhmargin="561.697" style="fill:#171615;font-family:FAHGPC+AdvOTcb6dfb9e+fb;font-size:6.77px;font-style:NORMAL;font-weight:normal;">ﬁ</text>
  <text x="561.657,564.407,567.225,569.976,572.442,574.061,576.34,579.727,582.687" y="203.64700000000005" svg_rhmargin="585.295" style="fill:#171615;font-family:FAHGOA+AdvOTcb6dfb9e;font-size:6.77px;font-style:NORMAL;font-weight:normal;">cacy, AEs</text>
  <text svg_rhmargin="94.259" x="85.039,88.526,91.574,94.259" y="226.83500000000004" style="fill:#171615;font-family:FAHGOA+AdvOTcb6dfb9e;font-size:6.97px;font-style:NORMAL;font-weight:normal;">AEs </text>
  <text x="95.13" y="226.83500000000004" svg_rhmargin="99.851" style="fill:#171615;font-family:FAHBDB+AdvOTb0c9bf5d;font-size:6.97px;font-style:NORMAL;font-weight:normal;">=</text>
  <text svg_rhmargin="144.208" x="100.743,103.644,106.692,109.23,112.131,114.014,116.786,119.687,121.434,124.335,126.874,129.775,132.822,134.489,137.174,138.841,140.651,144.208" y="226.83500000000004" style="fill:#171615;font-family:FAHGOA+AdvOTcb6dfb9e;font-size:6.97px;font-style:NORMAL;font-weight:normal;">adverse events; C </text>
  <text x="145.077" y="226.83500000000004" svg_rhmargin="149.798" style="fill:#171615;font-family:FAHBDB+AdvOTb0c9bf5d;font-size:6.97px;font-style:NORMAL;font-weight:normal;">=</text>
  <text svg_rhmargin="197.093" x="150.689,153.521,156.422,159.469,161.136,163.019,165.92,167.154,168.943,171.991,173.874,176.775,179.822,182.87,184.537,186.346,190.049,193.753,197.094" y="226.83500000000004" style="fill:#171615;font-family:FAHGOA+AdvOTcb6dfb9e;font-size:6.97px;font-style:NORMAL;font-weight:normal;">control group; DDP </text>
  <text x="197.971" y="226.83500000000004" svg_rhmargin="202.692" style="fill:#171615;font-family:FAHBDB+AdvOTb0c9bf5d;font-size:6.97px;font-style:NORMAL;font-weight:normal;">=</text>
  <text svg_rhmargin="229.84" x="203.584,206.415,207.649,210.334,213.382,214.616,217.517,219.184,220.418,223.466,225.133,226.939,229.84" y="226.83500000000004" style="fill:#171615;font-family:FAHGOA+AdvOTcb6dfb9e;font-size:6.97px;font-style:NORMAL;font-weight:normal;">cisplatin; F </text>
  <text x="230.74" y="226.83500000000004" svg_rhmargin="235.461" style="fill:#171615;font-family:FAHBDB+AdvOTb0c9bf5d;font-size:6.97px;font-style:NORMAL;font-weight:normal;">=</text>
  <text svg_rhmargin="266.157" x="236.352,238.019,240.92,245.641,248.542,249.777,252.678,254.345,256.136,259.477,262.817,266.158" y="226.83500000000004" style="fill:#171615;font-family:FAHGOA+AdvOTcb6dfb9e;font-size:6.97px;font-style:NORMAL;font-weight:normal;">female; KPS </text>
  <text x="267.023" y="226.83500000000004" svg_rhmargin="271.744" style="fill:#171615;font-family:FAHBDB+AdvOTb0c9bf5d;font-size:6.97px;font-style:NORMAL;font-weight:normal;">=</text>
  <text x="272.635,275.976,278.877,280.76,283.807,286.708,288.375,291.06,293.891,296.43,298.258,301.599,304.5,306.383,308.05,310.951,312.834,317.555,320.456,323.504,326.433,329.334,331.081,334.422,336.089,338.99,340.656,343.704,346.389,348.145,351.485,354.381,357.282,358.516,361.417,363.08399999999995,364.811" y="226.83500000000004" svg_rhmargin="369.532" style="fill:#171615;font-family:FAHGOA+AdvOTcb6dfb9e;font-size:6.97px;font-style:NORMAL;font-weight:normal;">Karnofsky Performance Status Scale; M</text>
  <text x="370.431" y="226.83500000000004" svg_rhmargin="375.152" style="fill:#171615;font-family:FAHBDB+AdvOTb0c9bf5d;font-size:6.97px;font-style:NORMAL;font-weight:normal;">=</text>
  <text svg_rhmargin="399.444" x="376.044,380.765,383.666,384.9,387.801,389.46799999999996,391.236,395.957,399.444" y="226.83500000000004" style="fill:#171615;font-family:FAHGOA+AdvOTcb6dfb9e;font-size:6.97px;font-style:NORMAL;font-weight:normal;">male; MU </text>
  <text x="400.365" y="226.83500000000004" svg_rhmargin="405.086" style="fill:#171615;font-family:FAHBDB+AdvOTb0c9bf5d;font-size:6.97px;font-style:NORMAL;font-weight:normal;">=</text>
  <text svg_rhmargin="445.65" x="405.977,410.698,411.933,413.167,414.402,415.636,418.537,421.585,423.324,426.371,429.419,430.653,432.394,435.079,436.746,438.46,442.163,445.65000000000003" y="226.83500000000004" style="fill:#171615;font-family:FAHGOA+AdvOTcb6dfb9e;font-size:6.97px;font-style:NORMAL;font-weight:normal;">million units; NA </text>
  <text x="446.57" y="226.83500000000004" svg_rhmargin="451.291" style="fill:#171615;font-family:FAHBDB+AdvOTb0c9bf5d;font-size:6.97px;font-style:NORMAL;font-weight:normal;">=</text>
  <text svg_rhmargin="496.512" x="452.182,455.23,458.131,459.79799999999994,461.536,464.437,466.976,469.877,471.111,472.42,475.321,478.369,479.603,482.504,484.171,485.912,489.762,493.611,496.512" y="226.83500000000004" style="fill:#171615;font-family:FAHGOA+AdvOTcb6dfb9e;font-size:6.97px;font-style:NORMAL;font-weight:normal;">not available; QOL </text>
  <text x="497.423" y="226.83500000000004" svg_rhmargin="502.144" style="fill:#171615;font-family:FAHBDB+AdvOTb0c9bf5d;font-size:6.97px;font-style:NORMAL;font-weight:normal;">=</text>
  <text x="503.036,506.083,509.131,512.032,513.266,514.501,516.167,518.706,520.496,523.397,525.0640000000001,526.846,528.08,529.315,530.981,533.882,535.549,537.333,541.183" y="226.83500000000004" svg_rhmargin="546.19" style="fill:#171615;font-family:FAHGOA+AdvOTcb6dfb9e;font-size:6.97px;font-style:NORMAL;font-weight:normal;">quality of life; QW</text>
  <text x="547.086" y="226.83500000000004" svg_rhmargin="551.807" style="fill:#171615;font-family:FAHBDB+AdvOTb0c9bf5d;font-size:6.97px;font-style:NORMAL;font-weight:normal;">=</text>
  <text x="552.643,555.544,558.591,561.423,564.324,566.135,569.182,572.083,573.966,575.715,579.781,582.682,585.583,588.415" y="226.83500000000004" svg_rhmargin="590.082" style="fill:#171615;font-family:FAHGOA+AdvOTcb6dfb9e;font-size:6.97px;font-style:NORMAL;font-weight:normal;">once per week;</text>
  <text svg_rhmargin="88.087" x="85.039,88.087" y="235.79200000000003" style="fill:#171615;font-family:FAHGOA+AdvOTcb6dfb9e;font-size:6.97px;font-style:NORMAL;font-weight:normal;">T </text>
  <text x="88.95" y="235.79200000000003" svg_rhmargin="93.671" style="fill:#171615;font-family:FAHBDB+AdvOTb0c9bf5d;font-size:6.97px;font-style:NORMAL;font-weight:normal;">=</text>
  <text x="94.563,96.23,98.113,101.014,103.915,105.581,110.303,113.204,116.251,117.918,120.299,123.347,125.229,128.131,131.178,134.226,135.893,138.269,141.317,142.551" y="235.79200000000003" svg_rhmargin="147.558" style="fill:#171615;font-family:FAHGOA+AdvOTcb6dfb9e;font-size:6.97px;font-style:NORMAL;font-weight:normal;">treatment group; TIW</text>
  <text x="148.478" y="235.79200000000003" svg_rhmargin="153.199" style="fill:#171615;font-family:FAHBDB+AdvOTb0c9bf5d;font-size:6.97px;font-style:NORMAL;font-weight:normal;">=</text>
  <text x="154.091,155.757,158.805,160.688,163.589,166.49,168.83,170.496,171.731,176.452,179.353,182.038,184.419,187.32000000000002,189.635,193.701,196.602,199.503,202.335,204.002,206.358" y="235.79200000000003" svg_rhmargin="211.365" style="fill:#171615;font-family:FAHGOA+AdvOTcb6dfb9e;font-size:6.97px;font-style:NORMAL;font-weight:normal;">three times a week; W</text>
  <text x="212.258" y="235.79200000000003" svg_rhmargin="216.979" style="fill:#171615;font-family:FAHBDB+AdvOTb0c9bf5d;font-size:6.97px;font-style:NORMAL;font-weight:normal;">=</text>
  <text x="217.87,221.936,224.837,227.738,230.569" y="235.79200000000003" svg_rhmargin="232.236" style="fill:#171615;font-family:FAHGOA+AdvOTcb6dfb9e;font-size:6.97px;font-style:NORMAL;font-weight:normal;">week.</text>
  <path d=" M 85.03900146484375 461.593994140625 L 590.1729736328125 461.593994140625 L 590.1729736328125 462.0475158691406 L 85.03900146484375 462.0475158691406 Z " style="fill:none;stroke:#000000;stroke-width:1.0;"/>
  <path d=" M 85.03900146484375 101.53700256347656 L 590.1729736328125 101.53700256347656 L 590.1729736328125 102.04724884033203 L 85.03900146484375 102.04724884033203 Z " style="fill:none;stroke:#000000;stroke-width:1.0;"/>
  <path d=" M 207.55299377441406 450.7090148925781 L 85.03999328613281 450.7090148925781 L 85.03999328613281 451.16302490234375 L 207.55299377441406 451.16302490234375" style="fill:none;stroke:#000000;stroke-width:1.0;"/>
  <path d=" M 148.87600708007812 450.7090148925781 L 288.0570068359375 450.7090148925781 L 288.0570068359375 451.1625671386719 L 148.87600708007812 451.1625671386719 Z " style="fill:none;stroke:#000000;stroke-width:1.0;"/>
  <path d=" M 229.37899780273438 450.7090148925781 L 373.2659912109375 450.7090148925781 L 373.2659912109375 451.1625671386719 L 229.37899780273438 451.1625671386719 Z " style="fill:none;stroke:#000000;stroke-width:1.0;"/>
  <path d=" M 314.5320129394531 450.7090148925781 L 453.8260192871094 450.7090148925781 L 453.8260192871094 451.1625671386719 L 314.5320129394531 451.1625671386719 Z " style="fill:none;stroke:#000000;stroke-width:1.0;"/>
  <path d=" M 395.0929870605469 450.7090148925781 L 562.677001953125 450.7090148925781 L 562.677001953125 451.1625671386719 L 395.0929870605469 451.1625671386719 Z " style="fill:none;stroke:#000000;stroke-width:1.0;"/>
  <path d=" M 503.9429931640625 450.7090148925781 L 590.115966796875 450.7090148925781 L 590.115966796875 451.1625671386719 L 503.9429931640625 451.1625671386719 Z " style="fill:none;stroke:#000000;stroke-width:1.0;"/>
  <path d=" M 85.03900146484375 474.69000244140625 L 126.14100646972656 474.69000244140625 L 126.14100646972656 486.6520080566406 L 85.03900146484375 486.6520080566406 Z " style="fill:none;stroke:#000000;stroke-width:1.0;"/>
  <path d=" M 85.03900146484375 486.5379943847656 L 590.1729736328125 486.5379943847656 L 590.1729736328125 487.0482482910156 L 85.03900146484375 487.0482482910156 Z " style="fill:none;stroke:#000000;stroke-width:1.0;"/>
  <text x="88.044,93.767,99.657,105.794,108.113,114.091,116.673" y="322.306" svg_rhmargin="123.145" style="fill:#ffffff;font-family:FAHBBP+AdvOT91f5f621.B;font-size:7.97px;font-style:NORMAL;font-weight:normal;">Table 2</text>
  <text x="85.039,92.26,96.819,99.553,104.2,109.014,113.828,118.544,120.536,125.35,130.164,132.157,136.716,141.275,143.268,145.869,150.683,155.329,159.888,161.881,163.873,166.607,170.672,173.307,177.866,181.931,186.49,188.482,193.129,197.688,200.422,202.332,207.146,211.79299999999998,214.464,219.278,221.844,224.442,226.435,231.081,235.64,237.633,242.279,247.093,251.652,256.466,259.08,263.312,266.046,270.692,275.506,277.499,282.058,286.29" y="334.325" svg_rhmargin="288.442" style="fill:#171615;font-family:FAHBBM+AdvOT34fe1490.B;font-size:7.97px;font-style:NORMAL;font-weight:normal;">Methodological quality evaluation of included studies.</text>
  <text x="85.039,88.443,90.385,93.722,97.058,98.653,101.71,104.627,207.55,211.234,214.431,217.768,221.105,224.301,229.307,288.053,291.737,293.331,294.926,298.123,301.179,304.376,306.318,308.006,311.203,314.541,373.259,376.943,378.538,380.133,383.469,386.806,388.401,391.738,395.076,453.817,457.221,460.277,461.872,464.928,467.985,469.927,471.521,474.438,477.495,479.78,481.928,484.985,488.322,491.518,493.667,495.609,497.203,500.54,503.87800000000004,562.662,566.346,568.288,571.624,574.681,576.83,579.045,582.382,583.977,587.173" y="345.55" svg_rhmargin="590.09" style="fill:#171615;font-family:FAHGNP+AdvOT9d0303c0.B;font-size:6.68px;font-style:NORMAL;font-weight:normal;">Studies Random Allocation Blinding Selective reporting Other bias</text>
  <text x="85.039,87.816,90.592,93.508,96.425,98.701,101.758,104.674,107.45,110.226,111.821,114.597,116.192,118.428,121.205,122.386,124.607,127.804,131.001,134.197,137.394,207.548,210.465,288.052,291.596,373.261,376.805,453.822,457.366,562.672,566.215" y="357.398" svg_rhmargin="569.553" style="fill:#171615;font-family:FAHGOA+AdvOTcb6dfb9e;font-size:6.68px;font-style:NORMAL;font-weight:normal;">Fang Zhao,et al 2015 Y N N N NR</text>
  <text x="85.039,87.749,88.93,91.846,94.762,97.679,100.456,102.725,105.922,108.838,111.755,113.35,115.594,118.37,119.965,122.17,124.946,126.127,128.406,131.602,134.799,137.995,141.192,207.548,210.465,288.051,291.59499999999997,373.261,376.805,453.821,457.365,562.671,566.215" y="364.882" svg_rhmargin="569.553" style="fill:#171615;font-family:FAHGOA+AdvOTcb6dfb9e;font-size:6.68px;font-style:NORMAL;font-weight:normal;">Jingbo Sun, et al 2014 Y N N N NR</text>
  <text x="85.039,87.749,88.93,91.706,94.622,97.538,100.314,103.231,106.148,108.395,111.171,112.351,113.946,116.217,118.993,120.588,122.85,125.626,126.807,129.029,132.226,135.422,138.619,141.816,207.548,210.465,288.052,291.596,373.261,376.805,453.821,457.365,562.671,566.215" y="372.308" svg_rhmargin="569.553" style="fill:#171615;font-family:FAHGOA+AdvOTcb6dfb9e;font-size:6.68px;font-style:NORMAL;font-weight:normal;">Jianpeng Li, et al 2014 Y N N N NR</text>
  <text x="85.039,87.749,88.93,91.846,94.762,97.539,99.778,104.57,107.346,110.262,113.179,114.774,117.068,119.844,121.439,123.644,126.42,127.601,129.823,133.02,136.217,139.413,142.61,207.548,210.465,288.052,291.596,373.261,376.805,453.822,457.366,562.672,566.215" y="379.792" svg_rhmargin="569.553" style="fill:#171615;font-family:FAHGOA+AdvOTcb6dfb9e;font-size:6.68px;font-style:NORMAL;font-weight:normal;">Jinna Wang, et al 2015 Y N N N NR</text>
  <text x="85.039,88.376,89.557,92.333,95.249,97.051,99.827,102.743,105.66,107.941,112.733,115.649,117.244,119.506,122.282,123.877,126.082,128.858,130.03900000000002,132.261,135.458,138.654,141.851,145.048,207.548,210.465,288.052,291.596,373.261,376.805,453.822,457.366,562.672,566.215" y="387.275" svg_rhmargin="569.553" style="fill:#171615;font-family:FAHGOA+AdvOTcb6dfb9e;font-size:6.68px;font-style:NORMAL;font-weight:normal;">Bianrong Wu, et al 2015 Y N N N NR</text>
  <text x="85.039,87.956,89.137,92.053,94.83,97.057,100.114,103.03,105.806,108.722,111.639,113.234,115.537,118.314,119.90899999999999,122.114,124.89,126.071,128.293,131.489,134.686,137.883,141.08,207.548,210.465,288.052,291.596,373.261,376.805,453.822,457.366,562.672,566.215" y="394.758" svg_rhmargin="569.553" style="fill:#171615;font-family:FAHGOA+AdvOTcb6dfb9e;font-size:6.68px;font-style:NORMAL;font-weight:normal;">Yihe Zhang, et al 2016 Y N N N NR</text>
  <text x="85.039,87.749,88.93,91.846,94.763,97.0,100.197,103.113,104.708,106.977,109.754,111.349,113.554,116.33,117.511,119.733,122.929,126.126,129.323,132.52,207.549,210.466,288.053,291.597,373.262,376.806,453.822,457.366,562.672,566.216" y="402.242" svg_rhmargin="569.554" style="fill:#171615;font-family:FAHGOA+AdvOTcb6dfb9e;font-size:6.68px;font-style:NORMAL;font-weight:normal;">Jing Su, et al 2014 Y N N N NR</text>
  <text x="85.039,88.236,91.013,93.26,96.803,99.58,102.496,105.412,107.007,109.246,112.022,113.617,115.879,118.655,119.836,122.058,125.254,128.451,131.648,134.845,207.55,210.467,288.053,291.597,373.263,376.80699999999996,453.823,457.36699999999996,562.673,566.217" y="409.668" svg_rhmargin="569.555" style="fill:#171615;font-family:FAHGOA+AdvOTcb6dfb9e;font-size:6.68px;font-style:NORMAL;font-weight:normal;">Ke Dong, et al 2015 Y N N N NR</text>
  <text x="85.039,88.096,91.012,93.928,96.705,99.621,102.537,106.428,109.204,110.38499999999999,112.647,115.423,116.603,118.198,120.469,123.245,124.84,127.045,129.821,131.002,133.281,136.478,139.674,142.871,146.068,207.548,210.465,288.051,291.59499999999997,373.261,376.805,453.821,457.365,562.671,566.215" y="417.152" svg_rhmargin="569.553" style="fill:#171615;font-family:FAHGOA+AdvOTcb6dfb9e;font-size:6.68px;font-style:NORMAL;font-weight:normal;">Zhuangwei Li, et al 2016 Y N N N NR</text>
  <text x="85.039,88.096,90.872,93.789,96.037,98.813,99.994,102.91,104.505,106.751,109.527,111.122,113.384,116.16,117.341,119.563,122.76,125.956,129.153,132.35,207.55,210.467,288.054,291.59799999999996,373.263,376.80699999999996,453.823,457.36699999999996,562.673,566.217" y="424.635" svg_rhmargin="569.555" style="fill:#171615;font-family:FAHGOA+AdvOTcb6dfb9e;font-size:6.68px;font-style:NORMAL;font-weight:normal;">Zan Liu, et al 2016 Y N N N NR</text>
  <text x="85.039,88.443,91.219,94.135,97.052,99.325,104.117,106.893,109.81,112.726,114.321,116.559,119.335,120.92999999999999,123.192,125.968,127.149,129.371,132.567,135.764,138.961,142.15800000000002,207.549,210.466,288.053,291.597,373.262,376.806,453.822,457.366,562.672,566.216" y="432.118" svg_rhmargin="569.554" style="fill:#171615;font-family:FAHGOA+AdvOTcb6dfb9e;font-size:6.68px;font-style:NORMAL;font-weight:normal;">Hong Wang, et al 2007 Y N N N NR</text>
  <text x="85.039,88.096,91.012,92.193,95.109,97.885,100.802,103.71900000000001,106.014,108.79,111.566,114.482,117.398,118.993,121.206,123.982,125.577,127.839,130.615,131.79600000000002,134.018,137.215,140.411,143.608,146.805,207.548,210.465,288.051,291.59499999999997,373.261,376.805,453.821,457.365,562.671,566.215" y="439.602" svg_rhmargin="569.553" style="fill:#171615;font-family:FAHGOA+AdvOTcb6dfb9e;font-size:6.68px;font-style:NORMAL;font-weight:normal;">Zhihong Feng, et al 2015 Y N N N NR</text>
  <text x="85.039,87.816,88.996,91.772,94.689,97.605,98.786,101.702,104.619,106.863,109.573,110.753,113.53,116.446,119.362,120.957,123.246,126.022,127.617,129.879,132.655,133.836,136.058,139.254,142.451,145.648,148.845,207.546,211.09,288.05,291.594,373.259,376.803,453.82,457.364,562.67,566.213" y="447.028" svg_rhmargin="569.551" style="fill:#171615;font-family:FAHGOA+AdvOTcb6dfb9e;font-size:6.68px;font-style:NORMAL;font-weight:normal;">Lianping Jiang, et al 2009 N N N N NR</text>
  <text x="85.039,87.816,90.592,93.508,96.424,98.019,100.795,103.711,106.628,108.905,112.101,113.282,114.877,117.124,119.9,121.495,123.7,126.476,127.657,129.936,133.133,136.329,139.526,142.723,207.548,210.465,288.051,291.59499999999997,373.261,376.805,453.821,457.365,562.671,566.215" y="454.512" svg_rhmargin="569.553" style="fill:#171615;font-family:FAHGOA+AdvOTcb6dfb9e;font-size:6.68px;font-style:NORMAL;font-weight:normal;">Fangfang Si, et al 2015 Y N N N NR</text>
  <text x="85.039,88.236,89.417,93.935,95.116,98.032,100.949,103.179,106.583,109.499,112.275,115.192,116.78699999999999,119.052,121.828,123.423,125.685,128.461,129.64200000000002,131.864,135.061,138.257,141.454,144.651,207.548,210.465,288.052,291.596,373.261,376.805,453.821,457.365,562.671,566.215" y="461.995" svg_rhmargin="569.553" style="fill:#171615;font-family:FAHGOA+AdvOTcb6dfb9e;font-size:6.68px;font-style:NORMAL;font-weight:normal;">Siming Chen, et al 2012 Y N N N NR</text>
  <text x="85.039,88.096,91.012,92.193,93.374,94.555,97.33200000000001,99.608,102.384,103.565,105.16,107.374,110.15,111.745,114.007,116.783,117.964,120.186,123.383,126.579,129.776,132.973,207.548,210.465,288.052,291.596,373.261,376.805,453.822,457.366,562.672,566.215" y="469.478" svg_rhmargin="569.553" style="fill:#171615;font-family:FAHGOA+AdvOTcb6dfb9e;font-size:6.68px;font-style:NORMAL;font-weight:normal;">Zhijie Li, et al 2006 Y N N N NR</text>
  <text x="85.039,87.956,90.732,93.649,95.867,99.411,102.187,104.963,106.55799999999999,108.848,111.625,113.22,115.425,118.201,119.38199999999999,121.66,124.857,128.054,131.25,134.447,207.549,210.466,288.053,291.597,373.262,376.806,453.822,457.366,562.672,566.216" y="476.962" svg_rhmargin="569.554" style="fill:#171615;font-family:FAHGOA+AdvOTcb6dfb9e;font-size:6.68px;font-style:NORMAL;font-weight:normal;">Yan Gao, et al 2010 Y N N N NR</text>
  <text x="85.039,87.816,88.996,91.913,94.689,97.606,99.835,104.627,107.403,110.319,113.235,114.83,117.125,119.901,121.496,123.701,126.477,127.658,129.937,133.133,136.33,139.527,142.724,207.548,210.465,288.052,291.596,373.261,376.805,453.822,457.366,562.672,566.215" y="484.388" svg_rhmargin="569.553" style="fill:#171615;font-family:FAHGOA+AdvOTcb6dfb9e;font-size:6.68px;font-style:NORMAL;font-weight:normal;">Lidan Wang, et al 2012 Y N N N NR</text>
  <text x="85.039,87.956,89.137,93.655,94.836,97.752,100.669,102.896,106.092,108.868,111.853,114.769,116.364,118.599,121.375,122.97,125.175,127.952,129.132,130.727,132.998,136.195,139.391,142.588,145.785,207.548,210.465,288.052,291.596,373.261,376.805,453.822,457.366,562.672,566.215" y="491.872" svg_rhmargin="569.553" style="fill:#171615;font-family:FAHGOA+AdvOTcb6dfb9e;font-size:6.68px;font-style:NORMAL;font-weight:normal;">Yiming Kong, et al. 2012 Y N N N NR</text>
  <text x="85.039,88.443,91.219,94.135,97.052,99.621,102.397,105.313,108.23,110.492,115.284,118.201,119.79599999999999,122.058,124.834,126.429,128.691,131.467,132.64800000000002,134.87,138.066,141.263,144.46,147.657,207.549,210.466,288.053,291.597,373.262,376.806,453.822,457.366,562.672,566.216" y="499.355" svg_rhmargin="569.554" style="fill:#171615;font-family:FAHGOA+AdvOTcb6dfb9e;font-size:6.68px;font-style:NORMAL;font-weight:normal;">Hongsong Wu, et al 2011 Y N N N NR</text>
  <text x="85.039,87.749,88.93,91.639,94.555,97.472,100.389,102.669,105.725,108.642,111.418,114.334,117.25,118.845,121.092,123.869,125.464,127.669,130.445,131.626,133.904,137.101,140.298,143.494,146.691,207.548,210.465,288.051,291.59499999999997,373.261,376.805,453.821,457.365,562.671,566.215" y="506.838" svg_rhmargin="569.553" style="fill:#171615;font-family:FAHGOA+AdvOTcb6dfb9e;font-size:6.68px;font-style:NORMAL;font-weight:normal;">Jichun Zhong, et al 2011 Y N N N NR</text>
  <text x="85.039,87.749,88.93,91.706,94.622,97.538,98.719,101.636,103.916,106.972,109.888,112.665,115.581,118.497,120.092,122.339,125.115,126.71,128.972,131.748,132.929,135.151,138.348,141.545,144.741,147.93800000000002,207.547,210.464,288.051,291.59499999999997,373.26,376.804,453.82,457.364,562.67,566.214" y="514.322" svg_rhmargin="569.552" style="fill:#171615;font-family:FAHGOA+AdvOTcb6dfb9e;font-size:6.68px;font-style:NORMAL;font-weight:normal;">Jianbin Zhang, et al 2013 Y N N N NR</text>
  <text x="85.039,88.376,89.557,91.152,93.928,96.845,99.098,103.89,106.666,109.582,112.498,114.093,116.331,119.107,120.702,122.964,125.74,126.92099999999999,129.143,132.34,135.536,138.733,141.93,207.548,211.092,214.43,288.052,291.596,373.261,376.805,453.821,457.365,562.671,566.215" y="521.748" svg_rhmargin="569.553" style="fill:#171615;font-family:FAHGOA+AdvOTcb6dfb9e;font-size:6.68px;font-style:NORMAL;font-weight:normal;">Aifen Wang, et al 2011 NA N N N NR</text>
  <text x="85.039,88.376,91.152,94.069,96.985,99.761,102.678,104.937,107.853,110.629,113.546,116.462,118.057,120.299,123.076,124.67099999999999,126.932,129.708,130.889,133.111,136.308,139.505,142.701,145.898,207.548,211.092,214.43,288.051,291.59499999999997,373.261,376.805,453.821,457.365,562.671,566.215" y="529.232" svg_rhmargin="569.553" style="fill:#171615;font-family:FAHGOA+AdvOTcb6dfb9e;font-size:6.68px;font-style:NORMAL;font-weight:normal;">Boquan Yang, et al 2000 NA N N N NR</text>
  <text x="85.039,87.749,88.93,91.84700000000001,94.109,97.793,98.974,100.569,102.783,105.559,107.154,109.416,112.192,113.37299999999999,115.595,118.792,121.988,125.185,128.382,207.55,211.093,214.43099999999998,288.053,291.597,373.262,376.806,453.822,457.366,562.672,566.216" y="536.7149999999999" svg_rhmargin="569.554" style="fill:#171615;font-family:FAHGOA+AdvOTcb6dfb9e;font-size:6.68px;font-style:NORMAL;font-weight:normal;">Jin Qi, et al 2011 NA N N N NR</text>
  <text x="85.039,87.749,88.93,91.846,94.415,97.331,100.108,103.024,105.941,108.224,111.141,114.057,115.652,117.862,120.638,122.233,124.495,127.271,128.452,130.674,133.87,137.067,140.264,143.461,207.548,210.465,288.052,291.596,373.261,376.805,453.822,457.366,562.672,566.215" y="544.198" svg_rhmargin="569.553" style="fill:#171615;font-family:FAHGOA+AdvOTcb6dfb9e;font-size:6.68px;font-style:NORMAL;font-weight:normal;">Jinsheng Yu, et al 2015 Y N N N NR</text>
  <text x="85.039,88.443,91.359,94.135,97.052,99.96900000000001,102.216,104.992,106.173,109.089,110.684,112.93,115.706,117.301,119.563,122.339,123.52,125.742,128.939,132.136,135.332,138.529,207.549,210.466,288.053,291.597,373.262,376.806,453.822,457.366,562.672,566.216" y="551.682" svg_rhmargin="569.554" style="fill:#171615;font-family:FAHGOA+AdvOTcb6dfb9e;font-size:6.68px;font-style:NORMAL;font-weight:normal;">Chang Liu, et al 2011 Y N N N NR</text>
  <text x="85.039,87.816,90.592,93.508,95.937,97.118,100.034,102.95100000000001,105.22,108.417,111.333,114.249,115.844,118.088,120.864,122.459,124.721,127.497,128.678,130.9,134.097,137.293,140.49,143.687,207.548,210.465,288.051,291.59499999999997,373.261,376.805,453.821,457.365,562.671,566.215" y="559.108" svg_rhmargin="569.553" style="fill:#171615;font-family:FAHGOA+AdvOTcb6dfb9e;font-size:6.68px;font-style:NORMAL;font-weight:normal;">Lanying Sun, et al 2012 Y N N N NR</text>
  <text x="85.039,87.816,88.996,91.913,93.093,94.274,97.051,99.324,102.868,105.644,108.42,110.015,112.249,115.025,116.62,118.882,121.658,122.839,125.061,128.257,131.454,134.651,137.848,207.548,210.465,288.052,291.596,373.261,376.805,453.821,457.365,562.671,566.215" y="566.592" svg_rhmargin="569.553" style="fill:#171615;font-family:FAHGOA+AdvOTcb6dfb9e;font-size:6.68px;font-style:NORMAL;font-weight:normal;">Liujie Gao, et al 2013 Y N N N NR</text>
  <text x="85.039,88.443,91.359,94.135,97.052,99.96900000000001,102.216,104.992,106.173,109.089,110.684,112.93,115.706,117.301,119.563,122.339,123.52,125.742,128.939,132.136,135.332,138.529,207.549,210.466,288.053,291.597,373.262,376.806,453.822,457.366,562.672,566.216" y="574.075" svg_rhmargin="569.554" style="fill:#171615;font-family:FAHGOA+AdvOTcb6dfb9e;font-size:6.68px;font-style:NORMAL;font-weight:normal;">Chang Liu, et al 2011 Y N N N NR</text>
  <text x="85.039,87.816,88.996,91.913,94.83,97.057,100.114,103.03,105.806,108.722,110.317,112.59,115.366,116.961,119.223,121.999,123.17999999999999,125.402,128.598,131.795,134.992,138.189,207.549,210.466,288.053,291.597,373.262,376.806,453.822,457.366,562.672,566.216" y="581.558" svg_rhmargin="569.554" style="fill:#171615;font-family:FAHGOA+AdvOTcb6dfb9e;font-size:6.68px;font-style:NORMAL;font-weight:normal;">Ling Zhou, et al 2012 Y N N N NR</text>
  <text x="85.039,87.956,90.732,93.648,96.564,99.481,102.397,105.174,107.431,110.835,113.751,115.346,117.579,120.355,121.95,124.212,126.988,128.169,130.391,133.587,136.784,139.981,143.178,207.548,210.465,288.052,291.596,373.261,376.805,453.822,457.366,562.672,566.215" y="588.985" svg_rhmargin="569.553" style="fill:#171615;font-family:FAHGOA+AdvOTcb6dfb9e;font-size:6.68px;font-style:NORMAL;font-weight:normal;">Yonghua Hu, et al 2016 Y N N N NR</text>
  <text x="85.039,88.096,89.277,92.053,94.829,97.258,98.439,101.355,104.272,106.524,109.44,112.216,114.992,116.587,118.882,121.658,123.253,125.458,128.234,129.41500000000002,131.637,134.834,138.03,141.227,144.424,207.548,210.465,288.051,291.59499999999997,373.261,376.805,453.821,457.365,562.671,566.215" y="596.468" svg_rhmargin="569.553" style="fill:#171615;font-family:FAHGOA+AdvOTcb6dfb9e;font-size:6.68px;font-style:NORMAL;font-weight:normal;">Xiaoying Yao, et al 2002 Y N N N NR</text>
  <text x="85.039,87.749,88.93,91.706,94.622,97.538,98.719,101.635,104.552,106.807,110.21,113.126,115.903,118.819,120.414,122.679,125.455,127.05,129.312,132.088,133.269,135.491,138.688,141.884,145.081,148.278,207.546,211.09,214.428,288.049,291.59299999999996,373.259,376.803,453.819,457.363,562.669,566.213" y="603.952" svg_rhmargin="569.551" style="fill:#171615;font-family:FAHGOA+AdvOTcb6dfb9e;font-size:6.68px;font-style:NORMAL;font-weight:normal;">Jianqing Chen, et al 2004 NA N N N NR</text>
  <text x="85.039,87.749,88.93,91.706,94.622,99.14,100.321,103.237,106.154,108.395,111.171,114.087,115.682,117.975,120.752,122.347,124.552,127.328,128.50900000000001,130.731,133.928,137.124,140.321,143.518,207.549,210.466,288.053,291.597,373.262,376.806,453.822,457.366,562.672,566.216" y="611.435" svg_rhmargin="569.554" style="fill:#171615;font-family:FAHGOA+AdvOTcb6dfb9e;font-size:6.68px;font-style:NORMAL;font-weight:normal;">Jianming Lu, et al 2011 Y N N N NR</text>
  <text x="85.039,88.236,89.417,92.333,95.25,97.511,100.915,103.831,106.607,109.523,112.44,114.035,116.275,119.051,120.646,122.908,125.684,126.865,129.087,132.284,135.48,138.677,141.874,207.549,210.466,288.053,291.597,373.262,376.806,453.822,457.366,562.672,566.216" y="618.918" svg_rhmargin="569.554" style="fill:#171615;font-family:FAHGOA+AdvOTcb6dfb9e;font-size:6.68px;font-style:NORMAL;font-weight:normal;">Ping Huang, et al 2000 Y N N N NR</text>
  <text x="85.039,88.236,89.417,92.333,95.25,97.511,102.303,105.079,107.995,110.912,112.507,114.744,117.521,119.116,121.377,124.154,125.335,127.556,130.753,133.95,137.146,140.343,207.549,210.466,288.053,291.597,373.262,376.806,453.822,457.366,562.672,566.216" y="626.345" svg_rhmargin="569.554" style="fill:#171615;font-family:FAHGOA+AdvOTcb6dfb9e;font-size:6.68px;font-style:NORMAL;font-weight:normal;">Ping Wang, et al 2002 Y N N N NR</text>
  <text x="85.039,88.583,91.499,94.276,97.192,98.373,101.149,104.065,106.982,109.245,112.442,115.358,116.539,118.134,120.412,123.188,124.783,126.988,129.765,130.946,133.167,136.364,139.561,142.757,145.954,207.548,210.465,288.051,291.59499999999997,373.261,376.805,453.821,457.365,562.671,566.215" y="633.828" svg_rhmargin="569.553" style="fill:#171615;font-family:FAHGOA+AdvOTcb6dfb9e;font-size:6.68px;font-style:NORMAL;font-weight:normal;">Guoqiang Shi, et al 2007 Y N N N NR</text>
  <text x="85.039,89.558,90.739,93.655,96.572,98.815,101.591,102.772,104.367,106.637,109.414,111.009,113.214,115.99,117.17099999999999,119.393,122.59,125.786,128.983,132.18,207.549,210.466,288.053,291.597,373.262,376.806,453.822,457.366,562.672,566.216" y="641.311" svg_rhmargin="569.554" style="fill:#171615;font-family:FAHGOA+AdvOTcb6dfb9e;font-size:6.68px;font-style:NORMAL;font-weight:normal;">Ming Li, et al 2008 Y N N N NR</text>
  <text x="85.039,87.956,90.732,93.648,94.829,97.745,100.662,102.896,107.688,110.464,113.38,116.296,117.891,120.186,122.962,124.557,126.819,129.595,130.776,132.998,136.195,139.391,142.588,145.785,207.548,210.465,288.052,291.596,373.261,376.805,453.822,457.366,562.672,566.215" y="648.795" svg_rhmargin="569.553" style="fill:#171615;font-family:FAHGOA+AdvOTcb6dfb9e;font-size:6.68px;font-style:NORMAL;font-weight:normal;">Yanjun Wang, et al 2009 Y N N N NR</text>
  <text x="85.039,88.376,89.557,92.473,95.25,97.511,100.427,103.203,104.798,107.035,109.811,111.406,113.611,116.387,117.568,119.847,123.044,126.24,129.437,132.63400000000001,207.55,210.467,288.053,291.597,373.263,376.80699999999996,453.823,457.36699999999996,562.673,566.217" y="656.278" svg_rhmargin="569.555" style="fill:#171615;font-family:FAHGOA+AdvOTcb6dfb9e;font-size:6.68px;font-style:NORMAL;font-weight:normal;">Aihe Ye, et al 2001 Y N N N NR</text>
  <text x="85.039,87.816,88.996,91.425,92.606,95.523,97.793,101.337,104.253,105.848,108.054,110.83,112.425,114.687,117.463,118.64399999999999,120.866,124.063,127.259,130.456,133.653,207.548,210.465,288.052,291.596,373.261,376.805,453.822,457.366,562.672,566.215" y="663.705" svg_rhmargin="569.553" style="fill:#171615;font-family:FAHGOA+AdvOTcb6dfb9e;font-size:6.68px;font-style:NORMAL;font-weight:normal;">Lixin Gu, et al 2003 Y N N N NR</text>
  <text x="85.039,88.236,91.152,94.069,96.985,98.58,101.356,104.272,107.18900000000001,109.472,112.248,113.429,116.345,117.94,120.186,122.962,124.557,126.819,129.595,130.776,132.998,136.195,139.391,142.588,145.785,207.548,210.465,288.052,291.596,373.261,376.805,453.822,457.366,562.672,566.215" y="671.188" svg_rhmargin="569.553" style="fill:#171615;font-family:FAHGOA+AdvOTcb6dfb9e;font-size:6.68px;font-style:NORMAL;font-weight:normal;">Shuntong LIn, et al 1996 Y N N N NR</text>
  <text x="85.039,87.956,90.732,93.648,94.829,97.745,100.521,103.438,105.73,108.439,109.62,112.396,115.313,118.229,119.824,122.056,124.832,126.42699999999999,128.689,131.465,132.64600000000002,134.868,138.064,141.261,144.458,147.655,207.547,210.464,288.051,291.59499999999997,373.26,376.804,453.82,457.364,562.67,566.214" y="678.671" svg_rhmargin="569.552" style="fill:#171615;font-family:FAHGOA+AdvOTcb6dfb9e;font-size:6.68px;font-style:NORMAL;font-weight:normal;">Youjuan Jiang, et al 1997 Y N N N NR</text>
  <text x="85.039,88.443,91.219,92.4,95.316,96.497,99.414,101.648,104.424,105.605,107.2,109.471,112.247,113.842,116.047,118.823,120.00399999999999,122.283,125.479,128.676,131.873,135.07,207.548,210.465,288.052,291.596,373.261,376.805,453.821,457.365,562.671,566.215" y="686.155" svg_rhmargin="569.553" style="fill:#171615;font-family:FAHGOA+AdvOTcb6dfb9e;font-size:6.68px;font-style:NORMAL;font-weight:normal;">Haibin Li, et al 2007 Y N N N NR</text>
  <text x="85.039,88.096,89.277,92.053,94.969,96.15,97.331,99.608,102.944,105.721,106.901,108.496,110.718,113.494,115.089,117.351,120.127,121.30799999999999,123.53,126.727,129.923,133.12,136.317,207.548,210.465,288.052,291.596,373.261,376.805,453.821,457.365,562.671,566.215" y="693.638" svg_rhmargin="569.553" style="fill:#171615;font-family:FAHGOA+AdvOTcb6dfb9e;font-size:6.68px;font-style:NORMAL;font-weight:normal;">Xianli Bai, et al 2005 Y N N N NR</text>
  <text svg_rhmargin="88.742" x="85.039,88.742" y="708.668" style="fill:#171615;font-family:FAHGOA+AdvOTcb6dfb9e;font-size:6.97px;font-style:NORMAL;font-weight:normal;">N </text>
  <text x="89.632" y="708.668" svg_rhmargin="94.353" style="fill:#171615;font-family:FAHBDB+AdvOTb0c9bf5d;font-size:6.97px;font-style:NORMAL;font-weight:normal;">=</text>
  <text svg_rhmargin="112.355" x="95.244,98.292,101.193,102.86,105.165,108.868,112.35499999999999" y="708.668" style="fill:#171615;font-family:FAHGOA+AdvOTcb6dfb9e;font-size:6.97px;font-style:NORMAL;font-weight:normal;">no; NA </text>
  <text x="113.273" y="708.668" svg_rhmargin="117.994" style="fill:#171615;font-family:FAHBDB+AdvOTb0c9bf5d;font-size:6.97px;font-style:NORMAL;font-weight:normal;">=</text>
  <text svg_rhmargin="160.996" x="118.885,121.933,124.834,126.501,128.806,131.707,134.246,137.147,138.381,139.69,142.591,145.639,146.873,149.774,151.441,153.806,157.509,160.99599999999998" y="708.668" style="fill:#171615;font-family:FAHGOA+AdvOTcb6dfb9e;font-size:6.97px;font-style:NORMAL;font-weight:normal;">not available; NR </text>
  <text x="161.859" y="708.668" svg_rhmargin="166.58" style="fill:#171615;font-family:FAHBDB+AdvOTb0c9bf5d;font-size:6.97px;font-style:NORMAL;font-weight:normal;">=</text>
  <text svg_rhmargin="204.759" x="167.471,170.519,173.42,175.087,177.449,179.331,182.233,185.28,188.181,190.064,191.731,194.632,197.68,199.347,201.711,204.75900000000001" y="708.668" style="fill:#171615;font-family:FAHGOA+AdvOTcb6dfb9e;font-size:6.97px;font-style:NORMAL;font-weight:normal;">not reported; Y </text>
  <text x="205.625" y="708.668" svg_rhmargin="210.346" style="fill:#171615;font-family:FAHBDB+AdvOTb0c9bf5d;font-size:6.97px;font-style:NORMAL;font-weight:normal;">=</text>
  <text x="211.238,213.776,216.678,219.362" y="708.668" svg_rhmargin="221.029" style="fill:#171615;font-family:FAHGOA+AdvOTcb6dfb9e;font-size:6.97px;font-style:NORMAL;font-weight:normal;">yes.</text>
  <text x="85.039,88.087,90.988,94.036,95.27,98.17099999999999,100.516,103.857,106.185,109.672,110.906,113.591,116.422,118.77,121.671,123.33800000000001,125.685,128.733,129.967,132.868,135.553,137.22,139.574,141.457,144.359,146.897,148.131,151.032,155.098,157.488,160.389,163.437,165.103,168.151,171.052,172.935" y="717.682" svg_rhmargin="175.62" style="fill:#171615;font-family:FAHGOA+AdvOTcb6dfb9e;font-size:6.97px;font-style:NORMAL;font-weight:normal;">Table 2 Risk of bias: review authors</text>
  <text svg_rhmargin="177.358" x="175.691,177.358" y="717.682" style="fill:#171615;font-family:FAHGPB+AdvOTcb6dfb9e+20;font-size:6.97px;font-style:NORMAL;font-weight:normal;">’ </text>
  <text x="179.66,180.894,183.942,186.989,190.037,192.938,197.659,200.56,203.696,205.363,208.048,210.385,213.286,216.334,219.235,222.282,223.949,226.315,229.216,232.117,234.948,237.996,240.317,242.2,243.434,246.119,248.95,251.314,254.215,255.882,258.23,261.278,262.512,265.413,268.098,270.418,271.653,273.319,276.221,280.942,283.287,284.954,287.855,289.738,292.131,295.032,297.933,300.764,303.812,306.133,307.367,310.414,313.246,314.48,317.528,320.645,323.546,326.594,328.922,331.607,333.274,336.321,339.369,341.907" y="717.682" svg_rhmargin="343.574" style="fill:#171615;font-family:FAHGOA+AdvOTcb6dfb9e;font-size:6.97px;font-style:NORMAL;font-weight:normal;">judgements about each risk of bias item for each included study.</text>
  <text x="85.039,92.26,96.325,100.557,104.956,107.546,111.61,113.929,116.617,120.681,122.092,124.244,126.877,133.429,137.494,142.053,143.463,147.528,148.939,153.171,157.236,159.815,161.72,166.119,170.519,174.919,179.318,181.223,183.852,188.251,192.651,194.803,199.202,203.601,517.041,522.931,528.821,534.711,536.863,543.414,547.973,550.874,552.285,556.685,560.917,563.3,567.532,571.597,573.008,575.16,579.224,583.624" y="9.870999999999981" svg_rhmargin="590.176" style="fill:#171615;font-family:FAHBBN+AdvOT6e5d2ec0;font-size:7.97px;font-style:NORMAL;font-weight:normal;">Wang et al. Medicine (2018) 97:44 www.md-journal.com</text>
  <text x="335.396" y="739.625" svg_rhmargin="339.796" style="fill:#171615;font-family:FAHBKM+AdvOTf94803d4;font-size:7.97px;font-style:NORMAL;font-weight:normal;">5</text>
 </g>
</svg>
