<?xml version="1.0" encoding="UTF-8"?>
<svg height="750.473" width="550.5007765787234" xmlns="http://www.w3.org/2000/svg">
 <g style="fill:none;">
  <text x="56.693,61.789,64.641,68.257,72.637,77.096,81.477,86.779,90.414,92.962,98.372,103.576,106.124,110.612,113.16,118.364,123.665,128.046,130.594,134.298,138.071,141.227,146.529,151.821,156.202,159.817,164.913,170.323,173.988,177.143,182.445,186.826,190.481,193.333,195.881,201.29,205.671,208.219,211.855,216.951,222.252,225.408,229.887,234.982,243.146,247.526,251.299,253.435,257.101,262.608,267.91,273.084,275.632,278.18,282.561,286.942" y="452.473" svg_rhmargin="290.509" style="fill:#131413;font-family:LFAHAD+SwxqkpAdvTT86d47313;font-size:9.8px;font-style:NORMAL;font-weight:normal;">of each individual study on the final outcomes. Publica-</text>
  <text x="56.693,59.848,62.396,67.492,72.902,75.911,81.006,83.554,88.043,91.816,94.785,101.616,106.124,109.89699999999999,112.866,118.07,122.45,126.125,128.977,134.073,137.748,145.911,150.4,155.604,158.563,163.659,168.04,170.979,173.831,179.133,184.542,190.03,194.411,196.959,199.899,205.103,207.719,212.815,215.971,218.94,223.321,228.73,233.934,236.913,242.724,247.105,251.799" y="464.487" svg_rhmargin="256.493" style="fill:#131413;font-family:LFAHAD+SwxqkpAdvTT86d47313;font-size:9.8px;font-style:NORMAL;font-weight:normal;">tion bias was performed by funnel plot and Begg</text>
  <text x="256.758" y="464.487" svg_rhmargin="258.689" style="fill:#131413;font-family:LFAHAE+XqbdqmAdvTT86d47313+20;font-size:9.8px;font-style:NORMAL;font-weight:normal;">’</text>
  <text x="258.061,261.834,264.804,267.959,272.34,276.113,279.268,281.404,284.423,287.686" y="464.487" svg_rhmargin="290.538" style="fill:#131413;font-family:LFAHAD+SwxqkpAdvTT86d47313;font-size:9.8px;font-style:NORMAL;font-weight:normal;">s test. If</text>
  <text svg_rhmargin="204.24" x="56.693,59.848,65.15,69.531,73.078,77.459,80.311,83.162,87.71,92.09,95.24600000000001,98.881,102.654,105.202,109.485,113.866,117.423,124.253,128.761,132.534,136.013,139.786,144.167,152.33,160.493,164.982,168.137,171.812,174.36,178.741,183.121,185.669,189.246,193.627,199.036,204.24" y="476.453" style="fill:#131413;font-family:LFAHAD+SwxqkpAdvTT86d47313;font-size:9.8px;font-style:NORMAL;font-weight:normal;">the effect size was symmetrical and </text>
  <text svg_rhmargin="213.227" x="207.719,213.227" y="476.453" style="fill:#131413;font-family:LFAICB+BwjfmlAdvTT8861b38f.I;font-size:9.8px;font-style:NORMAL;font-weight:normal;">P </text>
  <text x="216.96,221.449,225.829,228.377,233.679,238.06,241.617,246.821,250.496,254.876,261.795,267.20500000000004,270.693,273.545,277.22,282.316" y="476.453" svg_rhmargin="290.479" style="fill:#131413;font-family:LFAHAD+SwxqkpAdvTT86d47313;font-size:9.8px;font-style:NORMAL;font-weight:normal;">value drawn from</text>
  <text x="56.693,62.504,66.885,71.579" y="488.468" svg_rhmargin="76.273" style="fill:#131413;font-family:LFAHAD+SwxqkpAdvTT86d47313;font-size:9.8px;font-style:NORMAL;font-weight:normal;">Begg</text>
  <text x="76.538" y="488.468" svg_rhmargin="78.469" style="fill:#131413;font-family:LFAHAE+XqbdqmAdvTT86d47313+20;font-size:9.8px;font-style:NORMAL;font-weight:normal;">’</text>
  <text x="77.841,81.61399999999999,85.328,88.484,92.864,96.637,99.793,103.527,110.357,114.924,118.697,122.411,130.574,135.67,139.345,143.726,147.469,150.625,155.927,160.307,165.71699999999998,169.47,174.37,176.506,181.406,186.306,189.991,192.539,197.949,203.152,205.7,210.169,214.55,217.705,222.086,227.29000000000002,231.033,234.189,239.49,243.871,247.02700000000002,250.76,253.916,259.218,263.598,267.273,271.654,275.417,282.247,286.755" y="488.468" svg_rhmargin="290.528" style="fill:#131413;font-family:LFAHAD+SwxqkpAdvTT86d47313;font-size:9.8px;font-style:NORMAL;font-weight:normal;">s test was more than 0.05 indicated that there was</text>
  <text x="56.693,62.102,67.198,70.187,75.391,80.693,85.789,88.337,90.885,95.265,99.646,102.801,105.349,110.445,115.85499999999999,118.942,124.038,126.586,131.074,134.847" y="500.482" svg_rhmargin="136.983" style="fill:#131413;font-family:LFAHAD+SwxqkpAdvTT86d47313;font-size:9.8px;font-style:NORMAL;font-weight:normal;">no publication bias.</text>
  <text x="56.693,62.698,68.054,72.452,78.344,81.125,84.874" y="524.473" svg_rhmargin="89.272" style="fill:#131413;font-family:LFAGKP+FdhjmmAdvTTaf7f9f4f.B;font-size:10.3px;font-style:NORMAL;font-weight:normal;">Results</text>
  <text x="56.693,61.385,66.077,70.677,73.934,78.046,83.21600000000001,86.06,89.316,94.008,97.836,103.006,105.306,108.462" y="536.491" svg_rhmargin="112.289" style="fill:#131413;font-family:LFAGPA+YpcwwnAdvTT99c4c969;font-size:9.2px;font-style:NORMAL;font-weight:normal;">Search results</text>
  <text x="56.693,63.727,66.675,69.966,74.442,78.11699999999999,83.055,86.914,91.39,95.299,98.55,103.027,111.286,115.763,119.054,121.717,126.098,131.015,134.875,139.41,143.887,147.658,152.134,157.43599999999998,162.393,167.604,170.45600000000002,175.374,178.664,184.062,188.443,193.419,197.896,200.54,205.134,209.611,212.862,216.633,221.825,227.331,229.877,234.258,239.292,244.622,249.098,252.35,256.826,262.018,266.613,270.482,275.017,279.102,281.238,286.126" y="548.454" svg_rhmargin="290.507" style="fill:#131413;font-family:LFAHAD+SwxqkpAdvTT86d47313;font-size:9.8px;font-style:NORMAL;font-weight:normal;">After systematic search of the electronic databases, a</text>
  <text x="56.693,59.953,65.046,68.395,72.871,75.419,79.786,84.997,87.849,92.256,97.261,102.265,107.165,111.563,115.44,118.701,124.107,129.416,132.069,136.554,140.327,144.715,151.689,156.175,159.915,164.296,168.703,171.365,176.674,181.159,186.674,189.934,192.587,195.544,198.197,202.682,207.991,210.127,214.514,219.0,224.514,229.71800000000002,234.154,239.649,244.745,249.113,253.647,258.956,264.265,266.81,270.158,272.811,277.904,283.526,288.002" y="560.468" svg_rhmargin="290.55" style="fill:#131413;font-family:LFAHAD+SwxqkpAdvTT86d47313;font-size:9.8px;font-style:NORMAL;font-weight:normal;">total of 363 studies were identified, and no additional</text>
  <text x="56.693,60.475,65.011,69.547,74.642,78.503,83.833,87.606,92.054,98.972,103.459,107.241,111.622,116.089,119.038,124.241,129.649,135.166,140.37,144.808,150.118,155.527,159.309,161.856,167.47,172.164,176.593,184.863,189.35,194.867,200.275,204.763,207.311,211.788,215.668,220.155,224.643,228.424,232.912,238.32,242.857,246.63,251.078,256.281,259.133,263.59,267.372,271.967,276.563,279.217,283.705" y="572.483" svg_rhmargin="290.536" style="fill:#131413;font-family:LFAHAD+SwxqkpAdvTT86d47313;font-size:9.8px;font-style:NORMAL;font-weight:normal;">records were found during manual searches of review</text>
  <text svg_rhmargin="290.472" x="56.693,61.177,64.956,68.216,70.867,75.352,78.004,82.488,86.261,90.824,95.308,100.822,106.026,110.569,114.367,118.852,121.504,126.096,130.688,135.172,140.686,143.842,148.453,153.722,159.127,164.219,166.95,169.611,174.096,178.58,181.84,184.384,189.662,195.175,199.052,201.188,205.742,212.774,215.779,219.009,223.493,227.168,231.77,235.549,240.082,248.35,253.442,258.093,260.754,266.268,270.962,275.564,280.568,285.572,290.472" y="452.473" style="fill:#131413;font-family:LFAHAD+SwxqkpAdvTT86d47313;font-size:9.8px;font-style:NORMAL;font-weight:normal;">articles and relevant publications. After removing 244 </text>
  <text x="304.719,310.028,315.436,320.745,323.291,326.014,330.5,334.987,338.248,342.629,350.78,354.639,357.901,363.308,368.618,371.272,375.758,379.531,387.663,393.071,396.949,399.603,405.119,409.81300000000005,417.935,423.548,429.064,434.373,439.889,445.09,448.352,452.73299999999995,460.884,467.722,472.62199999999996,480.764,484.221,491.079,495.566,499.347,503.225,505.879,510.973,516.383,524.583,531.422,536.428" y="452.473" svg_rhmargin="538.564" style="fill:#131413;font-family:LFAHAD+SwxqkpAdvTT86d47313;font-size:9.8px;font-style:NORMAL;font-weight:normal;">duplicate studies using Endnote X7 (Version X7,</text>
  <text x="304.719,311.245,316.684,321.78,330.12,335.451,339.302,344.516,349.92600000000004,356.246,362.371,366.85,372.289,375.523,380.001,383.804,387.881,390.017,396.328,403.306,410.616,412.752,419.123,426.267,431.421,438.507,441.741,443.877,450.188,454.726,460.223,465.437,468.671,474.061,478.598,482.273,488.574,493.563,498.551,503.45099999999996,509.772,513.682,516.916,522.355,527.627,530.293,534.771" y="464.488" svg_rhmargin="538.544" style="fill:#131413;font-family:LFAHAD+SwxqkpAdvTT86d47313;font-size:9.8px;font-style:NORMAL;font-weight:normal;">Thompson Reuters, CA, USA), another 589 studies</text>
  <text x="304.719,311.648,316.186,319.96,324.341,328.517,332.996,337.789,342.269,344.916,350.316,355.619,360.099,365.303,369.449,374.644,379.231,383.103,387.641,392.845,396.991,402.206,407.61600000000004,411.791,415.075,420.476,424.955,427.602,431.277,435.424,438.678,441.227,444.57,447.236,451.716,455.48900000000003,459.655,464.134,469.643,474.847,479.052,483.531,488.726,492.598,495.853,499.627,504.106,508.645,511.987,515.84,517.976,522.191,528.719,534.119" y="476.454" svg_rhmargin="538.5" style="fill:#131413;font-family:LFAHAD+SwxqkpAdvTT86d47313;font-size:9.8px;font-style:NORMAL;font-weight:normal;">were excluded based on their titles and abstracts. The</text>
  <text x="304.719,308.521,312.999,321.28,325.759,328.307,333.922,336.47,342.027,346.721,352.003,356.991,361.89099999999996,367.085,370.995,374.229,379.668,384.941,387.606,392.085,395.858,401.101,408.019,412.557,416.3,420.68100000000004,425.934,429.677,434.156,438.693,443.897,449.12,451.668,457.07800000000003,462.389,465.339,470.778,473.326,476.05,478.18600000000004,483.42,487.898,493.396,498.6,503.823,508.811,513.711,518.954,525.932,530.41,534.154" y="488.468" svg_rhmargin="538.535" style="fill:#131413;font-family:LFAHAD+SwxqkpAdvTT86d47313;font-size:9.8px;font-style:NORMAL;font-weight:normal;">remaining 30 studies were read in full, and 20 were</text>
  <text x="304.719,309.2,313.995,318.477,321.126,326.528,331.833,336.314,341.51800000000003,347.372,352.569,357.158,361.639,366.121,371.524,375.397,379.778,385.661,388.917,394.32,398.802,403.183,409.065,412.018,416.499,419.148,421.699,426.298,431.502,437.355,440.612,445.708,451.61,455.484,460.015,463.271,465.92,469.794,472.747,477.12800000000004,483.01,486.296,491.699,496.08000000000004,501.962,505.836,510.367,512.918,517.566,522.047,525.304,527.855,533.13" y="500.483" svg_rhmargin="538.54" style="fill:#131413;font-family:LFAHAD+SwxqkpAdvTT86d47313;font-size:9.8px;font-style:NORMAL;font-weight:normal;">excluded because they failed to satisfy the selection</text>
  <text x="304.719,309.212,312.999,315.543,318.889,323.383,327.17,329.713,334.256,336.392,342.081,345.427,350.83700000000005,356.487,359.716,365.13,369.51099999999997,375.16,379.654,385.176,390.492,392.62800000000004,398.259,403.159,408.799,412.655,415.923,421.338,426.654,429.197,433.788,437.56100000000004,443.201,450.144,454.638,458.425,462.80600000000004,468.455,470.999,476.609,481.102,483.645,489.148,494.415,498.948,504.152,509.772,512.432,517.842,523.492,526.76,532.174,534.717" y="512.4490000000001" svg_rhmargin="538.49" style="fill:#131413;font-family:LFAHAD+SwxqkpAdvTT86d47313;font-size:9.8px;font-style:NORMAL;font-weight:normal;">criteria. In the end, 7 studies were included in this</text>
  <text x="304.719,312.986,317.47,320.73,325.214,328.777,333.37,338.883,343.367,346.019,350.504,354.381,357.032,360.805,368.828,372.122,377.111" y="524.463" svg_rhmargin="382.011" style="fill:#131413;font-family:LFAHAD+SwxqkpAdvTT86d47313;font-size:9.8px;font-style:NORMAL;font-weight:normal;">meta-analysis [11</text>
  <text x="382.101" y="524.463" svg_rhmargin="388.02" style="fill:#131413;font-family:LFAHAE+XqbdqmAdvTT86d47313+20;font-size:9.8px;font-style:NORMAL;font-weight:normal;">–</text>
  <text x="388.106,393.152,398.141,401.402,403.538,411.602,416.804,419.458,424.552,431.38300000000004,439.524,444.726,447.578,455.612,458.873,462.615,465.268,469.755,472.409,476.182,484.255,487.516,492.924,496.705,501.906,507.314,512.114,517.416,525.44,528.731,534.138" y="524.463" svg_rhmargin="538.519" style="fill:#0000ff;font-family:LFAHAD+SwxqkpAdvTT86d47313;font-size:9.8px;font-style:NORMAL;font-weight:normal;">17]. Flow of trials through the</text>
  <text x="304.709,312.978,317.464,320.755,325.232,328.797,333.391,338.906,343.393,346.047,350.533,354.412,357.066,360.839,364.835,369.312,373.847,379.257,383.253,388.455,392.836,396.842,400.72,405.207,409.742,415.15200000000004,419.148,421.802,427.21200000000005,431.208,436.41,438.956,443.834,445.97,450.012,455.0" y="536.4780000000001" svg_rhmargin="457.136" style="fill:#131413;font-family:LFAHAD+SwxqkpAdvTT86d47313;font-size:9.8px;font-style:NORMAL;font-weight:normal;">meta-analysis can be seen in Fig. 1.</text>
  <text x="304.724,310.76,315.452,320.622,325.314,328.571,333.171,335.471,338.286,342.399,347.569,352.169,355.426,360.026,364.139,367.294,371.986,375.243,377.543,381.49,384.646,386.946,391.058,394.885,397.645,402.816,405.686,408.474,411.629,416.8,421.492,424.289,426.589,431.759,435.872,438.172,443.342,448.605,453.297,458.559,461.42,465.248,468.403,473.574,478.836,481.136,485.828" y="560.473" svg_rhmargin="489.655" style="fill:#131413;font-family:LFAGPA+YpcwwnAdvTT99c4c969;font-size:9.2px;font-style:NORMAL;font-weight:normal;">General characteristics of the included studies</text>
  <text x="304.724,311.251,316.553,320.93399999999997,325.647,330.341,334.722,340.131,344.512,348.265,352.646,355.194,359.996,364.376,369.678,374.059,377.734,382.114,386.495,389.758,394.139,397.814,400.362,404.134,407.29,409.838,414.219,417.992,422.813,427.909,430.76099999999997,435.573,438.728,444.03,448.41099999999994,453.261,455.809,461.219,465.599,468.147,473.449,478.653,483.141,488.345,493.118,496.891,500.046,505.348,510.552,513.1,517.48,521.253,526.114,530.494,534.169" y="572.491" svg_rhmargin="538.55" style="fill:#131413;font-family:LFAHAD+SwxqkpAdvTT86d47313;font-size:9.8px;font-style:NORMAL;font-weight:normal;">The general characteristics of the included studies are</text>
  <text x="304.724,307.272,309.82,313.593,316.749,321.129,326.333,330.861,333.409,338.819,343.336,348.951,353.332,358.428,360.976,365.35699999999997,369.864,374.794,376.93,381.428,387.837,393.139,397.52,402.067,407.27,412.572,417.668,420.216,422.764,427.145,431.525,434.681,437.229,442.325,447.735,452.35,456.731,461.111,465.492,469.16700000000003,473.665,478.761,481.613,486.14,489.296,494.597,498.97799999999995,503.486,506.034,511.443,515.824,518.372,523.674,528.878,533.366" y="584.457" svg_rhmargin="538.57" style="fill:#131413;font-family:LFAHAD+SwxqkpAdvTT86d47313;font-size:9.8px;font-style:NORMAL;font-weight:normal;">listed in Table 1. The publication year of the included</text>
  <path d=" M 56.692989349365234 187.48300170898438 L 538.5830078125 187.48300170898438 L 538.5830078125 187.31300354003906 L 56.692989349365234 187.31300354003906" style="fill:none;stroke:#131413;stroke-width:0.0;"/>
  <path d=" M 538.5830078125 76.0250015258789 L 56.6929931640625 76.0250015258789 L 56.6929931640625 76.19499969482422 L 538.5830078125 76.19499969482422 Z " style="fill:none;stroke:#131413;stroke-width:0.0;"/>
  <path d=" M 125.29100036621094 174.16099548339844 L 56.69300079345703 174.16099548339844 L 56.69300079345703 174.33099365234375 L 125.29100036621094 174.33099365234375 Z " style="fill:none;stroke:#131413;stroke-width:0.0;"/>
  <path d=" M 169.3979949951172 174.16099548339844 L 125.29100036621094 174.16099548339844 L 125.29100036621094 174.33099365234375 L 169.3979949951172 174.33099365234375 Z " style="fill:none;stroke:#131413;stroke-width:0.0;"/>
  <path d=" M 235.95599365234375 174.16099548339844 L 169.39898681640625 174.16099548339844 L 169.39898681640625 174.33099365234375 L 235.95599365234375 174.33099365234375 Z " style="fill:none;stroke:#131413;stroke-width:0.0;"/>
  <path d=" M 285.3919982910156 174.16099548339844 L 235.95599365234375 174.16099548339844 L 235.95599365234375 174.33099365234375 L 285.3919982910156 174.33099365234375 Z " style="fill:none;stroke:#131413;stroke-width:0.0;"/>
  <path d=" M 331.8240051269531 174.16099548339844 L 285.39300537109375 174.16099548339844 L 285.39300537109375 174.33099365234375 L 331.8240051269531 174.33099365234375 Z " style="fill:none;stroke:#131413;stroke-width:0.0;"/>
  <path d=" M 383.5270080566406 174.16099548339844 L 331.822998046875 174.16099548339844 L 331.822998046875 174.33099365234375 L 383.5270080566406 174.33099365234375 Z " style="fill:none;stroke:#131413;stroke-width:0.0;"/>
  <path d=" M 476.10699462890625 174.16099548339844 L 383.5279846191406 174.16099548339844 L 383.5279846191406 174.33099365234375 L 476.10699462890625 174.33099365234375 Z " style="fill:none;stroke:#131413;stroke-width:0.0;"/>
  <path d=" M 538.5830078125 174.16099548339844 L 476.10699462890625 174.16099548339844 L 476.10699462890625 174.33099365234375 L 538.5830078125 174.33099365234375 Z " style="fill:none;stroke:#131413;stroke-width:0.0;"/>
  <text svg_rhmargin="86.375" x="56.693,61.562,66.242,71.579,74.009,78.689,81.407,86.375" y="608.491" style="fill:#131413;font-family:LFAGKP+FdhjmmAdvTTaf7f9f4f.B;font-size:9.0px;font-style:NORMAL;font-weight:normal;">Table 1 </text>
  <text x="89.066,93.188,97.967,102.27799999999999,104.996,109.865,114.176,118.955,123.266,125.885,129.908,131.78,134.48,138.413,143.192,147.215,149.834,153.857,157.79,160.508,164.819,167.438,169.31,172.586,175.304,177.176,181.10899999999998,183.8,188.579,190.919,193.61,196.328,201.107,205.418,208.127,209.999,214.778,218.711,220.583,225.263,230.132,234.443,239.312,242.03,245.306,248.024,252.704,257.573,259.445,263.756" y="608.491" svg_rhmargin="267.032" style="fill:#131413;font-family:LFAGOP+FlrwhjAdvTTb5929f4c;font-size:9.0px;font-style:NORMAL;font-weight:normal;">The general characteristic of the included studies</text>
  <text x="56.693,60.693,64.525,66.605,70.437,72.765,76.597,80.845,84.245,88.077,125.292,129.788,134.036,138.196,142.444,144.86,147.188,150.684,169.395,175.555,179.387,182.963,187.21099999999998,189.579,193.155,197.483,201.315,203.699,205.779,209.275,213.107,216.683,219.011,221.923,224.00300000000001,235.955,239.619,243.195,249.69,254.018,255.682,259.514,261.866,264.778,266.442,269.602,273.43399999999997,285.394,289.058,291.474,295.634,299.962,303.45799999999997,305.802,308.218,311.714,316.042,319.87399999999997,331.825,335.489,339.737,341.401,343.065,347.313,353.057,355.385,359.545,363.873,383.529,388.857,391.185,394.848,398.424,400.088,403.752,476.104,482.264,483.928,486.255,489.919,493.495,495.159" y="621.644" svg_rhmargin="498.823" style="fill:#000000;font-family:LFAGOP+FlrwhjAdvTTb5929f4c;font-size:8.0px;font-style:NORMAL;font-weight:normal;">Reference Country Mean age (years) Sample size Study type Follow-up O-TLIF MI-TLIF</text>
  <text x="56.693,60.357,62.021,66.269,70.597,74.845,77.213,81.045,83.461,85.829,89.405,91.068,92.396,94.788,96.884,100.716,104.54,106.62,125.292,130.292,133.956,138.61999999999998,169.395,173.227,177.059,178.387,182.219,186.051,188.795,192.627,196.459,197.787,201.619,205.451,235.955,239.787,243.619,246.363,250.195,254.027,285.394,289.394,293.89,297.554,300.46599999999995,331.826,335.658,338.057,344.553,348.801,353.049,355.465,359.713,362.625,383.521,389.681,391.345,395.673,397.337,399.001,403.249,407.081,409.432,411.096,415.344,418.84,420.504,423.416,425.08,429.328,433.57599999999996,476.104,481.104,485.352,487.016,488.679,492.255,494.671,498.503,500.831,504.407,506.07099999999997,508.415,511.991,516.319,520.647,522.975,527.223,530.799,534.295" y="634.796" svg_rhmargin="538.543" style="fill:#000000;font-family:LFAGOP+FlrwhjAdvTTb5929f4c;font-size:8.0px;font-style:NORMAL;font-weight:normal;">Singh et al. [11] USA 51.67/49.85 33/33 RCTs 6 months Midline incision Unilateral approach</text>
  <text x="56.693,60.605,64.765,66.429,69.757,73.333,75.661,79.909,81.57300000000001,83.909,87.741,90.157,92.58,96.156,97.82,99.148,101.54,103.58,107.412,111.236,113.316,125.292,126.956,131.204,135.532,137.196,140.772,169.396,173.227,177.059,178.387,182.219,186.051,188.795,192.627,196.459,197.787,201.619,205.451,235.955,239.787,243.619,246.363,250.195,254.027,285.394,289.394,293.89,297.554,300.46599999999995,331.826,335.657,339.489,340.817,344.649,347.017,353.513,357.761,362.009,364.425,368.673,371.585,383.529,387.529,391.777,394.689,397.105,400.937,403.265,404.928,409.176,411.50399999999996,413.8,420.296,421.96,426.288,427.952,429.616,433.864,437.69599999999997,440.048,441.712,445.96,449.456,451.12,454.032,455.696,459.944,464.192,476.104,481.103,485.351,487.015,488.679,492.255,494.671,498.503,500.831,504.407,506.07099999999997,508.415,511.991,516.319,520.647,522.975,527.223,530.799,534.295" y="648.796" svg_rhmargin="538.543" style="fill:#000000;font-family:LFAGOP+FlrwhjAdvTTb5929f4c;font-size:8.0px;font-style:NORMAL;font-weight:normal;">Kulkarni et al. [12] India 51.55/50.40 36/25 RCTs 36.5 months Posterior midline incision Unilateral approach</text>
  <text x="56.701,60.277,64.109,67.94099999999999,70.309,74.141,76.557,78.925,82.501,84.165,85.49300000000001,87.885,89.98,93.812,97.636,99.716,125.3,128.964,130.628,134.876,139.204,142.78,147.108,151.356,153.684,157.516,169.403,173.235,177.067,178.395,182.227,184.971,187.371,191.203,195.035,196.363,200.195,235.955,239.787,243.619,246.363,250.195,254.027,285.394,289.394,293.89,297.554,300.46599999999995,331.825,335.657,339.489,341.857,348.353,352.601,356.849,359.265,363.513,366.42499999999995,383.529,388.609,392.27299999999997,476.12,481.2" y="662.796" svg_rhmargin="484.864" style="fill:#000000;font-family:LFAGOP+FlrwhjAdvTTb5929f4c;font-size:8.0px;font-style:NORMAL;font-weight:normal;">Lee et al. [13] Singapore 56.6/ 56.8 40/40 RCTs 24 months NS NS</text>
  <text x="56.709,60.373,64.205,68.453,72.781,75.133,78.965,81.381,83.749,87.325,88.989,90.31700000000001,92.708,94.804,98.636,102.46,104.53999999999999,125.308,128.972,130.636,134.884,139.212,142.788,147.116,151.364,153.692,157.524,169.411,173.243,177.075,178.403,182.235,184.979,188.811,192.643,193.971,197.803,235.971,239.803,243.635,246.379,250.211,254.043,285.41,289.41,293.906,297.57,300.48199999999997,331.841,335.673,339.505,341.873,348.369,352.617,356.865,359.281,363.529,366.441,383.545,389.705,391.369,395.697,397.361,399.025,403.273,407.105,409.456,411.12,415.368,418.864,420.528,423.44,425.104,429.352,433.59999999999997,476.12,480.12,483.696,486.024,489.6,492.511,496.087,500.415,502.079,504.495,506.911,510.415,512.0790000000001,514.495,516.159,520.407,523.903,525.567,528.479,530.143,534.391" y="676.795" svg_rhmargin="538.639" style="fill:#000000;font-family:LFAGOP+FlrwhjAdvTTb5929f4c;font-size:8.0px;font-style:NORMAL;font-weight:normal;">Seng et al. [14] Singapore 52.2/56.6 72/72 RCTs 60 months Midline incision Parasagittal incision</text>
  <text x="56.709,60.373,64.205,66.533,70.861,74.437,78.685,81.029,84.861,87.277,89.645,93.221,94.884,96.212,98.604,100.7,104.532,108.356,110.43599999999999,125.308,130.308,133.972,138.636,169.412,173.243,177.075,178.403,182.235,184.979,187.379,191.211,195.043,196.371,200.203,235.963,239.795,243.627,246.371,250.203,254.035,285.402,289.402,293.898,297.562,300.474,331.834,335.666,338.065,344.561,348.809,353.057,355.473,359.721,362.633,383.529,389.689,391.353,395.681,397.345,399.009,403.257,407.089,409.44,412.352,415.68,417.344,421.592,476.12,480.12,483.696,486.024,489.6,492.512,496.087,500.415,502.079,504.495,506.911,510.415,512.0790000000001,514.495,516.159,520.407,523.903,525.567,528.479,530.143,534.391" y="690.795" svg_rhmargin="538.639" style="fill:#000000;font-family:LFAGOP+FlrwhjAdvTTb5929f4c;font-size:8.0px;font-style:NORMAL;font-weight:normal;">Serban et al. [15] USA 51.3/ 50.1 24/23 RCTs 6 months Midline skin Parasagittal incision</text>
  <text x="56.709,63.205,66.781,71.029,75.357,77.741,81.573,83.98899999999999,86.357,89.933,91.597,92.925,95.316,97.356,101.188,105.012,107.092,125.308,129.804,134.052,135.716,139.964,143.54,169.412,173.243,177.075,178.403,182.235,184.979,187.379,191.211,195.043,196.371,200.203,235.963,239.795,243.627,246.371,250.203,254.035,285.402,289.402,293.898,297.562,300.474,331.834,335.665,339.497,340.825,344.657,347.025,353.521,357.769,362.017,364.433,368.681,371.59299999999996,383.537,389.697,391.361,395.689,397.353,399.017,403.265,407.097,409.448,413.696,418.024,421.856,426.104,428.44,432.016,436.344,440.672,443.0,447.248,450.824,454.32,458.568,476.12,481.2" y="704.795" svg_rhmargin="484.864" style="fill:#000000;font-family:LFAGOP+FlrwhjAdvTTb5929f4c;font-size:8.0px;font-style:NORMAL;font-weight:normal;">Wang et al. [16] China 56.4/ 54.2 42/39 RCTs 36.1 months Midline open approach NS</text>
  <text x="56.709,63.205,66.781,71.029,75.357,77.741,81.573,83.98899999999999,86.357,89.933,91.597,92.925,95.316,97.356,101.188,105.012,107.092,125.308,129.804,134.052,135.716,139.964,143.54,169.412,173.243,177.075,178.403,182.235,184.979,188.811,192.643,193.971,197.803,235.971,239.803,243.635,246.379,250.211,254.043,285.41,289.41,293.906,297.57,300.48199999999997,331.842,335.673,339.505,340.833,344.665,347.033,353.529,357.777,362.025,364.441,368.689,371.601,383.545,389.705,391.369,395.697,397.361,399.025,403.273,407.105,409.456,413.704,418.032,421.864,426.11199999999997,428.448,432.024,436.352,440.68,443.008,447.256,450.832,454.328,458.57599999999996,476.128,481.128,485.376,487.04,488.703,492.279,494.695,498.527,500.855,504.431,506.09499999999997,508.439,512.015,516.343,520.671,522.999,527.247,530.823,534.319" y="718.795" svg_rhmargin="538.567" style="fill:#000000;font-family:LFAGOP+FlrwhjAdvTTb5929f4c;font-size:8.0px;font-style:NORMAL;font-weight:normal;">Wang et al. [17] China 47.9/53.2 42/43 RCTs 26.3 months Midline open approach Unilateral approach</text>
  <text x="56.693,60.333,64.197,67.473" y="731.968" svg_rhmargin="70.021" style="fill:#000000;font-family:LFAHPA+QtcjhyAdvTT7329fd89.I;font-size:7.0px;font-style:NORMAL;font-weight:normal;">RCTs</text>
  <text svg_rhmargin="157.904" x="70.07,71.449,73.528,75.782,79.135,82.999,86.932,90.719,96.55,98.244,101.233,104.733,108.667,110.774,113.903,117.69,121.554,123.808,126.062,129.94,131.543,133.146,136.646,140.57999999999998,142.694,144.948,147.202,148.805,152.158,153.761,156.525,157.904" y="731.968" style="fill:#000000;font-family:LFAGOO+StdmdpAdvTTe45e47d2;font-size:7.0px;font-style:NORMAL;font-weight:normal;">, randomized controlled trials, </text>
  <text x="160.039,165.429,167.032,169.146,172.422,175.481,177.161" y="731.968" svg_rhmargin="180.367" style="fill:#000000;font-family:LFAHPA+QtcjhyAdvTT7329fd89.I;font-size:7.0px;font-style:NORMAL;font-weight:normal;">MI-TLIF</text>
  <text svg_rhmargin="357.318" x="180.339,181.718,183.853,189.684,191.287,195.151,196.754,202.585,205.938,207.541,209.144,212.42000000000002,214.583,216.186,220.05,223.403,226.755,229.52,231.123,234.476,237.976,240.097,242.351,244.605,248.035,251.899,254.664,256.701,260.488,262.742,266.095,271.926,273.529,277.393,280.746,282.349,284.491,286.094,289.881,295.711,299.645,303.089,305.343,307.457,309.06,312.924,315.178,318.678,320.932,324.866,328.653,332.587,335.863,338.012,340.049,343.836,346.601,348.204,352.075,355.939,357.31800000000004" y="731.968" style="fill:#000000;font-family:LFAGOO+StdmdpAdvTTe45e47d2;font-size:7.0px;font-style:NORMAL;font-weight:normal;">, minimally invasive transforaminal lumbar interbody fusion, </text>
  <text x="359.376,364.038,366.151,369.427,372.486,374.173" y="731.968" svg_rhmargin="377.379" style="fill:#000000;font-family:LFAHPA+QtcjhyAdvTT7329fd89.I;font-size:7.0px;font-style:NORMAL;font-weight:normal;">O-TLIF</text>
  <text svg_rhmargin="515.249" x="377.344,378.723,380.858,384.645,388.579,392.079,395.943,398.092,400.346,402.6,405.953,409.817,412.582,414.619,418.406,420.66,424.013,429.844,431.447,435.31,438.663,440.266,442.485,444.088,447.875,453.706,457.64,460.993,463.247,465.389,466.992,470.856,473.11,476.61,478.864,482.798,486.585,490.519,493.795,495.944,497.98,501.767,504.532,506.135,510.006,513.87,515.249" y="731.968" style="fill:#000000;font-family:LFAGOO+StdmdpAdvTTe45e47d2;font-size:7.0px;font-style:NORMAL;font-weight:normal;">, open transforaminal lumbar interbody fusion, </text>
  <text x="517.377,521.752" y="731.968" svg_rhmargin="524.958" style="fill:#000000;font-family:LFAHPA+QtcjhyAdvTT7329fd89.I;font-size:7.0px;font-style:NORMAL;font-weight:normal;">NS</text>
  <text x="56.686,60.55,64.337,66.59100000000001,68.705,71.47,73.724,77.077,79.331,82.83" y="740.473" svg_rhmargin="86.764" style="fill:#000000;font-family:LFAGOO+StdmdpAdvTTe45e47d2;font-size:7.0px;font-style:NORMAL;font-weight:normal;">not stated</text>
  <path d=" M 60.71799850463867 702.2550048828125 L 534.5570068359375 702.2550048828125 L 534.5570068359375 702.0280151367188 L 60.71799850463867 702.0280151367188" style="fill:none;stroke:#131413;stroke-width:0.0;"/>
  <path d=" M 534.5570068359375 702.2550048828125 L 535.2940063476562 702.197998046875 C 536.8519897460938 702.0260009765625 538.333984375 700.4860229492188 538.5260009765625 698.9669799804688 L 538.58203125 698.2869873046875 L 538.35498046875 698.2869873046875 L 538.2990112304688 698.9100341796875 C 538.083984375 700.3889770507812 536.7509765625 701.7470092773438 535.2369995117188 701.9719848632812 L 534.5570068359375 702.0280151367188" style="fill:none;stroke:#131413;stroke-width:0.0;"/>
  <path d=" M 538.5830078125 698.2860107421875 L 538.5830078125 379.72900390625 L 538.3560180664062 379.72900390625 L 538.3560180664062 698.2860107421875" style="fill:none;stroke:#131413;stroke-width:0.0;"/>
  <path d=" M 538.5830078125 379.72900390625 L 538.5260009765625 379.04901123046875 C 538.3350219726562 377.52899169921875 536.85302734375 375.989013671875 535.2949829101562 375.8170166015625 L 534.5579833984375 375.760009765625 L 534.5579833984375 375.98699951171875 L 535.238037109375 376.04400634765625 C 536.7039794921875 376.2619934082031 538.0809936523438 377.6400146484375 538.2999877929688 379.1050109863281 L 538.3560180664062 379.72900390625" style="fill:none;stroke:#131413;stroke-width:0.0;"/>
  <path d=" M 534.5570068359375 375.7610168457031 L 60.718017578125 375.7610168457031 L 60.718017578125 375.9880065917969 L 534.5570068359375 375.9880065917969" style="fill:none;stroke:#131413;stroke-width:0.0;"/>
  <path d=" M 60.718017578125 375.7610168457031 L 59.98101806640625 375.8180236816406 C 58.42201614379883 375.9900207519531 56.941017150878906 377.5290222167969 56.74901580810547 379.04901123046875 L 56.693016052246094 379.7300109863281 L 56.92001724243164 379.7300109863281 L 56.976016998291016 379.10601806640625 C 57.19501876831055 377.6400146484375 58.572017669677734 376.2630310058594 60.03801727294922 376.04400634765625 L 60.718017578125 375.9880065917969" style="fill:none;stroke:#131413;stroke-width:0.0;"/>
  <path d=" M 56.69300842285156 379.72900390625 L 56.69300842285156 698.2860107421875 L 56.92000961303711 698.2860107421875 L 56.92000961303711 379.72900390625" style="fill:none;stroke:#131413;stroke-width:0.0;"/>
  <path d=" M 56.69300842285156 698.2860107421875 L 56.75000762939453 698.9660034179688 C 56.941009521484375 700.4860229492188 58.42300796508789 702.0250244140625 59.98101043701172 702.197998046875 L 60.71800994873047 702.2540283203125 L 60.71800994873047 702.0280151367188 L 60.03800964355469 701.9710083007812 C 58.524009704589844 701.7470092773438 57.19200897216797 700.3890380859375 56.976009368896484 698.9100341796875 L 56.92000961303711 698.2860107421875" style="fill:none;stroke:#131413;stroke-width:0.0;"/>
  <path d="M56.692 612.516 L538.583 612.516 L538.583 612.686 L56.692 612.686 M60.717 97.744 L534.557 97.744 L534.557 97.971 L60.717 97.971 M534.557 97.744 L535.294 97.802 C536.852 97.973 538.334 99.513 538.526 101.033 L538.582 101.713 L538.354 101.713 L538.299 101.089 C538.084 99.611 536.751 98.252 535.237 98.028 L534.557 97.971 M538.583 101.713 L538.583 420.27 L538.356 420.27 L538.356 101.713 M538.583 420.27 L538.526 420.95 C538.335 422.471 536.853 424.01 535.295 424.182 L534.557 424.239 L534.557 424.013 L535.238 423.955 C536.704 423.738 538.081 422.359 538.3 420.894 L538.356 420.27 M534.557 424.238 L60.718 424.238 L60.718 424.011 L534.557 424.011 M60.718 424.238 L59.981 424.181 C58.422 424.009 56.941 422.47 56.749 420.95 L56.693 420.269 L56.92 420.269 L56.976 420.893 C57.195 422.359 58.572 423.736 60.038 423.955 L60.718 424.011 M56.693 420.27 L56.693 101.713 L56.92 101.713 L56.92 420.27 M56.693 101.713 L56.75 101.033 C56.941 99.513 58.423 97.974 59.981 97.802 L60.718 97.745 L60.718 97.971 L60.038 98.028 C58.524 98.252 57.192 99.61 56.976 101.089 L56.92 101.713 M155.679 103.981 L439.54 103.981 L439.54 405.984 L155.679 405.984 " style="fill:none;stroke:#000000;stroke-width:1.0;"/>
  <rect style="stroke:blue;stroke-width:0.3;" x="155.679" y="103.981" height="302.003" width="283.868" title="3"/>
  <text x="155.679" y="103.981" class="image" id="image.3.1" width="283" height="302">image.3.1.156_440.104_406</text>
  <text svg_rhmargin="82.478" x="62.702,66.862,69.022,73.686,75.686,78.062,82.478" y="418.003" style="fill:#131413;font-family:LFAGKP+FdhjmmAdvTTaf7f9f4f.B;font-size:8.0px;font-style:NORMAL;font-weight:normal;">Fig. 1 </text>
  <text x="84.87,88.534,90.198,94.446,100.19,102.558,106.806,108.886,111.23,113.646,115.974,117.638,121.214,122.878,125.79,128.181,130.597,134.845,137.173,141.421,145.581,149.909,154.15699999999998,156.525,158.941,163.189,167.021,169.397,175.893,179.725,182.141,185.717,188.045,191.621,195.869,199.445,201.029,204.525,207.436,209.1" y="418.003" svg_rhmargin="212.012" style="fill:#131413;font-family:LFAGOP+FlrwhjAdvTTb5929f4c;font-size:8.0px;font-style:NORMAL;font-weight:normal;">Flow of trials through the meta-analysis</text>
  <text svg_rhmargin="62.27" x="56.694,60.438,62.27" y="48.144000000000005" style="fill:#131413;font-family:LFAGOO+StdmdpAdvTTe45e47d2;font-size:8.0px;font-style:NORMAL;font-weight:normal;">Li </text>
  <text svg_rhmargin="230.052" x="64.686,68.262,70.758,73.134,77.294,79.038,80.702,83.054,85.886,90.046,94.206,96.702,100.95,105.11,106.854,109.246,113.406,115.65400000000001,118.03,123.358,125.854,128.349,132.597,136.757,140.917,145.077,148.653,152.813,154.485,157.81300000000002,160.213,163.877,168.037,170.533,174.693,178.269,180.765,184.261,186.629,190.789,195.037,199.197,201.596,205.756,209.332,212.244,215.82,219.98,222.476,225.804,230.052" y="48.144000000000005" style="fill:#131413;font-family:LFAHPA+QtcjhyAdvTT7329fd89.I;font-size:8.0px;font-style:NORMAL;font-weight:normal;">et al. Journal of Orthopaedic Surgery and Research </text>
  <text svg_rhmargin="280.604" y="48.144000000000005" x="234.076,236.348,240.452,244.556,248.66,252.764,255.036,256.732,260.836,264.94,266.596,270.7,274.804,278.908,280.60400000000004" style="fill:#131413;font-family:MyriadPro-Regular;font-size:8.0px;font-style:NORMAL;font-weight:normal;">(2018) 13:241 </text>
  <text x="496.057,500.305,504.137,508.553,512.553,514.937,519.017,521.401,525.729,528.057,530.416,534.496" y="48.144000000000005" svg_rhmargin="538.576" style="fill:#131413;font-family:LFAGOO+StdmdpAdvTTe45e47d2;font-size:8.0px;font-style:NORMAL;font-weight:normal;">Page 3 of 10</text>
 </g>
</svg>
