<?xml version="1.0" encoding="UTF-8"?>
<svg height="744.236" width="548.9720601076924" xmlns="http://www.w3.org/2000/svg">
 <g style="fill:none;">
  <text svg_rhmargin="181.801" x="56.693,59.241,64.337,68.11,71.883,75.062,78.217,83.519,87.9,93.31,96.435,102.962,109.695,116.633,119.792,124.173,126.721,131.817,137.311,141.692,144.794,147.95,157.847,167.017,174.161,176.088,181.801" y="380.473" style="fill:#131413;font-family:FCMIGM+KvhklmAdvTT86d47313;font-size:9.8px;font-style:NORMAL;font-weight:normal;">loss than TXA alone (WMD = </text>
  <text svg_rhmargin="189.455" x="183.742,189.45499999999998" y="380.473" style="fill:#131413;font-family:FCNEAN+FknhhmAdvTT86d47313+22;font-size:9.8px;font-style:NORMAL;font-weight:normal;">− </text>
  <text svg_rhmargin="253.054" x="191.452,196.352,201.252,206.152,208.289,213.188,218.088,220.224,223.371,228.271,233.17,240.00099999999998,243.157,249.791,253.054" y="380.473" style="fill:#131413;font-family:FCMIGM+KvhklmAdvTT86d47313;font-size:9.8px;font-style:NORMAL;font-weight:normal;">209.79, 95% CI </text>
  <text svg_rhmargin="261.908" x="256.195,261.908" y="380.473" style="fill:#131413;font-family:FCNEAN+FknhhmAdvTT86d47313+22;font-size:9.8px;font-style:NORMAL;font-weight:normal;">− </text>
  <text x="263.849,268.749,273.649,278.549,280.685,285.585" y="380.473" svg_rhmargin="290.485" style="fill:#131413;font-family:FCMIGM+KvhklmAdvTT86d47313;font-size:9.8px;font-style:NORMAL;font-weight:normal;">322.58</text>
  <text svg_rhmargin="64.945" x="56.694,59.849,64.945" y="392.491" style="fill:#131413;font-family:FCMIGM+KvhklmAdvTT86d47313;font-size:9.8px;font-style:NORMAL;font-weight:normal;">to </text>
  <text svg_rhmargin="74.313" x="68.6,74.31299999999999" y="392.491" style="fill:#131413;font-family:FCNEAN+FknhhmAdvTT86d47313+22;font-size:9.8px;font-style:NORMAL;font-weight:normal;">− </text>
  <text svg_rhmargin="100.183" x="76.31,81.21,86.11,88.247,93.147,98.047,100.18299999999999" y="392.491" style="fill:#131413;font-family:FCMIGM+KvhklmAdvTT86d47313;font-size:9.8px;font-style:NORMAL;font-weight:normal;">97.02, </text>
  <text svg_rhmargin="109.371" x="103.863,109.371" y="392.491" style="fill:#131413;font-family:FCMNCG+XpjqrfAdvTT8861b38f.I;font-size:9.8px;font-style:NORMAL;font-weight:normal;">P </text>
  <text svg_rhmargin="142.872" x="111.346,117.059,119.0,123.9,126.036,130.936,135.836,140.736,142.87199999999999" y="392.491" style="fill:#131413;font-family:FCMIGM+KvhklmAdvTT86d47313;font-size:9.8px;font-style:NORMAL;font-weight:normal;">= 0.000; </text>
  <text x="146.609" y="392.491" svg_rhmargin="149.765" style="fill:#131413;font-family:FCMNCG+XpjqrfAdvTT8861b38f.I;font-size:9.8px;font-style:NORMAL;font-weight:normal;">I</text>
  <text svg_rhmargin="153.458" x="149.783,153.458" y="392.491" style="fill:#131413;font-family:FCMIGM+KvhklmAdvTT86d47313;font-size:6.53px;font-style:NORMAL;font-weight:normal;">2 </text>
  <text svg_rhmargin="188.939" x="155.395,161.108,163.049,167.949,172.849,174.985,179.885,186.803,188.939" y="392.491" style="fill:#131413;font-family:FCMIGM+KvhklmAdvTT86d47313;font-size:9.8px;font-style:NORMAL;font-weight:normal;">= 86.5%, </text>
  <text svg_rhmargin="198.094" x="192.586,198.09400000000002" y="392.491" style="fill:#131413;font-family:FCMNCG+XpjqrfAdvTT8861b38f.I;font-size:9.8px;font-style:NORMAL;font-weight:normal;">P </text>
  <text x="200.012,205.725,207.723,212.623,214.759,219.659,224.559,229.459,231.595,235.276,240.372,242.92,247.614,249.75,253.474,258.349,261.505,263.641,267.306,273.833,279.135,284.436,288.397" y="392.491" svg_rhmargin="290.533" style="fill:#131413;font-family:FCMIGM+KvhklmAdvTT86d47313;font-size:9.8px;font-style:NORMAL;font-weight:normal;">= 0.000, Fig. 5). Thus,</text>
  <text x="56.694,63.524,67.905,73.021,78.323,82.096,86.476,91.67999999999999,96.775,101.156,106.243,109.918,114.298,119.792,124.996,130.092,138.255,141.822,146.203,149.055,151.906,156.473,160.854,164.127,167.9,173.027,181.191,186.286,191.49,195.871,198.419,203.528,206.684,211.78,216.908,222.112,227.208,232.304,234.852,239.982,243.138,248.439,252.82,257.954,261.629,266.01,268.558,273.034,277.523,281.903,287.313" y="404.453" svg_rhmargin="290.469" style="fill:#131413;font-family:FCMIGM+KvhklmAdvTT86d47313;font-size:9.8px;font-style:NORMAL;font-weight:normal;">we used a random-effects model to pool the relevant</text>
  <text x="56.694,61.897,66.278,69.433,73.814" y="416.472" svg_rhmargin="75.95" style="fill:#131413;font-family:FCMIGM+KvhklmAdvTT86d47313;font-size:9.8px;font-style:NORMAL;font-weight:normal;">data.</text>
  <text x="56.693,62.627,64.826,69.803,74.78,79.086,84.063,86.91,91.887,94.086,99.063,104.04,109.01700000000001,111.798,113.997,118.974,122.608" y="440.454" svg_rhmargin="126.242" style="fill:#131413;font-family:FCNIJC+CfsvmvAdvTT83913201.I;font-size:9.2px;font-style:NORMAL;font-weight:normal;">Hidden blood loss</text>
  <text x="56.693,61.789,64.176,68.664,73.045,75.628,79.401,82.375,87.676,92.75,95.188,99.568,103.341,105.903,112.734,116.958,120.633,125.014,127.56,131.755,136.244,140.486,143.034,145.418,149.799,154.772,157.21,161.591,164.24,167.092,172.063,175.738,178.356,182.736,187.994,192.374,194.74,199.121,202.734,205.282,210.557,215.25099999999998,217.871,223.173,225.581,230.785,235.786,240.167,245.577,248.145,253.241,255.628,260.724,265.663,270.867,273.486,276.034,281.026,284.799,288.397" y="452.473" svg_rhmargin="290.533" style="fill:#131413;font-family:FCMIGM+KvhklmAdvTT86d47313;font-size:9.8px;font-style:NORMAL;font-weight:normal;">Five studies were available for analysing hidden blood loss.</text>
  <text svg_rhmargin="290.528" x="56.693,63.22,69.789,76.727,80.277,85.481,87.874,93.176,96.949,100.403,107.548,112.876,118.384,121.947,124.385,128.765,133.969,137.424,140.58,145.67600000000002,149.16,152.933,155.283,159.977,165.261,167.699,170.551,172.972,177.352,181.589,186.998,189.979,192.418,196.799,200.355,202.903,207.158,210.931,214.704,218.099,223.401,225.81,231.014,236.071,240.452,245.862,249.281,254.377,256.821,261.81,266.906,272.11,275.586,278.025,283.121,286.755,290.528" y="380.473" style="fill:#131413;font-family:FCMIGM+KvhklmAdvTT86d47313;font-size:9.8px;font-style:NORMAL;font-weight:normal;">TXA plus DEP led to significantly less hidden blood loss </text>
  <text svg_rhmargin="409.934" x="304.723,307.879,313.057,317.438,322.848,325.756,332.283,338.853,345.791,348.774,353.155,355.577,360.566,365.976,370.35699999999997,373.266,376.422,386.192,395.277,402.421,404.221,409.934" y="380.473" style="fill:#131413;font-family:FCMIGM+KvhklmAdvTT86d47313;font-size:9.8px;font-style:NORMAL;font-weight:normal;">than TXA alone (WMD = </text>
  <text svg_rhmargin="417.529" x="411.816,417.529" y="380.473" style="fill:#131413;font-family:FCNEAN+FknhhmAdvTT86d47313+22;font-size:9.8px;font-style:NORMAL;font-weight:normal;">− </text>
  <text svg_rhmargin="479.995" x="419.356,424.256,428.994,433.894,435.911,440.811,445.549,447.685,450.652,455.552,460.29,467.12100000000004,470.098,476.732,479.995" y="380.473" style="fill:#131413;font-family:FCMIGM+KvhklmAdvTT86d47313;font-size:9.8px;font-style:NORMAL;font-weight:normal;">297.74, 95% CI </text>
  <text svg_rhmargin="488.621" x="482.908,488.62100000000004" y="380.473" style="fill:#131413;font-family:FCNEAN+FknhhmAdvTT86d47313+22;font-size:9.8px;font-style:NORMAL;font-weight:normal;">− </text>
  <text svg_rhmargin="528.01" x="490.505,495.405,500.143,505.043,507.003,511.903,516.803,519.759,522.914,528.01" y="380.473" style="fill:#131413;font-family:FCMIGM+KvhklmAdvTT86d47313;font-size:9.8px;font-style:NORMAL;font-weight:normal;">379.06 to </text>
  <text x="530.927" y="380.473" svg_rhmargin="536.64" style="fill:#131413;font-family:FCNEAN+FknhhmAdvTT86d47313+22;font-size:9.8px;font-style:NORMAL;font-weight:normal;">−</text>
  <text svg_rhmargin="332.995" x="304.723,309.622,314.361,319.261,321.221,326.121,330.859,332.995" y="392.491" style="fill:#131413;font-family:FCMIGM+KvhklmAdvTT86d47313;font-size:9.8px;font-style:NORMAL;font-weight:normal;">216.42, </text>
  <text svg_rhmargin="342.375" x="336.867,342.375" y="392.491" style="fill:#131413;font-family:FCMNCG+XpjqrfAdvTT8861b38f.I;font-size:9.8px;font-style:NORMAL;font-weight:normal;">P </text>
  <text svg_rhmargin="375.369" x="344.238,349.951,351.778,356.678,358.694,363.594,368.333,373.233,375.369" y="392.491" style="fill:#131413;font-family:FCMIGM+KvhklmAdvTT86d47313;font-size:9.8px;font-style:NORMAL;font-weight:normal;">= 0.000; </text>
  <text x="379.104" y="392.491" svg_rhmargin="382.26" style="fill:#131413;font-family:FCMNCG+XpjqrfAdvTT8861b38f.I;font-size:9.8px;font-style:NORMAL;font-weight:normal;">I</text>
  <text svg_rhmargin="385.842" x="382.167,385.842" y="392.491" style="fill:#131413;font-family:FCMIGM+KvhklmAdvTT86d47313;font-size:6.53px;font-style:NORMAL;font-weight:normal;">2 </text>
  <text svg_rhmargin="422.769" x="389.707,395.42,397.304,402.204,406.942,409.078,413.802,420.633,422.769" y="392.491" style="fill:#131413;font-family:FCMIGM+KvhklmAdvTT86d47313;font-size:9.8px;font-style:NORMAL;font-weight:normal;">= 65.8%, </text>
  <text svg_rhmargin="432.009" x="426.501,432.00899999999996" y="392.491" style="fill:#131413;font-family:FCMNCG+XpjqrfAdvTT8861b38f.I;font-size:9.8px;font-style:NORMAL;font-weight:normal;">P </text>
  <text x="433.927,439.64000000000004,441.467,446.367,448.384,453.284,457.965,462.865,465.00100000000003,468.793,473.782,476.33,480.869,483.00500000000005,486.878,491.697,494.852,496.988,500.711,507.06,512.362,517.548,521.46,523.596,527.412,534.243" y="392.491" svg_rhmargin="538.624" style="fill:#131413;font-family:FCMIGM+KvhklmAdvTT86d47313;font-size:9.8px;font-style:NORMAL;font-weight:normal;">= 0.020, Fig. 6). Thus, we</text>
  <text x="304.724,310.026,313.625,318.006,323.21,325.701,330.082,332.674,336.349,340.555,345.964,351.042,356.032,364.195,367.653,372.034,374.684,377.536,381.916,386.193,389.348,393.12100000000004,395.717,403.881,408.813,414.017,418.281,420.829,423.383,426.539,431.635,434.155,439.359,444.303,449.292,451.84,454.395,457.551,462.729,467.11,469.703,473.378,477.583,480.021,484.402,488.89,493.173,498.583,501.73900000000003,504.229,509.432,513.64,516.795,521.066" y="404.453" svg_rhmargin="523.202" style="fill:#131413;font-family:FCMIGM+KvhklmAdvTT86d47313;font-size:9.8px;font-style:NORMAL;font-weight:normal;">used a random-effects model to pool the relevant data.</text>
  <text x="304.724,307.024,312.002,314.964,318.12,323.005,327.982,332.959,337.265,340.421,345.429,348.392,350.591,354.997,359.303,362.097,367.074,369.273,374.25,379.228,384.205,386.985,389.184,394.161,397.795" y="428.491" svg_rhmargin="401.429" style="fill:#131413;font-family:FCNIJC+CfsvmvAdvTT83913201.I;font-size:9.2px;font-style:NORMAL;font-weight:normal;">Intraoperative blood loss</text>
  <text x="304.724,309.82,314.916,320.218,323.89300000000003,327.458,331.231,334.387,339.688,344.976,347.524,351.905,355.678,359.263,366.093,370.474,374.149,378.53,382.11,386.491,390.979,395.263,397.811,400.359,404.739,409.835,412.498,416.879,420.378,423.23,428.326,432.00100000000003,435.572,439.952,445.362,449.742,452.29,456.775,460.548,463.096,466.869,470.438,475.534,478.38599999999997,481.947,484.495,489.904,493.06,496.735,501.115,506.211,511.415,515.795,519.47,523.851,527.131,529.679,534.167" y="440.454" svg_rhmargin="538.548" style="fill:#131413;font-family:FCMIGM+KvhklmAdvTT86d47313;font-size:9.8px;font-style:NORMAL;font-weight:normal;">Four studies were available for analysis of intraoperative</text>
  <text x="304.724,309.82,312.368,317.464,322.56,327.764,330.747,333.295,338.391,342.164,345.937,348.07300000000004,351.043,357.57,364.303,371.241,374.174,379.378,381.926,387.228,391.00100000000003,393.96,401.104,406.612,412.12,415.106,417.654,422.035,427.23900000000003,430.186,433.342,438.438,441.355,445.128,447.676,452.37,457.78,460.328,463.18,465.728,470.212,474.593,480.002,483.158,485.706,490.087,493.06,495.608,499.988,503.761,507.53400000000005,510.464,515.766,518.314,523.518,528.721,533.198" y="452.472" svg_rhmargin="538.608" style="fill:#131413;font-family:FCMIGM+KvhklmAdvTT86d47313;font-size:9.8px;font-style:NORMAL;font-weight:normal;">blood loss. TXA plus DEP led to significantly less hidden</text>
  <text svg_rhmargin="459.427" x="304.724,309.82,312.368,317.464,322.56,327.764,331.597,334.145,339.241,343.013,346.786,350.646,353.801,359.103,363.483,368.89300000000003,372.699,379.226,385.959,392.897,396.737,401.118,403.666,408.762,414.256,418.63699999999994,422.419,425.575,435.473,444.557,451.701,453.714,459.427" y="464.491" style="fill:#131413;font-family:FCMIGM+KvhklmAdvTT86d47313;font-size:9.8px;font-style:NORMAL;font-weight:normal;">blood loss than TXA alone (WMD = </text>
  <text svg_rhmargin="467.079" x="461.366,467.079" y="464.491" style="fill:#131413;font-family:FCNEAN+FknhhmAdvTT86d47313+22;font-size:9.8px;font-style:NORMAL;font-weight:normal;">− </text>
  <text svg_rhmargin="527.106" x="469.02,473.92,478.884,481.021,485.921,490.821,492.95700000000005,496.743,501.643,506.543,513.374,517.209,523.843,527.106" y="464.491" style="fill:#131413;font-family:FCMIGM+KvhklmAdvTT86d47313;font-size:9.8px;font-style:NORMAL;font-weight:normal;">74.35, 95% CI </text>
  <text x="530.928" y="464.491" svg_rhmargin="536.641" style="fill:#131413;font-family:FCNEAN+FknhhmAdvTT86d47313+22;font-size:9.8px;font-style:NORMAL;font-weight:normal;">−</text>
  <path d=" M 60.71799850463867 702.2550048828125 L 534.5570068359375 702.2550048828125 L 534.5570068359375 702.0280151367188 L 60.71799850463867 702.0280151367188" style="fill:none;stroke:#131413;stroke-width:0.0;"/>
  <path d=" M 534.5570068359375 702.2550048828125 L 535.2940063476562 702.197998046875 C 536.8519897460938 702.0260009765625 538.333984375 700.4860229492188 538.5260009765625 698.9669799804688 L 538.58203125 698.2869873046875 L 538.35498046875 698.2869873046875 L 538.2990112304688 698.9100341796875 C 538.083984375 700.3889770507812 536.7509765625 701.7470092773438 535.2369995117188 701.9719848632812 L 534.5570068359375 702.0280151367188" style="fill:none;stroke:#131413;stroke-width:0.0;"/>
  <path d=" M 538.5830078125 698.2860107421875 L 538.5830078125 451.8420104980469 L 538.3560180664062 451.8420104980469 L 538.3560180664062 698.2860107421875" style="fill:none;stroke:#131413;stroke-width:0.0;"/>
  <path d=" M 538.5830078125 451.8420104980469 L 538.5260009765625 451.1620178222656 C 538.3350219726562 449.6419982910156 536.85302734375 448.1020202636719 535.2949829101562 447.9300231933594 L 534.5579833984375 447.8730163574219 L 534.5579833984375 448.1000061035156 L 535.238037109375 448.1570129394531 C 536.7039794921875 448.375 538.0809936523438 449.7530212402344 538.2999877929688 451.218017578125 L 538.3560180664062 451.8420104980469" style="fill:none;stroke:#131413;stroke-width:0.0;"/>
  <path d=" M 534.5570068359375 447.8739929199219 L 60.718017578125 447.8739929199219 L 60.718017578125 448.1009826660156 L 534.5570068359375 448.1009826660156" style="fill:none;stroke:#131413;stroke-width:0.0;"/>
  <path d=" M 60.717987060546875 447.8739929199219 L 59.980987548828125 447.9309997558594 C 58.42298889160156 448.1029968261719 56.94098663330078 449.6419982910156 56.748985290527344 451.1619873046875 L 56.69298553466797 451.8429870605469 L 56.919986724853516 451.8429870605469 L 56.97598648071289 451.218994140625 C 57.19498825073242 449.75299072265625 58.57198715209961 448.3760070800781 60.037986755371094 448.156982421875 L 60.717987060546875 448.1009826660156" style="fill:none;stroke:#131413;stroke-width:0.0;"/>
  <path d=" M 56.69298553466797 451.8420104980469 L 56.69298553466797 698.2860107421875 L 56.919986724853516 698.2860107421875 L 56.919986724853516 451.8420104980469" style="fill:none;stroke:#131413;stroke-width:0.0;"/>
  <path d=" M 56.69298553466797 698.2860107421875 L 56.74998474121094 698.9660034179688 C 56.94098663330078 700.4860229492188 58.4229850769043 702.0250244140625 59.980987548828125 702.197998046875 L 60.717987060546875 702.2540283203125 L 60.717987060546875 702.0280151367188 L 60.037986755371094 701.9710083007812 C 58.52398681640625 701.7470092773438 57.191986083984375 700.3890380859375 56.97598648071289 698.9100341796875 L 56.919986724853516 698.2860107421875" style="fill:none;stroke:#131413;stroke-width:0.0;"/>
  <rect style="stroke:blue;stroke-width:0.3;" x="127.276" y="103.981" height="229.89" width="340.756" title="7"/>
  <text x="127.276" y="103.981" class="image" id="image.7.1" width="340" height="229">image.7.1.127_468.104_334</text>
  <text svg_rhmargin="82.482" x="62.702,66.862,69.022,73.686,75.686,78.066,82.482" y="345.89" style="fill:#131413;font-family:FCMICI+KmmqjcAdvTTaf7f9f4f.B;font-size:8.0px;font-style:NORMAL;font-weight:normal;">Fig. 6 </text>
  <text x="84.869,88.533,92.781,95.109,98.941,101.853,104.26899999999999,106.583,110.91,112.574,116.822,119.238,121.663,123.743,127.991,130.319,132.661,135.077,139.325,143.15699999999998,145.531,149.027,153.275,159.771,164.099,167.675,170.003,171.667,174.578,178.826,183.07399999999998,185.386,189.634,191.714,194.117,198.365,200.029,204.356,208.684,212.516,216.76399999999998,219.118,223.446,225.11,229.358,233.606,237.934,240.264,241.928,246.176,249.088,252.0,254.381,258.709,262.54,264.956,270.7,274.532,278.364,282.61199999999997,284.938,287.354,291.602,295.43399999999997,297.807,301.471,305.799,310.46299999999997,312.831,317.159,318.823,322.983,325.895,328.308,333.468,337.132,341.132,343.502,347.078,351.326,355.654,358.015,361.679,366.007,370.671,373.039,376.615,378.279,382.527,386.775,390.60699999999997,392.995,397.323,399.651,403.899,408.059,412.387" y="345.89" svg_rhmargin="415.299" style="fill:#131413;font-family:FCMIFJ+FjrmrtAdvTTb5929f4c;font-size:8.0px;font-style:NORMAL;font-weight:normal;">Forest plot for the comparison of hidden blood loss between the TXA plus DEP and TXA alone groups</text>
  <path d=" M 60.71799850463867 315.6090087890625 L 534.5570068359375 315.6090087890625 L 534.5570068359375 315.38201904296875 L 60.71799850463867 315.38201904296875" style="fill:none;stroke:#131413;stroke-width:0.0;"/>
  <path d=" M 534.5570068359375 315.6090087890625 L 535.2940063476562 315.552001953125 C 536.8519897460938 315.3800048828125 538.333984375 313.8399963378906 538.5260009765625 312.3210144042969 L 538.58203125 311.6400146484375 L 538.35498046875 311.6400146484375 L 538.2990112304688 312.2640075683594 C 538.0830078125 313.7440185546875 536.7509765625 315.10101318359375 535.2369995117188 315.3260192871094 L 534.5570068359375 315.38201904296875" style="fill:none;stroke:#131413;stroke-width:0.0;"/>
  <path d=" M 538.5830078125 311.6409912109375 L 538.5830078125 63.55299377441406 L 538.3560180664062 63.55299377441406 L 538.3560180664062 311.6409912109375" style="fill:none;stroke:#131413;stroke-width:0.0;"/>
  <path d=" M 538.5830078125 63.55299377441406 L 538.5260009765625 62.81599426269531 C 538.3309936523438 61.2559928894043 536.781982421875 59.81199264526367 535.2949829101562 59.58399200439453 L 534.5579833984375 59.527992248535156 L 534.5579833984375 59.81099319458008 L 535.238037109375 59.86799240112305 C 536.7850341796875 60.062992095947266 538.010009765625 61.373992919921875 538.2999877929688 62.87299346923828 L 538.3560180664062 63.55299377441406" style="fill:none;stroke:#131413;stroke-width:0.0;"/>
  <path d=" M 534.5570068359375 59.527992248535156 L 60.718017578125 59.527992248535156 L 60.718017578125 59.81099319458008 L 534.5570068359375 59.81099319458008" style="fill:none;stroke:#131413;stroke-width:0.0;"/>
  <path d=" M 60.717987060546875 59.527992248535156 L 59.980987548828125 59.584991455078125 C 58.493988037109375 59.81199264526367 56.94498825073242 61.2559928894043 56.748985290527344 62.81599426269531 L 56.69298553466797 63.55299377441406 L 56.919986724853516 63.55299377441406 L 56.97598648071289 62.87299346923828 C 57.265987396240234 61.373992919921875 58.49098587036133 60.062992095947266 60.037986755371094 59.86799240112305 L 60.717987060546875 59.81199264526367" style="fill:none;stroke:#131413;stroke-width:0.0;"/>
  <path d=" M 56.69298553466797 63.55299377441406 L 56.69298553466797 311.6409912109375 L 56.919986724853516 311.6409912109375 L 56.919986724853516 63.55299377441406" style="fill:none;stroke:#131413;stroke-width:0.0;"/>
  <path d=" M 56.69298553466797 311.6409912109375 L 56.74998474121094 312.32098388671875 C 56.94098663330078 313.84100341796875 58.4229850769043 315.3800048828125 59.980987548828125 315.552978515625 L 60.717987060546875 315.6089782714844 L 60.717987060546875 315.38299560546875 L 60.037986755371094 315.32598876953125 C 58.52398681640625 315.10198974609375 57.191986083984375 313.7439880371094 56.97598648071289 312.2649841308594 L 56.919986724853516 311.6409912109375" style="fill:none;stroke:#131413;stroke-width:0.0;"/>
  <rect style="stroke:blue;stroke-width:0.3;" x="127.276" y="490.627" height="231.59" width="340.756" title="7"/>
  <text x="127.276" y="490.627" class="image" id="image.7.2" width="340" height="231">image.7.2.127_468.491_722</text>
  <text svg_rhmargin="82.482" x="62.702,66.862,69.022,73.686,75.686,78.066,82.482" y="734.236" style="fill:#131413;font-family:FCMICI+KmmqjcAdvTTaf7f9f4f.B;font-size:8.0px;font-style:NORMAL;font-weight:normal;">Fig. 7 </text>
  <text x="84.869,88.533,92.781,95.109,98.941,101.853,104.26899999999999,106.583,110.91,112.574,116.822,119.238,121.663,123.743,127.991,130.319,132.661,135.077,139.325,143.15699999999998,145.531,149.027,153.275,159.771,164.099,167.675,170.003,171.667,174.578,178.826,183.07399999999998,185.386,189.634,191.714,194.117,195.781,200.029,202.445,204.772,208.348,212.596,216.924,220.756,223.084,226.66,228.983,230.647,234.223,238.055,240.491,244.819,246.483,250.731,254.979,259.307,261.637,263.301,267.549,270.461,273.373,275.754,280.082,283.914,286.33,292.074,295.906,299.738,303.986,306.311,308.727,312.975,316.807,319.181,322.845,327.172,331.836,334.204,338.532,340.196,344.356,347.268,349.625,354.785,358.449,362.449,364.818,368.394,372.642,376.96999999999997,379.389,383.053,387.38,392.044,394.412,397.988,399.652,403.9,408.148,411.98,414.311,418.639,420.967,425.215,429.375,433.703" y="734.236" svg_rhmargin="436.615" style="fill:#131413;font-family:FCMIFJ+FjrmrtAdvTTb5929f4c;font-size:8.0px;font-style:NORMAL;font-weight:normal;">Forest plot for the comparison of intraoperative blood loss between the TXA plus DEP and TXA alone groups</text>
  <text svg_rhmargin="115.039" x="56.693,63.437,67.269,71.685,76.101,78.463,82.295,86.711,91.207,93.544,97.959,102.375,106.207,110.623,115.039" y="48.14200000000005" style="fill:#131413;font-family:FCMIFI+GghxhkAdvTTe45e47d2;font-size:8.0px;font-style:NORMAL;font-weight:normal;">Wang and Zhang </text>
  <text svg_rhmargin="264.355" x="117.41,120.242,124.402,128.562,131.058,135.306,139.466,141.21,143.546,147.706,149.95399999999998,152.333,157.661,160.157,162.653,166.901,171.061,175.221,179.381,182.957,187.117,188.787,192.115,194.513,198.177,202.337,204.833,208.993,212.569,215.065,218.561,220.932,225.092,229.34,233.5,235.899,240.059,243.635,246.547,250.123,254.283,256.779,260.107,264.355" y="48.14200000000005" style="fill:#131413;font-family:FCMJCJ+TlfdkfAdvTT7329fd89.I;font-size:8.0px;font-style:NORMAL;font-weight:normal;">Journal of Orthopaedic Surgery and Research </text>
  <text svg_rhmargin="314.906" y="48.14200000000005" x="268.378,270.65,274.754,278.858,282.962,287.066,289.338,291.034,295.138,299.242,300.898,305.002,309.106,313.21,314.906" style="fill:#131413;font-family:MyriadPro-Regular;font-size:8.0px;font-style:NORMAL;font-weight:normal;">(2018) 13:242 </text>
  <text x="496.061,500.309,504.141,508.557,512.557,514.94,519.0200000000001,521.403,525.731,528.059,530.417,534.497" y="48.14200000000005" svg_rhmargin="538.577" style="fill:#131413;font-family:FCMIFI+GghxhkAdvTTe45e47d2;font-size:8.0px;font-style:NORMAL;font-weight:normal;">Page 7 of 11</text>
 </g>
</svg>
