<?xml version="1.0" encoding="UTF-8"?>
<svg height="750.471" width="549.787267277193" xmlns="http://www.w3.org/2000/svg">
 <g style="fill:none;">
  <text x="56.693,59.545,64.687,68.362,71.376,76.678,80.901,84.576,90.879,95.259,99.95,105.153,107.49,112.586,116.107,120.488,126.822,129.978,135.156,139.536,143.15,147.531,153.865,156.413,160.045,163.818,168.946,173.326,177.099,183.346,187.726,192.984,198.18800000000002,204.549,207.704,212.8,219.063,221.501,226.705,230.968,236.378,239.359,241.907,244.631,249.012,255.347,258.502,263.624,268.005,274.339,279.435,283.693,287.466" y="104.49199999999996" svg_rhmargin="290.622" style="fill:#131413;font-family:FCMIGM+KvhklmAdvTT86d47313;font-size:9.8px;font-style:NORMAL;font-weight:normal;">further explore these issues and to identify the best</text>
  <text x="56.693,61.995,66.217,70.598,78.633,83.622,87.395,90.425,94.806,97.796,100.344,104.725,113.046,116.202,120.582,124.838,130.14,135.383,137.821,143.025,148.197,152.577,156.35,164.638,167.49,172.405,176.08,184.481,190.887,198.597,205.741,207.877,216.285,223.116,227.497,235.788,240.992,245.199,248.874,251.548,256.644,260.165,268.329,272.581,277.785,286.13" y="116.45299999999997" svg_rhmargin="290.511" style="fill:#131413;font-family:FCMIGM+KvhklmAdvTT86d47313;font-size:9.8px;font-style:NORMAL;font-weight:normal;">haemostatic techniques for THA, we performed a</text>
  <text x="56.693,64.856,69.108,72.264,76.479,80.046,84.246,89.656,93.884,96.432,100.688,104.461,106.867,110.64,115.201,120.297,123.149,127.674,132.054,134.42,136.968,141.563,144.719,149.897,154.278,158.854,163.049,167.538,171.78,174.328,176.712,181.093,186.066,188.504,192.885,197.518,201.193,205.399,210.808,215.831,220.926,228.983,231.421,235.704,239.926,245.13,249.733,254.114,259.087,264.497,267.478,271.153,276.095,278.533,281.081,285.336" y="128.47199999999998" svg_rhmargin="290.54" style="fill:#131413;font-family:FCMIGM+KvhklmAdvTT86d47313;font-size:9.8px;font-style:NORMAL;font-weight:normal;">meta-analysis of all the available randomized controlled</text>
  <text x="56.693,59.848,63.382,65.821,70.201,72.624,76.39699999999999,78.916,82.072,87.987,94.733,100.346,104.119,107.275,109.756,114.852,117.70400000000001,120.244,125.448,129.655,132.811,135.211,139.591,144.849,148.004,151.777,154.373,161.204,163.615,166.77,172.072,173.819,180.346,187.892,194.83" y="140.49" svg_rhmargin="196.966" style="fill:#131413;font-family:FCMIGM+KvhklmAdvTT86d47313;font-size:9.8px;font-style:NORMAL;font-weight:normal;">trials (RCTs) of patients with THA.</text>
  <text x="56.693,65.376,70.732,74.481,80.486,86.378,92.485" y="175.471" svg_rhmargin="96.883" style="fill:#131413;font-family:FCMICI+KmmqjcAdvTTaf7f9f4f.B;font-size:10.3px;font-style:NORMAL;font-weight:normal;">Methods</text>
  <text x="56.693,62.93,68.088,70.461,74.234,79.928,83.428,87.809,92.045,94.37,98.622,105.453,111.094,117.749,122.13,125.90299999999999,131.469,135.721,140.642,145.876,150.904,156.031,160.236,163.216,167.421,172.625,178.306,182.511,186.716,190.921,195.842,199.341,204.37,206.742,211.976,216.67,222.351,225.356,230.452,236.128,239.076,244.202,248.583,254.236,259.569,263.068,267.273,269.95,274.155,277.654,281.154,285.359" y="187.49" svg_rhmargin="290.563" style="fill:#131413;font-family:FCMIGM+KvhklmAdvTT86d47313;font-size:9.8px;font-style:NORMAL;font-weight:normal;">This review was conducted according to the Preferred</text>
  <text x="56.693,62.531,66.732,71.756,76.673,80.169,83.145,85.513,90.744,95.438,98.397,101.459,104.435,108.636,116.62,120.393,123.367,126.039,130.956,134.631,137.532,142.351,146.603,150.175,153.151,157.353,165.337,169.538,172.514,174.883,179.264,182.253,188.093,192.473,196.71,199.079,203.28,209.931,213.704,216.677,220.878,226.109,231.31300000000002,234.216,243.173,247.374,250.351,254.603,257.948,264.751,269.966,274.167,276.536,280.737,284.331,286.699" y="199.452" svg_rhmargin="290.472" style="fill:#131413;font-family:FCMIGM+KvhklmAdvTT86d47313;font-size:9.8px;font-style:NORMAL;font-weight:normal;">Reporting Items for Systematic Reviews and Meta-Analysis</text>
  <text x="56.693,61.512,64.488,68.689,71.665,75.918,83.913,88.114,93.345,96.501,99.185,101.568,105.161,108.755,113.877,118.078,123.282,125.96,128.328,133.738,136.38,141.1,145.821,150.542,155.442,158.083,161.064,165.77,170.475,173.455,175.591,178.273,183.606,186.586,191.712,194.085,198.29,202.495,205.043,207.71,211.915,216.944,221.972,225.472,230.392,234.705,238.91,241.458,244.126,250.781,255.161,258.934,261.496,266.768,271.689,274.845,277.529,282.763,286.968" y="211.47000000000003" svg_rhmargin="290.535" style="fill:#131413;font-family:FCMIGM+KvhklmAdvTT86d47313;font-size:9.8px;font-style:NORMAL;font-weight:normal;">Statement issued in 2011 [13]. Ethical approval was not ne-</text>
  <text x="56.692,60.895,65.098,68.694,72.289,76.493,79.99,84.371,89.401,92.075,96.994,100.669,105.668,108.616,113.74,116.111,119.884,124.898,128.47,131.449,136.573,141.599,145.802,147.938,152.946,157.326,161.099,166.041,170.973,176.206,178.576,182.957,187.93,192.976,197.179,200.569,202.94,207.966,212.218,217.434,220.412,222.783,225.457,227.827,232.031,237.235,242.235,247.262,252.18,257.099,259.469,263.673,268.877,273.877,278.904,283.107,286.085" y="223.48900000000003" svg_rhmargin="290.466" style="fill:#131413;font-family:FCMIGM+KvhklmAdvTT86d47313;font-size:9.8px;font-style:NORMAL;font-weight:normal;">cessary for this study, as only de-identified pooled data</text>
  <text x="56.692,59.37,62.872,67.794,75.957,78.396,80.77,86.006,91.037,93.411,97.726,100.051,105.081,110.209,114.416,116.964,119.405,123.005,125.987,131.115,136.146,138.52,142.727,146.5,148.964,155.653,159.86,163.319,167.7,170.179,174.374,179.61,183.817,186.192,190.399,193.998,198.205,203.236" y="235.45100000000002" svg_rhmargin="205.372" style="fill:#131413;font-family:FCMIGM+KvhklmAdvTT86d47313;font-size:9.8px;font-style:NORMAL;font-weight:normal;">from individual studies were analysed.</text>
  <text x="56.693,61.385,66.077,70.677,73.934,78.046,83.21600000000001,86.06,89.887,93.042,96.299,100.899,104.055,108.747,114.01,116.31,121.002" y="272.47299999999996" svg_rhmargin="124.829" style="fill:#131413;font-family:FCMIFK+GvlmdfAdvTT99c4c969;font-size:9.2px;font-style:NORMAL;font-weight:normal;">Search strategies</text>
  <text x="56.693,66.696,71.077,76.957,80.835,85.32,89.806,93.586,98.071,103.478,108.013,113.217,119.068,124.681,130.087,135.288,144.477,148.963,154.271,156.40699999999998,162.265,167.878,176.146,181.347,185.939,189.794,194.175,200.112,204.591,210.105,215.309,221.161,227.9,233.101,237.586,242.993,246.773,251.258,256.773,261.154,267.091,273.725,279.394,286.99" y="284.49199999999996" svg_rhmargin="290.557" style="fill:#131413;font-family:FCMIGM+KvhklmAdvTT86d47313;font-size:9.8px;font-style:NORMAL;font-weight:normal;">We searched PubMed, Embase and Cochrane CEN-</text>
  <text x="56.693,63.344,69.75,76.813,82.321,86.734,89.711,94.931,98.606,103.039,106.837,111.342,114.014,118.607,123.199,127.704,133.238,136.394,140.949,144.804,148.084,153.51,158.838,161.386,165.981,169.754,174.145,177.121,180.863,186.083,194.246,198.669,201.949,207.375,211.756,216.22,219.508,222.055,230.392,234.773,239.237,244.452,247.304,251.709,254.374,259.908,264.413,268.918,274.19,277.47,280.018,285.238" y="296.453" svg_rhmargin="290.648" style="fill:#131413;font-family:FCMIGM+KvhklmAdvTT86d47313;font-size:9.8px;font-style:NORMAL;font-weight:normal;">TRAL for relevant studies from the time of inception</text>
  <text x="56.693,61.892,64.744,71.246,74.504,79.909,84.444,88.3,92.681,99.184,104.457,108.94,112.199,116.682,121.881,126.473,130.328,134.812,138.585,145.073,148.332,153.428,159.897,163.057,168.462,171.113,175.494,181.997,187.0,192.003,194.13899999999998,200.62,205.623,210.669,215.672,220.675,222.811,229.292,235.818,241.253,245.634,252.081,255.086,260.182,262.909,265.56,270.759,277.692,280.343,285.856" y="308.472" svg_rhmargin="290.55" style="fill:#131413;font-family:FCMIGM+KvhklmAdvTT86d47313;font-size:9.8px;font-style:NORMAL;font-weight:normal;">of these databases to July 10, 2018. The following</text>
  <text x="56.693,61.492,65.272,70.473,75.879,81.188,84.961,89.578,94.779,97.631,102.262,107.267,111.753,116.238,123.173,128.374,132.154,137.463,141.236,145.91,150.396,155.91,161.114,165.775,174.052,178.537,183.846,186.498,190.984,195.469,198.017,202.669,205.93,210.415,214.195,222.358,226.131,230.863,237.779,242.315,246.056,250.437,255.07,260.513,264.391,268.876,274.08,278.741,281.689,286.89" y="320.49" svg_rhmargin="290.565" style="fill:#131413;font-family:FCMIGM+KvhklmAdvTT86d47313;font-size:9.8px;font-style:NORMAL;font-weight:normal;">groups of keywords and medical terms were used for</text>
  <text svg_rhmargin="150.642" x="56.693,59.956,65.366,69.747,76.761,79.417,82.073,85.336,89.824,93.607,98.096,101.359,106.768,110.551,114.932,121.947,125.802,130.29,134.826,138.608,143.097,148.506,150.642" y="332.452" style="fill:#131413;font-family:FCMIGM+KvhklmAdvTT86d47313;font-size:9.8px;font-style:NORMAL;font-weight:normal;">the literature search: </text>
  <text x="157.662" y="332.452" svg_rhmargin="161.229" style="fill:#131413;font-family:FCMJEK+MvxmdyAdvTT86d47313+20;font-size:9.8px;font-style:NORMAL;font-weight:normal;">“</text>
  <text x="161.29,164.552,168.332,172.819,178.334,182.821,187.719,192.205,200.474,203.128,207.509,214.523,219.01,223.545,226.093" y="332.452" svg_rhmargin="231.297" style="fill:#131413;font-family:FCMIGM+KvhklmAdvTT86d47313;font-size:9.8px;font-style:NORMAL;font-weight:normal;">tranexamic acid</text>
  <text svg_rhmargin="235.043" x="231.476,235.043" y="332.452" style="fill:#131413;font-family:FCMJEK+MvxmdyAdvTT86d47313+20;font-size:9.8px;font-style:NORMAL;font-weight:normal;">” </text>
  <text svg_rhmargin="263.792" x="242.078,249.108,256.648,263.79200000000003" y="332.452" style="fill:#131413;font-family:FCMIGM+KvhklmAdvTT86d47313;font-size:9.8px;font-style:NORMAL;font-weight:normal;">AND </text>
  <text x="270.878" y="332.452" svg_rhmargin="274.445" style="fill:#131413;font-family:FCMJEK+MvxmdyAdvTT86d47313+20;font-size:9.8px;font-style:NORMAL;font-weight:normal;">“</text>
  <text x="274.505,279.022,284.295,286.979" y="332.452" svg_rhmargin="290.546" style="fill:#131413;font-family:FCMIGM+KvhklmAdvTT86d47313;font-size:9.8px;font-style:NORMAL;font-weight:normal;">epi-</text>
  <text x="56.692,62.203,66.686,71.992,77.395,81.172,83.822,89.333" y="344.471" svg_rhmargin="93.714" style="fill:#131413;font-family:FCMIGM+KvhklmAdvTT86d47313;font-size:9.8px;font-style:NORMAL;font-weight:normal;">nephrine</text>
  <text svg_rhmargin="97.393" x="93.826,97.393" y="344.471" style="fill:#131413;font-family:FCMJEK+MvxmdyAdvTT86d47313+20;font-size:9.8px;font-style:NORMAL;font-weight:normal;">” </text>
  <text svg_rhmargin="119.74" x="102.726,105.976,113.723,119.74" y="344.471" style="fill:#131413;font-family:FCMIGM+KvhklmAdvTT86d47313;font-size:9.8px;font-style:NORMAL;font-weight:normal;">(OR </text>
  <text x="125.12" y="344.471" svg_rhmargin="128.687" style="fill:#131413;font-family:FCMJEK+MvxmdyAdvTT86d47313+20;font-size:9.8px;font-style:NORMAL;font-weight:normal;">“</text>
  <text x="128.748,132.035,137.251,140.499,144.971,147.519,152.851,158.294,160.842,166.04600000000002,171.447,175.919,179.686,182.934,188.377,192.144,197.332,202.628,205.268,209.86,213.716,217.003" y="344.471" svg_rhmargin="221.384" style="fill:#131413;font-family:FCMIGM+KvhklmAdvTT86d47313;font-size:9.8px;font-style:NORMAL;font-weight:normal;">total hip arthroplasty</text>
  <text svg_rhmargin="225.064" x="221.497,225.06400000000002" y="344.471" style="fill:#131413;font-family:FCMJEK+MvxmdyAdvTT86d47313+20;font-size:9.8px;font-style:NORMAL;font-weight:normal;">” </text>
  <text svg_rhmargin="244.181" x="230.397,238.164,244.18099999999998" y="344.471" style="fill:#131413;font-family:FCMIGM+KvhklmAdvTT86d47313;font-size:9.8px;font-style:NORMAL;font-weight:normal;">OR </text>
  <text x="249.503" y="344.471" svg_rhmargin="253.07" style="fill:#131413;font-family:FCMJEK+MvxmdyAdvTT86d47313+20;font-size:9.8px;font-style:NORMAL;font-weight:normal;">“</text>
  <text x="253.188,256.45,261.653,264.941,269.419,271.967,277.299,282.685,285.34" y="344.471" svg_rhmargin="290.544" style="fill:#131413;font-family:FCMIGM+KvhklmAdvTT86d47313;font-size:9.8px;font-style:NORMAL;font-weight:normal;">total hip</text>
  <text x="56.691,60.473,64.96,70.271,72.925,77.413,81.9,86.388,94.658,99.145,104.661" y="356.489" svg_rhmargin="107.817" style="fill:#131413;font-family:FCMIGM+KvhklmAdvTT86d47313;font-size:9.8px;font-style:NORMAL;font-weight:normal;">replacement</text>
  <text svg_rhmargin="111.452" x="107.885,111.452" y="356.489" style="fill:#131413;font-family:FCMJEK+MvxmdyAdvTT86d47313+20;font-size:9.8px;font-style:NORMAL;font-weight:normal;">” </text>
  <text svg_rhmargin="214.151" x="119.791,127.547,133.564,142.061,146.544,150.322,153.581,158.985,162.763,167.859,173.251,175.916,180.508,184.363,187.622,192.00300000000001,200.377,208.134,214.15099999999998" y="356.489" style="fill:#131413;font-family:FCMIGM+KvhklmAdvTT86d47313;font-size:9.8px;font-style:NORMAL;font-weight:normal;">OR arthroplasty OR </text>
  <text x="222.518" y="356.489" svg_rhmargin="226.085" style="fill:#131413;font-family:FCMJEK+MvxmdyAdvTT86d47313+20;font-size:9.8px;font-style:NORMAL;font-weight:normal;">“</text>
  <text x="226.146,232.778,240.659" y="356.489" svg_rhmargin="247.597" style="fill:#131413;font-family:FCMIGM+KvhklmAdvTT86d47313;font-size:9.8px;font-style:NORMAL;font-weight:normal;">THA</text>
  <text x="247.689,251.256,259.595" y="356.489" svg_rhmargin="263.162" style="fill:#131413;font-family:FCMJEK+MvxmdyAdvTT86d47313+20;font-size:9.8px;font-style:NORMAL;font-weight:normal;">” “</text>
  <text x="263.28,269.913,277.566" y="356.489" svg_rhmargin="283.583" style="fill:#131413;font-family:FCMIGM+KvhklmAdvTT86d47313;font-size:9.8px;font-style:NORMAL;font-weight:normal;">THR</text>
  <text x="283.689" y="356.489" svg_rhmargin="287.256" style="fill:#131413;font-family:FCMJEK+MvxmdyAdvTT86d47313+20;font-size:9.8px;font-style:NORMAL;font-weight:normal;">”</text>
  <text x="287.374" y="356.489" svg_rhmargin="290.53" style="fill:#131413;font-family:FCMIGM+KvhklmAdvTT86d47313;font-size:9.8px;font-style:NORMAL;font-weight:normal;">)</text>
  <text x="56.691,63.72,71.317,78.461,87.099,90.387,94.129,98.607,104.106,109.435,114.65,122.927,126.494,135.132,142.899,148.916,157.553,162.826,166.624,171.84,175.695,180.967,185.56,190.095,193.326,195.991,200.583,205.061,208.62800000000001,217.266,225.034,231.051,239.688,242.919,246.718,249.382,253.861,256.409,260.153,263.441,265.577,274.215,280.742,286.121" y="368.451" svg_rhmargin="290.502" style="fill:#131413;font-family:FCMIGM+KvhklmAdvTT86d47313;font-size:9.8px;font-style:NORMAL;font-weight:normal;">AND (random* OR prospective* OR trial*). The</text>
  <text x="56.691,59.344,63.829,69.344,74.143,79.549,84.035,88.834,93.215,98.018,104.953,109.546,113.319,118.106,123.661,128.757,131.913,136.814,140.594,145.079,148.957,152.217,155.997,158.65,163.135,166.396,170.881,176.085,180.915,184.176,189.272,194.154,199.766,205.281,210.08,212.733,215.386,219.263,224.67,226.80599999999998,231.644,241.646,246.027,250.831,255.366,257.914,261.886,266.982,271.807,276.293,281.494,287.008" y="380.47" svg_rhmargin="290.575" style="fill:#131413;font-family:FCMIGM+KvhklmAdvTT86d47313;font-size:9.8px;font-style:NORMAL;font-weight:normal;">language was not restricted to English. We also con-</text>
  <text x="56.691,61.998,67.402,71.886,75.144,79.628,84.832,90.966,95.45,100.86,107.014,111.498,116.804,122.111,124.762,128.02,130.568,135.844,141.342,145.826,148.374,154.557,158.433,162.916,167.399,171.177,175.661,180.963,187.113,192.312,196.693,202.856,206.732,211.216,214.994,219.477,223.961,229.473,232.124,237.636,242.32999999999998,248.464,251.752,257.157,261.538,267.701,271.479,275.963,278.917,283.401,287.076" y="392.488" svg_rhmargin="290.643" style="fill:#131413;font-family:FCMIGM+KvhklmAdvTT86d47313;font-size:9.8px;font-style:NORMAL;font-weight:normal;">ducted an additional search by screening the refer-</text>
  <text svg_rhmargin="160.048" x="56.691,61.179,66.697,71.185,75.673,79.446,83.44,88.655,91.507,95.515,99.994,102.65,105.305,110.107,112.763,117.967,120.515,124.896,129.022,132.903,136.166,141.576,146.887,149.543,154.031,157.912,160.048" y="104.49199999999996" style="fill:#131413;font-family:FCMIGM+KvhklmAdvTT86d47313;font-size:9.8px;font-style:NORMAL;font-weight:normal;">ences of eligible studies. </text>
  <text x="304.724,309.416,312.572,317.742,323.005,327.605,330.406,335.098,337.398,339.698,345.033,347.333,352.696,354.996,357.296,359.596,362.752" y="104.49199999999996" svg_rhmargin="367.352" style="fill:#131413;font-family:FCMIFK+GvlmdfAdvTT99c4c969;font-size:9.2px;font-style:NORMAL;font-weight:normal;">Study eligibility</text>
  <text x="304.724,314.622,319.00300000000004,322.866,327.344,331.833,336.213,338.761,344.063,348.444,351.599,356.088,361.29200000000003,365.101,369.482,373.863,378.243,383.545,387.438,389.986,395.19,399.571,404.98,408.136,410.684,413.631,416.179,420.559,425.76300000000003,429.618,435.635,442.487,449.014,451.898,456.279,460.973,465.353,467.901,473.311,477.184,480.34000000000003,484.158,487.313,492.615,496.996,500.825,503.677,508.773,511.321,513.869,518.965,525.795,528.343,533.877" y="116.45399999999995" svg_rhmargin="538.571" style="fill:#131413;font-family:FCMIGM+KvhklmAdvTT86d47313;font-size:9.8px;font-style:NORMAL;font-weight:normal;">We evaluated each identified RCT against the following</text>
  <text x="304.724,309.928,313.603,317.984,323.187,327.568,330.723,335.225,338.9,347.064,349.612,355.021,359.402,364.606,367.598,371.37,375.751,378.299,382.848,387.229,390.384,392.932,398.028,403.43800000000005,406.433,410.813,414.488,417.036,420.192,424.572,428.247,430.795,435.346" y="128.47199999999998" svg_rhmargin="437.482" style="fill:#131413;font-family:FCMIGM+KvhklmAdvTT86d47313;font-size:9.8px;font-style:NORMAL;font-weight:normal;">predetermined selection criteria:</text>
  <text x="312.718,315.168,317.30400000000003,327.344,332.244,335.4,340.604,345.7,350.081,353.083,358.179,363.177,368.273,373.477,375.926,380.295,383.451,385.901,390.899,396.201,398.33700000000005,401.329,405.611,410.707,415.911,418.361,421.517,425.192,428.201,435.032,437.482,440.637,445.939,448.951,454.252,456.702,461.798,464.768,472.314,479.14500000000004,482.115,486.398,488.848,491.298,495.884,498.334,503.332,505.782,510.065,513.07,515.824,520.822" y="152.45399999999995" svg_rhmargin="524.497" style="fill:#000000;font-family:FCMJFL+XxfctnAdvTT43ccf47d;font-size:9.8px;font-style:NORMAL;font-weight:normal;">i. Study population: adults with hip OA eligible for</text>
  <text x="327.344,332.44,336.115,338.565,346.621,350.903,354.578,358.95899999999995,361.53,367.959,375.477,382.307" y="164.47199999999998" svg_rhmargin="384.443" style="fill:#000000;font-family:FCMJFL+XxfctnAdvTT43ccf47d;font-size:9.8px;font-style:NORMAL;font-weight:normal;">primary THA.</text>
  <text x="312.718,315.168,317.618,319.754,327.344,330.5,335.802,338.957,343.24,346.915,351.495,355.778,361.08,364.235,366.685,371.683,376.985,380.66,382.79600000000005,385.795,388.951,394.252,398.535,401.499,405.174,409.457,414.029,416.479,420.761,427.59200000000004,430.527,433.281,438.279,442.659,447.863,451.616,455.899,460.995,463.975,468.973,474.27500000000003,477.241,480.397,485.395,490.49,492.94,497.321,501.604,504.054,507.062,512.06" y="176.49099999999999" svg_rhmargin="515.735" style="fill:#000000;font-family:FCMJFL+XxfctnAdvTT43ccf47d;font-size:9.8px;font-style:NORMAL;font-weight:normal;">ii. Interventions: the review focused on topical or</text>
  <text x="327.344,329.794,335.096,338.252,341.927,346.209,350.698,354.98,360.282,365.386,370.589,374.264,376.895,383.323,390.056,396.887,399.856,404.952,407.402,412.606,416.281,419.302,422.457,427.455,432.551,435.001,439.382,443.664,446.114,449.123,456.159,461.569,465.677,467.81300000000005,470.78,477.61,482.912,485.362,489.743,495.045,498.049,502.332,506.006" y="188.45299999999997" svg_rhmargin="510.289" style="fill:#000000;font-family:FCMJFL+XxfctnAdvTT43ccf47d;font-size:9.8px;font-style:NORMAL;font-weight:normal;">intravenous TXA plus topical DEP, which are</text>
  <text x="327.344,331.725,336.723,344.778,352.834,357.832,363.134,365.584,369.96500000000003,372.983,378.186,381.861,386.144,391.24,394.242,396.692,401.994,404.958,408.113,413.415,417.69800000000004,420.662,428.718,433.078,438.379,442.662,447.248,451.531,459.586,463.869,469.171,472.327,475.371,480.369,483.12300000000005,486.086,491.084,493.534,498.532,503.53,508.626,511.598,514.048,519.046,522.721" y="200.471" svg_rhmargin="526.396" style="fill:#000000;font-family:FCMJFL+XxfctnAdvTT43ccf47d;font-size:9.8px;font-style:NORMAL;font-weight:normal;">commonly used in the management of blood loss</text>
  <text x="327.344,331.627,334.381,337.536,341.819,345.494,348.491,354.919,362.367,369.198,371.334,374.286,378.569,382.244,385.228,389.608,394.606,402.662,410.717,415.715,421.017,423.467,427.84799999999996,430.923,434.598,438.88,443.976,448.974,452.649,455.805,460.176,465.272,468.227,470.677,475.97900000000004,478.942,482.098,487.399,491.682,494.646,497.096,499.546,502.702,506.985,510.66,514.942,518.098,523.39,527.065,531.347" y="212.49" svg_rhmargin="533.483" style="fill:#000000;font-family:FCMJFL+XxfctnAdvTT43ccf47d;font-size:9.8px;font-style:NORMAL;font-weight:normal;">after THA, as commonly reported in the literature.</text>
  <text x="312.718,315.168,317.618,320.068,322.204,327.345,333.98,338.978,347.033,352.129,356.412,360.087,364.479,367.635,372.633,376.308,378.444,381.43,386.526,388.976,392.651,396.934,401.314,404.47,407.453,411.833,416.831,424.971,430.067,434.35,438.025,440.475,444.15,449.147,454.449,458.124,461.142,465.424,473.48,478.478,483.779,488.365,491.36,495.642,500.944,505.32500000000005,508.31,513.308,516.062,519.026,522.181,527.483" y="224.452" svg_rhmargin="531.766" style="fill:#000000;font-family:FCMJFL+XxfctnAdvTT43ccf47d;font-size:9.8px;font-style:NORMAL;font-weight:normal;">iii. Comparator: direct comparisons among any of the</text>
  <text x="327.344,330.098,335.096,340.3,343.975,346.96,351.34,356.338,360.013,364.296,367.256,370.412,375.714,379.996,383.671,387.954,393.05,397.332,402.536,405.808,408.258,412.639,415.616,418.066,423.368,426.523,430.806,434.481,438.969,443.339,448.641,451.796,454.246,459.244,464.546,468.221,471.233,474.388,476.838,478.974,483.257,485.39300000000003,488.354,495.39,500.8,506.10200000000003,509.103,513.386,515.836,520.834,526.135,530.418" y="236.47000000000003" svg_rhmargin="532.554" style="fill:#000000;font-family:FCMJFL+XxfctnAdvTT43ccf47d;font-size:9.8px;font-style:NORMAL;font-weight:normal;">four core therapeutic interventions (i.e. DEP alone,</text>
  <text x="327.344,330.5,335.498,340.594,343.044,347.424,351.707,354.157,357.166,362.164,365.839,368.787,371.237,376.539,379.695,383.37,387.652,392.14,396.51,401.812,406.81,412.014,415.689,418.338,424.766,431.499,438.33000000000004,441.355,445.637,448.087,453.085,458.387,462.67,465.676,469.959,475.26,480.356,483.308,487.591,490.565,494.945,499.943,505.245,508.401,512.076,517.074" y="248.48900000000003" svg_rhmargin="519.524" style="fill:#000000;font-family:FCMJFL+XxfctnAdvTT43ccf47d;font-size:9.8px;font-style:NORMAL;font-weight:normal;">topical or intravenous TXA alone and a control</text>
  <text x="327.344,331.931,335.606,340.604,345.807,350.903,354.059" y="260.451" svg_rhmargin="356.195" style="fill:#000000;font-family:FCMJFL+XxfctnAdvTT43ccf47d;font-size:9.8px;font-style:NORMAL;font-weight:normal;">group).</text>
  <text x="312.718,315.168,319.181,321.317,327.344,334.89,340.094,343.25,347.63,352.628,360.793,365.076,367.993,376.049,380.409,384.692,388.366,393.57,397.245,401.528,405.203,407.339,410.343,413.498,418.8,423.083,426.047,431.143,434.818,437.268,445.324,449.688,453.363,457.744,460.687,465.685,470.888,474.044,478.425,483.423,491.585,495.867,499.54200000000003,502.47,505.223,510.221,513.896,516.87,520.025,525.327,527.777" y="272.46900000000005" svg_rhmargin="531.452" style="fill:#000000;font-family:FCMJFL+XxfctnAdvTT43ccf47d;font-size:9.8px;font-style:NORMAL;font-weight:normal;">iv. Outcome measures: the primary outcomes for this</text>
  <text x="327.344,331.019,335.302,339.79,342.24,346.523,353.35400000000004,356.315,363.145,367.428,371.103,375.386,378.425,381.581,386.883,391.166,394.13,399.432,403.714,407.997,413.093,416.07,418.824,423.822,427.497,430.47,433.625,437.3,441.583,446.968,450.643,453.397,458.6,462.275,464.725,469.723,475.025,477.161,480.134,483.289,488.287,491.529,495.812,498.262,501.167,506.165,508.615,513.697,518.695" y="284.48800000000006" svg_rhmargin="523.791" style="fill:#000000;font-family:FCMJFL+XxfctnAdvTT43ccf47d;font-size:9.8px;font-style:NORMAL;font-weight:normal;">review were the need for transfusion, total blood</text>
  <text x="327.344,329.794,334.792,338.467,342.142,344.278,347.244,352.242,354.692,359.69,364.688,369.784,372.756,375.206,380.204,383.879,387.55400000000003,390.558,393.008,398.31,401.273,406.369,410.044,414.326,416.776,422.078,426.361,431.037,435.32,438.237,442.52,447.822,452.918,455.925,459.081,464.382,468.665,471.629,476.627,481.008,485.389,490.679,494.353,498.028,502.311,507.613,511.993,516.276,519.252,524.25" y="296.449" svg_rhmargin="527.004" style="fill:#000000;font-family:FCMJFL+XxfctnAdvTT43ccf47d;font-size:9.8px;font-style:NORMAL;font-weight:normal;">loss, blood loss in drainage and the occurrence of</text>
  <text x="327.344,332.44,336.723,341.005,346.101,349.058,353.546,357.902,363.204,368.202,373.406,377.081,380.013,383.169,388.47,392.145,397.248,405.304,410.302,415.3,418.974,421.424,425.099,428.089,431.245,438.281,445.014,451.443,454.598" y="308.468" svg_rhmargin="456.734" style="fill:#000000;font-family:FCMJFL+XxfctnAdvTT43ccf47d;font-size:9.8px;font-style:NORMAL;font-weight:normal;">deep venous thrombosis (DVT).</text>
  <text x="304.724,310.953,315.553,318.708,323.30800000000005,326.097,330.789,335.288,338.444,341.7,346.3,350.413,353.569,355.869,361.039" y="332.454" svg_rhmargin="366.209" style="fill:#131413;font-family:FCMIFK+GvlmdfAdvTT99c4c969;font-size:9.2px;font-style:NORMAL;font-weight:normal;">Data extraction</text>
  <text x="304.724,311.251,318.082,323.178,327.515,331.896,337.197,340.353,345.655,350.751,354.426,358.199,362.552,365.1,370.509,375.713,380.093,385.297,389.678,395.087,400.291,404.788,410.198,413.353,415.901,420.28200000000004,424.574,428.955,433.747,436.902,440.577,444.958,449.338,452.494,457.003,462.207,466.471,469.626,474.928,479.30899999999997,483.592,488.286,492.667,498.076,502.457,506.212,510.593,513.141,517.437,521.818,527.119,531.5,535.012" y="344.473" svg_rhmargin="538.579" style="fill:#131413;font-family:FCMIGM+KvhklmAdvTT86d47313;font-size:9.8px;font-style:NORMAL;font-weight:normal;">Two authors independently extracted the general char-</text>
  <text x="304.724,309.105,313.485,316.641,321.022,324.794,327.341,331.114,334.27,336.818,341.199,344.97200000000004,348.548,352.929,358.339,363.543,367.087,372.183,377.485,380.64,385.116,390.212,398.375,402.756,406.529,410.117,412.969,416.644,421.74,429.903,433.474,436.63,441.932,446.313,449.916,452.464,457.873,462.254,464.802,470.104,475.307,479.688,484.892,488.523,492.296,495.452,500.754,505.957,508.505,512.886,516.757,518.8929999999999,522.426,528.832,534.134" y="356.491" svg_rhmargin="538.515" style="fill:#131413;font-family:FCMIGM+KvhklmAdvTT86d47313;font-size:9.8px;font-style:NORMAL;font-weight:normal;">acteristics and outcomes from the included studies. The</text>
  <text x="304.724,307.576,312.672,315.22,317.768,322.864,329.694,332.242,337.776,342.47,348.661,353.865,358.245,361.401,365.78200000000004,372.075,378.906,383.286,386.961,391.342,397.644,402.025,406.817,409.972,413.647,418.028,422.408,425.564,430.073,435.277,441.468,444.32,447.995,453.091,461.254,467.547,471.927,476.308,480.688,485.99,492.265,496.038,499.194,504.495,509.783,514.164,516.3,522.539,525.391,527.939,531.614,535.386" y="368.453" svg_rhmargin="538.542" style="fill:#131413;font-family:FCMIGM+KvhklmAdvTT86d47313;font-size:9.8px;font-style:NORMAL;font-weight:normal;">following data were extracted from each study: first</text>
  <text x="304.724,309.105,314.407,317.562,322.864,327.96,331.03,333.166,338.57,343.774,349.076,354.172,356.72,359.268,363.648,368.029,371.184,373.732,378.828,384.238,389.764,394.145,398.525,402.906,405.922,408.05800000000005,413.462,416.01,421.106,425.487,429.96,433.116,435.664,440.76,446.169,448.305,453.771,458.152,462.846,467.227,472.65,477.03,482.44,487.644,493.116,498.525,503.827,511.99,517.086,521.467,525.1419999999999,530.59,535.685" y="380.471" svg_rhmargin="538.537" style="fill:#131413;font-family:FCMIGM+KvhklmAdvTT86d47313;font-size:9.8px;font-style:NORMAL;font-weight:normal;">author, publication year, location, age and number of</text>
  <text x="304.724,309.928,314.309,317.464,320.012,324.393,329.896,333.127,336.90000000000003,340.157,342.705,348.115,351.325,354.48,359.782,364.163,367.483,370.031,375.44,378.596,382.977,386.986,391.474,395.855,401.264,404.42,407.055,412.151,417.56100000000004,420.775,425.155,430.565,435.769,439.03,443.411,448.507,453.916,457.072,460.747,465.843,468.391,471.685,476.379,480.054,485.15,490.452,495.656,499.748,501.884,505.077,510.281,515.377,519.15,523.616,527.389,530.589,535.685" y="392.49" svg_rhmargin="538.537" style="fill:#131413;font-family:FCMIGM+KvhklmAdvTT86d47313;font-size:9.8px;font-style:NORMAL;font-weight:normal;">patients in the intervention and control groups, doses of</text>
  <text x="304.724,311.251,317.984,324.92199999999997,331.37,335.751,341.235,346.439,352.857,360.001,365.508,369.807,371.94300000000004,378.368,383.464,388.765,391.921,396.397,401.492,409.656,414.036,418.053,420.189,426.614,429.769,433.444,437.825,443.234,447.007,449.972,455.273,459.046,461.594,466.69,472.1,478.545,481.701,487.003,490.677,495.156,498.929,504.231,509.327,511.875,517.079,523.559,527.94,533.349" y="404.452" svg_rhmargin="538.553" style="fill:#131413;font-family:FCMIGM+KvhklmAdvTT86d47313;font-size:9.8px;font-style:NORMAL;font-weight:normal;">TXA and DEP, outcomes, transfusion threshold and</text>
  <path d=" M 60.71799850463867 375.7040100097656 L 534.5570068359375 375.7040100097656 L 534.5570068359375 375.4770202636719 L 60.71799850463867 375.4770202636719" style="fill:none;stroke:#131413;stroke-width:0.0;"/>
  <path d=" M 534.5570068359375 375.7040100097656 L 535.2940063476562 375.6470031738281 C 536.8519897460938 375.4750061035156 538.333984375 373.93499755859375 538.5260009765625 372.416015625 L 538.58203125 371.7350158691406 L 538.35498046875 371.7350158691406 L 538.2990112304688 372.3590087890625 C 538.0830078125 373.8380126953125 536.7509765625 375.1960144042969 535.2369995117188 375.4210205078125 L 534.5570068359375 375.4770202636719" style="fill:none;stroke:#131413;stroke-width:0.0;"/>
  <path d=" M 538.5830078125 371.7349853515625 L 538.5830078125 63.551971435546875 L 538.3560180664062 63.551971435546875 L 538.3560180664062 371.7349853515625" style="fill:none;stroke:#131413;stroke-width:0.0;"/>
  <path d=" M 538.5830078125 63.553009033203125 L 538.5260009765625 62.816009521484375 C 538.3309936523438 61.25600814819336 536.781982421875 59.812007904052734 535.2949829101562 59.584007263183594 L 534.5579833984375 59.52800750732422 L 534.5579833984375 59.81100845336914 L 535.238037109375 59.86800765991211 C 536.7850341796875 60.06300735473633 538.010009765625 61.37400817871094 538.2999877929688 62.873008728027344 L 538.3560180664062 63.553009033203125" style="fill:none;stroke:#131413;stroke-width:0.0;"/>
  <path d=" M 534.5570068359375 59.52800750732422 L 60.718017578125 59.52800750732422 L 60.718017578125 59.81100845336914 L 534.5570068359375 59.81100845336914" style="fill:none;stroke:#131413;stroke-width:0.0;"/>
  <path d=" M 60.717987060546875 59.52800750732422 L 59.980987548828125 59.58500671386719 C 58.493988037109375 59.812007904052734 56.94498825073242 61.25600814819336 56.748985290527344 62.816009521484375 L 56.69298553466797 63.553009033203125 L 56.919986724853516 63.553009033203125 L 56.97598648071289 62.873008728027344 C 57.265987396240234 61.37400817871094 58.49098587036133 60.06300735473633 60.037986755371094 59.86800765991211 L 60.717987060546875 59.812007904052734" style="fill:none;stroke:#131413;stroke-width:0.0;"/>
  <path d=" M 56.69298553466797 63.553009033203125 L 56.69298553466797 371.73602294921875 L 56.919986724853516 371.73602294921875 L 56.919986724853516 63.553009033203125" style="fill:none;stroke:#131413;stroke-width:0.0;"/>
  <path d=" M 56.69298553466797 371.7349853515625 L 56.74998474121094 372.41497802734375 C 56.94098663330078 373.93499755859375 58.4229850769043 375.4739990234375 59.980987548828125 375.64697265625 L 60.717987060546875 375.7039794921875 L 60.717987060546875 375.47698974609375 L 60.037986755371094 375.41998291015625 C 58.52398681640625 375.19598388671875 57.191986083984375 373.8379821777344 56.97598648071289 372.3589782714844 L 56.919986724853516 371.7349853515625" style="fill:none;stroke:#131413;stroke-width:0.0;"/>
  <path d="M60.717 424.295 L534.557 424.295 L534.557 424.522 L60.717 424.522 M534.557 424.295 L535.294 424.352 C536.852 424.524 538.334 426.065 538.526 427.583 L538.582 428.264 L538.354 428.264 L538.299 427.64 C538.083 426.161 536.751 424.803 535.237 424.578 L534.557 424.522 M538.583 428.265 L538.583 736.448 L538.356 736.448 L538.356 428.265 M538.583 736.446 L538.526 737.183 C538.331 738.743 536.782 740.187 535.295 740.415 L534.557 740.471 L534.557 740.188 L535.238 740.131 C536.785 739.936 538.01 738.625 538.3 737.126 L538.356 736.446 M534.557 740.471 L60.718 740.471 L60.718 740.188 L534.557 740.188 M60.717 740.471 L59.98 740.414 C58.493 740.187 56.944 738.743 56.748 737.183 L56.692 736.446 L56.919 736.446 L56.975 737.126 C57.265 738.625 58.49 739.936 60.037 740.131 L60.717 740.187 M56.692 736.446 L56.692 428.263 L56.919 428.263 L56.919 736.446 M56.692 428.265 L56.749 427.585 C56.94 426.065 58.422 424.526 59.98 424.353 L60.717 424.296 L60.717 424.523 L60.037 424.58 C58.523 424.804 57.191 426.162 56.975 427.641 L56.919 428.265 M155.679 430.532 L439.54 430.532 L439.54 722.217 L155.679 722.217 " style="fill:none;stroke:#000000;stroke-width:1.0;"/>
  <rect style="stroke:blue;stroke-width:0.3;" x="155.679" y="430.532" height="291.685" width="283.868" title="2"/>
  <text x="155.679" y="430.532" class="image" id="image.2.1" width="283" height="291">image.2.1.156_440.431_722</text>
  <text svg_rhmargin="82.482" x="62.702,66.862,69.022,73.686,75.686,78.066,82.482" y="734.236" style="fill:#131413;font-family:FCMICI+KmmqjcAdvTTaf7f9f4f.B;font-size:8.0px;font-style:NORMAL;font-weight:normal;">Fig. 1 </text>
  <text x="84.869,88.533,90.197,94.445,100.189,102.558,106.886,108.55,112.126,116.454,118.782,122.358,128.854,131.188,135.436,137.51600000000002,139.919,142.335,146.583,150.415,152.788,155.7,158.116,162.276,166.604,170.10000000000002,172.461,175.373,179.205,180.869,184.701,188.197,190.613,192.277,196.525,200.773,203.075,207.403,209.731,213.979,217.475,221.307,224.219" y="734.236" svg_rhmargin="227.131" style="fill:#131413;font-family:FCMIFJ+FjrmrtAdvTTb5929f4c;font-size:8.0px;font-style:NORMAL;font-weight:normal;">Flow diagram of the study selection process</text>
  <text svg_rhmargin="115.039" x="56.693,63.437,67.269,71.685,76.101,78.463,82.295,86.711,91.207,93.544,97.959,102.375,106.207,110.623,115.039" y="48.14200000000005" style="fill:#131413;font-family:FCMIFI+GghxhkAdvTTe45e47d2;font-size:8.0px;font-style:NORMAL;font-weight:normal;">Wang and Zhang </text>
  <text svg_rhmargin="264.355" x="117.41,120.242,124.402,128.562,131.058,135.306,139.466,141.21,143.546,147.706,149.95399999999998,152.333,157.661,160.157,162.653,166.901,171.061,175.221,179.381,182.957,187.117,188.787,192.115,194.513,198.177,202.337,204.833,208.993,212.569,215.065,218.561,220.932,225.092,229.34,233.5,235.899,240.059,243.635,246.547,250.123,254.283,256.779,260.107,264.355" y="48.14200000000005" style="fill:#131413;font-family:FCMJCJ+TlfdkfAdvTT7329fd89.I;font-size:8.0px;font-style:NORMAL;font-weight:normal;">Journal of Orthopaedic Surgery and Research </text>
  <text svg_rhmargin="314.906" y="48.14200000000005" x="268.378,270.65,274.754,278.858,282.962,287.066,289.338,291.034,295.138,299.242,300.898,305.002,309.106,313.21,314.906" style="fill:#131413;font-family:MyriadPro-Regular;font-size:8.0px;font-style:NORMAL;font-weight:normal;">(2018) 13:242 </text>
  <text x="496.061,500.309,504.141,508.557,512.557,514.94,519.0200000000001,521.403,525.731,528.059,530.417,534.497" y="48.14200000000005" svg_rhmargin="538.577" style="fill:#131413;font-family:FCMIFI+GghxhkAdvTTe45e47d2;font-size:8.0px;font-style:NORMAL;font-weight:normal;">Page 2 of 11</text>
 </g>
</svg>
