<?xml version="1.0" encoding="UTF-8"?>
<svg height="750.471" width="550.52638" xmlns="http://www.w3.org/2000/svg">
 <g style="fill:none;">
  <text x="56.693,60.368,64.748,70.158,74.852,79.314,84.51799999999999,87.762,90.613,94.288,99.384,107.547,110.892,115.792,120.692,122.828,127.72800000000001,131.018,134.174,139.27,142.583,147.483,152.383,155.679,160.059,164.44,168.82,172.495,176.268,178.404,181.757,187.265,191.645,194.801,197.349,201.729,207.139,210.5" y="272.47299999999996" svg_rhmargin="214.273" style="fill:#131413;font-family:FCMIGM+KvhklmAdvTT86d47313;font-size:9.8px;font-style:NORMAL;font-weight:normal;">ranged from 50.0 to 69 years. Patients</text>
  <text svg_rhmargin="216.173" x="214.242,216.173" y="272.47299999999996" style="fill:#131413;font-family:FCMJEK+MvxmdyAdvTT86d47313+20;font-size:9.8px;font-style:NORMAL;font-weight:normal;">’ </text>
  <text x="219.061,223.441,228.135,232.516,236.289,239.64,243.315,247.696,253.105,257.8,262.18,267.384,270.708,273.56,277.235,282.331" y="272.47299999999996" svg_rhmargin="290.494" style="fill:#131413;font-family:FCMIGM+KvhklmAdvTT86d47313;font-size:9.8px;font-style:NORMAL;font-weight:normal;">ages ranged from</text>
  <text x="56.693,61.593,66.49300000000001,69.448,72.604,77.7,80.673,85.573,90.473,93.429,97.809,102.19,106.57,110.245,114.292,116.428,119.395,123.775,129.185,134.389,137.367,141.747,144.295,146.843,149.782,156.613,160.993,164.75,169.131,172.063,174.611,178.992,182.765,186.53799999999998,189.525,192.68,197.982,202.363,207.773,210.785,215.685,220.584,225.484,228.417,232.797,237.178,241.558,245.233,249.006,252.058,257.154,259.702,264.905" y="284.491" svg_rhmargin="267.041" style="fill:#131413;font-family:FCMIGM+KvhklmAdvTT86d47313;font-size:9.8px;font-style:NORMAL;font-weight:normal;">21 to 65 years, and all were less than 100 years old.</text>
  <text x="56.693,63.105,68.276,72.876,75.176,77.476,80.632,85.232,88.044,92.644,96.471,100.299,104.991,108.818,112.645,120.401,125.093,130.393" y="308.473" svg_rhmargin="133.549" style="fill:#131413;font-family:FCMIFK+GvlmdfAdvTT99c4c969;font-size:9.2px;font-style:NORMAL;font-weight:normal;">Quality assessment</text>
  <text x="56.693,63.837,68.218,71.373,75.754,78.973,82.648,87.028,91.723,96.103,99.778,104.982,107.53,113.045,117.739,120.925,124.081,129.383,133.764,136.97,140.645,143.193,146.966,151.866,155.111,160.207,163.059,166.564,171.659,174.207,178.753,182.52599999999998,185.669,189.442,194.744,202.907,211.181,215.562,219.237,223.618,226.829,231.21,236.619,241.823,245.027,248.702,251.25,255.023,259.923,263.112,268.208,271.06,274.564,279.66,282.208,286.753" y="320.491" svg_rhmargin="290.526" style="fill:#131413;font-family:FCMIGM+KvhklmAdvTT86d47313;font-size:9.8px;font-style:NORMAL;font-weight:normal;">Data regarding the risk of bias summary and risk of bias</text>
  <text x="56.693,61.387,65.062,69.443,74.646,79.948,83.72099999999999,88.725,91.577,96.673,100.348,105.279,109.659,114.123,118.504,123.80600000000001,128.75,132.523,135.678,140.98,146.184,150.565,155.565,159.946,163.621,168.002,172.97,178.173,181.848,186.229,190.002,194.382,199.792,202.948,207.439,212.643,217.53,220.078,225.488,230.456,235.552,238.1,242.794,246.567,248.703,253.7,258.59999999999997,263.508,267.889,273.298,278.502,283.464,288.396" y="332.453" svg_rhmargin="290.532" style="fill:#131413;font-family:FCMIGM+KvhklmAdvTT86d47313;font-size:9.8px;font-style:NORMAL;font-weight:normal;">graphs for each study are presented in Figs. 2 and 3,</text>
  <text x="56.693,60.368,64.748,68.521,73.725,78.293,82.673,85.829,88.377,92.865,97.246,99.794,104.174,106.31,110.891,117.297,122.599,126.274,130.734,135.115,139.579,143.351,146.507,151.809,157.097,159.645,164.025,167.798,172.291,177.592,181.973,187.17700000000002,191.737,196.118,200.581,203.129,208.225,215.05599999999998,219.63,223.305,225.853,229.626,234.526,239.019,244.115,246.967,251.775,256.871,259.419,263.964,267.737,269.87300000000005,274.396,280.802,286.104" y="344.472" svg_rhmargin="290.485" style="fill:#131413;font-family:FCMIGM+KvhklmAdvTT86d47313;font-size:9.8px;font-style:NORMAL;font-weight:normal;">respectively. Three studies had a low risk of bias. The</text>
  <text x="56.693,61.789,64.944,70.246,74.627,78.30199999999999,81.808,85.581,88.737,94.038,99.242,101.79,106.171,109.944,113.386,120.217,124.597,128.354,132.735,136.234,140.614,145.71,151.201,154.974,157.522,162.726,167.106,170.781,175.162,180.366,183.856,187.012,192.108,195.535,200.837,205.116,209.605,213.986,217.419,221.8,227.21,230.685,235.987,241.397,245.777,248.325,252.706,257.086,260.761,264.248,267.923,270.471,274.244,279.144,282.56,287.656" y="356.49" svg_rhmargin="290.508" style="fill:#131413;font-family:FCMIGM+KvhklmAdvTT86d47313;font-size:9.8px;font-style:NORMAL;font-weight:normal;">other studies were considered to have an unclear risk of</text>
  <text x="56.693,61.789,64.337,68.882,72.655" y="368.452" svg_rhmargin="74.791" style="fill:#131413;font-family:FCMIGM+KvhklmAdvTT86d47313;font-size:9.8px;font-style:NORMAL;font-weight:normal;">bias.</text>
  <text x="56.693,63.105,68.276,72.876,75.176,77.476,80.632,85.232,88.044,93.215,96.08500000000001,98.873,103.565,108.165,110.465,115.727,120.419,125.59,129.702,134.394,137.254,141.854,145.681,149.508,154.2,158.027,161.855,169.61,174.302,179.473" y="392.491" svg_rhmargin="182.629" style="fill:#131413;font-family:FCMIFK+GvlmdfAdvTT99c4c969;font-size:9.2px;font-style:NORMAL;font-weight:normal;">Quality of evidence assessment</text>
  <text x="56.693,63.22,68.655,73.036,82.375,89.688,96.151,103.181,110.424,115.932,125.277,129.87,134.462,137.109,142.412,146.891,152.4,156.935,161.316,170.655,175.958,179.732,184.927,187.877,190.425,193.15,197.629,201.402,210.782,215.261,219.035,223.416,232.812,238.084,241.858,246.338,250.21,254.689,260.198,263.452,267.932,273.136,282.502,285.05" y="404.454" svg_rhmargin="290.46" style="fill:#131413;font-family:FCMIGM+KvhklmAdvTT86d47313;font-size:9.8px;font-style:NORMAL;font-weight:normal;">The GRADE evidence profiles are presented in</text>
  <text x="56.693,63.739,69.051,74.362,77.018,80.281,82.829,88.105,93.603,98.092,100.64,105.915,108.874,111.53,114.078,118.459,123.76,128.75,130.886,136.176,142.703,148.107,152.488,157.746,165.091,171.497,178.583,185.727,191.235,196.555,199.22,203.812,208.404,212.888,215.436,220.654,225.853,228.705,233.96,238.553,243.145,245.796,251.102,255.586,261.098,265.582,269.96299999999997,275.22,282.153,286.746" y="416.472" svg_rhmargin="290.519" style="fill:#131413;font-family:FCMIGM+KvhklmAdvTT86d47313;font-size:9.8px;font-style:NORMAL;font-weight:normal;">Additional file 1. The GRADE level of evidence was</text>
  <text x="56.693,59.352,64.448,71.279,75.962,78.91,84.117,87.792,92.337,95.603,100.81,104.076,108.568,111.116,115.711,120.926,123.474,128.75,133.956,139.16,143.707,146.366,151.573,155.456,159.538,161.674,166.284,171.67,174.329,179.643,184.958,189.449,194.859,199.427,204.643,207.302,212.398,217.677,222.881,227.485,230.032,235.308,239.191,242.964,247.525,252.017,257.537,262.741,267.345,269.893,275.508,278.739,282.525,287.016" y="428.491" svg_rhmargin="290.583" style="fill:#131413;font-family:FCMIGM+KvhklmAdvTT86d47313;font-size:9.8px;font-style:NORMAL;font-weight:normal;">low for total blood loss, hidden blood loss and intra-</text>
  <text x="56.693,61.789,66.841,71.221,74.721,79.101,82.147,84.585,89.074,93.455,98.305,103.294,105.842,110.778,115.874,121.07799999999999,125.915,128.462,133.398,137.171,140.824,142.96,147.854,150.292,153.448,158.399,165.23,169.61,173.383,178.242,186.293,191.389,196.44,200.821,204.377,208.758,211.748,216.129,221.045,223.897,228.813,232.488,237.43,240.585,245.707,250.088,255.004,260.413,264.642,269.022,274.226,279.042,281.894,286.865" y="440.453" svg_rhmargin="290.54" style="fill:#131413;font-family:FCMIGM+KvhklmAdvTT86d47313;font-size:9.8px;font-style:NORMAL;font-weight:normal;">operative blood loss; it was moderate for the need for</text>
  <text svg_rhmargin="282.5" x="56.693,59.848,63.382,67.763,73.021,76.793,79.484,84.785,88.385,90.933,95.868,101.27799999999999,103.862,108.242,113.5,118.704,121.267,124.423,129.544,133.925,136.518,141.614,145.872,150.253,155.397,159.071,162.596,166.849,172.258,176.487,180.868,183.46,188.556,191.40800000000002,193.892,201.037,207.952,214.47899999999998,216.116,220.496,225.754,230.958,233.52,238.822,243.045,247.425,255.46,259.841,262.831,267.927,275.983,280.364,282.5" y="272.47299999999996" style="fill:#131413;font-family:FCMIGM+KvhklmAdvTT86d47313;font-size:9.8px;font-style:NORMAL;font-weight:normal;">transfusion and the occurrence of DVT and haematoma. </text>
  <text x="304.724,309.895,314.587,318.414,323.585,325.885,329.04,332.867,335.678,340.849,343.719,346.507,349.662,354.833,359.52500000000003,362.323,370.079,374.771,377.927,382.527,385.397,389.997,395.262,399.862,402.162,406.762,410.589,412.889" y="272.47299999999996" svg_rhmargin="416.716" style="fill:#131413;font-family:FCMIFK+GvlmdfAdvTT99c4c969;font-size:9.2px;font-style:NORMAL;font-weight:normal;">Results of the meta-analysis</text>
  <text x="304.724,310.658,314.964,319.27,324.24699999999996,327.061,329.84,334.817,337.973,340.781,343.744,346.899,351.785,356.762,360.396,363.174,368.152,371.786,373.984,378.962" y="284.49199999999996" svg_rhmargin="383.939" style="fill:#131413;font-family:FCNIJC+CfsvmvAdvTT83913201.I;font-size:9.2px;font-style:NORMAL;font-weight:normal;">Need for transfusion</text>
  <text x="304.724,309.82,312.368,316.857,321.23800000000006,326.267,330.04,333.196,338.498,343.701,346.249,350.63,354.403,359.433,366.264,370.644,374.401,378.78200000000004,383.755,388.135,392.623,397.004,399.552,402.1,406.48,411.576,414.124,418.505,423.496,430.327,432.875,436.03,441.332,446.344,448.892,454.301,457.228,462.324,465.999,474.163,478.543,481.699,484.247,489.343,494.75300000000004,499.805,503.48,507.861,512.555,516.935,520.61,525.814,528.362,533.877" y="296.454" svg_rhmargin="538.571" style="fill:#131413;font-family:FCMIGM+KvhklmAdvTT86d47313;font-size:9.8px;font-style:NORMAL;font-weight:normal;">Five studies were available with information regarding</text>
  <text x="304.724,307.88,311.555,315.935,321.345,325.118,327.97,333.271,337.153,339.701,344.797,350.20700000000005,354.841,358.516,362.896,366.052,370.433,372.569,377.292,383.818,389.12,393.501,398.098,403.301,408.397,413.493,416.041,420.422,425.62600000000003,430.299,433.974,438.355,442.205,447.507,450.055,453.317,457.09000000000003,461.765,466.968,471.349,479.512,484.608,490.018,493.791,496.946,500.621,505.002,508.157,512.675,517.8789999999999,522.54,525.695,530.997,535.378" y="308.472" svg_rhmargin="538.534" style="fill:#131413;font-family:FCMIGM+KvhklmAdvTT86d47313;font-size:9.8px;font-style:NORMAL;font-weight:normal;">transfusion rate. The pooled results demonstrated that</text>
  <text x="304.724,311.251,317.984,324.92199999999997,328.932,334.136,336.684,341.986,345.759,349.738,356.882,362.39,367.89799999999997,371.906,378.736,383.301,387.074,391.011,395.547,399.32,403.093,408.189,412.569,415.117,419.498,422.653,427.034,432.238,436.309,443.14,445.688,448.844,454.146,458.136,462.51700000000005,466.527,469.074,474.17,481.001,485.382,489.057,493.059,496.214,499.889,504.27,509.679,513.452,516.304,521.606,525.488,528.036,533.132" y="320.491" svg_rhmargin="538.542" style="fill:#131413;font-family:FCMIGM+KvhklmAdvTT86d47313;font-size:9.8px;font-style:NORMAL;font-weight:normal;">TXA plus DEP was associated with a lower transfusion</text>
  <text x="304.724,308.399,312.78,315.935,320.31600000000003,324.17,327.326,332.628,337.008,342.418,346.281,352.808,359.54,366.478,370.319,374.7,377.248,382.343,387.753,392.134,396.001,399.156,405.173,411.19,413.179,418.892,420.833,425.733,427.869,432.769,437.669,439.805,443.623,448.523,453.488,460.319,464.089,470.724,473.98699999999997,477.809,482.709,484.846,489.746" y="332.453" svg_rhmargin="494.646" style="fill:#131413;font-family:FCMIGM+KvhklmAdvTT86d47313;font-size:9.8px;font-style:NORMAL;font-weight:normal;">rate than TXA alone (RR = 0.57, 95% CI 0.38</text>
  <text x="494.701" y="332.453" svg_rhmargin="500.62" style="fill:#131413;font-family:FCMJEK+MvxmdyAdvTT86d47313+20;font-size:9.8px;font-style:NORMAL;font-weight:normal;">–</text>
  <text svg_rhmargin="519.569" x="500.597,505.497,507.633,512.533,517.433,519.569" y="332.453" style="fill:#131413;font-family:FCMIGM+KvhklmAdvTT86d47313;font-size:9.8px;font-style:NORMAL;font-weight:normal;">0.86, </text>
  <text svg_rhmargin="528.952" x="523.444,528.952" y="332.453" style="fill:#131413;font-family:FCMNCG+XpjqrfAdvTT8861b38f.I;font-size:9.8px;font-style:NORMAL;font-weight:normal;">P </text>
  <text x="530.928" y="332.453" svg_rhmargin="536.641" style="fill:#131413;font-family:FCMIGM+KvhklmAdvTT86d47313;font-size:9.8px;font-style:NORMAL;font-weight:normal;">=</text>
  <text x="304.723,309.623,311.76,316.66,321.56,326.46,328.596,331.88,336.976,339.524,344.218,346.35400000000004,349.568,354.5,357.656,359.79200000000003,363.004,370.452,375.548,378.765,384.066,388.447,391.691,396.071,399.746,404.842,409.536,413.917,419.326,423.707,426.255,429.41,433.79100000000005,437.102,443.933,448.441,452.214,455.414,460.618,464.999,468.154,472.706,477.087,480.243,484.623,489.827,493.116" y="344.471" svg_rhmargin="496.272" style="fill:#131413;font-family:FCMIGM+KvhklmAdvTT86d47313;font-size:9.8px;font-style:NORMAL;font-weight:normal;">0.006, Fig. 4). No heterogeneity was detected (</text>
  <text x="496.289" y="344.471" svg_rhmargin="499.445" style="fill:#131413;font-family:FCMNCG+XpjqrfAdvTT8861b38f.I;font-size:9.8px;font-style:NORMAL;font-weight:normal;">I</text>
  <text svg_rhmargin="503.14" x="499.465,503.14" y="344.473" style="fill:#131413;font-family:FCMIGM+KvhklmAdvTT86d47313;font-size:6.53px;font-style:NORMAL;font-weight:normal;">2 </text>
  <text svg_rhmargin="527.844" x="506.324,512.037,513.978,518.878,525.708,527.8439999999999" y="344.473" style="fill:#131413;font-family:FCMIGM+KvhklmAdvTT86d47313;font-size:9.8px;font-style:NORMAL;font-weight:normal;">= 0%, </text>
  <text x="531.099" y="344.473" svg_rhmargin="536.607" style="fill:#131413;font-family:FCMNCG+XpjqrfAdvTT8861b38f.I;font-size:9.8px;font-style:NORMAL;font-weight:normal;">P</text>
  <text x="304.726,310.439,312.379,317.279,319.416,324.316,329.216,334.116,337.271,339.40700000000004,343.561,347.941,353.351,358.555,362.667,365.822,371.124,376.426,380.468,382.60400000000004,386.705,391.086,395.152,398.004,400.552,405.344,409.725,414.929,418.496,422.989,425.841,428.693,433.194,437.574,440.904,444.677,448.727,456.891,461.987,467.266,471.646,474.194,478.264,485.095,489.603,493.37600000000003,497.483,502.785,506.558,510.938,516.142,518.278,522.428,528.954,534.256" y="356.491" svg_rhmargin="538.637" style="fill:#131413;font-family:FCMIGM+KvhklmAdvTT86d47313;font-size:9.8px;font-style:NORMAL;font-weight:normal;">= 0.441), and thus, a fixed-effects model was used. The</text>
  <text x="304.726,308.401,312.781,316.554,321.856,324.404,327.744,331.51700000000005,336.021,341.117,343.969,348.493,351.649,356.95,361.331,365.898,369.671,374.972,380.068,384.762,388.519,393.615,398.916,404.12,408.645,413.025,418.435,422.815,425.363,429.848,433.621,436.169,439.942,444.475,448.856,452.531,456.91200000000003,461.426,465.199,470.501,475.597,482.515,487.925,492.437,494.985,500.39500000000004,504.909,510.522,514.902,519.998,522.546,526.927,531.496,536.429" y="368.453" svg_rhmargin="538.565" style="fill:#131413;font-family:FCMIGM+KvhklmAdvTT86d47313;font-size:9.8px;font-style:NORMAL;font-weight:normal;">results of the subgroup analysis are shown in Table 2.</text>
  <text x="304.726,311.252,316.554,320.93499999999995,325.475,328.327,330.875,336.284,341.488,344.036,349.446,354.218,357.99100000000004,362.609,367.705,370.55699999999996,375.195,379.576,384.152,389.356,393.903,398.283,401.958,406.339,410.854,414.627,419.007,424.211,428.883,434.292,438.673,443.053,448.257,452.864,455.716,460.812,464.487,469.135,472.29,475.965,480.346,485.755,489.528,492.38,497.682,501.563,504.111,509.207,514.617,519.251,526.082,530.462,534.137" y="380.471" svg_rhmargin="538.518" style="fill:#131413;font-family:FCMIGM+KvhklmAdvTT86d47313;font-size:9.8px;font-style:NORMAL;font-weight:normal;">The findings of a decreased need for transfusion were</text>
  <text x="304.726,309.106,314.202,319.612,323.385,325.933,329.706,332.959,337.34,342.749,345.90500000000003,349.287,352.139,357.235,360.91,364.31,369.514,372.062,374.914,377.765,382.146,385.821,390.201,395.611,398.767,402.181,407.385,412.556,416.329,420.709,424.482,427.863,432.959,435.811,439.145,445.672,452.404,459.342,462.786,467.167,471.857,476.238,480.618,485.822,488.978,492.38,495.232,500.328,504.003,507.403,510.559,515.861,520.242,523.617,527.292,529.84,533.613" y="392.49" svg_rhmargin="538.513" style="fill:#131413;font-family:FCMIGM+KvhklmAdvTT86d47313;font-size:9.8px;font-style:NORMAL;font-weight:normal;">consistent for different doses of TXA except for the risk</text>
  <text x="304.726,309.822,312.674,315.951,321.046,323.594,328.14,331.913,334.829,339.21,344.619,349.82300000000004,352.801,355.957,359.632,364.012,369.422,373.195,376.046,381.348,385.23,387.778,392.874,398.28400000000005,401.274,406.478,410.153,415.249,418.404,423.5,427.977,433.073,435.621" y="404.452" svg_rhmargin="437.757" style="fill:#131413;font-family:FCMIGM+KvhklmAdvTT86d47313;font-size:9.8px;font-style:NORMAL;font-weight:normal;">of bias and transfusion protocol.</text>
  <text x="304.724,309.324,314.302,317.264,322.149,324.348,327.174,332.152,334.35,339.328,344.305,349.282,352.063,354.261,359.239,362.873" y="428.491" svg_rhmargin="366.507" style="fill:#131413;font-family:FCNIJC+CfsvmvAdvTT83913201.I;font-size:9.2px;font-style:NORMAL;font-weight:normal;">Total blood loss</text>
  <text x="304.724,309.82,312.368,316.857,321.23800000000006,326.607,330.38,333.536,338.838,344.041,346.589,350.97,354.74300000000005,360.17,367.001,371.381,375.056,379.437,384.775,389.155,393.644,398.024,400.572,403.12,407.501,412.597,415.145,419.52599999999995,424.857,427.709,432.805,436.48,441.865,446.246,451.655,456.036,458.584,462.964,466.737,469.285,473.05800000000005,478.432,483.528,486.38,491.755,494.911,500.007,503.162,507.543,510.091,515.453,520.549,523.097,528.193,533.289" y="440.454" svg_rhmargin="538.493" style="fill:#131413;font-family:FCMIGM+KvhklmAdvTT86d47313;font-size:9.8px;font-style:NORMAL;font-weight:normal;">Five studies were available for analysis of total blood</text>
  <text x="304.724,307.272,312.368,316.141,319.914,322.05,326.098,332.625,339.357,346.295,350.306,355.509,358.057,363.359,367.132,371.169,378.313,383.82,389.328,393.392,395.94,400.32,405.524,409.549,412.704,417.8,421.795,425.568,428.116,432.81,438.293,440.841,443.693,446.241,450.621,455.002,460.411,463.567,466.115,470.496,474.577,477.125,481.506,485.279,489.052,493.059,496.214,501.31,504.466,508.846,511.394,515.453,520.548,523.096,528.192,533.288" y="452.472" svg_rhmargin="538.492" style="fill:#131413;font-family:FCMIGM+KvhklmAdvTT86d47313;font-size:9.8px;font-style:NORMAL;font-weight:normal;">loss. TXA plus DEP led to significantly less total blood</text>
  <path d=" M 56.69300079345703 691.7670288085938 L 538.5830078125 691.7670288085938 L 538.5830078125 691.654052734375 L 56.69300079345703 691.654052734375" style="fill:none;stroke:#131413;stroke-width:0.0;"/>
  <path d=" M 538.5830078125 552.3590087890625 L 56.6929931640625 552.3590087890625 L 56.6929931640625 552.472412109375 L 538.5830078125 552.472412109375 Z " style="fill:none;stroke:#131413;stroke-width:0.0;"/>
  <path d=" M 156.18899536132812 678.5009765625 L 56.6929931640625 678.5009765625 L 56.6929931640625 678.6143798828125 L 156.18899536132812 678.6143798828125 Z " style="fill:none;stroke:#131413;stroke-width:0.0;"/>
  <path d=" M 234.0279998779297 678.5009765625 L 156.18899536132812 678.5009765625 L 156.18899536132812 678.6143798828125 L 234.0279998779297 678.6143798828125 Z " style="fill:none;stroke:#131413;stroke-width:0.0;"/>
  <path d=" M 332.9010009765625 678.5009765625 L 234.02899169921875 678.5009765625 L 234.02899169921875 678.6143798828125 L 332.9010009765625 678.6143798828125 Z " style="fill:none;stroke:#131413;stroke-width:0.0;"/>
  <path d=" M 406.09100341796875 678.5009765625 L 332.8999938964844 678.5009765625 L 332.8999938964844 678.6143798828125 L 406.09100341796875 678.6143798828125 Z " style="fill:none;stroke:#131413;stroke-width:0.0;"/>
  <path d=" M 473.15899658203125 678.5009765625 L 406.09100341796875 678.5009765625 L 406.09100341796875 678.6143798828125 L 473.15899658203125 678.6143798828125 Z " style="fill:none;stroke:#131413;stroke-width:0.0;"/>
  <path d=" M 538.5830078125 678.5009765625 L 473.15899658203125 678.5009765625 L 473.15899658203125 678.6143798828125 L 538.5830078125 678.6143798828125 Z " style="fill:none;stroke:#131413;stroke-width:0.0;"/>
  <text svg_rhmargin="86.378" x="56.693,61.562,66.242,71.579,74.009,78.689,81.41,86.378" y="104.20799999999997" style="fill:#131413;font-family:FCMICI+KmmqjcAdvTTaf7f9f4f.B;font-size:9.0px;font-style:NORMAL;font-weight:normal;">Table 2 </text>
  <text x="89.065,93.187,97.867,102.736,107.605,110.224,115.003,119.683,124.552,127.275,131.298,136.077,140.1,141.972,145.905,149.181,151.053,154.329,157.039,159.379,164.158,166.777,169.455,172.173,176.952,181.263,183.968,188.747,193.058,197.369,202.238,204.945,207.285,212.064,214.683,217.36,220.078,222.697,226.72,231.499,234.775,237.115,241.795,245.071,246.943,251.722" y="104.20799999999997" svg_rhmargin="256.501" style="fill:#131413;font-family:FCMIFJ+FjrmrtAdvTTb5929f4c;font-size:9.0px;font-style:NORMAL;font-weight:normal;">Subgroup analysis for the need for transfusion</text>
  <text svg_rhmargin="270.557" x="56.693,60.357,64.517,68.845,73.173,75.501,79.749,83.909,88.23700000000001,156.188,161.268,165.516,166.844,169.227,171.643,173.971,175.635,179.211,180.875,183.787,234.027,238.027,242.027,244.403,246.483,250.314,254.146,259.978,262.318,266.814,268.477,270.55699999999996" y="117.36099999999999" style="fill:#000000;font-family:FCMIFJ+FjrmrtAdvTTb5929f4c;font-size:8.0px;font-style:NORMAL;font-weight:normal;">Subgroup No. trials RR (95% CI) </text>
  <text svg_rhmargin="336.644" x="332.9,336.644" y="117.36099999999999" style="fill:#000000;font-family:FCMIFM+LqbbyfAdvTT1b53b5fb.I;font-size:8.0px;font-style:NORMAL;font-weight:normal;">P </text>
  <text svg_rhmargin="355.887" x="339.079,342.655,346.231,347.895,352.055,355.887" y="117.36099999999999" style="fill:#000000;font-family:FCMIFJ+FjrmrtAdvTTb5929f4c;font-size:8.0px;font-style:NORMAL;font-weight:normal;">value </text>
  <text x="406.089" y="117.36099999999999" svg_rhmargin="407.665" style="fill:#000000;font-family:FCMIFM+LqbbyfAdvTT1b53b5fb.I;font-size:8.0px;font-style:NORMAL;font-weight:normal;">I</text>
  <text svg_rhmargin="410.553" x="407.679,410.553" y="117.36099999999999" style="fill:#000000;font-family:FCMIFJ+FjrmrtAdvTTb5929f4c;font-size:5.33px;font-style:NORMAL;font-weight:normal;">2 </text>
  <text svg_rhmargin="532.426" x="412.951,415.031,420.863,422.943,473.159,476.823,480.655,483.567,485.983,488.353,492.6,494.68,497.083,498.747,502.995,505.411,509.243,511.571,515.147,518.643,521.059,522.723,526.97,531.098,532.4259999999999" y="117.36099999999999" style="fill:#000000;font-family:FCMIFJ+FjrmrtAdvTTb5929f4c;font-size:8.0px;font-style:NORMAL;font-weight:normal;">(%) Test of interaction, </text>
  <text x="534.84" y="117.36099999999999" svg_rhmargin="538.584" style="fill:#000000;font-family:FCMIFM+LqbbyfAdvTT1b53b5fb.I;font-size:8.0px;font-style:NORMAL;font-weight:normal;">P</text>
  <text x="56.694,60.694,62.358,65.27,68.598,70.98,75.228,77.30799999999999,79.711,84.039,85.703,89.279" y="130.51300000000003" svg_rhmargin="92.191" style="fill:#000000;font-family:FCMIFJ+FjrmrtAdvTTb5929f4c;font-size:8.0px;font-style:NORMAL;font-weight:normal;">Risk of bias</text>
  <text x="64.687,68.263,72.511,78.255,156.19,160.022,234.029,237.861,239.189,243.02,246.852,249.222,251.302,255.134,256.462,260.294,264.126,265.45399999999995,267.817,271.649,272.977,276.809,280.641,282.721,332.9,336.732,338.06,341.892,345.724,349.556,406.09,409.922,413.754,415.082,418.914,497.535,501.367,502.695,506.527,510.359" y="144.51599999999996" svg_rhmargin="514.191" style="fill:#000000;font-family:FCMIFJ+FjrmrtAdvTTb5929f4c;font-size:8.0px;font-style:NORMAL;font-weight:normal;">Low 4 0.60 (0.38, 0.95) 0.028 35.5 0.047</text>
  <text x="64.687,69.687,73.935,77.431,79.095,82.927,86.503,88.831,91.575,95.823,97.399,101.727,105.97500000000001,156.19,160.022,234.029,237.861,239.189,243.02,246.852,249.222,251.302,255.134,256.462,260.294,264.126,265.45399999999995,267.817,271.649,272.977,276.809,280.641,282.721,332.9,336.732,338.06,341.892,345.724,349.556,406.09" y="158.519" svg_rhmargin="409.922" style="fill:#000000;font-family:FCMIFJ+FjrmrtAdvTTb5929f4c;font-size:8.0px;font-style:NORMAL;font-weight:normal;">Unclear/high 3 0.50 (0.21, 1.16) 0.105 0</text>
  <text x="56.694,61.854,66.102,69.014,72.84599999999999,75.233,79.481,81.56099999999999,83.907,87.571,91.899" y="172.52200000000005" svg_rhmargin="96.563" style="fill:#000000;font-family:FCMIFJ+FjrmrtAdvTTb5929f4c;font-size:8.0px;font-style:NORMAL;font-weight:normal;">Dose of TXA</text>
  <text x="64.687,68.263,72.511,78.255,156.19,160.022,234.029,237.861,239.189,243.02,246.852,249.222,251.302,255.134,256.462,260.294,264.126,265.45399999999995,267.817,271.649,272.977,276.809,280.641,282.721,332.9,336.732,338.06,341.892,345.724,349.556,406.09,409.922,413.754,415.082,418.914,497.535,501.367,502.695,506.527,510.359" y="186.52599999999995" svg_rhmargin="514.191" style="fill:#000000;font-family:FCMIFJ+FjrmrtAdvTTb5929f4c;font-size:8.0px;font-style:NORMAL;font-weight:normal;">Low 4 0.60 (0.38, 0.93) 0.014 34.1 0.125</text>
  <text x="64.687,69.687,71.351,75.679,79.927,156.19,160.022,234.029,237.861,239.189,243.02,246.852,249.222,251.302,255.134,256.462,260.294,264.126,265.45399999999995,267.817,271.649,272.977,276.809,280.641,282.721,332.9,336.732,338.06,341.892,345.724,349.556,406.09" y="200.529" svg_rhmargin="409.922" style="fill:#000000;font-family:FCMIFJ+FjrmrtAdvTTb5929f4c;font-size:8.0px;font-style:NORMAL;font-weight:normal;">High 3 0.50 (0.16, 0.84) 0.023 0</text>
  <text x="56.694,60.358,62.686,66.262,70.51,73.422,75.502,79.662,82.574,84.238,88.486,92.73400000000001,95.075,99.403,101.731,105.979,108.395,112.643,116.139,120.387" y="214.53200000000004" svg_rhmargin="122.051" style="fill:#000000;font-family:FCMIFJ+FjrmrtAdvTTb5929f4c;font-size:8.0px;font-style:NORMAL;font-weight:normal;">Transfusion protocol</text>
  <text x="64.687,68.351,70.767,73.095,74.759,78.255,80.67099999999999,156.19,160.022,234.029,237.861,239.189,243.02,246.852,249.222,251.302,255.134,256.462,260.294,264.126,265.45399999999995,267.817,271.649,272.977,276.809,280.641,282.721,332.9,336.732,338.06,341.892,345.724,349.556,406.09,409.92199999999997,497.536,501.367,502.695,506.527,510.359" y="228.53499999999997" svg_rhmargin="514.191" style="fill:#000000;font-family:FCMIFJ+FjrmrtAdvTTb5929f4c;font-size:8.0px;font-style:NORMAL;font-weight:normal;">Strict 3 0.43 (0.18, 1.05) 0.064 0 0.043</text>
  <text x="64.687,68.263,72.511,76.759,79.671,83.503,156.19,160.022,234.029,237.861,239.189,243.02,246.852,249.222,251.302,255.134,256.462,260.294,264.126,265.45399999999995,267.817,271.649,272.977,276.809,280.641,282.721,332.9,336.732,338.06,341.892,345.724,349.556,406.09,409.922,413.754,415.082" y="242.538" svg_rhmargin="418.914" style="fill:#000000;font-family:FCMIFJ+FjrmrtAdvTTb5929f4c;font-size:8.0px;font-style:NORMAL;font-weight:normal;">Loose 4 0.63 (0.40, 0.98) 0.041 14.5</text>
  <path d=" M 60.71799850463867 327.9119873046875 L 534.5570068359375 327.9119873046875 L 534.5570068359375 327.6289978027344 L 60.71799850463867 327.6289978027344" style="fill:none;stroke:#131413;stroke-width:0.0;"/>
  <path d=" M 534.5570068359375 327.9119873046875 L 535.2940063476562 327.85498046875 C 536.9650268554688 327.4419860839844 538.2360229492188 326.3039855957031 538.5260009765625 324.5669860839844 L 538.58203125 323.8869934082031 L 538.35498046875 323.8869934082031 L 538.2990112304688 324.5669860839844 C 537.9849853515625 326.13397216796875 536.81201171875 327.281982421875 535.2369995117188 327.5719909667969 L 534.5570068359375 327.6289978027344" style="fill:none;stroke:#131413;stroke-width:0.0;"/>
  <path d=" M 538.5830078125 323.8869934082031 L 538.5830078125 63.552978515625 L 538.3560180664062 63.552978515625 L 538.3560180664062 323.8869934082031" style="fill:none;stroke:#131413;stroke-width:0.0;"/>
  <path d=" M 538.5830078125 63.553009033203125 L 538.5260009765625 62.816009521484375 C 538.3309936523438 61.25600814819336 536.781982421875 59.812007904052734 535.2949829101562 59.584007263183594 L 534.5579833984375 59.52800750732422 L 534.5579833984375 59.81100845336914 L 535.238037109375 59.86800765991211 C 536.7850341796875 60.06300735473633 538.010009765625 61.37400817871094 538.2999877929688 62.873008728027344 L 538.3560180664062 63.553009033203125" style="fill:none;stroke:#131413;stroke-width:0.0;"/>
  <path d=" M 534.5570068359375 59.52800750732422 L 60.718017578125 59.52800750732422 L 60.718017578125 59.81100845336914 L 534.5570068359375 59.81100845336914" style="fill:none;stroke:#131413;stroke-width:0.0;"/>
  <path d=" M 60.717987060546875 59.52800750732422 L 59.980987548828125 59.58500671386719 C 58.493988037109375 59.812007904052734 56.94498825073242 61.25600814819336 56.748985290527344 62.816009521484375 L 56.69298553466797 63.553009033203125 L 56.919986724853516 63.553009033203125 L 56.97598648071289 62.873008728027344 C 57.265987396240234 61.37400817871094 58.49098587036133 60.06300735473633 60.037986755371094 59.86800765991211 L 60.717987060546875 59.812007904052734" style="fill:none;stroke:#131413;stroke-width:0.0;"/>
  <path d=" M 56.69298553466797 63.553009033203125 L 56.69298553466797 323.88702392578125 L 56.919986724853516 323.88702392578125 L 56.919986724853516 63.553009033203125" style="fill:none;stroke:#131413;stroke-width:0.0;"/>
  <path d=" M 56.69298553466797 323.8869934082031 L 56.74998474121094 324.5669860839844 C 57.03898620605469 326.3039855957031 58.30998611450195 327.4419860839844 59.980987548828125 327.8559875488281 L 60.717987060546875 327.9119873046875 L 60.717987060546875 327.6289978027344 L 60.037986755371094 327.5719909667969 C 58.463985443115234 327.281982421875 57.28998565673828 326.1349792480469 56.97598648071289 324.5669860839844 L 56.919986724853516 323.8869934082031" style="fill:none;stroke:#131413;stroke-width:0.0;"/>
  <path d="M56.693 108.232 L538.583 108.232 L538.583 108.345 L56.693 108.345 M60.717 472.088 L534.557 472.088 L534.557 472.371 L60.717 472.371 M534.557 472.088 L535.294 472.145 C536.965 472.558 538.236 473.696 538.526 475.433 L538.582 476.113 L538.354 476.113 L538.299 475.433 C537.985 473.866 536.812 472.718 535.237 472.428 L534.557 472.371 M538.583 476.113 L538.583 736.447 L538.356 736.447 L538.356 476.113 M538.583 736.446 L538.526 737.183 C538.331 738.743 536.782 740.187 535.295 740.415 L534.557 740.471 L534.557 740.188 L535.238 740.131 C536.785 739.936 538.01 738.625 538.3 737.126 L538.356 736.446 M534.557 740.471 L60.718 740.471 L60.718 740.188 L534.557 740.188 M60.717 740.471 L59.98 740.414 C58.493 740.187 56.944 738.743 56.748 737.183 L56.692 736.446 L56.919 736.446 L56.975 737.126 C57.265 738.625 58.49 739.936 60.037 740.131 L60.717 740.187 M56.692 736.446 L56.692 476.112 L56.919 476.112 L56.919 736.446 M56.692 476.113 L56.749 475.433 C57.038 473.696 58.309 472.558 59.98 472.144 L60.717 472.088 L60.717 472.371 L60.037 472.428 C58.463 472.718 57.289 473.865 56.975 475.433 L56.919 476.113 M127.276 478.381 L468.0 478.381 L468.0 722.217 L127.276 722.217 " style="fill:none;stroke:#000000;stroke-width:1.0;"/>
  <rect style="stroke:blue;stroke-width:0.3;" x="127.276" y="478.381" height="243.836" width="340.756" title="6"/>
  <text x="127.276" y="478.381" class="image" id="image.6.1" width="340" height="243">image.6.1.127_468.478_722</text>
  <text svg_rhmargin="82.482" x="62.702,66.862,69.022,73.686,75.686,78.066,82.482" y="734.236" style="fill:#131413;font-family:FCMICI+KmmqjcAdvTTaf7f9f4f.B;font-size:8.0px;font-style:NORMAL;font-weight:normal;">Fig. 5 </text>
  <text x="84.869,88.533,92.781,95.109,98.941,101.853,104.26899999999999,106.583,110.91,112.574,116.822,119.238,121.663,123.743,127.991,130.319,132.661,135.077,139.325,143.15699999999998,145.531,149.027,153.275,159.771,164.099,167.675,170.003,171.667,174.578,178.826,183.07399999999998,185.386,189.634,191.714,194.117,196.533,200.781,203.196,206.772,208.43599999999998,210.784,215.112,216.776,221.024,225.272,229.6,231.987,233.651,237.899,240.811,243.723,246.104,250.432,254.264,256.68,262.424,266.256,270.088,274.336,276.661,279.077,283.325,287.157,289.531,293.194,297.522,302.186,304.554,308.882,310.546,314.706,317.618,319.975,325.135,328.799,332.799,335.168,338.744,342.992,347.32,349.739,353.402,357.73,362.394,364.762,368.338,370.002,374.25,378.498,382.33,384.661,388.989,391.317,395.565,399.725,404.053" y="734.236" svg_rhmargin="406.965" style="fill:#131413;font-family:FCMIFJ+FjrmrtAdvTTb5929f4c;font-size:8.0px;font-style:NORMAL;font-weight:normal;">Forest plot for the comparison of total blood loss between the TXA plus DEP and TXA alone groups</text>
  <text svg_rhmargin="115.039" x="56.693,63.437,67.269,71.685,76.101,78.463,82.295,86.711,91.207,93.544,97.959,102.375,106.207,110.623,115.039" y="48.14200000000005" style="fill:#131413;font-family:FCMIFI+GghxhkAdvTTe45e47d2;font-size:8.0px;font-style:NORMAL;font-weight:normal;">Wang and Zhang </text>
  <text svg_rhmargin="264.355" x="117.41,120.242,124.402,128.562,131.058,135.306,139.466,141.21,143.546,147.706,149.95399999999998,152.333,157.661,160.157,162.653,166.901,171.061,175.221,179.381,182.957,187.117,188.787,192.115,194.513,198.177,202.337,204.833,208.993,212.569,215.065,218.561,220.932,225.092,229.34,233.5,235.899,240.059,243.635,246.547,250.123,254.283,256.779,260.107,264.355" y="48.14200000000005" style="fill:#131413;font-family:FCMJCJ+TlfdkfAdvTT7329fd89.I;font-size:8.0px;font-style:NORMAL;font-weight:normal;">Journal of Orthopaedic Surgery and Research </text>
  <text svg_rhmargin="314.906" y="48.14200000000005" x="268.378,270.65,274.754,278.858,282.962,287.066,289.338,291.034,295.138,299.242,300.898,305.002,309.106,313.21,314.906" style="fill:#131413;font-family:MyriadPro-Regular;font-size:8.0px;font-style:NORMAL;font-weight:normal;">(2018) 13:242 </text>
  <text x="496.061,500.309,504.141,508.557,512.557,514.94,519.0200000000001,521.403,525.731,528.059,530.417,534.497" y="48.14200000000005" svg_rhmargin="538.577" style="fill:#131413;font-family:FCMIFI+GghxhkAdvTTe45e47d2;font-size:8.0px;font-style:NORMAL;font-weight:normal;">Page 6 of 11</text>
 </g>
</svg>
