<?xml version="1.0" encoding="UTF-8"?>
<svg height="870.031005859375" width="672.0029907226562" xmlns="http://www.w3.org/2000/svg">
 <g style="fill:none;">
  <path d=" M 0.05999799817800522 826.072021484375 L 22.619997024536133 826.072021484375 L 22.619997024536133 826.35546875 L 0.05999799817800522 826.35546875 Z " style="fill:none;stroke:#000000;stroke-width:1.0;"/>
  <path d=" M 33.67599868774414 837.4110107421875 L 33.959449768066406 837.4110107421875 L 33.959449768066406 860.031005859375 L 33.67599868774414 860.031005859375 Z " style="fill:none;stroke:#000000;stroke-width:1.0;"/>
  <path d=" M 627.9869995117188 837.4110107421875 L 628.2703857421875 837.4110107421875 L 628.2703857421875 860.031005859375 L 627.9869995117188 860.031005859375 Z " style="fill:none;stroke:#000000;stroke-width:1.0;"/>
  <path d=" M 639.3259887695312 826.072021484375 L 662.0029907226562 826.072021484375 L 662.0029907226562 826.35546875 L 639.3259887695312 826.35546875 Z " style="fill:none;stroke:#000000;stroke-width:1.0;"/>
  <path d=" M 639.3259887695312 33.731998443603516 L 662.0029907226562 33.731998443603516 L 662.0029907226562 34.015480041503906 L 639.3259887695312 34.015480041503906 Z " style="fill:none;stroke:#000000;stroke-width:1.0;"/>
  <path d=" M 627.9869995117188 0.0 L 628.2703857421875 0.0 L 628.2703857421875 22.677000045776367 L 627.9869995117188 22.677000045776367 Z " style="fill:none;stroke:#000000;stroke-width:1.0;"/>
  <path d=" M 33.67599868774414 0.0 L 33.959449768066406 0.0 L 33.959449768066406 22.677000045776367 L 33.67599868774414 22.677000045776367 Z " style="fill:none;stroke:#000000;stroke-width:1.0;"/>
  <path d=" M 0.05999799817800522 33.731998443603516 L 22.619997024536133 33.731998443603516 L 22.619997024536133 34.015480041503906 L 0.05999799817800522 34.015480041503906 Z " style="fill:none;stroke:#000000;stroke-width:1.0;"/>
  <text x="85.039,90.955,93.908,98.646,105.744,108.498,113.723,119.241,125.156,130.381,135.605,138.359,144.076" y="354.167" svg_rhmargin="149.991" style="fill:#171615;font-family:FHEGPI+AdvOTfbba3ace.B;font-size:9.46px;font-style:NORMAL;font-weight:normal;">4. Discussion</text>
  <text x="85.039,94.006,98.489,100.91,104.828,107.149,112.099,115.551,119.469,123.952,127.404,130.291,132.66,136.579,141.062,146.011,149.929,153.848,157.3,159.589,162.01,165.462,167.809,172.292,174.612,178.064,182.547,185.999,189.917,192.243,197.193,199.613,203.066,206.984,211.467,214.919,218.837,221.25799999999998,223.593,228.076,231.994,235.913,240.862,245.811,250.761,253.648,256.069,261.018,265.501,267.869,270.756,275.705,279.157,281.475,285.958,290.907,295.857,300.806,303.693,306.022,310.971,319.937,322.292,327.242" y="366.129" svg_rhmargin="330.129" style="fill:#171615;font-family:FHEHAC+AdvOTbc475f09;font-size:8.97px;font-style:NORMAL;font-weight:normal;">Male breast cancer is a rare disease, accounting for about 1% of</text>
  <text x="85.039,89.523,91.943,94.364,96.774,101.724,105.176,109.094,113.577,117.029,119.916,122.342,129.712,134.195,136.616,139.037,143.52,148.47,152.953,157.902,161.821,164.241,168.16,171.612" y="377.071" svg_rhmargin="174.033" style="fill:#171615;font-family:FHEHAC+AdvOTbc475f09;font-size:8.97px;font-style:NORMAL;font-weight:normal;">all breast malignancies.</text>
  <text svg_rhmargin="182.148" x="174.104,176.27,179.983,182.148" y="377.071" style="fill:#171615;font-family:FHEHAC+AdvOTbc475f09;font-size:5.98px;font-style:NORMAL;font-weight:normal;">[1] </text>
  <text x="184.592,193.558,198.508,201.96,204.847,207.269,214.639,219.122,221.543,225.461,227.905,232.854,237.337,240.224,242.645,246.564,251.513,254.4,257.85200000000003,260.275,267.179,269.6,272.487,277.43600000000004,279.89,284.84,288.292,292.21,296.693,300.145,303.032,305.458,309.376,313.859,318.809,322.727,326.645" y="377.071" svg_rhmargin="330.097" style="fill:#171615;font-family:FHEHAC+AdvOTbc475f09;font-size:8.97px;font-style:NORMAL;font-weight:normal;">Most male patients with breast cancer</text>
  <text x="85.039,89.522,92.974,96.89200000000001,100.97,105.919,108.34,112.823,117.306,122.256,127.205,130.657,134.575,139.524,143.658,148.608,152.526,155.413,162.317,166.235,170.154,175.103,179.203,182.09,187.04,190.958,195.077,199.56,204.044,207.96200000000002,212.028,216.978,219.865,223.99,228.939,233.888,237.936,242.419,247.369,252.318,256.418,261.367,266.31600000000003,270.42,274.903,278.822,283.305,286.757,290.209,294.288,299.237,301.658,306.607" y="388.013" svg_rhmargin="309.028" style="fill:#171615;font-family:FHEHAC+AdvOTbc475f09;font-size:8.97px;font-style:NORMAL;font-weight:normal;">are diagnosed between the age of 60 and 70 years old.</text>
  <text x="309.09,311.256,314.968,318.681,320.497,324.21,327.923" y="384.044" svg_rhmargin="330.088" style="fill:#171615;font-family:FHEHAC+AdvOTbc475f09;font-size:5.98px;font-style:NORMAL;font-weight:normal;">[17,18]</text>
  <text x="85.039,92.508,97.458,104.362,108.28,112.763,116.681,120.133,122.554,124.27,127.157,132.106,136.024,139.476,143.394,145.075,149.558,153.01,156.928,158.624,161.511,165.429,172.333,174.044,176.465,178.886,181.773,185.691,189.144,193.627,196.514,201.463,204.915,208.834,212.286,214.012,217.464,221.382,226.331,231.281,234.733,237.62,240.041,244.99,249.473,251.201,254.088,259.038,262.956,264.637,268.555,270.976,273.397,278.347,280.767,284.686,289.635,294.585,299.068,301.955,306.904,311.854,314.275,319.224,323.707,326.128" y="399.011" svg_rhmargin="330.046" style="fill:#171615;font-family:FHEHAC+AdvOTbc475f09;font-size:8.97px;font-style:NORMAL;font-weight:normal;">However, there are few literatures reporting the clinicopathologic</text>
  <text svg_rhmargin="330.078" x="85.039,87.927,91.845,96.328,99.215,104.165,107.617,111.535,114.987,119.281,123.764,128.713,133.662,137.932,142.882,146.334,151.283,155.766,160.716,165.665,169.117,172.004,174.425,178.34300000000002,182.605,185.492,189.976,193.894,196.781,201.73,205.182,208.634,212.935,217.884,220.771,225.067,229.55,234.5,239.449,244.398,248.881,253.129,260.499,264.982,267.403,271.321,275.635,280.585,284.037,287.955,292.438,295.89,298.777,303.017,306.936,311.419,316.368,320.286,324.205,327.657,330.078" y="354.734" style="fill:#171615;font-family:FHEHAC+AdvOTbc475f09;font-size:8.97px;font-style:NORMAL;font-weight:normal;">features and prognostic factors of young male breast cancer. </text>
  <text x="345.091,347.978,352.927,355.814,359.733,363.185,367.103,370.555,373.442,375.863,380.813,385.296,387.717,392.2,394.621,400.081,403.533,406.42,411.37,416.319,418.74,422.658,426.11,431.545,436.494,440.977,445.46,449.378,454.788,458.24,462.158,467.108,472.057,475.509,478.396,482.315,487.264,492.715,495.602,500.551,505.034,507.921,513.351,516.238,521.187,525.105,530.528,533.415,538.365,545.735,550.685,554.137,559.611,564.561,566.982,571.931,574.352,579.301,583.784,586.205" y="354.734" svg_rhmargin="590.123" style="fill:#171615;font-family:FHEHAC+AdvOTbc475f09;font-size:8.97px;font-style:NORMAL;font-weight:normal;">Interestingly, studies have reported that the tumor biologic</text>
  <text x="345.091,350.04,353.958,358.908,363.391,367.874,370.295,375.244,378.696,380.466,385.415,388.302,390.103,394.587,399.536,404.485,409.435,413.918,417.836,421.288,423.098,430.002,434.951,442.321,446.24,451.189,453.031,457.98,460.401,464.884,469.367,474.317,479.266,482.718,486.636,491.58500000000004,493.394,500.298,502.719,505.606,510.555,512.386,517.335,520.787,524.706,529.189,532.641,535.5279999999999,537.33,541.248,545.732,550.681,554.599,558.518,561.97,563.805,566.692,570.61,575.56,580.5089999999999,582.286,585.173" y="365.675" svg_rhmargin="590.122" style="fill:#171615;font-family:FHEHAC+AdvOTbc475f09;font-size:8.97px;font-style:NORMAL;font-weight:normal;">behavior of younger women diagnosed with breast cancer tend to</text>
  <text x="345.091,350.04,353.958,360.228,367.598,372.547,375.999,379.91700000000003,386.192,390.675,395.159,399.642,403.094,407.012,410.464,413.916,416.337,420.82,424.738,427.159,433.473,440.377,445.326,447.747,451.665,456.61400000000003,462.952,469.856,474.805,479.755,482.176,487.125,493.395,497.314,502.263,507.212,510.664,514.583,519.532,524.481,528.4,533.349,536.236,538.657,543.14,549.462,551.883,555.802,560.285,565.2339999999999,571.516,574.403,579.352,585.632" y="376.617" svg_rhmargin="590.115" style="fill:#171615;font-family:FHEHAC+AdvOTbc475f09;font-size:8.97px;font-style:NORMAL;font-weight:normal;">be more aggressive, which would consequently lead to a</text>
  <text x="345.091,351.995,356.944,360.396,363.848,367.767,372.716,376.634,381.583,389.14,394.089,397.541,402.49,406.974,411.923,416.872,420.324,422.745,426.197,433.812,437.731,442.68,450.05,455.0,459.483,462.935,466.853,471.802,479.393,486.297,488.718,491.605,496.55400000000003,504.166,509.116,511.537,516.486,520.404,523.856,531.435,538.339,543.288,550.659,554.577,559.526" y="387.615" svg_rhmargin="561.947" style="fill:#171615;font-family:FHEHAC+AdvOTbc475f09;font-size:8.97px;font-style:NORMAL;font-weight:normal;">worsened prognosis compared with older women.</text>
  <text x="561.997,564.163,567.875,569.692,573.404" y="383.591" svg_rhmargin="577.116" style="fill:#171615;font-family:FHEHAC+AdvOTbc475f09;font-size:5.98px;font-style:NORMAL;font-weight:normal;">[9,11</text>
  <text x="577.134" y="383.591" svg_rhmargin="580.496" style="fill:#171615;font-family:FHEHBD+AdvOTbc475f09+20;font-size:5.98px;font-style:NORMAL;font-weight:normal;">–</text>
  <text x="580.535,584.248,587.96" y="383.591" svg_rhmargin="590.125" style="fill:#171615;font-family:FHEHAC+AdvOTbc475f09;font-size:5.98px;font-style:NORMAL;font-weight:normal;">14]</text>
  <text x="345.09,350.972,355.921,359.839,363.291,367.21,370.097,375.046,378.498,382.416,384.837,389.705,394.188,399.137,404.048,406.469,411.418,416.294,421.243,425.161,430.111,432.998,437.947,442.825,447.774,452.724,457.673,461.592,465.044,468.496,471.383,475.866,480.815,485.765,488.186,493.135,497.618,502.521,507.47,510.357,515.22,519.703,524.652,529.602,534.551,539.034,543.906,551.276,555.759,558.18,562.098,566.979,571.928,575.38,579.298,583.782,587.234" y="398.558" svg_rhmargin="590.121" style="fill:#171615;font-family:FHEHAC+AdvOTbc475f09;font-size:8.97px;font-style:NORMAL;font-weight:normal;">Therefore, an in depth understanding of young male breast</text>
  <text x="345.09,349.008,353.491,358.441,362.359,366.277,369.729,372.699,375.12,378.572,381.6,386.549,390.001,394.484,398.402,403.352,406.239,408.66,413.14300000000003,416.124,421.074,424.992,428.91,433.86,437.778,442.727" y="409.499" svg_rhmargin="445.148" style="fill:#171615;font-family:FHEHAC+AdvOTbc475f09;font-size:8.97px;font-style:NORMAL;font-weight:normal;">cancer is urgently needed.</text>
  <path d=" M 85.03900146484375 367.7099914550781 L 590.115966796875 367.7099914550781 L 590.115966796875 368.4469909667969 L 85.03900146484375 368.4469909667969 Z " style="fill:none;stroke:#000000;stroke-width:1.0;"/>
  <path d=" M 85.03900146484375 84.302001953125 L 590.115966796875 84.302001953125 L 590.115966796875 85.03903198242188 L 85.03900146484375 85.03903198242188 Z " style="fill:none;stroke:#000000;stroke-width:1.0;"/>
  <path d="M109.247 439.376 L565.965 439.376 L565.965 688.03 L109.247 688.03 " style="fill:none;stroke:#000000;stroke-width:1.0;"/>
  <rect style="stroke:blue;stroke-width:0.3;" x="109.247" y="439.377" height="248.655" width="456.797" title="5"/>
  <text x="109.247" y="439.377" class="image" id="image.5.1" width="456" height="248">image.5.1.109_566.439_688</text>
  <text svg_rhmargin="114.541" x="85.039,89.396,91.183,95.54,99.814,102.378,106.503,108.399,112.524,114.541" y="699.03" style="fill:#171615;font-family:FHEHPG+AdvOTf94803d4;font-size:7.47px;font-style:NORMAL;font-weight:normal;">Figure 5. </text>
  <text x="118.261,122.386,126.353,130.164,132.037,133.905,138.029,140.361,144.171,147.75,149.924,151.765,156.039,157.361,161.486,163.66,165.541,167.409,171.533,173.86399999999998,175.688,179.656,183.466,186.888,190.699,193.03,197.304,199.214,201.545,205.356,207.53,208.852,212.977,214.804,216.978,221.103,222.967,226.778,230.902,237.044,241.318,245.129,247.46,251.27100000000002,253.126,256.936,260.747,264.715,268.525,272.336,274.667,277.387,280.966,285.325,289.135,292.946" y="699.03" svg_rhmargin="294.269" style="fill:#171615;font-family:FHEGPK+AdvOT6e5d2ec0;font-size:7.47px;font-style:NORMAL;font-weight:normal;">The forest plot for hazard ratio to compare cancer-speci</text>
  <text x="294.292" y="699.03" svg_rhmargin="297.557" style="fill:#171615;font-family:FHEGPN+AdvOT6e5d2ec0+fb;font-size:7.47px;font-style:NORMAL;font-weight:normal;">ﬁ</text>
  <text svg_rhmargin="455.718" x="297.58,301.39099999999996,303.193,306.772,310.739,313.07,316.493,317.815,321.237,325.131,326.45399999999995,328.249,330.035,335.243,339.913,344.583,346.369,348.26,352.534,356.345,358.519,364.041,367.851,371.662,375.63,377.512,383.654,387.464,388.787,392.59799999999996,394.461,398.735,401.067,404.877,408.688,412.267,414.441,416.287,420.097,423.908,427.875,431.686,435.496,437.827,439.699,443.509,447.634,451.444,455.718" y="699.03" style="fill:#171615;font-family:FHEGPK+AdvOT6e5d2ec0;font-size:7.47px;font-style:NORMAL;font-weight:normal;">c survival (CSS) between male breast cancer aged </text>
  <text x="457.623" y="699.03" svg_rhmargin="463.376" style="fill:#171615;font-family:FHEGPO+AdvP4C4E51;font-size:7.47px;font-style:NORMAL;font-weight:normal;">&lt;</text>
  <text x="463.349,467.474,471.599,473.44,476.863,480.674,484.553,486.884,490.463,492.263,496.074,500.042,504.316,506.209,508.078,511.889,518.032,521.843,523.166,526.9770000000001,528.831,533.106,535.438,539.249,543.061,546.64,548.814,550.66,554.472,558.283,562.251,566.139,569.949,572.28,574.075,577.886,582.011,585.822" y="699.03" svg_rhmargin="590.096" style="fill:#171615;font-family:FHEGPK+AdvOT6e5d2ec0;font-size:7.47px;font-style:NORMAL;font-weight:normal;">40 years and female breast cancer aged</text>
  <text x="85.039" y="707.987" svg_rhmargin="90.792" style="fill:#171615;font-family:FHEGPO+AdvP4C4E51;font-size:7.47px;font-style:NORMAL;font-weight:normal;">&lt;</text>
  <text svg_rhmargin="230.99" x="90.821,94.946,99.071,101.536,104.958,108.768,112.579,114.91,118.48899999999999,121.036,124.847,128.658,132.468,136.593,138.924,143.198,144.52,148.488,152.613,155.163,157.337,161.462,163.95,168.224,169.546,171.414,173.282,177.093,179.424,183.235,187.202,189.376,191.897,195.319,199.13,201.461,202.784,206.594,210.945,212.267,216.078,219.657,221.674,224.153,229.361,230.98999999999998" y="707.987" style="fill:#171615;font-family:FHEGPK+AdvOT6e5d2ec0;font-size:7.47px;font-style:NORMAL;font-weight:normal;">40 years according to different variables. CI </text>
  <text svg_rhmargin="238.574" x="233.516,238.575" y="707.987" style="fill:#171615;font-family:FHEHAB+AdvOTb0c9bf5d;font-size:7.47px;font-style:NORMAL;font-weight:normal;">= </text>
  <text x="241.056,244.866,248.991" y="707.987" svg_rhmargin="252.959" style="fill:#171615;font-family:FHEGPK+AdvOT6e5d2ec0;font-size:7.47px;font-style:NORMAL;font-weight:normal;">con</text>
  <text x="253.018" y="707.987" svg_rhmargin="256.283" style="fill:#171615;font-family:FHEGPN+AdvOT6e5d2ec0+fb;font-size:7.47px;font-style:NORMAL;font-weight:normal;">ﬁ</text>
  <text svg_rhmargin="314.504" x="256.25,260.524,264.334,268.302,272.112,275.923,278.472,279.794,283.762,285.936,289.747,292.078,295.5,299.31,300.633,302.65,305.172,309.528,314.504" y="707.987" style="fill:#171615;font-family:FHEGPK+AdvOT6e5d2ec0;font-size:7.47px;font-style:NORMAL;font-weight:normal;">dence interval, ER </text>
  <text svg_rhmargin="322.083" x="317.025,322.084" y="707.987" style="fill:#171615;font-family:FHEHAB+AdvOTb0c9bf5d;font-size:7.47px;font-style:NORMAL;font-weight:normal;">= </text>
  <text svg_rhmargin="396.482" x="324.564,328.375,331.954,334.128,336.459,340.584,344.708,348.6,352.56800000000004,355.063,357.395,361.205,365.016,368.827,373.1,375.275,379.399,381.73,383.747,386.299,391.506,396.48199999999997" y="707.987" style="fill:#171615;font-family:FHEGPK+AdvOT6e5d2ec0;font-size:7.47px;font-style:NORMAL;font-weight:normal;">estrogen receptor, HR </text>
  <text svg_rhmargin="404.059" x="399.001,404.06" y="707.987" style="fill:#171615;font-family:FHEHAB+AdvOTb0c9bf5d;font-size:7.47px;font-style:NORMAL;font-weight:normal;">= </text>
  <text svg_rhmargin="458.648" x="406.541,410.509,414.319,417.741,421.552,423.883,428.157,430.691,433.022,436.833,439.007,440.329,444.454,446.471,449.001,453.672,458.648" y="707.987" style="fill:#171615;font-family:FHEGPK+AdvOT6e5d2ec0;font-size:7.47px;font-style:NORMAL;font-weight:normal;">hazard ratio, PR </text>
  <text svg_rhmargin="466.194" x="461.136,466.19500000000005" y="707.987" style="fill:#171615;font-family:FHEHAB+AdvOTb0c9bf5d;font-size:7.47px;font-style:NORMAL;font-weight:normal;">= </text>
  <text x="468.676,472.95,475.281,479.405,483.53,487.341,490.919,493.094,496.904,499.236,503.36,507.328,511.13899999999995,513.743,516.074,519.885,523.695,527.506,531.78,533.954,538.078,540.41" y="707.987" svg_rhmargin="542.427" style="fill:#171615;font-family:FHEGPK+AdvOT6e5d2ec0;font-size:7.47px;font-style:NORMAL;font-weight:normal;">progesterone receptor.</text>
  <path d=" M 85.03900146484375 766.885009765625 L 590.1729736328125 766.885009765625 L 590.1729736328125 767.6220092773438 L 85.03900146484375 767.6220092773438 Z " style="fill:none;stroke:#000000;stroke-width:1.0;"/>
  <path d=" M 85.03900146484375 483.8169860839844 L 590.1729736328125 483.8169860839844 L 590.1729736328125 484.5539855957031 L 85.03900146484375 484.5539855957031 Z " style="fill:none;stroke:#000000;stroke-width:1.0;"/>
  <path d="M109.247 40.202 L565.965 40.202 L565.965 288.459 L109.247 288.459 " style="fill:none;stroke:#000000;stroke-width:1.0;"/>
  <rect style="stroke:blue;stroke-width:0.3;" x="109.247" y="40.202" height="248.258" width="456.797" title="5"/>
  <text x="109.247" y="40.202" class="image" id="image.5.2" width="456" height="248">image.5.2.109_566.40_288</text>
  <text svg_rhmargin="114.257" x="85.039,89.396,91.183,95.54,99.814,102.378,106.503,108.115,112.24,114.25699999999999" y="299.515" style="fill:#171615;font-family:FHEHPG+AdvOTf94803d4;font-size:7.47px;font-style:NORMAL;font-weight:normal;">Figure 4. </text>
  <text svg_rhmargin="396.863" x="117.978,122.103,126.07,129.881,131.47,133.338,137.462,139.794,143.604,147.183,149.357,150.914,155.188,156.51,160.635,162.809,164.349,166.217,170.341,172.672,174.269,178.237,182.047,185.469,189.28,191.611,195.885,197.455,199.786,203.597,205.771,207.094,211.219,212.761,214.935,219.06,220.641,224.451,228.576,234.718,238.991,242.802,245.133,248.94400000000002,250.515,254.64,258.062,261.872,264.20300000000003,265.764,269.343,273.311,275.642,279.064,280.387,283.809,287.703,289.02599999999995,290.538,294.813,298.623,300.797,306.319,310.13,313.94,317.908,319.507,325.649,329.459,330.782,334.59299999999996,336.173,340.447,342.778,346.589,350.4,353.979,356.15299999999996,357.715,361.525,365.336,369.303,373.114,376.924,379.255,380.843,384.654,388.778,392.589,396.863" y="299.515" style="fill:#171615;font-family:FHEGPK+AdvOT6e5d2ec0;font-size:7.47px;font-style:NORMAL;font-weight:normal;">The forest plot for hazard ratio to compare over survival between male breast cancer aged </text>
  <text x="398.493" y="299.515" svg_rhmargin="404.246" style="fill:#171615;font-family:FHEGPO+AdvP4C4E51;font-size:7.47px;font-style:NORMAL;font-weight:normal;">&lt;</text>
  <text svg_rhmargin="523.527" x="404.219,408.343,412.468,414.026,417.449,421.259,425.07,427.401,430.98,432.564,436.375,440.342,444.616,446.169,452.312,456.123,457.445,461.256,462.837,467.111,469.442,473.252,477.063,480.642,482.816,484.378,488.188,491.999,495.967,499.854,503.665,505.99600000000004,507.508,511.318,515.443,519.253,523.527" y="299.515" style="fill:#171615;font-family:FHEGPK+AdvOT6e5d2ec0;font-size:7.47px;font-style:NORMAL;font-weight:normal;">40 years and male breast cancer aged </text>
  <text x="525.144" y="299.515" svg_rhmargin="530.202" style="fill:#171615;font-family:FHEGPL+AdvOTb0c9bf5d+22;font-size:7.47px;font-style:NORMAL;font-weight:normal;">≥</text>
  <text x="530.19,534.314,538.439,539.997,543.419,547.23,551.041,553.372,556.9509999999999,558.535,562.345,566.156,569.967,574.091,576.422,580.696,582.019,585.986" y="299.515" svg_rhmargin="590.11" style="fill:#171615;font-family:FHEGPK+AdvOT6e5d2ec0;font-size:7.47px;font-style:NORMAL;font-weight:normal;">40 years according</text>
  <text svg_rhmargin="160.931" x="85.039,87.214,91.339,93.826,98.1,99.423,101.291,103.159,106.969,109.3,113.111,117.078,119.25200000000001,121.831,125.253,129.063,131.394,132.717,136.528,140.801,142.124,145.935,149.514,151.531,154.03,159.302,160.93099999999998" y="308.472" style="fill:#171615;font-family:FHEGPK+AdvOT6e5d2ec0;font-size:7.47px;font-style:NORMAL;font-weight:normal;">to different variables. CI </text>
  <text svg_rhmargin="168.447" x="163.389,168.448" y="308.472" style="fill:#171615;font-family:FHEHAB+AdvOTb0c9bf5d;font-size:7.47px;font-style:NORMAL;font-weight:normal;">= </text>
  <text x="170.985,174.797,178.922" y="308.472" svg_rhmargin="182.89" style="fill:#171615;font-family:FHEGPK+AdvOT6e5d2ec0;font-size:7.47px;font-style:NORMAL;font-weight:normal;">con</text>
  <text x="182.891" y="308.472" svg_rhmargin="186.156" style="fill:#171615;font-family:FHEGPN+AdvOT6e5d2ec0+fb;font-size:7.47px;font-style:NORMAL;font-weight:normal;">ﬁ</text>
  <text svg_rhmargin="244.434" x="186.179,190.453,194.264,198.231,202.042,205.853,208.344,209.667,213.634,215.809,219.619,221.95,225.373,229.262,230.585,232.602,235.102,239.458,244.434" y="308.472" style="fill:#171615;font-family:FHEGPK+AdvOT6e5d2ec0;font-size:7.47px;font-style:NORMAL;font-weight:normal;">dence interval, ER </text>
  <text svg_rhmargin="251.955" x="246.897,251.956" y="308.472" style="fill:#171615;font-family:FHEHAB+AdvOTb0c9bf5d;font-size:7.47px;font-style:NORMAL;font-weight:normal;">= </text>
  <text svg_rhmargin="326.354" x="254.494,258.304,261.883,264.058,266.389,270.513,274.638,278.448,282.416,284.935,287.267,291.077,294.888,298.698,302.972,305.147,309.271,311.602,313.61899999999997,316.171,321.378,326.354" y="308.472" style="fill:#171615;font-family:FHEGPK+AdvOT6e5d2ec0;font-size:7.47px;font-style:NORMAL;font-weight:normal;">estrogen receptor, HR </text>
  <text svg_rhmargin="333.933" x="328.875,333.934" y="308.472" style="fill:#171615;font-family:FHEHAB+AdvOTb0c9bf5d;font-size:7.47px;font-style:NORMAL;font-weight:normal;">= </text>
  <text svg_rhmargin="389.067" x="336.415,340.382,344.193,347.615,351.426,353.757,358.031,360.564,362.895,366.706,368.88,370.203,374.327,376.344,378.875,384.397,389.067" y="308.472" style="fill:#171615;font-family:FHEGPK+AdvOT6e5d2ec0;font-size:7.47px;font-style:NORMAL;font-weight:normal;">hazard ratio, OS </text>
  <text svg_rhmargin="396.635" x="391.577,396.636" y="308.472" style="fill:#171615;font-family:FHEHAB+AdvOTb0c9bf5d;font-size:7.47px;font-style:NORMAL;font-weight:normal;">= </text>
  <text svg_rhmargin="452.696" x="399.117,403.241,406.663,410.474,412.805,415.33,418.909,422.876,425.207,428.629,429.952,433.374,437.185,438.507,440.524,443.05,447.72,452.696" y="308.472" style="fill:#171615;font-family:FHEGPK+AdvOT6e5d2ec0;font-size:7.47px;font-style:NORMAL;font-weight:normal;">over survival, PR </text>
  <text svg_rhmargin="460.3" x="455.242,460.30100000000004" y="308.472" style="fill:#171615;font-family:FHEHAB+AdvOTb0c9bf5d;font-size:7.47px;font-style:NORMAL;font-weight:normal;">= </text>
  <text x="462.782,467.057,469.389,473.514,477.639,481.451,485.03,487.205,491.017,493.349,497.474,501.442,505.253,507.801,510.133,513.944,517.755,521.567,525.841,528.016,532.141,534.562" y="308.472" svg_rhmargin="536.579" style="fill:#171615;font-family:FHEGPK+AdvOT6e5d2ec0;font-size:7.47px;font-style:NORMAL;font-weight:normal;">progesterone receptor.</text>
  <text x="85.039,89.272,90.683,93.316,97.381,99.7,102.331,106.396,107.806,109.958,112.649,119.2,123.265,127.824,129.235,133.3,134.71,138.943,143.008,145.587,147.492,151.891,156.291,160.69,165.09,166.995,169.623,174.023,178.422,180.574,184.974,189.373,517.041,522.931,528.821,534.711,536.863,543.414,547.973,550.874,552.285,556.685,560.917,563.3,567.532,571.597,573.008,575.16,579.224,583.624" y="9.870999999999981" svg_rhmargin="590.176" style="fill:#171615;font-family:FHEGPK+AdvOT6e5d2ec0;font-size:7.97px;font-style:NORMAL;font-weight:normal;">Li et al. Medicine (2018) 97:40 www.md-journal.com</text>
  <text x="335.396" y="739.625" svg_rhmargin="339.796" style="fill:#171615;font-family:FHEHPG+AdvOTf94803d4;font-size:7.97px;font-style:NORMAL;font-weight:normal;">5</text>
 </g>
</svg>
