<?xml version="1.0" encoding="UTF-8"?>
<svg height="870.031005859375" width="672.0029907226562" xmlns="http://www.w3.org/2000/svg">
 <g style="fill:none;">
  <path d=" M 0.05999799817800522 826.072021484375 L 22.619997024536133 826.072021484375 L 22.619997024536133 826.35546875 L 0.05999799817800522 826.35546875 Z " style="fill:none;stroke:#000000;stroke-width:1.0;"/>
  <path d=" M 33.67599868774414 837.4110107421875 L 33.959449768066406 837.4110107421875 L 33.959449768066406 860.031005859375 L 33.67599868774414 860.031005859375 Z " style="fill:none;stroke:#000000;stroke-width:1.0;"/>
  <path d=" M 627.9869995117188 837.4110107421875 L 628.2703857421875 837.4110107421875 L 628.2703857421875 860.031005859375 L 627.9869995117188 860.031005859375 Z " style="fill:none;stroke:#000000;stroke-width:1.0;"/>
  <path d=" M 639.3259887695312 826.072021484375 L 662.0029907226562 826.072021484375 L 662.0029907226562 826.35546875 L 639.3259887695312 826.35546875 Z " style="fill:none;stroke:#000000;stroke-width:1.0;"/>
  <path d=" M 639.3259887695312 33.731998443603516 L 662.0029907226562 33.731998443603516 L 662.0029907226562 34.015480041503906 L 639.3259887695312 34.015480041503906 Z " style="fill:none;stroke:#000000;stroke-width:1.0;"/>
  <path d=" M 627.9869995117188 0.0 L 628.2703857421875 0.0 L 628.2703857421875 22.677000045776367 L 627.9869995117188 22.677000045776367 Z " style="fill:none;stroke:#000000;stroke-width:1.0;"/>
  <path d=" M 33.67599868774414 0.0 L 33.959449768066406 0.0 L 33.959449768066406 22.677000045776367 L 33.67599868774414 22.677000045776367 Z " style="fill:none;stroke:#000000;stroke-width:1.0;"/>
  <path d=" M 0.05999799817800522 33.731998443603516 L 22.619997024536133 33.731998443603516 L 22.619997024536133 34.015480041503906 L 0.05999799817800522 34.015480041503906 Z " style="fill:none;stroke:#000000;stroke-width:1.0;"/>
  <text x="71.887,77.802,80.75500000000001,85.493,94.162,99.879,103.523,109.438,115.155,121.07" y="39.18100000000004" svg_rhmargin="126.294" style="fill:#171615;font-family:FHEGPI+AdvOTfbba3ace.B;font-size:9.46px;font-style:NORMAL;font-weight:normal;">2. Methods</text>
  <text x="71.887,76.836,79.257,84.206,86.62700000000001,91.105,97.077,102.026,104.913,107.056,112.005,117.134,120.021,123.079,127.562,132.511,134.654,139.604,144.553,147.44,149.583,154.811" y="57.096000000000004" svg_rhmargin="159.94" style="fill:#171615;font-family:FHEIAG+AdvOT01861455.I;font-size:8.97px;font-style:NORMAL;font-weight:normal;">2.1. Patient selection</text>
  <text x="71.887,77.768,82.545,86.46300000000001,89.291,93.774,99.042,104.458,110.896,113.612,118.562,122.853,125.74,130.053,135.002,139.35,142.802,146.72,149.441,156.346,160.666,164.118,166.959,171.908,175.179,179.098,184.04700000000003,186.801,189.579,194.52800000000002,197.403,199.824,204.603,208.401,213.351,216.111,218.532,221.214,225.697,228.528,233.011,235.274,237.695,240.546,244.912,249.861,254.663,259.612,264.095,266.852,274.108,278.591,280.854,284.772,287.601,292.55,296.841,299.728,302.0,305.919,310.674,313.562" y="73.08399999999995" svg_rhmargin="317.014" style="fill:#171615;font-family:FHEHAC+AdvOTbc475f09;font-size:8.97px;font-style:NORMAL;font-weight:normal;">The SEER database was used to identify all young male patients</text>
  <text x="71.887,78.791,81.071,83.849,88.798,90.198,95.148,98.419,102.337,106.639,110.091,112.978,114.293,118.211,122.513,127.462,131.243,135.042,138.494,139.917,144.736,147.157,151.482,155.965,160.723,165.672,168.943,172.861,177.81,179.148,184.097,187.822,190.709,197.46,201.378,205.113,210.062,211.463,216.413,221.214,226.033,230.982,232.383,236.866,241.623,246.572,247.973,252.923,257.724,262.673,267.418" y="84.02599999999995" svg_rhmargin="269.839" style="fill:#171615;font-family:FHEHAC+AdvOTbc475f09;font-size:8.97px;font-style:NORMAL;font-weight:normal;">with breast cancer diagnosed between 1988 and 2012.</text>
  <text svg_rhmargin="281.349" x="269.745,271.911,275.471,279.184,281.34900000000005" y="84.02499999999998" style="fill:#171615;font-family:FHEHAC+AdvOTbc475f09;font-size:5.98px;font-style:NORMAL;font-weight:normal;">[15] </text>
  <text x="282.671,289.109,290.551,293.329,298.278,300.983,305.466,307.887,309.203,314.152" y="84.02499999999998" svg_rhmargin="317.039" style="fill:#171615;font-family:FHEHAC+AdvOTbc475f09;font-size:8.97px;font-style:NORMAL;font-weight:normal;">A total of</text>
  <text x="71.886,76.835,81.78399999999999,85.322,90.271,95.072,99.891,104.84,107.091,111.574,114.291,116.712,121.491,126.44,129.144,134.094,138.442,141.894,145.642,150.591,154.203,158.121,162.423,167.372,171.097,175.015,178.46699999999998,182.038,185.49,189.238,193.722,195.985,199.437,202.164,205.616,207.834,211.752,215.204,218.775,221.196,226.145,229.717,232.494,237.444,241.362,244.91,251.348,256.135,258.556,261.294,265.092,270.041,273.71,278.076,280.963,285.276,288.163,291.909,295.361,298.996,305.9,309.654,313.106" y="94.96699999999998" svg_rhmargin="317.024" style="fill:#171615;font-family:FHEHAC+AdvOTbc475f09;font-size:8.97px;font-style:NORMAL;font-weight:normal;">18 population-based cancer registries in the United States were</text>
  <text x="71.886,74.307,79.086,83.004,85.265,90.215,94.96,98.878,103.827,106.638,109.059,114.008,116.786,119.673,124.44,128.358,131.243,135.161,139.973,143.425,146.719,150.517,155.467,158.354,161.176,165.541,170.957,176.2,182.63799999999998,185.554,190.373,194.856,197.573,202.056,206.813,211.296,214.58,218.498,220.91899999999998,223.764,229.646,234.366,238.28400000000002,241.169,245.652,250.919,256.335" y="105.96500000000003" svg_rhmargin="262.773" style="fill:#171615;font-family:FHEHAC+AdvOTbc475f09;font-size:8.97px;font-style:NORMAL;font-weight:normal;">included in the current SEER database. The SEER</text>
  <text x="262.602" y="103.92399999999998" svg_rhmargin="267.264" style="fill:#171615;font-family:FHEGPL+AdvOTb0c9bf5d+22;font-size:8.97px;font-style:NORMAL;font-weight:normal;">∗</text>
  <text x="267.251,271.734,274.451,278.934,281.821,284.655,288.107,292.875,295.653,298.54,305.291,309.657,313.109" y="105.96500000000003" svg_rhmargin="317.027" style="fill:#171615;font-family:FHEHAC+AdvOTbc475f09;font-size:8.97px;font-style:NORMAL;font-weight:normal;">Stat software</text>
  <text x="71.886,74.644,79.127,84.413,89.829" y="116.90700000000004" svg_rhmargin="96.267" style="fill:#171615;font-family:FHEHAC+AdvOTbc475f09;font-size:8.97px;font-style:NORMAL;font-weight:normal;">(SEER</text>
  <text x="96.094" y="114.92200000000003" svg_rhmargin="100.756" style="fill:#171615;font-family:FHEGPL+AdvOTb0c9bf5d+22;font-size:8.97px;font-style:NORMAL;font-weight:normal;">∗</text>
  <text x="100.743,105.226,107.943,112.426,115.313,118.204,123.022,125.443,130.222,132.643,137.422,140.309,143.262,150.166,154.487,157.939,160.893,165.843,169.114,173.032,177.98100000000002,180.849,183.626,188.57500000000002,191.563,193.984,198.763,202.561,207.511,210.215,212.636,215.374,219.857,222.801,227.75,232.042,234.929,237.201,241.119,245.875,248.762,252.054,254.475,257.441,263.878,266.115,268.536,271.501,275.419,279.721,283.173,286.921,290.373,293.327,298.277,302.001,304.888,309.655,313.107" y="116.90700000000004" svg_rhmargin="317.025" style="fill:#171615;font-family:FHEHAC+AdvOTbc475f09;font-size:8.97px;font-style:NORMAL;font-weight:normal;">Stat 8.2.1) was used to identify patients. All cases before</text>
  <text x="71.886,76.835,81.58,86.529,91.478,93.315,100.219,103.973,107.425,111.343,113.158,116.956,121.905,125.686,128.107,132.886,137.705,141.623,146.572,148.419,153.369,157.093,161.012,165.314,170.263,173.534,177.452,179.374,184.323,187.21,189.012,191.432,196.212,200.13,204.942,212.198,217.148,219.398,223.317,226.032,229.95000000000002,231.871,234.292,239.071,241.849,246.798,250.069,257.44,261.748,264.635,266.907,271.857,276.80600000000004,278.642,283.461,288.41,290.321,293.773,296.5,300.866,305.349,307.612,312.562" y="127.84799999999996" svg_rhmargin="317.045" style="fill:#171615;font-family:FHEHAC+AdvOTbc475f09;font-size:8.97px;font-style:NORMAL;font-weight:normal;">1988 were excluded because of incomplete information on staging</text>
  <text x="71.886,76.251,81.201,86.14999999999999,87.363,90.815,95.64,99.092,103.35,107.268,110.55,115.033,117.45400000000001,118.714,124.596,129.372,133.29000000000002,134.588,137.009,141.788,145.586,148.007,152.786,156.238,158.512,163.461,168.41000000000003,169.624,173.422,176.874,179.148,182.035,185.781,189.233,191.507,195.99,197.289,204.193,207.947,211.399,215.317,216.508,223.878,228.186,230.607,232.892,237.257,242.207,246.498,251.447,254.334,255.568,260.518,264.299,269.117,273.601,277.904,280.325,285.104,288.556,289.866,294.349,299.107,304.05600000000004,305.4,308.177,313.127" y="138.78999999999996" svg_rhmargin="317.045" style="fill:#171615;font-family:FHEHAC+AdvOTbc475f09;font-size:8.97px;font-style:NORMAL;font-weight:normal;">and surgery. The inclusion criteria were malignant behavior and the</text>
  <text x="71.886,76.835,79.086,83.451,87.934,92.748,97.567,101.019,103.293,106.745,109.189,116.093,120.414,123.866,126.31,130.108,135.058" y="149.788" svg_rhmargin="140.007" style="fill:#171615;font-family:FHEHAC+AdvOTbc475f09;font-size:8.97px;font-style:NORMAL;font-weight:normal;">diagnosis was con</text>
  <text x="139.861" y="149.788" svg_rhmargin="144.81" style="fill:#171615;font-family:FHEHBE+AdvOTbc475f09+fb;font-size:8.97px;font-style:NORMAL;font-weight:normal;">ﬁ</text>
  <text x="144.679,148.132,155.338,159.256,164.205,166.563,173.933,176.201,180.119,183.4,188.35,191.621,195.539,200.295,205.244,207.495,211.413,215.715,218.136,220.421,224.786,227.207,229.662,236.566,238.846,241.624,246.573,248.994,253.944,258.745,263.695,270.424,275.373,277.794,282.277,286.581,290.499,292.92,295.312,299.677,303.596,306.311,308.731,313.057" y="149.788" svg_rhmargin="316.975" style="fill:#171615;font-family:FHEHAC+AdvOTbc475f09;font-size:8.97px;font-style:NORMAL;font-weight:normal;">rmed microscopically, with known age, active</text>
  <text svg_rhmargin="220.549" x="71.886,74.663,79.613,81.863,84.284,89.063,95.967,98.701,103.651,108.452,110.873,112.874,117.357,122.115,127.064,129.088,131.975,136.798,140.716,142.694,147.177,151.481,155.399,157.434,161.917,164.804,166.789,171.607,174.028,178.353,182.719,187.668,192.47,195.922,198.196,201.648,203.638,210.542,212.822,215.6,220.549" y="160.72900000000004" style="fill:#171615;font-family:FHEHAC+AdvOTbc475f09;font-size:8.97px;font-style:NORMAL;font-weight:normal;">follow-up, and the age at diagnosis with </text>
  <text x="222.576" y="160.72900000000004" svg_rhmargin="229.48" style="fill:#171615;font-family:FHEGPO+AdvP4C4E51;font-size:8.97px;font-style:NORMAL;font-weight:normal;">&lt;</text>
  <text x="229.493,234.442,239.39100000000002,241.342,245.707,249.626,253.928,257.38,260.674,263.09499999999997,265.152,271.034,275.811,279.729,281.707,285.625,290.437,294.236,296.656,301.436,304.888,307.161,312.111" y="160.72900000000004" svg_rhmargin="317.06" style="fill:#171615;font-family:FHEHAC+AdvOTbc475f09;font-size:8.97px;font-style:NORMAL;font-weight:normal;">40 years. The exclusion</text>
  <text x="71.886,75.804,79.086,81.507,84.245,88.043,91.495,93.769,98.25200000000001,102.216,109.12,112.874,116.326,120.244,124.099,129.049,132.773,137.723,139.973,144.456,149.405,153.296,158.115,161.567,165.541,170.491,175.292,178.744,183.513,187.311,190.763,193.037,195.457,200.236,204.154,208.117,210.895,215.844,223.027,227.976,231.304,234.756,237.177,240.998,247.902,250.182,253.07,258.019,261.917,266.736,271.685,276.487,281.305,286.255,292.984,297.933,301.941,306.307,310.673,314.591" y="171.67100000000005" svg_rhmargin="317.012" style="fill:#171615;font-family:FHEHAC+AdvOTbc475f09;font-size:8.97px;font-style:NORMAL;font-weight:normal;">criteria were benign or borderline tumors, with unknown age,</text>
  <text x="71.886,76.835,81.58,86.529,91.331,96.28,103.009,107.958,110.549,114.468,118.77,123.719,126.99,130.908,133.509,138.459,141.346,143.884,148.834,152.558,157.041,159.758,164.707,167.128,169.679,174.498,179.447,184.249,189.198,193.943,200.847,205.79600000000002,208.343,211.795,216.563,220.015,224.33,226.751,231.02,235.503,237.92399999999998,240.487,247.744,252.693,257.494,260.272,265.222,268.492" y="182.66899999999998" svg_rhmargin="270.913" style="fill:#171615;font-family:FHEHAC+AdvOTbc475f09;font-size:8.97px;font-style:NORMAL;font-weight:normal;">unknown cause of death, unknown survival months.</text>
  <text x="71.886,76.835,79.256,84.205,86.626,91.104,96.708,99.595,104.724,106.867,111.816,116.299,119.336,123.819,126.706,131.656,134.543,139.492,147.428,152.377,157.506" y="209.31500000000005" svg_rhmargin="160.393" style="fill:#171615;font-family:FHEIAG+AdvOT01861455.I;font-size:8.97px;font-style:NORMAL;font-weight:normal;">2.2. Ethics statement</text>
  <text x="71.886,78.323,81.77499999999999,84.755,89.704,93.156,97.075,101.558,103.979,108.928,113.878,117.33,119.75,124.233,127.217,132.166,136.084,139.536,143.455,146.907,149.328,154.277,158.195,163.145" y="225.24599999999998" svg_rhmargin="165.566" style="fill:#171615;font-family:FHEHAC+AdvOTbc475f09;font-size:8.97px;font-style:NORMAL;font-weight:normal;">As previously described,</text>
  <text svg_rhmargin="177.356" x="165.6,167.766,171.479,175.191,177.356" y="225.24699999999996" style="fill:#171615;font-family:FHEHAC+AdvOTbc475f09;font-size:5.98px;font-style:NORMAL;font-weight:normal;">[16] </text>
  <text x="180.34,183.227,188.177,190.598,194.05,197.008,200.46,203.347,208.296,213.246,217.729,220.705,227.609,232.092,235.544,238.505,245.876,250.359,252.78,257.729,260.15,264.633,267.645,272.594,277.078,280.53,284.448,289.397,292.362,297.312,302.261,305.175,308.062,313.012" y="225.24699999999996" svg_rhmargin="316.93" style="fill:#171615;font-family:FHEHAC+AdvOTbc475f09;font-size:8.97px;font-style:NORMAL;font-weight:normal;">this study was mainly based on the</text>
  <text x="71.886,76.37,81.785,87.201,93.639,98.815,103.764,108.247,111.135,115.618,120.567,125.05,128.502,132.42000000000002,137.591,142.075,147.024,151.973,157.151,164.055,168.538,171.99,177.22,181.138,186.087,191.037,195.986,200.936,204.854,207.741,211.659,216.608,221.779,224.2,229.149,234.307,238.226,243.175,250.545,255.495,257.916,260.337,264.82,269.769,273.687,277.605,282.835,289.739,292.16,295.047,299.99600000000004,305.172,308.059,313.008" y="236.18899999999996" svg_rhmargin="316.926" style="fill:#171615;font-family:FHEHAC+AdvOTbc475f09;font-size:8.97px;font-style:NORMAL;font-weight:normal;">SEER database and was conducted in compliance with the</text>
  <text x="71.886,79.355,83.274,85.695,89.147,91.567,96.517,101.466,103.887,105.618,112.522,116.44,120.358,122.779,127.262,130.714,135.197,138.085,140.506,145.455,150.404,152.825,154.541,163.508,167.42600000000002,169.111,174.06,179.01,181.897,186.38,188.801,193.75,197.668,202.61700000000002,204.316,209.265,213.184,216.636,224.006,226.427,229.879,233.331,235.752,240.701,245.65,247.401,250.288,255.23700000000002,256.925,261.408,265.326,269.245,273.163,276.615,280.067,281.755,284.642,289.592,293.51,295.191,299.674,305.09,310.506" y="247.187" svg_rhmargin="316.944" style="fill:#171615;font-family:FHEHAC+AdvOTbc475f09;font-size:8.97px;font-style:NORMAL;font-weight:normal;">Helsinki Declaration. We obtained permission to access the SEER</text>
  <text svg_rhmargin="158.986" x="71.886,76.836,80.288,85.237,89.72,93.172,97.656,105.02600000000001,107.829,111.281,115.199,118.651,122.569,127.052,130.505,134.423,139.372,142.183,147.133,151.616,154.503,158.986" y="258.129" style="fill:#171615;font-family:FHEHAC+AdvOTbc475f09;font-size:8.97px;font-style:NORMAL;font-weight:normal;">program research data </text>
  <text x="161.801" y="258.129" svg_rhmargin="166.75" style="fill:#171615;font-family:FHEHBE+AdvOTbc475f09+fb;font-size:8.97px;font-style:NORMAL;font-weight:normal;">ﬁ</text>
  <text x="166.734,169.155,173.073,176.525,179.376,183.859,188.809,193.758,196.554,199.441,204.39,208.308,211.067,214.519,218.437,221.324,225.242,228.694,232.613,237.562,241.48,245.398,248.256,253.206,258.155,265.525,270.475,274.393,277.84499999999997,280.626,283.047,286.499,289.3,294.25,299.199,304.149,309.098,314.047" y="258.129" svg_rhmargin="316.934" style="fill:#171615;font-family:FHEHAC+AdvOTbc475f09;font-size:8.97px;font-style:NORMAL;font-weight:normal;">les and the reference number is 11824-</text>
  <text x="71.886,79.257,84.206,88.689,93.639,98.588,103.537,108.487,110.908,112.987,118.869,123.818,127.736,129.767,132.188,137.138,140.025,144.974,148.426,155.797,159.715,164.66400000000002,166.73,170.648,175.598,180.547,183.999,187.918,192.867,195.754,197.853,204.757,209.24,212.692,214.747,219.697,224.646,227.533,229.544,232.996,236.914,241.863,246.813,249.234,252.686,256.604,261.553,263.672,267.124,269.545,274.494,278.413,282.331,284.364,289.314,293.232,296.684,300.136,305.086,310.035,314.518" y="269.07000000000005" svg_rhmargin="316.939" style="fill:#171615;font-family:FHEHAC+AdvOTbc475f09;font-size:8.97px;font-style:NORMAL;font-weight:normal;">Nov2014. The informed consent was not required since personal</text>
  <text x="71.886,74.307,79.257,83.175,88.124,91.012,93.432,96.32,100.803,103.224,108.173,112.656,118.94,121.361,126.31,129.197,134.147,137.599,144.969,149.452,152.339,154.76,159.71,164.65900000000002,170.869,177.773,182.256,185.708,191.959,196.908,201.857,204.744,210.95,213.371,218.32,222.804,227.753,230.174,234.657,238.575,243.525,245.946,252.221,258.103,263.052,265.473,268.925,275.125,278.577,281.464,286.413,291.363,295.846,302.11,309.014,313.497" y="280.01199999999994" svg_rhmargin="316.949" style="fill:#171615;font-family:FHEHAC+AdvOTbc475f09;font-size:8.97px;font-style:NORMAL;font-weight:normal;">identifying information was not involved. This study was</text>
  <text x="71.886,76.37,81.319,86.268,89.72,94.67,99.153,103.071,108.02,113.214,118.163,122.646,127.841,130.728,135.677,139.595,144.791,148.71,151.597,156.546,158.967,162.885,166.337,171.55,175.468,180.417,187.788,195.158,197.579,200.466,203.353,207.271,211.189,216.392,221.341,224.228,229.431,232.318,237.267,241.185,246.381,250.865,255.814,260.297,265.246,270.196,275.145,280.095,284.57800000000003,289.807,296.245,300.728,305.677,309.596,313.514" y="291.01" svg_rhmargin="316.966" style="fill:#171615;font-family:FHEHAC+AdvOTbc475f09;font-size:8.97px;font-style:NORMAL;font-weight:normal;">approved by the ethics committee of the Shandong Cancer</text>
  <text x="71.886,79.355,84.305,87.757,92.706,95.127,98.014,102.497,104.918,107.942,112.425" y="301.951" svg_rhmargin="115.312" style="fill:#171615;font-family:FHEHAC+AdvOTbc475f09;font-size:8.97px;font-style:NORMAL;font-weight:normal;">Hospital af</text>
  <text x="115.313" y="301.951" svg_rhmargin="120.262" style="fill:#171615;font-family:FHEHBE+AdvOTbc475f09+fb;font-size:8.97px;font-style:NORMAL;font-weight:normal;">ﬁ</text>
  <text x="120.245,122.666,125.087,129.57,132.457,136.376,141.32500000000002,144.34,147.227,152.17600000000002,155.168,159.651,164.601,169.084,174.033,178.983,183.932,188.881,193.364,196.383,202.82,207.77,210.191,214.674,218.592,222.044,225.496,227.917,230.804,235.287" y="301.951" svg_rhmargin="237.708" style="fill:#171615;font-family:FHEHAC+AdvOTbc475f09;font-size:8.97px;font-style:NORMAL;font-weight:normal;">liated to Shandong University.</text>
  <text x="71.886,76.836,79.257,84.206,86.62700000000001,91.105,96.888,99.775,104.725,107.612,109.755,114.238,117.125,119.268,124.217,129.167,131.31,134.36,139.309,144.438,149.388,151.53,156.014,160.497,162.64" y="327.634" svg_rhmargin="167.123" style="fill:#171615;font-family:FHEIAG+AdvOT01861455.I;font-size:8.97px;font-style:NORMAL;font-weight:normal;">2.3. Statistical analysis</text>
  <text x="71.886,76.836,81.637,85.089,89.518,94.001,96.264,98.685,103.068,108.017,112.365,115.252,117.673,121.435,126.384,129.272,132.547,134.968,139.35,142.237,147.186,151.104,155.393,158.28,163.103,165.524,167.945,172.741,179.645,182.066,186.858,191.341,195.702,200.185,204.546,207.998,210.419,214.751,219.7,222.007,225.926,229.378,233.686,240.59,244.401,247.853,251.77100000000002,256.079,260.563,265.377,269.86,272.281,276.601,280.52,284.312,289.261,291.682,295.99,302.428,306.911,310.673,314.592" y="343.564" svg_rhmargin="317.013" style="fill:#171615;font-family:FHEHAC+AdvOTbc475f09;font-size:8.97px;font-style:NORMAL;font-weight:normal;">For all patients, the following variables were analyzed: Race,</text>
  <text x="71.886,78.324,85.695,89.46,92.912,95.186,99.105,103.588,108.53699999999999,113.611,117.063,121.888,124.309,129.144,132.031,137.195,143.633,148.582,155.79,163.161,165.582,168.319,171.206,175.009,178.927,184.08,189.029,193.978,199.103,205.541,210.024,214.807,218.725,222.517,225.969,231.134,234.021,240.459,243.777,250.214,256.532,259.419,264.583,268.035,270.819,275.302,279.663,283.582,286.003,291.115,298.019,301.471,305.798,310.748,314.529" y="354.506" svg_rhmargin="316.95" style="fill:#171615;font-family:FHEHAC+AdvOTbc475f09;font-size:8.97px;font-style:NORMAL;font-weight:normal;">American Joint Committee on Cancer (AJCC) stage, Grade,</text>
  <text x="71.886,80.853,84.642,87.529,91.898,95.35,98.134,102.618,105.957,108.378,111.83,115.198,118.65,121.434,125.917,128.691,133.64,136.967,139.388,142.864,148.279,154.71699999999998,158.114,161.566,164.35,168.833,171.606,176.555,179.883,182.304,185.723,190.672,193.999,198.949,203.432,207.209,210.661,213.445,217.363,220.701,225.65,230.452,234.37,237.822,241.274,245.079,248.997,252.789,257.738,260.625,265.431,268.883,272.291,275.178,280.128,286.408,289.295,292.758,296.21,298.994,303.477,306.25,311.2,314.527" y="365.447" svg_rhmargin="316.948" style="fill:#171615;font-family:FHEHAC+AdvOTbc475f09;font-size:8.97px;font-style:NORMAL;font-weight:normal;">Metastasis status, ER status, progesterone receptor (PR) status,</text>
  <text x="71.886,78.324,82.807,87.59,90.011,94.494,97.228,99.649,104.484,109.434,111.855,116.446,119.333,124.282,128.918,133.402,138.216,143.165,145.472,148.359,150.78,155.564,160.513,162.934,167.525,170.413,175.362,179.28,183.853,188.802,193.15,197.069,200.407,204.89,207.311,209.732,214.296,217.748,222.573,226.025,230.396,232.817,237.3,241.621,244.042,248.708,251.595,258.856,263.339,266.226,270.875,275.358,280.172,285.12100000000004,289.753,293.671,298.03,302.979,306.898,310.672,314.125" y="376.445" svg_rhmargin="317.012" style="fill:#171615;font-family:FHEHAC+AdvOTbc475f09;font-size:8.97px;font-style:NORMAL;font-weight:normal;">Radiation. In addition, the overall survival (OS) and cancer-</text>
  <text x="71.886,75.338,80.163,84.081,87.873" y="387.387" svg_rhmargin="90.294" style="fill:#171615;font-family:FHEHAC+AdvOTbc475f09;font-size:8.97px;font-style:NORMAL;font-weight:normal;">speci</text>
  <text x="90.255" y="387.387" svg_rhmargin="95.204" style="fill:#171615;font-family:FHEHBE+AdvOTbc475f09+fb;font-size:8.97px;font-style:NORMAL;font-weight:normal;">ﬁ</text>
  <text x="95.131,99.049,101.82,105.272,110.097,113.549,117.92,120.341,124.824,129.145,131.566,134.304,137.192,143.629,147.967,152.45,155.337,158.059,164.963,168.774,172.226,176.144,178.808,182.26,186.064,190.547,194.909,198.361,203.31,207.097,212.04600000000002,214.807,219.291,222.743,225.409,228.296,233.119,237.037,239.809,244.759,248.086,250.507,257.877,262.202,265.655,270.138,272.861,276.779,281.591,286.541,291.49,296.274,298.695,303.531,306.418,309.2,314.15" y="387.387" svg_rhmargin="317.037" style="fill:#171615;font-family:FHEHAC+AdvOTbc475f09;font-size:8.97px;font-style:NORMAL;font-weight:normal;">c survival (CSS) were regarded as the primary endpoint of</text>
  <text x="71.886,74.774,79.597,82.017,85.469,86.74,90.192,92.976,97.925,102.875,107.358,108.566,113.049,117.863,122.812,124.155,128.074,132.886,135.773,139.122,143.605,147.399,150.286,154.204,159.15300000000002,160.381,163.268,166.617,171.567,180.224,183.111,187.934,191.852,193.206,197.689,202.957,208.372,214.81,216.109,221.059,225.407,228.294,232.663,237.612,241.96,245.412,249.217,251.638,252.958,259.396,264.345,266.621,269.508,272.857,277.806,282.608,287.091,290.431,294.349,299.298,300.579,303.466,307.269,310.721,313.505" y="398.328" svg_rhmargin="316.957" style="fill:#171615;font-family:FHEHAC+AdvOTbc475f09;font-size:8.97px;font-style:NORMAL;font-weight:normal;">this study and extracted fromthe SEER database. Chi-squared tests</text>
  <text x="71.886,78.79,82.601,86.053,89.971,93.089,98.038,101.366,105.284,110.233,113.384,116.271,121.22,124.382,128.301,133.113,140.483,145.432,149.78,153.232,157.15,160.268,163.155,167.978,171.89600000000002,175.122,180.071,184.419,187.306,189.727,193.489,198.439" y="409.327" svg_rhmargin="201.326" style="fill:#171615;font-family:FHEHAC+AdvOTbc475f09;font-size:8.97px;font-style:NORMAL;font-weight:normal;">were used to compare the patient</text>
  <text x="201.204" y="409.327" svg_rhmargin="203.625" style="fill:#171615;font-family:FHEHBD+AdvOTbc475f09+20;font-size:8.97px;font-style:NORMAL;font-weight:normal;">’</text>
  <text x="203.585,207.037,210.219,215.168,219.516,222.968,226.772,229.193,231.614,236.41,240.328,243.553,247.472,252.284,256.767,260.107,264.59,268.384,271.271,275.074,278.526,280.946,284.258,287.145,289.566,293.328,296.78,299.20099999999996,302.342,308.224,313.057" y="409.327" svg_rhmargin="316.975" style="fill:#171615;font-family:FHEHAC+AdvOTbc475f09;font-size:8.97px;font-style:NORMAL;font-weight:normal;">s baseline characteristics. The</text>
  <text x="71.887,78.325,82.808,87.591,90.012,94.495" y="420.268" svg_rhmargin="99.444" style="fill:#171615;font-family:FHEHAC+AdvOTbc475f09;font-size:8.97px;font-style:NORMAL;font-weight:normal;">Kaplan</text>
  <text x="99.27" y="420.268" svg_rhmargin="103.753" style="fill:#171615;font-family:FHEHBD+AdvOTbc475f09+20;font-size:8.97px;font-style:NORMAL;font-weight:normal;">–</text>
  <text x="103.693,112.659,116.448,118.869,122.684,126.136,128.24,132.158,135.496,138.383,140.655,148.026,152.509,155.282,159.2,162.652,164.637,171.541,175.351,178.803,182.721,184.762,189.712,193.039,196.957,201.906,203.981,206.868,211.817,213.845,218.329,222.122,227.072,230.853,234.305,238.676,241.563,245.481,247.52,250.407,255.23,259.14799999999997,261.239,264.691,269.516,272.968,277.339,279.76,284.243,288.564,290.985,293.099,297.018,301.83,305.282,309.653,313.571" y="420.268" svg_rhmargin="317.023" style="fill:#171615;font-family:FHEHAC+AdvOTbc475f09;font-size:8.97px;font-style:NORMAL;font-weight:normal;">Meier estimates were used to generate the survival curves</text>
  <text x="71.887,76.37,81.184,86.133,87.477,90.364,95.187,99.105,100.403,105.818,110.768,115.251,116.446,122.884,127.367,132.15,137.09900000000002,138.442,141.329,145.132,148.584,151.471,152.729,159.633,164.116,167.568,168.773,173.256,178.07,183.019,185.326,187.747,191.562,196.51100000000002,197.855,200.742,205.691,206.925,211.408,216.358,220.701,223.122,227.447,231.366,235.28400000000002,236.575,239.462,244.285,248.203,249.501,254.45,256.871,259.649,262.536,266.339,269.791,273.595,278.544,282.326,286.244,289.696,290.943,295.426,302.678,307.628,312.577" y="431.21" svg_rhmargin="317.06" style="fill:#171615;font-family:FHEHAC+AdvOTbc475f09;font-size:8.97px;font-style:NORMAL;font-weight:normal;">and the Log Rank test was applied to analyze the differences among</text>
  <text x="71.887,74.774,79.597,83.515,86.741,90.659,95.471,98.923,103.294,107.213,110.551,112.97200000000001,116.164,122.046,126.879,130.797,134.022,138.971,142.299,147.248,152.05,155.968,160.917,164.238,166.659,169.398,173.881,177.108,180.56,184.364,189.314,192.641,196.559,199.784,207.155,211.52,214.407,218.209,223.159,225.466,230.415,234.898,238.052,242.535,247.349,251.832,254.253,258.574,262.026,264.3,267.752,270.989,277.893,282.214,285.666,288.904,293.853,297.181,301.099,306.048,309.199,312.086" y="442.151" svg_rhmargin="317.035" style="fill:#171615;font-family:FHEHAC+AdvOTbc475f09;font-size:8.97px;font-style:NORMAL;font-weight:normal;">the curves. The propensity score matching analysis was used to</text>
  <text x="71.887,76.837,80.618,83.505,87.423,90.708,98.079,100.5,105.278,109.19600000000001,111.174,114.061,118.884,122.802,124.724,128.642,133.592,140.825,145.774,150.122,153.574,157.945,160.832,163.253,167.583,171.501,173.423,178.372,182.72,185.607,188.028,191.79,196.739,199.5,202.952,205.373,207.267,210.154,215.103,216.961,221.911,225.829,228.583,233.066,235.487,237.711,240.132,242.077,244.964,249.913,253.83100000000002,255.683,260.632,263.96,268.909,273.711,277.629,282.578,285.899,288.32,291.207,295.69,297.522,300.974,304.778,309.727,313.055" y="453.149" svg_rhmargin="316.973" style="fill:#171615;font-family:FHEHAC+AdvOTbc475f09;font-size:8.97px;font-style:NORMAL;font-weight:normal;">determine the comparative patients. In detail, the propensity score</text>
  <text x="71.887,79.258,83.622,86.51,90.312,95.262,97.569,102.518,107.001,111.685,118.589,123.072,126.524,131.13,136.08,139.407,143.325,146.213,151.029,154.481,161.744,165.662,170.61100000000002,175.294,179.777,183.571,187.489,192.301,195.753,200.578,202.999,207.834,212.317,217.075,219.962,224.911,229.604,234.553,236.86,241.80900000000003,246.498,253.868,258.351,261.124,265.042,269.854,272.275,277.111,281.594,286.295,290.778,295.727,300.676,305.286,308.174,313.123" y="464.091" svg_rhmargin="317.041" style="fill:#171615;font-family:FHEHAC+AdvOTbc475f09;font-size:8.97px;font-style:NORMAL;font-weight:normal;">matching was preformed according to 1:1 matching and the</text>
  <text svg_rhmargin="265.594" x="71.887,79.258,83.622,86.51,90.312,95.262,97.569,102.518,107.001,109.87,112.758,117.58,120.001,123.817,127.269,131.64,136.589,140.37,144.288,147.173,149.594,153.046,155.903,160.853,163.274,166.108,171.524,175.442,178.183,185.087,188.898,192.816,197.76500000000001,200.576,203.463,208.413,212.33100000000002,215.145,222.516,226.881,229.301,233.219,236.065,241.014,245.362,248.249,250.67,254.432,259.382,262.142,265.594" y="475.033" style="fill:#171615;font-family:FHEHAC+AdvOTbc475f09;font-size:8.97px;font-style:NORMAL;font-weight:normal;">matching tolerance is 0. Between the male patients </text>
  <text x="268.499" y="475.033" svg_rhmargin="275.403" style="fill:#171615;font-family:FHEGPO+AdvP4C4E51;font-size:8.97px;font-style:NORMAL;font-weight:normal;">&lt;</text>
  <text x="275.416,280.365,285.314,288.172,292.655,297.469,302.418,305.349,308.236,313.059" y="475.033" svg_rhmargin="316.977" style="fill:#171615;font-family:FHEHAC+AdvOTbc475f09;font-size:8.97px;font-style:NORMAL;font-weight:normal;">40 and the</text>
  <text svg_rhmargin="120.862" x="71.887,79.258,83.622,86.043,89.96100000000001,91.333,96.282,100.63,103.517,105.938,109.7,114.649,117.41,120.862" y="486.031" style="fill:#171615;font-family:FHEHAC+AdvOTbc475f09;font-size:8.97px;font-style:NORMAL;font-weight:normal;">male patients </text>
  <text x="122.288" y="486.031" svg_rhmargin="128.358" style="fill:#171615;font-family:FHEGPL+AdvOTb0c9bf5d+22;font-size:8.97px;font-style:NORMAL;font-weight:normal;">≥</text>
  <text x="128.354,133.304,138.105,140.52599999999998,141.961,146.44400000000002,147.857,150.744,155.567,158.454,162.824,165.245,166.622,171.571,174.458,175.806,180.755,185.704,187.087,192.037,196.384,199.272,201.692,205.455,210.404,213.165,216.617,218.041,224.945,228.755,232.207,236.125,237.429,244.8,249.283,252.055,255.974,260.786,264.704,269.653,270.99,274.442,279.267,283.185,286.977,290.896,294.234,297.686,300.47,305.419,307.726,310.147,314.63" y="486.031" svg_rhmargin="317.051" style="fill:#171615;font-family:FHEHAC+AdvOTbc475f09;font-size:8.97px;font-style:NORMAL;font-weight:normal;">40, a total of 89 patients were matched successfully.</text>
  <text svg_rhmargin="167.123" x="71.888,77.304,81.222,83.963,90.867,94.678,98.596,103.545,104.939,107.826,112.649,116.56700000000001,118.092,125.462,129.827,132.248,136.166,137.593,142.543,146.89,149.778,152.198,155.961,160.91,163.671,167.123" y="496.972" style="fill:#171615;font-family:FHEHAC+AdvOTbc475f09;font-size:8.97px;font-style:NORMAL;font-weight:normal;">Between the male patients </text>
  <text x="168.607" y="496.972" svg_rhmargin="175.511" style="fill:#171615;font-family:FHEGPO+AdvP4C4E51;font-size:8.97px;font-style:NORMAL;font-weight:normal;">&lt;</text>
  <text svg_rhmargin="271.496" x="175.523,180.473,185.42200000000003,186.862,191.345,196.159,201.108,202.622,205.509,210.332,214.25,215.718,218.606,222.524,229.778,234.261,236.524,240.442,241.966,246.916,251.264,254.151,256.572,260.334,265.283,268.044,271.496" y="496.972" style="fill:#171615;font-family:FHEHAC+AdvOTbc475f09;font-size:8.97px;font-style:NORMAL;font-weight:normal;">40 and the female patients </text>
  <text x="272.979" y="496.972" svg_rhmargin="279.883" style="fill:#171615;font-family:FHEGPO+AdvP4C4E51;font-size:8.97px;font-style:NORMAL;font-weight:normal;">&lt;</text>
  <text x="279.896,284.845,289.794,292.215,293.615,298.098,299.568,302.455,307.278,310.165,314.534" y="496.972" svg_rhmargin="316.955" style="fill:#171615;font-family:FHEHAC+AdvOTbc475f09;font-size:8.97px;font-style:NORMAL;font-weight:normal;">40, a total</text>
  <text x="71.888,76.838,79.725,82.49,87.439,92.38799999999999,95.189,100.138,104.486,107.373,109.794,113.556,118.506,121.266,124.718,127.559,134.463,138.274,141.726,145.644,148.478,155.849,160.213,163.101,166.903,171.853,175.634,180.583,183.458,186.91,191.734,195.653,199.445,203.363,206.701,210.153,212.937,217.886,220.193,222.614,227.098,229.519,232.268,238.15,242.983,246.901,249.729,256.167,261.117,266.06600000000003,268.777,273.727,277.054,282.004,286.953,291.737,295.189,297.973,300.394,305.23,310.179,314.527" y="507.914" svg_rhmargin="316.948" style="fill:#171615;font-family:FHEHAC+AdvOTbc475f09;font-size:8.97px;font-style:NORMAL;font-weight:normal;">of 86 patients were matched successfully. The Cox proportional</text>
  <text x="71.888,76.838,81.185,85.104,89.462,92.914,97.863,99.496,103.979,108.929,113.272,115.693,120.018,123.47,125.891,129.34300000000002,130.96,137.864,142.347,145.799,147.344,152.293,155.745,159.533,164.482,166.166,169.053,174.002,175.634,180.117,184.931,189.414,191.835,196.156,200.074,203.99200000000002,205.623,208.51,213.333,217.251,218.946,222.398,227.223,230.675,235.046,237.467,241.95,246.271,248.69199999999998,250.41,255.359,259.707,263.159,266.964,271.913,273.597,278.546,283.495,285.105,290.054,292.361,295.249,298.136,301.942,305.394,309.198,314.148" y="518.912" svg_rhmargin="317.035" style="fill:#171615;font-family:FHEHAC+AdvOTbc475f09;font-size:8.97px;font-style:NORMAL;font-weight:normal;">hazard analysis was used to analyze the survival based on different</text>
  <text x="71.888,75.34,80.165,85.114,89.462,92.914,97.864,102.671,107.62,109.701,114.184,118.545,121.997,124.418,128.75,133.699,136.006,139.924,143.263,145.684,147.741,152.224,157.174,162.12300000000002,164.125,167.013,171.836,175.75400000000002,177.845,181.763,186.712,191.508,195.426,198.764,202.682,205.454,209.372,211.463,214.915,218.719,222.171,226.996,229.417,232.304,235.756,237.767,244.671,248.482,251.934,255.852,257.893,262.843,266.17,270.088,273.426,277.345,282.157,285.044,288.847,293.796,295.934,298.355,303.30400000000003,305.345,308.232,313.055" y="529.8530000000001" svg_rhmargin="316.973" style="fill:#171615;font-family:FHEHAC+AdvOTbc475f09;font-size:8.97px;font-style:NORMAL;font-weight:normal;">subgroup variables, and the concrete results were presented in the</text>
  <text svg_rhmargin="268.33" x="71.888,74.775,79.598,83.05,86.855,90.307,93.194,96.776,101.725,104.032,108.982,111.742,114.16300000000001,117.752,124.19,126.482,128.903,132.491,135.943,138.727,143.211,145.984,148.405,151.857,154.601,157.022,160.837,165.321,167.742,171.269,174.156,177.959,181.411,184.195,187.647,191.224,198.128,201.939,205.391,209.309,212.881,217.83,220.591,224.043,226.464,231.249,235.167,239.979,242.4,245.989,250.472,255.421,260.37,263.847,268.33" y="540.7950000000001" style="fill:#171615;font-family:FHEHAC+AdvOTbc475f09;font-size:8.97px;font-style:NORMAL;font-weight:normal;">forest plot. All statistical tests were 2-sided, and a </text>
  <text x="271.959" y="540.7950000000001" svg_rhmargin="277.375" style="fill:#171615;font-family:FHEIBH+AdvOT638a931c.I;font-size:8.97px;font-style:NORMAL;font-weight:normal;">P</text>
  <text x="278.422" y="540.7950000000001" svg_rhmargin="285.326" style="fill:#171615;font-family:FHEGPO+AdvP4C4E51;font-size:8.97px;font-style:NORMAL;font-weight:normal;">&lt;</text>
  <text x="286.472,288.893,293.729,298.678,302.232,309.137,313.62" y="540.7950000000001" svg_rhmargin="317.072" style="fill:#171615;font-family:FHEHAC+AdvOTbc475f09;font-size:8.97px;font-style:NORMAL;font-weight:normal;">.05 was</text>
  <text x="71.889,75.807,80.62,85.569,89.021,91.278,96.227,100.145,103.467,107.385,112.334,115.826,119.278,122.062,126.545,129.318,131.739,135.191,137.936,140.357,144.115,148.598,151.019,153.299,157.782,161.35,164.802,167.223,171.555,176.504" y="551.793" svg_rhmargin="178.925" style="fill:#171615;font-family:FHEHAC+AdvOTbc475f09;font-size:8.97px;font-style:NORMAL;font-weight:normal;">considered statistically signi</text>
  <text x="178.812" y="551.793" svg_rhmargin="183.761" style="fill:#171615;font-family:FHEHBE+AdvOTbc475f09+fb;font-size:8.97px;font-style:NORMAL;font-weight:normal;">ﬁ</text>
  <text x="183.688,187.606,191.965,196.914,199.675,202.096,205.684,211.566,216.399,220.317,223.882,227.334,230.118,234.601,237.375,239.796,243.248,245.992,248.413,252.228,256.711,259.132,262.66,266.112,270.936,273.824,276.606,283.51,287.993,291.233,295.151,298.772,303.255,308.07,312.553" y="551.793" svg_rhmargin="317.036" style="fill:#171615;font-family:FHEHAC+AdvOTbc475f09;font-size:8.97px;font-style:NORMAL;font-weight:normal;">cant. The statistical software SPSS</text>
  <text x="71.889,76.838,81.64,84.061,89.01,91.618,94.505,98.874,103.823,108.171,112.654,115.075,117.639,124.077,129.026,131.302,135.22,139.578,144.062,148.876,151.297,153.978,156.865,162.142,165.029,167.698,174.602,178.923,182.375,185.046,189.995,193.322,197.241,202.19000000000003,204.774,207.661,212.484,215.936,218.551,223.034,225.455,227.876,230.4,235.349,239.832,242.589,247.072,249.676,254.159,258.973,263.456,265.877,270.198,273.65,277.454,280.906" y="562.735" svg_rhmargin="283.327" style="fill:#171615;font-family:FHEHAC+AdvOTbc475f09;font-size:8.97px;font-style:NORMAL;font-weight:normal;">22.0 (SPSS, Chicago, IL) was used for all data analyses.</text>
  <text x="71.887,77.802,80.75500000000001,85.493,92.288,98.005,103.23,109.145,111.899,115.543" y="585.871" svg_rhmargin="120.767" style="fill:#171615;font-family:FHEGPI+AdvOTfbba3ace.B;font-size:9.46px;font-style:NORMAL;font-weight:normal;">3. Results</text>
  <text x="71.887,76.836,79.257,84.206,86.62700000000001,91.105,97.077,102.026,104.913,107.056,112.005,117.134,120.021,123.079,128.494,133.444,141.379,146.606,151.834,155.097,160.047,165.462,170.591,172.734,177.684" y="603.842" svg_rhmargin="182.167" style="fill:#171615;font-family:FHEIAG+AdvOT01861455.I;font-size:8.97px;font-style:NORMAL;font-weight:normal;">3.1. Patient demographics</text>
  <text x="71.887,77.768,82.718,86.636,90.088,94.006,97.171,104.075,107.993,111.445,115.363,118.6,123.55,128.499,133.448,136.628,140.546,145.029,148.481,152.399,155.851,159.021,163.971,166.858,170.076,177.446,181.929,184.35,188.268,191.449,196.398,200.881,203.768,206.189,210.107,215.057,217.944,221.396,224.613,231.517,233.938,236.825,241.774,244.966,249.915,253.367,257.285,261.769,265.221,268.108,271.27,275.188,279.672,284.621,288.539,292.458,295.91,299.105,303.588,308.072,311.99" y="619.773" svg_rhmargin="316.939" style="fill:#171615;font-family:FHEHAC+AdvOTbc475f09;font-size:8.97px;font-style:NORMAL;font-weight:normal;">There were 151 cases of male patients with breast cancer aged</text>
  <text x="71.887" y="630.7139999999999" svg_rhmargin="78.791" style="fill:#171615;font-family:FHEGPO+AdvP4C4E51;font-size:8.97px;font-style:NORMAL;font-weight:normal;">&lt;</text>
  <text x="78.803,83.753,88.702,92.012,96.495,100.414,104.897,108.349,111.801,115.085,118.537,122.456,127.405,132.354,135.806,138.694,142.612,147.561,150.857,153.278,158.227,161.516,164.403,169.352,173.27,176.596,181.079,186.495,191.91,198.34799999999998,201.653,206.603,211.086,213.973,218.456,223.405,227.889,231.341,235.25900000000001,238.559,241.447,244.899,249.848,257.218,260.499,265.448,270.398,275.347,280.296,283.629,286.517,291.466,294.741,299.691,304.64,309.59,314.539" y="630.7139999999999" svg_rhmargin="316.96" style="fill:#171615;font-family:FHEHAC+AdvOTbc475f09;font-size:8.97px;font-style:NORMAL;font-weight:normal;">40 years reported in the SEER database from 1988 to 2012.</text>
  <text x="71.887,74.774,82.144,87.093,92.043,95.495,98.382,102.865,107.815,110.702,113.123,117.606,120.027,123.872,126.759,131.709,135.161,138.953,143.436,147.23,152.179,156.097,158.984,161.871,165.79,169.242,173.081,176.999,181.949,189.319,194.269,198.752,202.204,204.625,208.077,213.026,217.975,220.396,224.216,231.12,235.038,238.843,243.326,245.747,249.199,254.14800000000002,257.948,260.369,265.318,269.237,274.186,277.073" y="641.656" svg_rhmargin="279.494" style="fill:#171615;font-family:FHEHAC+AdvOTbc475f09;font-size:8.97px;font-style:NORMAL;font-weight:normal;">Importantly, for a better comparison, we also identi</text>
  <text x="279.553" y="641.656" svg_rhmargin="284.502" style="fill:#171615;font-family:FHEHBE+AdvOTbc475f09+fb;font-size:8.97px;font-style:NORMAL;font-weight:normal;">ﬁ</text>
  <text x="284.486,288.404,293.353,297.185,302.134,307.083,312.033" y="641.656" svg_rhmargin="316.982" style="fill:#171615;font-family:FHEHAC+AdvOTbc475f09;font-size:8.97px;font-style:NORMAL;font-weight:normal;">ed 6930</text>
  <text svg_rhmargin="255.769" x="71.887,75.805,80.288,83.74,87.658,91.11,94.79,99.74,102.627,106.355,113.725,118.208,120.629,124.54700000000001,128.238,133.187,137.671,140.558,142.979,146.897,151.846,154.733,158.185,161.913,168.817,171.238,174.125,179.074,182.776,187.725,191.177,195.095,199.578,203.03,205.917,209.59,213.508,217.992,222.941,226.859,230.778,234.23,237.935,242.419,246.902,250.82,255.769" y="652.654" style="fill:#171615;font-family:FHEHAC+AdvOTbc475f09;font-size:8.97px;font-style:NORMAL;font-weight:normal;">cases of male patients with breast cancer aged </text>
  <text x="259.428" y="652.654" svg_rhmargin="265.498" style="fill:#171615;font-family:FHEGPL+AdvOTb0c9bf5d+22;font-size:8.97px;font-style:NORMAL;font-weight:normal;">≥</text>
  <text x="265.551,270.5,275.449,279.101,283.584,287.502,291.985,295.437,298.889,302.571,307.054,312.003" y="652.654" svg_rhmargin="316.952" style="fill:#171615;font-family:FHEHAC+AdvOTbc475f09;font-size:8.97px;font-style:NORMAL;font-weight:normal;">40 years and</text>
  <text svg_rhmargin="296.133" x="71.887,76.836,81.785,84.206,89.156,94.105,99.054,103.067,106.985,111.468,114.92,118.839,122.291,126.31,131.26,134.147,138.216,141.103,145.021,152.391,156.875,159.295,163.213,167.241,172.191,176.674,179.561,181.982,185.9,190.85,193.737,197.189,201.256,208.16,210.581,213.468,218.417,222.459,227.408,230.86,234.778,239.261,242.713,245.6,249.614,253.532,258.015,262.965,266.883,270.801,274.253,278.3,282.783,287.266,291.184,296.13300000000004" y="663.596" style="fill:#171615;font-family:FHEHAC+AdvOTbc475f09;font-size:8.97px;font-style:NORMAL;font-weight:normal;">52,710 cases of female patients with breast cancer aged </text>
  <text x="300.133" y="663.596" svg_rhmargin="307.037" style="fill:#171615;font-family:FHEGPO+AdvP4C4E51;font-size:8.97px;font-style:NORMAL;font-weight:normal;">&lt;</text>
  <text x="307.049,311.999" y="663.596" svg_rhmargin="316.948" style="fill:#171615;font-family:FHEHAC+AdvOTbc475f09;font-size:8.97px;font-style:NORMAL;font-weight:normal;">40</text>
  <text x="71.887,76.37,80.288,84.771,88.223,91.675,95.754,98.175,103.124,107.149,110.036,114.986,118.90400000000001,122.967,127.45,132.865,138.281,144.719,148.761,153.71,158.194,161.081,165.564,170.513,174.996,178.448,182.366,186.461,189.348,192.8,197.749,205.119,209.137,214.087,219.036,223.986,228.935,233.005,235.892,240.841,244.91,249.86,254.809,259.758,264.708,267.129,271.158,277.04,281.989,285.907,289.98,293.898,296.319,298.74,303.69,306.111,310.029,314.512" y="674.537" svg_rhmargin="316.933" style="fill:#171615;font-family:FHEHAC+AdvOTbc475f09;font-size:8.97px;font-style:NORMAL;font-weight:normal;">years in the SEER database from 1988 to 2012. The clinical</text>
  <text x="71.887,75.805,80.754,85.237,88.689,93.173,97.091,99.978,103.896,107.348,109.769,113.221,116.108,118.529,122.448,125.89999999999999,130.392,134.875,139.824,144.77300000000002,149.214,154.163,158.646,161.533,166.483,171.432,173.853,178.803,183.286,185.707,189.625,194.056,196.943,200.861,205.345,208.232,213.181,216.633,220.551,224.003,228.468,233.417,236.304,240.713,245.196,247.617,250.03799999999998,254.489,257.376,262.326,266.244,270.703,275.652,280.135,283.022,285.443,289.362,294.311,297.198,300.65,305.115,309.598,313.05" y="685.535" svg_rhmargin="316.968" style="fill:#171615;font-family:FHEHAC+AdvOTbc475f09;font-size:8.97px;font-style:NORMAL;font-weight:normal;">characteristics and pathologic features of all the patients are</text>
  <text x="71.887,75.339,80.288,87.658,95.029,99.512,102.964,105.385,109.303,113.221,118.17,123.135,125.556,130.505,135.381,141.262,145.746,150.695,153.116,157.03400000000002,161.969,166.919,169.34,174.271,180.153,185.102,189.021,192.473,196.39100000000002,201.313,208.217,212.7,216.152,221.041,225.524,230.452,233.904,236.791,241.274,244.162,246.582,250.034,252.922,255.343,259.261,263.744,266.165,268.586,273.069,278.016,281.468,283.889,288.372,293.321" y="696.477" svg_rhmargin="295.742" style="fill:#171615;font-family:FHEHAC+AdvOTbc475f09;font-size:8.97px;font-style:NORMAL;font-weight:normal;">summarized in Table 1. There was a statistically signi</text>
  <text x="295.768" y="696.477" svg_rhmargin="300.717" style="fill:#171615;font-family:FHEHBE+AdvOTbc475f09+fb;font-size:8.97px;font-style:NORMAL;font-weight:normal;">ﬁ</text>
  <text x="300.7,304.619,309.102,314.051" y="696.477" svg_rhmargin="316.938" style="fill:#171615;font-family:FHEHAC+AdvOTbc475f09;font-size:8.97px;font-style:NORMAL;font-weight:normal;">cant</text>
  <text x="71.887,76.836,79.257,82.144,85.031,88.949,92.401,96.32,101.269,105.187,109.105,114.348,116.769,121.718,126.991,129.878,134.827,138.745,143.942,147.86,152.809,160.18,165.129,170.078,173.53,175.951,178.838,181.259,186.209,191.15800000000002,196.438,201.387,204.274,209.476,215.914,220.397,224.316,228.234,230.655,235.895,242.332,245.784,252.222,258.66,263.9,267.352,270.239,274.722,279.205,283.124,285.545,290.828,297.732,301.185,305.668,310.617,314.535" y="707.418" svg_rhmargin="316.956" style="fill:#171615;font-family:FHEHAC+AdvOTbc475f09;font-size:8.97px;font-style:NORMAL;font-weight:normal;">difference in the composition of Race, AJCC stage, Grade,</text>
  <text x="71.887,80.853,84.771,87.658,92.141,95.594,98.481,102.964,106.416,108.837,112.289,114.234,117.686,120.574,125.057,127.944,132.893,136.345,138.766,140.709,146.125,152.563,154.485,157.937,160.824,165.307,168.195,173.144,176.596,179.017,180.903,185.853,192.291,194.226,197.678,200.566,205.049,207.936,212.885,216.337,218.75799999999998,220.701,225.184,230.134,235.083,236.971,243.409,247.892,252.842,255.263,259.746,262.633,265.054,270.003,274.952,276.882" y="718.417" svg_rhmargin="279.769" style="fill:#171615;font-family:FHEHAC+AdvOTbc475f09;font-size:8.97px;font-style:NORMAL;font-weight:normal;">Metastasis status, ER status, PR status, and Radiation (</text>
  <text svg_rhmargin="285.196" x="279.78,285.195" y="718.417" style="fill:#171615;font-family:FHEIBH+AdvOT638a931c.I;font-size:8.97px;font-style:NORMAL;font-weight:normal;">P </text>
  <text x="286.357" y="718.417" svg_rhmargin="293.261" style="fill:#171615;font-family:FHEGPO+AdvP4C4E51;font-size:8.97px;font-style:NORMAL;font-weight:normal;">&lt;</text>
  <text svg_rhmargin="316.928" x="294.35,296.771,301.721,306.67,311.62,314.507,316.928" y="390.447" style="fill:#171615;font-family:FHEHAC+AdvOTbc475f09;font-size:8.97px;font-style:NORMAL;font-weight:normal;">.001). </text>
  <text x="331.938,334.825,339.774,341.576,346.059,351.008,355.958,358.379,361.266,363.687,368.636,373.586,376.007,377.915,381.833,386.782,394.152,399.102,403.585,407.037,410.955,415.904,417.768,424.672,427.093,429.98,434.92900000000003,436.759,444.13,448.613,451.034,454.952,456.828,461.777,466.26,469.148,471.568,475.487,480.436,483.323,486.775,488.631,495.535,497.956,500.843,505.79200000000003,507.679,512.629,516.081,519.999,524.482,527.934,530.8209999999999,532.68,536.598,541.081,546.031,549.949,553.867,557.319,559.155,563.638,568.121,572.039" y="390.447" svg_rhmargin="576.988" style="fill:#171615;font-family:FHEHAC+AdvOTbc475f09;font-size:8.97px;font-style:NORMAL;font-weight:normal;">In addition, compared with male patients with breast cancer aged</text>
  <text x="331.938" y="401.389" svg_rhmargin="338.008" style="fill:#171615;font-family:FHEGPL+AdvOTb0c9bf5d+22;font-size:8.97px;font-style:NORMAL;font-weight:normal;">≥</text>
  <text x="338.005,342.954,347.903,349.91,354.393,358.311,362.795,366.247,369.699,372.12,374.174,377.061,382.01,385.928,387.95,392.433,397.382,402.332,407.281,411.764,413.744,421.114,425.597,428.018,431.936,433.983,438.932,443.415,446.302,448.723,452.641,457.591,460.478,463.93,466.013,472.917,475.338,478.225,483.17400000000004,485.175,490.124,493.576,497.495,501.978,505.43,508.317,510.402,514.321,518.804,523.753,527.672,531.59,535.042,537.048,543.952,547.87,551.322,555.24,557.286,564.657,569.606,573.058" y="401.389" svg_rhmargin="576.976" style="fill:#171615;font-family:FHEHAC+AdvOTbc475f09;font-size:8.97px;font-style:NORMAL;font-weight:normal;">40 years, the young male patients with breast cancer were more</text>
  <text x="331.938,334.359,336.78,341.729,345.647,348.068,352.551,354.388,357.275,362.224,364.026,368.975,372.89300000000003,374.74,379.69,382.111,386.594,390.512,395.461,397.247,400.699,405.182,409.1,413.01800000000003,414.878,417.765,422.715,427.664,430.085,435.034,439.984,448.95,450.764,455.247,458.699,460.515,465.464,470.414,472.835,477.784,482.733,491.7,494.587,497.008,498.838,501.259,505.177,508.629,512.081,513.917,516.804,521.754,529.124,534.073,537.525,539.372,543.855,546.742,548.556,553.039,556.491,560.974,565.924,569.842,571.686,574.573" y="412.33" svg_rhmargin="576.994" style="fill:#171615;font-family:FHEHAC+AdvOTbc475f09;font-size:8.97px;font-style:NORMAL;font-weight:normal;">likely to be black race (18.54% vs 12.64%), less tumor at grade I/</text>
  <text x="331.938,334.825,337.712,339.478,342.365,347.314,352.264,354.685,359.634,364.583,373.54900000000004,375.42,379.903,383.355,385.114,390.064,395.013,397.434,402.384,407.333,416.299,419.186,421.60699999999997,423.437,425.858,430.808,437.712,441.63,445.082,446.908,451.857,456.806,460.258,467.629,472.578,477.527,481.445,483.246,486.698,490.616,494.535,498.453,503.402,506.29,511.239,514.691,516.524,521.473,526.422,529.875,532.295,535.183,537.603,542.087,546.005,547.873,550.761,555.71,560.659,563.08,568.03" y="423.272" svg_rhmargin="576.996" style="fill:#171615;font-family:FHEHAC+AdvOTbc475f09;font-size:8.97px;font-style:NORMAL;font-weight:normal;">II (42.38% vs 55.18%), lower hormone receptor positive (67.5%</text>
  <text x="331.938,336.421,339.873,342.199,347.148,352.098,354.519,359.468,364.418,373.384,375.76,378.647,383.596,387.048,389.366,394.782,401.21999999999997,403.596,407.048,409.935,414.418,417.305,422.255,425.707,428.086,432.57,437.519,442.468,444.81,449.76,454.709,457.13,462.079,467.029,475.995,478.315,482.798,486.25,488.633,493.583,498.532,500.953,505.902,510.852,519.818,522.138,525.025,529.974,533.426,535.8,540.75,547.188,549.52,552.972,555.859,560.342,563.229,568.179,571.631,574.518" y="434.27" svg_rhmargin="576.939" style="fill:#171615;font-family:FHEHAC+AdvOTbc475f09;font-size:8.97px;font-style:NORMAL;font-weight:normal;">vs 76.68% for ER status and 54.30% vs 67.29% for PR status).</text>
  <text svg_rhmargin="556.071" x="331.938,338.376,343.325,350.696,355.645,360.128,363.58,367.498,372.447,376.554,383.458,385.879,388.766,393.71500000000003,397.813,400.701,404.619,411.989,416.472,418.893,422.811,426.896,431.845,436.328,439.215,441.636,445.555,450.504,453.391,456.843,460.967,467.871,470.292,473.179,478.128,482.283,487.233,490.685,494.603,499.086,502.538,505.425,509.495,513.413,517.896,522.846,526.764,530.682,534.134,538.237,542.72,547.204,551.122,556.0709999999999" y="445.212" style="fill:#171615;font-family:FHEHAC+AdvOTbc475f09;font-size:8.97px;font-style:NORMAL;font-weight:normal;">Compared with female patients with breast cancer aged </text>
  <text x="560.184" y="445.212" svg_rhmargin="567.088" style="fill:#171615;font-family:FHEGPO+AdvP4C4E51;font-size:8.97px;font-style:NORMAL;font-weight:normal;">&lt;</text>
  <text x="567.101,572.05" y="445.212" svg_rhmargin="576.999" style="fill:#171615;font-family:FHEHAC+AdvOTbc475f09;font-size:8.97px;font-style:NORMAL;font-weight:normal;">40</text>
  <text x="331.938,336.421,340.339,344.823,348.275,351.727,354.14799999999997,358.13,361.017,365.966,369.884,373.946,378.429,383.379,388.328,393.277,397.76,401.782,409.152,413.635,416.056,419.974,424.005,428.954,433.438,436.325,438.746,442.664,447.613,450.5,453.952,458.02,464.924,467.344,470.232,475.18100000000004,479.222,484.172,487.624,491.542,496.025,499.477,502.364,506.377,510.296,514.779,519.728,523.647,527.565,531.017,535.063,541.967,545.886,549.338,553.256,557.286,564.657,569.606,573.058" y="456.153" svg_rhmargin="576.976" style="fill:#171615;font-family:FHEHAC+AdvOTbc475f09;font-size:8.97px;font-style:NORMAL;font-weight:normal;">years, the young male patients with breast cancer were more</text>
  <text x="331.938,334.359,336.78,341.729,345.648,348.068,352.551,355.522,358.409,363.358,366.351,371.3,375.218,378.2,383.149,388.098,391.551,398.921,403.87,408.82,412.738,415.729,419.181,423.099,427.018,430.936,435.885,438.772,443.722,447.174,450.141,455.09,460.04,463.492,465.913,468.8,471.221,475.704,479.622,482.625,485.512,490.461,495.411,497.832,502.781,511.747,514.769,519.252,522.704,525.654,530.604,535.553,537.974,542.923,547.872,550.882,553.769,558.718,562.17,565.111,570.527" y="467.151" svg_rhmargin="576.965" style="fill:#171615;font-family:FHEHAC+AdvOTbc475f09;font-size:8.97px;font-style:NORMAL;font-weight:normal;">likely to be hormone receptor positive (67.5% vs 52.22 for ER</text>
  <text x="331.938,335.39,338.277,342.76,345.648,350.597,354.049,355.975,360.458,365.407,370.356,372.302,377.251,382.2,384.621,389.571,394.52,403.486,405.41,409.893,413.34499999999997,415.274,420.224,425.173,427.594,432.544,437.493,446.459,448.439,451.326,456.276,459.728,461.648,466.598,473.036,474.971,478.423,481.31,485.794,488.681,493.63,497.082,499.969,502.39,504.337,507.224,512.173,515.06,518.979,522.431,526.349,529.801,532.688,535.109,540.059,544.542,546.963,551.446,553.8670000000001,555.869,558.756,562.674,569.578,573.497" y="478.093" svg_rhmargin="576.949" style="fill:#171615;font-family:FHEHAC+AdvOTbc475f09;font-size:8.97px;font-style:NORMAL;font-weight:normal;">status and 54.30% vs 46.14% for PR status). Interestingly, fewer</text>
  <text x="331.938,336.421,341.371,346.32,351.269,355.752,361.758,369.128,373.612,376.033,379.951,385.965,390.915,395.398,398.285,400.706,404.624,409.574,412.461,415.913,421.908,428.812,431.233,434.12,439.069,445.151,450.1,453.552,457.471,461.954,465.406,468.293,474.291,478.209,482.692,487.641,491.56,495.478,498.93,504.961,508.413,512.331,516.249,520.168,522.589,527.072,530.99,535.939,541.98,545.432,549.915,554.865,557.285,561.769,564.656,567.077,572.026" y="489.035" svg_rhmargin="576.975" style="fill:#171615;font-family:FHEHAC+AdvOTbc475f09;font-size:8.97px;font-style:NORMAL;font-weight:normal;">young male patients with breast cancer received radiation</text>
  <text x="331.938,334.825,339.775,343.693,347.145,351.628,356.577,361.06,365.669,368.556,373.506,378.455,380.876,385.826,390.775,399.741,404.389,408.873,412.325,416.918,421.867,426.817,429.238,434.187,439.137,448.103,450.99,453.411,458.076,463.958,468.907,472.825,477.465,482.414,486.332,489.22,493.703,496.124,498.545,502.463,507.41200000000003,512.047,515.499,518.386,522.869,525.756,528.177,531.629,534.516,536.937,540.856,545.339,547.7600000000001,552.41,555.862,559.781,563.233,568.182,570.603,573.49" y="500.033" svg_rhmargin="576.942" style="fill:#171615;font-family:FHEHAC+AdvOTbc475f09;font-size:8.97px;font-style:NORMAL;font-weight:normal;">therapy (27.81% vs 45.01%). The detailed statistical results</text>
  <text x="331.938,336.421,339.873,343.791,346.734,350.186,355.136,362.506,369.876,374.359,377.811,380.232,384.151,388.069,393.01800000000003,396.055,398.476,403.425,406.43,412.312,416.795,421.745,424.165,428.083,431.091,436.04" y="510.974" svg_rhmargin="438.461" style="fill:#171615;font-family:FHEHAC+AdvOTbc475f09;font-size:8.97px;font-style:NORMAL;font-weight:normal;">are summarized in Table 1.</text>
  <text x="331.938,336.887,339.308,344.258,346.679,351.156,357.128,360.392,365.619,370.846,375.975,381.203,385.686,388.573,390.716,395.665,398.663,403.613,408.742,413.691,415.834,420.317,424.8,426.943,431.426,434.435,439.663,442.46000000000004,445.434,449.917,455.144,460.273,465.401,470.628,473.666,481.601,486.55,488.693,493.642,496.626,502.041,506.991,509.878,512.021,516.97,522.099,524.986,529.4689999999999,532.512,539.416,541.559,544.446" y="537.62" svg_rhmargin="549.575" style="fill:#171615;font-family:FHEIAG+AdvOT01861455.I;font-size:8.97px;font-style:NORMAL;font-weight:normal;">3.2. Prognostic analysis of young male patients with</text>
  <text x="331.938,337.354,340.617,345.567,350.516,354.999,357.886,360.851,365.8,370.75,375.878,380.828,385.777" y="549.582" svg_rhmargin="389.041" style="fill:#171615;font-family:FHEIAG+AdvOT01861455.I;font-size:8.97px;font-style:NORMAL;font-weight:normal;">breast cancer</text>
  <text x="331.938,337.82,342.769,346.687,350.08,355.029,358.481,363.43,367.914,372.863,377.812,381.264,385.183,388.635,392.031,396.98,399.867,403.313,410.683,415.166,417.587,421.505,424.912,429.862,433.314,437.232,441.715,445.167,448.054,451.5,455.418,459.902,464.851,468.769,472.687,476.139,479.562,484.045,488.994,493.94300000000004,497.306,500.193,504.112,511.482,515.965,518.386,522.304,525.765,530.715,534.167,538.085,542.568,546.02,548.9069999999999,552.353,556.271,560.754,565.704,569.622,573.54" y="565.513" svg_rhmargin="576.992" style="fill:#171615;font-family:FHEHAC+AdvOTbc475f09;font-size:8.97px;font-style:NORMAL;font-weight:normal;">The prognoses of male breast cancer and female breast cancer</text>
  <text x="331.938,338.842,342.76,346.212,350.13,352.857,355.744,360.694,364.146,367.033,371.982,375.901,379.353,382.11,386.593,391.542,396.026,398.447,402.93,406.848,410.766,415.71500000000003,418.506,423.455,426.907,429.328,434.278,438.761,441.466,447.904,452.387,457.336,459.757,464.24" y="576.454" svg_rhmargin="469.189" style="fill:#171615;font-family:FHEHAC+AdvOTbc475f09;font-size:8.97px;font-style:NORMAL;font-weight:normal;">were further analyzed using Kaplan</text>
  <text x="469.249" y="576.454" svg_rhmargin="473.732" style="fill:#171615;font-family:FHEHBD+AdvOTbc475f09+20;font-size:8.97px;font-style:NORMAL;font-weight:normal;">–</text>
  <text x="473.728,482.694,486.612,489.033,492.951,496.403,499.125,503.044,506.496,509.383,511.804,519.174,523.657,526.544,530.463,533.915,536.336,539.149,545.587,549.039,551.792,555.244,560.193,565.143,572.047" y="576.454" svg_rhmargin="576.996" style="fill:#171615;font-family:FHEHAC+AdvOTbc475f09;font-size:8.97px;font-style:NORMAL;font-weight:normal;">Meier estimates. As shown</text>
  <text x="331.938,334.359,339.308,341.179,346.128,348.549,353.032,357.982,361.434,365.35200000000003,367.256,372.206,374.627,376.553,379.441,384.39,388.308,390.216,397.587,402.07,403.992,408.942,411.829,413.743,418.226,423.176,428.125,433.074,437.557,439.424,446.795,451.278,453.699,457.617,459.55,464.499,468.983,471.87,474.291,478.209,483.158,486.045,489.497,491.467,498.371,500.792,503.68,508.629,510.515,515.465,518.917,522.835,527.318,530.77,533.6569999999999,535.573,539.491,543.974,548.923,552.842,556.76,560.212,562.16,569.064,573.548" y="587.452" svg_rhmargin="577.0" style="fill:#171615;font-family:FHEHAC+AdvOTbc475f09;font-size:8.97px;font-style:NORMAL;font-weight:normal;">in Figure 1, the OS of young male patients with breast cancer was</text>
  <text x="331.938,335.39,337.811,342.294,347.244" y="598.394" svg_rhmargin="349.665" style="fill:#171615;font-family:FHEHAC+AdvOTbc475f09;font-size:8.97px;font-style:NORMAL;font-weight:normal;">signi</text>
  <text x="349.683" y="598.394" svg_rhmargin="354.632" style="fill:#171615;font-family:FHEHBE+AdvOTbc475f09+fb;font-size:8.97px;font-style:NORMAL;font-weight:normal;">ﬁ</text>
  <text x="354.616,358.534,363.017,367.966,370.854,373.275,377.758,381.09,386.04,388.461,392.944,397.893,401.812,405.264,408.642,411.529,416.479,420.962,425.911,429.278,436.648,441.132,443.552,447.47,450.82,455.77,460.253,463.14,465.561,469.479,474.429,477.316,480.768,484.098,491.002,493.423,496.31,501.259,504.677,509.627,513.079,516.997,521.48,524.932,527.819,531.152,535.071,539.554,544.503,548.421,552.34,555.792,559.158,563.641,568.124,572.042" y="598.394" svg_rhmargin="576.991" style="fill:#171615;font-family:FHEHAC+AdvOTbc475f09;font-size:8.97px;font-style:NORMAL;font-weight:normal;">cantly higher than male patients with breast cancer aged</text>
  <text x="331.938" y="609.335" svg_rhmargin="338.008" style="fill:#171615;font-family:FHEGPL+AdvOTb0c9bf5d+22;font-size:8.97px;font-style:NORMAL;font-weight:normal;">≥</text>
  <text x="338.005,342.954,347.903,350.364,354.847,358.765,363.248,366.7,370.152,372.587" y="609.335" svg_rhmargin="375.474" style="fill:#171615;font-family:FHEHAC+AdvOTbc475f09;font-size:8.97px;font-style:NORMAL;font-weight:normal;">40 years (</text>
  <text x="375.478" y="609.335" svg_rhmargin="380.427" style="fill:#171615;font-family:FHEIBI+AdvP7DA6;font-size:8.97px;font-style:NORMAL;font-weight:normal;">x</text>
  <text svg_rhmargin="384.178" x="380.466,384.178" y="609.342" style="fill:#171615;font-family:FHEHAC+AdvOTbc475f09;font-size:5.98px;font-style:NORMAL;font-weight:normal;">2 </text>
  <text x="385.285" y="609.342" svg_rhmargin="391.355" style="fill:#171615;font-family:FHEHAB+AdvOTb0c9bf5d;font-size:8.97px;font-style:NORMAL;font-weight:normal;">=</text>
  <text svg_rhmargin="422.074" x="392.485,397.434,402.384,404.805,409.754,414.703,419.653,422.074" y="609.342" style="fill:#171615;font-family:FHEHAC+AdvOTbc475f09;font-size:8.97px;font-style:NORMAL;font-weight:normal;">33.929, </text>
  <text svg_rhmargin="429.932" x="424.516,429.93100000000004" y="609.342" style="fill:#171615;font-family:FHEIBH+AdvOT638a931c.I;font-size:8.97px;font-style:NORMAL;font-weight:normal;">P </text>
  <text x="431.093" y="609.342" svg_rhmargin="437.997" style="fill:#171615;font-family:FHEGPO+AdvP4C4E51;font-size:8.97px;font-style:NORMAL;font-weight:normal;">&lt;</text>
  <text x="439.086,441.507,446.457,451.406,456.355,459.242,461.707,464.594,469.543,471.964,476.447,478.868,481.374,486.323,492.761,495.648,498.069,500.536,508.005,512.954,519.858,523.777,528.26,532.178,535.63,538.051,540.56,543.447,548.396,552.315,555.767,559.6850000000001,562.16,569.064,573.547" y="609.342" svg_rhmargin="576.999" style="fill:#171615;font-family:FHEHAC+AdvOTbc475f09;font-size:8.97px;font-style:NORMAL;font-weight:normal;">.001) (Fig. 1A). However, there was</text>
  <text x="331.936,336.886,341.83500000000004,345.146,348.598,351.018,355.502,360.451" y="620.341" svg_rhmargin="362.872" style="fill:#171615;font-family:FHEHAC+AdvOTbc475f09;font-size:8.97px;font-style:NORMAL;font-weight:normal;">no signi</text>
  <text x="362.834" y="620.341" svg_rhmargin="367.783" style="fill:#171615;font-family:FHEHBE+AdvOTbc475f09+fb;font-size:8.97px;font-style:NORMAL;font-weight:normal;">ﬁ</text>
  <text x="367.823,371.741,376.224,381.174,384.061,387.381,394.752,399.235,402.518,407.468,409.888,412.776,415.663,419.581,423.033,426.951,431.901,435.819,439.737,443.109,448.058,451.976,454.863,461.767,465.686,469.604,474.553,477.86,482.343,487.293,492.242,497.192,501.675,505.016,512.386,516.869,519.29,523.208,526.502,531.451,535.934,538.821,541.242,545.16,550.11,552.997,556.449,559.779,566.683,569.104,571.991" y="620.341" svg_rhmargin="576.94" style="fill:#171615;font-family:FHEHAC+AdvOTbc475f09;font-size:8.97px;font-style:NORMAL;font-weight:normal;">cant OS difference between young male patients with</text>
  <text x="331.936,336.886,340.338,344.256,348.739,352.191,355.078,357.22,361.139,365.622,370.571,374.49,378.408,381.86,383.979,388.462,393.411,398.36,400.476,404.959,409.908,414.858,419.807,424.29,426.44,429.327,433.246,440.616,445.099,447.52,451.438,453.596,458.545,463.028,465.915,468.336,472.255,477.204,480.091,483.543,485.74,492.644,495.065,497.952,502.901,505.015,509.964,513.416,517.334,521.818,525.27,528.1569999999999,530.299,534.217,538.7,543.65,547.568,551.486,554.938,557.113" y="631.282" svg_rhmargin="560.0" style="fill:#171615;font-family:FHEHAC+AdvOTbc475f09;font-size:8.97px;font-style:NORMAL;font-weight:normal;">breast cancer and young female patients with breast cancer (</text>
  <text x="560.013" y="631.282" svg_rhmargin="564.962" style="fill:#171615;font-family:FHEIBI+AdvP7DA6;font-size:8.97px;font-style:NORMAL;font-weight:normal;">x</text>
  <text svg_rhmargin="568.657" x="564.945,568.657" y="631.282" style="fill:#171615;font-family:FHEHAC+AdvOTbc475f09;font-size:5.98px;font-style:NORMAL;font-weight:normal;">2 </text>
  <text x="569.82" y="631.282" svg_rhmargin="575.89" style="fill:#171615;font-family:FHEHAB+AdvOTb0c9bf5d;font-size:8.97px;font-style:NORMAL;font-weight:normal;">=</text>
  <text svg_rhmargin="356.576" x="331.936,336.886,339.307,344.256,349.205,354.155,356.57599999999996" y="642.223" style="fill:#171615;font-family:FHEHAC+AdvOTbc475f09;font-size:8.97px;font-style:NORMAL;font-weight:normal;">0.006, </text>
  <text svg_rhmargin="363.658" x="358.242,363.65700000000004" y="642.223" style="fill:#171615;font-family:FHEIBH+AdvOT638a931c.I;font-size:8.97px;font-style:NORMAL;font-weight:normal;">P </text>
  <text x="364.761" y="642.223" svg_rhmargin="370.831" style="fill:#171615;font-family:FHEHAB+AdvOTb0c9bf5d;font-size:8.97px;font-style:NORMAL;font-weight:normal;">=</text>
  <text x="371.961,374.382,379.331,384.281,389.23,392.117,393.787,396.674,401.623,404.044,408.527,410.948,412.604,417.554,423.992,426.879,429.3,430.972,433.859,438.808,441.695,445.614,449.066,452.984,456.436,459.323,461.744,466.694,471.177,473.598,478.081,480.502,482.22,485.108,490.057,493.975,495.656,499.109,501.529,506.013,510.962" y="642.223" svg_rhmargin="513.383" style="fill:#171615;font-family:FHEHAC+AdvOTbc475f09;font-size:8.97px;font-style:NORMAL;font-weight:normal;">.939) (Fig. 1A). Interestingly, the signi</text>
  <text x="513.411" y="642.223" svg_rhmargin="518.36" style="fill:#171615;font-family:FHEHBE+AdvOTbc475f09+fb;font-size:8.97px;font-style:NORMAL;font-weight:normal;">ﬁ</text>
  <text x="518.343,522.261,526.744,531.694,534.5809999999999,536.258,541.207,543.628,546.515,549.402,553.321,556.773,560.691,565.64,569.559,573.477" y="642.223" svg_rhmargin="576.929" style="fill:#171615;font-family:FHEHAC+AdvOTbc475f09;font-size:8.97px;font-style:NORMAL;font-weight:normal;">cant differences</text>
  <text x="331.936,336.886,339.773,344.012,346.899,351.849,355.767,360.056,366.493,370.977,375.46,379.728,384.211,391.581,396.53,401.48,405.963,410.227,413.115,418.064,421.982,426.271,431.22,435.455,439.938,443.39,448.34,453.289,458.238,461.69,465.955,472.859,476.777,480.229,484.147,488.461,493.41,498.36,501.247,505.525,508.412,513.361,518.311,523.26,528.209,532.453" y="653.165" svg_rhmargin="535.34" style="fill:#171615;font-family:FHEHAC+AdvOTbc475f09;font-size:8.97px;font-style:NORMAL;font-weight:normal;">of the CSS among the 3 groups were not found (</text>
  <text x="535.351" y="653.165" svg_rhmargin="540.3" style="fill:#171615;font-family:FHEIBI+AdvP7DA6;font-size:8.97px;font-style:NORMAL;font-weight:normal;">x</text>
  <text svg_rhmargin="543.995" x="540.283,543.995" y="653.165" style="fill:#171615;font-family:FHEHAC+AdvOTbc475f09;font-size:5.98px;font-style:NORMAL;font-weight:normal;">2 </text>
  <text x="545.159" y="653.165" svg_rhmargin="551.229" style="fill:#171615;font-family:FHEHAB+AdvOTb0c9bf5d;font-size:8.97px;font-style:NORMAL;font-weight:normal;">=</text>
  <text x="552.359,557.308,559.729,564.679,569.628,574.577" y="653.165" svg_rhmargin="576.998" style="fill:#171615;font-family:FHEHAC+AdvOTbc475f09;font-size:8.97px;font-style:NORMAL;font-weight:normal;">1.024,</text>
  <text svg_rhmargin="337.352" x="331.936,337.351" y="664.164" style="fill:#171615;font-family:FHEIBH+AdvOT638a931c.I;font-size:8.97px;font-style:NORMAL;font-weight:normal;">P </text>
  <text x="338.455" y="664.164" svg_rhmargin="344.525" style="fill:#171615;font-family:FHEHAB+AdvOTb0c9bf5d;font-size:8.97px;font-style:NORMAL;font-weight:normal;">=</text>
  <text x="345.655,348.076,353.025,357.975,362.924,365.811,368.786,371.673,376.622,379.043,383.526,385.947,388.963,393.913,399.328,402.215" y="664.164" svg_rhmargin="404.636" style="fill:#171615;font-family:FHEHAC+AdvOTbc475f09;font-size:8.97px;font-style:NORMAL;font-weight:normal;">.599) (Fig. 1B).</text>
  <text x="331.936,336.885,339.306,344.256,346.67699999999996,351.154,357.126,360.389,365.617,371.033,375.982,381.111,385.594,387.737,390.624,395.107,398.095,402.578,407.527,412.755,416.018,420.967,424.003,431.938,436.887,439.774,444.724,449.853,451.996,457.124,462.351,465.33,470.28,475.408,480.358,482.501,486.984,491.467,493.61" y="691.774" svg_rhmargin="498.093" style="fill:#171615;font-family:FHEIAG+AdvOT01861455.I;font-size:8.97px;font-style:NORMAL;font-weight:normal;">3.3. Propensity score matching analysis</text>
  <text x="331.936,337.818,342.767,346.685,352.628,356.547,358.967,361.388,366.338,368.759,372.677,377.16,379.581,385.566,390.515,394.999,398.451,402.369,404.79,407.211,412.16,416.07800000000003,422.075,428.979,433.462,436.914,442.938,446.39,448.811,453.294,458.243" y="707.762" svg_rhmargin="460.664" style="fill:#171615;font-family:FHEHAC+AdvOTbc475f09;font-size:8.97px;font-style:NORMAL;font-weight:normal;">The clinical baseline was signi</text>
  <text x="460.629" y="707.762" svg_rhmargin="465.578" style="fill:#171615;font-family:FHEHBE+AdvOTbc475f09+fb;font-size:8.97px;font-style:NORMAL;font-weight:normal;">ﬁ</text>
  <text x="465.618,469.536,474.019,478.969,481.856,484.277,488.76,494.758,499.707,502.128,505.015,507.902,511.82,515.272,519.191,524.14,527.0269999999999,533.024,537.507,544.877,549.827,554.776,559.2589999999999,565.225,568.112,573.061" y="707.762" svg_rhmargin="576.979" style="fill:#171615;font-family:FHEHAC+AdvOTbc475f09;font-size:8.97px;font-style:NORMAL;font-weight:normal;">cantly different among the</text>
  <text x="331.936,336.885,341.368,344.256,346.676,350.595,355.544,358.431,361.883,364.304,366.574,373.478,378.427,380.848,384.766,389.71500000000003,391.971,399.342,403.825,408.308,410.567,412.988,416.906,421.389,426.338,428.594,431.482,436.43100000000004,438.742,443.692,446.113,449.0,451.887,455.805,459.257,463.176,468.125,471.012,473.267,478.217,481.669,486.618,491.101,496.051,501.0,504.452,506.873,510.325,512.746,515.048,520.93,525.8789999999999,528.145,532.063,534.484,536.905,544.275,546.696,551.645,556.128,559.016,562.934,565.22,568.107,573.057" y="718.704" svg_rhmargin="576.975" style="fill:#171615;font-family:FHEHAC+AdvOTbc475f09;font-size:8.97px;font-style:NORMAL;font-weight:normal;">patients, which may lead to different prognosis. To eliminate the</text>
  <path d=" M 331.93701171875 741.7130126953125 L 576.9639892578125 741.7130126953125 L 576.9639892578125 742.2232666015625 L 331.93701171875 742.2232666015625 Z " style="fill:none;stroke:#000000;stroke-width:1.0;"/>
  <path d=" M 331.93701171875 453.88299560546875 L 576.9639892578125 453.88299560546875 L 576.9639892578125 454.39324951171875 L 331.93701171875 454.39324951171875 Z " style="fill:none;stroke:#000000;stroke-width:1.0;"/>
  <path d=" M 331.93701171875 718.3560180664062 L 390.72802734375 718.3560180664062 L 390.72802734375 718.8662719726562 L 331.93701171875 718.8662719726562 Z " style="fill:none;stroke:#000000;stroke-width:1.0;"/>
  <path d=" M 375.7040100097656 718.3560180664062 L 440.447021484375 718.3560180664062 L 440.447021484375 718.8662719726562 L 375.7040100097656 718.8662719726562 Z " style="fill:none;stroke:#000000;stroke-width:1.0;"/>
  <path d=" M 425.42401123046875 718.3560180664062 L 493.96600341796875 718.3560180664062 L 493.96600341796875 718.8662719726562 L 425.42401123046875 718.8662719726562 Z " style="fill:none;stroke:#000000;stroke-width:1.0;"/>
  <path d=" M 478.9419860839844 718.3560180664062 L 553.2099609375 718.3560180664062 L 553.2099609375 718.8662719726562 L 478.9419860839844 718.8662719726562 Z " style="fill:none;stroke:#000000;stroke-width:1.0;"/>
  <path d=" M 538.1859741210938 718.3560180664062 L 576.9639892578125 718.3560180664062 L 576.9639892578125 718.8662719726562 L 538.1859741210938 718.8662719726562 Z " style="fill:none;stroke:#000000;stroke-width:1.0;"/>
  <path d=" M 331.93701171875 754.8660278320312 L 370.9420166015625 754.8660278320312 L 370.9420166015625 766.8280029296875 L 331.93701171875 766.8280029296875 Z " style="fill:none;stroke:#000000;stroke-width:1.0;"/>
  <path d=" M 331.93701171875 766.6580200195312 L 576.9639892578125 766.6580200195312 L 576.9639892578125 767.1682739257812 L 331.93701171875 767.1682739257812 Z " style="fill:none;stroke:#000000;stroke-width:1.0;"/>
  <text x="334.885,340.607,346.497,352.635,354.954,360.932,363.57" y="42.186000000000035" svg_rhmargin="367.97" style="fill:#ffffff;font-family:FHEGPM+AdvOT91f5f621.B;font-size:7.97px;font-style:NORMAL;font-weight:normal;">Table 1</text>
  <text x="331.937,337.827,342.473,347.032,350.101,354.66,359.219,361.87,366.429,369.497,371.49,375.722,378.456,380.448,385.007,389.23900000000003,390.782,395.596,398.162,399.797,404.611,409.17,411.903,413.896,418.455,423.101,425.835,430.067,431.6,434.166,437.235,442.049,449.18199999999996,450.762,455.903,461.044,466.184,471.906,473.439,478.253,482.812,485.546,490.104,494.918,499.477,503.71,508.269,509.834,512.4,515.469,520.283,527.416,528.996,533.395,537.795,542.194,546.593,548.158,550.892,555.706,557.285,561.685,566.084,570.484,574.883" y="54.20500000000004" svg_rhmargin="577.035" style="fill:#171615;font-family:FHEGPJ+AdvOT34fe1490.B;font-size:7.97px;font-style:NORMAL;font-weight:normal;">Characteristics of patients from SEER database from 1988 to 2012.</text>
  <text svg_rhmargin="375.698" x="331.937,336.169,340.154,343.972,346.538,350.356,354.006,356.326,359.976,362.436,364.341,367.824,370.143,372.048,375.698" y="67.24400000000003" style="fill:#171615;font-family:FHEICI+AdvOT9d0303c0.B;font-size:7.97px;font-style:NORMAL;font-weight:normal;">Characteristic </text>
  <text x="400.479,406.369,410.187,412.091" y="67.24400000000003" svg_rhmargin="415.741" style="fill:#171615;font-family:FHEICI+AdvOT9d0303c0.B;font-size:7.97px;font-style:NORMAL;font-weight:normal;">Male</text>
  <text x="391.408" y="77.22199999999998" svg_rhmargin="397.545" style="fill:#171615;font-family:FHEGPO+AdvP4C4E51;font-size:7.97px;font-style:NORMAL;font-weight:normal;">&lt;</text>
  <text svg_rhmargin="424.747" x="397.587,401.405,405.22299999999996,407.849,411.332,413.972,416.291,422.428,424.747" y="67.24400000000003" style="fill:#171615;font-family:FHEICI+AdvOT9d0303c0.B;font-size:7.97px;font-style:NORMAL;font-weight:normal;">40 y (%) </text>
  <text x="452.069,457.959,461.777,463.682" y="67.24400000000003" svg_rhmargin="467.332" style="fill:#171615;font-family:FHEICI+AdvOT9d0303c0.B;font-size:7.97px;font-style:NORMAL;font-weight:normal;">Male</text>
  <text x="443.452" y="77.22199999999998" svg_rhmargin="448.848" style="fill:#171615;font-family:FHEGPL+AdvOTb0c9bf5d+22;font-size:7.97px;font-style:NORMAL;font-weight:normal;">≥</text>
  <text svg_rhmargin="475.998" x="448.838,452.656,456.474,459.1,462.583,465.222,467.542,473.679,475.998" y="67.24400000000003" style="fill:#171615;font-family:FHEICI+AdvOT9d0303c0.B;font-size:7.97px;font-style:NORMAL;font-weight:normal;">40 y (%) </text>
  <text x="504.794,508.445,512.095,518.073,521.891,523.795" y="67.24400000000003" svg_rhmargin="527.445" style="fill:#171615;font-family:FHEICI+AdvOT9d0303c0.B;font-size:7.97px;font-style:NORMAL;font-weight:normal;">Female</text>
  <text svg_rhmargin="504.241" x="498.104,504.241" y="77.22199999999998" style="fill:#171615;font-family:FHEGPO+AdvP4C4E51;font-size:7.97px;font-style:NORMAL;font-weight:normal;">&lt; </text>
  <text svg_rhmargin="534.108" x="506.891,510.709,514.527,517.153,520.636,523.332,525.652,531.789,534.108" y="77.22199999999998" style="fill:#171615;font-family:FHEICI+AdvOT9d0303c0.B;font-size:7.97px;font-style:NORMAL;font-weight:normal;">40 y (%) </text>
  <text x="553.209" y="77.22199999999998" svg_rhmargin="557.274" style="fill:#171615;font-family:FHEICJ+AdvOT1ae6bdaa.BI;font-size:7.97px;font-style:NORMAL;font-weight:normal;">P</text>
  <text x="557.291,560.192,563.675,567.493,569.398,573.383" y="77.22199999999998" svg_rhmargin="577.033" style="fill:#171615;font-family:FHEICI+AdvOT9d0303c0.B;font-size:7.97px;font-style:NORMAL;font-weight:normal;">-value</text>
  <text x="331.936,335.419,338.734,340.639,343.955,345.366,402.348,406.166,409.983,413.801,452.068,455.885,459.703,463.521,467.339,505.642,509.459,513.277,515.182,519.0,522.817" y="91.56500000000005" svg_rhmargin="526.635" style="fill:#171615;font-family:FHEIDK+AdvOTcb6dfb9e;font-size:7.97px;font-style:NORMAL;font-weight:normal;">Total 151 6930 52,710</text>
  <text svg_rhmargin="345.789" x="331.936,335.921,339.237,342.473,345.789" y="101.543" style="fill:#171615;font-family:FHEIDK+AdvOTcb6dfb9e;font-size:7.97px;font-style:NORMAL;font-weight:normal;">Race </text>
  <text x="555.364" y="101.543" svg_rhmargin="561.501" style="fill:#171615;font-family:FHEGPO+AdvP4C4E51;font-size:7.97px;font-style:NORMAL;font-weight:normal;">&lt;</text>
  <text x="561.486,563.391,567.209,571.027" y="101.543" svg_rhmargin="574.845" style="fill:#171615;font-family:FHEIDK+AdvOTcb6dfb9e;font-size:7.97px;font-style:NORMAL;font-weight:normal;">.001</text>
  <text x="339.873,345.596,349.079,350.49,352.395,355.71099999999996,390.726,394.544,398.362,402.18,404.786,406.523,410.341,414.159,416.064,419.881,423.699,425.43600000000004,440.445,444.262,448.08,451.898,455.716,458.359,460.097,463.914,467.732,469.637,473.455,477.272,479.009,493.961,497.779,501.597,503.501,507.319,511.137,514.955,517.602,519.339,523.157,526.975,528.879,532.697,536.515" y="111.52099999999996" svg_rhmargin="538.253" style="fill:#171615;font-family:FHEIDK+AdvOTcb6dfb9e;font-size:7.97px;font-style:NORMAL;font-weight:normal;">White 107 (70.86) 5671 (81.83) 38,480 (73.00)</text>
  <text x="339.873,343.858,345.269,348.585,351.821,355.057,394.525,398.343,402.161,404.786,406.523,410.341,414.159,416.064,419.881,423.699,425.43600000000004,444.243,448.061,451.879,455.697,458.359,460.097,463.914,467.732,469.637,473.455,477.272,479.009,499.688,503.506,507.323,511.141,514.9590000000001,517.602,519.34,523.158,526.975,528.88,532.698,536.516" y="121.44299999999998" svg_rhmargin="538.254" style="fill:#171615;font-family:FHEIDK+AdvOTcb6dfb9e;font-size:7.97px;font-style:NORMAL;font-weight:normal;">Black 28 (18.54) 876 (12.64) 8134 (15.43)</text>
  <text x="339.873,344.273,346.178,349.661,352.976,355.128,394.525,398.343,402.161,404.786,406.523,410.341,412.246,416.064,419.881,421.618,444.243,448.061,451.879,455.697,458.359,460.097,463.914,465.819,469.637,473.455,475.192,499.688,503.506,507.323,511.141,514.9590000000001,517.602,519.34,523.158,526.975,528.88,532.698,536.516" y="131.41999999999996" svg_rhmargin="538.254" style="fill:#171615;font-family:FHEIDK+AdvOTcb6dfb9e;font-size:7.97px;font-style:NORMAL;font-weight:normal;">Other 12 (7.95) 334 (4.82) 5711 (10.83)</text>
  <text svg_rhmargin="364.996" x="331.937,335.922,339.158,343.222,347.287,349.908,352.976,354.881,358.197,361.68,364.996" y="141.39800000000002" style="fill:#171615;font-family:FHEIDK+AdvOTcb6dfb9e;font-size:7.97px;font-style:NORMAL;font-weight:normal;">AJCC stage </text>
  <text x="555.365" y="141.39800000000002" svg_rhmargin="561.502" style="fill:#171615;font-family:FHEGPO+AdvP4C4E51;font-size:7.97px;font-style:NORMAL;font-weight:normal;">&lt;</text>
  <text x="561.487,563.392,567.21,571.028" y="141.39800000000002" svg_rhmargin="574.846" style="fill:#171615;font-family:FHEIDK+AdvOTcb6dfb9e;font-size:7.97px;font-style:NORMAL;font-weight:normal;">.001</text>
  <text x="339.874,341.285,394.527,398.344,402.162,404.787,406.525,410.343,414.16,416.065,419.883,423.701,425.43800000000005,440.446,444.264,448.082,451.899,455.717,458.361,460.098,463.916,467.734,469.639,473.456,477.274,479.011,493.963,497.781,501.598,503.503,507.321,511.139,514.957,517.603,519.341,523.158,526.976,528.881,532.699,536.517" y="151.37599999999998" svg_rhmargin="538.255" style="fill:#171615;font-family:FHEIDK+AdvOTcb6dfb9e;font-size:7.97px;font-style:NORMAL;font-weight:normal;">I 41 (27.15) 2133 (30.78) 14,275 (27.08)</text>
  <text x="339.874,341.285,342.696,394.527,398.344,402.162,404.788,406.525,410.343,414.16,416.065,419.883,423.701,425.43800000000005,440.446,444.264,448.082,451.899,455.717,458.361,460.098,463.916,467.734,469.639,473.456,477.274,479.011,493.963,497.781,501.598,503.503,507.321,511.139,514.957,517.603,519.341,523.158,526.976,528.881,532.699,536.517" y="161.298" svg_rhmargin="538.255" style="fill:#171615;font-family:FHEIDK+AdvOTcb6dfb9e;font-size:7.97px;font-style:NORMAL;font-weight:normal;">II 55 (36.42) 2587 (37.33) 21,579 (40.94)</text>
  <text x="339.874,341.285,342.696,344.107,394.526,398.344,402.162,404.787,406.524,410.342,414.16,416.065,419.882,423.7,425.437,440.445,444.263,448.081,451.899,455.717,458.36,460.097,463.915,467.733,469.638,473.456,477.273,479.01000000000005,493.962,497.78,501.597,503.502,507.32,511.138,514.956,517.602,519.34,523.158,526.975,528.88,532.698,536.516" y="171.27499999999998" svg_rhmargin="538.254" style="fill:#171615;font-family:FHEIDK+AdvOTcb6dfb9e;font-size:7.97px;font-style:NORMAL;font-weight:normal;">III 30 (19.87) 1128 (16.28) 10,361 (19.66)</text>
  <text x="339.874,341.285,344.935,398.324,402.142,404.787,406.525,410.343,412.248,416.065,419.883,421.62,444.245,448.062,451.88,455.698,458.361,460.098,463.916,465.821,469.639,473.456,475.19300000000004,499.689,503.507,507.325,511.143,514.961,517.604,519.342,523.159,525.064,528.882,532.7" y="181.25300000000004" svg_rhmargin="534.438" style="fill:#171615;font-family:FHEIDK+AdvOTcb6dfb9e;font-size:7.97px;font-style:NORMAL;font-weight:normal;">IV 9 (5.96) 456 (6.58) 2454 (4.66)</text>
  <text svg_rhmargin="348.436" x="331.937,336.17,338.322,341.637,345.12,348.436" y="191.231" style="fill:#171615;font-family:FHEIDK+AdvOTcb6dfb9e;font-size:7.97px;font-style:NORMAL;font-weight:normal;">Grade </text>
  <text x="555.365" y="191.231" svg_rhmargin="561.502" style="fill:#171615;font-family:FHEGPO+AdvP4C4E51;font-size:7.97px;font-style:NORMAL;font-weight:normal;">&lt;</text>
  <text x="561.488,563.393,567.211,571.028" y="191.231" svg_rhmargin="574.846" style="fill:#171615;font-family:FHEIDK+AdvOTcb6dfb9e;font-size:7.97px;font-style:NORMAL;font-weight:normal;">.001</text>
  <text x="339.875,341.286,394.527,398.345,402.163,404.788,406.526,410.343,412.248,416.066,419.884,421.62100000000004,444.245,448.063,451.881,455.69899999999996,458.361,460.099,463.917,467.734,469.639,473.457,477.275,479.012,499.69,503.508,507.326,511.143,514.961,517.605,519.342,523.16,525.065,528.883,532.7" y="201.15300000000002" svg_rhmargin="534.438" style="fill:#171615;font-family:FHEIDK+AdvOTcb6dfb9e;font-size:7.97px;font-style:NORMAL;font-weight:normal;">I 10 (6.62) 769 (11.10) 3314 (6.29)</text>
  <text x="339.875,341.286,342.697,394.527,398.345,402.163,404.788,406.526,410.343,414.161,416.066,419.884,423.702,425.439,440.447,444.265,448.082,451.9,455.71799999999996,458.361,460.099,463.917,467.734,469.639,473.457,477.275,479.012,493.964,497.781,501.599,503.504,507.322,511.139,514.957,517.604,519.341,523.159,526.977,528.882,532.7,536.517" y="211.13" svg_rhmargin="538.255" style="fill:#171615;font-family:FHEIDK+AdvOTcb6dfb9e;font-size:7.97px;font-style:NORMAL;font-weight:normal;">II 54 (35.76) 3055 (44.08) 14,642 (27.78)</text>
  <text x="339.875,341.286,342.696,344.107,394.527,398.344,402.162,404.787,406.525,410.343,414.16,416.065,419.883,423.701,425.43800000000005,440.446,444.264,448.082,451.899,455.717,458.361,460.098,463.916,467.734,469.639,473.456,477.274,479.011,493.963,497.78,501.598,503.503,507.321,511.139,514.957,517.603,519.341,523.158,526.976,528.881,532.699,536.517" y="221.10799999999995" svg_rhmargin="538.255" style="fill:#171615;font-family:FHEIDK+AdvOTcb6dfb9e;font-size:7.97px;font-style:NORMAL;font-weight:normal;">III 61 (40.40) 2108 (30.42) 26,739 (50.73)</text>
  <text svg_rhmargin="361.707" x="331.938,337.334,340.65,342.554,345.87,348.939,350.843,354.159,357.228,358.638,361.70599999999996" y="231.02999999999997" style="fill:#171615;font-family:FHEIDK+AdvOTcb6dfb9e;font-size:7.97px;font-style:NORMAL;font-weight:normal;">Metastasis </text>
  <text x="555.366" y="231.02999999999997" svg_rhmargin="561.503" style="fill:#171615;font-family:FHEGPO+AdvP4C4E51;font-size:7.97px;font-style:NORMAL;font-weight:normal;">&lt;</text>
  <text x="561.489,563.394,567.211,571.029" y="231.02999999999997" svg_rhmargin="574.847" style="fill:#171615;font-family:FHEIDK+AdvOTcb6dfb9e;font-size:7.97px;font-style:NORMAL;font-weight:normal;">.001</text>
  <text x="339.876,343.359,346.674,349.74199999999996,398.326,402.144,404.789,406.526,410.344,412.249,416.067,419.884,421.62100000000004,444.246,448.064,451.882,455.7,458.362,460.1,463.917,465.822,469.64,473.458,475.19500000000005,499.691,503.509,507.326,511.144,514.962,517.606,519.343,523.161,525.066,528.883,532.701" y="241.00800000000004" svg_rhmargin="534.439" style="fill:#171615;font-family:FHEIDK+AdvOTcb6dfb9e;font-size:7.97px;font-style:NORMAL;font-weight:normal;">Yes 9 (5.96) 456 (6.58) 2454 (4.66)</text>
  <text x="339.876,344.108,347.424,390.73,394.547,398.365,402.183,404.789,406.526,410.344,414.162,416.067,419.884,423.702,425.439,440.448,444.265,448.083,451.901,455.719,458.362,460.1,463.917,467.735,469.64,473.458,477.275,479.012,493.964,497.782,501.6,503.505,507.322,511.14,514.958,517.605,519.342,523.16,526.978,528.883,532.7,536.518" y="250.986" svg_rhmargin="538.256" style="fill:#171615;font-family:FHEIDK+AdvOTcb6dfb9e;font-size:7.97px;font-style:NORMAL;font-weight:normal;">No 126 (83.44) 6304 (84.39) 46,215 (87.68)</text>
  <text svg_rhmargin="358.776" x="331.939,335.422,339.40700000000004,342.03,345.098,347.003,350.319,352.224,355.707,358.775" y="260.96299999999997" style="fill:#171615;font-family:FHEIDK+AdvOTcb6dfb9e;font-size:7.97px;font-style:NORMAL;font-weight:normal;">ER status </text>
  <text x="555.367" y="260.96299999999997" svg_rhmargin="561.504" style="fill:#171615;font-family:FHEGPO+AdvP4C4E51;font-size:7.97px;font-style:NORMAL;font-weight:normal;">&lt;</text>
  <text x="561.489,563.394,567.212,571.03" y="260.96299999999997" svg_rhmargin="574.848" style="fill:#171615;font-family:FHEIDK+AdvOTcb6dfb9e;font-size:7.97px;font-style:NORMAL;font-weight:normal;">.001</text>
  <text x="339.876,343.694,347.01,350.078,351.489,353.394,354.805,357.706,361.022,390.729,394.547,398.365,402.183,404.789,406.526,410.344,414.162,416.067,419.884,423.702,425.439,440.448,444.265,448.083,451.901,455.719,458.362,460.1,463.917,467.735,469.64,473.458,477.275,479.012,493.964,497.782,501.6,503.505,507.322,511.14,514.958,517.605,519.342,523.16,526.978,528.883,532.7,536.518" y="270.885" svg_rhmargin="538.256" style="fill:#171615;font-family:FHEIDK+AdvOTcb6dfb9e;font-size:7.97px;font-style:NORMAL;font-weight:normal;">Positive 102 (67.55) 5341 (76.68) 27,525 (52.22)</text>
  <text x="339.876,344.109,347.424,350.907,354.223,356.128,357.538,360.44,363.756,394.527,398.345,402.163,404.788,406.526,410.343,414.161,416.066,419.884,423.701,425.43800000000005,444.245,448.063,451.881,455.69899999999996,458.361,460.099,463.917,465.822,469.639,473.457,475.194,493.964,497.782,501.6,503.505,507.322,511.14,514.958,517.605,519.342,523.16,526.978,528.883,532.7,536.518" y="280.86300000000006" svg_rhmargin="538.256" style="fill:#171615;font-family:FHEIDK+AdvOTcb6dfb9e;font-size:7.97px;font-style:NORMAL;font-weight:normal;">Negative 20 (13.25) 307 (4.43) 16,486 (31.28)</text>
  <text svg_rhmargin="359.117" x="331.94,335.757,339.742,342.371,345.44,347.344,350.66,352.565,356.048,359.116" y="290.841" style="fill:#171615;font-family:FHEIDK+AdvOTcb6dfb9e;font-size:7.97px;font-style:NORMAL;font-weight:normal;">PR status </text>
  <text x="555.367" y="290.841" svg_rhmargin="561.504" style="fill:#171615;font-family:FHEGPO+AdvP4C4E51;font-size:7.97px;font-style:NORMAL;font-weight:normal;">&lt;</text>
  <text x="561.49,563.395,567.213,571.031" y="290.841" svg_rhmargin="574.849" style="fill:#171615;font-family:FHEIDK+AdvOTcb6dfb9e;font-size:7.97px;font-style:NORMAL;font-weight:normal;">.001</text>
  <text x="339.877,343.695,347.01,350.079,351.49,353.395,354.805,357.706,361.022,394.528,398.346,402.164,404.789,406.526,410.344,414.162,416.067,419.884,423.702,425.439,440.447,444.265,448.083,451.901,455.719,458.362,460.1,463.917,467.735,469.64,473.458,477.275,479.012,493.964,497.782,501.6,503.504,507.322,511.14,514.958,517.605,519.342,523.16,526.978,528.882,532.7,536.518" y="300.818" svg_rhmargin="538.256" style="fill:#171615;font-family:FHEIDK+AdvOTcb6dfb9e;font-size:7.97px;font-style:NORMAL;font-weight:normal;">Positive 82 (54.30) 4663 (67.29) 24,319 (46.14)</text>
  <text x="339.877,344.109,347.425,350.908,354.223,356.128,357.539,360.44,363.756,394.528,398.346,402.164,404.789,406.526,410.344,414.162,416.067,419.884,423.702,425.439,444.246,448.064,451.882,455.7,458.362,460.1,463.917,467.735,469.64,473.458,477.275,479.012,493.964,497.782,501.6,503.505,507.322,511.14,514.958,517.605,519.342,523.16,526.978,528.883,532.7,536.518" y="310.74" svg_rhmargin="538.256" style="fill:#171615;font-family:FHEIDK+AdvOTcb6dfb9e;font-size:7.97px;font-style:NORMAL;font-weight:normal;">Negative 37 (24.50) 831 (11.99) 19,138 (36.31)</text>
  <text svg_rhmargin="367.917" x="331.94,335.925,339.241,342.724,344.135,347.45,349.355,352.838,356.154,358.306,361.533,365.016,367.91700000000003" y="320.718" style="fill:#171615;font-family:FHEIDK+AdvOTcb6dfb9e;font-size:7.97px;font-style:NORMAL;font-weight:normal;">Radiotherapy </text>
  <text x="555.368" y="320.718" svg_rhmargin="561.505" style="fill:#171615;font-family:FHEGPO+AdvP4C4E51;font-size:7.97px;font-style:NORMAL;font-weight:normal;">&lt;</text>
  <text x="561.491,563.396,567.214,571.031" y="320.718" svg_rhmargin="574.849" style="fill:#171615;font-family:FHEIDK+AdvOTcb6dfb9e;font-size:7.97px;font-style:NORMAL;font-weight:normal;">.001</text>
  <text x="339.878,343.361,346.676,349.74399999999997,394.529,398.347,402.16499999999996,404.79,406.528,410.346,414.163,416.068,419.886,423.704,425.44100000000003,440.449,444.267,448.084,451.902,455.71999999999997,458.364,460.101,463.919,467.737,469.641,473.459,477.277,479.014,493.966,497.783,501.601,503.506,507.324,511.141,514.9590000000001,517.606,519.344,523.161,526.979,528.884,532.702,536.519" y="330.696" svg_rhmargin="538.257" style="fill:#171615;font-family:FHEIDK+AdvOTcb6dfb9e;font-size:7.97px;font-style:NORMAL;font-weight:normal;">Yes 42 (27.81) 1580 (22.80) 23,727 (45.01)</text>
  <text x="339.878,344.11,347.426,390.732,394.549,398.367,402.185,404.791,406.529,410.346,414.164,416.069,419.887,423.704,425.44100000000003,440.45,444.268,448.085,451.903,455.721,458.364,460.102,463.92,467.737,469.642,473.46,477.278,479.01500000000004,493.966,497.784,501.602,503.507,507.324,511.142,514.96,517.607,519.344,523.162,526.98,528.885,532.703,536.52" y="340.673" svg_rhmargin="538.258" style="fill:#171615;font-family:FHEIDK+AdvOTcb6dfb9e;font-size:7.97px;font-style:NORMAL;font-weight:normal;">No 101 (66.89) 5186 (74.83) 26,898 (51.03)</text>
  <text svg_rhmargin="345.369" x="331.937,335.424,338.255,341.812,345.369" y="356.321" style="fill:#171615;font-family:FHEIDK+AdvOTcb6dfb9e;font-size:6.97px;font-style:NORMAL;font-weight:normal;">AJCC </text>
  <text x="346.223" y="356.321" svg_rhmargin="350.944" style="fill:#171615;font-family:FHEHAB+AdvOTb0c9bf5d;font-size:6.97px;font-style:NORMAL;font-weight:normal;">=</text>
  <text svg_rhmargin="454.571" x="351.836,355.323,360.044,362.945,364.828,366.063,368.894,371.795,374.843,376.949,379.78,382.681,383.915,386.963,388.63,390.724,394.281,397.182,401.903,406.624,407.859,409.525,411.192,414.093,416.994,419.125,422.026,425.074,427.118,430.675,433.576,436.623,439.455,442.356,444.239,445.90599999999995,448.036,451.084,454.571" y="356.321" style="fill:#171615;font-family:FHEIDK+AdvOTcb6dfb9e;font-size:6.97px;font-style:NORMAL;font-weight:normal;">American Joint Committee on Cancer, ER </text>
  <text x="455.471" y="356.321" svg_rhmargin="460.192" style="fill:#171615;font-family:FHEHAB+AdvOTb0c9bf5d;font-size:6.97px;font-style:NORMAL;font-weight:normal;">=</text>
  <text svg_rhmargin="514.85" x="461.027,463.928,466.613,468.28,470.163,473.064,476.111,479.111,482.159,484.213,486.096,488.997,491.829,494.73,497.777,499.444,502.345,504.228,505.895,508.023,511.363,514.85" y="356.321" style="fill:#171615;font-family:FHEIDK+AdvOTcb6dfb9e;font-size:6.97px;font-style:NORMAL;font-weight:normal;">estrogen receptor, PR </text>
  <text x="515.736" y="356.321" svg_rhmargin="520.457" style="fill:#171615;font-family:FHEHAB+AdvOTb0c9bf5d;font-size:6.97px;font-style:NORMAL;font-weight:normal;">=</text>
  <text x="521.348,524.396,526.279,529.18,532.227,535.128,537.813,539.48,542.381,544.264,547.165,550.213,553.1139999999999,555.248,557.131,560.032,562.863,565.764,568.812,570.479,573.38,575.263" y="356.321" svg_rhmargin="576.93" style="fill:#171615;font-family:FHEIDK+AdvOTcb6dfb9e;font-size:6.97px;font-style:NORMAL;font-weight:normal;">progesterone receptor,</text>
  <text svg_rhmargin="344.859" x="331.937,335.277,338.325,341.372,344.85900000000004" y="365.279" style="fill:#171615;font-family:FHEIDK+AdvOTcb6dfb9e;font-size:6.97px;font-style:NORMAL;font-weight:normal;">SEER </text>
  <text svg_rhmargin="351.908" x="347.187,351.908" y="365.279" style="fill:#171615;font-family:FHEHAB+AdvOTb0c9bf5d;font-size:6.97px;font-style:NORMAL;font-weight:normal;">= </text>
  <text x="354.217,357.557,360.605,362.488,365.101,368.002,369.236,370.471,371.705,374.606,377.654,380.485,383.386,385.053,387.436,390.483,393.531,394.765,397.813,400.714,405.435,406.67,409.571,410.805,413.706,416.754,419.292,420.95899999999995,423.319,426.221,429.268,432.316,434.714,437.761,440.809,443.857,446.166,449.652,452.554,455.238,458.354,459.588,461.255,463.94" y="365.279" svg_rhmargin="465.607" style="fill:#171615;font-family:FHEIDK+AdvOTcb6dfb9e;font-size:6.97px;font-style:NORMAL;font-weight:normal;">Surveillance, Epidemiology, and End Results.</text>
  <text svg_rhmargin="176.221" x="71.887,76.119,77.53,80.164,84.228,86.547,89.178,93.243,94.653,96.805,99.496,106.048,110.112,114.671,116.082,120.147,121.558,125.79,129.85500000000002,132.434,134.339,138.738,143.138,147.537,151.937,153.842,156.47,160.87,165.269,167.421,171.821,176.22" y="9.870999999999981" style="fill:#171615;font-family:FHEGPK+AdvOT6e5d2ec0;font-size:7.97px;font-style:NORMAL;font-weight:normal;">Li et al. Medicine (2018) 97:40 </text>
  <text x="542.723,549.944,554.503,559.317,561.31,565.869,567.861,572.508" y="9.870999999999981" svg_rhmargin="577.067" style="fill:#171615;font-family:FHEGPJ+AdvOT34fe1490.B;font-size:7.97px;font-style:NORMAL;font-weight:normal;">Medicine</text>
  <text x="322.243" y="739.625" svg_rhmargin="326.643" style="fill:#171615;font-family:FHEHPG+AdvOTf94803d4;font-size:7.97px;font-style:NORMAL;font-weight:normal;">2</text>
 </g>
</svg>
