<?xml version="1.0" encoding="UTF-8"?>
<svg height="870.031005859375" width="672.0029907226562" xmlns="http://www.w3.org/2000/svg">
 <g style="fill:none;">
  <path d=" M 0.05999799817800522 826.072021484375 L 22.619997024536133 826.072021484375 L 22.619997024536133 826.35546875 L 0.05999799817800522 826.35546875 Z " style="fill:none;stroke:#000000;stroke-width:1.0;"/>
  <path d=" M 33.67599868774414 837.4110107421875 L 33.959449768066406 837.4110107421875 L 33.959449768066406 860.031005859375 L 33.67599868774414 860.031005859375 Z " style="fill:none;stroke:#000000;stroke-width:1.0;"/>
  <path d=" M 627.9869995117188 837.4110107421875 L 628.2703857421875 837.4110107421875 L 628.2703857421875 860.031005859375 L 627.9869995117188 860.031005859375 Z " style="fill:none;stroke:#000000;stroke-width:1.0;"/>
  <path d=" M 639.3259887695312 826.072021484375 L 662.0029907226562 826.072021484375 L 662.0029907226562 826.35546875 L 639.3259887695312 826.35546875 Z " style="fill:none;stroke:#000000;stroke-width:1.0;"/>
  <path d=" M 639.3259887695312 33.731998443603516 L 662.0029907226562 33.731998443603516 L 662.0029907226562 34.015480041503906 L 639.3259887695312 34.015480041503906 Z " style="fill:none;stroke:#000000;stroke-width:1.0;"/>
  <path d=" M 627.9869995117188 0.0 L 628.2703857421875 0.0 L 628.2703857421875 22.677000045776367 L 627.9869995117188 22.677000045776367 Z " style="fill:none;stroke:#000000;stroke-width:1.0;"/>
  <path d=" M 33.67599868774414 0.0 L 33.959449768066406 0.0 L 33.959449768066406 22.677000045776367 L 33.67599868774414 22.677000045776367 Z " style="fill:none;stroke:#000000;stroke-width:1.0;"/>
  <path d=" M 0.05999799817800522 33.731998443603516 L 22.619997024536133 33.731998443603516 L 22.619997024536133 34.015480041503906 L 0.05999799817800522 34.015480041503906 Z " style="fill:none;stroke:#000000;stroke-width:1.0;"/>
  <path d=" M 85.03900146484375 650.551025390625 L 566.248046875 650.551025390625 C 579.5 650.4300537109375 590.10595703125 639.8740234375 590.115966796875 626.6270141601562 L 590.115966796875 448.2140197753906 L 85.03900146484375 448.2140197753906" style="fill:none;stroke:#000000;stroke-width:1.0;"/>
  <path d=" M 85.03900146484375 650.551025390625 L 566.248046875 650.551025390625 L 566.248046875 650.2680053710938 L 85.26599884033203 650.2680053710938" style="fill:none;stroke:#000000;stroke-width:1.0;"/>
  <path d=" M 566.2490234375 650.551025390625 L 569.9910278320312 650.2109985351562 C 580.1600341796875 648.675048828125 588.2579956054688 640.5180053710938 589.8330078125 630.3680419921875 L 590.1170043945312 626.6270141601562 L 589.8900146484375 626.6270141601562 L 589.6069946289062 630.31201171875 C 588.154052734375 640.2410278320312 579.8930053710938 648.571044921875 569.9340209960938 649.9840087890625 L 566.2490234375 650.2680053710938" style="fill:none;stroke:#000000;stroke-width:1.0;"/>
  <path d=" M 590.1160278320312 626.6270141601562 L 590.1160278320312 448.2140197753906 L 589.8890380859375 448.4980163574219 L 589.8890380859375 626.6270141601562" style="fill:none;stroke:#000000;stroke-width:1.0;"/>
  <path d=" M 590.1160278320312 448.2139892578125 L 85.03903198242188 448.2139892578125 L 85.26602172851562 448.4969787597656 L 589.8890380859375 448.4969787597656" style="fill:none;stroke:#000000;stroke-width:1.0;"/>
  <path d=" M 85.03900146484375 448.2139892578125 L 85.03900146484375 650.551025390625 L 85.26599884033203 650.2669677734375 L 85.26599884033203 448.4969787597656" style="fill:none;stroke:#000000;stroke-width:1.0;"/>
  <text x="85.039,98.312,110.349,122.804,135.259,147.29399999999998,153.985,172.238,183.857,189.657,201.692,208.415,220.87,229.161,241.198,252.816,263.817,271.488,278.157,289.776,301.394,313.85,325.468,337.505,345.796,352.013,358.699,370.315,376.955,387.956,406.209,417.828,423.628,429.426,436.149,447.768,456.058,468.095,484.476,496.931,503.14799999999997,509.859,517.532,529.987" y="81.077" svg_rhmargin="542.022" style="fill:#171615;font-family:FHEGPI+AdvOTfbba3ace.B;font-size:19.93px;font-style:NORMAL;font-weight:normal;">Young male breast cancer, a small crowd, the</text>
  <text x="85.039,96.042,108.499,116.792,127.377,133.179,143.763,155.384,161.186,167.40300000000002,174.135,185.756,198.213,210.666,217.343,229.801,238.094,250.132,262.171,274.629,286.668,297.67,303.473,314.475" y="101.03200000000004" svg_rhmargin="325.872" style="fill:#171615;font-family:FHEGPI+AdvOTfbba3ace.B;font-size:19.93px;font-style:NORMAL;font-weight:normal;">survival, and prognosis?</text>
  <text x="85.039,95.83,101.141,110.765,120.39,130.015,139.305,143.287,152.402,157.866,161.848,171.473,180.763,187.231,196.856,205.971,214.432,223.546,233.17399999999998,238.466,246.928,252.392,261.682,271.307" y="122.06600000000003" svg_rhmargin="279.437" style="fill:#171615;font-family:FHEGPJ+AdvOT34fe1490.B;font-size:15.94px;font-style:NORMAL;font-weight:normal;">A population-based study</text>
  <text x="85.039,92.331,97.665,99.517,104.747,110.302,115.857,119.338,124.893,126.744,129.568,133.057,141.656" y="139.86800000000005" svg_rhmargin="148.738" style="fill:#171615;font-family:FHEGPK+AdvOT6e5d2ec0;font-size:10.46px;font-style:NORMAL;font-weight:normal;">Naikun Li, MD</text>
  <text x="148.706" y="135.21900000000005" svg_rhmargin="152.707" style="fill:#171615;font-family:FHEGPK+AdvOT6e5d2ec0;font-size:6.97px;font-style:NORMAL;font-weight:normal;">a</text>
  <text x="152.731,155.555,159.024,165.007,166.859,172.194,177.968,183.523,189.077,190.929,194.4,203.877,209.212,214.767,220.541,223.365,226.884,235.483" y="139.86800000000005" svg_rhmargin="242.565" style="fill:#171615;font-family:FHEGPK+AdvOT6e5d2ec0;font-size:10.46px;font-style:NORMAL;font-weight:normal;">, Xiaohui Wang, MD</text>
  <text x="242.532" y="135.21900000000005" svg_rhmargin="247.02" style="fill:#171615;font-family:FHEGPK+AdvOT6e5d2ec0;font-size:6.97px;font-style:NORMAL;font-weight:normal;">b</text>
  <text x="247.011,249.835,253.361,260.652,266.426,271.981,277.755,279.607,285.16200000000003,288.624,294.607,300.162,305.497,311.051,316.826,319.65000000000003,323.093,331.691" y="139.86800000000005" svg_rhmargin="338.773" style="fill:#171615;font-family:FHEGPK+AdvOT6e5d2ec0;font-size:10.46px;font-style:NORMAL;font-weight:normal;">, Hongju Zhang, MD</text>
  <text x="338.797" y="135.21900000000005" svg_rhmargin="342.798" style="fill:#171615;font-family:FHEGPK+AdvOT6e5d2ec0;font-size:6.97px;font-style:NORMAL;font-weight:normal;">c</text>
  <text x="342.822,345.646,349.115,356.406,361.741,363.593,368.384,374.158,379.713,385.487,388.97,398.448,403.783,409.337,415.112,417.93600000000004,421.399,429.997,437.079,439.903,443.395,449.933,455.488" y="139.86800000000005" svg_rhmargin="462.57" style="fill:#171615;font-family:FHEGPK+AdvOT6e5d2ec0;font-size:10.46px;font-style:NORMAL;font-weight:normal;">, Haiyong Wang, MD, PhD</text>
  <text x="462.557,467.045" y="135.21900000000005" svg_rhmargin="469.163" style="fill:#171615;font-family:FHEGPK+AdvOT6e5d2ec0;font-size:6.97px;font-style:NORMAL;font-weight:normal;">d,</text>
  <text x="469.133" y="133.235" svg_rhmargin="473.213" style="fill:#171615;font-family:FHEGPL+AdvOTb0c9bf5d+22;font-size:6.97px;font-style:NORMAL;font-weight:normal;">∗</text>
  <text x="91.276,97.915,104.052,109.607,113.09,117.155,123.045,128.935" y="161.69500000000005" svg_rhmargin="132.418" style="fill:#171615;font-family:FHEGPM+AdvOT91f5f621.B;font-size:7.97px;font-style:NORMAL;font-weight:normal;">Abstract</text>
  <text x="91.276,99.399,104.348,111.719,116.292,121.053,123.193,128.322,129.909,134.482,139.431,144.192,149.141,153.436,158.009,163.13799999999998,165.314,171.94,173.527,176.136,180.897,183.002,188.13,190.928,195.501,200.074,204.368,206.977,209.137,213.71,218.282,223.043,227.616,232.189,234.986,237.142,241.715,244.324,246.497,250.603,255.553,260.314,265.075,270.024,272.178,276.751,281.7,286.27299999999997,288.392,293.341,295.583,298.192,302.765,307.526,309.651,314.412,318.985,323.091,327.664,329.833,334.962,339.911,344.861,347.658,352.787,355.584,360.534,365.483,370.244,375.194,379.488,384.061,388.356,390.777,392.93,398.345,402.918,405.527,407.948,410.107,412.349,416.922,423.548,425.698,429.993,432.602,437.363,442.492,444.079,448.652,452.947,455.121,459.882,464.455,468.561,473.13399999999996,475.247,477.488,482.438,487.011,491.772,496.067,500.639,505.76800000000003,507.958,512.907,517.668,519.749,522.358,527.12,531.693,533.866,538.994,541.792,546.741,551.691,556.452,561.401,565.696,570.269,574.564,576.724,581.673" y="172.40999999999997" svg_rhmargin="583.915" style="fill:#171615;font-family:FHEGPK+AdvOT6e5d2ec0;font-size:8.97px;font-style:NORMAL;font-weight:normal;">Women diagnosed with breast cancer at young age often have poorprognoses. Yet, few studies have focused on the prognoses of</text>
  <text x="91.276,95.382,100.332,105.093,109.854,114.803,117.013,124.384,128.956,133.71699999999998,135.948,142.574,144.162,146.771,151.53199999999998,153.749,158.878,161.675,166.248,170.821,175.116,177.72500000000002,179.997,184.57,189.143,193.904,198.477,203.05,205.847,208.268,210.497,218.62,223.193,225.407,228.016,232.777,237.35,240.148,244.72,246.962,251.911,254.709,259.282,261.576,266.337,270.632,275.205,280.334,282.552,288.156,292.917,295.714,299.821,304.394,305.981,307.568,309.155,313.728,318.489,323.062,327.634,330.055,332.27,337.497,342.626,344.213,349.342,353.915,361.285,362.872,367.821,369.409,374.358,379.307,383.414,385.835,388.11,392.683,397.444,402.57300000000004,404.834,410.062,414.823,419.952,422.182,428.154,432.727,437.022,441.783,443.37,445.979,450.274,452.512,454.655,460.259,465.486,470.713,476.685,478.828,481.027,486.156,491.105,496.234,500.995,502.582,507.155,509.764,511.351,516.301,521.062,524.326,529.454,534.027,538.322,542.895,548.024,550.304,555.432,560.005,562.614,567.187,569.409,573.982,578.743" y="183.351" svg_rhmargin="583.872" style="fill:#171615;font-family:FHEGPK+AdvOT6e5d2ec0;font-size:8.97px;font-style:NORMAL;font-weight:normal;">young men with breast cancer. We therefore used Surveillance, Epidemiology, and End Results (SEER) population-based data and</text>
  <text x="91.276,92.863,97.991,102.564,107.325,109.934" y="194.293" svg_rhmargin="111.521" style="fill:#171615;font-family:FHEGPK+AdvOT6e5d2ec0;font-size:8.97px;font-style:NORMAL;font-weight:normal;">identi</text>
  <text x="111.515" y="194.293" svg_rhmargin="115.433" style="fill:#171615;font-family:FHEGPN+AdvOT6e5d2ec0+fb;font-size:8.97px;font-style:NORMAL;font-weight:normal;">ﬁ</text>
  <text svg_rhmargin="289.419" x="115.427,120.0,125.129,127.503,132.452,137.402,142.351,144.681,152.051,156.624,158.211,162.78400000000002,165.146,170.275,174.848,177.457,179.044,183.617,188.378,190.987,195.28199999999998,197.687,204.313,205.9,208.509,213.26999999999998,215.601,220.73,223.528,228.1,232.673,236.968,239.577,241.962,246.535,251.108,255.869,260.442,265.015,267.812,270.195,274.767,279.717,284.29,289.41900000000004" y="194.293" style="fill:#171615;font-family:FHEGPK+AdvOT6e5d2ec0;font-size:8.97px;font-style:NORMAL;font-weight:normal;">ed 151 male patients with breast cancer aged </text>
  <text x="291.8" y="194.293" svg_rhmargin="298.704" style="fill:#171615;font-family:FHEGPO+AdvP4C4E51;font-size:8.97px;font-style:NORMAL;font-weight:normal;">&lt;</text>
  <text x="298.66,303.609,308.558,310.905,315.012,319.585,324.157,326.955,331.25,333.638,338.767,343.34,345.949,352.575,357.148,361.721,366.482,368.844,373.793,378.742,383.692,388.641,391.01,395.583,400.344,405.473,407.848,412.797,417.747,422.696,427.646,430.067,432.395,437.999,440.796,445.746,450.875,455.447,460.208,464.503,466.09,468.7,472.806,475.197,479.491,484.064,489.014,491.811,496.38399999999996,498.723,506.093,510.666,513.276,517.848,522.609,524.196,528.958,533.9069999999999,536.253,540.825,545.586,550.159,551.746,555.853,560.148,561.735,566.03,568.397,575.023,579.596" y="194.293" svg_rhmargin="583.891" style="fill:#171615;font-family:FHEGPK+AdvOT6e5d2ec0;font-size:8.97px;font-style:NORMAL;font-weight:normal;">40 years between 1988 and 2012. Propensity score matching analysis was</text>
  <text x="91.277,96.038,100.332,104.905,110.034,111.912,114.522,119.471,121.323,126.452,131.025,132.612,137.185,141.946,146.519,151.092,152.957,155.567,160.328,164.901,166.791,171.364,172.951,174.538,179.299,180.886,185.459,190.031,191.618,193.492,197.599,202.172,204.969,206.556,211.129,216.258,217.845,222.418,226.713,228.584,233.157,240.527,245.476,250.237,255.186,257.043,262.172,263.759,266.0,268.242,272.815,275.612,280.185,284.946,287.555,289.47,294.42,297.217,302.167,306.928,312.056,316.351,318.772,320.651,326.434,331.007,336.135,337.723,342.295" y="205.29100000000005" svg_rhmargin="347.056" style="fill:#171615;font-family:FHEGPK+AdvOT6e5d2ec0;font-size:8.97px;font-style:NORMAL;font-weight:normal;">used to balance the clinical variables among different groups. Kaplan</text>
  <text x="347.076" y="205.29100000000005" svg_rhmargin="351.559" style="fill:#171615;font-family:FHEGPP+AdvOT6e5d2ec0+20;font-size:8.97px;font-style:NORMAL;font-weight:normal;">–</text>
  <text x="351.555,358.925,363.498,365.085,369.658,372.45500000000004,374.344,378.917,383.678,386.476,390.582,395.155,399.45,401.329,407.955,412.528,415.326,419.899,421.738,426.311,431.44,436.569,438.156,439.743,444.316,449.445,451.331,453.94,458.889,460.742,465.315,470.264,477.634,482.763,487.336,490.133,494.70599999999996,496.628,499.237,503.998,508.57099999999997,510.461,514.756,519.517,522.314,526.421,528.008,532.115,536.687,538.274,540.111,545.239,546.826,549.068,551.31,555.882,558.68,563.253,568.014,572.587,577.159,581.454" y="205.29100000000005" svg_rhmargin="583.875" style="fill:#171615;font-family:FHEGPK+AdvOT6e5d2ec0;font-size:8.97px;font-style:NORMAL;font-weight:normal;">Meier curves were applied to compare the survival differences.</text>
  <text x="91.276,96.226,100.987,105.56,108.34,112.635,117.396,122.525,127.474,130.272,135.221,139.982,145.111,147.968,152.074,156.647,159.445,161.032,165.604,170.733,172.32,176.893,181.188,184.023,188.972,193.733,196.495,201.068,205.641,210.402,214.975,219.548,222.345,225.609,229.904,235.032,239.605,244.178" y="216.23199999999997" svg_rhmargin="245.765" style="fill:#171615;font-family:FHEGPK+AdvOT6e5d2ec0;font-size:8.97px;font-style:NORMAL;font-weight:normal;">The subgroup variables on cancer-speci</text>
  <text x="245.822" y="216.23199999999997" svg_rhmargin="249.74" style="fill:#171615;font-family:FHEGPN+AdvOT6e5d2ec0+fb;font-size:8.97px;font-style:NORMAL;font-weight:normal;">ﬁ</text>
  <text x="249.734,254.30700000000002,257.161,261.456,266.217,269.015,273.121,274.708,278.815,283.388,284.97499999999997,287.774,289.917,296.166,301.77,307.374,309.517,312.321,316.894,321.655,326.784,329.612,334.561,338.668,343.24,346.038,350.611,352.198,353.78499999999997,356.597,360.891,365.652,368.45,372.557,374.144,378.25,382.823,384.40999999999997,387.209,389.352,395.978,401.582,403.72499999999997,406.541,413.167,417.74,420.537,425.10999999999996,427.97,432.543,437.304,441.877,443.464,447.57,451.677,456.25,461.379,464.196,469.324,473.43,476.214,478.823,483.585,488.15799999999996,491.01,497.26,502.209,506.504,509.321,514.45,517.248,522.197,527.326,532.275,535.073,537.682,539.269,544.218,548.979,553.552,555.139,557.962,562.723,567.296,571.402,575.975,578.773" y="216.23199999999997" svg_rhmargin="583.902" style="fill:#171615;font-family:FHEGPK+AdvOT6e5d2ec0;font-size:8.97px;font-style:NORMAL;font-weight:normal;">c survival (CSS) and overall survival (OS) were analyzed by the Cox proportional hazard</text>
  <text svg_rhmargin="340.497" x="91.277,98.648,103.597,108.726,113.299,114.886,117.307,119.226,125.198,129.771,134.065,138.827,140.414,143.023,147.31799999999998,149.216,153.511,158.272,163.221,169.847,174.42,179.54899999999998,181.473,184.082,188.843,193.416,196.025,197.97,205.34,209.913,211.5,216.073,217.982,223.111,227.684,230.293,231.88,236.453,241.214,243.823,248.118,250.069,256.695,258.282,260.891,265.65200000000004,267.586,272.715,275.512,280.085,284.658,288.953,291.56199999999995,293.494,298.067,302.64,307.401,311.974,316.547,319.34400000000005,321.273,325.846,330.795,335.368,340.497" y="227.17399999999998" style="fill:#171615;font-family:FHEGPK+AdvOT6e5d2ec0;font-size:8.97px;font-style:NORMAL;font-weight:normal;">model. Results showed that male patients with breast cancer aged </text>
  <text x="342.428" y="227.17399999999998" svg_rhmargin="349.332" style="fill:#171615;font-family:FHEGPO+AdvP4C4E51;font-size:8.97px;font-style:NORMAL;font-weight:normal;">&lt;</text>
  <text x="349.288,354.237,359.18600000000004,361.137,365.898,370.471,375.6,377.521,382.094,383.984,388.279,389.866,394.815,399.576" y="227.17399999999998" svg_rhmargin="401.163" style="fill:#171615;font-family:FHEGPK+AdvOT6e5d2ec0;font-size:8.97px;font-style:NORMAL;font-weight:normal;">40 had a signi</text>
  <text x="401.163" y="227.17399999999998" svg_rhmargin="405.081" style="fill:#171615;font-family:FHEGPN+AdvOT6e5d2ec0+fb;font-size:8.97px;font-style:NORMAL;font-weight:normal;">ﬁ</text>
  <text x="405.075,409.647,414.22,418.981,421.59,423.556,430.182,435.786,437.672,442.801,447.374,452.135" y="227.17399999999998" svg_rhmargin="456.708" style="fill:#171615;font-family:FHEGPK+AdvOT6e5d2ec0;font-size:8.97px;font-style:NORMAL;font-weight:normal;">cant OS bene</text>
  <text x="456.722" y="227.17399999999998" svg_rhmargin="460.64" style="fill:#171615;font-family:FHEGPN+AdvOT6e5d2ec0+fb;font-size:8.97px;font-style:NORMAL;font-weight:normal;">ﬁ</text>
  <text svg_rhmargin="566.029" x="460.634,463.243,465.169,469.742,474.692,482.062,487.191,491.763,494.561,499.134,504.26300000000003,506.214,512.84,514.427,517.036,521.7969999999999,523.674,526.284,531.045,535.994,540.289,544.862,546.805,551.378,556.327,560.9,566.029" y="227.17399999999998" style="fill:#171615;font-family:FHEGPK+AdvOT6e5d2ec0;font-size:8.97px;font-style:NORMAL;font-weight:normal;">t compared with those aged </text>
  <text x="567.955" y="227.17399999999998" svg_rhmargin="574.025" style="fill:#171615;font-family:FHEGPL+AdvOTb0c9bf5d+22;font-size:8.97px;font-style:NORMAL;font-weight:normal;">≥</text>
  <text x="574.021,578.971" y="227.17399999999998" svg_rhmargin="583.92" style="fill:#171615;font-family:FHEGPK+AdvOT6e5d2ec0;font-size:8.97px;font-style:NORMAL;font-weight:normal;">40</text>
  <text x="91.279,95.386,99.958,104.531,107.329,111.624,113.842" y="238.11599999999999" svg_rhmargin="115.985" style="fill:#171615;font-family:FHEGPK+AdvOT6e5d2ec0;font-size:8.97px;font-style:NORMAL;font-weight:normal;">years (</text>
  <text svg_rhmargin="121.601" x="115.997,121.601" y="238.11599999999999" style="fill:#171615;font-family:FHEHAA+AdvOT1deab444.I;font-size:8.97px;font-style:NORMAL;font-weight:normal;">P </text>
  <text x="122.744" y="238.11599999999999" svg_rhmargin="129.648" style="fill:#171615;font-family:FHEGPO+AdvP4C4E51;font-size:8.97px;font-style:NORMAL;font-weight:normal;">&lt;</text>
  <text x="130.737,133.158,138.107,143.057,148.006,150.149,152.57,154.83,159.78,164.541,169.114,171.384,175.679,177.266,182.215,186.976" y="238.11599999999999" svg_rhmargin="188.563" style="fill:#171615;font-family:FHEGPK+AdvOT6e5d2ec0;font-size:8.97px;font-style:NORMAL;font-weight:normal;">.001). The signi</text>
  <text x="188.564" y="238.11599999999999" svg_rhmargin="192.482" style="fill:#171615;font-family:FHEGPN+AdvOT6e5d2ec0+fb;font-size:8.97px;font-style:NORMAL;font-weight:normal;">ﬁ</text>
  <text x="192.476,197.049,201.622,206.383,208.99200000000002,211.241,216.37,217.957,220.198,222.44,227.013,229.81,234.383,239.144,243.717,248.29000000000002,250.528,255.477,257.719,259.939,262.548,267.309,271.882,274.112,280.361,285.965,291.56899999999996,293.84,300.467,305.039,309.334,311.528,316.289,321.239,323.84799999999996,326.098,328.339,333.289,338.05,342.811,347.94,350.192" y="238.11599999999999" svg_rhmargin="352.335" style="fill:#171615;font-family:FHEGPK+AdvOT6e5d2ec0;font-size:8.97px;font-style:NORMAL;font-weight:normal;">cant difference of the CSS was not found (</text>
  <text x="352.351" y="238.11599999999999" svg_rhmargin="357.955" style="fill:#171615;font-family:FHEHAA+AdvOT1deab444.I;font-size:8.97px;font-style:NORMAL;font-weight:normal;">P</text>
  <text x="359.041" y="238.11599999999999" svg_rhmargin="365.945" style="fill:#171615;font-family:FHEGPO+AdvP4C4E51;font-size:8.97px;font-style:NORMAL;font-weight:normal;">&gt;</text>
  <text x="367.091,369.512,374.462,379.411,381.554,383.97499999999997,386.196,392.445,397.395,404.765,409.894,414.467,417.264,421.837,426.966,429.281,435.907,437.494,440.103,444.86400000000003,447.082,449.691,454.452,459.025,461.255,468.625,473.198,474.785,479.358,481.607,486.736,491.309,493.918,495.505,500.078,504.839,507.448,511.743,513.978,520.604,522.191,524.801,529.562,531.837,536.965,539.763,544.336,548.908,553.203,555.812,558.028,562.601,567.174,571.935,576.508,581.08" y="238.11599999999999" svg_rhmargin="583.877" style="fill:#171615;font-family:FHEGPK+AdvOT6e5d2ec0;font-size:8.97px;font-style:NORMAL;font-weight:normal;">.05). Compared with the male patients with breast cancer</text>
  <text svg_rhmargin="110.503" x="91.279,95.852,100.801,105.374,110.503" y="249.11400000000003" style="fill:#171615;font-family:FHEGPK+AdvOT6e5d2ec0;font-size:8.97px;font-style:NORMAL;font-weight:normal;">aged </text>
  <text x="112.822" y="249.11400000000003" svg_rhmargin="118.892" style="fill:#171615;font-family:FHEGPL+AdvOTb0c9bf5d+22;font-size:8.97px;font-style:NORMAL;font-weight:normal;">≥</text>
  <text svg_rhmargin="176.323" x="118.889,123.838,128.788,131.209,133.572,136.181,140.943,145.892,150.187,154.76000000000002,157.099,161.672,166.621,171.194,176.32299999999998" y="249.11400000000003" style="fill:#171615;font-family:FHEGPK+AdvOT6e5d2ec0;font-size:8.97px;font-style:NORMAL;font-weight:normal;">40, those aged </text>
  <text x="178.643" y="249.11400000000003" svg_rhmargin="185.547" style="fill:#171615;font-family:FHEGPO+AdvP4C4E51;font-size:8.97px;font-style:NORMAL;font-weight:normal;">&lt;</text>
  <text x="185.56,190.509,195.458,197.805,202.566,207.139,212.268,214.643,218.938,220.525,225.474,230.235" y="249.11400000000003" svg_rhmargin="231.822" style="fill:#171615;font-family:FHEGPK+AdvOT6e5d2ec0;font-size:8.97px;font-style:NORMAL;font-weight:normal;">40 had signi</text>
  <text x="231.821" y="249.11400000000003" svg_rhmargin="235.739" style="fill:#171615;font-family:FHEGPN+AdvOT6e5d2ec0+fb;font-size:8.97px;font-style:NORMAL;font-weight:normal;">ﬁ</text>
  <text x="235.733,240.306,244.879,249.64,252.249,254.612,261.238,266.842,269.125,274.254,278.826,283.587" y="249.11400000000003" svg_rhmargin="288.16" style="fill:#171615;font-family:FHEGPK+AdvOT6e5d2ec0;font-size:8.97px;font-style:NORMAL;font-weight:normal;">cant OS bene</text>
  <text x="288.175" y="249.11400000000003" svg_rhmargin="292.093" style="fill:#171615;font-family:FHEGPN+AdvOT6e5d2ec0+fb;font-size:8.97px;font-style:NORMAL;font-weight:normal;">ﬁ</text>
  <text x="292.143,294.75199999999995,297.075,298.663,303.42400000000004,305.749,313.12,318.069,322.364,324.97299999999996,327.348,331.643,336.404,341.533,346.483,349.28,354.229,358.991,364.119,368.41400000000004,370.717" y="249.11400000000003" svg_rhmargin="372.86" style="fill:#171615;font-family:FHEGPK+AdvOT6e5d2ec0;font-size:8.97px;font-style:NORMAL;font-weight:normal;">t in most subgroups (</text>
  <text svg_rhmargin="378.478" x="372.874,378.478" y="249.11400000000003" style="fill:#171615;font-family:FHEHAA+AdvOT1deab444.I;font-size:8.97px;font-style:NORMAL;font-weight:normal;">P </text>
  <text x="379.62" y="249.11400000000003" svg_rhmargin="386.524" style="fill:#171615;font-family:FHEGPO+AdvP4C4E51;font-size:8.97px;font-style:NORMAL;font-weight:normal;">&lt;</text>
  <text x="387.671,390.092,395.041,399.991,402.134,404.555,406.889,413.139,418.088,425.459,430.587,435.16,437.958,442.53,447.659,450.032,456.658,458.245,460.854,465.615,467.946,470.555,475.317,479.89,482.232,484.474,489.047,496.417,500.99,502.577,507.15,509.501,514.629,519.202,521.811,523.398,527.971,532.732,535.341,539.636,541.985,548.611,550.198,552.807,557.568,559.899,565.028,567.826,572.398,576.971,581.266" y="249.11400000000003" svg_rhmargin="583.875" style="fill:#171615;font-family:FHEGPK+AdvOT6e5d2ec0;font-size:8.97px;font-style:NORMAL;font-weight:normal;">.05). Compared with the female patients with breast</text>
  <text svg_rhmargin="139.812" x="91.279,95.852,100.425,105.186,109.759,114.332,117.12899999999999,120.588,125.161,130.11,134.683,139.81199999999998" y="260.05499999999995" style="fill:#171615;font-family:FHEGPK+AdvOT6e5d2ec0;font-size:8.97px;font-style:NORMAL;font-weight:normal;">cancer aged </text>
  <text x="143.323" y="260.05499999999995" svg_rhmargin="150.227" style="fill:#171615;font-family:FHEGPO+AdvP4C4E51;font-size:8.97px;font-style:NORMAL;font-weight:normal;">&lt;</text>
  <text svg_rhmargin="331.828" x="150.24,155.189,160.139,162.56,166.056,168.666,173.427,178.0,181.477,188.847,193.42,195.007,199.58,203.076,208.205,212.778,215.387,216.974,221.547,226.308,228.917,233.212,236.695,243.321,244.908,247.517,252.278,255.743,260.871,263.669,268.242,272.815,277.109,279.71799999999996,283.238,287.811,292.383,297.145,301.717,306.29,309.08700000000005,312.604,317.177,322.126,326.699,331.82800000000003" y="260.05499999999995" style="fill:#171615;font-family:FHEGPK+AdvOT6e5d2ec0;font-size:8.97px;font-style:NORMAL;font-weight:normal;">40, the male patients with breast cancer aged </text>
  <text x="335.286" y="260.05499999999995" svg_rhmargin="342.19" style="fill:#171615;font-family:FHEGPO+AdvP4C4E51;font-size:8.97px;font-style:NORMAL;font-weight:normal;">&lt;</text>
  <text x="342.203,347.152,352.101,355.582,360.344,364.916,370.045,373.554,380.18,385.129,387.927,392.221,396.794,400.255,406.881,412.48499999999996,415.959,420.532,425.293,430.422,433.93,440.179,445.783,451.387,454.849,459.978,464.551,469.312" y="260.05499999999995" svg_rhmargin="473.885" style="fill:#171615;font-family:FHEGPK+AdvOT6e5d2ec0;font-size:8.97px;font-style:NORMAL;font-weight:normal;">40 had worse OS and CSS bene</text>
  <text x="473.901" y="260.05499999999995" svg_rhmargin="477.819" style="fill:#171615;font-family:FHEGPN+AdvOT6e5d2ec0+fb;font-size:8.97px;font-style:NORMAL;font-weight:normal;">ﬁ</text>
  <text x="477.813,480.42199999999997,483.936,488.885,493.646,495.233,499.339,502.814,504.401,509.16200000000003,512.623,515.232,519.993,524.566,528.043,532.338,537.099,542.228,547.177,549.974,554.924,559.685,564.814,568.35,574.976,576.563,579.172" y="260.05499999999995" svg_rhmargin="583.933" style="fill:#171615;font-family:FHEGPK+AdvOT6e5d2ec0;font-size:8.97px;font-style:NORMAL;font-weight:normal;">t only in the subgroup with</text>
  <text x="91.279,96.408,99.205,104.155,109.104,113.677,117.972,120.581,125.154,127.951,132.901,137.662,142.235,143.888,146.686,151.258,155.831,160.404,165.533,168.142,173.091,175.888,177.563,182.136,186.897,192.02599999999998,193.72,198.293,202.588,205.197,207.994,212.944,217.893,222.466,227.227,228.869,231.666,236.239,240.812,245.385,250.514,253.123,258.072,260.869,262.544,267.672,272.622,276.917,278.504,281.113,282.7,286.806,291.37899999999996,293.043" y="270.99699999999996" svg_rhmargin="295.186" style="fill:#171615;font-family:FHEGPK+AdvOT6e5d2ec0;font-size:8.97px;font-style:NORMAL;font-weight:normal;">progesterone receptor and estrogen receptor positive (</text>
  <text svg_rhmargin="300.808" x="295.204,300.808" y="270.99699999999996" style="fill:#171615;font-family:FHEHAA+AdvOT1deab444.I;font-size:8.97px;font-style:NORMAL;font-weight:normal;">P </text>
  <text x="301.95" y="270.99699999999996" svg_rhmargin="308.854" style="fill:#171615;font-family:FHEGPO+AdvP4C4E51;font-size:8.97px;font-style:NORMAL;font-weight:normal;">&lt;</text>
  <text x="309.944,312.365,317.314,322.264,324.407,326.828,328.538,330.493,335.254,336.872,341.445,346.395,351.156,355.729,357.316,362.077,366.372,367.959,372.908,377.669,380.09,381.771,388.397,392.96999999999997,394.641,399.769,404.342,411.712,416.662,421.423,425.718,428.327,431.124,435.697,438.306,442.879,448.00800000000004,449.687,452.297,457.058,461.63,464.239,465.901,470.008,474.957,479.718,484.479,489.428,491.072,498.443,503.015,504.602,509.17499999999995,510.857,515.986,520.559,523.168,524.755,529.328,534.089,536.698,540.9929999999999,542.661,549.287,550.874,553.483,558.2439999999999,559.895,565.024,567.821,572.394,576.967,581.262" y="270.99699999999996" svg_rhmargin="583.871" style="fill:#171615;font-family:FHEGPK+AdvOT6e5d2ec0;font-size:8.97px;font-style:NORMAL;font-weight:normal;">.05). In conclusion, we demonstrated that young male patients with breast</text>
  <text x="91.278,95.851,100.424,105.185,109.758,114.331,117.128,119.113,123.874,128.447,133.576,135.554,140.683,145.255,147.865,150.474,155.047,157.844,159.874,166.5,172.104,174.104,178.676,183.626,190.996,196.125,200.698,203.495,208.068,213.197,215.204,221.83,223.417,226.027,230.78799999999998,232.778,237.351,238.938,244.067,248.64,251.43699999999998,253.414,260.784,265.357,266.944,271.517,273.54,278.669,283.241,285.851,287.438,292.01,296.772,299.381,303.676,305.684,312.31,313.897,316.506,321.267,323.258,328.387,331.184,335.757,340.33,344.625,347.234,349.223,353.795,358.368,363.129,367.702,372.275,375.073,377.49399999999997,379.552,385.802,390.751,397.377,401.95,406.056,410.629,413.427,415.848,417.818,420.428,425.189,429.762,431.765,436.06,440.821,443.618,447.725,449.312,453.418,457.991,459.578,461.584,466.713,471.285,476.047" y="281.995" svg_rhmargin="480.62" style="fill:#171615;font-family:FHEGPK+AdvOT6e5d2ec0;font-size:8.97px;font-style:NORMAL;font-weight:normal;">cancer had better OS compared with elder male patients with breast cancer. However, the survival bene</text>
  <text x="480.647" y="281.995" svg_rhmargin="484.565" style="fill:#171615;font-family:FHEGPN+AdvOT6e5d2ec0+fb;font-size:8.97px;font-style:NORMAL;font-weight:normal;">ﬁ</text>
  <text x="484.559,487.168,489.152,495.778,500.35,504.64500000000004,506.669,511.43,516.38,518.989,520.955,523.197,528.146,532.907,537.668,542.797,544.822,549.395,554.345,561.715,566.844,571.417,574.214,578.787" y="281.995" svg_rhmargin="583.916" style="fill:#171615;font-family:FHEGPK+AdvOT6e5d2ec0;font-size:8.97px;font-style:NORMAL;font-weight:normal;">t was not found compared</text>
  <text x="91.279,97.905,99.492,102.102,106.863,109.874,113.981,118.93,123.691,128.453,133.40200000000002,136.349,138.591,143.164,150.534,155.107,156.694,161.267,164.298,169.427,174.0,176.609,178.196,182.769,187.53,190.139,194.434,197.463,204.089,205.676,208.285,213.046,216.0,221.129,223.927,228.499,233.072,237.367,239.976,242.985,247.558,252.131,256.892,261.465,266.038,268.835" y="292.936" svg_rhmargin="271.256" style="fill:#171615;font-family:FHEGPK+AdvOT6e5d2ec0;font-size:8.97px;font-style:NORMAL;font-weight:normal;">with young female patients with breast cancer.</text>
  <text svg_rhmargin="159.934" x="91.276,97.915,104.052,110.189,114.254,120.131,125.439,127.758,133.648,137.131,139.451,145.588,151.478,157.033,159.934" y="308.132" style="fill:#171615;font-family:FHEGPM+AdvOT91f5f621.B;font-size:7.97px;font-style:NORMAL;font-weight:normal;">Abbreviations: </text>
  <text svg_rhmargin="173.294" x="165.09,171.339,173.294" y="308.132" style="fill:#171615;font-family:FHEGPK+AdvOT6e5d2ec0;font-size:8.97px;font-style:NORMAL;font-weight:normal;">CI </text>
  <text svg_rhmargin="182.158" x="176.088,182.158" y="308.132" style="fill:#171615;font-family:FHEHAB+AdvOTb0c9bf5d;font-size:8.97px;font-style:NORMAL;font-weight:normal;">= </text>
  <text x="184.932,189.505,194.454" y="308.132" svg_rhmargin="199.215" style="fill:#171615;font-family:FHEGPK+AdvOT6e5d2ec0;font-size:8.97px;font-style:NORMAL;font-weight:normal;">con</text>
  <text x="199.219" y="308.132" svg_rhmargin="203.137" style="fill:#171615;font-family:FHEGPN+AdvOT6e5d2ec0+fb;font-size:8.97px;font-style:NORMAL;font-weight:normal;">ﬁ</text>
  <text svg_rhmargin="278.754" x="203.131,208.26,212.833,217.594,222.166,226.739,229.493,231.08,235.841,238.45,243.023,245.82,249.927,254.5,256.087,258.508,261.296,267.546,273.15,278.75399999999996" y="308.132" style="fill:#171615;font-family:FHEGPK+AdvOT6e5d2ec0;font-size:8.97px;font-style:NORMAL;font-weight:normal;">dence interval, CSS </text>
  <text svg_rhmargin="287.608" x="281.538,287.608" y="308.132" style="fill:#171615;font-family:FHEHAB+AdvOTb0c9bf5d;font-size:8.97px;font-style:NORMAL;font-weight:normal;">= </text>
  <text x="290.382,294.955,299.528,304.289,308.862,313.434,316.232,319.496,323.791,328.919,333.492,338.065" y="308.132" svg_rhmargin="339.652" style="fill:#171615;font-family:FHEGPK+AdvOT6e5d2ec0;font-size:8.97px;font-style:NORMAL;font-weight:normal;">cancer-speci</text>
  <text x="339.705" y="308.132" svg_rhmargin="343.623" style="fill:#171615;font-family:FHEGPN+AdvOT6e5d2ec0+fb;font-size:8.97px;font-style:NORMAL;font-weight:normal;">ﬁ</text>
  <text svg_rhmargin="395.181" x="343.617,348.19,350.931,355.225,359.987,362.784,366.891,368.478,372.584,377.157,378.744,381.165,383.981,389.209,395.18" y="308.132" style="fill:#171615;font-family:FHEGPK+AdvOT6e5d2ec0;font-size:8.97px;font-style:NORMAL;font-weight:normal;">c survival, ER </text>
  <text svg_rhmargin="403.998" x="397.928,403.998" y="308.132" style="fill:#171615;font-family:FHEHAB+AdvOTb0c9bf5d;font-size:8.97px;font-style:NORMAL;font-weight:normal;">= </text>
  <text svg_rhmargin="505.962" x="406.773,411.346,415.64,418.25,421.047,425.996,430.946,435.519,440.28000000000003,443.055,445.852,450.425,454.998,459.571,464.699,467.309,472.258,475.056,477.477,480.301,486.55,491.778,497.749,501.013,505.962" y="308.132" style="fill:#171615;font-family:FHEGPK+AdvOT6e5d2ec0;font-size:8.97px;font-style:NORMAL;font-weight:normal;">estrogen receptor, HER-2 </text>
  <text svg_rhmargin="514.777" x="508.707,514.777" y="308.132" style="fill:#171615;font-family:FHEHAB+AdvOTb0c9bf5d;font-size:8.97px;font-style:NORMAL;font-weight:normal;">= </text>
  <text x="517.551,522.312,527.074,534.444,539.017,543.778,546.577,551.15,556.279,557.866,562.994,567.567,570.365,577.735,582.308" y="308.132" svg_rhmargin="583.895" style="fill:#171615;font-family:FHEGPK+AdvOT6e5d2ec0;font-size:8.97px;font-style:NORMAL;font-weight:normal;">human epidermal</text>
  <text svg_rhmargin="200.665" x="91.275,96.225,99.022,103.972,110.598,113.207,117.96799999999999,120.301,122.543,127.116,131.688,134.298,139.247,142.044,144.395,147.192,151.765,156.338,160.91,166.039,168.648,173.598,176.395,178.749,183.698,186.119,188.443,194.693,200.66400000000002" y="318.11" style="fill:#171615;font-family:FHEGPK+AdvOT6e5d2ec0;font-size:8.97px;font-style:NORMAL;font-weight:normal;">growth factor receptor 2, HR </text>
  <text svg_rhmargin="209.088" x="203.018,209.088" y="318.11" style="fill:#171615;font-family:FHEHAB+AdvOTb0c9bf5d;font-size:8.97px;font-style:NORMAL;font-weight:normal;">= </text>
  <text svg_rhmargin="273.187" x="211.409,216.17,220.743,224.849,229.422,232.219,237.34799999999998,239.697,242.495,247.068,249.677,251.264,256.213,258.634,260.956,267.583,273.187" y="318.11" style="fill:#171615;font-family:FHEGPK+AdvOT6e5d2ec0;font-size:8.97px;font-style:NORMAL;font-weight:normal;">hazard ratio, OS </text>
  <text svg_rhmargin="281.598" x="275.528,281.598" y="318.11" style="fill:#171615;font-family:FHEHAB+AdvOTb0c9bf5d;font-size:8.97px;font-style:NORMAL;font-weight:normal;">= </text>
  <text svg_rhmargin="346.857" x="283.919,288.869,292.975,297.548,300.345,302.684,306.979,311.74,314.537,318.644,320.231,324.337,328.91,330.497,332.918,335.281,340.885,346.856" y="318.11" style="fill:#171615;font-family:FHEGPK+AdvOT6e5d2ec0;font-size:8.97px;font-style:NORMAL;font-weight:normal;">over survival, PR </text>
  <text svg_rhmargin="355.243" x="349.173,355.243" y="318.11" style="fill:#171615;font-family:FHEHAB+AdvOTb0c9bf5d;font-size:8.97px;font-style:NORMAL;font-weight:normal;">= </text>
  <text svg_rhmargin="469.733" x="357.62,362.749,365.547,370.496,375.445,380.018,384.313,386.922,391.495,394.292,399.242,404.003,408.57599999999996,410.91,413.707,418.28,422.853,427.426,432.554,435.164,440.113,442.91,445.331,447.702,453.306,458.533,463.761,469.732" y="318.11" style="fill:#171615;font-family:FHEGPK+AdvOT6e5d2ec0;font-size:8.97px;font-style:NORMAL;font-weight:normal;">progesterone receptor, SEER </text>
  <text svg_rhmargin="478.154" x="472.084,478.154" y="318.11" style="fill:#171615;font-family:FHEHAB+AdvOTb0c9bf5d;font-size:8.97px;font-style:NORMAL;font-weight:normal;">= </text>
  <text x="480.475,486.079,490.84,493.637,497.744,502.317,503.904,505.491,507.078,511.651,516.412,520.984,525.557,527.9780000000001,530.306,535.533,540.662,542.249,547.378,551.951,559.321,560.908,565.857,567.444,572.394,577.343,581.45" y="318.11" svg_rhmargin="583.871" style="fill:#171615;font-family:FHEGPK+AdvOT6e5d2ec0;font-size:8.97px;font-style:NORMAL;font-weight:normal;">Surveillance, Epidemiology,</text>
  <text x="91.276,95.849,100.61,105.739,108.737,113.965,118.726,123.855,126.822,132.794,137.367,141.662,146.423,148.01,150.619,154.914" y="328.088" svg_rhmargin="157.335" style="fill:#171615;font-family:FHEGPK+AdvOT6e5d2ec0;font-size:8.97px;font-style:NORMAL;font-weight:normal;">and End Results.</text>
  <text svg_rhmargin="142.36" x="91.276,98.162,104.14,109.28,117.665,123.702,127.767,133.904,139.459,142.36" y="343.055" style="fill:#171615;font-family:FHEGPM+AdvOT91f5f621.B;font-size:7.97px;font-style:NORMAL;font-weight:normal;">Keywords: </text>
  <text x="145.02,152.391,156.964,158.551,163.124,166.11,171.239,174.036,178.609,183.182,187.477,190.086,193.095,197.668,202.241,207.002,211.575,216.147,218.945,221.36599999999999,224.388,229.517,232.315,237.264,242.213,246.974,251.924,256.219,257.806,262.101,264.522,267.53,273.134,277.895,280.692,284.799,289.372,290.959,292.546,294.133,298.706,303.467,308.039,312.612,315.033,318.041,323.269,328.397,329.984,335.113,339.686,347.056,348.643,353.593,355.18,360.129,365.079,369.185,371.606,374.619,379.191,383.953,389.082,392.08,397.307,402.068,407.197,410.221,416.193,420.766,425.06,429.822,431.409,434.018,438.313,440.734,443.726,448.02,452.782,455.579,459.686,461.273,465.379,469.952" y="343.055" svg_rhmargin="471.539" style="fill:#171615;font-family:FHEGPK+AdvOT6e5d2ec0;font-size:8.97px;font-style:NORMAL;font-weight:normal;">male breast cancer, prognosis, Surveillance, Epidemiology, and End Results, survival</text>
  <text x="85.039,90.955,93.908,98.646,101.599,107.514,111.158,115.095,120.812,126.727,132.643,138.16,141.804,144.558,150.275" y="379.282" svg_rhmargin="156.19" style="fill:#171615;font-family:FHEGPI+AdvOTfbba3ace.B;font-size:9.46px;font-style:NORMAL;font-weight:normal;">1. Introduction</text>
  <text x="85.039,94.006,98.362,100.782,104.7,107.148,112.098,115.425,119.344,123.702,127.154,130.041,132.489,136.407,140.766,145.715,149.496,153.415,156.867,159.304,161.725,165.177,167.58,172.064,177.013,179.429,184.379,189.328,193.092,198.042,205.281,212.651,217.601,222.55,224.953,229.903,232.21,235.662,239.466,243.949,247.289,251.207,253.628,256.02,258.907,261.794,264.24,268.723,272.517,276.435,281.384,286.18,291.129,293.89,297.342,299.842,302.73,307.553,311.005,313.505,318.455,323.256,325.677" y="395.213" svg_rhmargin="330.16" style="fill:#171615;font-family:FHEHAC+AdvOTbc475f09;font-size:8.97px;font-style:NORMAL;font-weight:normal;">Male breast cancer is an uncommon disease. It accounts for only</text>
  <text x="85.039,89.523,94.337,99.286,104.235,107.122,112.251,117.201,126.16699999999999,131.357,136.306,139.193,144.339,148.822,151.243,153.664,158.795,163.745,167.072,170.99,175.349,178.801,181.688,186.857,190.775,195.259,198.536,202.454,204.772,209.721,214.671,221.893,226.376,229.828,234.989,239.472,241.893,244.314,249.445,254.395,258.743,262.661,266.113,271.271,274.158,279.108,283.026,288.166,295.07,299.901,303.353,305.774,310.723,315.831,320.314,325.264" y="406.211" svg_rhmargin="330.213" style="fill:#171615;font-family:FHEHAC+AdvOTbc475f09;font-size:8.97px;font-style:NORMAL;font-weight:normal;">about 1% of all breast carcinomas all over the world and</text>
  <text x="85.039,89.989,92.296,95.748,98.532,100.953,105.788,110.271,115.085,117.506,120.958,125.744,129.662,133.114,135.495,138.382,141.731,146.68,154.05,156.414,159.301,163.104,170.474,174.839,177.26,181.178,183.569,188.519,191.846,195.764,200.247,203.525,206.412,208.854,212.772,217.131,222.08,225.999,229.773,233.225,235.67,238.091,243.04000000000002,245.42,248.872,253.697,261.068,264.986,267.36,271.843,275.183,280.133,283.914,287.832,290.603,294.055,296.5,301.449,304.336,306.704,309.591,314.541,321.785,326.734" y="417.152" svg_rhmargin="330.186" style="fill:#171615;font-family:FHEHAC+AdvOTbc475f09;font-size:8.97px;font-style:NORMAL;font-weight:normal;">distinguishes from female breast cancer in some aspects of tumor</text>
  <text x="85.039,88.958,93.77,98.253,101.593,106.076,109.87,112.757,116.675,119.96,122.381,125.833,128.578,130.999,134.814,138.266" y="428.094" svg_rhmargin="140.687" style="fill:#171615;font-family:FHEHAC+AdvOTbc475f09;font-size:8.97px;font-style:NORMAL;font-weight:normal;">characteristics.</text>
  <text svg_rhmargin="154.017" x="140.598,142.764,146.477,148.139,151.852,154.017" y="428.095" style="fill:#171615;font-family:FHEHAC+AdvOTbc475f09;font-size:5.98px;font-style:NORMAL;font-weight:normal;">[1,2] </text>
  <text x="155.225,158.112,165.373,170.323,175.272,178.582,181.47,185.839,190.788,193.549,195.97,200.453,202.874,204.093,206.98,211.803,215.721,217.019,219.44,224.276,228.194,230.512,235.461,239.242,244.192,247.973,251.89100000000002,253.188,258.138,261.025,262.316,269.686,274.051,276.472,280.39,281.591,286.54,289.868,293.786,298.269,301.603,304.49,305.742,309.66,314.143,318.951,322.869,326.661" y="428.095" svg_rhmargin="330.113" style="fill:#171615;font-family:FHEHAC+AdvOTbc475f09;font-size:8.97px;font-style:NORMAL;font-weight:normal;">Importantly, the incidence of male breast cancer</text>
  <text x="85.039,89.988,94.336,97.788,100.516,105.465,109.246,113.164,118.113,120.754,125.237,128.577,133.061,137.875,142.824,147.307,149.553,151.974,156.457,159.135,164.084,169.03300000000002,171.663,174.55,179.373,183.291,186.007,189.459,191.879,195.191,199.109,201.824,206.773,211.575,215.027,217.448,222.233,226.716,229.433,232.32,237.143,241.061,243.776,248.726,253.074,256.526,259.413,262.087,267.037,270.818,274.736,279.095,284.044,287.962,291.227" y="439.093" svg_rhmargin="293.648" style="fill:#171615;font-family:FHEHAC+AdvOTbc475f09;font-size:8.97px;font-style:NORMAL;font-weight:normal;">has been gradually on the rise during the past decades.</text>
  <text svg_rhmargin="307.031" x="293.612,295.778,299.491,301.153,304.866,307.031" y="439.093" style="fill:#171615;font-family:FHEHAC+AdvOTbc475f09;font-size:5.98px;font-style:NORMAL;font-weight:normal;">[3,4] </text>
  <text x="309.713,314.663,319.464,322.916,325.644" y="439.093" svg_rhmargin="330.127" style="fill:#171615;font-family:FHEHAC+AdvOTbc475f09;font-size:8.97px;font-style:NORMAL;font-weight:normal;">For a</text>
  <text svg_rhmargin="330.163" x="85.038,87.459,92.295,97.244,101.727,103.236,106.124,108.544,115.765,119.683,122.10400000000001,123.646,128.595,133.396,136.84799999999998,138.442,143.391,148.34,153.125,157.043,160.381,163.833,166.617,171.101,175.915,180.864,183.171,188.12,192.603,194.113,199.062,201.949,203.467,210.837,215.202,217.623,221.541,223.083,228.032,231.359,235.278,239.636,243.088,245.975,247.517,251.435,255.794,260.743,264.661,268.436,271.888,274.30899999999997,275.806,279.258,284.083,288.001,292.95,294.515,298.998,302.45,303.926,308.409,312.327,317.135,321.053,323.824,326.245,330.163" y="378.544" style="fill:#171615;font-family:FHEHAC+AdvOTbc475f09;font-size:8.97px;font-style:NORMAL;font-weight:normal;">long time, our understanding of male breast cancer, such as genetic </text>
  <text x="345.09,349.008,353.82,358.303,361.643,366.127,369.92,372.807,376.61,380.062,382.483,385.794,388.681,390.953,394.872,398.21,400.631,402.008,406.957,411.759,415.211,422.474,427.423,432.372,436.703,439.12399999999997,440.445,444.363,449.312,454.108,459.057,461.364,464.251,466.672,471.455,476.404,479.731,482.152,483.473,487.956,491.296,495.214,496.568,501.518,506.467,509.354,510.571,515.054,518.506,519.812,524.761,528.089,533.038,535.799,540.748,545.697,550.482,555.4309999999999,556.775,561.258,564.71,565.96,568.847,573.796,578.148,581.035,582.344,587.293" y="378.544" svg_rhmargin="590.18" style="fill:#171615;font-family:FHEHAC+AdvOTbc475f09;font-size:8.97px;font-style:NORMAL;font-weight:normal;">characteristics, hormonal conditions, are not as profound as that of</text>
  <text x="345.09,347.977,351.78,359.15,363.515,365.936,369.854,371.395,376.345,379.797,383.584,388.067,391.407,394.294,395.886,399.804,404.287,409.095,413.013,416.805,420.257,422.678,424.288,427.175,431.998,434.886,438.688,442.14,445.945,449.397,452.181,454.602,459.437,463.92,466.341,470.662,473.08299999999997,474.687,479.636,484.586,488.504,490.051,492.938,497.887,499.462,501.883,504.77,508.222,509.723,512.144,516.979,523.883,525.54,527.961,532.797,536.715,539.033,543.982,547.763,552.713,556.631,560.406,562.827,564.431,567.883,570.667,575.616,580.566,582.799,586.717" y="389.486" svg_rhmargin="590.169" style="fill:#171615;font-family:FHEHAC+AdvOTbc475f09;font-size:8.97px;font-style:NORMAL;font-weight:normal;">female breast cancer. Interestingly, due to its low incidence, studies</text>
  <text x="345.09,348.542,352.346,357.296,362.097,365.549,368.333,370.754,375.59,380.073,381.713,384.6,389.423,393.341,394.978,398.897,401.214,403.635,408.471,410.892,414.707,419.19,421.611,423.211,427.129,431.941,436.424,439.764,444.247,448.041,450.928,454.731,458.183,460.604,463.915,466.802,469.223,472.985,476.437,478.03,482.514,487.463,492.41200000000003,493.961,498.91,503.712,506.599,509.02,516.24,520.724,523.1450000000001,524.744,527.631,530.98,534.898,539.257,542.144,549.405,553.323,558.135,561.0219999999999,562.671,567.62,570.507,572.082,579.452,583.935,586.197" y="400.484" svg_rhmargin="590.115" style="fill:#171615;font-family:FHEHAC+AdvOTbc475f09;font-size:8.97px;font-style:NORMAL;font-weight:normal;">reporting the clinical characteristics and optimal treatment of male</text>
  <text x="345.09,350.039,353.367,357.285,361.643,365.095,367.982,372.868,376.787,381.145,386.095,390.013,393.788,397.24,402.178,406.661,410.001,413.919,418.902,423.852,427.179,432.128,436.476,438.897,441.318,445.801,450.649,454.101,457.906,460.793,464.595,468.047,471.499,475.254,480.20300000000003,485.175,488.062,493.011,497.93,500.817,505.64,510.59,513.917,517.835,522.818,527.767,532.716,537.614,540.501,544.304,551.674,556.039,558.46,562.378,567.264,572.213,575.541,579.459,583.942,587.219" y="411.426" svg_rhmargin="590.106" style="fill:#171615;font-family:FHEHAC+AdvOTbc475f09;font-size:8.97px;font-style:NORMAL;font-weight:normal;">breast cancer are usually referred to those on female breast</text>
  <text x="345.09,349.008,353.367,358.316,362.097,366.015,369.354" y="422.367" svg_rhmargin="371.775" style="fill:#171615;font-family:FHEHAC+AdvOTbc475f09;font-size:8.97px;font-style:NORMAL;font-weight:normal;">cancer.</text>
  <text svg_rhmargin="379.779" x="371.735,373.901,377.614,379.779" y="422.369" style="fill:#171615;font-family:FHEHAC+AdvOTbc475f09;font-size:5.98px;font-style:NORMAL;font-weight:normal;">[5] </text>
  <text x="381.487,384.374,389.32300000000004,391.068,393.955,398.324,402.243,405.13,407.551,409.266,412.153,417.102,421.02,422.758,427.708,431.035,435.985,440.332,445.282,450.231,453.485,456.372,458.793,462.711,464.427,467.314,471.683,475.601,478.488,483.305,486.757,490.209,491.979,496.462,501.276,506.225,508.023,510.91,514.259,518.177,522.535,525.423,532.684,536.602,541.551,544.438,546.176,549.628,552.412,555.864,560.235,563.122,566.925,571.408,573.671,577.589,581.041,582.799,585.22" y="422.369" svg_rhmargin="590.169" style="fill:#171615;font-family:FHEHAC+AdvOTbc475f09;font-size:8.97px;font-style:NORMAL;font-weight:normal;">In fact, the prognostic factors and treatment strategies in</text>
  <text x="345.09,352.46,356.825,359.246,363.164,367.483,372.432,375.76,379.678,384.037,387.489,390.376,394.695,398.613,402.972,407.921,411.839,415.614,419.066,423.438,427.356,432.169,435.056,438.405,442.888,447.837,452.634,455.055,459.538,462.272,466.19,471.139,475.425,478.312,481.661,486.61,493.98,498.328,501.78,506.605,513.975,517.893,522.196,525.648,529.452,531.873,536.356,539.09,543.008,547.957,552.299,555.751,558.535,563.484,568.286,570.707,574.522,577.974,582.346,587.295" y="433.367" svg_rhmargin="590.182" style="fill:#171615;font-family:FHEHAC+AdvOTbc475f09;font-size:8.97px;font-style:NORMAL;font-weight:normal;">male breast cancer extrapolated from some related studies of</text>
  <text x="345.09,347.977,351.779,359.15,363.514,365.935,369.853,376.213,381.163,384.49,388.409,392.767,396.219,399.106,405.466,409.384,413.743,418.692,422.473,426.392,429.844,436.193,440.676,444.016,447.934,454.334,458.252,463.065,468.014,470.901,474.233,479.182,483.53,487.449,490.787,494.239,496.513,500.996,503.417" y="444.308" svg_rhmargin="505.838" style="fill:#171615;font-family:FHEHAC+AdvOTbc475f09;font-size:8.97px;font-style:NORMAL;font-weight:normal;">female breast cancer are controversial.</text>
  <text x="505.701,507.866" y="440.34" svg_rhmargin="511.578" style="fill:#171615;font-family:FHEHAC+AdvOTbc475f09;font-size:5.98px;font-style:NORMAL;font-weight:normal;">[6</text>
  <text x="511.483" y="440.34" svg_rhmargin="514.845" style="fill:#171615;font-family:FHEHBD+AdvOTbc475f09+20;font-size:5.98px;font-style:NORMAL;font-weight:normal;">–</text>
  <text svg_rhmargin="520.649" x="514.771,518.484,520.649" y="444.309" style="fill:#171615;font-family:FHEHAC+AdvOTbc475f09;font-size:5.98px;font-style:NORMAL;font-weight:normal;">8] </text>
  <text x="527.017,532.899,537.732,541.65,544.988,548.907,551.678,556.628,559.955,563.873,566.2940000000001,572.654,575.075,577.962,584.332,586.753" y="444.309" svg_rhmargin="590.205" style="fill:#171615;font-family:FHEHAC+AdvOTbc475f09;font-size:8.97px;font-style:NORMAL;font-weight:normal;">Therefore, it is</text>
  <text x="345.089,347.51,354.727,359.676,363.595,366.916,371.399,374.172,376.593,380.919,384.837,387.552,390.439,395.38800000000003,397.983,401.901,406.714,414.084,419.033,422.361,426.279,431.091,435.01,439.822,443.274,445.695,450.026,453.945,456.262,460.745,463.406,468.355,473.157,478.106,482.024,485.346,488.798,491.582,496.065,500.879,505.82800000000003,508.476,511.363,516.186,520.104,522.819,530.19,535.008,537.429,541.244,545.162,549.975,552.396,556.879,560.331,562.9,570.271,574.069,577.987,582.799,587.282" y="455.25" svg_rhmargin="590.169" style="fill:#171615;font-family:FHEHAC+AdvOTbc475f09;font-size:8.97px;font-style:NORMAL;font-weight:normal;">imperative to comprehensively understand the molecular mecha-</text>
  <text x="345.089,350.039,352.346,355.798,363.168,365.725,370.208,375.022,379.971,382.619,387.569,390.896,395.846,400.193,405.143,410.092,413.403,416.29,418.562,422.48,425.139,428.026,432.395,436.313,439.085,444.034,447.362,450.814,453.485,458.434,461.321,463.86,471.23,475.595,478.016,481.934,484.552,489.501,492.829,496.747,501.106,504.558,507.445,510.006,513.925,518.408,523.216,527.134,530.926,534.378" y="466.192" svg_rhmargin="536.799" style="fill:#171615;font-family:FHEHAC+AdvOTbc475f09;font-size:8.97px;font-style:NORMAL;font-weight:normal;">nism and prognostic factors of male breast cancer.</text>
  <text x="354.047,360.484,363.936,367.88,372.829,377.631,382.58,389.366,394.315,398.323,401.21,406.159,410.116,415.065,418.517,422.475,426.958,429.379,431.602,434.02299999999997,438.065,443.015,446.342,450.26,454.619,458.071,460.958,464.937,468.856,473.214,478.164,481.945,485.863,489.315,493.283,498.233,502.581,506.033,510.064,515.013,518.794,522.713,527.6619999999999,531.607,538.977,543.796,547.248,551.166,555.135,560.084,563.412,567.33,571.688,576.172,578.592,582.347,587.296" y="477.19" svg_rhmargin="590.183" style="fill:#171615;font-family:FHEHAC+AdvOTbc475f09;font-size:8.97px;font-style:NORMAL;font-weight:normal;">As known to us all, breast cancer has been more prevalent</text>
  <text x="345.089,349.572,356.824,361.774,366.575,371.058,373.378,377.861,382.675,387.624,392.426,396.909,399.23,406.134,410.965,418.335,422.133,427.082" y="488.132" svg_rhmargin="429.503" style="fill:#171615;font-family:FHEHAC+AdvOTbc475f09;font-size:8.97px;font-style:NORMAL;font-weight:normal;">among young women.</text>
  <text svg_rhmargin="446.523" x="429.392,431.558,435.271,436.933,440.646,444.358,446.523" y="488.132" style="fill:#171615;font-family:FHEHAC+AdvOTbc475f09;font-size:5.98px;font-style:NORMAL;font-weight:normal;">[9,10] </text>
  <text x="448.724,457.691,462.64,469.87,473.789,478.738,480.982,485.932,488.239,492.722,497.082,502.032,506.833,510.285,514.09,519.039,521.346,528.25,530.53,533.417,538.366,540.622,545.571,548.898,552.817,557.175,560.627,563.5139999999999,565.793,569.711,574.07,579.019,582.8,586.718" y="488.132" svg_rhmargin="590.17" style="fill:#171615;font-family:FHEHAC+AdvOTbc475f09;font-size:8.97px;font-style:NORMAL;font-weight:normal;">Women diagnosed with breast cancer</text>
  <text x="345.089,349.572,352.459,354.557,359.04,363.854,368.803,373.753,378.236,380.294,384.778,389.139,393.057,395.204,400.154,402.915,405.802,409.72,414.66900000000004,416.748,421.697,426.045,430.528,434.446,436.589,441.539,446.34,451.29,454.742,456.885,461.834,465.161,470.111,474.459,479.408,484.209,487.661,491.466,494.918" y="499.074" svg_rhmargin="497.339" style="fill:#171615;font-family:FHEHAC+AdvOTbc475f09;font-size:8.97px;font-style:NORMAL;font-weight:normal;">at young age often have poor prognoses.</text>
  <text svg_rhmargin="514.385" x="497.253,499.419,503.132,504.794,508.507,512.22,514.385" y="499.074" style="fill:#171615;font-family:FHEHAC+AdvOTbc475f09;font-size:5.98px;font-style:NORMAL;font-weight:normal;">[9,11] </text>
  <text x="516.472,520.955,523.729,528.678,533.48,535.9,539.716,543.168,545.329,550.278,554.761,559.104,563.022,565.17,568.622,573.447,578.396,585.182" y="499.074" svg_rhmargin="590.131" style="fill:#171615;font-family:FHEHAC+AdvOTbc475f09;font-size:8.97px;font-style:NORMAL;font-weight:normal;">Studies have shown</text>
  <text x="345.089,347.976,352.799,357.282,360.169,364.704,369.187,374.137,378.934,383.883,388.366,392.936,399.84,404.672,412.042,415.84,420.789,425.421,432.325,434.605,437.493,442.442,447.021,451.971,455.298,459.216,463.575,467.027,469.914,474.516,478.435,482.793,487.742,491.524,495.442,498.894,503.486,507.969,511.309,515.227,519.812,527.183,532.132,535.402,539.32,543.963,546.384,548.805,553.601,557.519,559.837,564.3199999999999,568.908,571.795,576.7439999999999,581.324,586.273" y="510.072" svg_rhmargin="590.191" style="fill:#171615;font-family:FHEHAC+AdvOTbc475f09;font-size:8.97px;font-style:NORMAL;font-weight:normal;">that young women with breast cancer are more likely to be</text>
  <text x="345.089,350.038,353.365,357.284,360.622,364.54,369.352,372.24,376.042,380.991,383.015,389.919,392.34,395.09,400.039,402.063,404.484,409.32,416.69,419.111,423.889,428.372,430.793,432.79,438.20500000000004,440.217,443.669,448.493,453.443,456.33,460.682,465.632,469.55,471.511,475.994,480.808,485.757,487.781,492.264,495.151,497.136,501.619,506.568,510.911,515.395,520.209,524.127,527.919,532.8679999999999,534.892,538.344,541.128,545.611,549.972,553.891,557.229,559.6500000000001,561.707,564.594,569.543,571.516,576.465,580.383,582.344,587.294" y="521.014" svg_rhmargin="590.181" style="fill:#171615;font-family:FHEHAC+AdvOTbc475f09;font-size:8.97px;font-style:NORMAL;font-weight:normal;">presented with luminal B subtype and at advanced stages, to be of</text>
  <text x="345.089,350.038,352.345,356.828,361.642,365.561,369.013,372.64,377.123,380.463,384.947,389.761,393.67900000000003,397.358,401.841,406.655,411.604,415.272,422.176,424.597,427.347,432.296,435.965,443.335,448.154,451.606,455.524,459.152,461.573,466.056,473.268,478.218,483.019,487.969,492.452,496.795,500.247,504.051,509.001,511.308,515.791,519.243,522.816,525.237,530.073,534.556,538.917,542.369,544.79,549.575,554.525,556.946,560.573,565.989,569.907,573.216,575.637,580.472,584.39,587.729" y="531.9549999999999" svg_rhmargin="590.15" style="fill:#171615;font-family:FHEHAC+AdvOTbc475f09;font-size:8.97px;font-style:NORMAL;font-weight:normal;">higher grade and with more lymphovascular invasion. Besides,</text>
  <text x="345.089,351.993,356.824,364.194,367.992,372.94100000000003,376.553,381.503,383.81,388.293,392.654,397.603,402.553,405.863,409.781,414.73,418.279,425.183,427.604,430.354,435.303,438.915,443.864,447.192,451.11,455.593,458.87,461.757,465.447,469.365,473.724,478.673,482.454,486.373,489.825,493.396,497.879,500.766,504.394,508.877,513.691,518.641,523.442,527.925,531.719,535.171,538.862,543.345,547.706,551.624,555.246,559.729,563.069,566.987,570.609,577.979,582.798,586.25" y="542.953" svg_rhmargin="590.168" style="fill:#171615;font-family:FHEHAC+AdvOTbc475f09;font-size:8.97px;font-style:NORMAL;font-weight:normal;">women diagnosed with breast cancer at younger age are more</text>
  <text x="345.089,347.51,349.794,354.744,358.525,360.946,365.42900000000003,367.538,370.426,375.375,377.46,382.409,386.327,388.401,393.351,398.3,403.084,406.536,408.957,413.44,415.444,420.393,422.7,425.587,428.369,432.288,435.626,439.544,444.494,447.248,449.669,454.152,456.886,460.804,465.616,468.037,470.209,475.158,479.96,487.33,491.695,496.644,498.782,502.7,507.512,509.933,514.883,518.681,522.133,529.395,533.879,536.3000000000001,538.353,542.836,546.176,551.125,557.911,560.798,565.747,567.832,570.719,575.089,579.007,581.778,586.728" y="553.895" svg_rhmargin="590.18" style="fill:#171615;font-family:FHEHAC+AdvOTbc475f09;font-size:8.97px;font-style:NORMAL;font-weight:normal;">likely to be poorly differentiated, human epidermal growth factor</text>
  <text x="345.089,348.541,352.345,356.263,360.055,365.005,367.765,372.715,376.167,378.424,383.373,385.68,388.567,396.036,401.327,407.765,410.511,415.461,418.348,421.112,426.061,430.863,434.315,436.736,439.48,441.901,446.227,450.145,452.519,457.002,461.816,466.765,469.073,472.991,476.329,479.216,482.565,487.515,491.863,495.781,500.73,503.031,506.483,510.287,514.206,517.997,522.947,525.708,530.657,534.109,536.366,539.253,544.669,550.935,553.822,556.605,561.554,565.472,569.814,574.297,577.07,579.491,583.974,587.728" y="564.837" svg_rhmargin="590.149" style="fill:#171615;font-family:FHEHAC+AdvOTbc475f09;font-size:8.97px;font-style:NORMAL;font-weight:normal;">receptor 2 (HER-2)-positive and estrogen receptor (ER)-negative,</text>
  <text x="345.089,351.993,356.824,359.245,363.06,368.009,369.579,373.497,378.31,383.259,386.02,389.472,391.893,396.678,401.627,404.515,408.3,411.752,413.346,416.233,421.182,422.7,425.587,430.41,434.32800000000003,435.909,442.813,447.644,451.096,454.548,458.303,463.252,467.17,472.119,473.609,478.558,481.886,486.835,491.183,496.132,501.082,504.392,508.31,511.648" y="575.835" svg_rhmargin="514.069" style="fill:#171615;font-family:FHEHAC+AdvOTbc475f09;font-size:8.97px;font-style:NORMAL;font-weight:normal;">which contributes to the worsened prognoses.</text>
  <text x="514.034,516.2,519.76" y="571.811" svg_rhmargin="523.472" style="fill:#171615;font-family:FHEHAC+AdvOTbc475f09;font-size:5.98px;font-style:NORMAL;font-weight:normal;">[11</text>
  <text x="523.446" y="571.811" svg_rhmargin="526.808" style="fill:#171615;font-family:FHEHBD+AdvOTbc475f09+20;font-size:5.98px;font-style:NORMAL;font-weight:normal;">–</text>
  <text svg_rhmargin="536.324" x="526.734,530.447,534.159,536.324" y="575.836" style="fill:#171615;font-family:FHEHAC+AdvOTbc475f09;font-size:5.98px;font-style:NORMAL;font-weight:normal;">14] </text>
  <text x="537.846,543.261,547.03,550.948,555.307,560.256,563.708,567.626,569.139,574.088,576.9749999999999,578.493,581.381,586.204" y="575.836" svg_rhmargin="590.122" style="fill:#171615;font-family:FHEHAC+AdvOTbc475f09;font-size:8.97px;font-style:NORMAL;font-weight:normal;">Because of the</text>
  <text x="345.089,348.541,353.366,357.284,361.076" y="586.778" svg_rhmargin="363.497" style="fill:#171615;font-family:FHEHAC+AdvOTbc475f09;font-size:8.97px;font-style:NORMAL;font-weight:normal;">speci</text>
  <text x="363.457" y="586.778" svg_rhmargin="368.406" style="fill:#171615;font-family:FHEHBE+AdvOTbc475f09+fb;font-size:8.97px;font-style:NORMAL;font-weight:normal;">ﬁ</text>
  <text x="368.333,372.251,374.569,377.456,381.939,383.414,388.363,391.25,392.711,397.194,402.008,406.957,411.759,416.242,417.768,425.138,429.503,431.924,435.842,437.327,442.276,446.624,449.511,451.932,455.695,460.644,463.405,466.85699999999997,468.394,475.298,477.578,480.465,485.414,486.875,491.824,495.276,499.064,503.547,506.887,509.774,511.252,515.171,519.529,524.479,528.397,532.172,535.624,538.0450000000001,539.485,546.389,550.307,551.786,556.27,559.043,561.93,565.733,573.103,577.921,580.808,582.344,585.231" y="586.778" svg_rhmargin="590.18" style="fill:#171615;font-family:FHEHAC+AdvOTbc475f09;font-size:8.97px;font-style:NORMAL;font-weight:normal;">city of young male patients with breast cancer, we attempt to</text>
  <text x="345.089,347.51,352.345,356.829,360.622,364.074,366.858,369.279,373.604,378.088,380.861,384.779,386.643,389.064,391.951,393.729,396.616,401.439,405.358,407.676,411.128,412.948,417.897,421.224,426.174,430.522,435.471,440.42,443.674,447.593,451.045,452.859,457.808,460.115,463.002,465.784,469.703,473.155,474.912,477.799,481.148,486.097,493.467,495.208,498.095,502.918,507.868,511.195,515.1129999999999,516.977,521.927,524.814,526.558,529.445,534.268,538.186,539.994,544.477,549.426,554.223,559.173,563.656,565.392,568.279,572.082,579.452,583.935,586.197" y="597.719" svg_rhmargin="590.115" style="fill:#171615;font-family:FHEHAC+AdvOTbc475f09;font-size:8.97px;font-style:NORMAL;font-weight:normal;">investigate if their prognoses differ from those of the young female</text>
  <text x="345.089,350.038,354.386,357.273,359.694,363.456,368.406,371.167,374.61899999999997,377.176,384.08,386.501,389.251,394.2,396.79,401.74,405.067,408.986,413.344,416.796,419.683,422.188,426.107,430.465,435.415,439.333,443.108,446.56,449.117,453.6,458.414,463.363,465.954,468.841,473.664,477.582,480.183,485.133,487.44,492.389,494.98,502.351,506.716,509.136,513.054,515.56,520.509,524.857,527.744,530.165,533.927,538.877,541.764,545.216,547.703,554.607,557.028,559.778,564.727,567.261,572.211,575.538,579.456,583.94,587.217" y="608.6610000000001" svg_rhmargin="590.104" style="fill:#171615;font-family:FHEHAC+AdvOTbc475f09;font-size:8.97px;font-style:NORMAL;font-weight:normal;">patients with breast cancer and the old male patients with breast</text>
  <text x="345.089,349.007,353.366,358.315,362.096,366.014,369.353,371.774,374.002,380.439,384.358,386.587,390.505,394.864,399.347,404.296,407.183,409.32,412.772,416.576,420.028,423.833,428.316,431.656,435.574,440.386,444.305,447.757,449.91,452.798,457.621,461.539,466.488,469.809,472.23,477.066,481.549,483.756,488.705,493.654,495.774,498.661,503.484,507.402,509.607,514.557,519.04,522.363,525.25,527.522,531.44,536.389,538.69,543.173,546.625,548.724,553.674,558.623,563.408,568.357,570.664,575.147,577.92,580.341,585.177" y="619.659" svg_rhmargin="590.126" style="fill:#171615;font-family:FHEHAC+AdvOTbc475f09;font-size:8.97px;font-style:NORMAL;font-weight:normal;">cancer. Relevant researches focusing on the particular population</text>
  <text x="345.089,349.572,352.856,356.774,358.921,362.373,366.744,370.196,374.11400000000003,376.155,381.105,385.906,389.824,391.973,394.86,399.809,401.838,404.258,407.146,410.598,412.609,416.061,420.432,423.319,428.142,432.06,435.512,437.553,441.005,448.268,452.751,455.172,457.452,461.37,464.822,466.863,471.812,475.14,480.089,484.891,489.84,493.167,496.055,498.475,503.315,508.265,510.686,512.726,520.195,525.028,531.932,535.743,540.226,544.02,547.472,549.893,551.957,554.378,557.265,559.27,561.69,565.142,567.207,574.111,578.942,582.394,585.178" y="630.601" svg_rhmargin="590.127" style="fill:#171615;font-family:FHEHAC+AdvOTbc475f09;font-size:8.97px;font-style:NORMAL;font-weight:normal;">are rare due to its rather smaller proportion. However, it is worth</text>
  <text x="345.089,347.976,352.925,356.37,359.257,364.207,367.482,370.369,375.319,379.104,382.556,386.077,389.53,392.314,397.263,402.064,406.547,410.115,413.002,417.825,421.743,425.309,430.258,433.585,438.535,442.883,447.832,452.781,456.092,458.979,461.251,465.169,468.734,471.621,475.991,479.909,482.68,487.63,490.957,494.409,497.987,502.47,505.243,508.13,511.933,515.851,518.623,521.044,525.879,530.362,533.873,536.76,541.709,545.627,549.066,552.518,557.343,560.795,565.166,567.587,572.07,576.391,578.812,582.344,587.293" y="641.542" svg_rhmargin="590.18" style="fill:#171615;font-family:FHEHAC+AdvOTbc475f09;font-size:8.97px;font-style:NORMAL;font-weight:normal;">to further study the prognostic factors affecting the survival of</text>
  <text x="345.089,349.572,354.386,359.336,364.137,368.62,371.28,378.651,383.016,385.436,389.354,391.916,396.866,401.214,404.101,406.522,410.284,415.233,418.12,421.572,424.116,431.02,433.441,436.191,441.14,443.731,448.68,452.008,455.926,460.284,463.736,466.623,469.242,473.16,477.519,482.468,486.249,490.167,493.506" y="652.54" svg_rhmargin="495.927" style="fill:#171615;font-family:FHEHAC+AdvOTbc475f09;font-size:8.97px;font-style:NORMAL;font-weight:normal;">young male patients with breast cancer.</text>
  <text x="354.046,356.933,361.882,364.704,367.592,372.541,374.962,378.414,381.202,384.654,387.541,392.49,397.44,401.923,404.344,407.166,414.07,417.988,420.829,424.747,429.23,433.714,436.135,441.084,445.567,448.454,452.373,457.322,460.116,463.003,467.952,471.87,474.685,478.603,481.024,483.445,488.395,490.816,494.734,499.683,504.633,509.116,512.003,516.952,521.902,524.323,529.272,533.755,536.176,540.094,542.998,545.885,549.803,554.286,557.173,562.123,565.575,569.493,572.945,575.765,580.248,585.198" y="663.482" svg_rhmargin="590.147" style="fill:#171615;font-family:FHEHAC+AdvOTbc475f09;font-size:8.97px;font-style:NORMAL;font-weight:normal;">In this study, we evaluated the clinicopathologic features and</text>
  <text x="345.089,350.038,353.49,358.44,362.923,367.872,372.822,376.274,378.695,382.147,384.546,386.967,391.916,394.297,401.667,405.585,410.534,412.949,417.898,420.319,424.802,429.285,434.235,439.184,442.636,446.554,451.503,453.936,460.84,463.261,466.148,471.09700000000004,473.552,478.501,481.953,485.872,490.355,493.807,496.694,499.119,503.038,507.521,512.47,516.388,520.307,523.759,526.161,531.11,534.562,536.983,541.932,545.384,547.817,550.704,555.6529999999999,558.022,562.971,567.92,570.323,574.807,578.725,583.208,586.66" y="674.423" svg_rhmargin="590.112" style="fill:#171615;font-family:FHEHAC+AdvOTbc475f09;font-size:8.97px;font-style:NORMAL;font-weight:normal;">prognosis in men diagnosed with breast cancer prior to 40 years</text>
  <text x="345.089,350.038,352.459,357.409,359.83,366.689,372.571,377.52,381.438,388.345,393.294,398.244,403.193,408.143,410.564,415.047,417.934,420.355,425.304,430.254,433.141,438.09,442.573,446.025,449.944,454.89300000000003,461.76,466.71,471.193,474.08,478.563,485.457,492.361,496.28,499.732,503.65000000000003,510.572,514.49,519.44,522.327,525.779,530.262,534.18,537.067,540.986,545.935,552.807,555.694,559.146,564.095,571.465,578.375,581.262,586.212" y="685.421" svg_rhmargin="590.13" style="fill:#171615;font-family:FHEHAC+AdvOTbc475f09;font-size:8.97px;font-style:NORMAL;font-weight:normal;">old. The population-based data were extracted from the</text>
  <text x="345.089,349.572,354.521,357.974,362.457,366.375,368.796,371.217,373.638,378.121,383.07,386.988,390.907,393.328,398.039,403.454,408.404,410.824,415.774,419.692,427.062,429.483,434.433,436.854,441.803,446.286,450.769,453.19,457.961,462.444,467.394,472.343,477.009,482.425,487.374,492.32300000000004,497.079,503.516,507.435,510.887,515.836,518.257,521.144,524.596,529.336,532.223,536.706,542.122,547.537,553.975,556.862,561.536,564.988,568.907,573.39,575.811,579.263,582.15,585.602" y="696.363" svg_rhmargin="590.085" style="fill:#171615;font-family:FHEHAC+AdvOTbc475f09;font-size:8.97px;font-style:NORMAL;font-weight:normal;">Surveillance, Epidemiology, and End Results (SEER) registry</text>
  <text x="345.089,347.51,352.459,354.613,357.5,362.449,366.367,368.503,374.94,379.89,382.311,385.198,389.116,394.065,396.281,400.764,403.651,408.135,411.022,414.94,418.392,420.545,425.494,430.444,435.393,437.814,440.235,443.687,448.636,452.555,457.504,459.719,464.202,469.151,474.101,479.05,483.533,485.954,488.375,492.858,495.037,499.986,504.469,506.602,509.489,514.438,518.356,520.548,527.452,531.935,534.822,539.305,541.467,547.905,552.854,557.337,559.758,564.242,567.694,570.114,573.566,575.765,580.248,585.198" y="707.3050000000001" svg_rhmargin="590.147" style="fill:#171615;font-family:FHEHAC+AdvOTbc475f09;font-size:8.97px;font-style:NORMAL;font-weight:normal;">in the United States published annually by the Data Analysis and</text>
  <text x="345.089,347.976,352.925,355.813,359.731,363.183,368.132,371.584,375.503,378.39,382.873,385.76,388.181,393.13,398.079,400.986,406.401,409.853,414.337,419.286,423.204,428.153,431.089,436.039,438.926,441.804,444.691,449.641,453.559,456.487,463.857,468.341,471.228,473.649,478.598,483.547,488.031,490.452,493.393,499.831,504.314,509.264,513.182,517.1,520.552,523.439,526.327,531.276,534.728,537.615,540.036,542.923,547.873,550.76,554.678,557.099,560.061,569.028,575.932" y="718.246" svg_rhmargin="578.353" style="fill:#171615;font-family:FHEHAC+AdvOTbc475f09;font-size:8.97px;font-style:NORMAL;font-weight:normal;">Interpretation Branch of the National Cancer Institute, MD.</text>
  <text x="578.381,580.547,584.26,587.972" y="714.28" svg_rhmargin="590.137" style="fill:#171615;font-family:FHEHAC+AdvOTbc475f09;font-size:5.98px;font-style:NORMAL;font-weight:normal;">[15]</text>
  <path d="M85.039 149.448 L566.248 149.448 C579.5 149.569 590.105 160.125 590.115 173.372 L590.115 351.785 L85.039 351.785 M85.039 149.448 L566.248 149.448 L566.248 149.731 L85.265 149.731 M566.249 149.448 L569.991 149.789 C580.16 151.324 588.258 159.481 589.833 169.631 L590.117 173.372 L589.89 173.372 L589.606 169.687 C588.154 159.758 579.893 151.428 569.934 150.015 L566.249 149.731 M590.116 173.372 L590.116 351.785 L589.889 351.501 L589.889 173.372 M590.116 351.786 L85.039 351.786 L85.266 351.503 L589.889 351.503 M85.039 351.786 L85.039 149.448 L85.265 149.733 L85.265 351.503 M85.039 468.856 L330.122 468.856 L330.122 719.212 L85.039 719.212 " style="fill:none;stroke:#000000;stroke-width:1.0;"/>
  <path d=" M 85.03900146484375 331.427001953125 L 330.06597900390625 331.427001953125 L 330.06597900390625 330.9169921875 L 85.03900146484375 330.9169921875 L 84.81200408935547 331.0299987792969 L 84.81200408935547 331.3139953613281" style="fill:none;stroke:#000000;stroke-width:1.0;"/>
  <text x="85.039,89.029,93.019,94.254,96.284,100.134,102.311,104.194,106.585,110.651,111.886,115.444,117.474,121.324,123.5,125.863,130.724,132.607,134.933,139.432,143.282,146.477" y="477.134" svg_rhmargin="148.36" style="fill:#171615;font-family:FHEHAA+AdvOT1deab444.I;font-size:6.97px;font-style:NORMAL;font-weight:normal;">Editor: Victor C. Kok.</text>
  <text x="85.039,88.89,92.593,93.828,97.169,99.497,102.839,104.869,108.573,112.562,115.756,118.151,123.305,126.863,130.204,132.551,135.892,139.596,143.586,147.576,151.426,153.602,155.632,159.19,163.179,165.549,166.784,170.634,171.87,175.573,177.603,178.838,182.03199999999998,184.431,188.42,191.61399999999998,193.956,195.986,199.689,203.24599999999998,205.578,210.44,214.143,215.378,219.082,222.63899999999998,225.025,229.385,233.235,236.576,238.606,242.596,246.446,250.003,252.033,255.884,258.06,261.617,262.851,265.224,268.928,272.632,276.336,280.325,282.687,284.431,288.135,291.985" y="489.04" svg_rhmargin="293.868" style="fill:#171615;font-family:FHEHAA+AdvOT1deab444.I;font-size:6.97px;font-style:NORMAL;font-weight:normal;">This study was supported jointly by the China Postdoctoral Fund (no:</text>
  <text x="85.039,88.89,92.74,96.59,100.44,104.291,108.141,111.991,115.841,119.692,123.542,127.392,131.304,135.155,139.005,140.749,143.097,146.654,150.358,154.347,156.704,161.064,164.767,168.325,172.029,176.018,179.868,183.572,187.422,189.815,194.175,198.025,201.366,203.396,207.386,211.236,214.793,216.823,220.674,222.85,226.499,227.733,230.014,231.535,235.238,238.942,242.792,246.059,249.616,251.646,252.881,256.732,260.435,262.785,267.144,271.134,274.691,278.249,279.484,283.041,284.275,286.655,290.359,294.062,297.766,301.755,304.117,305.861,309.565,313.415" y="498.054" svg_rhmargin="315.298" style="fill:#171615;font-family:FHEHAA+AdvOT1deab444.I;font-size:6.97px;font-style:NORMAL;font-weight:normal;">21300075311104) and Shandong Postdoctoral Innovation Special Fund (no:</text>
  <text x="85.039,88.89,92.74,96.59,100.44,104.291,108.141,111.991,115.841,119.692,121.496" y="507.011" svg_rhmargin="123.379" style="fill:#171615;font-family:FHEHAA+AdvOT1deab444.I;font-size:6.97px;font-style:NORMAL;font-weight:normal;">201602012).</text>
  <text x="85.039,88.89,92.593,96.15,98.477,102.034,105.738,107.768,111.472,115.322,117.584,120.925,123.253,126.957,130.514,133.709,137.266,139.582,143.285,147.135,149.503,153.06,156.91" y="518.973" svg_rhmargin="160.613" style="fill:#171615;font-family:FHEHAA+AdvOT1deab444.I;font-size:6.97px;font-style:NORMAL;font-weight:normal;">The authors have no con</text>
  <text x="160.611" y="518.973" svg_rhmargin="163.659" style="fill:#171615;font-family:FHEHBF+AdvOT1deab444.I+fb;font-size:6.97px;font-style:NORMAL;font-weight:normal;">ﬂ</text>
  <text x="163.672,164.907,168.463,170.493,173.834,176.201,180.05,181.794,184.081,185.315,189.018,191.047,194.681,196.857,200.414,203.754,205.783,208.117,210.146,213.99599999999998,216.337,220.326,221.56,224.9,228.457,229.691,233.541,236.881,240.438" y="518.973" svg_rhmargin="242.321" style="fill:#171615;font-family:FHEHAA+AdvOT1deab444.I;font-size:6.97px;font-style:NORMAL;font-weight:normal;">icts of interest to disclose.</text>
  <text x="85.039,89.398,93.101,97.09,101.079,102.313,105.87,111.683,115.239,118.943,120.972,124.529,125.76299999999999,128.123,132.844,134.078,137.928,139.162,141.192,144.748,145.982,148.304,153.164,157.014,160.717,162.816,166.373,170.076,172.105,174.437,175.672,179.013,181.354,184.91,188.104,191.661,192.895,194.13,197.686,201.675,202.91,206.46699999999998,208.848,210.591,214.441,216.617,218.939,220.969,224.672,225.906,229.247,231.581,235.138,237.314,239.343,240.651,244.208,245.442,248.999" y="530.935" svg_rhmargin="250.882" style="fill:#171615;font-family:FHEHAA+AdvOT1deab444.I;font-size:6.97px;font-style:NORMAL;font-weight:normal;">Supplemental Digital Content is available for this article.</text>
  <text svg_rhmargin="87.706" x="85.039,87.706" y="542.841" style="fill:#171615;font-family:FHEHAA+AdvOT1deab444.I;font-size:4.65px;font-style:NORMAL;font-weight:normal;">a </text>
  <text x="88.895,93.616,97.174,101.164,104.721,106.897,108.927,114.661,118.218,121.922,123.951,126.315,130.165,131.909,134.252,139.406,143.11,146.668,150.518,151.828,155.678,159.529,162.723,164.60600000000002,166.91,171.771,175.329,179.099,181.129,183.306,186.863,188.097,190.439,195.301,199.151,202.492,206.482,207.717,209.747,213.304,214.538,216.917,220.768,222.512,224.855,228.845,230.08,234.07,237.773,240.107,243.664" y="542.841" svg_rhmargin="245.407" style="fill:#171615;font-family:FHEHAA+AdvOT1deab444.I;font-size:6.97px;font-style:NORMAL;font-weight:normal;">Department of Oncology, Central Hospital of Yidu af</text>
  <text x="245.424" y="542.841" svg_rhmargin="248.472" style="fill:#171615;font-family:FHEHBF+AdvOT1deab444.I+fb;font-size:6.97px;font-style:NORMAL;font-weight:normal;">ﬁ</text>
  <text x="248.485,249.719,250.954,254.51,256.54,260.096,264.085,266.456,268.485,272.33500000000004,274.676,280.995,284.551,285.786,287.529,291.086,294.789,298.639,300.98,306.859,310.416,314.405,315.639,319.196,322.753" y="542.841" svg_rhmargin="323.987" style="fill:#171615;font-family:FHEHAA+AdvOT1deab444.I;font-size:6.97px;font-style:NORMAL;font-weight:normal;">liated to Weifang Medical</text>
  <text svg_rhmargin="137.311" x="85.039,89.901,93.751,94.986,96.221,99.779,103.629,107.186,109.069,111.461,117.78,121.337,122.572,124.317,127.874,131.578,135.428,137.311" y="548.737" style="fill:#171615;font-family:FHEHAA+AdvOT1deab444.I;font-size:6.97px;font-style:NORMAL;font-weight:normal;">College, Weifang, </text>
  <text svg_rhmargin="142.683" x="139.691,142.683" y="551.855" style="fill:#171615;font-family:FHEHAA+AdvOT1deab444.I;font-size:4.65px;font-style:NORMAL;font-weight:normal;">b </text>
  <text x="143.83,148.329,151.886,155.227,158.785,162.342,164.518,168.153,171.856,174.162,178.522,182.079,184.256,187.45,188.685,192.243,195.79999999999998,198.146,203.362" y="551.855" svg_rhmargin="205.105" style="fill:#171615;font-family:FHEHAA+AdvOT1deab444.I;font-size:6.97px;font-style:NORMAL;font-weight:normal;">Research Service Of</text>
  <text x="205.058" y="551.855" svg_rhmargin="208.106" style="fill:#171615;font-family:FHEHBF+AdvOT1deab444.I+fb;font-size:6.97px;font-style:NORMAL;font-weight:normal;">ﬁ</text>
  <text x="208.12,211.677,215.235,217.11800000000002,219.459,223.819,227.522,231.08,234.784,238.849,242.7,246.403,250.253,252.57,256.273,257.508,261.066,264.916,268.473,272.244,275.801,279.505,283.355,285.681,290.041,293.598,297.448,301.438,302.673" y="551.855" svg_rhmargin="306.23" style="fill:#171615;font-family:FHEHAA+AdvOT1deab444.I;font-size:6.97px;font-style:NORMAL;font-weight:normal;">ce, Shandong Liaocheng People</text>
  <text x="306.255" y="551.855" svg_rhmargin="308.138" style="fill:#171615;font-family:FHEHBG+AdvOT1deab444.I+20;font-size:6.97px;font-style:NORMAL;font-weight:normal;">’</text>
  <text x="308.183" y="551.855" svg_rhmargin="311.523" style="fill:#171615;font-family:FHEHAA+AdvOT1deab444.I;font-size:6.97px;font-style:NORMAL;font-weight:normal;">s</text>
  <text svg_rhmargin="111.017" x="85.039,89.9,93.75,97.09,101.079,102.313,104.343,107.899,109.134,111.017" y="557.6949999999999" style="fill:#171615;font-family:FHEHAA+AdvOT1deab444.I;font-size:6.97px;font-style:NORMAL;font-weight:normal;">Hospital, </text>
  <text svg_rhmargin="116.053" x="113.386,116.053" y="560.813" style="fill:#171615;font-family:FHEHAA+AdvOT1deab444.I;font-size:4.65px;font-style:NORMAL;font-weight:normal;">c </text>
  <text x="117.241,121.963,125.52,129.51,133.067,135.244,137.274,143.095,146.652,150.356,152.385,154.717,158.568,160.312,162.655,167.809,171.513,175.07,178.921,180.156,184.006,187.856,191.051,192.934,195.313,199.016,200.251,203.809,207.659,211.216,214.92,218.478,222.181,226.031,228.424,229.945,233.649,235.393,238.95,242.508,244.538,245.773,249.623,253.327,256.668,259.042,263.764,264.999,268.34,271.897,275.455,278.796,282.353,284.726,289.587,293.438,296.779,300.768,302.003,304.033,307.591,308.826" y="560.813" svg_rhmargin="310.709" style="fill:#171615;font-family:FHEHAA+AdvOT1deab444.I;font-size:6.97px;font-style:NORMAL;font-weight:normal;">Department of Oncology, Liaocheng Infectious Disease Hospital,</text>
  <text svg_rhmargin="117.708" x="85.039,88.743,89.978,93.536,97.386,100.943,104.714,108.271,111.975,115.825,117.708" y="566.652" style="fill:#171615;font-family:FHEHAA+AdvOT1deab444.I;font-size:6.97px;font-style:NORMAL;font-weight:normal;">Liaocheng, </text>
  <text svg_rhmargin="123.011" x="120.019,123.01100000000001" y="569.77" style="fill:#171615;font-family:FHEHAA+AdvOT1deab444.I;font-size:4.65px;font-style:NORMAL;font-weight:normal;">d </text>
  <text x="124.214,128.936,132.493,136.483,140.04,142.217,144.247,149.98,153.538,157.241,159.27,161.634,165.484,167.228,169.572,170.806,174.51,176.54,180.097,182.274,185.978,189.535,190.769,193.159,199.038,202.595,206.585,207.82,211.378,212.613,216.316,219.874,222.413,227.567,231.373,234.93,238.78,240.015,243.865,247.715,250.91,252.793,255.128,259.488,263.192,266.749,270.453,274.518,278.369,282.072,285.922,288.239,293.1,296.657,300.361,303.919,307.476" y="569.77" svg_rhmargin="309.652" style="fill:#171615;font-family:FHEHAA+AdvOT1deab444.I;font-size:6.97px;font-style:NORMAL;font-weight:normal;">Department of internal Medicine-Oncology, Shandong Cancer</text>
  <text x="85.039,89.901,93.751,97.092,101.082,102.317,104.347,107.904,109.13799999999999,111.518,115.075,118.779,122.768,125.125,126.646,130.35,133.691,135.721,136.956,138.986,142.69,144.72,148.277,150.16,152.568,156.928,160.631,164.189,167.892,171.882,175.732,179.436,183.286,185.679,190.541,194.098,197.802,201.359,204.916,207.09199999999998,209.435,214.297,218.147,221.488,225.478,226.785,228.815,232.372,233.60600000000002,235.913,239.471" y="578.7280000000001" svg_rhmargin="241.214" style="fill:#171615;font-family:FHEHAA+AdvOT1deab444.I;font-size:6.97px;font-style:NORMAL;font-weight:normal;">Hospital and Institute, Shandong Cancer Hospital af</text>
  <text x="241.229" y="578.7280000000001" svg_rhmargin="244.277" style="fill:#171615;font-family:FHEHBF+AdvOT1deab444.I+fb;font-size:6.97px;font-style:NORMAL;font-weight:normal;">ﬁ</text>
  <text x="244.29,245.525,246.761,250.318,252.348,255.905,259.894,262.265,264.294,268.144,270.485,274.844,278.548,282.105,285.809,289.799,293.649,297.353" y="578.7280000000001" svg_rhmargin="301.203" style="fill:#171615;font-family:FHEHAA+AdvOT1deab444.I;font-size:6.97px;font-style:NORMAL;font-weight:normal;">liated to Shandong</text>
  <text x="85.04,89.902,93.605,94.84,98.035,101.592,103.769,107.11,108.345,110.375,113.57,115.45299999999999,117.869,122.229,125.932,129.49,133.194,137.183,141.034,144.737,148.587,150.98,155.34,158.897,162.454,166.444,170.001,175.734,178.928,181.313,185.163,186.907,189.193,195.073,198.63,202.62,203.934,207.492,211.049,212.28300000000002,214.593,218.953,222.51,223.745,227.302,231.006,234.563,238.121,241.462,243.345,245.721,249.208,250.443,254.147,257.705,261.483,263.366,265.678,270.54,274.244,275.479,279.183,282.74" y="587.685" svg_rhmargin="284.623" style="fill:#171615;font-family:FHEHAA+AdvOT1deab444.I;font-size:6.97px;font-style:NORMAL;font-weight:normal;">University, Shandong Academy of Medical Sciences, Jinan, China.</text>
  <text svg_rhmargin="87.759" x="85.039,87.759" y="599.6469999999999" style="fill:#171615;font-family:FHEGPL+AdvOTb0c9bf5d+22;font-size:4.65px;font-style:NORMAL;font-weight:normal;">∗ </text>
  <text x="88.951,93.813,97.663,99.839,102.016,105.573,108.914,112.904,116.754,120.458,124.448,128.005,131.709,135.266,138.824,140.70700000000002,143.154,148.016,151.573,152.808,156.003,159.853,163.557,167.40699999999998,169.745,176.064,179.622,183.326,187.176,189.059,191.46,196.182,199.739,203.729,207.286,209.463,211.493,217.226,220.783,224.487,226.516,228.88,232.73,234.474,236.817,238.338,242.041,244.072,247.629,249.805,253.509,257.067,258.301,260.687,266.567,270.124,274.114,275.349,278.906,280.141,283.845,287.403,289.942,295.096,298.902,302.459,306.309,307.544,311.394,315.245,318.439" y="599.6469999999999" svg_rhmargin="320.322" style="fill:#171615;font-family:FHEHAA+AdvOT1deab444.I;font-size:6.97px;font-style:NORMAL;font-weight:normal;">Correspondence: Haiyong Wang, Department of Internal Medicine-Oncology,</text>
  <text x="85.04,89.399,93.103,96.66,100.364,104.354,108.204,111.908,115.758,118.151,123.012,126.569,130.273,133.83,137.388,139.564,141.906,146.768,150.618,153.959,157.949,159.255,161.286,164.843,166.077,168.384,171.942,175.645,179.63400000000001,181.991,183.512,187.216,190.557,192.587,193.899,195.929,199.632,201.662,205.22,207.103,209.434,213.793,217.497,221.055,224.758,228.824,232.674,236.378,240.22799999999998,242.544,247.406,250.963,254.667,258.224,261.782,263.95799999999997,266.357,271.218,275.069,278.41,282.4,283.635,285.665,289.222,290.45599999999996,292.835,296.392" y="608.604" svg_rhmargin="298.135" style="fill:#171615;font-family:FHEHAA+AdvOT1deab444.I;font-size:6.97px;font-style:NORMAL;font-weight:normal;">Shandong Cancer Hospital and Institute, Shandong Cancer Hospital af</text>
  <text x="298.092" y="608.604" svg_rhmargin="301.14" style="fill:#171615;font-family:FHEHBF+AdvOT1deab444.I+fb;font-size:6.97px;font-style:NORMAL;font-weight:normal;">ﬁ</text>
  <text x="301.153,302.388,303.622,307.179,309.208,312.765,316.75399999999996,319.124,321.154" y="608.604" svg_rhmargin="325.004" style="fill:#171615;font-family:FHEHAA+AdvOT1deab444.I;font-size:6.97px;font-style:NORMAL;font-weight:normal;">liated to</text>
  <text x="85.04,89.4,93.103,96.661,100.365,104.354,108.204,111.908,115.758,118.151,123.013,126.716,127.951,131.146,134.704,136.88,140.221,141.456,143.486,146.681,148.56400000000002,150.98,155.34,159.043,162.601,166.305,170.294,174.145,177.848,181.698,184.035,188.394,191.951,195.509,199.57,203.126,208.859,212.053,214.366,218.278,220.022,222.303,228.182,231.74,235.73,237.044,240.601,244.159,245.393,247.703,252.062,255.62,256.855,260.412,264.116,267.673,271.23,274.572,276.455,278.83,282.318,283.553,287.257,290.814,294.517,296.917,300.767,304.617,308.468,312.318,316.168,320.018" y="617.562" svg_rhmargin="321.901" style="fill:#171615;font-family:FHEHAA+AdvOT1deab444.I;font-size:6.97px;font-style:NORMAL;font-weight:normal;">Shandong University, Shandong Academy of Medical Sciences, Jinan 250117,</text>
  <text x="85.04,89.902,93.606,94.841,98.544,102.101,104.487,106.232,109.789,112.328,118.061,121.619,122.854,124.089,125.972,128.302,133.517,137.075,140.778,144.629,148.332,151.89,153.125,156.32,160.17,163.874,167.724,171.574,175.424,179.274,183.125,188.741,192.591,196.441,200.291,202.175,205.732,209.583,215.316,217.06" y="626.577" svg_rhmargin="218.943" style="fill:#171615;font-family:FHEHAA+AdvOT1deab444.I;font-size:6.97px;font-style:NORMAL;font-weight:normal;">China (e-mail: wanghaiyong6688@126.com).</text>
  <text svg_rhmargin="113.931" x="85.04,89.902,93.752,97.742,100.936,103.113,104.348,108.198,111.902,113.931" y="638.482" style="fill:#171615;font-family:FHEHAA+AdvOT1deab444.I;font-size:6.97px;font-style:NORMAL;font-weight:normal;">Copyright </text>
  <text svg_rhmargin="121.565" x="116.335,121.56599999999999" y="638.482" style="fill:#171615;font-family:FHEHAB+AdvOTb0c9bf5d;font-size:6.97px;font-style:NORMAL;font-weight:normal;">© </text>
  <text x="123.875,127.725,131.575,135.425,139.275,141.62,143.65,147.354,150.911,153.243,157.602,161.306,163.336,167.04,170.89,173.144,174.888,178.229,179.973,181.85600000000002,184.2,188.559,192.263,196.253,197.488,198.723,202.064,205.768,209.325,213.314,215.668,219.658,222.85199999999998,225.193,231.512,235.362,236.597,238.627,242.259,244.436,247.77700000000002,250.083,254.582,255.817,259.521,264.675,268.232,270.408,272.818,277.68,281.237,284.794,286.029,288.059,291.763,293.64599999999996,296.008,297.529,301.232,304.79" y="638.482" svg_rhmargin="306.673" style="fill:#171615;font-family:FHEHAA+AdvOT1deab444.I;font-size:6.97px;font-style:NORMAL;font-weight:normal;">2018 the Author(s). Published by Wolters Kluwer Health, Inc.</text>
  <text x="85.04,88.889,92.592,93.827,97.16799999999999,99.496,100.73,104.071,106.412,109.97,113.673,115.993,119.905,123.894,127.451,131.154,133.454,137.01,140.567,144.124,147.68,151.021,154.362,156.753,160.31,162.486,164.515,165.749,169.306,170.54,174.09699999999998,176.481,180.47,181.704,185.045,187.074,189.25,190.484,194.473,198.176,200.206,203.762,207.751,210.154,213.857,217.56,221.549,225.106,227.28199999999998,229.655,231.684,235.387,238.944,241.276,243.306,246.862,249.038,254.771,258.11199999999997,260.494,264.344,266.088,268.432,270.461,274.164,277.721,280.053,284.914,287.089,290.646,294.203,296.232,297.467,300.661" y="647.4970000000001" svg_rhmargin="304.218" style="fill:#171615;font-family:FHEHAA+AdvOT1deab444.I;font-size:6.97px;font-style:NORMAL;font-weight:normal;">This is an open access article distributed under the terms of the Creative</text>
  <text x="85.04,89.901,93.751,99.484,105.218,109.068,112.772,116.113,118.49,122.849,124.88,126.91,129.086,130.321,134.311,138.015,140.045,141.28,145.13,148.938,151.477,156.338,160.189,163.892,166.23,171.091,174.942,180.675,186.408,189.965,192.142,195.699,196.934,200.589,201.823,204.16,207.864,209.099,212.657,216.214,219.918,223.259,226.81599999999997,229.164,233.015,234.898,238.748,241.071,242.815,247.676,252.538,257.183,261.254,263.793,268.655,273.516,275.26,277.143,279.511,284.665,288.369,291.927,294.103,297.66,300.035,301.269,303.298,305.647,306.882" y="656.454" svg_rhmargin="310.222" style="fill:#171615;font-family:FHEHAA+AdvOT1deab444.I;font-size:6.97px;font-style:NORMAL;font-weight:normal;">Commons Attribution-Non Commercial License 4.0 (CCBY-NC), where it is</text>
  <text x="85.04,89.029,92.587,94.763,100.496,101.731,105.073,108.414,109.649,113.729,114.964,118.521,120.817,122.847,126.69699999999999,129.037,133.027,136.877,142.032,145.735,146.97,150.821,154.378,158.463,160.346,162.659,165.999,169.703,173.26,175.437,178.994,180.877,183.239,185.416,188.973,194.706,195.941,199.136,201.019,203.423,205.453,207.63,211.187,214.891,218.232,219.976,223.827,226.003,231.736,233.619,235.969,239.525,243.229,247.21800000000002,249.575,253.565,257.269,258.504,259.739,263.807,267.51,271.49899999999997,273.842,275.872,279.576,283.13300000000004,285.465,290.619,294.469,296.646,299.84000000000003,302.19,306.179,308.356,312.206,315.401,316.636,320.626,324.183" y="665.4110000000001" svg_rhmargin="328.172" style="fill:#171615;font-family:FHEHAA+AdvOT1deab444.I;font-size:6.97px;font-style:NORMAL;font-weight:normal;">permissible to download, share, remix, transform, and buildup the work provided</text>
  <text x="85.04,86.275,88.304,90.653,91.888,95.229,97.57,101.56,103.736,107.587,111.576,115.134,117.31,118.545,121.739,124.105,127.663,128.898,130.928,134.485,138.475,140.358,142.702,146.553,150.256,153.813,156.196,161.35,165.201,167.377,170.571,172.921,176.479,180.036,183.74,187.444,191.294,193.323,195.657,199.646,203.20299999999997,205.578,209.282,212.623,216.181,220.17000000000002,222.53,226.088,229.938,235.671,241.404,244.961,247.138,250.695,252.013,255.57,256.805,258.04,261.23400000000004,263.579,268.734,269.969,271.999,275.703,279.553,283.257,285.286,287.619,291.609,295.167,297.343,303.154,304.389,307.73,311.072,312.307,316.157" y="674.3679999999999" svg_rhmargin="319.86" style="fill:#171615;font-family:FHEHAA+AdvOT1deab444.I;font-size:6.97px;font-style:NORMAL;font-weight:normal;">it is properly cited. The work cannot be used commercially without permission</text>
  <text x="85.04,86.784,88.96,92.81,98.543,100.915,102.944,106.648,110.205,112.537,113.772,117.622,121.326,123.502,127.206,130.763,131.998" y="683.325" svg_rhmargin="133.881" style="fill:#171615;font-family:FHEHAA+AdvOT1deab444.I;font-size:6.97px;font-style:NORMAL;font-weight:normal;">from the journal.</text>
  <text x="85.04,90.919,94.477,98.466,99.701,103.259,104.494,108.197,111.754,114.126,115.869,119.72,123.57,127.42,131.27,133.014,135.387,139.237,143.087,144.971,148.821,152.671,154.416,157.973,161.823,165.673,169.524,173.374,177.224" y="695.287" svg_rhmargin="178.967" style="fill:#171615;font-family:FHEHAA+AdvOT1deab444.I;font-size:6.97px;font-style:NORMAL;font-weight:normal;">Medicine (2018) 97:40(e12686)</text>
  <text x="85.04,89.538,93.096,96.653,100.21,101.445,104.714,108.271,112.261,114.14399999999999,116.45,120.3,122.63,126.334,129.891,133.881,136.057,139.761,143.318,145.592,148.786,151.092,154.942,158.792,162.643,166.493,168.837,171.083,173.43,177.789,181.346,184.904,188.461,192.451,194.481,198.038,202.119,204.002,206.314,210.164,212.494,216.853,220.41,224.4,226.43,229.987,235.72,239.71,243.268,245.444,247.872,251.723,255.573,259.423" y="707.25" svg_rhmargin="263.273" style="fill:#171615;font-family:FHEHAA+AdvOT1deab444.I;font-size:6.97px;font-style:NORMAL;font-weight:normal;">Received: 3 February 2018 / Accepted: 8 September 2018</text>
  <text x="85.04,88.743,90.773,92.804,96.793,98.677,100.923,103.169,107.159,110.354,112.237,116.339,120.189,121.424,123.308,127.158,129.334,133.185,135.431,139.281,143.131,145.015,148.865,152.797,156.647,160.497,162.744,168.623,173.345,175.229,179.079,182.929,186.78,190.63,194.48,198.33,202.181,206.031,209.881,213.731,217.659,221.571,225.421,229.271,233.121" y="719.212" svg_rhmargin="236.971" style="fill:#171615;font-family:FHEHAA+AdvOT1deab444.I;font-size:6.97px;font-style:NORMAL;font-weight:normal;">http://dx.doi.org/10.1097/MD.0000000000012686</text>
  <path d=" M 85.03900146484375 759.968017578125 L 590.1729736328125 759.968017578125 L 590.1729736328125 760.9884033203125 L 85.03900146484375 760.9884033203125 Z " style="fill:none;stroke:#000000;stroke-width:1.0;"/>
  <path d=" M 85.03900146484375 761.0460205078125 L 89.00749969482422 761.0460205078125 L 89.00749969482422 775.9559936523438 L 85.03900146484375 775.9559936523438 Z " style="fill:none;stroke:#000000;stroke-width:1.0;"/>
  <text svg_rhmargin="203.497" x="91.389,100.306,107.459,113.885,121.038,125.601,131.924,138.868,142.913,145.403,152.556,159.301,166.336,168.82700000000003,172.175,179.537,183.582,190.327,197.48,203.498" y="31.899" style="fill:#73828a;font-family:FHEHBH+AdvOTbed05995;font-size:9.96px;font-style:NORMAL;font-weight:normal;">Observational Study </text>
  <text x="437.272,469.714,489.657,511.847,519.123,537.736,545.012,564.991" y="31.899" svg_rhmargin="587.342" style="fill:#de000f;font-family:FHEHFG+Avenir-Roman;font-size:40.2px;font-style:NORMAL;font-weight:normal;">Medicine</text>
  <text x="584.326" y="14.110000000000014" svg_rhmargin="590.154" style="fill:#979699;font-family:FHEHFH+AkzidenzGroteskBE-Md;font-size:7.0px;font-style:NORMAL;font-weight:bold;">®</text>
  <path d="M85.039 468.572 L330.065 468.572 L330.065 469.083 L85.039 469.083 L84.812 468.97 L84.812 468.686 M443.709 35.651 L582.507 35.651 M584.0 35.651 L584.0 35.651 M440.722 35.651 L440.722 35.651 " style="fill:none;stroke:#979699;stroke-width:1.5;"/>
  <rect style="stroke:blue;stroke-width:0.3;" x="550.368" y="44.108" height="15.384" width="39.988" title="1"/>
  <text x="550.368" y="44.108" class="image" id="image.1.1" width="39" height="15">image.1.1.550_590.44_59</text>
  <text x="555.412,563.566,570.568,577.237" y="54.660999999999945" svg_rhmargin="585.238" style="fill:#ffffff;font-family:FHEHMG+HelveticaNeue-MediumExt;font-size:9.0px;font-style:NORMAL;font-weight:normal;">OPEN</text>
  <text x="335.395" y="739.622" svg_rhmargin="339.795" style="fill:#171615;font-family:FHEHPG+AdvOTf94803d4;font-size:7.97px;font-style:NORMAL;font-weight:normal;">1</text>
 </g>
</svg>
