<?xml version="1.0" encoding="UTF-8"?>
<svg height="870.031005859375" width="672.0029907226562" xmlns="http://www.w3.org/2000/svg">
 <g style="fill:none;">
  <path d=" M 0.05999799817800522 826.072021484375 L 22.619997024536133 826.072021484375 L 22.619997024536133 826.35546875 L 0.05999799817800522 826.35546875 Z " style="fill:none;stroke:#000000;stroke-width:1.0;"/>
  <path d=" M 33.67599868774414 837.4110107421875 L 33.959449768066406 837.4110107421875 L 33.959449768066406 860.031005859375 L 33.67599868774414 860.031005859375 Z " style="fill:none;stroke:#000000;stroke-width:1.0;"/>
  <path d=" M 627.9869995117188 837.4110107421875 L 628.2703857421875 837.4110107421875 L 628.2703857421875 860.031005859375 L 627.9869995117188 860.031005859375 Z " style="fill:none;stroke:#000000;stroke-width:1.0;"/>
  <path d=" M 639.3259887695312 826.072021484375 L 662.0029907226562 826.072021484375 L 662.0029907226562 826.35546875 L 639.3259887695312 826.35546875 Z " style="fill:none;stroke:#000000;stroke-width:1.0;"/>
  <path d=" M 639.3259887695312 33.731998443603516 L 662.0029907226562 33.731998443603516 L 662.0029907226562 34.015480041503906 L 639.3259887695312 34.015480041503906 Z " style="fill:none;stroke:#000000;stroke-width:1.0;"/>
  <path d=" M 627.9869995117188 0.0 L 628.2703857421875 0.0 L 628.2703857421875 22.677000045776367 L 627.9869995117188 22.677000045776367 Z " style="fill:none;stroke:#000000;stroke-width:1.0;"/>
  <path d=" M 33.67599868774414 0.0 L 33.959449768066406 0.0 L 33.959449768066406 22.677000045776367 L 33.67599868774414 22.677000045776367 Z " style="fill:none;stroke:#000000;stroke-width:1.0;"/>
  <path d=" M 0.05999799817800522 33.731998443603516 L 22.619997024536133 33.731998443603516 L 22.619997024536133 34.015480041503906 L 0.05999799817800522 34.015480041503906 Z " style="fill:none;stroke:#000000;stroke-width:1.0;"/>
  <text svg_rhmargin="164.989" x="71.887,76.836,81.785,85.704,89.156,93.639,96.526,101.475,104.927,108.379,112.137,118.575,125.945,132.849,136.628,141.577,145.029,148.76,156.13,162.568,164.989" y="39.74800000000005" style="fill:#171615;font-family:IJFBOG+AdvOTbc475f09;font-size:8.97px;font-style:NORMAL;font-weight:normal;">operators AND or OR: </text>
  <text x="168.776" y="39.74800000000005" svg_rhmargin="173.725" style="fill:#171615;font-family:IJFBOI+AdvOTbc475f09+20;font-size:8.97px;font-style:NORMAL;font-weight:normal;">“</text>
  <text x="173.708,178.657,182.109,186.592,189.013,192.756,197.239,202.188,205.076" y="39.74800000000005" svg_rhmargin="207.497" style="fill:#171615;font-family:IJFBOG+AdvOTbc475f09;font-size:8.97px;font-style:NORMAL;font-weight:normal;">oral anti</text>
  <text x="207.497" y="39.74800000000005" svg_rhmargin="212.446" style="fill:#171615;font-family:IJFBOH+AdvOTbc475f09+fb;font-size:8.97px;font-style:NORMAL;font-weight:normal;">ﬁ</text>
  <text x="212.486,217.436,220.888,223.309,228.258,233.207,235.628,240.111,242.999,245.419,249.338,252.79,256.535,263.905,270.34299999999996,274.11,276.997,280.449,284.932,289.882,293.8,298.749,303.232,310.603,313.024" y="39.74800000000005" svg_rhmargin="316.942" style="fill:#171615;font-family:IJFBOG+AdvOTbc475f09;font-size:8.97px;font-style:NORMAL;font-weight:normal;">brinolytics OR tranexamic</text>
  <text x="71.887,76.371,80.289,82.71,87.659" y="50.690000000000055" svg_rhmargin="90.08" style="fill:#171615;font-family:IJFBOG+AdvOTbc475f09;font-size:8.97px;font-style:NORMAL;font-weight:normal;">acid,</text>
  <text x="90.086,95.035,98.874" y="50.690000000000055" svg_rhmargin="103.823" style="fill:#171615;font-family:IJFBOI+AdvOTbc475f09+20;font-size:8.97px;font-style:NORMAL;font-weight:normal;">” “</text>
  <text x="103.806,106.693,111.642,114.529,119.013,121.433,124.321,129.27,134.219,138.138,142.056,145.87,149.322,153.241,158.19,160.611,165.094,169.012,172.931,180.301,184.219,189.169,192.056,195.928,203.298,209.736,213.56,218.043,221.495,224.382,229.331,232.783,237.733,242.682,245.103,249.586,253.038,255.925,260.408" y="50.690000000000055" svg_rhmargin="262.829" style="fill:#171615;font-family:IJFBOG+AdvOTbc475f09;font-size:8.97px;font-style:NORMAL;font-weight:normal;">total-knee replacement OR arthroplasty,</text>
  <text svg_rhmargin="267.779" x="262.83,267.779" y="50.690000000000055" style="fill:#171615;font-family:IJFBOI+AdvOTbc475f09+20;font-size:8.97px;font-style:NORMAL;font-weight:normal;">” </text>
  <text svg_rhmargin="286.0" x="271.618,276.101,281.051,286.0" y="50.690000000000055" style="fill:#171615;font-family:IJFBOG+AdvOTbc475f09;font-size:8.97px;font-style:NORMAL;font-weight:normal;">and </text>
  <text x="289.817" y="50.690000000000055" svg_rhmargin="294.766" style="fill:#171615;font-family:IJFBOI+AdvOTbc475f09+20;font-size:8.97px;font-style:NORMAL;font-weight:normal;">“</text>
  <text x="294.749,299.699,302.12,307.069,312.018" y="50.690000000000055" svg_rhmargin="316.967" style="fill:#171615;font-family:IJFBOG+AdvOTbc475f09;font-size:8.97px;font-style:NORMAL;font-weight:normal;">blood</text>
  <text x="71.888,74.309,79.259,82.711,86.163,90.143,97.513,103.95100000000001,107.945,112.894,115.315,119.233,123.151,128.101,130.522,135.471,139.954,143.887,151.257,157.695,161.689,164.576,168.028,172.511,177.46,180.912,183.799,188.749,192.201,194.622,199.571,204.521" y="61.63099999999997" svg_rhmargin="206.942" style="fill:#171615;font-family:IJFBOG+AdvOTbc475f09;font-size:8.97px;font-style:NORMAL;font-weight:normal;">loss OR bleeding OR transfusion.</text>
  <text svg_rhmargin="211.937" x="206.988,211.937" y="61.63099999999997" style="fill:#171615;font-family:IJFBOI+AdvOTbc475f09+20;font-size:8.97px;font-style:NORMAL;font-weight:normal;">” </text>
  <text x="215.889,222.327,227.276,232.226,234.646,237.534,239.955,244.904,249.853,254.337,256.757,259.178,263.661,266.082,270.086,275.035,279.985,284.934,289.883,294.833,297.254,299.675,303.127,308.076,311.994" y="61.63099999999997" svg_rhmargin="316.943" style="fill:#171615;font-family:IJFBOG+AdvOTbc475f09;font-size:8.97px;font-style:NORMAL;font-weight:normal;">Additionally, unpublished</text>
  <text x="71.888,75.34,78.228,83.177,88.126,90.547,94.466,97.91799999999999,103.239,108.188,111.64,116.902,121.385,124.837,129.32,133.803,139.068,141.489,143.91,146.797,150.716,154.168,158.651,161.538,166.487,169.939,173.857,179.206,186.11,190.028,193.48,197.398,202.676,207.159,209.58,213.032,217.98100000000002,223.312,226.764,230.682,235.166,238.618,242.536,247.485,251.404,256.353,258.774,264.073,269.955,274.904,278.822,284.085,287.537,291.455,293.876,297.794,301.713,304.6,307.021,311.97" y="72.62900000000002" svg_rhmargin="316.919" style="fill:#171615;font-family:IJFBOG+AdvOTbc475f09;font-size:8.97px;font-style:NORMAL;font-weight:normal;">studies or gray literature were also searched. The selection</text>
  <text svg_rhmargin="298.261" x="71.888,76.838,80.29,85.239,89.158,93.076,96.528,99.98,101.878,106.827,109.714,111.572,116.056,118.476,120.897,122.797,126.249,129.136,134.086,139.035,141.456,145.374,148.826,150.746,155.696,159.148,163.066,168.01500000000001,169.908,172.329,177.27800000000002,179.149,182.036,186.985,190.90300000000002,192.812,195.232,197.653,200.54,204.459,207.911,212.394,215.281,220.23,223.683,227.601,229.491,236.395,240.878,244.32999999999998,246.215,251.164,254.616,258.535,261.987,265.905,270.854,273.741,277.66,282.60900000000004,284.538,286.959,291.908,293.778,298.261" y="83.57100000000003" style="fill:#171615;font-family:IJFBOG+AdvOTbc475f09;font-size:8.97px;font-style:NORMAL;font-weight:normal;">process of all studies used in the literature was presented in a </text>
  <text x="300.135" y="83.57100000000003" svg_rhmargin="305.084" style="fill:#171615;font-family:IJFBOH+AdvOTbc475f09+fb;font-size:8.97px;font-style:NORMAL;font-weight:normal;">ﬂ</text>
  <text x="305.123,310.073" y="83.57100000000003" svg_rhmargin="316.977" style="fill:#171615;font-family:IJFBOG+AdvOTbc475f09;font-size:8.97px;font-style:NORMAL;font-weight:normal;">ow</text>
  <text x="71.888,76.837,79.258,83.741,88.224,91.676,96.159,101.109,106.05799999999999,109.077,111.964,116.914,119.334,123.818,126.239,129.198,134.148,137.035" y="94.51300000000003" svg_rhmargin="139.456" style="fill:#171615;font-family:IJFBOG+AdvOTbc475f09;font-size:8.97px;font-style:NORMAL;font-weight:normal;">diagraph (Fig. 1).</text>
  <text x="71.888,76.837,79.258,84.207,86.628,91.106,93.527,98.656,103.605,105.748,110.877,115.36,117.503,122.73,127.85900000000001,130.903,135.852,140.981,146.396,149.384,154.334,158.817,163.766,165.909,171.038,175.521,177.664,182.891,188.01999999999998,191.052,196.002,199.265,201.408,204.296,209.245,212.509,214.652" y="116.226" svg_rhmargin="219.601" style="fill:#171615;font-family:IJFBPJ+AdvOT01861455.I;font-size:8.97px;font-style:NORMAL;font-weight:normal;">2.2. Inclusion and exclusion criteria</text>
  <text x="71.888,77.603,82.385,86.30300000000001,87.884,90.152,94.935,98.686,100.94,105.759,109.044,111.298,116.116,121.065,122.579,126.331,129.616,131.87,134.648,138.4,141.685,143.939,148.422,149.948,156.685,160.484,163.769,167.52,169.941,171.489,176.251,180.616,183.904,186.625,188.879,192.63,194.885,199.703,204.011,208.83,211.551,214.836,217.257,218.805,223.587,227.953,230.674,232.928,236.679,241.498,244.218,247.67,249.207,255.944,258.198,260.919,265.868,267.382,271.865,273.391,278.209,280.463,284.78,289.096,293.915,298.697,302.149,304.31,307.762,309.242,314.062" y="132.15700000000004" svg_rhmargin="316.949" style="fill:#171615;font-family:IJFBOG+AdvOTbc475f09;font-size:8.97px;font-style:NORMAL;font-weight:normal;">The inclusion criteria were: Participants: patients with a diagnosis of</text>
  <text x="71.888,75.63,80.449,85.222,88.0,91.276,93.988,98.295,102.602,106.52000000000001,108.726,113.544,118.306,122.104,126.022,128.227,133.001,136.277,139.055,142.797,147.57,151.936,155.212,157.924,162.697,166.149,168.31,171.031,173.277,176.72899999999998,178.946,183.253,188.027,192.976,195.171,200.014,203.308,207.069,211.86,216.186,219.48,223.24,228.18900000000002,230.384,233.105,237.897,241.349,243.566,249.29,255.57,261.85,264.271,266.443,269.172,273.964,276.693,280.454,283.748,288.073,291.834,296.625,299.355,301.618,306.409,311.201,314.495" y="143.09799999999996" svg_rhmargin="316.916" style="fill:#171615;font-family:IJFBOG+AdvOTbc475f09;font-size:8.97px;font-style:NORMAL;font-weight:normal;">end-stage knee osteoarthritis and prepared for TKA; Interventions:</text>
  <text x="71.888,74.628,79.43,83.34800000000001,85.156,87.423,92.185,94.963,98.705,101.993,106.329,110.1,114.862,117.64,119.914,124.676,129.625,131.422,135.788,139.093,143.855,148.657,153.60600000000002,155.403,158.708,162.479,166.221,169.963,172.23,176.566,180.308,185.257,187.054,189.776,194.578,198.496,200.304,205.106,208.411,212.747,215.168,216.999,219.739,224.542,227.846,235.216,237.031,241.793,244.68,246.498,250.834,255.596,258.336" y="154.03999999999996" svg_rhmargin="260.757" style="fill:#171615;font-family:IJFBOG+AdvOTbc475f09;font-size:8.97px;font-style:NORMAL;font-weight:normal;">the intervention group received the oral form of anti</text>
  <text x="260.619" y="154.03999999999996" svg_rhmargin="265.568" style="fill:#171615;font-family:IJFBOH+AdvOTbc475f09+fb;font-size:8.97px;font-style:NORMAL;font-weight:normal;">ﬁ</text>
  <text x="265.438,270.217,273.498,275.749,280.567,285.346,287.597,291.963,294.684,296.935,300.682,304.134,305.955,308.732,313.512" y="154.03999999999996" svg_rhmargin="316.964" style="fill:#171615;font-family:IJFBOG+AdvOTbc475f09;font-size:8.97px;font-style:NORMAL;font-weight:normal;">brinolytics for</text>
  <text x="71.888,76.678,81.469,84.762,87.491,92.281,97.072,100.87,104.158,108.483,111.211,113.473,117.839,121.757,126.003,130.765,133.027,137.818,142.608,147.55700000000002,151.849,159.061,163.385,168.176,172.5,176.825,180.623,187.834,191.594,196.385,199.272,203.528,207.853,210.581,213.359,217.1,220.552,224.81,230.536,236.815,243.095,245.516,249.728,256.007,260.798,268.009,272.8,277.124,280.418,282.68,285.973,290.764,295.555,298.848,301.269,305.538,308.266,313.057" y="165.038" svg_rhmargin="316.975" style="fill:#171615;font-family:IJFBOG+AdvOTbc475f09;font-size:8.97px;font-style:NORMAL;font-weight:normal;">postoperative blood management after TKA; Comparisons: the</text>
  <text x="71.888,75.631,80.449,85.224,88.002,91.279,96.053,98.474,103.027,107.392,110.669,115.444,120.262,125.211,129.73,133.007,136.805,140.549,144.292,146.538,150.904,154.646,159.595,164.17,168.653,173.183,177.958,180.204,184.57,188.313,192.056,196.875,201.65,204.071,208.623,215.879,220.641,223.353,227.151,231.926,239.182,242.926,246.203,248.624,253.176,255.897,260.716,263.437,267.746,270.167,274.719,279.537,281.805,286.579,291.398,296.34700000000004,300.865,303.133,307.951,311.229,314.506" y="175.98000000000002" svg_rhmargin="316.927" style="fill:#171615;font-family:IJFBOG+AdvOTbc475f09;font-size:8.97px;font-style:NORMAL;font-weight:normal;">control group received a placebo; Outcomes: total blood loss,</text>
  <text x="71.888,76.667,80.465,87.665,92.483,96.796,99.046,103.825,108.644,110.895,115.844,117.528,120.809,124.557,129.376,134.138,137.936,140.657,142.908,147.687,152.505,154.926,156.587,159.304,162.756,166.957,171.719,175.001,177.779,182.558,185.839,188.09,192.908,197.857,199.542,202.83,206.577,211.396,216.175,218.426,221.707,225.505,232.705,236.453,241.272,243.993,247.275,249.696,251.413,255.726,260.505,265.454,267.139,271.957,276.736,280.018,282.796,287.558,292.377,296.119,299.4,303.713,306.491,308.758,313.071" y="186.92100000000005" svg_rhmargin="316.989" style="fill:#171615;font-family:IJFBOG+AdvOTbc475f09;font-size:8.97px;font-style:NORMAL;font-weight:normal;">hemoglobin reduction, transfusion requirements, and postoperative</text>
  <text x="71.888,75.635,80.453,87.653,92.471,94.721,96.972,100.72,105.032,107.809,110.06,114.839,119.656,122.943,125.364,127.081,130.368,135.186,138.927,143.876,145.616,149.923,153.375,155.081,159.899,163.647,167.444,172.393,174.076,178.441,182.189,184.44,189.389,191.129,193.849,198.666,201.954,206.733,213.988,218.767,223.585,226.866,229.117,232.569,234.275,236.996,243.729,249.997,255.708,258.59499999999997,260.356,264.669,269.448,274.397,276.137,280.955,285.734,287.984,295.24,300.001,304.819,309.127,312.409" y="197.91899999999998" svg_rhmargin="316.892" style="fill:#171615;font-family:IJFBOG+AdvOTbc475f09;font-size:8.97px;font-style:NORMAL;font-weight:normal;">complications, such as deep vein thrombosis (DVT) and pulmonary</text>
  <text x="71.888,75.637,82.894,87.674,92.493,94.745,96.998,100.281,107.65100000000001,110.202,112.924,117.704,122.952,125.67,128.091,130.659,134.974,137.692,142.511,147.273,151.756,154.302,159.064,162.862,166.15,168.403,172.717,177.536,179.957,182.468,185.752,190.117,194.898,199.717,204.497,211.699,213.951,217.75,221.499,226.448,228.983,232.732,237.551,242.332,245.109,248.393,253.174,255.595,258.163,260.884,264.167,266.42,270.734,272.987,276.439,278.996,281.717,287.986,294.255,299.969,303.252,305.971" y="208.861" svg_rhmargin="308.392" style="fill:#171615;font-family:IJFBOG+AdvOTbc475f09;font-size:8.97px;font-style:NORMAL;font-weight:normal;">embolism (PE); Study design: randomized control trials (RCTs).</text>
  <text x="80.845,86.727,91.676,95.59400000000001,100.007,103.925,108.874,112.793,115.214,120.163,123.615,126.036,130.985,135.93400000000003,140.314,144.232,147.684,150.105,152.992,156.91,160.362,162.783,167.266,171.665,178.569,182.487,185.939,189.857,192.278,196.722,201.205,206.154,209.606,212.493,215.945,220.429,224.347,227.234,230.686,233.107,237.483,241.401,245.884,249.336,253.25400000000002,257.665,261.117,265.035,269.984,274.934,278.386,281.273,284.725,287.146,291.566,293.987,297.906,300.793,303.68,307.598,311.05,314.502" y="219.80200000000002" svg_rhmargin="316.923" style="fill:#171615;font-family:IJFBOG+AdvOTbc475f09;font-size:8.97px;font-style:NORMAL;font-weight:normal;">The exclusion criteria were: abstracts, case reports, letters,</text>
  <text x="71.888,75.806,80.755,83.176,86.063,91.013,94.465,96.886,101.369,103.79,107.242,109.66300000000001,111.855,115.773,120.722,125.672,128.559,132.477,135.929,139.848,144.797,148.715,152.633,154.883,159.366,162.818,165.706,168.126,172.045,174.466,178.384,181.836,184.257,186.46,189.912,193.83,198.779,202.698,207.181,210.068,213.986,218.935,221.098,224.55,227.438,232.387,237.336,239.757,243.676,247.128,249.54899999999998,251.769,256.252,261.201,266.15000000000003,268.322,271.774,275.692,278.58,282.032,286.981,290.433,295.382,299.301,303.219,306.106,308.527,313.01" y="230.74400000000003" svg_rhmargin="316.928" style="fill:#171615;font-family:IJFBOG+AdvOTbc475f09;font-size:8.97px;font-style:NORMAL;font-weight:normal;">editorials, conference articles, repeated studies, and retrospective</text>
  <text x="71.888,75.34,78.227,83.176,88.125,90.546,94.465,97.917" y="241.74199999999996" svg_rhmargin="100.338" style="fill:#171615;font-family:IJFBOG+AdvOTbc475f09;font-size:8.97px;font-style:NORMAL;font-weight:normal;">studies.</text>
  <text x="71.888,76.837,79.258,84.207,86.628,91.106,96.889,101.839,103.981,108.931,113.88,116.767,118.91,124.138,129.267,132.32,137.27,140.534,142.676,145.564,150.513,153.777,155.92,160.869,163.841,168.79,173.919,179.334,182.378,187.794,192.743,195.631,200.58,203.524,208.474,212.957,215.844,219.108,224.057,229.007,231.894,234.037,239.264" y="263.399" svg_rhmargin="244.393" style="fill:#171615;font-family:IJFBPJ+AdvOT01861455.I;font-size:8.97px;font-style:NORMAL;font-weight:normal;">2.3. Selection criteria and date extraction</text>
  <text x="71.888,77.949,84.978,89.92699999999999,94.389,98.982,104.111,107.115,112.244,117.373,120.944,124.396,128.824,131.425,136.553,141.682,145.78,150.908,155.006,160.135,165.263,169.361,174.49,177.494,180.095,184.578,188.995,193.658,197.289,200.861,204.942,208.573,212.205,216.302,221.251,225.657,228.718,233.847,237.76500000000001,242.181,247.309,252.438,255.443,259.525,264.654,267.659,270.259,274.921,277.521,280.072,284.555,288.973,293.055,295.655,298.255,302.848,305.448,310.577,313.177" y="279.33000000000004" svg_rhmargin="317.095" style="fill:#171615;font-family:IJFBOG+AdvOTbc475f09;font-size:8.97px;font-style:NORMAL;font-weight:normal;">Two authors independently assessed the potentially eligible</text>
  <text x="71.888,75.507,78.562,83.679,88.796,91.347,95.433,99.053,101.474,103.361,108.464,111.015,114.634,118.254,121.309,123.897,128.49,130.911,132.798,135.859,140.976,144.894,146.759,149.814,152.365,155.419,158.008,162.094,165.546,167.366,172.017,177.134,182.083,183.937,188.586,193.703,197.322,200.377,203.997,208.648,212.734,215.738,219.19,221.068,228.14,232.226,235.845,239.763,241.571,245.191,249.277,252.896,256.982,261.068,266.185,270.271,275.22,277.075,280.13,285.079,286.932,291.018,296.135,300.221,302.81,307.927,313.044" y="290.271" svg_rhmargin="316.962" style="fill:#171615;font-family:IJFBOG+AdvOTbc475f09;font-size:8.97px;font-style:NORMAL;font-weight:normal;">studies. Firstly, the titles and abstracts were screened to exclude</text>
  <text x="71.888,74.935,80.045,83.96300000000001,86.622,91.732,96.842,101.952,104.533,107.114,111.193,115.837,118.884,122.963,127.91199999999999,130.56,135.204,140.314,145.263,147.911,152.56,157.67,162.78,167.423,171.036,175.115,180.225,183.272,185.854,190.33700000000002,192.997,195.579,199.191,202.804,206.882,209.464,213.542,218.186,222.83,227.94,230.827,233.495,238.605,243.715,247.794,251.246,253.859,259.019,262.471,265.085,268.146,273.256,278.366,281.979,285.897,288.555,291.617,296.726,301.37,304.257,306.926,312.028" y="301.269" svg_rhmargin="316.977" style="fill:#171615;font-family:IJFBOG+AdvOTbc475f09;font-size:8.97px;font-style:NORMAL;font-weight:normal;">the duplicated and apparently irrelevant ones or those that do</text>
  <text svg_rhmargin="316.911" x="71.888,76.997,82.107,84.994,90.214,97.745,101.823,105.902,108.789,113.952,119.062,124.172,127.624,132.788,135.37,140.48,144.558,147.14,152.25,155.862,158.444,163.554,168.50300000000001,173.701,177.782,181.395,183.976,187.024,191.102,194.715,197.296,201.94,204.361,209.536,216.135,219.182,222.23,226.309,229.761,234.925,237.985,243.095,247.174,252.284,254.70499999999998,259.88,262.928,268.038,271.956,277.165,280.792,284.871,292.402,297.045,299.627,304.737,307.318,312.428,316.911" y="39.74400000000003" style="fill:#171615;font-family:IJFBOG+AdvOTbc475f09;font-size:8.97px;font-style:NORMAL;font-weight:normal;">not meet our inclusion criteria. After then, the remaining </text>
  <text x="331.939,337.049,342.159,345.206,349.285,354.395,357.443,360.024,364.668,367.089,369.259,372.872,375.919,381.029,386.139,388.721,392.799,396.251,398.411,405.476,409.555,413.167,417.085,419.232,422.28,427.39,429.971,432.552,435.6,438.648,442.726,447.836,450.723,452.938,458.048,463.158,470.222,475.332,477.914,483.024,487.667,492.777,496.856,501.805,503.998,508.647,513.756,518.7049999999999,520.899,524.512,528.59,533.234,535.815,539.894,546.959,551.038,556.148,558.5690000000001,560.739,567.315,572.425" y="39.74400000000003" svg_rhmargin="576.908" style="fill:#171615;font-family:IJFBOG+AdvOTbc475f09;font-size:8.97px;font-style:NORMAL;font-weight:normal;">potential studies were full-text downloaded and reviewed. Any</text>
  <text x="331.939,337.049,339.63,343.243,347.886,352.53,356.143,360.221,364.3,371.831,375.91,381.069,383.956,386.398,391.558,395.636,398.684,405.749,409.827,413.906,418.855,421.333,426.28200000000004,428.76,433.409,438.519,443.628,448.272,452.19,454.678,459.328,464.437,467.485,472.595,477.705,481.317,484.769,487.27,494.357,499.001,502.453,504.897,508.509,512.588,517.698,520.5849999999999,523.084,527.728,532.838,537.7869999999999,540.265,545.367,547.949,551.561,555.64,560.75,564.363,567.975,572.054" y="50.684999999999945" svg_rhmargin="577.003" style="fill:#171615;font-family:IJFBOG+AdvOTbc475f09;font-size:8.97px;font-style:NORMAL;font-weight:normal;">disagreement between 2 above authors was sent and discussed</text>
  <text x="331.939,339.003,341.585,344.632,349.581,351.492,354.539,359.649,363.567,365.431,370.533,374.145,379.094,381.004,383.586,388.696,393.805,397.884,402.994,407.073,412.183,417.293,421.371,426.481,429.368,431.3,435.943,441.053,444.101,449.211,454.321,457.933,460.354,462.241,468.306,475.37,480.319,482.172,485.784,489.863,494.507,497.088,501.167,508.232,512.31,515.923,519.375,521.308,523.858,528.968,534.126,538.205,543.315,547.394,552.504,557.614,561.693,566.802,569.85,572.432" y="61.62699999999995" svg_rhmargin="576.915" style="fill:#171615;font-family:IJFBOG+AdvOTbc475f09;font-size:8.97px;font-style:NORMAL;font-weight:normal;">with the 3rd independent author. Two reviewers independently</text>
  <text x="331.939,336.024,341.14,344.194,347.765,352.415,356.5,359.554,363.639,368.588,371.179,376.282,380.932,383.986,388.636,391.057,393.624,400.062,402.638,406.267,409.321,413.971,419.087,424.203,428.853,432.424,437.373,439.964,443.018,448.134,451.753,459.123,461.731,468.76,473.409,476.861,479.475,484.578,488.197,492.282,497.398,499.819,502.387,505.441,510.557,514.475,517.076,521.158,526.274,529.328,532.946,537.539,541.624,544.678,548.763,553.712,556.304,558.891,561.945,566.03,573.567" y="72.625" svg_rhmargin="577.019" style="fill:#171615;font-family:IJFBOG+AdvOTbc475f09;font-size:8.97px;font-style:NORMAL;font-weight:normal;">extracted data. A standard form was used; the extracted items</text>
  <text x="331.939,334.52,339.63,343.709,346.29,351.4,356.51,360.589,365.538,370.624,373.685,378.795,382.713,387.752,390.8,395.91,398.491,401.073,406.183,413.247,415.828,420.938,425.582,428.003,433.065,436.113,441.223,445.141,450.237,454.886,458.964,464.074,468.153,471.766,476.409,478.83,483.893,487.505,490.553,495.663,500.772,505.255,510.296,512.878,517.988,521.035,526.145,529.758,537.289,541.932,544.98,547.562,552.671,557.781,560.202,565.322,568.37,573.529" y="83.56700000000001" svg_rhmargin="576.981" style="fill:#171615;font-family:IJFBOG+AdvOTbc475f09;font-size:8.97px;font-style:NORMAL;font-weight:normal;">included the following: the general study information, for</text>
  <text x="331.939,336.01,341.113,345.75,353.273,358.433,360.983,365.055,367.476,373.048,376.089,381.192,385.11,390.659,395.308,400.411,403.451,408.554,413.657,417.262,420.867,423.288,428.861,433.964,439.066,444.169,446.743,449.318,452.923,458.082,460.633,465.736,470.219,475.771,480.874,485.51,488.55,492.622,495.043,500.616,504.244,507.285,512.444,517.547,522.03,527.582,532.684,536.756,540.361,542.935,547.572,552.675,555.096,560.668,564.75,569.386,572.991" y="94.50800000000004" svg_rhmargin="576.909" style="fill:#171615;font-family:IJFBOG+AdvOTbc475f09;font-size:8.97px;font-style:NORMAL;font-weight:normal;">example, the authors, publishing date, study design, case</text>
  <text x="331.939,337.047,342.155,349.684,354.792,358.869,362.48,364.901,366.846,371.487,376.129,380.206,382.627,384.628,389.27,393.347,398.506,403.609,407.686,411.297,413.718,415.662,420.311,425.42,430.369,432.336,435.382,440.49,443.07,445.649,450.757,457.82,460.866,465.974,470.923,472.891,475.952,480.029,483.639,491.168,493.589,495.534,504.659,509.767,513.844,518.952,523.029,527.671,531.748,535.2,537.19,542.299,546.375,550.452,554.529,558.14,561.751,566.393,570.003,574.645" y="105.50599999999997" svg_rhmargin="577.066" style="fill:#171615;font-family:IJFBOG+AdvOTbc475f09;font-size:8.97px;font-style:NORMAL;font-weight:normal;">number, age, gender, and follow-up term. Whenever necessary,</text>
  <text x="331.939,339.002,342.92,346.541,350.618,355.726,360.835,363.88,368.522,372.599,375.645,379.722,384.671,388.283,391.344,396.452,400.37,403.992,408.634,413.742,416.788,421.896,427.004,430.615,434.067,437.644,442.803,445.69,449.266,452.327,457.435,461.353,464.975,468.586,471.632,476.74,481.848,484.428,488.505,491.957,495.534,498.58,503.688,507.14,510.775,513.836,518.944,522.862,526.484,534.013,536.592,540.203,543.814,546.393,551.502,555.9849999999999,559.609,564.717,569.359,572.405" y="116.44799999999998" svg_rhmargin="576.888" style="fill:#171615;font-family:IJFBOG+AdvOTbc475f09;font-size:8.97px;font-style:NORMAL;font-weight:normal;">we contacted the authors of the studies for the missing data</text>
  <text x="331.939,336.575,341.735,346.684,349.842,354.491,359.594,364.696,367.271,370.311,372.885,377.988,383.091,387.727,390.14799999999997,393.34,395.947,401.05,404.091,409.193,412.799,420.322,424.959,427.999,430.574,435.676,440.779,443.2,446.392,451.495,455.1,457.674,465.281,469.924,473.536,478.019,481.189,486.298,491.407,494.454,498.532,503.641,511.171,515.249,518.701,521.882,524.49,529.599,533.677,536.258,541.417,546.526,550.604,555.553,558.711,561.772,566.881,569.928,574.571" y="127.38999999999999" svg_rhmargin="576.992" style="fill:#171615;font-family:IJFBOG+AdvOTbc475f09;font-size:8.97px;font-style:NORMAL;font-weight:normal;">and additional information. Primary outcomes included total</text>
  <text x="331.939,337.046,339.625,344.732,349.891,354.84000000000003,361.626,364.177,369.284,372.894,376.504,378.925,385.745,390.852,394.928,402.456,407.563,412.204,414.783,419.89,425.049,427.628,432.577,439.363,442.973,447.049,452.156,457.264,461.34,464.385,466.963,472.071,477.178,479.599,486.418,491.059,496.167,501.116,507.902,510.963,514.573,519.214,524.373,527.944,530.989,536.096,539.706,542.285,547.392,552.341,559.127,562.737,567.378,570.423,574.499" y="138.38800000000003" svg_rhmargin="576.92" style="fill:#171615;font-family:IJFBOG+AdvOTbc475f09;font-size:8.97px;font-style:NORMAL;font-weight:normal;">blood loss, hemoglobin reduction, and transfusion rate.</text>
  <text x="331.939,336.582,340.66,344.737,349.897,355.006,360.115,364.757,368.369,372.85200000000003,377.156,382.315,387.418,390.465,394.543,399.652,407.182,411.259,414.711,418.97,426.033,430.111,433.723,437.641,441.943,447.052,452.161,455.773,458.819,463.928,469.037,473.115,476.727,481.37,484.416,486.997,491.64,495.558,499.86,503.938,509.047,516.577,521.736,524.317,526.897,530.975,535.618,538.664,541.245,546.354,551.463,554.915,559.23,562.841,567.95,572.028" y="149.32899999999995" svg_rhmargin="576.977" style="fill:#171615;font-family:IJFBOG+AdvOTbc475f09;font-size:8.97px;font-style:NORMAL;font-weight:normal;">Secondary outcomes were postoperative complications such</text>
  <text x="331.939,336.572,340.024,342.922,349.976,356.563,362.445,365.294,369.943,375.042,379.991,382.808,387.907,393.473" y="160.27099999999996" svg_rhmargin="395.894" style="fill:#171615;font-family:IJFBOG+AdvOTbc475f09;font-size:8.97px;font-style:NORMAL;font-weight:normal;">as DVT and PE.</text>
  <text x="331.939,336.888,339.309,344.259,346.68,351.157,357.882,363.011,367.96,370.103,372.246,375.133,379.616,382.621,387.57,392.053,396.537,401.486,405.969,410.452,418.388,423.337,428.466" y="186.91700000000003" svg_rhmargin="431.353" style="fill:#171615;font-family:IJFBPJ+AdvOT01861455.I;font-size:8.97px;font-style:NORMAL;font-weight:normal;">2.4. Quality assessment</text>
  <text x="331.939,339.309,344.259,348.742,351.163,353.584,356.471,360.954,364.31,368.793,372.245,375.697,379.615,383.067,386.519,393.89,397.808,402.757,405.644,409.039,411.926,416.876,420.328,423.722,426.61,431.559,435.47700000000003,438.859,441.28,446.23,450.148,452.569,457.518,462.468,466.386,471.33500000000004,474.745,479.228,482.68,485.568,487.988,491.907,494.328,498.246,501.698,505.075,511.979,516.462,519.914,523.273,525.693,530.643,535.592,539.511,544.46,548.378,553.328,558.277,562.195,567.145,570.032,572.453" y="202.84699999999998" svg_rhmargin="576.936" style="fill:#171615;font-family:IJFBOG+AdvOTbc475f09;font-size:8.97px;font-style:NORMAL;font-weight:normal;">Quality assessment for the included articles was independently</text>
  <text x="331.939,335.857,340.34,344.823,347.244,352.194,356.677,359.564,363.482,368.43100000000004,372.87,377.819,382.302,386.703,391.652,396.114,399.566,403.485,407.968,410.389,414.307,421.211,425.129,428.581,432.033,436.479,443.383,448.332,450.753,454.671,459.62,464.088,469.037,472.489,476.408,481.357,485.744,488.631,493.581,497.499,501.958,508.396,513.345,517.263,522.213,525.665,530.148,535.097,539.015,543.456,549.894,554.843,557.264,559.685,564.168,569.117,574.067" y="213.84500000000003" svg_rhmargin="576.954" style="fill:#171615;font-family:IJFBOG+AdvOTbc475f09;font-size:8.97px;font-style:NORMAL;font-weight:normal;">evaluated by 2 reviewers which used the Cochrane Collabo-</text>
  <text x="331.939,335.391,339.874,342.761,345.182,350.132" y="224.78700000000003" svg_rhmargin="355.081" style="fill:#171615;font-family:IJFBOG+AdvOTbc475f09;font-size:8.97px;font-style:NORMAL;font-weight:normal;">ration</text>
  <text x="355.069" y="224.78700000000003" svg_rhmargin="357.49" style="fill:#171615;font-family:IJFBOI+AdvOTbc475f09+20;font-size:8.97px;font-style:NORMAL;font-weight:normal;">’</text>
  <text svg_rhmargin="446.743" x="357.507,360.959,363.8,366.687,371.636,376.586,379.007,381.428,384.265,393.232,397.15000000000003,399.969,403.887,408.837,413.786,418.735,423.685,427.603,430.49,434.408,439.357,442.26,446.743" y="224.78700000000003" style="fill:#171615;font-family:IJFBOG+AdvOTbc475f09;font-size:8.97px;font-style:NORMAL;font-weight:normal;">s tool. We conducted a </text>
  <text x="449.577" y="224.78700000000003" svg_rhmargin="454.526" style="fill:#171615;font-family:IJFBOI+AdvOTbc475f09+20;font-size:8.97px;font-style:NORMAL;font-weight:normal;">“</text>
  <text x="454.509,457.961,460.382,463.834,468.783,471.63,476.58,479.467,482.289,487.238,489.659,494.142" y="224.78700000000003" svg_rhmargin="497.594" style="fill:#171615;font-family:IJFBOG+AdvOTbc475f09;font-size:8.97px;font-style:NORMAL;font-weight:normal;">risk of bias</text>
  <text svg_rhmargin="502.545" x="497.596,502.545" y="224.78700000000003" style="fill:#171615;font-family:IJFBOI+AdvOTbc475f09+20;font-size:8.97px;font-style:NORMAL;font-weight:normal;">” </text>
  <text x="505.42,508.307,512.79,517.74,520.16,524.078,526.906,529.327,534.276,538.194,540.615,545.565,550.514,552.935,557.884,562.367,565.229,568.116,573.065" y="224.78700000000003" svg_rhmargin="576.983" style="fill:#171615;font-family:IJFBOG+AdvOTbc475f09;font-size:8.97px;font-style:NORMAL;font-weight:normal;">table including the</text>
  <text x="331.939,334.826,339.775,342.196,344.617,349.567,356.471,358.892,363.841,368.324,372.36,377.309,381.228,385.711,389.821,394.77,399.72,402.141,407.09,409.977,413.429,415.84999999999997,419.923,423.375,427.859,432.808,437.757,442.707,450.077,454.108,457.56,461.479,466.428,471.377,475.296,480.245,484.163,488.081,492.148,496.631,500.549,505.499,509.417,512.869,517.352,520.239,522.66,527.61,532.559,534.98,539.088,543.571,545.992,548.413,553.363,557.281,561.764,564.651,567.072,572.021" y="235.72799999999995" svg_rhmargin="576.97" style="fill:#171615;font-family:IJFBOG+AdvOTbc475f09;font-size:8.97px;font-style:NORMAL;font-weight:normal;">following key points: random sequence generation, allocation</text>
  <text x="331.939,335.857,340.807,345.756,349.674,353.593,358.076,360.497,367.867,371.785,376.735,379.622,382.043,383.981,388.931,391.351,393.772,398.722,403.671,406.092,411.041,415.525,417.94599999999997,419.923,422.344,427.294,431.212,436.161,443.532,448.481,450.902,454.82,457.707,461.625,463.632,468.582,473.531,476.418,480.337,485.286,492.656,496.574,498.497,503.446,507.929,510.817,515.3,517.721,519.7,522.587,526.039,529.957,533.875,535.8,540.75,543.637,545.608,549.06,552.978,555.399,559.317,563.235,566.122,568.543,573.027" y="246.72699999999998" svg_rhmargin="576.945" style="fill:#171615;font-family:IJFBOG+AdvOTbc475f09;font-size:8.97px;font-style:NORMAL;font-weight:normal;">concealment, blinding, incomplete outcome data, free of selective</text>
  <text svg_rhmargin="548.351" x="331.939,335.391,339.309,344.259,349.208,352.66,355.547,357.968,362.917,367.4,369.922,374.405,379.355,384.30400000000003,386.816,391.766,394.653,399.602,403.521,406.973,409.493,414.442,416.863,421.346,424.798,427.219,429.732,434.215,439.164,444.113,446.626,450.544,455.027,458.946,463.89500000000004,466.411,468.832,471.719,475.637,483.007,485.516,492.42,496.904,500.356,502.864,506.316,510.234,514.152,519.102,522.554,527.503,531.421,536.37,538.919,543.868,548.351" y="257.668" style="fill:#171615;font-family:IJFBOG+AdvOTbc475f09;font-size:8.97px;font-style:NORMAL;font-weight:normal;">reporting and other bias, and each item was recorded by </text>
  <text x="550.831" y="257.668" svg_rhmargin="555.78" style="fill:#171615;font-family:IJFBOI+AdvOTbc475f09+20;font-size:8.97px;font-style:NORMAL;font-weight:normal;">“</text>
  <text x="555.82,562.258,566.176,569.628" y="257.668" svg_rhmargin="572.049" style="fill:#171615;font-family:IJFBOG+AdvOTbc475f09;font-size:8.97px;font-style:NORMAL;font-weight:normal;">Yes,</text>
  <text x="572.035" y="257.668" svg_rhmargin="576.984" style="fill:#171615;font-family:IJFBOI+AdvOTbc475f09+20;font-size:8.97px;font-style:NORMAL;font-weight:normal;">”</text>
  <text x="331.94" y="268.61" svg_rhmargin="336.889" style="fill:#171615;font-family:IJFBOI+AdvOTbc475f09+20;font-size:8.97px;font-style:NORMAL;font-weight:normal;">“</text>
  <text x="336.872,344.242,349.192" y="268.61" svg_rhmargin="351.613" style="fill:#171615;font-family:IJFBOG+AdvOTbc475f09;font-size:8.97px;font-style:NORMAL;font-weight:normal;">No,</text>
  <text svg_rhmargin="356.562" x="351.613,356.562" y="268.61" style="fill:#171615;font-family:IJFBOI+AdvOTbc475f09+20;font-size:8.97px;font-style:NORMAL;font-weight:normal;">” </text>
  <text svg_rhmargin="366.931" x="358.529,363.479,366.931" y="268.61" style="fill:#171615;font-family:IJFBOG+AdvOTbc475f09;font-size:8.97px;font-style:NORMAL;font-weight:normal;">or </text>
  <text x="368.848" y="268.61" svg_rhmargin="373.797" style="fill:#171615;font-family:IJFBOI+AdvOTbc475f09+20;font-size:8.97px;font-style:NORMAL;font-weight:normal;">“</text>
  <text x="373.78,380.218,385.167,389.086,391.507,395.425,399.908,403.36" y="268.61" svg_rhmargin="405.781" style="fill:#171615;font-family:IJFBOG+AdvOTbc475f09;font-size:8.97px;font-style:NORMAL;font-weight:normal;">Unclear.</text>
  <text svg_rhmargin="410.76" x="405.811,410.76" y="268.61" style="fill:#171615;font-family:IJFBOI+AdvOTbc475f09+20;font-size:8.97px;font-style:NORMAL;font-weight:normal;">” </text>
  <text x="412.728,418.144,422.627,426.545,431.494,433.42,436.872,439.293,442.745,447.694,449.634,454.584,457.471,459.442,464.391,466.812,471.295,474.747,476.676,479.097,481.984,485.902,493.272,495.271,502.175,506.658,510.11,512.051,514.938,519.888,523.806,528.755,530.703,535.652,539.104,543.023,546.475,550.393,555.342,558.23,562.148,567.097,569.026,573.509" y="268.61" svg_rhmargin="576.961" style="fill:#171615;font-family:IJFBOG+AdvOTbc475f09;font-size:8.97px;font-style:NORMAL;font-weight:normal;">Each risk of bias item was then presented as</text>
  <text x="331.941,336.424,338.291,343.24,347.158,350.61,354.529,358.447,363.396,366.283,370.767,375.25,379.168,381.092,385.575,389.494,392.946,397.895,401.347,404.799,406.66,411.143,413.564,415.985,417.885,420.305,425.255,429.173,431.594,436.543,441.493,445.411,450.36,452.296,455.748,458.635,463.585,468.534,470.955,474.873,478.326,480.747,482.626,488.508,493.457,497.375,499.293,504.243,508.161,511.613,515.531,519.449,524.399,527.286,531.769,536.252,540.17,542.038,544.459,549.409,554.358,556.779,560.697,565.18,568.067,571.986" y="279.60799999999995" svg_rhmargin="576.935" style="fill:#171615;font-family:IJFBOG+AdvOTbc475f09;font-size:8.97px;font-style:NORMAL;font-weight:normal;">a percentage across all included studies. The percentage indicated</text>
  <text x="331.941,334.828,339.777,343.695,346.284,351.234,354.686,359.635,364.584,369.534,372.986,375.873,378.294,383.243,388.192,390.787,395.736,398.623,401.218,406.167,408.588,411.475,414.363,418.281,421.733,425.651,430.601,433.488,436.083,438.503,442.422,446.905,450.823,453.244,456.696,459.326,464.275,466.696,471.179,474.631,477.241,480.693,483.113,486.566,491.515,494.078,496.966,501.915,505.367,507.968,511.886,516.37,520.288,525.237,527.867,530.288,533.175,537.093,544.464,546.8850000000001,549.466,552.353,555.2399999999999,557.857,560.744,565.693,569.611,573.063" y="290.549" svg_rhmargin="576.981" style="fill:#171615;font-family:IJFBOG+AdvOTbc475f09;font-size:8.97px;font-style:NORMAL;font-weight:normal;">the proportion of different levels bias risk for each item. If there</text>
  <text x="331.941,338.845,343.328,346.78,350.025,354.974,357.395,360.847,365.33,369.814,373.266,377.184,381.102,388.472,392.391,397.34,400.227,403.485,408.434,412.352,415.239,422.144,426.062,429.98,434.92900000000003,438.236,443.185,446.4,449.852,453.77,458.254,460.674,464.593,471.497,475.415,478.867,482.319,484.74,488.011,491.929,496.879,501.828,505.28,509.198,514.148,517.6,522.549,526.001,529.282,536.186,540.669,544.121,547.366,550.818,554.736,559.219,563.138,568.087,572.005" y="301.491" svg_rhmargin="576.954" style="fill:#171615;font-family:IJFBOG+AdvOTbc475f09;font-size:8.97px;font-style:NORMAL;font-weight:normal;">was disagreement between 2 reviewers, consensus was reached</text>
  <text x="331.941,334.828,339.777,343.229,348.179,353.128,357.611,362.56,365.559,370.508,372.929,376.381,380.3,385.249,388.701,392.153,394.574,399.523,404.473" y="312.432" svg_rhmargin="406.894" style="fill:#171615;font-family:IJFBOG+AdvOTbc475f09;font-size:8.97px;font-style:NORMAL;font-weight:normal;">through discussion.</text>
  <path d=" M 71.88700103759766 463.8609924316406 L 577.02099609375 463.8609924316406 L 577.02099609375 464.5979919433594 L 71.88700103759766 464.5979919433594 Z " style="fill:none;stroke:#000000;stroke-width:1.0;"/>
  <path d=" M 71.88700103759766 84.302001953125 L 577.02099609375 84.302001953125 L 577.02099609375 85.03903198242188 L 71.88700103759766 85.03903198242188 Z " style="fill:none;stroke:#000000;stroke-width:1.0;"/>
  <path d=" M 177.39999389648438 405.3349914550781 L 302.5469970703125 405.3349914550781 L 302.5469970703125 443.6709899902344 L 177.39999389648438 443.6709899902344 Z " style="fill:none;stroke:#000000;stroke-width:1.0;"/>
  <text x="183.518,188.74,192.215,195.691,199.605,202.212,206.126,209.171,211.122,213.298,217.212,220.688,224.602,226.778,228.954,231.56,233.736,237.212,241.126,243.078,245.254,249.168,251.774,255.688,259.602,263.516,267.431,269.382,273.297,276.772,278.948,282.424,286.338,289.813,292.858,296.334" y="368.993" svg_rhmargin="298.291" style="fill:#171615;font-family:IJFCKM+TimesNewRomanPSMT;font-size:7.83px;font-style:NORMAL;font-weight:normal;">Records identified through database </text>
  <text x="224.977,228.022,231.498,234.973,237.58,241.055,244.969,247.145,251.059" y="377.978" svg_rhmargin="254.974" style="fill:#171615;font-family:IJFCKM+TimesNewRomanPSMT;font-size:7.83px;font-style:NORMAL;font-weight:normal;">searching</text>
  <text x="226.347,228.962,232.885,234.85,239.273,243.196,247.119,251.041,253.61" y="387.049" svg_rhmargin="255.567" style="fill:#171615;font-family:IJFCKM+TimesNewRomanPSMT;font-size:7.83px;font-style:NORMAL;font-weight:normal;">(n =459) </text>
  <path d=" M 132.47500610351562 292.42498779296875 C 132.47500610351562 290.8840026855469 133.71600341796875 289.64398193359375 135.25601196289062 289.64398193359375 L 146.3800048828125 289.64398193359375 C 147.92100524902344 289.64398193359375 149.1610107421875 290.8840026855469 149.1610107421875 292.42498779296875 L 149.1610107421875 363.8769836425781 C 149.1610107421875 365.4169921875 147.92100524902344 366.656982421875 146.3800048828125 366.656982421875 L 135.25601196289062 366.656982421875 C 133.71600341796875 366.656982421875 132.47500610351562 365.4169921875 132.47500610351562 363.8769836425781" style="fill:none;stroke:#0a0806;stroke-width:0.5350000262260437;"/>
  <path d="M132.475 507.575 C132.475 509.115 133.716 510.356 135.256 510.356 L146.38 510.356 C147.921 510.356 149.161 509.115 149.161 507.575 L149.161 436.123 C149.161 434.583 147.921 433.343 146.38 433.343 L135.256 433.343 C133.716 433.343 132.475 434.583 132.475 436.123 " style="fill:none;stroke:#0a0806;stroke-width:0.5350000262260437;"/>
  <text svg_rhmargin="144.113" transform="matrix(0.0,-1.0,1.0,0.0,-344.979,633.205)" x="144.113" y="489.092" style="fill:#171615;font-family:IJFCKN+Calibri-Bold;font-size:1.0px;font-style:NORMAL;font-weight:BOLD;">S</text>
  <text svg_rhmargin="144.113" transform="matrix(0.0,-1.0,1.0,0.0,-340.935,629.161)" x="144.113" y="485.048" style="fill:#171615;font-family:IJFCKN+Calibri-Bold;font-size:1.0px;font-style:NORMAL;font-weight:BOLD;">c</text>
  <text svg_rhmargin="144.113" transform="matrix(0.0,-1.0,1.0,0.0,-337.361,625.587)" x="144.113" y="481.474" style="fill:#171615;font-family:IJFCKN+Calibri-Bold;font-size:1.0px;font-style:NORMAL;font-weight:BOLD;">r</text>
  <text svg_rhmargin="144.113" transform="matrix(0.0,-1.0,1.0,0.0,-334.327,622.553)" x="144.113" y="478.44" style="fill:#171615;font-family:IJFCKN+Calibri-Bold;font-size:1.0px;font-style:NORMAL;font-weight:BOLD;">e</text>
  <text svg_rhmargin="144.113" transform="matrix(0.0,-1.0,1.0,0.0,-330.026,618.252)" x="144.113" y="474.139" style="fill:#171615;font-family:IJFCKN+Calibri-Bold;font-size:1.0px;font-style:NORMAL;font-weight:BOLD;">e</text>
  <text svg_rhmargin="144.113" transform="matrix(0.0,-1.0,1.0,0.0,-325.725,613.951)" x="144.113" y="469.838" style="fill:#171615;font-family:IJFCKN+Calibri-Bold;font-size:1.0px;font-style:NORMAL;font-weight:BOLD;">n</text>
  <text svg_rhmargin="144.113" transform="matrix(0.0,-1.0,1.0,0.0,-321.133,609.359)" x="144.113" y="465.246" style="fill:#171615;font-family:IJFCKN+Calibri-Bold;font-size:1.0px;font-style:NORMAL;font-weight:BOLD;">i</text>
  <text svg_rhmargin="144.113" transform="matrix(0.0,-1.0,1.0,0.0,-319.032,607.258)" x="144.113" y="463.145" style="fill:#171615;font-family:IJFCKN+Calibri-Bold;font-size:1.0px;font-style:NORMAL;font-weight:BOLD;">n</text>
  <text svg_rhmargin="144.113" transform="matrix(0.0,-1.0,1.0,0.0,-314.44,602.666)" x="144.113" y="458.553" style="fill:#171615;font-family:IJFCKN+Calibri-Bold;font-size:1.0px;font-style:NORMAL;font-weight:BOLD;">g</text>
  <text svg_rhmargin="144.113" transform="matrix(0.0,-1.0,1.0,0.0,-310.387,598.613)" y="454.5" x="" style="fill:#171615;font-family:IJFCKN+Calibri-Bold;font-size:1.0px;font-style:NORMAL;font-weight:BOLD;"/>
  <path d=" M 132.47500610351562 112.72699737548828 C 132.47500610351562 111.18699645996094 133.71600341796875 109.94499969482422 135.25601196289062 109.94499969482422 L 146.3800048828125 109.94499969482422 C 147.92100524902344 109.94499969482422 149.1610107421875 111.18699645996094 149.1610107421875 112.72699737548828 L 149.1610107421875 184.1790008544922 C 149.1610107421875 185.718994140625 147.92100524902344 186.95899963378906 146.3800048828125 186.95899963378906 L 135.25601196289062 186.95899963378906 C 133.71600341796875 186.95899963378906 132.47500610351562 185.718994140625 132.47500610351562 184.1790008544922" style="fill:none;stroke:#0a0806;stroke-width:0.5350000262260437;"/>
  <path d="M132.475 507.575 C132.475 509.115 133.716 510.356 135.256 510.356 L146.38 510.356 C147.921 510.356 149.161 509.115 149.161 507.575 L149.161 436.123 C149.161 434.583 147.921 433.343 146.38 433.343 L135.256 433.343 C133.716 433.343 132.475 434.583 132.475 436.123 L132.475 507.575 M132.475 687.273 C132.475 688.813 133.716 690.055 135.256 690.055 L146.38 690.055 C147.921 690.055 149.161 688.813 149.161 687.273 L149.161 615.82 C149.161 614.281 147.921 613.041 146.38 613.041 L135.256 613.041 C133.716 613.041 132.475 614.281 132.475 615.82 " style="fill:none;stroke:#0a0806;stroke-width:0.5350000262260437;"/>
  <text svg_rhmargin="144.114" transform="matrix(0.0,-1.0,1.0,0.0,-522.709,810.937)" x="144.114" y="666.823" style="fill:#171615;font-family:IJFCKN+Calibri-Bold;font-size:1.0px;font-style:NORMAL;font-weight:BOLD;">I</text>
  <text svg_rhmargin="144.114" transform="matrix(0.0,-1.0,1.0,0.0,-520.426,808.654)" x="144.114" y="664.54" style="fill:#171615;font-family:IJFCKN+Calibri-Bold;font-size:1.0px;font-style:NORMAL;font-weight:BOLD;">n</text>
  <text svg_rhmargin="144.114" transform="matrix(0.0,-1.0,1.0,0.0,-515.832,804.06)" x="144.114" y="659.946" style="fill:#171615;font-family:IJFCKN+Calibri-Bold;font-size:1.0px;font-style:NORMAL;font-weight:BOLD;">c</text>
  <text svg_rhmargin="144.114" transform="matrix(0.0,-1.0,1.0,0.0,-512.257,800.485)" x="144.114" y="656.371" style="fill:#171615;font-family:IJFCKN+Calibri-Bold;font-size:1.0px;font-style:NORMAL;font-weight:BOLD;">l</text>
  <text svg_rhmargin="144.114" transform="matrix(0.0,-1.0,1.0,0.0,-510.154,798.382)" x="144.114" y="654.268" style="fill:#171615;font-family:IJFCKN+Calibri-Bold;font-size:1.0px;font-style:NORMAL;font-weight:BOLD;">u</text>
  <text svg_rhmargin="144.114" transform="matrix(0.0,-1.0,1.0,0.0,-505.56,793.788)" x="144.114" y="649.674" style="fill:#171615;font-family:IJFCKN+Calibri-Bold;font-size:1.0px;font-style:NORMAL;font-weight:BOLD;">d</text>
  <text svg_rhmargin="144.114" transform="matrix(0.0,-1.0,1.0,0.0,-500.967,789.195)" x="144.114" y="645.081" style="fill:#171615;font-family:IJFCKN+Calibri-Bold;font-size:1.0px;font-style:NORMAL;font-weight:BOLD;">e</text>
  <text svg_rhmargin="144.114" transform="matrix(0.0,-1.0,1.0,0.0,-496.664,784.892)" x="144.114" y="640.778" style="fill:#171615;font-family:IJFCKN+Calibri-Bold;font-size:1.0px;font-style:NORMAL;font-weight:BOLD;">d</text>
  <text svg_rhmargin="144.114" transform="matrix(0.0,-1.0,1.0,0.0,-492.071,780.299)" y="636.185" x="" style="fill:#171615;font-family:IJFCKN+Calibri-Bold;font-size:1.0px;font-style:NORMAL;font-weight:BOLD;"/>
  <path d=" M 132.47500610351562 202.5760040283203 C 132.47500610351562 201.0360107421875 133.71600341796875 199.7949981689453 135.25601196289062 199.7949981689453 L 146.3800048828125 199.7949981689453 C 147.92100524902344 199.7949981689453 149.1610107421875 201.0360107421875 149.1610107421875 202.5760040283203 L 149.1610107421875 274.02801513671875 C 149.1610107421875 275.5679931640625 147.92100524902344 276.80902099609375 146.3800048828125 276.80902099609375 L 135.25601196289062 276.80902099609375 C 133.71600341796875 276.80902099609375 132.47500610351562 275.5679931640625 132.47500610351562 274.02801513671875" style="fill:none;stroke:#0a0806;stroke-width:0.5350000262260437;"/>
  <path d="M132.475 687.273 C132.475 688.813 133.716 690.055 135.256 690.055 L146.38 690.055 C147.921 690.055 149.161 688.813 149.161 687.273 L149.161 615.82 C149.161 614.281 147.921 613.041 146.38 613.041 L135.256 613.041 C133.716 613.041 132.475 614.281 132.475 615.82 L132.475 687.273 M132.475 597.423 C132.475 598.963 133.716 600.205 135.256 600.205 L146.38 600.205 C147.921 600.205 149.161 598.963 149.161 597.423 L149.161 525.971 C149.161 524.432 147.921 523.19 146.38 523.19 L135.256 523.19 C133.716 523.19 132.475 524.432 132.475 525.971 " style="fill:none;stroke:#0a0806;stroke-width:0.5350000262260437;"/>
  <text svg_rhmargin="144.113" transform="matrix(0.0,-1.0,1.0,0.0,-433.757,721.983)" x="144.113" y="577.87" style="fill:#171615;font-family:IJFCKN+Calibri-Bold;font-size:1.0px;font-style:NORMAL;font-weight:BOLD;">E</text>
  <text svg_rhmargin="144.113" transform="matrix(0.0,-1.0,1.0,0.0,-429.584,717.81)" x="144.113" y="573.697" style="fill:#171615;font-family:IJFCKN+Calibri-Bold;font-size:1.0px;font-style:NORMAL;font-weight:BOLD;">l</text>
  <text svg_rhmargin="144.113" transform="matrix(0.0,-1.0,1.0,0.0,-427.482,715.708)" x="144.113" y="571.595" style="fill:#171615;font-family:IJFCKN+Calibri-Bold;font-size:1.0px;font-style:NORMAL;font-weight:BOLD;">i</text>
  <text svg_rhmargin="144.113" transform="matrix(0.0,-1.0,1.0,0.0,-425.379,713.605)" x="144.113" y="569.492" style="fill:#171615;font-family:IJFCKN+Calibri-Bold;font-size:1.0px;font-style:NORMAL;font-weight:BOLD;">g</text>
  <text svg_rhmargin="144.113" transform="matrix(0.0,-1.0,1.0,0.0,-421.326,709.552)" x="144.113" y="565.439" style="fill:#171615;font-family:IJFCKN+Calibri-Bold;font-size:1.0px;font-style:NORMAL;font-weight:BOLD;">i</text>
  <text svg_rhmargin="144.113" transform="matrix(0.0,-1.0,1.0,0.0,-419.223,707.449)" x="144.113" y="563.336" style="fill:#171615;font-family:IJFCKN+Calibri-Bold;font-size:1.0px;font-style:NORMAL;font-weight:BOLD;">b</text>
  <text svg_rhmargin="144.113" transform="matrix(0.0,-1.0,1.0,0.0,-414.63,702.856)" x="144.113" y="558.743" style="fill:#171615;font-family:IJFCKN+Calibri-Bold;font-size:1.0px;font-style:NORMAL;font-weight:BOLD;">i</text>
  <text svg_rhmargin="144.113" transform="matrix(0.0,-1.0,1.0,0.0,-412.528,700.754)" x="144.113" y="556.641" style="fill:#171615;font-family:IJFCKN+Calibri-Bold;font-size:1.0px;font-style:NORMAL;font-weight:BOLD;">l</text>
  <text svg_rhmargin="144.113" transform="matrix(0.0,-1.0,1.0,0.0,-410.426,698.652)" x="144.113" y="554.539" style="fill:#171615;font-family:IJFCKN+Calibri-Bold;font-size:1.0px;font-style:NORMAL;font-weight:BOLD;">i</text>
  <text svg_rhmargin="144.113" transform="matrix(0.0,-1.0,1.0,0.0,-408.323,696.549)" x="144.113" y="552.436" style="fill:#171615;font-family:IJFCKN+Calibri-Bold;font-size:1.0px;font-style:NORMAL;font-weight:BOLD;">t</text>
  <text svg_rhmargin="144.113" transform="matrix(0.0,-1.0,1.0,0.0,-405.356,693.582)" x="144.113" y="549.469" style="fill:#171615;font-family:IJFCKN+Calibri-Bold;font-size:1.0px;font-style:NORMAL;font-weight:BOLD;">y</text>
  <text svg_rhmargin="144.113" transform="matrix(0.0,-1.0,1.0,0.0,-401.303,689.529)" y="545.416" x="" style="fill:#171615;font-family:IJFCKN+Calibri-Bold;font-size:1.0px;font-style:NORMAL;font-weight:BOLD;"/>
  <path d=" M 248.2519989013672 405.16400146484375 L 248.2519989013672 383.04400634765625 L 248.1669921875 382.87298583984375 L 247.9949951171875 382.7869873046875 L 247.82400512695312 382.87298583984375 L 247.73899841308594 383.04400634765625 L 247.73899841308594 405.16400146484375 L 247.82400512695312 405.3349914550781 L 247.9949951171875 405.4209899902344 L 248.1669921875 405.3349914550781 L 248.2519989013672 405.16400146484375 Z M 250.13499450683594 383.7720031738281 L 247.9949951171875 379.4930114746094 L 245.8560028076172 383.7720031738281" style="fill:none;stroke:#0a0806;stroke-width:0.5350000262260437;"/>
  <path d=" M 376.6090087890625 405.16400146484375 L 376.6090087890625 383.04400634765625 L 376.52301025390625 382.87298583984375 L 376.3520202636719 382.7869873046875 L 376.1809997558594 382.87298583984375 L 376.0950012207031 383.04400634765625 L 376.0950012207031 405.16400146484375 L 376.1809997558594 405.3349914550781 L 376.3520202636719 405.4209899902344 L 376.52301025390625 405.3349914550781 L 376.6090087890625 405.16400146484375 Z M 378.4909973144531 383.7720031738281 L 376.3520202636719 379.4930114746094 L 374.2130126953125 383.7720031738281" style="fill:none;stroke:#0a0806;stroke-width:0.5350000262260437;"/>
  <path d=" M 132.47500610351562 382.27398681640625 C 132.47500610351562 380.7339782714844 133.71600341796875 379.49298095703125 135.25601196289062 379.49298095703125 L 146.3800048828125 379.49298095703125 C 147.92100524902344 379.49298095703125 149.1610107421875 380.7339782714844 149.1610107421875 382.27398681640625 L 149.1610107421875 453.7259826660156 C 149.1610107421875 455.2659912109375 147.92100524902344 456.5069885253906 146.3800048828125 456.5069885253906 L 135.25601196289062 456.5069885253906 C 133.71600341796875 456.5069885253906 132.47500610351562 455.2659912109375 132.47500610351562 453.7259826660156" style="fill:none;stroke:#0a0806;stroke-width:0.5350000262260437;"/>
  <path d="M132.475 597.423 C132.475 598.963 133.716 600.205 135.256 600.205 L146.38 600.205 C147.921 600.205 149.161 598.963 149.161 597.423 L149.161 525.971 C149.161 524.432 147.921 523.19 146.38 523.19 L135.256 523.19 C133.716 523.19 132.475 524.432 132.475 525.971 L132.475 597.423 M248.251 394.835 L248.251 416.955 L248.166 417.127 L247.994 417.213 L247.824 417.127 L247.738 416.955 L247.738 394.835 L247.824 394.665 L247.994 394.579 L248.166 394.665 L248.251 394.835 M250.134 416.227 L247.994 420.506 L245.856 416.227 M376.609 394.835 L376.609 416.955 L376.523 417.127 L376.352 417.213 L376.18 417.127 L376.095 416.955 L376.095 394.835 L376.18 394.665 L376.352 394.579 L376.523 394.665 L376.609 394.835 M378.49 416.227 L376.352 420.506 L374.213 416.227 M132.475 417.726 C132.475 419.266 133.716 420.507 135.256 420.507 L146.38 420.507 C147.921 420.507 149.161 419.266 149.161 417.726 L149.161 346.274 C149.161 344.734 147.921 343.493 146.38 343.493 L135.256 343.493 C133.716 343.493 132.475 344.734 132.475 346.274 " style="fill:none;stroke:#0a0806;stroke-width:0.5350000262260437;"/>
  <text svg_rhmargin="144.113" transform="matrix(0.0,-1.0,1.0,0.0,-261.675,549.901)" x="144.113" y="405.788" style="fill:#171615;font-family:IJFCKN+Calibri-Bold;font-size:1.0px;font-style:NORMAL;font-weight:BOLD;">I</text>
  <text svg_rhmargin="144.113" transform="matrix(0.0,-1.0,1.0,0.0,-259.393,547.619)" x="144.113" y="403.506" style="fill:#171615;font-family:IJFCKN+Calibri-Bold;font-size:1.0px;font-style:NORMAL;font-weight:BOLD;">d</text>
  <text svg_rhmargin="144.113" transform="matrix(0.0,-1.0,1.0,0.0,-254.8,543.026)" x="144.113" y="398.913" style="fill:#171615;font-family:IJFCKN+Calibri-Bold;font-size:1.0px;font-style:NORMAL;font-weight:BOLD;">e</text>
  <text svg_rhmargin="144.113" transform="matrix(0.0,-1.0,1.0,0.0,-250.499,538.725)" x="144.113" y="394.612" style="fill:#171615;font-family:IJFCKN+Calibri-Bold;font-size:1.0px;font-style:NORMAL;font-weight:BOLD;">n</text>
  <text svg_rhmargin="144.113" transform="matrix(0.0,-1.0,1.0,0.0,-245.906,534.132)" x="144.113" y="390.019" style="fill:#171615;font-family:IJFCKN+Calibri-Bold;font-size:1.0px;font-style:NORMAL;font-weight:BOLD;">?</text>
  <text svg_rhmargin="144.113" transform="matrix(0.0,-1.0,1.0,0.0,-240.903,529.129)" x="144.113" y="385.016" style="fill:#171615;font-family:IJFCKN+Calibri-Bold;font-size:1.0px;font-style:NORMAL;font-weight:BOLD;">ﬁ</text>
  <text svg_rhmargin="144.113" transform="matrix(0.0,-1.0,1.0,0.0,-236.165,524.391)" x="144.113" y="380.278" style="fill:#171615;font-family:IJFCKN+Calibri-Bold;font-size:1.0px;font-style:NORMAL;font-weight:BOLD;">c</text>
  <text svg_rhmargin="144.113" transform="matrix(0.0,-1.0,1.0,0.0,-232.59,520.816)" x="144.113" y="376.703" style="fill:#171615;font-family:IJFCKN+Calibri-Bold;font-size:1.0px;font-style:NORMAL;font-weight:BOLD;">a</text>
  <text svg_rhmargin="144.113" transform="matrix(0.0,-1.0,1.0,0.0,-228.366,516.592)" x="144.113" y="372.479" style="fill:#171615;font-family:IJFCKN+Calibri-Bold;font-size:1.0px;font-style:NORMAL;font-weight:BOLD;">?</text>
  <text svg_rhmargin="144.113" transform="matrix(0.0,-1.0,1.0,0.0,-223.362,511.588)" x="144.113" y="367.475" style="fill:#171615;font-family:IJFCKN+Calibri-Bold;font-size:1.0px;font-style:NORMAL;font-weight:BOLD;">o</text>
  <text svg_rhmargin="144.113" transform="matrix(0.0,-1.0,1.0,0.0,-218.702,506.928)" x="144.113" y="362.815" style="fill:#171615;font-family:IJFCKN+Calibri-Bold;font-size:1.0px;font-style:NORMAL;font-weight:BOLD;">n</text>
  <text svg_rhmargin="144.113" transform="matrix(0.0,-1.0,1.0,0.0,-214.11,502.336)" y="368.993" x="" style="fill:#171615;font-family:IJFCKN+Calibri-Bold;font-size:1.0px;font-style:NORMAL;font-weight:BOLD;"/>
  <path d=" M 321.8009948730469 405.16400146484375 L 446.9469909667969 405.16400146484375 L 446.9469909667969 443.6709899902344 L 321.8009948730469 443.6709899902344 Z " style="fill:none;stroke:#0a0806;stroke-width:0.5350000262260437;"/>
  <text x="339.128,344.786,348.707,352.627,354.809,356.991,359.173,363.094,367.014,370.496,372.678,374.642,377.255,380.683,384.165,388.085,390.698,394.618,397.669,399.634,401.816,405.736,409.218,413.139,415.321,417.503,420.116,422.259,425.727,429.647" y="368.993" svg_rhmargin="431.604" style="fill:#171615;font-family:IJFCKM+TimesNewRomanPSMT;font-size:7.83px;font-style:NORMAL;font-weight:normal;">Additional records identified </text>
  <text x="350.424,352.6,356.515,359.122,363.037,366.952,370.867,374.782,376.747,380.662,382.839,386.753,390.23,392.837,394.802,397.848,401.763,405.678,408.285,411.762,415.238" y="377.978" svg_rhmargin="418.284" style="fill:#171615;font-family:IJFCKM+TimesNewRomanPSMT;font-size:7.83px;font-style:NORMAL;font-weight:normal;">through other sources</text>
  <text x="373.698,376.313,380.236,382.2,386.624,388.589,392.511,395.079" y="387.091" svg_rhmargin="397.036" style="fill:#171615;font-family:IJFCKM+TimesNewRomanPSMT;font-size:7.83px;font-style:NORMAL;font-weight:normal;">(n = 0) </text>
  <path d=" M 234.3470001220703 347.40399169921875 L 389.9570007324219 347.40399169921875 L 389.9570007324219 379.49298095703125 L 234.3470001220703 379.49298095703125 Z " style="fill:none;stroke:#0a0806;stroke-width:0.5350000262260437;"/>
  <text x="259.59,264.813,268.289,271.765,275.68,278.288,282.202,285.248,287.223,290.699,293.306,295.483,298.96,301.607,303.581,307.496,311.411,315.326,317.503,319.679,323.156,326.632,328.809,332.285,335.331,337.305,339.913,343.389,349.425,353.339,357.254,360.73,364.645,366.62" y="433.171" svg_rhmargin="368.577" style="fill:#171615;font-family:IJFCKM+TimesNewRomanPSMT;font-size:7.83px;font-style:NORMAL;font-weight:normal;">Records after duplicates removed </text>
  <text x="298.482,301.097,305.02,306.984,311.408,315.331,319.253,323.176,325.744" y="442.198" svg_rhmargin="327.701" style="fill:#171615;font-family:IJFCKM+TimesNewRomanPSMT;font-size:7.83px;font-style:NORMAL;font-weight:normal;">(n =145) </text>
  <path d=" M 265.281005859375 289.6440124511719 L 359.06500244140625 289.6440124511719 L 359.06500244140625 321.7330017089844 L 265.281005859375 321.7330017089844 Z " style="fill:none;stroke:#0a0806;stroke-width:0.5350000262260437;"/>
  <text x="284.619,289.846,293.327,296.808,300.728,303.34,307.259,310.31,312.275,315.326,318.807,321.419,324.9,328.381,332.3,335.781,339.701,341.666" y="490.932" svg_rhmargin="343.623" style="fill:#171615;font-family:IJFCKM+TimesNewRomanPSMT;font-size:7.83px;font-style:NORMAL;font-weight:normal;">Records screened </text>
  <text svg_rhmargin="325.581" x="300.75,303.372,307.302,309.267,313.197,317.126,321.056,323.624,325.58200000000005" y="491.573" style="fill:#171615;font-family:IJFCKM+TimesNewRomanPSMT;font-size:7.83px;font-style:NORMAL;font-weight:normal;">(n 145) </text>
  <path d=" M 395.60400390625 289.6440124511719 L 513.8200073242188 289.6440124511719 L 513.8200073242188 321.7330017089844 L 395.60400390625 321.7330017089844 Z " style="fill:none;stroke:#0a0806;stroke-width:0.5350000262260437;"/>
  <text x="403.776,409.0,412.477,415.954,419.87,422.478,426.393,429.44,431.404,434.881,438.797,442.274,444.496,448.412,452.328,455.805,459.72,461.685,464.293,468.208,470.817" y="491.573" svg_rhmargin="472.774" style="fill:#171615;font-family:IJFCKM+TimesNewRomanPSMT;font-size:7.83px;font-style:NORMAL;font-weight:normal;">Records excluded for </text>
  <text x="472.832,475.21,478.059,480.907,484.706,487.084,490.882,495.16,498.959,503.236" y="491.573" svg_rhmargin="505.615" style="fill:#171615;font-family:IJFCKM+TimesNewRomanPSMT;font-size:8.56px;font-style:NORMAL;font-weight:normal;">irrelevant</text>
  <text x="430.816,434.145,436.523,440.802,445.081" y="501.585" svg_rhmargin="449.36" style="fill:#171615;font-family:IJFCKM+TimesNewRomanPSMT;font-size:8.56px;font-style:NORMAL;font-weight:normal;">study</text>
  <text y="501.585" svg_rhmargin="480.569" x="451.351,453.96,457.875,459.84,464.257,468.173,472.088,476.004,478.612" style="fill:#171615;font-family:IJFCKM+TimesNewRomanPSMT;font-size:7.83px;font-style:NORMAL;font-weight:normal;">(n =138) </text>
  <path d=" M 264.0400085449219 231.88400268554688 L 360.3080139160156 231.88400268554688 L 360.3080139160156 270.3909912109375 L 264.0400085449219 270.3909912109375 Z " style="fill:none;stroke:#0a0806;stroke-width:0.5350000262260437;"/>
  <text x="272.126,276.482,280.399,282.578,284.757,287.367,289.546,293.024,296.942,299.121,301.087,304.565,307.175,309.354,311.533,315.012,317.191,320.67,323.718,325.684,329.162,332.21,335.259,338.737,341.785,344.833,348.312,352.229" y="542.273" svg_rhmargin="354.186" style="fill:#171615;font-family:IJFCKM+TimesNewRomanPSMT;font-size:7.83px;font-style:NORMAL;font-weight:normal;">Full-text articles assessed </text>
  <text x="291.38,293.994,297.916,300.531,302.476,305.96,308.144,310.327,314.249,316.433,320.355,322.539,324.722,326.906,329.049,332.971,334.917" y="551.258" svg_rhmargin="336.874" style="fill:#171615;font-family:IJFCKM+TimesNewRomanPSMT;font-size:7.83px;font-style:NORMAL;font-weight:normal;">for eligibility </text>
  <text svg_rhmargin="324.859" x="301.52,304.135,308.058,310.023,314.446,316.411,320.334,322.902,324.86" y="542.273" style="fill:#171615;font-family:IJFCKM+TimesNewRomanPSMT;font-size:7.83px;font-style:NORMAL;font-weight:normal;">(n = 7) </text>
  <path d=" M 395.60400390625 239.67100524902344 L 516.4730224609375 239.67100524902344 L 516.4730224609375 270.3909912109375 L 395.60400390625 270.3909912109375 Z " style="fill:none;stroke:#0a0806;stroke-width:0.5350000262260437;"/>
  <path d="M132.475 417.726 C132.475 419.266 133.716 420.507 135.256 420.507 L146.38 420.507 C147.921 420.507 149.161 419.266 149.161 417.726 L149.161 346.274 C149.161 344.734 147.921 343.493 146.38 343.493 L135.256 343.493 C133.716 343.493 132.475 344.734 132.475 346.274 L132.475 417.726 " style="fill:none;stroke:#0a0806;stroke-width:0.5350000262260437;"/>
  <text x="409.552,413.906,417.821,419.997,422.174,424.781,426.958,430.434,434.349,436.526,438.491,441.967,444.575,446.751,448.928,452.404,454.581,458.057,461.103,463.068,466.545,470.46,473.936,476.113,480.028,483.942,487.419,491.334,493.299,495.906,499.821" y="542.273" svg_rhmargin="502.428" style="fill:#171615;font-family:IJFCKM+TimesNewRomanPSMT;font-size:7.83px;font-style:NORMAL;font-weight:normal;">Full-text articles excluded for</text>
  <text x="429.576,433.494,437.412,441.33,443.94,449.166,454.392,459.179,461.144,463.754,467.672,469.598,474.017,475.983,479.901,482.511" y="551.3009999999999" svg_rhmargin="484.468" style="fill:#171615;font-family:IJFCKM+TimesNewRomanPSMT;font-size:7.83px;font-style:NORMAL;font-weight:normal;">non-RCT (n = 2) </text>
  <path d=" M 264.0400085449219 174.12399291992188 L 360.3080139160156 174.12399291992188 L 360.3080139160156 212.62998962402344 L 264.0400085449219 212.62998962402344 Z " style="fill:none;stroke:#0a0806;stroke-width:0.5350000262260437;"/>
  <text x="282.138,286.491,288.668,292.583,296.498,298.674,302.151,305.197,307.162,309.338,313.253,316.73,318.906,322.821,326.736,330.212,334.127,336.093,338.269,342.184" y="600.034" svg_rhmargin="344.141" style="fill:#171615;font-family:IJFCKM+TimesNewRomanPSMT;font-size:7.83px;font-style:NORMAL;font-weight:normal;">Studies included in </text>
  <text x="280.298,284.212,288.126,291.602,293.778,295.954,298.129,301.605,303.781,305.957,309.871,313.347,315.311,318.356,322.27,326.184,328.36,332.274,335.75,338.795,340.971" y="609.018" svg_rhmargin="344.017" style="fill:#171615;font-family:IJFCKM+TimesNewRomanPSMT;font-size:7.83px;font-style:NORMAL;font-weight:normal;">qualitative synthesis</text>
  <text x="301.52,304.135,308.058,310.022,314.446,316.41,320.333,322.901" y="618.131" svg_rhmargin="324.858" style="fill:#171615;font-family:IJFCKM+TimesNewRomanPSMT;font-size:7.83px;font-style:NORMAL;font-weight:normal;">(n = 5) </text>
  <path d=" M 264.0400085449219 103.5270004272461 L 360.3080139160156 103.5270004272461 L 360.3080139160156 154.8699951171875 L 264.0400085449219 154.8699951171875 Z " style="fill:none;stroke:#0a0806;stroke-width:0.5350000262260437;"/>
  <text x="282.138,286.491,288.668,292.583,296.498,298.674,302.151,305.197,307.162,309.338,313.253,316.73,318.906,322.821,326.736,330.212,334.127,336.093,338.269,342.184" y="657.794" svg_rhmargin="344.141" style="fill:#171615;font-family:IJFCKM+TimesNewRomanPSMT;font-size:7.83px;font-style:NORMAL;font-weight:normal;">Studies included in </text>
  <text x="278.331,282.245,286.159,289.635,293.549,295.725,297.901,300.077,303.552,305.728,307.904,311.818,315.294,317.258,320.303,324.217,328.131,330.307,334.221,337.697,340.742,342.918,345.963" y="666.778" svg_rhmargin="347.92" style="fill:#171615;font-family:IJFCKM+TimesNewRomanPSMT;font-size:7.83px;font-style:NORMAL;font-weight:normal;">quantitative synthesis </text>
  <text x="288.043,290.658,296.694,300.179,302.363,305.847,308.462,311.947,315.869,319.353,321.538,325.516,328.555,330.739,333.793,336.408,338.374" y="675.806" svg_rhmargin="340.331" style="fill:#171615;font-family:IJFCKM+TimesNewRomanPSMT;font-size:7.83px;font-style:NORMAL;font-weight:normal;">(meta-analysis) </text>
  <text x="301.521,304.136,308.058,310.023,314.447,316.411,320.334,322.902" y="684.919" svg_rhmargin="324.859" style="fill:#171615;font-family:IJFCKM+TimesNewRomanPSMT;font-size:7.83px;font-style:NORMAL;font-weight:normal;">(n = 5) </text>
  <path d=" M 312.4309997558594 347.40399169921875 L 312.4309997558594 325.28399658203125 L 312.3450012207031 325.11297607421875 L 312.17401123046875 325.0269775390625 L 312.00299072265625 325.11297607421875 L 311.9169921875 325.28399658203125 L 311.9169921875 347.40399169921875 L 312.00299072265625 347.5749816894531 L 312.17401123046875 347.6609802246094 L 312.3450012207031 347.5749816894531 L 312.4309997558594 347.40399169921875 Z M 314.31298828125 326.0119934082031 L 312.17401123046875 321.7330017089844 L 310.03399658203125 326.0119934082031" style="fill:none;stroke:#0a0806;stroke-width:0.5350000262260437;"/>
  <path d=" M 312.4309997558594 289.6440124511719 L 312.4309997558594 273.9420166015625 L 312.3450012207031 273.77001953125 L 312.17401123046875 273.68499755859375 L 312.00299072265625 273.77001953125 L 311.9169921875 273.9420166015625 L 311.9169921875 289.6440124511719 L 312.00299072265625 289.81500244140625 L 312.17401123046875 289.9000244140625 L 312.3450012207031 289.81500244140625 L 312.4309997558594 289.6440124511719 Z M 314.31298828125 274.66900634765625 L 312.17401123046875 270.3900146484375 L 310.03399658203125 274.66900634765625" style="fill:none;stroke:#0a0806;stroke-width:0.5350000262260437;"/>
  <path d=" M 312.4309997558594 231.88400268554688 L 312.4309997558594 216.1820068359375 L 312.3450012207031 216.01100158691406 L 312.17401123046875 215.9250030517578 L 312.00299072265625 216.01100158691406 L 311.9169921875 216.1820068359375 L 311.9169921875 231.88400268554688 L 312.00299072265625 232.0550079345703 L 312.17401123046875 232.14100646972656 L 312.3450012207031 232.0550079345703 L 312.4309997558594 231.88400268554688 Z M 314.31298828125 216.90899658203125 L 312.17401123046875 212.6300048828125 L 310.03399658203125 216.90899658203125" style="fill:none;stroke:#0a0806;stroke-width:0.5350000262260437;"/>
  <path d=" M 312.4309997558594 174.12399291992188 L 312.4309997558594 158.4219970703125 L 312.3450012207031 158.25 L 312.17401123046875 158.1649932861328 L 312.00299072265625 158.25 L 311.9169921875 158.4219970703125 L 311.9169921875 174.12399291992188 L 312.00299072265625 174.2949981689453 L 312.17401123046875 174.38099670410156 L 312.3450012207031 174.2949981689453 L 312.4309997558594 174.12399291992188 Z M 314.31298828125 159.14898681640625 L 312.17401123046875 154.8699951171875 L 310.03399658203125 159.14898681640625" style="fill:none;stroke:#0a0806;stroke-width:0.5350000262260437;"/>
  <path d=" M 359.0660095214844 305.94500732421875 L 392.05401611328125 305.94500732421875 L 392.22601318359375 305.8590087890625 L 392.3110046386719 305.6889953613281 L 392.22601318359375 305.5169982910156 L 392.05401611328125 305.4320068359375 L 359.0660095214844 305.4320068359375 L 358.8529968261719 305.5169982910156 L 358.8110046386719 305.6889953613281 L 358.8529968261719 305.8590087890625 L 359.0660095214844 305.94500732421875 Z M 391.3270263671875 307.8280029296875 L 395.6050109863281 305.6889953613281 L 391.3270263671875 303.54901123046875" style="fill:none;stroke:#0a0806;stroke-width:0.5350000262260437;"/>
  <path d=" M 360.3080139160156 256.31500244140625 L 392.05401611328125 256.31500244140625 L 392.22601318359375 256.2300109863281 L 392.3110046386719 256.0580139160156 L 392.22601318359375 255.8870086669922 L 392.05401611328125 255.80099487304688 L 360.3080139160156 255.80099487304688 L 360.1360168457031 255.8870086669922 L 360.051025390625 256.0580139160156 L 360.1360168457031 256.2300109863281 L 360.3080139160156 256.31500244140625 Z M 391.3270263671875 258.1969909667969 L 395.6050109863281 256.0580139160156 L 391.3270263671875 253.91900634765625" style="fill:none;stroke:#0a0806;stroke-width:0.5350000262260437;"/>
  <text svg_rhmargin="210.522" x="180.34,184.697,186.483,190.84,195.115,197.678,201.803,204.38,208.505,210.522" y="707.591" style="fill:#171615;font-family:IJFCFN+AdvOTf94803d4;font-size:7.47px;font-style:NORMAL;font-weight:normal;">Figure 1. </text>
  <text svg_rhmargin="371.577" x="214.242,218.912,222.722,226.533,228.864,232.675,236.643,239.185,241.516,245.327,248.906,252.873,254.196,256.37,259.949,262.484,266.295,270.262,274.536,277.054,279.228,283.195,287.006,289.469,293.048,296.858,298.181,301.991,305.802,307.976,309.299,313.505,317.473,319.968,324.242,326.574,330.698,334.509,338.319,342.593,346.561,348.892,352.702,354.719,357.269,362.245,367.453,371.578" y="707.591" style="fill:#171615;font-family:IJFBOA+AdvOT6e5d2ec0;font-size:7.47px;font-style:NORMAL;font-weight:normal;">Search results and the selection procedure. RCT </text>
  <text svg_rhmargin="379.173" x="374.115,379.17400000000004" y="707.591" style="fill:#171615;font-family:IJFBOF+AdvOTb0c9bf5d;font-size:7.47px;font-style:NORMAL;font-weight:normal;">= </text>
  <text x="381.655,383.986,387.797,391.764,396.038,400.163,406.304,407.627,411.049,414.86,419.134,421.677,425.488,429.612,433.579,435.754,438.085,442.209,443.532,444.854,448.665,452.939,455.52,457.694,460.025,461.348,465.158,466.481" y="707.591" svg_rhmargin="468.498" style="fill:#171615;font-family:IJFBOA+AdvOT6e5d2ec0;font-size:7.47px;font-style:NORMAL;font-weight:normal;">randomized controlled trial.</text>
  <text svg_rhmargin="176.221" x="71.887,76.119,77.53,80.164,84.228,86.547,89.178,93.243,94.653,96.805,99.496,106.048,110.112,114.671,116.082,120.147,121.558,125.79,129.85500000000002,132.434,134.339,138.738,143.138,147.537,151.937,153.842,156.47,160.87,165.269,167.421,171.821,176.22" y="9.870999999999981" style="fill:#171615;font-family:IJFBOA+AdvOT6e5d2ec0;font-size:7.97px;font-style:NORMAL;font-weight:normal;">Li et al. Medicine (2018) 97:45 </text>
  <text x="542.723,549.944,554.503,559.317,561.31,565.869,567.861,572.508" y="9.870999999999981" svg_rhmargin="577.067" style="fill:#171615;font-family:IJFBNA+AdvOT34fe1490.B;font-size:7.97px;font-style:NORMAL;font-weight:normal;">Medicine</text>
  <text x="322.243" y="739.625" svg_rhmargin="326.643" style="fill:#171615;font-family:IJFCFN+AdvOTf94803d4;font-size:7.97px;font-style:NORMAL;font-weight:normal;">2</text>
 </g>
</svg>
