<?xml version="1.0" encoding="UTF-8"?>
<svg height="870.031005859375" width="672.0029907226562" xmlns="http://www.w3.org/2000/svg">
 <g style="fill:none;">
  <path d=" M 0.05999799817800522 826.072021484375 L 22.619997024536133 826.072021484375 L 22.619997024536133 826.35546875 L 0.05999799817800522 826.35546875 Z " style="fill:none;stroke:#000000;stroke-width:1.0;"/>
  <path d=" M 33.67599868774414 837.4110107421875 L 33.959449768066406 837.4110107421875 L 33.959449768066406 860.031005859375 L 33.67599868774414 860.031005859375 Z " style="fill:none;stroke:#000000;stroke-width:1.0;"/>
  <path d=" M 627.9869995117188 837.4110107421875 L 628.2703857421875 837.4110107421875 L 628.2703857421875 860.031005859375 L 627.9869995117188 860.031005859375 Z " style="fill:none;stroke:#000000;stroke-width:1.0;"/>
  <path d=" M 639.3259887695312 826.072021484375 L 662.0029907226562 826.072021484375 L 662.0029907226562 826.35546875 L 639.3259887695312 826.35546875 Z " style="fill:none;stroke:#000000;stroke-width:1.0;"/>
  <path d=" M 639.3259887695312 33.731998443603516 L 662.0029907226562 33.731998443603516 L 662.0029907226562 34.015480041503906 L 639.3259887695312 34.015480041503906 Z " style="fill:none;stroke:#000000;stroke-width:1.0;"/>
  <path d=" M 627.9869995117188 0.0 L 628.2703857421875 0.0 L 628.2703857421875 22.677000045776367 L 627.9869995117188 22.677000045776367 Z " style="fill:none;stroke:#000000;stroke-width:1.0;"/>
  <path d=" M 33.67599868774414 0.0 L 33.959449768066406 0.0 L 33.959449768066406 22.677000045776367 L 33.67599868774414 22.677000045776367 Z " style="fill:none;stroke:#000000;stroke-width:1.0;"/>
  <path d=" M 0.05999799817800522 33.731998443603516 L 22.619997024536133 33.731998443603516 L 22.619997024536133 34.015480041503906 L 0.05999799817800522 34.015480041503906 Z " style="fill:none;stroke:#000000;stroke-width:1.0;"/>
  <path d=" M 71.88700103759766 416.1830139160156 L 576.9639892578125 416.1830139160156 L 576.9639892578125 416.9200134277344 L 71.88700103759766 416.9200134277344 Z " style="fill:none;stroke:#000000;stroke-width:1.0;"/>
  <path d=" M 71.88700103759766 98.13500213623047 L 576.9639892578125 98.13500213623047 L 576.9639892578125 98.92870330810547 L 71.88700103759766 98.92870330810547 Z " style="fill:none;stroke:#000000;stroke-width:1.0;"/>
  <rect style="stroke:blue;stroke-width:0.3;" x="99.439" y="390.904" height="291.855" width="449.972" title="6"/>
  <text x="99.439" y="390.904" class="image" id="image.6.1" width="449" height="291">image.6.1.99_549.391_683</text>
  <text svg_rhmargin="109.438" x="79.257,83.614,85.4,89.757,94.111,96.675,100.8,103.296,107.421,109.438" y="693.7570000000001" style="fill:#171615;font-family:IJFCFN+AdvOTf94803d4;font-size:7.47px;font-style:NORMAL;font-weight:normal;">Figure 7. </text>
  <text svg_rhmargin="428.901" x="113.159,117.127,121.251,123.582,127.393,130.972,133.14600000000002,135.664,139.938,141.261,145.385,147.559,150.12,154.394,155.716,159.527,163.651,165.983,169.793,175.935,178.464,182.043,186.011,190.135,195.657,196.979,200.947,205.072,207.602,211.413,213.281,215.149,218.959,222.77,224.94400000000002,227.443,231.567,233.435,235.946,240.071,242.402,246.213,247.536,250.005,252.18,254.511,258.395,262.363,266.174,269.753,273.563,279.705,281.027,284.83799999999997,287.364,291.174,294.985,296.307,300.581,303.066,307.191,311.159,313.667,315.842,319.809,323.62,326.139,328.47,329.793,333.372,337.108,339.631,343.755,345.623,348.078,352.352,356.162,359.973,364.247,366.785,370.207,374.018,375.34,379.308,381.808,383.982,387.95,390.281,394.405,400.629,404.902,409.027,412.606,413.928,417.507,419.524,422.0,427.272,428.901" y="693.7570000000001" style="fill:#171615;font-family:IJFBOA+AdvOT6e5d2ec0;font-size:7.47px;font-style:NORMAL;font-weight:normal;">Forest plot diagram showing effect of oral tranexamic acid on the risk of deep vein thrombosis. CI </text>
  <text svg_rhmargin="436.433" x="431.375,436.434" y="693.7570000000001" style="fill:#171615;font-family:IJFBOF+AdvOTb0c9bf5d;font-size:7.47px;font-style:NORMAL;font-weight:normal;">= </text>
  <text x="438.972,442.782,446.907" y="693.7570000000001" svg_rhmargin="450.875" style="fill:#171615;font-family:IJFBOA+AdvOT6e5d2ec0;font-size:7.47px;font-style:NORMAL;font-weight:normal;">con</text>
  <text x="450.877" y="693.7570000000001" svg_rhmargin="454.142" style="fill:#171615;font-family:IJFBOD+AdvOT6e5d2ec0+fb;font-size:7.47px;font-style:NORMAL;font-weight:normal;">ﬁ</text>
  <text svg_rhmargin="513.121" x="454.165,458.439,462.25,466.217,470.028,473.839,476.331,477.653,481.621,483.795,487.605,489.937,493.359,497.169,498.492,500.509,503.087,508.063,513.122" y="693.7570000000001" style="fill:#171615;font-family:IJFBOA+AdvOT6e5d2ec0;font-size:7.47px;font-style:NORMAL;font-weight:normal;">dence interval, RD </text>
  <text svg_rhmargin="520.678" x="515.62,520.679" y="693.7570000000001" style="fill:#171615;font-family:IJFBOF+AdvOTb0c9bf5d;font-size:7.47px;font-style:NORMAL;font-weight:normal;">= </text>
  <text x="523.16,525.491,526.814,530.393,534.129,536.652,540.926,542.248,544.116,545.984,549.795,552.126,555.937,559.904,563.715,567.525" y="693.7570000000001" svg_rhmargin="569.542" style="fill:#171615;font-family:IJFBOA+AdvOT6e5d2ec0;font-size:7.47px;font-style:NORMAL;font-weight:normal;">risk difference.</text>
  <path d=" M 71.88700103759766 766.885009765625 L 576.9639892578125 766.885009765625 L 576.9639892578125 767.6220092773438 L 71.88700103759766 767.6220092773438 Z " style="fill:none;stroke:#000000;stroke-width:1.0;"/>
  <path d=" M 71.88700103759766 451.2749938964844 L 576.9639892578125 451.2749938964844 L 576.9639892578125 452.0686950683594 L 71.88700103759766 452.0686950683594 Z " style="fill:none;stroke:#000000;stroke-width:1.0;"/>
  <rect style="stroke:blue;stroke-width:0.3;" x="95.414" y="40.202" height="289.417" width="458.238" title="6"/>
  <text x="95.414" y="40.202" class="image" id="image.6.2" width="458" height="289">image.6.2.95_554.40_330</text>
  <text svg_rhmargin="136.65" x="106.526,110.883,112.669,117.026,121.301,123.864,127.989,130.509,134.633,136.65" y="340.617" style="fill:#171615;font-family:IJFCFN+AdvOTf94803d4;font-size:7.47px;font-style:NORMAL;font-weight:normal;">Figure 6. </text>
  <text svg_rhmargin="401.628" x="140.372,144.339,148.464,150.859,154.67,158.249,160.423,162.934,167.208,168.531,172.655,174.829,177.333,181.607,182.93,186.74,190.865,193.196,197.007,203.149,205.678,209.257,213.224,217.349,222.87,224.193,228.16,232.285,234.815,238.626,240.494,242.362,246.173,249.983,252.157,254.656,258.78,260.64799999999997,263.16,267.284,269.615,273.426,274.74899999999997,277.275,279.45,281.781,285.591,289.559,293.37,296.949,300.759,306.901,308.224,312.03499999999997,314.576,318.387,322.198,323.521,327.795,330.279,334.404,338.372,340.88,343.055,345.386,349.197,353.164,356.743,358.611,362.579,366.158,367.48,371.604,375.572,378.124,380.456,384.266,386.44,390.251,392.268,394.791,399.999,401.62800000000004" y="340.617" style="fill:#171615;font-family:IJFBOA+AdvOT6e5d2ec0;font-size:7.47px;font-style:NORMAL;font-weight:normal;">Forest plot diagram showing effect of oral tranexamic acid on transfusion rate. CI </text>
  <text svg_rhmargin="409.22" x="404.162,409.221" y="340.617" style="fill:#171615;font-family:IJFBOF+AdvOTb0c9bf5d;font-size:7.47px;font-style:NORMAL;font-weight:normal;">= </text>
  <text x="411.702,415.513,419.638" y="340.617" svg_rhmargin="423.606" style="fill:#171615;font-family:IJFBOA+AdvOT6e5d2ec0;font-size:7.47px;font-style:NORMAL;font-weight:normal;">con</text>
  <text x="423.664" y="340.617" svg_rhmargin="426.929" style="fill:#171615;font-family:IJFBOD+AdvOT6e5d2ec0+fb;font-size:7.47px;font-style:NORMAL;font-weight:normal;">ﬁ</text>
  <text svg_rhmargin="485.852" x="426.896,431.17,434.98,438.948,442.758,446.56899999999996,449.118,450.44,454.408,456.582,460.393,462.724,466.146,469.957,471.279,473.296,475.818,480.794,485.853" y="340.617" style="fill:#171615;font-family:IJFBOA+AdvOT6e5d2ec0;font-size:7.47px;font-style:NORMAL;font-weight:normal;">dence interval, RD </text>
  <text svg_rhmargin="493.465" x="488.407,493.466" y="340.617" style="fill:#171615;font-family:IJFBOF+AdvOTb0c9bf5d;font-size:7.47px;font-style:NORMAL;font-weight:normal;">= </text>
  <text x="495.947,498.278,499.601,503.18,506.916,509.383,513.657,514.979,516.847,518.715,522.526,524.857,528.668,532.635,536.536,540.347" y="340.617" svg_rhmargin="542.364" style="fill:#171615;font-family:IJFBOA+AdvOT6e5d2ec0;font-size:7.47px;font-style:NORMAL;font-weight:normal;">risk difference.</text>
  <text svg_rhmargin="176.221" x="71.887,76.119,77.53,80.164,84.228,86.547,89.178,93.243,94.653,96.805,99.496,106.048,110.112,114.671,116.082,120.147,121.558,125.79,129.85500000000002,132.434,134.339,138.738,143.138,147.537,151.937,153.842,156.47,160.87,165.269,167.421,171.821,176.22" y="9.870999999999981" style="fill:#171615;font-family:IJFBOA+AdvOT6e5d2ec0;font-size:7.97px;font-style:NORMAL;font-weight:normal;">Li et al. Medicine (2018) 97:45 </text>
  <text x="542.723,549.944,554.503,559.317,561.31,565.869,567.861,572.508" y="9.870999999999981" svg_rhmargin="577.067" style="fill:#171615;font-family:IJFBNA+AdvOT34fe1490.B;font-size:7.97px;font-style:NORMAL;font-weight:normal;">Medicine</text>
  <text x="322.243" y="739.625" svg_rhmargin="326.643" style="fill:#171615;font-family:IJFCFN+AdvOTf94803d4;font-size:7.97px;font-style:NORMAL;font-weight:normal;">6</text>
 </g>
</svg>
