<?xml version="1.0" encoding="UTF-8"?>
<svg height="851.409" width="645.855" xmlns="http://www.w3.org/2000/svg">
 <g style="fill:none;">
  <text x="8.034,10.402,14.594,18.866,22.538,25.474,28.322,32.162,36.002,38.85,42.69,46.53,50.37,54.21,58.05,74.05,79.994,84.074,87.778,91.178,97.73,101.794,105.194,108.162,109.978,113.818,117.658,119.482,121.298,125.138,128.978,132.818,136.65800000000002,152.658,157.474,159.618,166.17,169.57,171.394,173.642,177.482,181.322,183.146,186.986,190.826,206.826,210.666,212.482" y="-1.058999999999969" svg_rhmargin="216.322" style="fill:#171615;font-family:ETQGJU+MinionPro-Regular;font-size:8.0px;font-style:NORMAL;font-weight:normal;">fphys-09-01604 November 13, 2018 Time: 14:49 # 6</text>
  <text x="44.98,48.998,52.757,56.649,60.408,62.354,65.987,68.059,70.005,73.638,74.933,76.879,394.823,400.654,401.949,405.582,407.661,411.553,416.222,421.15,425.56,427.506,431.916,435.808,437.103,440.344,446.175,450.067,452.272,456.29,460.049,461.344,464.711,470.542,473.909,475.855,479.488,483.247,487.265,489.211,493.88,497.639,501.272,505.031,510.862,514.495,516.567,520.459,521.754,525.772,527.718,532.128,534.333,536.405,540.164,542.369,543.664,545.736,547.031" y="55.254999999999995" svg_rhmargin="550.398" style="fill:#6d6d6c;font-family:KMCGGQ+HelveticaNeueLTStd-Lt;font-size:7.0px;font-style:NORMAL;font-weight:normal;">Zhou et al. MicroRNA Polymorphisms and Rheumatoid Arthritis</text>
  <rect style="stroke:blue;stroke-width:0.3;" x="104.611" y="89.49" height="606.322" width="384.0" title="6"/>
  <text x="104.611" y="89.49" class="image" id="image.6.1" width="384" height="606">image.6.1.105_489.89_696</text>
  <path d="M-1.416 2.086 L-1.416 -21.822 M-43.029 20.088 L-19.119 20.088 M611.942 20.088 L635.851 20.088 M593.76 2.086 L593.76 -21.822 M-43.009 799.516 L-19.099 799.516 M-1.116 841.409 L-1.116 817.5 M593.76 841.409 L593.76 817.5 M611.945 799.516 L635.855 799.516 M44.979 63.215 L550.396 63.215 M108.659 90.263 L107.436 90.263 L105.205 95.989 L106.432 95.989 L106.904 94.689 L109.194 94.689 L109.693 95.989 L110.952 95.989 L108.659 90.263 M107.26 93.723 L108.034 91.598 L108.822 93.723 L107.26 93.723 " style="fill:none;stroke:#171615;stroke-width:1.0;"/>
  <rect style="stroke:blue;stroke-width:0.3;" x="104.943" y="89.933" height="6.308" width="6.308" title="6"/>
  <text x="104.943" y="89.933" class="image" id="image.6.2" width="6" height="6">image.6.2.105_111.90_96</text>
  <path d="M105.144 402.89 L107.093 402.89 C107.83 402.885 108.295 402.872 108.488 402.851 C108.795 402.817 109.053 402.726 109.263 402.58 C109.473 402.432 109.638 402.236 109.759 401.989 C109.88 401.744 109.941 401.49 109.941 401.231 C109.941 400.898 109.847 400.611 109.659 400.367 C109.472 400.122 109.204 399.948 108.855 399.846 C109.102 399.736 109.298 399.567 109.442 399.343 C109.587 399.119 109.659 398.874 109.659 398.604 C109.659 398.357 109.601 398.133 109.484 397.935 C109.367 397.736 109.22 397.577 109.044 397.456 C108.868 397.336 108.669 397.257 108.447 397.221 C108.224 397.182 107.886 397.164 107.433 397.164 L105.144 397.164 L105.144 402.89 M106.964 398.117 C107.508 398.117 107.838 398.124 107.952 398.137 C108.145 398.159 108.29 398.226 108.388 398.338 C108.486 398.447 108.535 398.591 108.535 398.77 C108.535 398.953 108.478 399.104 108.365 399.216 C108.251 399.33 108.096 399.398 107.898 399.421 C107.788 399.434 107.508 399.44 107.058 399.44 L106.3 399.44 L106.3 398.117 L106.964 398.117 M107.234 400.395 C107.76 400.395 108.101 400.421 108.259 400.476 C108.417 400.531 108.537 400.619 108.62 400.737 C108.704 400.857 108.745 401.003 108.745 401.176 C108.745 401.378 108.691 401.541 108.584 401.661 C108.475 401.783 108.335 401.859 108.163 401.89 C108.051 401.914 107.787 401.926 107.37 401.926 L106.3 401.926 L106.3 400.395 L107.234 400.395 " style="fill:none;stroke:#171615;stroke-width:1.0;"/>
  <rect style="stroke:blue;stroke-width:0.3;" x="104.832" y="396.911" height="6.308" width="5.423" title="6"/>
  <text x="104.832" y="396.911" class="image" id="image.6.3" width="5" height="6">image.6.3.105_110.397_403</text>
  <text svg_rhmargin="97.743" x="51.207,55.358,57.423,62.736,67.923,72.977,77.513,79.459,83.351,85.297,86.858,88.804,90.876,95.671,97.74300000000001" y="715.737" style="fill:#171615;font-family:XBHOUF+HelveticaNeueLTStd-Bd;font-size:7.0px;font-style:NORMAL;font-weight:normal;">FIGURE 2 | (A) </text>
  <text x="99.689,103.448,107.34,109.419,113.052,116.419,118.491,120.437,124.455,125.75,129.642,131.714,133.66,135.473,139.365,141.57000000000002,143.516,147.149,150.516,153.883,157.775,161.408,162.703,166.336,168.408,169.703,173.595,177.35399999999998,179.3,183.318,186.951,189.023,194.21,197.843,201.476,205.23499999999999,207.181,213.012,214.307,218.976,221.566,225.458,229.35,233.242,236.875,238.821,241.026,244.393,248.285,252.177,256.069,259.961,263.853,267.745,269.691,273.709,277.601,278.896,282.137,287.968,291.86,294.065,298.083,301.842,303.137,306.504,312.335,315.702,317.648,321.281,325.04,329.058,331.004,333.209,334.504,337.871,341.371,343.317,347.209,349.022,350.968,353.173,356.932,360.565,364.324,370.155,373.788,375.86,379.752,381.047,385.065,387.011,390.644,392.849,394.921,398.68,400.885,402.18,404.252,405.547,408.91400000000004,410.86,414.619,418.378,422.396,426.029,428.234,430.18,433.813,435.108,436.403,440.036,441.331,444.964,446.91,450.802,454.435,458.194,461.827,463.899,465.194,468.827,470.773,476.604,480.496,484.514,488.147,489.442,491.388,493.075,498.003,499.949,503.19,506.557,508.50300000000004,510.449,515.636,517.323,519.269,522.902,524.715,526.787,530.42" y="715.737" svg_rhmargin="532.625" style="fill:#171615;font-family:KMCGGQ+HelveticaNeueLTStd-Lt;font-size:7.0px;font-style:NORMAL;font-weight:normal;">Forest plot for association between miR-146a rs302789 polymorphisms and risk of rheumatoid arthritis under allele genetic model (C vs. G) after</text>
  <text svg_rhmargin="149.991" x="51.207,54.574,56.646,58.851,62.484,64.556,65.851,68.959,72.592,76.225,78.297,79.592,83.484,87.243,89.189,92.822,96.581,100.214,101.509,104.75,108.117,109.412,112.77900000000001,114.725,118.743,121.984,123.93,127.563,129.635,133.394,137.153,138.448,142.081,143.376,145.448,148.045,149.99099999999999" y="725.202" style="fill:#171615;font-family:KMCGGQ+HelveticaNeueLTStd-Lt;font-size:7.0px;font-style:NORMAL;font-weight:normal;">stratiﬁcation analysis by ethnicity. </text>
  <text svg_rhmargin="161.009" x="151.937,154.009,158.937,161.00900000000001" y="725.202" style="fill:#171615;font-family:XBHOUF+HelveticaNeueLTStd-Bd;font-size:7.0px;font-style:NORMAL;font-weight:normal;">(B) </text>
  <text x="162.955,166.714,170.606,172.685,176.318,179.685,181.757,183.703,187.721,189.016,192.908,194.98,196.926,198.739,202.631,204.836,206.782,210.415,213.782,217.149,221.041,224.674,225.969,229.602,231.674,232.969,236.861,240.61999999999998,242.566,246.584,250.217,252.289,257.476,261.109,264.742,268.50100000000003,270.447,276.278,277.573,282.242,285.742,289.634,293.526,297.418,301.051,302.997,305.202,308.569,312.461,316.353,320.245,324.137,328.029,331.921,333.867,337.885,341.777,343.072,346.313,352.144,356.036,358.241,362.259,366.018,367.313,370.68,376.511,379.87800000000004,381.824,385.457,389.216,393.234,395.18,397.385,398.68,402.047,405.547,407.493,411.385,413.198,415.144,417.349,421.108,424.741,428.5,434.331,437.964,440.036,443.928,445.223,449.241,451.187,454.82,457.025,459.097,462.856,465.061,466.356,468.428,469.723,473.09000000000003,475.036,478.795,482.554,486.572,490.205,492.40999999999997,494.356,498.115,501.748,503.82,507.453,509.532,513.424,516.665,519.906,523.798,527.69,529.762" y="725.202" svg_rhmargin="533.395" style="fill:#171615;font-family:KMCGGQ+HelveticaNeueLTStd-Lt;font-size:7.0px;font-style:NORMAL;font-weight:normal;">Forest plot for association between miR–146a rs302789 polymorphisms and risk of rheumatoid arthritis under heterozygote</text>
  <text x="51.207,55.099,58.732,62.491,66.124,68.196,69.491,73.124,75.07,80.901,84.793,88.811,92.444,93.739,95.685,97.372,102.559,107.487,109.433,112.674,116.041,117.987,119.933,125.12,130.307,131.994,133.94,137.573,139.386,141.458,145.091,147.29600000000002,149.242,152.609,154.681,156.886,160.519,162.591,163.886,166.994,170.627,174.26,176.332,177.627,181.519,185.278,187.224,190.857,194.616,198.249,199.544,202.785,206.152,207.447,210.814,212.76,216.778,220.019,221.965,225.598,227.67,231.429,235.188,236.483,240.116,241.411,243.483,246.08" y="734.6659999999999" svg_rhmargin="248.026" style="fill:#171615;font-family:KMCGGQ+HelveticaNeueLTStd-Lt;font-size:7.0px;font-style:NORMAL;font-weight:normal;">genetic model (GC vs. GG) after stratiﬁcation analysis by ethnicity.</text>
  <text svg_rhmargin="175.943" x="44.98,48.739,50.818,54.71,58.469,60.541,61.836,65.469,67.674,71.04100000000001,72.987,74.282,78.041,79.987,84.397,88.156,91.397,94.764,96.059,99.951,101.246,105.138,109.03,112.271,114.217,115.771,117.717,122.904,128.091,132.893,134.839,136.652,138.731,142.623,146.382,148.454,149.749,153.382,155.587,158.954,160.249,164.008,165.954,169.846,172.051,175.94299999999998" y="768.047" style="fill:#6d6d6c;font-family:KMCGGQ+HelveticaNeueLTStd-Lt;font-size:7.0px;font-style:NORMAL;font-weight:normal;">Frontiers in Physiology | www.frontiersin.org </text>
  <text svg_rhmargin="299.635" x="295.743,299.635" y="768.047" style="fill:#6d6d6c;font-family:XBHOUF+HelveticaNeueLTStd-Bd;font-size:7.0px;font-style:NORMAL;font-weight:normal;">6 </text>
  <text x="426.54,431.468,435.36,438.601,442.234,448.065,452.083,455.716,457.921,459.867,463.759,467.651,471.543,475.435,477.381,478.93499999999995,480.881,484.647,488.539,489.834,493.593,499.424,503.05699999999996,505.003,508.895,510.841,512.395,514.341,518.751,520.956,523.028,524.323,527.956,529.251,532.884,534.83,538.722,542.614,546.506" y="768.047" svg_rhmargin="550.398" style="fill:#6d6d6c;font-family:KMCGGQ+HelveticaNeueLTStd-Lt;font-size:7.0px;font-style:NORMAL;font-weight:normal;">November 2018 | Volume 9 | Article 1604</text>
 </g>
</svg>
