<?xml version="1.0" encoding="UTF-8"?>
<svg height="778.047" width="562.6846625000001" xmlns="http://www.w3.org/2000/svg">
 <g style="fill:none;">
  <text x="8.034,10.402,14.594,18.866,22.538,25.474,28.322,32.162,36.002,38.85,42.69,46.53,50.37,54.21,58.05,74.05,79.994,84.074,87.778,91.178,97.73,101.794,105.194,108.162,109.978,113.818,117.658,119.482,121.298,125.138,128.978,132.818,136.65800000000002,152.658,157.474,159.618,166.17,169.57,171.394,173.642,177.482,181.322,183.146,186.986,190.826,206.826,210.666,212.482,216.322" y="-1.058999999999969" svg_rhmargin="220.162" style="fill:#171615;font-family:ETQGJU+MinionPro-Regular;font-size:8.0px;font-style:NORMAL;font-weight:normal;">fphys-09-01604 November 13, 2018 Time: 14:49 # 10</text>
  <text x="44.98,48.998,52.757,56.649,60.408,62.354,65.987,68.059,70.005,73.638,74.933,76.879,394.823,400.654,401.949,405.582,407.661,411.553,416.222,421.15,425.56,427.506,431.916,435.808,437.103,440.344,446.175,450.067,452.272,456.29,460.049,461.344,464.711,470.542,473.909,475.855,479.488,483.247,487.265,489.211,493.88,497.639,501.272,505.031,510.862,514.495,516.567,520.459,521.754,525.772,527.718,532.128,534.333,536.405,540.164,542.369,543.664,545.736,547.031" y="55.254999999999995" svg_rhmargin="550.398" style="fill:#6d6d6c;font-family:KMCGGQ+HelveticaNeueLTStd-Lt;font-size:7.0px;font-style:NORMAL;font-weight:normal;">Zhou et al. MicroRNA Polymorphisms and Rheumatoid Arthritis</text>
  <text svg_rhmargin="259.195" x="44.98,49.816,53.986,56.884,59.838,64.047,69.12,73.375,77.413,80.31099999999999,84.557,88.727,91.131,93.297,97.553,100.84,105.4,109.96,114.52,119.08,122.367,126.623,129.435,134.28,139.324,144.521,149.53699999999998,153.783,156.719,161.763,165.934,168.832,173.087,180.868,183.414,188.905,192.287,196.847,201.407,205.967,210.214,213.672,217.158,221.718,226.278,230.838,235.398,239.958,244.518,249.078,253.334,259.195" y="90.23800000000006" style="fill:#6d6d6c;font-family:ETQGJU+MinionPro-Regular;font-size:9.5px;font-style:NORMAL;font-weight:normal;">Fattah et al. (2017) found that miR-499 rs3746444 T </text>
  <text svg_rhmargin="270.858" x="263.448,270.858" y="90.23800000000006" style="fill:#171615;font-family:XODHDR+RBLMI;font-size:9.5px;font-style:NORMAL;font-weight:normal;">&gt; </text>
  <text x="275.111,281.429,285.675,288.221" y="90.23800000000006" svg_rhmargin="291.708" style="fill:#171615;font-family:ETQGJU+MinionPro-Regular;font-size:9.5px;font-style:NORMAL;font-weight:normal;">C is</text>
  <text x="44.98,49.141,52.58,56.066,60.911,64.93,67.476,71.646,74.544,78.581,83.59700000000001,87.473,93.981,96.527,99.462,104.535,108.411,111.347,116.42,120.458,124.343,127.829,132.874,136.427,140.445,144.483,149.461,152.358,154.904,159.73,162.277,164.68,167.226,170.124,174.484,178.36,181.258,186.103,189.979,195.926,202.49,204.656,208.532,212.703,217.899,222.915,226.801,229.736,234.809,238.847,242.723,247.796,251.833,254.731,258.768,262.293,267.138,271.128,275.488,279.934,284.779,287.677" y="101.69500000000005" svg_rhmargin="291.715" style="fill:#171615;font-family:ETQGJU+MinionPro-Regular;font-size:9.5px;font-style:NORMAL;font-weight:normal;">associated with the susceptibility to RA, and the heterozygote</text>
  <text x="44.98,47.526,51.013000000000005,55.962,59.924,64.968,69.138,72.663,76.814,80.833,83.73,87.768,91.292,93.838,97.828,101.866,106.882,111.831,116.657,121.017,125.958,131.031,133.577,138.08,143.153,147.191,150.715,155.665,158.068,162.191,166.59,170.627,173.031,176.518,181.467,186.312,189.12400000000002,194.073,200.391,203.773,207.297,211.382,215.534,219.552,222.45,224.996,229.394,233.43200000000002,238.381,243.359,246.884,251.729,254.626,258.664,261.21,266.406,268.572,273.522,277.692,282.889,285.786,288.332" y="113.15200000000004" svg_rhmargin="291.714" style="fill:#171615;font-family:ETQGJU+MinionPro-Regular;font-size:9.5px;font-style:NORMAL;font-weight:normal;">is characterized by higher levels of C-reactive protein, anti-</text>
  <text x="44.98,48.998,53.359,57.377,59.781,62.327,66.346,69.946,73.965,76.51,79.408,82.932,87.977,90.381,92.784,95.33,100.527,104.697,107.595,111.632,116.64800000000001,120.249,125.227,129.264,134.242,137.14,139.686,144.702,148.682,150.84799999999998,154.449,158.619,163.816,166.713,169.259,174.085,178.93,183.946,188.306,191.917,196.087,201.284,206.29999999999998,209.9,214.916,217.462,220.949,225.034,229.195,232.681,236.71900000000002,240.319,244.471,248.489,251.387,253.933,258.331,260.877,263.775,268.135,271.736,275.289,279.307,284.152,287.677" y="124.60900000000004" svg_rhmargin="291.715" style="fill:#171615;font-family:ETQGJU+MinionPro-Regular;font-size:9.5px;font-style:NORMAL;font-weight:normal;">cyclic citrullinated peptide, antibody and disease activity score</text>
  <text x="44.98,49.54,54.1,57.102,60.037,65.082,69.252,74.448,77.451,80.386,85.459,90.304,93.791,97.829,100.83,105.675,108.487,111.489,114.425,119.498,123.536,126.537,131.61,136.455,144.236,149.081,153.071,157.432,161.878,166.723,169.62,173.65800000000002,176.66,179.947,184.782,188.953,191.85,194.805,199.013,204.086,207.088,211.126,214.024,217.016,221.186,223.59,225.756,227.922,230.924,235.484,240.044,244.604,249.164,252.451,254.617,257.628,264.677,268.838,272.277,277.35,281.388,289.168" y="136.067" svg_rhmargin="291.714" style="fill:#171615;font-family:ETQGJU+MinionPro-Regular;font-size:9.5px;font-style:NORMAL;font-weight:normal;">28 than those of the homozygote (Fattah et al., 2017). Hashemi</text>
  <text x="44.98,49.017,51.915000000000006,56.931,61.101,63.505,65.671,70.696,73.983,78.543,83.103,87.663,92.223,95.51,100.526,104.697,107.1,110.587,115.432,120.457,123.982,128.019,132.997,137.842,141.367,144.264,148.302,153.31799999999998,158.334,161.27,166.314,170.485,173.383,178.398,181.334,186.407,190.44500000000002,195.47,201.788,206.803,210.974,213.377,215.781,219.818,222.222,226.26000000000002,231.275,236.12,238.93200000000002,243.948,246.884,251.957,255.995,261.02,268.8,271.346,274.652,278.034,282.594,287.154" y="147.524" svg_rhmargin="291.714" style="fill:#6d6d6c;font-family:ETQGJU+MinionPro-Regular;font-size:9.5px;font-style:NORMAL;font-weight:normal;">et al. (2013) also reported that the C allele of the mir-499</text>
  <text x="44.98,48.438,51.924,56.484,61.044,65.604,70.164,74.724,79.284,83.84400000000001,87.198,92.176,97.021,99.424,103.785,111.565,116.41,119.935,124.913,129.986,132.532,136.018,143.799,147.152,149.698,153.185,156.538,160.709,164.062,167.587,170.133,173.619,178.331,181.685,184.507,188.658,192.676,195.574,200.419,203.943,207.307,210.119,214.964,218.488,221.842,227.789,234.353,236.519,239.873,246.437,248.841,251.776,256.849,261.694,266.739,271.242,276.315,279.668,282.604,287.677" y="158.981" svg_rhmargin="291.715" style="fill:#171615;font-family:ETQGJU+MinionPro-Regular;font-size:9.5px;font-style:NORMAL;font-weight:normal;">rs3746444 polymorphism is a risk factor for RA. Although the</text>
  <text x="44.98,49.825,54.223,58.261,61.785,65.956,68.359,70.762,75.057,78.581,82.6,86.087,91.131,93.535,96.432,99.919,104.222,109.067,111.87899999999999,116.173,119.109,124.182,128.22,132.513,137.491,142.336,147.181,149.585,153.622,158.638,162.942,167.112,172.309,176.479,178.883,183.243,186.73,189.276,192.763,197.056,199.602,204.799,209.815,212.361,216.408,220.578,223.476,227.513,232.529,236.823,239.759,244.803,248.974,251.87199999999999,256.165,259.101,264.174,268.212,272.515,280.295,282.841,288.332" y="170.438" svg_rhmargin="291.714" style="fill:#171615;font-family:ETQGJU+MinionPro-Regular;font-size:9.5px;font-style:NORMAL;font-weight:normal;">overall results of the pooled analysis indicated that the miR-</text>
  <text svg_rhmargin="69.129" x="44.98,49.54,54.1,58.660000000000004,63.268,69.129" y="181.89499999999998" style="fill:#171615;font-family:ETQGJU+MinionPro-Regular;font-size:9.5px;font-style:NORMAL;font-weight:normal;">499 T </text>
  <text svg_rhmargin="81.139" x="73.729,81.139" y="181.89499999999998" style="fill:#171615;font-family:XODHDR+RBLMI;font-size:9.5px;font-style:NORMAL;font-weight:normal;">&gt; </text>
  <text x="85.743,92.06099999999999,96.658,101.636,106.481,108.885,113.245,121.026,125.871,129.395,134.373,139.446,141.992,145.479,153.26000000000002,157.867,164.374,168.535,172.022,176.629,180.79,184.229,187.716,192.561,196.579,199.125,203.296,206.193,210.231,215.24699999999999,219.845,226.353,228.899,231.834,236.907,241.515,247.462,254.02599999999998,258.624,262.149,264.695,268.181,272.893,275.05899999999997,279.667,282.602,287.675" y="181.89499999999998" svg_rhmargin="291.713" style="fill:#171615;font-family:ETQGJU+MinionPro-Regular;font-size:9.5px;font-style:NORMAL;font-weight:normal;">C polymorphism was associated with RA risk, the</text>
  <text x="44.98,50.053,52.599,57.102,62.175,66.212,71.285,75.323,78.22,82.258,85.782,90.627,95.073,99.111,104.307,108.345,110.891,113.788,118.148,122.196,125.682,130.727,135.23,139.676,143.694,147.181,150.078,154.116,159.132,163.17,167.34,172.536,176.574,179.12,184.317,187.803,192.848,200.429,204.447,206.993,211.031,216.227,219.125,223.162,226.687,231.532,236.358,241.402,244.889,247.786,252.983,257.001,260.44,263.927,267.974,272.819,275.63100000000003,279.668,282.604,287.677" y="193.35199999999998" svg_rhmargin="291.715" style="fill:#171615;font-family:ETQGJU+MinionPro-Regular;font-size:9.5px;font-style:NORMAL;font-weight:normal;">high heterogeneity suggested an insuﬃcient robustness of the</text>
  <text x="44.98,48.998,53.843,59.04,63.058,65.462,70.507,73.993,76.539,81.384,86.581,88.747,92.632,95.872,101.068,104.944,107.88,112.953,116.991,120.866,124.353,129.397,134.214,138.66,142.184,147.029,152.074,157.05200000000002,160.928,165.098,170.295,174.465,176.869,181.229,184.716,187.262,190.749,194.624,198.776,202.804,206.822,211.667,215.192,220.208,222.754,227.95,232.396,236.272,239.17,244.015,247.891,251.928,254.864,259.937,265.133,267.679,271.698,274.244,277.141,281.502,283.668,287.544" y="204.80899999999997" svg_rhmargin="291.715" style="fill:#171615;font-family:ETQGJU+MinionPro-Regular;font-size:9.5px;font-style:NORMAL;font-weight:normal;">conclusion. In the subgroup analysis according to ethnicity, a</text>
  <text svg_rhmargin="211.011" x="44.98,48.466,51.364,54.888,59.733,64.93,69.376,72.834,76.853,81.698,85.222,88.746,92.784,95.188,99.358,102.256,104.801,109.646,114.842,118.301,123.127,127.164,130.062,136.57,140.607,144.645,149.841,153.299,156.235,161.308,165.346,168.803,176.584,179.13,184.621,188.003,192.563,197.123,201.683,205.15,211.011" y="216.26599999999996" style="fill:#171615;font-family:ETQGJU+MinionPro-Regular;font-size:9.5px;font-style:NORMAL;font-weight:normal;">strong correlation between the miR-499 T </text>
  <text svg_rhmargin="221.876" x="214.466,221.876" y="216.26599999999996" style="fill:#171615;font-family:XODHDR+RBLMI;font-size:9.5px;font-style:NORMAL;font-weight:normal;">&gt; </text>
  <text x="225.335,231.65300000000002,235.11,240.088,244.933,247.337,251.697,259.478,264.323,267.848,272.826,277.898,280.444,283.931" y="216.26599999999996" svg_rhmargin="291.712" style="fill:#171615;font-family:ETQGJU+MinionPro-Regular;font-size:9.5px;font-style:NORMAL;font-weight:normal;">C polymorphism</text>
  <text x="44.98,49.15,54.347,59.363,62.374,68.321,74.88499999999999,77.897,84.405,88.566,92.053,95.074,99.919,104.735,108.222,112.259,116.059,120.458,124.495,129.511,132.523,135.069,140.265,143.277,146.212,151.285,155.323,158.334,164.747,168.917,173.962,178.009,182.17,185.656,188.202,192.373,197.569,200.581,205.027,208.551,213.396,218.441,223.419,225.585,228.606,235.113,240.186,242.732,246.694,251.767,254.778,258.265,263.309,267.812,272.258,276.277,279.763,282.661,286.698" y="227.72299999999996" svg_rhmargin="291.714" style="fill:#171615;font-family:ETQGJU+MinionPro-Regular;font-size:9.5px;font-style:NORMAL;font-weight:normal;">and RA was observed in the Caucasian group, which suggested</text>
  <text svg_rhmargin="188.734" x="44.98,47.915,52.96,57.13,60.028000000000006,64.654,67.59,72.663,76.701,81.317,87.63499999999999,92.261,96.432,98.835,101.239,105.276,107.68,111.718,116.334,118.88,124.076,128.703,131.639,136.712,140.75,145.376,153.156,155.702,161.194,164.576,169.136,173.696,178.256,182.873,188.73399999999998" y="239.17999999999995" style="fill:#171615;font-family:ETQGJU+MinionPro-Regular;font-size:9.5px;font-style:NORMAL;font-weight:normal;">that the C allele in the miR-499 T </text>
  <text svg_rhmargin="200.771" x="193.361,200.771" y="239.17999999999995" style="fill:#171615;font-family:XODHDR+RBLMI;font-size:9.5px;font-style:NORMAL;font-weight:normal;">&gt; </text>
  <text x="205.394,211.71200000000002,216.329,221.307,226.152,228.555,232.916,240.696,245.541,249.066,254.044,259.117,261.663,265.149,272.93,277.556,284.064,288.225" y="239.17999999999995" svg_rhmargin="291.712" style="fill:#171615;font-family:ETQGJU+MinionPro-Regular;font-size:9.5px;font-style:NORMAL;font-weight:normal;">C polymorphism was</text>
  <text x="44.98,49.15,54.346,60.693,65.538,70.221,74.62,77.166,82.011,87.055,90.542,96.897,100.916,105.761,110.958,113.855,117.38,119.925,124.751,129.796,132.693,137.538,141.062,147.409,150.307,155.152,161.507,167.454,174.018,180.365,183.851,188.895,192.448,196.467,200.504,205.482,208.38,210.926,215.752,218.298,220.702,223.248,226.145,230.506,232.672,239.046,246.323,251.168,257.676,261.799,266.197,270.235,273.151,275.317,281.673,286.869" y="250.63699999999994" svg_rhmargin="291.714" style="fill:#171615;font-family:ETQGJU+MinionPro-Regular;font-size:9.5px;font-style:NORMAL;font-weight:normal;">an obvious contributor to RA susceptibility. However, no</text>
  <text x="44.98,48.504,52.542,54.945,59.116,62.013,64.559,69.404,74.601,78.04,83.113,85.659,90.637,93.743,100.251,104.412,107.899,111.005,115.85,120.666,124.153,128.191,131.991,136.389,140.427,145.44299999999998,148.54,151.086,156.282,159.389,162.324,167.397,171.435,174.541,180.954,184.44,186.986,191.157,196.353,199.46,203.906,207.43,212.275,217.32,222.298,224.464,227.57,233.422,238.495,242.53300000000002,245.639,249.164,253.182,256.669,261.713,264.117,267.014,270.50100000000003,273.607,280.115,284.152,287.677" y="262.09400000000005" svg_rhmargin="291.715" style="fill:#171615;font-family:ETQGJU+MinionPro-Regular;font-size:9.5px;font-style:NORMAL;font-weight:normal;">relationship was observed in the Asian group. The results were</text>
  <text x="44.98,47.526,52.722,57.453,61.472,66.317,71.513,75.0,77.546,81.033,83.93,87.967,93.164,97.183,101.543,106.274,112.782,115.327,118.263,123.33600000000001,128.067,133.045,136.57,140.693,145.091,147.637,152.482,157.527,161.01399999999998,165.744,173.525,177.562,180.517,184.687,188.069,192.24,197.436,201.607,204.01,208.371,211.857,214.403,217.89,222.621,225.908,230.933,235.97799999999998,240.718,244.756,247.654,252.384,256.555,258.958,261.124,263.29,268.021,272.581,277.141,281.701,286.261,289.548" y="273.55100000000004" svg_rhmargin="291.714" style="fill:#171615;font-family:ETQGJU+MinionPro-Regular;font-size:9.5px;font-style:NORMAL;font-weight:normal;">in consistency with previous meta-analysis (Fu et al., 2016),</text>
  <text x="44.98,50.053,54.898,61.405,65.528,69.927,73.964,76.881,79.047,83.787,88.813,93.858,98.598,102.635,105.533,110.273,114.444,116.847,119.01299999999999,123.763,127.05,131.611,136.171,140.73,145.29,148.577,153.318,158.334,161.859,165.896,172.404,177.144,181.315,186.055,190.074,194.919,200.115,204.133,206.537,211.581,215.068,217.614,222.459,227.655,232.396,236.481,241.307,246.152,251.197,254.095,258.835,266.615,269.161,274.652,278.034,282.594,287.154" y="285.00800000000004" svg_rhmargin="291.714" style="fill:#171615;font-family:ETQGJU+MinionPro-Regular;font-size:9.5px;font-style:NORMAL;font-weight:normal;">however, Fu et al. (2016) drew a conclusion about miR-499</text>
  <text x="44.98,49.958,54.803,57.206,61.567,69.347,74.192,77.717,82.695,87.768,90.314,93.8,101.581,107.138,111.584,115.109,119.954,124.998,129.976,135.534,140.408,144.568,148.055,152.092,157.108,162.666,167.511,172.707,178.265,181.201,186.273,189.798,193.836,197.87400000000002,203.44,206.927,209.824,214.869,219.885,222.431,226.449,229.936,235.493,238.039,243.236,247.254,249.658,254.702,259.718,262.264,267.461,271.90700000000004,277.464,280.362,286.869" y="296.465" svg_rhmargin="291.714" style="fill:#171615;font-family:ETQGJU+MinionPro-Regular;font-size:9.5px;font-style:NORMAL;font-weight:normal;">polymorphism group based on three studies including two</text>
  <text x="44.98,48.466,51.364,56.408,61.424,63.97,67.989,71.476,76.178,79.465,84.861,87.265,90.647,95.083,100.128,104.298,106.70100000000001,111.395,115.432,118.33,123.032,127.203,129.606,131.772,133.938,138.641,143.201,147.761,152.321,156.881,159.047,163.749,170.798,174.959,178.398,183.471,187.508,195.289,197.83499999999998,202.538,206.575,209.47299999999998,214.175,218.346,220.749,222.915,225.081,229.774,234.334,238.894,243.454,248.014,251.30100000000002,256.004,258.816,262.34,267.185,274.966,279.668,282.604,287.677" y="307.922" svg_rhmargin="291.715" style="fill:#171615;font-family:ETQGJU+MinionPro-Regular;font-size:9.5px;font-style:NORMAL;font-weight:normal;">studies (El-Shal et al., 2013; Hashemi et al., 2013) from the</text>
  <text x="44.98,51.392,55.563,60.607,64.655,68.816,72.302,74.848,79.019,84.215,88.414,92.86,96.385,101.23,106.274,111.252,115.451,119.622,124.818,129.834,134.033,138.878,144.075,148.113,152.311,155.598,160.51,164.68,169.877,174.323,178.522,182.559,185.457,189.656,193.826,196.23,198.396,200.56199999999998,204.77,209.33,213.89,218.45,223.01,226.297,230.496,233.308,236.833,241.678,249.459,253.657,256.593,261.666,265.704,269.902,276.315,279.801,282.347,286.518" y="319.379" svg_rhmargin="291.714" style="fill:#171615;font-family:ETQGJU+MinionPro-Regular;font-size:9.5px;font-style:NORMAL;font-weight:normal;">Caucasian group and one (Yang et al., 2011) from the Asian</text>
  <text x="44.98,49.426,52.95,57.795,62.84,67.818,69.984,73.1,79.512,82.999,86.096,88.642,93.838,97.857,101.381,105.466,109.627,113.114,115.66,120.856,125.30199999999999,128.409,133.605,138.65,146.43,151.257,155.294,158.818,161.925,166.77,169.58200000000002,172.689,176.736,180.897,184.383,188.421,191.803,195.821,200.666,205.863,208.76,212.285,217.13,219.533,222.64,226.126,229.024,234.068,239.084,241.63,245.649,249.136,252.242,257.22,262.264,267.09,269.494,272.04,275.479,280.552,284.589,289.548" y="330.836" svg_rhmargin="291.714" style="fill:#171615;font-family:ETQGJU+MinionPro-Regular;font-size:9.5px;font-style:NORMAL;font-weight:normal;">group. As increasing number of case-control studies published,</text>
  <text x="44.98,47.915,52.988,55.534,59.021,62.536,67.58,72.558,77.593,81.764,84.661,88.699,93.715,97.22,105.001,109.038,111.993,116.163,119.545,123.716,128.912,133.083,135.486,139.847,143.333,145.88,149.367,152.881,156.406,160.443,163.341,166.865,169.411,173.534,177.933,181.97,186.986,190.501,195.584,199.982,204.02,207.525,211.012,213.909,218.954,223.97,226.516,230.534,234.021,237.536,240.082,245.278,249.297,251.7,256.745,261.761,264.307,269.503,273.949,277.464,280.362,286.869" y="342.293" svg_rhmargin="291.714" style="fill:#171615;font-family:ETQGJU+MinionPro-Regular;font-size:9.5px;font-style:NORMAL;font-weight:normal;">this updated meta-analysis retrieved ﬁve studies including two</text>
  <text x="44.98,48.267,53.663,56.066,59.448,63.885,68.929,73.1,75.503,77.451,81.488,84.386,86.324,90.494,92.898,95.064,97.22999999999999,99.178,103.738,108.298,112.857,117.417,119.583,121.521,126.357,130.527,133.425,136.38,140.588,145.661,147.609,151.646,154.54399999999998,156.482,160.652,163.056,165.222,167.388,169.335,173.895,178.455,183.015,187.575,190.862,192.8,195.612,199.137,203.982,211.763,213.71,216.645,221.718,225.756,227.694,234.106,238.277,243.321,247.368,251.529,255.016,257.562,261.732,266.92800000000005,268.876,273.322,276.847,281.692,286.736" y="353.75" svg_rhmargin="291.714" style="fill:#171615;font-family:ETQGJU+MinionPro-Regular;font-size:9.5px;font-style:NORMAL;font-weight:normal;">(El-Shal et al., 2013; Fattah et al., 2017) from the Caucasian group</text>
  <text x="44.98,49.15,54.347,59.363,61.529,64.465,69.537,73.062,77.099,81.137,83.312,86.124,89.649,94.494,102.275,104.44,110.853,114.339,116.885,121.056,126.252,128.428,132.874,136.398,141.243,146.288,151.26600000000002,153.432,156.719,161.63,165.801,170.997,175.443,177.609,181.647,184.545,186.72,190.891,193.294,195.46,197.626,199.792,204.352,208.912,213.472,218.032,220.198,222.374,226.934,231.494,236.054,240.614,242.78,244.946,250.674,255.719,259.889,265.086,269.53200000000004,271.698,275.735,278.63300000000004,280.808,284.979,287.382,289.548" y="365.207" svg_rhmargin="291.714" style="fill:#171615;font-family:ETQGJU+MinionPro-Regular;font-size:9.5px;font-style:NORMAL;font-weight:normal;">and three from Asian group (Yang et al., 2011, 2016; Zhang et al.,</text>
  <text x="44.98,49.54,54.1,58.66,63.22,66.507,68.673,70.469,77.451,82.496,86.53399999999999,88.319,91.217,96.062,97.848,100.783,105.856,109.89399999999999,111.689,114.235,119.432,123.45,128.295,133.492,136.978,139.524,143.011,145.908,149.946,155.142,159.161,163.52100000000002,165.307,171.815,174.361,177.296,182.369,184.165,191.442,200.666,206.062,208.228,210.014,212.912,219.419,224.264,226.05,229.537,232.434,237.479,242.495,245.041,249.059,252.546,254.341,257.628,264.677,268.838,272.277,277.35,281.388,289.168" y="376.664" svg_rhmargin="291.714" style="fill:#6d6d6c;font-family:ETQGJU+MinionPro-Regular;font-size:9.5px;font-style:NORMAL;font-weight:normal;">2013). Due to the inconsistency with HWE, two studies (Hashemi</text>
  <text x="44.98,49.017,51.915000000000006,55.629,59.8,62.203,64.369,66.535,70.24,74.8,79.36,83.92,88.48,90.646,94.361,100.222,105.067,108.592,112.762,115.308,120.381,124.096,128.133,131.031,134.745,138.916,141.319,143.485,145.651,149.356,153.916,158.476,163.036,167.596,170.883,174.598,181.105,185.143,188.667,192.705,196.419,200.438,204.837,208.855,211.258,216.303,221.319,225.357,230.373,234.078,236.89,240.414,245.259,253.04,256.754,259.69,264.763,268.801,272.515,280.295,282.841,288.332" y="388.121" svg_rhmargin="291.714" style="fill:#6d6d6c;font-family:ETQGJU+MinionPro-Regular;font-size:9.5px;font-style:NORMAL;font-weight:normal;">et al., 2013; Toraih et al., 2016) were excluded from the miR-</text>
  <text x="44.98,49.54,54.1,58.660000000000004,60.874,65.852,70.697,73.1,77.461,85.241,90.086,93.611,98.589,103.661,106.207,109.694,117.47500000000001,119.688,124.134,127.659,132.503,137.548,142.526,144.692,146.905,153.413,158.486,161.032,164.993,170.066,172.28,174.826,180.022,184.041,187.565,191.65,195.811,199.298,203.335,208.351,210.565,213.501,218.574,222.61200000000002,224.825,228.349,233.194,238.02,243.065,246.551,249.449,254.645,258.664,262.103,265.59000000000003,267.803,272.648,275.46000000000004,277.673,280.609,285.682,288.228" y="399.578" svg_rhmargin="291.715" style="fill:#171615;font-family:ETQGJU+MinionPro-Regular;font-size:9.5px;font-style:NORMAL;font-weight:normal;">499 polymorphism group, which increased the robustness of this</text>
  <text svg_rhmargin="99.292" x="44.98,52.76,56.798,59.752,63.923,67.305,71.475,76.672,80.842,83.246,87.606,91.093,93.639,97.126,99.292" y="90.23800000000006" style="fill:#171615;font-family:ETQGJU+MinionPro-Regular;font-size:9.5px;font-style:NORMAL;font-weight:normal;">meta-analysis. </text>
  <text x="315.124,320.976,326.049,330.087,337.088,342.066,345.591,349.609,353.096,357.133,362.33,365.228,372.238,375.725,378.622,383.667,388.683,393.043,400.045,405.089,409.26,414.276,421.277,424.764,428.887,433.285,437.323,440.847,445.018,447.421,454.432,456.836,459.382,467.162,469.708,472.663,476.833,479.73,482.276,487.121,492.318,495.805,497.971,505.0,510.026,512.572,516.03,519.516,522.414,524.818,529.178,531.344,538.355,541.291,546.364" y="90.23800000000006" svg_rhmargin="550.402" style="fill:#171615;font-family:ETQGJU+MinionPro-Regular;font-size:9.5px;font-style:NORMAL;font-weight:normal;">The present study had several limitations. Firstly, the</text>
  <text x="303.667,308.056,312.227,315.751,318.297,322.468,325.365,327.911,332.756,337.952,344.375,346.921,352.117,358.53,362.073,366.244,374.024,379.002,381.406,385.444,391.865,395.352,397.898,401.888,405.926,412.347,416.518,421.714,426.73,433.152,435.698,440.894,447.307,451.753,455.791,460.987,465.832,468.73,473.09,478.068,480.614,485.811,490.257,496.679,504.459,508.497,511.432,516.505,521.35,526.337,529.824,536.246,542.753,546.914" y="101.69500000000005" svg_rhmargin="550.401" style="fill:#171615;font-family:ETQGJU+MinionPro-Regular;font-size:9.5px;font-style:NORMAL;font-weight:normal;">variation in sample size and in genotyping methods was</text>
  <text x="303.667,307.83799999999997,314.915,317.319,319.865,327.645,330.191,333.146,337.316,340.214,342.759,347.604,352.8,359.879,364.724,367.536,374.613,377.549,382.622,386.66,393.737,397.223,400.121,405.165,410.181,414.542,416.70799999999997,423.814,428.316,432.411,436.43,441.275,446.471,451.487,453.891,458.251,460.417,467.495,471.665,474.069,476.47200000000004,483.55,487.036,489.934,494.978,499.994,502.54,506.559,510.04600000000005,517.122,519.669,524.865,528.883,531.287,536.331,541.347,545.385" y="113.15099999999995" svg_rhmargin="550.401" style="fill:#171615;font-family:ETQGJU+MinionPro-Regular;font-size:9.5px;font-style:NORMAL;font-weight:normal;">a limitation of the study. Secondly, all studies included</text>
  <text x="303.667,306.213,311.40900000000005,317.357,322.202,327.246,330.77,336.717,344.498,348.535,351.49,355.66,359.042,363.213,368.409,372.58,374.983,379.344,382.831,386.849,390.336,396.283,402.79,406.828,410.352,414.39,420.337,422.883,428.079,434.026,438.177,442.205,446.224,451.069,454.593,459.628,463.799,468.995,473.014,477.052,482.998,489.506,492.052,494.987,500.06,506.007,513.284,522.509,527.905,530.071,536.018,540.188,545.385" y="124.60799999999995" svg_rhmargin="550.401" style="fill:#171615;font-family:ETQGJU+MinionPro-Regular;font-size:9.5px;font-style:NORMAL;font-weight:normal;">in our meta-analyses were in accordance with HWE, and</text>
  <text x="303.667,308.493,312.588,316.635,320.805,325.85,329.336,333.374,340.879,345.724,348.536,356.041,358.976,364.049,368.087,375.592,377.995,380.541,388.322,390.868,393.765,397.803,402.819,410.324,415.52,420.565,428.345,433.171,437.208,440.732,448.238,453.083,455.89500000000004,463.4,465.946,471.143,475.161,477.565,482.609,487.625,491.663,496.67900000000003,504.184,507.67,510.568,515.612,520.628,523.174,527.193,530.679,532.845,540.36,545.556" y="136.06600000000003" svg_rhmargin="550.401" style="fill:#171615;font-family:ETQGJU+MinionPro-Regular;font-size:9.5px;font-style:NORMAL;font-weight:normal;">because of the limited number of included studies, no</text>
  <text x="303.667,308.645,313.69,318.516,320.919,323.465,327.512,331.682,334.58,337.126,341.971,347.16700000000003,354.178,359.004,361.55,365.711,369.19800000000004,376.209,380.227,385.072,390.117,392.52,397.536,404.538,409.364,413.402,420.412,423.31,427.328,430.815,433.712,437.75,442.766,444.932,451.971,457.557,461.652,465.699,469.869,474.914,478.4,482.438,489.449,494.294,497.106,504.117,507.052,512.125,516.163,523.174,525.577,528.123,535.904,538.45,541.347,545.385" y="147.52300000000002" svg_rhmargin="550.401" style="fill:#171615;font-family:ETQGJU+MinionPro-Regular;font-size:9.5px;font-style:NORMAL;font-weight:normal;">publication bias could be tested. Because of the limited</text>
  <text x="303.667,308.522,313.566,317.737,322.933,325.831,328.376,331.274,335.634,342.911,347.082,352.279,357.295,364.572,369.426,374.47,378.641,381.044,383.59,386.488,390.848,398.125,402.97,405.78200000000004,413.06,415.995,421.068,425.106,432.383,434.928,440.125,444.143,446.547,451.591,456.607,460.645,465.661,472.938,476.424,479.322,484.366,489.382,491.928,495.947,499.433,501.599,508.886,511.821,516.894,520.932,528.209,532.294,537.12,541.965,546.363" y="158.98000000000002" svg_rhmargin="550.401" style="fill:#171615;font-family:ETQGJU+MinionPro-Regular;font-size:9.5px;font-style:NORMAL;font-weight:normal;">quantity and quality of the included studies, the above</text>
  <text x="303.667,307.686,312.531,317.727,321.746,324.149,329.194,332.68,335.226,340.071,345.26700000000005,347.614,352.811,356.848,360.886,365.873,369.36,371.716,374.613,379.458,381.814,386.64,390.678,393.024,395.836,400.88,404.405,407.34,412.413,416.451,419.975,422.331,426.73,430.767,434.292,436.838,441.92,445.958,450.97400000000005,453.32,455.866,461.062,463.419,467.589,472.605,477.621,480.167,483.065,485.611,490.456,495.652,499.823,502.226,504.573,509.646,512.192,516.695,521.768,524.124,528.978,534.023,538.193,540.597,543.143,546.04" y="170.437" svg_rhmargin="550.4" style="fill:#171615;font-family:ETQGJU+MinionPro-Regular;font-size:9.5px;font-style:NORMAL;font-weight:normal;">conclusion needs to be further veriﬁed in additional high quality</text>
  <text x="303.667,307.154,310.051,315.096,320.112,322.658,326.676,330.163" y="181.894" svg_rhmargin="332.329" style="fill:#171615;font-family:ETQGJU+MinionPro-Regular;font-size:9.5px;font-style:NORMAL;font-weight:normal;">studies.</text>
  <text x="303.667,312.559,321.895,330.787,339.679,346.795,355.687,363.475,367.015,376.351" y="218.058" svg_rhmargin="385.243" style="fill:#171615;font-family:XBHOUF+HelveticaNeueLTStd-Bd;font-size:12.0px;font-style:NORMAL;font-weight:normal;">CONCLUSION</text>
  <text x="303.667,306.907,312.103,315.476,319.494,324.339,329.536,333.554,335.958,341.002,344.489,347.035,351.88,357.076,359.242,362.624,365.559,370.632,374.67,378.042,383.02,386.545,390.563,394.05,398.087,403.284,406.182,409.554,417.334,421.372,424.326,428.497,431.879,436.049,441.246,445.416,447.82,452.18,455.667,458.213,461.70000000000005,465.072,468.511,473.584,478.429,484.937,488.974,493.99,497.363,502.559,507.40400000000005,510.786,514.273,516.819,521.265,526.461,529.007,534.09,538.137,542.307,547.503" y="239.17899999999997" svg_rhmargin="550.401" style="fill:#171615;font-family:ETQGJU+MinionPro-Regular;font-size:9.5px;font-style:NORMAL;font-weight:normal;">In conclusion, the present meta-analysis showed no signiﬁcant</text>
  <text x="303.667,307.828,311.267,314.754,319.599,323.617,326.163,330.334,333.231,335.777,340.622,345.81800000000004,354.882,359.708,363.745,366.643,373.15,377.188,381.225,386.42100000000005,395.494,403.275,405.821,411.312,414.694,419.254,423.814,428.374,432.545,441.607,445.777,450.974,455.99,465.063,471.009,477.57300000000004,486.628,490.152,492.698,496.185,500.897,503.063,512.135,518.643,523.716,526.262,530.223,535.2959999999999,544.369,546.915" y="250.63599999999997" svg_rhmargin="550.402" style="fill:#171615;font-family:ETQGJU+MinionPro-Regular;font-size:9.5px;font-style:NORMAL;font-weight:normal;">association between miR-146a and RA risk, which is</text>
  <text x="303.667,307.686,312.531,317.727,321.214,323.76,327.246,330.144,334.181,339.378,342.276,346.873,353.381,355.927,358.862,363.935,368.533,373.511,377.035,381.159,385.557,388.103,392.948,397.992,401.47900000000004,406.077,409.564,412.461,417.505,422.521,425.067,429.086,432.572,434.738,439.346,446.623,451.468,457.975,462.099,466.497,470.535,473.451,475.617,480.215,483.15,488.223,492.261,496.859,501.837,505.361,509.38,512.866,516.904,522.1,524.998,529.596,533.082,535.98,541.024,546.04" y="262.09299999999996" svg_rhmargin="550.4" style="fill:#171615;font-family:ETQGJU+MinionPro-Regular;font-size:9.5px;font-style:NORMAL;font-weight:normal;">consistent with previous studies. However, the present study</text>
  <text x="303.667,308.683,312.721,320.501,325.346,330.543,334.029,336.927,340.451,344.622,347.519,351.557,356.57300000000004,360.487,363.422,368.495,372.533,376.456,380.474,385.319,390.516,393.413,396.938,399.484,404.31,409.354,412.252,414.798,419.643,424.839,428.753,433.598,436.41,440.324,443.26,448.333,452.37100000000004,456.294,462.61199999999997,466.525,470.696,473.099,475.503,479.54,481.944,485.982,489.895,492.441,497.637,501.552,504.487,509.56,513.598,517.521,525.302,527.848,533.339,536.721,541.281,545.841" y="273.54999999999995" svg_rhmargin="550.401" style="fill:#171615;font-family:ETQGJU+MinionPro-Regular;font-size:9.5px;font-style:NORMAL;font-weight:normal;">demonstrated the contribution of the C allele in the miR-499</text>
  <text svg_rhmargin="309.528" x="303.667,309.52799999999996" y="285.00699999999995" style="fill:#171615;font-family:ETQGJU+MinionPro-Regular;font-size:9.5px;font-style:NORMAL;font-weight:normal;">T </text>
  <text svg_rhmargin="321.508" x="314.098,321.50800000000004" y="285.00699999999995" style="fill:#171615;font-family:XODHDR+RBLMI;font-size:9.5px;font-style:NORMAL;font-weight:normal;">&gt; </text>
  <text x="326.078,332.39599999999996,336.965,341.943,346.788,349.192,353.552,361.333,366.178,369.702,374.68,379.753,382.299,385.786,393.567,398.135,401.033,405.87800000000004,410.447,416.394,422.958,427.528,431.015,436.059,439.612,443.631,447.668,452.646,455.544,458.09,462.916,465.462,467.865,470.411,473.309,477.66900000000004,482.239,484.785,489.98100000000005,494.551,497.486,502.559,506.59700000000004,511.166,517.579,521.749,526.794,530.841,535.002,538.488,541.034,545.205" y="285.00699999999995" svg_rhmargin="550.401" style="fill:#171615;font-family:ETQGJU+MinionPro-Regular;font-size:9.5px;font-style:NORMAL;font-weight:normal;">C polymorphism to RA susceptibility in the Caucasian</text>
  <text x="303.667,308.645,313.49,318.468,323.513,325.916,330.087,332.984,335.53,340.375,345.572,347.738,351.651,355.822,361.018,366.034,369.958,372.893,377.966,380.512,383.999,387.913,392.074,395.513,399.0,403.845,407.863,410.409,414.579,417.477,420.023,424.868,430.064,433.978,440.486,444.647,448.134,452.057,457.254,462.099,464.997,468.91,473.888,477.413,481.431,484.918,488.955,494.152,497.05,500.963,503.509,508.70500000000004,512.62,515.555,520.628,524.666,528.589,535.002,538.488,541.034,545.205" y="296.464" svg_rhmargin="550.401" style="fill:#171615;font-family:ETQGJU+MinionPro-Regular;font-size:9.5px;font-style:NORMAL;font-weight:normal;">population, and this association was not present in the Asian</text>
  <text x="303.667,308.645,313.49,318.468,323.513,325.916,330.087,332.984,335.53,340.375,345.572" y="307.921" svg_rhmargin="347.738" style="fill:#171615;font-family:ETQGJU+MinionPro-Regular;font-size:9.5px;font-style:NORMAL;font-weight:normal;">population.</text>
  <text x="303.667,311.887,320.779,328.111,337.003,346.339,355.003,358.339,367.231,376.567,385.459,392.791,401.455,404.995,413.443,422.335,429.667,433.207,442.543,451.435" y="344.085" svg_rhmargin="459.223" style="fill:#171615;font-family:XBHOUF+HelveticaNeueLTStd-Bd;font-size:12.0px;font-style:NORMAL;font-weight:normal;">AUTHOR CONTRIBUTIONS</text>
  <text x="303.667,309.88,315.608,321.689,325.707,330.552,335.749,339.767,343.805,346.35,350.749,354.786,359.802,365.892,370.063,375.259,380.27500000000003,386.365,391.38,395.399,398.885,401.431,405.878,411.074,415.112,420.12800000000004,426.217,429.152,434.225,438.26300000000003,444.353,447.839,450.737,455.781,460.797,465.15700000000004,471.247,475.418,480.614,485.63,491.72,495.738,500.583,505.78,508.677,512.201,514.747,519.573,524.618,527.516,531.553,536.569,542.658,545.556" y="365.206" svg_rhmargin="550.401" style="fill:#171615;font-family:ETQGJU+MinionPro-Regular;font-size:9.5px;font-style:NORMAL;font-weight:normal;">XZ conceived and designed the study and contributed to</text>
  <text x="303.667,307.154,310.108,314.279,317.176,319.722,323.209,326.106,328.652,332.699,336.87,339.273,344.517,348.688,353.884,358.055,360.458,364.819,368.305,372.324,375.81,377.976,383.23,391.694,397.423,399.589,404.832,410.418,413.135,415.301,420.536,424.706,429.903,434.91900000000004,440.163,448.627,454.84000000000003,460.075,464.093,468.938,474.135,477.032,480.557,483.103,487.929,492.973,495.871,499.908,504.92400000000004,510.168,513.066,517.9110000000001,523.155,527.192,529.596,532.142,536.588,539.134,543.96,546.363" y="376.663" svg_rhmargin="550.401" style="fill:#171615;font-family:ETQGJU+MinionPro-Regular;font-size:9.5px;font-style:NORMAL;font-weight:normal;">statistical analyses. MZ, BJ, and MX contributed to eligible</text>
  <text x="303.667,307.154,310.051,315.096,320.112,324.47200000000004,328.453,332.471,337.316,339.72,342.123,346.218,350.236,353.134,355.68,360.525,365.721,369.702,373.872,379.069,384.08500000000004,388.074,393.109,397.28,400.234,404.405,408.385,412.404,416.888,419.785,423.31,427.461,431.48,434.377,436.923,441.768,446.965,449.131,453.121,459.334,465.062,469.043,473.213,478.41,483.42600000000004,487.406,492.992,496.117,500.108,505.086,508.61,512.648,517.626,521.796,525.321,529.358,534.3739999999999,538.355,541.29,546.363" y="388.12" svg_rhmargin="550.401" style="fill:#171615;font-family:ETQGJU+MinionPro-Regular;font-size:9.5px;font-style:NORMAL;font-weight:normal;">study collection and data extraction. XZ and BJ prepared the</text>
  <text x="303.667,306.622,310.707,315.533,317.936,321.954,325.44100000000003,330.229,334.4,339.596,344.612,349.4,354.482,358.928,363.973,367.497,371.516,375.003,377.169,381.975,388.189,393.917,396.08299999999997,400.871,409.335,415.064,417.23,422.018,426.188,431.385,436.401,441.189,449.653,455.86600000000004,460.654,467.162,470.686,475.531,478.429,482.467,487.254,491.425,496.621,501.637,506.435,509.959,514.082,518.481,521.027,524.513,528.551,533.567,538.355,541.291,546.364" y="399.577" svg_rhmargin="550.402" style="fill:#171615;font-family:ETQGJU+MinionPro-Regular;font-size:9.5px;font-style:NORMAL;font-weight:normal;">tables and ﬁgures. XZ, MZ, and MX wrote and revised the</text>
  <text x="303.667,311.448,315.618,320.815,325.859,329.412,333.431,336.955,339.501,344.479,347.376" y="411.034" svg_rhmargin="349.542" style="fill:#171615;font-family:ETQGJU+MinionPro-Regular;font-size:9.5px;font-style:NORMAL;font-weight:normal;">manuscript.</text>
  <text x="44.98,53.644,61.42,68.536,76.312,84.976,92.752,101.644,110.536,118.312" y="446.177" svg_rhmargin="126.1" style="fill:#171615;font-family:XBHOUF+HelveticaNeueLTStd-Bd;font-size:12.0px;font-style:NORMAL;font-weight:normal;">REFERENCES</text>
  <text x="44.98,49.443,52.735,56.275,58.563,61.75,64.053,65.76299999999999,68.253,73.765,75.475,77.18499999999999,79.675,86.162,89.335,91.893,95.995,100.098,103.27,106.023,107.73299999999999,110.223,112.78,114.49,116.98,121.39,123.1,124.80999999999999,127.3,130.592,134.695,138.655,141.145,146.193,150.175,152.958,156.783,161.92,164.673,168.393,171.685,174.355,177.91,180.197,184.022,185.92,189.212,191.942,194.695,198.415,201.707,203.417,205.908,212.59,214.3,216.79,219.385,222.985,226.585,230.185,233.785,236.38,238.09,240.58,246.153,249.978,253.45,256.638,258.53499999999997,261.025,263.808,267.003,270.513,274.495,276.393,279.685,281.973,285.798,288.58" y="463.313" svg_rhmargin="292.022" style="fill:#171615;font-family:ETQGJU+MinionPro-Regular;font-size:7.5px;font-style:NORMAL;font-weight:normal;">Baxter, D., McInnes, I. B., and Kurowska-Stolarska, M. (2012). Novel regulatory</text>
  <text svg_rhmargin="233.674" x="54.941,61.084,64.316,67.444,71.426,74.719,78.821,80.831,83.584,89.726,92.479,93.799,95.809,99.911,101.224,103.234,107.336,111.334,114.626,120.769,126.911,130.204,132.491,136.316,139.099,142.541,143.861,147.154,149.936,152.254,156.259,159.041,161.051,163.339,165.349,168.101,169.811,171.131,174.424,175.744,178.526,182.351,184.249,187.43699999999998,188.756,190.976,194.801,197.583,198.896,205.039,207.049,210.221,213.004,216.829,221.486,226.781,231.964,233.674" y="472.778" style="fill:#171615;font-family:ETQGJU+MinionPro-Regular;font-size:7.5px;font-style:NORMAL;font-weight:normal;">mechanisms in inﬂammatory arthritis: a role for microRNA. </text>
  <text x="234.993,237.506,243.408,249.311,253.308,257.298,260.823,262.69,264.452,265.781,270.543,273.543,275.411,277.278,278.606,282.821,284.868,288.393,290.26" y="472.778" svg_rhmargin="292.022" style="fill:#171615;font-family:NJVBZB+MinionPro-It;font-size:7.5px;font-style:NORMAL;font-weight:normal;">Immunol. Cell Biol.</text>
  <text x="54.941,58.541,62.141,63.851,65.554,69.154,72.754,76.354,80.254,83.854,87.453,91.053,92.76299999999999,94.466,98.426,102.251,104.261,105.97099999999999,107.673,111.273,114.873,116.583,120.183,123.783,127.383,130.983,133.466,135.476,138.611,142.421,144.131,147.731,151.331,154.931,158.531,160.241,163.841,167.441" y="482.242" svg_rhmargin="171.041" style="fill:#171615;font-family:ETQGJU+MinionPro-Regular;font-size:7.5px;font-style:NORMAL;font-weight:normal;">90, 288–292. doi: 10.1038/icb.2011.114</text>
  <text x="44.98,49.39,53.215,56.725,60.708,64.81,66.82,70.113,72.783,77.83,81.813,85.623,87.633,91.353,93.06299999999999,95.913,100.96,102.67,104.38,107.23,114.513,117.955,120.708,124.533,127.705,130.855,134.148,138.25,141.003,144.723,148.015,149.725,152.583,156.993,158.703,160.413,163.263,167.485,169.495,172.788,175.075,178.263,181.983,183.693,186.543,192.055,193.765,195.475,198.325,200.883,206.02,209.305,212.05,215.2,218.92,222.745,224.455,227.305,233.988,235.698,237.40800000000002,240.265,245.253,247.263,250.495,253.623,257.628,261.453,267.595,270.348,274.068,277.36,279.07,281.92,288.603,290.313" y="491.707" svg_rhmargin="292.023" style="fill:#171615;font-family:ETQGJU+MinionPro-Regular;font-size:7.5px;font-style:NORMAL;font-weight:normal;">Bogunia-Kubik, K., Wysoczanska, B., Piatek, D., Iwaszko, M., Ciechomska, M.,</text>
  <text x="54.941,58.234,62.336,66.29599999999999,68.351,71.906,77.044,79.054,82.241,85.024,88.744,92.569,94.864,96.574,98.636,101.104,102.814,104.869,107.464,111.064,114.664,118.264,121.864,124.459,126.169,128.231,131.786,133.796,137.306,141.408,143.418,147.431,150.626,153.918,158.021,161.193,164.381,166.436,170.261,172.481,174.543,178.473,182.298,184.196,187.638,193.781,197.606,200.388,204.318,208.323,210.333,213.086,219.229,221.283,224.576,228.678,232.638,234.701,237.873,241.413,245.343,248.126,251.298,254.013,256.766,258.776,262.601,266.703,268.758,272.583,274.80300000000005,276.866,283.008,285.018,289.353" y="501.171" svg_rhmargin="292.023" style="fill:#171615;font-family:ETQGJU+MinionPro-Regular;font-size:7.5px;font-style:NORMAL;font-weight:normal;">and Swierkot, J. (2016). Signiﬁcance of polymorphism and expression of miR-</text>
  <text svg_rhmargin="273.528" x="54.941,58.541,62.141,65.741,69.034,71.434,74.726,78.829,82.78899999999999,85.189,90.761,94.729,98.449,102.859,106.45899999999999,108.859,112.369,115.556,119.659,122.846,125.134,127.144,130.317,132.724,136.189,139.481,142.264,144.274,147.566,151.669,153.956,156.709,159.109,161.118,165.22,167.621,171.551,174.843,177.131,179.141,182.328,186.431,188.718,191.471,193.871,199.008,201.018,203.336,207.341,209.741,212.486,216.491,219.678,223.661,229.803,233.096,235.383,239.208,241.218,245.178,247.578,250.871,253.653,255.971,259.976,262.758,264.768,267.056,269.066,271.818,273.52799999999996" y="510.636" style="fill:#171615;font-family:ETQGJU+MinionPro-Regular;font-size:7.5px;font-style:NORMAL;font-weight:normal;">146a and NFkB1 genetic variants in patients with rheumatoid arthritis. </text>
  <text x="275.932,280.912,283.657,286.424,290.257" y="510.636" svg_rhmargin="292.019" style="fill:#171615;font-family:NJVBZB+MinionPro-It;font-size:7.5px;font-style:NORMAL;font-weight:normal;">Arch.</text>
  <text svg_rhmargin="116.958" x="54.941,57.454,63.356,69.259,73.256,77.246,80.771,82.639,84.401,86.119,90.634,94.466,97.466,100.211,101.973,103.691,108.004,111.551,115.196,116.958" y="520.1" style="fill:#171615;font-family:NJVBZB+MinionPro-It;font-size:7.5px;font-style:NORMAL;font-weight:normal;">Immunol. Ther. Exp. </text>
  <text x="118.66,122.26,125.86,128.455,132.01,135.992,139.922,143.852,145.75,147.46,149.162,152.762,155.357,157.067,158.77,162.37,165.97,169.57,173.47,177.07,180.67,184.27,185.98000000000002,187.683,191.643,195.468,197.478,199.18800000000002,200.89,204.49,208.09,209.8,213.4,217.0,220.6,224.2,226.683,229.435,233.035,236.635,240.235,243.835,247.435,250.6,254.2,257.8,261.4,264.573,268.173,271.773,275.373,278.973,282.138" y="520.1" svg_rhmargin="285.738" style="fill:#171615;font-family:ETQGJU+MinionPro-Regular;font-size:7.5px;font-style:NORMAL;font-weight:normal;">64(Suppl. 1), 131–136. doi: 10.1007/s00005-016-0443-5</text>
  <text x="44.98,50.005,53.988,57.28,59.583,62.733,64.743,68.463,71.905,74.688,76.698,79.99,83.71,85.72,89.68,93.505,97.488,99.198,102.438,107.62,109.33,111.03999999999999,114.273,119.545,123.37,127.353,129.25,132.745,136.037,138.82,140.83,142.54000000000002,145.78,150.003,151.713,154.953,160.225,161.935,163.645,166.885,172.248,175.435,179.26,181.983,185.493,187.503,191.328,195.31,197.02,200.253,202.81,204.52,206.23000000000002,209.47,212.763,216.865,220.82500000000002,224.065,229.578,232.36,236.185,238.938,242.763,245.515,247.225,250.458,255.64,257.34999999999997,260.59,265.773,267.483,270.723,273.318,276.918,280.518,284.118,287.718,290.313" y="529.565" svg_rhmargin="292.023" style="fill:#171615;font-family:ETQGJU+MinionPro-Regular;font-size:7.5px;font-style:NORMAL;font-weight:normal;">Chatzikyriakidou, A., Voulgari, P. V., Georgiou, I., and Drosos, A. A. (2010).</text>
  <text x="54.941,60.123000000000005,63.371,67.301,71.126,73.024,76.466,82.609,86.434,89.216,93.146,97.151,99.161,101.914,108.057,111.311,113.321,117.423,120.671,122.989,126.993,130.18099999999998,133.428,137.029,138.701,141.371,146.906,151.534,156.191,159.439,163.264,165.484,168.739,170.749,174.851,177.139,180.326,183.109,185.006,188.194,192.176,195.896,197.906,202.008,204.678,208.278,211.526,214.309,217.541,220.714,223.901,227.831,230.118,233.943,236.553,239.223,242.508,245.223,247.976,251.801,254.973,256.983,260.276,262.564,265.751,269.71099999999996,272.966,276.686,278.696,282.799,286.084,288.836" y="539.029" svg_rhmargin="292.024" style="fill:#171615;font-family:ETQGJU+MinionPro-Regular;font-size:7.5px;font-style:NORMAL;font-weight:normal;">A polymorphism in the 3’-UTR of interleukin-1 receptor-associated kinase</text>
  <text x="54.941,57.536,60.094,64.789,69.971,75.019,78.619,81.214,82.92399999999999,85.834,89.12700000000001,92.036,94.369,97.661,100.384,103.894,107.081,109.369,112.271,115.781,118.969,123.071,126.259,129.169,132.994,135.214,138.124,144.266,146.276,150.611,153.281,156.881,160.481,164.081,167.374,169.084,171.994,174.004,176.757,179.659,182.944,185.659,188.411,192.236,195.409,197.419,200.711,202.999,206.186,210.14600000000002,213.056,218.194,220.204,222.521,226.52599999999998,229.436,232.181,236.186,239.374,243.356,249.499,252.791,255.079,258.904,260.914,264.87399999999997,267.784,271.076,273.859,276.176,280.181,282.964,284.974,287.261,289.271" y="548.494" svg_rhmargin="292.024" style="fill:#171615;font-family:ETQGJU+MinionPro-Regular;font-size:7.5px;font-style:NORMAL;font-weight:normal;">(IRAK1), a target gene of miR-146a, is associated with rheumatoid arthritis</text>
  <text svg_rhmargin="96.236" x="54.941,57.694,61.676,64.481,67.654,70.841,74.771,77.059,79.069,82.879,84.889,86.786,88.796,91.084,94.526,96.23599999999999" y="557.958" style="fill:#171615;font-family:ETQGJU+MinionPro-Regular;font-size:7.5px;font-style:NORMAL;font-weight:normal;">susceptibility. </text>
  <text svg_rhmargin="146.591" x="97.938,100.346,103.871,105.918,109.908,112.211,113.928,118.271,121.796,125.786,128.786,130.503,133.908,137.553,139.601,143.591,146.591" y="557.958" style="fill:#171615;font-family:NJVBZB+MinionPro-It;font-size:7.5px;font-style:NORMAL;font-weight:normal;">Joint Bone Spine </text>
  <text x="148.293,151.893,155.493,157.203,158.906,162.506,166.106,169.706,173.606,177.206,180.806,184.406,186.116,187.818,191.778,195.603,197.613,199.323,201.026,204.626,208.226,209.936,213.536,217.136,220.736,224.336,226.818,228.738,230.448,232.368,236.171,238.923,242.853,244.863,248.966,250.676,254.276,257.876,261.476,265.076,266.786,270.386,273.986,275.696,279.296,282.896" y="557.958" svg_rhmargin="286.496" style="fill:#171615;font-family:ETQGJU+MinionPro-Regular;font-size:7.5px;font-style:NORMAL;font-weight:normal;">77, 411–413. doi: 10.1016/j.jbspin.2010.05.013</text>
  <text x="44.98,49.968,51.978,55.158,58.353,61.63,64.81,67.983,69.993,71.70299999999999,74.688,79.675,81.385,83.095,86.08,91.068,94.893,98.995,101.005,104.515,106.413,108.423,111.715,114.498,118.323,120.03299999999999,123.018,127.24,128.95,130.66,133.645,137.868,141.055,143.838,146.62,148.63,151.803,155.628,159.73,162.873,164.583,167.568,172.555,174.265,175.975,178.96,183.618,187.6,191.613,195.715,197.725,199.435,202.42,205.975,207.685,209.395,212.388,217.015,219.798,221.808,225.363,228.873,230.883,234.175,238.278,241.45,244.203,247.345,249.055,252.04,256.263,257.973,259.683,262.667,266.89,270.715,272.612,274.622,276.91,278.92,280.63,283.615,288.602,290.312" y="567.423" svg_rhmargin="292.022" style="fill:#171615;font-family:ETQGJU+MinionPro-Regular;font-size:7.5px;font-style:NORMAL;font-weight:normal;">Ciccacci, C., Conigliaro, P., Perricone, C., Ruﬁni, S., Triggianese, P., Politi, C.,</text>
  <text x="54.941,58.129,60.416999999999994,64.631,67.924,69.821,71.53099999999999,75.746,78.341,81.941,85.541,89.141,92.741,95.336,97.04599999999999,101.261,105.483,109.308,111.206,114.648,120.791,124.616,127.398,131.328,135.333,137.343,140.096,146.238,148.99099999999999,153.214,155.223,159.32500000000002,163.541,167.021,171.101,175.781,179.988,182.658,186.258,187.96800000000002,192.183,194.741,198.693,201.363,204.963,208.563,210.273,214.496,218.719,222.273,227.876,232.533,236.088,239.688,244.676,248.276,249.98600000000002,254.201,258.423,263.051,267.273,272.846,276.446,280.669,283.961,288.064" y="576.887" svg_rhmargin="292.024" style="fill:#171615;font-family:ETQGJU+MinionPro-Regular;font-size:7.5px;font-style:NORMAL;font-weight:normal;">et al. (2016). Polymorphisms in STAT-4, IL-10, PSORS1C1, PTPN2 and</text>
  <text x="54.941,61.624,64.181,68.839,72.439,76.039,79.639,84.821,87.941,91.451,94.639,98.741,101.914,104.667,107.794,111.086,113.869,117.057,120.184,123.469,126.184,128.936,132.761,135.934,137.944,141.236,143.524,146.711,150.67100000000002,153.791,157.751,159.761,163.969,167.156,169.939,173.126,177.229,179.516,181.414,184.856,187.984,193.121,195.131,197.449,201.454,204.581,208.511,211.294,215.119,218.629,222.731,226.556,229.309,231.596,233.606,236.779,239.899,242.126,245.404,248.576,250.864,254.689,257.419,260.17199999999997,263.299,265.309,269.411,272.539,275.096,277.429,280.721,282.619,284.629,287.921" y="586.352" svg_rhmargin="292.023" style="fill:#171615;font-family:ETQGJU+MinionPro-Regular;font-size:7.5px;font-style:NORMAL;font-weight:normal;">MIR146A genes are associated diﬀerently with prognostic factors in Italian</text>
  <text svg_rhmargin="181.549" x="54.941,58.871,62.164,64.451,66.461,69.649,73.751,76.039,78.792,81.499,84.731,88.939,92.171,95.344,97.631,100.819,104.779,107.486,111.296,114.738,117.453,120.199,124.203,127.391,131.374,137.516,140.809,143.096,146.921,148.931,152.89100000000002,155.599,158.891,161.674,163.991,167.996,170.779,172.789,175.076,177.086,179.839,181.549" y="595.816" style="fill:#171615;font-family:ETQGJU+MinionPro-Regular;font-size:7.5px;font-style:NORMAL;font-weight:normal;">patients aﬀected by rheumatoid arthritis. </text>
  <text svg_rhmargin="246.882" x="184.258,189.021,190.888,192.936,196.926,198.688,201.418,205.73,209.278,212.923,214.685,217.423,219.936,225.838,231.74,235.738,239.728,243.253,245.12,246.882" y="595.816" style="fill:#171615;font-family:NJVBZB+MinionPro-It;font-size:7.5px;font-style:NORMAL;font-weight:normal;">Clin. Exp. Immunol. </text>
  <text x="249.589,253.189,256.789,260.389,262.099,264.807,268.407,272.007,275.607,279.507,283.107,286.707,290.307" y="595.816" svg_rhmargin="292.017" style="fill:#171615;font-family:ETQGJU+MinionPro-Regular;font-size:7.5px;font-style:NORMAL;font-weight:normal;">186, 157–163.</text>
  <text x="54.941,58.901,62.726,64.736,66.446,68.149,71.749,75.349,77.059,80.659,84.259,87.859,91.459,93.941,97.114,100.301,102.311,104.021,107.621,111.221,114.821,118.421" y="605.281" svg_rhmargin="122.021" style="fill:#171615;font-family:ETQGJU+MinionPro-Regular;font-size:7.5px;font-style:NORMAL;font-weight:normal;">doi: 10.1111/cei.12831</text>
  <text x="44.98,50.538,53.83,55.84,57.550000000000004,59.598,64.255,65.965,67.675,69.73,73.023,77.125,81.085,83.133,88.345,92.35,98.493,101.68,105.595,107.30499999999999,109.353,112.908,114.618,116.673,121.855,123.565,125.613,128.208,131.808,135.408,139.008,142.608,145.203,146.913,148.96,155.643,157.653,160.825,163.608,167.433,172.09,177.385,182.568,184.27800000000002,186.333,189.626,191.673,195.775,198.963,204.101,206.148,210.078,213.37,216.153,219.445,223.405,225.415,228.925,235.068,237.115,239.335,243.16,245.942,247.997,251.98,256.082,260.042,263.23,265.96,268.712,271.045,274.338,278.44,282.4,284.41,288.513" y="614.745" svg_rhmargin="292.023" style="fill:#171615;font-family:ETQGJU+MinionPro-Regular;font-size:7.5px;font-style:NORMAL;font-weight:normal;">Dai, R., and Ahmed, S. A. (2011). MicroRNA, a new paradigm for understanding</text>
  <text svg_rhmargin="240.724" x="54.941,56.951,63.094,69.236,73.219,77.321,81.146,83.929,87.124,90.634,94.616,96.514,99.806,102.094,104.104,107.929,112.031,113.741,115.774,117.784,121.886,125.884,129.176,135.319,141.461,144.754,147.041,149.051,152.876,156.979,158.68900000000002,160.729,164.021,168.124,172.084,174.116,177.409,181.391,183.679,187.504,189.514,195.656,201.799,205.781,209.883,213.071,215.104,219.064,221.074,223.826,227.051,230.336,233.089,236.261,239.014,240.72400000000002" y="624.21" style="fill:#171615;font-family:ETQGJU+MinionPro-Regular;font-size:7.5px;font-style:NORMAL;font-weight:normal;">immunoregulation, inﬂammation, and autoimmune diseases. </text>
  <text svg_rhmargin="277.477" x="242.76,247.283,249.878,253.553,257.543,260.07,261.938,263.7,265.755,270.248,273.188,275.715,277.477" y="624.21" style="fill:#171615;font-family:NJVBZB+MinionPro-It;font-size:7.5px;font-style:NORMAL;font-weight:normal;">Transl. Res. </text>
  <text x="279.51,283.11,286.71,290.31" y="624.21" svg_rhmargin="292.02" style="fill:#171615;font-family:ETQGJU+MinionPro-Regular;font-size:7.5px;font-style:NORMAL;font-weight:normal;">157,</text>
  <text x="54.941,58.541,62.141,65.741,69.641,73.241,76.841,80.441,82.151,83.854,87.813,91.638,93.648,95.35799999999999,97.061,100.661,104.261,105.971,109.571,113.171,116.771,120.371,122.853,124.773,126.483,128.771,131.501,134.253,136.151,137.861,141.461,145.061,148.661,152.261,153.971,157.571,161.171,162.881,166.481,170.081" y="633.674" svg_rhmargin="173.681" style="fill:#171615;font-family:ETQGJU+MinionPro-Regular;font-size:7.5px;font-style:NORMAL;font-weight:normal;">163–179. doi: 10.1016/j.trsl.2011.01.007</text>
  <text svg_rhmargin="252.018" x="44.98,50.493,53.68,56.463,60.018,62.028,68.17,71.995,76.098,78.108,81.4,85.503,87.213,88.638,93.295,95.005,96.71499999999999,98.133,101.425,105.528,109.488,110.913,115.06,118.353,120.363,123.145,127.06,128.77,130.195,135.768,137.478,138.895,141.49,145.09,148.69,152.29,155.89,158.485,160.19500000000002,161.62,168.303,171.49,173.823,177.115,179.785,183.078,187.18,190.473,192.37,195.813,198.565,200.575,203.32799999999997,204.753,206.763,210.865,212.283,215.455,217.353,219.363,223.465,225.475,228.67,231.963,233.85999999999999,235.285,237.573,240.355,242.365,245.658,247.555,250.308,252.018" y="643.139" style="fill:#171615;font-family:ETQGJU+MinionPro-Regular;font-size:7.5px;font-style:NORMAL;font-weight:normal;">DerSimonian, R., and Laird, N. (1986). Meta-analysis in clinical trials. </text>
  <text x="253.44,258.203,261.728,265.717,268.02,270.765,274.29,276.15700000000004,277.59,282.352,284.22,286.267,290.257" y="643.139" svg_rhmargin="292.019" style="fill:#171615;font-family:NJVBZB+MinionPro-It;font-size:7.5px;font-style:NORMAL;font-weight:normal;">Control Clin.</text>
  <text svg_rhmargin="72.394" x="54.941,59.464,62.276,64.324,67.999,69.866,72.394" y="652.6030000000001" style="fill:#171615;font-family:NJVBZB+MinionPro-It;font-size:7.5px;font-style:NORMAL;font-weight:normal;">Trials </text>
  <text x="74.095,77.695,79.40499999999999,81.108,84.708,88.308,91.908,95.808,99.408,103.008,106.608,108.318,110.02,113.98,117.805,119.815,121.52499999999999,123.228,126.828,130.428,132.138,135.738,139.338,142.938,146.538,149.02,152.62,156.22,159.82,163.42,166.585,170.185,173.785,177.385,180.985,183.58,187.18,190.78,193.375,196.975,200.575,204.175,207.775,211.375,214.548" y="652.6030000000001" svg_rhmargin="218.148" style="fill:#171615;font-family:ETQGJU+MinionPro-Regular;font-size:7.5px;font-style:NORMAL;font-weight:normal;">7, 177–188. doi: 10.1016/0197-2456(86)90046-2</text>
  <text x="44.98,49.24,51.138,53.808,57.31,61.293,64.585,66.483,68.193,69.558,74.74,76.44999999999999,77.815,81.37,83.08,84.78999999999999,86.163,91.345,93.243,96.685,98.395,99.76,105.333,107.04299999999999,108.408,115.09,116.8,118.50999999999999,119.875,125.245,128.538,130.435,132.445,134.343,136.053,137.418,140.973,142.68300000000002,144.048,150.73,152.44,153.805,158.988,160.698,162.40800000000002,163.78,170.463,174.288,178.27,181.023,183.355,186.588,188.815,192.108,193.818,195.183,201.865,203.57500000000002,204.94,210.123,211.833,213.543,214.908,218.2,222.303,226.263,227.628,232.585,235.878,239.98,243.94,247.128,249.025,250.735,252.1,259.383,261.09299999999996,262.465,267.648,269.358,270.723,273.318,276.918,280.518,284.118,287.718,290.313" y="662.068" svg_rhmargin="292.023" style="fill:#171615;font-family:ETQGJU+MinionPro-Regular;font-size:7.5px;font-style:NORMAL;font-weight:normal;">El-Shal, A. S., Aly, N. M., Galil, S. M. A., Moustafa, M. A., and Kandel, W. A. (2013).</text>
  <text x="54.941,60.004,62.719,65.471,69.296,72.469,74.479,77.771,80.059,82.069,85.894,89.99600000000001,92.104,95.929,98.149,100.256,106.399,108.409,111.581,114.364,118.189,122.846,128.141,133.204,135.957,138.064,141.574,144.761,148.864,152.036,154.789,156.896,160.826,164.651,166.549,169.991,176.134,179.959,182.741,186.671,190.676,192.686,195.439,201.581,204.334,206.441,211.579,213.589,215.906,219.911,222.019,224.764,228.769,231.956,235.939,242.081,245.374,247.661,251.486,253.496,257.456,259.564,262.856,265.639,267.956,271.961,274.744,276.754,279.041,281.051,283.804,285.911,287.921" y="671.532" svg_rhmargin="292.023" style="fill:#171615;font-family:ETQGJU+MinionPro-Regular;font-size:7.5px;font-style:NORMAL;font-weight:normal;">Association of microRNAs genes polymorphisms with rheumatoid arthritis in</text>
  <text svg_rhmargin="132.154" x="54.941,59.141,62.651,66.094,70.024,72.311,74.321,77.614,81.71600000000001,84.191,86.411,89.599,95.741,99.034,100.931,104.119,106.594,110.524,113.816,116.104,118.114,121.301,125.404,127.691,130.444,132.154" y="680.997" style="fill:#171615;font-family:ETQGJU+MinionPro-Regular;font-size:7.5px;font-style:NORMAL;font-weight:normal;">Egyptian female patients. </text>
  <text svg_rhmargin="184.843" x="134.63,137.038,140.563,142.61,146.6,148.903,151.4,155.743,159.268,163.258,166.258,168.755,172.16,175.805,177.853,181.843,184.843" y="680.997" style="fill:#171615;font-family:NJVBZB+MinionPro-It;font-size:7.5px;font-style:NORMAL;font-weight:normal;">Joint Bone Spine </text>
  <text x="187.317,190.917,194.517,196.227,198.702,202.302,205.902,209.502,213.402,217.002,220.602,224.202,225.912,228.387,232.347,236.172,238.182,239.892,242.367,245.967,249.567,251.277,254.877,258.477,262.077,265.677,268.16,270.08,271.79,273.71,277.512,280.265,284.195,286.205,290.307" y="680.997" svg_rhmargin="292.017" style="fill:#171615;font-family:ETQGJU+MinionPro-Regular;font-size:7.5px;font-style:NORMAL;font-weight:normal;">80, 626–631. doi: 10.1016/j.jbspin.</text>
  <text x="54.941,58.541,62.141,65.741,69.341,71.051,74.651,78.251,79.961,83.561,87.161" y="690.461" svg_rhmargin="90.761" style="fill:#171615;font-family:ETQGJU+MinionPro-Regular;font-size:7.5px;font-style:NORMAL;font-weight:normal;">2013.03.005</text>
  <text svg_rhmargin="225.767" x="44.98,49.263,52.015,54.303,57.49,59.388,61.285,64.473,66.775,68.485,71.71,78.393,80.103,83.32,85.915,89.515,93.115,96.715,100.315,102.91,104.61999999999999,107.845,113.418,117.243,121.345,124.015,127.188,131.013,134.973,136.983,141.085,144.595,147.813,152.47,157.765,162.827,165.57999999999998,168.805,170.815,174.917,178.143,182.148,186.13,192.273,195.565,199.667,202.885,206.845,208.855,211.607,214.833,218.117,220.87,224.057,225.767" y="699.926" style="fill:#171615;font-family:ETQGJU+MinionPro-Regular;font-size:7.5px;font-style:NORMAL;font-weight:normal;">Esteller, M. (2011). Non-coding RNAs in human disease. </text>
  <text svg_rhmargin="279.886" x="228.991,234.069,237.579,239.881,241.643,244.891,249.384,252.421,255.774,257.536,260.784,265.891,268.891,272.881,275.821,278.124,279.886" y="699.926" style="fill:#171615;font-family:NJVBZB+MinionPro-It;font-size:7.5px;font-style:NORMAL;font-weight:normal;">Nat. Rev. Genet. </text>
  <text x="283.11,286.71,290.31" y="699.926" svg_rhmargin="292.02" style="fill:#171615;font-family:ETQGJU+MinionPro-Regular;font-size:7.5px;font-style:NORMAL;font-weight:normal;">12,</text>
  <text x="54.941,58.541,62.141,65.741,69.641,73.241,76.841,80.441,82.151,83.854,87.813,91.638,93.648,95.35799999999999,97.061,100.661,104.261,105.971,109.571,113.171,116.771,120.371,122.853,126.956,129.678,133.188,136.788,140.388,143.988" y="709.39" svg_rhmargin="147.588" style="fill:#171615;font-family:ETQGJU+MinionPro-Regular;font-size:7.5px;font-style:NORMAL;font-weight:normal;">861–874. doi: 10.1038/nrg3074</text>
  <text x="44.98,48.798,52.09,54.378,56.71,60.033,64.037,65.747,69.445,73.0,74.71,78.4,83.583,85.293,87.003,90.693,96.025,100.008,103.3,105.588,107.92,111.205,113.958,115.66799999999999,119.365,126.048,127.758,131.448,137.193,138.903,140.613,144.31,147.888,151.18,153.078,156.228,160.233,161.943,165.633,169.188,170.898,174.595,181.278,182.988,184.698,188.388,191.68,195.783,199.743,203.44,208.405,212.215,216.04,218.71,222.97,224.868,231.01,234.303,236.59,238.878,242.32,244.03,247.72,253.233,254.943,258.633,265.315,267.025,270.723,273.318,276.918,280.518,284.118,287.718,290.313" y="718.855" svg_rhmargin="292.023" style="fill:#171615;font-family:ETQGJU+MinionPro-Regular;font-size:7.5px;font-style:NORMAL;font-weight:normal;">Fattah, S. A., Ghattas, M. H., Saleh, S. M., and Abo-Elmatty, D. M. (2017).</text>
  <text svg_rhmargin="292.024" x="54.941,59.164,61.946,65.134,67.804,73.946,75.956,79.129,81.911,85.736,89.216,93.874,99.169,104.021,106.691,110.291,113.891,117.491,120.971,124.481,127.669,131.771,134.95899999999997,138.439,142.369,146.194,148.091,151.534,157.676,161.501,164.284,168.214,172.219,174.229,176.981,183.124,186.604,189.334,192.086,195.686,199.286,202.886,206.486,210.086,213.686,217.286,220.766,225.394,227.876,232.864,236.344,238.354,241.10700000000003,244.586,247.871,250.586,253.339,257.164,260.336,262.346,265.639,267.926,271.114,275.07399999999996,278.554,283.691,285.701,288.019,292.024" y="444.409" style="fill:#171615;font-family:ETQGJU+MinionPro-Regular;font-size:7.5px;font-style:NORMAL;font-weight:normal;">Pre-micro RNA-499 gene polymorphism rs3746444 T/C is associated with </text>
  <text svg_rhmargin="503.001" x="313.318,316.071,320.053,322.858,326.031,329.218,333.148,335.436,337.446,341.256,343.266,345.163,347.173,349.461,352.903,355.843,358.131,361.95599999999996,364.896,367.641,371.646,374.833,378.816,384.958,388.251,390.538,394.363,396.373,400.33299999999997,403.266,406.558,409.341,411.658,415.663,418.446,420.456,422.743,424.753,427.506,430.446,432.456,436.558,439.498,442.693,446.203,449.646,453.576,455.863,457.873,461.166,465.268,468.208,472.138,475.963,479.893,483.876,485.773,489.066,491.353,493.363,497.188,501.291,503.001" y="444.409" style="fill:#171615;font-family:ETQGJU+MinionPro-Regular;font-size:7.5px;font-style:NORMAL;font-weight:normal;">susceptibility to rheumatoid arthritis in egyptian population. </text>
  <text x="505.938,508.451,512.441,516.161,518.208,521.883,525.873,528.836,531.243,533.005,535.968,540.731,542.598,544.646,548.635" y="444.409" svg_rhmargin="550.397" style="fill:#171615;font-family:NJVBZB+MinionPro-It;font-size:7.5px;font-style:NORMAL;font-weight:normal;">Indian J. Clin.</text>
  <text svg_rhmargin="340.37" x="313.318,317.533,319.581,323.105,325.873,329.705,332.705,338.608,340.37" y="453.874" style="fill:#171615;font-family:NJVBZB+MinionPro-It;font-size:7.5px;font-style:NORMAL;font-weight:normal;">Biochem. </text>
  <text x="342.073,345.673,349.273,350.983,352.686,356.286,359.886,363.786,367.386,370.986,374.586,376.296,377.998,381.958,385.783,387.793,389.503,391.206,394.806,398.406,400.116,403.716,407.316,410.916,414.516,416.998,419.751,423.351,426.951,430.551,434.151,437.751,440.916,444.516,448.116,451.716,454.888,458.488,462.088,465.688,469.288,472.453" y="453.874" svg_rhmargin="476.053" style="fill:#171615;font-family:ETQGJU+MinionPro-Regular;font-size:7.5px;font-style:NORMAL;font-weight:normal;">33, 96–101. doi: 10.1007/s12291-017-0652-7</text>
  <text x="303.358,307.326,311.308,313.018,315.583,319.618,321.328,323.03799999999995,325.603,328.071,330.081,334.183,335.893,338.458,342.493,344.203,345.91299999999995,348.478,352.356,355.648,359.751,361.46099999999996,364.018,368.053,369.763,371.47299999999996,374.038,377.541,381.546,383.556,385.26599999999996,387.831,390.298,392.008,393.71799999999996,396.283,403.566,406.858,410.961,414.493,416.203,418.768,424.513,426.223,427.933,430.498,435.021,439.026,442.851,446.833,448.543,451.108,455.518,457.228,458.938,461.496,464.683,466.971,469.536,472.828,474.726,476.436,479.001,481.596,485.196,488.796,492.396,495.996,498.591,500.301,502.866,507.853,511.678,517.821,521.751,524.533,527.683,531.688,534.876,538.978,541.731,543.741,547.213" y="463.338" svg_rhmargin="550.401" style="fill:#171615;font-family:ETQGJU+MinionPro-Regular;font-size:7.5px;font-style:NORMAL;font-weight:normal;">Fu, L., Jin, L., Yan, L., Shi, J., Wang, H., Zhou, B., et al. (2016). Comprehensive</text>
  <text x="313.318,316.101,319.356,322.828,324.838,328.026,333.164,339.636,343.461,345.68100000000004,352.161,355.671,358.858,362.961,366.148,368.436,370.446,373.619,380.091,383.376,386.091,388.843,392.668,395.841,397.851,401.143,403.431,405.441,409.266,413.368,419.841,422.593,424.881,428.863,432.823,434.833,438.006,440.75899999999996,447.238,450.531,454.633,458.59299999999996,465.066,471.208,474.396,476.728,480.021,482.691,485.983,490.086,493.378,495.276,498.718,501.471,503.481,506.234,512.706,516.531,520.6329999999999,527.113,533.256,535.266,539.923,545.218" y="472.803" svg_rhmargin="550.4" style="fill:#171615;font-family:ETQGJU+MinionPro-Regular;font-size:7.5px;font-style:NORMAL;font-weight:normal;">review of genetic association studies and meta-analysis on miRNA</text>
  <text x="313.318,317.248,321.073,322.971,326.413,332.556,336.381,339.163,343.093,347.098,349.108,351.861,358.003,360.756,363.756,367.048,371.151,375.111,378.111,380.856,384.861,388.048,392.031,398.173,401.466,403.753,407.578,409.588,413.548,416.548,419.841,422.623,424.941,428.946,431.728,433.738,436.026,438.036,440.789,443.788,447.081,451.183,455.143,458.143,460.896,464.338,467.091,469.378,472.566,478.708,480.718,483.891,486.898,488.796,492.778,496.708,500.691,503.44399999999996,506.443,509.631,512.413,515.856,518.173,522.178,525.366,531.508,534.801,537.088,540.913,543.666,547.648" y="482.267" svg_rhmargin="550.401" style="fill:#171615;font-family:ETQGJU+MinionPro-Regular;font-size:7.5px;font-style:NORMAL;font-weight:normal;">polymorphisms and rheumatoid arthritis and systemic lupus erythematosus</text>
  <text svg_rhmargin="354.613" x="313.318,316.071,320.053,322.858,326.031,329.218,333.148,335.436,337.446,341.256,343.266,345.163,347.173,349.461,352.903,354.613" y="491.732" style="fill:#171615;font-family:ETQGJU+MinionPro-Regular;font-size:7.5px;font-style:NORMAL;font-weight:normal;">susceptibility. </text>
  <text svg_rhmargin="404.721" x="356.316,361.881,365.879,371.781,373.543,375.261,377.774,383.676,389.579,393.576,397.566,401.091,402.959,404.721" y="491.732" style="fill:#171615;font-family:NJVBZB+MinionPro-It;font-size:7.5px;font-style:NORMAL;font-weight:normal;">Hum. Immunol. </text>
  <text x="406.423,410.023,413.623,415.33299999999997,417.036,420.636,424.536,428.136,429.846,431.548,435.508,439.333,441.343,443.053,444.756,448.356,451.956,453.666,457.266,460.866,464.466,468.066,470.548,472.468,474.178,478.183,482.166,488.308,490.318,496.461,502.603,504.313,507.913,511.513,515.113,518.713,520.423,524.023,527.623,529.333,532.933,536.533" y="491.732" svg_rhmargin="540.133" style="fill:#171615;font-family:ETQGJU+MinionPro-Regular;font-size:7.5px;font-style:NORMAL;font-weight:normal;">77, 1–6. doi: 10.1016/j.humimm.2014.09.002</text>
  <text x="303.358,307.326,311.308,314.091,317.278,319.581,321.291,323.008,328.281,329.991,331.70099999999996,333.418,338.78,341.563,344.75,347.938,352.04,355.85,359.038,361.76,365.293,367.003,368.72,371.188,372.89799999999997,374.615,380.128,381.838,383.548,385.265,390.448,392.735,395.023,399.005,401.308,403.018,404.728,411.41,413.12,414.83,416.548,421.513,425.323,428.105,431.398,437.54,440.293,444.118,448.22,449.93,451.648,455.203,456.91299999999995,458.63,463.04,464.75,466.46,468.178,471.47,475.573,479.53299999999996,481.25,485.473,487.483,489.38,491.278,493.288,497.39,500.9,504.088,506.39,508.09999999999997,509.818,516.5,518.21,519.928,525.673,527.383,529.101,531.695,535.295,538.895,542.495,546.095,548.69" y="501.196" svg_rhmargin="550.4" style="fill:#171615;font-family:ETQGJU+MinionPro-Regular;font-size:7.5px;font-style:NORMAL;font-weight:normal;">Furer, V., Greenberg, J. D., Attur, M., Abramson, S. B., and Pillinger, M. H. (2010).</text>
  <text x="313.318,317.938,321.943,325.131,326.796,329.578,333.403,335.301,338.489,340.146,343.971,346.19100000000003,347.856,353.998,356.008,359.181,361.963,365.788,370.446,375.741,380.923,382.588,384.598,388.7,390.358,393.103,397.108,400.296,404.278,410.421,413.713,416.001,419.826,421.836,425.796,427.461,430.753,433.536,435.853,439.858,442.641,444.651,446.938,448.948,451.70099999999996,453.366,456.658,460.761,464.721,466.378,470.203,472.521,476.526,479.713,482.495,484.161,487.453,491.436,493.723,497.548,499.558,505.701,511.843,515.826,519.928,523.116,524.781,528.741,530.751,533.503,536.728,540.013,542.766,545.938,548.691" y="510.661" svg_rhmargin="550.401" style="fill:#171615;font-family:ETQGJU+MinionPro-Regular;font-size:7.5px;font-style:NORMAL;font-weight:normal;">The role of microRNA in rheumatoid arthritis and other autoimmune diseases.</text>
  <text svg_rhmargin="358.925" x="313.318,318.081,319.948,321.996,325.986,327.748,329.466,331.978,337.881,343.783,347.781,351.771,355.296,357.163,358.925" y="520.125" style="fill:#171615;font-family:NJVBZB+MinionPro-It;font-size:7.5px;font-style:NORMAL;font-weight:normal;">Clin. Immunol. </text>
  <text x="360.628,364.228,367.828,371.428,373.138,374.841,378.441,382.341,385.941,389.541,391.251,392.953,396.913,400.738,402.748,404.45799999999997,406.161,409.761,413.361,415.071,418.671,422.271,425.871,429.471,431.953,433.873,435.583,438.756,440.653,442.663,448.806,450.516,454.116,457.716,461.316,464.916,466.626,470.226,473.826,475.536,479.136,482.736" y="520.125" svg_rhmargin="486.336" style="fill:#171615;font-family:ETQGJU+MinionPro-Regular;font-size:7.5px;font-style:NORMAL;font-weight:normal;">136, 1–15. doi: 10.1016/j.clim.2010.02.005</text>
  <text x="303.358,308.923,312.208,314.923,318.928,322.116,328.258,330.268,331.97799999999995,337.828,344.511,346.221,347.931,353.788,358.071,360.823,364.543,367.836,371.938,375.913,379.206,381.988,383.998,386.668,392.053,395.338,398.136,401.361,404.946,406.656,412.513,416.773,418.483,420.193,426.051,430.716,434.008,437.728,440.916,443.698,445.708,447.418,453.268,457.791,459.501,461.21099999999996,467.068,472.251,474.583,477.808,481.656,484.948,488.668,490.678,492.388,498.238,504.921,506.631,508.34099999999995,514.198,518.661,521.983,525.966,529.258,532.041,534.051,535.7610000000001,541.618,546.981,548.691" y="529.5899999999999" svg_rhmargin="550.401" style="fill:#171615;font-family:ETQGJU+MinionPro-Regular;font-size:7.5px;font-style:NORMAL;font-weight:normal;">Hashemi, M., Eskandari-Nasab, E., Zakeri, Z., Atabaki, M., Bahari, G.,</text>
  <text x="313.318,315.576,318.898,322.881,326.173,330.276,332.563,334.573,338.128,342.133,343.84299999999996,346.881,353.563,355.273,356.983,360.028,363.216,365.504,368.541,371.833,373.731,375.441,378.478,381.073,384.673,388.273,391.873,395.473,398.068,399.77799999999996,402.816,407.878,410.593,413.346,417.171,420.343,422.353,425.646,427.933,429.943,433.768,437.86999999999995,440.908,444.733,446.95300000000003,449.991,453.921,456.703,459.891,462.561,468.703,470.713,475.371,480.666,485.518,488.188,491.788,495.388,498.988,502.281,505.318,508.048,510.801,514.401,518.001,521.601,525.201,528.801,532.401,536.001,539.046,542.338,546.441" y="539.054" svg_rhmargin="550.401" style="fill:#171615;font-family:ETQGJU+MinionPro-Regular;font-size:7.5px;font-style:NORMAL;font-weight:normal;">Jahantigh, M., et al. (2013). Association of pre-miRNA-146a rs2910164 and</text>
  <text x="313.318,317.248,320.031,323.218,329.361,331.371,336.028,341.323,346.176,348.846,352.446,356.046,359.646,363.006,365.736,368.488,372.088,375.688,379.288,382.888,386.488,390.088,393.68800000000005,397.041,400.971,404.796,406.693,410.136,416.278,420.103,422.886,426.816,430.821,432.831,435.583,441.726,444.479,447.838,451.131,455.233,459.193,462.546,465.298,469.281,472.086,475.258,478.446,482.376,484.663,486.673,490.483,492.493,494.391,496.401,498.688,502.13,505.491,507.778,511.603,514.963,517.708,521.713,524.901,528.883,535.026,538.318,540.606,544.431,546.441" y="548.519" svg_rhmargin="550.401" style="fill:#171615;font-family:ETQGJU+MinionPro-Regular;font-size:7.5px;font-style:NORMAL;font-weight:normal;">premiRNA-499 rs3746444 polymorphisms and susceptibility to rheumatoid</text>
  <text svg_rhmargin="339.268" x="313.318,316.611,319.393,321.711,325.716,328.498,330.508,332.796,334.806,337.558,339.268" y="557.983" style="fill:#171615;font-family:ETQGJU+MinionPro-Regular;font-size:7.5px;font-style:NORMAL;font-weight:normal;">arthritis. </text>
  <text svg_rhmargin="386.158" x="340.971,347.541,351.066,352.934,354.696,356.414,362.984,365.984,369.794,371.556,373.274,377.766,380.751,384.396,386.158" y="557.983" style="fill:#171615;font-family:NJVBZB+MinionPro-It;font-size:7.5px;font-style:NORMAL;font-weight:normal;">Mol. Med. Rep. </text>
  <text x="387.861,391.461,393.171,394.874,398.474,402.074,405.674,409.574,413.174,416.774,420.374,422.084,423.786,427.746,431.571,433.581,435.291,436.994,440.594,444.194,445.904,449.504,453.104,456.704,460.304,462.786,468.929,475.071,477.854,479.564,483.164,486.764,490.364,493.964,495.674,499.274,502.874,506.474" y="557.983" svg_rhmargin="510.074" style="fill:#171615;font-family:ETQGJU+MinionPro-Regular;font-size:7.5px;font-style:NORMAL;font-weight:normal;">7, 287–291. doi: 10.3892/mmr.2012.1176</text>
  <text x="303.358,308.923,312.208,314.923,317.676,319.686,323.788,326.931,328.64099999999996,332.083,337.828,339.53799999999995,342.981,347.391,349.101,350.811,354.261,358.671,362.496,366.478,372.621,374.631,377.781,381.073,382.78299999999996,386.226,391.408,393.118,394.828,398.271,401.826,405.381,409.386,411.396,414.178,416.188,417.89799999999997,421.341,425.998,427.708,429.418,432.868,437.331,440.608,443.788,446.961,450.786,454.768,457.896,461.901,465.043,466.753,470.196,475.243,476.953,478.66299999999995,482.105,486.516,490.341,494.323,497.038,499.836,503.128,505.138,509.053,510.763,514.206,516.763,518.473,520.183,523.633,528.816,531.103,533.113,536.646,538.356,541.798,546.981,548.691" y="567.448" svg_rhmargin="550.401" style="fill:#171615;font-family:ETQGJU+MinionPro-Regular;font-size:7.5px;font-style:NORMAL;font-weight:normal;">Hassine, H. B., Boumiza, A., Sghiri, R., Baccouche, K., Boussaid, I., Atig, A.,</text>
  <text x="313.318,316.506,318.794,321.321,324.613,326.511,328.221,330.756,333.351,336.951,340.551,344.151,347.751,350.346,352.056,354.583,361.266,363.276,366.448,369.231,373.056,375.583,380.241,385.536,390.388,393.058,396.658,400.258,403.858,407.151,409.686,413.496,417.478,419.766,422.293,426.396,430.221,432.509,435.036,437.593,442.288,447.471,452.518,456.118,458.653,460.663,463.416,465.943,469.228,471.943,474.696,478.521,481.693,483.703,486.996,489.283,492.471,496.431,498.958,504.096,506.106,508.423,512.428,514.963,517.708,521.713,524.901,528.883,535.026,538.318,540.606,544.431,546.441" y="576.912" svg_rhmargin="550.401" style="fill:#171615;font-family:ETQGJU+MinionPro-Regular;font-size:7.5px;font-style:NORMAL;font-weight:normal;">et al. (2017). Micro RNA-146a but not IRAK1 is associated with rheumatoid</text>
  <text svg_rhmargin="423.801" x="313.318,316.611,319.393,321.711,325.716,328.498,330.508,332.796,334.806,337.55899999999997,340.378,342.388,346.48999999999995,349.311,351.628,355.633,358.82099999999997,361.641,363.928,367.911,372.013,374.023,376.776,378.786,382.078,386.17999999999995,389.008,392.938,396.763,400.693,404.676,406.573,409.866,412.153,414.163,417.988,422.091,423.801" y="586.377" style="fill:#171615;font-family:ETQGJU+MinionPro-Regular;font-size:7.5px;font-style:NORMAL;font-weight:normal;">arthritis in the tunisian population. </text>
  <text svg_rhmargin="515.839" x="426.618,431.726,434.726,438.716,441.656,443.958,445.72,448.563,453.086,456.026,458.486,460.788,462.55,465.393,471.963,475.488,477.356,479.118,481.968,486.183,488.231,491.756,497.658,501.333,504.078,507.603,510.603,513.311,515.839" y="586.377" style="fill:#171615;font-family:NJVBZB+MinionPro-It;font-size:7.5px;font-style:NORMAL;font-weight:normal;">Genet. Test. Mol. Biomarkers </text>
  <text x="518.656,522.256,525.856,527.566,530.386,533.986,537.586,541.486,545.086,548.686" y="586.377" svg_rhmargin="550.396" style="fill:#171615;font-family:ETQGJU+MinionPro-Regular;font-size:7.5px;font-style:NORMAL;font-weight:normal;">21, 92–96.</text>
  <text x="313.318,317.278,321.103,323.113,324.823,326.526,330.126,333.726,335.436,339.036,342.636,346.236,349.836,352.318,355.828,358.116,364.258,368.068,369.778,373.378,376.978,380.578,384.178,385.888,389.488,393.088,396.688" y="595.841" svg_rhmargin="400.288" style="fill:#171615;font-family:ETQGJU+MinionPro-Regular;font-size:7.5px;font-style:NORMAL;font-weight:normal;">doi: 10.1089/gtmb.2016.0270</text>
  <text x="303.358,308.923,312.216,315.658,318.943,321.658,325.663,327.673,331.776,335.601,337.311,340.881,345.636,347.346,349.056,352.633,358.206,362.031,365.541,369.523,372.651,376.656,378.666,380.376,383.953,388.708,390.418,392.128,395.698,398.991,403.093,407.053,410.631,414.598,418.581,422.301,426.283,428.293,430.003,433.573,438.201,439.911,443.481,446.076,449.676,453.276,456.876,460.476,463.071,464.781,468.358,471.913,475.356,478.108,480.396,483.583,489.726,493.018,495.306,497.316,500.489,504.058,507.313,510.778,514.071,515.968,519.951,523.243,525.531,527.541,531.366,535.468,539.046,542.338,546.441" y="605.306" svg_rhmargin="550.401" style="fill:#171615;font-family:ETQGJU+MinionPro-Regular;font-size:7.5px;font-style:NORMAL;font-weight:normal;">Hayashino, Y., Noguchi, Y., and Fukui, T. (2005). Systematic evaluation and</text>
  <text svg_rhmargin="468.351" x="313.318,316.491,320.316,326.458,330.388,333.681,336.463,338.473,341.226,345.051,349.15299999999996,351.666,355.491,357.711,360.216,362.968,365.301,368.593,370.881,372.891,375.643,377.931,379.941,383.136,386.428,388.325,390.838,393.126,396.298,399.051,401.338,404.091,406.596,408.816,412.641,415.423,417.936,421.866,425.848,429.658,431.556,433.566,436.761,440.053,442.341,444.351,448.176,452.27799999999996,454.783,458.593,460.603,463.888,466.641,468.351" y="614.77" style="fill:#171615;font-family:ETQGJU+MinionPro-Regular;font-size:7.5px;font-style:NORMAL;font-weight:normal;">comparison of statistical tests for publication bias. </text>
  <text svg_rhmargin="509.255" x="470.863,473.271,475.033,477.561,481.648,485.293,487.341,491.151,494.151,500.053,502.1,505.625,507.493,509.255" y="614.77" style="fill:#171615;font-family:NJVBZB+MinionPro-It;font-size:7.5px;font-style:NORMAL;font-weight:normal;">J. Epidemiol. </text>
  <text x="511.768,515.368,518.968,520.678,523.191,526.791,530.391,533.99,537.891,541.49,545.09,548.69" y="614.77" svg_rhmargin="550.4" style="fill:#171615;font-family:ETQGJU+MinionPro-Regular;font-size:7.5px;font-style:NORMAL;font-weight:normal;">15, 235–243.</text>
  <text x="313.318,317.278,321.103,323.113,324.823,326.526,330.126,333.726,335.436,339.036,342.636,346.236,349.836,352.318,354.238,357.463,360.756,362.466,366.066,369.666,371.376,374.976,378.576" y="624.235" svg_rhmargin="382.176" style="fill:#171615;font-family:ETQGJU+MinionPro-Regular;font-size:7.5px;font-style:NORMAL;font-weight:normal;">doi: 10.2188/jea.15.235</text>
  <text x="303.358,309.103,312.246,313.95599999999996,315.876,319.911,321.621,323.33099999999996,325.251,328.543,332.646,336.606,338.526,344.091,347.383,351.486,355.588,359.413,363.516,365.226,367.146,372.508,374.21799999999996,376.138,378.606,380.316,382.236,384.831,388.431,392.031,395.631,399.231,401.826,403.536,405.456,412.138,414.148,417.321,420.103,423.928,428.586,433.881,438.943,441.696,443.406,445.326,448.078,454.221,457.513,459.411,461.308,463.228,467.886,473.181,478.243,480.996,482.916,488.053,490.063,492.381,496.38599999999997,498.306,501.599,503.518,507.328,509.338,512.8480000000001,514.768,517.551,521.376,523.273,526.461,528.381,530.391,534.4929999999999,536.413,539.923,543.111,547.213" y="633.6990000000001" svg_rhmargin="550.401" style="fill:#171615;font-family:ETQGJU+MinionPro-Regular;font-size:7.5px;font-style:NORMAL;font-weight:normal;">He, L., and Hannon, G. J. (2004). MicroRNAs: small RNAs with a big role in gene</text>
  <text svg_rhmargin="345.913" x="313.318,316.101,319.296,322.806,326.788,328.686,331.978,334.266,336.276,340.101,344.203,345.91299999999995" y="643.164" style="fill:#171615;font-family:ETQGJU+MinionPro-Regular;font-size:7.5px;font-style:NORMAL;font-weight:normal;">regulation. </text>
  <text svg_rhmargin="395.451" x="347.616,352.694,356.204,358.506,360.268,361.986,366.479,369.516,372.869,374.63100000000003,376.349,381.456,384.456,388.446,391.386,393.689,395.451" y="643.164" style="fill:#171615;font-family:NJVBZB+MinionPro-It;font-size:7.5px;font-style:NORMAL;font-weight:normal;">Nat. Rev. Genet. </text>
  <text x="397.153,400.753,402.46299999999997,404.166,407.766,411.366,414.966,418.866,422.466,426.066,429.666,431.376,433.078,437.038,440.863,442.873,444.58299999999997,446.286,449.886,453.486,455.196,458.796,462.396,465.996,469.596,472.078,476.181,478.903,482.413,486.013,489.613,493.213" y="643.164" svg_rhmargin="496.813" style="fill:#171615;font-family:ETQGJU+MinionPro-Regular;font-size:7.5px;font-style:NORMAL;font-weight:normal;">5, 522–531. doi: 10.1038/nrg1379</text>
  <text x="303.358,309.103,311.113,314.668,318.178,320.188,324.291,327.043,328.753,330.868,333.336,335.046,337.153,341.376,343.086,344.796,346.911,350.203,354.306,358.26599999999996,360.373,364.993,368.998,372.823,378.966,382.896,385.648,389.473,393.576,395.286,397.401,400.956,402.666,404.773,410.136,411.846,413.961,416.556,420.156,423.756,427.356,430.956,433.551,435.26099999999997,437.376,442.963,446.946,450.238,454.341,456.628,458.638,460.858,464.301,466.311,470.413,473.923,476.031,480.036,483.223,485.511,488.698,491.481,495.306,498.816,502.003,506.106,509.293,511.303,513.591,517.033,519.148,521.158,525.26,527.368,530.6610000000001,532.776,538.918,542.106,544.438,547.731" y="652.6279999999999" svg_rhmargin="550.401" style="fill:#171615;font-family:ETQGJU+MinionPro-Regular;font-size:7.5px;font-style:NORMAL;font-weight:normal;">Higgins, J. P., and Thompson, S. G. (2002). Quantifying heterogeneity in a meta-</text>
  <text svg_rhmargin="338.571" x="313.318,316.611,320.713,324.006,325.903,329.346,332.098,334.108,336.861,338.57099999999997" y="662.093" style="fill:#171615;font-family:ETQGJU+MinionPro-Regular;font-size:7.5px;font-style:NORMAL;font-weight:normal;">analysis. </text>
  <text svg_rhmargin="370.362" x="340.273,343.708,345.928,349.438,351.74,353.502,355.22,361.79,364.79,368.6,370.362" y="662.093" style="fill:#171615;font-family:NJVBZB+MinionPro-It;font-size:7.5px;font-style:NORMAL;font-weight:normal;">Stat. Med. </text>
  <text x="372.066,375.666,379.266,380.976,382.679,386.279,389.879,393.479,397.079,400.979,404.579,408.179,411.779,415.379,417.089,418.791,422.751,426.576,428.586,430.296,431.999,435.599,439.199,440.909,444.509,448.109,451.709,455.309,457.791,460.544,462.554,468.696,470.406,474.006,477.606,481.206" y="662.093" svg_rhmargin="484.806" style="fill:#171615;font-family:ETQGJU+MinionPro-Regular;font-size:7.5px;font-style:NORMAL;font-weight:normal;">21, 1539–1558. doi: 10.1002/sim.1186</text>
  <text x="303.358,305.826,307.836,313.978,317.165,321.268,324.493,327.643,330.313,336.996,340.821,343.603,346.896,348.793,351.966,354.718,356.428,360.576,364.13,365.84,367.54999999999995,371.705,377.075,380.368,386.51,390.32,394.145,397.438,400.108,404.518,407.751,410.923,414.111,416.893,419.676,422.968,424.678,428.826,433.483,435.193,436.90299999999996,441.058,445.52,448.798,451.993,455.285,456.995,461.143,466.415,468.125,469.835,473.99,479.503,482.69,484.587,488.735,493.393,495.403,499.228,501.898,507.283,510.44,513.905,517.198,519.98,522.763,526.588,528.298,532.445,536.855,538.565,542.72,546.98,548.69" y="671.557" svg_rhmargin="550.4" style="fill:#171615;font-family:ETQGJU+MinionPro-Regular;font-size:7.5px;font-style:NORMAL;font-weight:normal;">Jimenez-Morales, S., Gamboa-Becerra, R., Baca, V., Del Rio-Navarro, B. E.,</text>
  <text x="313.318,317.353,321.178,325.108,328.333,331.483,334.153,338.188,341.376,344.818,346.52799999999996,348.973,354.486,356.19599999999997,358.633,363.388,365.098,366.808,369.253,374.526,377.713,379.611,382.903,386.053,389.885,393.868,397.093,400.243,402.913,407.901,410.683,414.666,417.816,419.52599999999995,421.963,426.621,428.331,430.041,432.486,435.673,437.961,440.398,443.691,445.588,447.298,449.743,452.338,455.938,459.538,463.138,466.738,469.333,471.043,473.481,480.163,482.173,486.508,489.178,492.778,496.378,499.978,503.271,505.716,509.646,513.471,515.368,518.811,524.953,528.778,531.561,535.491,539.496,541.506,544.258" y="681.022" svg_rhmargin="550.401" style="fill:#171615;font-family:ETQGJU+MinionPro-Regular;font-size:7.5px;font-style:NORMAL;font-weight:normal;">Lopez-Ley, D. Y., Velazquez-Cruz, R., et al. (2012). MiR-146a polymorphism</text>
  <text x="313.318,315.328,318.08099999999996,321.598,324.883,327.598,330.35,334.176,337.348,339.358,342.651,344.938,348.126,352.08599999999996,355.611,360.748,362.758,365.076,369.081,372.598,375.883,378.636,380.953,384.958,391.101,394.394,397.911,401.721,405.703,407.991,411.508,415.611,419.436,421.724,425.248,430.386,432.396,434.713,438.718,442.236,444.988,448.431,451.183,453.471,456.658,462.801,464.811,467.984,471.501,473.398,477.381,481.311,485.293,488.046,491.563,494.751,497.533,500.976,503.293,507.298,510.486,516.628,519.921,522.208,526.033,528.786,532.768,535.5210000000001,539.046,542.338,546.44" y="690.486" svg_rhmargin="550.4" style="fill:#171615;font-family:ETQGJU+MinionPro-Regular;font-size:7.5px;font-style:NORMAL;font-weight:normal;">is associated with asthma but not with systemic lupus erythematosus and</text>
  <text svg_rhmargin="463.266" x="313.318,315.238,319.221,322.693,325.881,329.983,331.993,333.891,337.079,338.848,341.593,345.598,348.786,352.768,358.911,362.203,364.491,368.316,370.326,374.286,376.056,379.348,382.131,384.448,388.453,391.236,393.246,395.533,397.543,400.296,402.066,404.076,408.178,409.941,416.623,419.796,423.336,425.346,428.541,431.833,435.935,437.706,441.636,444.928,447.216,449.226,452.413,456.516,458.803,461.556,463.26599999999996" y="699.951" style="fill:#171615;font-family:ETQGJU+MinionPro-Regular;font-size:7.5px;font-style:NORMAL;font-weight:normal;">juvenile rheumatoid arthritis in Mexican patients. </text>
  <text svg_rhmargin="510.741" x="465.036,468.996,471.043,473.496,476.023,480.021,483.021,484.806,489.786,493.776,496.026,498.073,501.223,504.223,508.213,510.74100000000004" y="699.951" style="fill:#171615;font-family:NJVBZB+MinionPro-It;font-size:7.5px;font-style:NORMAL;font-weight:normal;">Tissue Antigens </text>
  <text x="512.509,516.109,519.709,521.419,523.189,526.789,530.389,533.989,537.889,541.489,545.089,548.689" y="699.951" svg_rhmargin="550.399" style="fill:#171615;font-family:ETQGJU+MinionPro-Regular;font-size:7.5px;font-style:NORMAL;font-weight:normal;">80, 317–321.</text>
  <text x="313.318,317.278,321.103,323.113,324.823,326.526,330.126,333.726,335.436,339.036,342.636,346.236,349.836,352.318,354.238,355.948,359.548,363.148,366.748,370.348,373.513,377.113,380.713,384.313,387.913,389.623,393.223,396.823,400.423,404.023,405.733,409.333,412.933,416.533,420.133,423.733,425.443" y="709.415" svg_rhmargin="428.983" style="fill:#171615;font-family:ETQGJU+MinionPro-Regular;font-size:7.5px;font-style:NORMAL;font-weight:normal;">doi: 10.1111/j.1399-0039.2012.01929.x</text>
  <text svg_rhmargin="511.393" x="303.358,308.406,310.303,313.491,315.501,319.603,321.313,324.418,329.466,331.176,332.88599999999997,335.998,339.291,343.393,347.35299999999995,350.458,355.828,359.121,362.563,364.27299999999997,367.378,370.933,372.643,375.748,378.343,381.943,385.543,389.143,392.743,395.338,397.048,400.153,404.413,408.343,410.353,413.863,417.051,421.153,424.341,426.628,428.638,431.818,434.57099999999997,437.683,439.693,443.79499999999996,446.901,449.646,453.651,456.838,460.821,466.963,470.256,472.543,476.368,478.378,482.33799999999997,485.443,488.736,491.518,493.836,497.841,500.623,502.633,504.921,506.931,509.683,511.393" y="718.88" style="fill:#171615;font-family:ETQGJU+MinionPro-Regular;font-size:7.5px;font-style:NORMAL;font-weight:normal;">Klein, K., and Gay, S. (2015). Epigenetics in rheumatoid arthritis. </text>
  <text x="514.498,519.261,523.258,526.003,528.748,530.51,533.646,538.956,542.601,544.648,548.638" y="718.88" svg_rhmargin="550.4" style="fill:#171615;font-family:NJVBZB+MinionPro-It;font-size:7.5px;font-style:NORMAL;font-weight:normal;">Curr. Opin.</text>
  <text svg_rhmargin="347.54" x="313.318,317.841,321.673,324.673,328.671,334.573,338.083,340.385,343.91,345.778,347.54" y="728.344" style="fill:#171615;font-family:NJVBZB+MinionPro-It;font-size:7.5px;font-style:NORMAL;font-weight:normal;">Rheumatol. </text>
  <text x="349.243,352.843,356.443,358.15299999999996,359.856,363.456,367.056,370.956,374.556,378.156,379.866,381.568,385.528,389.353,391.363,393.073,394.776,398.376,401.976,403.686,407.286,410.886,414.486,418.086,420.568,424.378,428.203,430.986,432.696,436.296,439.896,443.496,447.096,450.696,454.296,457.896,461.496,465.096,468.696,472.296,475.896,479.496,483.096,486.696" y="728.344" svg_rhmargin="490.296" style="fill:#171615;font-family:ETQGJU+MinionPro-Regular;font-size:7.5px;font-style:NORMAL;font-weight:normal;">27, 76–82. doi: 10.1097/bor.0000000000000128</text>
  <text svg_rhmargin="175.943" x="44.98,48.739,50.818,54.71,58.469,60.541,61.836,65.469,67.674,71.04100000000001,72.987,74.282,78.041,79.987,84.397,88.156,91.397,94.764,96.059,99.951,101.246,105.138,109.03,112.271,114.217,115.771,117.717,122.904,128.091,132.893,134.839,136.652,138.731,142.623,146.382,148.454,149.749,153.382,155.587,158.954,160.249,164.008,165.954,169.846,172.051,175.94299999999998" y="768.047" style="fill:#6d6d6c;font-family:KMCGGQ+HelveticaNeueLTStd-Lt;font-size:7.0px;font-style:NORMAL;font-weight:normal;">Frontiers in Physiology | www.frontiersin.org </text>
  <text svg_rhmargin="301.581" x="293.797,297.689,301.581" y="768.047" style="fill:#6d6d6c;font-family:XBHOUF+HelveticaNeueLTStd-Bd;font-size:7.0px;font-style:NORMAL;font-weight:normal;">10 </text>
  <text x="426.54,431.468,435.36,438.601,442.234,448.065,452.083,455.716,457.921,459.867,463.759,467.651,471.543,475.435,477.381,478.93499999999995,480.881,484.647,488.539,489.834,493.593,499.424,503.05699999999996,505.003,508.895,510.841,512.395,514.341,518.751,520.956,523.028,524.323,527.956,529.251,532.884,534.83,538.722,542.614,546.506" y="768.047" svg_rhmargin="550.398" style="fill:#6d6d6c;font-family:KMCGGQ+HelveticaNeueLTStd-Lt;font-size:7.0px;font-style:NORMAL;font-weight:normal;">November 2018 | Volume 9 | Article 1604</text>
 </g>
</svg>
