<?xml version="1.0" encoding="UTF-8"?>
<svg height="851.409" width="645.855" xmlns="http://www.w3.org/2000/svg">
 <g style="fill:none;">
  <text x="8.034,10.402,14.594,18.866,22.538,25.474,28.322,32.162,36.002,38.85,42.69,46.53,50.37,54.21,58.05,74.05,79.994,84.074,87.778,91.178,97.73,101.794,105.194,108.162,109.978,113.818,117.658,119.482,121.298,125.138,128.978,132.818,136.65800000000002,152.658,157.474,159.618,166.17,169.57,171.394,173.642,177.482,181.322,183.146,186.986,190.826,206.826,210.666,212.482" y="-1.058999999999969" svg_rhmargin="216.322" style="fill:#171615;font-family:ETQGJU+MinionPro-Regular;font-size:8.0px;font-style:NORMAL;font-weight:normal;">fphys-09-01604 November 13, 2018 Time: 14:49 # 8</text>
  <text x="44.98,48.998,52.757,56.649,60.408,62.354,65.987,68.059,70.005,73.638,74.933,76.879,394.823,400.654,401.949,405.582,407.661,411.553,416.222,421.15,425.56,427.506,431.916,435.808,437.103,440.344,446.175,450.067,452.272,456.29,460.049,461.344,464.711,470.542,473.909,475.855,479.488,483.247,487.265,489.211,493.88,497.639,501.272,505.031,510.862,514.495,516.567,520.459,521.754,525.772,527.718,532.128,534.333,536.405,540.164,542.369,543.664,545.736,547.031" y="55.254999999999995" svg_rhmargin="550.398" style="fill:#6d6d6c;font-family:KMCGGQ+HelveticaNeueLTStd-Lt;font-size:7.0px;font-style:NORMAL;font-weight:normal;">Zhou et al. MicroRNA Polymorphisms and Rheumatoid Arthritis</text>
  <rect style="stroke:blue;stroke-width:0.3;" x="98.611" y="89.49" height="598.688" width="396.0" title="8"/>
  <text x="98.611" y="89.49" class="image" id="image.8.1" width="396" height="598">image.8.1.99_495.89_688</text>
  <path d="M-1.416 2.086 L-1.416 -21.822 M-43.029 20.088 L-19.119 20.088 M611.942 20.088 L635.851 20.088 M593.76 2.086 L593.76 -21.822 M-43.009 799.516 L-19.099 799.516 M-1.116 841.409 L-1.116 817.5 M593.76 841.409 L593.76 817.5 M611.945 799.516 L635.855 799.516 M44.979 63.215 L550.396 63.215 M103.515 90.794 L102.292 90.794 L100.061 96.521 L101.288 96.521 L101.761 95.221 L104.05 95.221 L104.55 96.521 L105.807 96.521 L103.515 90.794 M102.116 94.255 L102.89 92.13 L103.679 94.255 L102.116 94.255 " style="fill:none;stroke:#171615;stroke-width:1.0;"/>
  <rect style="stroke:blue;stroke-width:0.3;" x="99.81" y="90.471" height="6.324" width="6.324" title="8"/>
  <text x="99.81" y="90.471" class="image" id="image.8.2" width="6" height="6">image.8.2.100_106.90_97</text>
  <path d="M99.993 410.747 L101.943 410.747 C102.679 410.742 103.144 410.729 103.337 410.708 C103.644 410.675 103.903 410.584 104.112 410.437 C104.322 410.29 104.487 410.093 104.608 409.847 C104.729 409.601 104.79 409.347 104.79 409.087 C104.79 408.756 104.697 408.468 104.508 408.223 C104.321 407.979 104.053 407.805 103.704 407.705 C103.952 407.593 104.148 407.424 104.292 407.2 C104.437 406.976 104.508 406.73 104.508 406.462 C104.508 406.214 104.45 405.99 104.333 405.792 C104.216 405.593 104.069 405.434 103.893 405.313 C103.718 405.194 103.518 405.115 103.296 405.076 C103.073 405.04 102.735 405.02 102.282 405.02 L99.993 405.02 L99.993 410.747 M101.813 405.973 C102.358 405.973 102.687 405.98 102.802 405.993 C102.994 406.016 103.14 406.084 103.238 406.195 C103.335 406.305 103.384 406.449 103.384 406.626 C103.384 406.811 103.327 406.96 103.214 407.074 C103.101 407.187 102.945 407.255 102.747 407.278 C102.637 407.292 102.358 407.298 101.907 407.298 L101.149 407.298 L101.149 405.973 L101.813 405.973 M102.083 408.251 C102.609 408.251 102.951 408.279 103.108 408.333 C103.266 408.388 103.386 408.475 103.47 408.595 C103.553 408.714 103.595 408.86 103.595 409.032 C103.595 409.235 103.541 409.398 103.432 409.519 C103.325 409.64 103.184 409.716 103.013 409.747 C102.901 409.77 102.636 409.782 102.22 409.782 L101.149 409.782 L101.149 408.251 L102.083 408.251 " style="fill:none;stroke:#171615;stroke-width:1.0;"/>
  <rect style="stroke:blue;stroke-width:0.3;" x="99.701" y="404.698" height="6.324" width="5.343" title="8"/>
  <text x="99.701" y="404.698" class="image" id="image.8.3" width="5" height="6">image.8.3.100_105.405_411</text>
  <text svg_rhmargin="97.743" x="51.207,55.358,57.423,62.736,67.923,72.977,77.513,79.459,83.351,85.297,86.858,88.804,90.876,95.671,97.74300000000001" y="708.103" style="fill:#171615;font-family:XBHOUF+HelveticaNeueLTStd-Bd;font-size:7.0px;font-style:NORMAL;font-weight:normal;">FIGURE 4 | (A) </text>
  <text x="99.689,103.448,107.34,109.419,113.052,116.419,118.491,120.437,124.455,125.75,129.642,131.714,133.66,135.473,139.365,141.57000000000002,143.516,147.149,150.516,153.883,157.775,161.408,162.703,166.336,168.408,169.703,173.595,177.35399999999998,179.3,183.318,186.951,189.023,194.21,197.843,201.476,205.23499999999999,207.181,213.012,214.307,218.976,221.566,225.458,229.35,233.242,236.875,238.821,241.026,244.393,248.285,252.177,256.069,259.961,263.853,267.745,271.637,273.583,277.601,281.493,282.788,286.029,291.86,295.752,297.957,301.975,305.734,307.029,310.396,316.227,319.594,321.54,325.173,328.932,332.95,334.896,337.101,338.396,341.763,345.263,347.209,351.101,352.914,354.86,357.065,360.824,364.457,368.216,374.047,377.68,379.752,383.644,384.939,388.957,390.903,394.536,396.741,398.813,402.572,404.777,406.072,408.144,409.439,412.80600000000004,414.752,418.511,422.27,426.288,429.921,432.126,434.072,437.705,439.0,440.295,443.928,445.223,448.856,450.802,454.694,458.327,462.086,465.719,467.791,469.086,472.719,474.665,480.496,484.388,488.406,492.039,493.334,495.28,496.967,501.895,503.841,507.082,510.449,512.395,514.341,518.233,519.92,521.866,525.499,527.312,529.384,533.017" y="708.103" svg_rhmargin="535.222" style="fill:#171615;font-family:KMCGGQ+HelveticaNeueLTStd-Lt;font-size:7.0px;font-style:NORMAL;font-weight:normal;">Forest plot for association between miR-499a rs3746444 polymorphisms and risk of rheumatoid arthritis under allele genetic model (C vs. T) after</text>
  <text svg_rhmargin="149.991" x="51.207,54.574,56.646,58.851,62.484,64.556,65.851,68.959,72.592,76.225,78.297,79.592,83.484,87.243,89.189,92.822,96.581,100.214,101.509,104.75,108.117,109.412,112.77900000000001,114.725,118.743,121.984,123.93,127.563,129.635,133.394,137.153,138.448,142.081,143.376,145.448,148.045,149.99099999999999" y="717.568" style="fill:#171615;font-family:KMCGGQ+HelveticaNeueLTStd-Lt;font-size:7.0px;font-style:NORMAL;font-weight:normal;">stratiﬁcation analysis by ethnicity. </text>
  <text svg_rhmargin="161.009" x="151.937,154.009,158.937,161.00900000000001" y="717.568" style="fill:#171615;font-family:XBHOUF+HelveticaNeueLTStd-Bd;font-size:7.0px;font-style:NORMAL;font-weight:normal;">(B) </text>
  <text x="162.955,166.714,170.606,172.685,176.318,179.685,181.757,183.703,187.721,189.016,192.908,194.98,196.926,198.739,202.631,204.836,206.782,210.415,213.782,217.149,221.041,224.674,225.969,229.602,231.674,232.969,236.861,240.61999999999998,242.566,246.584,250.217,252.289,257.476,261.109,264.742,268.50100000000003,270.447,276.278,277.573,282.242,285.742,289.634,293.526,297.418,301.051,302.997,305.202,308.569,312.461,316.353,320.245,324.137,328.029,331.921,335.813,337.759,341.777,345.669,346.964,350.205,356.036,359.928,362.133,366.151,369.91,371.205,374.572,380.403,383.77000000000004,385.716,389.349,393.108,397.126,399.072,401.277,402.572,405.939,409.439,411.385,415.277,417.09,419.036,421.241,425.0,428.633,432.392,438.223,441.856,443.928,447.82,449.115,453.133,455.079,458.712,460.917,462.989,466.748,468.953,470.248,472.32,473.615,476.982,478.928,482.687,486.446,490.464,494.097,496.30199999999996,498.248,502.007,505.64,507.712,511.345,513.424,517.316,520.557,523.798,527.69,531.582,533.654" y="717.568" svg_rhmargin="537.287" style="fill:#171615;font-family:KMCGGQ+HelveticaNeueLTStd-Lt;font-size:7.0px;font-style:NORMAL;font-weight:normal;">Forest plot for association between miR–499a rs3746444 polymorphisms and risk of rheumatoid arthritis under heterozygote</text>
  <text x="51.207,55.099,58.732,62.491,66.124,68.196,69.491,73.124,75.07,80.901,84.793,88.811,92.444,93.739,95.685,97.372,101.264,106.192,108.138,111.379,114.746,116.692,118.638,122.53,126.422,128.109,130.055,133.688,135.501,137.573,141.206,143.411,145.357,148.724,150.796,153.001,156.634,158.706,160.001,163.109,166.742,170.375,172.447,173.742,177.634,181.39299999999997,183.339,186.972,190.731,194.364,195.659,198.9,202.267,203.562,206.929,208.875,212.893,216.13400000000001,218.08,221.713,223.785,227.544,231.303,232.598,236.231,237.526,239.598,242.195" y="727.032" svg_rhmargin="244.141" style="fill:#171615;font-family:KMCGGQ+HelveticaNeueLTStd-Lt;font-size:7.0px;font-style:NORMAL;font-weight:normal;">genetic model (TC vs. TT) after stratiﬁcation analysis by ethnicity.</text>
  <text svg_rhmargin="175.943" x="44.98,48.739,50.818,54.71,58.469,60.541,61.836,65.469,67.674,71.04100000000001,72.987,74.282,78.041,79.987,84.397,88.156,91.397,94.764,96.059,99.951,101.246,105.138,109.03,112.271,114.217,115.771,117.717,122.904,128.091,132.893,134.839,136.652,138.731,142.623,146.382,148.454,149.749,153.382,155.587,158.954,160.249,164.008,165.954,169.846,172.051,175.94299999999998" y="768.047" style="fill:#6d6d6c;font-family:KMCGGQ+HelveticaNeueLTStd-Lt;font-size:7.0px;font-style:NORMAL;font-weight:normal;">Frontiers in Physiology | www.frontiersin.org </text>
  <text svg_rhmargin="299.635" x="295.743,299.635" y="768.047" style="fill:#6d6d6c;font-family:XBHOUF+HelveticaNeueLTStd-Bd;font-size:7.0px;font-style:NORMAL;font-weight:normal;">8 </text>
  <text x="426.54,431.468,435.36,438.601,442.234,448.065,452.083,455.716,457.921,459.867,463.759,467.651,471.543,475.435,477.381,478.93499999999995,480.881,484.647,488.539,489.834,493.593,499.424,503.05699999999996,505.003,508.895,510.841,512.395,514.341,518.751,520.956,523.028,524.323,527.956,529.251,532.884,534.83,538.722,542.614,546.506" y="768.047" svg_rhmargin="550.398" style="fill:#6d6d6c;font-family:KMCGGQ+HelveticaNeueLTStd-Lt;font-size:7.0px;font-style:NORMAL;font-weight:normal;">November 2018 | Volume 9 | Article 1604</text>
 </g>
</svg>
