<?xml version="1.0" encoding="UTF-8"?>
<svg height="870.031005859375" width="672.0029907226562" xmlns="http://www.w3.org/2000/svg">
 <g style="fill:none;">
  <path d=" M 0.05999799817800522 826.072021484375 L 22.619997024536133 826.072021484375 L 22.619997024536133 826.35546875 L 0.05999799817800522 826.35546875 Z " style="fill:none;stroke:#000000;stroke-width:1.0;"/>
  <path d=" M 33.67599868774414 837.4110107421875 L 33.959449768066406 837.4110107421875 L 33.959449768066406 860.031005859375 L 33.67599868774414 860.031005859375 Z " style="fill:none;stroke:#000000;stroke-width:1.0;"/>
  <path d=" M 627.9869995117188 837.4110107421875 L 628.2703857421875 837.4110107421875 L 628.2703857421875 860.031005859375 L 627.9869995117188 860.031005859375 Z " style="fill:none;stroke:#000000;stroke-width:1.0;"/>
  <path d=" M 639.3259887695312 826.072021484375 L 662.0029907226562 826.072021484375 L 662.0029907226562 826.35546875 L 639.3259887695312 826.35546875 Z " style="fill:none;stroke:#000000;stroke-width:1.0;"/>
  <path d=" M 639.3259887695312 33.731998443603516 L 662.0029907226562 33.731998443603516 L 662.0029907226562 34.015480041503906 L 639.3259887695312 34.015480041503906 Z " style="fill:none;stroke:#000000;stroke-width:1.0;"/>
  <path d=" M 627.9869995117188 0.0 L 628.2703857421875 0.0 L 628.2703857421875 22.677000045776367 L 627.9869995117188 22.677000045776367 Z " style="fill:none;stroke:#000000;stroke-width:1.0;"/>
  <path d=" M 33.67599868774414 0.0 L 33.959449768066406 0.0 L 33.959449768066406 22.677000045776367 L 33.67599868774414 22.677000045776367 Z " style="fill:none;stroke:#000000;stroke-width:1.0;"/>
  <path d=" M 0.05999799817800522 33.731998443603516 L 22.619997024536133 33.731998443603516 L 22.619997024536133 34.015480041503906 L 0.05999799817800522 34.015480041503906 Z " style="fill:none;stroke:#000000;stroke-width:1.0;"/>
  <text x="71.887,77.802,80.75500000000001,85.493,92.288,98.005,103.23,109.145,111.899,115.543" y="291.238" svg_rhmargin="120.767" style="fill:#171615;font-family:BKMKKE+AdvOTfbba3ace.B;font-size:9.46px;font-style:NORMAL;font-weight:normal;">3. Results</text>
  <text x="71.887,76.836,79.257,84.206,86.62700000000001,91.105,96.888,99.775,104.904,110.32,114.803,117.807,122.756,127.885,132.834,136.098,141.047,145.997,148.884,153.833,157.097,159.24,163.723,166.61,168.753,173.702" y="309.153" svg_rhmargin="178.185" style="fill:#171615;font-family:BKMLIE+AdvOT01861455.I;font-size:8.97px;font-style:NORMAL;font-weight:normal;">3.1. Study characteristics</text>
  <text x="71.887,80.853,84.771,89.461,93.38,98.329,103.279,108.228,113.177,117.096,119.983,123.901,128.85,133.624,136.511,141.461,143.881,147.333,152.049,155.501,158.388,163.337,168.287,172.77,177.503,182.453,187.402,192.352,196.27,199.722,204.432,209.381,215.819,218.706,223.189,232.156,238.594,243.322,246.774,249.661,254.145,257.032,260.95,268.32,272.239,277.188,280.075,284.82,287.707,292.657,295.078,299.561,301.98199999999997,306.699,311.648,314.535" y="325.141" svg_rhmargin="316.956" style="fill:#171615;font-family:BKMKLN+AdvOTbc475f09;font-size:8.97px;font-style:NORMAL;font-weight:normal;">We conducted this study under PRISMA statement (Fig. 1).</text>
  <text x="71.887,77.768,82.718,86.17,91.119,96.069,100.552,105.501,107.205,109.626,112.047,114.934,118.852,122.304,126.787,129.674,134.624,138.076,141.994,143.77,147.222,151.141,155.624,159.076,162.994,167.943,171.862,175.314,177.73499999999999,179.486,184.435,189.385,194.334,196.097,199.549,202.436,207.385,212.335,214.756,218.674,222.126,223.875,228.825,231.246,234.698,238.616,243.565,247.017,250.469,254.388,259.337,261.065,263.952,268.901,272.819,274.557,279.04,282.492,285.944,290.894,294.812,297.233,301.716,304.603,307.024,311.974" y="336.082" svg_rhmargin="316.923" style="fill:#171615;font-family:BKMKLN+AdvOTbc475f09;font-size:8.97px;font-style:NORMAL;font-weight:normal;">Through literature searches, 626 studies discussed the association</text>
  <text svg_rhmargin="316.954" x="71.887,76.836,79.723,81.411,88.88,94.295,100.733,102.5,107.45,112.399,114.82,119.303,126.673,131.623,135.075,140.024,144.974,147.394,150.847,158.217,159.928,164.412,169.361,174.31,176.029,182.467,188.905,191.326,193.037,199.474,202.362,205.249,209.167,212.619,214.352,217.804,221.722,226.206,231.155,233.576,238.525,243.008,244.739,247.626,250.047,252.934,255.355,259.273,262.725,264.467,268.951,273.9,278.849,280.568,285.051,290.001,293.453,296.34,299.792,304.275,308.193,311.081,314.533,316.954" y="291.805" style="fill:#171615;font-family:BKMKLN+AdvOTbc475f09;font-size:8.97px;font-style:NORMAL;font-weight:normal;">of HLA polymorphism and AA. After reading titles and abstracts, </text>
  <text x="331.938,336.887,341.836,347.812,351.264,354.151,359.1,364.05,366.471,370.389,373.841,379.842,386.746,390.665,394.117,398.035,403.993,406.414,411.363,415.282,420.231,423.118" y="291.805" svg_rhmargin="425.539" style="fill:#171615;font-family:BKMKLN+AdvOTbc475f09;font-size:8.97px;font-style:NORMAL;font-weight:normal;">22 studies were identi</text>
  <text x="425.595" y="291.805" svg_rhmargin="430.544" style="fill:#171615;font-family:BKMKMA+AdvOTbc475f09+fb;font-size:8.97px;font-style:NORMAL;font-weight:normal;">ﬁ</text>
  <text x="430.527,434.445,439.395,441.816,447.818,454.255,459.205,462.092,467.041,470.493,473.38,478.33,483.279,487.762,490.65,494.568,496.989,501.472,503.893,509.894,514.843,519.7919999999999,525.824,530.308,533.76,536.647,539.068,542.986,545.407,549.325,552.777,558.762,565.666,569.584,573.036" y="291.805" svg_rhmargin="576.954" style="fill:#171615;font-family:BKMKLN+AdvOTbc475f09;font-size:8.97px;font-style:NORMAL;font-weight:normal;">ed. Unfortunately, 10 articles were</text>
  <text x="331.938,335.856,338.277,340.698,348.068,350.489,355.439,359.922,362.809,366.727,371.676,376.327,381.277,386.226,390.144,394.865,397.752,402.701,407.337,410.789,415.739,423.109,427.027,431.715,435.167,439.085,443.568,447.021,451.97,456.919,460.371,462.792,467.487,473.369,478.318,482.236,486.876,491.359,496.308,501.258,506.207,508.628,512.546,519.917,523.835,528.784,531.671,536.155,538.576,543.283,549.165,553.648,558.597,561.018,564.936,569.587,574.537" y="302.747" svg_rhmargin="576.958" style="fill:#171615;font-family:BKMKLN+AdvOTbc475f09;font-size:8.97px;font-style:NORMAL;font-weight:normal;">eliminated due to some reasons. The Supplemental Table 3,</text>
  <text x="331.938,336.887,339.775,342.662,347.611,350.032,352.453,354.874,357.295,359.716,364.665,369.614,373.066,375.487,377.908,384.812,391.716,394.137,398.055,403.005,410.375,412.796,421.762,428.666,431.087,437.525,442.475,447.424,452.373,454.22,456.64,459.061,462.513,465.4,468.852,470.604,473.491,478.44,482.358,484.096,487.548,491.466,495.95,499.402,504.351,509.3,512.7520000000001,514.483,517.37,522.319,525.771,527.522,530.409,535.358,539.276,541.014,544.932,549.882,553.8,556.221,561.17,564.622,567.043,571.993" y="313.688" svg_rhmargin="576.942" style="fill:#171615;font-family:BKMKLN+AdvOTbc475f09;font-size:8.97px;font-style:NORMAL;font-weight:normal;">http://links.lww.com/MD/C384 lists the reasons for the exclusion</text>
  <text x="331.938,336.887,339.774,342.936,345.823,350.773,354.691,358.143,362.061,365.273,368.725,371.612,376.561,381.511,383.932,387.85,391.302,393.723,396.963,401.913,404.334,409.283,413.766,416.187,418.608,423.091,425.512,428.71,433.66,438.60900000000004,441.807,445.259,448.146,453.095,458.045,460.465,464.384" y="324.686" svg_rhmargin="467.836" style="fill:#171615;font-family:BKMKLN+AdvOTbc475f09;font-size:8.97px;font-style:NORMAL;font-weight:normal;">of these studies. Finally, 12 studies</text>
  <text x="467.887,470.052,473.765" y="320.661" svg_rhmargin="477.477" style="fill:#171615;font-family:BKMKLN+AdvOTbc475f09;font-size:5.98px;font-style:NORMAL;font-weight:normal;">[12</text>
  <text x="477.468" y="320.661" svg_rhmargin="480.83" style="fill:#171615;font-family:BKMKLP+AdvOTbc475f09+20;font-size:5.98px;font-style:NORMAL;font-weight:normal;">–</text>
  <text svg_rhmargin="490.459" x="480.869,484.582,488.294,490.459" y="324.687" style="fill:#171615;font-family:BKMKLN+AdvOTbc475f09;font-size:5.98px;font-style:NORMAL;font-weight:normal;">23] </text>
  <text x="493.682,497.6,502.549,507.499,510.951,513.372,516.824,519.711,522.132,527.081,531.564,534.782,539.732,544.681,549.631,554.5799999999999,557.742,561.661,566.144,569.596,573.514" y="324.687" svg_rhmargin="576.966" style="fill:#171615;font-family:BKMKLN+AdvOTbc475f09;font-size:8.97px;font-style:NORMAL;font-weight:normal;">consisting 1283 cases</text>
  <text x="331.936,336.419,341.369,346.31800000000004,348.887,353.836,358.786,361.207,366.156,371.105,376.05400000000003,378.593,382.511,387.461,392.41,395.297,398.749,403.699,406.12,409.572,412.21,419.115,423.033,426.485,430.403,433.016,435.437,440.386,444.304,446.725,451.675,456.624,460.542,465.492,467.913,470.489,475.438,478.029,482.978,485.865,488.46,495.364,500.313,502.734,506.653,511.60200000000003,514.198,521.102,525.02,528.472,532.39,534.947,539.43,542.882,547.365,552.314,557.264,561.747,564.634,567.055,572.004" y="335.628" svg_rhmargin="576.953" style="fill:#171615;font-family:BKMKLN+AdvOTbc475f09;font-size:8.97px;font-style:NORMAL;font-weight:normal;">and 32,343 controls were included, 2 of which were graduation</text>
  <text x="331.936,334.823,339.773,343.691,347.143,351.061,354.513,358.298,363.247,366.134,369.92,374.869,379.819,383.271,386.158,390.641,394.093,398.576,403.526,408.475,412.958,415.845,419.76300000000003,423.549,427.001,429.888,434.838,439.787,443.705,448.655,451.542,454.994" y="346.57" svg_rhmargin="457.415" style="fill:#171615;font-family:BKMKLN+AdvOTbc475f09;font-size:8.97px;font-style:NORMAL;font-weight:normal;">theses of postgraduate students.</text>
  <text svg_rhmargin="478.528" x="457.455,459.621,463.334,467.046,468.863,472.65,476.363,478.528" y="346.57" style="fill:#171615;font-family:BKMKLN+AdvOTbc475f09;font-size:5.98px;font-style:NORMAL;font-weight:normal;">[13,14] </text>
  <text x="482.286,488.724,493.674,498.157,503.106,507.589,511.426,515.344,518.231,522.028,526.511" y="346.57" svg_rhmargin="528.932" style="fill:#171615;font-family:BKMKLN+AdvOTbc475f09;font-size:8.97px;font-style:NORMAL;font-weight:normal;">Zhang et al</text>
  <text svg_rhmargin="540.701" x="528.945,531.111,534.823,538.536,540.7009999999999" y="346.57" style="fill:#171615;font-family:BKMKLN+AdvOTbc475f09;font-size:5.98px;font-style:NORMAL;font-weight:normal;">[19] </text>
  <text x="544.479,546.899,551.849,555.767,558.188,563.137,568.087,572.005" y="346.57" svg_rhmargin="576.954" style="fill:#171615;font-family:BKMKLN+AdvOTbc475f09;font-size:8.97px;font-style:NORMAL;font-weight:normal;">included</text>
  <path d=" M 71.88700103759766 741.7130126953125 L 576.9639892578125 741.7130126953125 L 576.9639892578125 742.2232666015625 L 71.88700103759766 742.2232666015625 Z " style="fill:none;stroke:#000000;stroke-width:1.0;"/>
  <path d=" M 71.88700103759766 551.5089721679688 L 576.9639892578125 551.5089721679688 L 576.9639892578125 552.0192260742188 L 71.88700103759766 552.0192260742188 Z " style="fill:none;stroke:#000000;stroke-width:1.0;"/>
  <path d=" M 293.4419860839844 729.2410278320312 L 349.28399658203125 729.2410278320312 L 349.28399658203125 729.7512817382812 L 293.4419860839844 729.7512817382812 Z " style="fill:none;stroke:#000000;stroke-width:1.0;"/>
  <path d=" M 521.405029296875 729.2410278320312 L 576.9640502929688 729.2410278320312 L 576.9640502929688 729.7512817382812 L 521.405029296875 729.7512817382812 Z " style="fill:none;stroke:#000000;stroke-width:1.0;"/>
  <path d=" M 71.88700103759766 716.3709716796875 L 127.33300018310547 716.3709716796875 L 127.33300018310547 716.8812255859375 L 71.88700103759766 716.8812255859375 Z " style="fill:none;stroke:#000000;stroke-width:1.0;"/>
  <path d=" M 184.36500549316406 716.3709716796875 L 114.74600219726562 716.3709716796875 L 114.74600219726562 716.8809814453125 L 184.36500549316406 716.8809814453125" style="fill:none;stroke:#000000;stroke-width:1.0;"/>
  <path d=" M 171.7790069580078 716.3709716796875 L 236.6920166015625 716.3709716796875 L 236.6920166015625 716.8812255859375 L 171.7790069580078 716.8812255859375 Z " style="fill:none;stroke:#000000;stroke-width:1.0;"/>
  <path d=" M 224.10699462890625 716.3709716796875 L 293.4419860839844 716.3709716796875 L 293.4419860839844 716.8812255859375 L 224.10699462890625 716.8812255859375 Z " style="fill:none;stroke:#000000;stroke-width:1.0;"/>
  <path d=" M 280.85699462890625 716.3709716796875 L 330.12298583984375 716.3709716796875 L 330.12298583984375 716.8812255859375 L 280.85699462890625 716.8812255859375 Z " style="fill:none;stroke:#000000;stroke-width:1.0;"/>
  <path d=" M 317.593994140625 716.3709716796875 L 361.8710021972656 716.3709716796875 L 361.8710021972656 716.8812255859375 L 317.593994140625 716.8812255859375 Z " style="fill:none;stroke:#000000;stroke-width:1.0;"/>
  <path d=" M 349.2850036621094 716.3709716796875 L 393.6190185546875 716.3709716796875 L 393.6190185546875 716.8812255859375 L 349.2850036621094 716.8812255859375 Z " style="fill:none;stroke:#000000;stroke-width:1.0;"/>
  <path d=" M 381.0329895019531 716.3709716796875 L 457.34197998046875 716.3709716796875 L 457.34197998046875 716.8812255859375 L 381.0329895019531 716.8812255859375 Z " style="fill:none;stroke:#000000;stroke-width:1.0;"/>
  <path d=" M 444.81298828125 716.3709716796875 L 489.3739929199219 716.3709716796875 L 489.3739929199219 716.8812255859375 L 444.81298828125 716.8812255859375 Z " style="fill:none;stroke:#000000;stroke-width:1.0;"/>
  <path d=" M 476.7869873046875 716.3709716796875 L 521.4039916992188 716.3709716796875 L 521.4039916992188 716.8812255859375 L 476.7869873046875 716.8812255859375 Z " style="fill:none;stroke:#000000;stroke-width:1.0;"/>
  <path d=" M 508.8190002441406 716.3709716796875 L 559.0490112304688 716.3709716796875 L 559.0490112304688 716.8812255859375 L 508.8190002441406 716.8812255859375 Z " style="fill:none;stroke:#000000;stroke-width:1.0;"/>
  <path d=" M 546.4630126953125 716.3709716796875 L 576.9639892578125 716.3709716796875 L 576.9639892578125 716.8812255859375 L 546.4630126953125 716.8812255859375 Z " style="fill:none;stroke:#000000;stroke-width:1.0;"/>
  <path d=" M 71.88700103759766 754.8660278320312 L 112.98899841308594 754.8660278320312 L 112.98899841308594 766.8280029296875 L 71.88700103759766 766.8280029296875 Z " style="fill:none;stroke:#000000;stroke-width:1.0;"/>
  <path d=" M 71.88700103759766 766.6580200195312 L 576.9639892578125 766.6580200195312 L 576.9639892578125 767.1682739257812 L 71.88700103759766 767.1682739257812 Z " style="fill:none;stroke:#000000;stroke-width:1.0;"/>
  <text x="74.891,80.614,86.504,92.641,94.96,100.93799999999999,103.52" y="42.186000000000035" svg_rhmargin="109.992" style="fill:#ffffff;font-family:BKMKKI+AdvOT91f5f621.B;font-size:7.97px;font-style:NORMAL;font-weight:normal;">Table 2</text>
  <text svg_rhmargin="219.313" x="71.887,79.108,83.666,86.4,90.959,94.195,98.754,103.401,107.885,109.877,113.942,118.174,120.167,124.399,127.047,131.861,134.427,137.025,141.584,145.816,150.048,154.862,159.421,161.413,165.972,168.706,170.699,175.513,180.159,184.391,186.969,191.783,196.342,199.076,205.548,210.107,214.666,219.313" y="54.20500000000004" style="fill:#171615;font-family:BKMKKF+AdvOT34fe1490.B;font-size:7.97px;font-style:NORMAL;font-weight:normal;">Meta-analysis of associations between </text>
  <text svg_rhmargin="262.713" x="221.897,227.787,232.346,237.742,240.978,246.868,252.59,258.313,262.712" y="54.20500000000004" style="fill:#171615;font-family:BKMMJE+AdvOT6601a1b9.BI;font-size:7.97px;font-style:NORMAL;font-weight:normal;">HLA-DRB1 </text>
  <text x="265.324,269.883,271.876,273.868,278.427,280.42,284.979,289.211,291.799,296.358,301.004,305.81800000000004,308.466,313.025,315.018,319.832,324.646,329.204,333.763,335.756,340.315,342.877,347.436,350.505,355.064,359.623,362.357,366.915" y="54.20500000000004" svg_rhmargin="369.067" style="fill:#171615;font-family:BKMKKF+AdvOT34fe1490.B;font-size:7.97px;font-style:NORMAL;font-weight:normal;">alleles and alopecia areata.</text>
  <text svg_rhmargin="276.94" x="71.887,76.287,78.192,80.097,83.747,85.652,89.302,92.78500000000001,127.332,131.891,135.709,137.614,140.257,144.075,146.39399999999998,149.044,152.527,154.847,158.832,162.817,164.722,168.372,171.85500000000002,184.364,188.763,193.162,195.815,199.465,203.283,206.766,210.416,212.992,216.978,219.544,224.103,240.602,244.834,248.652,252.637,254.956,257.523,261.341,263.246,265.829,269.814,272.381,276.94" y="67.245" style="fill:#171615;font-family:BKMMGB+AdvOT9d0303c0.B;font-size:7.97px;font-style:NORMAL;font-weight:normal;">Alleles No. of studies AA case n/N Control n/N </text>
  <text svg_rhmargin="343.011" x="299.737,304.137,307.787,310.106,313.757,316.323,320.141,324.126,327.776,331.654,335.304,337.209,339.528,343.011" y="78.24300000000005" style="fill:#171615;font-family:BKMMGB+AdvOT9d0303c0.B;font-size:7.97px;font-style:NORMAL;font-weight:normal;">Heterogeneity </text>
  <text x="361.873,367.763,371.58,375.565,379.216,381.121,398.325,402.725,407.124,409.777,412.096,415.914,419.732,425.869,428.485,432.717" y="78.24300000000005" svg_rhmargin="434.71" style="fill:#171615;font-family:BKMMGB+AdvOT9d0303c0.B;font-size:7.97px;font-style:NORMAL;font-weight:normal;">Model OR (95% CI</text>
  <text x="434.721" y="80.22699999999998" svg_rhmargin="437.769" style="fill:#171615;font-family:BKMMGB+AdvOT9d0303c0.B;font-size:5.31px;font-style:NORMAL;font-weight:normal;">S</text>
  <text svg_rhmargin="440.045" x="437.726,440.045" y="78.24300000000005" style="fill:#171615;font-family:BKMMGB+AdvOT9d0303c0.B;font-size:7.97px;font-style:NORMAL;font-weight:normal;">) </text>
  <text svg_rhmargin="469.117" x="465.052,469.117" y="78.24300000000005" style="fill:#171615;font-family:BKMMJF+AdvOT1ae6bdaa.BI;font-size:7.97px;font-style:NORMAL;font-weight:normal;">P </text>
  <text svg_rhmargin="501.014" x="497.196,501.014" y="67.245" style="fill:#171615;font-family:BKMMGB+AdvOT9d0303c0.B;font-size:7.97px;font-style:NORMAL;font-weight:normal;">Z </text>
  <text x="521.404,525.804,529.622,532.188,536.173,539.991,542.557,546.542,559.048,562.865,566.85,570.836,574.486" y="67.245" svg_rhmargin="577.052" style="fill:#171615;font-family:BKMMGB+AdvOT9d0303c0.B;font-size:7.97px;font-style:NORMAL;font-weight:normal;">Harbord Egger</text>
  <text x="303.476,307.541,330.575" y="79.207" svg_rhmargin="332.568" style="fill:#171615;font-family:BKMMJF+AdvOT1ae6bdaa.BI;font-size:7.97px;font-style:NORMAL;font-weight:normal;">P I</text>
  <text svg_rhmargin="335.424" x="332.561,335.424" y="79.20600000000002" style="fill:#171615;font-family:BKMMJF+AdvOT1ae6bdaa.BI;font-size:5.31px;font-style:NORMAL;font-weight:normal;">2 </text>
  <text svg_rhmargin="348.892" x="338.116,340.436,346.573,348.892" y="79.20600000000002" style="fill:#171615;font-family:BKMMGB+AdvOT9d0303c0.B;font-size:7.97px;font-style:NORMAL;font-weight:normal;">(%) </text>
  <text x="531.894,535.9590000000001,565.966" y="79.20600000000002" svg_rhmargin="570.031" style="fill:#171615;font-family:BKMMJF+AdvOT1ae6bdaa.BI;font-size:7.97px;font-style:NORMAL;font-weight:normal;">P P</text>
  <text x="71.885,76.118,80.103,84.088" y="93.54999999999995" svg_rhmargin="87.906" style="fill:#171615;font-family:BKMNFC+AdvOT0c671030.I;font-size:7.97px;font-style:NORMAL;font-weight:normal;">DRB1</text>
  <text x="87.873" y="91.56500000000005" svg_rhmargin="92.018" style="fill:#171615;font-family:BKMKKH+AdvOTb0c9bf5d+22;font-size:7.97px;font-style:NORMAL;font-weight:normal;">∗</text>
  <text svg_rhmargin="99.648" x="92.012,95.83,99.648" y="93.54999999999995" style="fill:#171615;font-family:BKMNFC+AdvOT0c671030.I;font-size:7.97px;font-style:NORMAL;font-weight:normal;">01 </text>
  <text x="147.684,151.502,193.663,197.481,201.298,203.45,207.268,211.086,214.90400000000002,240.547,244.365,248.182,252.0,255.818,257.97,261.787,265.605,269.423,273.241,277.05899999999997,300.016,303.834,305.739,309.557,313.374,317.192,337.83,341.64799999999997,369.805,373.121,393.616,397.434,399.339,403.156,406.974,409.603,411.34,415.158,417.063,420.88,424.698,426.60299999999995,429.217,433.035,434.94,438.758,442.575,444.312,463.46,465.365,469.182,473.0,476.818,495.491,499.309,501.214,505.031,508.849,528.599,530.504,534.322,538.14,541.958,562.728,564.633,568.45,572.268" y="93.54999999999995" svg_rhmargin="576.086" style="fill:#171615;font-family:BKMMGC+AdvOTcb6dfb9e;font-size:7.97px;font-style:NORMAL;font-weight:normal;">8 96/683 1992/31844 0.727 0 F 1.05 (0.80, 1.38) .665 0.43 .917 .643</text>
  <text x="71.886,76.118,80.103,84.088" y="103.52800000000002" svg_rhmargin="87.906" style="fill:#171615;font-family:BKMNFC+AdvOT0c671030.I;font-size:7.97px;font-style:NORMAL;font-weight:normal;">DRB1</text>
  <text x="87.873" y="101.543" svg_rhmargin="92.018" style="fill:#171615;font-family:BKMKKH+AdvOTb0c9bf5d+22;font-size:7.97px;font-style:NORMAL;font-weight:normal;">∗</text>
  <text svg_rhmargin="99.648" x="92.012,95.83,99.648" y="103.52800000000002" style="fill:#171615;font-family:BKMNFC+AdvOT0c671030.I;font-size:7.97px;font-style:NORMAL;font-weight:normal;">03 </text>
  <text svg_rhmargin="277.059" x="147.684,151.502,193.663,197.481,201.298,203.45,207.268,211.086,214.90400000000002,240.547,244.365,248.182,252.0,255.818,257.97,261.787,265.605,269.423,273.241,277.05899999999997" y="103.52800000000002" style="fill:#171615;font-family:BKMMGC+AdvOTcb6dfb9e;font-size:7.97px;font-style:NORMAL;font-weight:normal;">9 95/841 2344/32018 </text>
  <text x="293.896" y="103.52800000000002" svg_rhmargin="300.033" style="fill:#171615;font-family:BKMKKM+AdvP4C4E51;font-size:7.97px;font-style:NORMAL;font-weight:normal;">&lt;</text>
  <text x="300.019,303.837,305.742,309.559,313.377,333.071,336.888,340.706,342.611,346.429,369.467,373.452,393.619,397.436,399.341,403.159,406.977,409.605,411.343,415.16,417.065,420.883,424.701,426.606,429.22,433.038,434.942,438.76,442.578,444.315,463.462,465.367,469.185,473.003,476.82099999999997,495.494,499.311,501.216,505.034,508.852,528.602,530.507,534.324,538.142,541.96,562.73,564.635,568.453,572.271" y="103.52800000000002" svg_rhmargin="576.089" style="fill:#171615;font-family:BKMMGC+AdvOTcb6dfb9e;font-size:7.97px;font-style:NORMAL;font-weight:normal;">0.01 79.0 R 0.78 (0.43, 1.40) .406 0.83 .375 .558</text>
  <text x="71.886,77.608,83.163,88.719" y="113.505" svg_rhmargin="93.119" style="fill:#171615;font-family:BKMLIE+AdvOT01861455.I;font-size:7.97px;font-style:NORMAL;font-weight:normal;">DRB1</text>
  <text x="93.089" y="111.52099999999996" svg_rhmargin="97.234" style="fill:#171615;font-family:BKMKKH+AdvOTb0c9bf5d+22;font-size:7.97px;font-style:NORMAL;font-weight:normal;">∗</text>
  <text svg_rhmargin="114.826" x="97.228,101.627,106.027,110.426,114.825" y="113.505" style="fill:#171615;font-family:BKMLIE+AdvOT01861455.I;font-size:7.97px;font-style:NORMAL;font-weight:normal;">0301 </text>
  <text svg_rhmargin="444.852" x="147.685,151.50300000000001,193.549,197.367,201.184,203.504,207.322,211.139,214.95700000000002,248.087,251.904,255.722,258.041,261.859,265.677,269.495,300.016,303.834,305.739,309.557,313.375,317.193,333.068,336.886,340.704,342.608,346.426,369.635,373.28499999999997,393.616,397.434,399.339,403.156,406.974,409.603,411.595,415.413,417.318,421.136,424.953,426.85799999999995,429.501,433.319,435.224,439.041,442.859,444.852" y="113.505" style="fill:#171615;font-family:BKMNGC+AdvOT3b0932b6;font-size:7.97px;font-style:NORMAL;font-weight:normal;">2 49/452 73/317 0.211 36.2 F 0.42 (0.28, 0.63) </text>
  <text x="457.342" y="113.505" svg_rhmargin="463.479" style="fill:#171615;font-family:BKMKKM+AdvP4C4E51;font-size:7.97px;font-style:NORMAL;font-weight:normal;">&lt;</text>
  <text x="463.465,465.37,469.187,473.005,495.496,499.314,501.219,505.036,508.854,525.883,528.6170000000001,559.956" y="113.505" svg_rhmargin="562.69" style="fill:#171615;font-family:BKMNGC+AdvOT3b0932b6;font-size:7.97px;font-style:NORMAL;font-weight:normal;">.01 4.25 - -</text>
  <text x="71.885,77.608,83.163,88.719" y="123.48299999999995" svg_rhmargin="93.119" style="fill:#171615;font-family:BKMLIE+AdvOT01861455.I;font-size:7.97px;font-style:NORMAL;font-weight:normal;">DRB1</text>
  <text x="93.089" y="121.44200000000001" svg_rhmargin="97.234" style="fill:#171615;font-family:BKMKKH+AdvOTb0c9bf5d+22;font-size:7.97px;font-style:NORMAL;font-weight:normal;">∗</text>
  <text svg_rhmargin="106.027" x="97.228,101.627,106.026" y="123.48299999999995" style="fill:#171615;font-family:BKMLIE+AdvOT01861455.I;font-size:7.97px;font-style:NORMAL;font-weight:normal;">04 </text>
  <text svg_rhmargin="444.851" x="147.684,151.502,191.678,195.496,199.314,203.132,205.451,209.269,213.086,216.90400000000002,240.49,244.308,248.126,251.943,255.761,258.08,261.898,265.716,269.534,273.351,277.169,300.016,303.834,305.739,309.557,313.374,317.192,333.068,336.886,340.703,342.608,346.426,369.351,373.583,393.615,397.433,399.338,403.156,406.974,409.602,411.594,415.412,417.317,421.135,424.952,426.85699999999997,429.5,433.318,435.223,439.04,442.858,444.851" y="123.48299999999995" style="fill:#171615;font-family:BKMNGC+AdvOT3b0932b6;font-size:7.97px;font-style:NORMAL;font-weight:normal;">9 266/841 7100/32016 0.081 43.0 R 1.49 (1.24, 1.78) </text>
  <text x="457.342" y="123.48299999999995" svg_rhmargin="463.479" style="fill:#171615;font-family:BKMKKM+AdvP4C4E51;font-size:7.97px;font-style:NORMAL;font-weight:normal;">&lt;</text>
  <text svg_rhmargin="508.854" x="463.465,465.37,469.187,473.005,495.496,499.314,501.219,505.036,508.854" y="123.48299999999995" style="fill:#171615;font-family:BKMNGC+AdvOT3b0932b6;font-size:7.97px;font-style:NORMAL;font-weight:normal;">.01 2.87 </text>
  <text x="528.605,530.51,534.328,538.146,541.9639999999999,562.734,564.638,568.456,572.274" y="123.48299999999995" svg_rhmargin="576.092" style="fill:#171615;font-family:BKMMGC+AdvOTcb6dfb9e;font-size:7.97px;font-style:NORMAL;font-weight:normal;">.281 .201</text>
  <text x="71.886,76.118,80.103,84.088" y="133.40499999999997" svg_rhmargin="87.906" style="fill:#171615;font-family:BKMNFC+AdvOT0c671030.I;font-size:7.97px;font-style:NORMAL;font-weight:normal;">DRB1</text>
  <text x="87.873" y="131.42100000000005" svg_rhmargin="92.018" style="fill:#171615;font-family:BKMKKH+AdvOTb0c9bf5d+22;font-size:7.97px;font-style:NORMAL;font-weight:normal;">∗</text>
  <text svg_rhmargin="99.648" x="92.012,95.83,99.648" y="133.40499999999997" style="fill:#171615;font-family:BKMNFC+AdvOT0c671030.I;font-size:7.97px;font-style:NORMAL;font-weight:normal;">07 </text>
  <text x="147.685,151.50300000000001,191.735,195.553,199.37,203.188,205.34,209.158,212.976,216.794,240.547,244.365,248.182,252.0,255.818,257.97,261.787,265.605,269.423,273.241,277.05899999999997,300.016,303.834,305.739,309.557,313.375,317.193,333.068,336.886,340.704,342.608,346.426,369.465,373.45,393.616,397.434,399.339,403.156,406.974,409.603,411.34,415.158,417.063,420.881,424.698,426.60299999999995,429.217,433.035,434.94,438.758,442.575,444.312,463.46,465.365,469.182,473.0,476.818,495.491,499.309,501.214,505.031,508.849,528.599,530.504,534.322,538.14,541.958,562.728,564.633,568.45,572.268" y="133.40499999999997" svg_rhmargin="576.086" style="fill:#171615;font-family:BKMMGC+AdvOTcb6dfb9e;font-size:7.97px;font-style:NORMAL;font-weight:normal;">8 122/683 7331/31844 0.010 62.0 R 0.91 (0.72, 1.14) .714 0.37 .978 .405</text>
  <text x="71.886,76.118,80.103,84.088" y="143.38300000000004" svg_rhmargin="87.906" style="fill:#171615;font-family:BKMNFC+AdvOT0c671030.I;font-size:7.97px;font-style:NORMAL;font-weight:normal;">DRB1</text>
  <text x="87.873" y="141.39800000000002" svg_rhmargin="92.018" style="fill:#171615;font-family:BKMKKH+AdvOTb0c9bf5d+22;font-size:7.97px;font-style:NORMAL;font-weight:normal;">∗</text>
  <text svg_rhmargin="99.648" x="92.012,95.83,99.648" y="143.38300000000004" style="fill:#171615;font-family:BKMNFC+AdvOT0c671030.I;font-size:7.97px;font-style:NORMAL;font-weight:normal;">08 </text>
  <text x="147.685,151.50300000000001,193.663,197.481,201.298,203.45,207.268,211.086,214.90400000000002,240.547,244.365,248.182,252.0,255.818,257.97,261.787,265.605,269.423,273.241,277.05899999999997,300.016,303.834,305.739,309.557,313.375,317.193,333.068,336.886,340.704,342.608,346.426,369.465,373.45,393.616,397.434,399.339,403.156,406.974,409.603,411.34,415.158,417.063,420.881,424.698,426.60299999999995,429.217,433.035,434.94,438.758,442.575,444.312,463.46,465.365,469.182,473.0,476.818,495.491,499.309,501.214,505.031,508.849,528.599,530.504,534.322,538.14,541.958,562.728,564.633,568.45,572.268" y="143.38300000000004" svg_rhmargin="576.086" style="fill:#171615;font-family:BKMMGC+AdvOTcb6dfb9e;font-size:7.97px;font-style:NORMAL;font-weight:normal;">7 37/522 3573/31679 0.046 53.2 R 1.02 (0.56, 1.87) .943 0.07 .080 .358</text>
  <text x="71.886,77.608,83.163,88.719" y="153.36" svg_rhmargin="93.119" style="fill:#171615;font-family:BKMLIE+AdvOT01861455.I;font-size:7.97px;font-style:NORMAL;font-weight:normal;">DRB1</text>
  <text x="93.089" y="151.37599999999998" svg_rhmargin="97.234" style="fill:#171615;font-family:BKMKKH+AdvOTb0c9bf5d+22;font-size:7.97px;font-style:NORMAL;font-weight:normal;">∗</text>
  <text svg_rhmargin="106.027" x="97.228,101.627,106.026" y="153.36" style="fill:#171615;font-family:BKMLIE+AdvOT01861455.I;font-size:7.97px;font-style:NORMAL;font-weight:normal;">09 </text>
  <text svg_rhmargin="508.85" x="147.685,151.50300000000001,193.549,197.367,201.184,203.504,207.322,211.139,214.95700000000002,236.692,240.509,244.327,248.145,251.963,254.282,258.1,261.806,265.624,269.441,273.259,277.077,280.895,300.016,303.834,305.739,309.557,313.375,317.193,337.83,341.64799999999997,369.635,373.28499999999997,393.617,397.435,399.339,403.157,406.97499999999997,409.603,411.596,415.414,417.319,421.136,424.954,426.859,429.502,433.32,435.224,439.042,442.86,444.853,463.46,465.365,469.183,473.001,476.81899999999996,495.492,499.31,501.214,505.032,508.84999999999997" y="153.36" style="fill:#171615;font-family:BKMNGC+AdvOT3b0932b6;font-size:7.97px;font-style:NORMAL;font-weight:normal;">7 57/529 8312/3126452 0.441 0 F 0.74 (0.55, 0.99) .044 2.02 </text>
  <text x="528.606,530.511,534.329,538.146,541.9639999999999,562.734,564.639,568.457,572.275" y="153.36" svg_rhmargin="576.093" style="fill:#171615;font-family:BKMMGC+AdvOTcb6dfb9e;font-size:7.97px;font-style:NORMAL;font-weight:normal;">.675 .688</text>
  <text x="71.886,76.119,80.104,84.089" y="163.33799999999997" svg_rhmargin="87.907" style="fill:#171615;font-family:BKMNFC+AdvOT0c671030.I;font-size:7.97px;font-style:NORMAL;font-weight:normal;">DRB1</text>
  <text x="87.874" y="161.29700000000003" svg_rhmargin="92.019" style="fill:#171615;font-family:BKMKKH+AdvOTb0c9bf5d+22;font-size:7.97px;font-style:NORMAL;font-weight:normal;">∗</text>
  <text svg_rhmargin="99.648" x="92.013,95.83,99.648" y="163.33799999999997" style="fill:#171615;font-family:BKMNFC+AdvOT0c671030.I;font-size:7.97px;font-style:NORMAL;font-weight:normal;">10 </text>
  <text x="147.685,151.50300000000001,193.664,197.482,201.299,203.451,207.269,211.087,214.905,242.476,246.293,250.111,253.929,256.081,259.899,263.716,267.534,271.352,275.16999999999996,300.017,303.835,305.74,309.558,313.375,317.193,337.831,341.649,369.806,373.12199999999996,393.617,397.435,399.34,403.157,406.97499999999997,409.604,411.341,415.159,417.064,420.881,424.699,426.604,429.218,433.036,434.941,438.759,442.576,444.31300000000005,463.461,465.365,469.183,473.001,476.81899999999996,495.492,499.31,501.215,505.032,508.84999999999997,528.6,530.505,534.323,538.141,541.959,562.729,564.634,568.451,572.269" y="163.33799999999997" svg_rhmargin="576.087" style="fill:#171615;font-family:BKMMGC+AdvOTcb6dfb9e;font-size:7.97px;font-style:NORMAL;font-weight:normal;">6 10/517 764/25619 0.937 0 F 0.55 (0.27, 1.11) .107 1.61 .854 .956</text>
  <text x="71.886,76.119,80.104,84.089" y="173.26" svg_rhmargin="87.907" style="fill:#171615;font-family:BKMNFC+AdvOT0c671030.I;font-size:7.97px;font-style:NORMAL;font-weight:normal;">DRB1</text>
  <text x="87.874" y="171.27599999999995" svg_rhmargin="92.019" style="fill:#171615;font-family:BKMKKH+AdvOTb0c9bf5d+22;font-size:7.97px;font-style:NORMAL;font-weight:normal;">∗</text>
  <text svg_rhmargin="99.648" x="92.013,95.83,99.648" y="173.26" style="fill:#171615;font-family:BKMNFC+AdvOT0c671030.I;font-size:7.97px;font-style:NORMAL;font-weight:normal;">11 </text>
  <text svg_rhmargin="277.059" x="145.757,149.575,153.393,191.735,195.553,199.371,203.188,205.34,209.158,212.976,216.794,240.547,244.365,248.182,252.0,255.818,257.97,261.787,265.605,269.423,273.241,277.05899999999997" y="173.26" style="fill:#171615;font-family:BKMMGC+AdvOTcb6dfb9e;font-size:7.97px;font-style:NORMAL;font-weight:normal;">11 260/992 4470/32191 </text>
  <text x="293.896" y="173.26" svg_rhmargin="300.033" style="fill:#171615;font-family:BKMKKM+AdvP4C4E51;font-size:7.97px;font-style:NORMAL;font-weight:normal;">&lt;</text>
  <text x="300.019,303.837,305.742,309.559,313.377,333.071,336.888,340.706,342.611,346.429,369.467,373.452,393.619,397.436,399.341,403.159,406.977,409.605,411.343,415.16,417.065,420.883,424.701,426.606,429.22,433.038,434.943,438.76,442.578,444.315,463.462,465.367,469.185,473.003,476.82099999999997,495.494,499.311,501.216,505.034,508.852,528.602,530.507,534.325,538.142,541.96,562.73,564.635,568.453,572.271" y="173.26" svg_rhmargin="576.089" style="fill:#171615;font-family:BKMMGC+AdvOTcb6dfb9e;font-size:7.97px;font-style:NORMAL;font-weight:normal;">0.01 66.4 R 1.19 (0.85, 1.67) .304 1.03 .800 .485</text>
  <text x="71.886,76.118,80.103,84.088" y="183.23699999999997" svg_rhmargin="87.906" style="fill:#171615;font-family:BKMNFC+AdvOT0c671030.I;font-size:7.97px;font-style:NORMAL;font-weight:normal;">DRB1</text>
  <text x="87.873" y="181.25300000000004" svg_rhmargin="92.018" style="fill:#171615;font-family:BKMKKH+AdvOTb0c9bf5d+22;font-size:7.97px;font-style:NORMAL;font-weight:normal;">∗</text>
  <text svg_rhmargin="99.648" x="92.012,95.83,99.648" y="183.23699999999997" style="fill:#171615;font-family:BKMNFC+AdvOT0c671030.I;font-size:7.97px;font-style:NORMAL;font-weight:normal;">12 </text>
  <text x="147.685,151.50300000000001,193.663,197.481,201.299,203.45,207.268,211.086,214.90400000000002,240.547,244.365,248.182,252.0,255.818,257.97,261.788,265.605,269.423,273.241,277.05899999999997,300.017,303.834,305.739,309.557,313.375,317.193,333.068,336.886,340.704,342.608,346.426,369.805,373.121,393.616,397.434,399.339,403.156,406.974,409.603,411.34,415.158,417.063,420.881,424.698,426.603,430.421,432.326,436.143,439.961,441.69800000000004,463.46,465.365,469.182,473.0,476.818,495.491,499.309,501.214,505.031,508.849,528.599,530.504,534.322,538.14,541.958,562.728,564.633,568.451,572.268" y="183.23699999999997" svg_rhmargin="576.086" style="fill:#171615;font-family:BKMMGC+AdvOTcb6dfb9e;font-size:7.97px;font-style:NORMAL;font-weight:normal;">6 57/468 6459/31099 0.165 36.3 F 0.80 (0.59,1.08) .427 0.79 .655 .988</text>
  <text x="71.886,77.608,83.163,88.719" y="193.21500000000003" svg_rhmargin="93.119" style="fill:#171615;font-family:BKMLIE+AdvOT01861455.I;font-size:7.97px;font-style:NORMAL;font-weight:normal;">DRB1</text>
  <text x="93.089" y="191.231" svg_rhmargin="97.234" style="fill:#171615;font-family:BKMKKH+AdvOTb0c9bf5d+22;font-size:7.97px;font-style:NORMAL;font-weight:normal;">∗</text>
  <text svg_rhmargin="106.027" x="97.228,101.627,106.026" y="193.21500000000003" style="fill:#171615;font-family:BKMLIE+AdvOT01861455.I;font-size:7.97px;font-style:NORMAL;font-weight:normal;">13 </text>
  <text svg_rhmargin="508.849" x="147.685,151.50300000000001,193.549,197.367,201.185,203.504,207.322,211.139,214.95700000000002,240.49,244.308,248.126,251.944,255.761,258.081,261.898,265.716,269.534,273.351,277.169,300.017,303.834,305.739,309.557,313.375,317.193,333.068,336.886,340.704,342.608,346.426,369.351,373.583,393.615,397.433,399.338,403.156,406.974,409.602,411.594,415.412,417.317,421.135,424.953,426.85799999999995,429.5,433.318,435.223,439.041,442.858,444.851,463.459,465.364,469.182,472.999,476.817,495.49,499.308,501.213,505.031,508.849" y="193.21500000000003" style="fill:#171615;font-family:BKMNGC+AdvOT3b0932b6;font-size:7.97px;font-style:NORMAL;font-weight:normal;">7 59/522 3485/31679 0.043 53.9 R 0.62 (0.40, 0.98) .042 2.03 </text>
  <text x="528.606,530.511,534.329,538.146,541.9639999999999,562.734,564.639,568.457,572.275" y="193.21500000000003" svg_rhmargin="576.093" style="fill:#171615;font-family:BKMMGC+AdvOTcb6dfb9e;font-size:7.97px;font-style:NORMAL;font-weight:normal;">.221 .900</text>
  <text x="71.886,76.119,80.104,84.089" y="203.13699999999994" svg_rhmargin="87.907" style="fill:#171615;font-family:BKMNFC+AdvOT0c671030.I;font-size:7.97px;font-style:NORMAL;font-weight:normal;">DRB1</text>
  <text x="87.874" y="201.15200000000004" svg_rhmargin="92.019" style="fill:#171615;font-family:BKMKKH+AdvOTb0c9bf5d+22;font-size:7.97px;font-style:NORMAL;font-weight:normal;">∗</text>
  <text svg_rhmargin="99.648" x="92.013,95.83,99.648" y="203.13699999999994" style="fill:#171615;font-family:BKMNFC+AdvOT0c671030.I;font-size:7.97px;font-style:NORMAL;font-weight:normal;">14 </text>
  <text x="147.685,151.50300000000001,193.664,197.482,201.299,203.451,207.269,211.087,214.905,240.548,244.365,248.183,252.001,255.819,257.971,261.788,265.606,269.424,273.241,277.05899999999997,300.017,303.835,305.74,309.558,313.375,317.193,337.831,341.649,369.806,373.12199999999996,393.617,397.435,399.34,403.157,406.97499999999997,409.604,411.341,415.159,417.064,420.881,424.699,426.604,429.218,433.036,434.941,438.759,442.576,444.31300000000005,463.461,465.365,469.183,473.001,476.81899999999996,495.492,499.31,501.215,505.032,508.84999999999997,528.6,530.505,534.323,538.141,541.959,562.729,564.634,568.451,572.269" y="203.13699999999994" svg_rhmargin="576.087" style="fill:#171615;font-family:BKMMGC+AdvOTcb6dfb9e;font-size:7.97px;font-style:NORMAL;font-weight:normal;">6 48/468 3842/31099 0.822 0 F 0.87 (0.63, 1.21) .472 0.72 .109 .063</text>
  <text x="71.886,76.119,80.104,84.089" y="213.115" svg_rhmargin="87.907" style="fill:#171615;font-family:BKMNFC+AdvOT0c671030.I;font-size:7.97px;font-style:NORMAL;font-weight:normal;">DRB1</text>
  <text x="87.874" y="211.13" svg_rhmargin="92.019" style="fill:#171615;font-family:BKMKKH+AdvOTb0c9bf5d+22;font-size:7.97px;font-style:NORMAL;font-weight:normal;">∗</text>
  <text svg_rhmargin="99.648" x="92.013,95.83,99.648" y="213.115" style="fill:#171615;font-family:BKMNFC+AdvOT0c671030.I;font-size:7.97px;font-style:NORMAL;font-weight:normal;">15 </text>
  <text svg_rhmargin="476.818" x="147.685,151.50300000000001,191.736,195.554,199.371,203.189,205.341,209.159,212.976,216.794,238.676,242.494,246.312,250.13,253.947,257.765,259.917,263.735,267.552,271.37,275.071,278.889,300.017,303.834,305.739,309.557,313.375,317.193,333.068,336.886,340.704,342.608,346.426,369.465,373.45,393.616,397.434,399.339,403.156,406.974,409.603,411.34,415.158,417.063,420.881,424.698,426.60299999999995,429.217,433.035,434.94,438.758,442.575,444.312,463.46,465.365,469.182,473.0,476.818" y="213.115" style="fill:#171615;font-family:BKMMGC+AdvOTcb6dfb9e;font-size:7.97px;font-style:NORMAL;font-weight:normal;">7 136/533 10690/31603 0.029 57.2 R 1.00 (0.69, 1.45) .999 </text>
  <text x="489.375" y="213.115" svg_rhmargin="495.512" style="fill:#171615;font-family:BKMKKM+AdvP4C4E51;font-size:7.97px;font-style:NORMAL;font-weight:normal;">&lt;</text>
  <text x="495.498,499.315,501.22,505.038,508.856,528.606,530.511,534.329,538.146,541.9639999999999,562.734,564.639,568.457,572.275" y="213.115" svg_rhmargin="576.093" style="fill:#171615;font-family:BKMMGC+AdvOTcb6dfb9e;font-size:7.97px;font-style:NORMAL;font-weight:normal;">0.01 .290 .169</text>
  <text x="71.887,76.119,80.104,84.09" y="223.09299999999996" svg_rhmargin="87.908" style="fill:#171615;font-family:BKMNFC+AdvOT0c671030.I;font-size:7.97px;font-style:NORMAL;font-weight:normal;">DRB1</text>
  <text x="87.875" y="221.10799999999995" svg_rhmargin="92.02" style="fill:#171615;font-family:BKMKKH+AdvOTb0c9bf5d+22;font-size:7.97px;font-style:NORMAL;font-weight:normal;">∗</text>
  <text svg_rhmargin="99.649" x="92.014,95.831,99.649" y="223.09299999999996" style="fill:#171615;font-family:BKMNFC+AdvOT0c671030.I;font-size:7.97px;font-style:NORMAL;font-weight:normal;">16 </text>
  <text svg_rhmargin="277.06" x="147.686,151.50400000000002,193.665,197.482,201.3,203.452,207.27,211.088,214.906,240.549,244.366,248.184,252.002,255.819,257.971,261.789,265.607,269.425,273.242,277.06" y="223.09299999999996" style="fill:#171615;font-family:BKMMGC+AdvOTcb6dfb9e;font-size:7.97px;font-style:NORMAL;font-weight:normal;">5 57/444 1660/32538 </text>
  <text x="293.898" y="223.09299999999996" svg_rhmargin="300.035" style="fill:#171615;font-family:BKMKKM+AdvP4C4E51;font-size:7.97px;font-style:NORMAL;font-weight:normal;">&lt;</text>
  <text x="300.021,303.838,305.743,309.561,313.37899999999996,333.072,336.89,340.708,342.613,346.431,369.469,373.454,393.62,397.438,399.343,403.161,406.979,409.607,411.344,415.162,417.067,420.885,424.702,426.60699999999997,429.222,433.039,434.944,438.762,442.58,444.317,463.464,465.369,469.186,473.004,476.822,495.495,499.313,501.218,505.036,508.854,528.604,530.508,534.326,538.144,541.962,562.732,564.637,568.455,572.272" y="223.09299999999996" svg_rhmargin="576.09" style="fill:#171615;font-family:BKMMGC+AdvOTcb6dfb9e;font-size:7.97px;font-style:NORMAL;font-weight:normal;">0.01 92.4 R 2.60 (0.74, 9.14) .135 1.49 .222 .408</text>
  <text x="71.887,77.61,83.165,88.72" y="233.07000000000005" svg_rhmargin="93.12" style="fill:#171615;font-family:BKMLIE+AdvOT01861455.I;font-size:7.97px;font-style:NORMAL;font-weight:normal;">DRB1</text>
  <text x="93.09" y="231.029" svg_rhmargin="97.235" style="fill:#171615;font-family:BKMKKH+AdvOTb0c9bf5d+22;font-size:7.97px;font-style:NORMAL;font-weight:normal;">∗</text>
  <text x="97.229,101.629" y="233.07000000000005" svg_rhmargin="106.029" style="fill:#171615;font-family:BKMLIE+AdvOT01861455.I;font-size:7.97px;font-style:NORMAL;font-weight:normal;">16</text>
  <text svg_rhmargin="108.879" x="106.016,108.879" y="233.07100000000003" style="fill:#171615;font-family:BKMNFC+AdvOT0c671030.I;font-size:5.31px;font-style:NORMAL;font-weight:normal;"># </text>
  <text svg_rhmargin="508.851" x="147.685,151.50300000000001,193.549,197.367,201.185,203.504,207.322,211.14,214.958,240.491,244.308,248.126,251.944,255.762,258.081,261.899,265.716,269.534,273.352,277.16999999999996,300.017,303.835,305.74,309.557,313.375,317.193,337.831,341.649,369.636,373.286,393.617,397.435,399.34,403.158,406.976,409.604,411.596,415.414,417.319,421.137,424.955,426.85999999999996,429.502,433.32,435.225,439.043,442.86,444.853,463.461,465.366,469.184,473.001,476.81899999999996,495.492,499.31,501.215,505.033,508.851" y="233.07100000000003" style="fill:#171615;font-family:BKMNGC+AdvOT3b0932b6;font-size:7.97px;font-style:NORMAL;font-weight:normal;">4 40/332 1606/26893 0.600 0 F 1.61 (1.08, 2.41) .021 2.31 </text>
  <text x="528.606,530.511,534.329,538.147,541.965,562.735,564.64,568.458,572.275" y="233.07100000000003" svg_rhmargin="576.093" style="fill:#171615;font-family:BKMMGC+AdvOTcb6dfb9e;font-size:7.97px;font-style:NORMAL;font-weight:normal;">.704 .732</text>
  <text x="71.887,76.119,80.104,84.089" y="242.99199999999996" svg_rhmargin="87.907" style="fill:#171615;font-family:BKMNFC+AdvOT0c671030.I;font-size:7.97px;font-style:NORMAL;font-weight:normal;">DRB1</text>
  <text x="87.874" y="241.00800000000004" svg_rhmargin="92.019" style="fill:#171615;font-family:BKMKKH+AdvOTb0c9bf5d+22;font-size:7.97px;font-style:NORMAL;font-weight:normal;">∗</text>
  <text svg_rhmargin="109.436" x="92.013,95.831,99.649,101.801,105.618,109.43599999999999" y="242.99199999999996" style="fill:#171615;font-family:BKMNFC+AdvOT0c671030.I;font-size:7.97px;font-style:NORMAL;font-weight:normal;">15/16 </text>
  <text svg_rhmargin="508.852" x="147.686,151.50400000000002,193.664,197.482,201.3,203.452,207.269,211.087,214.905,246.275,250.092,253.91,257.728,259.88,263.698,267.515,271.33299999999997,300.019,303.836,305.741,309.559,313.377,317.195,333.07,336.888,340.706,342.611,346.429,369.807,373.123,393.618,397.436,399.341,403.159,406.977,409.605,411.342,415.16,417.065,420.883,424.7,426.60499999999996,429.219,433.037,434.942,438.76,442.577,444.314,463.462,465.367,469.184,473.002,476.82,495.493,499.311,501.216,505.034,508.852" y="242.99199999999996" style="fill:#171615;font-family:BKMMGC+AdvOTcb6dfb9e;font-size:7.97px;font-style:NORMAL;font-weight:normal;">2 85/213 109/317 0.071 69.3 F 1.32 (0.91, 1.91) .141 1.47 </text>
  <text x="525.885,528.619,559.958" y="242.99199999999996" svg_rhmargin="562.692" style="fill:#171615;font-family:BKMNGC+AdvOT3b0932b6;font-size:7.97px;font-style:NORMAL;font-weight:normal;">- -</text>
  <text svg_rhmargin="144.262" x="71.887,75.373,78.86,81.184,82.418,85.466,88.514,89.748,92.579,95.48,97.227,100.128,102.813,105.106,108.007,109.242,112.143,115.19,118.092,120.923,122.157,125.05799999999999,127.441,130.342,132.225,135.126,138.028,139.694,142.595,144.262" y="258.696" style="fill:#171615;font-family:BKMMGC+AdvOTcb6dfb9e;font-size:6.97px;font-style:NORMAL;font-weight:normal;">AA indicates alopecia areata; </text>
  <text x="146.665" y="258.696" svg_rhmargin="149.713" style="fill:#171615;font-family:BKMNFC+AdvOT0c671030.I;font-size:6.97px;font-style:NORMAL;font-weight:normal;">n</text>
  <text svg_rhmargin="229.605" x="149.726,151.393,153.695,155.362,158.409,161.31,163.672,166.72,169.767,174.489,177.536,180.508,182.39100000000002,184.704,187.605,189.272,191.62,194.667,197.568,200.253,201.488,203.154,204.389,206.927,209.828,212.198,215.099,217.638,220.539,223.586,225.253,227.938,229.605" y="258.696" style="fill:#171615;font-family:BKMMGC+AdvOTcb6dfb9e;font-size:6.97px;font-style:NORMAL;font-weight:normal;">, the number of positive events; </text>
  <text x="231.988" y="258.696" svg_rhmargin="235.691" style="fill:#171615;font-family:BKMNFC+AdvOT0c671030.I;font-size:6.97px;font-style:NORMAL;font-weight:normal;">N</text>
  <text x="235.673,237.34,239.698,241.365,244.412,247.31300000000002,249.675,252.723,255.77,260.492,263.539,266.44,268.323,270.65,273.551,275.21799999999996,277.566,279.233,282.134,283.801,286.702,287.936,290.321,293.222,295.761,298.662,301.71,303.376,306.061" y="258.696" svg_rhmargin="307.728" style="fill:#171615;font-family:BKMMGC+AdvOTcb6dfb9e;font-size:6.97px;font-style:NORMAL;font-weight:normal;">, the number of total events.</text>
  <text x="71.887,75.373,78.275,79.509,82.557,84.925,87.464,90.365,91.599,94.647,97.548,100.233,102.556,103.79,106.838,109.885,111.12,113.951,116.852,118.598,121.499,123.814,126.499,128.166,131.067,132.734,133.968,136.653,138.32,139.554,142.385,145.287,146.52100000000002,148.927,151.612,152.846,155.894,158.941" y="267.653" svg_rhmargin="160.175" style="fill:#171615;font-family:BKMMGC+AdvOTcb6dfb9e;font-size:6.97px;font-style:NORMAL;font-weight:normal;">Bold values indicate statistical signi</text>
  <text x="160.214" y="267.653" svg_rhmargin="163.115" style="fill:#171615;font-family:BKMMHE+AdvOTcb6dfb9e+fb;font-size:6.97px;font-style:NORMAL;font-weight:normal;">ﬁ</text>
  <text x="163.105,165.937,168.838,171.885,173.552,175.917,177.8,180.701,183.386,186.433,187.668,189.334,192.019" y="267.653" svg_rhmargin="193.686" style="fill:#171615;font-family:BKMMGC+AdvOTcb6dfb9e;font-size:6.97px;font-style:NORMAL;font-weight:normal;">cant results.</text>
  <text svg_rhmargin="74.392" x="71.887,74.392" y="276.611" style="fill:#171615;font-family:BKMMGC+AdvOTcb6dfb9e;font-size:4.65px;font-style:NORMAL;font-weight:normal;"># </text>
  <text x="75.572,79.059,80.725,82.392,85.293,87.176,89.517,92.418,94.957,97.788,99.022,102.07,104.755,105.989,108.89,111.938,114.347,117.248,118.915,121.206,122.873,125.92,128.821,131.184,133.868,135.535,138.583,141.63,144.16899999999998,146.546,149.594,152.13299999999998,154.483,157.531,160.432,163.333" y="276.611" svg_rhmargin="165.0" style="fill:#171615;font-family:BKMMGC+AdvOTcb6dfb9e;font-size:6.97px;font-style:NORMAL;font-weight:normal;">After exclusion of the study by Tao.</text>
  <text svg_rhmargin="172.542" x="165.033,166.283,168.787,171.292,172.542" y="706.967" style="fill:#171615;font-family:BKMMGC+AdvOTcb6dfb9e;font-size:4.65px;font-style:NORMAL;font-weight:normal;">[13] </text>
  <path d=" M 71.88700103759766 427.1239929199219 L 576.9639892578125 427.1239929199219 L 576.9639892578125 427.8609924316406 L 71.88700103759766 427.8609924316406 Z " style="fill:none;stroke:#000000;stroke-width:1.0;"/>
  <path d=" M 71.88700103759766 84.9260025024414 L 576.9639892578125 84.9260025024414 L 576.9639892578125 85.66303253173828 L 71.88700103759766 85.66303253173828 Z " style="fill:none;stroke:#000000;stroke-width:1.0;"/>
  <path d="M184.365 83.629 L114.746 83.629 L114.746 83.119 L184.365 83.119 M96.434 379.962 L552.471 379.962 L552.471 696.025 L96.434 696.025 " style="fill:none;stroke:#000000;stroke-width:1.0;"/>
  <rect style="stroke:blue;stroke-width:0.3;" x="96.435" y="379.962" height="316.063" width="456.11" title="4"/>
  <text x="96.435" y="379.962" class="image" id="image.4.1" width="456" height="316">image.4.1.96_553.380_696</text>
  <text svg_rhmargin="233.313" x="203.187,207.544,209.331,213.688,217.962,220.526,224.651,227.17,231.296,233.313" y="706.967" style="fill:#171615;font-family:BKMLGD+AdvOTf94803d4;font-size:7.47px;font-style:NORMAL;font-weight:normal;">Figure 2. </text>
  <text x="237.089,241.057,245.181,247.512,251.323,254.902,257.07599999999996,259.594,263.868,265.191,269.315,271.489,273.993,278.118,279.986,282.497,287.705,291.672,296.342,299.062,304.12,309.096,314.073" y="706.967" svg_rhmargin="318.197" style="fill:#171615;font-family:BKMKKG+AdvOT6e5d2ec0;font-size:7.47px;font-style:NORMAL;font-weight:normal;">Forest plot of HLA-DRB1</text>
  <text x="318.216" y="704.982" svg_rhmargin="322.101" style="fill:#171615;font-family:BKMKKH+AdvOTb0c9bf5d+22;font-size:7.47px;font-style:NORMAL;font-weight:normal;">∗</text>
  <text x="322.128,326.252,330.377,332.899,337.173,341.298,342.62,346.042,352.184,356.308,358.64,362.914,366.881,368.204,371.783,377.925,380.461,384.272,388.239,392.513,395.03,398.841,400.163,404.288,408.562,412.372,416.183,417.592,421.40299999999996,423.885,427.695,430.027,433.837,437.648,439.822,443.633" y="706.967" svg_rhmargin="445.65" style="fill:#171615;font-family:BKMKKG+AdvOT6e5d2ec0;font-size:7.47px;font-style:NORMAL;font-weight:normal;">04 polymorphism and alopecia areata.</text>
  <text svg_rhmargin="175.936" x="71.887,75.872,77.283,79.937,84.001,86.32000000000001,88.951,93.016,94.426,96.578,99.212,105.763,109.828,114.387,115.798,119.862,121.273,125.505,129.57,132.206,134.111,138.51,142.91,147.309,151.709,153.614,156.186,160.585,164.985,167.137,171.536,175.935" y="9.870999999999981" style="fill:#171615;font-family:BKMKKG+AdvOT6e5d2ec0;font-size:7.97px;font-style:NORMAL;font-weight:normal;">Ji et al. Medicine (2018) 97:32 </text>
  <text x="542.723,549.944,554.503,559.317,561.31,565.869,567.861,572.508" y="9.870999999999981" svg_rhmargin="577.067" style="fill:#171615;font-family:BKMKKF+AdvOT34fe1490.B;font-size:7.97px;font-style:NORMAL;font-weight:normal;">Medicine</text>
  <text x="322.243" y="739.625" svg_rhmargin="326.643" style="fill:#171615;font-family:BKMLGD+AdvOTf94803d4;font-size:7.97px;font-style:NORMAL;font-weight:normal;">4</text>
 </g>
</svg>
