<?xml version="1.0" encoding="UTF-8"?>
<svg height="870.031005859375" width="672.0029907226562" xmlns="http://www.w3.org/2000/svg">
 <g style="fill:none;">
  <path d=" M 0.05999799817800522 826.072021484375 L 22.619997024536133 826.072021484375 L 22.619997024536133 826.35546875 L 0.05999799817800522 826.35546875 Z " style="fill:none;stroke:#000000;stroke-width:1.0;"/>
  <path d=" M 33.67599868774414 837.4110107421875 L 33.959449768066406 837.4110107421875 L 33.959449768066406 860.031005859375 L 33.67599868774414 860.031005859375 Z " style="fill:none;stroke:#000000;stroke-width:1.0;"/>
  <path d=" M 627.9869995117188 837.4110107421875 L 628.2703857421875 837.4110107421875 L 628.2703857421875 860.031005859375 L 627.9869995117188 860.031005859375 Z " style="fill:none;stroke:#000000;stroke-width:1.0;"/>
  <path d=" M 639.3259887695312 826.072021484375 L 662.0029907226562 826.072021484375 L 662.0029907226562 826.35546875 L 639.3259887695312 826.35546875 Z " style="fill:none;stroke:#000000;stroke-width:1.0;"/>
  <path d=" M 639.3259887695312 33.731998443603516 L 662.0029907226562 33.731998443603516 L 662.0029907226562 34.015480041503906 L 639.3259887695312 34.015480041503906 Z " style="fill:none;stroke:#000000;stroke-width:1.0;"/>
  <path d=" M 627.9869995117188 0.0 L 628.2703857421875 0.0 L 628.2703857421875 22.677000045776367 L 627.9869995117188 22.677000045776367 Z " style="fill:none;stroke:#000000;stroke-width:1.0;"/>
  <path d=" M 33.67599868774414 0.0 L 33.959449768066406 0.0 L 33.959449768066406 22.677000045776367 L 33.67599868774414 22.677000045776367 Z " style="fill:none;stroke:#000000;stroke-width:1.0;"/>
  <path d=" M 0.05999799817800522 33.731998443603516 L 22.619997024536133 33.731998443603516 L 22.619997024536133 34.015480041503906 L 0.05999799817800522 34.015480041503906 Z " style="fill:none;stroke:#000000;stroke-width:1.0;"/>
  <text x="72.057,74.463,78.587,82.711,85.117,88.44,93.805,95.696,98.961,103.086,104.936,106.954,111.078,114.687,118.812,120.829,121.887,127.252,132.488,134.505,135.663,140.176,144.167,146.184,150.177,153.442,159.584,161.458,165.582,167.599,171.605,175.341,177.217,180.482,181.582,185.318,189.442,193.567,194.62,198.356,201.48,205.604,208.869,211.117,213.134,216.39899999999997,217.466,220.731,224.723,228.459,231.335,234.927,238.192,240.482,243.747,246.624,248.476,251.352,253.758,255.619,258.884,261.761,262.875,267.0,269.406,270.415,274.151,276.168,280.166,284.29,287.422,290.688,292.705,296.441,297.456,301.192,304.069,307.207,310.943,313.216" y="37.76400000000001" svg_rhmargin="316.952" style="fill:#171615;font-family:BKMKLN+AdvOTbc475f09;font-size:7.47px;font-style:NORMAL;font-weight:normal;">[10] Alzolibani AA. Epidemiologic and genetic characteristics of alopecia areata</text>
  <text x="88.441,90.847,94.847,98.583,101.46,103.866,105.959,110.083,112.364,114.381,116.56,121.925,125.19,127.444,131.18,133.397,139.151,142.298,145.175,151.199,154.935,157.341,161.346,165.082,168.205,172.33,175.595,178.296,182.421,184.438,186.573,191.939,193.956,198.081,200.179,204.304,208.04,212.027,216.152,220.134,224.259,226.276,229.375,233.111,235.327,240.693,244.682,247.559,249.576,253.186,255.592,257.778,261.903,265.886,270.01,274.134,276.033,280.157,284.14,286.157,290.282,294.231" y="46.721000000000004" svg_rhmargin="298.355" style="fill:#171615;font-family:BKMKLN+AdvOTbc475f09;font-size:7.47px;font-style:NORMAL;font-weight:normal;">(part 1). Acta Dermatovenerol Alp Pannonica Adriat 2011;20:191</text>
  <text x="298.317" y="46.721000000000004" svg_rhmargin="302.053" style="fill:#171615;font-family:BKMKLP+AdvOTbc475f09+20;font-size:7.47px;font-style:NORMAL;font-weight:normal;">–</text>
  <text x="302.002,306.127" y="46.721000000000004" svg_rhmargin="308.144" style="fill:#171615;font-family:BKMKLN+AdvOTbc475f09;font-size:7.47px;font-style:NORMAL;font-weight:normal;">8.</text>
  <text x="72.057,74.463,78.587,82.711,85.117,88.44,94.193,98.318,100.335,104.071,108.196,110.322,116.075,118.092,120.186,124.699,128.435,132.56,136.684,139.949,142.82600000000002,144.959,149.472,153.208,155.225,157.317,162.682,166.807,169.683,172.56,175.825,178.231,180.333,184.069,186.08599999999998,188.213,195.684,198.95,202.685,205.562,209.687,212.563,214.581,218.705,222.441,224.606,230.749,232.766,235.643,238.519,240.537,244.661,248.397,250.514,254.638,257.904,260.78,262.798,265.204,268.939,273.064,275.081,277.099,279.116,281.522,285.258,287.275,289.458,291.476,295.6,298.006,301.271,304.148,307.025,309.042,313.167" y="55.678" svg_rhmargin="316.903" style="fill:#171615;font-family:BKMKLN+AdvOTbc475f09;font-size:7.47px;font-style:NORMAL;font-weight:normal;">[11] Golan D, Lander ES, Rosset S. Measuring missing heritability: inferring</text>
  <text x="88.441,90.847,94.971,98.236,99.722,102.987,107.111,111.236,113.642,116.518,118.536,122.737,126.862,129.268,131.285,135.409,139.534,141.048,145.173,147.579,149.098,152.364,156.488,162.63,168.772,172.896,177.021,178.576,182.312,186.048,188.925,190.942,194.678,198.87,201.276,204.153,206.17,207.657,211.782,214.658,218.783,222.04799999999997,223.587,229.73,233.466,235.871,237.888,239.461,244.826,248.091,251.827,255.952,257.431,261.167,264.432,266.449,267.976,273.34,277.076,282.44100000000003,284.019,288.143,292.268,296.392,300.517,302.534,306.658,310.783,314.907" y="64.63599999999997" svg_rhmargin="316.924" style="fill:#171615;font-family:BKMKLN+AdvOTbc475f09;font-size:7.47px;font-style:NORMAL;font-weight:normal;">the contribution of common variants. Proc Natl Acad Sci USA 2014;111:</text>
  <text x="88.441,92.955,97.08,101.205,105.33" y="73.59299999999996" svg_rhmargin="109.454" style="fill:#171615;font-family:BKMKLN+AdvOTbc475f09;font-size:7.47px;font-style:NORMAL;font-weight:normal;">E5272</text>
  <text x="109.474" y="73.59299999999996" svg_rhmargin="113.21" style="fill:#171615;font-family:BKMKLP+AdvOTbc475f09+20;font-size:7.47px;font-style:NORMAL;font-weight:normal;">–</text>
  <text x="113.216,117.341,121.466" y="73.59299999999996" svg_rhmargin="123.483" style="fill:#171615;font-family:BKMKLN+AdvOTbc475f09;font-size:7.47px;font-style:NORMAL;font-weight:normal;">81.</text>
  <text x="72.057,74.463,78.587,82.711,85.117,88.44,92.953,97.078,99.483,102.748,105.56,109.685,111.702,114.574,119.088,121.105,124.841,128.966,135.107,138.373,140.39,143.267,146.532,149.40900000000002,152.329,156.842,158.859,161.683,166.196,169.461,171.867,175.13199999999998,177.953,183.318,188.683,190.7,193.599,196.864,199.27,202.103,205.839,207.856,209.873,212.704,215.11,219.234,222.97,226.235,229.112,231.518,233.622,237.358,241.093,243.499,245.517,249.641,253.766,256.581,260.706,263.112,265.992,268.398,272.523,275.788,278.634,284.858,289.371,294.736,297.142,302.895,308.26,312.773" y="82.54999999999995" svg_rhmargin="316.897" style="fill:#171615;font-family:BKMKLN+AdvOTbc475f09;font-size:7.47px;font-style:NORMAL;font-weight:normal;">[12] Entz P, Blaumeiser B, Betz RC, et al. Investigation of the HLA-DRB1</text>
  <text x="88.441,90.458,94.583,97.848,101.972,104.84899999999999,107.375,109.393,113.518,115.992,119.728,121.746,125.87,129.995,133.26,136.525,138.542,142.278,144.847,148.583,151.46,154.725,158.461,160.867,164.602,166.619,169.109,173.622,177.747,180.62400000000002,183.168,186.04500000000002,188.497,194.251,197.516,200.393,206.535,210.271,212.76,216.885,218.902,221.378,225.502,229.626,233.751,237.875,239.893,244.017,248.142,250.231,254.356,258.48" y="91.56399999999996" svg_rhmargin="262.604" style="fill:#171615;font-family:BKMKLN+AdvOTbc475f09;font-size:7.47px;font-style:NORMAL;font-weight:normal;">locus in alopecia areata. Eur J Dermatol 2006;16:363</text>
  <text x="262.6" y="91.56399999999996" svg_rhmargin="266.336" style="fill:#171615;font-family:BKMKLP+AdvOTbc475f09+20;font-size:7.47px;font-style:NORMAL;font-weight:normal;">–</text>
  <text x="266.342,270.467" y="91.56399999999996" svg_rhmargin="272.484" style="fill:#171615;font-family:BKMKLN+AdvOTbc475f09;font-size:7.47px;font-style:NORMAL;font-weight:normal;">7.</text>
  <text x="72.057,74.463,78.587,82.711,85.117,88.44,93.342,97.078,101.203,103.18,109.404,111.42099999999999,113.385,118.75,121.627,124.504,128.628,131.893,133.91,137.646,140.052,142.07,146.194,150.319,152.33,156.454,158.86,160.834,163.71,166.975,170.711,173.977,176.853,180.118,182.092,187.456,189.474,193.598,197.723,200.988,204.253,206.27,210.006,212.023,217.388,220.264,223.53,227.265,229.671,233.40699999999998,235.378,239.114,243.239,247.364,249.324,255.548,260.061,265.425,267.831,273.585,278.949,283.462,287.587,289.629,293.365,295.382,297.399,300.665,302.682,305.947,308.824,310.773,312.791" y="100.52099999999996" svg_rhmargin="316.915" style="fill:#171615;font-family:BKMKLN+AdvOTbc475f09;font-size:7.47px;font-style:NORMAL;font-weight:normal;">[13] Tao H. Association of severe Alopecia Areata and HLA-DRB1 alleles in</text>
  <text x="88.441,92.177,96.301,100.426,102.832,106.956,110.221,113.098,117.223,119.733,125.098,129.222,131.239,135.364,138.629,141.506,144.771,147.34,153.564,157.3,161.425,163.442,165.934,171.687,175.812,179.548,183.672,187.408,190.673,194.797,198.922,203.047,205.559,213.031,216.296,220.421,222.509,225.774,229.51,231.527,234.017,239.382,243.506,245.524,247.541,250.806,254.542,258.278,261.543,263.56,266.102,270.227,274.351,278.476,282.6" y="109.47799999999995" svg_rhmargin="284.617" style="fill:#171615;font-family:BKMKLN+AdvOTbc475f09;font-size:7.47px;font-style:NORMAL;font-weight:normal;">Southern Chinese Han. Guangzhou Medical Colleage; 2011.</text>
  <text x="72.057,74.463,78.587,82.711,85.117,88.44,94.582,96.59899999999999,99.041,102.777,104.794,107.261,112.626,115.502,118.379,122.503,125.768,127.786,131.522,133.928,135.945,140.069,144.194,146.716,150.84,153.246,155.673,161.897,166.41,171.775,174.18,179.934,185.299,189.811" y="118.43600000000004" svg_rhmargin="191.828" style="fill:#171615;font-family:BKMKLN+AdvOTbc475f09;font-size:7.47px;font-style:NORMAL;font-weight:normal;">[14] Qi S. Association of HLA-DRBl</text>
  <text x="191.905" y="116.45100000000002" svg_rhmargin="195.79" style="fill:#171615;font-family:BKMKKH+AdvOTb0c9bf5d+22;font-size:7.47px;font-style:NORMAL;font-weight:normal;">∗</text>
  <text svg_rhmargin="206.084" x="195.817,199.942,204.067,206.084" y="116.45100000000002" style="fill:#171615;font-family:BKMKLN+AdvOTbc475f09;font-size:7.47px;font-style:NORMAL;font-weight:normal;">03, </text>
  <text x="208.516" y="116.45100000000002" svg_rhmargin="212.401" style="fill:#171615;font-family:BKMKKH+AdvOTb0c9bf5d+22;font-size:7.47px;font-style:NORMAL;font-weight:normal;">∗</text>
  <text svg_rhmargin="235.126" x="212.427,216.552,220.677,223.142,226.878,231.002,235.127" y="116.45100000000002" style="fill:#171615;font-family:BKMKLN+AdvOTbc475f09;font-size:7.47px;font-style:NORMAL;font-weight:normal;">04 and </text>
  <text x="237.599" y="116.45100000000002" svg_rhmargin="241.484" style="fill:#171615;font-family:BKMKKH+AdvOTb0c9bf5d+22;font-size:7.47px;font-style:NORMAL;font-weight:normal;">∗</text>
  <text x="241.454,245.579,249.704,252.169,255.905,257.922,259.94,263.205,265.222,268.487,271.36400000000003,273.88,279.634,281.651,284.057,288.182,290.604,294.34,296.357,300.482,304.606,307.95,311.216,313.233" y="118.43600000000004" svg_rhmargin="316.969" style="fill:#171615;font-family:BKMKLN+AdvOTbc475f09;font-size:7.47px;font-style:NORMAL;font-weight:normal;">11 alleles with alopecia</text>
  <text x="88.441,92.177,95.053,98.319,102.054,104.46,108.196,110.72,112.737,116.862,119.337,125.561,129.297,133.422,135.947,140.071,143.336,147.461,151.585,153.602,156.867,159.359,161.376,165.501,168.033,172.546,176.282,179.158,181.564,184.829,187.706,191.831,194.336,199.701,203.826,205.843,210.039,213.775,215.792,218.259,222.383,226.508,230.632,234.368,238.493,240.991,246.356,250.48,252.498,256.234,259.585,262.461,265.338,267.355,269.761,273.497,275.514,278.009,282.133,286.258,290.382,294.506" y="127.39300000000003" svg_rhmargin="296.523" style="fill:#171615;font-family:BKMKLN+AdvOTbc475f09;font-size:7.47px;font-style:NORMAL;font-weight:normal;">areata in Han people in Eastern China. Fudan University; 2009.</text>
  <text x="72.057,74.463,78.587,82.711,85.117,88.44,93.805,97.929,101.665,104.542,106.014,111.379,113.396,114.915,121.058,123.934,128.059,132.183,136.307,140.432,144.168,146.185,150.31,151.82,156.333,158.35,159.813,163.549,166.814,170.939,174.674,178.86,180.877,182.318,187.684,189.701,191.219,194.484,196.89000000000001,198.362,202.098,204.116,206.133,207.603,213.827,218.34,223.705,225.233,228.498,230.516,234.252,237.128,240.005,241.503,243.909,246.315,247.796,251.532,253.549,255.566,258.831,260.849,264.114,266.991,268.543,270.561,274.686,276.14,280.264,284.0,286.406,288.424,291.689,295.813,298.219,301.096,302.613,308.367,310.384,312.79" y="136.35000000000002" svg_rhmargin="316.914" style="fill:#171615;font-family:BKMKLN+AdvOTbc475f09;font-size:7.47px;font-style:NORMAL;font-weight:normal;">[15] Akar A, Orkunoglu E, Sengul A, et al. HLA class II alleles in patients with</text>
  <text x="88.441,92.177,94.194,98.319,102.443,105.708,108.973,110.991,114.727,117.239,120.975,123.851,127.116,130.852,133.258,136.994,139.011,141.558,146.071,150.195,153.072,155.56,158.437,160.946,166.7,169.965,172.842,178.983,182.719,185.125,189.25,191.267,193.825,197.95,202.074,206.199,210.323,212.34,216.465,220.589,222.607,226.731,230.856" y="145.36400000000003" svg_rhmargin="234.98" style="fill:#171615;font-family:BKMKLN+AdvOTbc475f09;font-size:7.47px;font-style:NORMAL;font-weight:normal;">alopecia areata. Eur J Dermatol 2002;12:236</text>
  <text x="235.048" y="145.36400000000003" svg_rhmargin="238.784" style="fill:#171615;font-family:BKMKLP+AdvOTbc475f09+20;font-size:7.47px;font-style:NORMAL;font-weight:normal;">–</text>
  <text x="238.79,242.915" y="145.36400000000003" svg_rhmargin="244.932" style="fill:#171615;font-family:BKMKLN+AdvOTbc475f09;font-size:7.47px;font-style:NORMAL;font-weight:normal;">9.</text>
  <text x="72.057,74.463,78.587,82.711,85.117,88.44,93.805,96.211,98.617,100.634,104.37,108.678,113.191,118.556,120.573,124.835,129.348,131.365,135.663,139.399,143.523,146.788,150.913,155.037,158.773,164.526,168.262,172.567,178.321,180.338,184.643,188.378" y="154.32100000000003" svg_rhmargin="191.643" style="fill:#171615;font-family:BKMKLN+AdvOTbc475f09;font-size:7.47px;font-style:NORMAL;font-weight:normal;">[16] Attia EA, El Shennawy D, Se</text>
  <text x="191.678" y="154.32100000000003" svg_rhmargin="195.802" style="fill:#171615;font-family:BKMKMA+AdvOTbc475f09+fb;font-size:7.47px;font-style:NORMAL;font-weight:normal;">ﬁ</text>
  <text x="195.817,199.942,204.207,209.573,211.59,215.887,219.622,222.888,225.764,229.889,236.031,240.32,242.726,246.85,249.256,252.522,255.398,257.416,260.681,264.805,268.93,271.045,275.169,277.575,281.7,285.954,289.69,293.814,297.939,302.224,304.63,308.754,311.16,314.896" y="154.32100000000003" svg_rhmargin="316.913" style="fill:#171615;font-family:BKMKLN+AdvOTbc475f09;font-size:7.47px;font-style:NORMAL;font-weight:normal;">n A. Serum Interleukin-4 and total</text>
  <text x="88.441,90.458,96.6,102.742,106.866,110.991,115.115,118.851,120.868,124.993,129.117,133.242,135.259,137.277,141.402,142.861,147.374,148.814,150.831,154.956,156.354,160.478,164.602,168.727,172.463,174.869,178.993,183.118,185.207,188.47199999999998,189.856,193.592,195.61,199.734,203.859,207.124,210.389,212.406,216.142,217.634,221.369,224.246,227.511,231.247,233.653,237.38899999999998,238.779,242.903,246.639,249.045,251.137,254.402,258.527,260.933,263.81,265.196,268.932,273.056,277.181,278.632,284.856,289.369,294.734,297.139,302.893,308.257,312.77" y="163.27800000000002" svg_rhmargin="316.894" style="fill:#171615;font-family:BKMKLN+AdvOTbc475f09;font-size:7.47px;font-style:NORMAL;font-weight:normal;">immunoglobulin E in nonatopic alopecia areata patients and HLA-DRB1</text>
  <text x="88.441,90.847,94.583,98.707,100.725,104.849,108.585,110.60199999999999,113.1,118.853,122.119,124.995,131.137,134.873,137.362,141.487,143.504,145.98,151.344,154.61,157.48700000000002,160.039,164.163,167.04,170.776,174.041,176.447,178.916,183.041,187.165,191.289,195.414,197.431,201.556,205.68,209.805,214.006,216.023,220.148,224.272,228.397,232.521,236.646,240.77" y="172.236" svg_rhmargin="242.787" style="fill:#171615;font-family:BKMKLN+AdvOTbc475f09;font-size:7.47px;font-style:NORMAL;font-weight:normal;">typing. Dermatol Res Pract 2010;2010:503587.</text>
  <text x="72.057,74.463,78.587,82.711,85.117,88.44,92.953,95.83,99.954,104.079,106.096,109.832,112.709,115.974,119.239,122.975,127.099,129.505,135.258,138.994,141.012,144.748,147.622,153.375,155.392,158.223,162.347,165.224,169.349,172.225,174.243,178.367,181.244,185.368,189.104,191.51,196.023,198.899,202.723,205.129,209.253,212.13,214.968,222.439,224.456,227.269,233.022,237.147,241.271,243.289,247.025,249.43,253.943,257.209,260.085,264.21,267.475,270.35200000000003,273.243,280.715,282.73199999999997,285.545,288.81,291.216,294.048,297.784,299.802,301.819,304.649,309.551,313.675" y="181.19299999999998" svg_rhmargin="316.94" style="fill:#171615;font-family:BKMKLN+AdvOTbc475f09;font-size:7.47px;font-style:NORMAL;font-weight:normal;">[17] Broniarczyk-Dyla G, Prusinska-Bratos M, Dubla-Berner M, et al. The</text>
  <text x="88.441,92.565,95.442,99.566,101.972,105.237,108.503,110.909,112.926,116.662,119.927,123.02,125.897,130.021,132.039,135.30399999999997,138.44,142.564,144.97,148.02,150.426,154.551,157.81599999999997,160.889,167.113,171.626,176.991,179.397,185.15,190.51500000000001,193.655,195.672,199.797,203.062,207.186,210.06300000000002,213.156,215.173,219.298,222.396,226.521,230.257,232.663,234.68,237.946,242.07,244.476,247.353,250.458,256.211,258.229,260.634,264.759,267.861,271.597,275.333,278.21,280.227,284.351,288.476,291.353,294.448,297.713,299.731,301.748,305.872,307.89,311.155,314.891" y="190.14999999999998" svg_rhmargin="316.908" style="fill:#171615;font-family:BKMKLN+AdvOTbc475f09;font-size:7.47px;font-style:NORMAL;font-weight:normal;">protective role of the HLA-DR locus in patients with various clinical</text>
  <text x="88.441,90.847,94.583,98.707,101.972,104.84899999999999,107.375,111.5,113.906,116.389,120.125,122.142,126.267,130.391,133.656,136.922,138.939,142.67499999999998,145.187,148.923,151.8,155.065,158.801,161.207,164.942,166.959,169.506,174.871,177.748,181.013,185.138,187.647,190.053,196.195,202.337,206.461,210.662,214.787,216.804,219.28,224.182,228.306,231.571,234.448,238.184,242.309,244.847,249.36,253.484,257.60900000000004,260.096,264.221,268.345,272.47,276.594,278.612,282.736,286.86,288.95,293.075,297.199" y="199.10699999999997" svg_rhmargin="301.323" style="fill:#171615;font-family:BKMKLN+AdvOTbc475f09;font-size:7.47px;font-style:NORMAL;font-weight:normal;">types of alopecia areata. Arch Immunol Therap Exp 2002;50:333</text>
  <text x="301.321" y="199.10699999999997" svg_rhmargin="305.057" style="fill:#171615;font-family:BKMKLP+AdvOTbc475f09+20;font-size:7.47px;font-style:NORMAL;font-weight:normal;">–</text>
  <text x="305.063,309.188" y="199.10699999999997" svg_rhmargin="311.205" style="fill:#171615;font-family:BKMKLN+AdvOTbc475f09;font-size:7.47px;font-style:NORMAL;font-weight:normal;">6.</text>
  <text x="72.057,74.463,78.587,82.712,85.11800000000001,88.44,95.912,99.177,102.913,104.93,109.055,111.931,116.056,118.073,119.958,124.083,126.1,128.009,132.134,134.151,137.416,140.681,144.806,147.212,149.22899999999998,151.138,156.503,158.51999999999998,160.435,167.907,172.032,174.908,178.64399999999998,180.503,185.017,187.034,188.951,192.216,194.622,196.491,200.226,202.244,204.261,206.184,211.938,215.203,219.327,222.593,224.998,227.016,230.28099999999998,232.204,235.94,238.817,241.693,245.818,249.083,251.1,254.836,257.242,259.26,263.384,267.509,269.448,273.573,275.979,277.838,284.062,288.575,293.94,296.346,302.099,308.241,312.754" y="208.12099999999998" svg_rhmargin="316.878" style="fill:#171615;font-family:BKMKLN+AdvOTbc475f09;font-size:7.47px;font-style:NORMAL;font-weight:normal;">[18] Megiorni F, Pizzuti A, Mora B, et al. Genetic association of HLA-DQB1</text>
  <text x="88.441,92.177,96.301,100.426,104.428,110.652,115.165,120.529,122.935,128.688,134.053,138.566,142.691,146.717,150.842,154.966,156.983,160.719,166.861,170.986,173.862,178.066,182.19,184.208,187.084,193.226,196.103,200.118,205.872,207.89,210.295,214.42,218.429,222.165,224.183,228.307,232.431,235.697,238.962,240.979,244.715,248.758,252.494,255.371,258.636,262.372,264.778,268.514,272.511,274.528,278.653,282.659,285.065,289.189,292.454,296.492,298.898,301.303,305.039,307.057,309.074,312.81" y="217.07799999999997" svg_rhmargin="316.934" style="fill:#171615;font-family:BKMKLN+AdvOTbc475f09;font-size:7.47px;font-style:NORMAL;font-weight:normal;">and HLA-DRB1 polymorphisms with alopecia areata in the Italian</text>
  <text x="88.441,92.566,96.691,100.816,104.942,106.96,110.696,113.103,115.121,119.246,123.372,125.389,127.903,132.417,135.294,137.825,140.702,143.211,148.965,152.231,155.108,161.251,164.987,167.394,171.519,173.536,176.095,180.22,184.345,188.47,192.596,194.614,198.739,202.864,206.989,209.007,213.133,217.258" y="226.03599999999994" svg_rhmargin="221.382" style="fill:#171615;font-family:BKMKLN+AdvOTbc475f09;font-size:7.47px;font-style:NORMAL;font-weight:normal;">population. Br J Dermatol 2011;165:823</text>
  <text x="221.385" y="226.03599999999994" svg_rhmargin="225.121" style="fill:#171615;font-family:BKMKLP+AdvOTbc475f09+20;font-size:7.47px;font-style:NORMAL;font-weight:normal;">–</text>
  <text x="225.127,229.251" y="226.03599999999994" svg_rhmargin="231.268" style="fill:#171615;font-family:BKMKLN+AdvOTbc475f09;font-size:7.47px;font-style:NORMAL;font-weight:normal;">7.</text>
  <text x="72.057,74.463,78.587,82.712,85.11800000000001,88.44,93.805,97.929,101.665,105.79,109.52600000000001,111.286,115.799,117.816,119.619,127.091,131.216,132.998,138.363,140.38,142.182,147.547,151.671,154.936,159.061,162.797,164.631,168.367,170.384,172.171,175.436,177.842,179.597,183.333,185.35,187.367,189.177,193.302,197.426,199.443,203.179,209.321,213.446,216.322,220.447,224.571,226.589,229.465,235.607,237.476,241.212,245.336,249.072,251.089,254.825,257.702,259.719,262.596,264.403,268.527,270.933,272.736,278.96,283.473,288.838,291.243,296.608,298.626,303.13899999999995,304.935,308.671,312.795" y="234.99300000000005" svg_rhmargin="316.919" style="fill:#171615;font-family:BKMKLN+AdvOTbc475f09;font-size:7.47px;font-style:NORMAL;font-weight:normal;">[19] Zhang B, Wu Y, Cheng S, et al. Polymorphism analysis of HLA-A,B and</text>
  <text x="88.441,94.194,99.559,104.072,108.197,111.06,113.077,117.202,120.017,124.141,127.877,130.283,132.375,135.64,139.765,142.171,145.048,147.908,153.661,155.679,158.085,162.21,165.085,168.821,170.838,174.963,179.087,182.352,185.618,187.635,191.37099999999998,194.223,197.959,200.835,204.101,207.837,210.242,213.978,215.995,218.882,221.288,225.412,227.818,230.673,233.55,236.399,240.913,242.93,247.055,251.179,255.304,258.168,263.07,265.947,269.683,273.807,276.684,279.09,283.214,286.091,289.007,295.231,298.496,304.638,308.374,310.78,314.904" y="243.95000000000005" svg_rhmargin="316.921" style="fill:#171615;font-family:BKMKLN+AdvOTbc475f09;font-size:7.47px;font-style:NORMAL;font-weight:normal;">DRB1 in patients with alopecia areata. Int J Blood Transfus Hematol</text>
  <text x="88.441,92.566,96.691,100.816,104.942,106.96,111.085,115.21,117.228,121.353,125.479" y="252.90700000000004" svg_rhmargin="129.603" style="fill:#171615;font-family:BKMKLN+AdvOTbc475f09;font-size:7.47px;font-style:NORMAL;font-weight:normal;">2010;33:289</text>
  <text x="129.656" y="252.90700000000004" svg_rhmargin="133.392" style="fill:#171615;font-family:BKMKLP+AdvOTbc475f09+20;font-size:7.47px;font-style:NORMAL;font-weight:normal;">–</text>
  <text x="133.398,137.523,141.648" y="252.90700000000004" svg_rhmargin="143.665" style="fill:#171615;font-family:BKMKLN+AdvOTbc475f09;font-size:7.47px;font-style:NORMAL;font-weight:normal;">92.</text>
  <text x="72.057,74.463,78.587,82.712,85.11800000000001,88.44,92.953,96.689,99.566,103.69,107.815,110.691,114.427,116.388,121.752,129.224,131.24099999999999,133.224,137.348,140.225,143.49,146.367,148.773,152.038,154.915,157.32,162.685,166.421,169.298,173.529,176.794,178.812,181.688,185.813,187.758,192.271,196.784,198.801,200.797,204.533,208.657,212.781,215.658,219.394,221.411,223.358,228.723,234.088,236.105,238.097,241.363,243.769,245.751,249.487,251.504,253.521,255.501,260.014,263.75,267.015,271.14,273.075,277.199,279.605,281.579,285.315,288.191,291.068,295.192,298.457,300.475,304.211,306.617,308.634,312.758" y="261.92100000000005" svg_rhmargin="316.882" style="fill:#171615;font-family:BKMKLN+AdvOTbc475f09;font-size:7.47px;font-style:NORMAL;font-weight:normal;">[20] Barbosa AM, Prestes-Carneiro LE, Sobral AR, et al. Lack of association</text>
  <text x="88.441,92.565,95.831,98.236,103.99,107.255,110.52,114.645,118.656,122.392,124.409,128.534,132.658,135.923,139.189,141.206,144.94199999999998,148.985,152.721,155.597,158.863,162.599,165.004,168.73999999999998,172.738,176.474,180.598,184.723,188.724,194.948,199.461,204.82600000000002,208.849,212.114,214.132,217.867,220.744,223.621,227.613,230.019,234.019,237.755,241.88,246.005,250.006,252.412,254.818,258.793,260.81,264.935,268.94,272.676,276.65,279.527,283.651,287.776,290.256,294.38,297.645,301.381,304.258,306.664,309.929,312.806" y="270.879" svg_rhmargin="316.93" style="fill:#171615;font-family:BKMKLN+AdvOTbc475f09;font-size:7.47px;font-style:NORMAL;font-weight:normal;">between alopecia areata and HLA class I and II in a southeastern</text>
  <text x="88.441,92.954,95.831,99.566,102.832,104.849,106.866,108.884,112.62,116.745,119.279,123.404,127.528,131.653,135.777,137.794,141.53,143.936,145.954,150.078,154.202,156.219,158.791,164.156,168.281,170.753,175.267,178.144,181.879,184.756,187.25,193.003,196.269,199.145,205.287,209.023,211.513,215.637,217.654,220.13,224.254,228.379,232.503,236.628,238.645,242.769,246.894,248.984,253.108,257.233" y="279.836" svg_rhmargin="261.357" style="fill:#171615;font-family:BKMKLN+AdvOTbc475f09;font-size:7.47px;font-style:NORMAL;font-weight:normal;">Brazilian population. An Bras Dermatol 2016;91:284</text>
  <text x="261.353" y="279.836" svg_rhmargin="265.089" style="fill:#171615;font-family:BKMKLP+AdvOTbc475f09+20;font-size:7.47px;font-style:NORMAL;font-weight:normal;">–</text>
  <text x="265.095,269.22" y="279.836" svg_rhmargin="271.237" style="fill:#171615;font-family:BKMKLN+AdvOTbc475f09;font-size:7.47px;font-style:NORMAL;font-weight:normal;">9.</text>
  <text x="72.057,74.463,78.587,82.712,85.11800000000001,88.44,93.805,95.822,97.84,101.576,105.312,109.047,113.172,116.908,118.925,123.05,126.081,131.446,133.463,136.455,140.58,142.597,145.474,147.566,153.708,156.694,159.099,161.11599999999999,164.12,169.485,171.891,175.627,178.504,182.628,186.36399999999998,189.404,196.876,198.893,201.933,205.198,207.604,210.607,214.343,216.36,218.377,221.378,226.743,229.62,232.496,236.621,239.886,241.903,245.639,248.045,250.063,254.187,258.312,261.344,265.468,268.733,271.207,276.96,280.226,283.491,287.616,290.595,294.331,296.348,300.473,304.597,307.941,311.207,313.224" y="288.793" svg_rhmargin="316.96" style="fill:#171615;font-family:BKMKLN+AdvOTbc475f09;font-size:7.47px;font-style:NORMAL;font-weight:normal;">[21] Aliagaoglu C, Pirim I, Atasoy M, et al. Association between alopecia</text>
  <text x="88.441,92.177,95.053,98.319,102.055,104.46,108.196,110.72,114.455,118.58,122.705,125.175,131.399,135.912,141.27700000000002,143.826,147.092,149.109,152.845,155.721,158.598,161.117,163.523,165.992,169.728,173.853,177.978,180.505,182.911,185.317,187.818,189.835,193.96,196.435,201.337,205.461,208.338,212.535,215.8,219.536,221.553,224.043,226.92000000000002,229.429,235.183,238.448,241.324,247.466,251.202,253.608,257.732,259.749,262.308,266.433,270.557,274.681,278.806,280.823,284.948,289.072,291.09,295.214,299.338" y="297.75" svg_rhmargin="303.462" style="fill:#171615;font-family:BKMKLN+AdvOTbc475f09;font-size:7.47px;font-style:NORMAL;font-weight:normal;">areata and HLA class I and II in Turkey. J Dermatol 2005;32:711</text>
  <text x="303.476" y="297.75" svg_rhmargin="307.212" style="fill:#171615;font-family:BKMKLP+AdvOTbc475f09+20;font-size:7.47px;font-style:NORMAL;font-weight:normal;">–</text>
  <text svg_rhmargin="313.36" x="307.217,311.343,313.36" y="37.75800000000004" style="fill:#171615;font-family:BKMKLN+AdvOTbc475f09;font-size:7.47px;font-style:NORMAL;font-weight:normal;">4. </text>
  <text x="332.048,334.454,338.579,342.703,345.109,348.432,352.945,356.681,359.557,363.293,367.479,373.621,377.357,381.481,383.498,385.165,391.307,393.324,394.973,399.097,402.36199999999997,404.044,409.408,413.533,417.657,420.534,424.27,428.394,431.659,433.352,440.824,442.841,444.52,448.256,450.273,454.398,457.274,460.151,463.416,466.293,467.989,470.865,474.99,477.007,478.647,481.912,484.318,486.016,489.752,491.769,493.786,495.427,501.651,505.775,511.917,515.721,519.846,521.503,523.521,526.786,530.91,535.035,539.159,542.424,546.16,548.566,551.831,553.532,557.268,561.392,563.798,565.816,569.552,572.817" y="37.75800000000004" svg_rhmargin="576.941" style="fill:#171615;font-family:BKMKLN+AdvOTbc475f09;font-size:7.47px;font-style:NORMAL;font-weight:normal;">[22] Barahmani N, de Andrade M, Slusser JP, et al. Human leukocyte antigen</text>
  <text x="348.433,351.698,353.715,357.451,360.328,363.205,367.31,369.716,372.122,376.211,379.946,381.964,383.981,387.246,389.264,392.529,395.406,399.51,403.246,406.122,409.387,413.456,417.192,420.068,422.945,427.07,430.335,432.352,436.088,438.494,441.759,445.884,449.963,455.716,457.734,460.14,464.265,468.387,471.264,473.281,476.158,480.283,484.317,488.441,490.847,494.918,498.654,500.671,504.796,508.92,512.185,515.45,517.468,521.204,525.303,529.039,531.915,535.18,538.916,541.322,545.058,547.075,551.21,554.087,558.126,560.532,564.657,568.393,571.658,574.535" y="46.71500000000003" svg_rhmargin="576.941" style="fill:#171615;font-family:BKMKLN+AdvOTbc475f09;font-size:7.47px;font-style:NORMAL;font-weight:normal;">class II alleles are associated with risk of alopecia areata. J Invest</text>
  <text x="348.433,354.186,357.451,360.328,366.47,370.205,372.695,376.819,378.836,381.312,385.437,389.561,393.686,397.81,399.827,403.952,408.076,412.201,414.218,418.342,422.467" y="55.672000000000025" svg_rhmargin="426.591" style="fill:#171615;font-family:BKMKLN+AdvOTbc475f09;font-size:7.47px;font-style:NORMAL;font-weight:normal;">Dermatol 2008;128:240</text>
  <text x="426.668" y="55.672000000000025" svg_rhmargin="430.404" style="fill:#171615;font-family:BKMKLP+AdvOTbc475f09+20;font-size:7.47px;font-style:NORMAL;font-weight:normal;">–</text>
  <text x="430.41,434.535" y="55.672000000000025" svg_rhmargin="436.552" style="fill:#171615;font-family:BKMKLN+AdvOTbc475f09;font-size:7.47px;font-style:NORMAL;font-weight:normal;">3.</text>
  <text x="332.048,334.454,338.579,342.703,345.109,348.432,355.904,359.64,362.516,366.641,370.765,374.03,376.907,380.688,386.441,390.17699999999996,393.953,399.318,403.442,406.319,408.725,412.461,416.232,421.596,423.613,427.343,433.096,437.221,441.345,445.47,449.594,452.0,455.801,460.315,462.332,466.063,471.428,475.164,479.289,483.014,488.767,492.032,494.909,498.717,504.082,506.959,511.083,514.819,517.6959999999999,521.449,528.921,530.9380000000001,534.658,537.923,540.329,544.126,547.862,549.879,551.8960000000001,555.634,560.147,563.883,566.759,568.777,570.794,574.059" y="64.62900000000002" svg_rhmargin="576.936" style="fill:#171615;font-family:BKMKLN+AdvOTbc475f09;font-size:7.47px;font-style:NORMAL;font-weight:normal;">[23] Marques Da Costa C, Dupont E, Van Der Cruys M, et al. Earlier</text>
  <text x="348.433,352.557,355.822,359.087,363.212,366.088,368.965,372.23,376.437,379.702,382.967,384.601,388.725,391.13100000000003,392.764,395.641,398.906,402.642,405.907,408.784,412.049,413.682,417.418,419.436,423.56,427.684,430.95,434.215,436.232,439.968,441.63,445.366,448.242,451.507,455.243,457.649,461.385,463.058,465.076,469.201,470.825,477.049,481.562,486.927,489.333,495.086,500.451,504.964" y="73.58600000000001" svg_rhmargin="509.088" style="fill:#171615;font-family:BKMKLN+AdvOTbc475f09;font-size:7.47px;font-style:NORMAL;font-weight:normal;">occurrence of severe alopecia areata in HLA-DRB1</text>
  <text x="509.156" y="71.60199999999998" svg_rhmargin="513.041" style="fill:#171615;font-family:BKMKKH+AdvOTb0c9bf5d+22;font-size:7.47px;font-style:NORMAL;font-weight:normal;">∗</text>
  <text x="513.068,517.192,521.317,523.723,527.847,531.971,534.848,536.866,539.271,541.289,545.025,548.29,549.972,554.096,557.832,560.238,562.256,565.521,569.645,572.051,574.928" y="73.58600000000001" svg_rhmargin="576.945" style="fill:#171615;font-family:BKMKLN+AdvOTbc475f09;font-size:7.47px;font-style:NORMAL;font-weight:normal;">11-positive patients.</text>
  <text x="348.433,354.186,357.451,360.328,366.47,370.205,372.695,376.819,378.837,382.961,386.697,390.433,392.933,397.058,401.182,405.306,409.431,411.448,415.573,419.697,423.821,425.839,429.963" y="82.54399999999998" svg_rhmargin="434.087" style="fill:#171615;font-family:BKMKLN+AdvOTbc475f09;font-size:7.47px;font-style:NORMAL;font-weight:normal;">Dermatology 2006;213:12</text>
  <text x="434.152" y="82.54399999999998" svg_rhmargin="437.888" style="fill:#171615;font-family:BKMKLP+AdvOTbc475f09+20;font-size:7.47px;font-style:NORMAL;font-weight:normal;">–</text>
  <text x="437.894,442.019" y="82.54399999999998" svg_rhmargin="444.036" style="fill:#171615;font-family:BKMKLN+AdvOTbc475f09;font-size:7.47px;font-style:NORMAL;font-weight:normal;">4.</text>
  <text x="332.049,334.455,338.58,342.704,345.11,348.433,353.797,357.922,362.046,366.171,368.188,372.312,375.578,379.703,381.539,386.903,388.92,390.665,396.03,400.155,404.279,408.404,410.223,415.588,417.605,419.406,424.771,428.896,432.631,435.037,436.81,440.934,448.406,450.423,452.229,456.354,459.23,462.495,464.901,468.167,471.043,473.92,477.185,481.31,483.124,486.001,489.266,493.391,497.515,500.392,502.798,504.815,508.939,512.6750000000001,514.473,516.49,518.896,522.161,528.303,531.18,533.011,535.417,539.541,542.418,544.179,547.055,550.791,553.668,556.074,559.339,565.481,569.217,571.623,573.64" y="91.55799999999999" svg_rhmargin="576.905" style="fill:#171615;font-family:BKMKLN+AdvOTbc475f09;font-size:7.47px;font-style:NORMAL;font-weight:normal;">[24] Knobloch K, Yoon U, Vogt PM. Preferred reporting items for systematic</text>
  <text x="348.433,351.31,354.575,358.311,360.328,363.594,369.347,372.224,374.567,378.303,382.427,386.552,388.909,395.051,398.316,400.722,404.458,406.864,410.599,414.724,418.46,420.477,424.213,427.09,430.355,433.232,435.62,438.025,442.15,447.515,449.921,453.656,461.128,466.493,468.899,471.22,474.096,476.502,480.238,482.644,485.909,492.138,495.403,499.527,501.933,504.213,507.949,512.073,516.198,518.555,522.679,526.804,530.928,532.946,534.963,538.228,541.964,544.37,546.388,550.512,554.637,556.99,561.115,563.132,566.868,569.744,571.7610000000001,574.11" y="100.51499999999999" svg_rhmargin="576.987" style="fill:#171615;font-family:BKMKLN+AdvOTbc475f09;font-size:7.47px;font-style:NORMAL;font-weight:normal;">reviews and meta-analyses (PRISMA) statement and publication bias. J</text>
  <text x="348.433,353.798,356.675,360.411,364.535,366.552,370.677,376.819,380.632,384.757,386.774,388.792,390.809,394.933,397.339,401.075,404.34,406.879,410.615,414.74,417.616,421.352,423.829,427.953,432.078,436.202,440.327,442.423,446.547,450.671,452.689,456.813" y="109.47199999999998" svg_rhmargin="460.937" style="fill:#171615;font-family:BKMKLN+AdvOTbc475f09;font-size:7.47px;font-style:NORMAL;font-weight:normal;">Craniomaxillofac Surg 2011;39:91</text>
  <text x="460.968" y="109.47199999999998" svg_rhmargin="464.704" style="fill:#171615;font-family:BKMKLP+AdvOTbc475f09+20;font-size:7.47px;font-style:NORMAL;font-weight:normal;">–</text>
  <text x="464.71,468.835" y="109.47199999999998" svg_rhmargin="470.852" style="fill:#171615;font-family:BKMKLN+AdvOTbc475f09;font-size:7.47px;font-style:NORMAL;font-weight:normal;">2.</text>
  <text x="332.049,334.455,338.58,342.704,345.11,348.433,352.946,356.211,359.087,363.212,365.496,370.009,372.026,374.34,379.704,382.969,387.094,391.218,393.236,396.501,398.772,404.526,406.543,408.863,413.764,417.889,421.154,423.432,428.797,432.921,436.187,440.311,443.188,446.923,451.048,454.313,456.595,461.96,466.084,468.102,470.119,473.855,477.979,482.104,484.98,488.794,491.2,493.217,497.342,501.466,505.59,508.467,511.732,515.857,519.593,522.469,524.487,528.611,532.347,534.364,536.695,542.837,546.573,548.59,552.714,555.12,558.856,560.874,564.998,567.016,571.14,574.876" y="118.42899999999997" svg_rhmargin="576.893" style="fill:#171615;font-family:BKMKLN+AdvOTbc475f09;font-size:7.47px;font-style:NORMAL;font-weight:normal;">[25] Bero L, Rennie D. The Cochrane CollaborationPreparing, maintaining,</text>
  <text x="348.433,352.169,356.294,360.419,362.209,366.334,368.352,371.228,374.105,377.37,383.512,385.529,389.654,393.39,395.796,397.813,401.937,405.673,407.504,410.38,414.116,416.993,419.399,422.664,428.806,432.542,434.948,436.965,440.22999999999996,442.027,444.903,448.168,451.904,453.922,457.187,462.94,465.817,467.65,471.775,474.181,475.927,478.333,482.457,485.722,487.492,490.757,493.163,495.569,498.834,502.099,504.505,507.382,509.146,513.271,515.6769999999999,517.48,521.604,524.869,528.605,530.623,533.029,537.154,538.908,542.173,545.909,548.786,552.051,554.0680000000001,555.858,558.735,564.099,571.571" y="127.38699999999994" svg_rhmargin="576.936" style="fill:#171615;font-family:BKMKLN+AdvOTbc475f09;font-size:7.47px;font-style:NORMAL;font-weight:normal;">and disseminating systematic reviews of the effects of health care. JAMA</text>
  <text x="348.433,352.558,356.682,360.807,364.931,366.948,371.073,375.197,379.322,381.426,385.55,389.675,393.799" y="136.34400000000005" svg_rhmargin="397.923" style="fill:#171615;font-family:BKMKLN+AdvOTbc475f09;font-size:7.47px;font-style:NORMAL;font-weight:normal;">1995;274:1935</text>
  <text x="397.926" y="136.34400000000005" svg_rhmargin="401.662" style="fill:#171615;font-family:BKMKLP+AdvOTbc475f09+20;font-size:7.47px;font-style:NORMAL;font-weight:normal;">–</text>
  <text x="401.668,405.793" y="136.34400000000005" svg_rhmargin="407.81" style="fill:#171615;font-family:BKMKLN+AdvOTbc475f09;font-size:7.47px;font-style:NORMAL;font-weight:normal;">8.</text>
  <text x="332.049,334.455,338.58,342.704,345.11,348.433,354.657,356.674,360.41,364.146,366.163,370.288,373.165,375.756,378.633,382.757,384.774,387.321,392.223,396.347,400.471,406.613,410.738,413.614,417.739,421.864,424.452,428.188,433.941,435.95799999999997,438.511,444.264,447.53,450.795,454.919,457.796,460.336,463.213,466.089,468.106,470.654,473.919,476.325,478.874,482.61,484.628,486.645,489.192,496.664,499.929,503.665,506.542,510.666,513.543,515.56,519.685,523.4209999999999,525.983,528.0,532.125,535.39,539.514,543.639,546.515,548.533,551.409,553.815,557.081,561.299,564.564,568.3,570.823,572.841" y="145.35799999999995" svg_rhmargin="576.965" style="fill:#171615;font-family:BKMKLN+AdvOTbc475f09;font-size:7.47px;font-style:NORMAL;font-weight:normal;">[26] Higgins JP, Thompson SG, Deeks JJ, et al. Measuring inconsistency in</text>
  <text x="348.433,354.575,357.84,360.246,363.982,366.388,370.124,374.34,378.075,380.093,383.829,386.705,389.971,392.847,394.864,397.355,401.868,409.34,412.217,414.758,418.883,423.007,427.132,431.256,433.273,437.398,441.522,445.647,447.664,451.788,455.913" y="154.31500000000005" svg_rhmargin="460.037" style="fill:#171615;font-family:BKMKLN+AdvOTbc475f09;font-size:7.47px;font-style:NORMAL;font-weight:normal;">meta-analyses. BMJ 2003;327:557</text>
  <text x="460.061" y="154.31500000000005" svg_rhmargin="463.797" style="fill:#171615;font-family:BKMKLP+AdvOTbc475f09+20;font-size:7.47px;font-style:NORMAL;font-weight:normal;">–</text>
  <text x="463.803,467.928,472.054" y="154.31500000000005" svg_rhmargin="474.071" style="fill:#171615;font-family:BKMKLN+AdvOTbc475f09;font-size:7.47px;font-style:NORMAL;font-weight:normal;">60.</text>
  <text x="332.05,334.456,338.58,342.705,345.111,348.433,354.187,357.452,360.328,364.064,366.082,372.224,376.438,380.562,382.579,386.315,390.44,393.104,398.469,400.486,403.138,407.651,411.387,413.404,416.281,420.406,423.092,429.234,431.251,433.92,441.391,444.657,447.063,450.798,453.204,456.94,461.065,464.801,466.818,470.554,473.431,475.448,478.325,481.084,483.101,487.226,489.871,493.136,495.153,497.171,501.295,503.313,506.578,510.314,512.331,515.04,517.446,520.323,522.34,526.076,528.094,530.97,532.9870000000001,535.675,541.04,545.164,549.289,551.695,554.571,558.696,560.7130000000001,563.396,568.761,570.779,572.796" y="163.27200000000005" svg_rhmargin="576.92" style="fill:#171615;font-family:BKMKLN+AdvOTbc475f09;font-size:7.47px;font-style:NORMAL;font-weight:normal;">[27] DerSimonian R, Laird N. Meta-analysis in clinical trials. Control Clin</text>
  <text x="348.434,353.336,356.212,358.23,361.966,363.983,366.86,369.409,373.533,377.658,381.782,385.907,387.924,392.048,394.066,398.19,402.315" y="172.22900000000004" svg_rhmargin="406.439" style="fill:#171615;font-family:BKMKLN+AdvOTbc475f09;font-size:7.47px;font-style:NORMAL;font-weight:normal;">Trials 1986;7:177</text>
  <text x="406.487" y="172.22900000000004" svg_rhmargin="410.223" style="fill:#171615;font-family:BKMKLP+AdvOTbc475f09+20;font-size:7.47px;font-style:NORMAL;font-weight:normal;">–</text>
  <text x="410.229,414.354,418.479" y="172.22900000000004" svg_rhmargin="420.496" style="fill:#171615;font-family:BKMKLN+AdvOTbc475f09;font-size:7.47px;font-style:NORMAL;font-weight:normal;">88.</text>
  <text x="332.05,334.456,338.58,342.705,345.111,348.433,355.905,359.641,363.765,366.171,369.437,371.454,374.056,380.198,382.215,384.771,390.995,394.731,397.996,402.12,404.997,408.262,411.527,413.544,416.176,423.648,425.665,428.195,431.931,434.337,438.072,440.478,442.496,445.372,447.778,449.796,453.061,456.797,458.814,461.414,465.15,468.026,472.151,475.416,478.76,481.166,484.043,486.583,490.707,493.113,495.654,498.06,502.184,505.449,508.012,511.748,515.872,519.608,521.626,525.362,528.306,530.324,533.2009999999999,535.733,539.857,542.2629999999999,544.803,548.928,552.664,555.07,558.806,561.413,563.819,566.696,570.82" y="181.187" svg_rhmargin="576.962" style="fill:#171615;font-family:BKMKLN+AdvOTbc475f09;font-size:7.47px;font-style:NORMAL;font-weight:normal;">[28] Mantel N, Haenszel W. Statistical aspects of the analysis of data from</text>
  <text x="348.434,351.311,354.576,356.982,359.858,363.983,366.86,370.984,374.34,377.605,380.011,382.029,385.765,389.03,391.517,394.394,396.8,400.924,405.049,407.066,410.331,413.208,415.78,419.904,422.31,424.794,428.918,430.935,433.812,437.077,440.813,443.69,446.955,448.972,451.494,454.37100000000004,456.88,463.022,466.758,469.164,471.181,473.717,479.081,482.817,486.942,490.207,493.472,496.349,498.886,501.292,505.416,508.293,510.699,513.171,517.296,521.42,525.545,529.669,531.687,535.811,539.936,542.025,546.15,550.274" y="190.144" svg_rhmargin="554.398" style="fill:#171615;font-family:BKMKLN+AdvOTbc475f09;font-size:7.47px;font-style:NORMAL;font-weight:normal;">retrospective studies of disease. J Natl Cancer Inst 1959;22:719</text>
  <text x="554.398" y="190.144" svg_rhmargin="558.134" style="fill:#171615;font-family:BKMKLP+AdvOTbc475f09+20;font-size:7.47px;font-style:NORMAL;font-weight:normal;">–</text>
  <text x="558.14,562.264,566.389" y="190.144" svg_rhmargin="568.406" style="fill:#171615;font-family:BKMKLN+AdvOTbc475f09;font-size:7.47px;font-style:NORMAL;font-weight:normal;">48.</text>
  <text x="332.05,334.456,338.58,342.705,345.111,348.433,352.558,356.294,358.7,361.576,365.701,369.825,373.949,378.074,380.179,384.303,387.18,388.739,394.881,400.246,402.263,403.932,408.444,412.18,415.916,420.041,423.777,427.042,429.059,433.184,437.309,438.908,443.421,445.438,447.071,449.477,453.601,457.337,461.461,465.586,467.603,471.728,473.745,476.622,478.249,481.126,485.25,487.267,488.85,492.586,495.851,499.975,502.852,504.949,507.355,509.373,513.109,515.126,517.532,521.268,522.863,526.988,529.394,531.027,535.151,538.417,540.822,546.576,549.841,553.106,557.231,559.637,562.513,564.919,569.044,573.168" y="199.101" svg_rhmargin="576.904" style="fill:#171615;font-family:BKMKLN+AdvOTbc475f09;font-size:7.47px;font-style:NORMAL;font-weight:normal;">[29] Patsopoulos NA, Evangelou E, Ioannidis JP. Sensitivity of between-study</text>
  <text x="348.434,352.558,355.824,358.23,361.495,364.371,368.496,372.232,375.587,379.712,382.977,384.994,387.4,391.13599999999997,393.614,395.632,399.757,402.232,408.374,411.639,414.045,417.78,420.186,423.922,428.047,431.783,433.8,437.536,440.413,442.537,445.413,447.43,449.906,454.031,456.907,461.032,465.156,469.281,472.157,475.422,479.547,482.048,488.19,491.455,493.861,496.738,498.755,502.02,504.897,507.445,511.181,515.305,519.43,521.901,525.166,531.308,535.432,537.45,540.326,542.344,545.609,549.345,551.3620000000001,553.93,557.195,560.931,564.667,566.684,570.808,574.544" y="208.115" svg_rhmargin="576.95" style="fill:#171615;font-family:BKMKLN+AdvOTbc475f09;font-size:7.47px;font-style:NORMAL;font-weight:normal;">heterogeneity in meta-analysis: proposed metrics and empirical evalua-</text>
  <text x="348.434,350.84,352.857,356.982,361.106,363.123,365.668,368.074,372.198,374.604,377.119,379.99600000000004,382.505,387.018,391.143,393.16,397.285,400.55,406.692,408.709,412.833,414.85,417.369,421.493,425.618,429.742,433.867,435.884,440.008,444.133,446.223,450.347,454.471,458.596" y="217.072" svg_rhmargin="462.72" style="fill:#171615;font-family:BKMKLN+AdvOTbc475f09;font-size:7.47px;font-style:NORMAL;font-weight:normal;">tion. Int J Epidemiol 2008;37:1148</text>
  <text x="462.726" y="217.072" svg_rhmargin="466.462" style="fill:#171615;font-family:BKMKLP+AdvOTbc475f09+20;font-size:7.47px;font-style:NORMAL;font-weight:normal;">–</text>
  <text x="466.468,470.594,474.719" y="217.072" svg_rhmargin="476.736" style="fill:#171615;font-family:BKMKLN+AdvOTbc475f09;font-size:7.47px;font-style:NORMAL;font-weight:normal;">57.</text>
  <text x="332.05,334.456,338.58,342.705,345.111,348.433,354.657,358.393,361.27,365.394,369.519,372.469,376.594,380.123,385.487,392.959,394.976,398.603,404.827,408.563,411.44,414.317,416.334,419.211,422.81,428.175,431.051,433.068,436.698,440.434,442.84,446.105,448.982,453.106,456.371,459.998,462.874,468.239,473.604,475.621,479.215,484.58,488.704,492.829,496.565,498.971,502.236,506.361,509.997,512.403,515.668,518.544,520.95,523.827,527.457,529.863,533.987,536.8639999999999,540.439,543.316,549.458,553.194,555.211,557.228,559.634,562.511,564.917,569.041,573.261" y="226.029" svg_rhmargin="576.997" style="fill:#171615;font-family:BKMKLN+AdvOTbc475f09;font-size:7.47px;font-style:NORMAL;font-weight:normal;">[30] Harbord RM, Harris RJ, Sterne JAC. Updated tests for small-study</text>
  <text x="348.434,351.699,354.105,356.511,359.776,363.041,365.447,368.324,370.883,372.9,377.025,379.5,385.642,388.907,391.313,395.049,397.455,401.191,405.406,409.142,411.16,414.896,417.772,421.037,423.914,425.931,428.422,432.158,434.564,438.3,440.78,444.51599999999996,446.959,449.836,452.345,456.469,460.594,464.718,468.843,470.86,474.985,477.002,481.2,485.324" y="234.98699999999997" svg_rhmargin="489.448" style="fill:#171615;font-family:BKMKLN+AdvOTbc475f09;font-size:7.47px;font-style:NORMAL;font-weight:normal;">effects in meta-analyses. Stata J 2009;9:197</text>
  <text x="489.428" y="234.98699999999997" svg_rhmargin="493.164" style="fill:#171615;font-family:BKMKLP+AdvOTbc475f09+20;font-size:7.47px;font-style:NORMAL;font-weight:normal;">–</text>
  <text x="493.17,497.295,501.421,505.546" y="234.98699999999997" svg_rhmargin="507.563" style="fill:#171615;font-family:BKMKLN+AdvOTbc475f09;font-size:7.47px;font-style:NORMAL;font-weight:normal;">210.</text>
  <text x="332.05,334.456,338.58,342.705,345.111,348.433,352.946,356.682,360.418,363.683,366.56,370.032,377.504,379.521,383.014,388.768,392.503,396.239,399.505,403.241,406.71,410.446,416.588,418.605,421.011,425.136,428.649,434.402,436.419,439.93,443.666,446.931,451.055,455.18,458.445,460.462,464.587,467.852,470.729,474.226,481.698,483.715,487.208,490.474,492.88,496.336,500.072,502.089,504.106,507.561,512.074,514.091,517.827,520.704,524.228,526.245,530.37,533.809,539.951,543.216,545.622,549.358,551.763,555.499,559.624,563.36,565.377,569.113,571.99,574.114" y="243.94399999999996" svg_rhmargin="576.991" style="fill:#171615;font-family:BKMKLN+AdvOTbc475f09;font-size:7.47px;font-style:NORMAL;font-weight:normal;">[31] Egger M, Davey Smith G, Schneider M, et al. Bias in meta-analysis</text>
  <text x="348.434,352.558,355.824,358.23,361.495,364.76,367.166,370.431,374.556,377.118,381.243,384.979,387.493,391.229,393.729,396.605,398.623,404.765,408.889,410.906,414.172,416.189,418.729,422.465,425.341,429.077,433.202,437.326,439.343,442.608,446.344,448.361,450.871,453.277,456.542,459.419,461.824,463.841,466.403,470.916,478.388,481.265,483.75,487.874,491.999,496.123,500.247,502.265,506.389,510.514,514.638,516.655,520.78,524.904" y="252.90099999999995" svg_rhmargin="529.028" style="fill:#171615;font-family:BKMKLN+AdvOTbc475f09;font-size:7.47px;font-style:NORMAL;font-weight:normal;">detected by a simple, graphical test. BMJ 1997;315:629</text>
  <text x="529.113" y="252.90099999999995" svg_rhmargin="532.849" style="fill:#171615;font-family:BKMKLP+AdvOTbc475f09+20;font-size:7.47px;font-style:NORMAL;font-weight:normal;">–</text>
  <text x="532.855,536.98,541.106" y="252.90099999999995" svg_rhmargin="543.123" style="fill:#171615;font-family:BKMKLN+AdvOTbc475f09;font-size:7.47px;font-style:NORMAL;font-weight:normal;">34.</text>
  <text svg_rhmargin="511.039" x="332.05,334.456,338.58,342.705,345.111,348.433,355.905,359.17,361.188,365.312,369.436,373.172,377.297,381.421,383.438,385.11,389.623,395.376,397.393,398.999,404.752,408.876,412.612,416.348,418.365,420.03,423.766,425.783,427.4,433.153,436.418,440.543,443.808,446.684,450.42,452.438,454.455,457.72,461.456,463.862,465.879,470.004,474.129,475.811,479.936,482.342,483.975,486.381,489.258,491.275,497.417,499.055,502.791,506.915,511.04" y="261.91499999999996" style="fill:#171615;font-family:BKMKLN+AdvOTbc475f09;font-size:7.47px;font-style:NORMAL;font-weight:normal;">[32] Weinhandl ED, Duval S. Generalization of trim and </text>
  <text x="512.672" y="261.91499999999996" svg_rhmargin="516.796" style="fill:#171615;font-family:BKMKMA+AdvOTbc475f09+fb;font-size:7.47px;font-style:NORMAL;font-weight:normal;">ﬁ</text>
  <text x="516.811,518.828,520.845,522.423,524.829,528.953,531.8299999999999,533.478,537.214,541.338,545.462,547.48,549.497,552.762,556.498,558.904,560.922,565.046,569.171,570.835,572.853" y="261.91499999999996" svg_rhmargin="576.977" style="fill:#171615;font-family:BKMKLN+AdvOTbc475f09;font-size:7.47px;font-style:NORMAL;font-weight:normal;">ll for application in</text>
  <text x="348.434,354.576,357.841,360.247,363.983,366.389,369.352,372.617,376.353,379.23,382.495,385.372,388.248,390.266,394.39,398.514,400.531,403.081,408.447,411.712,414.589,417.084,420.82,424.556,428.68,431.086,435.211,437.719,445.191,448.456,450.862,454.986,459.111,463.235,466.112,468.671,472.795,476.92,481.044,485.168,487.186,491.31,493.328,497.452" y="270.87199999999996" svg_rhmargin="501.576" style="fill:#171615;font-family:BKMKLN+AdvOTbc475f09;font-size:7.47px;font-style:NORMAL;font-weight:normal;">meta-regression. Res Synth Methods 2012;3:51</text>
  <text x="501.617" y="270.87199999999996" svg_rhmargin="505.353" style="fill:#171615;font-family:BKMKLP+AdvOTbc475f09+20;font-size:7.47px;font-style:NORMAL;font-weight:normal;">–</text>
  <text x="505.359,509.484,513.609" y="270.87199999999996" svg_rhmargin="515.626" style="fill:#171615;font-family:BKMKLN+AdvOTbc475f09;font-size:7.47px;font-style:NORMAL;font-weight:normal;">67.</text>
  <text x="332.05,334.456,338.58,342.705,345.111,348.433,352.558,356.294,360.419,362.095,367.461,369.478,371.11,376.012,378.889,380.906,385.031,388.767,390.784,392.802,397.017,401.142,404.019,405.634,410.536,415.901,417.918,419.58,424.944,428.68,432.416,436.152,440.277,444.466,447.343,451.079,452.686,456.811,462.176,464.193,465.895,469.16,471.56600000000003,473.208,476.944,478.962,480.979,482.619,487.132,491.257,494.522,498.258,500.275,501.95,503.968,505.985,508.391,511.656,514.533,518.269,520.675,524.799,527.676,530.941,532.619,536.744,538.761,542.497,545.3739999999999,547.075,549.092,553.217,554.842,558.578,561.843,565.967,569.233,571.638,573.656" y="279.82899999999995" svg_rhmargin="576.921" style="fill:#171615;font-family:BKMKLN+AdvOTbc475f09;font-size:7.47px;font-style:NORMAL;font-weight:normal;">[33] Pan Z, Trikalinos TA, Kavvoura FK, et al. Local literature bias in genetic</text>
  <text x="348.435,351.7,355.824,357.841,361.966,365.231,371.45,373.467,377.592,379.609,383.733,387.469,391.205,393.222,396.223,399.959,404.084,407.108,410.373,416.515,420.639,422.656,425.533,427.55,430.816,434.551,436.568,439.646,442.912,446.648,450.383,452.401,456.525,460.261,462.667,464.684,468.809,472.934,475.927,480.052,482.458,485.508,487.914,492.039,495.304,498.32,503.685,507.809,509.827,513.951,517.216,520.093,523.358,526.381,528.399,530.416,532.822,536.087,538.964,542.7,545.106,549.23,552.107,555.372,557.389,560.451,564.576,569.089,573.213" y="288.8" svg_rhmargin="576.949" style="fill:#171615;font-family:BKMKLN+AdvOTbc475f09;font-size:7.47px;font-style:NORMAL;font-weight:normal;">epidemiology: an empirical evaluation of the Chinese literature. PLoS</text>
  <text x="348.435,355.906,359.171,363.296,365.838,369.962,374.087,378.211,382.335,384.353,388.477,390.495,393.76,397.884,402.009,406.133" y="297.757" svg_rhmargin="408.15" style="fill:#171615;font-family:BKMKLN+AdvOTbc475f09;font-size:7.47px;font-style:NORMAL;font-weight:normal;">Med 2005;2:e334.</text>
  <text svg_rhmargin="175.936" x="71.887,75.872,77.283,79.937,84.001,86.32000000000001,88.951,93.016,94.426,96.578,99.212,105.763,109.828,114.387,115.798,119.862,121.273,125.505,129.57,132.206,134.111,138.51,142.91,147.309,151.709,153.614,156.186,160.585,164.985,167.137,171.536,175.935" y="9.870999999999981" style="fill:#171615;font-family:BKMKKG+AdvOT6e5d2ec0;font-size:7.97px;font-style:NORMAL;font-weight:normal;">Ji et al. Medicine (2018) 97:32 </text>
  <text x="542.723,549.944,554.503,559.317,561.31,565.869,567.861,572.508" y="9.870999999999981" svg_rhmargin="577.067" style="fill:#171615;font-family:BKMKKF+AdvOT34fe1490.B;font-size:7.97px;font-style:NORMAL;font-weight:normal;">Medicine</text>
  <text x="320.032,324.432" y="739.625" svg_rhmargin="328.832" style="fill:#171615;font-family:BKMLGD+AdvOTf94803d4;font-size:7.97px;font-style:NORMAL;font-weight:normal;">12</text>
 </g>
</svg>
