<?xml version="1.0" encoding="UTF-8"?>
<svg height="750.472" width="550.8953450875" xmlns="http://www.w3.org/2000/svg">
 <g style="fill:none;">
  <text x="56.693,61.789,66.169,69.325,76.253,80.633,85.014,90.42399999999999,94.225,97.998,101.153,106.455,111.659,114.207,118.587,122.458,124.594,128.354,131.617,134.469,138.275,141.431,146.732,151.201,154.876,159.257,163.05,169.881,174.389,178.162,181.929,186.31,190.149,192.697,197.077,200.752,205.447,209.828,213.733,218.114,220.662,223.21,228.701,231.249,235.629,240.01,242.558,246.389,251.69,256.071,259.226,263.607,267.282,272.378,277.173,281.554,286.963" y="260.45399999999995" svg_rhmargin="290.53" style="fill:#131413;font-family:FCMIGM+KvhklmAdvTT86d47313;font-size:9.8px;font-style:NORMAL;font-weight:normal;">between studies. If there was a large clinical heterogen-</text>
  <text x="56.693,61.073,63.621,66.777,71.158,73.294,78.576,82.957,88.214,91.889,96.27,101.679,106.883,111.979,120.142,123.817,128.198,131.05,133.901,138.445,142.825,146.098,149.871,155.112,163.276,168.372,173.575,177.956,180.504,185.783,192.614,197.122,200.895,206.135,210.516,215.72,220.924,223.472,226.019,230.4,235.604,240.945,244.1,249.196,254.437,259.641,264.737,269.833,272.38100000000003,277.682,280.837,286.139" y="272.472" svg_rhmargin="290.52" style="fill:#131413;font-family:FCMIGM+KvhklmAdvTT86d47313;font-size:9.8px;font-style:NORMAL;font-weight:normal;">eity, a random-effects model was applied to pool the</text>
  <text svg_rhmargin="126.504" x="56.693,61.789,67.091,70.246,74.627,79.824,87.987,92.368,96.322,101.525,105.906,109.062,113.442,115.57799999999999,119.566,126.504" y="284.491" style="fill:#131413;font-family:FCMIGM+KvhklmAdvTT86d47313;font-size:9.8px;font-style:NORMAL;font-weight:normal;">outcome data. A </text>
  <text svg_rhmargin="135.958" x="130.45,135.958" y="284.491" style="fill:#131413;font-family:FCMNCG+XpjqrfAdvTT8861b38f.I;font-size:9.8px;font-style:NORMAL;font-weight:normal;">P </text>
  <text x="140.088,144.576,148.957,151.505,156.807,161.188,165.146,170.44799999999998,172.403,177.303,179.44,184.34,189.24,193.209,200.04,204.548,208.321,212.258,216.639,221.735,227.226,230.999,233.547,238.751,243.131,246.806,251.187,256.391,260.392,264.165,267.32,271.701,274.856,277.404,281.177,284.333,286.881" y="284.491" svg_rhmargin="290.448" style="fill:#131413;font-family:FCMIGM+KvhklmAdvTT86d47313;font-size:9.8px;font-style:NORMAL;font-weight:normal;">value &lt; 0.05 was considered statisti-</text>
  <text x="56.693,61.073,65.454,68.002,70.55,74.931,79.37,83.143,85.691,90.385,95.868,98.416,101.268,103.816,108.196,112.577,117.986,121.142,123.27799999999999,127.786,134.725,137.273,139.821,144.228,148.001,151.156,155.537,158.692,161.24,165.013,168.169,170.717,175.097,179.478,182.026,186.578,190.958,196.368,200.748,203.296,207.677,211.45,215.831,219.60399999999998,224.052,230.882,235.263,239.019,243.4,247.807,253.01,257.391,261.066,263.918,269.014,272.689,280.852,285.337" y="296.453" svg_rhmargin="290.541" style="fill:#131413;font-family:FCMIGM+KvhklmAdvTT86d47313;font-size:9.8px;font-style:NORMAL;font-weight:normal;">cally significant. All statistical analyses were performed</text>
  <text x="56.693,61.995,65.768,68.316,73.725,78.419,82.034,87.032,90.188,94.569,97.724,102.105,105.676,110.576,115.54,117.677,122.57700000000001,126.085,129.241,134.239,137.48,141.861,145.016,149.397,152.957,159.592,164.688,168.363,173.566,175.703,177.839,181.474,188.109,193.205,195.753,198.3,202.681,207.375,211.756,215.377,220.375,223.53,227.911,231.066,233.614,238.71,244.12,246.256,249.393,255.92,262.652,265.808,267.944,271.504,276.502,281.879,286.975" y="308.471" svg_rhmargin="290.542" style="fill:#131413;font-family:FCMIGM+KvhklmAdvTT86d47313;font-size:9.8px;font-style:NORMAL;font-weight:normal;">using Stata 12.0 (Stata Corp., College Station, TX). Sub-</text>
  <text x="56.693,61.387,65.062,70.158,75.46,80.66399999999999,85.153,89.533,95.017,99.398,101.946,106.326,110.099,112.647,116.42,120.926,127.757,132.265,136.03799999999998,140.485,143.337,148.639,152.391,155.546,160.848,165.229,168.90400000000002,173.368,178.571,182.952,186.627,189.479,194.684,198.359,206.523,210.903,216.107,220.593,224.974,229.354,233.735,238.831,242.506,247.806,250.354,255.763,260.457,264.927,268.083,273.17900000000003,277.683,280.838,286.14" y="320.49" svg_rhmargin="290.521" style="fill:#131413;font-family:FCMIGM+KvhklmAdvTT86d47313;font-size:9.8px;font-style:NORMAL;font-weight:normal;">group analysis was further performed according to the</text>
  <text x="56.693,59.545,64.641,67.189,69.737,74.833,81.663,84.211,89.745,94.43900000000001,97.739,102.227,106.608,110.283,112.831,117.298,122.394,124.942,129.323,133.229,135.365,138.615,142.29,144.838,148.611,153.511,156.757,161.853,164.705,168.266,173.362,175.91,180.398,184.171,187.428,190.583,193.131,198.227,205.058,208.347,213.443,217.11800000000002,220.366,225.668,231.077,235.458,238.006,242.386,246.767,250.442,254.009,259.427,261.975,266.669,271.971,275.127,277.26300000000003,280.518,283.781" y="332.452" svg_rhmargin="290.514" style="fill:#131413;font-family:FCMIGM+KvhklmAdvTT86d47313;font-size:9.8px;font-style:NORMAL;font-weight:normal;">following variables: risk of bias (low or unclear/high), IV</text>
  <text x="56.693,63.22,69.952,76.89,80.731,85.935,91.031,94.804,99.185,103.011" y="344.47" svg_rhmargin="106.167" style="fill:#131413;font-family:FCMIGM+KvhklmAdvTT86d47313;font-size:9.8px;font-style:NORMAL;font-weight:normal;">TXA dose (</text>
  <text svg_rhmargin="111.595" x="106.185,111.595" y="344.47" style="fill:#131413;font-family:FCNEAN+FknhhmAdvTT86d47313+22;font-size:9.8px;font-style:NORMAL;font-weight:normal;">≥ </text>
  <text x="113.556,118.456,122.23,126.924,130.677,135.773,139.448,143.263,148.565,150.52,155.42000000000002,159.194,163.888,167.044,169.18,172.971,176.126,181.304,186.508,189.056,193.437,197.817,200.365,204.152,209.356,214.527,218.3,222.681,226.433" y="344.47" svg_rhmargin="229.589" style="fill:#131413;font-family:FCMIGM+KvhklmAdvTT86d47313;font-size:9.8px;font-style:NORMAL;font-weight:normal;">2 g or &lt; 2 g), topical dose (</text>
  <text svg_rhmargin="235.016" x="229.606,235.016" y="344.47" style="fill:#131413;font-family:FCNEAN+FknhhmAdvTT86d47313+22;font-size:9.8px;font-style:NORMAL;font-weight:normal;">≥ </text>
  <text x="236.977,241.877,245.651,250.345,254.155,259.251,262.926,266.741,272.043,273.998,278.89799999999997,282.672,287.366" y="344.47" svg_rhmargin="290.522" style="fill:#131413;font-family:FCMIGM+KvhklmAdvTT86d47313;font-size:9.8px;font-style:NORMAL;font-weight:normal;">2 g or &lt; 2 g)</text>
  <text x="56.694,61.074,66.484,71.68799999999999,76.82,79.976,83.65,88.031,93.441,97.214,100.178,105.48,109.253,111.801,116.897,122.307,127.447,132.651,136.326,141.422,144.577,149.673,154.15,159.246,161.794,166.906,170.061,173.834,176.99,180.665,183.213,187.593,190.749,195.933,201.029,204.704,209.879,212.427,217.523,222.619,226.392,230.772,233.928,236.064,241.231,251.129,255.51,260.79,265.17,269.551,272.706,277.087,281.781,286.982" y="356.489" svg_rhmargin="290.549" style="fill:#131413;font-family:FCMIGM+KvhklmAdvTT86d47313;font-size:9.8px;font-style:NORMAL;font-weight:normal;">and transfusion protocol (strict or loose). We catego-</text>
  <text svg_rhmargin="279.905" x="56.694,60.369,62.917,67.199,71.58,76.78399999999999,80.108,83.263,88.565,92.946,95.755,102.282,109.015,115.953,119.283,124.487,129.583,133.356,137.737,141.053,146.149,149.001,152.278,157.178,162.078,165.374,173.537,178.231,181.872,186.772,191.46599999999998,194.741,197.289,202.699,205.854,210.95000000000002,214.244,217.4,222.701,227.082,230.401,234.174,239.476,244.572,249.266,253.022,258.118,263.42,268.624,271.958,277.053,279.905" y="368.451" style="fill:#131413;font-family:FCMIGM+KvhklmAdvTT86d47313;font-size:9.8px;font-style:NORMAL;font-weight:normal;">rized the TXA dose of 30 mg/kg into the subgroup of </text>
  <text x="283.181" y="368.451" svg_rhmargin="288.591" style="fill:#131413;font-family:FCNEAN+FknhhmAdvTT86d47313+22;font-size:9.8px;font-style:NORMAL;font-weight:normal;">≥</text>
  <text x="56.694,61.594,65.481,70.176,72.312,76.253,81.251,85.632,91.042,94.815,97.362,100.518,103.066,107.661,110.209,113.365,117.746,121.664,126.045,131.454,135.835,138.383,142.763,146.536,149.084,152.857,156.87,163.701,168.209,171.982,175.863,180.243,182.791,186.564,191.66,195.649,200.852,205.233,208.908,211.76,216.856,220.531,228.694,233.179,238.383,242.25,247.346,251.727,255.687,260.783,268.946,271.494,274.65,277.805,280.353,285.763" y="380.469" svg_rhmargin="290.457" style="fill:#131413;font-family:FCMIGM+KvhklmAdvTT86d47313;font-size:9.8px;font-style:NORMAL;font-weight:normal;">2 g. Sensitivity analysis was also performed by omitting</text>
  <text x="56.694,61.074,65.455,69.836,75.138,78.124,83.22,86.072,89.066,92.221,97.523,101.904,104.883,108.656,111.811,117.113,122.317,124.952,129.333,133.106,136.064,138.612,144.022,146.949,150.105,155.406,159.081,164.491" y="392.488" svg_rhmargin="166.627" style="fill:#131413;font-family:FCMIGM+KvhklmAdvTT86d47313;font-size:9.8px;font-style:NORMAL;font-weight:normal;">each of the studies in turn.</text>
  <text x="56.693,63.105,68.276,72.876,75.176,77.476,80.632,85.232,88.044,93.215,96.08500000000001,98.873,103.565,108.165,110.465,115.727,120.419,125.59,129.702,134.394,137.254,141.854,145.681,149.508,154.2,158.027,161.855,169.61,174.302,179.473" y="416.473" svg_rhmargin="182.629" style="fill:#131413;font-family:FCMIFK+GvlmdfAdvTT99c4c969;font-size:9.2px;font-style:NORMAL;font-weight:normal;">Quality of evidence assessment</text>
  <text x="56.693,66.591,70.972,74.494,79.796,83.569,87.95,93.154,96.662,99.817,105.119,109.5,113.046,120.288,123.963,128.344,133.548,136.096,141.505,146.19899999999998,149.727,154.823,157.675,161.179,167.197,171.724,176.105,181.201,189.364,197.527,201.998,207.408,212.611,216.992,220.147,222.695,227.791,233.293,237.066,240.55,247.579,251.352,255.125,259.506,263.279,267.139,275.302,279.683,285.092,288.399" y="428.491" svg_rhmargin="290.535" style="fill:#131413;font-family:FCMIGM+KvhklmAdvTT86d47313;font-size:9.8px;font-style:NORMAL;font-weight:normal;">We used the Grading of Recommendations Assessment,</text>
  <text x="56.693,63.837,68.371,72.86,77.24,79.788,84.884,90.088,98.251,102.632,108.041,111.197,115.37,119.75,125.16,130.364,134.476,139.805,144.293,148.674,151.222,156.524,160.904,164.06,166.608,171.704,177.114,181.305,184.46,191.702,198.029,204.967,212.111,217.701,220.857,224.901,233.065,237.445,240.601,245.992,251.088,256.291,261.387,263.935,269.122,273.816,278.197,282.275,285.43" y="440.453" svg_rhmargin="290.526" style="fill:#131413;font-family:FCMIGM+KvhklmAdvTT86d47313;font-size:9.8px;font-style:NORMAL;font-weight:normal;">Development and Evaluation (GRADE) methodology to</text>
  <text x="56.693,61.171,64.944,68.717,73.098,76.871,80.64399999999999,84.813,87.968,93.27,97.651,101.82,107.024,112.326,116.788,119.336,121.884,125.039,129.42000000000002,133.569,138.665,141.517,145.645,150.18,154.668,157.216,162.42,166.801,172.21,176.591,180.971,183.107,187.314,193.72,199.022,203.403,207.554,212.089,215.862,219.635,224.015,227.788,231.561,239.812,244.192,249.602,252.758,256.876,259.424,264.834,269.292,271.84,277.142,282.345,286.726" y="452.472" svg_rhmargin="290.499" style="fill:#131413;font-family:FCMIGM+KvhklmAdvTT86d47313;font-size:9.8px;font-style:NORMAL;font-weight:normal;">assess the quality of evidence. The assessment includes</text>
  <text x="56.693,59.545,62.093,66.581,70.962,75.459,78.007,81.162,85.543,93.706,97.626,99.762,104.259,107.934,110.482,114.255,119.155,123.648,128.744,131.596,136.347,141.443,143.991,148.537,152.506,154.642,159.138,161.686,167.096,171.476,176.572,181.982,185.841,188.389,192.162,195.317,199.698,205.108,209.488,213.869,216.005,220.537,223.085,228.495,233.699,236.247,239.922,244.462,248.843,251.998,257.408,261.788,265.561,269.634,271.77000000000004,276.211,278.759,286.922" y="464.49" svg_rhmargin="290.489" style="fill:#131413;font-family:FCMIGM+KvhklmAdvTT86d47313;font-size:9.8px;font-style:NORMAL;font-weight:normal;">five items: risk of bias, inconsistency, indirectness, im-</text>
  <text x="56.693,61.897,65.572,70.073,74.453,77.001,80.774,83.322,88.418,93.828,97.682,102.063,107.472,112.67599999999999,116.448,121.652,126.953,132.049,134.597,137.145,141.62,146.0,149.156,151.704,156.8,162.21,165.998,171.094,173.642,178.187,181.96,184.096,187.881,193.494,197.874,202.255,207.557,211.352,216.448,221.75,224.905,229.286,234.483,242.646,247.027,250.81,257.641,262.149,265.922,269.689,273.364,277.744,280.9,285.28" y="476.452" svg_rhmargin="290.484" style="fill:#131413;font-family:FCMIGM+KvhklmAdvTT86d47313;font-size:9.8px;font-style:NORMAL;font-weight:normal;">precision and publication bias. Each outcome was rated</text>
  <text svg_rhmargin="290.568" x="56.693,61.171,64.944,67.804,73.106,75.654,80.348,85.65,87.786,90.708,98.872,103.968,109.247,113.627,117.302,121.683,124.838,129.219,131.355,134.248,136.796,141.892,148.72299999999998,151.653,156.749,160.424,163.615,168.103,172.484,176.159,180.54,183.401,185.949,191.045,197.971,200.107,202.96,207.958,213.26,221.423,229.587,233.967,237.642,242.023,244.971,248.126,252.507,257.603,260.151,264.531,268.30400000000003,271.22,278.05,282.431,286.187,290.568" y="260.453" style="fill:#131413;font-family:FCMIGM+KvhklmAdvTT86d47313;font-size:9.8px;font-style:NORMAL;font-weight:normal;">as high, moderate, low or very low. Summary tables were </text>
  <text x="304.723,309.104,314.2,319.61,323.382,326.538,330.213,335.622,340.002,343.158,347.538,352.742,359.206,364.508,368.281,370.829,376.327,381.021,387.44,394.682,401.046,407.984,415.128,420.63599999999997,427.124,432.632,436.307,441.403,447.874,452.362,456.742,460.417,464.19,466.738,471.834,477.244,483.761,488.661,490.797,495.697,502.187,505.342,512.584,518.968,525.906,533.05" y="260.453" svg_rhmargin="538.558" style="fill:#131413;font-family:FCMIGM+KvhklmAdvTT86d47313;font-size:9.8px;font-style:NORMAL;font-weight:normal;">constructed using GRADE Pro version 3.6 (GRADE</text>
  <text x="304.723,314.621,319.717,323.392,328.365,330.913,336.322,341.016,343.955,351.198,354.872,359.968,365.27,370.474,373.72" y="272.471" svg_rhmargin="375.856" style="fill:#131413;font-family:FCMIGM+KvhklmAdvTT86d47313;font-size:9.8px;font-style:NORMAL;font-weight:normal;">Working Group).</text>
  <text x="304.724,310.729,316.085,320.483,326.375,329.156,332.905" y="308.473" svg_rhmargin="337.303" style="fill:#131413;font-family:FCMICI+KmmqjcAdvTTaf7f9f4f.B;font-size:10.3px;font-style:NORMAL;font-weight:normal;">Results</text>
  <text x="304.724,309.416,314.108,318.708,321.965,326.078,331.248,334.091,337.348,342.04,345.867,351.038,353.338,356.493" y="320.491" svg_rhmargin="360.32" style="fill:#131413;font-family:FCMIFK+GvlmdfAdvTT99c4c969;font-size:9.2px;font-style:NORMAL;font-weight:normal;">Search results</text>
  <text x="304.724,311.662,314.759,317.611,320.159,325.255,332.086,336.466,341.768,346.281,349.956,353.112,356.202,361.298,364.15,367.257,371.03,374.186,379.488,384.776,389.15700000000004,392.259,396.032,400.413,404.793,408.468,412.849,418.151,421.286,425.667,431.076,436.28000000000003,439.428,443.201,447.581,450.129,454.678,459.059,462.215,464.763,469.858,475.26800000000003,478.377,480.925,484.69800000000004,487.844,493.048,496.723,501.103,504.876,509.257,514.667,517.822,522.313,527.5169999999999,530.59,533.138" y="332.454" svg_rhmargin="538.548" style="fill:#131413;font-family:FCMIGM+KvhklmAdvTT86d47313;font-size:9.8px;font-style:NORMAL;font-weight:normal;">A flowchart of study search and selection is presented in</text>
  <text x="304.724,309.82,312.368,317.062,319.19800000000004,324.623,329.555,331.69100000000003,337.039,346.936,351.317,356.768,359.316,364.519,368.9,374.309,377.465,380.013,382.96,385.508,389.888,395.092,400.478,405.378,410.278,415.178,420.604,424.279,428.66,431.512,435.892,439.567,443.948,449.357,453.738,458.118,461.891,467.376,470.532,476.039,481.341,486.437,495.61,499.99,505.194,510.577,516.29,521.689,526.589,531.489,536.389" y="344.472" svg_rhmargin="538.525" style="fill:#131413;font-family:FCMIGM+KvhklmAdvTT86d47313;font-size:9.8px;font-style:NORMAL;font-weight:normal;">Fig. 1. We identified 320 references (PubMed = 185,</text>
  <text x="304.724,310.232,318.395,323.491,328.026,331.798,336.179,339.647,345.36,348.832,353.732,358.632,360.76800000000003,364.252,374.15,378.53,383.626,387.099,392.195,395.04699999999997,398.552,403.654,408.035,410.583,414.963,420.373,424.754,429.135,432.682,438.39500000000004,441.809,446.709,451.674,453.81,457.229,463.864,468.96,473.34,478.642,482.401,486.782,492.192,496.573,500.033,505.541,508.089,513.185,516.86,521.35,525.025,529.406,532.859" y="356.491" svg_rhmargin="538.572" style="fill:#131413;font-family:FCMIGM+KvhklmAdvTT86d47313;font-size:9.8px;font-style:NORMAL;font-weight:normal;">Embase = 20, Web of Science = 80, Cochrane Library =</text>
  <text x="304.724,309.624,314.524,317.68,321.903,324.451,329.86100000000005,334.035,339.131,344.433,348.108,352.347,354.895,360.304,362.852,366.008,368.556,372.937,375.485,379.73,382.278,384.826,387.981,392.362,396.037,400.417,403.573,408.984,412.659,417.03999999999996,421.229,425.002,429.383,433.764,437.439,441.923,447.225,449.36100000000005,453.545,460.071,465.373,469.754,473.429,477.80999999999995,481.948,488.778,493.159,496.834,501.21500000000003,505.475,510.885,515.981,520.158,524.539,529.743,534.946" y="368.453" svg_rhmargin="538.513" style="fill:#131413;font-family:FCMIGM+KvhklmAdvTT86d47313;font-size:9.8px;font-style:NORMAL;font-weight:normal;">35) in our initial literature search. There were no add-</text>
  <text x="304.724,307.272,310.428,312.976,318.072,323.481,327.862,330.41,335.735,339.41,343.899,348.28,353.376,357.051,362.255,366.028,371.339,373.887,379.091,383.471,388.881,392.036,394.584,397.436,400.082,404.463,409.66700000000003,414.879,418.035,423.336,427.011,432.107,437.499,442.193,447.495,452.75,457.846,461.001,466.303,470.684,474.35900000000004,479.679,483.452,488.548,493.85,497.525,501.905,506.286,510.059,512.195,517.494,524.432,527.284,530.44,534.82" y="380.471" svg_rhmargin="538.495" style="fill:#131413;font-family:FCMIGM+KvhklmAdvTT86d47313;font-size:9.8px;font-style:NORMAL;font-weight:normal;">itional records identified through other sources. After</text>
  <text x="304.724,308.399,312.78,320.943,326.039,330.527,333.075,338.485,343.17900000000003,348.152,353.355,358.657,363.861,366.409,368.957,373.337,377.718,380.873,385.399,389.172,394.016,399.318,403.091,405.639,411.048,415.742,420.662,426.17,431.579,436.783,442.262,447.358,450.513,454.894,459.837,466.57,471.46999999999997,476.335,480.108,485.204,488.056,491.212,498.042,502.527,506.202,510.583,512.719,517.608,520.763,526.065,530.445,534.12" y="392.49" svg_rhmargin="538.501" style="fill:#131413;font-family:FCMIGM+KvhklmAdvTT86d47313;font-size:9.8px;font-style:NORMAL;font-weight:normal;">removing duplicates using Endnote X7 software, there</text>
  <text x="304.724,311.555,315.935,319.61,323.991,328.875,333.775,338.675,343.575,348.434,352.207,355.362,360.664,365.868,368.416,372.796,376.569,381.429,385.104,389.485,397.648,402.123,404.671,410.08,412.628,418.038,422.732,424.86800000000005,429.732,434.73,440.032,445.128,448.9,453.373,458.577,463.879,468.259,473.669,476.824,479.372,483.753,485.889,490.791,495.691,500.591,505.491,510.35,514.123,517.278,522.58,527.784,530.332,534.712" y="404.452" svg_rhmargin="538.485" style="fill:#131413;font-family:FCMIGM+KvhklmAdvTT86d47313;font-size:9.8px;font-style:NORMAL;font-weight:normal;">were 206 studies remaining. Subsequently, 200 studies</text>
  <text x="304.724,311.555,315.935,319.61,323.991,326.892,331.272,336.064,340.445,342.993,348.295,353.498,357.879,363.083,365.953,370.334,374.797,379.178,384.274,387.949,393.153,395.701,401.11,405.80400000000003,408.7,411.856,416.952,419.869,423.025,428.327,432.70799999999997,435.629,438.177,443.587,447.967,450.515,455.817,459.59,462.138,467.234,472.644,475.598,479.979,483.654,486.202,489.357,493.738,497.413,499.961,504.455,506.591,509.444,514.54,517.088,522.498,526.878,529.513,532.061,536.442" y="416.47" svg_rhmargin="538.578" style="fill:#131413;font-family:FCMIGM+KvhklmAdvTT86d47313;font-size:9.8px;font-style:NORMAL;font-weight:normal;">were excluded according to the inclusion criteria. Finally,</text>
  <text x="304.724,309.62399999999997,313.285,316.44,320.115,322.663,327.044,329.592,333.365,337.152,343.983,346.531,349.686,354.988,358.695,363.595,368.495,373.395,377.12,382.324,386.704,389.86,392.408,396.789,402.292,405.524,409.297,413.007,421.171,425.551,428.707,432.453,437.549,442.851,446.526,450.198,452.746,458.156,462.614,465.161,470.463,474.236,476.784,481.88,487.29,491.017,495.397,499.072,501.62,504.776,509.156,512.831,515.379,519.76,523.558,527.939,533.348" y="428.489" svg_rhmargin="538.552" style="fill:#131413;font-family:FCMIGM+KvhklmAdvTT86d47313;font-size:9.8px;font-style:NORMAL;font-weight:normal;">6 trials with 703 patients met our inclusion criteria and</text>
  <text x="304.724,311.555,315.935,319.61,323.991,327.458,330.006,335.416,339.796,342.344,347.646,352.85,357.335,362.539,365.952,368.5,373.91,377.291,380.446,385.748,390.129,393.618,401.782,406.162,409.318,413.698,417.265,421.646,427.055,431.436,433.984,438.365,442.138,444.685,448.458,452.012,455.187,460.087" y="440.45" svg_rhmargin="464.987" style="fill:#131413;font-family:FCMIGM+KvhklmAdvTT86d47313;font-size:9.8px;font-style:NORMAL;font-weight:normal;">were included in the meta-analysis [14</text>
  <text x="464.995" y="440.45" svg_rhmargin="470.914" style="fill:#131413;font-family:FCMJEK+MvxmdyAdvTT86d47313+20;font-size:9.8px;font-style:NORMAL;font-weight:normal;">–</text>
  <text x="470.947,475.847,480.755,483.911,486.047,489.486,495.892,501.194,505.57500000000005,509.044,513.739,518.119,523.529,527.909,531.584,535.965" y="440.45" svg_rhmargin="538.513" style="fill:#0000ff;font-family:FCMIGM+KvhklmAdvTT86d47313;font-size:9.8px;font-style:NORMAL;font-weight:normal;">19]. The general</text>
  <text x="304.724,309.105,314.407,318.787,322.462,326.843,331.223,334.489,338.869,342.544,345.092,348.865,352.021,354.569,358.949,362.72200000000004,368.051,373.147,375.99899999999997,381.261,384.416,389.718,394.09900000000005,399.402,401.95,407.36,411.74,414.288,419.59,424.794,429.174,434.378,439.711,443.484,446.64,451.941,457.145,459.693,464.074,467.84700000000004,473.16,477.541,481.921,487.331,492.606,497.702,502.08299999999997,507.346,511.119,515.5,519.88,525.29,530.59,533.138" y="452.469" svg_rhmargin="538.548" style="fill:#131413;font-family:FCMIGM+KvhklmAdvTT86d47313;font-size:9.8px;font-style:NORMAL;font-weight:normal;">characteristics of the included studies can be seen in</text>
  <text x="304.724,310.337,314.717,319.813,322.361,326.74199999999996,331.653,336.586,338.72200000000004,343.559,350.498,353.046,355.594,360.51,363.666,367.341,369.889,374.269,376.817,380.59000000000003,385.455,392.285,396.666,400.422,404.803,409.664,414.867,420.169,425.265,427.813,430.361,434.134,439.541,443.921,449.125,453.997,458.378,461.23,464.385,468.766,472.44100000000003,477.355,480.511,485.813,490.19399999999996,495.1,499.481,503.861,508.242,511.91700000000003,516.814,521.714,526.614,531.514,536.414" y="464.488" svg_rhmargin="538.55" style="fill:#131413;font-family:FCMIGM+KvhklmAdvTT86d47313;font-size:9.8px;font-style:NORMAL;font-weight:normal;">Table 1. All trials were published after the year 2015.</text>
  <text x="304.724,309.82,312.368,316.857,321.23800000000006,324.68,328.453,331.608,336.91,342.198,344.746,349.127,352.90000000000003,356.315,363.145,367.526,371.201,375.582,379.049,384.252,388.633,392.308,395.16,400.256,403.931,412.094,416.579,421.783,425.14,427.688,433.098,436.535,443.169,448.471,451.019,456.429,461.083,463.21900000000005,466.638,471.019,476.428,481.632,485.064,490.16,495.569,499.95000000000005,503.376,510.207,514.715,518.488,521.914,527.118,531.499,535.011" y="476.449" svg_rhmargin="538.578" style="fill:#131413;font-family:FCMIGM+KvhklmAdvTT86d47313;font-size:9.8px;font-style:NORMAL;font-weight:normal;">Five studies were performed in China, and one was per-</text>
  <text x="304.724,307.576,312.672,316.347,324.51,328.891,334.095,340.555,343.103,348.51300000000003,354.898,362.042,366.423,371.906,380.069,384.449,388.124,393.024,395.16,401.556,408.083,413.385,417.76599999999996,424.12,432.284,436.664,441.045,446.45500000000004,452.864,457.244,461.938,466.31899999999996,472.763,477.859,480.71099999999996,487.106,490.262,495.564,499.94500000000005,506.382,511.586,515.966,519.122,521.67,526.05,531.46,534.785" y="488.468" svg_rhmargin="538.558" style="fill:#131413;font-family:FCMIGM+KvhklmAdvTT86d47313;font-size:9.8px;font-style:NORMAL;font-weight:normal;">formed in Denmark. The mean age of the patients</text>
  <path d=" M 60.71799850463867 702.2550048828125 L 534.5570068359375 702.2550048828125 L 534.5570068359375 702.0280151367188 L 60.71799850463867 702.0280151367188" style="fill:none;stroke:#131413;stroke-width:0.0;"/>
  <path d=" M 534.5570068359375 702.2550048828125 L 535.2940063476562 702.197998046875 C 536.8519897460938 702.0260009765625 538.333984375 700.4860229492188 538.5260009765625 698.9669799804688 L 538.58203125 698.2869873046875 L 538.35498046875 698.2869873046875 L 538.2990112304688 698.9100341796875 C 538.083984375 700.3889770507812 536.7509765625 701.7470092773438 535.2369995117188 701.9719848632812 L 534.5570068359375 702.0280151367188" style="fill:none;stroke:#131413;stroke-width:0.0;"/>
  <path d=" M 538.5830078125 698.2860107421875 L 538.5830078125 566.64501953125 L 538.3560180664062 566.64501953125 L 538.3560180664062 698.2860107421875" style="fill:none;stroke:#131413;stroke-width:0.0;"/>
  <path d=" M 538.5830078125 566.64599609375 L 538.5260009765625 565.9660034179688 C 538.2830200195312 564.3270263671875 536.884033203125 563.02099609375 535.2949829101562 562.677001953125 L 534.5579833984375 562.6209716796875 L 534.5579833984375 562.9039916992188 L 535.238037109375 562.9609985351562 C 536.81201171875 563.2509765625 537.9860229492188 564.3989868164062 538.2999877929688 565.9660034179688 L 538.3560180664062 566.64599609375" style="fill:none;stroke:#131413;stroke-width:0.0;"/>
  <path d=" M 534.5570068359375 562.6199951171875 L 60.718017578125 562.6199951171875 L 60.718017578125 562.9039916992188 L 534.5570068359375 562.9039916992188" style="fill:none;stroke:#131413;stroke-width:0.0;"/>
  <path d=" M 60.717987060546875 562.6199951171875 L 59.980987548828125 562.677001953125 C 58.390987396240234 563.02099609375 56.99298858642578 564.3259887695312 56.748985290527344 565.9649658203125 L 56.69298553466797 566.64501953125 L 56.919986724853516 566.64501953125 L 56.97598648071289 565.9649658203125 C 57.28998565673828 564.39697265625 58.46298599243164 563.25 60.037986755371094 562.9600219726562 L 60.717987060546875 562.9039916992188" style="fill:none;stroke:#131413;stroke-width:0.0;"/>
  <path d=" M 56.69298553466797 566.64599609375 L 56.69298553466797 698.2869873046875 L 56.919986724853516 698.2869873046875 L 56.919986724853516 566.64599609375" style="fill:none;stroke:#131413;stroke-width:0.0;"/>
  <path d=" M 56.69298553466797 698.2860107421875 L 56.74998474121094 698.9660034179688 C 56.94098663330078 700.4860229492188 58.4229850769043 702.0250244140625 59.980987548828125 702.197998046875 L 60.717987060546875 702.2540283203125 L 60.717987060546875 702.0280151367188 L 60.037986755371094 701.9710083007812 C 58.52398681640625 701.7470092773438 57.191986083984375 700.3890380859375 56.97598648071289 698.9100341796875 L 56.919986724853516 698.2860107421875" style="fill:none;stroke:#131413;stroke-width:0.0;"/>
  <path d="M60.717 97.744 L534.557 97.744 L534.557 97.971 L60.717 97.971 M534.557 97.744 L535.294 97.802 C536.852 97.973 538.334 99.513 538.526 101.033 L538.582 101.713 L538.354 101.713 L538.299 101.089 C538.084 99.611 536.751 98.252 535.237 98.028 L534.557 97.971 M538.583 101.713 L538.583 233.354 L538.356 233.354 L538.356 101.713 M538.583 233.354 L538.526 234.033 C538.283 235.672 536.884 236.979 535.295 237.322 L534.557 237.379 L534.557 237.096 L535.238 237.039 C536.812 236.749 537.986 235.601 538.3 234.033 L538.356 233.354 M534.557 237.38 L60.718 237.38 L60.718 237.096 L534.557 237.096 M60.717 237.38 L59.98 237.322 C58.39 236.979 56.992 235.674 56.748 234.035 L56.692 233.354 L56.919 233.354 L56.975 234.035 C57.289 235.603 58.462 236.75 60.037 237.039 L60.717 237.096 M56.692 233.354 L56.692 101.713 L56.919 101.713 L56.919 233.354 M56.692 101.713 L56.749 101.033 C56.94 99.513 58.422 97.974 59.98 97.802 L60.717 97.745 L60.717 97.971 L60.037 98.028 C58.523 98.252 57.191 99.61 56.975 101.089 L56.919 101.713 M155.679 103.981 L439.54 103.981 L439.54 219.067 L155.679 219.067 " style="fill:none;stroke:#000000;stroke-width:1.0;"/>
  <rect style="stroke:blue;stroke-width:0.3;" x="155.679" y="103.981" height="115.087" width="283.868" title="5"/>
  <text x="155.679" y="103.981" class="image" id="image.5.1" width="283" height="115">image.5.1.156_440.104_219</text>
  <text svg_rhmargin="82.482" x="62.702,66.862,69.022,73.686,75.686,78.066,82.482" y="231.087" style="fill:#131413;font-family:FCMICI+KmmqjcAdvTTaf7f9f4f.B;font-size:8.0px;font-style:NORMAL;font-weight:normal;">Fig. 3 </text>
  <text x="84.869,88.869,90.533,93.445,96.773,99.155,103.403,105.483,107.83,112.158,113.822,117.398,120.31,122.683,127.011,129.339,132.915,137.243,141.49099999999999,143.886,145.966,150.214,152.542,154.941,157.357,161.605,165.43699999999998,167.811,169.475,173.722,177.218,178.882,183.042,187.37,191.111,195.439,197.857,201.857,206.353,210.017" y="231.087" svg_rhmargin="212.929" style="fill:#131413;font-family:FCMIFJ+FjrmrtAdvTTb5929f4c;font-size:8.0px;font-style:NORMAL;font-weight:normal;">Risk of bias graph for the included RCTs</text>
  <path d=" M 60.71799850463867 291.8550109863281 L 534.5570068359375 291.8550109863281 L 534.5570068359375 291.572021484375 L 60.71799850463867 291.572021484375" style="fill:none;stroke:#131413;stroke-width:0.0;"/>
  <path d=" M 534.5570068359375 291.8550109863281 L 535.2940063476562 291.7980041503906 C 536.9650268554688 291.385009765625 538.2360229492188 290.24700927734375 538.5260009765625 288.510009765625 L 538.58203125 287.83001708984375 L 538.35498046875 287.83001708984375 L 538.2990112304688 288.510009765625 C 537.9849853515625 290.0780029296875 536.81201171875 291.2250061035156 535.2369995117188 291.5150146484375 L 534.5570068359375 291.572021484375" style="fill:none;stroke:#131413;stroke-width:0.0;"/>
  <path d=" M 538.5830078125 287.8299865722656 L 538.5830078125 63.55299377441406 L 538.3560180664062 63.55299377441406 L 538.3560180664062 287.8299865722656" style="fill:none;stroke:#131413;stroke-width:0.0;"/>
  <path d=" M 538.5830078125 63.55299377441406 L 538.5260009765625 62.81599426269531 C 538.3309936523438 61.2559928894043 536.781982421875 59.81199264526367 535.2949829101562 59.58399200439453 L 534.5579833984375 59.527992248535156 L 534.5579833984375 59.81099319458008 L 535.238037109375 59.86799240112305 C 536.7850341796875 60.062992095947266 538.010009765625 61.373992919921875 538.2999877929688 62.87299346923828 L 538.3560180664062 63.55299377441406" style="fill:none;stroke:#131413;stroke-width:0.0;"/>
  <path d=" M 534.5570068359375 59.527992248535156 L 60.718017578125 59.527992248535156 L 60.718017578125 59.81099319458008 L 534.5570068359375 59.81099319458008" style="fill:none;stroke:#131413;stroke-width:0.0;"/>
  <path d=" M 60.717987060546875 59.527992248535156 L 59.980987548828125 59.584991455078125 C 58.493988037109375 59.81199264526367 56.94498825073242 61.2559928894043 56.748985290527344 62.81599426269531 L 56.69298553466797 63.55299377441406 L 56.919986724853516 63.55299377441406 L 56.97598648071289 62.87299346923828 C 57.265987396240234 61.373992919921875 58.49098587036133 60.062992095947266 60.037986755371094 59.86799240112305 L 60.717987060546875 59.81199264526367" style="fill:none;stroke:#131413;stroke-width:0.0;"/>
  <path d=" M 56.69298553466797 63.55299377441406 L 56.69298553466797 287.8299865722656 L 56.919986724853516 287.8299865722656 L 56.919986724853516 63.55299377441406" style="fill:none;stroke:#131413;stroke-width:0.0;"/>
  <path d=" M 56.69298553466797 287.8299865722656 L 56.74998474121094 288.5099792480469 C 57.03898620605469 290.2469787597656 58.31098556518555 291.3849792480469 59.980987548828125 291.7989807128906 L 60.717987060546875 291.85498046875 L 60.717987060546875 291.5719909667969 L 60.037986755371094 291.5149841308594 C 58.463985443115234 291.2249755859375 57.28998565673828 290.0779724121094 56.97598648071289 288.5099792480469 L 56.919986724853516 287.8299865722656" style="fill:none;stroke:#131413;stroke-width:0.0;"/>
  <path d="M60.717 508.144 L534.557 508.144 L534.557 508.427 L60.717 508.427 M534.557 508.144 L535.294 508.201 C536.965 508.614 538.236 509.752 538.526 511.489 L538.582 512.169 L538.354 512.169 L538.299 511.489 C537.985 509.921 536.812 508.774 535.237 508.484 L534.557 508.427 M538.583 512.17 L538.583 736.447 L538.356 736.447 L538.356 512.17 M538.583 736.447 L538.526 737.184 C538.331 738.744 536.782 740.188 535.295 740.416 L534.557 740.472 L534.557 740.189 L535.238 740.132 C536.785 739.937 538.01 738.626 538.3 737.127 L538.356 736.447 M534.557 740.472 L60.718 740.472 L60.718 740.189 L534.557 740.189 M60.717 740.472 L59.98 740.415 C58.493 740.188 56.944 738.744 56.748 737.184 L56.692 736.447 L56.919 736.447 L56.975 737.127 C57.265 738.626 58.49 739.937 60.037 740.132 L60.717 740.188 M56.692 736.447 L56.692 512.17 L56.919 512.17 L56.919 736.447 M56.692 512.17 L56.749 511.49 C57.038 509.753 58.31 508.615 59.98 508.201 L60.717 508.145 L60.717 508.428 L60.037 508.485 C58.463 508.775 57.289 509.922 56.975 511.49 L56.919 512.17 M155.679 514.437 L439.54 514.437 L439.54 722.217 L155.679 722.217 " style="fill:none;stroke:#000000;stroke-width:1.0;"/>
  <rect style="stroke:blue;stroke-width:0.3;" x="155.679" y="514.438" height="207.779" width="283.868" title="5"/>
  <text x="155.679" y="514.438" class="image" id="image.5.2" width="283" height="207">image.5.2.156_440.514_722</text>
  <text svg_rhmargin="82.482" x="62.702,66.862,69.022,73.686,75.686,78.066,82.482" y="734.236" style="fill:#131413;font-family:FCMICI+KmmqjcAdvTTaf7f9f4f.B;font-size:8.0px;font-style:NORMAL;font-weight:normal;">Fig. 4 </text>
  <text x="84.869,88.533,92.781,95.109,98.941,101.853,104.26899999999999,106.583,110.91,112.574,116.822,119.238,121.663,123.743,127.991,130.319,132.661,135.077,139.325,143.15699999999998,145.531,149.027,153.275,159.771,164.099,167.675,170.003,171.667,174.578,178.826,183.07399999999998,185.386,189.634,191.714,194.117,196.533,200.781,204.613,206.986,211.234,215.066,218.898,223.226,225.581,227.661,231.909,234.237,236.636,239.052,241.38,244.956,249.204,252.116,254.196,258.356,261.184,262.848,267.096,271.344,273.769,278.097,281.929,284.345,290.089,293.921,297.753,302.001,304.326,306.742,310.99,314.822,317.196,320.86,325.188,329.852,332.22,336.548,338.211,342.371,345.28299999999996,347.64,352.8,356.464,360.464,362.834,366.41,370.657,374.98499999999996,377.347,381.011,385.339,390.003,392.371,395.947,397.611,401.859,406.107,409.939,412.327,416.654,418.982,423.23,427.39,431.718" y="734.236" svg_rhmargin="434.63" style="fill:#131413;font-family:FCMIFJ+FjrmrtAdvTTb5929f4c;font-size:8.0px;font-style:NORMAL;font-weight:normal;">Forest plot for the comparison of the need for transfusion between the TXA plus DEP and TXA alone groups</text>
  <text svg_rhmargin="115.039" x="56.693,63.437,67.269,71.685,76.101,78.463,82.295,86.711,91.207,93.544,97.959,102.375,106.207,110.623,115.039" y="48.14200000000005" style="fill:#131413;font-family:FCMIFI+GghxhkAdvTTe45e47d2;font-size:8.0px;font-style:NORMAL;font-weight:normal;">Wang and Zhang </text>
  <text svg_rhmargin="264.355" x="117.41,120.242,124.402,128.562,131.058,135.306,139.466,141.21,143.546,147.706,149.95399999999998,152.333,157.661,160.157,162.653,166.901,171.061,175.221,179.381,182.957,187.117,188.787,192.115,194.513,198.177,202.337,204.833,208.993,212.569,215.065,218.561,220.932,225.092,229.34,233.5,235.899,240.059,243.635,246.547,250.123,254.283,256.779,260.107,264.355" y="48.14200000000005" style="fill:#131413;font-family:FCMJCJ+TlfdkfAdvTT7329fd89.I;font-size:8.0px;font-style:NORMAL;font-weight:normal;">Journal of Orthopaedic Surgery and Research </text>
  <text svg_rhmargin="314.906" y="48.14200000000005" x="268.378,270.65,274.754,278.858,282.962,287.066,289.338,291.034,295.138,299.242,300.898,305.002,309.106,313.21,314.906" style="fill:#131413;font-family:MyriadPro-Regular;font-size:8.0px;font-style:NORMAL;font-weight:normal;">(2018) 13:242 </text>
  <text x="496.061,500.309,504.141,508.557,512.557,514.94,519.0200000000001,521.403,525.731,528.059,530.417,534.497" y="48.14200000000005" svg_rhmargin="538.577" style="fill:#131413;font-family:FCMIFI+GghxhkAdvTTe45e47d2;font-size:8.0px;font-style:NORMAL;font-weight:normal;">Page 5 of 11</text>
 </g>
</svg>
