<?xml version="1.0" encoding="UTF-8"?>
<svg height="755.405" width="554.3890422222222" xmlns="http://www.w3.org/2000/svg">
 <g style="fill:none;">
  <text svg_rhmargin="513.772" x="467.978,473.906,479.109,481.558,483.727,488.063,491.098,493.266,497.743,500.192,502.072,504.24,509.872,511.604,513.7719999999999" y="51.49400000000003" style="fill:#171615;font-family:IKGOXD+CaeciliaLTStd-Roman;font-size:7.8px;font-style:NORMAL;font-weight:normal;">Ohi et al. | </text>
  <text x="519.404,524.021" y="51.49400000000003" svg_rhmargin="528.639" style="fill:#171615;font-family:EEDQTL+CaeciliaLTStd-Heavy;font-size:7.8px;font-style:NORMAL;font-weight:bold;">25</text>
  <text x="54.638,59.776,64.23,71.73,76.455,80.76,83.866,88.035,92.76,94.845,95.813,102.338,104.693,107.611,112.613,114.698,115.666,118.583,123.586,127.756,129.841,130.808,135.533,138.638,142.583,146.888,149.243,153.698,158.558,162.308,164.393,165.361,172.861,177.031,179.948,184.253,187.306,191.611,196.613,200.918,203.183,207.488,211.238,213.593,217.343,219.15,221.235,222.203,225.12,230.123,234.293,236.37800000000001,237.346,242.071,244.426,247.201,249.975,254.145,257.25,261.421,266.423,270.315,274.486,278.236,280.32099999999997,281.288,283.643,288.646" y="84.40499999999997" svg_rhmargin="290.731" style="fill:#171615;font-family:IKGOXD+CaeciliaLTStd-Roman;font-size:7.5px;font-style:NORMAL;font-weight:normal;">Compared with the previous meta-analysis, the differences in </text>
  <text x="54.638,57.556,62.558,66.728,68.573,72.465,77.326,80.521,83.626,87.796,92.798,95.716,97.561,101.311,108.811,113.266,117.713,120.068,125.071,129.241,131.086,134.146,138.451,141.368,145.538,149.288,151.133,155.588,158.363,160.208,164.656,169.516,171.361,176.086,180.391,183.308,185.663,189.833,194.836,197.753,201.503,203.348,207.653,212.656,217.381,219.226,222.143,227.146,231.316,233.161,238.576,242.88,244.725,249.18,252.376,254.221,260.056,265.193,268.943,270.788,277.178,281.348,284.453,288.623" y="94.90499999999997" svg_rhmargin="290.708" style="fill:#171615;font-family:IKGOXD+CaeciliaLTStd-Roman;font-size:7.5px;font-style:NORMAL;font-weight:normal;">the current smoking rates of SZ patients and the GP or HCs were </text>
  <text x="54.638,58.388,65.888,70.193,72.548,74.903,79.073,82.268,84.353,84.893,87.248,92.251,94.336,94.876,97.147,101.452,106.177,110.482,115.485,117.292,119.36,124.37,129.373,133.543,137.293,141.463,143.548,144.088,148.813,153.815,158.54,160.895,165.898,170.068,173.818,175.90300000000002,176.443,181.303,186.305,191.03,195.485,200.345,204.793,207.71,211.88,216.605,218.87,223.175,225.26000000000002,225.8,229.55,234.41,238.58,242.84,247.01,250.76,253.678,255.763,256.302,259.22,264.223,268.527,271.445,273.53,274.07,277.962,282.822,285.586" y="105.40499999999997" svg_rhmargin="288.639" style="fill:#171615;font-family:IKGOXD+CaeciliaLTStd-Roman;font-size:7.5px;font-style:NORMAL;font-weight:normal;">smaller in Japan. These findings undoubtedly suggest that cur-</text>
  <text x="54.638,57.743,61.913,66.916,69.833,71.91799999999999,72.676,76.426,83.926,88.381,92.828,95.183,100.186,104.356,106.44099999999999,107.198,109.553,113.303,115.38799999999999,116.146,120.451,124.201,127.951,132.406,136.298,138.653,142.958,145.876,150.046,154.771,156.856,157.613,164.138,166.493,169.411,174.413,176.49800000000002,177.256,181.006,184.763,189.766,192.121,196.148,200.603,205.328,210.331,213.436,217.606,222.608,224.963,229.268,231.353,232.111,236.003,240.458,247.958,252.683,256.988,260.093,264.263,268.988,271.073,271.831,278.356,280.711,283.628,288.631" y="115.90499999999997" svg_rhmargin="290.716" style="fill:#171615;font-family:IKGOXD+CaeciliaLTStd-Roman;font-size:7.5px;font-style:NORMAL;font-weight:normal;">rent smoking is associated with schizophrenia compared with </text>
  <text x="54.638,57.556,62.558,66.728,68.813,74.648,79.786,83.536,85.621,89.926,93.676,95.761,102.151,106.321,108.676,111.031,113.116,117.421,121.171,123.256,128.671,132.007,133.815,135.9,139.845,144.06,148.23,153.232,155.317,159.622,162.397,165.315,169.485,172.68,174.765,178.657,183.112,188.115,191.032,194.137,198.592,200.947,203.302,205.657,210.66,214.83,216.915,219.69,224.145,227.34,229.425,233.685,237.855,242.857,247.582,251.752,254.535" y="126.40499999999997" svg_rhmargin="256.62" style="fill:#171615;font-family:IKGOXD+CaeciliaLTStd-Roman;font-size:7.5px;font-style:NORMAL;font-weight:normal;">the HCs as well as GP, even after controlling for gender.</text>
  <text x="66.638,69.143,74.146,76.321,80.776,85.636,88.831,91.006,94.756,99.061,106.561,111.286,113.641,117.811,121.561,123.368,125.543,128.461,133.463,137.633,139.808,144.533,149.536,154.261,156.616,161.618,165.788,169.538,171.713,174.488,178.943,182.138,184.313,187.231,192.233,196.403,198.578,202.328,209.828,214.283,218.731,222.901,226.096,229.846,232.021,234.376,239.378,241.553,244.471,249.473,253.643,255.818,260.266,265.126,267.301,271.471,274.576,279.031,283.891,288.616" y="136.90499999999997" svg_rhmargin="290.701" style="fill:#171615;font-family:IKGOXD+CaeciliaLTStd-Roman;font-size:7.5px;font-style:NORMAL;font-weight:normal;">In our samples, the findings for the smokers in the SZ group </text>
  <text x="54.638,58.388,63.391,67.666,74.056,78.226,82.951,85.03599999999999,86.093,89.011,94.013,98.318,101.236,103.321,104.378,108.683,111.601,115.906,120.631,122.986,126.878,131.183,133.538,135.62300000000002,136.681,140.986,145.988,148.906,151.261,155.986,159.736,164.041,167.798,172.801,177.256,180.173,182.528,186.421,188.506,189.563,194.288,198.743,202.493,206.708,210.968,215.138,217.223,218.281,224.716,229.021,232.771,234.856,235.913,240.638,245.093,248.843,251.198,254.116,256.381,260.595,264.765,267.03,271.335,273.41999999999996,274.477,278.37,282.825,285.586" y="147.40499999999997" svg_rhmargin="288.639" style="fill:#171615;font-family:IKGOXD+CaeciliaLTStd-Roman;font-size:7.5px;font-style:NORMAL;font-weight:normal;">showed that atypical antipsychotic dosage was positively cor-</text>
  <text x="54.638,57.743,61.913,64.268,68.573,71.491,75.661,80.386,82.47099999999999,82.928,89.453,91.808,94.726,99.728,101.81299999999999,102.271,107.408,111.713,117.068,118.876,120.961,121.418,125.866,133.366,137.821,142.268,144.623,149.626,153.796,155.881,156.338,158.693,163.696,168.421,173.281,177.173,181.343,185.093,187.178,187.636,190.553,195.556,199.726,201.811,202.268,209.768,213.938,216.856,221.071,225.518,229.973,232.328,234.683,238.433,245.933,248.018,248.475,252.93,255.705,257.79,258.248,262.553,267.555,270.473,272.828,277.553,281.303,285.608" y="157.90499999999997" svg_rhmargin="288.661" style="fill:#171615;font-family:IKGOXD+CaeciliaLTStd-Roman;font-size:7.5px;font-style:NORMAL;font-weight:normal;">related with CPD. Smoking induces the metabolism of antipsy-</text>
  <text x="54.638,58.396,63.398,67.853,70.771,73.126,77.018,80.768,82.943,87.391,91.561,95.453,99.758,104.618,108.368,112.538,114.713,119.168,121.943,124.118,128.423,133.426,135.601,137.956,142.958,146.851,149.956,154.126,158.431,162.181,166.351,168.526,170.881,175.883,178.058,183.196,188.611,192.916,197.086,202.643,206.813,208.621,210.796,215.933,221.348,225.653,229.823,235.381,239.551,241.358,243.533,247.838,252.841,257.566,259.741,264.878,270.293,274.598,278.768,284.461,288.631" y="168.40499999999997" svg_rhmargin="290.716" style="fill:#171615;font-family:IKGOXD+CaeciliaLTStd-Roman;font-size:7.5px;font-style:NORMAL;font-weight:normal;">chotics because of an increase in CYP1A2, CYP3A4, and CYP2D6 </text>
  <text x="54.638,58.808,63.811,67.838,72.143,79.643,83.813,87.563,89.648,91.748,94.103,99.796,104.251,107.311,111.616,116.341,120.796,122.881,124.981,129.151,132.068,134.15300000000002,136.25,140.555,142.91,144.995,146.803,148.888,150.988,155.158,159.328,163.498,167.668,169.753,171.838,173.926,178.373,182.588,186.758,191.618,196.343,198.428,200.528,204.698,207.615,209.70000000000002,211.798,216.103,218.458,220.543,222.351,224.436,226.536,230.706,234.876,239.046,243.216,245.571,247.378,249.463,251.008,256.018,261.021,265.191,268.296,272.466,275.241,279.696,282.801,286.836,288.643" y="178.90499999999997" svg_rhmargin="290.728" style="fill:#171615;font-family:IKGOXD+CaeciliaLTStd-Roman;font-size:7.5px;font-style:NORMAL;font-weight:normal;">enzymes (Dorado et  al., 2006; Sagud et  al., 2009). Therefore, </text>
  <text x="54.638,58.388,65.888,70.343,74.791,77.146,82.148,86.318,88.538,90.893,94.643,96.863,101.168,104.918,108.668,113.123,117.016,119.371,123.676,126.593,130.763,135.488,137.708,144.233,146.588,149.506,154.508,156.728,161.453,163.808,171.308,173.663,178.666,181.021,184.771,189.773,193.943,198.668,200.888,203.243,207.188,211.403,215.573,217.928,221.678,223.898,228.353,231.128,233.348,237.653,242.656,245.573,247.928,252.653,256.403,260.708,264.466,269.469,273.924,276.841,279.196,283.089,286.839,288.646" y="189.40499999999997" svg_rhmargin="290.731" style="fill:#171615;font-family:IKGOXD+CaeciliaLTStd-Roman;font-size:7.5px;font-style:NORMAL;font-weight:normal;">smoking is associated with diminished levels of antipsychotics, </text>
  <text x="54.638,61.163,66.166,68.521,72.278,77.281,79.366,80.581,84.886,87.991,92.161,94.246,95.461,102.961,107.131,110.048,114.263,118.711,123.166,125.521,127.876,131.903,136.073,140.798,142.883,144.098,148.321,152.626,154.711,155.926,158.843,163.846,168.016,171.766,175.936,178.02100000000002,179.236,183.406,188.408,192.436,196.741,204.241,208.411,212.161,214.246,215.461,217.816,222.263,226.478,230.648,235.508,240.233,242.318,243.533,247.703,250.621,252.70600000000002,253.924,258.229,260.584,262.669,264.476,266.561,267.776,271.946,276.116,280.286,284.456,286.811,288.619" y="199.90499999999997" svg_rhmargin="290.704" style="fill:#171615;font-family:IKGOXD+CaeciliaLTStd-Roman;font-size:7.5px;font-style:NORMAL;font-weight:normal;">which are metabolized by these enzymes (Sagud et  al., 2009). </text>
  <text x="54.638,59.648,64.651,68.821,70.90599999999999,72.526,76.418,80.873,85.876,89.768,93.938,98.941,101.858,104.919,109.224,112.141,114.496,118.951,123.954,126.03899999999999,127.659,132.114,134.889,136.97400000000002,138.594,142.899,147.901,150.819,153.174,157.899,161.649,165.954,169.711,174.714,179.169,182.086,184.441,188.334,192.084,194.169,195.789,198.144,201.894,203.979,205.599,210.324,214.494,218.386,221.491,225.661,229.966,233.716,237.886,242.611,244.696,246.316,248.671,253.674,255.75900000000001,257.379,261.129,268.629,273.084,277.531,281.701,284.896,288.646" y="210.40499999999997" svg_rhmargin="290.731" style="fill:#171615;font-family:IKGOXD+CaeciliaLTStd-Roman;font-size:7.5px;font-style:NORMAL;font-weight:normal;">The concentration of antipsychotics is decreased in smokers </text>
  <text x="54.638,58.531,62.986,70.486,75.211,79.516,82.621,86.791,91.516,93.563,100.088,102.443,105.361,110.363,112.411,117.413,121.868,126.871,130.621,138.121,142.576,147.023,151.193,154.388,158.138,160.186,162.541,166.756,171.061,176.063,178.111,182.836,187.006,190.201,191.837,199.337,203.507,205.862,210.587,214.757,216.805,220.975,223.892,225.942,230.247,232.602,234.687,236.495,238.543,242.713,246.883,251.053,255.223,257.308,259.366,265.336,269.79,273.818,277.898,284.333,288.638" y="220.90499999999997" svg_rhmargin="290.723" style="fill:#171615;font-family:IKGOXD+CaeciliaLTStd-Roman;font-size:7.5px;font-style:NORMAL;font-weight:normal;">compared with nonsmokers (van der Weide et al., 2003; Nozawa </text>
  <text x="54.638,58.808,61.725,63.81,64.33,68.635,70.99,73.075,74.883,76.96799999999999,77.485,81.655,85.825,89.995,94.165,96.52,98.328,100.378,105.388,110.39,112.745,116.495,118.58,119.098,121.453,125.203,127.288,127.805,132.53,136.835,140.03,142.948,145.303,149.195,154.055,156.41,160.715,163.91,166.175,170.48,172.565,173.082,175.437,182.937,187.662,192.117,195.313,198.23,202.535,207.537,210.455,212.54000000000002,213.057,215.412,220.415,222.5,223.017,225.935,230.937,235.107,237.192,237.71,241.602,245.907,249.657,253.827,255.912,256.43,260.885,263.66,265.745,266.262,270.567,275.57,278.487,280.842,285.567" y="231.40499999999997" svg_rhmargin="288.62" style="fill:#0000ff;font-family:IKGOXD+CaeciliaLTStd-Roman;font-size:7.5px;font-style:NORMAL;font-weight:normal;">et  al., 2008). This is particularly important in the case of antip-</text>
  <text x="54.638,58.388,62.693,66.451,71.453,75.908,78.826,81.181,85.073,88.823,90.90799999999999,91.426,97.951,100.306,103.223,108.226,110.31099999999999,110.828,115.133,117.21799999999999,117.736,122.738,127.043,130.238,133.343,137.618,144.143,146.228,146.746,149.663,154.666,158.836,161.896,166.201,170.926,175.096,179.956,182.873,185.228,189.121,191.20600000000002,191.723,198.248,200.603,205.606,210.331,214.606,220.441,222.248,224.333,224.851,229.988,234.443,239.446,243.196,247.366,252.091,256.951,261.121,266.123,269.041,271.306,274.92,276.728,278.813,279.331,283.778,288.638" y="241.90499999999997" svg_rhmargin="290.723" style="fill:#171615;font-family:IKGOXD+CaeciliaLTStd-Roman;font-size:7.5px;font-style:NORMAL;font-weight:normal;">sychotics with a narrow therapeutic window. Consequently, SZ </text>
  <text x="54.638,59.363,63.668,66.586,68.941,73.111,78.113,81.031,84.781,86.551,93.076,98.078,102.533,104.303,108.053,115.553,120.008,124.456,128.626,130.396,137.896,141.976,146.281,148.051,151.156,155.326,160.051,164.911,167.266,170.371,174.541,176.311,181.313,183.668,187.838,192.841,197.011,200.206,201.976,206.701,211.156,214.906,219.121,223.381,227.551,231.301,233.071,237.526,240.301,242.071,246.376,251.378,254.296,256.651,261.376,265.126,269.431,273.189,278.191,282.646,285.564" y="252.40499999999997" svg_rhmargin="288.617" style="fill:#171615;font-family:IKGOXD+CaeciliaLTStd-Roman;font-size:7.5px;font-style:NORMAL;font-weight:normal;">patients who smoke may require higher dosages of antipsychot-</text>
  <text x="54.638,56.993,60.885,64.635,66.72,69.638,74.641,78.946,83.948,86.033,91.036,95.491,100.493,104.243,111.743,116.198,120.646,124.816,128.011,131.761" y="262.905" svg_rhmargin="133.846" style="fill:#171615;font-family:IKGOXD+CaeciliaLTStd-Roman;font-size:7.5px;font-style:NORMAL;font-weight:normal;">ics than nonsmokers.</text>
  <text x="66.638,72.196,74.551,77.468,82.471,86.926,91.786,95.956,100.958,103.171,108.173,110.528,114.421,118.876,121.793,124.148,129.151,133.321,135.533,140.258,144.338,149.063,153.233,158.236,162.961,167.131,172.133,176.026,180.196,182.408,184.763,190.733,196.426,198.781,200.993,203.348,207.098,209.311,214.313,216.668,220.838,225.841,228.106,232.411,234.623,238.516,242.971,250.471,254.926,258.121,262.568,264.923,269.648,271.861,278.386,280.741,283.658,288.661" y="273.405" svg_rhmargin="290.746" style="fill:#171615;font-family:IKGOXD+CaeciliaLTStd-Roman;font-size:7.5px;font-style:NORMAL;font-weight:normal;">Although nicotine dependence (ND) is highly comorbid with </text>
  <text x="54.638,59.085,63.945,65.753,67.924,70.842,75.844,80.014,82.185,86.355,89.272,91.627,96.082,98.437,102.847,107.017,111.322,113.494,117.949,120.724,122.895,125.812,130.815,133.17,136.92,139.09,142.983,147.438,154.938,159.393,162.588,167.035,169.39,174.115,176.47,179.388,183.693,185.864,188.219,191.969,194.14,197.89,200.808,203.163,205.518,207.873,210.044,214.904,219.906,224.354,229.356,233.631,240.156,245.158,246.966,248.859,254.417,258.167,260.338,264.786,269.241,272.158,277.161,279.332,283.779,288.639" y="283.905" svg_rhmargin="290.724" style="fill:#171615;font-family:IKGOXD+CaeciliaLTStd-Roman;font-size:7.5px;font-style:NORMAL;font-weight:normal;">SZ, the etiology of this comorbidity is still unknown. As both SZ </text>
  <text x="54.638,58.943,63.945,68.671,70.448,76.418,82.11,83.888,88.89,92.97,97.186,101.355,103.133,107.438,109.215,114.218,116.573,120.743,125.745,127.523,131.693,135.443,138.36,140.715,148.215,152.52,155.438,159.608,164.333,166.11,171.113,175.283,178.478,180.833,183.75,187.965,192.413,194.768,197.123,199.478,202.395,206.01,207.818,209.595,213.9,218.625,223.35,226.455,230.865,235.313,237.668,245.168,249.473,252.39,256.56,258.825,263.13,264.908,269.078,273.248,279.495,281.273,283.628,288.63" y="294.405" svg_rhmargin="290.715" style="fill:#171615;font-family:IKGOXD+CaeciliaLTStd-Roman;font-size:7.5px;font-style:NORMAL;font-weight:normal;">and ND have a high estimated heritability, approximately 80% in </text>
  <text x="54.638,59.085,63.945,66.03,66.473,68.828,73.276,78.136,80.491,82.846,85.111,89.326,93.631,98.633,100.71799999999999,101.161,105.331,108.248,110.333,110.773,115.078,117.433,119.518,121.325,123.41,123.853,128.023,132.193,136.363,140.533,142.888,144.973,145.415,149.72,154.723,159.448,161.53300000000002,161.975,166.145,170.315,176.563,178.648,179.09,181.445,186.447,188.532,188.975,194.945,200.637,202.722,203.165,205.52,209.69,212.045,213.852,215.937,216.38,220.55,224.72,228.89,233.06,235.415,237.222,239.30700000000002,239.75,242.667,247.67,251.84,254.945,259.115,261.2,261.642,269.142,273.222,277.527,279.61199999999997,280.055,284.502,288.672" y="304.905" svg_rhmargin="290.757" style="fill:#171615;font-family:IKGOXD+CaeciliaLTStd-Roman;font-size:7.5px;font-style:NORMAL;font-weight:normal;">SZ (Sullivan et  al., 2003) and 50% in ND (Li, 2006), there may be </text>
  <text x="54.638,58.531,62.986,70.486,77.986,82.441,87.443,89.888,94.148,98.318,103.321,107.491,110.408,112.763,116.656,119.101,121.876,126.181,130.073,132.991,137.446,140.641,144.391,146.836,149.753,154.756,159.061,161.978,164.423,169.148,172.253,176.423,181.148,183.503,187.253,191.978,196.433,200.183,204.353,206.798,209.153,214.156,218.881,221.146,225.451,227.806,232.531,237.391,241.696,244.051,247.801,250.246,253.163,257.618,260.063,264.511,268.966,271.883,276.886,279.331,283.778,288.638" y="315.405" svg_rhmargin="290.723" style="fill:#171615;font-family:IKGOXD+CaeciliaLTStd-Roman;font-size:7.5px;font-style:NORMAL;font-weight:normal;">common genetic factors that predispose individuals to both SZ </text>
  <text x="54.638,58.943,63.945,68.671,70.883,74.633,82.133,86.588,91.036,93.391,98.393,102.563,104.776,109.223,113.393,118.396,122.476,126.781,129.136,133.591,136.786,140.536,142.343,144.556,149.416,153.586,157.478,161.648,166.651,169.568,171.833,175.448,177.256,179.468,183.773,185.986,190.245,194.415,199.418,203.588,206.505,208.86,212.753,214.965,218.858,223.313,226.508,229.613,233.783,236.138,240.443,243.36,245.715,250.17,255.173,257.385,261.833,266.003,268.921,275.311,279.481,283.651,288.653" y="325.905" svg_rhmargin="290.738" style="fill:#171615;font-family:IKGOXD+CaeciliaLTStd-Roman;font-size:7.5px;font-style:NORMAL;font-weight:normal;">and smoking behaviors. Recently, a genetic correlation between </text>
  <text x="54.638,58.388,65.888,70.343,74.791,77.146,82.148,86.318,88.126,92.573,96.743,101.746,105.826,110.131,112.486,116.941,120.136,121.943,126.248,131.251,135.976,137.783,140.701,145.703,149.873,151.681,154.876,157.231,160.981,165.428,167.236,171.691,174.465,176.273,180.72,185.58,187.388,192.39,196.695,200.445,202.253,206.7,210.87,215.04,220.043,221.85,224.205,228.983,233.198,237.368,241.118,244.035,246.39,250.605,254.91,257.828,261.998,266.723,268.53,273.39,277.14,279.495,284.498,288.668" y="336.405" svg_rhmargin="290.753" style="fill:#171615;font-family:IKGOXD+CaeciliaLTStd-Roman;font-size:7.5px;font-style:NORMAL;font-weight:normal;">smoking behavior and the risk of SZ has been investigated using </text>
  <text x="54.638,58.388,62.333,66.548,70.718,73.778,78.083,80.438,82.523,83.221,87.48,91.65,96.653,101.108,108.608,112.778,115.83,122.355,124.711,129.436,133.605,135.69,136.388,140.693,144.443,148.193,152.648,156.54,158.895,163.2,166.118,168.473,172.928,177.93,180.01500000000001,180.713,184.463,187.38,192.24,196.965,199.32,203.49,207.24,209.32500000000002,210.023,212.378,217.793,225.293,230.85,235.298,237.653,239.738,240.435,244.89,247.665,249.75,250.448,254.895,259.755,261.84,262.538,266.843,270.593,272.678,273.375,279.765,283.935,286.29,288.645" y="346.905" svg_rhmargin="290.73" style="fill:#171615;font-family:IKGOXD+CaeciliaLTStd-Roman;font-size:7.5px;font-style:NORMAL;font-weight:normal;">several genome-wide association studies (GWAS) of SZ as well </text>
  <text x="54.638,58.943,62.693,64.763,68.513,76.013,80.468,84.916,87.271,92.273,96.443,98.513,103.238,108.241,112.411,117.413,121.868,124.786,129.091,133.816,137.986,141.736,143.806,146.161,151.996,156.301,159.496,162.413,166.441,168.511,172.681,175.598,177.671,181.976,184.331,186.416,188.224,190.294,194.464,198.634,202.804,206.974,209.329,211.137,213.207,218.907,221.682,223.752,226.669,231.672,235.842,237.912,241.662,249.162,253.617,258.064,260.419,265.422,269.592,271.662,276.387,281.389,285.559" y="357.405" svg_rhmargin="288.612" style="fill:#171615;font-family:IKGOXD+CaeciliaLTStd-Roman;font-size:7.5px;font-style:NORMAL;font-weight:normal;">as smoking phenotypes (Hartz et al., 2018). Of the smoking phe-</text>
  <text x="54.638,59.64,64.095,67.013,71.318,76.043,80.213,83.963,85.771,87.856,88.658,92.828,94.913,95.715,99.465,106.965,111.42,115.868,118.223,123.226,127.396,129.481,130.283,134.73,138.9,143.903,147.983,152.288,154.643,159.098,162.293,166.043,168.12800000000001,168.93,171.285,177.255,182.61,184.418,186.50300000000001,187.305,192.443,196.748,202.103,203.911,205.996,206.798,211.103,216.105,220.831,222.916,223.718,227.663,231.878,236.048,239.243,242.018,247.02,250.965,255.18,259.35,262.546,264.631,265.433,269.183,276.683,281.138,285.586" y="367.905" svg_rhmargin="288.639" style="fill:#171615;font-family:IKGOXD+CaeciliaLTStd-Roman;font-size:7.5px;font-style:NORMAL;font-weight:normal;">notypes, 3 smoking behaviors (ND, CPD, and ever/never smok-</text>
  <text x="54.638,56.993,61.995,66.165,68.521,70.606,71.588,75.338,80.34,84.646,87.751,91.921,94.006,94.988,99.293,101.378,102.36,106.253,110.708,118.208,122.933,127.388,132.391,136.561,141.563,144.48,146.565,147.548,152.003,154.778,156.863,157.846,162.15,164.235,165.218,169.111,173.566,181.066,188.566,193.021,198.023,200.108,201.091,205.351,209.521,214.523,218.693,221.611,223.965,227.858,229.943,230.926,235.141,239.445,242.641,244.995,249.3,252.218,254.573,259.028,264.03,266.11499999999995,267.098,269.453,274.456,276.541,277.523,281.971,286.831,288.638" y="378.405" svg_rhmargin="290.723" style="fill:#171615;font-family:IKGOXD+CaeciliaLTStd-Roman;font-size:7.5px;font-style:NORMAL;font-weight:normal;">ing) share a component of a common genetic variation in SZ. </text>
  <text x="54.638,59.648,64.65,68.82,71.925,76.095,78.87,83.326,86.431,90.465,92.273,94.681,97.598,102.601,106.771,110.521,114.691,117.098,121.268,123.676,127.426,134.926,139.381,143.828,146.183,151.186,155.355,157.763,162.488,167.491,171.661,176.663,181.118,184.036,188.34,193.066,197.236,200.986,203.393,210.893,214.973,219.278,221.685,226.133,230.303,232.71,237.57,241.32,245.49,248.265,253.125,255.48,257.888,262.193,265.943,268.35,270.705,275.708,278.625,282.796,285.586" y="388.905" svg_rhmargin="288.639" style="fill:#171615;font-family:IKGOXD+CaeciliaLTStd-Roman;font-size:7.5px;font-style:NORMAL;font-weight:normal;">Therefore, these 3 smoking phenotypes may be useful as inter-</text>
  <text x="54.638,62.138,66.308,71.033,73.388,77.693,80.611,84.781,86.866,87.436,92.161,97.163,101.333,106.336,110.791,113.708,118.013,122.738,126.908,130.658,132.743,133.313,137.768,140.543,142.62800000000001,143.198,147.646,152.506,154.313,156.398,156.968,159.473,164.476,166.561,167.131,170.048,175.051,179.221,181.306,181.876,186.601,189.706,193.876,197.626,201.796,206.798,209.716,211.80100000000002,212.371,216.121,219.038,223.898,228.442,232.058,233.866,235.95100000000002,236.521,242.911,247.081,249.166,249.736,254.461,258.631,261.826,264.601,269.056,272.251,279.751,283.921,288.646" y="399.405" svg_rhmargin="290.731" style="fill:#171615;font-family:IKGOXD+CaeciliaLTStd-Roman;font-size:7.5px;font-style:NORMAL;font-weight:normal;">mediate phenotypes of SZ. In the present study, we performed </text>
  <text x="54.638,58.943,61.028,61.726,69.226,73.396,76.313,80.618,83.671,87.976,92.978,97.283,99.548,103.853,107.603,109.958,113.708,115.79299999999999,116.491,120.946,123.721,125.806,126.503,130.396,135.256,138.451,141.556,145.726,150.728,153.646,155.731,156.428,160.178,167.678,172.133,176.581,178.936,183.938,188.108,190.193,190.891,193.951,198.256,201.174,205.344,209.094,210.901,212.98600000000002,213.684,218.131,225.631,230.086,234.534,236.889,241.891,246.061,248.14600000000002,248.844,252.594,255.511,259.816,262.734,267.594,271.344,273.429,274.126,280.561,284.866,288.616" y="409.905" svg_rhmargin="290.701" style="fill:#171615;font-family:IKGOXD+CaeciliaLTStd-Roman;font-size:7.5px;font-style:NORMAL;font-weight:normal;">a meta-analysis of current smoking rates. Smoking status was </text>
  <text x="54.638,59.363,63.533,68.258,73.261,77.431,82.156,84.241,85.916,90.221,93.971,96.056,97.732,101.625,106.485,109.68,112.784,116.954,121.957,124.874,126.95899999999999,128.635,132.385,139.885,144.34,148.788,152.958,156.153,159.903,161.988,163.663,166.018,170.743,175.048,177.403,179.668,183.973,186.05800000000002,187.734,191.484,198.984,203.439,207.886,212.056,215.251,219.001,221.356,223.441,225.117,229.422,234.425,239.15,241.235,242.91,247.913,252.368,257.37,261.12,268.62,273.075,277.523,281.693,284.888,288.638" y="420.405" svg_rhmargin="290.723" style="fill:#171615;font-family:IKGOXD+CaeciliaLTStd-Roman;font-size:7.5px;font-style:NORMAL;font-weight:normal;">defined as current smokers (daily smokers) and nonsmokers </text>
  <text x="54.638,56.993,61.718,66.023,69.773,72.691,74.776,75.822,80.277,83.472,85.55699999999999,86.607,91.609,95.554,99.769,103.939,107.134,109.219,110.269,114.019,121.519,125.974,130.422,134.592,137.787,141.537,143.892,145.699,147.78400000000002,148.276,153.286,158.289,162.459,165.564,169.734,172.509,176.964,180.069,184.104,185.911,187.996,189.046,194.049,198.504,203.506,207.256,214.756,219.211,223.659,227.829,231.024,234.774,236.859,237.905,240.26,245.263,249.155,251.51,256.37,261.095,265.265,269.99,272.075,273.125,277.07,281.285,285.455,288.65" y="430.905" svg_rhmargin="290.735" style="fill:#171615;font-family:IKGOXD+CaeciliaLTStd-Roman;font-size:7.5px;font-style:NORMAL;font-weight:normal;">(past or never smokers). Therefore, nonsmokers included ever </text>
  <text x="54.638,58.388,65.888,70.343,74.791,78.961,82.156,85.906,87.713,89.79799999999999,90.856,93.773,98.776,103.081,105.998,108.083,109.141,111.496,115.246,117.053,119.13799999999999,120.196,124.921,129.781,132.136,135.053,137.971,142.141,145.336,149.086,150.893,152.978,154.036,158.341,163.343,168.068,170.15300000000002,171.211,175.103,179.963,183.158,186.263,190.433,195.436,198.353,200.43800000000002,201.496,205.246,212.746,217.201,221.648,225.818,229.013,232.763,234.848,235.906,238.261,243.263,247.156,249.511,254.371,259.096,263.266,267.991,270.07599999999996,271.133,273.488,278.491,283.216,285.571" y="441.405" svg_rhmargin="288.624" style="fill:#171615;font-family:IKGOXD+CaeciliaLTStd-Roman;font-size:7.5px;font-style:NORMAL;font-weight:normal;">smokers, that is, quitters, and current smokers included indi-</text>
  <text x="54.638,58.943,61.298,66.023,70.883,75.188,77.543,81.293,83.378,84.166,90.691,95.693,100.148,102.23299999999999,103.021,108.023,112.328,117.053,119.13799999999999,119.926,124.928,129.383,132.301,134.386,135.173,139.066,143.236,147.541,151.291,155.461,160.186,162.27100000000002,163.058,166.808,174.308,178.763,183.211,185.566,190.568,194.738,196.546,198.865,203.875,208.877,213.737,217.487,219.295,221.38,222.167,225.085,230.087,234.257,236.342,237.13,240.88,248.38,252.835,257.282,259.637,264.64,268.81,270.895,271.682,276.407,281.41,285.58" y="451.905" svg_rhmargin="288.633" style="fill:#171615;font-family:IKGOXD+CaeciliaLTStd-Roman;font-size:7.5px;font-style:NORMAL;font-weight:normal;">viduals who had not ceased smoking. Thus, the smoking phe-</text>
  <text x="54.638,59.641,64.096,67.013,71.318,76.043,80.213,83.963,86.04799999999999,86.971,91.426,94.201,96.28599999999999,97.208,101.153,105.368,109.538,112.733,115.508,120.511,124.456,128.671,132.841,136.036,138.121,139.043,142.793,150.293,154.748,159.196,163.366,166.561,168.64600000000002,169.568,173.873,178.876,183.601,185.686,186.608,190.501,195.361,198.556,201.661,205.831,210.834,213.751,216.526,221.529,225.984,230.986,234.879,239.739,242.934,246.039,250.209,255.211,258.129,260.214,261.136,264.886,272.386,276.841,281.289,285.459,288.654" y="462.405" svg_rhmargin="290.739" style="fill:#171615;font-family:IKGOXD+CaeciliaLTStd-Roman;font-size:7.5px;font-style:NORMAL;font-weight:normal;">notypes of ever/never smoker and current/noncurrent smoker </text>
  <text x="54.638,61.028,65.198,68.303,72.473,74.641,78.391,80.746,83.101,87.271,92.273,95.191,97.456,101.761,103.928,108.653,111.008,113.783,116.558,120.728,123.833,128.003,133.006,135.923,137.731,139.344,143.521,147.976,150.144,154.036,156.391,160.696,163.891,166.246,169.021,173.326,175.494,178.411,183.414,187.584,189.751,193.644,198.099,205.599,213.099,217.554,222.556,224.724,228.894,231.811,234.166,238.621,240.976,245.386,249.556,253.861,256.028,260.483,263.258,265.426,269.176,276.676,281.13,285.578" y="472.905" svg_rhmargin="288.631" style="fill:#171615;font-family:IKGOXD+CaeciliaLTStd-Roman;font-size:7.5px;font-style:NORMAL;font-weight:normal;">were slightly different. To clarify the common etiology of smok-</text>
  <text x="54.638,56.993,61.996,66.166,68.25099999999999,68.678,73.126,77.296,82.298,86.378,90.683,93.038,97.493,100.688,102.773,103.201,107.506,112.508,117.233,119.318,119.746,124.193,129.053,130.861,132.946,133.373,139.763,143.933,146.018,146.446,150.196,155.198,159.653,164.513,166.868,171.593,173.678,174.106,176.881,181.336,185.228,190.088,193.838,195.923,196.351,200.806,205.808,207.893,208.321,211.238,216.241,220.411,224.161,228.331,230.416,230.843,235.013,237.098,237.525,241.275,248.775,253.23,257.678,260.033,265.036,269.206,271.291,271.718,276.443,281.446,285.616" y="483.405" svg_rhmargin="288.669" style="fill:#171615;font-family:IKGOXD+CaeciliaLTStd-Roman;font-size:7.5px;font-style:NORMAL;font-weight:normal;">ing behavior and SZ, we should focus on these 3 smoking phe-</text>
  <text x="54.638,59.641,64.096,67.013,71.318,76.043,80.213,83.963,86.048,88.403,93.406,95.491,98.266,103.126,106.321,109.238,114.241,118.411,121.606,123.691,127.441,130.358,135.218,139.943,142.298,146.468,150.218,152.303,156.758,159.533,161.618,166.066,170.926" y="493.905" svg_rhmargin="173.011" style="fill:#171615;font-family:IKGOXD+CaeciliaLTStd-Roman;font-size:7.5px;font-style:NORMAL;font-weight:normal;">notypes in further studies of SZ.</text>
  <text x="66.638,72.338,75.113,77.198,78.263,82.433,86.603,90.773,92.85799999999999,93.923,98.183,102.353,107.356,111.526,114.443,116.798,120.691,122.776,123.841,126.196,130.651,134.543,136.898,138.983,140.048,144.353,148.103,151.853,156.308,160.201,162.555,166.86,169.778,173.948,178.673,180.758,181.823,188.348,190.703,193.62,198.623,200.708,201.773,206.22,211.08,213.16500000000002,214.23,217.148,222.15,226.455,229.373,231.458,232.523,238.913,243.083,246.188,250.358,252.443,253.508,255.863,260.588,264.758,269.76,272.678,275.033,279.758,283.928,288.653" y="504.405" svg_rhmargin="290.738" style="fill:#171615;font-family:IKGOXD+CaeciliaLTStd-Roman;font-size:7.5px;font-style:NORMAL;font-weight:normal;">Of 108 genetic loci associated with SZ that were identified </text>
  <text x="54.638,56.993,61.996,64.081,64.966,67.883,72.886,77.056,79.14099999999999,80.026,84.331,88.081,92.386,96.144,101.146,103.501,107.806,110.724,113.919,116.274,120.166,122.25099999999999,123.136,128.551,132.721,137.724,142.179,149.679,152.034,155.926,159.676,161.761,162.646,167.784,172.239,177.241,180.991,185.446,188.641,191.559,193.914,198.774,206.274,208.359,209.244,211.599,217.014,224.514,230.071,234.519,236.604,237.489,241.794,247.209,252.346,255.399,257.904,260.409,262.764,264.849,265.734,268.089,272.949,275.304,280.029,284.476,288.646" y="514.905" svg_rhmargin="290.731" style="fill:#171615;font-family:IKGOXD+CaeciliaLTStd-Roman;font-size:7.5px;font-style:NORMAL;font-weight:normal;">in the Psychiatric Genomics Consortium (GWAS PGC-II) (Ripke </text>
  <text x="54.638,58.808,61.726,63.811,64.868,69.173,71.528,73.613,75.421,77.506,78.563,82.733,86.903,91.073,95.243,97.598,99.406,101.491,102.548,106.306,111.308,114.413,118.868,126.368,130.823,134.573,139.028,146.528,150.698,152.78300000000002,153.841,158.011,162.181,166.906,171.076,175.246,177.33100000000002,178.388,184.823,189.128,192.878,194.963,196.021,200.326,202.411,203.468,207.361,211.816,219.316,226.816,231.271,236.273,238.358,239.416,243.676,247.846,252.848,257.018,259.936,262.291,266.183,268.268,269.326,271.681,276.136,280.028,284.888,288.638" y="525.405" svg_rhmargin="290.723" style="fill:#0000ff;font-family:IKGOXD+CaeciliaLTStd-Roman;font-size:7.5px;font-style:NORMAL;font-weight:normal;">et  al., 2014), chromosome 15q25 was a common genetic locus </text>
  <text x="54.638,57.556,62.558,66.863,69.781,71.866,73.913,78.638,81.743,85.913,90.638,92.993,96.743,101.468,105.923,109.673,113.843,117.593,119.678,121.726,124.081,129.083,133.808,136.073,140.378,142.733,147.458,152.318,156.623,158.978,162.728,164.81300000000002,166.861,169.778,174.233,176.318,178.366,182.813,187.268,190.186,195.188,197.273,199.321,203.071,210.571,215.026,219.473,221.828,226.831,231.001,233.086,235.133,239.581,243.751,248.753,252.832,257.137,259.492,263.947,267.142,269.227,271.275,273.63,277.95,283.23,288.645" y="535.905" svg_rhmargin="290.73" style="fill:#171615;font-family:IKGOXD+CaeciliaLTStd-Roman;font-size:7.5px;font-style:NORMAL;font-weight:normal;">that predisposes individuals to both smoking behavior (TAG </text>
  <text x="54.638,59.776,64.231,69.233,72.983,77.438,80.633,83.551,85.906,90.766,98.266,100.073,102.15799999999999,103.238,107.408,111.578,115.748,119.918,122.003,124.088,125.176,131.011,135.316,140.318,144.211,148.666,152.423,156.871,158.95600000000002,160.036,164.206,167.123,169.208,170.291,174.596,176.951,179.036,180.844,182.929,184.008,188.178,192.348,196.518,200.688,202.773,204.858,205.951,211.088,216.091,220.261,225.263,227.348,228.428,232.598,235.516,237.601,238.684,242.988,245.343,247.428,249.236,251.321,252.401,256.571,260.741,264.911,269.081,271.436,273.52099999999996,274.601,278.906,283.909,288.634" y="546.405" svg_rhmargin="290.719" style="fill:#0000ff;font-family:IKGOXD+CaeciliaLTStd-Roman;font-size:7.5px;font-style:NORMAL;font-weight:normal;">Consortium, 2010; Hancock et  al., 2015; Chen et  al., 2016) and </text>
  <text x="54.646,59.093,63.953,65.978,68.333,73.193,75.548,80.273,84.721,88.891,90.916,95.086,98.003,100.026,104.331,106.686,108.771,110.578,112.603,116.773,120.943,125.113,129.283,131.638,133.446,134.914,139.924,144.926,149.096,151.121,155.291,159.461,164.186,168.356,172.526,174.551,178.444,182.899,187.901,190.819,195.124,197.479,202.481,206.231,208.256,211.173,216.176,220.346" y="556.905" svg_rhmargin="222.431" style="fill:#171615;font-family:IKGOXD+CaeciliaLTStd-Roman;font-size:7.5px;font-style:NORMAL;font-weight:normal;">SZ (Ripke et al., 2014). The 15q25 contains the </text>
  <text x="222.371" y="556.905" svg_rhmargin="226.984" style="fill:#171615;font-family:DATKFN+GandhariUnicode-Roman;font-size:7.5px;font-style:NORMAL;font-weight:normal;">α</text>
  <text x="226.983" y="556.905" svg_rhmargin="231.153" style="fill:#171615;font-family:GHCCVH+CaeciliaLTStd-Italic;font-size:7.5px;font-style:ITALIC;font-weight:normal;">5</text>
  <text x="231.153" y="556.905" svg_rhmargin="234.206" style="fill:#171615;font-family:IKGOXD+CaeciliaLTStd-Roman;font-size:7.5px;font-style:NORMAL;font-weight:normal;">-</text>
  <text x="234.206" y="556.905" svg_rhmargin="238.819" style="fill:#171615;font-family:DATKFN+GandhariUnicode-Roman;font-size:7.5px;font-style:NORMAL;font-weight:normal;">α</text>
  <text x="238.818" y="556.905" svg_rhmargin="242.988" style="fill:#171615;font-family:GHCCVH+CaeciliaLTStd-Italic;font-size:7.5px;font-style:ITALIC;font-weight:normal;">3</text>
  <text x="242.988" y="556.905" svg_rhmargin="246.041" style="fill:#171615;font-family:IKGOXD+CaeciliaLTStd-Roman;font-size:7.5px;font-style:NORMAL;font-weight:normal;">-</text>
  <text x="246.041" y="556.905" svg_rhmargin="250.241" style="fill:#171615;font-family:DATKFN+GandhariUnicode-Roman;font-size:7.5px;font-style:NORMAL;font-weight:normal;">β</text>
  <text x="250.241" y="556.905" svg_rhmargin="254.411" style="fill:#171615;font-family:GHCCVH+CaeciliaLTStd-Italic;font-size:7.5px;font-style:ITALIC;font-weight:normal;">4</text>
  <text y="556.905" svg_rhmargin="290.749" x="256.436,261.439,263.794,267.686,272.141,275.059,277.414,282.416,284.771,288.664" style="fill:#171615;font-family:IKGOXD+CaeciliaLTStd-Roman;font-size:7.5px;font-style:NORMAL;font-weight:normal;">nicotinic </text>
  <text svg_rhmargin="143.311" x="54.646,57.751,61.921,65.813,69.893,74.618,77.536,81.991,85.186,87.271,88.433,92.183,97.043,101.491,106.351,111.353,113.708,116.626,118.711,119.873,124.133,128.303,133.306,137.476,141.226,143.311" y="567.405" style="fill:#171615;font-family:IKGOXD+CaeciliaLTStd-Roman;font-size:7.5px;font-style:NORMAL;font-weight:normal;">receptor subunit genes </text>
  <text x="144.473,149.333,154.891,159.473,165.166,170.723" y="567.405" svg_rhmargin="174.893" style="fill:#171615;font-family:GHCCVH+CaeciliaLTStd-Italic;font-size:7.5px;font-style:ITALIC;font-weight:normal;">CHRNA5</text>
  <text svg_rhmargin="178.786" x="174.893,176.701,178.786" y="567.405" style="fill:#171615;font-family:IKGOXD+CaeciliaLTStd-Roman;font-size:7.5px;font-style:NORMAL;font-weight:normal;">, </text>
  <text x="179.948,184.808,190.366,194.948,200.641,206.198" y="567.405" svg_rhmargin="210.368" style="fill:#171615;font-family:GHCCVH+CaeciliaLTStd-Italic;font-size:7.5px;font-style:ITALIC;font-weight:normal;">CHRNA3</text>
  <text svg_rhmargin="231.541" x="210.368,212.176,214.261,215.423,219.728,224.731,229.456,231.541" y="567.405" style="fill:#171615;font-family:IKGOXD+CaeciliaLTStd-Roman;font-size:7.5px;font-style:NORMAL;font-weight:normal;">, and </text>
  <text x="232.703,237.563,243.121,247.703,253.396,257.843" y="567.405" svg_rhmargin="262.013" style="fill:#171615;font-family:GHCCVH+CaeciliaLTStd-Italic;font-size:7.5px;font-style:ITALIC;font-weight:normal;">CHRNB4</text>
  <text y="567.405" svg_rhmargin="290.731" x="265.261,269.566,274.568,279.293,281.378,282.541,284.896,288.646" style="fill:#171615;font-family:IKGOXD+CaeciliaLTStd-Roman;font-size:7.5px;font-style:NORMAL;font-weight:normal;">and is </text>
  <text x="54.646,57.563,62.566,66.736,68.821,69.533,73.283,76.201,79.306,83.761,88.763,93.022,97.192,100.942,103.86,105.945,106.657,110.917,115.087,120.09,124.26,127.177,129.532,133.425,135.51000000000002,136.222,140.115,144.57,149.572,152.49,155.685,158.04,162.487,167.347,170.265,174.72,177.915,180.0,180.712,183.63,188.085,190.17000000000002,190.882,196.852,202.545,204.63,205.342,209.647,214.65,219.375,221.46,222.172,225.922,233.422,237.877,242.325,244.68,249.682,253.852,255.937,256.65,261.097,265.267,270.27,274.35,278.655,281.01,285.465,288.66" y="577.905" svg_rhmargin="290.745" style="fill:#171615;font-family:IKGOXD+CaeciliaLTStd-Roman;font-size:7.5px;font-style:NORMAL;font-weight:normal;">the strongest genetic contributor to ND and smoking behavior </text>
  <text x="54.646,57.001,61.321,66.601,72.016,74.101,74.671,79.808,84.263,89.266,93.016,97.471,100.666,103.583,105.938,110.798,118.298,120.106,122.19099999999999,122.761,126.931,131.101,135.271,139.441,141.526,143.61100000000002,144.173,150.008,154.313,159.316,163.208,167.663,171.421,175.868,177.953,178.523,182.693,185.611,187.696,188.264,192.569,194.924,197.009,198.817,200.90200000000002,201.472,205.642,209.812,213.982,218.152,220.237,222.322,222.886,228.023,233.026,237.196,242.198,244.28300000000002,244.853,249.023,251.941,254.026,254.594,258.899,261.254,263.339,265.147,267.23199999999997,267.802,271.972,276.142,280.312,284.482,286.837,288.644" y="588.405" svg_rhmargin="290.729" style="fill:#171615;font-family:IKGOXD+CaeciliaLTStd-Roman;font-size:7.5px;font-style:NORMAL;font-weight:normal;">(TAG Consortium, 2010; Hancock et  al., 2015; Chen et  al., 2016). </text>
  <text x="54.638,59.648,64.651,68.821,72.571,76.741,78.728,83.453,88.456,93.181,95.536,100.538,104.708,108.458,110.446,114.196,119.056,123.226,127.486,131.656,135.406,138.323,140.311,143.228,148.231,152.536,155.453,157.441,161.746,163.733,167.626,171.931,176.791,180.541,184.846,187.201,189.188,196.688,200.858,204.616,209.618,213.923,218.926,221.281,225.031,232.531,234.518,239.378,244.381,249.106,253.276,256.471,258.736,263.041,265.396,270.398,274.568,276.556,279.473,284.476,288.646" y="598.905" svg_rhmargin="290.731" style="fill:#171615;font-family:IKGOXD+CaeciliaLTStd-Roman;font-size:7.5px;font-style:NORMAL;font-weight:normal;">These findings suggest that a causal mechanism underlying the </text>
  <text x="54.638,58.388,65.888,70.343,74.791,77.146,82.148,86.318,89.371,93.818,98.678,101.146,105.451,109.201,112.951,117.406,121.298,123.653,127.958,130.876,133.231,137.686,142.688,145.156,152.656,155.011,159.181,164.183,167.101,169.568,173.873,177.068,179.423,183.173,187.343,189.811,192.586,195.691,200.146,207.646,210.113,214.006,218.461,225.961,233.461,237.916,242.918,245.386,249.646,253.816,258.818,262.988,265.906,268.261,272.153,274.621,277.396,281.701,285.593" y="609.405" svg_rhmargin="288.646" style="fill:#171615;font-family:IKGOXD+CaeciliaLTStd-Roman;font-size:7.5px;font-style:NORMAL;font-weight:normal;">smoking-SZ association might arise from common genetic fac-</text>
  <text x="54.638,57.556,62.011,65.206,68.956,70.763,72.736,78.571,82.846,89.236,93.181,97.396,101.566,104.348,106.156,108.128,112.021,116.476,121.478,125.228,127.583,132.308,136.478,139.673,142.028,147.031,151.201,153.173,156.091,161.093,165.398,168.316,170.288,174.736,179.596,181.568,186.293,190.598,193.516,195.871,200.041,205.043,207.961,211.711,213.683,218.686,222.766,226.981,231.151,233.123,237.428,239.401,244.403,246.758,250.928,255.931,260.101,263.296,265.268,269.993,273.098,277.043,281.258,285.563" y="619.905" svg_rhmargin="288.616" style="fill:#171615;font-family:IKGOXD+CaeciliaLTStd-Roman;font-size:7.5px;font-style:NORMAL;font-weight:normal;">tors. However, considering that SZ patients have a higher preva-</text>
  <text x="54.638,56.993,61.163,66.166,70.058,74.228,76.448,80.903,83.678,85.898,89.791,94.651,97.846,100.951,105.121,110.123,113.041,115.261,119.011,126.511,130.966,135.413,137.768,142.771,146.941,149.161,152.078,157.081,161.386,166.388,168.608,174.443,179.581,183.331,185.551,189.856,194.858,199.583,201.803,204.721,209.723,213.893,216.113,221.528,225.833,228.053,232.358,237.361,242.086,244.306,247.223,252.226,256.396,258.616,262.921,267.923,272.228,274.493,278.798,282.548,284.903,288.653" y="630.405" svg_rhmargin="290.738" style="fill:#171615;font-family:IKGOXD+CaeciliaLTStd-Roman;font-size:7.5px;font-style:NORMAL;font-weight:normal;">lence of current smoking than HCs and the GP and the analysis </text>
  <text x="54.638,56.993,61.996,64.418,67.336,72.338,76.508,78.931,84.346,91.845,97.402,101.85,104.272,108.577,113.992,119.13,122.182,124.687,127.192,129.615,134.34,136.695,141.42,143.842,148.845,153.3,156.217,158.64,162.945,167.67,170.025,174.885,178.635,181.552,183.975,186.75,191.205,194.4,196.822,200.572,208.072,212.527,216.975,219.33,224.332,228.502,230.925,234.675,237.592,241.897,244.815,249.675,253.425,255.232,257.655,260.572,265.575,269.745,272.167,276.427,280.597,285.6" y="640.905" svg_rhmargin="288.653" style="fill:#171615;font-family:IKGOXD+CaeciliaLTStd-Roman;font-size:7.5px;font-style:NORMAL;font-weight:normal;">in the GWAS PGC-II did not adjust for smoking status, the gen-</text>
  <text x="54.638,58.808,61.726,64.081,67.973,70.05799999999999,70.831,75.556,80.558,85.283,87.638,92.641,96.811,98.896,99.668,102.586,107.588,111.893,114.811,116.896,117.664,120.582,125.584,129.754,131.839,132.612,136.782,140.952,145.677,149.847,154.017,156.102,156.871,159.226,163.681,167.573,172.433,176.183,178.268,179.041,181.396,185.146,187.231,187.999,192.304,196.054,199.804,204.259,208.152,210.507,214.812,217.729,221.899,226.624,228.709,229.482,236.007,238.362,241.279,246.282,248.36700000000002,249.135,253.583,258.443,260.52799999999996,261.3,268.8,272.88,277.185,279.27,280.043,284.49,288.66" y="651.405" svg_rhmargin="290.745" style="fill:#171615;font-family:IKGOXD+CaeciliaLTStd-Roman;font-size:7.5px;font-style:NORMAL;font-weight:normal;">etic finding that the 15q25 locus is associated with SZ may be </text>
  <text x="54.638,59.363,64.223,68.393,70.193,73.111,77.566,79.366,83.258,87.713,92.716,95.491,99.946,104.806,109.808,114.533,116.888,121.891,126.061,127.857,130.632,133.737,138.192,145.692,147.492,151.242,158.742,163.197,167.644,169.999,175.002,179.172,180.968,185.416,189.586,194.588,198.668,202.973,205.328,209.783,212.566,214.373,215.615,220.625,225.628,229.798,232.903,237.073,238.869,243.174,246.279,250.449,252.249,256.554,258.909,262.659,267.114,268.914,273.369,276.286,281.289,285.459,288.654" y="661.905" svg_rhmargin="290.739" style="fill:#171615;font-family:IKGOXD+CaeciliaLTStd-Roman;font-size:7.5px;font-style:NORMAL;font-weight:normal;">due to confounding from smoking behavior. There are also other </text>
  <text x="54.638,59.363,63.818,67.568,71.318,73.673,78.031,80.386,84.556,86.64099999999999,87.173,94.673,98.843,102.601,107.603,111.908,116.911,119.266,123.016,130.516,134.266,136.351,136.883,141.743,146.746,151.471,155.641,158.836,161.101,165.406,167.761,172.763,176.933,179.018,179.551,182.468,187.471,191.641,193.726,194.258,198.563,202.313,206.063,210.518,214.411,216.766,221.071,223.988,226.343,230.798,235.801,237.886,239.971,240.503,242.858,247.028,249.383,251.46800000000002,252.0,256.448,261.308,263.393,263.925,267.818,272.123,276.983,280.733,284.903,288.653" y="672.405" svg_rhmargin="290.738" style="fill:#171615;font-family:IKGOXD+CaeciliaLTStd-Roman;font-size:7.5px;font-style:NORMAL;font-weight:normal;">possible mechanisms underlying the association: (1) SZ causes </text>
  <text x="54.638,58.388,65.888,70.343,74.791,77.146,82.148,86.318,88.733,93.038,98.041,102.766,105.181,107.536,111.706,114.061,116.476,120.226,127.726,132.181,136.628,138.983,143.986,148.156,150.571,154.463,158.768,163.628,167.378,171.548,175.298,177.713,182.161,187.021,189.436,191.79,196.98,201.15,206.153,210.878,213.233,217.403,220.598,223.013,227.183,230.1,232.518,236.823,239.178,241.263,243.07,245.485,249.655,253.825,257.995,262.165,264.52,266.328,268.188,273.198,278.2,283.06,286.81,288.618" y="682.905" svg_rhmargin="290.703" style="fill:#171615;font-family:IKGOXD+CaeciliaLTStd-Roman;font-size:7.5px;font-style:NORMAL;font-weight:normal;">smoking and (2) smoking causes SZ (Kendler et al., 2015). Thus, </text>
  <text x="54.638,57.556,62.558,66.728,68.941,72.833,77.138,81.998,85.748,89.918,93.668,95.881,100.336,103.111,105.323,108.241,113.243,117.413,119.626,123.376,130.876,135.331,139.778,142.133,147.136,151.306,154.358,158.806,163.666,165.878,170.183,173.933,177.683,182.138,186.031,188.386,192.691,195.608,197.963,202.418,207.421,209.633,213.938,217.043,221.213,223.426,227.318,231.773,239.273,243.998,246.353,250.478,254.926,256.733,258.945,263.25,268.253,272.978,275.19,277.965,282.825,285.586" y="693.405" svg_rhmargin="288.639" style="fill:#171615;font-family:IKGOXD+CaeciliaLTStd-Roman;font-size:7.5px;font-style:NORMAL;font-weight:normal;">the causes of the smoking-SZ association are complex, and fur-</text>
  <text x="54.638,57.556,62.558,66.728,69.923,72.008,75.758,78.676,83.536,88.261,90.616,94.786,98.536,100.621,104.926,108.031,112.201,114.286,117.391,121.561,126.286,131.146,133.501,136.606,140.776,145.501,147.586,150.503,154.958,157.043,160.148,164.093,168.308,172.478,176.783,179.138,181.223,184.141,189.143,193.313,195.398,199.291,203.596,208.456,212.206,216.511,218.866,220.951,228.451,232.621,236.378,241.381,245.686,250.688,253.043,256.793,264.293,268.043" y="703.905" svg_rhmargin="270.128" style="fill:#171615;font-family:IKGOXD+CaeciliaLTStd-Roman;font-size:7.5px;font-style:NORMAL;font-weight:normal;">ther studies are required to reveal the causal mechanisms.</text>
  <text x="66.638,71.648,76.651,79.006,82.756,84.841,86.239,89.989,92.907,97.767,102.312,106.617,108.702,110.101,115.103,119.408,123.158,125.243,126.642,130.392,134.337,138.552,142.722,145.782,150.087,152.442,154.52700000000002,155.926,158.281,160.636,168.136,170.491,173.408,177.713,180.63,182.985,187.44,192.443,196.193,198.001,200.086,201.484,205.519,207.874,211.069,214.819,217.737,219.544,221.62900000000002,223.028,225.946,230.948,235.118,237.203,238.602,243.604,245.959,249.852,254.307,257.224,259.579,264.582,268.752,270.837,272.236,276.128,280.583,285.586" y="714.405" svg_rhmargin="288.639" style="fill:#171615;font-family:IKGOXD+CaeciliaLTStd-Roman;font-size:7.5px;font-style:NORMAL;font-weight:normal;">This study has several limitations. First, the nicotine con-</text>
  <text x="54.638,57.556,61.726,66.728,69.646,71.731,72.256,76.471,80.776,83.971,86.326,90.496,94.246,96.33099999999999,96.856,101.161,108.661,113.116,118.118,122.288,124.37299999999999,124.898,129.623,131.978,134.753,137.528,141.698,144.802,148.972,153.975,156.892,158.977,159.502,162.42,166.725,171.45,175.62,179.37,181.455,181.98,186.435,189.21,191.29500000000002,191.82,195.712,198.067,202.282,206.587,209.692,213.862,216.78,219.697,223.867,227.617,229.425,231.51000000000002,232.035,236.34,241.342,246.067,248.15200000000002,248.677,255.067,259.237,261.322,261.847,266.572,268.927,273.652,275.73699999999997,276.262,281.265,285.72,288.637" y="724.905" svg_rhmargin="290.722" style="fill:#171615;font-family:IKGOXD+CaeciliaLTStd-Roman;font-size:7.5px;font-style:NORMAL;font-weight:normal;">tent varies among different types of cigarettes, and we did not </text>
  <text x="54.638,58.531,62.986,67.988,71.738,74.093,78.818,82.988,86.183,88.043,93.046,95.401,99.293,103.748,106.666,109.021,114.023,118.193,120.053,123.946,128.401,133.403,136.321,140.491,145.493,148.411,150.219,151.525,156.535,161.538,165.708,167.568,169.923,174.925,177.7,182.155,185.35,192.85,197.155,200.073,202.428,206.883,211.885,213.745,217.96,222.408,226.863,231.723,234.64,236.5,239.418,244.42,248.59,250.45,255.363,260.223,267.723,272.17,276.34,279.535,281.395,285.85,288.625" y="735.405" svg_rhmargin="290.71" style="fill:#171615;font-family:IKGOXD+CaeciliaLTStd-Roman;font-size:7.5px;font-style:NORMAL;font-weight:normal;">consider nicotine content. The information about the number of </text>
  <text svg_rhmargin="290.708" x="54.638,59.776,64.081,69.773,71.85799999999999,72.593,76.343,81.346,85.801,90.661,93.016,97.741,99.826,100.561,105.008,109.178,111.26299999999999,111.998,115.891,120.346,125.348,130.073,133.268,140.768,144.938,149.663,151.74800000000002,152.483,156.706,161.011,163.096,163.831,168.278,170.633,175.088,177.443,181.853,186.113,188.468,192.361,196.666,199.021,201.106,201.841,209.341,213.511,217.816,221.566,226.426,229.531,233.701,237.451,239.258,241.34300000000002,242.078,244.853,249.308,252.503,254.588,255.323,259.448,263.896,268.201,275.701,280.426,282.781,286.816,288.623,290.70799999999997" y="84.40499999999997" style="fill:#171615;font-family:IKGOXD+CaeciliaLTStd-Roman;font-size:7.5px;font-style:NORMAL;font-weight:normal;">CPD should be confirmed by biological measures, for example, </text>
  <text x="306.638,311.086,314.191,318.361,322.666,325.583,330.586,332.408,337.546,343.246,345.068,347.423,351.368,355.583,359.753,362.108,365.858,367.666,369.488,373.793,377.543,379.366,382.283,387.286,391.456,393.278,395.633,400.636,403.411,407.866,411.061,418.561,422.866,425.783,428.138,432.593,437.596,439.418,445.853,450.158,453.908,455.727,460.182,464.629,467.547,471.852,474.207,479.209,483.379,488.104,489.927,494.149,498.454,500.273,504.023,508.193,510.548,513.323,516.376,519.481,523.561,528.286,532.741,535.936,538.853,540.661" y="84.40499999999997" svg_rhmargin="542.746" style="fill:#171615;font-family:IKGOXD+CaeciliaLTStd-Roman;font-size:7.5px;font-style:NORMAL;font-weight:normal;">breath CO levels, as the information was obtained by self-report. </text>
  <text x="306.638,312.338,317.198,320.393,322.47799999999995,323.273,327.023,331.328,338.828,343.553,345.908,350.078,352.16299999999995,352.958,356.708,359.063,363.091,367.261,371.011,373.096,373.891,378.346,381.121,383.20599999999996,384.001,386.918,391.921,396.091,398.176,398.971,403.418,408.278,410.363,411.158,415.883,420.188,423.106,425.461,429.631,434.633,437.551,441.301,443.38599999999997,444.181,448.486,453.488,458.213,460.298,461.093,466.928,472.066,475.816,477.90099999999995,478.696,485.086,489.256,492.361,496.531,498.616,499.411,504.136,506.491,510.241,513.158,515.513,520.516,524.408,527.326,529.4110000000001,530.206,532.981,537.436,540.631" y="94.90499999999997" svg_rhmargin="542.716" style="fill:#171615;font-family:IKGOXD+CaeciliaLTStd-Roman;font-size:7.5px;font-style:NORMAL;font-weight:normal;">Our sample sizes of the SZ patients and HCs were distinct for </text>
  <text x="306.638,311.093,315.953,319.148,321.233,322.298,326.19,330.495,334.245,338.415,341.468,345.36,349.815,354.818,357.735,360.84,365.295,367.65,369.73499999999996,370.8,375.105,380.108,384.413,386.678,390.983,394.733,398.903,402.653,404.738,405.803,410.108,413.858,415.943,417.008,419.925,424.928,429.098,432.848,437.018,439.10299999999995,440.168,444.893,449.198,452.393,455.31,457.665,461.558,463.913,468.638,472.943,477.945,480.863,484.613,486.698,487.763,491.655,496.11,501.113,504.863,507.218,510.968,513.885,518.055,522.78,524.865,525.93,530.385,533.161,535.246,536.311,540.616" y="105.40499999999997" svg_rhmargin="542.701" style="fill:#171615;font-family:IKGOXD+CaeciliaLTStd-Roman;font-size:7.5px;font-style:NORMAL;font-weight:normal;">our case-control analyses as these participants consisted of a </text>
  <text x="306.638,310.53,314.985,322.485,329.895,334.755,339.758,342.113,345.03,349.335,352.388,356.835,361.14,364.89,369.06,373.785,375.87,378.353,382.103,386.408,393.908,398.633,400.988,405.024,406.831,408.916,410.84,415.85,420.853,425.023,428.128,432.298,435.073,439.528,442.633,446.668,448.475,450.56,453.039,457.764,461.934,469.434,473.844,478.014,481.074,485.379,490.104,495.106,497.461,501.354,503.43899999999996,505.918,510.133,514.438,517.633,519.988,524.203,528.56,530.915,535.085,538.835,540.642" y="115.90499999999997" svg_rhmargin="542.727" style="fill:#171615;font-family:IKGOXD+CaeciliaLTStd-Roman;font-size:7.5px;font-style:NORMAL;font-weight:normal;">community-based sample. Therefore, demographic variables, </text>
  <text x="306.638,310.388,315.248,319.005,324.008,326.09299999999996,326.79,331.095,334.845,336.93,337.628,341.843,346.103,350.273,352.358,353.055,357.36,362.363,367.088,369.173,369.87,374.13,378.301,383.303,388.028,392.198,394.981,396.788,398.873,399.571,407.071,411.151,415.456,417.541,418.238,423.241,427.695,430.613,432.698,433.396,438.398,442.478,446.693,450.863,452.948,453.646,458.093,462.263,466.433,471.436,473.52099999999996,474.218,481.718,486.023,488.941,492.698,497.701,501.871,506.596,508.681,509.378,513.826,517.996,520.913,527.303,531.473,535.643,540.646" y="126.40499999999997" svg_rhmargin="542.731" style="fill:#171615;font-family:IKGOXD+CaeciliaLTStd-Roman;font-size:7.5px;font-style:NORMAL;font-weight:normal;">such as age and gender, may not have been matched between </text>
  <text x="306.638,310.808,313.913,318.368,323.228,327.953,331.703,333.51,335.59499999999997,336.098,340.403,342.758,345.676,350.678,355.133,359.993,364.163,369.165,371.25,371.753,374.671,379.673,383.843,387.593,391.763,393.84799999999996,394.351,398.566,402.871,406.066,408.421,412.636,416.993,419.348,423.518,427.268,429.35299999999995,429.856,436.246,440.416,443.521,447.691,449.77599999999995,450.278,453.196,456.301,460.471,464.776,467.693,471.863,476.588,478.673,479.176,483.481,487.231,489.316,489.818,493.711,497.986,502.201,506.506,509.701,512.056,516.361,519.278,523.448,527.198,529.006,531.318,536.875,540.625" y="136.90499999999997" svg_rhmargin="542.71" style="fill:#171615;font-family:IKGOXD+CaeciliaLTStd-Roman;font-size:7.5px;font-style:NORMAL;font-weight:normal;">groups, although these variables were treated as covariates. As </text>
  <text x="306.638,311.363,313.718,317.468,321.361,326.22,329.97,333.72,337.891,342.616,344.70099999999996,346.849,351.064,355.511,359.786,364.001,368.036,369.844,371.929,374.077,376.995,381.997,386.167,388.25199999999995,390.4,395.125,399.295,404.02,409.023,411.378,414.295,416.65,421.105,426.108,429.858,431.943,434.091,438.546,441.321,443.406,445.554,449.304,456.804,461.259,465.706,468.061,473.064,477.234,479.31899999999996,481.467,485.914,490.084,495.087,499.167,503.472,505.827,510.282,513.477,517.227,519.034,521.119,523.268,527.018,531.878,535.636,540.638" y="147.40499999999997" svg_rhmargin="542.723" style="fill:#171615;font-family:IKGOXD+CaeciliaLTStd-Roman;font-size:7.5px;font-style:NORMAL;font-weight:normal;">discussed above, the definitions of smoking behaviors, such </text>
  <text x="306.638,310.943,314.693,316.77799999999996,318.81,322.703,327.563,330.758,333.863,338.033,343.035,345.953,348.03799999999995,350.07,353.82,361.32,365.775,370.223,374.393,377.588,379.673,381.706,386.01,391.013,395.738,397.823,399.855,404.858,409.028,413.108,417.413,421.718,423.803,425.835,429.585,437.085,441.54,445.988,450.158,452.94,454.748,456.83299999999997,458.865,463.59,465.945,468.72,471.495,475.665,478.771,482.941,487.666,489.751,491.783,496.088,503.588,508.043,513.045,517.215,519.3000000000001,521.333,525.083,528.0,532.86,537.585" y="157.90499999999997" svg_rhmargin="540.638" style="fill:#171615;font-family:IKGOXD+CaeciliaLTStd-Roman;font-size:7.5px;font-style:NORMAL;font-weight:normal;">as current smoker and heavy smoker, differed among stud-</text>
  <text x="306.638,308.993,313.163,316.913,318.721,320.806,322.009,327.019,332.021,336.191,338.27599999999995,340.031,343.781,346.136,353.636,358.361,360.716,364.886,368.636,371.554,373.63899999999995,375.394,381.829,385.909,390.214,392.299,394.054,398.509,401.284,403.36899999999997,405.124,409.849,414.019,417.769,421.661,424.856,427.211,431.659,434.014,439.016,443.186,445.27099999999996,447.026,450.776,458.276,462.731,467.179,469.534,474.536,478.706,480.791,482.546,486.994,491.164,496.166,500.246,504.551,506.906,511.361,514.556,518.306,520.3910000000001,522.146,524.501,528.251,530.336,532.091,536.313,540.618" y="168.40499999999997" svg_rhmargin="542.703" style="fill:#171615;font-family:IKGOXD+CaeciliaLTStd-Roman;font-size:7.5px;font-style:NORMAL;font-weight:normal;">ies. The simplest way of describing smoking behaviors is by </text>
  <text x="306.638,310.53,314.985,322.485,327.21,331.515,334.71,337.065,342.068,346.238,348.323,349.193,352.111,357.113,361.283,363.368,364.238,368.963,372.068,376.523,381.248,385.703,388.898,391.816,394.171,398.626,403.628,405.71299999999997,406.583,411.038,413.813,415.89799999999997,416.768,419.123,424.125,428.85,431.116,435.421,437.776,442.501,447.361,451.665,454.021,457.771,459.856,460.725,467.25,472.253,476.708,478.793,479.663,483.555,488.415,491.61,494.715,498.885,503.888,506.805,509.07,513.375,515.46,516.331,520.081,527.581,532.036,536.483,540.653" y="178.90499999999997" svg_rhmargin="542.738" style="fill:#171615;font-family:IKGOXD+CaeciliaLTStd-Roman;font-size:7.5px;font-style:NORMAL;font-weight:normal;">comparing the proportion of individuals who currently smoke </text>
  <text x="306.638,310.943,318.443,322.898,327.9,332.07,334.155,335.13,339.301,342.406,346.861,351.72,356.445,360.195,362.003,364.08799999999997,365.063,367.568,372.57,374.655,375.63,380.355,384.105,388.41,392.168,397.17,399.525,403.83,406.748,409.943,412.298,416.19,418.275,419.25,423.331,428.056,430.411,435.136,439.306,446.806,449.161,453.616,455.971,460.381,464.641,466.996,470.888,475.193,477.548,479.633,480.608,484.358,489.218,492.413,496.627,500.573,504.878,508.628,510.436,512.521,513.496,517.388,522.248,525.443,528.548,532.718,537.721,540.638" y="189.40499999999997" svg_rhmargin="542.723" style="fill:#171615;font-family:IKGOXD+CaeciliaLTStd-Roman;font-size:7.5px;font-style:NORMAL;font-weight:normal;">among groups. In psychiatric epidemiological surveys, current </text>
  <text x="306.638,310.388,317.888,322.343,326.79,329.146,334.148,338.318,340.40299999999996,341.063,343.418,347.168,349.253,349.913,354.773,358.523,363.383,367.688,370.043,372.308,376.613,378.698,379.358,384.083,388.253,392.978,397.981,402.151,406.876,408.96099999999996,409.621,413.926,417.676,419.76099999999997,420.421,424.313,429.173,432.368,435.473,439.643,444.646,447.563,449.64799999999997,450.308,455.033,459.338,461.693,463.958,468.263,470.34799999999996,471.008,474.758,482.258,486.713,491.161,493.516,498.518,502.688,504.496,506.58099999999996,507.241,513.211,517.666,522.668,527.393,531.698,534.053,536.318,540.623" y="199.90499999999997" svg_rhmargin="542.708" style="fill:#171615;font-family:IKGOXD+CaeciliaLTStd-Roman;font-size:7.5px;font-style:NORMAL;font-weight:normal;">smoking is usually defined as current daily smoking. Nondaily </text>
  <text x="306.638,310.388,317.888,322.343,326.79,330.961,334.156,337.906,339.991,341.146,345.451,348.556,352.726,354.811,355.966,360.181,364.351,367.456,371.761,373.846,375.001,378.061,382.366,385.471,389.641,391.726,392.881,397.186,404.686,409.141,414.143,418.313,420.39799999999997,421.553,426.001,430.861,432.94599999999997,434.1,438.826,443.13,446.048,448.403,452.573,457.576,460.493,464.243,466.051,468.13599999999997,469.291,471.796,476.798,478.883,480.038,485.453,489.758,491.84299999999996,492.998,496.748,501.608,504.803,509.018,512.963,517.268,521.018,522.826,524.9110000000001,526.065,529.958,534.818,537.586" y="210.40499999999997" svg_rhmargin="540.639" style="fill:#171615;font-family:IKGOXD+CaeciliaLTStd-Roman;font-size:7.5px;font-style:NORMAL;font-weight:normal;">smokers are very rare among SZ patients. In GP surveys, cur-</text>
  <text x="306.638,309.743,313.913,318.916,321.833,323.918,325.118,328.868,336.368,340.823,345.271,349.441,352.636,356.386,358.471,359.671,364.531,368.281,373.141,377.446,379.801,382.066,386.371,388.45599999999996,389.656,392.011,397.013,400.906,403.261,408.121,412.846,417.016,419.101,420.301,424.748,429.203,432.121,437.123,439.20799999999997,440.408,444.301,449.161,452.356,455.461,459.631,464.633,467.551,469.63599999999997,470.836,475.561,479.866,482.221,484.486,488.791,490.876,492.076,495.826,503.326,507.781,512.228,516.398,519.593,523.343,525.428,526.628,530.933,535.936,540.661" y="220.90499999999997" svg_rhmargin="542.746" style="fill:#171615;font-family:IKGOXD+CaeciliaLTStd-Roman;font-size:7.5px;font-style:NORMAL;font-weight:normal;">rent smokers usually include both current daily smokers and </text>
  <text x="306.638,311.641,316.095,321.098,325.823,330.128,332.483,334.748,339.053,341.138,341.881,345.631,353.131,357.586,362.033,366.203,369.398,373.148,374.955,377.03999999999996,377.782,382.23,387.09,390.007,392.092,392.835,395.752,400.755,404.925,407.01,407.752,412.755,417.21,422.212,426.937,431.242,433.597,435.862,440.167,442.25199999999995,442.995,446.745,454.245,458.7,463.147,467.317,470.512,474.262,476.347,477.09,481.95,485.7,490.56,494.865,497.22,499.485,503.79,505.875,506.617,510.51,514.965,522.465,527.19,530.385,532.74,536.49,540.66" y="231.40499999999997" svg_rhmargin="542.745" style="fill:#171615;font-family:IKGOXD+CaeciliaLTStd-Roman;font-size:7.5px;font-style:NORMAL;font-weight:normal;">nondaily smokers, but the nondaily smokers usually comprise </text>
  <text x="306.638,311.138,315.308,321.556,323.64099999999996,324.788,329.243,332.018,334.10299999999995,335.251,338.168,343.171,347.341,349.426,350.573,355.988,359.325,361.132,363.217,364.365,370.2,374.37,378.449,382.754,387.059,389.144,390.292,394.042,401.542,405.997,410.444,414.614,417.809,421.559,423.644,424.792,429.097,432.202,436.372,438.457,439.604,444.329,448.499,453.224,458.227,462.397,467.122,469.207,470.354,474.659,478.409,480.49399999999997,481.642,485.392,492.892,497.347,501.794,504.149,509.152,513.322,515.407,516.554,520.859,522.9440000000001,524.092,529.094,531.449,535.619,540.622" y="241.90499999999997" svg_rhmargin="542.707" style="fill:#171615;font-family:IKGOXD+CaeciliaLTStd-Roman;font-size:7.5px;font-style:NORMAL;font-weight:normal;">&lt;5% of the GP. Heavy smokers are defined as smoking a high </text>
  <text x="306.638,311.363,315.668,318.023,320.288,324.593,326.731,331.643,336.503,344.003,348.451,352.621,355.816,357.953,362.408,365.183,367.321,371.213,373.568,377.783,382.088,385.193,389.363,392.281,395.198,399.368,403.118,404.926,407.063,411.511,416.371,419.288,421.426,424.343,429.346,433.516,435.653,439.403,444.128,448.298,452.191,454.546,459.271,463.163,465.301,470.213,475.073,482.573,487.021,491.191,494.386,496.523,500.978,503.753,505.891,511.028,515.333,521.026,523.163,528.023,531.773,535.943,540.668" y="252.40499999999997" svg_rhmargin="542.753" style="fill:#171615;font-family:IKGOXD+CaeciliaLTStd-Roman;font-size:7.5px;font-style:NORMAL;font-weight:normal;">daily number of cigarettes, but the specific number of CPD used </text>
  <text x="306.638,309.556,314.01,315.796,320.521,324.691,329.416,334.418,338.588,340.373,345.376,349.546,353.626,357.931,362.236,364.021,367.771,375.271,379.726,384.173,388.343,391.538,395.288,397.073,399.428,403.598,407.768,409.576,411.361,415.531,419.701,421.509,423.294,427.749,430.944,432.729,436.899,441.069,443.424,445.209,449.934,452.289,455.064,457.839,462.009,465.113,469.283,474.008,475.793,480.098,487.598,492.053,497.056,501.226,503.011,506.761,509.678,514.538,519.263,521.618,525.788,529.538,531.346,533.131,535.636,540.638" y="262.905" svg_rhmargin="542.723" style="fill:#171615;font-family:IKGOXD+CaeciliaLTStd-Roman;font-size:7.5px;font-style:NORMAL;font-weight:normal;">to define heavy smokers (10, 20, or 30) differed among studies. In </text>
  <text x="306.638,310.943,315.668,320.393,322.748,325.666,328.021,332.476,337.478,339.286,341.371,341.963,346.966,351.136,355.216,359.521,363.826,365.911,366.503,370.253,377.753,382.208,386.655,389.01,394.013,398.183,400.268,400.861,403.216,406.966,409.051,409.643,413.948,416.03299999999996,416.625,420.796,423.901,428.355,432.105,435.855,437.94,438.533,440.888,445.891,450.616,452.971,456.863,461.168,464.086,468.54,471.736,473.82099999999997,474.413,478.868,481.643,483.72799999999995,484.32,490.29,495.645,497.453,499.53799999999995,500.13,504.578,509.438,512.355,514.44,515.033,518.925,523.38,526.576,529.68,533.85,537.743,540.66" y="273.405" svg_rhmargin="542.745" style="fill:#171615;font-family:IKGOXD+CaeciliaLTStd-Roman;font-size:7.5px;font-style:NORMAL;font-weight:normal;">addition, heavy smoking is a gross indicator of ND, but correct </text>
  <text x="306.638,308.993,313.996,316.913,321.083,324.278,329.003,332.108,336.278,339.196,343.501,346.418,348.773,353.228,358.231,360.556,367.966,372.826,376.576,379.493,381.818,384.736,389.041,393.488,397.658,399.983,404.708,409.711,414.016,417.211,424.711,429.016,432.908,437.363,441.811,444.166,449.168,453.338,456.256,458.611,462.503,464.828,467.603,471.908,475.801,478.718,483.173,486.368,490.118,492.443,494.798,499.801,502.718,507.173,509.498,513.803,517.696,521.588,526.043,530.903,535.906,538.823,540.631" y="283.905" svg_rhmargin="542.716" style="fill:#171615;font-family:IKGOXD+CaeciliaLTStd-Roman;font-size:7.5px;font-style:NORMAL;font-weight:normal;">interpretation must take pharmacokinetic factors into account. </text>
  <text x="306.638,311.086,318.586,323.04,327.488,329.843,334.846,339.016,341.101,342.608,347.056,351.226,356.228,360.308,364.613,366.968,371.423,374.618,378.368,380.453,381.961,389.461,393.541,397.846,399.931,401.438,405.886,410.056,412.14099999999996,413.648,416.003,421.006,425.866,430.726,434.896,439.898,443.791,447.961,452.686,454.77099999999996,456.278,460.501,464.806,466.89099999999996,468.398,472.148,476.603,480.496,482.851,487.306,491.476,495.368,499.823,504.826,509.28,516.781,519.135,523.028,525.113,526.621,530.926,535.928,540.653" y="294.405" svg_rhmargin="542.738" style="fill:#171615;font-family:IKGOXD+CaeciliaLTStd-Roman;font-size:7.5px;font-style:NORMAL;font-weight:normal;">Smoking behaviors may be influenced by socioeconomic and </text>
  <text x="306.638,310.808,315.533,320.393,324.285,328.59,331.508,333.863,338.318,343.32,347.625,349.98,352.005,354.78,359.085,362.978,365.895,370.35,373.545,377.295,379.32,383.625,387.375,389.4,395.79,399.96,402.315,404.67,406.695,411.0,414.75,416.775,421.035,425.205,430.208,434.933,439.103,442.298,444.323,446.678,450.758,455.213,457.568,460.763,463.118,467.288,470.483,472.508,476.678,479.596,481.622,485.927,488.282,490.367,492.175,494.2,498.37,502.54,506.71,510.88,513.235,515.043,517.068,519.573,524.575,526.6,529.518,534.52,536.875,540.625" y="304.905" svg_rhmargin="542.71" style="fill:#171615;font-family:IKGOXD+CaeciliaLTStd-Roman;font-size:7.5px;font-style:NORMAL;font-weight:normal;">educational factors as well as gender (Poirier et al., 2002). In this </text>
  <text x="306.638,310.388,313.306,318.165,322.711,326.326,328.133,330.21799999999996,331.058,337.448,341.618,343.703,344.543,349.268,353.438,356.633,359.408,363.863,367.058,374.558,378.728,383.453,385.53799999999995,386.378,393.878,398.048,400.966,405.271,408.323,412.628,417.63,421.935,424.201,428.505,432.255,436.426,440.176,442.26099999999997,443.1,449.625,451.98,454.898,459.901,461.986,462.826,466.576,469.493,472.553,476.858,479.776,482.131,486.856,490.748,495.053,497.971,500.326,504.781,509.783,511.868,512.708,516.931,521.236,523.321,524.161,528.421,532.591,537.593" y="315.405" svg_rhmargin="540.646" style="fill:#171615;font-family:IKGOXD+CaeciliaLTStd-Roman;font-size:7.5px;font-style:NORMAL;font-weight:normal;">study, we performed meta-analyses with stratification by gen-</text>
  <text x="306.638,311.363,315.533,318.316,320.123,322.118,327.953,332.228,338.618,342.563,346.778,350.948,353.73,355.538,357.533,361.425,366.285,369.48,372.585,376.755,381.758,384.676,386.671,390.421,397.921,402.375,406.823,409.178,414.181,418.351,420.346,422.701,426.451,428.446,432.751,435.106,438.856,443.311,445.306,449.611,453.361,457.111,461.565,465.458,467.813,472.118,475.035,479.206,483.931,485.926,492.451,494.806,497.723,502.726,504.721,507.076,511.351,517.876,519.871,522.226,526.171,530.385,534.555,536.91,540.66" y="325.905" svg_rhmargin="542.745" style="fill:#171615;font-family:IKGOXD+CaeciliaLTStd-Roman;font-size:7.5px;font-style:NORMAL;font-weight:normal;">der. However, current smoking is also associated with low levels </text>
  <text x="306.638,311.093,313.868,315.953,317.059,321.229,325.954,330.814,334.707,339.012,341.929,344.284,348.739,353.742,355.549,357.63399999999996,358.74,363.045,368.048,372.773,374.858,375.964,380.411,385.271,387.356,388.462,393.187,397.492,400.41,402.765,406.935,411.937,414.855,418.605,420.69,421.796,426.799,430.879,435.094,439.264,441.349,442.455,447.457,449.812,453.982,458.985,463.155,466.35,468.435,469.54,474.265,478.435,481.495,485.388,489.558,494.56,497.478,501.693,505.953,510.123,513.873,515.9580000000001,517.064,521.519,524.294,526.379,527.485,529.84,534.115,540.64" y="336.405" svg_rhmargin="542.725" style="fill:#171615;font-family:IKGOXD+CaeciliaLTStd-Roman;font-size:7.5px;font-style:NORMAL;font-weight:normal;">of education, and SZ patients have higher percentages of low </text>
  <text x="306.638,310.388,314.843,318.735,321.09,325.545,329.715,333.608,338.063,343.065,347.52,355.02,357.375,361.268,363.35299999999995,364.943,369.248,374.25,378.975,381.06,382.65,386.82,391.545,396.405,400.298,404.603,407.52,409.875,414.33,419.333,423.638,425.993,428.078,429.668,432.023,435.968,440.183,444.353,446.708,450.458,452.543,454.133,458.025,462.48,469.98,474.705,479.01,482.116,486.286,491.011,493.096,494.686,501.211,503.566,506.484,511.486,513.571,515.161,518.079,523.081,527.251,529.336,530.926,536.341,540.646" y="346.905" svg_rhmargin="542.731" style="fill:#171615;font-family:IKGOXD+CaeciliaLTStd-Roman;font-size:7.5px;font-style:NORMAL;font-weight:normal;">socioeconomic and educational levels compared with the GP </text>
  <text x="306.638,310.943,315.945,320.671,322.756,323.76,329.595,334.733,338.483,340.29,342.375,342.829,347.839,352.842,357.012,360.117,364.287,367.062,371.517,374.622,378.657,380.464,382.549,383.554,387.447,391.902,399.402,404.127,408.432,411.627,413.982,417.732,422.187,427.189,430.939,433.024,434.029,438.484,441.259,443.344,444.349,448.242,453.102,456.297,459.402,463.572,468.574,471.492,473.577,474.582,478.332,485.832,490.287,494.734,497.089,502.092,506.262,508.347,509.352,513.799,517.969,520.887,527.277,531.447,535.617,540.619" y="357.405" svg_rhmargin="542.704" style="fill:#171615;font-family:IKGOXD+CaeciliaLTStd-Roman;font-size:7.5px;font-style:NORMAL;font-weight:normal;">and HCs. Therefore, comparisons of current smoking between </text>
  <text x="306.638,311.086,315.945,318.03,318.495,322.8,327.803,332.528,334.613,335.078,340.493,344.798,346.883,347.348,351.518,354.623,359.078,363.938,368.663,372.413,374.498,374.963,382.463,386.543,390.848,392.933,393.398,398.123,401.228,405.683,410.408,415.268,419.16,423.33,425.41499999999996,425.88,430.328,432.683,436.988,440.738,444.908,449.633,451.71799999999996,452.183,456.075,460.53,465.533,469.425,471.78,476.64,480.39,482.745,487.2,492.203,495.953,498.03799999999995,498.503,500.858,503.633,505.71799999999996,506.183,509.933,514.388,518.28,520.635,525.09,529.26,533.153,537.608" y="367.905" svg_rhmargin="540.661" style="fill:#171615;font-family:IKGOXD+CaeciliaLTStd-Roman;font-size:7.5px;font-style:NORMAL;font-weight:normal;">SZ and GP groups may produce biased conclusions if socioeco-</text>
  <text x="306.638,311.641,316.095,323.595,325.951,329.843,331.928,336.233,341.235,345.96,348.045,352.215,356.94,361.8,365.693,369.998,372.915,375.27,379.725,384.728,389.033,391.388,393.473,395.828,399.773,403.988,408.158,410.513,414.263,416.348,420.653,423.758,427.928,430.013,435.016,439.47,442.388,444.473,448.365,452.67,455.775,459.945,462.72,467.58,469.935,472.201,476.505,478.59,482.483,486.938,491.94,494.858,497.964,502.419,504.774,507.129,511.299,516.024" y="378.405" svg_rhmargin="518.109" style="fill:#171615;font-family:IKGOXD+CaeciliaLTStd-Roman;font-size:7.5px;font-style:NORMAL;font-weight:normal;">nomic and educational levels are not carefully controlled.</text>
  <text x="318.638,321.143,326.146,328.231,329.971,333.863,338.318,343.32,347.213,349.568,354.428,358.178,360.533,364.988,369.99,371.798,373.883,375.623,380.078,384.938,388.133,390.21799999999996,391.958,396.683,400.988,404.183,407.1,409.456,413.348,415.703,420.428,424.733,429.736,432.653,436.403,438.488,440.228,443.333,447.413,452.138,454.493,456.848,460.741,465.046,467.963,472.133,474.21799999999996,475.958,479.903,484.208,486.563,491.288,495.458,500.461,504.353,508.523,510.608,512.348,515.266,520.268,524.573,527.491,529.576,531.316,535.763,540.623" y="388.905" svg_rhmargin="542.708" style="fill:#171615;font-family:IKGOXD+CaeciliaLTStd-Roman;font-size:7.5px;font-style:NORMAL;font-weight:normal;">In conclusion, our participants replicate evidence that SZ </text>
  <text x="306.638,311.363,315.668,318.586,320.941,325.111,330.113,333.031,336.781,338.866,341.101,346.103,350.183,354.398,358.568,360.65299999999996,362.888,367.193,369.27799999999996,371.513,378.923,383.783,387.541,392.543,394.628,396.863,401.866,404.221,408.391,413.393,417.563,420.758,422.84299999999996,425.078,429.803,432.908,436.853,441.068,445.373,447.728,451.898,456.901,460.793,464.963,467.048,469.283,473.738,476.513,478.59799999999996,480.833,484.726,489.586,492.781,495.886,500.056,505.058,507.976,510.061,512.296,515.213,519.668,524.116,528.421,532.313,536.206,540.661" y="399.405" svg_rhmargin="542.746" style="fill:#171615;font-family:IKGOXD+CaeciliaLTStd-Roman;font-size:7.5px;font-style:NORMAL;font-weight:normal;">patients have a much higher prevalence of current tobacco </text>
  <text x="306.638,310.388,317.888,322.343,326.79,329.146,334.148,338.318,340.40299999999996,341.048,345.353,350.356,355.081,357.166,357.811,362.813,366.983,371.063,375.368,379.673,381.758,382.403,386.153,393.653,398.108,402.556,404.911,409.913,414.083,416.168,416.813,420.706,425.161,432.661,437.386,441.691,444.796,448.966,453.691,455.77599999999995,456.421,462.946,465.301,468.218,473.221,475.306,475.951,481.786,486.923,490.673,492.481,494.654,499.664,504.667,508.837,510.92199999999997,511.567,516.479,521.339,528.839,533.287,537.457,540.652" y="409.905" svg_rhmargin="542.737" style="fill:#171615;font-family:IKGOXD+CaeciliaLTStd-Roman;font-size:7.5px;font-style:NORMAL;font-weight:normal;">smoking and heavy smoking compared with HCs. The number </text>
  <text x="306.638,311.093,313.868,315.953,316.508,321.646,325.951,331.643,333.72799999999995,334.283,336.638,340.388,342.47299999999996,343.028,346.921,351.376,354.571,357.675,361.845,364.2,368.505,371.422,375.592,380.317,382.402,382.957,389.482,391.837,394.755,399.757,401.842,402.397,405.315,410.317,414.487,416.572,417.127,421.432,424.35,428.655,433.38,435.735,439.627,443.932,446.287,448.37199999999996,448.927,453.232,458.235,461.152,463.507,468.232,471.982,476.287,480.045,485.047,489.502,492.42,494.775,498.667,502.417,504.50199999999995,505.057,509.782,514.237,517.987,522.202,526.462,530.632,532.717,533.272,535.627,540.63" y="420.405" svg_rhmargin="542.715" style="fill:#171615;font-family:IKGOXD+CaeciliaLTStd-Roman;font-size:7.5px;font-style:NORMAL;font-weight:normal;">of CPD is correlated with the atypical antipsychotics dosage in </text>
  <text x="306.638,309.556,314.558,318.728,320.813,322.388,327.113,331.418,334.336,336.691,340.861,345.863,348.781,352.531,354.338,356.423,357.998,363.698,368.558,371.753,373.83799999999997,375.413,382.913,387.083,390.001,394.306,397.358,401.663,406.666,410.971,413.236,417.541,421.291,423.646,427.396,429.481,431.056,434.806,437.723,440.783,445.088,448.006,450.361,455.086,459.256,463.981,466.066,467.641,471.863,476.168,478.253,479.828,484.088,488.258,493.261,497.986,502.156,505.351,507.436,509.011,512.761,517.621,521.791,526.051,530.221,533.971,536.888,540.638" y="430.905" svg_rhmargin="542.723" style="fill:#171615;font-family:IKGOXD+CaeciliaLTStd-Roman;font-size:7.5px;font-style:NORMAL;font-weight:normal;">the patients. Our meta-analysis stratified by gender suggests </text>
  <text x="306.638,309.556,314.558,318.863,321.781,323.866,324.649,327.567,332.569,336.739,338.82399999999996,339.608,344.333,347.438,351.383,355.598,359.903,362.258,366.428,371.431,375.323,379.493,381.578,382.362,386.817,389.592,391.67699999999996,392.461,396.353,401.213,404.408,407.513,411.683,416.686,419.603,421.688,422.472,426.222,433.722,438.177,442.624,444.979,449.982,454.152,456.23699999999997,457.021,459.376,464.378,466.46299999999997,467.247,471.694,476.554,478.63899999999995,479.423,484.148,488.453,491.371,493.726,497.896,502.898,505.816,509.566,511.65099999999995,512.434,514.789,518.539,520.624,521.408,528.908,533.363,536.468,540.638" y="441.405" svg_rhmargin="542.723" style="fill:#171615;font-family:IKGOXD+CaeciliaLTStd-Roman;font-size:7.5px;font-style:NORMAL;font-weight:normal;">that the prevalence of current smoking in SZ patients is more </text>
  <text x="306.638,309.556,314.558,318.863,323.866,325.478,329.783,334.508,339.233,342.338,346.748,351.195,353.551,361.051,365.355,368.273,372.443,374.708,379.013,380.626,384.796,386.408,389.326,391.681,399.181,403.351,407.101,408.713,413.716,416.071,420.241,425.243,429.413,432.608,434.221,437.138,442.141,446.446,451.448,453.061,455.978,460.981,465.151,466.763,471.488,474.593,478.538,482.753,487.058,489.413,493.583,498.586,502.478,506.648,508.261,510.616,515.618,517.231,520.148,525.151,529.321,530.933,536.348,540.653" y="451.905" svg_rhmargin="542.738" style="fill:#171615;font-family:IKGOXD+CaeciliaLTStd-Roman;font-size:7.5px;font-style:NORMAL;font-weight:normal;">than approximately 2 times higher than the prevalence in the GP </text>
  <text x="306.638,310.943,315.945,320.671,322.568,328.403,333.54,337.29,339.188,345.713,348.068,350.986,355.988,360.443,365.303,368.22,370.118,374.843,378.593,382.898,386.655,391.658,394.013,398.318,401.235,404.43,406.785,410.678,412.575,417.3,419.655,423.405,427.86,430.875,435.6,439.771,442.966,446.716,448.613,450.968,455.971,457.868,462.173,464.07,466.343,470.648,475.373,479.678,484.68,488.85,492.6,496.771,498.668,503.393,507.848,512.573,517.433,519.788,524.093,527.01,529.365,533.82,538.823,540.63" y="462.405" svg_rhmargin="542.715" style="fill:#171615;font-family:IKGOXD+CaeciliaLTStd-Roman;font-size:7.5px;font-style:NORMAL;font-weight:normal;">and HCs without psychiatric disorders in a Japanese population. </text>
  <text x="306.638,312.195,314.551,317.468,322.471,326.926,331.785,335.956,340.958,343.043,343.508,346.426,351.428,355.598,357.683,358.148,362.873,365.228,368.003,370.778,374.948,378.053,382.223,387.226,391.118,395.288,397.373,397.838,400.193,405.196,407.281,407.746,410.663,415.666,419.836,421.921,422.386,427.111,430.216,434.161,438.376,442.681,445.036,449.206,454.208,458.101,462.271,464.356,464.821,469.268,473.438,476.356,482.746,486.916,491.086,496.088,498.173,498.638,503.086,507.946,510.031,510.496,515.221,519.526,522.443,524.798,528.968,533.971,536.888,540.638" y="472.905" svg_rhmargin="542.723" style="fill:#171615;font-family:IKGOXD+CaeciliaLTStd-Roman;font-size:7.5px;font-style:NORMAL;font-weight:normal;">Although the difference in the prevalence between SZ patients </text>
  <text x="306.638,310.943,315.945,320.671,322.789,325.707,330.709,334.879,337.002,342.417,346.722,348.841,351.196,356.198,358.321,360.593,364.898,369.623,373.928,378.931,381.053,387.488,391.793,395.543,397.662,400.017,404.292,410.682,414.853,418.048,420.166,423.084,428.086,432.391,437.394,439.513,442.43,447.433,451.603,453.725,458.45,460.805,463.58,466.355,470.525,473.63,477.8,482.803,486.695,490.865,494.615,496.738,499.843,503.923,508.648,513.103,516.298,519.215,523.385,528.11,530.229,533.004,537.459,540.654" y="483.405" svg_rhmargin="542.739" style="fill:#171615;font-family:IKGOXD+CaeciliaLTStd-Roman;font-size:7.5px;font-style:NORMAL;font-weight:normal;">and the GP in Japan was lower than the differences reported for </text>
  <text x="306.638,311.093,314.01,319.013,323.183,326.378,328.366,332.258,336.713,341.573,346.575,349.493,352.688,355.043,359.213,362.963,364.771,366.758,371.213,376.073,379.268,381.255,385.98,390.983,395.708,398.063,403.065,407.236,410.986,412.969,415.324,420.327,425.052,427.407,431.299,435.604,438.522,442.692,444.679,447.597,452.599,456.904,459.822,461.809,466.257,471.117,473.104,477.829,482.134,485.052,487.407,491.577,496.579,499.497,503.247,505.234,509.539,512.644,516.814,518.802,523.804,527.974,532.054,536.359,540.664" y="493.905" svg_rhmargin="542.749" style="fill:#171615;font-family:IKGOXD+CaeciliaLTStd-Roman;font-size:7.5px;font-style:NORMAL;font-weight:normal;">other countries, our findings indicate that SZ patients are heavy </text>
  <text x="306.638,310.388,317.888,322.343,326.79,330.961,334.156,337.906,339.608,342.713,346.748,350.963,355.268,358.283,363.008,365.363,369.533,373.283,377.033,378.736,383.191,385.966,387.668,390.586,395.588,399.758,402.113,405.308,407.011,410.903,415.358,420.218,425.221,428.138,431.243,435.548,437.251,441.706,444.481,446.183,449.288,453.458,457.208,459.563,464.288,468.458,473.461,477.353,481.389,483.196,484.899,489.069,493.929,497.124,500.042,505.044,509.214,512.409,514.112,517.862,520.779,525.639,530.364,532.719,536.889,540.639" y="504.405" svg_rhmargin="542.724" style="fill:#171615;font-family:IKGOXD+CaeciliaLTStd-Roman;font-size:7.5px;font-style:NORMAL;font-weight:normal;">smokers regardless of their country of residence. Further studies </text>
  <text x="306.638,310.943,314.048,318.218,319.966,323.071,327.241,331.966,336.826,339.181,342.286,346.456,351.181,352.928,355.846,360.301,362.048,365.153,369.098,373.313,377.483,381.788,384.143,385.891,388.808,393.811,397.981,399.728,403.621,407.926,412.786,416.536,420.841,423.196,424.943,432.443,436.613,440.371,445.373,449.678,454.681,457.036,460.786,468.286,472.036,473.783,478.238,481.013,482.761,485.678,490.681,494.851,496.598,500.348,507.848,512.303,516.751,519.106,524.108,528.278,531.331,535.778,540.638" y="514.905" svg_rhmargin="542.723" style="fill:#171615;font-family:IKGOXD+CaeciliaLTStd-Roman;font-size:7.5px;font-style:NORMAL;font-weight:normal;">are required to reveal the causal mechanisms of the smoking-SZ </text>
  <text x="306.638,310.943,314.693,318.443,322.898,326.79,329.145,333.45,336.368,338.723,343.178,348.18" y="525.405" svg_rhmargin="350.265" style="fill:#171615;font-family:IKGOXD+CaeciliaLTStd-Roman;font-size:7.5px;font-style:NORMAL;font-weight:normal;">association.</text>
  <text x="306.638,312.938,319.608,326.088,332.568,335.708,341.448,351.628,357.368,364.218,367.918,373.848,378.108,384.218,387.178,396.808,402.557,406.257,411.997,416.377,419.697,425.627,428.767" y="550.405" svg_rhmargin="434.137" style="fill:#171615;font-family:EEDQTL+CaeciliaLTStd-Heavy;font-size:10.0px;font-style:NORMAL;font-weight:bold;">Supplementary Materials</text>
  <text svg_rhmargin="453.532" x="306.638,311.085,315.945,320.67,325.395,327.75,331.92,339.42,343.59,348.593,351.51,355.815,358.92,363.225,365.31,368.415,373.14,377.445,380.363,384.668,386.753,389.858,394.163,397.268,401.438,403.52299999999997,406.628,410.708,414.922,419.227,421.582,423.937,428.152,432.51,434.865,439.035,441.12,444.225,448.53,451.447,453.532" y="566.405" style="fill:#171615;font-family:IKGOXD+CaeciliaLTStd-Roman;font-size:7.5px;font-style:NORMAL;font-weight:normal;">Supplementary data are available at </text>
  <text x="456.637,459.0,463.305,465.945,469.417,472.47,476.775,480.945,483.585,485.67,489.42,493.725,497.895,499.98,502.065,505.17,507.397,511.147,515.595,518.647,522.952,527.122,529.207,531.292,534.397,538.147,540.645" y="566.405" svg_rhmargin="542.73" style="fill:#171615;font-family:GHCCVH+CaeciliaLTStd-Italic;font-size:7.5px;font-style:ITALIC;font-weight:normal;">International Journal of </text>
  <text x="306.638,312.33,315.803,320.25,323.168,326.918,331.088,334.56,338.588,341.603,345.908,349.658,353.828,358.133,362.303,365.355,371.88,376.05,379.245,382.995,385.08,388.83,392.768" y="576.905" svg_rhmargin="396.796" style="fill:#171615;font-family:GHCCVH+CaeciliaLTStd-Italic;font-size:7.5px;font-style:ITALIC;font-weight:normal;">Neuropsychopharmacology</text>
  <text y="576.905" svg_rhmargin="424.17" x="398.88,403.335,408.338,410.693,413.048,418.05,422.085" style="fill:#171615;font-family:IKGOXD+CaeciliaLTStd-Roman;font-size:7.5px;font-style:NORMAL;font-weight:normal;">online.</text>
  <text x="306.638,312.378,319.048,325.898,332.378,335.698,342.548" y="603.405" svg_rhmargin="348.478" style="fill:#171615;font-family:EEDQTL+CaeciliaLTStd-Heavy;font-size:10.0px;font-style:NORMAL;font-weight:bold;">Funding</text>
  <text x="306.638,311.648,316.65,319.005,322.755,324.608,330.998,335.453,338.648,343.095,344.948,351.383,355.688,359.438,361.29,365.04,369.9,374.625,379.35,383.805,387.0,389.918,394.088,398.813,400.665,404.888,409.193,411.045,413.963,418.965,423.135,424.988,427.26,431.565,436.29,440.595,445.598,447.45,451.898,456.353,460.245,462.6,466.77,469.688,473.993,475.845,478.62,483.075,486.27,488.123,491.04,496.043,500.213,502.065,506.37,509.475,513.93,521.43,525.885,528.803,531.158,535.613,540.615" y="619.405" svg_rhmargin="542.7" style="fill:#171615;font-family:IKGOXD+CaeciliaLTStd-Roman;font-size:7.5px;font-style:NORMAL;font-weight:normal;">This work was supported by the Japan Society for the Promotion </text>
  <text x="306.638,311.093,313.868,315.953,317.468,321.915,325.808,328.163,332.333,337.335,341.228,345.398,347.483,348.998,354.413,357.473,361.778,366.78,369.698,372.75,375.105,380.108,383.16,388.718,391.073,395.798,397.883,399.398,402.173,406.628,409.823,411.90799999999996,412.87,417.453,421.908,426.768,431.77,435.94,438.025,439.54,443.988,447.88,450.235,454.405,459.408,462.325,464.68,468.43,471.348,475.098,477.183,478.698,481.053,485.778,488.133,490.21799999999996,491.733,494.088,498.258,502.428,507.708,511.878,516.048,520.218,524.388,528.558,530.913,532.72,534.8050000000001,536.32,540.625" y="629.905" svg_rhmargin="542.71" style="fill:#171615;font-family:IKGOXD+CaeciliaLTStd-Roman;font-size:7.5px;font-style:NORMAL;font-weight:normal;">of Science Grant-in-Aid for Young Scientists (B) (16K19784), a </text>
  <text x="306.638,310.808,313.868,318.173,323.175,326.093,328.178,328.688,331.463,334.568,339.023,346.523,348.608,349.118,352.035,357.038,361.208,363.293,363.803,369.495,373.665,378.668,382.973,386.033,390.338,392.423,392.933,399.878,404.048,411.548,416.003,419.198,421.553,425.858,428.213,430.298,430.808,434.753,439.208,444.068,449.07,453.795,458.1,461.018,463.373,467.828,472.83,474.638,476.72299999999996,477.233,481.538,486.54,491.265,493.34999999999997,493.86,498.165,500.25,500.76,504.93,507.99,512.295,517.298,520.215,522.3000000000001,522.81,525.585,528.69,533.145,540.645" y="640.405" svg_rhmargin="542.73" style="fill:#171615;font-family:IKGOXD+CaeciliaLTStd-Roman;font-size:7.5px;font-style:NORMAL;font-weight:normal;">grant from the Uehara Memorial Foundation, and a grant from </text>
  <text x="306.638,309.555,314.558,318.728,320.813,325.26,332.76,337.215,341.663,344.018,349.02,353.19,355.275,360.135,364.305,368.055,372.225,376.53,379.59,383.348,388.35,390.435,394.38,398.835,403.695,408.698,413.423,417.728,420.645,423.0,427.455,432.458" y="650.905" svg_rhmargin="434.543" style="fill:#171615;font-family:IKGOXD+CaeciliaLTStd-Roman;font-size:7.5px;font-style:NORMAL;font-weight:normal;">the Smoking Research Foundation.</text>
  <text x="306.638,314.418,319.238,325.538,332.388,338.328,347.588,350.728,356.468,362.948,368.878,379.058,384.798,391.648,395.348" y="676.905" svg_rhmargin="400.718" style="fill:#171615;font-family:EEDQTL+CaeciliaLTStd-Heavy;font-size:10.0px;font-style:NORMAL;font-weight:bold;">Acknowledgments</text>
  <text x="306.638,314.138,318.308,320.393,322.208,325.125,330.128,334.433,339.435,343.883,345.96799999999996,347.783,352.088,354.443,356.798,358.883,360.698,363.615,368.618,372.788,374.873,376.688,379.043,384.045,388.77,391.035,395.34,397.695,402.42,407.28,411.585,413.94,417.69,419.775,421.59,428.115,433.118,437.573,439.65799999999996,441.473,446.198,450.503,453.698,456.615,458.97,462.863,465.218,469.943,474.248,477.165,481.335,486.06,488.145,489.96,492.315,497.318,499.40299999999996,501.218,504.135,509.138,511.493,515.243,517.3280000000001,519.143,522.893,525.81,530.67,535.215,538.83,540.638" y="692.905" svg_rhmargin="542.723" style="fill:#171615;font-family:IKGOXD+CaeciliaLTStd-Roman;font-size:7.5px;font-style:NORMAL;font-weight:normal;">We thank all the individuals who participated in this study. </text>
  <text x="306.638,314.138,318.308,320.393,321.57,324.488,329.49,333.795,338.798,343.245,345.33,346.508,352.2,354.983,356.79,358.875,360.053,365.888,368.243,371.348,375.803,379.553,384.555,386.91,388.995,390.173,395.176,400.036,404.949,409.809,414.069,416.424,418.50899999999996,419.686,422.041,427.734,431.814,436.539,440.844,444.039,446.956,454.456,458.626,463.629,466.546,468.631,469.809,474.264,477.039,479.12399999999997,480.301,487.246,491.416,496.419,499.336,503.641,505.996,508.08099999999996,509.259,514.951,517.306,521.056,525.511,528.526,533.251,537.421,540.616" y="703.405" svg_rhmargin="542.701" style="fill:#171615;font-family:IKGOXD+CaeciliaLTStd-Roman;font-size:7.5px;font-style:NORMAL;font-weight:normal;">We thank Dr. Hiroshi Kunugi (Department of Mental Disorder </text>
  <text x="306.638,311.498,315.668,319.418,323.588,327.893,330.953,334.71,339.713,341.52,343.5,349.47,353.775,356.693,359.048,363.503,368.505,372.81,375.165,377.145,379.65,384.653,388.403,391.32,393.675,396.593,401.453,404.37,408.54,410.52,414.975,417.75,419.73,425.7,429.87,434.73,437.835,442.29,446.04,449.933,452.288,456.458,461.46,465.353,469.388,471.195,473.175,479.145,483.45,486.368,488.723,493.178,498.18,502.485,504.84,506.82,511.958,516.128,521.13,524.048,528.218,531.413,533.393,537.848,540.623" y="713.905" svg_rhmargin="542.708" style="fill:#171615;font-family:IKGOXD+CaeciliaLTStd-Roman;font-size:7.5px;font-style:NORMAL;font-weight:normal;">Research, National Institute of Neuroscience, National Center of </text>
  <text x="306.638,312.608,316.778,321.638,324.743,329.198,331.553,335.963,340.133,344.438,346.52299999999997,347.573,351.878,356.88,361.605,363.69,364.74,369.045,372.795,377.1,380.858,385.86,388.215,392.52,395.438,398.543,402.158,403.965,406.04999999999995,406.548,410.725,415.18,419.538,423.708,427.983,429.791,431.876,432.926,435.198,439.503,444.228,448.533,453.536,455.891,457.698,459.78299999999996,460.833,466.526,469.308,471.116,473.20099999999996,474.251,479.943,484.248,486.603,494.103,498.273,500.628,502.71299999999997,503.763,508.211,512.516,516.266,520.346,524.516,528.821,536.321,540.626" y="724.405" svg_rhmargin="542.711" style="fill:#171615;font-family:IKGOXD+CaeciliaLTStd-Roman;font-size:7.5px;font-style:NORMAL;font-weight:normal;">Neurology and Psychiatry, Tokyo, Japan), Dr. Daimei Sasayama </text>
  <text x="306.638,308.993,314.685,318.765,323.49,327.795,330.99,333.908,341.408,345.578,350.58,353.498,355.58299999999997,360.278,364.733,367.508,369.59299999999996,374.288,378.593,382.343,386.648,390.405,395.408,397.763,402.068,404.985,408.09,411.705,413.513,415.59799999999996,420.293,424.74,429.743,432.098,437.1,440.85,445.853,450.713,452.798,457.493,463.185,468.188,470.453,474.668,478.838,482.033,485.783,488.138,491.055,495.36,497.445,502.14,506.588,510.345,515.348,519.803,524.258,526.613,528.6980000000001,533.393,537.848,540.623" y="734.905" svg_rhmargin="542.708" style="fill:#171615;font-family:IKGOXD+CaeciliaLTStd-Roman;font-size:7.5px;font-style:NORMAL;font-weight:normal;">(Department of Psychiatry, Shinshu University School of </text>
  <text x="306.638,313.583,317.753,322.478,324.833,328.725,331.08,336.083,340.118,341.925,344.01,348.548,354.518,358.733,362.948,367.253,372.255,376.53,378.338,380.423,384.96,387.233,391.538,396.263,400.568,405.57,407.925,409.733,411.818,416.355,422.048,424.83,426.638,428.72299999999996,433.26,435.488,440.348,445.35,449.378,453.833,455.918,460.044,467.544,471.849,474.767,479.072,484.074,488.289,492.737,496.907,498.99199999999996,503.529,507.834,512.837,517.562,519.647,524.184,528.489,531.594,536.049,538.824,540.632" y="745.405" svg_rhmargin="542.717" style="fill:#171615;font-family:IKGOXD+CaeciliaLTStd-Roman;font-size:7.5px;font-style:NORMAL;font-weight:normal;">Medicine, Nagano, Japan), Dr. Junzo Watanabe and Prof. </text>
 </g>
</svg>
