<?xml version="1.0" encoding="UTF-8"?>
<svg height="756.337" width="554.63858625" xmlns="http://www.w3.org/2000/svg">
 <g style="fill:none;">
  <text x="66.638,71.256" y="51.49400000000003" svg_rhmargin="75.874" style="fill:#171615;font-family:EEDQTL+CaeciliaLTStd-Heavy;font-size:7.8px;font-style:NORMAL;font-weight:bold;">22</text>
  <text svg_rhmargin="87.573" y="51.49400000000003" x="83.673,85.405,87.57300000000001" style="fill:#171615;font-family:IKGOXD+CaeciliaLTStd-Roman;font-size:7.8px;font-style:NORMAL;font-weight:normal;">| </text>
  <text x="93.205,95.662,100.139,102.885,106.496,109.671,114.148,118.485,121.23,123.399,127.299,131.776,136.113,138.281,140.449,142.766,146.666,151.291,154.466,158.943,163.28,165.448,167.617,171.517,174.114,176.283,182.203,185.814,190.44,193.474,197.374,201.711,205.322,209.511,212.646,217.123,221.023,225.36,229.837,234.174,237.349,244.135,248.472,251.794,255.694,257.863,261.763,265.858" y="51.49400000000003" svg_rhmargin="270.047" style="fill:#171615;font-family:GHCCVH+CaeciliaLTStd-Italic;font-size:7.8px;font-style:ITALIC;font-weight:normal;">International Journal of Neuropsychopharmacology</text>
  <text x="270.046,271.926,274.095,278.431,282.768,287.105" y="51.49400000000003" svg_rhmargin="291.442" style="fill:#171615;font-family:IKGOXD+CaeciliaLTStd-Roman;font-size:7.8px;font-style:NORMAL;font-weight:normal;">, 2019</text>
  <text svg_rhmargin="92.723" x="54.638,59.776,64.23,67.988,72.991,76.05,80.355,85.358,86.888,90.638,92.723" y="84.40499999999997" style="fill:#171615;font-family:IKGOXD+CaeciliaLTStd-Roman;font-size:7.5px;font-style:NORMAL;font-weight:normal;">Cochran’s </text>
  <text x="94.245" y="84.40499999999997" svg_rhmargin="99.66" style="fill:#171615;font-family:GHCCVH+CaeciliaLTStd-Italic;font-size:7.5px;font-style:ITALIC;font-weight:normal;">Q</text>
  <text y="84.40499999999997" svg_rhmargin="290.738" x="103.268,107.018,109.936,114.241,117.158,119.513,123.263,126.181,128.536,132.428,136.733,139.088,141.173,142.695,145.613,149.783,153.533,156.45,158.535,160.058,166.493,170.798,174.548,176.633,178.155,182.88,187.05,190.245,193.02,197.475,200.67,208.17,212.34,217.065,219.15,220.673,223.59,228.045,230.13,231.653,235.958,239.708,243.458,247.628,251.378,255.128,257.21299999999997,258.735,263.46,267.915,271.665,275.415,277.77,282.128,284.483,288.653" style="fill:#171615;font-family:IKGOXD+CaeciliaLTStd-Roman;font-size:7.5px;font-style:NORMAL;font-weight:normal;">statistical test was performed to assess possible </text>
  <text x="54.638,59.64,63.81,66.728,70.898,74.003,78.413,82.673,86.843,91.845,96.015,98.37,101.288,105.593,107.678,109.467,113.772,121.272,125.727,130.729,134.899,136.984,138.772,141.69,146.692,150.862,152.947,154.736,157.091,162.093,166.818,169.083,173.388,175.743,180.468,185.328,189.633,191.988,194.073,195.861,199.611,202.529,207.389,212.114,214.469,218.639,222.389,224.197,226.282,227.515,232.525,237.528,241.698,243.78300000000002,245.571,250.296,254.751,259.206,261.561,265.732,270.457,272.542,274.33,280.03,284.89,288.64" y="94.90499999999997" svg_rhmargin="290.725" style="fill:#171615;font-family:IKGOXD+CaeciliaLTStd-Roman;font-size:7.5px;font-style:NORMAL;font-weight:normal;">heterogeneity among the individual studies. The pooled ORs </text>
  <text x="54.638,58.943,63.945,68.67,70.755,72.09,76.26,80.43,86.678,88.76299999999999,90.098,95.235,97.74,101.49,103.57499999999999,104.91,111.301,115.471,118.575,122.745,124.83,126.165,130.335,134.085,137.003,139.358,146.858,151.163,154.08,158.25,162.975,165.06,166.395,171.255,175.005,177.36,182.363,186.533,188.618,189.953,192.87,197.873,202.043,204.12800000000001,205.463,208.523,212.828,217.83,222.555,227.01,234.51,237.563,241.733,244.508,247.283,251.453,255.345,258.263,262.013,264.09799999999996,265.433,272.933,277.388,282.113,286.283,288.638" y="105.40499999999997" svg_rhmargin="290.723" style="fill:#171615;font-family:IKGOXD+CaeciliaLTStd-Roman;font-size:7.5px;font-style:NORMAL;font-weight:normal;">and 95% CIs were estimated using the random-effects model </text>
  <text x="54.638,56.993,59.768,61.853,62.922,65.839,70.842,75.012,78.117,82.287,84.372,85.44,91.876,96.181,99.931,102.01599999999999,103.084,107.029,111.334,113.689,118.414,122.584,127.587,131.479,135.649,137.734,138.803,143.258,146.033,148.118,149.187,154.189,158.359,161.277,165.447,168.552,172.962,177.222,181.392,186.394,190.564,192.919,195.837,200.142,202.227,203.295" y="115.90499999999997" svg_rhmargin="205.65" style="fill:#171615;font-family:IKGOXD+CaeciliaLTStd-Roman;font-size:7.5px;font-style:NORMAL;font-weight:normal;">if there was evidence of heterogeneity (</text>
  <text x="205.65,209.82,210.758,215.258" y="115.90499999999997" svg_rhmargin="217.343" style="fill:#171615;font-family:GHCCVH+CaeciliaLTStd-Italic;font-size:7.5px;font-style:ITALIC;font-weight:normal;">P &lt; </text>
  <text x="216.195,218.28,222.45,226.62,228.975,230.783,232.868,233.94,239.64,242.558,247.56,251.73,254.925,261.45,263.805,267.555,271.59,273.398,275.483,276.555,279.473,284.475,288.646" y="115.90499999999997" svg_rhmargin="290.731" style="fill:#171615;font-family:IKGOXD+CaeciliaLTStd-Roman;font-size:7.5px;font-style:NORMAL;font-weight:normal;">.10). Otherwise, the </text>
  <text x="54.638,59.363,63.81,67.98,72.705,75.758,79.928,82.703,85.478,89.648,93.54,96.458,100.208,102.29299999999999,105.24,112.74,117.195,121.92,126.09,128.445,130.53,133.478,139.913,144.218,147.968,150.053,153.0,157.86,161.61,165.78,170.505,172.59,175.538" y="126.40499999999997" svg_rhmargin="177.893" style="fill:#171615;font-family:IKGOXD+CaeciliaLTStd-Roman;font-size:7.5px;font-style:NORMAL;font-weight:normal;">fixed-effects model was used (</text>
  <text x="177.893,182.063,183.0,187.5" y="126.40499999999997" svg_rhmargin="189.585" style="fill:#171615;font-family:GHCCVH+CaeciliaLTStd-Italic;font-size:7.5px;font-style:ITALIC;font-weight:normal;">P &gt; </text>
  <text x="188.438,190.523,194.693,198.863,201.218,203.025,205.11,208.058,212.363,217.223,221.58,223.935,226.29,230.183,234.488,237.405,239.76,244.215,249.218,251.303,254.25,258.698,261.053,265.358,269.108,271.193,274.14,280.575,284.88,288.63" y="126.40499999999997" svg_rhmargin="290.715" style="fill:#171615;font-family:IKGOXD+CaeciliaLTStd-Roman;font-size:7.5px;font-style:NORMAL;font-weight:normal;">.10). Publication bias was </text>
  <text x="54.638,58.943,62.693,66.443,70.613,74.363,78.113,82.283,87.008,89.09299999999999,90.233,95.093,98.843,101.198,106.2,110.37,112.455,113.595,117.9,122.07,126.33,130.5,133.695,135.226,138.976,141.061,142.201,145.306,149.341,153.511,156.616,160.786,164.536,168.286,170.641,175.096,180.098,182.18300000000002,183.323,187.628,191.378,195.683,203.183,210.683,214.853,217.771,220.876,225.181,227.26600000000002,228.406,231.323,235.493,239.243,242.161,244.246,245.386,251.911,254.266,257.183,262.186,264.27099999999996,265.411,269.716,271.801,272.941,275.716,280.576,285.578" y="136.90499999999997" svg_rhmargin="288.631" style="fill:#171615;font-family:IKGOXD+CaeciliaLTStd-Roman;font-size:7.5px;font-style:NORMAL;font-weight:normal;">assessed using Egger’s regression asymmetry test with a fun-</text>
  <text x="54.638,59.64,63.81,66.165,68.655,73.38,75.735,80.19,83.108,85.598,90.053,92.828,95.318,98.236,103.238,107.408,109.898,112.253,116.663,120.833,123.323,129.023,133.883,136.373,140.588,144.803,149.108,151.463,156.465,160.215,163.133,165.623,169.373,172.29,176.595,181.598,186.323,190.628,193.643,198.368,200.858,205.028,208.223,211.328,215.783,218.978,221.468,223.823,228.826,231.316,235.486,239.791,243.548,248.551,251.041,254.791,257.708,262.568,267.113,270.728,272.536,274.47,279.48,284.482,288.652" y="147.40499999999997" svg_rhmargin="290.737" style="fill:#171615;font-family:IKGOXD+CaeciliaLTStd-Roman;font-size:7.5px;font-style:NORMAL;font-weight:normal;">nel plot of the log OR against standard error in each study. The </text>
  <text x="54.638,59.363,63.818,68.273,70.628,74.798,79.523,81.60799999999999,82.815,88.515,93.375,97.125,99.21,100.418,104.723,109.726,114.451,116.53599999999999,117.743,121.913,126.083,132.331,134.416,135.623,140.76,143.266,147.016,149.101,150.308,154.613,157.718,161.888,163.973,165.18,169.35,172.411,176.715,181.441,186.443,188.798,192.691,196.995,199.35,201.615,205.92,208.005,209.213,213.938,217.043,221.213,224.963,229.133,234.135,237.053,241.223,245.948,248.03300000000002,249.24,251.595,256.598,258.683,259.891,264.195,266.28,267.488,270.263,274.718,277.823,281.993,285.743,288.661" y="157.90499999999997" svg_rhmargin="290.746" style="fill:#171615;font-family:IKGOXD+CaeciliaLTStd-Roman;font-size:7.5px;font-style:NORMAL;font-weight:normal;">pooled ORs and 95% CIs are graphically presented in a forest </text>
  <text x="54.638,59.363,61.718,66.173,69.09,70.898,73.088,75.443,80.446,82.636,89.161,94.163,96.518,100.276,105.278,107.468,110.386,115.388,119.558,121.748,128.138,132.308,134.663,138.833,143.836,146.753,148.943,153.398,156.173,158.363,162.668,164.858,169.583,173.888,177.083,180.001,182.356,186.248,191.108,193.463,197.768,200.963,203.153,206.903,209.821,214.681,219.226,223.531,225.721,228.076,231.826,234.016,237.121,241.201,245.926,249.031,253.201,256.951,261.121,266.123,269.041,273.211,277.936,280.126,284.348,288.653" y="168.40499999999997" svg_rhmargin="290.738" style="fill:#171615;font-family:IKGOXD+CaeciliaLTStd-Roman;font-size:7.5px;font-style:NORMAL;font-weight:normal;">plot, in which the weight of a particular study is represented by </text>
  <text x="54.638,57.555,62.558,66.728,68.81299999999999,69.615,73.365,75.72,79.748,83.918,86.003,86.805,91.26,94.035,96.11999999999999,96.923,101.228,103.31299999999999,104.115,107.865,112.59,116.76,120.653,123.008,127.733,131.625,133.71,134.513,138.263,142.988,147.848,152.153,155.258,159.293,161.101,163.186,163.988,168.023,170.378,175.381,179.686,182.04,184.305,187.92,189.728,191.81300000000002,192.615,195.533,199.988,202.073,202.875,207.045,210.795,213.713,216.068,223.568,227.873,230.79,234.96,237.04500000000002,237.848,240.765,245.768,249.938,252.023,252.825,255.18,262.68,267.405,271.71,275.603,278.52,280.60499999999996,281.408,285.863,288.638" y="178.90499999999997" svg_rhmargin="290.723" style="fill:#171615;font-family:IKGOXD+CaeciliaLTStd-Roman;font-size:7.5px;font-style:NORMAL;font-weight:normal;">the size of a specific square. Finally, to estimate the impact of </text>
  <text x="54.638,57.555,62.558,66.728,68.46,73.185,77.49,80.408,82.763,86.933,91.936,94.853,98.603,100.688,102.421,106.59,110.34,113.258,115.613,123.113,127.418,130.336,134.506,139.231,140.963,144.068,148.238,152.131,155.326,160.186,162.541,165.458,172.958,177.128,182.131,185.048,186.781,190.951,195.121,199.426,202.621,204.353,208.808,213.811,215.543,219.998,224.858,227.776,231.668,236.123,243.623,247.793,251.543,253.351,255.083,258.001,263.003,267.173,268.906,276.406,280.861,285.586" y="189.40499999999997" svg_rhmargin="288.639" style="fill:#171615;font-family:IKGOXD+CaeciliaLTStd-Roman;font-size:7.5px;font-style:NORMAL;font-weight:normal;">the patients’ estimated recruitment year on outcomes, the mod-</text>
  <text x="54.638,58.808,61.868,66.173,69.09,73.546,76.741,79.073,83.288,87.593,90.788,93.143,97.358,101.716,104.071,108.241,110.573,117.008,121.313,125.063,127.396,131.341,135.556,139.861,142.215,147.076,151.38,154.298,158.468,163.193,165.525,170.385,174.135,176.49,181.493,185.663,187.995,192.3,194.633,202.133,206.303,209.22,213.525,216.578,219.683,223.719,227.889,230.994,235.164,238.914,242.664,245.019,249.474,254.476,256.809,261.114,266.116,270.421,272.686,276.991,280.741,283.096,286.846,288.654" y="199.90499999999997" svg_rhmargin="290.739" style="fill:#171615;font-family:IKGOXD+CaeciliaLTStd-Roman;font-size:7.5px;font-style:NORMAL;font-weight:normal;">erator variable was evaluated using a meta-regression analysis. </text>
  <text x="54.638,59.648,64.65,68.82,70.973,74.723,77.078,81.248,86.25,88.605,93.33,97.223,101.528,106.531,110.423,114.593,116.745,119.101,123.046,127.261,131.431,133.786,135.938,142.373,146.678,150.428,152.58,156.33,160.5,163.418,165.57,169.875,173.625,175.778,179.948,183.0,185.918,190.223,192.578,194.933,199.103,203.828" y="210.40499999999997" svg_rhmargin="205.913" style="fill:#171615;font-family:IKGOXD+CaeciliaLTStd-Roman;font-size:7.5px;font-style:NORMAL;font-weight:normal;">The significance level was set as 2-tailed </text>
  <text x="205.98,210.15,211.088,215.588" y="210.40499999999997" svg_rhmargin="217.673" style="fill:#171615;font-family:GHCCVH+CaeciliaLTStd-Italic;font-size:7.5px;font-style:ITALIC;font-weight:normal;">P &lt; </text>
  <text x="216.525,218.61,222.78,226.95,229.103,231.878,236.333,239.528,241.68,245.985,248.34,250.695,252.848,256.598,259.515,263.82,266.738,269.093,272.843,275.76,278.115,282.008,286.313,288.668" y="210.40499999999997" svg_rhmargin="290.753" style="fill:#171615;font-family:IKGOXD+CaeciliaLTStd-Roman;font-size:7.5px;font-style:NORMAL;font-weight:normal;">.05 for all statistical </text>
  <text x="54.638,57.555,61.725,65.475,68.393,72.143,74.228,78.353,82.8,86.693,90.773,95.498,98.416,100.501,103.418,108.421,112.591,114.676,119.678,123.848,126.766,130.936,134.041,138.451,142.711,146.881,151.883,156.053,158.408,161.326,165.631,167.716,172.021,177.023,181.328,183.593,187.898,191.648,194.003,197.753,199.561,201.646,204.421,208.876,212.071,214.156,220.681,225.683,228.038,231.796,236.798" y="220.90499999999997" svg_rhmargin="238.883" style="fill:#171615;font-family:IKGOXD+CaeciliaLTStd-Roman;font-size:7.5px;font-style:NORMAL;font-weight:normal;">tests except the heterogeneity analysis, for which </text>
  <text x="238.883,243.053,243.991,248.491" y="220.90499999999997" svg_rhmargin="250.576" style="fill:#171615;font-family:GHCCVH+CaeciliaLTStd-Italic;font-size:7.5px;font-style:ITALIC;font-weight:normal;">P &lt; </text>
  <text x="249.428,251.513,255.683,259.853" y="220.90499999999997" svg_rhmargin="261.938" style="fill:#171615;font-family:IKGOXD+CaeciliaLTStd-Roman;font-size:7.5px;font-style:NORMAL;font-weight:normal;">.10.</text>
  <text x="54.638,61.118,66.858,72.228,78.898,82.038,85.738" y="247.40499999999997" svg_rhmargin="91.108" style="fill:#171615;font-family:EEDQTL+CaeciliaLTStd-Heavy;font-size:10.0px;font-style:NORMAL;font-weight:bold;">Results</text>
  <text x="54.638,61.09,66.759,70.38,72.896,78.719,83.759,88.171,92.896,96.356,102.179,107.219,112.889,116.034,119.553,124.593,127.271,129.786,134.98,140.649,145.843,148.673,153.399,157.649,160.794" y="267.905" svg_rhmargin="165.205" style="fill:#171615;font-family:PSSERP+CaeciliaLTStd-Bold;font-size:8.5px;font-style:NORMAL;font-weight:bold;">Our Case-Control Subjects</text>
  <text x="54.638,60.195,67.695,72.15,77.153,81.323,83.40799999999999,84.593,88.763,92.933,97.103,99.18799999999999,100.373,104.82,109.68,111.765,112.95,117.675,121.98,124.898,127.253,131.423,136.425,139.343,143.093,145.178,146.363,150.668,155.67,160.395,162.48000000000002,163.665,167.835,172.005,176.175,178.26000000000002,179.445,185.281,190.418,194.168,195.976,198.061,199.246,202.163,207.166,211.336,213.42100000000002,214.606,219.053,223.913,225.99800000000002,227.183,231.908,236.213,239.131,241.486,245.656,250.658,253.576,257.326,259.411,260.595,262.951,267.121,271.291,274.066,278.236,282.406,286.576,288.661" y="284.905" svg_rhmargin="290.746" style="fill:#171615;font-family:IKGOXD+CaeciliaLTStd-Roman;font-size:7.5px;font-style:NORMAL;font-weight:normal;">Among 304 SZ patients and 131 HCs, the SZ patients (76/304: </text>
  <text x="54.638,58.808,62.978,65.063,69.233,75.48,77.835,79.91999999999999,82.833,86.583,91.586,95.861,102.251,106.421,111.146,113.231,116.145,120.45,122.535,125.448,129.198,131.553,135.723,140.725,143.08,147.805,151.698,156.003,161.005,163.923,166.187,170.492,172.577,175.491,180.493,182.848,187.018,192.021,196.191,199.386,201.471,204.384,209.109,212.214,216.159,220.374,224.679,227.034,231.204,236.206,240.099,244.269,246.354,249.267,253.722,256.497,258.582,261.495,265.387,270.247,273.442,276.547,280.717,285.72,288.637" y="295.405" svg_rhmargin="290.722" style="fill:#171615;font-family:IKGOXD+CaeciliaLTStd-Roman;font-size:7.5px;font-style:NORMAL;font-weight:normal;">25.0%) showed a significantly higher prevalence of current </text>
  <text svg_rhmargin="146.573" x="54.638,58.388,65.888,70.343,74.791,77.146,82.148,86.318,88.40299999999999,90.046,92.401,96.571,100.741,103.516,107.686,111.856,116.026,118.111,120.196,121.838,126.008,130.178,132.263,136.433,142.681,144.488,146.573" y="305.905" style="fill:#171615;font-family:IKGOXD+CaeciliaLTStd-Roman;font-size:7.5px;font-style:NORMAL;font-weight:normal;">smoking (21/131: 16.0%, </text>
  <text x="148.216" y="305.905" svg_rhmargin="151.996" style="fill:#171615;font-family:DATKFN+GandhariUnicode-Roman;font-size:7.5px;font-style:NORMAL;font-weight:normal;">χ</text>
  <text x="151.995" y="303.408" svg_rhmargin="154.426" style="fill:#171615;font-family:GHCCVH+CaeciliaLTStd-Italic;font-size:4.37px;font-style:ITALIC;font-weight:normal;">2</text>
  <text y="305.905" svg_rhmargin="161.949" x="155.364,159.864" style="fill:#171615;font-family:GHCCVH+CaeciliaLTStd-Italic;font-size:7.5px;font-style:ITALIC;font-weight:normal;">= </text>
  <text svg_rhmargin="175.119" x="160.801,164.971,167.056,171.226,173.034,175.119" y="305.905" style="fill:#171615;font-family:IKGOXD+CaeciliaLTStd-Roman;font-size:7.5px;font-style:NORMAL;font-weight:normal;">4.3, </text>
  <text x="176.761,180.931,181.869,186.369" y="305.905" svg_rhmargin="188.454" style="fill:#171615;font-family:GHCCVH+CaeciliaLTStd-Italic;font-size:7.5px;font-style:ITALIC;font-weight:normal;">P = </text>
  <text x="187.306,189.391,193.561,197.731,201.901,204.256,206.064,208.149,209.514,215.071,218.821,220.906,222.549,225.466,230.469,234.639,236.72400000000002,238.366,240.721,245.724,249.616,251.971,256.696,260.866,265.869,269.761,273.931,277.681,279.76599999999996,281.409,285.864,288.639" y="305.905" svg_rhmargin="290.724" style="fill:#171615;font-family:IKGOXD+CaeciliaLTStd-Roman;font-size:7.5px;font-style:NORMAL;font-weight:normal;">.039). As the incidences of </text>
  <text x="54.639,58.389,65.889,70.344,74.791,77.146,82.149,86.319,88.404,88.884,93.189,100.689,105.144,110.146,114.316,116.401,116.881,124.381,128.551,133.554,135.639,136.119,142.509,146.679,149.784,153.954,156.03900000000002,156.519,160.974,165.24,169.545,171.9,176.355,181.215,184.965,187.23,191.535,193.62,194.1,199.103,201.458,205.628,210.63,214.8,217.995,220.08,220.56,223.478,228.48,232.785,237.788,239.87300000000002,240.353,243.27,248.273,252.728,256.478,260.648,262.733,263.213,267.518,275.018,279.473,284.475,288.645" y="316.405" svg_rhmargin="290.73" style="fill:#171615;font-family:IKGOXD+CaeciliaLTStd-Roman;font-size:7.5px;font-style:NORMAL;font-weight:normal;">smoking among men were obviously higher than those among </text>
  <text x="54.639,61.029,65.484,72.984,77.154,82.156,84.241,84.999,87.354,92.356,94.44099999999999,95.199,98.116,103.119,107.289,109.374,110.131,115.546,119.851,121.93599999999999,122.694,125.049,128.799,133.659,138.384,143.109,145.464,149.634,157.134,161.304,166.306,169.224,173.529,175.884,177.969,178.726,182.761,185.116,189.286,194.146,197.251,201.421,203.506,204.263,208.433,210.788,212.595,214.68,215.438,221.828,225.998,228.083,228.84,231.195,235.973,240.187,244.357,248.107,251.025,253.38,257.595,261.9,264.817,268.987,273.712,275.79699999999997,276.555,279.472,284.475,288.645" y="326.905" svg_rhmargin="290.73" style="fill:#171615;font-family:IKGOXD+CaeciliaLTStd-Roman;font-size:7.5px;font-style:NORMAL;font-weight:normal;">women in the GP (supplemental Figure  1), we investigated the </text>
  <text x="54.639,58.531,63.391,66.586,69.691,73.861,78.864,81.781,83.866,85.479,89.229,96.729,101.184,105.631,107.986,112.989,117.159,119.244,120.856,123.916,128.221,131.139,135.309,137.394,139.006,142.756,145.674,148.734,153.039,155.956,158.311,163.036,167.206,171.931,174.01600000000002,175.629,179.851,184.156,186.241,187.854,192.114,196.284,201.286,206.011,210.181,213.376,215.461,217.074,219.429,226.929,231.234,233.589,237.759,239.844,241.456,245.761,250.764,255.489,257.574,259.186,261.961,266.131,273.631,277.936,280.291,284.461,286.816,288.624" y="337.405" svg_rhmargin="290.709" style="fill:#171615;font-family:IKGOXD+CaeciliaLTStd-Roman;font-size:7.5px;font-style:NORMAL;font-weight:normal;">current smoking rate stratified by gender (male and female). </text>
  <text x="54.639,61.584,65.889,68.244,72.414,74.499,77.191,81.639,86.499,88.58399999999999,91.276,96.001,100.306,103.224,105.579,109.749,114.751,117.669,121.419,123.50399999999999,126.196,128.551,132.721,136.891,139.666,143.836,148.006,152.176,154.261,156.346,159.039,163.209,167.379,169.464,173.634,179.881,182.236,184.321,187.014,192.016,196.321,201.046,203.131,205.824,210.129,212.214,214.906,218.656,221.011,225.181,230.184,232.539,237.264,241.156,245.461,250.464,253.381,255.646,259.951,262.036,264.729,269.731,272.086,276.256,281.259,285.429,288.624" y="347.905" svg_rhmargin="290.709" style="fill:#171615;font-family:IKGOXD+CaeciliaLTStd-Roman;font-size:7.5px;font-style:NORMAL;font-weight:normal;">Male SZ patients (61/144: 42.4%) had a significantly higher </text>
  <text x="54.639,59.364,62.469,66.414,70.629,74.934,77.289,81.459,86.461,90.354,94.524,96.526,100.981,103.756,105.759,109.651,114.511,117.706,120.811,124.981,129.984,132.901,134.904,138.654,146.154,150.609,155.056,157.411,162.414,166.584,168.586,171.504,176.506,180.811,185.814,187.816,195.316,199.621,201.976,206.146,208.149,212.041,216.496,221.499,224.416,227.521,231.976,234.331,238.081,240.084,242.439,246.609,250.779,253.554,257.724,261.894,263.979,265.981,270.151,274.321,276.406,280.576,286.824,288.631" y="358.405" svg_rhmargin="290.716" style="fill:#171615;font-family:IKGOXD+CaeciliaLTStd-Roman;font-size:7.5px;font-style:NORMAL;font-weight:normal;">prevalence of current smoking than male controls (19/84: 22.6%, </text>
  <text x="54.639" y="368.905" svg_rhmargin="58.419" style="fill:#171615;font-family:DATKFN+GandhariUnicode-Roman;font-size:7.5px;font-style:NORMAL;font-weight:normal;">χ</text>
  <text x="58.418" y="366.408" svg_rhmargin="60.849" style="fill:#171615;font-family:GHCCVH+CaeciliaLTStd-Italic;font-size:4.37px;font-style:ITALIC;font-weight:normal;">2</text>
  <text y="368.905" svg_rhmargin="68.371" x="61.786,66.286" style="fill:#171615;font-family:GHCCVH+CaeciliaLTStd-Italic;font-size:7.5px;font-style:ITALIC;font-weight:normal;">= </text>
  <text svg_rhmargin="81.541" x="67.224,71.394,73.479,77.649,79.456,81.541" y="368.905" style="fill:#171615;font-family:IKGOXD+CaeciliaLTStd-Roman;font-size:7.5px;font-style:NORMAL;font-weight:normal;">9.1, </text>
  <text x="83.514,87.684,88.621,93.121" y="368.905" svg_rhmargin="95.206" style="fill:#171615;font-family:GHCCVH+CaeciliaLTStd-Italic;font-size:7.5px;font-style:ITALIC;font-weight:normal;">P = </text>
  <text x="94.059,98.229,100.314,104.484,108.654" y="368.905" svg_rhmargin="110.739" style="fill:#171615;font-family:IKGOXD+CaeciliaLTStd-Roman;font-size:7.5px;font-style:NORMAL;font-weight:normal;">2.59 </text>
  <text x="109.591" y="368.905" svg_rhmargin="114.031" style="fill:#171615;font-family:DATKFN+GandhariUnicode-Roman;font-size:7.5px;font-style:NORMAL;font-weight:normal;">×</text>
  <text y="368.905" svg_rhmargin="123.309" x="114.969,119.139" style="fill:#171615;font-family:IKGOXD+CaeciliaLTStd-Roman;font-size:7.5px;font-style:NORMAL;font-weight:normal;">10</text>
  <text x="123.306,125.492" y="366.408" svg_rhmargin="127.923" style="fill:#171615;font-family:IKGOXD+CaeciliaLTStd-Roman;font-size:4.37px;font-style:NORMAL;font-weight:normal;">–3</text>
  <text x="127.923,130.278,132.086,134.17100000000002,136.143,142.668,147.671,150.026,152.381,156.551,158.636,160.608,163.383,167.553,175.053,179.358,181.713,185.883,187.96800000000002,189.941,194.388,199.248,201.333,203.306,208.031,212.336,215.253,217.608,221.778,226.781,229.698,233.448,235.53300000000002,237.506,239.861,244.031,248.201,250.976,255.146,259.316,263.486,265.571,267.656,269.628,273.798,275.883,280.053,286.301,288.656" y="368.905" svg_rhmargin="290.741" style="fill:#171615;font-family:IKGOXD+CaeciliaLTStd-Roman;font-size:7.5px;font-style:NORMAL;font-weight:normal;">), while female SZ patients (15/160: 9.4%) </text>
  <text x="54.641,59.366,61.721,66.446,68.53099999999999,69.393,74.396,78.851,81.768,83.853,84.716,88.466,93.468,97.743,104.268,106.353,107.216,111.521,113.606,114.468,118.218,120.573,124.743,129.746,132.101,136.826,140.718,145.023,150.026,152.943,155.208,159.513,161.598,162.461,167.463,169.818,173.988,178.991,183.161,186.356,188.441,189.303,193.196,198.056,201.251,204.356,208.526,213.528,216.446,218.531,219.393,223.143,230.643,235.098,239.546,241.901,246.903,251.073,253.15800000000002,254.021,257.081,261.386,264.303,268.473,270.558,271.421,274.338,279.341,283.646,288.648" y="379.405" svg_rhmargin="290.733" style="fill:#171615;font-family:IKGOXD+CaeciliaLTStd-Roman;font-size:7.5px;font-style:NORMAL;font-weight:normal;">did not show a significantly higher current smoking rate than </text>
  <text svg_rhmargin="159.588" x="54.641,57.416,61.586,69.086,73.391,75.746,79.916,82.00099999999999,83.066,86.958,91.413,96.416,99.333,102.438,106.893,109.248,112.998,115.083,116.148,118.503,122.673,125.448,129.618,133.788,135.873,137.958,139.023,143.193,145.278,149.448,155.696,157.503,159.588" y="389.905" style="fill:#171615;font-family:IKGOXD+CaeciliaLTStd-Roman;font-size:7.5px;font-style:NORMAL;font-weight:normal;">female controls (2/47: 4.3%, </text>
  <text x="160.653" y="389.905" svg_rhmargin="164.433" style="fill:#171615;font-family:DATKFN+GandhariUnicode-Roman;font-size:7.5px;font-style:NORMAL;font-weight:normal;">χ</text>
  <text x="164.437" y="387.408" svg_rhmargin="166.868" style="fill:#171615;font-family:GHCCVH+CaeciliaLTStd-Italic;font-size:4.37px;font-style:ITALIC;font-weight:normal;">2</text>
  <text y="389.905" svg_rhmargin="174.391" x="167.806,172.306" style="fill:#171615;font-family:GHCCVH+CaeciliaLTStd-Italic;font-size:7.5px;font-style:ITALIC;font-weight:normal;">= </text>
  <text svg_rhmargin="187.561" x="173.243,177.413,179.499,183.669,185.476,187.561" y="389.905" style="fill:#171615;font-family:IKGOXD+CaeciliaLTStd-Roman;font-size:7.5px;font-style:NORMAL;font-weight:normal;">1.3, </text>
  <text x="188.626,192.796,193.734,198.234" y="389.905" svg_rhmargin="200.319" style="fill:#171615;font-family:GHCCVH+CaeciliaLTStd-Italic;font-size:7.5px;font-style:ITALIC;font-weight:normal;">P = </text>
  <text x="199.171,201.256,205.426,209.596,211.951,213.759,215.844,216.633,222.19,224.965,227.882,232.052,235.247,237.33200000000002,238.397,242.702,247.427,249.782,254.642,258.392,261.31,263.665,268.668,272.838,274.923,275.988,280.203,284.463,288.633" y="389.905" svg_rhmargin="290.718" style="fill:#171615;font-family:IKGOXD+CaeciliaLTStd-Roman;font-size:7.5px;font-style:NORMAL;font-weight:normal;">.26). After adjusting age </text>
  <text x="54.639,58.944,63.946,68.671,70.756,72.159,76.419,80.589,85.591,90.316,94.486,97.681,99.76599999999999,101.169,105.474,109.224,111.309,112.711,116.604,120.879,125.094,129.399,132.594,134.949,139.254,142.171,146.341,150.091,151.899,153.984,155.386,158.304,163.306,167.476,169.561,170.964,175.689,178.044,180.819,183.594,187.764,190.869,195.039,200.041,203.934,208.104,210.18900000000002,211.591,213.946,218.949,221.03400000000002,222.436,225.354,230.356,234.526,236.61100000000002,238.014,242.739,245.844,249.789,254.004,258.309,260.664,264.834,269.836,273.729,277.899,279.984,281.386,285.841,288.616" y="400.405" svg_rhmargin="290.701" style="fill:#171615;font-family:IKGOXD+CaeciliaLTStd-Roman;font-size:7.5px;font-style:NORMAL;font-weight:normal;">and gender as covariates, the difference in the prevalence of </text>
  <text x="54.639,58.531,63.391,66.586,69.691,73.861,78.864,81.781,83.926,87.676,95.176,99.631,104.079,106.434,111.436,115.606,117.751,122.199,126.369,129.286,135.676,139.846,144.016,149.019,151.164,154.081,159.084,163.254,165.399,170.124,174.429,177.346,179.701,183.871,188.874,191.791,195.541,197.686,201.991,206.993,211.719,213.864,219.699,224.836,228.586,230.731,237.166,241.471,245.221,247.366,251.116,254.034,256.389,258.744,261.099,263.244,266.994,269.349,273.519,278.521,280.876,285.601" y="410.905" svg_rhmargin="288.654" style="fill:#171615;font-family:IKGOXD+CaeciliaLTStd-Roman;font-size:7.5px;font-style:NORMAL;font-weight:normal;">current smoking between the patients and HCs was still signifi-</text>
  <text x="54.639,58.531,62.836,67.839,70.756,72.564,74.677,80.235,87.735,92.19,97.192,101.362,103.755,106.672,111.675,115.845,118.237,122.182,126.397,130.567,133.35,136.402,140.152,147.652,152.107,156.555,160.725,163.92,167.67,169.477,171.87,174.787,179.79,183.96,186.352,189.412,193.717,196.635,200.805,203.197,207.652,210.427,212.82,215.595,220.05,223.245,230.745,234.915,238.11,240.502,244.252,251.752,256.207,260.655,264.825,268.02,271.77,274.162,280.597,284.902,288.652" y="421.405" svg_rhmargin="290.737" style="fill:#171615;font-family:IKGOXD+CaeciliaLTStd-Roman;font-size:7.5px;font-style:NORMAL;font-weight:normal;">cant. Among the ever-smokers, the rate of former smokers was </text>
  <text x="54.639,58.389,60.744,64.914,69.916,72.271,76.996,80.889,85.194,90.196,93.114,95.379,99.684,101.76899999999999,102.466,104.821,109.096,115.486,119.656,122.851,124.93599999999999,125.634,129.939,137.439,141.894,146.896,151.066,153.151,153.849,158.296,163.156,165.241,165.939,170.664,174.969,177.886,180.241,184.411,189.414,192.331,196.081,198.166,198.864,201.219,205.389,208.163,212.333,216.503,218.589,220.674,221.371,225.541,227.626,231.796,238.044,240.398,242.483,243.181,246.098,251.101,255.406,260.408,262.493,263.191,267.496,274.996,279.451,284.453,288.623" y="431.905" svg_rhmargin="290.708" style="fill:#171615;font-family:IKGOXD+CaeciliaLTStd-Roman;font-size:7.5px;font-style:NORMAL;font-weight:normal;">significantly lower among SZ patients (3/79: 3.8%) than among </text>
  <text x="54.639,58.531,62.986,67.989,70.906,74.011,78.466,80.821,84.571,86.911,89.266,93.436,96.211,100.381,104.551,106.636,108.976,113.146,117.316,119.401,123.571,129.819,131.626" y="442.405" svg_rhmargin="133.711" style="fill:#171615;font-family:IKGOXD+CaeciliaLTStd-Roman;font-size:7.5px;font-style:NORMAL;font-weight:normal;">controls (4/25: 16.0%, </text>
  <text x="133.966" y="442.405" svg_rhmargin="137.746" style="fill:#171615;font-family:DATKFN+GandhariUnicode-Roman;font-size:7.5px;font-style:NORMAL;font-weight:normal;">χ</text>
  <text x="137.748" y="439.908" svg_rhmargin="140.179" style="fill:#171615;font-family:GHCCVH+CaeciliaLTStd-Italic;font-size:4.37px;font-style:ITALIC;font-weight:normal;">2</text>
  <text y="442.405" svg_rhmargin="147.701" x="141.116,145.616" style="fill:#171615;font-family:GHCCVH+CaeciliaLTStd-Italic;font-size:7.5px;font-style:ITALIC;font-weight:normal;">= </text>
  <text x="146.554,150.724,152.809,156.979,158.786" y="442.405" svg_rhmargin="160.871" style="fill:#171615;font-family:IKGOXD+CaeciliaLTStd-Roman;font-size:7.5px;font-style:NORMAL;font-weight:normal;">4.5, </text>
  <text x="161.126,165.296,166.234,170.734" y="442.405" svg_rhmargin="172.819" style="fill:#171615;font-family:GHCCVH+CaeciliaLTStd-Italic;font-size:7.5px;font-style:ITALIC;font-weight:normal;">P = </text>
  <text x="171.671,173.756,177.926,182.096,186.266,188.621,190.429,192.492,198.05,205.55,210.005,215.007,219.177,221.517,224.435,229.437,233.607,235.947,239.84,244.7,247.895,251.0,255.17,260.172,263.09,265.43,269.18,276.68,281.135,285.582" y="442.405" svg_rhmargin="288.635" style="fill:#171615;font-family:IKGOXD+CaeciliaLTStd-Roman;font-size:7.5px;font-style:NORMAL;font-weight:normal;">.034). Among the current smok-</text>
  <text x="54.634,58.804,61.999,65.749,67.556,69.716,73.886,78.056,80.216,84.664,89.524,91.684,96.409,100.714,103.631,105.986,110.156,115.159,118.076,121.826,123.986,126.341,130.511,134.681,137.456,141.626,145.796,147.881,150.041,154.211,158.381,160.466,164.636,170.884,172.691,174.851,182.351,186.656,189.011,193.181,195.341,199.511,203.681,206.456,210.626,214.796,216.881,219.041,223.211,227.381,229.466,233.636,239.884,241.691,243.851,246.626,250.796,258.296,262.601,264.956,269.126,271.286,275.456,278.231,282.401,286.571,288.656" y="452.905" svg_rhmargin="290.741" style="fill:#171615;font-family:IKGOXD+CaeciliaLTStd-Roman;font-size:7.5px;font-style:NORMAL;font-weight:normal;">ers, 15 SZ patients (15/76: 19.7%, male 13/61: 21.3%, female 2/15: </text>
  <text x="54.634,58.804,62.974,65.059,69.229,75.476,77.831,80.314,86.704,90.874,93.979,98.149,100.631,105.634,109.804,113.884,118.189,122.494,124.976,128.726,136.226,140.681,145.129,149.299,152.494,156.244,158.051,160.534,165.259,169.429,174.154,179.156,183.326,188.051,190.534,194.839,198.589,201.071,204.821,212.321,216.776,221.224,223.579,228.581,232.751,235.234,239.456,243.626,247.796,250.279,255.416,259.721,265.414,267.499,269.981,274.984,279.439,284.441,288.611" y="463.405" svg_rhmargin="290.696" style="fill:#171615;font-family:IKGOXD+CaeciliaLTStd-Roman;font-size:7.5px;font-style:NORMAL;font-weight:normal;">13.3%) were heavy smokers, defined as smoking ≥30 CPD; none </text>
  <text x="54.634,59.089,61.864,63.555,66.473,71.475,75.645,77.34,83.175,88.313,92.063,93.754,100.144,104.314,107.419,111.589,113.284,118.286,122.456,126.536,130.841,135.146,136.841,140.591,148.091,152.546,156.993,161.163,164.358,168.108,169.799,172.154,176.324,179.099,183.269,187.439,189.524,191.216,195.386,201.633,203.441" y="473.905" svg_rhmargin="205.526" style="fill:#171615;font-family:IKGOXD+CaeciliaLTStd-Roman;font-size:7.5px;font-style:NORMAL;font-weight:normal;">of the HCs were heavy smokers (0/21: 0%, </text>
  <text x="205.136" y="473.905" svg_rhmargin="208.916" style="fill:#171615;font-family:DATKFN+GandhariUnicode-Roman;font-size:7.5px;font-style:NORMAL;font-weight:normal;">χ</text>
  <text x="208.907" y="471.408" svg_rhmargin="211.338" style="fill:#171615;font-family:GHCCVH+CaeciliaLTStd-Italic;font-size:4.37px;font-style:ITALIC;font-weight:normal;">2</text>
  <text y="473.905" svg_rhmargin="218.861" x="212.276,216.776" style="fill:#171615;font-family:GHCCVH+CaeciliaLTStd-Italic;font-size:7.5px;font-style:ITALIC;font-weight:normal;">= </text>
  <text x="217.713,221.883,223.968,228.138,229.946" y="473.905" svg_rhmargin="232.031" style="fill:#171615;font-family:IKGOXD+CaeciliaLTStd-Roman;font-size:7.5px;font-style:NORMAL;font-weight:normal;">4.9, </text>
  <text x="231.641,235.811,236.748,241.248" y="473.905" svg_rhmargin="243.333" style="fill:#171615;font-family:GHCCVH+CaeciliaLTStd-Italic;font-size:7.5px;font-style:ITALIC;font-weight:normal;">P = </text>
  <text x="242.186,244.271,248.441,252.611,256.781,259.136,260.943,262.635,265.14,270.142,271.837,276.142,280.867,285.592" y="473.905" svg_rhmargin="288.645" style="fill:#171615;font-family:IKGOXD+CaeciliaLTStd-Roman;font-size:7.5px;font-style:NORMAL;font-weight:normal;">.027). In add-</text>
  <text x="54.641,56.996,59.913,62.268,66.723,71.726,73.533,75.881,80.186,87.686,92.141,97.143,101.313,103.661,106.578,111.581,115.751,118.098,121.991,126.851,130.046,133.151,137.321,142.323,145.241,147.588,151.338,158.838,163.293,167.741,171.911,175.106,178.856,180.663,183.011,188.148,192.453,198.146,200.493,206.928,211.233,214.983,217.331,221.081,223.436,227.606,232.608,234.963,239.688,243.581,247.886,252.888,255.806,258.071,262.376,264.723,269.726,272.081,276.251,281.253,285.423,288.618" y="484.405" svg_rhmargin="290.703" style="fill:#171615;font-family:IKGOXD+CaeciliaLTStd-Roman;font-size:7.5px;font-style:NORMAL;font-weight:normal;">ition, among the current smokers, CPD was significantly higher </text>
  <text x="54.641,58.946,66.446,70.901,75.903,80.073,82.15799999999999,85.263,88.181,93.183,97.353,99.43799999999999,102.543,106.991,111.851,113.93599999999999,117.041,121.766,126.071,128.988,131.343,135.513,140.516,143.433,147.183,149.268,152.373,154.728,158.898,163.068,165.153,169.323,170.253,174.753,175.691,179.861,184.031,186.116,190.286,192.093,194.178,197.283,204.783,209.088,211.443,215.613,217.698,220.803,224.973,229.143,231.228,235.398,236.336,240.836,241.773,245.943,250.113,252.198,256.368,258.176,260.26099999999997,263.366,266.141,270.311,277.811,282.116,284.471,288.641" y="494.905" svg_rhmargin="290.726" style="fill:#171615;font-family:IKGOXD+CaeciliaLTStd-Roman;font-size:7.5px;font-style:NORMAL;font-weight:normal;">among the SZ patients (21.1 ± 13.9, male 22.2 ± 14.6, female </text>
  <text x="54.641,58.811,62.981,65.066,69.236,70.173,74.673,75.611,79.781,81.866,86.036,88.391,90.476,94.511,97.428,102.431,106.736,111.738,113.823,117.858,122.163,129.663,134.118,139.121,143.291,145.376,149.411,152.328,157.331,161.501,163.586,167.621,171.513,175.968,180.971,183.888,186.993,191.448,193.803,197.553,199.638,203.673" y="505.405" svg_rhmargin="206.028" style="fill:#171615;font-family:IKGOXD+CaeciliaLTStd-Roman;font-size:7.5px;font-style:NORMAL;font-weight:normal;">16.7 ± 9.5) than among the controls (</text>
  <text x="206.028,210.476,211.413,215.913" y="505.405" svg_rhmargin="217.998" style="fill:#171615;font-family:GHCCVH+CaeciliaLTStd-Italic;font-size:7.5px;font-style:ITALIC;font-weight:normal;">B = </text>
  <text svg_rhmargin="238.391" x="216.851,219.903,224.073,226.158,230.328,234.498,236.306,238.39100000000002" y="505.405" style="fill:#171615;font-family:IKGOXD+CaeciliaLTStd-Roman;font-size:7.5px;font-style:NORMAL;font-weight:normal;">-8.78, </text>
  <text x="242.418,246.588,247.526,252.026" y="505.405" svg_rhmargin="254.111" style="fill:#171615;font-family:GHCCVH+CaeciliaLTStd-Italic;font-size:7.5px;font-style:ITALIC;font-weight:normal;">P = </text>
  <text x="252.963,257.133,259.218,263.388,267.558" y="505.405" svg_rhmargin="269.643" style="fill:#171615;font-family:IKGOXD+CaeciliaLTStd-Roman;font-size:7.5px;font-style:NORMAL;font-weight:normal;">8.20 </text>
  <text x="268.496" y="505.405" svg_rhmargin="272.936" style="fill:#171615;font-family:DATKFN+GandhariUnicode-Roman;font-size:7.5px;font-style:NORMAL;font-weight:normal;">×</text>
  <text y="505.405" svg_rhmargin="282.213" x="273.873,278.043" style="fill:#171615;font-family:IKGOXD+CaeciliaLTStd-Roman;font-size:7.5px;font-style:NORMAL;font-weight:normal;">10</text>
  <text x="282.213,284.399" y="502.908" svg_rhmargin="286.83" style="fill:#171615;font-family:IKGOXD+CaeciliaLTStd-Roman;font-size:4.37px;font-style:NORMAL;font-weight:normal;">–3</text>
  <text x="286.83,288.638" y="505.405" svg_rhmargin="290.723" style="fill:#171615;font-family:IKGOXD+CaeciliaLTStd-Roman;font-size:7.5px;font-style:NORMAL;font-weight:normal;">, </text>
  <text x="54.638,58.808,62.978,65.063,69.233,70.17,74.67,75.608,79.778,81.863,86.033,87.84,90.173,97.673,101.978,104.333,108.503,110.837,115.007,119.177,121.262,125.432,126.37,130.87,131.807,135.977,138.062,142.232,144.04,146.373,149.148,153.318,160.818,165.123,167.478,171.648,173.981,178.151,180.236,184.406,185.344,189.844,190.781,194.951,197.036,201.206,203.561,205.369,207.148,212.158,217.16,221.33,224.435,228.605,231.38,235.835,238.94,242.975,244.783,247.117,253.507,257.677,260.01,262.785,267.24,271.133,275.993,279.743,283.913,288.638" y="515.905" svg_rhmargin="290.723" style="fill:#171615;font-family:IKGOXD+CaeciliaLTStd-Roman;font-size:7.5px;font-style:NORMAL;font-weight:normal;">14.5 ± 6.5, male 15.5 ± 6.0, female 5.0 ± 0.0). Therefore, we focused </text>
  <text x="54.638,59.093,64.095,66.17999999999999,66.743,69.66,74.663,78.833,80.91799999999999,81.48,85.373,90.233,93.428,96.533,100.703,105.705,108.623,110.708,111.27,115.02,122.52,126.975,131.423,133.778,138.78,142.95,145.035,145.598,148.658,152.963,155.88,160.05,162.13500000000002,162.698,167.003,172.005,176.73,178.815,179.378,184.515,188.82,194.513,196.598,197.16,201.615,204.39,206.475,207.038,209.955,214.958,219.128,221.213,221.775,226.223,231.083,233.168,233.73,238.455,242.76,245.678,248.033,252.203,257.205,260.123,263.873,265.95799999999997,266.52,268.875,273.878,275.96299999999997,276.525,279.443,284.445,288.615" y="526.405" svg_rhmargin="290.7" style="fill:#171615;font-family:IKGOXD+CaeciliaLTStd-Roman;font-size:7.5px;font-style:NORMAL;font-weight:normal;">on the current smoking rate and CPD of the SZ patients in the </text>
  <text x="54.638,57.413,61.868,64.223,66.578,70.853,77.378,79.733,84.735,88.905,90.81,95.115,100.118,104.423,106.688,110.993,114.743,117.098,120.848,122.655,124.147,131.647,135.817,137.722,142.027,144.382,148.132,152.587,154.492,156.847,161.624,165.839,170.009,173.759,176.677,179.032,183.246,187.551,190.469,194.639,199.364,201.269,204.186,209.189,213.359,215.264,219.156,223.611,226.806,229.911,234.081,236.436,240.741,243.659,246.014,250.469,255.471,257.376,261.824,265.994,268.911,275.301,279.471,283.641,288.644" y="536.905" svg_rhmargin="290.729" style="fill:#171615;font-family:IKGOXD+CaeciliaLTStd-Roman;font-size:7.5px;font-style:NORMAL;font-weight:normal;">following analysis. We also investigated the correlation between </text>
  <text x="54.638,59.775,64.08,69.773,71.85799999999999,73.23,77.535,82.538,87.263,89.348,90.72,94.613,96.968,99.323,104.325,106.68,110.573,114.878,117.233,119.318,120.69,124.905,129.21,132.405,134.76,138.975,143.332,145.687,149.857,153.607,155.415,157.5,158.873,162.623,167.483,171.24,176.243,178.328,179.7,184.005,187.755,189.84,191.213,194.963,200.52,206.49,210.938,215.385,217.47,218.843,223.148,228.15,232.875,234.96,236.333,242.025,244.53,248.835,253.14,257.588,262.035,264.12,265.493,269.243,273.135,277.59,280.695,284.865,288.615" y="547.405" svg_rhmargin="290.7" style="fill:#171615;font-family:IKGOXD+CaeciliaLTStd-Roman;font-size:7.5px;font-style:NORMAL;font-weight:normal;">CPD and clinical variables, such as PANSS and DIEPSS scores </text>
  <text x="54.638,58.943,63.945,68.67,70.755,72.638,75.555,80.558,84.728,86.81299999999999,88.695,93.833,98.138,102.998,106.05,110.22,114.945,116.753,118.838,120.72,125.175,127.95,130.035,131.918,134.835,139.14,143.865,146.22,150.113,154.418,156.773,158.858,160.74,165.195,168.39,170.475,172.358,176.663,179.58,183.885,188.61,190.965,194.858,199.163,201.518,203.603,205.485,209.79,214.793,217.71,220.065,224.79,228.54,232.845,236.603,241.605,246.06,248.978,251.333,255.225,258.975,261.06,262.943,265.298,272.798,276.968,279.743,284.468,286.823,288.63" y="557.905" svg_rhmargin="290.715" style="fill:#171615;font-family:IKGOXD+CaeciliaLTStd-Roman;font-size:7.5px;font-style:NORMAL;font-weight:normal;">and the CPZ-eq. of typical or atypical antipsychotics (mg/d), </text>
  <text x="54.638,58.943,66.443,70.898,75.9,80.07,82.515,86.963,91.823,94.268,98.993,103.298,106.215,108.57,112.74,117.743,120.66,124.41,126.855,133.38,138.383,142.838,145.283,151.673,155.843,158.948,163.118,165.563,169.455,174.315,177.51,180.615,184.785,189.788,192.705,195.15,198.9,206.4,210.855,215.303,219.473,222.668,226.418,228.224,230.115,235.125,240.128,244.298,246.743,251.19,256.05,258.495,263.22,267.525,270.443,272.798,276.968,281.97,284.888,288.638" y="568.405" svg_rhmargin="290.723" style="fill:#171615;font-family:IKGOXD+CaeciliaLTStd-Roman;font-size:7.5px;font-style:NORMAL;font-weight:normal;">among SZ patients who were current smokers. The SZ patients </text>
  <text x="54.638,61.163,66.165,70.62,72.705,73.133,79.523,83.693,86.798,90.968,93.053,93.48,97.373,102.233,105.428,108.533,112.703,117.705,120.623,122.708,123.135,126.885,134.385,138.84,143.288,147.458,150.653,154.403,156.488,156.915,160.665,165.668,169.943,176.333,180.503,185.228,187.31300000000002,187.741,191.491,193.846,198.016,203.018,205.373,210.098,213.991,218.296,223.298,226.216,228.30100000000002,228.728,233.453,237.908,241.658,244.013,246.931,249.196,253.411,257.581,259.666,260.093,263.986,268.441,271.636,274.741,278.911,281.266,285.571" y="578.905" svg_rhmargin="288.624" style="fill:#171615;font-family:IKGOXD+CaeciliaLTStd-Roman;font-size:7.5px;font-style:NORMAL;font-weight:normal;">who were current smokers showed significant positive correla-</text>
  <text x="54.638,57.555,59.91,64.365,69.368,73.118,75.20299999999999,76.253,80.7,84.87,87.788,94.178,98.348,102.518,107.52,109.60499999999999,110.655,113.573,118.575,122.745,124.83,125.88,131.018,135.323,140.183,143.235,147.405,152.13,153.938,156.023,157.073,161.528,164.303,166.388,167.438,171.743,174.66,178.965,183.69,186.045,189.938,194.243,196.598,198.68300000000002,199.733,204.038,209.04,211.958,214.313,219.038,222.788,227.093,230.85,235.853,240.308,243.225,245.58,249.473,253.223,255.30800000000002,256.358,260.663,265.665,270.39,272.47499999999997,273.525,278.663,282.968,288.66" y="589.405" svg_rhmargin="290.745" style="fill:#171615;font-family:IKGOXD+CaeciliaLTStd-Roman;font-size:7.5px;font-style:NORMAL;font-weight:normal;">tions between the CPZ-eq. of atypical antipsychotics and CPD </text>
  <text svg_rhmargin="91.445" x="54.638,56.993,61.028,63.383,67.553,72.413,75.518,79.688,81.773,83.105,87.275,89.36,91.445" y="599.905" style="fill:#171615;font-family:IKGOXD+CaeciliaLTStd-Roman;font-size:7.5px;font-style:NORMAL;font-weight:normal;">(Figure  1; </text>
  <text x="92.775,97.223,98.16,102.66" y="599.905" svg_rhmargin="104.745" style="fill:#171615;font-family:GHCCVH+CaeciliaLTStd-Italic;font-size:7.5px;font-style:ITALIC;font-weight:normal;">B = </text>
  <text svg_rhmargin="126.255" x="103.598,107.768,109.853,114.023,118.193,122.363,124.17,126.255" y="599.905" style="fill:#171615;font-family:IKGOXD+CaeciliaLTStd-Roman;font-size:7.5px;font-style:NORMAL;font-weight:normal;">0.013, </text>
  <text x="127.59,131.76,132.698,137.198" y="599.905" svg_rhmargin="139.283" style="fill:#171615;font-family:GHCCVH+CaeciliaLTStd-Italic;font-size:7.5px;font-style:ITALIC;font-weight:normal;">P = </text>
  <text x="138.135,142.305,144.39,148.56,152.73" y="599.905" svg_rhmargin="154.815" style="fill:#171615;font-family:IKGOXD+CaeciliaLTStd-Roman;font-size:7.5px;font-style:NORMAL;font-weight:normal;">1.00 </text>
  <text x="153.668" y="599.905" svg_rhmargin="158.108" style="fill:#171615;font-family:DATKFN+GandhariUnicode-Roman;font-size:7.5px;font-style:NORMAL;font-weight:normal;">×</text>
  <text y="599.905" svg_rhmargin="167.385" x="159.045,163.215" style="fill:#171615;font-family:IKGOXD+CaeciliaLTStd-Roman;font-size:7.5px;font-style:NORMAL;font-weight:normal;">10</text>
  <text x="167.385,169.572" y="597.408" svg_rhmargin="172.003" style="fill:#171615;font-family:IKGOXD+CaeciliaLTStd-Roman;font-size:4.37px;font-style:NORMAL;font-weight:normal;">–3</text>
  <text x="172.003,174.358,176.165,178.25,179.028,184.038,189.041,193.211,195.29600000000002,196.631,200.523,204.978,208.173,211.278,215.448,217.803,222.108,225.026,227.381,231.836,236.838,238.923,240.258,246.693,250.998,254.748,256.83299999999997,258.168,261.918,264.836,267.191,269.546,271.901,273.986,275.321,279.071,281.426,285.596" y="599.905" svg_rhmargin="288.649" style="fill:#171615;font-family:IKGOXD+CaeciliaLTStd-Roman;font-size:7.5px;font-style:NORMAL;font-weight:normal;">). The correlation was still sig-</text>
  <text x="54.635,59.638,61.993,66.718,70.61,74.915,79.918,82.835,85.033,88.979,93.193,97.363,102.365,104.563,108.868,111.643,114.56,118.73,121.925,124.123,128.015,132.47,137.473,140.39,143.495,147.95,150.305,152.66,155.015,160.018,164.188,166.385,169.16,173.615,176.81,179.008,183.733,188.593,191.653,195.958,198.875,201.23,205.685,210.688,212.885,217.34,220.115,222.313,224.668,227.023,229.378,234.38,238.55,242.3,246.05,248.248,252.553,257.555,262.28,264.478,268.228,273.785,279.755,284.203,288.65" y="610.405" svg_rhmargin="290.735" style="fill:#171615;font-family:IKGOXD+CaeciliaLTStd-Roman;font-size:7.5px;font-style:NORMAL;font-weight:normal;">nificant even after controlling for duration of illness and PANSS </text>
  <text x="54.635,58.94,63.943,68.668,71.038,76.73,79.235,83.54,87.845,92.293,96.74,99.11,102.86,106.753,111.208,114.313,118.483,122.233,124.603" y="620.905" svg_rhmargin="126.958" style="fill:#171615;font-family:IKGOXD+CaeciliaLTStd-Roman;font-size:7.5px;font-style:NORMAL;font-weight:normal;">and DIEPSS scores (</text>
  <text x="126.958,131.405,132.343,136.843" y="620.905" svg_rhmargin="138.928" style="fill:#171615;font-family:GHCCVH+CaeciliaLTStd-Italic;font-size:7.5px;font-style:ITALIC;font-weight:normal;">B = </text>
  <text x="137.78,141.95,144.035,148.205,152.375,156.545,158.354" y="620.905" svg_rhmargin="160.439" style="fill:#171615;font-family:IKGOXD+CaeciliaLTStd-Roman;font-size:7.5px;font-style:NORMAL;font-weight:normal;">0.012, </text>
  <text x="160.73,164.9,165.838,170.338" y="620.905" svg_rhmargin="172.423" style="fill:#171615;font-family:GHCCVH+CaeciliaLTStd-Italic;font-size:7.5px;font-style:ITALIC;font-weight:normal;">P = </text>
  <text x="171.275,175.445,177.53,181.7,185.87" y="620.905" svg_rhmargin="187.955" style="fill:#171615;font-family:IKGOXD+CaeciliaLTStd-Roman;font-size:7.5px;font-style:NORMAL;font-weight:normal;">2.49 </text>
  <text x="186.808" y="620.905" svg_rhmargin="191.248" style="fill:#171615;font-family:DATKFN+GandhariUnicode-Roman;font-size:7.5px;font-style:NORMAL;font-weight:normal;">×</text>
  <text y="620.905" svg_rhmargin="200.525" x="192.185,196.355" style="fill:#171615;font-family:IKGOXD+CaeciliaLTStd-Roman;font-size:7.5px;font-style:NORMAL;font-weight:normal;">10</text>
  <text x="200.526,202.712" y="618.408" svg_rhmargin="205.143" style="fill:#171615;font-family:IKGOXD+CaeciliaLTStd-Roman;font-size:4.37px;font-style:NORMAL;font-weight:normal;">–3</text>
  <text x="205.143,207.498,209.306,211.676,217.646,222.101,224.471,228.363,232.818,236.013,239.118,243.288,245.643,249.948,252.866,255.221,259.676,264.678,268.428,270.798,277.188,281.358,284.463,288.633" y="620.905" svg_rhmargin="290.718" style="fill:#171615;font-family:IKGOXD+CaeciliaLTStd-Roman;font-size:7.5px;font-style:NORMAL;font-weight:normal;">). No correlations were </text>
  <text x="54.641,56.996,61.721,65.891,70.893,73.811,76.166,80.891,85.061,89.786,91.826,96.273,100.443,103.361,109.751,113.921,118.091,123.093,125.133,130.271,134.576,140.268,142.308,146.613,151.616,156.341,158.381,162.836,165.753,170.756,174.926,178.121,180.161,184.376,188.681,191.876,194.231,198.446,202.803,205.158,209.328,213.078,214.886,216.926,220.676,225.536,229.293,234.296,236.336,240.641,244.391,246.431,249.348,254.351,258.521,260.561,265.698,270.003,274.863,277.916,282.086,286.811,288.618" y="631.405" svg_rhmargin="290.703" style="fill:#171615;font-family:IKGOXD+CaeciliaLTStd-Roman;font-size:7.5px;font-style:NORMAL;font-weight:normal;">identified between CPD and other variables, such as the CPZ-eq. </text>
  <text x="54.641,59.096,61.871,63.956,66.873,71.178,75.903,78.258,82.151,86.456,88.811,90.896,95.201,100.203,103.121,105.476,110.201,113.951,118.256,122.013,127.016,131.471,134.388,136.743,140.636,144.386,146.471,150.776,155.778,160.503,162.588,166.338,171.896,177.866,182.313,186.761,188.846,193.301,196.496,198.581,204.273,206.778,211.083,215.388,219.836,224.283,226.368,230.118,234.011,238.466,241.571,245.741,249.491,251.576" y="641.905" svg_rhmargin="253.931" style="fill:#171615;font-family:IKGOXD+CaeciliaLTStd-Roman;font-size:7.5px;font-style:NORMAL;font-weight:normal;">of typical antipsychotics and PANSS or DIEPSS scores (</text>
  <text x="253.931,258.101,259.038,263.538" y="641.905" svg_rhmargin="265.623" style="fill:#171615;font-family:GHCCVH+CaeciliaLTStd-Italic;font-size:7.5px;font-style:ITALIC;font-weight:normal;">P &gt; </text>
  <text x="264.476,266.561,270.731,274.901,277.256" y="641.905" svg_rhmargin="279.341" style="fill:#171615;font-family:IKGOXD+CaeciliaLTStd-Roman;font-size:7.5px;font-style:NORMAL;font-weight:normal;">.05).</text>
  <text x="54.638,62.662,67.388,70.533,75.573,79.033,85.484,91.154,96.194,98.667,103.708,108.119,110.797,115.208,117.724,122.765,125.757,128.273,134.095,139.765,143.386,147.007,151.733,157.402,160.547,163.063,168.257,176.757,181.797,186.991,189.668,195.338,200.217,202.733,208.241,213.077,216.222,220.948,225.36,227.876,233.069,237.795,240.94,248.293,253.019,257.745,263.414,265.93,271.124,276.632" y="665.905" svg_rhmargin="279.148" style="fill:#171615;font-family:PSSERP+CaeciliaLTStd-Bold;font-size:8.5px;font-style:NORMAL;font-weight:bold;">Meta-Analysis of Current Smoking Rates between SZ </text>
  <text x="54.638,59.364,64.2,67.345,70.023,74.749,80.418,83.563,87.975,90.491,95.531,101.201,106.556,109.072,112.217,117.886,122.612,125.128,131.265,136.306,138.822,141.499,147.169,149.685,152.413,157.454,162.809,167.849" y="676.904" svg_rhmargin="173.518" style="fill:#171615;font-family:PSSERP+CaeciliaLTStd-Bold;font-size:8.5px;font-style:NORMAL;font-weight:bold;">Patients and the GP in Japan</text>
  <text x="54.638,62.138,66.308,68.393,69.66,72.435,76.89,81.75,86.753,91.478,93.56299999999999,94.83,99.0,103.17,105.255,106.523,109.628,113.798,116.153,120.098,124.313,128.618,133.62,136.538,138.62300000000002,139.89,144.195,147.39,150.308,152.663,156.555,158.91,163.08,166.83,168.91500000000002,170.183,172.538,177.54,179.625,180.893,185.198,190.058,194.505,201.45,205.62,210.345,212.43,213.698,218.003,223.005,227.73,229.815,230.673,238.173,242.298,246.746,248.83100000000002,250.098,254.553,257.328,259.41299999999995,260.681,265.128,269.021,271.376,275.546,280.548,284.441,288.611" y="693.905" svg_rhmargin="290.696" style="fill:#171615;font-family:IKGOXD+CaeciliaLTStd-Roman;font-size:7.5px;font-style:NORMAL;font-weight:normal;">We found 89 relevant articles in PubMed and Web of Science </text>
  <text x="54.638,59.498,63.248,65.603,70.605,74.775,76.86,77.85,80.768,85.77,89.94,92.02499999999999,93.015,96.765,100.935,105.24,108.3,112.059,117.061,119.146,120.136,123.054,127.224,130.419,137.919,141.669,143.75400000000002,144.744,152.244,156.414,161.416,164.334,166.689,171.144,176.146,180.316,185.041,187.126,188.116,190.471,195.474,197.559,198.549,201.466,206.469,210.639,212.72400000000002,213.714,220.659,224.829,227.746,232.749,237.204,241.929,245.679,247.764,248.754,252.504,256.674,260.566,263.484,265.839,270.294,275.296,277.104,279.18899999999996,280.179,285.879,288.654" y="704.405" svg_rhmargin="290.739" style="fill:#171615;font-family:IKGOXD+CaeciliaLTStd-Roman;font-size:7.5px;font-style:NORMAL;font-weight:normal;">using the search terms mentioned in the Methods section. Of </text>
  <text x="54.638,57.555,62.558,66.728,70.478,74.513,76.32,78.40499999999999,79.965,84.27,86.35499999999999,87.915,90.833,95.288,98.205,102.51,104.865,106.94999999999999,108.51,112.965,115.74,117.82499999999999,119.385,123.555,127.725,129.81,131.37,135.12,138.038,142.898,147.623,149.978,154.148,157.898,159.705,161.79000000000002,163.35,165.705,170.708,174.6,176.955,181.815,186.54,188.895,193.898,198.068,200.15300000000002,201.713,204.63,209.633,213.803,215.888,217.448,222.173,225.278,229.448,233.198,237.368,242.37,245.288,247.37300000000002,248.933,252.683,255.6,260.46,265.005,268.62,270.428,272.513,274.073,281.573,285.743,288.66" y="714.905" svg_rhmargin="290.745" style="fill:#171615;font-family:IKGOXD+CaeciliaLTStd-Roman;font-size:7.5px;font-style:NORMAL;font-weight:normal;">these, a total of 12 studies, including the present study, met </text>
  <text x="54.638,57.555,62.558,66.728,68.81299999999999,70.373,72.728,77.73,81.623,83.978,88.838,92.588,94.943,99.398,104.4,106.485,108.045,111.938,115.133,117.488,120.405,124.575,127.77,130.125,134.43,136.51500000000001,138.075,140.43,144.18,149.04,153.765,158.49,160.845,165.015,172.515,176.685,181.688,184.605,188.91,192.016,196.321,198.406,199.966,204.001,206.356,210.526,215.386,218.491,222.661,224.746,226.305,230.475,232.83,234.91500000000002,236.475,239.25,243.705,246.9,248.985,250.545,255.0,259.86,263.055,265.14,266.7,274.2,278.37,281.288,285.593" y="725.405" svg_rhmargin="288.646" style="fill:#171615;font-family:IKGOXD+CaeciliaLTStd-Roman;font-size:7.5px;font-style:NORMAL;font-weight:normal;">the inclusion criteria (supplementary Figure  2) for our meta-</text>
  <text x="54.638,58.943,63.945,68.25,70.515,74.82,78.57,80.925,84.675,86.75999999999999,89.273,91.628,95.798,97.883,102.053,106.223,110.393,112.478,114.99,117.263,121.568,126.293,130.598,135.6,139.77,143.52,147.69,149.775,152.288,156.735,161.595,163.68,166.193,170.918,175.223,178.14,180.495,184.665,189.668,192.585,196.335,198.69,200.775,203.288,205.643,210.09,215.093,217.448,224.948,229.403,234.128,238.433,240.518,243.03,247.2,250.118,252.203,254.717,259.022,261.377,263.462,265.269,267.354,269.867,274.037,278.207,282.377,286.547,288.632" y="735.905" svg_rhmargin="290.717" style="fill:#171615;font-family:IKGOXD+CaeciliaLTStd-Roman;font-size:7.5px;font-style:NORMAL;font-weight:normal;">analysis (1.845 Japanese SZ patients) (Shimoda et  al., 1999; </text>
  <text svg_rhmargin="290.724" x="54.638,61.583,66.038,69.233,71.588,73.67299999999999,74.689,78.859,81.777,83.862,84.879,89.184,91.539,93.624,95.431,97.51599999999999,98.532,102.702,106.872,111.042,115.212,117.297,119.38199999999999,119.843,124.425,128.88,132.63,137.633,139.988,147.398,152.258,155.318,159.623,161.708,162.724,166.894,169.812,171.89700000000002,172.914,177.219,179.574,181.659,183.466,185.55100000000002,186.567,190.737,194.907,199.077,203.247,205.332,207.417,208.433,215.378,219.833,223.028,225.383,231.818,236.123,240.57,242.925,245.01000000000002,246.027,250.197,253.114,255.199,256.216,260.521,262.876,264.961,266.769,268.854,269.874,274.044,278.214,282.384,286.554,288.639,290.724" y="358.333" style="fill:#0000ff;font-family:IKGOXD+CaeciliaLTStd-Roman;font-size:7.5px;font-style:NORMAL;font-weight:normal;">Mori et  al., 2003; Yoshimura et  al., 2008; Moriwaki et  al., 2009; </text>
  <text x="306.638,311.693,316.148,320.595,324.675,328.845,333.15,336.9,341.903,344.258,346.34299999999996,347.565,351.735,354.653,356.738,357.961,362.266,364.621,366.706,368.514,370.599,371.821,375.991,380.161,384.331,388.501,390.586,392.671,393.893,398.34,403.343,405.698,410.7,415.155,419.183,423.488,427.935,430.29,432.375,433.598,437.768,440.685,442.77,443.994,448.299,450.654,452.739,454.547,456.632,457.854,462.024,466.194,470.364,474.534,476.619,478.704,479.513,487.013,491.318,494.235,498.54,503.543,507.758,512.205,516.375,518.46,519.683,523.853,526.77,528.855,530.079,534.384,536.739,538.824,540.631" y="358.333" svg_rhmargin="542.716" style="fill:#0000ff;font-family:IKGOXD+CaeciliaLTStd-Roman;font-size:7.5px;font-style:NORMAL;font-weight:normal;">Kobayashi et  al., 2010; Shinozaki et  al., 2011; Watanabe et  al., </text>
  <text x="306.63,310.8,314.97,319.14,323.31,325.395,327.653,332.1,336.405,340.155,344.235,348.405,352.71,360.21,364.515,366.773,370.943,373.86,376.118,380.423,382.778,384.863,386.67,388.928,393.098,397.268,401.438,405.608,407.693,409.95,415.92,418.275,420.63,423.548,427.298,432.158,434.415,438.585,441.503,443.76,448.065,450.42,452.505,454.313,456.57,460.74,464.91,469.08,473.25,475.335,477.593,483.293,488.295,490.65,495.098,497.453,499.71,503.88,506.798,509.055,513.36,515.715,517.8,519.608,521.865,526.035,530.205,534.375,538.545,540.63" y="368.833" svg_rhmargin="542.715" style="fill:#0000ff;font-family:IKGOXD+CaeciliaLTStd-Roman;font-size:7.5px;font-style:NORMAL;font-weight:normal;">2012; Sasayama et al., 2013; Niitsu et al., 2014; Oniki et al., 2016; </text>
  <text x="306.63,313.575,315.93,320.1,324.405,329.265,333.023,338.025,340.38,342.465,344.123,348.293,351.21,353.29499999999996,354.95,359.255,361.61,363.695,365.502,367.587,369.245,373.415,377.585,381.755,385.925,388.28,390.087,392.17199999999997,393.549,399.107,401.462,404.379,409.382,413.837,418.697,422.867,427.869,429.954,431.612,434.529,439.532,443.702,445.787,447.444,452.169,456.339,461.064,466.067,468.422,471.34,473.695,478.15,483.152,486.902,488.98699999999997,490.645,495.099,497.874,499.959,501.617,504.534,509.537,513.707,515.792,517.449,521.199,528.699,533.154,537.602" y="379.333" svg_rhmargin="540.655" style="fill:#0000ff;font-family:IKGOXD+CaeciliaLTStd-Roman;font-size:7.5px;font-style:NORMAL;font-weight:normal;">Miyauchi et  al., 2017). Although the definitions of the smok-</text>
  <text x="306.63,308.985,313.988,318.158,320.243,322.92,326.67,329.588,333.893,336.81,341.67,345.42,347.505,350.183,354.908,357.263,360.038,362.813,366.983,370.088,374.258,378.983,381.068,383.746,387.496,389.851,392.206,396.376,401.378,404.296,406.561,410.866,412.95099999999996,415.628,419.933,427.433,431.888,436.891,441.061,443.14599999999996,445.823,448.741,453.743,457.913,459.998,462.676,466.426,469.343,474.203,478.928,481.283,485.453,489.203,491.28799999999995,493.966,496.321,500.071,504.931,509.656,514.381,516.736,520.906,528.406,532.576,537.578" y="389.833" svg_rhmargin="540.631" style="fill:#171615;font-family:IKGOXD+CaeciliaLTStd-Roman;font-size:7.5px;font-style:NORMAL;font-weight:normal;">ing status differed slightly among the studies (supplemen-</text>
  <text x="306.63,309.548,313.853,316.958,321.263,323.468,327.788,332.003,336.36,338.715,342.885,344.96999999999997,345.646,349.816,352.171,353.979,356.06399999999996,356.739,363.129,367.299,369.38399999999996,370.059,376.449,380.619,383.724,387.894,389.979,390.654,394.869,399.226,401.581,405.751,407.83599999999996,408.511,411.429,415.884,417.969,418.644,423.099,427.546,430.464,434.769,437.124,442.126,444.21099999999996,444.886,448.779,453.639,456.834,459.939,464.109,469.111,472.029,474.114,474.789,478.539,486.039,490.494,494.941,497.296,502.299,506.469,508.554,509.229,512.289,516.594,519.511,523.681,527.431,529.5160000000001,530.191,532.966,537.421,540.616" y="400.333" svg_rhmargin="542.701" style="fill:#0000ff;font-family:IKGOXD+CaeciliaLTStd-Roman;font-size:7.5px;font-style:NORMAL;font-weight:normal;">tary Table  1), we were able to obtain current smoking rates for </text>
  <text x="306.63,308.903,313.208,317.933,322.238,327.24,331.41,335.16,339.33,341.558,346.005,350.865,353.093,357.818,362.123,365.04,367.395,371.565,376.568,379.485,383.235,385.043,386.714,391.724,396.727,400.897,403.124,406.874,409.792,414.652,419.377,421.732,425.902,429.652,431.879,438.269,442.439,445.544,449.714,451.942,456.667,461.527,465.884,468.239,470.594,474.344,479.347,483.517,488.242,490.469,494.917,499.087,502.004,508.394,512.564,516.734,521.737,523.964,528.134,532.304,536.474,540.644" y="410.833" svg_rhmargin="542.729" style="fill:#171615;font-family:IKGOXD+CaeciliaLTStd-Roman;font-size:7.5px;font-style:NORMAL;font-weight:normal;">Japanese SZ patients. The studies were published between 1999 </text>
  <text x="306.63,310.935,315.938,320.663,322.748,324.345,328.515,332.685,336.855,341.025,342.833,344.918,346.515,350.963,355.268,362.768,367.493,369.848,374.018,376.10299999999995,377.7,381.45,383.805,387.833,392.003,395.753,397.83799999999997,399.435,402.495,406.8,411.803,416.063,420.233,424.958,427.043,428.641,431.415,434.521,438.975,446.475,448.56,450.158,454.328,458.498,460.58299999999997,462.181,465.098,469.553,471.638,473.236,477.406,481.576,485.746,487.553,489.638,490.681,495.691,500.693,504.863,506.948,508.546,510.901,515.903,519.796,522.151,527.011,531.736,535.906,540.63" y="421.333" svg_rhmargin="542.715" style="fill:#171615;font-family:IKGOXD+CaeciliaLTStd-Roman;font-size:7.5px;font-style:NORMAL;font-weight:normal;">and 2017. Sample sizes ranged from 32 to 460. The included </text>
  <text x="306.63,310.38,313.298,318.158,322.883,325.238,329.408,333.158,335.243,336.323,342.713,346.883,349.988,354.158,356.243,357.323,361.215,365.67,370.673,375.398,380.258,384.15,387.068,391.238,395.963,398.048,399.128,401.483,406.485,408.57,409.65,413.82,417.991,420.07599999999996,421.156,425.048,427.403,430.321,432.676,436.846,440.596,442.681,443.761,448.066,451.958,455.063,459.518,463.268,467.018,469.10299999999995,470.183,472.456,476.761,481.486,485.791,490.793,492.878,493.958,496.313,500.063,504.923,509.648,514.373,516.728,520.898,528.398,532.568,537.57" y="431.833" svg_rhmargin="540.623" style="fill:#171615;font-family:IKGOXD+CaeciliaLTStd-Roman;font-size:7.5px;font-style:NORMAL;font-weight:normal;">studies were conducted in 10 cities across Japan (supplemen-</text>
  <text x="306.63,309.548,313.853,316.958,321.263,323.34799999999996,324.653,328.688,331.043,335.213,340.073,343.178,347.348,349.433,350.738,354.908,357.263,359.07,361.155,361.905,366.083,370.538,372.623,373.928,377.82,382.275,389.775,394.5,398.805,401.91,406.081,408.166,409.471,413.363,418.223,421.418,424.523,428.693,433.696,436.613,438.698,440.003,443.753,451.253,455.708,460.156,462.511,467.513,471.683,473.768,475.073,478.133,482.438,485.356,489.526,493.276,495.361,496.666,501.113,505.283,508.201,514.591,518.761,522.931,527.933,530.018,531.323,535.771,540.631" y="442.333" svg_rhmargin="542.716" style="fill:#0000ff;font-family:IKGOXD+CaeciliaLTStd-Roman;font-size:7.5px;font-style:NORMAL;font-weight:normal;">tary Figure  3). To compare current smoking rates between SZ </text>
  <text x="306.63,311.355,315.66,318.578,320.933,325.103,330.105,333.023,336.773,338.858,339.503,343.808,348.81,353.535,355.62,356.265,359.183,364.185,368.355,370.44,371.086,376.501,379.837,381.645,383.72999999999996,384.375,390.765,394.935,397.02,397.665,402.12,406.568,409.486,413.79,416.146,421.148,425.318,430.043,432.128,432.773,435.691,440.693,444.863,446.948,447.593,451.343,458.843,463.298,467.746,470.101,475.103,479.273,481.358,482.003,485.063,489.368,492.286,496.456,500.206,502.291,502.936,505.711,510.166,513.361,515.446,516.091,519.008,524.011,528.181,530.2660000000001,530.911,536.326,540.63" y="452.833" svg_rhmargin="542.715" style="fill:#171615;font-family:IKGOXD+CaeciliaLTStd-Roman;font-size:7.5px;font-style:NORMAL;font-weight:normal;">patients and the GP, we obtained the smoking rates for the GP </text>
  <text x="306.63,308.985,313.988,316.268,318.54,322.845,327.57,331.875,336.878,339.158,341.933,345.038,349.493,356.993,359.273,361.635,366.645,368.925" y="463.333" svg_rhmargin="371.28" style="fill:#171615;font-family:IKGOXD+CaeciliaLTStd-Roman;font-size:7.5px;font-style:NORMAL;font-weight:normal;">in Japan from JT (</text>
  <text x="371.28,375.585,376.523,381.023" y="463.333" svg_rhmargin="383.108" style="fill:#171615;font-family:GHCCVH+CaeciliaLTStd-Italic;font-size:7.5px;font-style:ITALIC;font-weight:normal;">n = </text>
  <text x="381.96,386.13,390.3,394.47,395.415,399.585,403.755,407.925,410.28,412.088,413.816,418.826,423.828,427.998,430.278,434.036,439.038,443.343,446.403,450.708,454.601,457.518,461.688,464.883,467.238,470.988,473.906,476.261,480.153,483.903,486.183,490.638,493.413,495.693,498.611,503.613,507.783,510.063,513.813,518.118,525.618,530.343,532.698,536.868,540.618" y="463.333" svg_rhmargin="542.703" style="fill:#171615;font-family:IKGOXD+CaeciliaLTStd-Roman;font-size:7.5px;font-style:NORMAL;font-weight:normal;">196 845). The characteristics of the samples </text>
  <text x="306.63,308.985,313.988,317.88,320.235,325.095,329.82,333.99,338.715,340.8,343.155,348.158,350.243,353.16,358.163,362.333,364.418,368.723,373.725,378.03,380.295,384.6,388.35,390.705,394.455,396.54,400.845,403.95,408.12,410.205,413.955,418.958,423.233,429.758,434.76,436.845,439.2,444.203,445.733,450.053,454.268,458.625,460.98,465.15,467.235,471.405" y="473.833" svg_rhmargin="473.49" style="fill:#171615;font-family:IKGOXD+CaeciliaLTStd-Roman;font-size:7.5px;font-style:NORMAL;font-weight:normal;">included in the analysis are shown in Table 2.</text>
  <text x="318.63,324.075,327.713,329.82,332.625,337.515,341.573,344.566,348.624,350.731,357.054,361.246,364.884,366.991,370.629,372.871,376.929,381.819,384.061,388.674,392.454,396.646,401.536,404.341,406.449,411.339,415.396,418.201,422.259,425.251,429.549,433.696,437.754,442.644,446.701,448.944,451.749,455.941,458.049,460.291,465.181,467.289,470.094,474.984,479.041,481.149,484.929,489.676,492.759,495.751,499.809,504.699,507.504,509.611,513.249,520.636,524.979,529.314,531.556,536.446,540.616" y="484.333" svg_rhmargin="542.701" style="fill:#171615;font-family:IKGOXD+CaeciliaLTStd-Roman;font-size:7.5px;font-style:NORMAL;font-weight:normal;">As there was significant heterogeneity in the current smoking </text>
  <text svg_rhmargin="513.008" x="306.63,309.578,313.77,316.575,320.633,324.27,326.35499999999996,327.398,330.06,334.403,337.485,339.57,340.613,348.0,352.193,354.435,358.493,362.13,364.215,365.258,369.45,374.34,378.953,381.03799999999995,382.08,384.743,388.8,396.188,400.38,402.623,406.68,410.318,412.40299999999996,413.445,417.638,425.025,429.368,434.258,438.315,440.4,441.443,444.248,449.138,453.195,455.28,456.323,459.96,462.765,467.513,472.125,474.368,478.425,482.063,484.14799999999997,485.19,487.433,494.82,499.013,501.255,505.313,508.95,510.923,513.008" y="494.833" style="fill:#171615;font-family:IKGOXD+CaeciliaLTStd-Roman;font-size:7.5px;font-style:NORMAL;font-weight:normal;">rates for males and females among the studies (males: </text>
  <text x="514.05" y="494.833" svg_rhmargin="516.412" style="fill:#171615;font-family:GHCCVH+CaeciliaLTStd-Italic;font-size:7.5px;font-style:ITALIC;font-weight:normal;">I</text>
  <text x="516.282" y="492.339" svg_rhmargin="518.713" style="fill:#171615;font-family:GHCCVH+CaeciliaLTStd-Italic;font-size:4.37px;font-style:ITALIC;font-weight:normal;">2</text>
  <text y="494.836" svg_rhmargin="525.945" x="519.473,523.86" style="fill:#171615;font-family:GHCCVH+CaeciliaLTStd-Italic;font-size:7.5px;font-style:ITALIC;font-weight:normal;">= </text>
  <text x="524.685,528.743,532.8,534.773,538.83,540.638" y="494.836" svg_rhmargin="542.723" style="fill:#171615;font-family:IKGOXD+CaeciliaLTStd-Roman;font-size:7.5px;font-style:NORMAL;font-weight:normal;">87.0, </text>
  <text x="306.638,310.695,311.52,315.908" y="505.336" svg_rhmargin="317.993" style="fill:#171615;font-family:GHCCVH+CaeciliaLTStd-Italic;font-size:7.5px;font-style:ITALIC;font-weight:normal;">P = </text>
  <text x="316.733,320.79,322.763,326.82,330.878" y="505.336" svg_rhmargin="332.963" style="fill:#171615;font-family:IKGOXD+CaeciliaLTStd-Roman;font-size:7.5px;font-style:NORMAL;font-weight:normal;">2.06 </text>
  <text x="331.703" y="505.336" svg_rhmargin="336.143" style="fill:#171615;font-family:DATKFN+GandhariUnicode-Roman;font-size:7.5px;font-style:NORMAL;font-weight:normal;">×</text>
  <text y="505.336" svg_rhmargin="345.083" x="336.855,340.913" style="fill:#171615;font-family:IKGOXD+CaeciliaLTStd-Roman;font-size:7.5px;font-style:NORMAL;font-weight:normal;">10</text>
  <text x="344.97,347.091,349.456" y="502.839" svg_rhmargin="351.887" style="fill:#171615;font-family:IKGOXD+CaeciliaLTStd-Roman;font-size:4.37px;font-style:NORMAL;font-weight:normal;">–13</text>
  <text svg_rhmargin="390.312" x="351.822,353.794,355.87899999999996,358.017,360.679,364.737,372.124,376.317,378.559,382.617,386.254,388.227,390.31199999999995" y="505.336" style="fill:#171615;font-family:IKGOXD+CaeciliaLTStd-Roman;font-size:7.5px;font-style:NORMAL;font-weight:normal;">; females: </text>
  <text x="392.449" y="505.336" svg_rhmargin="394.811" style="fill:#171615;font-family:GHCCVH+CaeciliaLTStd-Italic;font-size:7.5px;font-style:ITALIC;font-weight:normal;">I</text>
  <text x="394.704" y="502.839" svg_rhmargin="397.135" style="fill:#171615;font-family:GHCCVH+CaeciliaLTStd-Italic;font-size:4.37px;font-style:ITALIC;font-weight:normal;">2</text>
  <text y="505.336" svg_rhmargin="404.367" x="397.894,402.282" style="fill:#171615;font-family:GHCCVH+CaeciliaLTStd-Italic;font-size:7.5px;font-style:ITALIC;font-weight:normal;">= </text>
  <text svg_rhmargin="421.032" x="403.107,407.164,411.222,413.194,417.252,418.947,421.032" y="505.336" style="fill:#171615;font-family:IKGOXD+CaeciliaLTStd-Roman;font-size:7.5px;font-style:NORMAL;font-weight:normal;">79.6, </text>
  <text x="423.169,427.227,428.052,432.439" y="505.336" svg_rhmargin="434.524" style="fill:#171615;font-family:GHCCVH+CaeciliaLTStd-Italic;font-size:7.5px;font-style:ITALIC;font-weight:normal;">P = </text>
  <text x="433.264,437.322,439.294,443.352,447.409" y="505.336" svg_rhmargin="449.494" style="fill:#171615;font-family:IKGOXD+CaeciliaLTStd-Roman;font-size:7.5px;font-style:NORMAL;font-weight:normal;">4.17 </text>
  <text x="448.234" y="505.336" svg_rhmargin="452.674" style="fill:#171615;font-family:DATKFN+GandhariUnicode-Roman;font-size:7.5px;font-style:NORMAL;font-weight:normal;">×</text>
  <text y="505.336" svg_rhmargin="461.614" x="453.387,457.444" style="fill:#171615;font-family:IKGOXD+CaeciliaLTStd-Roman;font-size:7.5px;font-style:NORMAL;font-weight:normal;">10</text>
  <text x="461.504,463.625" y="502.839" svg_rhmargin="466.056" style="fill:#171615;font-family:IKGOXD+CaeciliaLTStd-Roman;font-size:4.37px;font-style:NORMAL;font-weight:normal;">–7</text>
  <text svg_rhmargin="511.89" x="465.99,467.963,470.048,472.185,475.965,480.308,487.695,492.03,494.273,499.163,503.22,507.833,509.805,511.89" y="505.336" style="fill:#171615;font-family:IKGOXD+CaeciliaLTStd-Roman;font-size:7.5px;font-style:NORMAL;font-weight:normal;">; combined: </text>
  <text x="514.028" y="505.336" svg_rhmargin="516.39" style="fill:#171615;font-family:GHCCVH+CaeciliaLTStd-Italic;font-size:7.5px;font-style:ITALIC;font-weight:normal;">I</text>
  <text x="516.282" y="502.839" svg_rhmargin="518.713" style="fill:#171615;font-family:GHCCVH+CaeciliaLTStd-Italic;font-size:4.37px;font-style:ITALIC;font-weight:normal;">2</text>
  <text y="505.336" svg_rhmargin="525.945" x="519.473,523.86" style="fill:#171615;font-family:GHCCVH+CaeciliaLTStd-Italic;font-size:7.5px;font-style:ITALIC;font-weight:normal;">= </text>
  <text x="524.685,528.743,532.8,534.773,538.83,540.638" y="505.336" svg_rhmargin="542.723" style="fill:#171615;font-family:IKGOXD+CaeciliaLTStd-Roman;font-size:7.5px;font-style:NORMAL;font-weight:normal;">86.1, </text>
  <text x="306.638" y="515.836" svg_rhmargin="310.808" style="fill:#171615;font-family:GHCCVH+CaeciliaLTStd-Italic;font-size:7.5px;font-style:ITALIC;font-weight:normal;">P</text>
  <text y="515.836" svg_rhmargin="332.963" x="311.52,315.908,316.733,320.79,322.763,326.82,330.878" style="fill:#171615;font-family:IKGOXD+CaeciliaLTStd-Roman;font-size:7.5px;font-style:NORMAL;font-weight:normal;">&lt; 1.00 </text>
  <text x="331.703" y="515.836" svg_rhmargin="336.143" style="fill:#171615;font-family:DATKFN+GandhariUnicode-Roman;font-size:7.5px;font-style:NORMAL;font-weight:normal;">×</text>
  <text y="515.836" svg_rhmargin="345.083" x="336.855,340.913" style="fill:#171615;font-family:IKGOXD+CaeciliaLTStd-Roman;font-size:7.5px;font-style:NORMAL;font-weight:normal;">10</text>
  <text x="344.97,347.091,349.456" y="513.3389999999999" svg_rhmargin="351.887" style="fill:#171615;font-family:IKGOXD+CaeciliaLTStd-Roman;font-size:4.37px;font-style:NORMAL;font-weight:normal;">–13</text>
  <text x="351.822,354.064,355.759,357.192,359.997,364.887,368.944,370.377,373.324,377.517,382.407,387.019,391.362,398.749,401.689,405.747,408.409,411.072,415.129,418.909,421.714,425.352,426.784,434.172,438.514,443.127,447.184,449.427,450.859,457.182,461.374,465.012,466.444,470.637,475.249,479.862,482.104,484.347,488.404,493.017,494.449,497.112,501.454,504.537,505.969,508.774,513.664,517.722,519.154,526.542,530.599,533.404,537.597" y="515.836" svg_rhmargin="540.65" style="fill:#171615;font-family:IKGOXD+CaeciliaLTStd-Roman;font-size:7.5px;font-style:NORMAL;font-weight:normal;">), the random-effects model was applied for the meta-</text>
  <text x="306.634,310.827,315.717,319.909,322.062,326.254,329.892,332.134,335.772,337.467,339.247,344.692,348.472,352.252,356.594,359.497,364.109,366.352,371.242,375.299,377.354,380.159,384.502,386.557,391.169,395.092,399.149,403.207,404.624,408.262,410.317,412.979,417.727,422.617,427.507,431.564,433.807,435.862,440.474,442.717,447.059,449.864,451.919,454.724,458.782,462.419,465.224,467.279,469.942,474.284,477.367,479.422,483.614,487.252,491.444,498.832,506.219,510.277,513.082,516.074,520.267,522.322,524.564,528.202,532.949,537.562" y="526.336" svg_rhmargin="540.615" style="fill:#171615;font-family:IKGOXD+CaeciliaLTStd-Roman;font-size:7.5px;font-style:NORMAL;font-weight:normal;">analysis. According to Begg’s funnel plot test for asymmetry (sup-</text>
  <text x="306.634,311.247,313.489,317.547,324.934,328.992,333.882,336.687,340.879,343.871,348.064,349.556,353.479,355.721,359.779,364.526,367.518,371.576,373.066,377.124,379.366,381.061,382.554,387.444,391.786,393.279,397.111,401.304,403.546,408.159,412.216,417.106,420.886,424.944,426.436,430.779,433.441,434.934,439.546,444.294,448.539,450.781,453.024,456.804,460.996,463.801,466.044,470.386,475.276,476.769,481.104,483.346,487.539,491.176,492.669,498.991,503.184,506.821,508.314,512.656,516.991,520.629,524.686,527.769,531.871,535.929,540.654" y="536.836" svg_rhmargin="542.739" style="fill:#0000ff;font-family:IKGOXD+CaeciliaLTStd-Roman;font-size:7.5px;font-style:NORMAL;font-weight:normal;">plementary Figure 4), no evidence of publication bias was observed </text>
  <text x="306.634" y="547.336" svg_rhmargin="308.989" style="fill:#171615;font-family:IKGOXD+CaeciliaLTStd-Roman;font-size:7.5px;font-style:NORMAL;font-weight:normal;">(</text>
  <text x="308.877,312.934,313.759,318.147" y="547.336" svg_rhmargin="320.232" style="fill:#171615;font-family:GHCCVH+CaeciliaLTStd-Italic;font-size:7.5px;font-style:ITALIC;font-weight:normal;">P = </text>
  <text x="318.972,320.944,325.002,329.059,331.302,332.997,335.452,340.349,345.239,349.297,351.382,352.304,356.084,360.427,363.509,366.502,370.559,374.197,378.809,383.152,388.042,392.654,394.897,399.787,403.844,405.929,406.852,409.514,413.857,416.849,420.907,424.544,427.349,429.43399999999997,430.357,434.969,437.212,441.554,444.359,446.44399999999996,447.367,450.029,454.372,457.454,459.539,460.462,464.519,468.712,472.357,477.247,479.332,480.254,484.034,488.782,491.864,494.857,498.914,503.804,506.609,508.69399999999996,509.617,513.254,520.642,524.984,529.319,531.562,536.452,540.622" y="547.336" svg_rhmargin="542.707" style="fill:#171615;font-family:IKGOXD+CaeciliaLTStd-Roman;font-size:7.5px;font-style:NORMAL;font-weight:normal;">.75). The corresponding forest plot for each current smoking </text>
  <text x="306.634,309.582,313.774,316.579,320.637,322.954,325.197,328.834,331.152,335.764,338.757,342.814,346.452,350.509,355.399,358.204,362.262,366.874,369.192,371.434,376.324,378.642,382.564,384.807,388.864,393.612,396.603,400.661,402.976,407.034,408.729,411.047,416.634,421.382,424.464,426.782,434.169,438.227,441.032,445.224,448.164,452.357,457.247,461.439,463.592,467.784,471.422,473.664,477.302,479.62,482.282,486.625,491.372,496.262,500.875,503.192,506.83,509.072,513.13,518.02,520.262,524.875,528.655,532.847,537.737,540.655" y="557.836" svg_rhmargin="542.74" style="fill:#171615;font-family:IKGOXD+CaeciliaLTStd-Roman;font-size:7.5px;font-style:NORMAL;font-weight:normal;">rate is presented in Figure 2. Our meta-analysis found significant </text>
  <text x="306.634,311.247,313.489,316.152,318.814,322.872,325.864,329.922,334.812,338.592,342.649,346.287,348.37199999999996,349.999,352.242,357.132,359.217,360.844,364.624,369.372,372.454,375.447,379.504,384.394,387.199,389.284,390.912,394.549,401.937,406.279,410.614,412.857,417.747,421.804,423.88899999999995,425.517,428.464,432.657,435.462,439.519,443.157,445.24199999999996,446.869,451.204,455.262,458.067,464.345,468.402,472.46,477.35,479.435,481.063,485.397,490.145,492.22999999999996,493.857,498.47,502.662,505.467,507.71,511.767,516.657,519.462,523.1,525.1850000000001,526.813,531.005,535.895,540.62" y="568.336" svg_rhmargin="542.705" style="fill:#171615;font-family:IKGOXD+CaeciliaLTStd-Roman;font-size:7.5px;font-style:NORMAL;font-weight:normal;">differences in current smoking rates between SZ patients and </text>
  <text x="306.634,309.439,314.329,318.387,320.472,321.559,326.862,331.054,333.13899999999995,334.227,336.469,343.857,348.049,350.292,354.349,357.987,359.959,362.044,363.132,368.719,373.467,375.55199999999996,376.639,378.882,382.939,386.997,393.132,398.157,400.549" y="578.836" svg_rhmargin="402.904" style="fill:#171615;font-family:IKGOXD+CaeciliaLTStd-Roman;font-size:7.5px;font-style:NORMAL;font-weight:normal;">the GP [males: OR (95%CI)</text>
  <text y="578.836" svg_rhmargin="410.089" x="403.617,408.004" style="fill:#171615;font-family:GHCCVH+CaeciliaLTStd-Italic;font-size:7.5px;font-style:ITALIC;font-weight:normal;">= </text>
  <text svg_rhmargin="466.339" x="408.829,412.887,414.859,418.917,422.974,425.05899999999997,426.147,428.389,432.447,434.419,438.477,442.534,446.172,450.229,452.202,456.259,460.317,462.559,464.254,466.339" y="578.836" style="fill:#171615;font-family:IKGOXD+CaeciliaLTStd-Roman;font-size:7.5px;font-style:NORMAL;font-weight:normal;">1.53 (1.03–2.27), </text>
  <text x="467.427,471.484,472.309,476.697" y="578.836" svg_rhmargin="478.782" style="fill:#171615;font-family:GHCCVH+CaeciliaLTStd-Italic;font-size:7.5px;font-style:ITALIC;font-weight:normal;">P = </text>
  <text x="477.522,479.494,483.552,487.609,491.667,493.639,495.724,496.812,499.474,503.532,510.919,515.112,517.354,521.412,525.049,527.022,529.1070000000001,530.194,535.782,540.642" y="578.836" svg_rhmargin="542.727" style="fill:#171615;font-family:IKGOXD+CaeciliaLTStd-Roman;font-size:7.5px;font-style:NORMAL;font-weight:normal;">.035; females: OR </text>
  <text x="306.634,308.877,312.934,316.992,323.127,328.152,330.544" y="589.336" svg_rhmargin="332.899" style="fill:#171615;font-family:IKGOXD+CaeciliaLTStd-Roman;font-size:7.5px;font-style:NORMAL;font-weight:normal;">(95%CI)</text>
  <text y="589.336" svg_rhmargin="340.084" x="333.612,337.999" style="fill:#171615;font-family:GHCCVH+CaeciliaLTStd-Italic;font-size:7.5px;font-style:ITALIC;font-weight:normal;">= </text>
  <text x="338.824,342.882,344.854,348.912,352.969,355.039,357.282,361.339,363.312,367.369,371.427,375.064,379.122,381.094,385.152,389.209,391.452,393.147" y="589.336" svg_rhmargin="395.232" style="fill:#171615;font-family:IKGOXD+CaeciliaLTStd-Roman;font-size:7.5px;font-style:NORMAL;font-weight:normal;">2.40 (1.62–3.53), </text>
  <text x="395.217,399.274,400.099,404.487" y="589.336" svg_rhmargin="406.572" style="fill:#171615;font-family:GHCCVH+CaeciliaLTStd-Italic;font-size:7.5px;font-style:ITALIC;font-weight:normal;">P = </text>
  <text x="405.312,409.369,411.342,415.399,419.457" y="589.336" svg_rhmargin="421.542" style="fill:#171615;font-family:IKGOXD+CaeciliaLTStd-Roman;font-size:7.5px;font-style:NORMAL;font-weight:normal;">1.08 </text>
  <text x="420.289" y="589.336" svg_rhmargin="424.729" style="fill:#171615;font-family:DATKFN+GandhariUnicode-Roman;font-size:7.5px;font-style:NORMAL;font-weight:normal;">×</text>
  <text y="589.336" svg_rhmargin="433.669" x="425.442,429.499" style="fill:#171615;font-family:IKGOXD+CaeciliaLTStd-Roman;font-size:7.5px;font-style:NORMAL;font-weight:normal;">10</text>
  <text x="433.558,435.679" y="586.8389999999999" svg_rhmargin="438.11" style="fill:#171615;font-family:IKGOXD+CaeciliaLTStd-Roman;font-size:4.37px;font-style:NORMAL;font-weight:normal;">–5</text>
  <text x="438.044,440.017,442.087,445.867,450.209,457.597,461.932,464.174,469.064,473.122,477.734,479.707,481.777,487.364,492.112,494.182,496.424,500.482,504.539,510.674,515.699,518.092" y="589.337" svg_rhmargin="520.447" style="fill:#171615;font-family:IKGOXD+CaeciliaLTStd-Roman;font-size:7.5px;font-style:NORMAL;font-weight:normal;">; combined: OR (95%CI)</text>
  <text y="589.337" svg_rhmargin="527.632" x="521.159,525.547" style="fill:#171615;font-family:GHCCVH+CaeciliaLTStd-Italic;font-size:7.5px;font-style:ITALIC;font-weight:normal;">= </text>
  <text x="526.372,530.429,532.402,536.459,540.629" y="589.337" svg_rhmargin="542.714" style="fill:#171615;font-family:IKGOXD+CaeciliaLTStd-Roman;font-size:7.5px;font-style:NORMAL;font-weight:normal;">1.88 </text>
  <text svg_rhmargin="346.829" x="306.637,308.879,312.937,314.909,318.967,323.024,326.662,330.719,332.692,336.749,340.807,343.049,344.744,346.829" y="599.837" style="fill:#171615;font-family:IKGOXD+CaeciliaLTStd-Roman;font-size:7.5px;font-style:NORMAL;font-weight:normal;">(1.40–2.52), </text>
  <text x="348.269,352.327,353.152,357.539" y="599.837" svg_rhmargin="359.624" style="fill:#171615;font-family:GHCCVH+CaeciliaLTStd-Italic;font-size:7.5px;font-style:ITALIC;font-weight:normal;">P = </text>
  <text x="358.364,362.422,364.394,368.452,372.509" y="599.837" svg_rhmargin="374.594" style="fill:#171615;font-family:IKGOXD+CaeciliaLTStd-Roman;font-size:7.5px;font-style:NORMAL;font-weight:normal;">2.60 </text>
  <text x="373.334" y="599.837" svg_rhmargin="377.774" style="fill:#171615;font-family:DATKFN+GandhariUnicode-Roman;font-size:7.5px;font-style:NORMAL;font-weight:normal;">×</text>
  <text y="599.837" svg_rhmargin="386.714" x="378.487,382.544" style="fill:#171615;font-family:IKGOXD+CaeciliaLTStd-Roman;font-size:7.5px;font-style:NORMAL;font-weight:normal;">10</text>
  <text x="386.605,388.726" y="597.3389999999999" svg_rhmargin="391.157" style="fill:#171615;font-family:IKGOXD+CaeciliaLTStd-Roman;font-size:4.37px;font-style:NORMAL;font-weight:normal;">–5</text>
  <text x="391.092,393.334,395.029,397.114,398.002,402.9,407.79,411.847,413.93199999999996,415.372,419.707,424.455,426.53999999999996,427.98,432.592,436.785,439.59,441.832,445.89,450.78,453.585,457.222,459.30699999999996,460.747,464.385,469.275,473.437,479.715,483.772,488.385,490.46999999999997,491.91,496.102,498.18699999999995,499.627,504.517,506.76,510.817,515.707,519.765,522.847,524.932,526.372,530.152,534.9,537.582" y="599.837" svg_rhmargin="540.635" style="fill:#171615;font-family:IKGOXD+CaeciliaLTStd-Roman;font-size:7.5px;font-style:NORMAL;font-weight:normal;">]. The SZ patients showed a higher cur-</text>
  <text x="306.634,309.627,313.684,318.574,321.379,323.464,325.182,328.819,336.207,340.549,344.884,347.127,352.017,356.074,358.159,359.877,362.824,367.017,369.822,373.879,375.964,377.682,380.487,385.377,389.569,394.459,396.544,398.262,401.067,405.957,410.014,412.099,413.817,419.119,423.312,425.397,427.114,431.307,438.694,443.037,447.927,451.984,454.06899999999996,455.787,460.122,464.464,467.269,472.159,474.24399999999997,475.962,483.349,487.407,492.297,494.382,496.099,500.292,505.182,509.794,511.87899999999996,513.597,519.874,524.217,531.604,535.662,540.664" y="610.337" svg_rhmargin="542.749" style="fill:#171615;font-family:IKGOXD+CaeciliaLTStd-Roman;font-size:7.5px;font-style:NORMAL;font-weight:normal;">rent smoking rate than the GP among both men and women </text>
  <text x="306.634,308.877,316.264,320.457,322.699,326.757,330.394,332.367,334.624,338.959,343.707,345.964,350.022,354.079,356.052,360.109,366.244,368.502,372.694,376.332,378.589,383.892,388.084,390.342,394.399,398.457,400.429,404.487,410.622,412.594,414.852,417.514,421.572,428.959,433.152,435.394,439.452,443.089,445.062,447.319,451.654,456.402,458.659,462.717,466.774,468.747,472.804,478.939,481.197,485.389,489.027,491.284,496.587,500.779,503.037,507.094,511.152,513.124,517.182,523.317,525.559,527.254,529.098,536.485,540.655" y="620.837" svg_rhmargin="542.74" style="fill:#171615;font-family:IKGOXD+CaeciliaLTStd-Roman;font-size:7.5px;font-style:NORMAL;font-weight:normal;">(males: SZ 52.9% vs GP 40.1%; females: SZ 24.4% vs GP 11.8%). We </text>
  <text x="306.634,309.439,314.329,318.387,323.277,325.36199999999997,326.772,331.384,335.442,338.524,341.187,345.529,348.612,355.999,360.057,364.669,366.75399999999996,368.164,372.357,374.442,375.852,379.489,384.237,388.572,392.629,395.621,399.963,404.711,409.323,411.40799999999996,412.818,420.206,424.263,427.068,431.261,434.201,438.393,443.283,447.476,449.628,453.821,457.458,459.701,463.338,465.423,466.833,471.176,473.838,475.923,477.333,480.138,485.028,489.086,491.171,492.581,496.218,503.606,507.948,512.283,514.526,519.416,523.473,525.558,526.968,530.606,533.411,537.603" y="631.337" svg_rhmargin="540.656" style="fill:#171615;font-family:IKGOXD+CaeciliaLTStd-Roman;font-size:7.5px;font-style:NORMAL;font-weight:normal;">then performed a subgroup meta-analysis of the smoking sta-</text>
  <text x="306.634,309.439,314.187,317.824,320.277,324.619,327.282,329.734,331.977,336.867,341.479,345.672,348.477,350.719,354.777,359.667,362.472,366.109,368.562,370.804,374.862,377.314,380.952,383.757,388.504,393.117,395.359,399.417,403.054,405.297,407.749,411.942,416.832,421.444,423.897,428.239,432.987,435.792,440.404,444.597,447.402,449.644,453.702,458.592,461.397,465.034,467.487,469.729,473.787,476.239,479.877,482.682,487.429,492.042,494.284,498.342,501.979,504.222,505.917,508.369,512.562,514.804,517.609,522.499,526.842,531.589,535.647,540.649" y="641.837" svg_rhmargin="542.734" style="fill:#171615;font-family:IKGOXD+CaeciliaLTStd-Roman;font-size:7.5px;font-style:NORMAL;font-weight:normal;">tus of inpatients (4 studies) and outpatients (4 studies), although </text>
  <text x="306.634,309.439,314.329,318.387,320.472,321.27,326.07,330.818,338.205,342.54,346.598,349.68,351.765,352.564,356.907,359.569,361.654,362.453,366.09,368.895,373.643,378.255,380.498,384.555,388.193,390.27799999999996,391.077,397.354,401.412,404.404,408.462,410.54699999999997,411.345,413.588,415.83,423.218,425.46,428.265,432.323,436.935,438.63,440.715,441.513,446.126,450.468,453.273,458.163,460.248,461.047,465.39,470.137,472.942,477.555,481.747,484.552,486.795,490.852,495.742,498.547,502.185,504.27,505.068,509.261,514.151,518.763,520.8480000000001,521.647,523.89,528.78,533.392,537.585" y="652.337" svg_rhmargin="540.638" style="fill:#171615;font-family:IKGOXD+CaeciliaLTStd-Roman;font-size:7.5px;font-style:NORMAL;font-weight:normal;">the number of studies were limited. Both outpatients and inpa-</text>
  <text x="306.634,309.439,311.682,315.739,320.629,323.434,327.072,329.157,329.862,334.752,338.944,343.557,345.642,346.347,353.734,357.927,360.829,364.977,367.219,372.109,376.302,378.544,380.697,384.889,386.974,387.679,392.569,394.812,398.869,403.759,407.817,410.899,412.984,413.689,417.469,422.217,425.299,428.292,432.349,437.239,440.044,442.12899999999996,442.834,446.472,453.859,458.202,462.537,464.779,469.669,473.727,475.81199999999995,476.517,479.464,483.657,486.462,490.519,494.157,496.24199999999996,496.947,499.752,504.642,508.834,513.724,515.8090000000001,516.51,519.315,524.205,528.263,530.3480000000001,531.053,536.355,540.66,540.634" y="662.837" svg_rhmargin="542.719" style="fill:#171615;font-family:IKGOXD+CaeciliaLTStd-Roman;font-size:7.5px;font-style:NORMAL;font-weight:normal;">tients had marginally higher current smoking rates than the GP </text>
  <text x="306.634,308.877,312.514,317.262,321.874,326.487,328.729,332.787,340.174,344.232,349.122,351.927,356.119,359.112,363.304,365.232,369.154,371.397,375.454,380.202,383.194,387.252,389.178,393.235,394.93,396.858,401.2,405.948,408.753,413.365,417.557,420.362,422.605,426.662,431.552,434.357,437.995,439.967,441.895,447.482,452.23,454.157,456.4,460.457,464.515,470.65,475.675,478.067" y="673.337" svg_rhmargin="480.422" style="fill:#171615;font-family:IKGOXD+CaeciliaLTStd-Roman;font-size:7.5px;font-style:NORMAL;font-weight:normal;">[supplementary Figure 5, outpatients: OR (95%CI)</text>
  <text y="673.337" svg_rhmargin="487.607" x="481.135,485.522" style="fill:#171615;font-family:GHCCVH+CaeciliaLTStd-Italic;font-size:7.5px;font-style:ITALIC;font-weight:normal;">= </text>
  <text x="486.347,490.405,492.377,496.435,500.492,502.42,504.662,508.72,510.692,514.75,518.807,522.445,526.502,528.475,532.532,536.59,538.832,540.64" y="673.337" svg_rhmargin="542.725" style="fill:#171615;font-family:IKGOXD+CaeciliaLTStd-Roman;font-size:7.5px;font-style:NORMAL;font-weight:normal;">1.56 (1.07–2.28), </text>
  <text x="306.634,310.692,311.517,315.904" y="683.837" svg_rhmargin="317.989" style="fill:#171615;font-family:GHCCVH+CaeciliaLTStd-Italic;font-size:7.5px;font-style:ITALIC;font-weight:normal;">P = </text>
  <text x="316.729,318.702,322.759,326.817,330.874,332.847,334.819,337.062,341.952,346.564,350.757,353.562,355.804,359.862,364.752,367.557,371.194,373.167,375.139,380.727,385.474,387.447,389.689,393.747,397.804,403.939,408.964,411.357" y="683.837" svg_rhmargin="413.712" style="fill:#171615;font-family:IKGOXD+CaeciliaLTStd-Roman;font-size:7.5px;font-style:NORMAL;font-weight:normal;">.020; inpatients: OR (95%CI)</text>
  <text y="683.837" svg_rhmargin="420.897" x="414.424,418.812" style="fill:#171615;font-family:GHCCVH+CaeciliaLTStd-Italic;font-size:7.5px;font-style:ITALIC;font-weight:normal;">= </text>
  <text x="419.637,423.694,425.667,429.724,433.782,435.754,437.997,442.054,444.027,448.084,452.142,455.779,459.837,461.809,465.867,469.924,472.167,473.862" y="683.837" svg_rhmargin="475.947" style="fill:#171615;font-family:IKGOXD+CaeciliaLTStd-Roman;font-size:7.5px;font-style:NORMAL;font-weight:normal;">2.04 (0.97–4.25), </text>
  <text x="475.834,479.892,480.717,485.104" y="683.837" svg_rhmargin="487.189" style="fill:#171615;font-family:GHCCVH+CaeciliaLTStd-Italic;font-size:7.5px;font-style:ITALIC;font-weight:normal;">P = </text>
  <text x="485.929,487.902,491.959,496.017,500.074,502.317" y="683.837" svg_rhmargin="504.402" style="fill:#171615;font-family:IKGOXD+CaeciliaLTStd-Roman;font-size:7.5px;font-style:NORMAL;font-weight:normal;">.059].</text>
  <text x="306.638,314.662,319.388,322.533,327.573,331.033,337.484,343.154,348.194,350.667,355.707,360.119,362.796,367.208,369.724,374.764,377.756,380.272,383.417,389.087,393.813,396.329,402.151,407.821,411.442,415.063,419.789,425.458,428.603,431.119,436.313,444.813,449.853,455.047,457.724,463.394,468.273,470.789,476.297,481.133,484.278,489.004,493.416,495.932,500.972,503.964,506.48,511.674,517.182" y="707.837" svg_rhmargin="519.698" style="fill:#171615;font-family:PSSERP+CaeciliaLTStd-Bold;font-size:8.5px;font-style:NORMAL;font-weight:bold;">Meta-Analysis of the Current Smoking Rates of SZ </text>
  <text x="306.638,311.364,316.2,319.345,322.023,326.749,332.418,335.563,339.975,342.491,347.531,353.201,358.556,361.072,367.685,373.507,377.919,380.435,383.112,388.782,391.298,394.026,399.067,404.422,409.462" y="718.836" svg_rhmargin="415.131" style="fill:#171615;font-family:PSSERP+CaeciliaLTStd-Bold;font-size:8.5px;font-style:NORMAL;font-weight:bold;">Patients and HCs in Japan</text>
  <text x="306.638,312.338,315.113,317.198,318.544,322.714,326.884,328.969,330.315,334.065,336.982,341.842,346.567,348.922,353.092,356.842,358.92699999999996,360.273,363.191,368.193,372.498,375.416,377.501,378.846,381.201,386.204,390.096,392.451,397.311,402.036,406.206,410.931,413.01599999999996,414.363,416.718,421.72,423.805,425.151,429.456,431.541,432.887,440.387,444.557,447.474,451.779,454.832,459.137,464.139,468.444,470.709,475.014,478.764,481.119,484.869,486.954,488.301,492.193,496.648,504.148,508.873,513.178,516.373,518.728,523.731,527.901,529.986,531.332,535.779,540.639" y="735.837" svg_rhmargin="542.724" style="fill:#171615;font-family:IKGOXD+CaeciliaLTStd-Roman;font-size:7.5px;font-style:NORMAL;font-weight:normal;">Of 12 studies that included in a meta-analysis comparing SZ </text>
  <text x="306.638,311.363,315.668,318.585,320.94,325.11,330.113,333.03,336.78,338.85,343.155,348.158,352.883,354.953,357.87,362.873,367.043,369.113,374.528,377.865,379.673,381.743,385.913,387.983,392.985,397.29,402.015,404.085,407.978,412.838,416.033,419.138,423.308,428.31,431.228,433.298,437.048,444.548,449.003,453.45,455.805,460.808,464.978,467.048,469.403,474.405,477.18,481.635,484.83,492.33,496.635,499.553,501.908,506.363,511.365,513.435,516.21,520.665,523.86,525.93,531.766,536.903,540.653" y="746.337" svg_rhmargin="542.738" style="fill:#171615;font-family:IKGOXD+CaeciliaLTStd-Roman;font-size:7.5px;font-style:NORMAL;font-weight:normal;">patients and the GP, 6 had current smoking information for HCs </text>
  <rect style="stroke:blue;stroke-width:0.3;" x="306.638" y="78.638" height="225.931" width="235.252" title="4"/>
  <text x="306.638" y="78.638" class="image" id="image.4.1" width="235" height="225">image.4.1.307_542.79_305</text>
  <text x="306.638,309.902,311.792,315.236,319.238,321.794,325.13,326.906,327.496,331.048" y="320.569" svg_rhmargin="332.824" style="fill:#171615;font-family:PSSERP+CaeciliaLTStd-Bold;font-size:6.0px;font-style:NORMAL;font-weight:bold;">Figure  1.</text>
  <text y="320.569" svg_rhmargin="542.281" x="335.822,339.932,343.496,346.052,348.536,351.872,353.756,357.2,359.534,361.418,364.982,368.984,370.652,371.204,374.762,378.098,380.432,385.544,388.88,392.216,396.218,397.886,398.438,400.772,404.774,408.11,409.778,410.33,414.26,418.148,424.148,427.706,431.042,433.598,435.266,435.818,439.382,441.602,443.27,443.822,446.936,448.82,452.192,455.636,458.119,461.455,463.789,466.123,469.459,472.459,474.127,474.679,477.679,483.679,487.243,490.801,494.137,497.917,499.585,500.137,503.917,507.253,509.809,511.47700000000003,512.029,515.809,519.073,522.517,524.1850000000001,524.737,526.621,530.731,534.175,538.729,540.613" style="fill:#171615;font-family:IKGOXD+CaeciliaLTStd-Roman;font-size:6.0px;font-style:NORMAL;font-weight:normal;">Correlation between the number of cigarettes smoked per day (CPD) </text>
  <text x="306.638,310.082,314.084,317.864,319.706,322.04,326.042,329.378,331.22,334.226,338.228,340.112,343.676,346.232,350.012,352.495,356.059,362.059,365.503,368.725,370.609,374.611,377.947,379.789,383.125,386.905,390.793,392.605,395.977,399.421,401.305,404.641,408.643,410.977,413.977,415.819,417.703,421.813,425.257,429.145,431.587,434.923,438.703,440.371,442.255,444.097,447.661,449.881,451.723,455.167,457.501,460.945,464.725,466.609,469.723,473.167,475.051,476.893,480.337,484.339,486.673,488.557,492.337,495.337,498.781,501.787,505.789,509.353,511.687,513.571,516.685,519.685,521.527,523.411,529.411,532.747,534.967,538.747,540.631" y="329.569" svg_rhmargin="542.299" style="fill:#171615;font-family:IKGOXD+CaeciliaLTStd-Roman;font-size:6.0px;font-style:NORMAL;font-weight:normal;">and the chlorpromazine equivalents (CPZ-eq.) of atypical antipsychotics (mg/d) </text>
  <text x="306.638,308.522,312.524,314.192,317.972,321.416,323.75,325.634,328.97,332.972,335.306,338.306,339.974,345.194,347.078,349.412,353.414,355.082,358.082,361.087,365.089,366.973,370.195,373.759,377.539,381.541,384.025,387.361,391.363,393.247,396.691,398.359,400.243,403.801,407.689,409.573" y="338.569" svg_rhmargin="411.241" style="fill:#171615;font-family:IKGOXD+CaeciliaLTStd-Roman;font-size:6.0px;font-style:NORMAL;font-weight:normal;">in patients with schizophrenia (SZ).</text>
 </g>
</svg>
