<?xml version="1.0" encoding="UTF-8"?>
<svg height="784.642" width="617.276" xmlns="http://www.w3.org/2000/svg">
 <g style="fill:none;">
  <text x="54.638,58.85,62.464,65.714,69.328,71.258,74.873,78.487,82.582" y="733.944" svg_rhmargin="84.506" style="fill:#171615;font-family:PSSERP+CaeciliaLTStd-Bold;font-size:6.5px;font-style:NORMAL;font-weight:bold;">Received:</text>
  <text y="733.944" svg_rhmargin="141.114" x="86.313,88.282,92.013,96.271,100.483,104.214,106.905,110.636,112.443,116.057,119.671,121.237,123.044,126.658,130.272,133.886,137.5,139.307" style="fill:#171615;font-family:IKGOXD+CaeciliaLTStd-Roman;font-size:6.5px;font-style:NORMAL;font-weight:normal;">January 18, 2018; </text>
  <text x="141.114,145.326,148.784,152.515,154.563,157.936,161.55,165.645" y="733.944" svg_rhmargin="167.569" style="fill:#171615;font-family:PSSERP+CaeciliaLTStd-Bold;font-size:6.5px;font-style:NORMAL;font-weight:bold;">Revised:</text>
  <text y="733.944" svg_rhmargin="213.141" x="169.376,175.395,178.931,182.662,184.469,188.083,191.697,193.264,195.071,198.685,202.299,205.913,209.527,211.334" style="fill:#171615;font-family:IKGOXD+CaeciliaLTStd-Roman;font-size:6.5px;font-style:NORMAL;font-weight:normal;">May 13, 2018; </text>
  <text x="213.141,218.075,221.325,224.575,228.189,232.284,234.689,238.303,242.398" y="733.944" svg_rhmargin="244.322" style="fill:#171615;font-family:PSSERP+CaeciliaLTStd-Bold;font-size:6.5px;font-style:NORMAL;font-weight:bold;">Accepted:</text>
  <text y="733.944" svg_rhmargin="284.83" x="246.129,248.059,252.271,254.234,257.965,259.772,263.386,267.0,268.567,270.374,273.988,277.602,281.216" style="fill:#171615;font-family:IKGOXD+CaeciliaLTStd-Roman;font-size:6.5px;font-style:NORMAL;font-weight:normal;">July 10, 2018</text>
  <text svg_rhmargin="299.362" x="54.638,59.838,61.164,65.506,69.842,73.456,75.022,79.683,83.895,86.423,90.759,94.62,97.389,99.43,102.68,104.721,106.528,110.142,113.756,117.37,120.984,122.55,124.357,128.088,132.3,136.076,138.117,140.158,143.408,147.744,151.358,155.453,157.26,160.919,164.65,166.457,171.397,175.252,177.657,181.518,184.131,188.226,190.033,194.966,199.302,201.264,204.917,208.531,211.3,214.55,216.591,219.12,222.851,224.658,228.389,231.08,234.694,237.944,241.194,243.001,246.862,251.197,253.004,256.859,260.473,264.808,268.539,270.58,272.985,274.792,278.653,281.058,282.865,287.318,289.489,294.663,297.555,299.362" y="71.63999999999999" style="fill:#171615;font-family:GBNEFH+CaeciliaLTStd-Roman;font-size:6.5px;font-style:NORMAL;font-weight:normal;">© The Author(s) 2019. Published by Oxford University Press on behalf of CINP. </text>
  <path d="M54.638 719.693 L540.638 719.693 " style="fill:none;stroke:#171615;stroke-width:0.5;"/>
  <text x="306.638,309.158,313.75,316.566,320.27,323.526,328.118,332.566,335.382,337.606,341.606,346.198,350.646,352.87,355.094,357.469,361.469,366.213,369.469,374.061,378.509,380.733,382.957,386.957,389.621,391.845,397.917,401.621,406.365,409.477,413.477,417.925,421.629,425.925,429.141,433.733,437.733,442.181,446.773,451.221,454.477,461.437,465.885,469.293,473.293,475.517,479.517,483.716" y="71.63999999999999" svg_rhmargin="488.012" style="fill:#171615;font-family:GHCCVH+CaeciliaLTStd-Italic;font-size:8.0px;font-style:ITALIC;font-weight:normal;">International Journal of Neuropsychopharmacology</text>
  <text y="71.63999999999999" svg_rhmargin="559.884" x="490.236,492.748,497.196,501.644,506.092,510.54,513.052,515.276,519.724,524.172,526.684,531.132,533.644,535.868,538.092,542.54,546.988,550.988,555.436" style="fill:#171615;font-family:IKGOXD+CaeciliaLTStd-Roman;font-size:8.0px;font-style:NORMAL;font-weight:normal;">(2019) 22(1): 19–27</text>
  <text x="306.638,310.733,314.587,316.635,318.559,322.407,326.255,328.179,332.027,335.875,339.723,343.571,345.976,348.023,350.188,354.523,358.618,361.023,364.878,368.732,372.587,376.435,380.283" y="93.63999999999999" svg_rhmargin="384.131" style="fill:#171615;font-family:PSSERP+CaeciliaLTStd-Bold;font-size:6.5px;font-style:NORMAL;font-weight:bold;">doi:10.1093/ijnp/pyy061</text>
  <text x="306.638,311.454,315.432,319.085,322.816,327.152,330.525,334.139,335.706,340.522,343.896,347.27,350.884,354.134,357.384,359.191,362.922,367.134,370.909,372.95,374.991,378.365,382.096,384.624,386.665,390.526,394.862,396.669,398.476,402.33,405.866,409.961,412.49,416.104,422.604,426.458,430.072,432.841,434.648,438.262,441.876,443.444,445.251,448.865,452.479,456.093" y="103.14300000000003" svg_rhmargin="459.707" style="fill:#171615;font-family:IKGOXD+CaeciliaLTStd-Roman;font-size:6.5px;font-style:NORMAL;font-weight:normal;">Advance Access Publication: September 17, 2018</text>
  <text svg_rhmargin="383.936" x="306.638,310.85,314.347,317.961,322.173,324.214,327.945,330.714,332.521,336.733,340.347,343.597,347.211,350.942,353.594,356.851,361.186,362.753,367.569,370.338,372.867,374.908,378.281,380.322,383.936" y="766.0" style="fill:#171615;font-family:IKGOXD+CaeciliaLTStd-Roman;font-size:6.5px;font-style:NORMAL;font-weight:normal;">Regular Research Article </text>
  <text x="519.403,524.02" y="766.0" svg_rhmargin="528.638" style="fill:#171615;font-family:EEDQTL+CaeciliaLTStd-Heavy;font-size:7.8px;font-style:NORMAL;font-weight:bold;">19</text>
  <path d=" M 54.63800048828125 679.5130004882812 L 109.63899993896484 679.5130004882812 L 109.63899993896484 734.5130004882812 L 54.63800048828125 734.5130004882812 Z " style="fill:none;stroke:#000000;stroke-width:1.0;"/>
  <path d="M306.638 80.639 L607.276 80.639 M306.638 121.639 L607.276 121.639 " style="fill:none;stroke:#000000;stroke-width:1.0;"/>
  <path d=" M 98.33869934082031 692.0927734375 C 98.20870208740234 692.0927734375 98.04969787597656 692.0777587890625 97.90470123291016 692.0347900390625 L 97.90470123291016 687.5677490234375 C 97.90470123291016 686.80078125 98.20870208740234 686.61376953125 98.97470092773438 686.61376953125 C 100.53569793701172 686.61376953125 101.37470245361328 687.7847900390625 101.37470245361328 689.2587890625 C 101.37470245361328 691.0807495117188 100.07270050048828 692.0927734375 98.33869934082031 692.0927734375 M 101.7217025756836 687.3797607421875 C 101.0707015991211 686.7147827148438 100.11669921875 686.3247680664062 99.17769622802734 686.3247680664062 L 95.90969848632812 686.3097534179688 L 95.86669921875 686.3097534179688 L 95.85269927978516 686.3097534179688 L 95.83769989013672 686.3097534179688 C 95.76570129394531 686.2957763671875 95.64969635009766 686.3097534179688 95.57769775390625 686.3097534179688 C 94.79669952392578 686.3247680664062 94.4926986694336 686.3677978515625 93.814697265625 686.7877807617188 C 92.65670013427734 687.509765625 92.1366958618164 688.3197631835938 91.31269836425781 689.4037475585938 C 91.97869873046875 689.4037475585938 92.93270111083984 690.0247802734375 92.93270111083984 690.748779296875 C 92.93270111083984 691.7317504882812 91.94869995117188 692.0927734375 91.12470245361328 692.0927734375 L 91.11070251464844 692.0927734375 C 91.095703125 690.5897827148438 91.06770324707031 689.0997924804688 91.06770324707031 687.5957641601562 C 91.06770324707031 686.6717529296875 91.37069702148438 686.7007446289062 92.25270080566406 686.5847778320312 L 92.25270080566406 686.3097534179688 L 89.99669647216797 686.3097534179688 C 90.01170349121094 687.884765625 90.05570220947266 689.44677734375 90.05570220947266 691.0077514648438 C 90.05570220947266 691.23974609375 90.05570220947266 691.831787109375 89.85269927978516 692.0057983398438 C 89.72270202636719 692.1217651367188 89.43370056152344 692.1067504882812 89.26069641113281 692.1067504882812 L 89.26069641113281 692.3667602539062 C 90.04069519042969 692.3817749023438 90.80670166015625 692.4107666015625 91.57270050048828 692.4107666015625 C 92.54170227050781 692.4107666015625 94.08869934082031 692.2367553710938 94.08869934082031 690.9507446289062 C 94.08869934082031 690.0968017578125 93.3656997680664 689.5337524414062 92.59970092773438 689.3167724609375 C 93.14969635009766 688.666748046875 94.88369750976562 686.5847778320312 95.80870056152344 686.5847778320312 C 96.6906967163086 686.5847778320312 96.93669891357422 686.9607543945312 96.93669891357422 687.812744140625 L 96.93669891357422 690.8787841796875 C 96.93669891357422 691.8037719726562 96.77770233154297 692.0057983398438 95.83769989013672 692.1507568359375 L 95.83769989013672 692.352783203125 L 95.83769989013672 692.3817749023438 C 96.67669677734375 692.395751953125 97.51470184326172 692.4107666015625 98.35369873046875 692.4107666015625 C 100.44869995117188 692.4107666015625 102.58869934082031 691.8468017578125 102.58869934082031 689.3598022460938 C 102.58869934082031 688.6087646484375 102.25669860839844 687.914794921875 101.7217025756836 687.3797607421875 M 86.96170043945312 691.2247924804688 C 86.54170227050781 691.8757934570312 85.93569946289062 692.3097534179688 85.14070129394531 692.3097534179688 C 83.52169799804688 692.3097534179688 83.00070190429688 690.8347778320312 83.00070190429688 689.4617919921875 C 83.00070190429688 688.7967529296875 83.1156997680664 688.0447998046875 83.47769927978516 687.4807739257812 C 83.89669799804688 686.8447875976562 84.53269958496094 686.4117431640625 85.3136978149414 686.4117431640625 C 86.97570037841797 686.4117431640625 87.42369842529297 687.884765625 87.42369842529297 689.2877807617188 C 87.42369842529297 689.937744140625 87.30870056152344 690.67578125 86.96170043945312 691.2247924804688 M 85.19770050048828 686.0927734375 C 83.24569702148438 686.0927734375 81.78569793701172 687.3797607421875 81.78569793701172 689.374755859375 C 81.78569793701172 691.3697509765625 83.27469635009766 692.6277465820312 85.21269989013672 692.6277465820312 C 87.20669555664062 692.6277465820312 88.63870239257812 691.3557739257812 88.63870239257812 689.3167724609375 C 88.63870239257812 687.3507690429688 87.10669708251953 686.0927734375 85.19770050048828 686.0927734375 M 81.00569915771484 691.0517578125 C 80.87570190429688 692.1067504882812 79.90670013427734 692.0637817382812 79.08270263671875 692.0637817382812 L 78.53269958496094 692.0637817382812 L 78.53269958496094 689.7207641601562 L 79.1697006225586 689.7207641601562 C 79.54570007324219 689.7207641601562 79.92169952392578 689.7207641601562 80.28269958496094 689.77978515625 L 80.28269958496094 688.2757568359375 L 80.10969543457031 688.2757568359375 L 80.06669616699219 688.2757568359375 C 80.00769805908203 689.4187622070312 79.50170135498047 689.2297973632812 78.53269958496094 689.2297973632812 L 78.53269958496094 687.7407836914062 C 78.53269958496094 686.6717529296875 78.6636962890625 686.728759765625 79.6906967163086 686.541748046875 L 79.6906967163086 686.352783203125 L 79.6906967163086 686.3097534179688 L 73.67569732666016 686.3097534179688 L 72.0427017211914 688.8687744140625 C 71.78269958496094 688.5497436523438 70.92970275878906 687.393798828125 70.92970275878906 687.0327758789062 C 70.92970275878906 686.7147827148438 71.37770080566406 686.61376953125 71.60870361328125 686.5267944335938 L 71.59469604492188 686.3097534179688 L 68.90570068359375 686.3097534179688 L 68.90570068359375 686.541748046875 L 68.90570068359375 686.5847778320312 C 70.00469970703125 686.6427612304688 70.32170104980469 687.0767822265625 70.89970397949219 687.9287719726562 L 71.79669952392578 689.2007446289062 L 70.82769775390625 690.8057861328125 C 70.39469909667969 691.5137939453125 69.84469604492188 692.1217651367188 68.96369934082031 692.1358032226562 L 68.96369934082031 692.3667602539062 L 68.96369934082031 692.4107666015625 L 71.00170135498047 692.4107666015625 L 72.50569915771484 690.082763671875 C 72.72169494628906 690.415771484375 73.41569519042969 691.4127807617188 73.41569519042969 691.7747802734375 C 73.41569519042969 692.0927734375 72.9967041015625 692.1067504882812 72.76570129394531 692.1507568359375 L 72.76570129394531 692.4107666015625 L 75.35369873046875 692.4107666015625 L 75.35369873046875 692.1787719726562 L 75.35369873046875 692.1507568359375 C 74.31269836425781 692.0777587890625 73.92169952392578 691.6297607421875 73.37269592285156 690.8057861328125 C 73.15570068359375 690.4597778320312 72.9386978149414 690.1267700195312 72.70770263671875 689.77978515625 L 73.97969818115234 687.7987670898438 C 74.36969757080078 687.1917724609375 74.84669494628906 686.5847778320312 75.6427001953125 686.5847778320312 C 76.55270385742188 686.5847778320312 77.50669860839844 686.6427612304688 77.50669860839844 687.769775390625 L 77.50669860839844 691.0657958984375 C 77.50669860839844 691.94775390625 77.31869506835938 692.0637817382812 76.43769836425781 692.1937866210938 L 76.43769836425781 692.3817749023438 L 76.43769836425781 692.4247436523438 L 81.16470336914062 692.4247436523438 L 81.26570129394531 691.0517578125 Z M 66.92469787597656 691.2247924804688 C 66.50569915771484 691.8757934570312 65.89869689941406 692.3097534179688 65.1176986694336 692.3097534179688 C 63.48469924926758 692.3097534179688 62.96369934082031 690.8487548828125 62.96369934082031 689.4617919921875 C 62.96369934082031 688.7967529296875 63.0797004699707 688.0447998046875 63.4556999206543 687.4807739257812 C 63.874698638916016 686.8598022460938 64.51069641113281 686.4247436523438 65.27769470214844 686.4247436523438 C 66.95369720458984 686.4247436523438 67.3876953125 687.8997802734375 67.3876953125 689.2877807617188 C 67.3876953125 689.937744140625 67.27169799804688 690.67578125 66.92469787597656 691.2247924804688 M 65.17570495605469 686.0927734375 C 63.20969772338867 686.0927734375 61.749698638916016 687.3797607421875 61.749698638916016 689.3887939453125 C 61.749698638916016 691.3837890625 63.23870086669922 692.6277465820312 65.17570495605469 692.6277465820312 C 67.17070007324219 692.6277465820312 68.60169982910156 691.3697509765625 68.60169982910156 689.331787109375 C 68.60169982910156 687.3507690429688 67.08370208740234 686.0927734375 65.17570495605469 686.0927734375" style="fill:none;stroke:#000000;stroke-width:1.0;"/>
  <text x="54.638,58.98,63.316,65.357,68.607,70.414,72.455,75.705,77.512,81.243,85.578,87.385,92.325,96.42,100.034,104.37,105.936,110.753,114.126,117.5,121.114,124.364,127.614,129.421,133.152,135.921,138.449,140.49,143.864,145.905,149.519,151.326,155.421,157.462,160.712,163.24,166.009,168.05,171.905,176.117,178.645,182.259,186.354,188.161,192.373,196.709,200.804,204.418,207.187,208.994,211.522,215.858,219.472,221.279,223.807,227.421,230.19,236.69,239.94,241.747,245.608,248.013,249.82,252.349,256.684,260.298,262.105,266.558,269.249,272.863,276.594,279.122,281.085,284.738,288.352,290.159,294.612,298.473,304.973,311.473,315.334,319.669,322.919,324.486,329.302,331.831,334.359,337.129,339.169,343.024,347.236,349.764,351.805,355.666,360.002,361.809,366.983,370.844,375.18,377.825,382.278,386.139,392.639,399.139,402.753,405.405,408.778,410.819,414.55,416.591,418.398,422.012,424.053,427.427,431.041,435.376,438.626,442.24,444.047,446.088,450.424,452.952,455.481,459.576,461.383,463.788" y="755.636" svg_rhmargin="466.193" style="fill:#171615;font-family:VIDQHD+CaeciliaLTStd-Roman;font-size:6.5px;font-style:NORMAL;font-weight:normal;">This is an Open Access article distributed under the terms of the Creative Commons Attribution Non-Commercial License (http://</text>
  <text x="54.638,58.012,60.703,64.317,68.048,70.576,72.539,76.192,79.806,83.18,87.041,93.541,100.041,103.902,108.237,111.487,113.294,117.155,119.768,123.382,125.787,127.828,129.869,133.242,136.856,141.192,144.442,148.056,151.306,153.711,157.37,161.101,163.747,168.082,171.456,173.861,177.475,179.282,182.896,185.301,187.342,188.908,190.715,196.37,200.706,202.747,206.003,210.339,212.146,216.241,219.855,222.624,229.124,231.165,233.693,236.943,238.75,243.086,246.947,251.282,253.928,257.301,261.162,267.662,274.162,277.776,280.428,283.802,285.843,289.574,291.615,293.422,296.113,299.727,302.372,306.584,309.834,313.331,314.898,316.705,320.8,322.841,326.091,328.619,331.388,333.429,337.284,341.496,344.024,346.065,349.926,354.262,355.828,357.635,361.366,365.702,369.797,371.604,374.295,377.831,381.926,384.617,388.478,392.573,396.785,400.158,402.687,404.728,408.589,412.924,414.731,416.772,421.108,422.915,426.646,430.786,434.517,436.324,442.824,446.438,450.533,452.574,456.786,463.286,464.853" y="765.139" svg_rhmargin="466.66" style="fill:#171615;font-family:VIDQHD+CaeciliaLTStd-Roman;font-size:6.5px;font-style:NORMAL;font-weight:normal;">creativecommons.org/licenses/by-nc/4.0/), which permits non-commercial re-use, distribution, and reproduction in any medium, </text>
  <text x="54.638,58.733,61.424,65.129,68.86,70.901,74.996,78.61,82.705,84.512,87.041,91.376,94.99,96.797,100.658,103.427,105.468,109.16,111.201,115.537,119.268,121.309,123.116,128.654,132.515,135.284,139.138,140.945,142.986,146.236,148.043,152.138,154.829,158.69,162.785,166.399,169.168,171.131,174.862,176.669,180.042,182.083,184.612,188.226,192.321,193.887,195.694,199.113,202.974,205.743,207.55,210.924,214.785,221.285,227.785,231.399,234.051,237.424,239.465,243.196,245.237,247.044,249.735,253.349,255.995,260.207,263.457,266.954,268.521,270.328,274.423,276.464,280.078,283.809,287.059,290.673,292.48,295.853,299.714,304.05,306.578,310.309,313.683,316.211,318.018,320.059,323.92,328.132,330.901,335.237,338.968,341.009,344.259,346.066,350.161,353.775,356.544,363.044,365.085,368.335,371.585,373.626,377.487,381.822,385.072,390.272,394.133,398.345,402.284,404.091,407.465,411.326" y="774.642" svg_rhmargin="417.826" style="fill:#171615;font-family:VIDQHD+CaeciliaLTStd-Roman;font-size:6.5px;font-style:NORMAL;font-weight:normal;">provided the original work is properly cited. For commercial re-use, please contact journals.permissions@oup.com</text>
  <text x="54.638,62.856,70.822,80.09,89.862,97.296,106.55,114.768,119.36,127.578,135.544,143.244,151.21,160.464,168.682,177.166,187.204,191.796,201.05,209.268,217.738,222.848,231.332,238.766" y="184.404" svg_rhmargin="246.032" style="fill:#171615;font-family:IKGOXD+CaeciliaLTStd-Roman;font-size:14.0px;font-style:NORMAL;font-weight:normal;">regular research article</text>
  <path d="M98.338 107.907 C98.208 107.907 98.049 107.922 97.904 107.965 L97.904 112.432 C97.904 113.199 98.208 113.386 98.974 113.386 C100.535 113.386 101.374 112.215 101.374 110.741 C101.374 108.919 100.072 107.907 98.338 107.907 M101.721 112.62 C101.07 113.285 100.116 113.675 99.177 113.675 L95.909 113.69 L95.866 113.69 L95.852 113.69 L95.837 113.69 C95.765 113.704 95.649 113.69 95.577 113.69 C94.796 113.675 94.492 113.632 93.814 113.212 C92.656 112.49 92.136 111.68 91.312 110.596 C91.978 110.596 92.932 109.975 92.932 109.251 C92.932 108.268 91.948 107.907 91.124 107.907 L91.11 107.907 C91.095 109.41 91.067 110.9 91.067 112.404 C91.067 113.328 91.37 113.299 92.252 113.415 L92.252 113.69 L89.996 113.69 C90.011 112.115 90.055 110.553 90.055 108.992 C90.055 108.76 90.055 108.168 89.852 107.994 C89.722 107.878 89.433 107.893 89.26 107.893 L89.26 107.633 C90.04 107.618 90.806 107.589 91.572 107.589 C92.541 107.589 94.088 107.763 94.088 109.049 C94.088 109.903 93.365 110.466 92.599 110.683 C93.149 111.333 94.883 113.415 95.808 113.415 C96.69 113.415 96.936 113.039 96.936 112.187 L96.936 109.121 C96.936 108.196 96.777 107.994 95.837 107.849 L95.837 107.647 L95.837 107.618 C96.676 107.604 97.514 107.589 98.353 107.589 C100.448 107.589 102.588 108.153 102.588 110.64 C102.588 111.391 102.256 112.085 101.721 112.62 M86.961 108.775 C86.541 108.124 85.935 107.69 85.14 107.69 C83.521 107.69 83.0 109.165 83.0 110.538 C83.0 111.203 83.115 111.955 83.477 112.519 C83.896 113.155 84.532 113.588 85.313 113.588 C86.975 113.588 87.423 112.115 87.423 110.712 C87.423 110.062 87.308 109.324 86.961 108.775 M85.197 113.907 C83.245 113.907 81.785 112.62 81.785 110.625 C81.785 108.63 83.274 107.372 85.212 107.372 C87.206 107.372 88.638 108.644 88.638 110.683 C88.638 112.649 87.106 113.907 85.197 113.907 M81.005 108.948 C80.875 107.893 79.906 107.936 79.082 107.936 L78.532 107.936 L78.532 110.279 L79.169 110.279 C79.545 110.279 79.921 110.279 80.282 110.22 L80.282 111.724 L80.109 111.724 L80.066 111.724 C80.007 110.581 79.501 110.77 78.532 110.77 L78.532 112.259 C78.532 113.328 78.663 113.271 79.69 113.458 L79.69 113.647 L79.69 113.69 L73.675 113.69 L72.042 111.131 C71.782 111.45 70.929 112.606 70.929 112.967 C70.929 113.285 71.377 113.386 71.608 113.473 L71.594 113.69 L68.905 113.69 L68.905 113.458 L68.905 113.415 C70.004 113.357 70.321 112.923 70.899 112.071 L71.796 110.799 L70.827 109.194 C70.394 108.486 69.844 107.878 68.963 107.864 L68.963 107.633 L68.963 107.589 L71.001 107.589 L72.505 109.917 C72.721 109.584 73.415 108.587 73.415 108.225 C73.415 107.907 72.996 107.893 72.765 107.849 L72.765 107.589 L75.353 107.589 L75.353 107.821 L75.353 107.849 C74.312 107.922 73.921 108.37 73.372 109.194 C73.155 109.54 72.938 109.873 72.707 110.22 L73.979 112.201 C74.369 112.808 74.846 113.415 75.642 113.415 C76.552 113.415 77.506 113.357 77.506 112.23 L77.506 108.934 C77.506 108.052 77.318 107.936 76.437 107.806 L76.437 107.618 L76.437 107.575 L81.164 107.575 L81.265 108.948 M66.924 108.775 C66.505 108.124 65.898 107.69 65.117 107.69 C63.484 107.69 62.963 109.151 62.963 110.538 C62.963 111.203 63.079 111.955 63.455 112.519 C63.874 113.14 64.51 113.575 65.277 113.575 C66.953 113.575 67.387 112.1 67.387 110.712 C67.387 110.062 67.271 109.324 66.924 108.775 M65.175 113.907 C63.209 113.907 61.749 112.62 61.749 110.611 C61.749 108.616 63.238 107.372 65.175 107.372 C67.17 107.372 68.601 108.63 68.601 110.668 C68.601 112.649 67.083 113.907 65.175 113.907 " style="fill:none;stroke:#171615;stroke-width:0.5;"/>
  <text x="54.638,65.636,83.636,94.31,105.308,110.978,122.984,133.316,138.644,150.308,160.549,167.209,177.217,186.559,191.887,202.561,214.567,225.907,231.235,245.563,257.569,275.569,286.567,296.575,304.243,309.571,320.245,326.581,331.909,344.239,349.909,360.241,370.915,378.583,388.591,395.251,401.911,411.919,421.261,426.589,437.587,455.587,466.261,476.931,486.939,498.279" y="210.404" svg_rhmargin="503.607" style="fill:#171615;font-family:PSSERP+CaeciliaLTStd-Bold;font-size:18.0px;font-style:NORMAL;font-weight:bold;">Smoking Rates and Number of Cigarettes Smoked </text>
  <text x="54.638,65.978,75.986,83.654,88.982,102.986,113.12,123.794,129.122,134.792,146.798,152.126,163.124,171.799,183.805,189.475,199.141,209.815,221.155,233.161,240.829,250.837,262.843,268.513,279.187,284.515,289.175,302.837,308.165,318.839,329.513,337.181,347.513,357.521,362.849,375.179,385.853,397.859,408.533,416.201,422.861,428.189,445.181,455.189,461.849,472.523" y="237.404" svg_rhmargin="479.849" style="fill:#171615;font-family:PSSERP+CaeciliaLTStd-Bold;font-size:18.0px;font-style:NORMAL;font-weight:bold;">per Day in Schizophrenia: A Large Cohort Meta-</text>
  <text x="54.638,68.3,80.306,90.98,96.218,106.892,116.234,121.904,131.246,136.574,142.244,154.25,159.578,170.252,175.58,181.357,192.031,203.371,214.045,226.051,236.059,245.401,255.409,260.737,270.869,281.543,292.883,304.889,310.559,320.801,327.461,333.131,343.805" y="264.404" svg_rhmargin="355.811" style="fill:#171615;font-family:PSSERP+CaeciliaLTStd-Bold;font-size:18.0px;font-style:NORMAL;font-weight:bold;">Analysis in a Japanese Population</text>
  <text x="54.638,63.79,71.252,78.233,86.657,91.714,99.176,106.885,114.347,117.961,127.841,136.512,140.594,143.726,146.378,153.866,161.328,169.037,176.499,189.499,193.581,198.638,205.138,213.562,217.176,224.885,233.556,237.638,250.638,258.1,266.29,273.752,276.884,280.018,289.651,297.36,301.442,305.056,313.726,322.15,333.304,340.766,345.823,353.285,356.418,359.07,367.26,375.684,382.665,391.089,396.627,405.051,408.665,417.817,425.279,430.336,437.798,445.52,453.229,460.691,463.825" y="290.404" svg_rhmargin="467.439" style="fill:#171615;font-family:IKGOXD+CaeciliaLTStd-Roman;font-size:13.0px;font-style:NORMAL;font-weight:normal;">Kazutaka Ohi, Takamitsu Shimada, Aki Kuwata, Yuzuru Kataoka, </text>
  <text x="54.638,64.752,68.834,74.216,81.938,89.4,97.109,101.191,104.805,114.685,122.394,130.818,138.527,145.936,149.069,152.684,161.445,169.167,177.838,185.066,189.148,192.762,201.914,205.996,218.84,227.264,232.568,240.03,243.163,245.815,253.057,260.779,267.279,275.95,280.032,287.741,291.823,295.437,303.626,311.088,317.588,326.012,333.24,340.702,353.702,361.164,364.297,366.949,374.437,381.899,389.608,397.07,403.57,412.241,416.323,419.937,429.804,437.032,445.703,453.165,458.469,465.931,469.064" y="308.409" svg_rhmargin="472.678" style="fill:#171615;font-family:IKGOXD+CaeciliaLTStd-Roman;font-size:13.0px;font-style:NORMAL;font-weight:normal;">Hiroaki Okubo, Kohei Kimura, Toshiki Yasuyama, Takashi Uehara, </text>
  <text x="54.638,62.828,70.29,76.79,85.214,93.885,97.967,103.349,111.071,114.685,123.837,130.908,142.062,149.524,156.024,163.486,171.195" y="326.414" svg_rhmargin="175.277" style="fill:#171615;font-family:IKGOXD+CaeciliaLTStd-Roman;font-size:13.0px;font-style:NORMAL;font-weight:normal;">Yasuhiro Kawasaki</text>
  <text x="54.638,61.469,66.365,72.035,77.201,81.035,84.536,93.536,98.54,104.543,108.044,110.546,115.892,119.222,121.724,128.888,133.892,139.724,143.449,148.795,154.465,158.965,164.131,168.64,174.643,177.469,182.635,186.137,189.863,194.201,196.37,198.872,205.208,210.374,216.377,221.543,226.376,231.271,238.993,244.159,246.661,254.995,259.999,265.669,268.495,273.166,278.332,281.158,283.66,290.491,296.494,299.212,304.27,309.274,313.108,317.608,320.434,323.935,328.273,330.442,332.944,335.95,340.45,346.453,349.279,354.616,359.512,367.234,372.4,374.569,377.071,379.798,384.964,390.634,395.8,401.803,404.305,407.131,413.962,417.796,422.296,424.798,431.638,437.641,440.467,442.636,445.138,450.475,456.478,459.304,468.304,473.47,479.14,484.306,486.475,488.977,494.98,500.812,508.534,513.7,517.201,522.367,524.536" y="347.404" svg_rhmargin="527.038" style="fill:#171615;font-family:IKGOXD+CaeciliaLTStd-Roman;font-size:9.0px;font-style:NORMAL;font-weight:normal;">Department of Neuropsychiatry, Kanazawa Medical University, Ishikawa, Japan (Drs Ohi, Shimada, Kuwata, </text>
  <text x="54.638,60.974,66.14,69.641,74.807,80.153,85.49,90.656,92.825,95.327,102.167,107.504,113.336,118.673,123.802,125.971,128.473,134.809,137.635,146.527,152.359,156.031,161.197,163.366,165.202,170.872,176.038,180.538,186.37,191.374,196.54,205.54,210.706,212.875,215.377,222.208,227.212,233.215,238.381,242.053,247.219,249.388,251.89,257.056,263.059,268.729,271.232,277.568,282.463,290.185,295.351,299.851,305.017,310.354,313.18,316.006,318.508,321.01,329.344,334.348,340.018,342.844,347.515,352.681,355.507,358.009,363.841,368.845,373.345,378.349,383.515,387.187,391.696,397.699,400.201,403.207,409.21,413.71,417.211,420.037,423.538,429.37,432.871,437.713,439.882,442.384,448.72,453.886,459.889,465.055,469.888,474.784,482.506,487.672,490.174,498.508,503.512,509.182,512.008,516.679,521.845,524.671" y="360.4" svg_rhmargin="527.173" style="fill:#171615;font-family:IKGOXD+CaeciliaLTStd-Roman;font-size:9.0px;font-style:NORMAL;font-weight:normal;">Kataoka, Okubo, Kimura, Yasuyama, Uehara, and Kawasaki); Medical Research Institute, Kanazawa Medical </text>
  <text x="54.638,61.469,67.472,70.19,75.248,80.252,84.086,88.586,91.412,94.913,99.25,101.42,103.922,106.928,111.428,117.431,120.257,125.594,130.489,138.211,143.377,145.546,148.048,150.775,155.941,161.611,166.777,172.78,175.282,178.108,184.939,188.773,191.275,198.115,204.118,206.944,209.77" y="373.396" svg_rhmargin="212.272" style="fill:#171615;font-family:IKGOXD+CaeciliaLTStd-Roman;font-size:9.0px;font-style:NORMAL;font-weight:normal;">University, Ishikawa, Japan (Dr Ohi).</text>
  <text x="54.638,59.091,62.952,65.721,68.412,72.026,75.276,79.371,83.232,87.567,91.662,95.276,99.612,102.985,106.599,108.406,110.213,114.789,118.52,122.011,126.223,128.751,132.482,136.337,140.068,141.875,146.815,151.15,153.191,154.758,156.565,162.584,167.225,168.791,170.598,174.329,178.665,183.306,184.872,186.679,191.613,195.149,199.244,202.975,205.744,208.272,214.772,218.386,222.722,225.25,227.057,230.918,233.323,235.13,240.304,243.918,248.13,250.821,254.682,258.777,262.027,265.758,269.015,273.35,275.391,279.122,281.651,284.342,287.475,289.041,290.848,295.424,299.155,303.491,307.222,310.712,314.248,319.825,323.556,325.363,331.382,334.996,339.091,341.132,344.506,348.237,350.278,352.085,357.018,361.354,363.316,366.97,370.584,373.353,376.603,378.644,381.172,384.305,385.872,387.679,391.293,393.938,397.552,399.359,404.293,408.024,410.065,413.718,417.449,421.303,425.515,427.082,428.889,433.822,437.079,441.414,443.455,447.791,451.522,455.617,459.348,460.914,462.721,464.892,468.142,472.478,474.519,478.373,481.909,487.486,491.217,492.784,494.591,498.205,501.819,505.433,508.078,511.692,515.306,518.92,522.534,524.101" y="388.904" svg_rhmargin="525.908" style="fill:#171615;font-family:IKGOXD+CaeciliaLTStd-Roman;font-size:6.5px;font-style:NORMAL;font-weight:normal;">Correspondence: Kazutaka Ohi, MD, PhD, Department of Neuropsychiatry, Kanazawa Medical University, 1-1 Daigaku, Uchinada, Ishikawa, 920-0293, </text>
  <text x="54.638,56.608,60.339,64.434,68.165,72.5,74.307,76.348,80.209,84.545,86.586,91.786,95.64,99.371,103.707,107.438,110.928,114.464,120.041,123.772,126.417,132.917,136.531,140.626,142.433,146.164,149.538,151.345,153.386,157.481,159.522" y="398.407" svg_rhmargin="161.329" style="fill:#171615;font-family:IKGOXD+CaeciliaLTStd-Roman;font-size:6.5px;font-style:NORMAL;font-weight:normal;">Japan (ohi@kanazawa-med.ac.jp).</text>
  <text x="54.638,62.418,68.528,73.898,77.598,81.678,87.608,92.608" y="440.404" svg_rhmargin="96.308" style="fill:#171615;font-family:EEDQTL+CaeciliaLTStd-Heavy;font-size:10.0px;font-style:NORMAL;font-weight:bold;">Abstract</text>
  <text x="54.638,59.678,64.422,68.278,73.166,77.758,81.07,85.814,91.15,96.486,101.526" y="456.404" svg_rhmargin="103.894" style="fill:#171615;font-family:PSSERP+CaeciliaLTStd-Bold;font-size:8.0px;font-style:NORMAL;font-weight:bold;">Background:</text>
  <text y="456.404" svg_rhmargin="542.838" x="106.942,112.422,114.934,119.43,124.022,127.334,131.782,134.894,138.006,142.454,144.678,145.502,149.502,157.502,162.254,166.998,169.51,174.846,179.294,181.518,182.342,184.854,188.854,191.078,191.902,196.054,200.806,206.142,210.142,212.654,216.654,219.766,224.214,229.55,232.662,235.078,239.67,241.89399999999998,242.718,250.718,255.47,258.782,263.23,265.454,266.278,270.43,275.182,283.182,291.182,295.934,301.27,303.49399999999997,304.318,308.91,316.91,321.662,326.998,331.446,333.67,334.494,338.494,342.502,347.838,350.35,354.646,359.398,364.438,369.774,373.086,377.534,382.87,385.382,389.974,392.198,393.022,398.062,402.654,405.766,408.278,412.726,418.062,421.174,425.174,427.39799999999997,428.222,431.334,436.67,441.262,446.598,448.822,449.646,452.758,458.094,462.542,464.76599999999996,465.59,470.134,474.582,479.918,484.366,487.63,492.222,494.734,496.95799999999997,497.782,502.822,507.574,512.614,517.798,520.31,524.902,528.014,530.526,535.278,540.614" style="fill:#171615;font-family:IKGOXD+CaeciliaLTStd-Roman;font-size:8.0px;font-style:NORMAL;font-weight:normal;">Cigarette smoking is consistently more common among schizophrenia patients than the general population </text>
  <text x="54.638,61.454,66.206,69.614,72.126,76.926,83.886,86.398,91.438,95.886,98.11,100.334,101.07,106.406,110.966,117.782,121.99,126.486,130.934,133.902,135.83,138.054,138.79,141.902,147.238,151.686,153.91,154.646,159.686,165.022,170.062,172.574,177.91,182.358,186.358,188.582,189.318,194.07,197.03,199.254,199.99,203.99,207.102,212.286,217.326,219.838,224.286,228.286,230.51,231.246,233.758,239.094,241.31799999999998,242.054,244.478,249.07,254.11,258.702,264.038,266.262,266.998,271.59,274.902,279.35,281.574,282.31,284.822,290.158,294.31,299.062,304.398,308.398,310.91,314.91,318.022,322.47,327.806,330.918,332.846,335.07,335.806,340.99,345.438,349.59,354.038,359.374,362.486,364.901,368.757,370.685,372.909,373.645,376.757,382.093,386.541,388.765,389.501,393.501,401.501,406.253,410.997,413.509,418.845,423.293,425.517,426.253,429.517,434.109,437.221,441.669,443.893,444.629,449.965,454.557,458.557,460.781,461.517,465.965,469.229,473.821,478.861,484.045,488.637,491.149,493.564,498.156,500.38,501.116,506.156,510.604,514.756,518.068,522.516,527.108,531.108,535.556,540.596" y="467.404" svg_rhmargin="542.82" style="fill:#171615;font-family:IKGOXD+CaeciliaLTStd-Roman;font-size:8.0px;font-style:NORMAL;font-weight:normal;">worldwide; however, the findings of studies in Japan are inconsistent. Recently, the smoking rate has gradually decreased </text>
  <text x="54.638,59.23,67.23,71.982,77.318,81.766,83.99,87.102,92.438,96.886,99.11,103.654,108.102,113.438,117.886,121.15,125.742,128.254,130.478,135.518,140.27,145.31,150.494,153.006,157.598,160.71,163.222,167.974,173.31" y="478.404" svg_rhmargin="175.534" style="fill:#171615;font-family:IKGOXD+CaeciliaLTStd-Roman;font-size:8.0px;font-style:NORMAL;font-weight:normal;">among the general population.</text>
  <text x="54.638,62.19,66.638,69.598,74.934,79.678,84.718,88.87" y="489.404" svg_rhmargin="91.238" style="fill:#171615;font-family:PSSERP+CaeciliaLTStd-Bold;font-size:8.0px;font-style:NORMAL;font-weight:bold;">Methods:</text>
  <text y="489.404" svg_rhmargin="542.848" x="93.056,101.056,105.504,107.76,112.8,117.248,120.656,123.616,128.368,131.776,139.776,144.224,149.264,151.52,156.112,158.368,166.368,170.816,173.928,178.52,181.776,186.368,191.704,196.296,198.712,203.304,207.304,209.816,213.816,216.072,220.824,223.784,226.04,230.04,238.04,242.792,247.536,250.048,255.384,259.832,262.088,266.088,269.2,273.792,276.904,282.088,286.088,288.344,290.856,296.192,298.448,303.04,305.296,307.808,312.4,315.616,320.16,324.608,326.864,329.288,333.88,338.92,343.512,348.848,353.296,357.296,361.744,364.0,368.152,372.904,378.24,382.992,386.4,389.512,391.768,396.52,399.48,401.736,404.248,408.696,411.208,413.464,417.912,422.36,426.808,431.256,433.512,437.512,441.521,446.857,449.369,453.665,458.417,463.457,468.793,472.104,476.552,481.888,484.4,488.992,491.248,496.288,500.88,503.992,506.504,510.952,516.288,519.4,523.4,525.656,530.248,535.584,540.624" style="fill:#171615;font-family:IKGOXD+CaeciliaLTStd-Roman;font-size:8.0px;font-style:NORMAL;font-weight:normal;">We performed a meta-analysis of smoking status in a large Japanese cohort of (1) 1845 schizophrenia patients and </text>
  <text x="54.638,59.086,63.534,67.982,68.982,73.43,77.878,82.326,84.438,88.982,93.43,98.766,103.214,106.478,111.07,113.582,115.694,120.734,125.486,130.526,135.71,138.222,142.814,145.926,148.438,153.19,158.526,160.638,165.23,170.566,175.606,177.718,180.23,184.678,187.19,189.302,193.75,198.198,202.646,204.758,208.758,212.766,218.102,220.614,224.91,229.662,234.702,240.038,243.35,247.798,253.134,255.646,260.238,262.35,267.39,271.982,275.094,277.606,282.054,287.39,290.502,294.502,296.614,301.206,306.542,311.582,313.694,318.142,322.59,327.038,329.15,334.19,338.19,342.782,346.79,352.126,354.638,359.23,362.342,365.75,368.262,372.414,377.006,379.518,381.934,386.526,388.638,393.974,398.422,403.014,405.526,408.638,413.733,418.325,420.437,424.589,429.341,434.677,437.789,441.101,445.853,448.365,452.365,454.477,457.437,460.749,465.501,473.501,475.613,480.061,484.509,486.621,490.621,493.733,498.917,503.957,506.469,510.917,514.917,517.029,521.589,526.085,530.533,533.941,536.053,540.645" y="500.404" svg_rhmargin="542.869" style="fill:#171615;font-family:IKGOXD+CaeciliaLTStd-Roman;font-size:8.0px;font-style:NORMAL;font-weight:normal;">196 845 general population and (2) 842 schizophrenia patients and 766 psychiatrically healthy controls from 12 studies over a </text>
  <text x="54.638,59.086,63.534,66.79,71.238,75.686,80.278,83.686,85.91,90.95,95.398,98.806,101.318,106.07,111.11,113.038,115.262,117.774,123.11,127.262,129.774,134.958,139.998,142.51,147.846,152.294,154.518,158.966,163.414,167.862,170.086,175.126,179.718,182.83,185.342,189.79,195.126,198.238,202.238,204.462,209.054,214.39,219.43,221.654,226.102,230.55,234.998,237.222,241.374,246.126,251.462,254.574,257.885,262.637,265.149,269.149,271.373,274.333,277.645,282.397,290.397,292.621,297.373,302.557,305.965,308.189,312.189,315.301,320.485,325.333,329.189" y="511.404" svg_rhmargin="331.413" style="fill:#171615;font-family:IKGOXD+CaeciliaLTStd-Roman;font-size:8.0px;font-style:NORMAL;font-weight:normal;">25-year period, including 301 patients and 131 controls from our study.</text>
  <text x="54.638,59.822,64.27,68.422,73.758,76.278,79.238,83.39" y="522.404" svg_rhmargin="85.758" style="fill:#171615;font-family:PSSERP+CaeciliaLTStd-Bold;font-size:8.0px;font-style:NORMAL;font-weight:bold;">Results:</text>
  <text y="522.404" svg_rhmargin="542.893" x="88.75,91.422,96.758,98.982,99.75,104.502,109.686,113.094,115.318,116.086,120.238,124.83,128.83,133.278,136.534,140.686,145.438,150.774,153.886,157.198,161.95,164.462,166.68599999999998,167.454,171.454,176.046,184.046,189.086,191.598,195.902,197.83,200.054,200.822,204.822,208.83,214.166,216.678,220.974,225.726,230.766,236.102,239.414,243.862,249.198,251.71,256.302,258.526,259.294,264.334,268.926,272.038,274.55,278.998,284.334,287.446,291.446,293.67,294.438,299.774,304.366,309.406,311.63,312.398,316.99,319.214,319.982,323.982,326.494,330.942,336.278,338.79,343.83,347.982,352.574,357.91,361.022,363.438,368.03,370.25399999999996,371.022,376.358,378.87,383.318,388.654,393.102,396.51,398.734,399.502,403.502,411.502,416.254,420.998,423.51,428.846,433.294,435.518,436.286,439.55,444.142,447.254,451.702,453.926,454.694,457.806,463.142,467.734,473.07,475.294,476.062,481.398,485.846,490.438,492.95,496.062,501.157,505.749,507.973,508.741,512.893,517.645,522.981,526.093,529.405,534.157,536.669,540.669" style="fill:#171615;font-family:IKGOXD+CaeciliaLTStd-Roman;font-size:8.0px;font-style:NORMAL;font-weight:normal;">In our case-control sample, schizophrenia patients had a significantly higher smoking rate than healthy controls </text>
  <text x="54.638" y="533.404" svg_rhmargin="57.15" style="fill:#171615;font-family:IKGOXD+CaeciliaLTStd-Roman;font-size:8.0px;font-style:NORMAL;font-weight:normal;">(</text>
  <text x="57.15,61.598,62.598,67.398" y="533.404" svg_rhmargin="69.622" style="fill:#171615;font-family:GHCCVH+CaeciliaLTStd-Italic;font-size:8.0px;font-style:ITALIC;font-weight:normal;">P = </text>
  <text x="68.398,70.622,75.07,79.518,83.966,86.478,88.406,90.63000000000001,91.902,97.246,102.582,107.03,109.254,111.118,116.158,119.47,124.222,129.262,134.014,137.422,140.534,143.046,147.798,153.134,155.35799999999998,157.222,161.974,164.934,167.158,169.022,174.358,178.806,183.158,187.75,192.342,194.566,196.43,200.43,208.43,213.182,217.926,222.374,225.782,229.782,232.006,233.87" y="533.404" svg_rhmargin="236.382" style="fill:#171615;font-family:IKGOXD+CaeciliaLTStd-Roman;font-size:8.0px;font-style:NORMAL;font-weight:normal;">.031). The proportion of heavy smokers (</text>
  <text x="236.382,240.83,241.83,246.63" y="533.404" svg_rhmargin="248.854" style="fill:#171615;font-family:GHCCVH+CaeciliaLTStd-Italic;font-size:8.0px;font-style:ITALIC;font-weight:normal;">P = </text>
  <text x="247.63,249.854,254.302,258.75,263.198,265.71,267.93399999999997,269.798,274.39,279.726,284.766,286.99,288.854,291.966,297.302,301.75,303.974,305.838,311.078,316.262,324.262,329.006,333.454,336.862,339.086,340.95,345.702,348.662,350.88599999999997,352.75,356.902,359.414,363.91,368.502,371.814,376.262,379.374,382.486,386.934,390.934,393.158,395.022,399.022,407.022,411.774,416.518,420.966,426.006,428.22999999999996,430.094,435.134,439.582,442.99,445.214,447.078,452.118,456.47,461.062,463.286,465.15" y="533.404" svg_rhmargin="467.662" style="fill:#171615;font-family:IKGOXD+CaeciliaLTStd-Roman;font-size:8.0px;font-style:NORMAL;font-weight:normal;">.027) and the number of cigarettes smoked per day (</text>
  <text x="467.662,472.11,473.11,477.91" y="533.404" svg_rhmargin="480.134" style="fill:#171615;font-family:GHCCVH+CaeciliaLTStd-Italic;font-size:8.0px;font-style:ITALIC;font-weight:normal;">P = </text>
  <text x="478.91,483.358,485.582,490.03,494.478" y="533.404" svg_rhmargin="496.702" style="fill:#171615;font-family:IKGOXD+CaeciliaLTStd-Roman;font-size:8.0px;font-style:NORMAL;font-weight:normal;">8.20 </text>
  <text x="495.454" y="533.404" svg_rhmargin="500.19" style="fill:#171615;font-family:DATKFN+GandhariUnicode-Roman;font-size:8.0px;font-style:NORMAL;font-weight:normal;">×</text>
  <text y="533.404" svg_rhmargin="510.086" x="501.19,505.638" style="fill:#171615;font-family:IKGOXD+CaeciliaLTStd-Roman;font-size:8.0px;font-style:NORMAL;font-weight:normal;">10</text>
  <text x="510.09,512.422" y="530.74" svg_rhmargin="515.015" style="fill:#171615;font-family:IKGOXD+CaeciliaLTStd-Roman;font-size:4.66px;font-style:NORMAL;font-weight:normal;">–3</text>
  <text x="515.015,517.527,519.7510000000001,521.615,528.431,532.879,536.191,540.639" y="533.404" svg_rhmargin="542.863" style="fill:#171615;font-family:IKGOXD+CaeciliaLTStd-Roman;font-size:8.0px;font-style:NORMAL;font-weight:normal;">) were </text>
  <text x="54.639,58.639,61.151,65.599,70.935,73.447,78.487,82.639,87.231,92.567,95.679,98.094,102.686,104.91000000000001,106.718,112.054,114.566,119.014,124.35,128.798,132.206,134.42999999999998,136.238,140.83,148.83,153.582,158.918,163.366,165.59,167.398,171.398,175.406,180.742,183.254,187.55,192.302,197.342,202.678,205.99,210.438,215.774,218.286,222.878,225.10199999999998,226.91,231.95,236.542,239.654,242.166,246.614,251.95,255.062,259.062,261.286,263.094,266.206,271.542,276.134,281.47,283.694,285.502,290.838,295.286,299.878,302.39,305.502,310.598,315.19,317.414,319.222,323.374,328.126,333.462,336.574,339.886,344.638,347.15,351.15,353.078,355.30199999999996,357.11,361.318,366.07,369.478,371.702,373.51,376.622,381.958,386.406,388.63,390.438,394.438,402.438,407.19,411.934,416.382,419.79,423.79,426.014,427.822,430.334,435.67,437.894,439.702,442.814,448.15,452.598,454.822,456.63,460.63,464.638,469.974,472.486,476.782,481.534,486.574,491.91,495.222,499.67,505.006,507.518,512.109,514.3330000000001,516.141,520.589,523.901,528.654,533.838,538.685,540.613" y="544.404" svg_rhmargin="542.837" style="fill:#171615;font-family:IKGOXD+CaeciliaLTStd-Roman;font-size:8.0px;font-style:NORMAL;font-weight:normal;">significantly higher among schizophrenia patients than healthy controls. For the smokers in the schizophrenia group, </text>
  <text x="54.639,59.231,62.343,66.935,71.975,74.487,78.639,83.231,85.743,87.967,88.583,93.175,98.511,101.623,104.135,109.175,113.175,117.767,121.775,127.111,131.863,134.975,137.487,141.639,145.639,147.863,148.479,153.519,158.271,162.271,166.767,171.311,175.759,177.98299999999998,178.599,185.463,190.055,194.055,196.279,196.895,201.935,206.687,210.687,213.199,216.311,218.727,223.223,227.671,230.087,234.679,236.903,237.519,241.671,246.423,249.831,253.143,257.591,260.103,264.695,267.807,272.255,277.295,279.519,280.135,287.095,289.607,292.719,298.055,300.279,300.895,305.047,307.559,312.055,316.647,319.959,324.407,327.519,330.631,335.079,339.079,341.303,341.919,346.959,351.407,354.815,357.039,357.655,362.695,367.047,371.639,373.863,374.479" y="555.404" svg_rhmargin="376.991" style="fill:#171615;font-family:IKGOXD+CaeciliaLTStd-Roman;font-size:8.0px;font-style:NORMAL;font-weight:normal;">atypical antipsychotics dosage was positively correlated with cigarettes per day (</text>
  <text x="376.991,381.439,382.439,387.239" y="555.404" svg_rhmargin="389.463" style="fill:#171615;font-family:GHCCVH+CaeciliaLTStd-Italic;font-size:8.0px;font-style:ITALIC;font-weight:normal;">P = </text>
  <text x="388.239,392.687,394.911,399.359,403.807" y="555.404" svg_rhmargin="406.031" style="fill:#171615;font-family:IKGOXD+CaeciliaLTStd-Roman;font-size:8.0px;font-style:NORMAL;font-weight:normal;">1.00 </text>
  <text x="404.783" y="555.404" svg_rhmargin="409.519" style="fill:#171615;font-family:DATKFN+GandhariUnicode-Roman;font-size:8.0px;font-style:NORMAL;font-weight:normal;">×</text>
  <text y="555.404" svg_rhmargin="419.415" x="410.519,414.967" style="fill:#171615;font-family:IKGOXD+CaeciliaLTStd-Roman;font-size:8.0px;font-style:NORMAL;font-weight:normal;">10</text>
  <text x="419.417,421.749" y="552.74" svg_rhmargin="424.342" style="fill:#171615;font-family:IKGOXD+CaeciliaLTStd-Roman;font-size:4.66px;font-style:NORMAL;font-weight:normal;">–3</text>
  <text x="424.342,426.854,428.782,431.325,437.253,439.477,440.091,448.091,452.539,455.651,460.243,463.499,468.091,473.427,478.019,480.434,485.026,489.026,491.538,495.538,497.762,498.378,501.338,506.09,511.274,516.61,521.65,523.874,524.49,527.602,532.938,537.53,540.642" y="555.404" svg_rhmargin="542.866" style="fill:#171615;font-family:IKGOXD+CaeciliaLTStd-Roman;font-size:8.0px;font-style:NORMAL;font-weight:normal;">). A  meta-analysis found that </text>
  <text x="54.638,58.638,62.646,67.982,70.494,74.79,79.542,84.582,89.918,93.229,97.677,103.013,105.525,110.117,112.085,117.125,121.717,124.829,127.341,131.789,137.125,140.237,144.237,146.201,151.537,156.129,161.169,163.133,167.725,169.689,175.025,177.537,181.985,187.321,191.769,195.177,197.145,201.145,209.145,213.897,218.641,221.153,226.489,230.937,232.901,236.165,240.757,243.869,248.317,250.281,253.393,258.729,263.321,268.657,270.621,273.733,279.069,283.517,285.485,290.029,294.477,299.813,304.261,307.525,312.117,314.629,316.593,321.633,326.385,331.425,336.609,339.121,343.713,346.825,349.337,354.089,359.425,361.388,364.348,369.1,372.508,374.472,379.216,383.968,387.08,392.416,394.38,402.38,406.828,412.164,414.128,416.64,422.72" y="566.404" svg_rhmargin="427.904" style="fill:#171615;font-family:IKGOXD+CaeciliaLTStd-Roman;font-size:8.0px;font-style:NORMAL;font-weight:normal;">schizophrenia patients had a higher smoking rate than the general population for both men (OR</text>
  <text y="566.404" svg_rhmargin="435.928" x="428.904,433.704" style="fill:#171615;font-family:GHCCVH+CaeciliaLTStd-Italic;font-size:8.0px;font-style:ITALIC;font-weight:normal;">= </text>
  <text x="434.704,439.152,441.376,445.824,450.272,452.2" y="566.404" svg_rhmargin="454.424" style="fill:#171615;font-family:IKGOXD+CaeciliaLTStd-Roman;font-size:8.0px;font-style:NORMAL;font-weight:normal;">1.53, </text>
  <text x="454.15,458.598,459.598,464.398" y="566.404" svg_rhmargin="466.622" style="fill:#171615;font-family:GHCCVH+CaeciliaLTStd-Italic;font-size:8.0px;font-style:ITALIC;font-weight:normal;">P = </text>
  <text x="465.398,467.622,472.07,476.518,480.966,483.19,485.154,489.154,493.162,498.498,501.01,505.306,510.058,515.098,520.434,523.746,528.194,533.53,536.042,540.634" y="566.404" svg_rhmargin="542.858" style="fill:#171615;font-family:IKGOXD+CaeciliaLTStd-Roman;font-size:8.0px;font-style:NORMAL;font-weight:normal;">.035; schizophrenia </text>
  <text x="54.638,59.678,64.27,67.382,69.894,74.342,79.678,82.79,86.79,88.718,90.94200000000001,93.19,97.638,102.086,104.31,108.758,115.422,117.646,119.87,122.118,126.662,131.11,136.446,140.894,144.158,148.75,151.262,153.486,155.734,160.774,165.526,170.566,175.75,178.262,182.854,185.966,188.478,193.23,198.566,200.494,202.718,204.966,209.414,213.862,216.086,220.534,227.198,229.71,231.934,234.182,238.774,244.11,249.15,251.374,253.622,260.438,265.19,273.19,277.638,282.974,285.198,287.446,289.958,296.038" y="577.404" svg_rhmargin="301.222" style="fill:#171615;font-family:IKGOXD+CaeciliaLTStd-Roman;font-size:8.0px;font-style:NORMAL;font-weight:normal;">patients, 52.9%; general population, 40.1%) and women (OR</text>
  <text y="577.404" svg_rhmargin="309.246" x="302.222,307.022" style="fill:#171615;font-family:GHCCVH+CaeciliaLTStd-Italic;font-size:8.0px;font-style:ITALIC;font-weight:normal;">= </text>
  <text svg_rhmargin="327.742" x="308.022,312.47,314.694,319.142,323.59,325.518,327.74199999999996" y="577.404" style="fill:#171615;font-family:IKGOXD+CaeciliaLTStd-Roman;font-size:8.0px;font-style:NORMAL;font-weight:normal;">2.40, </text>
  <text x="329.99,334.438,335.438,340.238" y="577.404" svg_rhmargin="342.462" style="fill:#171615;font-family:GHCCVH+CaeciliaLTStd-Italic;font-size:8.0px;font-style:ITALIC;font-weight:normal;">P = </text>
  <text x="341.238,345.686,347.91,352.358,356.806" y="577.404" svg_rhmargin="359.03" style="fill:#171615;font-family:IKGOXD+CaeciliaLTStd-Roman;font-size:8.0px;font-style:NORMAL;font-weight:normal;">1.08 </text>
  <text x="357.806" y="577.404" svg_rhmargin="362.542" style="fill:#171615;font-family:DATKFN+GandhariUnicode-Roman;font-size:8.0px;font-style:NORMAL;font-weight:normal;">×</text>
  <text y="577.404" svg_rhmargin="372.438" x="363.542,367.99" style="fill:#171615;font-family:IKGOXD+CaeciliaLTStd-Roman;font-size:8.0px;font-style:NORMAL;font-weight:normal;">10</text>
  <text x="372.44,374.772" y="574.74" svg_rhmargin="377.365" style="fill:#171615;font-family:IKGOXD+CaeciliaLTStd-Roman;font-size:4.66px;font-style:NORMAL;font-weight:normal;">–5</text>
  <text x="377.365,379.589,381.813,384.061,388.061,392.07,397.406,399.918,404.214,408.966,414.006,419.342,422.653,427.101,432.437,434.949,439.541,441.765,444.013,449.053,453.645,456.757,459.269,463.717,469.053,472.165,476.165,478.093,480.317,482.565,487.013,491.461,493.685,498.133,504.797,507.021,509.245,511.493,516.037,520.485,525.821,530.269,533.533,538.125,540.637" y="577.404" svg_rhmargin="542.861" style="fill:#171615;font-family:IKGOXD+CaeciliaLTStd-Roman;font-size:8.0px;font-style:NORMAL;font-weight:normal;">; schizophrenia patients, 24.4%; general </text>
  <text x="54.637,59.677,64.429,69.469,74.653,77.165,81.757,84.869,87.381,92.133,97.469,99.396,101.437,105.884,110.332,112.556,117.004,123.668,126.18,128.108,130.148,132.82,138.156,140.196,144.788,149.828,154.868,157.38,160.492,163.004,167.756,173.092,175.02,177.06,185.06,189.652,192.164,196.612,198.652,202.652,206.661,211.997,214.509,218.805,223.557,228.597,233.933,237.244,241.692,247.028,249.54,254.132,256.172,261.212,265.804,268.916,271.428,275.876,281.212,284.324,288.324,290.364,295.7,300.292,305.332,307.372,311.964,314.004,319.34,321.852,326.3,331.636,336.084,339.492,341.532,345.532,353.532,358.284,363.028,365.54,370.876,375.324,377.364,380.628,385.22,388.332,392.78,394.82,397.932,403.268,407.86,413.196,415.236,423.236,427.828,430.34,434.788,436.828,442.164,446.612,451.204,453.716,456.828,461.924,466.516,468.556,472.708,477.46,482.796,485.908,489.22,493.972,496.484,500.484,502.524,505.036,511.116" y="588.404" svg_rhmargin="516.3" style="fill:#171615;font-family:IKGOXD+CaeciliaLTStd-Roman;font-size:8.0px;font-style:NORMAL;font-weight:normal;">population, 11.8%). In addition, male schizophrenia patients had a higher smoking rate than male healthy controls (OR</text>
  <text y="588.404" svg_rhmargin="524.324" x="517.3,522.1" style="fill:#171615;font-family:GHCCVH+CaeciliaLTStd-Italic;font-size:8.0px;font-style:ITALIC;font-weight:normal;">= </text>
  <text x="523.1,527.548,529.772,534.22,538.668,540.596" y="588.404" svg_rhmargin="542.82" style="fill:#171615;font-family:IKGOXD+CaeciliaLTStd-Roman;font-size:8.0px;font-style:NORMAL;font-weight:normal;">2.84, </text>
  <text x="54.637,59.085,60.085,64.885" y="599.404" svg_rhmargin="67.109" style="fill:#171615;font-family:GHCCVH+CaeciliaLTStd-Italic;font-size:8.0px;font-style:ITALIC;font-weight:normal;">P = </text>
  <text x="65.885,70.333,72.557,77.005,81.453" y="599.404" svg_rhmargin="83.677" style="fill:#171615;font-family:IKGOXD+CaeciliaLTStd-Roman;font-size:8.0px;font-style:NORMAL;font-weight:normal;">9.48 </text>
  <text x="82.453" y="599.404" svg_rhmargin="87.189" style="fill:#171615;font-family:DATKFN+GandhariUnicode-Roman;font-size:8.0px;font-style:NORMAL;font-weight:normal;">×</text>
  <text y="599.404" svg_rhmargin="97.085" x="88.189,92.637" style="fill:#171615;font-family:IKGOXD+CaeciliaLTStd-Roman;font-size:8.0px;font-style:NORMAL;font-weight:normal;">10</text>
  <text x="97.086,99.418" y="596.74" svg_rhmargin="102.011" style="fill:#171615;font-family:IKGOXD+CaeciliaLTStd-Roman;font-size:4.66px;font-style:NORMAL;font-weight:normal;">–3</text>
  <text x="102.011,104.235,106.459,108.267,112.267,116.276,121.612,124.124,128.42,133.172,138.212,143.548,146.859,151.307,156.643,159.155,163.747,165.971,167.779,172.819,177.411,180.523,183.035,187.483,192.819,195.931,199.931,201.859,204.083,205.891,210.339,214.787,217.011,221.459,228.123,230.347,232.571,234.379,239.715,244.163,248.755,251.267,254.379,259.475,264.067,266.291,268.099,272.251,277.003,282.339,285.451,288.763,293.515,296.027,300.027,301.955,304.179,305.987,310.435,314.883,317.107,321.555,328.219,330.731,332.659,334.883,336.691,341.435,346.619,349.731,351.955,353.763,356.875,362.211,366.659,368.883,370.691,375.731,378.243,381.203,384.163,388.611,391.923,396.371,401.707,405.859,410.307,412.531,414.339,421.203,425.795,429.795,432.019,433.827,439.163,443.915,447.027,449.251,451.059,455.059,457.571,462.019,467.355,469.867,474.907,479.059,483.651,488.987,492.099,494.323,496.131,499.091,503.843,507.251,509.47499999999997,511.283,518.099,522.852,530.852,535.299,540.635" y="599.404" svg_rhmargin="542.859" style="fill:#171615;font-family:IKGOXD+CaeciliaLTStd-Roman;font-size:8.0px;font-style:NORMAL;font-weight:normal;">; schizophrenia patients, 53.6%; healthy controls, 32.9%), but the difference was not significant for women </text>
  <text x="54.635,57.147,63.227" y="610.404" svg_rhmargin="68.411" style="fill:#171615;font-family:IKGOXD+CaeciliaLTStd-Roman;font-size:8.0px;font-style:NORMAL;font-weight:normal;">(OR</text>
  <text y="610.404" svg_rhmargin="76.435" x="69.411,74.211" style="fill:#171615;font-family:GHCCVH+CaeciliaLTStd-Italic;font-size:8.0px;font-style:ITALIC;font-weight:normal;">= </text>
  <text svg_rhmargin="94.931" x="75.211,79.659,81.883,86.331,90.779,92.707,94.931" y="610.404" style="fill:#171615;font-family:IKGOXD+CaeciliaLTStd-Roman;font-size:8.0px;font-style:NORMAL;font-weight:normal;">1.36, </text>
  <text x="96.523,100.971,101.971,106.771" y="610.404" svg_rhmargin="108.995" style="fill:#171615;font-family:GHCCVH+CaeciliaLTStd-Italic;font-size:8.0px;font-style:ITALIC;font-weight:normal;">P = </text>
  <text x="107.771,109.995,114.443,118.891,121.115,123.339,124.931,128.931,132.939,138.275,140.787,145.083,149.835,154.875,160.211,163.523,167.971,173.307,175.819,180.411,182.635,184.227,189.267,193.859,196.971,199.483,203.931,209.267,212.379,216.379,218.307,220.53099999999998,222.123,226.571,231.019,233.243,237.691,244.355,246.579,248.803,250.395,255.731,260.179,264.771,267.283,270.395,275.491,280.083,282.307,283.899,288.051,292.803,298.139,301.251,304.563,309.315,311.827,315.827,318.051,322.499,326.947,329.171,333.619,340.283,342.795,344.723,346.947,348.244,354.172,362.172,366.924,372.26,376.708,378.932,380.524,385.268,390.02,393.132,398.468,400.692,402.284,410.284,414.876,417.388,421.836,425.836,428.06,429.652,434.244,439.58,444.62,446.844,448.436,451.396,455.844,463.844,468.436,470.948,475.396,479.396,481.324,483.548,485.14,489.14,493.148,498.484,500.996,505.292,510.044,515.084,520.42,523.731,528.179,533.515,536.027,540.619" y="610.404" svg_rhmargin="542.843" style="fill:#171615;font-family:IKGOXD+CaeciliaLTStd-Roman;font-size:8.0px;font-style:NORMAL;font-weight:normal;">.53; schizophrenia patients, 17.0%; healthy controls,14.1%). Among both males and females, schizophrenia </text>
  <text x="54.635,59.675,64.267,67.379,69.891,74.339,79.675,82.787,86.787,89.027,94.363,98.955,103.995,106.235,110.827,113.063,118.399,120.911,125.359,130.695,135.143,138.551,140.791,144.791,152.791,157.543,162.287,164.799,170.135,174.583,176.823,180.087,184.679,187.791,192.239,194.479,197.591,202.927,207.519,212.855,215.095,219.839,224.591,227.703,233.039,235.279,238.391,243.727,248.175,250.415,254.959,259.407,264.743,269.191,272.455,277.047,279.559,281.799,286.839,291.591,296.631,301.815,304.327,308.919,312.031,314.543,319.295,324.631,326.871,329.383,335.463" y="621.404" svg_rhmargin="340.647" style="fill:#171615;font-family:IKGOXD+CaeciliaLTStd-Roman;font-size:8.0px;font-style:NORMAL;font-weight:normal;">patients had a higher smoking rate than both the general population (OR</text>
  <text y="621.404" svg_rhmargin="348.671" x="341.647,346.447" style="fill:#171615;font-family:GHCCVH+CaeciliaLTStd-Italic;font-size:8.0px;font-style:ITALIC;font-weight:normal;">= </text>
  <text x="347.447,351.895,354.119,358.567,363.015,364.943" y="621.404" svg_rhmargin="367.167" style="fill:#171615;font-family:IKGOXD+CaeciliaLTStd-Roman;font-size:8.0px;font-style:NORMAL;font-weight:normal;">1.88, </text>
  <text x="367.147,371.595,372.595,377.395" y="621.404" svg_rhmargin="379.619" style="fill:#171615;font-family:GHCCVH+CaeciliaLTStd-Italic;font-size:8.0px;font-style:ITALIC;font-weight:normal;">P = </text>
  <text x="378.395,382.843,385.067,389.515,393.963" y="621.404" svg_rhmargin="396.187" style="fill:#171615;font-family:IKGOXD+CaeciliaLTStd-Roman;font-size:8.0px;font-style:NORMAL;font-weight:normal;">2.60 </text>
  <text x="394.963" y="621.404" svg_rhmargin="399.699" style="fill:#171615;font-family:DATKFN+GandhariUnicode-Roman;font-size:8.0px;font-style:NORMAL;font-weight:normal;">×</text>
  <text y="621.404" svg_rhmargin="409.595" x="400.699,405.147" style="fill:#171615;font-family:IKGOXD+CaeciliaLTStd-Roman;font-size:8.0px;font-style:NORMAL;font-weight:normal;">10</text>
  <text x="409.598,411.93" y="618.74" svg_rhmargin="414.523" style="fill:#171615;font-family:IKGOXD+CaeciliaLTStd-Roman;font-size:4.66px;font-style:NORMAL;font-weight:normal;">–5</text>
  <text x="414.523,417.035,419.275,423.867,429.203,434.243,436.483,441.819,446.267,450.859,453.371,456.483,461.579,466.171,468.411,472.563,477.315,482.651,485.763,489.074,493.826,496.338,500.338,502.578,505.09,511.17" y="621.404" svg_rhmargin="516.354" style="fill:#171615;font-family:IKGOXD+CaeciliaLTStd-Roman;font-size:8.0px;font-style:NORMAL;font-weight:normal;">) and healthy controls (OR</text>
  <text y="621.404" svg_rhmargin="524.378" x="517.354,522.154" style="fill:#171615;font-family:GHCCVH+CaeciliaLTStd-Italic;font-size:8.0px;font-style:ITALIC;font-weight:normal;">= </text>
  <text x="523.154,527.602,529.826,534.274,538.722,540.65" y="621.404" svg_rhmargin="542.874" style="fill:#171615;font-family:IKGOXD+CaeciliaLTStd-Roman;font-size:8.0px;font-style:NORMAL;font-weight:normal;">2.05, </text>
  <text x="54.635,59.083,60.083,64.883" y="632.404" svg_rhmargin="67.107" style="fill:#171615;font-family:GHCCVH+CaeciliaLTStd-Italic;font-size:8.0px;font-style:ITALIC;font-weight:normal;">P = </text>
  <text x="65.883,68.107,72.555,77.003,81.451,83.963,85.891,87.009,92.353,97.689,102.137,106.137,110.585,112.297,115.561,120.153,123.265,127.713,131.713,133.425,140.241,144.689,148.001,152.449,154.161,159.497,164.249,167.361,169.073,173.665,176.625,179.585,184.033,188.185,191.297,195.745,200.785,202.497,207.0,211.592,213.304,216.416,221.752,226.2,227.912,232.952,237.544,240.656,243.168,247.616,252.952,256.064,260.064,262.288,264.0,267.312,271.76,275.912,279.32,284.504,287.016,290.128,298.128,302.576,307.912,311.024,312.736,317.184,321.632,326.224,329.632,331.344" y="632.404" svg_rhmargin="333.856" style="fill:#171615;font-family:IKGOXD+CaeciliaLTStd-Roman;font-size:8.0px;font-style:NORMAL;font-weight:normal;">.018). These rates were not affected by the patients’ recruitment year (</text>
  <text x="333.856,338.304,339.304,344.104" y="632.404" svg_rhmargin="346.328" style="fill:#171615;font-family:GHCCVH+CaeciliaLTStd-Italic;font-size:8.0px;font-style:ITALIC;font-weight:normal;">P &gt; </text>
  <text x="345.104,347.328,351.776,356.224,358.736,360.664,361.782,367.126,372.462,376.91,378.622,382.774,385.286,389.782,394.374,397.685,402.133,405.245,408.357,412.805,416.805,418.517,423.557,428.005,431.413,433.125,438.165,442.517,447.109,448.821,453.317,457.909,460.421,465.605,470.053,474.053,475.765,480.517,483.477,485.189,489.189,493.197,498.533,501.045,505.341,510.093,515.133,520.469,523.781,528.229,533.565,536.077,540.669" y="632.404" svg_rhmargin="542.893" style="fill:#171615;font-family:IKGOXD+CaeciliaLTStd-Roman;font-size:8.0px;font-style:NORMAL;font-weight:normal;">.05). The cigarettes per day values of schizophrenia </text>
  <text x="54.635,59.675,64.267,67.379,69.891,74.339,79.675,82.787,86.787,89.011,93.603,98.939,103.979,106.203,109.315,114.651,119.099,121.323,125.867,130.315,135.651,140.099,143.363,147.955,150.467,152.691,157.731,162.483,167.523,172.707,175.219,179.811,182.923,185.435,190.187,195.523,197.747,204.562,209.01,212.322,216.77,218.994,223.442,227.89,230.114,234.562,236.786,241.378,246.714,251.754,253.978,258.426,262.874,265.098,269.546,271.474,273.698,277.01,281.458,285.458,290.498,294.946,299.098,302.21,304.626,309.122,313.57,315.986,319.842" y="643.404" svg_rhmargin="322.066" style="fill:#171615;font-family:IKGOXD+CaeciliaLTStd-Roman;font-size:8.0px;font-style:NORMAL;font-weight:normal;">patients and the general population were 22.0 and 18.8, respectively.</text>
  <text x="54.635,60.115,64.859,70.195,74.195,76.715,82.051,86.203,88.723,93.467,98.803,102.955" y="654.404" svg_rhmargin="105.323" style="fill:#171615;font-family:PSSERP+CaeciliaLTStd-Bold;font-size:8.0px;font-style:NORMAL;font-weight:bold;">Conclusions:</text>
  <text y="654.404" svg_rhmargin="542.865" x="107.043,111.787,115.795,121.131,123.643,127.939,132.691,137.731,143.067,146.379,150.827,156.163,158.675,163.267,164.987,170.027,174.619,177.731,180.243,184.691,190.027,193.139,197.139,198.859,203.451,206.763,211.211,212.931,217.523,222.563,227.603,230.914,235.618,240.362,242.874,250.874,255.466,258.578,263.026,265.442,270.034,271.754,276.202,277.922,281.034,283.546,291.546,295.994,299.994,301.714,309.714,314.466,317.778,322.226,323.946,326.458,328.97,333.714,338.162,340.578,345.17,346.89,350.002,354.754,356.474,360.474,368.474,373.226,377.97,382.418,384.138,387.25,392.586,397.178,402.514,404.234,407.346,412.682,417.13,418.85,423.393,427.841,433.177,437.625,440.89,445.482,447.994,449.714,454.754,459.506,464.546,469.73,472.242,476.834,479.946,482.458,487.21,492.546,494.266,498.858,504.194,509.234,510.954,516.29,520.738,525.33,527.842,530.954,536.049,540.641" style="fill:#171615;font-family:IKGOXD+CaeciliaLTStd-Roman;font-size:8.0px;font-style:NORMAL;font-weight:normal;">Schizophrenia patients are approximately 2 times more likely to smoke than the general population and healthy </text>
  <text x="54.635,58.787,63.539,68.875,71.987,75.299,80.051,82.563,86.563,88.787,93.531,98.123,102.123,106.571,111.611,113.835,118.587,123.923,126.147,131.187,135.779,138.891,143.483,145.707,149.859,154.611,157.123,159.635,164.083,168.235,171.347,175.795,180.835,183.059,187.619,192.115,196.563,199.971,202.195,206.787,209.011,214.051,218.499,222.651,227.243,232.283,236.731,238.955,241.467,246.803,249.027,251.45,256.042,261.082,265.674,271.01" y="665.404" svg_rhmargin="273.234" style="fill:#171615;font-family:IKGOXD+CaeciliaLTStd-Roman;font-size:8.0px;font-style:NORMAL;font-weight:normal;">controls based on data collected over a decade in Japan.</text>
  <text x="54.635,60.267,64.523,69.267,76.187,80.931,84.339,89.379,93.531" y="681.404" svg_rhmargin="95.899" style="fill:#171615;font-family:PSSERP+CaeciliaLTStd-Bold;font-size:8.0px;font-style:NORMAL;font-weight:bold;">Keywords:</text>
  <text y="681.404" svg_rhmargin="515.536" x="99.899,104.443,108.891,114.227,118.675,121.939,126.531,129.043,131.267,136.307,141.059,146.099,151.283,153.795,158.387,161.499,164.011,168.763,174.099,176.027,178.251,183.587,188.035,192.627,195.139,198.251,203.347,207.939,210.163,214.315,219.067,224.403,227.515,230.826,235.578,238.09,242.09,244.018,246.242,254.242,258.69,261.802,266.394,269.65,274.242,279.578,284.17,286.586,291.178,295.178,297.69,301.69,303.618,305.842,311.082,316.266,324.266,329.01,333.458,336.866,339.09,343.842,346.802,349.026,353.178,355.69,360.185,364.777,368.09,372.538,375.65,378.762,383.21,387.21,389.434,393.434,401.434,406.186,410.93,415.378,420.418,422.642,427.682,432.13,435.538,437.762,442.802,447.153,451.009,452.937,455.161,459.905,463.913,469.249,471.761,476.057,480.809,485.849,491.185,494.496,498.944,504.28,506.792,511.384,513.312" style="fill:#171615;font-family:IKGOXD+CaeciliaLTStd-Roman;font-size:8.0px;font-style:NORMAL;font-weight:normal;">general population, healthy controls, meta-analysis, number of cigarettes smoked per day, Schizophrenia, </text>
  <text x="54.635,58.635,66.635,71.387,76.131,78.643,83.979,88.427,90.651,93.915,98.507,101.619" y="692.404" svg_rhmargin="106.067" style="fill:#171615;font-family:IKGOXD+CaeciliaLTStd-Roman;font-size:8.0px;font-style:NORMAL;font-weight:normal;">smoking rate</text>
 </g>
</svg>
