<?xml version="1.0" encoding="UTF-8"?>
<svg height="756.504" width="554.3857504807693" xmlns="http://www.w3.org/2000/svg">
 <g style="fill:none;">
  <text x="66.638,71.256" y="51.49400000000003" svg_rhmargin="75.874" style="fill:#171615;font-family:EEDQTL+CaeciliaLTStd-Heavy;font-size:7.8px;font-style:NORMAL;font-weight:bold;">24</text>
  <text svg_rhmargin="87.573" y="51.49400000000003" x="83.673,85.405,87.57300000000001" style="fill:#171615;font-family:IKGOXD+CaeciliaLTStd-Roman;font-size:7.8px;font-style:NORMAL;font-weight:normal;">| </text>
  <text x="93.205,95.662,100.139,102.885,106.496,109.671,114.148,118.485,121.23,123.399,127.299,131.776,136.113,138.281,140.449,142.766,146.666,151.291,154.466,158.943,163.28,165.448,167.617,171.517,174.114,176.283,182.203,185.814,190.44,193.474,197.374,201.711,205.322,209.511,212.646,217.123,221.023,225.36,229.837,234.174,237.349,244.135,248.472,251.794,255.694,257.863,261.763,265.858" y="51.49400000000003" svg_rhmargin="270.047" style="fill:#171615;font-family:GHCCVH+CaeciliaLTStd-Italic;font-size:7.8px;font-style:ITALIC;font-weight:normal;">International Journal of Neuropsychopharmacology</text>
  <text x="270.046,271.926,274.095,278.431,282.768,287.105" y="51.49400000000003" svg_rhmargin="291.442" style="fill:#171615;font-family:IKGOXD+CaeciliaLTStd-Roman;font-size:7.8px;font-style:NORMAL;font-weight:normal;">, 2019</text>
  <text x="66.638,72.608,76.733,81.181,84.098,85.906,88.028,94.418,98.588,100.711,104.836,109.283,113.588,121.088,123.443,128.446,132.616,137.341,139.463,142.381,147.383,151.553,153.676,156.031,161.033,165.893,170.753,174.923,179.926,183.818,187.988,190.111,194.566,197.34,199.463,202.38,207.383,211.553,213.675,217.845,222.015,226.32,229.515,231.638,234.555,239.558,243.863,246.78,248.903,253.073,257.378,261.136,266.139,268.261,272.011,274.929,279.789,284.334,288.639" y="368.501" svg_rhmargin="290.724" style="fill:#171615;font-family:IKGOXD+CaeciliaLTStd-Roman;font-size:7.5px;font-style:NORMAL;font-weight:normal;">Next, we examined the influence of the year that each study </text>
  <text x="54.638,61.073,65.378,69.128,71.213,72.698,77.423,81.593,84.788,87.563,92.018,95.213,102.713,106.883,111.608,113.693,115.178,119.633,124.635,126.72,128.206,132.661,137.521,140.438,144.331,148.786,156.286,160.456,164.206,166.291,167.776,170.131,173.881,178.741,183.466,188.191,190.546,194.716,202.216,206.386,211.388,214.306,218.611,221.716,226.021,228.106,229.591,233.626,235.981,240.151,245.011,248.116,252.286,254.371,255.853,260.023,262.378,264.185,266.27,267.2,272.21,277.213,281.383,284.488,288.658" y="379.001" svg_rhmargin="290.743" style="fill:#171615;font-family:IKGOXD+CaeciliaLTStd-Roman;font-size:7.5px;font-style:NORMAL;font-weight:normal;">was performed on outcomes (supplementary Figure  6). There </text>
  <text x="54.638,61.028,65.198,68.303,72.473,74.55799999999999,75.098,80.101,84.556,86.64099999999999,87.181,90.286,94.456,96.811,101.116,104.034,106.389,110.844,115.846,119.596,124.599,126.954,131.679,135.429,137.514,138.054,142.501,146.671,149.589,155.98,160.15,164.32,169.322,171.407,171.947,174.865,179.867,184.037,186.122,186.662,190.832,194.582,197.5,199.855,207.355,211.66,214.577,218.747,223.472,225.55700000000002,226.097,229.202,233.372,237.265,240.46,245.32,247.675,250.592,258.092,262.262,267.265,270.182,272.267,272.807,276.976,281.146,285.451,288.646" y="389.501" svg_rhmargin="290.731" style="fill:#171615;font-family:IKGOXD+CaeciliaLTStd-Roman;font-size:7.5px;font-style:NORMAL;font-weight:normal;">were no relationships between the estimated recruitment year </text>
  <text x="54.638,59.093,61.868,63.953,66.871,71.873,76.043,78.128,82.576,87.436,89.521,94.246,98.551,101.468,103.823,107.993,112.996,115.913,119.663,121.748,126.053,131.056,135.781,137.866,142.321,147.181,150.098,153.991,158.446,165.946,170.116,173.866,175.951" y="400.001" svg_rhmargin="178.306" style="fill:#171615;font-family:IKGOXD+CaeciliaLTStd-Roman;font-size:7.5px;font-style:NORMAL;font-weight:normal;">of the SZ patients and outcomes (</text>
  <text x="178.306,182.476,183.413,187.913" y="400.001" svg_rhmargin="189.998" style="fill:#171615;font-family:GHCCVH+CaeciliaLTStd-Italic;font-size:7.5px;font-style:ITALIC;font-weight:normal;">P &gt; </text>
  <text x="188.851,190.936,195.106,199.276,201.631" y="400.001" svg_rhmargin="203.716" style="fill:#171615;font-family:IKGOXD+CaeciliaLTStd-Roman;font-size:7.5px;font-style:NORMAL;font-weight:normal;">.05).</text>
  <text x="54.638,60.461,65.501,72.114,74.63,77.307,82.977,85.493,90.686,96.194,98.71,103.436,108.273,111.418,114.095,118.821,124.491,127.636,132.047,134.563,139.604,145.273,150.628,153.144,156.289,161.959,166.685,169.201,175.338" y="424.001" svg_rhmargin="180.378" style="fill:#171615;font-family:PSSERP+CaeciliaLTStd-Bold;font-size:8.5px;font-style:NORMAL;font-weight:bold;">CPD in SZ Patients and the GP</text>
  <text x="54.638,58.583,63.038,67.898,71.093,73.178,74.611,78.361,81.278,86.138,90.863,93.218,97.388,101.138,103.223,104.656,107.761,111.841,116.566,121.021,124.216,127.133,131.303,136.028,138.113,139.546,144.683,148.988,154.681,156.76600000000002,158.198,160.553,168.053,172.223,176.528,181.531,185.281,186.218,190.718,191.656,196.103,201.796,205.546,207.9,209.985,211.418,213.773,218.775,220.86,222.293,226.74,231.6,233.685,235.118,239.843,244.148,247.065,249.42,253.59,258.593,261.51,265.26,267.34499999999997,268.778,275.303,277.658,280.576,285.578" y="441.001" svg_rhmargin="288.631" style="fill:#171615;font-family:IKGOXD+CaeciliaLTStd-Roman;font-size:7.5px;font-style:NORMAL;font-weight:normal;">Four studies reported CPD (means ± SDs) in SZ patients with-</text>
  <text x="54.638,59.093,63.953,66.871,69.038,72.788,75.706,78.766,83.071,85.988,88.343,93.068,96.961,101.266,104.183,106.538,110.993,115.996,118.163,122.386,126.691,128.858,133.118,137.288,142.291,147.016,151.186,153.968,155.776,157.944,164.469,169.471,171.826,174.181,178.351,180.519,182.881,187.891,190.059,194.364,199.366,204.279,209.139,213.444,215.799,218.064,222.369,224.536,227.641,231.721,236.446,240.901,244.096,247.014,250.764,252.931,258.069,262.374,268.066,270.234,272.589,277.044,282.046,284.311,288.616" y="451.501" svg_rhmargin="290.701" style="fill:#171615;font-family:IKGOXD+CaeciliaLTStd-Roman;font-size:7.5px;font-style:NORMAL;font-weight:normal;">out stratification by gender, while JT annually reports CPD (only </text>
  <text x="54.638,62.138,66.308,70.613,75.616,79.366,81.721,83.558,85.913,90.916,92.753,95.671,100.673,104.843,106.681,112.096,116.401,118.238,124.763,127.118,130.036,135.038,136.876,140.626,143.543,146.603,150.908,153.826,156.181,160.906,164.798,169.103,172.021,174.376,178.831,183.833,185.671,189.893,194.198,196.035,200.295,204.465,209.468,214.193,218.363,221.145,222.953,224.38,231.88,236.05,237.887,242.057,245.807,248.725,251.079,258.579,262.884,265.802,269.972,274.697,276.535,279.452,284.455,288.625" y="462.001" svg_rhmargin="290.71" style="fill:#171615;font-family:IKGOXD+CaeciliaLTStd-Roman;font-size:7.5px;font-style:NORMAL;font-weight:normal;">means) in the GP with stratification by gender. We estimated the </text>
  <text x="54.638,62.138,66.308,70.613,75.616,77.701,78.413,83.551,87.856,93.548,95.633,96.346,99.121,103.576,106.771,108.856,109.568,114.016,118.876,120.961,121.673,126.398,130.703,133.621,135.976,140.146,145.148,148.066,151.816,153.901,154.613,158.918,163.921,168.646,170.731,171.443,174.361,179.363,183.533,185.618,186.331,191.745,196.05,198.13500000000002,198.848,203.708,207.458,209.813,214.815,218.985,221.07000000000002,221.783,224.7,229.703,233.873,235.958,236.67,244.17,248.34,251.258,255.563,258.615,262.92,267.923,272.228,274.493,278.798,282.548,284.903,288.653" y="472.501" svg_rhmargin="290.738" style="fill:#171615;font-family:IKGOXD+CaeciliaLTStd-Roman;font-size:7.5px;font-style:NORMAL;font-weight:normal;">mean CPD for SZ patients and the GP using the meta-analysis </text>
  <text x="54.638,62.138,66.308,69.226,74.228,78.683,83.408,85.493,87.541,91.846,96.848,101.573,103.65799999999999,105.706,109.786,114.001,118.171,121.231,125.446,129.706,132.061,137.063,141.233,143.318,145.366,152.866,157.036,159.953,164.956,169.411,174.136,175.944,178.029,180.076,183.181,187.351,191.101,195.826,199.996,203.889,206.806,209.071,213.286,217.456,219.721,223.336,225.144,227.229,229.276,234.414,238.719,244.411,246.496,248.544,251.319,255.774,258.969,261.054,263.101,266.019,271.021,275.191,277.27599999999995,279.324,283.771,288.631" y="483.001" svg_rhmargin="290.716" style="fill:#171615;font-family:IKGOXD+CaeciliaLTStd-Roman;font-size:7.5px;font-style:NORMAL;font-weight:normal;">method and averaging method, respectively. CPD for the SZ </text>
  <text x="54.638,59.363,63.668,66.586,68.941,73.111,78.113,81.031,84.781,87.263,93.698,98.003,101.753,104.236,108.406,112.576,114.661,118.831,119.761,124.261,125.198,129.368,133.538,135.623,139.793,142.276" y="493.501" svg_rhmargin="144.631" style="fill:#171615;font-family:IKGOXD+CaeciliaLTStd-Roman;font-size:7.5px;font-style:NORMAL;font-weight:normal;">patients was 22.0 ± 19.0 (</text>
  <text x="144.631" y="493.501" svg_rhmargin="146.993" style="fill:#171615;font-family:GHCCVH+CaeciliaLTStd-Italic;font-size:7.5px;font-style:ITALIC;font-weight:normal;">I</text>
  <text x="146.99" y="491.004" svg_rhmargin="149.421" style="fill:#171615;font-family:GHCCVH+CaeciliaLTStd-Italic;font-size:4.37px;font-style:ITALIC;font-weight:normal;">2</text>
  <text y="493.501" svg_rhmargin="156.944" x="150.359,154.859" style="fill:#171615;font-family:GHCCVH+CaeciliaLTStd-Italic;font-size:7.5px;font-style:ITALIC;font-weight:normal;">= </text>
  <text x="155.796,159.966,161.774" y="493.501" svg_rhmargin="163.859" style="fill:#171615;font-family:IKGOXD+CaeciliaLTStd-Roman;font-size:7.5px;font-style:NORMAL;font-weight:normal;">0, </text>
  <text x="164.256,168.006,168.944,173.444" y="493.501" svg_rhmargin="175.529" style="fill:#171615;font-family:GHCCVH+CaeciliaLTStd-Italic;font-size:7.5px;font-style:ITALIC;font-weight:normal;">z = </text>
  <text x="174.381,178.551,182.721,184.806,188.976,190.784" y="493.501" svg_rhmargin="192.869" style="fill:#171615;font-family:IKGOXD+CaeciliaLTStd-Roman;font-size:7.5px;font-style:NORMAL;font-weight:normal;">30.9, </text>
  <text x="193.266" y="493.501" svg_rhmargin="197.436" style="fill:#171615;font-family:GHCCVH+CaeciliaLTStd-Italic;font-size:7.5px;font-style:ITALIC;font-weight:normal;">P</text>
  <text y="493.501" svg_rhmargin="216.321" x="198.374,202.874,203.811,207.981,210.066,214.236" style="fill:#171615;font-family:IKGOXD+CaeciliaLTStd-Roman;font-size:7.5px;font-style:NORMAL;font-weight:normal;">&lt; 1.0 </text>
  <text x="215.174" y="493.501" svg_rhmargin="219.614" style="fill:#171615;font-family:DATKFN+GandhariUnicode-Roman;font-size:7.5px;font-style:NORMAL;font-weight:normal;">×</text>
  <text y="493.501" svg_rhmargin="228.891" x="220.551,224.721" style="fill:#171615;font-family:IKGOXD+CaeciliaLTStd-Roman;font-size:7.5px;font-style:NORMAL;font-weight:normal;">10</text>
  <text x="228.885,231.071,233.502" y="491.004" svg_rhmargin="235.933" style="fill:#171615;font-family:IKGOXD+CaeciliaLTStd-Roman;font-size:4.37px;font-style:NORMAL;font-weight:normal;">–16</text>
  <text x="235.933,238.288,240.373,242.856,245.631,250.086,253.281,255.76,258.677,263.68,267.85,270.332,275.747,279.085,280.892,283.375,285.73,288.647" y="493.501" svg_rhmargin="290.732" style="fill:#171615;font-family:IKGOXD+CaeciliaLTStd-Roman;font-size:7.5px;font-style:NORMAL;font-weight:normal;">); for the GP, it </text>
  <text x="54.636,61.071,65.376,69.126,71.211,75.381,79.551,81.636,85.806" y="504.001" svg_rhmargin="87.891" style="fill:#171615;font-family:IKGOXD+CaeciliaLTStd-Roman;font-size:7.5px;font-style:NORMAL;font-weight:normal;">was 18.8.</text>
  <text x="54.638,62.228,65.548,70.918,75.918,82.588,87.958,93.328,96.648,102.768" y="530.501" svg_rhmargin="109.618" style="fill:#171615;font-family:EEDQTL+CaeciliaLTStd-Heavy;font-size:10.0px;font-style:NORMAL;font-weight:bold;">Discussion</text>
  <text x="54.638,59.648,64.65,67.006,70.756,72.841,74.014,76.369,80.119,82.204,83.377,86.295,91.297,95.467,97.55199999999999,98.726,103.451,106.646,110.396,113.313,115.398,116.571,121.296,125.751,130.206,132.561,136.731,141.456,143.541,144.715,148.465,151.383,156.243,160.788,165.093,167.178,168.351,172.244,176.699,184.199,188.924,193.229,196.424,198.779,203.781,207.951,210.036,211.209,214.127,219.129,223.299,225.38400000000001,226.558,230.451,235.311,238.506,241.611,245.781,250.783,253.701,255.786,256.959,260.709,268.209,272.664,277.111,279.466,284.469,288.639" y="546.501" svg_rhmargin="290.724" style="fill:#171615;font-family:IKGOXD+CaeciliaLTStd-Roman;font-size:7.5px;font-style:NORMAL;font-weight:normal;">This is the first pooled study comparing the current smoking </text>
  <text x="54.638,57.698,62.003,64.921,69.09,72.84,75.226,79.531,84.533,89.258,91.643,96.781,101.086,106.778,109.163,113.618,116.393,118.778,123.226,128.086,130.471,135.196,139.501,142.418,144.773,148.943,153.945,156.863,160.613,162.998,169.523,171.878,174.795,179.798,182.183,185.1,190.103,194.558,198.308,202.478,204.863,209.318,212.093,214.478,220.313,225.45,229.2,231.585,235.89,240.893,245.618,248.003,250.92,255.923,260.093,262.478,267.893,272.198,274.583,276.938,281.94,284.326,288.63" y="557.001" svg_rhmargin="290.715" style="fill:#171615;font-family:IKGOXD+CaeciliaLTStd-Roman;font-size:7.5px;font-style:NORMAL;font-weight:normal;">rates and CPD of SZ patients with those of HCs and the GP in a </text>
  <text x="54.638,56.91,61.215,65.94,70.245,75.248,79.418,83.168,87.338,89.828,94.553,99.008,103.733,108.593,110.948,115.253,118.171,120.526,124.981,129.983,131.791,134.281,139.981,144.841,148.036,150.526,158.026,162.196,165.113,169.418,172.471,176.776,181.778,186.083,188.348,192.653,196.403,200.573,204.323,206.813,211.268,214.043,216.533,219.451,224.453,228.623,231.113,233.468,235.823,238.74,242.91,245.971,250.275,253.193,258.053,261.158,265.328,267.818,271.568,276.293,280.598,285.6" y="567.501" svg_rhmargin="288.653" style="fill:#171615;font-family:IKGOXD+CaeciliaLTStd-Roman;font-size:7.5px;font-style:NORMAL;font-weight:normal;">Japanese population. Our meta-analyses of the literature span-</text>
  <text x="54.638,59.64,61.995,66.998,71.168,73.253,74.701,79.006,83.73,88.455,91.561,95.971,100.418,102.773,110.273,114.578,117.496,121.666,123.931,128.236,130.321,131.768,135.938,140.108,142.193,143.638,147.808,151.978,156.283,159.478,163.228,165.31300000000002,166.756,170.506,175.366,179.536,183.796,187.966,191.716,194.634,196.719,198.166,201.084,206.086,210.391,213.309,215.394,216.841,221.289,226.149,228.234,229.681,234.406,238.711,241.629,243.984,248.154,253.156,256.074,259.824,261.909,263.356,268.359,272.439,276.653,280.823,282.90799999999996,284.355,288.66" y="578.001" svg_rhmargin="290.745" style="fill:#171615;font-family:IKGOXD+CaeciliaLTStd-Roman;font-size:7.5px;font-style:NORMAL;font-weight:normal;">ning approximately 25  years suggest that SZ patients have a </text>
  <text x="54.638,59.64,61.995,66.165,71.168,75.338,78.533,80.618,83.34,88.065,91.171,95.116,99.331,103.636,105.991,110.161,115.163,119.056,123.226,125.31099999999999,128.033,132.488,135.263,137.348,140.07,143.963,148.823,152.018,155.123,159.293,164.296,167.213,169.298,172.021,175.771,183.271,187.726,192.173,194.528,199.531,203.701,205.786,208.508,212.4,216.855,224.355,229.081,233.385,236.491,240.661,245.386,247.471,250.193,256.718,259.073,261.991,266.993,269.078,271.801,276.248,280.703,283.621,288.623" y="588.501" svg_rhmargin="290.708" style="fill:#171615;font-family:IKGOXD+CaeciliaLTStd-Roman;font-size:7.5px;font-style:NORMAL;font-weight:normal;">higher prevalence of current smoking compared with both </text>
  <text x="54.638,60.473,65.61,69.36,71.445,72.675,76.98,81.983,86.708,88.79299999999999,90.023,92.941,97.943,102.113,104.198,105.428,110.843,115.148,117.23299999999999,118.463,120.818,125.821,127.90599999999999,129.136,133.441,135.526,136.756,139.027,143.332,148.057,152.362,157.365,161.535,165.285,169.455,171.54000000000002,172.77,177.495,181.95,186.675,191.535,193.89,198.195,201.112,203.467,207.922,212.925,214.732,216.817,218.047,221.992,226.207,230.377,235.38,237.465,238.695,243.0,245.775,248.692,252.862,256.057,258.142,259.372,263.265,267.72,272.722,275.64,278.745,283.2,285.555" y="599.001" svg_rhmargin="288.608" style="fill:#171615;font-family:IKGOXD+CaeciliaLTStd-Roman;font-size:7.5px;font-style:NORMAL;font-weight:normal;">HCs and the GP in a Japanese population, even after control-</text>
  <text x="54.638,56.993,59.348,64.351,68.521,70.606,71.468,74.243,78.698,81.893,83.978,84.841,89.101,93.271,98.273,102.998,107.168,109.951,111.758,114.148,119.158,124.161,128.331,132.081,136.251,138.336,139.198,143.923,148.926,153.651,156.006,161.008,165.178,168.928,171.013,171.876,178.266,182.436,185.541,189.711,191.79600000000002,192.658,197.661,202.116,205.033,207.118,207.981,212.286,215.061,217.836,222.006,225.898,228.816,232.986,237.711,239.79600000000002,240.658,244.881,249.186,251.27100000000002,252.133,254.488,259.491,264.216,268.521,271.438,273.793,277.963,282.966,285.883" y="609.501" svg_rhmargin="288.658" style="fill:#171615;font-family:IKGOXD+CaeciliaLTStd-Roman;font-size:7.5px;font-style:NORMAL;font-weight:normal;">ling for gender. These findings were not affected by inpatient/</text>
  <text x="54.638,59.093,63.953,66.871,71.596,75.901,78.818,81.173,85.343,90.346,93.263,95.693,99.443,102.361,106.666,109.583,114.443,118.193,120.623,125.078,128.273,130.703,133.621,138.623,142.793,145.223,149.948,154.253,157.171,159.525,163.695,168.698,171.615,175.365,177.451,179.88,182.986,187.156,191.048,194.243,199.103,201.458,204.376,211.876,216.046,221.048,223.965,226.395,230.565,234.735,239.04,241.823,243.63,246.06,248.565,253.568,255.998,260.303,265.028,269.753,272.108,275.026,277.381,281.836,286.838,288.646" y="620.001" svg_rhmargin="290.731" style="fill:#171615;font-family:IKGOXD+CaeciliaLTStd-Roman;font-size:7.5px;font-style:NORMAL;font-weight:normal;">outpatient status or the patients’ recruitment year. In addition, </text>
  <text x="54.638,57.556,62.558,66.728,68.775,73.913,78.218,83.91,85.958,90.87,95.73,103.23,107.678,111.848,115.043,117.09,123.526,127.831,131.581,133.628,141.128,145.433,148.448,152.708,155.063,160.066,164.37,166.725,168.99,173.295,175.343,180.345,182.7,186.87,191.873,196.043,199.238,201.285,204.06,208.515,211.71,213.758,216.675,221.678,225.848,227.895,232.343,237.203,239.25,243.975,248.28,251.198,253.553,257.723,262.725,265.643,269.393,271.44,274.358,279.361,283.665,288.668" y="630.501" svg_rhmargin="290.753" style="fill:#171615;font-family:IKGOXD+CaeciliaLTStd-Roman;font-size:7.5px;font-style:NORMAL;font-weight:normal;">the CPD number was marginally higher for the SZ patients than </text>
  <text x="54.638,57.413,61.868,65.063,67.148,67.748,70.666,75.668,79.838,81.92299999999999,82.523,87.938,91.275,93.083,95.489,101.047,103.402,106.319,111.322,115.777,120.637,124.807,129.809,131.894,132.494,135.412,140.414,144.584,147.689,151.859,153.94400000000002,154.544,160.979,165.284,169.034,171.119,171.719,175.469,177.824,181.994,186.997,189.352,194.077,197.969,202.274,207.277,210.194,212.279,212.879,217.882,222.051,224.969,229.139,232.244,236.654,240.914,245.084,250.087,254.257,256.612,259.529,263.834,265.919,266.519,268.874,273.877,275.962,276.562,279.479,284.482,288.652" y="641.001" svg_rhmargin="290.737" style="fill:#171615;font-family:IKGOXD+CaeciliaLTStd-Roman;font-size:7.5px;font-style:NORMAL;font-weight:normal;">for the GP. Although there was significant heterogeneity in the </text>
  <text x="54.638,57.698,62.003,64.921,69.09,72.84,75.038,79.343,86.843,91.298,96.301,100.471,102.668,106.418,109.336,114.196,118.921,121.276,125.446,129.196,131.003,133.201,137.656,142.516,145.711,147.908,152.633,157.636,162.361,164.716,169.718,173.888,177.638,179.836,183.586,188.446,193.171,197.896,202.351,205.546,208.463,210.661,213.578,218.581,222.886,225.803,228.001,232.448,237.308,239.506,244.231,248.536,251.453,253.808,257.978,262.98,265.898,269.648,271.846,274.763,278.933,283.936,288.661" y="651.501" svg_rhmargin="290.746" style="fill:#171615;font-family:IKGOXD+CaeciliaLTStd-Roman;font-size:7.5px;font-style:NORMAL;font-weight:normal;">rates among studies, our findings support that SZ patients tend </text>
  <text x="54.638,57.556,62.01,64.095,65.697,69.447,76.947,81.402,85.849,90.019,92.104,93.705,101.116,105.976,109.733,114.736,116.821,118.422,125.922,130.377,133.482,137.652,139.737,141.338,144.256,149.258,153.563,158.566,160.651,162.252,165.169,170.172,174.342,176.42700000000002,178.028,183.443,187.748,189.833,191.434,197.824,202.279,205.474,207.829,212.329,218.854,221.209,225.934,230.104,232.18900000000002,233.79,238.095,243.098,247.823,249.90800000000002,251.513,255.818,258.924,263.094,265.179,266.78,271.782,275.952,280.032,284.337,288.642" y="662.001" svg_rhmargin="290.727" style="fill:#171615;font-family:IKGOXD+CaeciliaLTStd-Roman;font-size:7.5px;font-style:NORMAL;font-weight:normal;">to smoke much more than the GP worldwide and are heavy </text>
  <text x="54.638,58.388,65.888,70.343,74.791,78.961,82.156,85.906" y="672.501" svg_rhmargin="87.991" style="fill:#171615;font-family:IKGOXD+CaeciliaLTStd-Roman;font-size:7.5px;font-style:NORMAL;font-weight:normal;">smokers.</text>
  <text x="66.638,69.143,74.146,76.231,78.143,81.061,86.063,90.233,92.318,94.23,96.503,100.808,105.533,109.838,114.841,119.011,122.761,126.931,129.016,130.928,135.653,140.108,144.833,149.693,152.048,156.353,159.271,161.626,166.081,171.083,174.833,176.918,178.831,182.581,185.498,190.358,195.083,197.438,201.608,206.333,208.141,210.226,212.138,216.586,221.446,223.531,225.443,230.168,234.473,237.391,239.745,243.915,248.918,251.835,255.585,257.67,259.583,263.333,270.833,275.288,279.736,283.906,288.631" y="683.001" svg_rhmargin="290.716" style="fill:#171615;font-family:IKGOXD+CaeciliaLTStd-Roman;font-size:7.5px;font-style:NORMAL;font-weight:normal;">In the Japanese populations studied, SZ patients smoked </text>
  <text x="54.638,58.943,63.668,68.393,71.498,75.908,80.356,82.711,90.211,94.516,97.433,101.603,103.868,108.173,110.258,110.971,115.141,117.226,117.938,120.856,123.211,130.711,134.881,138.631,140.716,141.428,145.733,149.483,151.568,152.281,159.691,164.551,168.308,173.311,175.39600000000002,176.108,180.413,184.163,186.24800000000002,186.961,189.878,194.881,199.051,201.136,201.848,207.263,211.568,213.65300000000002,214.366,218.671,223.673,228.398,230.483,231.196,237.031,242.168,245.918,247.726,249.811,250.523,255.661,260.116,267.616,272.341,276.646,279.751,283.921,288.646" y="693.501" svg_rhmargin="290.731" style="fill:#171615;font-family:IKGOXD+CaeciliaLTStd-Roman;font-size:7.5px;font-style:NORMAL;font-weight:normal;">approximately 2 times as much as the GP and HCs. Compared </text>
  <text x="54.638,61.163,63.518,66.436,71.438,73.541,76.459,81.461,85.631,87.735,94.125,98.58,101.775,104.13,108.63,115.155,117.51,122.235,126.405,128.508,134.208,139.068,141.171,143.526,147.831,152.556,157.281,160.387,164.797,169.244,171.599,179.099,183.404,186.321,190.491,192.756,197.061,199.164,203.334,205.689,207.793,210.898,214.978,219.703,224.158,227.353,230.271,234.441,239.166,241.269,243.624,248.626,250.73,255.035,257.139,261.864,264.969,268.914,273.219,275.574,280.029,284.889,288.639" y="704.001" svg_rhmargin="290.724" style="fill:#171615;font-family:IKGOXD+CaeciliaLTStd-Roman;font-size:7.5px;font-style:NORMAL;font-weight:normal;">with the worldwide OR (approximately 5) reported in a previous </text>
  <text x="54.638,62.138,66.308,69.226,73.531,76.583,80.888,85.891,90.196,92.461,96.766,100.516,102.871,106.621,108.488,110.843,115.568,119.738,121.606,125.776,129.946,134.401,139.403,141.271,145.576,150.578,155.303,157.171,162.863,165.218,169.523,173.55,175.358,177.225,181.395,185.565,189.735,193.905,196.26,198.068,199.935,202.853,207.855,212.025,213.893,219.593,224.453,226.32,228.675,233.678,235.545,237.818,242.123,246.848,251.153,256.155,258.023,264.458,268.763,272.513,274.38,276.735,281.01,286.845,288.653" y="714.501" svg_rhmargin="290.738" style="fill:#171615;font-family:IKGOXD+CaeciliaLTStd-Roman;font-size:7.5px;font-style:NORMAL;font-weight:normal;">meta-analysis (de Leon and Diaz, 2005), the OR in Japan was low. </text>
  <text x="54.638,57.143,62.146,64.231,65.757,68.674,73.677,77.847,79.93199999999999,81.458,86.183,89.288,93.458,97.208,101.378,106.38,109.298,111.383,112.909,120.409,124.579,127.497,131.802,134.854,139.159,144.162,148.467,150.732,155.037,158.787,161.142,164.892,166.699,168.78400000000002,170.31,173.228,178.23,182.4,184.485,186.012,191.712,196.572,200.322,202.407,203.933,208.238,215.738,220.193,225.195,229.365,231.45000000000002,232.977,236.727,239.644,244.504,249.229,251.584,255.754,259.504,261.589,263.115,266.176,270.481,275.484,279.744,283.914,288.639" y="725.001" svg_rhmargin="290.724" style="fill:#171615;font-family:IKGOXD+CaeciliaLTStd-Roman;font-size:7.5px;font-style:NORMAL;font-weight:normal;">In the present meta-analysis, the ORs among studies ranged </text>
  <text x="54.638,57.413,60.518,64.973,72.473,74.55799999999999,75.773,79.943,82.028,86.198,90.368,92.45299999999999,93.668,96.586,101.041,103.12599999999999,104.341,108.511,112.681,114.766,118.936,121.021,122.236,124.591,132.091,136.261,140.986,143.341,147.646" y="735.501" svg_rhmargin="152.648" style="fill:#171615;font-family:IKGOXD+CaeciliaLTStd-Roman;font-size:7.5px;font-style:NORMAL;font-weight:normal;">from 0.38 to 17.1 (median</text>
  <text y="735.501" svg_rhmargin="160.171" x="153.586,158.086" style="fill:#171615;font-family:GHCCVH+CaeciliaLTStd-Italic;font-size:7.5px;font-style:ITALIC;font-weight:normal;">= </text>
  <text x="159.023,163.193,165.278,169.448,173.618,175.426,177.511,178.725,186.225,190.395,194.7,199.702,200.64,205.14,206.077,210.525" y="735.501" svg_rhmargin="216.218" style="fill:#171615;font-family:IKGOXD+CaeciliaLTStd-Roman;font-size:7.5px;font-style:NORMAL;font-weight:normal;">1.97, mean ± SD</text>
  <text y="735.501" svg_rhmargin="223.74" x="217.155,221.655" style="fill:#171615;font-family:GHCCVH+CaeciliaLTStd-Italic;font-size:7.5px;font-style:ITALIC;font-weight:normal;">= </text>
  <text x="222.592,226.762,228.847,233.017,237.187,238.125,242.625,243.562,247.732,249.817,253.987,258.157,260.512,262.597,264.68199999999996,265.897,268.252,273.254,275.339,276.553,279.471,284.473,288.643" y="735.501" svg_rhmargin="290.728" style="fill:#171615;font-family:IKGOXD+CaeciliaLTStd-Roman;font-size:7.5px;font-style:NORMAL;font-weight:normal;">2.90 ± 3.74); in the </text>
  <text svg_rhmargin="290.716" x="54.638,59.363,62.468,66.413,70.718,73.073,77.528,82.388,86.138,88.223,89.993,97.493,101.663,104.581,108.886,111.938,116.243,121.246,125.551,127.816,132.121,135.871,138.226,141.976,143.783,145.868,147.638,150.556,155.558,159.728,161.81300000000002,163.583,169.283,174.143,177.893,179.978,181.748,186.053,193.553,198.008,203.01,207.18,209.26500000000001,211.035,214.785,217.703,222.563,227.288,229.643,233.813,237.563,239.648,241.418,244.478,248.783,253.785,258.046,262.216,266.941,269.02599999999995,270.796,273.571,276.676,281.131,288.631,290.71599999999995" y="368.504" style="fill:#171615;font-family:IKGOXD+CaeciliaLTStd-Roman;font-size:7.5px;font-style:NORMAL;font-weight:normal;">previous meta-analysis, the ORs among studies ranged from </text>
  <text x="306.638,310.808,312.893,317.063,321.233,323.318,325.951,328.868,333.323,335.40799999999996,338.041,342.211,346.381,348.466,352.636,354.721,357.353,359.708,367.208,371.378,376.103,378.458,382.763" y="368.504" svg_rhmargin="387.765" style="fill:#171615;font-family:IKGOXD+CaeciliaLTStd-Roman;font-size:7.5px;font-style:NORMAL;font-weight:normal;">0.74 to 26.0 (median</text>
  <text y="368.504" svg_rhmargin="395.288" x="388.703,393.203" style="fill:#171615;font-family:GHCCVH+CaeciliaLTStd-Italic;font-size:7.5px;font-style:ITALIC;font-weight:normal;">= </text>
  <text x="394.141,398.311,400.396,404.566,408.736,410.543,412.628,415.258,422.758,426.928,431.233,436.235,437.173,441.673,442.61,447.058" y="368.504" svg_rhmargin="452.751" style="fill:#171615;font-family:IKGOXD+CaeciliaLTStd-Roman;font-size:7.5px;font-style:NORMAL;font-weight:normal;">4.15, mean ± SD</text>
  <text y="368.504" svg_rhmargin="460.273" x="453.688,458.188" style="fill:#171615;font-family:GHCCVH+CaeciliaLTStd-Italic;font-size:7.5px;font-style:ITALIC;font-weight:normal;">= </text>
  <text x="459.125,463.295,465.38,469.55,473.72,474.658,479.158,480.095,484.265,486.35,490.52,494.69,497.045,498.853,500.938,503.568,505.923,510.925,515.65,518.005,521.898,526.203,529.12,531.475,536.478,540.648" y="368.504" svg_rhmargin="542.733" style="fill:#171615;font-family:IKGOXD+CaeciliaLTStd-Roman;font-size:7.5px;font-style:NORMAL;font-weight:normal;">5.58 ± 5.09), indicating </text>
  <text x="306.638,309.556,314.558,318.863,321.781,323.866,324.346,327.263,332.266,336.436,338.52099999999996,339.001,343.216,347.521,350.716,353.071,357.376,360.293,362.648,367.103,372.106,375.856,377.941,378.421,380.776,385.778,387.863,388.343,394.043,398.903,402.653,404.738,405.218,411.609,415.779,418.884,423.054,425.13899999999995,425.619,429.369,431.724,439.224,441.579,443.934,448.239,451.434,453.519,453.999,456.354,461.356,463.441,463.921,466.839,471.841,476.011,478.096,478.576,483.301,486.406,490.576,494.326,498.496,503.498,506.416,508.501,508.981,513.286,518.288,523.013,525.0980000000001,525.578,530.303,533.408,537.578" y="379.004" svg_rhmargin="540.631" style="fill:#171615;font-family:IKGOXD+CaeciliaLTStd-Roman;font-size:7.5px;font-style:NORMAL;font-weight:normal;">that the variations in ORs were similar in the present and pre-</text>
  <text x="306.638,310.943,313.298,317.753,322.613,326.363,328.448,329.603,337.103,341.273,344.19,348.495,351.548,355.853,360.855,365.16,367.425,371.73,375.48,379.65,383.4,385.208,387.293,388.167,393.725,397.475,399.56,400.715,404.465,411.965,416.42,420.867,423.222,428.225,432.395,434.47999999999996,435.631,438.692,442.997,445.914,450.085,453.835,455.91999999999996,457.074,461.379,464.484,468.655,470.73999999999995,471.895,476.065,479.125,483.43,488.155,493.014,497.319,499.674,501.94,506.245,508.33,509.481,514.206,518.376,522.268,525.373,529.543,533.848,537.598" y="389.504" svg_rhmargin="540.651" style="fill:#171615;font-family:IKGOXD+CaeciliaLTStd-Roman;font-size:7.5px;font-style:NORMAL;font-weight:normal;">vious meta-analyses. As smoking rates are gradually decreas-</text>
  <text x="306.638,308.993,313.996,318.166,320.251,320.918,323.836,328.838,331.943,336.398,341.258,345.428,350.431,354.886,359.746,362.663,364.748,365.416,368.333,373.336,377.506,379.59099999999995,380.258,386.648,391.103,394.298,396.653,401.378,403.186,405.27099999999996,405.938,408.856,413.858,418.028,420.113,420.781,425.506,430.366,434.723,437.078,439.433,443.326,447.631,450.548,452.903,457.358,462.361,464.44599999999997,465.113,469.284,473.454,477.759,480.954,483.039,483.706,488.161,490.936,493.02099999999996,493.689,496.606,501.609,505.779,507.864,508.531,510.886,515.889,519.781,522.136,526.996,531.721,535.891,540.616" y="400.004" svg_rhmargin="542.701" style="fill:#171615;font-family:IKGOXD+CaeciliaLTStd-Roman;font-size:7.5px;font-style:NORMAL;font-weight:normal;">ing throughout the world, the publication year of the included </text>
  <text x="306.638,310.388,313.306,318.165,322.891,325.246,329.416,333.166,335.618,343.118,347.198,351.503,353.956,358.958,363.038,367.253,371.423,373.876,378.181,380.956,383.731,387.901,391.793,394.711,398.881,403.606,406.058,408.976,413.978,418.148,420.601,426.301,431.161,434.911,436.718,438.613,443.623,448.625,452.795,455.248,458.998,461.915,466.775,471.5,473.855,478.025,481.775,484.228,486.583,491.585,495.478,497.833,502.693,507.418,511.588,516.313,518.765,521.12,526.123,528.575,531.493,536.495,540.665" y="410.504" svg_rhmargin="542.75" style="fill:#171615;font-family:IKGOXD+CaeciliaLTStd-Roman;font-size:7.5px;font-style:NORMAL;font-weight:normal;">studies may have affected the ORs. The studies included in the </text>
  <text x="306.638,311.363,314.468,318.638,322.388,326.558,331.561,334.478,336.563,337.276,344.776,348.946,351.863,356.168,359.221,363.526,368.528,372.833,375.098,379.403,383.153,385.508,389.258,391.34299999999996,392.056,398.446,402.616,405.721,409.891,411.976,412.688,417.413,422.273,426.631,428.986,431.341,435.091,440.093,444.263,448.988,451.073,451.786,456.233,460.403,463.321,469.711,473.881,478.051,483.053,485.138,485.851,490.021,494.191,498.361,502.531,504.616,505.328,509.633,514.636,519.361,521.446,522.158,526.328,530.498,534.668,538.838,540.646" y="421.004" svg_rhmargin="542.731" style="fill:#171615;font-family:IKGOXD+CaeciliaLTStd-Roman;font-size:7.5px;font-style:NORMAL;font-weight:normal;">present meta-analysis were published between 1999 and 2017, </text>
  <text x="306.638,313.163,318.165,320.521,322.876,327.046,329.131,329.813,332.731,337.733,341.903,343.988,344.671,348.421,351.338,356.198,360.923,363.278,367.448,371.198,373.28299999999996,373.966,376.321,381.323,385.216,387.571,392.431,397.156,401.326,406.051,408.13599999999997,408.818,411.173,416.176,418.26099999999997,418.943,421.861,426.863,431.033,433.118,433.801,438.526,441.631,445.576,449.881,452.236,456.691,461.551,465.301,467.38599999999997,468.068,475.568,479.738,482.656,486.961,490.013,494.318,499.321,503.626,505.891,510.196,513.946,516.301,520.051,522.1360000000001,522.818,529.208,533.378,536.483,540.653" y="431.504" svg_rhmargin="542.738" style="fill:#171615;font-family:IKGOXD+CaeciliaLTStd-Roman;font-size:7.5px;font-style:NORMAL;font-weight:normal;">while the studies included in the previous meta-analysis were </text>
  <text x="306.638,311.363,316.223,320.581,322.936,325.291,329.041,334.043,338.213,342.938,344.716,349.163,353.333,356.251,362.641,366.811,370.981,375.983,377.761,381.931,386.101,390.271,394.441,396.218,400.523,405.526,410.251,412.028,416.198,420.368,424.538,428.708,430.516,431.736,436.746,441.748,445.918,447.696,450.756,455.061,460.063,464.323,468.493,472.243,474.02,478.475,481.25,483.028,487.198,491.368,495.673,498.868,502.618,504.395,510.785,514.955,518.06,522.23,524.008,527.758,530.113,537.613" y="442.004" svg_rhmargin="540.666" style="fill:#171615;font-family:IKGOXD+CaeciliaLTStd-Roman;font-size:7.5px;font-style:NORMAL;font-weight:normal;">published between 1984 and 2005. The ranges of years were sim-</text>
  <text x="306.638,308.993,311.348,315.653,318.848,320.933,321.991,324.766,329.22,332.415,334.5,335.558,338.475,343.478,347.648,349.733,350.79,354.961,357.046,358.103,365.603,369.773,372.691,376.996,380.048,384.353,389.355,393.66,395.926,400.23,403.98,408.151,411.901,413.708,415.793,416.439,424.494,429.496,433.666,438.669,440.75399999999996,441.811,448.201,452.371,454.45599999999996,455.514,459.406,463.861,468.864,472.614,474.969,479.694,483.864,486.969,491.139,495.864,497.94899999999996,499.006,501.924,506.926,511.096,513.181,514.239,518.964,523.269,526.186,528.541,532.711,537.714,540.631" y="452.504" svg_rhmargin="542.716" style="fill:#171615;font-family:IKGOXD+CaeciliaLTStd-Roman;font-size:7.5px;font-style:NORMAL;font-weight:normal;">ilar for the 2 meta-analyses. When we considered the patient </text>
  <text x="306.638,309.743,313.913,317.806,321.001,325.861,328.216,331.133,338.633,342.803,347.806,350.723,352.808,353.678,357.848,362.018,366.323,369.518,371.60299999999995,372.473,374.828,379.831,381.916,382.786,387.241,392.1,395.296,397.381,398.25,405.75,409.921,412.838,417.143,420.195,423.301,427.336,431.506,434.611,438.781,442.531,446.281,448.636,453.091,458.094,460.179,461.049,465.354,470.356,474.661,476.926,481.231,484.981,487.336,491.086,492.894,494.979,495.849,498.766,503.769,507.939,510.024,510.894,515.619,520.621,525.346,527.701,532.704,536.874,540.624" y="463.004" svg_rhmargin="542.709" style="fill:#171615;font-family:IKGOXD+CaeciliaLTStd-Roman;font-size:7.5px;font-style:NORMAL;font-weight:normal;">recruitment year in our meta-regression analysis, the findings </text>
  <text x="306.638,310.388,315.248,319.418,323.678,327.848,331.598,334.516,338.686,343.411,345.496,346.343,349.261,354.263,358.568,361.486,363.57099999999997,364.418,368.866,373.726,375.811,376.658,381.383,385.688,388.606,390.961,395.131,400.133,403.051,406.801,408.88599999999997,409.733,414.038,417.143,421.313,423.39799999999997,424.246,428.971,432.076,436.531,441.533,445.703,447.78799999999995,448.636,451.553,456.008,458.09299999999996,458.941,462.691,470.191,474.646,479.093,483.263,485.34799999999996,486.196,493.696,498.151,501.256,505.426,507.51099999999997,508.358,511.276,516.278,520.583,525.586,527.671,528.518,531.436,536.438,540.608" y="473.504" svg_rhmargin="542.693" style="fill:#171615;font-family:IKGOXD+CaeciliaLTStd-Roman;font-size:7.5px;font-style:NORMAL;font-weight:normal;">suggested that SZ patients are prone to smoke more than the </text>
  <text x="306.638,312.053,316.358,318.203,321.308,325.343,329.558,333.863,336.878,341.603,343.958,348.128,351.878,355.628,357.473,361.928,364.703,366.548,369.466,374.468,378.638,380.993,384.188,386.033,389.926,394.381,399.241,404.243,407.161,410.266,414.571,416.416,420.871,423.646,425.491,429.946,433.141,435.496,439.756,442.111,447.114,448.921,450.766,453.121,458.123,462.016,464.371,469.231,473.956,476.311,481.313,485.483,487.328,489.601,493.906,498.631,502.936,507.938,509.746,511.591,518.116,520.471,523.388,528.391,532.846,537.706,540.623" y="484.004" svg_rhmargin="542.708" style="fill:#171615;font-family:IKGOXD+CaeciliaLTStd-Roman;font-size:7.5px;font-style:NORMAL;font-weight:normal;">GP regardless of their country of origin, including Japan, without </text>
  <text x="306.638,310.853,315.158,318.353,320.708,325.013,327.931,330.286,334.741,339.743,341.446,345.751,349.643,353.535,357.99,361.005,365.73,368.086,373.088,377.258,378.961,381.878,386.333,388.036,392.761,397.066,399.983,402.338,406.508,411.511,414.428,416.131,420.346,424.606,428.776,430.861,432.563,437.566,441.841,448.231,452.176,456.391,460.561,463.343,465.151,466.853,469.771,474.773,478.943,480.646,485.371,487.726,490.501,493.276,497.446,500.551,504.721,509.723,513.616,517.786,519.488,521.843,526.846,528.548,531.466,536.468,540.638" y="494.504" svg_rhmargin="542.723" style="fill:#171615;font-family:IKGOXD+CaeciliaLTStd-Roman;font-size:7.5px;font-style:NORMAL;font-weight:normal;">variation according to patient age; however, the difference in the </text>
  <text x="306.638,310.53,315.39,318.585,321.69,325.861,330.863,333.781,336.053,339.803,347.303,351.758,356.206,358.561,363.563,367.733,370.006,373.065,377.37,380.287,384.457,388.207,390.48,394.935,397.71,399.982,404.43,409.29,411.562,416.287,420.592,423.51,425.865,430.035,435.037,437.955,441.705,443.977,448.282,453.285,458.01,460.282,463.2,468.202,472.372,474.645,480.06,484.365,486.637,493.072,497.377,501.127,503.4,507.15,514.65,518.955,521.31,523.665,527.835,531.03,533.302,535.657,540.66" y="505.004" svg_rhmargin="542.745" style="fill:#171615;font-family:IKGOXD+CaeciliaLTStd-Roman;font-size:7.5px;font-style:NORMAL;font-weight:normal;">current smoking rates of SZ patients and the GP was smaller in </text>
  <text x="306.638,308.91,313.215,317.94,322.245,327.248,329.333,332.25,337.253,341.558,346.56,348.645,351.0,356.003,358.088,361.005,366.008,370.178,372.263,375.368,379.538,383.288,386.206,388.291,392.746,395.521,397.605,400.523,405.526,409.696,411.781,418.171,422.626,425.821,428.176,432.901" y="515.504" svg_rhmargin="434.986" style="fill:#171615;font-family:IKGOXD+CaeciliaLTStd-Roman;font-size:7.5px;font-style:NORMAL;font-weight:normal;">Japan than in the rest of the world.</text>
  <text x="318.638,326.138,330.308,332.468,336.361,340.815,345.675,348.03,352.755,354.915,359.918,364.373,367.29,369.451,373.201,376.118,380.423,383.341,385.696,389.446,392.363,394.718,398.611,402.916,405.271,407.536,411.841,414.001,417.893,422.348,429.848,434.573,438.878,441.983,446.153,448.313,453.451,457.756,463.448,465.608,470.056,474.226,477.143,483.533,487.703,491.873,496.876,499.036,503.483,508.343,510.503,515.228,519.533,522.451,524.806,528.976,533.978,536.896,540.646" y="526.004" svg_rhmargin="542.731" style="fill:#171615;font-family:IKGOXD+CaeciliaLTStd-Roman;font-size:7.5px;font-style:NORMAL;font-weight:normal;">We could not statistically compare CPD between SZ patients </text>
  <text x="306.638,310.943,315.945,320.671,322.756,323.528,326.446,331.448,335.618,337.703,338.476,343.891,348.196,350.281,351.053,353.408,358.411,360.496,361.268,365.573,367.65799999999996,368.431,370.703,375.008,379.733,384.038,389.041,393.211,396.961,401.131,403.21599999999995,403.988,408.713,413.168,417.893,422.753,425.108,429.413,432.331,434.686,439.141,444.143,446.22799999999995,447.001,451.448,455.618,459.511,463.816,468.676,472.426,476.596,478.681,479.453,483.908,486.683,488.768,489.541,494.266,496.621,499.396,502.171,506.341,509.446,513.616,518.618,522.511,526.681,530.431,532.5160000000001,533.288,535.643,540.646" y="536.504" svg_rhmargin="542.731" style="fill:#171615;font-family:IKGOXD+CaeciliaLTStd-Roman;font-size:7.5px;font-style:NORMAL;font-weight:normal;">and the GP in a Japanese population because of differences in </text>
  <text x="306.638,309.556,314.558,318.728,320.798,325.523,329.828,332.746,337.051,339.121,343.013,347.468,349.823,352.178,356.348,360.241,363.158,367.328,372.053,374.123,376.898,380.003,384.458,391.958,394.028,398.476,403.336,405.406,410.131,414.436,417.353,419.708,423.878,428.881,431.798,435.548,437.618,441.923,446.926,451.651,453.721,456.638,461.641,465.811,467.881,473.296,476.632,478.44,480.51,484.957,489.817,492.735,494.805,497.722,502.725,506.895,508.965,514.102,518.407,524.1,526.17,532.605,536.91,540.66" y="547.004" svg_rhmargin="542.745" style="fill:#171615;font-family:IKGOXD+CaeciliaLTStd-Roman;font-size:7.5px;font-style:NORMAL;font-weight:normal;">the data collected from SZ patients and the GP, but the CPD was </text>
  <text x="306.638,311.641,313.996,318.166,323.168,327.338,330.533,332.618,333.361,337.666,345.166,349.621,354.623,358.793,360.878,361.621,364.538,369.541,373.711,375.796,376.538,380.986,385.846,387.931,388.673,393.398,397.703,400.621,402.976,407.146,412.148,415.066,418.816,420.90099999999995,421.643,423.998,428.168,432.338,434.423,438.593,440.948,443.03299999999996,443.776,446.693,451.696,456.001,461.003,463.08799999999997,463.831,468.136,475.636,480.091,485.093,489.263,491.34799999999996,492.091,495.008,500.011,504.181,506.26599999999996,507.008,512.423,516.728,518.813,519.556,521.911,526.081,530.251,532.336,536.506,538.861,540.668" y="557.504" svg_rhmargin="542.753" style="fill:#171615;font-family:IKGOXD+CaeciliaLTStd-Roman;font-size:7.5px;font-style:NORMAL;font-weight:normal;">higher among the SZ patients (22.0) than among the GP (18.8). </text>
  <text x="306.638,312.473,316.748,323.138,327.083,331.298,335.468,338.25,340.058,342.143,344.205,348.51,356.01,360.465,365.468,369.638,371.72299999999996,373.785,378.24,383.1,386.295,388.38,390.443,394.335,398.64,402.39,406.56,409.613,413.505,417.96,422.963,425.88,428.985,433.44,435.795,437.88,439.943,443.693,448.553,453.0,455.355,459.525,463.418,466.335,470.085,471.893,473.97799999999995,476.04,478.958,483.96,488.13,490.215,492.278,497.415,501.72,507.413,509.498,511.56,516.473,521.333,528.833,533.28,537.45,540.645" y="568.004" svg_rhmargin="542.73" style="fill:#171615;font-family:IKGOXD+CaeciliaLTStd-Roman;font-size:7.5px;font-style:NORMAL;font-weight:normal;">However, among our case-control subjects, the CPD number </text>
  <text x="306.638,310.943,318.443,322.898,327.9,332.07,334.155,334.898,337.816,342.818,346.988,349.073,349.816,353.708,358.568,361.763,364.868,369.038,374.041,376.958,379.043,379.786,383.536,391.036,395.491,399.938,404.108,407.303,411.053,413.138,413.881,420.316,424.621,428.371,430.45599999999996,431.198,434.948,437.866,442.171,445.088,447.443,451.193,454.111,456.466,460.358,464.663,467.018,469.283,473.588,475.673,476.416,481.418,483.773,487.943,492.946,497.116,500.311,502.39599999999996,503.138,505.913,510.368,513.563,515.648,516.391,519.308,524.311,528.481,530.566,531.308,535.756,540.616" y="578.504" svg_rhmargin="542.701" style="fill:#171615;font-family:IKGOXD+CaeciliaLTStd-Roman;font-size:7.5px;font-style:NORMAL;font-weight:normal;">among the current smokers was statistically higher for the SZ </text>
  <text x="306.638,311.363,315.668,318.586,320.941,325.111,330.113,333.031,336.781,338.866,341.221,345.391,349.561,351.646,355.816,356.753,361.253,362.19,366.361,370.531,372.616,376.786,379.141,381.226,384.143,389.146,393.451,398.453,400.538,403.313,407.768,410.963,413.048,415.966,420.968,425.138,427.223,433.058,438.196,441.946,444.031,446.386,450.556,454.726,456.811,460.981,461.903,466.403,467.34,471.51,473.595,477.766,480.121,481.928,484.013,487.763,492.623,496.793,501.053,505.223,508.973,511.891,514.246,519.248,523.418,525.503,528.421,533.423,537.728,540.646" y="589.004" svg_rhmargin="542.731" style="fill:#171615;font-family:IKGOXD+CaeciliaLTStd-Roman;font-size:7.5px;font-style:NORMAL;font-weight:normal;">patients (21.1 ± 13.9) than for the HCs (14.5 ± 6.5), suggesting that </text>
  <text x="306.638,308.91,313.215,317.94,322.245,327.248,331.418,335.168,339.338,341.596,346.043,350.903,353.161,357.886,362.191,365.108,367.463,371.633,376.636,379.553,383.303,385.561,389.866,392.971,397.141,399.398,404.401,408.571,412.651,416.956,421.261,423.518,427.268,434.768,439.223,443.671,447.841,451.036,454.786,456.592,458.85,462.6,464.955,472.455,474.81,477.165,481.47,484.665,486.922,489.84,494.295,496.552,499.47,504.472,508.642,510.9,515.625,520.627,525.352,527.707,532.71,536.88,540.63" y="599.504" svg_rhmargin="542.715" style="fill:#171615;font-family:IKGOXD+CaeciliaLTStd-Roman;font-size:7.5px;font-style:NORMAL;font-weight:normal;">Japanese SZ patients are heavy smokers, similar to the findings </text>
  <text x="306.638,309.413,312.518,316.973,324.473,326.558,331.013,333.93,338.933,343.103,346.298,348.383,352.275,356.73,361.59,366.593,369.51,372.705,375.06,379.23,382.98,385.065,387.421,392.146,396.316,398.401,402.571,406.741,411.196,416.198,418.283,422.588,427.591,432.316,434.401,440.093,442.448,446.753,450.781,452.588,454.673,458.843,463.013,467.183,471.353,473.708" y="610.004" svg_rhmargin="475.793" style="fill:#171615;font-family:IKGOXD+CaeciliaLTStd-Roman;font-size:7.5px;font-style:NORMAL;font-weight:normal;">from other countries (de Leon and Diaz, 2005).</text>
  <text x="318.638,324.195,327.945,330.03,331.283,334.201,339.203,343.373,346.478,350.648,352.733,353.986,358.988,363.067,367.282,371.452,373.537,374.79,379.237,383.407,387.577,392.58,394.66499999999996,395.917,399.667,402.585,405.69,410.145,415.147,419.317,421.402,422.655,426.915,431.085,436.087,440.812,444.982,448.177,450.262,451.515,456.24,458.595,461.37,464.145,468.315,471.42,475.59,480.592,484.485,488.655,492.405,494.48999999999995,495.742,500.197,505.2,507.28499999999997,508.537,511.455,516.457,520.627,522.712,523.965,526.32,531.322,535.215,537.57" y="620.504" svg_rhmargin="540.623" style="fill:#171615;font-family:IKGOXD+CaeciliaLTStd-Roman;font-size:7.5px;font-style:NORMAL;font-weight:normal;">As there have been strong gender differences on the inci-</text>
  <text x="306.638,311.363,315.533,320.536,324.428,328.598,332.348,334.433,335.693,340.148,342.923,345.008,346.268,350.018,357.518,361.973,366.421,368.776,373.778,377.948,379.756,381.84099999999995,383.101,389.491,393.661,395.746,397.006,399.361,404.138,408.353,412.523,416.273,419.191,421.546,425.761,430.066,432.983,437.153,441.878,443.96299999999997,445.223,448.141,453.143,457.313,459.39799999999997,460.658,464.551,469.411,472.606,475.711,479.881,484.883,487.801,489.88599999999997,491.146,494.896,502.396,506.851,511.298,513.653,518.656,522.826,524.9110000000001,526.171,529.231,533.536,536.453,540.623" y="631.004" svg_rhmargin="542.708" style="fill:#171615;font-family:IKGOXD+CaeciliaLTStd-Roman;font-size:7.5px;font-style:NORMAL;font-weight:normal;">dences of smoking, we investigated the current smoking rate </text>
  <text x="306.638,310.388,313.306,316.366,320.671,323.588,325.943,330.668,334.838,339.563,341.198,345.421,349.726,351.361,355.621,359.791,364.793,369.518,373.688,376.883,378.518,380.873,388.373,392.678,395.033,399.203,400.838,405.143,410.146,414.871,416.506,419.281,423.451,430.951,435.256,437.611,441.781,444.136,445.771,448.126,453.128,454.763,457.681,462.683,465.038,468.788,470.423,474.173,477.091,481.951,486.496,490.111,491.918,493.553,496.058,501.061,505.786,509.956,514.126,518.851,520.658,522.293,529.793,534.098,536.453,540.623" y="641.504" svg_rhmargin="542.708" style="fill:#171615;font-family:IKGOXD+CaeciliaLTStd-Roman;font-size:7.5px;font-style:NORMAL;font-weight:normal;">stratified by gender (male and female) in this study. Indeed, male </text>
  <text x="306.638,310.388,317.888,322.343,326.79,330.961,334.156,337.906,339.766,344.768,349.073,353.798,355.658,359.963,364.965,366.825,371.28,375.548,379.853,382.208,386.663,391.523,395.273,397.538,401.843,403.703,408.705,411.06,415.23,420.233,424.403,427.598,429.458,434.183,437.288,441.233,445.448,449.753,452.108,456.278,461.281,465.173,469.343,471.203,474.121,479.123,483.428,488.431,490.29,493.065,497.236,504.736,509.04,511.396,515.565,517.425,521.175,528.675,533.13,537.578" y="652.004" svg_rhmargin="540.631" style="fill:#171615;font-family:IKGOXD+CaeciliaLTStd-Roman;font-size:7.5px;font-style:NORMAL;font-weight:normal;">smokers had an obviously higher prevalence than female smok-</text>
  <text x="306.638,310.808,314.003,317.753,319.83799999999997,320.903,325.208,332.708,337.163,342.165,346.336,348.421,349.486,352.403,357.406,361.576,363.661,364.726,369.173,374.033,376.118,377.183,381.908,386.213,389.131,391.486,395.656,400.658,403.576,407.326,409.133,411.21799999999996,412.283,415.201,420.203,424.373,426.45799999999997,427.523,432.938,436.275,438.083,440.168,441.233,445.538,450.541,455.266,457.351,458.416,464.251,469.388,473.138,475.22299999999996,476.288,480.458,483.563,488.018,492.878,497.603,501.353,503.438,504.503,506.858,510.893,513.248,517.418,522.278,525.383,529.553,533.303,535.388,536.455,540.625" y="662.504" svg_rhmargin="542.71" style="fill:#171615;font-family:IKGOXD+CaeciliaLTStd-Roman;font-size:7.5px;font-style:NORMAL;font-weight:normal;">ers among the SZ patients, the GP, and HCs groups (Figures  2 </text>
  <text x="306.638,310.943,315.945,320.671,322.681,326.851,329.206,331.013,333.023,335.528,340.531,342.541,346.846,348.856,353.581,356.686,360.631,364.936,367.291,371.746,376.606,380.356,382.366,389.866,394.036,396.953,401.258,404.311,408.616,413.618,417.923,420.188,424.493,428.243,430.598,434.348,436.358,438.713,443.438,447.608,449.618,453.788,457.958,462.413,467.416,469.426,473.731,478.733,483.458,485.468,491.161,493.516,497.821,501.848,503.656,505.666,509.836,514.006,518.176,522.346,524.701,526.508,528.518,531.436,536.438,540.608" y="673.004" svg_rhmargin="542.693" style="fill:#171615;font-family:IKGOXD+CaeciliaLTStd-Roman;font-size:7.5px;font-style:NORMAL;font-weight:normal;">and 3). In a previous meta-analysis (de Leon and Diaz, 2005), the </text>
  <text x="306.638,312.338,317.198,319.106,323.411,330.911,335.366,340.368,344.539,346.447,353.947,358.252,360.607,364.777,366.685,370.435,373.353,378.213,382.938,385.293,389.463,393.213,395.122,397.477,401.647,403.732,407.902,409.81,412.165,417.302,419.807,421.615,423.523,427.693,429.778,433.948,437.698,441.868,443.953,448.123,450.478,452.833,454.741,461.177,465.482,469.232,471.141,476.143,478.498,482.668,487.671,491.841,495.036,496.944,499.862,504.864,509.169,514.172,516.08,518.998,524.0,528.17,530.078,535.778,540.638" y="683.504" svg_rhmargin="542.723" style="fill:#171615;font-family:IKGOXD+CaeciliaLTStd-Roman;font-size:7.5px;font-style:NORMAL;font-weight:normal;">OR among male studies [7.2 (CI, 6.1–8.3)] was higher than the OR </text>
  <text x="306.638,310.943,318.443,322.898,327.9,332.07,334.035,336.81,340.98,348.48,352.785,355.141,359.311,361.276,365.026,367.943,372.803,377.528,379.883,384.053,387.803,389.768,392.123,396.293,398.378,402.548,404.513,406.868,412.006,414.511,416.318,418.283,422.453,424.538,428.708,432.458,436.628,438.713,442.883,445.238,447.593,449.401,451.366,456.503,460.958,465.961,469.711,472.066,475.816,478.733,482.903,487.906,490.823,492.788,499.313,501.668,504.586,509.588,511.553,514.471,519.473,523.643,525.608,530.333,533.438,537.608" y="694.004" svg_rhmargin="540.661" style="fill:#171615;font-family:IKGOXD+CaeciliaLTStd-Roman;font-size:7.5px;font-style:NORMAL;font-weight:normal;">among female studies [3.3 (CI, 3.0–3.6)]. Consistent with the pre-</text>
  <text x="306.638,310.943,313.298,317.753,322.613,326.363,328.215,331.965,334.883,339.743,344.288,347.903,349.71,351.563,354.48,359.483,363.653,365.506,371.206,376.066,379.816,381.668,385.973,393.473,397.928,402.931,407.101,408.953,416.453,420.758,423.113,427.283,429.136,432.886,435.803,440.663,445.388,447.743,451.913,455.663,457.516,462.376,466.126,468.481,473.483,477.653,479.506,482.423,487.426,491.596,493.448,499.283,504.421,508.171,510.023,512.378,516.548,518.633,522.803,526.973,528.826,531.181,536.318,538.823,540.631" y="704.504" svg_rhmargin="542.716" style="fill:#171615;font-family:IKGOXD+CaeciliaLTStd-Roman;font-size:7.5px;font-style:NORMAL;font-weight:normal;">vious study, the ORs among male studies using the HCs [2.84 (CI, </text>
  <text x="306.638,310.808,312.893,317.063,321.233,324.983,329.153,331.238,335.408,339.578,341.933,344.288,346.373,346.943,353.378,357.683,361.433,363.518,364.088,369.091,371.446,375.616,380.618,384.788,387.983,390.068,390.638,393.556,398.558,402.863,407.866,409.95099999999996,410.521,413.438,418.441,422.611,424.69599999999997,425.266,430.966,435.826,437.911,438.481,442.786,450.286,454.741,459.743,463.913,465.998,466.568,469.343,473.513,481.013,485.318,487.673,491.843,493.928,494.498,498.248,501.166,506.026,510.751,513.106,517.276,521.026,523.111,523.681,526.036,530.206,532.291,536.461,540.631" y="715.004" svg_rhmargin="542.716" style="fill:#171615;font-family:IKGOXD+CaeciliaLTStd-Roman;font-size:7.5px;font-style:NORMAL;font-weight:normal;">1.29–6.25)] was higher than the OR among female studies [1.36 </text>
  <text x="306.638,308.993,314.131,316.636,318.443,320.52799999999996,322.411,326.581,328.666,332.836,337.006,340.756,344.926,347.011,351.181,355.351,357.706,360.061,362.14599999999996,364.028,366.383,371.386,373.471,375.353,378.271,383.273,387.443,389.52799999999996,391.411,396.136,399.241,403.411,407.161,411.331,416.333,419.251,421.33599999999996,423.218,430.718,434.888,437.806,442.111,445.163,449.468,454.471,458.776,461.041,465.346,469.096,471.451,475.201,477.008,479.09299999999996,480.976,483.481,488.483,490.568,492.451,496.343,500.798,505.801,508.718,511.779,516.084,519.834,522.751,524.559,526.644,528.526,531.444,536.446,540.616" y="725.504" svg_rhmargin="542.701" style="fill:#171615;font-family:IKGOXD+CaeciliaLTStd-Roman;font-size:7.5px;font-style:NORMAL;font-weight:normal;">(CI, 0.52–3.52)] in the present meta-analysis. In contrast, the </text>
  <text x="306.638,312.338,317.198,319.28299999999996,320.228,324.533,332.033,336.488,341.49,345.66,347.745,348.69,356.19,360.495,362.85,367.021,369.106,370.051,373.801,376.718,381.578,386.303,388.658,392.828,396.578,398.66299999999995,399.608,404.468,408.218,410.573,415.576,419.746,421.83099999999996,422.776,425.693,430.696,434.866,436.95099999999996,437.896,443.311,447.616,449.70099999999996,450.646,453.001,457.171,459.256,463.426,467.596,469.681,470.626,472.981,478.118,480.623,482.431,484.51599999999996,485.461,489.631,491.716,495.886,500.056,503.806,507.976,510.061,514.231,518.401,520.756,523.111,525.196,526.141,532.576,536.881,540.631" y="736.004" svg_rhmargin="542.716" style="fill:#171615;font-family:IKGOXD+CaeciliaLTStd-Roman;font-size:7.5px;font-style:NORMAL;font-weight:normal;">OR among male studies using the GP [1.53 (CI, 1.03–2.27)] was </text>
  <text x="306.638,308.993,313.268,319.658,323.828,327.023,329.108,330.165,333.083,338.086,342.391,347.393,349.47799999999995,350.535,353.453,358.456,362.626,364.71099999999996,365.768,371.468,376.328,378.41299999999995,379.47,383.775,391.275,395.73,400.733,404.903,406.988,408.045,410.82,414.99,422.49,426.795,429.15,433.32,435.405,436.463,440.213,443.13,447.99,452.715,455.07,459.241,462.991,465.07599999999996,466.133,468.488,472.658,474.743,478.913,483.083,485.168,486.226,488.581,493.718,496.223,498.031,500.116,501.173,505.343,507.428,511.598,515.768,519.518,523.688,525.773,529.943,534.113,536.468,538.823,540.63" y="746.504" svg_rhmargin="542.715" style="fill:#171615;font-family:IKGOXD+CaeciliaLTStd-Roman;font-size:7.5px;font-style:NORMAL;font-weight:normal;">lower than the OR among female studies [2.40 (CI, 1.62–3.53)]. </text>
  <rect style="stroke:blue;stroke-width:0.3;" x="93.009" y="78.638" height="217.096" width="409.259" title="6"/>
  <text x="93.009" y="78.638" class="image" id="image.6.1" width="409" height="217">image.6.1.93_502.79_296</text>
  <text x="54.638,57.902,59.792,63.236,67.238,69.794,73.13,74.635,78.187" y="311.734" svg_rhmargin="79.963" style="fill:#171615;font-family:PSSERP+CaeciliaLTStd-Bold;font-size:6.0px;font-style:NORMAL;font-weight:bold;">Figure 3.</text>
  <text y="311.734" svg_rhmargin="542.358" x="82.964,86.12,89.684,92.168,95.504,98.504,100.838,102.254,106.034,107.918,111.482,113.816,116.816,118.232,122.012,125.348,131.348,134.912,138.914,141.914,144.248,146.696,150.14,152.474,154.358,158.36,161.696,163.112,165.446,169.448,172.784,174.2,178.76,182.648,185.648,187.064,190.628,192.848,194.264,196.598,200.6,203.936,205.352,209.132,211.016,213.236,215.456,218.792,221.276,224.612,228.614,231.728,235.064,238.064,239.48,241.364,245.366,246.782,249.116,253.118,256.454,257.87,260.984,264.872,267.428,269.912,273.248,277.25,279.584,281.0,284.0,290.0,293.564,297.122,299.006,303.008,306.344,307.76,310.208,313.652,315.986,319.322,320.738,324.296,327.632,329.966,335.078,338.414,341.75,345.752,347.168,350.168,353.174,357.176,359.06,362.282,365.846,369.626,373.628,376.112,379.448,383.45,385.334,388.778,390.194,392.078,395.636,399.524,401.408,402.824,406.604,410.048,412.382,414.266,417.602,421.604,423.938,426.938,428.354,431.798,435.8,439.58,440.996,444.998,448.334,451.778,453.662,455.996,459.817,463.261,464.677,467.791,471.355,475.357,477.691,480.175,483.739,485.623,488.623,490.039,491.923,496.591,500.701,503.701,505.585,507.031,508.002,512.01,516.012,519.348,520.764,523.248,526.584,529.584,533.472,535.356,537.69,540.69" style="fill:#171615;font-family:IKGOXD+CaeciliaLTStd-Roman;font-size:6.0px;font-style:NORMAL;font-weight:normal;">Forest plots demonstrating the ORs of the differences in the current smoking rate between schizophrenia (SZ) patients and healthy controls (HCs). The results </text>
  <text x="54.638,58.082,60.566,63.902,65.732,69.512,71.996,75.332,78.332,81.668,85.67,88.004,91.34,95.12,96.95,100.838,103.838,105.722,109.724,113.06,114.89,119.45,123.338,126.338,128.168,133.388,135.272,137.606,141.608,143.438,146.774,150.11,155.108,156.938,161.048,163.052,166.052,167.882,169.766,173.768,175.598,177.932,181.934,185.27,187.1,189.32,192.884,195.368,198.704,201.704,204.038,205.868,209.648,211.532,215.096,217.43,220.43,222.26,224.48,228.044,230.6,232.43,235.766,239.21,242.216,246.218,248.048,251.048,253.382,257.27,260.906,263.798,265.244,266.63,270.638,274.64,277.976,279.806,283.586,285.47,288.914,294.914,298.478,302.48,306.26,308.09,309.974,313.46,315.344,319.232,322.568,324.236,326.066,332.066,335.51,337.394,340.622,342.068,343.898,346.382,349.718,353.498,355.166,356.996,359.216,362.552,368.552,371.996,373.88,377.108,378.554,380.384,383.87,385.754,389.198,392.204,395.762,397.43,399.26,402.374,405.938,411.938,415.496,417.38,421.382,424.718,428.498,430.382,432.212,434.096,438.098,439.928,442.262,446.264,449.6,451.43,454.988,458.552,460.886,463.22,466.784,472.784,474.614,478.394,481.958,484.514,486.848,488.732,492.296,496.298,498.128,500.612,503.876,507.656,510.14,513.477,516.477,519.813,523.815,526.148,529.148,530.979,533.313,537.315,540.651" y="320.734" svg_rhmargin="542.319" style="fill:#171615;font-family:IKGOXD+CaeciliaLTStd-Roman;font-size:6.0px;font-style:NORMAL;font-weight:normal;">are presented using ORs with 95% CIs in the forest plots for each study. The diamond (blue: male, red: female, black: combined) in the bottom portion represents the </text>
  <text x="54.638,58.418,61.982,65.546,67.43,70.766,74.546,76.046,80.606,84.494,85.994,91.214,93.098,95.432,99.434,100.934,104.378,105.878,109.214,112.55,117.548,119.048,123.158,125.162,126.608,127.885,132.331,133.83,137.61,141.174,144.174,146.058,148.392,150.204,153.576,156.912,158.412,162.972,166.86,168.36,170.244,174.246,178.026,179.91,183.024,186.468,188.802,192.138,195.138,196.638,198.972,202.974,206.418,208.752,210.252,213.81,217.698,219.198,222.978,226.422,228.756,230.64,233.976,237.978,240.312,243.312,244.812,248.814,252.078,255.45,258.786,260.286,263.73,265.23,269.232,271.116,274.452,278.454,281.79,284.346,285.846,289.626,292.11,295.266,298.638,302.082,303.966,307.302,311.304,314.418,317.754,319.254,322.818,325.038,326.538,329.652,333.54,336.096,338.58,341.916,345.918,348.252,349.752,352.752,358.752,362.316,365.874,367.758,371.76,375.096,376.596,378.93,382.932,386.376,390.378,391.878,396.546,400.656,403.656,405.102,406.602,411.822,415.824,417.708,419.592,422.928,424.428,427.872,429.372,433.374,436.603,439.974,443.418,445.752,447.564,450.936,454.272,455.772,460.332,464.22,465.72,467.604,471.606,475.386,477.27,480.384,483.828,486.162,489.498,492.498,493.998,496.332,500.334,503.778,506.112,507.612,511.17,515.058,516.558,520.338,523.782,526.116,528.0,531.336,535.338,537.672,540.672" y="329.734" svg_rhmargin="542.34" style="fill:#171615;font-family:IKGOXD+CaeciliaLTStd-Roman;font-size:6.0px;font-style:NORMAL;font-weight:normal;">pooled OR with a 95% CI. A positive OR indicates that SZ patients have a higher prevalence of current smoking than HCs, while a negative OR indicates that SZ patients </text>
  <text x="54.638,58.64,61.904,65.276,68.612,70.28,73.724,75.392,77.276,80.696,85.808,89.144,91.7,93.368,97.148,99.632,102.788,106.16,109.604,111.488,114.824,118.826,121.94,125.276,126.944,129.278,133.28,136.724,140.726,142.394,147.062,151.172,154.172" y="338.734" svg_rhmargin="155.84" style="fill:#171615;font-family:IKGOXD+CaeciliaLTStd-Roman;font-size:6.0px;font-style:NORMAL;font-weight:normal;">have a lower prevalence than HCs.</text>
 </g>
</svg>
