<?xml version="1.0" encoding="UTF-8"?>
<svg height="870.031005859375" width="672.0029907226562" xmlns="http://www.w3.org/2000/svg">
 <g style="fill:none;">
  <path d=" M 0.05999799817800522 826.072021484375 L 22.619997024536133 826.072021484375 L 22.619997024536133 826.35546875 L 0.05999799817800522 826.35546875 Z " style="fill:none;stroke:#000000;stroke-width:1.0;"/>
  <path d=" M 33.67599868774414 837.4110107421875 L 33.959449768066406 837.4110107421875 L 33.959449768066406 860.031005859375 L 33.67599868774414 860.031005859375 Z " style="fill:none;stroke:#000000;stroke-width:1.0;"/>
  <path d=" M 627.9869995117188 837.4110107421875 L 628.2703857421875 837.4110107421875 L 628.2703857421875 860.031005859375 L 627.9869995117188 860.031005859375 Z " style="fill:none;stroke:#000000;stroke-width:1.0;"/>
  <path d=" M 639.3259887695312 826.072021484375 L 662.0029907226562 826.072021484375 L 662.0029907226562 826.35546875 L 639.3259887695312 826.35546875 Z " style="fill:none;stroke:#000000;stroke-width:1.0;"/>
  <path d=" M 639.3259887695312 33.731998443603516 L 662.0029907226562 33.731998443603516 L 662.0029907226562 34.015480041503906 L 639.3259887695312 34.015480041503906 Z " style="fill:none;stroke:#000000;stroke-width:1.0;"/>
  <path d=" M 627.9869995117188 0.0 L 628.2703857421875 0.0 L 628.2703857421875 22.677000045776367 L 627.9869995117188 22.677000045776367 Z " style="fill:none;stroke:#000000;stroke-width:1.0;"/>
  <path d=" M 33.67599868774414 0.0 L 33.959449768066406 0.0 L 33.959449768066406 22.677000045776367 L 33.67599868774414 22.677000045776367 Z " style="fill:none;stroke:#000000;stroke-width:1.0;"/>
  <path d=" M 0.05999799817800522 33.731998443603516 L 22.619997024536133 33.731998443603516 L 22.619997024536133 34.015480041503906 L 0.05999799817800522 34.015480041503906 Z " style="fill:none;stroke:#000000;stroke-width:1.0;"/>
  <text x="85.039,90.955,93.908,98.646,105.744,108.498,113.723,119.241,125.156,130.381,135.605,138.359,144.076" y="469.424" svg_rhmargin="149.991" style="fill:#171615;font-family:BPGNDO+AdvOTfbba3ace.B;font-size:9.46px;font-style:NORMAL;font-weight:normal;">4. Discussion</text>
  <text svg_rhmargin="124.414" x="85.039,89.989,92.41,97.359,99.78,104.258,112.193,117.142,119.285,124.414" y="487.339" style="fill:#171615;font-family:BPGNMN+AdvOT01861455.I;font-size:8.97px;font-style:NORMAL;font-weight:normal;">4.1. Main </text>
  <text x="127.446" y="487.339" svg_rhmargin="132.395" style="fill:#171615;font-family:BPGNOP+AdvOT01861455.I+fb;font-size:8.97px;font-style:NORMAL;font-weight:normal;">ﬁ</text>
  <text x="132.378,137.507,142.922,145.065,150.194,155.421" y="487.339" svg_rhmargin="159.904" style="fill:#171615;font-family:BPGNMN+AdvOT01861455.I;font-size:8.97px;font-style:NORMAL;font-weight:normal;">ndings</text>
  <text x="85.039,92.41,97.512,100.964,111.911,119.282,123.307,126.194,130.846,133.734,138.33,143.279,147.854,150.348,154.831,158.398,160.892,164.344,175.349,179.267,184.306,191.676,196.778,200.293,204.211,209.25,213.275,218.225,221.779,224.273,228.757,232.777,235.272,239.755,250.749,255.232,260.273,265.22200000000004,276.204,279.718,284.202,287.768,290.655,294.685,302.055,306.703,309.591,312.146,316.064,320.65,323.144,325.638" y="503.326" svg_rhmargin="330.121" style="fill:#171615;font-family:BPGNFH+AdvOTbc475f09;font-size:8.97px;font-style:NORMAL;font-weight:normal;">Our meta-analysis comprehensively and systematically</text>
  <text x="85.039,88.554,92.472,97.058,99.552,103.471,110.494,114.519,119.468,123.533,126.42,131.47,135.388,139.463,143.488,148.437,151.992,155.506,159.425,164.52,167.407,171.493,175.977,180.564,185.047,187.593,190.088,194.571,199.612,202.106,206.024,210.1,212.594,215.088,217.976,222.005,225.52,230.003,233.06,238.009,241.563,245.481,249.557,254.04,259.081,264.03000000000003,268.152,271.039,276.089,281.038,286.123,291.072,295.137,298.024,303.13,307.613,310.5,314.639,319.588,323.142,327.625" y="514.268" svg_rhmargin="330.046" style="fill:#171615;font-family:BPGNFH+AdvOTbc475f09;font-size:8.97px;font-style:NORMAL;font-weight:normal;">reviewed the current available literature and found that oral</text>
  <text x="85.039,88.572,91.074,94.606,98.525,103.555,107.088,112.118,117.067,121.631,124.518,128.436,136.768,140.686,145.25,150.199,158.403,161.935,164.437,168.92,174.018" y="525.21" svg_rhmargin="176.439" style="fill:#171615;font-family:BPGNFH+AdvOTbc475f09;font-size:8.97px;font-style:NORMAL;font-weight:normal;">risedronate can signi</text>
  <text x="176.486" y="525.21" svg_rhmargin="181.435" style="fill:#171615;font-family:BPGNFI+AdvOTbc475f09+fb;font-size:8.97px;font-style:NORMAL;font-weight:normal;">ﬁ</text>
  <text x="181.475,185.393,189.978,195.024,197.911,200.466,204.949,213.165,215.66,220.609,224.617,228.132,232.157,236.64,240.207,244.125,252.339,255.226,260.276,264.194,272.465,277.88,286.921,293.825,302.058,306.541,310.108,315.153,320.103,325.187" y="525.21" svg_rhmargin="330.136" style="fill:#171615;font-family:BPGNFH+AdvOTbc475f09;font-size:8.97px;font-style:NORMAL;font-weight:normal;">cantly increase the BMD around</text>
  <text x="85.039,89.989,95.074,98.992,103.011,110.381,114.462,119.412,122.399,126.318,131.267,136.345,139.233,143.262,150.745,155.695,159.249,163.732,166.153,171.211,174.726,177.613,181.699,189.06900000000002,194.058,196.945,203.979,207.494,212.539,216.458,221.407,226.429,230.454,235.403,240.432,244.457,247.909,252.904,257.853,260.274,265.376,270.325,272.746,277.792,282.837,285.258,290.264,294.747,299.788,304.737,309.765,314.715,317.602,322.691,327.174" y="536.1510000000001" svg_rhmargin="330.061" style="fill:#171615;font-family:BPGNFH+AdvOTbc475f09;font-size:8.97px;font-style:NORMAL;font-weight:normal;">uncemented femoral stem (Gruen zones 1, 2, 3, and 7) at</text>
  <text x="85.039,89.988,93.203,100.573,105.619,110.664,113.551,118.601,122.116,124.537,127.729,132.774,136.289,140.772,143.19299999999998,146.437,149.952,152.446,155.961,159.879,164.918,168.433,173.478,178.428,183.002,185.89,189.808,193.094,197.012,201.598,206.54700000000003,209.761,213.276,215.771,220.254,225.295" y="547.149" svg_rhmargin="227.716" style="fill:#171615;font-family:BPGNFH+AdvOTbc475f09;font-size:8.97px;font-style:NORMAL;font-weight:normal;">3 months; oral risedronate can signi</text>
  <text x="227.793" y="547.149" svg_rhmargin="232.742" style="fill:#171615;font-family:BPGNFI+AdvOTbc475f09+fb;font-size:8.97px;font-style:NORMAL;font-weight:normal;">ﬁ</text>
  <text x="232.838,236.756,241.342,246.291,249.279,251.773,256.256,259.483,261.978,266.927,270.935,274.45,278.475,282.958,286.525,290.443,293.612,296.499,301.605,305.523,308.692,314.191,323.157" y="547.149" svg_rhmargin="330.061" style="fill:#171615;font-family:BPGNFH+AdvOTbc475f09;font-size:8.97px;font-style:NORMAL;font-weight:normal;">cantly increase the BMD</text>
  <text x="85.039,89.523,92.41,95.414,99.897,102.444,104.86500000000001,107.83,112.779,115.666,118.658,121.663,126.612,130.53,133.512,140.485,144.0,148.949,153.014,157.96300000000002,160.894,164.813,169.852,174.897,178.815,182.267,185.272,189.755,192.642,195.647,200.596,203.527,208.12,213.069,218.018,220.989,226.034,230.983,233.915,241.285,246.331,251.376,254.263,259.313,262.828,265.24899999999997,268.214,273.163,276.717,281.31,283.731,286.639,290.154,292.649,296.163,300.082,305.177,308.692,313.641,318.726,323.209,326.21" y="558.091" svg_rhmargin="330.128" style="fill:#171615;font-family:BPGNFH+AdvOTbc475f09;font-size:8.97px;font-style:NORMAL;font-weight:normal;">at all of the Gruen zones at 6 and 12 months; oral risedronate</text>
  <text svg_rhmargin="330.049" x="85.039,88.958,94.053,99.003,101.536,106.485,109.417,111.911,116.957,120.875,124.44,128.358,132.944,136.458,140.376,143.375,146.262,151.312,155.23000000000002,158.229,165.698,170.247,173.762,177.277,179.771,183.22299999999998,186.234,191.183,193.717,198.66600000000003,201.598,205.112,209.137,214.087,217.641,221.559,225.011,228.016,230.51,235.459,238.447,244.4,251.869,258.307,261.294,266.34,270.823,273.823,276.317,280.236,285.275,288.279,291.794,294.215,297.18,301.663,306.704,311.653,314.641,319.591,323.145,327.628,330.049" y="469.99" style="fill:#171615;font-family:BPGNFH+AdvOTbc475f09;font-size:8.97px;font-style:NORMAL;font-weight:normal;">could increase the Harris hip scores in THA patients; and oral </text>
  <text x="345.091,348.606,351.026,354.558,358.583,363.533,367.087,372.036,377.121,381.604,384.604,388.522,394.072,397.587,400.081,404.564,409.662" y="469.99" svg_rhmargin="412.083" style="fill:#171615;font-family:BPGNFH+AdvOTbc475f09;font-size:8.97px;font-style:NORMAL;font-weight:normal;">risedronate signi</text>
  <text x="412.102" y="469.99" svg_rhmargin="417.051" style="fill:#171615;font-family:BPGNFI+AdvOTbc475f09+fb;font-size:8.97px;font-style:NORMAL;font-weight:normal;">ﬁ</text>
  <text x="417.148,421.066,425.651,430.697,433.584,436.139,440.622,446.174,448.669,453.618,457.626,461.141,465.059,469.701,473.216,477.134,480.586,486.198,489.713,493.631,497.196,502.145,509.515,515.167,520.583,527.129,532.078,537.617,542.1,547.198,552.1469999999999,557.686,562.636,566.7,570.618,574.637,579.12,582.687,586.712" y="469.99" svg_rhmargin="590.164" style="fill:#171615;font-family:BPGNFH+AdvOTbc475f09;font-size:8.97px;font-style:NORMAL;font-weight:normal;">cantly increases serum BAP and deceases</text>
  <text x="345.091,352.461,358.47,365.374,368.392,371.279" y="480.931" svg_rhmargin="373.7" style="fill:#171615;font-family:BPGNFH+AdvOTbc475f09;font-size:8.97px;font-style:NORMAL;font-weight:normal;">NTX-I.</text>
  <text x="345.091,350.04,352.461,357.41,359.831,364.309,370.747,375.974,383.91,389.325,394.275,397.538,399.681,404.164,409.392,414.521,417.542,424.446,426.589,429.476,434.605,437.611,442.839,445.726,450.855,455.804,459.068,462.045,469.981,474.93,477.817,482.767,486.219,491.168,496.297,501.246,503.389,507.872,512.355,517.305" y="509.562" svg_rhmargin="521.788" style="fill:#171615;font-family:BPGNMN+AdvOT01861455.I;font-size:8.97px;font-style:NORMAL;font-weight:normal;">4.2. Comparison with other meta-analyses</text>
  <text x="345.091,350.973,357.877,362.826,370.602,374.054,377.972,380.393,384.311,388.794,393.277,398.227,401.114,408.868,416.238,420.157,423.044,427.527,430.414,434.897,439.847,444.33,446.751,451.234,454.686,457.107,460.559,468.394,472.877,477.826,482.776,487.725,490.612,498.383,501.27,506.22,508.641,512.0930000000001,519.869,522.756,527.706,532.655,535.076,538.994,546.798,551.747,556.23,560.713,564.631,572.366,577.315,581.234,585.152" y="525.492" svg_rhmargin="590.101" style="fill:#171615;font-family:BPGNFH+AdvOTbc475f09;font-size:8.97px;font-style:NORMAL;font-weight:normal;">Two relevant meta-analysis about this topic have been</text>
  <text x="345.091,350.04,354.99,359.939,362.36,364.781,368.233,373.182,377.1,382.05" y="536.49" svg_rhmargin="384.471" style="fill:#171615;font-family:BPGNFH+AdvOTbc475f09;font-size:8.97px;font-style:NORMAL;font-weight:normal;">published.</text>
  <text svg_rhmargin="405.489" x="384.491,386.657,390.37,394.082,395.899,399.611,403.324,405.48900000000003" y="536.491" style="fill:#171615;font-family:BPGNFH+AdvOTbc475f09;font-size:5.98px;font-style:NORMAL;font-weight:normal;">[19,20] </text>
  <text svg_rhmargin="428.611" x="407.792,416.758,421.242,423.662,428.611" y="536.491" style="fill:#171615;font-family:BPGNFH+AdvOTbc475f09;font-size:8.97px;font-style:NORMAL;font-weight:normal;">Main </text>
  <text x="430.866" y="536.491" svg_rhmargin="435.815" style="fill:#171615;font-family:BPGNFI+AdvOTbc475f09+fb;font-size:8.97px;font-style:NORMAL;font-weight:normal;">ﬁ</text>
  <text x="435.855,440.804,445.754,448.175,453.124,457.607,459.835,464.785,467.672,469.983,474.933,479.882,483.334,485.574,492.944,496.862,499.75,504.233,507.12,511.603,516.552,521.036,523.457,527.94,531.392,533.813,537.265,539.6,544.55,548.468,551.355,558.259,562.177,566.096,571.045,573.332,578.281,583.23,586.682" y="536.491" svg_rhmargin="590.134" style="fill:#171615;font-family:BPGNFH+AdvOTbc475f09;font-size:8.97px;font-style:NORMAL;font-weight:normal;">nding of our meta-analysis between ours</text>
  <text x="345.089,351.993,356.476,359.928,364.137,369.086,374.036,376.923,381.201,385.119,390.068,395.018,398.47,400.891,404.343,407.23,411.148,416.098,418.985,421.406,425.703,432.141,437.09,442.04,444.927,449.876,453.795,457.247,461.475,466.425,468.845,471.733,474.62,478.538,481.99,485.908,490.858,494.776,498.694,502.973,507.922,511.841,514.728,521.632,525.55,529.468,534.4169999999999,538.688,543.638,548.587,552.039,555.491,559.721,564.204,569.153,574.102,578.372,581.26,586.209" y="547.433" svg_rhmargin="590.127" style="fill:#171615;font-family:BPGNFH+AdvOTbc475f09;font-size:8.97px;font-style:NORMAL;font-weight:normal;">was not consistent. Another difference between ours and the</text>
  <text x="345.089,350.038,353.49,357.409,361.892,364.313,369.262,374.212,377.664,382.108,387.058,392.007,395.925,399.377,403.821,407.273,412.222,417.172,422.121,424.542,429.491,433.981,438.93,442.848,447.247,452.196,457.145,460.033,463.951,468.9,471.32099999999997,475.819,480.768,483.189,486.641,490.093,492.98,495.401,499.855,504.805,508.257,512.175,516.658,519.079,524.029,528.978,532.43,536.931,544.301,548.22,551.107,555.59,558.477,562.96,567.91,572.393,574.814,579.297,582.749,586.667" y="558.375" svg_rhmargin="590.119" style="fill:#171615;font-family:BPGNFH+AdvOTbc475f09;font-size:8.97px;font-style:NORMAL;font-weight:normal;">previous ones should be noted. First, previous meta-analyses</text>
  <text x="345.089,352.459,354.88,359.83,363.748,368.697,372.074,377.023,379.444,382.331,385.219,389.137,392.589,396.507,401.457,404.344,407.733,410.62,415.569,417.99,420.411,425.361,432.265,435.152,440.101,445.051,448.503,451.896,454.783,459.732,463.184,466.579,471.062,476.011,480.495,482.915,487.399,490.851,494.769,498.221,501.614,506.097,511.046,515.995,519.358,522.245,527.195,532.144,535.596,538.974,543.923,547.841,550.728,554.647,558.099,563.048,567.531,571.45,576.399,580.317,582.738,585.625" y="569.374" svg_rhmargin="590.108" style="fill:#171615;font-family:BPGNFH+AdvOTbc475f09;font-size:8.97px;font-style:NORMAL;font-weight:normal;">mixed different follow-ups for analyses and thus heterogeneity</text>
  <path d=" M 85.03900146484375 766.885009765625 L 590.1729736328125 766.885009765625 L 590.1729736328125 767.6220092773438 L 85.03900146484375 767.6220092773438 Z " style="fill:none;stroke:#000000;stroke-width:1.0;"/>
  <path d=" M 85.03900146484375 367.3699951171875 L 590.1729736328125 367.3699951171875 L 590.1729736328125 368.10699462890625 L 85.03900146484375 368.10699462890625 Z " style="fill:none;stroke:#000000;stroke-width:1.0;"/>
  <rect style="stroke:blue;stroke-width:0.3;" x="157.606" y="40.202" height="373.379" width="360.0" title="3"/>
  <text x="157.606" y="40.202" class="image" id="image.3.1" width="360" height="373">image.3.1.158_518.40_414</text>
  <text svg_rhmargin="172.934" x="142.809,147.166,148.953,153.31,157.584,160.148,164.273,166.792,170.917,172.934" y="424.58" style="fill:#171615;font-family:BPGNLM+AdvOTf94803d4;font-size:7.47px;font-style:NORMAL;font-weight:normal;">Figure 1. </text>
  <text svg_rhmargin="432.747" x="176.655,181.325,183.656,187.539,189.407,193.218,195.549,197.88,201.691,205.965,208.457,213.434,217.244,221.518,225.643,227.974,230.148,231.471,235.438,239.563,242.131,243.759,245.934,249.744,255.886,259.465,261.972,263.84,267.964,270.295,272.799,277.469,280.891,284.47,286.645,290.455,296.597,300.408,302.582,303.904,307.715,310.27,315.247,319.057,322.479,323.802,327.612,333.134,336.713,339.238,343.049,347.017,351.291,353.808,359.95,363.76,365.934,369.745,372.465,376.275,380.243,384.054,385.376,388.897,392.476,396.287,399.866,402.333,404.119,408.789,413.765,415.394,420.064,426.206,430.961,432.747" y="424.58" style="fill:#171615;font-family:BPGNEB+AdvOT6e5d2ec0;font-size:7.47px;font-style:NORMAL;font-weight:normal;">Preferred Reporting Items for Systematic Reviews and Meta-analyses (PRISMA) </text>
  <text x="435.23" y="424.58" svg_rhmargin="438.495" style="fill:#171615;font-family:BPGNEE+AdvOT6e5d2ec0+fb;font-size:7.47px;font-style:NORMAL;font-weight:normal;">ﬂ</text>
  <text x="438.519,442.643,448.16499999999996,450.651,454.461,458.429,462.239,464.57,466.74399999999997,469.301,473.425,475.293,477.748,480.079,483.89,486.138,488.469,489.792,493.602,497.024,500.835,505.109,507.623,511.202,513.376,517.344,521.618,522.94,526.751,530.33" y="424.58" svg_rhmargin="532.347" style="fill:#171615;font-family:BPGNEB+AdvOT6e5d2ec0;font-size:7.47px;font-style:NORMAL;font-weight:normal;">ow chart of retrieved studies.</text>
  <path d=" M 85.03900146484375 181.1909942626953 L 590.1729736328125 181.1909942626953 L 590.1729736328125 181.64453125 L 85.03900146484375 181.64453125 Z " style="fill:none;stroke:#000000;stroke-width:1.0;"/>
  <path d=" M 85.03900146484375 92.58000183105469 L 590.1729736328125 92.58000183105469 L 590.1729736328125 93.09024810791016 L 85.03900146484375 93.09024810791016 Z " style="fill:none;stroke:#000000;stroke-width:1.0;"/>
  <path d=" M 164.12600708007812 157.83299255371094 L 85.03900909423828 157.83299255371094 L 85.03900909423828 158.34298706054688 L 164.12600708007812 158.34298706054688" style="fill:none;stroke:#000000;stroke-width:1.0;"/>
  <path d=" M 147.85499572753906 157.83299255371094 L 204.71798706054688 157.83299255371094 L 204.71798706054688 158.34324645996094 L 147.85499572753906 158.34324645996094 Z " style="fill:none;stroke:#000000;stroke-width:1.0;"/>
  <path d=" M 255.79800415039062 157.83299255371094 L 188.44700622558594 157.83299255371094 L 188.44700622558594 158.34298706054688 L 255.79800415039062 158.34298706054688" style="fill:none;stroke:#000000;stroke-width:1.0;"/>
  <path d=" M 239.52699279785156 157.83299255371094 L 306.36798095703125 157.83299255371094 L 306.36798095703125 158.34324645996094 L 239.52699279785156 158.34324645996094 Z " style="fill:none;stroke:#000000;stroke-width:1.0;"/>
  <path d=" M 290.0979919433594 157.83299255371094 L 353.9909973144531 157.83299255371094 L 353.9909973144531 158.34324645996094 L 290.0979919433594 158.34324645996094 Z " style="fill:none;stroke:#000000;stroke-width:1.0;"/>
  <path d=" M 337.7200012207031 157.83299255371094 L 409.322998046875 157.83299255371094 L 409.322998046875 158.34324645996094 L 337.7200012207031 158.34324645996094 Z " style="fill:none;stroke:#000000;stroke-width:1.0;"/>
  <path d=" M 393.052001953125 157.83299255371094 L 485.7449951171875 157.83299255371094 L 485.7449951171875 158.34324645996094 L 393.052001953125 158.34324645996094 Z " style="fill:none;stroke:#000000;stroke-width:1.0;"/>
  <path d=" M 469.531005859375 157.83299255371094 L 524.635986328125 157.83299255371094 L 524.635986328125 158.34324645996094 L 469.531005859375 158.34324645996094 Z " style="fill:none;stroke:#000000;stroke-width:1.0;"/>
  <path d=" M 508.364990234375 157.83299255371094 L 572.3709716796875 157.83299255371094 L 572.3709716796875 158.34324645996094 L 508.364990234375 158.34324645996094 Z " style="fill:none;stroke:#000000;stroke-width:1.0;"/>
  <path d=" M 556.1010131835938 157.83299255371094 L 590.1170043945312 157.83299255371094 L 590.1170043945312 158.34324645996094 L 556.1010131835938 158.34324645996094 Z " style="fill:none;stroke:#000000;stroke-width:1.0;"/>
  <path d=" M 85.03900146484375 194.34300231933594 L 124.04400634765625 194.34300231933594 L 124.04400634765625 206.24900817871094 L 85.03900146484375 206.24900817871094 Z " style="fill:none;stroke:#000000;stroke-width:1.0;"/>
  <path d=" M 85.03900146484375 206.13499450683594 L 590.1729736328125 206.13499450683594 L 590.1729736328125 206.64523315429688 L 85.03900146484375 206.64523315429688 Z " style="fill:none;stroke:#000000;stroke-width:1.0;"/>
  <text x="88.044,93.767,99.657,105.794,108.113,114.091,116.673" y="602.7090000000001" svg_rhmargin="121.073" style="fill:#ffffff;font-family:BPGNED+AdvOT91f5f621.B;font-size:7.97px;font-style:NORMAL;font-weight:normal;">Table 1</text>
  <text x="85.039,89.853,94.5,99.059,101.707,106.521,111.08,115.726,120.285,123.354,127.913,129.906,132.49,137.049,141.695,146.254,149.323,153.882,158.441,161.175,165.654,168.722,170.715,174.947,177.681,179.674,184.233,186.856,191.67,194.236,196.891,199.625,204.271,208.82999999999998,211.46,213.453,218.099,222.658,224.651,229.298,234.112,238.671,243.48499999999999,246.098,250.33,253.064,257.711,262.525,264.517,269.076,273.308" y="614.7280000000001" svg_rhmargin="275.46" style="fill:#171615;font-family:BPGNEA+AdvOT34fe1490.B;font-size:7.97px;font-style:NORMAL;font-weight:normal;">The general characteristic of the included studies.</text>
  <text svg_rhmargin="188.514" x="85.039,88.69,90.595,93.161,96.644,98.96300000000001,101.593,105.411,109.396,111.716,115.701,119.518,122.085,123.99,126.594,130.077,164.125,168.357,172.175,176.16,180.145,182.465,185.031,188.514" y="627.8240000000001" style="fill:#171615;font-family:BPHALA+AdvOT9d0303c0.B;font-size:7.97px;font-style:NORMAL;font-weight:normal;">First author, y Country </text>
  <text x="214.696,218.514,221.997,225.982" y="627.8240000000001" svg_rhmargin="229.632" style="fill:#171615;font-family:BPHALA+AdvOT9d0303c0.B;font-size:7.97px;font-style:NORMAL;font-weight:normal;">Type</text>
  <text svg_rhmargin="232.869" x="211.465,215.283,217.60199999999998,220.252,224.07,228.469,232.868" y="627.8240000000001" style="fill:#171615;font-family:BPHALA+AdvOT9d0303c0.B;font-size:7.97px;font-style:NORMAL;font-weight:normal;">of THA </text>
  <text x="255.799,259.864,263.682,266.248,268.568,270.472,274.123,276.028,280.013,283.83,287.816" y="627.8240000000001" svg_rhmargin="290.135" style="fill:#171615;font-family:BPHALA+AdvOT9d0303c0.B;font-size:7.97px;font-style:NORMAL;font-weight:normal;">Participant</text>
  <text svg_rhmargin="280.578" x="265.324,267.643,271.461,274.027,278.259,280.57800000000003" y="627.8240000000001" style="fill:#171615;font-family:BPHALA+AdvOT9d0303c0.B;font-size:7.97px;font-style:NORMAL;font-weight:normal;">(E/C) </text>
  <text x="306.369,312.259,315.91,319.727,323.712,326.324,330.142,334.127" y="627.8240000000001" svg_rhmargin="337.777" style="fill:#171615;font-family:BPHALA+AdvOT9d0303c0.B;font-size:7.97px;font-style:NORMAL;font-weight:normal;">Mean age</text>
  <text svg_rhmargin="333.704" x="310.394,312.714,316.197,318.102,320.769,324.587,327.153,331.385,333.704" y="627.8240000000001" style="fill:#171615;font-family:BPHALA+AdvOT9d0303c0.B;font-size:7.97px;font-style:NORMAL;font-weight:normal;">(y, E/C) </text>
  <text x="353.991,359.881,363.699,365.604,369.254,371.821,374.14,377.79,383.768,387.496,389.401" y="627.8240000000001" svg_rhmargin="393.051" style="fill:#171615;font-family:BPHALA+AdvOT9d0303c0.B;font-size:7.97px;font-style:NORMAL;font-weight:normal;">Male/female</text>
  <text x="360.568,362.887,369.024,370.929,373.55,377.368,379.934,384.167,386.486,420.605,422.597,426.582,428.902,432.552,435.118,438.601,442.252,446.237,448.556,450.461,454.279,458.264,485.744,489.976,493.793,497.779,500.098,502.664,506.482,508.387,524.634,528.284,532.102,534.007,535.912,539.73,545.285,548.186,552.171,556.1560000000001,572.369,576.433,578.753,582.738,586.723" y="637.745" svg_rhmargin="590.206" style="fill:#171615;font-family:BPHALA+AdvOT9d0303c0.B;font-size:7.97px;font-style:NORMAL;font-weight:normal;">(%, E/C) Intervention Control Follow-up Study</text>
  <text x="85.039,88.857,90.268,93.751,97.066,99.968,101.873,104.484,108.302,112.12,115.937" y="652.088" svg_rhmargin="119.755" style="fill:#171615;font-family:BPHAMB+AdvOTcb6dfb9e;font-size:7.97px;font-style:NORMAL;font-weight:normal;">Kinov, 2005</text>
  <text svg_rhmargin="128.318" x="119.735,121.163,124.026,126.889,128.31799999999998" y="652.088" style="fill:#171615;font-family:BPHAMB+AdvOTcb6dfb9e;font-size:5.31px;font-style:NORMAL;font-weight:normal;">[10] </text>
  <text x="164.126,168.111,171.594,173.005,176.488,179.803,181.955,183.366,186.68200000000002,204.717,208.703,212.185,215.421,218.737,224.133,227.448,230.931,232.836,236.067,239.55,264.244,268.061,271.879,274.031,277.849,281.667,318.045,322.277,326.09499999999997,369.522,373.754,377.572,413.913,417.73,421.548,422.53,427.926,431.409,434.038,436.19,437.601,440.669,443.985,447.468,449.62,452.936,456.419,459.734,461.639,464.955,486.138,489.956,491.366,494.682,497.918,501.233,504.716,508.032,531.264,535.082,537.727,543.123,546.439,549.507,573.954,577.939,582.004,585.487" y="652.088" svg_rhmargin="588.556" style="fill:#171615;font-family:BPHAMB+AdvOTcb6dfb9e;font-size:7.97px;font-style:NORMAL;font-weight:normal;">Bulgaria Uncemented 12/12 NS NS 35 mg risedronate Placebo 6 mos RCTs</text>
  <text x="85.039,88.522,91.838,97.234,100.549,103.618,106.933,110.169,111.58,113.485,116.106,119.923,123.741,127.559" y="662.066" svg_rhmargin="131.377" style="fill:#171615;font-family:BPHAMB+AdvOTcb6dfb9e;font-size:7.97px;font-style:NORMAL;font-weight:normal;">Yamasaki, 2007</text>
  <text svg_rhmargin="139.883" x="131.301,132.729,135.591,138.454,139.883" y="662.066" style="fill:#171615;font-family:BPHAMB+AdvOTcb6dfb9e;font-size:5.31px;font-style:NORMAL;font-weight:normal;">[17] </text>
  <text x="164.126,167.362,170.678,174.16,177.476,180.959,204.717,208.703,212.185,215.421,218.737,224.133,227.448,230.931,232.836,236.067,239.55,264.244,268.061,271.879,274.031,277.849,281.667,307.613,311.431,315.249,317.154,320.971,323.123,326.941,330.759,332.664,336.48199999999997,359.09,362.907,366.725,368.63,372.448,374.6,378.417,382.235,384.14,387.95799999999997,409.319,413.136,415.041,418.859,421.507,426.903,430.386,432.538,436.021,438.628,440.78,442.191,445.259,448.575,452.058,454.21,457.526,461.009,464.324,466.229,469.54499999999996,486.135,489.953,491.364,494.679,497.915,501.231,504.714,508.03,531.262,535.0799999999999,537.725,543.121,546.436,549.504,573.951,577.936,582.001,585.484" y="662.066" svg_rhmargin="588.553" style="fill:#171615;font-family:BPHAMB+AdvOTcb6dfb9e;font-size:7.97px;font-style:NORMAL;font-weight:normal;">Japan Uncemented 19/21 66.8/66.6 23.2/23.9 2.5 mg/d risedronate Placebo 6 mos RCTs</text>
  <text x="85.039,88.857,92.093,95.409,96.819,100.302,103.618,107.101,110.584,113.899,116.051,119.451,121.356,124.043,127.861,131.679,135.496" y="672.044" svg_rhmargin="139.314" style="fill:#171615;font-family:BPHAMB+AdvOTcb6dfb9e;font-size:7.97px;font-style:NORMAL;font-weight:normal;">Sköldenberg, 2011</text>
  <text svg_rhmargin="147.877" x="139.294,140.722,143.585,146.448,147.877" y="672.044" style="fill:#171615;font-family:BPHAMB+AdvOTcb6dfb9e;font-size:5.31px;font-style:NORMAL;font-weight:normal;">[10] </text>
  <text x="164.126,167.944,172.59,175.906,179.389,182.705,186.18800000000002,204.717,208.703,212.185,215.421,218.737,224.133,227.448,230.931,232.836,236.067,239.55,264.244,268.061,271.879,274.031,277.849,281.667,313.339,317.157,320.975,323.127,326.944,330.762,364.816,368.633,372.451,374.603,378.421,382.239,413.911,417.729,421.54699999999997,422.529,427.924,431.407,434.037,436.189,437.599,440.668,443.983,447.466,449.618,452.934,456.417,459.733,461.637,464.953,486.136,489.954,491.365,494.68,497.916,501.232,504.715,508.03099999999995,529.336,533.153,536.971,539.597,544.993,548.309,551.377,573.953,577.938,582.003,585.486" y="672.044" svg_rhmargin="588.555" style="fill:#171615;font-family:BPHAMB+AdvOTcb6dfb9e;font-size:7.97px;font-style:NORMAL;font-weight:normal;">Sweden Uncemented 36/37 61/60 55/55 35 mg risedronate Placebo 12 mos RCTs</text>
  <text x="85.039,88.857,92.093,95.409,96.819,100.302,103.618,107.101,110.584,113.899,116.051,119.451,121.356,124.043,127.861,131.679,135.496" y="682.022" svg_rhmargin="139.314" style="fill:#171615;font-family:BPHAMB+AdvOTcb6dfb9e;font-size:7.97px;font-style:NORMAL;font-weight:normal;">Sköldenberg, 2011</text>
  <text svg_rhmargin="147.877" x="139.294,140.722,143.585,146.448,147.877" y="682.022" style="fill:#171615;font-family:BPHAMB+AdvOTcb6dfb9e;font-size:5.31px;font-style:NORMAL;font-weight:normal;">[10] </text>
  <text x="164.126,167.944,172.59,175.906,179.389,182.705,186.18800000000002,204.717,208.703,212.185,215.421,218.737,224.133,227.448,230.931,232.836,236.067,239.55,264.244,268.061,271.879,274.031,277.849,281.667,313.339,317.157,320.975,323.127,326.944,330.762,364.816,368.633,372.451,374.603,378.421,382.239,413.911,417.729,421.54699999999997,422.529,427.924,431.407,434.037,436.189,437.599,440.668,443.983,447.466,449.618,452.934,456.417,459.733,461.637,464.953,486.136,489.954,491.365,494.68,497.916,501.232,504.715,508.03099999999995,535.685,539.5029999999999,542.148,545.049,573.954,577.939,582.003,585.486" y="682.022" svg_rhmargin="588.555" style="fill:#171615;font-family:BPHAMB+AdvOTcb6dfb9e;font-size:7.97px;font-style:NORMAL;font-weight:normal;">Sweden Uncemented 30/31 60/61 59/61 35 mg risedronate Placebo 1 y RCTs</text>
  <text x="85.039,90.435,93.918,96.07,99.386,102.869,104.774,107.376,111.194,115.011,118.829" y="691.943" svg_rhmargin="122.647" style="fill:#171615;font-family:BPHAMB+AdvOTcb6dfb9e;font-size:7.97px;font-style:NORMAL;font-weight:normal;">Muren, 2015</text>
  <text svg_rhmargin="131.209" x="122.627,124.055,126.917,129.78,131.209" y="691.943" style="fill:#171615;font-family:BPHAMB+AdvOTcb6dfb9e;font-size:5.31px;font-style:NORMAL;font-weight:normal;">[16] </text>
  <text x="164.126,167.944,172.59,175.906,179.389,182.705,186.18800000000002,204.717,208.703,212.185,215.421,218.737,224.133,227.448,230.931,232.836,236.067,239.55,264.244,268.061,271.879,274.031,277.849,281.667,313.339,317.157,320.975,323.127,326.944,330.762,364.816,368.633,372.451,374.603,378.421,382.239,413.911,417.729,421.54699999999997,422.529,427.924,431.407,434.037,436.189,437.599,440.668,443.983,447.466,449.618,452.934,456.417,459.733,461.637,464.953,486.136,489.954,491.365,494.68,497.916,501.232,504.715,508.03099999999995,535.685,539.5029999999999,542.148,545.049,573.954,577.939,582.003,585.486" y="691.943" svg_rhmargin="588.555" style="fill:#171615;font-family:BPHAMB+AdvOTcb6dfb9e;font-size:7.97px;font-style:NORMAL;font-weight:normal;">Sweden Uncemented 30/31 62/60 52/54 35 mg risedronate Placebo 4 y RCTs</text>
  <text x="85.039,88.522,89.933,93.416,95.321,97.965,101.782,105.6,109.418" y="701.921" svg_rhmargin="113.236" style="fill:#171615;font-family:BPHAMB+AdvOTcb6dfb9e;font-size:7.97px;font-style:NORMAL;font-weight:normal;">Yin, 2013</text>
  <text svg_rhmargin="121.798" x="113.216,114.644,117.506,120.369,121.798" y="701.921" style="fill:#171615;font-family:BPHAMB+AdvOTcb6dfb9e;font-size:5.31px;font-style:NORMAL;font-weight:normal;">[18] </text>
  <text x="164.126,168.191,171.674,173.085,176.567,179.883,204.717,208.703,212.186,215.421,218.737,224.133,227.448,230.931,232.836,236.067,239.55,264.244,268.061,271.879,274.031,277.849,281.667,313.339,317.157,320.975,323.127,326.944,330.762,364.816,368.633,372.451,374.603,378.421,382.239,412.154,415.972,418.617,424.013,427.495,429.647,433.13,435.794,437.946,439.357,442.425,445.741,449.224,451.376,454.691,458.174,461.49,463.395,466.71099999999996,486.136,489.954,491.365,494.68,497.916,501.232,504.715,508.03099999999995,531.263,535.081,537.726,543.122,546.437,549.505,573.952,577.937,582.002,585.485" y="701.921" svg_rhmargin="588.554" style="fill:#171615;font-family:BPHAMB+AdvOTcb6dfb9e;font-size:7.97px;font-style:NORMAL;font-weight:normal;">China Uncemented 13/13 59/62 49/48 5 mg/d risedronate Placebo 6 mos RCTs</text>
  <text svg_rhmargin="88.596" x="85.039,88.596" y="717.625" style="fill:#171615;font-family:BPHAMB+AdvOTcb6dfb9e;font-size:6.97px;font-style:NORMAL;font-weight:normal;">C </text>
  <text x="89.461" y="717.625" svg_rhmargin="94.182" style="fill:#171615;font-family:BPGNEH+AdvOTb0c9bf5d;font-size:6.97px;font-style:NORMAL;font-weight:normal;">=</text>
  <text svg_rhmargin="134.913" x="95.074,97.905,100.806,103.854,105.521,107.404,110.305,111.539,113.895,116.942,118.825,121.726,124.774,127.822,129.489,131.865,134.913" y="717.625" style="fill:#171615;font-family:BPHAMB+AdvOTcb6dfb9e;font-size:6.97px;font-style:NORMAL;font-weight:normal;">control group, E </text>
  <text x="135.837" y="717.625" svg_rhmargin="140.558" style="fill:#171615;font-family:BPGNEH+AdvOTb0c9bf5d;font-size:6.97px;font-style:NORMAL;font-weight:normal;">=</text>
  <text svg_rhmargin="198.932" x="141.393,143.275,144.51,147.195,150.096,153.143,155.111,158.013,161.06,163.961,165.628,168.529,170.871,173.918,175.801,178.702,181.75,184.797,186.464,188.841,192.328,195.884,198.932" y="717.625" style="fill:#171615;font-family:BPHAMB+AdvOTcb6dfb9e;font-size:6.97px;font-style:NORMAL;font-weight:normal;">risedronate group, RCT </text>
  <text x="199.843" y="717.625" svg_rhmargin="204.564" style="fill:#171615;font-family:BPGNEH+AdvOTb0c9bf5d;font-size:6.97px;font-style:NORMAL;font-weight:normal;">=</text>
  <text svg_rhmargin="287.654" x="205.455,207.338,210.239,213.287,216.334,219.236,223.957,225.191,227.583,230.484,233.532,235.897,238.728,241.629,244.677,246.343,248.226,251.127,252.45,253.684,256.585,259.633,261.974,263.641,265.523,266.758,269.659,270.893,273.578,275.24499999999995,277.563,280.611,284.167,287.654" y="717.625" style="fill:#171615;font-family:BPHAMB+AdvOTcb6dfb9e;font-size:6.97px;font-style:NORMAL;font-weight:normal;">randomized controlled trials, THA </text>
  <text x="288.567" y="717.625" svg_rhmargin="293.288" style="fill:#171615;font-family:BPGNEH+AdvOTb0c9bf5d;font-size:6.97px;font-style:NORMAL;font-weight:normal;">=</text>
  <text x="294.179,295.846,298.747,300.414,303.315,304.549,306.935,309.982,311.216,314.264,316.572,319.473,321.356,323.022,326.07,327.953,330.854,333.902,335.136,338.037,340.834,342.501,345.039" y="717.625" svg_rhmargin="346.706" style="fill:#171615;font-family:BPHAMB+AdvOTcb6dfb9e;font-size:6.97px;font-style:NORMAL;font-weight:normal;">total hip arthroplasty.</text>
  <text x="85.039,90.021,94.253,96.888,100.953,103.272,105.902,109.967,111.378,113.53,116.163,122.715,126.779,131.338,132.749,136.814,138.225,142.457,146.522,149.157,151.062,155.462,159.861,164.261,168.66,170.565,173.137,177.537,181.936,184.088,188.488,192.887,517.041,522.931,528.821,534.711,536.863,543.414,547.973,550.874,552.285,556.685,560.917,563.3,567.532,571.597,573.008,575.16,579.224,583.624" y="9.870999999999981" svg_rhmargin="590.176" style="fill:#171615;font-family:BPGNEB+AdvOT6e5d2ec0;font-size:7.97px;font-style:NORMAL;font-weight:normal;">Su et al. Medicine (2018) 97:51 www.md-journal.com</text>
  <text x="335.396" y="739.625" svg_rhmargin="339.796" style="fill:#171615;font-family:BPGNLM+AdvOTf94803d4;font-size:7.97px;font-style:NORMAL;font-weight:normal;">3</text>
 </g>
</svg>
