<?xml version="1.0" encoding="UTF-8"?>
<svg height="870.031005859375" width="672.0029907226562" xmlns="http://www.w3.org/2000/svg">
 <g style="fill:none;">
  <path d=" M 0.05999799817800522 826.072021484375 L 22.619997024536133 826.072021484375 L 22.619997024536133 826.35546875 L 0.05999799817800522 826.35546875 Z " style="fill:none;stroke:#000000;stroke-width:1.0;"/>
  <path d=" M 33.67599868774414 837.4110107421875 L 33.959449768066406 837.4110107421875 L 33.959449768066406 860.031005859375 L 33.67599868774414 860.031005859375 Z " style="fill:none;stroke:#000000;stroke-width:1.0;"/>
  <path d=" M 627.9869995117188 837.4110107421875 L 628.2703857421875 837.4110107421875 L 628.2703857421875 860.031005859375 L 627.9869995117188 860.031005859375 Z " style="fill:none;stroke:#000000;stroke-width:1.0;"/>
  <path d=" M 639.3259887695312 826.072021484375 L 662.0029907226562 826.072021484375 L 662.0029907226562 826.35546875 L 639.3259887695312 826.35546875 Z " style="fill:none;stroke:#000000;stroke-width:1.0;"/>
  <path d=" M 639.3259887695312 33.731998443603516 L 662.0029907226562 33.731998443603516 L 662.0029907226562 34.015480041503906 L 639.3259887695312 34.015480041503906 Z " style="fill:none;stroke:#000000;stroke-width:1.0;"/>
  <path d=" M 627.9869995117188 0.0 L 628.2703857421875 0.0 L 628.2703857421875 22.677000045776367 L 627.9869995117188 22.677000045776367 Z " style="fill:none;stroke:#000000;stroke-width:1.0;"/>
  <path d=" M 33.67599868774414 0.0 L 33.959449768066406 0.0 L 33.959449768066406 22.677000045776367 L 33.67599868774414 22.677000045776367 Z " style="fill:none;stroke:#000000;stroke-width:1.0;"/>
  <path d=" M 0.05999799817800522 33.731998443603516 L 22.619997024536133 33.731998443603516 L 22.619997024536133 34.015480041503906 L 0.05999799817800522 34.015480041503906 Z " style="fill:none;stroke:#000000;stroke-width:1.0;"/>
  <text x="93.997,100.303,105.12,109.938,112.227,114.982,117.272,122.089,126.907,131.258,133.547,135.836,140.188,142.60899999999998,145.574,149.315,154.133,161.371,166.189,168.478,173.296,177.082,182.031,184.963,191.269,197.575,202.98999999999998,205.909,212.813,214.979,217.734,222.68300000000002,225.615,230.899,233.654,240.09199999999998,243.009,249.913,254.121,257.57300000000004,260.527,264.878,268.199,271.651,276.306,280.092,282.381,286.733,289.488,293.23,298.17900000000003,301.167,307.939,310.228,312.983,317.932,320.864,325.215" y="500.038" svg_rhmargin="330.164" style="fill:#171615;font-family:NENOCI+AdvOTbc475f09;font-size:8.97px;font-style:NORMAL;font-weight:normal;">Additionally, combined ACB with LIA was associated with an</text>
  <text x="85.039,87.327,92.143,95.927,99.246,103.03,107.38,110.698,114.616,116.708,121.523,124.41,126.456,129.209,134.025,137.943,140.034,144.796,147.217,150.409,153.163,157.512,162.328,166.113,170.031,172.122,178.868,183.218,185.505,190.321,194.105,199.054,201.135,205.443,208.33,210.432,215.251,221.147,225.965,228.386,230.501,234.809,239.158,245.929,250.745,255.56,259.345,263.82800000000003,265.865,269.663,272.55,274.651,278.96" y="510.979" svg_rhmargin="281.381" style="fill:#171615;font-family:NENOCI+AdvOTbc475f09;font-size:8.97px;font-style:NORMAL;font-weight:normal;">increase of the distance walked at 24h. Sawhney et al</text>
  <text svg_rhmargin="292.66" x="281.254,283.294,287.007,290.495,292.66" y="510.98" style="fill:#171615;font-family:NENOCI+AdvOTbc475f09;font-size:5.98px;font-style:NORMAL;font-weight:normal;">[16] </text>
  <text x="294.746,298.054,302.859,307.225,311.533,315.307,318.615,321.393,325.191" y="510.98" svg_rhmargin="330.14" style="fill:#171615;font-family:NENOCI+AdvOTbc475f09;font-size:8.97px;font-style:NORMAL;font-weight:normal;">suggested</text>
  <text x="85.038,87.798,92.56,96.916,99.803,101.055,107.831,112.653,116.444,121.393,122.567,128.878,135.316,140.731,141.86,144.128,147.57999999999998,148.777,152.575,157.397,164.64,169.402,171.823,176.545,180.287,185.23600000000002,186.467,193.371,195.537,198.315,203.264,204.438,209.71,212.47,218.78,221.201,222.409,226.775,231.597,235.905,238.326,242.538,246.329,249.781,251.941,256.424,257.667,259.961,263.413,264.61,267.031,274.134,278.956,282.408,287.12,291.428,295.219,300.168,301.399,306.161,309.952,313.742,318.051,322.873,326.325" y="521.921" svg_rhmargin="330.243" style="fill:#171615;font-family:NENOCI+AdvOTbc475f09;font-size:8.97px;font-style:NORMAL;font-weight:normal;">that when ACB is combined with LIA, analgesia is improved because</text>
  <text svg_rhmargin="330.124" x="85.038,89.85,92.737,96.143,98.893,103.705,107.623,111.019,115.385,120.197,122.48,124.764,127.185,129.809,134.292,137.746,140.496,145.44500000000002,148.887,153.699,157.014,161.826,166.172,168.456,173.268,177.186,180.582,183.003,187.725,191.467,195.813,198.23399999999998,201.653,205.999,210.761,214.542,217.994,220.608,225.426,229.207,231.957,234.378,238.296,241.595,244.345,249.294,252.736,255.486,260.298,264.216,267.612,271.977,276.79,279.539,283.321,286.773,288.934,293.752,297.067,299.488,302.963,310.196,313.977,318.79,321.073,325.419,327.703,330.12399999999997" y="500.037" style="fill:#171615;font-family:NENOCI+AdvOTbc475f09;font-size:8.97px;font-style:NORMAL;font-weight:normal;">of the ability to provide local anesthetic to the anterior, medial, </text>
  <text x="345.089,347.368,351.708,354.453,358.229,361.538,365.879,368.157,370.578,371.955,376.296,381.103,386.052,387.395,392.215,397.021,400.473,403.087,406.885,410.195,412.616,417.338,420.79,422.157,426.498,429.95,434.662,438.403,442.179,444.924,448.376,449.743,454.562,457.449,458.813,461.65,466.466,470.384,471.738,476.554,481.37,485.112,488.896,491.317,492.694,497.51,502.326,505.08,508.821,513.637,516.391,518.678,523.027,525.315,527.602,532.0849999999999,533.498,538.314,541.633,546.448,550.798,553.085,557.901,560.188,565.004,569.487,570.844,578.1,582.916,586.234" y="500.037" svg_rhmargin="590.152" style="fill:#171615;font-family:NENOCI+AdvOTbc475f09;font-size:8.97px;font-style:NORMAL;font-weight:normal;">lateral, and posterior aspects of the knee, potentially providing more</text>
  <text x="345.089,348.831,353.65,360.906,365.725,367.993,371.791,374.512,378.43,381.542,385.85,390.67,395.035,397.303,401.669,405.467,408.755,411.022,415.505,418.619,422.418,427.18,434.436,439.254,443.62,446.908,450.706,455.65500000000003,458.7,465.604,467.77,470.548,475.497,478.598,483.36,486.812,488.973,493.791,498.274,501.388,506.66,509.382,515.82,518.906,521.327,525.993,530.812,533.233,537.445,539.866,544.589,549.351,553.717,555.984,558.405,562.617,565.038,568.174,572.936,576.734,580.186,582.347,586.713" y="510.979" svg_rhmargin="590.165" style="fill:#171615;font-family:NENOCI+AdvOTbc475f09;font-size:8.97px;font-style:NORMAL;font-weight:normal;">complete analgesia compared with using LIA individually. Perlas</text>
  <text x="345.089,348.832,351.719,355.862,360.169" y="521.9200000000001" svg_rhmargin="362.59" style="fill:#171615;font-family:NENOCI+AdvOTbc475f09;font-size:8.97px;font-style:NORMAL;font-weight:normal;">et al</text>
  <text svg_rhmargin="373.839" x="362.494,364.523,368.099,371.674,373.839" y="521.921" style="fill:#171615;font-family:NENOCI+AdvOTbc475f09;font-size:5.98px;font-style:NORMAL;font-weight:normal;">[15] </text>
  <text x="377.972,381.282,385.059,389.866,394.674,397.984,400.73,404.507,409.456,413.578,416.299,421.107,425.448,428.335,432.421,436.219,441.027,448.256,453.064,455.484,460.15,463.948,468.897,473.019,479.315,485.611,491.026,495.193,501.955,504.234,506.98,511.92900000000003,516.051,521.325,524.07,530.508,534.672,539.492,542.802,547.61,551.951,554.372,559.095,562.836,567.785,571.907,575.706,580.047,583.357,585.637" y="521.921" svg_rhmargin="590.12" style="fill:#171615;font-family:NENOCI+AdvOTbc475f09;font-size:8.97px;font-style:NORMAL;font-weight:normal;">reported that combined ACB with LIA provided early</text>
  <text x="345.089,349.435,356.667,361.478,366.24,368.661,372.873,375.622,377.905,382.716,387.665,390.256,394.601,399.413,404.362,406.896,411.379,413.925,418.737,421.158,425.37,430.189,433.969,437.421,439.978,442.261,447.072,450.852,453.135,457.946,461.688,466.499,470.279,474.197,476.742,481.562,484.449,487.004,491.824,496.635,503.867,507.785,510.387,515.149,517.569,520.761,524.542,529.353,533.698,537.15,541.408,545.15" y="532.919" svg_rhmargin="547.571" style="fill:#171615;font-family:NENOCI+AdvOTbc475f09;font-size:8.97px;font-style:NORMAL;font-weight:normal;">ambulation and a higher incidence of home discharge.</text>
  <path d=" M 85.03900146484375 766.885009765625 L 590.1729736328125 766.885009765625 L 590.1729736328125 767.6220092773438 L 85.03900146484375 767.6220092773438 Z " style="fill:none;stroke:#000000;stroke-width:1.0;"/>
  <path d=" M 85.03900146484375 350.0220031738281 L 590.1729736328125 350.0220031738281 L 590.1729736328125 350.7590026855469 L 85.03900146484375 350.7590026855469 Z " style="fill:none;stroke:#000000;stroke-width:1.0;"/>
  <path d="M109.247 40.202 L565.965 40.202 L565.965 430.928 L109.247 430.928 " style="fill:none;stroke:#000000;stroke-width:1.0;"/>
  <rect style="stroke:blue;stroke-width:0.3;" x="109.247" y="40.202" height="390.727" width="456.797" title="7"/>
  <text x="109.247" y="40.202" class="image" id="image.7.1" width="456" height="390">image.7.1.109_566.40_431</text>
  <text svg_rhmargin="227.813" x="197.688,202.045,203.832,208.188,212.463,215.027,219.152,221.671,225.796,227.813" y="441.928" style="fill:#171615;font-family:NENOIN+AdvOTf94803d4;font-size:7.47px;font-style:NORMAL;font-weight:normal;">Figure 6. </text>
  <text x="231.59,235.558,239.682,242.013,245.824,249.403,251.577,254.095,258.369,259.691,263.816,265.98999999999995,268.494,272.305,276.429,282.571,286.845,290.655,292.987,294.309,298.277,302.402,304.944,307.119,311.086,314.897,317.416,319.591,323.715,325.889,329.7,331.02299999999997,333.516,339.658,343.782,346.113,350.466,354.433,355.756,359.723,363.534,365.999,369.809,373.934,377.901,381.48,385.448,391.59,395.863,398.141,399.463,403.588,407.55600000000004,410.046,413.856,416.03,418.492,422.617,423.595,427.563,429.58,432.099,436.224,440.349,441.284,445.252,447.747,451.557,455.525,459.799,462.316,466.44,470.565,471.5,475.468" y="441.928" svg_rhmargin="477.485" style="fill:#171615;font-family:NENOCD+AdvOT6e5d2ec0;font-size:7.47px;font-style:NORMAL;font-weight:normal;">Forest plot comparing the total morphine consumption at 6 h, 24 h and 48 h.</text>
  <path d=" M 85.03900146484375 213.73199462890625 L 590.1729736328125 213.73199462890625 L 590.1729736328125 214.2422332763672 L 85.03900146484375 214.2422332763672 Z " style="fill:none;stroke:#000000;stroke-width:1.0;"/>
  <path d=" M 85.03900146484375 93.26000213623047 L 590.1729736328125 93.26000213623047 L 590.1729736328125 93.77024841308594 L 85.03900146484375 93.77024841308594 Z " style="fill:none;stroke:#000000;stroke-width:1.0;"/>
  <path d=" M 268.04400634765625 201.25999450683594 L 512.447021484375 201.25999450683594 L 512.447021484375 201.77023315429688 L 268.04400634765625 201.77023315429688 Z " style="fill:none;stroke:#000000;stroke-width:1.0;"/>
  <path d=" M 139.0679931640625 188.39100646972656 L 85.03999328613281 188.39100646972656 L 85.03999328613281 188.9010009765625 L 139.0679931640625 188.9010009765625" style="fill:none;stroke:#000000;stroke-width:1.0;"/>
  <path d=" M 125.91500091552734 188.39100646972656 L 184.13900756835938 188.39100646972656 L 184.13900756835938 188.9012451171875 L 125.91500091552734 188.9012451171875 Z " style="fill:none;stroke:#000000;stroke-width:1.0;"/>
  <path d=" M 171.04200744628906 188.39100646972656 L 231.36300659179688 188.39100646972656 L 231.36300659179688 188.9012451171875 L 171.04200744628906 188.9012451171875 Z " style="fill:none;stroke:#000000;stroke-width:1.0;"/>
  <path d=" M 218.26800537109375 188.39100646972656 L 268.04400634765625 188.39100646972656 L 268.04400634765625 188.9012451171875 L 218.26800537109375 188.9012451171875 Z " style="fill:none;stroke:#000000;stroke-width:1.0;"/>
  <path d=" M 254.89100646972656 188.39100646972656 L 394.75201416015625 188.39100646972656 L 394.75201416015625 188.9012451171875 L 254.89100646972656 188.9012451171875 Z " style="fill:none;stroke:#000000;stroke-width:1.0;"/>
  <path d=" M 381.6570129394531 188.39100646972656 L 489.48699951171875 188.39100646972656 L 489.48699951171875 188.9012451171875 L 381.6570129394531 188.9012451171875 Z " style="fill:none;stroke:#000000;stroke-width:1.0;"/>
  <path d=" M 476.3900146484375 188.39100646972656 L 525.5430297851562 188.39100646972656 L 525.5430297851562 188.9012451171875 L 476.3900146484375 188.9012451171875 Z " style="fill:none;stroke:#000000;stroke-width:1.0;"/>
  <path d=" M 512.447021484375 188.39100646972656 L 590.1160278320312 188.39100646972656 L 590.1160278320312 188.9012451171875 L 512.447021484375 188.9012451171875 Z " style="fill:none;stroke:#000000;stroke-width:1.0;"/>
  <path d=" M 85.03900146484375 226.88499450683594 L 126.14100646972656 226.88499450683594 L 126.14100646972656 238.8470001220703 L 85.03900146484375 238.8470001220703 Z " style="fill:none;stroke:#000000;stroke-width:1.0;"/>
  <path d=" M 85.03900146484375 238.677001953125 L 590.1729736328125 238.677001953125 L 590.1729736328125 239.18724060058594 L 85.03900146484375 239.18724060058594 Z " style="fill:none;stroke:#000000;stroke-width:1.0;"/>
  <text x="88.044,93.767,99.657,105.794,108.113,114.091,116.673" y="570.167" svg_rhmargin="123.145" style="fill:#ffffff;font-family:NENOCF+AdvOT91f5f621.B;font-size:7.97px;font-style:NORMAL;font-weight:normal;">Table 2</text>
  <text svg_rhmargin="313.784" x="85.039,90.18,94.827,99.641,104.455,107.523,112.337,116.984,121.798,124.383,128.942,133.588,138.147,140.14,144.205,148.437,150.429,154.661,157.264,159.83,164.644,167.71200000000002,170.303,173.037,177.683,182.242,184.929,189.91,195.306,200.447,203.013,209.485,211.478,214.212,218.85899999999998,221.495,224.563,229.122,233.354,236.08800000000002,238.729,243.288,246.02200000000002,248.65,253.049,254.036,258.682,260.834,263.503,267.903,272.302,273.254,277.901,280.567,285.126,289.773,294.58700000000005,297.178,301.578,305.977,306.986,311.632,313.784" y="595.225" style="fill:#171615;font-family:NENOCC+AdvOT34fe1490.B;font-size:7.97px;font-style:NORMAL;font-weight:normal;">Subgroup analysis for the VAS with rest at 8 h, 24 h and 48 h. </text>
  <text x="375.025,377.017,381.002,384.653,386.558,390.543,394.193,398.178,401.829" y="595.225" svg_rhmargin="405.479" style="fill:#171615;font-family:NEOHJI+AdvOT9d0303c0.B;font-size:7.97px;font-style:NORMAL;font-weight:normal;">Incidence</text>
  <text svg_rhmargin="218.304" x="85.039,89.104,92.922,95.488,97.393,101.211,105.196,107.101,110.751,114.23400000000001,139.067,143.132,145.451,149.436,153.421,155.326,158.977,162.459,164.779,168.764,171.083,184.136,188.201,192.019,194.338,196.243,199.893,203.878,206.198,209.681,212.0,215.985,218.304" y="607.188" style="fill:#171615;font-family:NEOHJI+AdvOT9d0303c0.B;font-size:7.97px;font-style:NORMAL;font-weight:normal;">Variables Studies(n) Patients(n) </text>
  <text svg_rhmargin="235.429" x="231.364,235.429" y="607.188" style="fill:#171615;font-family:NFACGL+AdvOT1ae6bdaa.BI;font-size:7.97px;font-style:NORMAL;font-weight:normal;">P </text>
  <text svg_rhmargin="438.133" x="238.111,241.594,245.412,247.317,251.302,254.952,268.045,274.022,277.673,279.578,283.563,287.548,289.867,293.517,297.502,300.075,306.053,309.703,313.521,317.50600000000003,320.144,324.129,326.034,328.354,330.673,334.323,336.89,340.54,344.525,348.176,351.82599999999996,354.386,356.705,360.523,364.341,370.478,373.094,377.327,379.319,381.63800000000003,394.751,399.151,402.801,405.12,408.771,411.337,415.155,419.14,422.79,426.775,430.426,432.331,434.65,438.133" y="607.188" style="fill:#171615;font-family:NEOHJI+AdvOT9d0303c0.B;font-size:7.97px;font-style:NORMAL;font-weight:normal;">value Weighted mean difference (95% CI) Heterogeneity </text>
  <text svg_rhmargin="444.797" x="440.732,444.797" y="607.188" style="fill:#171615;font-family:NFACGL+AdvOT1ae6bdaa.BI;font-size:7.97px;font-style:NORMAL;font-weight:normal;">P </text>
  <text x="447.422,450.905,454.723,456.628,460.613,464.263,466.923,469.243" y="607.188" svg_rhmargin="471.236" style="fill:#171615;font-family:NEOHJI+AdvOT9d0303c0.B;font-size:7.97px;font-style:NORMAL;font-weight:normal;">value (I</text>
  <text x="471.175" y="603.673" svg_rhmargin="474.038" style="fill:#171615;font-family:NEOHJI+AdvOT9d0303c0.B;font-size:5.31px;font-style:NORMAL;font-weight:normal;">2</text>
  <text x="474.066,476.385,489.487,495.377,499.194,503.18,506.83,508.73499999999996,525.542,529.607,533.592,537.577,541.563,544.129,547.947,551.932,555.917,558.537,562.522,564.427,566.746,569.065,572.716,575.282,578.932,582.918,586.568" y="607.187" svg_rhmargin="590.218" style="fill:#171615;font-family:NEOHJI+AdvOT9d0303c0.B;font-size:7.97px;font-style:NORMAL;font-weight:normal;">) Model Subgroup difference</text>
  <text x="85.038,88.688,92.674,96.492,99.098,102.413,104.318,106.978,110.79599999999999,111.797" y="621.531" svg_rhmargin="115.28" style="fill:#171615;font-family:NEOHJJ+AdvOTcb6dfb9e;font-size:7.97px;font-style:NORMAL;font-weight:normal;">VAS at 8 h</text>
  <text svg_rhmargin="249.822" x="92.975,97.04,101.025,105.09,109.075,153.126,156.94400000000002,195.476,199.293,203.111,206.929,236.464,238.369,242.187,246.004,249.822" y="631.508" style="fill:#171615;font-family:NEOHJJ+AdvOTcb6dfb9e;font-size:7.97px;font-style:NORMAL;font-weight:normal;">CACB 2 226 .000 </text>
  <text x="290.323" y="631.508" svg_rhmargin="296.46" style="fill:#171615;font-family:NEOKPK+AdvP4C4E74;font-size:7.97px;font-style:NORMAL;font-weight:normal;">?</text>
  <text x="296.446,300.264,302.169,305.986,309.804,312.433" y="631.508" svg_rhmargin="314.171" style="fill:#171615;font-family:NEOHJJ+AdvOTcb6dfb9e;font-size:7.97px;font-style:NORMAL;font-weight:normal;">3.59 (</text>
  <text x="314.134" y="631.508" svg_rhmargin="320.271" style="fill:#171615;font-family:NEOKPK+AdvP4C4E74;font-size:7.97px;font-style:NORMAL;font-weight:normal;">?</text>
  <text svg_rhmargin="339.338" x="320.257,324.075,327.893,329.797,333.615,337.433,339.33799999999997" y="631.508" style="fill:#171615;font-family:NEOHJJ+AdvOTcb6dfb9e;font-size:7.97px;font-style:NORMAL;font-weight:normal;">10.57, </text>
  <text x="341.97" y="631.508" svg_rhmargin="348.107" style="fill:#171615;font-family:NEOKPK+AdvP4C4E74;font-size:7.97px;font-style:NORMAL;font-weight:normal;">?</text>
  <text x="348.093,351.911,353.816,357.633,361.451,363.18800000000005,419.979,421.884,425.702,429.52,433.337,435.24199999999996,437.837,441.655,443.56,447.378,489.484,492.8,494.211,497.112,500.427,503.91,549.295,553.113,555.018,558.836,562.653" y="631.508" svg_rhmargin="566.471" style="fill:#171615;font-family:NEOHJJ+AdvOTcb6dfb9e;font-size:7.97px;font-style:NORMAL;font-weight:normal;">2.16) .800, 0.0 Fixed 0.003</text>
  <text svg_rhmargin="249.82" x="92.974,97.039,98.45,101.933,105.41600000000001,108.054,111.537,115.02,118.335,119.746,121.157,123.062,125.963,153.124,156.942,195.473,199.291,203.109,206.92700000000002,236.462,238.366,242.184,246.002,249.82000000000002" y="641.486" style="fill:#171615;font-family:NEOHJJ+AdvOTcb6dfb9e;font-size:7.97px;font-style:NORMAL;font-weight:normal;">High quality 3 163 .009 </text>
  <text x="290.323" y="641.486" svg_rhmargin="296.46" style="fill:#171615;font-family:NEOKPK+AdvP4C4E74;font-size:7.97px;font-style:NORMAL;font-weight:normal;">?</text>
  <text x="296.445,300.263,302.168,305.986,309.804,312.432" y="641.486" svg_rhmargin="314.17" style="fill:#171615;font-family:NEOHJJ+AdvOTcb6dfb9e;font-size:7.97px;font-style:NORMAL;font-weight:normal;">7.66 (</text>
  <text x="314.134" y="641.486" svg_rhmargin="320.271" style="fill:#171615;font-family:NEOKPK+AdvP4C4E74;font-size:7.97px;font-style:NORMAL;font-weight:normal;">?</text>
  <text svg_rhmargin="339.337" x="320.256,324.074,327.892,329.797,333.614,337.432,339.337" y="641.486" style="fill:#171615;font-family:NEOHJJ+AdvOTcb6dfb9e;font-size:7.97px;font-style:NORMAL;font-weight:normal;">13.42, </text>
  <text x="341.97" y="641.486" svg_rhmargin="348.107" style="fill:#171615;font-family:NEOKPK+AdvP4C4E74;font-size:7.97px;font-style:NORMAL;font-weight:normal;">?</text>
  <text x="348.092,351.91,353.815,357.633,361.45,363.187,419.979,421.884,425.701,429.519,433.337,435.24199999999996,437.837,441.654,445.472,447.377,451.195,489.484,493.469,496.784,500.267,503.75,507.066" y="641.486" svg_rhmargin="512.462" style="fill:#171615;font-family:NEOHJJ+AdvOTcb6dfb9e;font-size:7.97px;font-style:NORMAL;font-weight:normal;">1.89) .006, 82.5 Random</text>
  <text x="85.037,88.687,92.672,96.49,99.096,102.412,104.31700000000001,106.976,110.794,114.612,115.594" y="651.4639999999999" svg_rhmargin="119.077" style="fill:#171615;font-family:NEOHJJ+AdvOTcb6dfb9e;font-size:7.97px;font-style:NORMAL;font-weight:normal;">VAS at 24 h</text>
  <text svg_rhmargin="249.821" x="92.973,97.038,101.023,105.088,109.073,153.124,156.942,195.474,199.292,203.109,206.92700000000002,236.462,238.367,242.185,246.003,249.821" y="661.386" style="fill:#171615;font-family:NEOHJJ+AdvOTcb6dfb9e;font-size:7.97px;font-style:NORMAL;font-weight:normal;">CACB 3 251 .010 </text>
  <text x="286.523" y="661.386" svg_rhmargin="292.66" style="fill:#171615;font-family:NEOKPK+AdvP4C4E74;font-size:7.97px;font-style:NORMAL;font-weight:normal;">?</text>
  <text x="292.646,296.464,300.281,302.186,306.004,309.822,312.431" y="661.386" svg_rhmargin="314.169" style="fill:#171615;font-family:NEOHJJ+AdvOTcb6dfb9e;font-size:7.97px;font-style:NORMAL;font-weight:normal;">10.23 (</text>
  <text x="314.133" y="661.386" svg_rhmargin="320.27" style="fill:#171615;font-family:NEOKPK+AdvP4C4E74;font-size:7.97px;font-style:NORMAL;font-weight:normal;">?</text>
  <text svg_rhmargin="339.336" x="320.256,324.073,327.891,329.796,333.614,337.431,339.33599999999996" y="661.386" style="fill:#171615;font-family:NEOHJJ+AdvOTcb6dfb9e;font-size:7.97px;font-style:NORMAL;font-weight:normal;">15.46, </text>
  <text x="341.969" y="661.386" svg_rhmargin="348.106" style="fill:#171615;font-family:NEOKPK+AdvP4C4E74;font-size:7.97px;font-style:NORMAL;font-weight:normal;">?</text>
  <text x="348.091,351.909,353.814,357.632,361.449,363.18600000000004,419.978,421.883,425.7,429.518,433.336,435.241,437.836,441.654,445.471,447.376,451.19399999999996,489.483,493.468,496.783,500.266,503.749,507.065,512.461,549.293,553.111,555.015,558.833,562.651" y="661.386" svg_rhmargin="566.469" style="fill:#171615;font-family:NEOHJJ+AdvOTcb6dfb9e;font-size:7.97px;font-style:NORMAL;font-weight:normal;">5.00) .031, 65.7 Random 0.015</text>
  <text svg_rhmargin="249.818" x="92.973,97.037,98.448,101.931,105.414,108.052,111.535,115.018,118.334,119.744,121.155,123.06,125.961,153.122,156.94000000000003,195.472,199.289,203.107,206.925,236.46,238.365,242.183,246.0,249.818" y="671.363" style="fill:#171615;font-family:NEOHJJ+AdvOTcb6dfb9e;font-size:7.97px;font-style:NORMAL;font-weight:normal;">High quality 4 180 .010 </text>
  <text x="290.321" y="671.363" svg_rhmargin="296.458" style="fill:#171615;font-family:NEOKPK+AdvP4C4E74;font-size:7.97px;font-style:NORMAL;font-weight:normal;">?</text>
  <text x="296.444,300.261,302.166,305.984,309.80199999999996,312.43" y="671.363" svg_rhmargin="314.168" style="fill:#171615;font-family:NEOHJJ+AdvOTcb6dfb9e;font-size:7.97px;font-style:NORMAL;font-weight:normal;">9.50 (</text>
  <text x="314.132" y="671.363" svg_rhmargin="320.269" style="fill:#171615;font-family:NEOKPK+AdvP4C4E74;font-size:7.97px;font-style:NORMAL;font-weight:normal;">?</text>
  <text svg_rhmargin="339.335" x="320.255,324.072,327.89,329.795,333.613,337.43,339.335" y="671.363" style="fill:#171615;font-family:NEOHJJ+AdvOTcb6dfb9e;font-size:7.97px;font-style:NORMAL;font-weight:normal;">16.76, </text>
  <text x="341.968" y="671.363" svg_rhmargin="348.105" style="fill:#171615;font-family:NEOKPK+AdvP4C4E74;font-size:7.97px;font-style:NORMAL;font-weight:normal;">?</text>
  <text x="348.091,351.908,353.813,357.631,361.449,363.18600000000004,419.977,421.882,425.7,429.517,433.335,435.23999999999995,437.835,441.653,445.471,447.375,451.193,489.482,493.467,496.783,500.266,503.749,507.064" y="671.363" svg_rhmargin="512.46" style="fill:#171615;font-family:NEOHJJ+AdvOTcb6dfb9e;font-size:7.97px;font-style:NORMAL;font-weight:normal;">2.25) .000, 92.4 Random</text>
  <text x="85.035,88.685,92.67,96.488,99.094,102.41,104.315,106.975,110.792,114.61,115.592" y="681.341" svg_rhmargin="119.075" style="fill:#171615;font-family:NEOHJJ+AdvOTcb6dfb9e;font-size:7.97px;font-style:NORMAL;font-weight:normal;">VAS at 48 h</text>
  <text svg_rhmargin="249.819" x="92.972,97.037,101.022,105.086,109.071,153.123,156.941,195.472,199.29,203.108,206.92600000000002,236.461,238.366,242.183,246.001,249.81900000000002" y="691.263" style="fill:#171615;font-family:NEOHJJ+AdvOTcb6dfb9e;font-size:7.97px;font-style:NORMAL;font-weight:normal;">CACB 3 208 .000 </text>
  <text x="290.32" y="691.263" svg_rhmargin="296.457" style="fill:#171615;font-family:NEOKPK+AdvP4C4E74;font-size:7.97px;font-style:NORMAL;font-weight:normal;">?</text>
  <text x="296.443,300.261,302.166,305.983,309.801,312.43" y="691.263" svg_rhmargin="314.168" style="fill:#171615;font-family:NEOHJJ+AdvOTcb6dfb9e;font-size:7.97px;font-style:NORMAL;font-weight:normal;">2.71 (</text>
  <text x="314.131" y="691.263" svg_rhmargin="320.268" style="fill:#171615;font-family:NEOKPK+AdvP4C4E74;font-size:7.97px;font-style:NORMAL;font-weight:normal;">?</text>
  <text svg_rhmargin="335.517" x="320.254,324.072,325.977,329.794,333.612,335.517" y="691.263" style="fill:#171615;font-family:NEOHJJ+AdvOTcb6dfb9e;font-size:7.97px;font-style:NORMAL;font-weight:normal;">3.55, </text>
  <text x="338.169" y="691.263" svg_rhmargin="344.306" style="fill:#171615;font-family:NEOKPK+AdvP4C4E74;font-size:7.97px;font-style:NORMAL;font-weight:normal;">?</text>
  <text x="344.292,348.11,350.015,353.832,357.65,359.387,419.976,421.881,425.699,429.517,433.334,435.239,437.834,441.652,445.47,447.375,451.193,489.481,493.466,496.782,500.265,503.748,507.063,512.459,549.291,553.109,555.014,558.832,562.649" y="691.263" svg_rhmargin="566.467" style="fill:#171615;font-family:NEOHJJ+AdvOTcb6dfb9e;font-size:7.97px;font-style:NORMAL;font-weight:normal;">1.87) .000, 85.7 Random 0.006</text>
  <text svg_rhmargin="249.818" x="92.972,97.037,98.447,101.93,105.41300000000001,108.051,111.534,115.017,118.333,119.744,121.154,123.059,125.96,153.121,156.93900000000002,195.471,199.289,203.106,206.924,236.459,238.364,242.182,246.0,249.818" y="701.241" style="fill:#171615;font-family:NEOHJJ+AdvOTcb6dfb9e;font-size:7.97px;font-style:NORMAL;font-weight:normal;">High quality 3 300 .002 </text>
  <text x="290.32" y="701.241" svg_rhmargin="296.457" style="fill:#171615;font-family:NEOKPK+AdvP4C4E74;font-size:7.97px;font-style:NORMAL;font-weight:normal;">?</text>
  <text x="296.443,300.261,302.166,305.983,309.801,312.43" y="701.241" svg_rhmargin="314.168" style="fill:#171615;font-family:NEOHJJ+AdvOTcb6dfb9e;font-size:7.97px;font-style:NORMAL;font-weight:normal;">3.13 (</text>
  <text x="314.131" y="701.241" svg_rhmargin="320.268" style="fill:#171615;font-family:NEOKPK+AdvP4C4E74;font-size:7.97px;font-style:NORMAL;font-weight:normal;">?</text>
  <text svg_rhmargin="335.517" x="320.254,324.072,325.977,329.794,333.612,335.517" y="701.241" style="fill:#171615;font-family:NEOHJJ+AdvOTcb6dfb9e;font-size:7.97px;font-style:NORMAL;font-weight:normal;">7.85, </text>
  <text x="338.169" y="701.241" svg_rhmargin="344.306" style="fill:#171615;font-family:NEOKPK+AdvP4C4E74;font-size:7.97px;font-style:NORMAL;font-weight:normal;">?</text>
  <text x="344.292,348.11,350.015,353.832,357.65,359.387,419.976,421.881,425.699,429.517,433.334,435.239,437.834,441.652,445.47,447.375,451.193,489.481,493.466,496.782,500.265,503.748,507.063" y="701.241" svg_rhmargin="512.459" style="fill:#171615;font-family:NEOHJJ+AdvOTcb6dfb9e;font-size:7.97px;font-style:NORMAL;font-weight:normal;">5.69) .000, 72.9 Random</text>
  <text svg_rhmargin="99.129" x="85.039,88.597,92.084,95.642,99.12899999999999" y="716.9449999999999" style="fill:#171615;font-family:NEOHJJ+AdvOTcb6dfb9e;font-size:6.97px;font-style:NORMAL;font-weight:normal;">CACB </text>
  <text x="100.007" y="716.9449999999999" svg_rhmargin="104.728" style="fill:#171615;font-family:NENOCH+AdvOTb0c9bf5d;font-size:6.97px;font-style:NORMAL;font-weight:normal;">=</text>
  <text svg_rhmargin="200.333" x="105.619,108.45,111.352,114.399,116.066,117.3,120.348,123.476,126.377,129.425,132.11,134.417,137.318,140.366,143.414,146.461,149.292,150.959,153.86,155.74300000000002,158.17,161.001,163.903,166.95,169.851,171.085,173.419,176.467,177.701,180.602,183.433,186.265,187.932,190.312,193.506,196.993,200.334" y="716.9449999999999" style="fill:#171615;font-family:NEOHJJ+AdvOTcb6dfb9e;font-size:6.97px;font-style:NORMAL;font-weight:normal;">continuous adductor canal block, VAS </text>
  <text x="201.203" y="716.9449999999999" svg_rhmargin="205.924" style="fill:#171615;font-family:NENOCH+AdvOTb0c9bf5d;font-size:6.97px;font-style:NORMAL;font-weight:normal;">=</text>
  <text x="206.816,209.354,210.589,213.274,216.321,219.222,220.45600000000002,222.802,225.703,228.751,231.652,232.886,235.787,238.835,241.962,244.863,247.178,249.863,252.694,255.596,256.83,259.731" y="716.9449999999999" svg_rhmargin="261.398" style="fill:#171615;font-family:NEOHJJ+AdvOTcb6dfb9e;font-size:6.97px;font-style:NORMAL;font-weight:normal;">visual analogue scale.</text>
  <text x="85.039,89.272,90.683,93.316,97.381,99.7,102.331,106.396,107.806,109.958,112.649,119.2,123.265,127.824,129.235,133.3,134.71,138.943,143.008,145.587,147.492,151.891,156.291,160.69,165.09,166.995,169.623,174.023,178.422,180.574,184.974,189.373,517.041,522.931,528.821,534.711,536.863,543.414,547.973,550.874,552.285,556.685,560.917,563.3,567.532,571.597,573.008,575.16,579.224,583.624" y="9.870999999999981" svg_rhmargin="590.176" style="fill:#171615;font-family:NENOCD+AdvOT6e5d2ec0;font-size:7.97px;font-style:NORMAL;font-weight:normal;">Li et al. Medicine (2018) 97:49 www.md-journal.com</text>
  <text x="335.396" y="739.625" svg_rhmargin="339.796" style="fill:#171615;font-family:NENOIN+AdvOTf94803d4;font-size:7.97px;font-style:NORMAL;font-weight:normal;">7</text>
 </g>
</svg>
