<?xml version="1.0" encoding="UTF-8"?>
<svg height="870.031005859375" width="672.0029907226562" xmlns="http://www.w3.org/2000/svg">
 <g style="fill:none;">
  <path d=" M 0.05999799817800522 826.072021484375 L 22.619997024536133 826.072021484375 L 22.619997024536133 826.35546875 L 0.05999799817800522 826.35546875 Z " style="fill:none;stroke:#000000;stroke-width:1.0;"/>
  <path d=" M 33.67599868774414 837.4110107421875 L 33.959449768066406 837.4110107421875 L 33.959449768066406 860.031005859375 L 33.67599868774414 860.031005859375 Z " style="fill:none;stroke:#000000;stroke-width:1.0;"/>
  <path d=" M 627.9869995117188 837.4110107421875 L 628.2703857421875 837.4110107421875 L 628.2703857421875 860.031005859375 L 627.9869995117188 860.031005859375 Z " style="fill:none;stroke:#000000;stroke-width:1.0;"/>
  <path d=" M 639.3259887695312 826.072021484375 L 662.0029907226562 826.072021484375 L 662.0029907226562 826.35546875 L 639.3259887695312 826.35546875 Z " style="fill:none;stroke:#000000;stroke-width:1.0;"/>
  <path d=" M 639.3259887695312 33.731998443603516 L 662.0029907226562 33.731998443603516 L 662.0029907226562 34.015480041503906 L 639.3259887695312 34.015480041503906 Z " style="fill:none;stroke:#000000;stroke-width:1.0;"/>
  <path d=" M 627.9869995117188 0.0 L 628.2703857421875 0.0 L 628.2703857421875 22.677000045776367 L 627.9869995117188 22.677000045776367 Z " style="fill:none;stroke:#000000;stroke-width:1.0;"/>
  <path d=" M 33.67599868774414 0.0 L 33.959449768066406 0.0 L 33.959449768066406 22.677000045776367 L 33.67599868774414 22.677000045776367 Z " style="fill:none;stroke:#000000;stroke-width:1.0;"/>
  <path d=" M 0.05999799817800522 33.731998443603516 L 22.619997024536133 33.731998443603516 L 22.619997024536133 34.015480041503906 L 0.05999799817800522 34.015480041503906 Z " style="fill:none;stroke:#000000;stroke-width:1.0;"/>
  <text x="71.887,76.836,79.257,84.206,86.62700000000001,91.105,96.234,101.183,106.312,111.539,114.426,119.555,122.569,127.796,130.59300000000002,133.623,138.752,143.979,148.462,153.878,156.021,158.908,163.858,166.001,168.998,173.481,176.368,181.318" y="444.139" svg_rhmargin="185.801" style="fill:#171615;font-family:NEOKOK+AdvOT01861455.I;font-size:8.97px;font-style:NORMAL;font-weight:normal;">9.5. Length of hospital stay</text>
  <text x="71.887,77.302,81.221,86.17,90.653,93.54,98.489,101.026,105.976,108.863,111.401,116.35,121.3,124.752,129.701,132.122,135.009,139.492,141.91299999999998,144.508,151.412,155.331,158.783,162.701,165.257,168.709,172.627,177.577,182.526,185.978,188.865,192.784,197.733,200.292,202.713,207.662,210.213,215.162,217.697,221.149,224.036,228.985,233.935,236.355,240.274,243.726" y="460.069" svg_rhmargin="246.147" style="fill:#171615;font-family:NENOCI+AdvOTbc475f09;font-size:8.97px;font-style:NORMAL;font-weight:normal;">Length of hospital were reported in 4 studies,</text>
  <text svg_rhmargin="285.716" x="246.161,248.327,252.039,255.752,257.568,261.281,264.993,266.81,270.597,274.31,276.126,279.839,283.551,285.716" y="460.069" style="fill:#171615;font-family:NENOCI+AdvOTbc475f09;font-size:5.98px;font-style:NORMAL;font-weight:normal;">[11,12,14,15] </text>
  <text x="288.283,292.767,297.716,302.665,305.178,308.065,313.014" y="460.069" svg_rhmargin="316.932" style="fill:#171615;font-family:NENOCI+AdvOTbc475f09;font-size:8.97px;font-style:NORMAL;font-weight:normal;">and the</text>
  <text x="71.885,76.835,81.784,86.734,89.154,93.073,98.02199999999999,101.818,105.27,109.189,112.641,117.59,120.011,122.898,126.35,130.164,132.584,137.534,142.483,144.904,148.822,153.306,156.193,160.111,165.06,168.884,171.771,176.72,181.203,184.09,186.511,190.37,194.288,199.237,206.608,211.557,216.04,219.492,223.41,228.359,232.151,239.055,241.476,244.363,249.312,253.127,258.542,261.429,267.86699999999996,271.722,276.205,278.626,283.575,288.525,292.443,294.864,298.65,305.088,311.526" y="471.011" svg_rhmargin="316.942" style="fill:#171615;font-family:NENOCI+AdvOTbc475f09;font-size:8.97px;font-style:NORMAL;font-weight:normal;">pooled results indicated that, compared with LIA alone, ACB</text>
  <text x="71.885,75.804,80.753,88.123,93.073,95.494,100.443,104.361,109.31,111.399,118.303,120.724,123.611,128.56,130.617,136.033,138.92,145.35799999999998,147.455,154.359,158.842,162.294,164.349,168.833,172.285,175.737,180.686,184.604,187.025,191.508,194.395,198.314,203.263,205.337,212.241,214.662,217.549,222.49800000000002,224.612,229.095,231.131,234.583,238.502,243.451,248.4,252.319,255.206,257.627,262.576,267.52500000000003,269.625,274.574,277.461,279.489,282.376,287.326,291.244,293.322,295.743,299.662,304.611,309.094,311.981" y="482.009" svg_rhmargin="316.93" style="fill:#171615;font-family:NENOCI+AdvOTbc475f09;font-size:8.97px;font-style:NORMAL;font-weight:normal;">combined with LIA was associated with a reduction of the length</text>
  <text x="71.885,76.835,79.722,83.054,88.003,92.953,96.405,101.354,103.775,106.662,111.145,113.566,116.898,120.35,123.237,127.72,132.203,135.55,140.499,144.982,148.249,153.198,155.619,160.568,165.51700000000002,168.885,173.834,178.317,182.8,186.252,189.521,192.408,201.374,210.34" y="492.951" svg_rhmargin="217.244" style="fill:#171615;font-family:NENOCI+AdvOTbc475f09;font-size:8.97px;font-style:NORMAL;font-weight:normal;">of hospital stay by 0.46 days (WMD</text>
  <text x="218.38" y="492.951" svg_rhmargin="224.45" style="fill:#171615;font-family:NENOCH+AdvOTb0c9bf5d;font-size:8.97px;font-style:NORMAL;font-weight:normal;">=</text>
  <text x="225.58" y="492.951" svg_rhmargin="232.484" style="fill:#171615;font-family:NEOKPK+AdvP4C4E74;font-size:8.97px;font-style:NORMAL;font-weight:normal;">?</text>
  <text svg_rhmargin="287.005" x="232.497,237.446,239.867,244.817,249.766,252.18699999999998,255.513,260.463,265.412,274.378,277.68,284.118,287.005" y="492.951" style="fill:#171615;font-family:NENOCI+AdvOTbc475f09;font-size:8.97px;font-style:NORMAL;font-weight:normal;">0.46, 95% CI </text>
  <text x="290.324" y="492.951" svg_rhmargin="297.228" style="fill:#171615;font-family:NEOKPK+AdvP4C4E74;font-size:8.97px;font-style:NORMAL;font-weight:normal;">?</text>
  <text x="297.241,302.19,304.611,309.56,314.51" y="492.951" svg_rhmargin="316.931" style="fill:#171615;font-family:NENOCI+AdvOTbc475f09;font-size:8.97px;font-style:NORMAL;font-weight:normal;">0.53,</text>
  <text x="71.885" y="503.892" svg_rhmargin="78.789" style="fill:#171615;font-family:NEOKPK+AdvP4C4E74;font-size:8.97px;font-style:NORMAL;font-weight:normal;">?</text>
  <text svg_rhmargin="98.492" x="78.802,83.751,86.172,91.122,96.071,98.492" y="503.892" style="fill:#171615;font-family:NENOCI+AdvOTbc475f09;font-size:8.97px;font-style:NORMAL;font-weight:normal;">0.38, </text>
  <text svg_rhmargin="106.895" x="101.479,106.894" y="503.892" style="fill:#171615;font-family:NEOKOI+AdvOT638a931c.I;font-size:8.97px;font-style:NORMAL;font-weight:normal;">P </text>
  <text x="107.999" y="503.892" svg_rhmargin="114.069" style="fill:#171615;font-family:NENOCH+AdvOTb0c9bf5d;font-size:8.97px;font-style:NORMAL;font-weight:normal;">=</text>
  <text x="115.199,117.62,122.569,127.519,132.468,134.88899999999998,137.932,142.881,145.302,149.785,152.206,155.166,160.116,163.003" y="503.892" svg_rhmargin="165.424" style="fill:#171615;font-family:NENOCI+AdvOTbc475f09;font-size:8.97px;font-style:NORMAL;font-weight:normal;">.000, Fig. 7).</text>
  <text x="71.885,76.835,79.256,84.205,86.626,91.104,96.887,102.016,107.431,112.659,115.922,121.15,126.278,131.693,134.756,139.706,144.834,149.784,151.927,156.41,160.893,163.036" y="528.554" svg_rhmargin="167.519" style="fill:#171615;font-family:NEOKOK+AdvOT01861455.I;font-size:8.97px;font-style:NORMAL;font-weight:normal;">9.6. Subgroup analysis</text>
  <text x="71.885,80.852,84.77000000000001,86.569,91.518,95.436,98.888,101.775,106.725,110.177,117.547,121.465,126.414,128.293,132.776,134.586,138.038,142.987,147.937,152.42,155.872,160.821,165.771,170.72,172.512,176.995,181.945,186.428,188.849,193.332,196.784,199.205,202.657,204.486,208.969,212.888,216.806,221.755,225.207,230.157,232.578,237.527,242.01,243.887,246.774,251.723,253.525,256.412,261.361,265.279,267.131,272.08,277.03,281.513,283.934,286.355,289.242,293.725,295.534,300.483,303.37,305.172,308.059,313.008" y="544.484" svg_rhmargin="316.926" style="fill:#171615;font-family:NENOCI+AdvOTbc475f09;font-size:8.97px;font-style:NORMAL;font-weight:normal;">We performed a subgroup analysis according to the quality of the</text>
  <text x="71.885,75.337,78.225,83.174,88.123,90.544,94.462,97.914,100.401,104.884,109.833,114.782,117.295,120.182,125.132,129.05,131.525,135.443,140.392,145.342,148.229,150.65,155.599,160.549,165.498,170.447,173.899,176.423,182.861,189.299,194.715,197.136,199.61,206.048,209.966,213.418,218.368,220.789,223.676,227.128,229.656,233.575,238.058,243.007,245.474,250.423,254.341,256.869,260.321,264.239,268.158,273.107,275.577,277.998,282.947,285.442,291.324,295.807,300.756,303.177,307.095,309.593,314.542" y="555.482" svg_rhmargin="316.963" style="fill:#171615;font-family:NENOCI+AdvOTbc475f09;font-size:8.97px;font-style:NORMAL;font-weight:normal;">studies and the continuous ACB. Results can be seen in Table 2.</text>
  <text x="71.885,76.835,79.256,84.205,88.688,91.10900000000001,97.169,100.621,104.54,107.992,112.941,115.362,118.249,121.701,127.84,130.26,135.21,140.159,142.58,146.498,150.982,153.869,157.787,162.73600000000002,168.827,171.714,176.664,181.147,184.034,190.144,194.062,199.011,206.382,211.331,213.752,218.701,222.62,227.56900000000002,233.626,240.064,246.501,251.916,258.003,264.907,267.328,270.215,275.164,281.247,286.662,289.549,295.98699999999997,302.109,309.014,313.497" y="566.424" svg_rhmargin="316.949" style="fill:#171615;font-family:NENOCI+AdvOTbc475f09;font-size:8.97px;font-style:NORMAL;font-weight:normal;">Final results indicated that combined ACB with LIA was</text>
  <text x="71.885,76.368,79.821,83.273,88.222,92.14,94.561,99.044,101.931,105.85,110.79899999999999,114.517,121.421,123.842,126.729,131.678,135.437,139.92000000000002,143.6,147.053,150.971,155.92,160.87,164.788,167.675,170.096,175.045,179.994,183.738,188.688,191.575,195.303,201.741,208.178,212.661,216.335,223.239,225.66,228.547,233.496,237.254,240.706,244.625,248.077,250.964,254.659,259.142,262.029,265.771,270.72,271.837,276.787,279.20799999999997,282.892,287.841,292.79,293.947,298.896,302.564,307.047,311.997" y="577.366" svg_rhmargin="316.946" style="fill:#171615;font-family:NENOCI+AdvOTbc475f09;font-size:8.97px;font-style:NORMAL;font-weight:normal;">associated with a reduction of VAS with rest at 8 h, 24 h and</text>
  <text x="71.885,76.835,81.78399999999999,82.883,87.832,90.82,95.303,98.19,101.195,105.678,110.628,115.111,118.09,121.542,126.491,131.44,135.924,139.376,144.325,149.274,154.224" y="588.307" svg_rhmargin="156.645" style="fill:#171615;font-family:NENOCI+AdvOTbc475f09;font-size:8.97px;font-style:NORMAL;font-weight:normal;">48 h at any subgroup.</text>
  <text x="71.887,77.802,83.717,86.67,91.388,98.487,101.241,106.466,111.983,117.899,123.123,128.348,131.102,136.818" y="615.011" svg_rhmargin="142.733" style="fill:#171615;font-family:NENOCA+AdvOTfbba3ace.B;font-size:9.46px;font-style:NORMAL;font-weight:normal;">10. Discussion</text>
  <text x="71.887,77.768,82.718,85.139,88.591,92.692,96.144,100.627,104.079,106.966,110.885,118.255,122.738,125.625,128.046,131.964,136.118,139.57,143.488,147.971,150.392,154.31,161.214,165.314,169.797,174.746,179.69500000000002,183.851,191.222,195.14,198.027,202.51,205.398,209.881,214.83,219.313,221.734,226.217,229.669,232.09,235.542,239.635,244.118,246.539,253.91,257.828,262.777,266.904,269.791,274.74,278.866,283.349,286.801,290.253,294.171,297.623,301.075,305.17,308.057,313.007" y="630.942" svg_rhmargin="316.925" style="fill:#171615;font-family:NENOCI+AdvOTbc475f09;font-size:8.97px;font-style:NORMAL;font-weight:normal;">This systematic review and meta-analysis aimed to assess the</text>
  <text x="71.887,75.805,78.692,81.579,85.497,89.416,92.303,95.755,99.609,104.558,107.44500000000001,111.287,115.205,120.155,127.525,132.475,134.895,139.845,143.763,148.71200000000002,152.558,158.996,165.434,170.849,174.725,181.629,184.05,186.937,191.88600000000002,195.757,201.173,204.06,210.498,214.295,218.778,222.696,226.148,229.6,234.55,238.002,241.846,247.262,250.149,256.587,260.442,264.925,267.346,272.295,277.244,281.16200000000003,285.046,287.933,292.883,296.335,300.126,305.076,309.559,311.98" y="641.883" svg_rhmargin="316.929" style="fill:#171615;font-family:NENOCI+AdvOTbc475f09;font-size:8.97px;font-style:NORMAL;font-weight:normal;">effects of combined ACB with LIA versus LIA alone for pain</text>
  <text svg_rhmargin="266.631" x="71.887,75.805,80.754,85.704,88.591,92.043,96.992,99.41300000000001,103.917,106.338,111.28699999999999,115.766,120.715,125.198,128.086,130.506,134.425,139.374,142.261,145.713,150.234,153.121,158.071,160.492,162.912,167.862,174.766,177.187,182.136,186.619,191.109,196.058,199.51,201.931,209.301,213.785,217.237,221.72,226.2,232.082,238.52,244.958,247.379,251.881,257.763,262.713,266.63100000000003" y="652.825" style="fill:#171615;font-family:NENOCI+AdvOTbc475f09;font-size:8.97px;font-style:NORMAL;font-weight:normal;">control in patients following primary TKA. The </text>
  <text x="271.106" y="652.825" svg_rhmargin="276.055" style="fill:#171615;font-family:NENOCJ+AdvOTbc475f09+fb;font-size:8.97px;font-style:NORMAL;font-weight:normal;">ﬁ</text>
  <text x="276.095,281.044,285.528,287.949,292.423,295.875,299.793,303.245,308.194,310.615,313.502" y="652.825" svg_rhmargin="316.954" style="fill:#171615;font-family:NENOCI+AdvOTbc475f09;font-size:8.97px;font-style:NORMAL;font-weight:normal;">nal results</text>
  <text x="71.887,74.308,79.257,84.206,86.627,90.545,95.029,97.916,101.834,106.783,111.627,114.514,119.464,123.947,126.834,131.639,134.526,137.978,141.896,146.38,149.267,156.637,160.555,165.505,168.392,173.25,180.154,182.575,185.462,190.411,195.189,199.108,204.057,211.427,216.377,218.798,223.747,227.665,232.614,237.481,243.919,250.356,255.771,260.555,267.459,269.88,272.767,277.716,282.551,287.966,290.854,297.292,302.11,309.014,313.497" y="663.823" svg_rhmargin="316.949" style="fill:#171615;font-family:NENOCI+AdvOTbc475f09;font-size:8.97px;font-style:NORMAL;font-weight:normal;">indicated that treatment with combined ACB with LIA was</text>
  <text x="71.887,76.37,79.822,83.274,88.223,92.141,94.562,99.046,101.933,105.851,110.8,115.085,121.989,124.41,127.297,132.246,136.571,138.992,143.942,150.846,154.764,158.216,162.479,167.429,171.912,174.333,179.282,183.569,187.021,190.939,195.889,199.341,203.259,206.71099999999998,211.008,217.912,220.333,223.22,228.169,232.437,235.889,239.807,243.26,246.147,250.465,254.948,257.835,262.087,267.036,271.985,273.142,278.091,282.326,286.809,291.758,296.707,300.977,305.927,310.87600000000003,312.032" y="674.764" svg_rhmargin="316.981" style="fill:#171615;font-family:NENOCI+AdvOTbc475f09;font-size:8.97px;font-style:NORMAL;font-weight:normal;">associated with lower pain scores with rest at 24 h and 48 h</text>
  <text x="71.887,76.836,81.785,85.237,88.125,93.074,98.023,101.942,105.394,109.877,112.764,115.185,119.668,123.586,126.007,130.49,132.911,135.381,138.268,143.217,145.642,150.125,155.074,160.024,162.444,165.332,167.752,172.702,177.651,180.072,182.548,186.466,191.415,198.786,203.735,206.156,211.105,215.024,219.973,222.459,228.896,235.334,240.749,243.151,250.055,252.476,255.363,260.312,262.767,268.182,271.069,277.507,280.001,284.95,288.868,292.787,296.239,300.157,304.64,308.092,312.01" y="685.706" svg_rhmargin="316.959" style="fill:#171615;font-family:NENOCI+AdvOTbc475f09;font-size:8.97px;font-style:NORMAL;font-weight:normal;">postoperatively. In addition, combined ACB with LIA decreased</text>
  <text x="71.887,74.774,79.723,83.641,85.72,88.607,93.556,96.444,100.927,103.34800000000001,105.392,112.762,117.712,121.164,126.113,131.062,133.483,138.433,142.351,144.452,148.37,153.319,158.269,161.721,166.67,174.041,178.99,181.877,184.298,189.247,194.19600000000003,196.267,200.75,203.637,205.678,210.627,211.744,216.693,218.773,223.257,228.206,233.155,235.158,240.107,245.056,246.212,251.161,253.185,257.668,262.618,267.567,269.626,272.513,277.462,281.38,283.458,285.879,289.797,294.747,299.23,302.117,307.06600000000003,309.139,314.089" y="696.704" svg_rhmargin="316.976" style="fill:#171615;font-family:NENOCI+AdvOTbc475f09;font-size:8.97px;font-style:NORMAL;font-weight:normal;">the total morphine consumption at 6 h and 24 h and the length of</text>
  <text x="71.887,76.836,81.785,85.237,90.187,92.608,95.495,99.978,102.399,104.427,107.879,110.766,115.249,119.733,122.15400000000001,124.099,130.537,133.424,136.311,140.23,143.682,145.698,150.181,152.161,156.079,161.029,168.399,173.348,176.8,180.719,185.668,189.586,194.536,197.988,200.409,204.892,208.81,210.836,214.288,218.206,222.689,226.141,230.059,235.008,236.971,241.92,244.807,246.835,254.206,259.155,261.576,264.463,266.884,271.833,274.254,278.172,280.169,284.088,286.508,290.427,294.345,297.232,300.684,305.634,310.583,313.004" y="707.646" svg_rhmargin="316.922" style="fill:#171615;font-family:NENOCI+AdvOTbc475f09;font-size:8.97px;font-style:NORMAL;font-weight:normal;">hospital stay. After a comprehensive search of multiple electronic</text>
  <text svg_rhmargin="316.933" x="71.887,76.836,81.319,84.206,88.689,93.639,98.122,101.574,105.492,108.944,111.36500000000001,113.271,117.754,119.62,122.508,127.457,130.344,134.827,137.248,139.122,144.072,146.959,148.817,153.76600000000002,155.619,159.071,161.958,166.908,171.857,174.278,178.196,181.648,183.568,190.472,194.39,197.842,201.76000000000002,203.637,206.057,211.007,214.925,217.346,222.295,227.245,231.163,236.11200000000002,237.991,240.412,245.36100000000002,247.232,250.119,255.068,257.489,260.941,262.821,270.192,274.11,276.997,281.48,284.367,288.85,293.8,298.283,300.704,305.187,308.639,311.06,314.512,316.933" y="445.213" style="fill:#171615;font-family:NENOCI+AdvOTbc475f09;font-size:8.97px;font-style:NORMAL;font-weight:normal;">databases, a total of 7 studies were included in this meta-analysis. </text>
  <text x="331.938,338.376,341.009,348.379,352.863,355.284,360.233,363.685,366.293,369.745,372.632,376.084,380.003,384.952,389.435,392.322,397.271,399.911,404.86,407.747,410.399,413.286,418.235,422.153,424.798,428.717,433.666,437.118,440.57,444.488,449.438,452.325,454.958,462.329,466.247,469.134,473.617,476.504,480.988,485.937,490.42,492.841,497.324,500.776,503.197,506.649,509.325,516.229,520.712,524.164,526.842,529.729,534.679,538.597,541.242,544.694,547.581,552.064,554.951,557.372,560.824,563.711,566.132,570.051,574.534" y="445.213" svg_rhmargin="576.955" style="fill:#171615;font-family:NENOCI+AdvOTbc475f09;font-size:8.97px;font-style:NORMAL;font-weight:normal;">A major strength of the current meta-analysis was the statistical</text>
  <text x="331.938,335.39,337.811,342.294,347.243,350.695,353.651,360.555,362.976,365.863,370.812,373.833,380.737,385.686,388.107,392.026,396.975,399.968,402.855,407.805,411.723,414.764,419.714,424.663,427.55,431.468,436.418,443.788,447.706,451.158,454.165,461.069,464.987,468.439,472.357,475.367,479.286,483.769,486.19,490.108,495.057,497.478,501.962,504.849,508.767,513.716" y="456.154" svg_rhmargin="516.137" style="fill:#171615;font-family:NENOCI+AdvOTbc475f09;font-size:8.97px;font-style:NORMAL;font-weight:normal;">rigor with which the outcomes were calculated.</text>
  <text x="340.895,346.777,351.727,355.645,360.001,364.95,369.9,374.849,377.27,381.188,386.137,390.557,394.009,397.927,401.379,406.329,408.75,411.637,415.089,419.526,421.947,426.897,431.846,434.267,438.185,442.668,445.555,449.474,454.423,458.813,461.7,466.65,471.133,474.02,478.429,484.866,491.304,496.719,501.162,505.08,510.029,517.4,522.349,524.77,529.719,533.638,538.587,542.999,548.415,551.302,557.74,562.161,569.065,573.548" y="467.152" svg_rhmargin="577.0" style="fill:#171615;font-family:NENOCI+AdvOTbc475f09;font-size:8.97px;font-style:NORMAL;font-weight:normal;">The pooled results indicated that ACB combined LIA was</text>
  <text x="331.938,336.421,339.873,343.325,348.275,352.193,354.614,359.097,361.984,365.902,370.851,374.343,381.247,383.668,386.555,391.504,395.092,399.575,403.086,405.507,409.425,412.877,416.329,419.866,424.815,429.299,431.719,436.668,440.161,443.613,447.532,452.481,455.933,459.851,463.303,466.863,471.346,474.233,477.748,482.697,487.646,488.746,493.695,497.25,501.733,506.682,511.63100000000003,515.108,520.057,525.006,526.162,531.111,534.61,539.093,541.98,544.867,548.785,552.237,555.812,561.694,568.132,574.57" y="478.094" svg_rhmargin="576.991" style="fill:#171615;font-family:NENOCI+AdvOTbc475f09;font-size:8.97px;font-style:NORMAL;font-weight:normal;">associated with a less pain scores at 24 h and 48 h after TKA,</text>
  <text x="331.938,338.842,343.791,346.212,350.131,355.08,357.449,364.353,368.836,372.288,374.627,378.545,383.494,388.444,390.865,395.348,399.831,402.252,406.17,411.119,414.00600000000003,416.408,421.357,426.30600000000004,428.653,433.136,435.456,440.405,445.355,450.304,453.191,458.141,463.09,465.511,470.46,473.347,475.763,482.201,488.638,493.121,495.491,498.379,503.32800000000003,505.696,510.645,513.066,518.016,522.9649999999999,525.312,530.261,535.21,537.631,542.581,545.468,548.92,551.276,555.759,558.646,561.027,565.976,570.925,572.025" y="489.036" svg_rhmargin="576.974" style="fill:#171615;font-family:NENOCI+AdvOTbc475f09;font-size:8.97px;font-style:NORMAL;font-weight:normal;">which was equivalent on a 110-point VAS to 7.42 points at 24 h</text>
  <text x="331.938,336.421,341.371,346.32,349.229,354.178,356.599,361.548,366.497,369.467,374.417,379.366,381.787,386.736,389.624,393.076,395.999,400.482,403.369,406.317,411.266,416.21500000000003,417.372,422.321,424.742,427.69,436.656,441.139,444.074,447.992,450.879,453.825,458.308" y="500.034" svg_rhmargin="460.729" style="fill:#171615;font-family:NENOCI+AdvOTbc475f09;font-size:8.97px;font-style:NORMAL;font-weight:normal;">and 4.72 points at 48 h. Ma et al</text>
  <text svg_rhmargin="472.499" x="460.743,462.909,466.622,470.334,472.499" y="500.038" style="fill:#171615;font-family:NENOCI+AdvOTbc475f09;font-size:5.98px;font-style:NORMAL;font-weight:normal;">[17] </text>
  <text x="475.483,479.402,484.351,489.3,494.25,499.199,503.117,506.005,509.923,514.872,517.831,522.314,525.258,532.628,536.547,539.434,543.917,546.804,551.287,556.237,560.72,563.141,567.624,571.076,573.497" y="500.038" svg_rhmargin="576.949" style="fill:#171615;font-family:NENOCI+AdvOTbc475f09;font-size:8.97px;font-style:NORMAL;font-weight:normal;">conducted a meta-analysis</text>
  <text x="331.936,336.42,341.369,346.318,351.268,354.155,357.901,360.788,365.738,369.656,373.434,377.353,382.302,389.672,394.622,397.043,401.992,405.91,410.85900000000004,414.649,421.087,427.524,432.939,436.701,443.605,446.026,448.914,453.863,457.677,462.627,466.545,469.997,472.418,476.901,480.353,483.24,485.661,489.579,494.529,496.95,501.433,504.885,508.699,511.12" y="510.979" svg_rhmargin="516.069" style="fill:#171615;font-family:NENOCI+AdvOTbc475f09;font-size:8.97px;font-style:NORMAL;font-weight:normal;">about the combined ACB with periarticular in</text>
  <text x="516.076" y="510.979" svg_rhmargin="521.025" style="fill:#171615;font-family:NENOCJ+AdvOTbc475f09+fb;font-size:8.97px;font-style:NORMAL;font-weight:normal;">ﬁ</text>
  <text x="521.008,523.429,526.316,529.768,534.251,537.138,539.559,544.509,549.458,553.265,557.748,561.667,565.119,568.571,573.52" y="510.979" svg_rhmargin="576.972" style="fill:#171615;font-family:NENOCI+AdvOTbc475f09;font-size:8.97px;font-style:NORMAL;font-weight:normal;">ltration versus</text>
  <text x="331.936,336.886,340.804,344.256,346.677,351.16,354.612,357.499,359.92,363.839,368.788,371.209,375.692,379.144,382.221,384.642" y="521.921" svg_rhmargin="389.591" style="fill:#171615;font-family:NENOCI+AdvOTbc475f09;font-size:8.97px;font-style:NORMAL;font-weight:normal;">periarticular in</text>
  <text x="389.593" y="521.921" svg_rhmargin="394.542" style="fill:#171615;font-family:NENOCJ+AdvOTbc475f09+fb;font-size:8.97px;font-style:NORMAL;font-weight:normal;">ﬁ</text>
  <text x="394.582,397.003,399.89,403.342,407.825,410.713,413.133,418.083,423.03200000000004,426.102,428.99,433.939,437.391,440.502,444.985,449.935,454.418,456.839,461.322,465.24,468.692,471.113,475.596,478.656,483.139,486.026,488.913,492.831,496.283,499.405,505.286,511.724,518.162,520.5830000000001,523.668,529.55,534.5,538.418,541.526,544.979,548.897,552.349,557.298,559.719,562.606,566.058,569.135,574.085" y="521.921" svg_rhmargin="576.972" style="fill:#171615;font-family:NENOCI+AdvOTbc475f09;font-size:8.97px;font-style:NORMAL;font-weight:normal;">ltration for analgesia after TKA. The results of</text>
  <text x="331.936,334.824,339.773,343.691,346.112,349.564,352.572,359.943,363.861,366.748,371.231,374.118,378.602,383.551,388.034,390.455,394.938,398.39,400.811,404.263,407.336,410.788,414.706,419.189,423.108,427.591,430.012,433.93,438.879,441.917,444.804,449.754,454.237,457.124,460.172,464.09,469.039,476.41,481.359,483.78,488.729,492.648,497.59700000000004,500.649,507.087,513.525,518.9399999999999,521.965,528.869,531.29,534.177,539.126,542.147,547.096,551.015,554.467,556.888,561.371,564.823,567.71,570.131,574.049" y="532.919" svg_rhmargin="576.936" style="fill:#171615;font-family:NENOCI+AdvOTbc475f09;font-size:8.97px;font-style:NORMAL;font-weight:normal;">their meta-analysis revealed that combined ACB with periartic-</text>
  <text x="331.936,336.886,339.307,343.79,347.242,350.021,352.442" y="543.861" svg_rhmargin="357.391" style="fill:#171615;font-family:NENOCI+AdvOTbc475f09;font-size:8.97px;font-style:NORMAL;font-weight:normal;">ular in</text>
  <text x="357.392" y="543.861" svg_rhmargin="362.341" style="fill:#171615;font-family:NENOCJ+AdvOTbc475f09+fb;font-size:8.97px;font-style:NORMAL;font-weight:normal;">ﬁ</text>
  <text x="362.381,364.802,367.689,371.141,375.624,378.511,380.932,385.881,390.83,393.617,400.988,405.471,409.954,412.779,417.729,422.678,425.565,428.369,432.852,436.304,439.756,444.706,448.624,451.045,455.528,458.415,462.333,465.161,472.065,474.486,477.373,482.322,485.173,489.656,492.487,495.939,499.857,504.807,509.756,513.674,516.562,518.982,523.932,528.881,531.717,534.138,539.087,541.865,546.349,551.298,555.781,558.202,562.685,566.603,570.055,572.476" y="543.861" svg_rhmargin="576.959" style="fill:#171615;font-family:NENOCI+AdvOTbc475f09;font-size:8.97px;font-style:NORMAL;font-weight:normal;">ltration may not associate with a reduction in analgesia</text>
  <text x="331.936,338.841,343.79,347.708,352.65700000000004,356.597,360.516,365.465,372.835,377.785,382.268,385.72,389.638,394.587,398.605,401.493,406.442,410.398,415.347,419.266,422.718,425.138,429.622,433.074,435.961,438.382,442.3,447.249,449.67,454.153,457.605,461.647,464.067" y="554.802" svg_rhmargin="469.016" style="fill:#171615;font-family:NENOCI+AdvOTbc475f09;font-size:8.97px;font-style:NORMAL;font-weight:normal;">when compared to periarticular in</text>
  <text x="469.02" y="554.802" svg_rhmargin="473.969" style="fill:#171615;font-family:NENOCJ+AdvOTbc475f09+fb;font-size:8.97px;font-style:NORMAL;font-weight:normal;">ﬁ</text>
  <text x="473.953,476.374,479.261,482.713,487.196,490.083,492.504,497.453,502.402,506.437,510.92,513.341,518.29,523.24,527.158,531.154,533.575,538.524,542.493,545.38,550.33,554.248,558.197,562.115,566.598,570.05,572.471" y="554.802" svg_rhmargin="576.954" style="fill:#171615;font-family:NENOCI+AdvOTbc475f09;font-size:8.97px;font-style:NORMAL;font-weight:normal;">ltration alone in the early</text>
  <text x="331.936,336.886,341.835,345.287,348.174,353.124,358.073,361.992,365.444,369.927,372.814,375.235,379.718,383.636,385.68,390.629,394.547,397.999,400.42,405.37,410.319,412.438,416.921,419.808,422.695,426.613,430.065,432.11,437.992,444.43,450.867,453.288,455.353,464.319,466.74,469.628,474.577,476.669,480.121,484.039,487.491,492.44,496.359,500.277,503.164,505.241,508.128,513.077,515.162,521.6,528.038,532.521,534.607,538.059,541.978,546.927,550.379,554.297,557.749,559.778,566.682,569.103,571.99" y="565.744" svg_rhmargin="576.939" style="fill:#171615;font-family:NENOCI+AdvOTbc475f09;font-size:8.97px;font-style:NORMAL;font-weight:normal;">postoperative period after TKA. With respect to VAS scores with</text>
  <text x="331.936,339.307,344.256,349.206,351.626,354.047,356.468,360.387,364.87,367.757,370.178,375.127,380.076,384.772,389.255,392.142,396.791,401.74,402.914,407.863,410.284,414.932,419.882,424.831,425.93,430.879,435.568,440.051,445.001,449.95,452.371,457.054,462.003,466.952,468.109,473.058,475.479,480.127,483.014,487.964,491.882,495.334,499.252,503.937,510.841,515.324,518.776,523.495,528.445,533.394,538.065,541.518,543.938,548.422,553.371" y="576.742" svg_rhmargin="555.792" style="fill:#171615;font-family:NENOCI+AdvOTbc475f09;font-size:8.97px;font-style:NORMAL;font-weight:normal;">mobilization at 8 h, 24 h and, 48 h, there was no signi</text>
  <text x="555.818" y="576.742" svg_rhmargin="560.767" style="fill:#171615;font-family:NENOCJ+AdvOTbc475f09+fb;font-size:8.97px;font-style:NORMAL;font-weight:normal;">ﬁ</text>
  <text x="560.75,564.668,569.152,574.101" y="576.742" svg_rhmargin="576.988" style="fill:#171615;font-family:NENOCI+AdvOTbc475f09;font-size:8.97px;font-style:NORMAL;font-weight:normal;">cant</text>
  <text x="331.936,336.886,339.307,342.194,345.081,348.999,352.451,356.37,361.319,365.237,369.15500000000003,374.001,378.95,382.869,385.756,392.66,396.578,400.496,405.445,410.34,414.258,419.207,426.578,431.527,433.948,438.897,442.816,447.765,452.631,459.069,465.507,470.922,475.761,482.665,485.086,487.973,492.922,497.815,503.23,506.118,512.556,517.43,521.914,526.863,531.812,536.649,542.064,544.952,551.39,556.264,560.748,563.168,568.118,573.067" y="587.683" svg_rhmargin="576.985" style="fill:#171615;font-family:NENOCI+AdvOTbc475f09;font-size:8.97px;font-style:NORMAL;font-weight:normal;">difference between combined ACB with LIA and LIA alone</text>
  <text svg_rhmargin="444.343" x="331.936,336.42,339.872,344.821,349.77,354.72,357.141,360.792,368.261,373.21,380.114,384.033,388.516,392.434,395.886,398.307,402.006,408.444,413.394,418.343,423.29200000000003,426.951,430.869,433.75600000000003,437.439,441.922,444.343" y="594.658" style="fill:#171615;font-family:NENOCI+AdvOTbc475f09;font-size:8.97px;font-style:NORMAL;font-weight:normal;">group. However, Zhou et al </text>
  <text svg_rhmargin="459.744" x="447.987,450.153,453.866,457.579,459.744" y="598.627" style="fill:#171615;font-family:NENOCI+AdvOTbc475f09;font-size:5.98px;font-style:NORMAL;font-weight:normal;">[12] </text>
  <text x="463.465,466.917,470.835,475.318,479.236,483.719,486.14,490.059,495.00800000000004,498.67,501.557,506.506,510.99,513.877,517.605,521.523,526.473,533.843,538.792,541.213,546.163,550.081,555.03,558.706,565.143,571.581" y="598.627" svg_rhmargin="576.997" style="fill:#171615;font-family:NENOCI+AdvOTbc475f09;font-size:8.97px;font-style:NORMAL;font-weight:normal;">revealed that combined ACB</text>
  <text x="331.936,338.84,341.261,344.148,349.09700000000004,355.633,361.049,363.936,370.37399999999997,376.95,383.854,388.337,391.789,398.323,402.806,406.258,409.71,414.659,418.577,420.998,425.482,428.369,432.287,437.236,443.789,450.693,453.114,456.001,460.95,467.542,472.025,478.54,481.993,485.911,490.86,495.81,499.728,502.615,505.036,509.985,514.934,521.512,526.462,529.3489999999999,535.856,542.294,548.731,553.2139999999999,559.78,566.684,569.105,571.992" y="609.625" svg_rhmargin="576.941" style="fill:#171615;font-family:NENOCI+AdvOTbc475f09;font-size:8.97px;font-style:NORMAL;font-weight:normal;">with LIA was associated with a reduction of VAS with</text>
  <text x="331.936,339.306,344.256,349.205,351.626,354.047,356.468,360.386,364.869,367.756,370.177,375.127,380.076,383.071,387.554,390.441,393.446,398.395,403.344,404.444,409.39300000000003,412.381,416.864,421.813,426.762,429.785,434.735,439.684,440.783,445.732,448.72,451.608,456.557,461.04,465.98900000000003,469.016,474.431,477.318,483.756,486.76,491.243,493.664,498.613,503.563,507.481,510.457,514.94,518.392,523.342,528.291,533.24" y="620.566" svg_rhmargin="535.661" style="fill:#171615;font-family:NENOCI+AdvOTbc475f09;font-size:8.97px;font-style:NORMAL;font-weight:normal;">mobilization at 24 h and 48 h than LIA alone group.</text>
  <text x="340.893,345.843,350.792,354.244,357.131,362.081,365.999,369.451,376.821,381.771,385.223,389.141,391.562,396.904,400.822,405.772,413.142,418.091,420.512,425.462,429.38,434.329,439.649,446.087,452.525,457.94,463.233,470.137,472.558,475.445,480.394,485.74,491.155,494.042,500.47999999999996,505.752,510.236,513.688,517.14,522.089,526.007,528.428,532.911,535.798,539.717,544.6659999999999,550.028,556.932,559.353,562.24,567.189,572.478" y="631.508" svg_rhmargin="576.961" style="fill:#171615;font-family:NENOCI+AdvOTbc475f09;font-size:8.97px;font-style:NORMAL;font-weight:normal;">Furthermore, combined ACB with LIA associated with a</text>
  <text x="331.936,335.388,339.306,344.256,349.205,353.123,356.011,358.431,363.381,368.33,370.542,375.492,378.379,380.576,383.464,388.413,391.3,395.783,398.204,400.418,407.788,412.738,416.19,421.139,426.089,428.509,433.459,437.377,439.592,443.51,448.459,453.409,456.861,461.81,469.181,474.13,477.017,479.438,484.387,489.336,491.521,496.004,498.891,501.102,506.051,507.168,512.117,514.312,517.199,526.165,535.131" y="642.506" svg_rhmargin="542.035" style="fill:#171615;font-family:NENOCI+AdvOTbc475f09;font-size:8.97px;font-style:NORMAL;font-weight:normal;">reduction of total morphine consumption at 6 h (WMD</text>
  <text x="543.175" y="642.506" svg_rhmargin="549.245" style="fill:#171615;font-family:NENOCH+AdvOTb0c9bf5d;font-size:8.97px;font-style:NORMAL;font-weight:normal;">=</text>
  <text x="550.375" y="642.506" svg_rhmargin="557.279" style="fill:#171615;font-family:NEOKPK+AdvP4C4E74;font-size:8.97px;font-style:NORMAL;font-weight:normal;">?</text>
  <text x="557.292,562.241,564.662,569.611,574.561" y="642.506" svg_rhmargin="576.982" style="fill:#171615;font-family:NENOCI+AdvOTbc475f09;font-size:8.97px;font-style:NORMAL;font-weight:normal;">9.36,</text>
  <text svg_rhmargin="364.618" x="331.936,336.885,341.835,350.801,355.293,361.731,364.618" y="653.448" style="fill:#171615;font-family:NENOCI+AdvOTbc475f09;font-size:8.97px;font-style:NORMAL;font-weight:normal;">95% CI </text>
  <text x="369.184" y="653.448" svg_rhmargin="376.088" style="fill:#171615;font-family:NEOKPK+AdvP4C4E74;font-size:8.97px;font-style:NORMAL;font-weight:normal;">?</text>
  <text svg_rhmargin="400.74" x="376.1,381.05,385.999,388.42,393.37,398.319,400.74" y="653.448" style="fill:#171615;font-family:NENOCI+AdvOTbc475f09;font-size:8.97px;font-style:NORMAL;font-weight:normal;">16.57, </text>
  <text x="405.297" y="653.448" svg_rhmargin="412.201" style="fill:#171615;font-family:NEOKPK+AdvP4C4E74;font-size:8.97px;font-style:NORMAL;font-weight:normal;">?</text>
  <text svg_rhmargin="431.904" x="412.214,417.163,419.584,424.534,429.483,431.904" y="653.448" style="fill:#171615;font-family:NENOCI+AdvOTbc475f09;font-size:8.97px;font-style:NORMAL;font-weight:normal;">2.15, </text>
  <text svg_rhmargin="441.895" x="436.479,441.894" y="653.448" style="fill:#171615;font-family:NEOKOI+AdvOT638a931c.I;font-size:8.97px;font-style:NORMAL;font-weight:normal;">P </text>
  <text x="442.998" y="653.448" svg_rhmargin="449.068" style="fill:#171615;font-family:NENOCH+AdvOTb0c9bf5d;font-size:8.97px;font-style:NORMAL;font-weight:normal;">=</text>
  <text x="450.198,452.619,457.568,462.518,467.467,470.354,474.915,479.399,484.348,489.297,493.794,498.743,503.692,504.849,509.798,514.316,517.203,526.169,535.136" y="653.448" svg_rhmargin="542.04" style="fill:#171615;font-family:NENOCI+AdvOTbc475f09;font-size:8.97px;font-style:NORMAL;font-weight:normal;">.011) and 24 h (WMD</text>
  <text x="543.175" y="653.448" svg_rhmargin="549.245" style="fill:#171615;font-family:NENOCH+AdvOTb0c9bf5d;font-size:8.97px;font-style:NORMAL;font-weight:normal;">=</text>
  <text x="550.375" y="653.448" svg_rhmargin="557.279" style="fill:#171615;font-family:NEOKPK+AdvP4C4E74;font-size:8.97px;font-style:NORMAL;font-weight:normal;">?</text>
  <text x="557.292,562.241,564.662,569.611,574.561" y="653.448" svg_rhmargin="576.982" style="fill:#171615;font-family:NENOCI+AdvOTbc475f09;font-size:8.97px;font-style:NORMAL;font-weight:normal;">7.75,</text>
  <text svg_rhmargin="362.861" x="331.936,336.885,341.835,350.801,353.536,359.974,362.861" y="664.389" style="fill:#171615;font-family:NENOCI+AdvOTbc475f09;font-size:8.97px;font-style:NORMAL;font-weight:normal;">95% CI </text>
  <text x="365.612" y="664.389" svg_rhmargin="372.516" style="fill:#171615;font-family:NEOKPK+AdvP4C4E74;font-size:8.97px;font-style:NORMAL;font-weight:normal;">?</text>
  <text svg_rhmargin="397.168" x="372.528,377.478,382.427,384.848,389.797,394.747,397.168" y="664.389" style="fill:#171615;font-family:NENOCI+AdvOTbc475f09;font-size:8.97px;font-style:NORMAL;font-weight:normal;">11.02, </text>
  <text x="399.911" y="664.389" svg_rhmargin="406.815" style="fill:#171615;font-family:NEOKPK+AdvP4C4E74;font-size:8.97px;font-style:NORMAL;font-weight:normal;">?</text>
  <text svg_rhmargin="426.518" x="406.828,411.777,414.198,419.148,424.097,426.518" y="664.389" style="fill:#171615;font-family:NENOCI+AdvOTbc475f09;font-size:8.97px;font-style:NORMAL;font-weight:normal;">4.48, </text>
  <text svg_rhmargin="434.695" x="429.279,434.694" y="664.389" style="fill:#171615;font-family:NEOKOI+AdvOT638a931c.I;font-size:8.97px;font-style:NORMAL;font-weight:normal;">P </text>
  <text x="435.855" y="664.389" svg_rhmargin="441.925" style="fill:#171615;font-family:NENOCH+AdvOTb0c9bf5d;font-size:8.97px;font-style:NORMAL;font-weight:normal;">=</text>
  <text x="442.999,445.42,450.369,455.319,460.268,463.155,465.57599999999996,468.397,472.88,477.363,484.267,489.217,494.166,498.084,502.567,505.303,509.221,512.108,514.885,519.368" y="664.389" svg_rhmargin="521.789" style="fill:#171615;font-family:NENOCI+AdvOTbc475f09;font-size:8.97px;font-style:NORMAL;font-weight:normal;">.000). Sawhney et al</text>
  <text svg_rhmargin="533.558" x="521.802,523.968,527.68,531.393,533.558" y="664.391" style="fill:#171615;font-family:NENOCI+AdvOTbc475f09;font-size:5.98px;font-style:NORMAL;font-weight:normal;">[16] </text>
  <text x="536.315,539.202,544.151,549.101,554.05,558.9989999999999,561.769,564.656,569.606,574.089" y="664.391" svg_rhmargin="576.976" style="fill:#171615;font-family:NENOCI+AdvOTbc475f09;font-size:8.97px;font-style:NORMAL;font-weight:normal;">found that</text>
  <text x="331.936,334.823,339.773,343.69100000000003,345.712,349.63,354.58,361.95,366.899,369.32,374.27,378.753,381.64,384.061,389.01,393.959,396.053,401.003,403.89,405.974,412.412,418.85,424.26500000000004,426.327,433.231,435.652,438.539,443.488,445.602,451.018,453.905,460.34299999999996,462.382,467.332,470.784,475.733,480.216,482.637,487.587,491.505,496.454,498.551,503.501,507.419,510.306,513.193,517.112,520.564,522.645,527.594,532.077,534.498,539.447,541.523,544.975,548.894,551.315,553.735,557.654,560.5409999999999,562.612,567.095,572.045" y="675.389" svg_rhmargin="576.994" style="fill:#171615;font-family:NENOCI+AdvOTbc475f09;font-size:8.97px;font-style:NORMAL;font-weight:normal;">the combination of ACB with LIA provided better pain relief and</text>
  <text x="331.936,335.388,339.306,344.256,349.205,353.123,357.041,360.225,363.112,368.061,370.948,375.432,377.853,381.088,388.458,393.407,396.859,401.809,406.758,409.179,414.128,418.046,421.282,425.2,430.149,435.099,438.551,443.5,450.871,455.82,458.707,461.128,466.077,471.026,474.288,478.206,483.156,490.526,495.475,499.958,503.41,507.329,512.278,515.446,522.35,524.771,527.658,532.607,535.855,541.271,544.158,550.596,553.826,558.309,560.73,565.68,570.629,574.547" y="686.33" svg_rhmargin="576.968" style="fill:#171615;font-family:NENOCI+AdvOTbc475f09;font-size:8.97px;font-style:NORMAL;font-weight:normal;">reduce total morphine consumption compared with LIA alone.</text>
  <text x="331.936,338.84,343.79,348.739,356.109,361.059,366.008,370.957,374.409,379.359,384.308,387.195,390.083,392.503,395.955,398.264,402.183,405.07,407.335,411.818" y="697.272" svg_rhmargin="414.239" style="fill:#171615;font-family:NENOCI+AdvOTbc475f09;font-size:8.97px;font-style:NORMAL;font-weight:normal;">Gudmundsdottir et al</text>
  <text svg_rhmargin="426.011" x="414.255,416.421,420.134,423.846,426.011" y="697.272" style="fill:#171615;font-family:NENOCI+AdvOTbc475f09;font-size:5.98px;font-style:NORMAL;font-weight:normal;">[10] </text>
  <text x="428.315,430.736,435.685,440.634,443.055,446.974,451.457,454.344,458.262,463.211,465.504,468.391,473.341,477.824,480.711,483.022,487.971,492.92,495.154,500.104,504.022,508.971" y="697.272" svg_rhmargin="512.889" style="fill:#171615;font-family:NENOCI+AdvOTbc475f09;font-size:8.97px;font-style:NORMAL;font-weight:normal;">indicated that no bene</text>
  <text x="512.901" y="697.272" svg_rhmargin="517.85" style="fill:#171615;font-family:NENOCJ+AdvOTbc475f09+fb;font-size:8.97px;font-style:NORMAL;font-weight:normal;">ﬁ</text>
  <text x="517.89,520.7769999999999,523.049,527.998,530.885,533.141,539.578,546.016,551.4309999999999,553.72,558.203,563.153,568.102,572.02" y="697.272" svg_rhmargin="576.969" style="fill:#171615;font-family:NENOCI+AdvOTbc475f09;font-size:8.97px;font-style:NORMAL;font-weight:normal;">t of ACB added</text>
  <text x="331.936,334.823,339.772,342.197,346.68,349.114,352.566,354.987,359.936,364.419,366.84,370.758,373.645,378.595,383.544,386.996,390.914,393.389,398.805,401.692,408.13,410.567,414.485,419.435,426.805,431.754,436.237,439.689,443.608,448.557,450.988,457.892,460.313,463.2,468.149,470.603,476.019,478.906,485.344,487.781,492.264,494.685,499.635,504.584,508.502,510.968,515.917,520.866,523.27,528.219,532.702,535.123,540.072,542.545,547.028,551.977,556.9259999999999,559.325,562.212,567.162,570.049,574.532" y="708.2139999999999" svg_rhmargin="576.953" style="fill:#171615;font-family:NENOCI+AdvOTbc475f09;font-size:8.97px;font-style:NORMAL;font-weight:normal;">to a single-dose LIA compared with LIA alone on pain and total</text>
  <text x="331.936,339.306,344.256,347.708,352.657,357.607,360.027,364.977,368.895,371.903,375.822,380.771,385.72,389.172,394.122,401.492,406.441,409.329,411.75,416.699,421.648" y="719.212" svg_rhmargin="424.069" style="fill:#171615;font-family:NENOCI+AdvOTbc475f09;font-size:8.97px;font-style:NORMAL;font-weight:normal;">morphine consumption.</text>
  <path d=" M 71.88700103759766 766.885009765625 L 577.02099609375 766.885009765625 L 577.02099609375 767.6220092773438 L 71.88700103759766 767.6220092773438 Z " style="fill:none;stroke:#000000;stroke-width:1.0;"/>
  <path d=" M 71.88700103759766 380.40899658203125 L 577.02099609375 380.40899658203125 L 577.02099609375 381.14599609375 L 71.88700103759766 381.14599609375 Z " style="fill:none;stroke:#000000;stroke-width:1.0;"/>
  <path d="M90.084 40.202 L558.822 40.202 L558.822 400.484 L90.084 400.484 " style="fill:none;stroke:#000000;stroke-width:1.0;"/>
  <rect style="stroke:blue;stroke-width:0.3;" x="90.085" y="40.202" height="360.283" width="469.036" title="6"/>
  <text x="90.085" y="40.202" class="image" id="image.6.1" width="469" height="360">image.6.1.90_559.40_400</text>
  <text svg_rhmargin="171.517" x="141.392,145.749,147.535,151.892,156.167,158.73,162.855,165.375,169.5,171.517" y="411.484" style="fill:#171615;font-family:NENOIN+AdvOTf94803d4;font-size:7.47px;font-style:NORMAL;font-weight:normal;">Figure 5. </text>
  <text svg_rhmargin="427.652" x="175.238,179.205,183.33,185.725,189.536,193.115,195.28900000000002,197.8,202.074,203.397,207.521,209.695,212.199,216.01,220.134,226.276,230.55,234.361,236.692,238.014,241.982,246.107,248.65,253.006,257.676,262.346,264.863,268.442,272.252,276.377,278.708,282.519,286.098,288.616,294.137,295.46,297.634,301.60200000000003,304.092,310.234,314.358,318.632,319.955,321.277,322.6,326.022,329.832,332.096,333.418,337.543,341.511,344.0,347.811,349.98499999999996,352.447,356.572,357.55,361.517,363.534,366.053,370.178,374.303,375.237,379.20500000000004,381.7,385.511,389.478,393.752,396.269,400.394,404.519,405.453,409.42,411.437,413.957,418.313,422.982,427.65200000000004" y="411.484" style="fill:#171615;font-family:NENOCD+AdvOT6e5d2ec0;font-size:7.47px;font-style:NORMAL;font-weight:normal;">Forest plot comparing VAS scores with mobilization at 8 h, 24 h and 48 h. VAS </text>
  <text svg_rhmargin="435.186" x="430.128,435.187" y="411.484" style="fill:#171615;font-family:NENOCH+AdvOTb0c9bf5d;font-size:7.47px;font-style:NORMAL;font-weight:normal;">= </text>
  <text x="437.724,441.147,442.469,446.048,450.016,453.826,455.149,457.622,461.432,465.4,469.211,470.603,474.728,478.852,482.82,486.631,489.141,492.72,496.53,500.341,501.664,505.474" y="411.484" svg_rhmargin="507.491" style="fill:#171615;font-family:NENOCD+AdvOT6e5d2ec0;font-size:7.47px;font-style:NORMAL;font-weight:normal;">visual analogue scale.</text>
  <text svg_rhmargin="176.221" x="71.887,76.119,77.53,80.164,84.228,86.547,89.178,93.243,94.653,96.805,99.496,106.048,110.112,114.671,116.082,120.147,121.558,125.79,129.85500000000002,132.434,134.339,138.738,143.138,147.537,151.937,153.842,156.47,160.87,165.269,167.421,171.821,176.22" y="9.870999999999981" style="fill:#171615;font-family:NENOCD+AdvOT6e5d2ec0;font-size:7.97px;font-style:NORMAL;font-weight:normal;">Li et al. Medicine (2018) 97:49 </text>
  <text x="542.723,549.944,554.503,559.317,561.31,565.869,567.861,572.508" y="9.870999999999981" svg_rhmargin="577.067" style="fill:#171615;font-family:NENOCC+AdvOT34fe1490.B;font-size:7.97px;font-style:NORMAL;font-weight:normal;">Medicine</text>
  <text x="322.243" y="739.625" svg_rhmargin="326.643" style="fill:#171615;font-family:NENOIN+AdvOTf94803d4;font-size:7.97px;font-style:NORMAL;font-weight:normal;">6</text>
 </g>
</svg>
